<?xml version="1.0" standalone="no"?>
<!DOCTYPE svg PUBLIC "-//W3C//DTD SVG 1.1//EN" "http://www.w3.org/Graphics/SVG/1.1/DTD/svg11.dtd">
<svg version="1.1" width="1200" height="358" onload="init(evt)" viewBox="0 0 1200 358" xmlns="http://www.w3.org/2000/svg" xmlns:xlink="http://www.w3.org/1999/xlink">
<!-- Flame graph stack visualization. See https://github.com/brendangregg/FlameGraph for latest version, and http://www.brendangregg.com/flamegraphs.html for examples. -->
<!-- NOTES:  -->
<defs>
	<linearGradient id="background" y1="0" y2="1" x1="0" x2="0" >
		<stop stop-color="#eeeeee" offset="5%" />
		<stop stop-color="#eeeeb0" offset="95%" />
	</linearGradient>
</defs>
<style type="text/css">
	text { font-family:Verdana; font-size:12px; fill:rgb(0,0,0); }
	#search, #ignorecase { opacity:0.1; cursor:pointer; }
	#search:hover, #search.show, #ignorecase:hover, #ignorecase.show { opacity:1; }
	#subtitle { text-anchor:middle; font-color:rgb(160,160,160); }
	#title { text-anchor:middle; font-size:17px}
	#unzoom { cursor:pointer; }
	#frames > *:hover { stroke:black; stroke-width:0.5; cursor:pointer; }
	.hide { display:none; }
	.parent { opacity:0.5; }
</style>
<script type="text/ecmascript">
<![CDATA[
	"use strict";
	var details, searchbtn, unzoombtn, matchedtxt, svg, searching, currentSearchTerm, ignorecase, ignorecaseBtn;
	function init(evt) {
		details = document.getElementById("details").firstChild;
		searchbtn = document.getElementById("search");
		ignorecaseBtn = document.getElementById("ignorecase");
		unzoombtn = document.getElementById("unzoom");
		matchedtxt = document.getElementById("matched");
		svg = document.getElementsByTagName("svg")[0];
		searching = 0;
		currentSearchTerm = null;

		// use GET parameters to restore a flamegraphs state.
		var params = get_params();
		if (params.x && params.y)
			zoom(find_group(document.querySelector('[x="' + params.x + '"][y="' + params.y + '"]')));
                if (params.s) search(params.s);
	}

	// event listeners
	window.addEventListener("click", function(e) {
		var target = find_group(e.target);
		if (target) {
			if (target.nodeName == "a") {
				if (e.ctrlKey === false) return;
				e.preventDefault();
			}
			if (target.classList.contains("parent")) unzoom(true);
			zoom(target);
			if (!document.querySelector('.parent')) {
				// we have basically done a clearzoom so clear the url
				var params = get_params();
				if (params.x) delete params.x;
				if (params.y) delete params.y;
				history.replaceState(null, null, parse_params(params));
				unzoombtn.classList.add("hide");
				return;
			}

			// set parameters for zoom state
			var el = target.querySelector("rect");
			if (el && el.attributes && el.attributes.y && el.attributes._orig_x) {
				var params = get_params()
				params.x = el.attributes._orig_x.value;
				params.y = el.attributes.y.value;
				history.replaceState(null, null, parse_params(params));
			}
		}
		else if (e.target.id == "unzoom") clearzoom();
		else if (e.target.id == "search") search_prompt();
		else if (e.target.id == "ignorecase") toggle_ignorecase();
	}, false)

	// mouse-over for info
	// show
	window.addEventListener("mouseover", function(e) {
		var target = find_group(e.target);
		if (target) details.nodeValue = "Function: " + g_to_text(target);
	}, false)

	// clear
	window.addEventListener("mouseout", function(e) {
		var target = find_group(e.target);
		if (target) details.nodeValue = ' ';
	}, false)

	// ctrl-F for search
	// ctrl-I to toggle case-sensitive search
	window.addEventListener("keydown",function (e) {
		if (e.keyCode === 114 || (e.ctrlKey && e.keyCode === 70)) {
			e.preventDefault();
			search_prompt();
		}
		else if (e.ctrlKey && e.keyCode === 73) {
			e.preventDefault();
			toggle_ignorecase();
		}
	}, false)

	// functions
	function get_params() {
		var params = {};
		var paramsarr = window.location.search.substr(1).split('&');
		for (var i = 0; i < paramsarr.length; ++i) {
			var tmp = paramsarr[i].split("=");
			if (!tmp[0] || !tmp[1]) continue;
			params[tmp[0]]  = decodeURIComponent(tmp[1]);
		}
		return params;
	}
	function parse_params(params) {
		var uri = "?";
		for (var key in params) {
			uri += key + '=' + encodeURIComponent(params[key]) + '&';
		}
		if (uri.slice(-1) == "&")
			uri = uri.substring(0, uri.length - 1);
		if (uri == '?')
			uri = window.location.href.split('?')[0];
		return uri;
	}
	function find_child(node, selector) {
		var children = node.querySelectorAll(selector);
		if (children.length) return children[0];
	}
	function find_group(node) {
		var parent = node.parentElement;
		if (!parent) return;
		if (parent.id == "frames") return node;
		return find_group(parent);
	}
	function orig_save(e, attr, val) {
		if (e.attributes["_orig_" + attr] != undefined) return;
		if (e.attributes[attr] == undefined) return;
		if (val == undefined) val = e.attributes[attr].value;
		e.setAttribute("_orig_" + attr, val);
	}
	function orig_load(e, attr) {
		if (e.attributes["_orig_"+attr] == undefined) return;
		e.attributes[attr].value = e.attributes["_orig_" + attr].value;
		e.removeAttribute("_orig_"+attr);
	}
	function g_to_text(e) {
		var text = find_child(e, "title").firstChild.nodeValue;
		return (text)
	}
	function g_to_func(e) {
		var func = g_to_text(e);
		// if there's any manipulation we want to do to the function
		// name before it's searched, do it here before returning.
		return (func);
	}
	function update_text(e) {
		var r = find_child(e, "rect");
		var t = find_child(e, "text");
		var w = parseFloat(r.attributes.width.value) -3;
		var txt = find_child(e, "title").textContent.replace(/\([^(]*\)$/,"");
		t.attributes.x.value = parseFloat(r.attributes.x.value) + 3;

		// Smaller than this size won't fit anything
		if (w < 2 * 12 * 0.59) {
			t.textContent = "";
			return;
		}

		t.textContent = txt;
		var sl = t.getSubStringLength(0, txt.length);
		// check if only whitespace or if we can fit the entire string into width w
		if (/^ *$/.test(txt) || sl < w)
			return;

		// this isn't perfect, but gives a good starting point
		// and avoids calling getSubStringLength too often
		var start = Math.floor((w/sl) * txt.length);
		for (var x = start; x > 0; x = x-2) {
			if (t.getSubStringLength(0, x + 2) <= w) {
				t.textContent = txt.substring(0, x) + "..";
				return;
			}
		}
		t.textContent = "";
	}

	// zoom
	function zoom_reset(e) {
		if (e.attributes != undefined) {
			orig_load(e, "x");
			orig_load(e, "width");
		}
		if (e.childNodes == undefined) return;
		for (var i = 0, c = e.childNodes; i < c.length; i++) {
			zoom_reset(c[i]);
		}
	}
	function zoom_child(e, x, ratio) {
		if (e.attributes != undefined) {
			if (e.attributes.x != undefined) {
				orig_save(e, "x");
				e.attributes.x.value = (parseFloat(e.attributes.x.value) - x - 10) * ratio + 10;
				if (e.tagName == "text")
					e.attributes.x.value = find_child(e.parentNode, "rect[x]").attributes.x.value + 3;
			}
			if (e.attributes.width != undefined) {
				orig_save(e, "width");
				e.attributes.width.value = parseFloat(e.attributes.width.value) * ratio;
			}
		}

		if (e.childNodes == undefined) return;
		for (var i = 0, c = e.childNodes; i < c.length; i++) {
			zoom_child(c[i], x - 10, ratio);
		}
	}
	function zoom_parent(e) {
		if (e.attributes) {
			if (e.attributes.x != undefined) {
				orig_save(e, "x");
				e.attributes.x.value = 10;
			}
			if (e.attributes.width != undefined) {
				orig_save(e, "width");
				e.attributes.width.value = parseInt(svg.width.baseVal.value) - (10 * 2);
			}
		}
		if (e.childNodes == undefined) return;
		for (var i = 0, c = e.childNodes; i < c.length; i++) {
			zoom_parent(c[i]);
		}
	}
	function zoom(node) {
		var attr = find_child(node, "rect").attributes;
		var width = parseFloat(attr.width.value);
		var xmin = parseFloat(attr.x.value);
		var xmax = parseFloat(xmin + width);
		var ymin = parseFloat(attr.y.value);
		var ratio = (svg.width.baseVal.value - 2 * 10) / width;

		// XXX: Workaround for JavaScript float issues (fix me)
		var fudge = 0.0001;

		unzoombtn.classList.remove("hide");

		var el = document.getElementById("frames").children;
		for (var i = 0; i < el.length; i++) {
			var e = el[i];
			var a = find_child(e, "rect").attributes;
			var ex = parseFloat(a.x.value);
			var ew = parseFloat(a.width.value);
			var upstack;
			// Is it an ancestor
			if (0 == 0) {
				upstack = parseFloat(a.y.value) > ymin;
			} else {
				upstack = parseFloat(a.y.value) < ymin;
			}
			if (upstack) {
				// Direct ancestor
				if (ex <= xmin && (ex+ew+fudge) >= xmax) {
					e.classList.add("parent");
					zoom_parent(e);
					update_text(e);
				}
				// not in current path
				else
					e.classList.add("hide");
			}
			// Children maybe
			else {
				// no common path
				if (ex < xmin || ex + fudge >= xmax) {
					e.classList.add("hide");
				}
				else {
					zoom_child(e, xmin, ratio);
					update_text(e);
				}
			}
		}
		search();
	}
	function unzoom(dont_update_text) {
		unzoombtn.classList.add("hide");
		var el = document.getElementById("frames").children;
		for(var i = 0; i < el.length; i++) {
			el[i].classList.remove("parent");
			el[i].classList.remove("hide");
			zoom_reset(el[i]);
			if(!dont_update_text) update_text(el[i]);
		}
		search();
	}
	function clearzoom() {
		unzoom();

		// remove zoom state
		var params = get_params();
		if (params.x) delete params.x;
		if (params.y) delete params.y;
		history.replaceState(null, null, parse_params(params));
	}

	// search
	function toggle_ignorecase() {
		ignorecase = !ignorecase;
		if (ignorecase) {
			ignorecaseBtn.classList.add("show");
		} else {
			ignorecaseBtn.classList.remove("show");
		}
		reset_search();
		search();
	}
	function reset_search() {
		var el = document.querySelectorAll("#frames rect");
		for (var i = 0; i < el.length; i++) {
			orig_load(el[i], "fill")
		}
		var params = get_params();
		delete params.s;
		history.replaceState(null, null, parse_params(params));
	}
	function search_prompt() {
		if (!searching) {
			var term = prompt("Enter a search term (regexp " +
			    "allowed, eg: ^ext4_)"
			    + (ignorecase ? ", ignoring case" : "")
			    + "\nPress Ctrl-i to toggle case sensitivity", "");
			if (term != null) search(term);
		} else {
			reset_search();
			searching = 0;
			currentSearchTerm = null;
			searchbtn.classList.remove("show");
			searchbtn.firstChild.nodeValue = "Search"
			matchedtxt.classList.add("hide");
			matchedtxt.firstChild.nodeValue = ""
		}
	}
	function search(term) {
		if (term) currentSearchTerm = term;

		var re = new RegExp(currentSearchTerm, ignorecase ? 'i' : '');
		var el = document.getElementById("frames").children;
		var matches = new Object();
		var maxwidth = 0;
		for (var i = 0; i < el.length; i++) {
			var e = el[i];
			var func = g_to_func(e);
			var rect = find_child(e, "rect");
			if (func == null || rect == null)
				continue;

			// Save max width. Only works as we have a root frame
			var w = parseFloat(rect.attributes.width.value);
			if (w > maxwidth)
				maxwidth = w;

			if (func.match(re)) {
				// highlight
				var x = parseFloat(rect.attributes.x.value);
				orig_save(rect, "fill");
				rect.attributes.fill.value = "rgb(230,0,230)";

				// remember matches
				if (matches[x] == undefined) {
					matches[x] = w;
				} else {
					if (w > matches[x]) {
						// overwrite with parent
						matches[x] = w;
					}
				}
				searching = 1;
			}
		}
		if (!searching)
			return;
		var params = get_params();
		params.s = currentSearchTerm;
		history.replaceState(null, null, parse_params(params));

		searchbtn.classList.add("show");
		searchbtn.firstChild.nodeValue = "Reset Search";

		// calculate percent matched, excluding vertical overlap
		var count = 0;
		var lastx = -1;
		var lastw = 0;
		var keys = Array();
		for (k in matches) {
			if (matches.hasOwnProperty(k))
				keys.push(k);
		}
		// sort the matched frames by their x location
		// ascending, then width descending
		keys.sort(function(a, b){
			return a - b;
		});
		// Step through frames saving only the biggest bottom-up frames
		// thanks to the sort order. This relies on the tree property
		// where children are always smaller than their parents.
		var fudge = 0.0001;	// JavaScript floating point
		for (var k in keys) {
			var x = parseFloat(keys[k]);
			var w = matches[keys[k]];
			if (x >= lastx + lastw - fudge) {
				count += w;
				lastx = x;
				lastw = w;
			}
		}
		// display matched percent
		matchedtxt.classList.remove("hide");
		var pct = 100 * count / maxwidth;
		if (pct != 100) pct = pct.toFixed(1)
		matchedtxt.firstChild.nodeValue = "Matched: " + pct + "%";
	}
]]>
</script>
<rect x="0.0" y="0" width="1200.0" height="358.0" fill="url(#background)"  />
<text id="title" x="600.00" y="24" >Flame Graph</text>
<text id="details" x="10.00" y="341" > </text>
<text id="unzoom" x="10.00" y="24" class="hide">Reset Zoom</text>
<text id="search" x="1090.00" y="24" >Search</text>
<text id="ignorecase" x="1174.00" y="24" >ic</text>
<text id="matched" x="1090.00" y="341" > </text>
<g id="frames">
<g >
<title>Transform_SSE2 (20,225,211 samples, 2.51%)</title><rect x="89.5" y="277" width="29.6" height="15.0" fill="rgb(233,129,30)" rx="2" ry="2" />
<text  x="92.48" y="287.5" >Tr..</text>
</g>
<g >
<title>do_syscall_64 (923,184 samples, 0.11%)</title><rect x="1188.5" y="245" width="1.4" height="15.0" fill="rgb(209,20,4)" rx="2" ry="2" />
<text  x="1191.54" y="255.5" ></text>
</g>
<g >
<title>Upsample32Pixels_SSE2 (2,762,085 samples, 0.34%)</title><rect x="119.1" y="277" width="4.1" height="15.0" fill="rgb(223,83,20)" rx="2" ry="2" />
<text  x="122.12" y="287.5" ></text>
</g>
<g >
<title>__rcu_read_lock (923,346 samples, 0.11%)</title><rect x="1183.4" y="37" width="1.3" height="15.0" fill="rgb(220,69,16)" rx="2" ry="2" />
<text  x="1186.37" y="47.5" ></text>
</g>
<g >
<title>do_syscall_64 (1,846,618 samples, 0.23%)</title><rect x="1182.0" y="229" width="2.7" height="15.0" fill="rgb(209,20,4)" rx="2" ry="2" />
<text  x="1185.02" y="239.5" ></text>
</g>
<g >
<title>tlb_batch_pages_flush (325,250 samples, 0.04%)</title><rect x="1184.7" y="117" width="0.5" height="15.0" fill="rgb(234,133,32)" rx="2" ry="2" />
<text  x="1187.72" y="127.5" ></text>
</g>
<g >
<title>bprm_execve (325,250 samples, 0.04%)</title><rect x="1184.7" y="197" width="0.5" height="15.0" fill="rgb(218,61,14)" rx="2" ry="2" />
<text  x="1187.72" y="207.5" ></text>
</g>
<g >
<title>__libc_write (1,846,618 samples, 0.23%)</title><rect x="1182.0" y="261" width="2.7" height="15.0" fill="rgb(238,154,37)" rx="2" ry="2" />
<text  x="1185.02" y="271.5" ></text>
</g>
<g >
<title>do_execveat_common.isra.0 (325,250 samples, 0.04%)</title><rect x="1184.7" y="213" width="0.5" height="15.0" fill="rgb(231,123,29)" rx="2" ry="2" />
<text  x="1187.72" y="223.5" ></text>
</g>
<g >
<title>Transform_SSE2 (6,466,532 samples, 0.80%)</title><rect x="376.6" y="261" width="9.5" height="15.0" fill="rgb(233,129,30)" rx="2" ry="2" />
<text  x="379.63" y="271.5" ></text>
</g>
<g >
<title>IDecode (924,310 samples, 0.11%)</title><rect x="313.3" y="261" width="1.4" height="15.0" fill="rgb(245,185,44)" rx="2" ry="2" />
<text  x="316.31" y="271.5" ></text>
</g>
<g >
<title>YUV444ToRGB_SSE2 (923,564 samples, 0.11%)</title><rect x="569.2" y="261" width="1.3" height="15.0" fill="rgb(247,193,46)" rx="2" ry="2" />
<text  x="572.19" y="271.5" ></text>
</g>
<g >
<title>do_fault (635,684 samples, 0.08%)</title><rect x="1185.2" y="165" width="0.9" height="15.0" fill="rgb(248,200,47)" rx="2" ry="2" />
<text  x="1188.20" y="175.5" ></text>
</g>
<g >
<title>bprm_execve (71,695 samples, 0.01%)</title><rect x="1189.9" y="197" width="0.1" height="15.0" fill="rgb(218,61,14)" rx="2" ry="2" />
<text  x="1192.89" y="207.5" ></text>
</g>
<g >
<title>shift_arg_pages (325,250 samples, 0.04%)</title><rect x="1184.7" y="149" width="0.5" height="15.0" fill="rgb(245,187,44)" rx="2" ry="2" />
<text  x="1187.72" y="159.5" ></text>
</g>
<g >
<title>entry_SYSCALL_64_after_hwframe (1,846,618 samples, 0.23%)</title><rect x="1182.0" y="245" width="2.7" height="15.0" fill="rgb(218,63,15)" rx="2" ry="2" />
<text  x="1185.02" y="255.5" ></text>
</g>
<g >
<title>VP8PlanarTo24b_SSE2 (20,263,004 samples, 2.52%)</title><rect x="162.4" y="277" width="29.7" height="15.0" fill="rgb(208,15,3)" rx="2" ry="2" />
<text  x="165.43" y="287.5" >VP..</text>
</g>
<g >
<title>__mod_lruvec_page_state (635,684 samples, 0.08%)</title><rect x="1185.2" y="101" width="0.9" height="15.0" fill="rgb(245,185,44)" rx="2" ry="2" />
<text  x="1188.20" y="111.5" ></text>
</g>
<g >
<title>do_syscall_64 (721,299 samples, 0.09%)</title><rect x="1187.5" y="245" width="1.0" height="15.0" fill="rgb(209,20,4)" rx="2" ry="2" />
<text  x="1190.48" y="255.5" ></text>
</g>
<g >
<title>do_syscall_64 (71,695 samples, 0.01%)</title><rect x="1189.9" y="245" width="0.1" height="15.0" fill="rgb(209,20,4)" rx="2" ry="2" />
<text  x="1192.89" y="255.5" ></text>
</g>
<g >
<title>__x64_sys_execve (325,250 samples, 0.04%)</title><rect x="1184.7" y="229" width="0.5" height="15.0" fill="rgb(247,193,46)" rx="2" ry="2" />
<text  x="1187.72" y="239.5" ></text>
</g>
<g >
<title>tlb_batch_pages_flush (923,184 samples, 0.11%)</title><rect x="1188.5" y="133" width="1.4" height="15.0" fill="rgb(234,133,32)" rx="2" ry="2" />
<text  x="1191.54" y="143.5" ></text>
</g>
<g >
<title>decode_webp_nat (805,120,419 samples, 99.99%)</title><rect x="10.0" y="293" width="1179.9" height="15.0" fill="rgb(218,61,14)" rx="2" ry="2" />
<text  x="13.00" y="303.5" >decode_webp_nat</text>
</g>
<g >
<title>cgroup_rstat_flush_irqsafe (923,272 samples, 0.11%)</title><rect x="1182.0" y="85" width="1.4" height="15.0" fill="rgb(227,103,24)" rx="2" ry="2" />
<text  x="1185.02" y="95.5" ></text>
</g>
<g >
<title>vfs_write (1,846,618 samples, 0.23%)</title><rect x="1182.0" y="197" width="2.7" height="15.0" fill="rgb(250,209,50)" rx="2" ry="2" />
<text  x="1185.02" y="207.5" ></text>
</g>
<g >
<title>LD4_SSE2 (923,142 samples, 0.11%)</title><rect x="52.0" y="277" width="1.3" height="15.0" fill="rgb(242,173,41)" rx="2" ry="2" />
<text  x="54.97" y="287.5" ></text>
</g>
<g >
<title>create_empty_buffers (923,346 samples, 0.11%)</title><rect x="1183.4" y="117" width="1.3" height="15.0" fill="rgb(229,114,27)" rx="2" ry="2" />
<text  x="1186.37" y="127.5" ></text>
</g>
<g >
<title>__handle_mm_fault (635,684 samples, 0.08%)</title><rect x="1185.2" y="181" width="0.9" height="15.0" fill="rgb(207,9,2)" rx="2" ry="2" />
<text  x="1188.20" y="191.5" ></text>
</g>
<g >
<title>TM8uv_SSE2 (924,303 samples, 0.11%)</title><rect x="345.7" y="261" width="1.4" height="15.0" fill="rgb(238,156,37)" rx="2" ry="2" />
<text  x="348.75" y="271.5" ></text>
</g>
<g >
<title>cgroup_rstat_updated (635,684 samples, 0.08%)</title><rect x="1185.2" y="69" width="0.9" height="15.0" fill="rgb(244,180,43)" rx="2" ry="2" />
<text  x="1188.20" y="79.5" ></text>
</g>
<g >
<title>HE8uv_C (2,771,423 samples, 0.34%)</title><rect x="309.2" y="261" width="4.1" height="15.0" fill="rgb(226,98,23)" rx="2" ry="2" />
<text  x="312.25" y="271.5" ></text>
</g>
<g >
<title>TransformAC3_C (924,244 samples, 0.11%)</title><rect x="347.1" y="261" width="1.4" height="15.0" fill="rgb(209,19,4)" rx="2" ry="2" />
<text  x="350.10" y="271.5" ></text>
</g>
<g >
<title>cgroup_rstat_flush_locked (923,272 samples, 0.11%)</title><rect x="1182.0" y="69" width="1.4" height="15.0" fill="rgb(209,19,4)" rx="2" ry="2" />
<text  x="1185.02" y="79.5" ></text>
</g>
<g >
<title>generic_perform_write (1,846,618 samples, 0.23%)</title><rect x="1182.0" y="165" width="2.7" height="15.0" fill="rgb(236,146,35)" rx="2" ry="2" />
<text  x="1185.02" y="175.5" ></text>
</g>
<g >
<title>TransformDC_C (16,456,211 samples, 2.04%)</title><rect x="351.2" y="261" width="24.1" height="15.0" fill="rgb(219,65,15)" rx="2" ry="2" />
<text  x="354.17" y="271.5" >T..</text>
</g>
<g >
<title>__x64_sys_munmap (923,184 samples, 0.11%)</title><rect x="1188.5" y="229" width="1.4" height="15.0" fill="rgb(206,7,1)" rx="2" ry="2" />
<text  x="1191.54" y="239.5" ></text>
</g>
<g >
<title>SimpleVFilter16i_SSE2 (921,466 samples, 0.11%)</title><rect x="344.4" y="261" width="1.3" height="15.0" fill="rgb(251,211,50)" rx="2" ry="2" />
<text  x="347.40" y="271.5" ></text>
</g>
<g >
<title>__memset_avx2_unaligned_erms (923,976 samples, 0.11%)</title><rect x="1186.1" y="277" width="1.4" height="15.0" fill="rgb(223,84,20)" rx="2" ry="2" />
<text  x="1189.13" y="287.5" ></text>
</g>
<g >
<title>do_mmap (721,299 samples, 0.09%)</title><rect x="1187.5" y="213" width="1.0" height="15.0" fill="rgb(228,107,25)" rx="2" ry="2" />
<text  x="1190.48" y="223.5" ></text>
</g>
<g >
<title>ReconstructRow (8,974,830 samples, 1.11%)</title><rect x="58.7" y="277" width="13.2" height="15.0" fill="rgb(225,93,22)" rx="2" ry="2" />
<text  x="61.73" y="287.5" ></text>
</g>
<g >
<title>GetCoeffsFast (411,778,010 samples, 51.14%)</title><rect x="570.5" y="245" width="603.5" height="15.0" fill="rgb(219,64,15)" rx="2" ry="2" />
<text  x="573.54" y="255.5" >GetCoeffsFast</text>
</g>
<g >
<title>perf_event_mmap (721,299 samples, 0.09%)</title><rect x="1187.5" y="181" width="1.0" height="15.0" fill="rgb(229,112,26)" rx="2" ry="2" />
<text  x="1190.48" y="191.5" ></text>
</g>
<g >
<title>balance_dirty_pages_ratelimited_flags (923,272 samples, 0.11%)</title><rect x="1182.0" y="149" width="1.4" height="15.0" fill="rgb(207,10,2)" rx="2" ry="2" />
<text  x="1185.02" y="159.5" ></text>
</g>
<g >
<title>unmap_region (923,184 samples, 0.11%)</title><rect x="1188.5" y="165" width="1.4" height="15.0" fill="rgb(219,64,15)" rx="2" ry="2" />
<text  x="1191.54" y="175.5" ></text>
</g>
<g >
<title>perf-exec (71,695 samples, 0.01%)</title><rect x="1189.9" y="293" width="0.1" height="15.0" fill="rgb(231,123,29)" rx="2" ry="2" />
<text  x="1192.89" y="303.5" ></text>
</g>
<g >
<title>[unknown] (417,250,512 samples, 51.82%)</title><rect x="570.5" y="261" width="611.5" height="15.0" fill="rgb(210,24,5)" rx="2" ry="2" />
<text  x="573.54" y="271.5" >[unknown]</text>
</g>
<g >
<title>alloc_page_buffers (923,346 samples, 0.11%)</title><rect x="1183.4" y="101" width="1.3" height="15.0" fill="rgb(251,212,50)" rx="2" ry="2" />
<text  x="1186.37" y="111.5" ></text>
</g>
<g >
<title>mem_cgroup_css_rstat_flush (923,272 samples, 0.11%)</title><rect x="1182.0" y="53" width="1.4" height="15.0" fill="rgb(253,222,53)" rx="2" ry="2" />
<text  x="1185.02" y="63.5" ></text>
</g>
<g >
<title>HE4_C (1,846,839 samples, 0.23%)</title><rect x="43.8" y="277" width="2.8" height="15.0" fill="rgb(220,70,16)" rx="2" ry="2" />
<text  x="46.84" y="287.5" ></text>
</g>
<g >
<title>entry_SYSCALL_64_after_hwframe (71,695 samples, 0.01%)</title><rect x="1189.9" y="261" width="0.1" height="15.0" fill="rgb(218,63,15)" rx="2" ry="2" />
<text  x="1192.89" y="271.5" ></text>
</g>
<g >
<title>do_mas_align_munmap (923,184 samples, 0.11%)</title><rect x="1188.5" y="181" width="1.4" height="15.0" fill="rgb(232,126,30)" rx="2" ry="2" />
<text  x="1191.54" y="191.5" ></text>
</g>
<g >
<title>TransformAC3_C (6,467,285 samples, 0.80%)</title><rect x="77.3" y="277" width="9.5" height="15.0" fill="rgb(209,19,4)" rx="2" ry="2" />
<text  x="80.29" y="287.5" ></text>
</g>
<g >
<title>HD4_C (3,694,296 samples, 0.46%)</title><rect x="38.4" y="277" width="5.4" height="15.0" fill="rgb(226,100,23)" rx="2" ry="2" />
<text  x="41.43" y="287.5" ></text>
</g>
<g >
<title>mmap_region (721,299 samples, 0.09%)</title><rect x="1187.5" y="197" width="1.0" height="15.0" fill="rgb(231,121,28)" rx="2" ry="2" />
<text  x="1190.48" y="207.5" ></text>
</g>
<g >
<title>do_user_addr_fault (635,684 samples, 0.08%)</title><rect x="1185.2" y="213" width="0.9" height="15.0" fill="rgb(228,108,25)" rx="2" ry="2" />
<text  x="1188.20" y="223.5" ></text>
</g>
<g >
<title>VP8DecodeMB (12,011,006 samples, 1.49%)</title><rect x="132.6" y="277" width="17.6" height="15.0" fill="rgb(208,18,4)" rx="2" ry="2" />
<text  x="135.65" y="287.5" ></text>
</g>
<g >
<title>[unknown] (71,695 samples, 0.01%)</title><rect x="1189.9" y="277" width="0.1" height="15.0" fill="rgb(210,24,5)" rx="2" ry="2" />
<text  x="1192.89" y="287.5" ></text>
</g>
<g >
<title>ext4_block_write_begin (923,346 samples, 0.11%)</title><rect x="1183.4" y="133" width="1.3" height="15.0" fill="rgb(206,4,1)" rx="2" ry="2" />
<text  x="1186.37" y="143.5" ></text>
</g>
<g >
<title>[unknown] (648,826,384 samples, 80.58%)</title><rect x="235.3" y="277" width="950.8" height="15.0" fill="rgb(210,24,5)" rx="2" ry="2" />
<text  x="238.28" y="287.5" >[unknown]</text>
</g>
<g >
<title>perf_iterate_sb (721,299 samples, 0.09%)</title><rect x="1187.5" y="165" width="1.0" height="15.0" fill="rgb(244,179,42)" rx="2" ry="2" />
<text  x="1190.48" y="175.5" ></text>
</g>
<g >
<title>GetLargeValue (44,004,773 samples, 5.47%)</title><rect x="244.8" y="261" width="64.4" height="15.0" fill="rgb(243,175,42)" rx="2" ry="2" />
<text  x="247.76" y="271.5" >GetLarg..</text>
</g>
<g >
<title>setup_arg_pages (325,250 samples, 0.04%)</title><rect x="1184.7" y="165" width="0.5" height="15.0" fill="rgb(222,82,19)" rx="2" ry="2" />
<text  x="1187.72" y="175.5" ></text>
</g>
<g >
<title>GetLargeValue (4,549,305 samples, 0.56%)</title><rect x="1174.0" y="245" width="6.7" height="15.0" fill="rgb(243,175,42)" rx="2" ry="2" />
<text  x="1177.00" y="255.5" ></text>
</g>
<g >
<title>ReconstructRow (11,986,067 samples, 1.49%)</title><rect x="314.7" y="261" width="17.5" height="15.0" fill="rgb(225,93,22)" rx="2" ry="2" />
<text  x="317.66" y="271.5" ></text>
</g>
<g >
<title>entry_SYSCALL_64_after_hwframe (325,250 samples, 0.04%)</title><rect x="1184.7" y="261" width="0.5" height="15.0" fill="rgb(218,63,15)" rx="2" ry="2" />
<text  x="1187.72" y="271.5" ></text>
</g>
<g >
<title>RD4_SSE2 (3,688,890 samples, 0.46%)</title><rect x="53.3" y="277" width="5.4" height="15.0" fill="rgb(253,224,53)" rx="2" ry="2" />
<text  x="56.32" y="287.5" ></text>
</g>
<g >
<title>ksys_write (1,846,618 samples, 0.23%)</title><rect x="1182.0" y="213" width="2.7" height="15.0" fill="rgb(205,4,1)" rx="2" ry="2" />
<text  x="1185.02" y="223.5" ></text>
</g>
<g >
<title>VP8ParseIntraModeRow (99,308,578 samples, 12.33%)</title><rect x="423.7" y="261" width="145.5" height="15.0" fill="rgb(231,121,29)" rx="2" ry="2" />
<text  x="426.65" y="271.5" >VP8ParseIntraModeRow</text>
</g>
<g >
<title>load_elf_binary (71,695 samples, 0.01%)</title><rect x="1189.9" y="181" width="0.1" height="15.0" fill="rgb(223,83,20)" rx="2" ry="2" />
<text  x="1192.89" y="191.5" ></text>
</g>
<g >
<title>TransformDC_C (1,847,419 samples, 0.23%)</title><rect x="86.8" y="277" width="2.7" height="15.0" fill="rgb(219,65,15)" rx="2" ry="2" />
<text  x="89.77" y="287.5" ></text>
</g>
<g >
<title>VP8GetValue (923,534 samples, 0.11%)</title><rect x="150.2" y="277" width="1.4" height="15.0" fill="rgb(230,119,28)" rx="2" ry="2" />
<text  x="153.25" y="287.5" ></text>
</g>
<g >
<title>release_pages (923,184 samples, 0.11%)</title><rect x="1188.5" y="117" width="1.4" height="15.0" fill="rgb(228,106,25)" rx="2" ry="2" />
<text  x="1191.54" y="127.5" ></text>
</g>
<g >
<title>handle_mm_fault (635,684 samples, 0.08%)</title><rect x="1185.2" y="197" width="0.9" height="15.0" fill="rgb(234,135,32)" rx="2" ry="2" />
<text  x="1188.20" y="207.5" ></text>
</g>
<g >
<title>ext4_buffered_write_iter (1,846,618 samples, 0.23%)</title><rect x="1182.0" y="181" width="2.7" height="15.0" fill="rgb(213,40,9)" rx="2" ry="2" />
<text  x="1185.02" y="191.5" ></text>
</g>
<g >
<title>__munmap (923,184 samples, 0.11%)</title><rect x="1188.5" y="277" width="1.4" height="15.0" fill="rgb(211,29,7)" rx="2" ry="2" />
<text  x="1191.54" y="287.5" ></text>
</g>
<g >
<title>mem_cgroup_wb_stats (923,272 samples, 0.11%)</title><rect x="1182.0" y="117" width="1.4" height="15.0" fill="rgb(211,28,6)" rx="2" ry="2" />
<text  x="1185.02" y="127.5" ></text>
</g>
<g >
<title>HU4_C (3,696,441 samples, 0.46%)</title><rect x="46.6" y="277" width="5.4" height="15.0" fill="rgb(216,54,13)" rx="2" ry="2" />
<text  x="49.55" y="287.5" ></text>
</g>
<g >
<title>GetCoeffsFast (10,162,187 samples, 1.26%)</title><rect x="23.5" y="277" width="14.9" height="15.0" fill="rgb(219,64,15)" rx="2" ry="2" />
<text  x="26.54" y="287.5" ></text>
</g>
<g >
<title>asm_exc_page_fault (635,684 samples, 0.08%)</title><rect x="1185.2" y="245" width="0.9" height="15.0" fill="rgb(225,93,22)" rx="2" ry="2" />
<text  x="1188.20" y="255.5" ></text>
</g>
<g >
<title>do_execveat_common.isra.0 (71,695 samples, 0.01%)</title><rect x="1189.9" y="213" width="0.1" height="15.0" fill="rgb(231,123,29)" rx="2" ry="2" />
<text  x="1192.89" y="223.5" ></text>
</g>
<g >
<title>do_set_pte (635,684 samples, 0.08%)</title><rect x="1185.2" y="133" width="0.9" height="15.0" fill="rgb(253,221,52)" rx="2" ry="2" />
<text  x="1188.20" y="143.5" ></text>
</g>
<g >
<title>alloc_buffer_head (923,346 samples, 0.11%)</title><rect x="1183.4" y="85" width="1.3" height="15.0" fill="rgb(215,46,11)" rx="2" ry="2" />
<text  x="1186.37" y="95.5" ></text>
</g>
<g >
<title>vm_mmap_pgoff (721,299 samples, 0.09%)</title><rect x="1187.5" y="229" width="1.0" height="15.0" fill="rgb(237,150,35)" rx="2" ry="2" />
<text  x="1190.48" y="239.5" ></text>
</g>
<g >
<title>__vm_munmap (923,184 samples, 0.11%)</title><rect x="1188.5" y="213" width="1.4" height="15.0" fill="rgb(231,121,28)" rx="2" ry="2" />
<text  x="1191.54" y="223.5" ></text>
</g>
<g >
<title>exc_page_fault (635,684 samples, 0.08%)</title><rect x="1185.2" y="229" width="0.9" height="15.0" fill="rgb(212,35,8)" rx="2" ry="2" />
<text  x="1188.20" y="239.5" ></text>
</g>
<g >
<title>filemap_map_pages (635,684 samples, 0.08%)</title><rect x="1185.2" y="149" width="0.9" height="15.0" fill="rgb(229,112,27)" rx="2" ry="2" />
<text  x="1188.20" y="159.5" ></text>
</g>
<g >
<title>VP8ParseProba (1,845,249 samples, 0.23%)</title><rect x="159.7" y="277" width="2.7" height="15.0" fill="rgb(224,88,21)" rx="2" ry="2" />
<text  x="162.73" y="287.5" ></text>
</g>
<g >
<title>do_syscall_64 (325,250 samples, 0.04%)</title><rect x="1184.7" y="245" width="0.5" height="15.0" fill="rgb(209,20,4)" rx="2" ry="2" />
<text  x="1187.72" y="255.5" ></text>
</g>
<g >
<title>FinishRow (1,847,171 samples, 0.23%)</title><rect x="236.6" y="261" width="2.7" height="15.0" fill="rgb(213,41,9)" rx="2" ry="2" />
<text  x="239.64" y="271.5" ></text>
</g>
<g >
<title>load_elf_binary (325,250 samples, 0.04%)</title><rect x="1184.7" y="181" width="0.5" height="15.0" fill="rgb(223,83,20)" rx="2" ry="2" />
<text  x="1187.72" y="191.5" ></text>
</g>
<g >
<title>kmem_cache_alloc (923,346 samples, 0.11%)</title><rect x="1183.4" y="69" width="1.3" height="15.0" fill="rgb(225,95,22)" rx="2" ry="2" />
<text  x="1186.37" y="79.5" ></text>
</g>
<g >
<title>GetCoeffsFast (3,695,808 samples, 0.46%)</title><rect x="239.3" y="261" width="5.5" height="15.0" fill="rgb(219,64,15)" rx="2" ry="2" />
<text  x="242.34" y="271.5" ></text>
</g>
<g >
<title>TransformDCUV_C (1,848,362 samples, 0.23%)</title><rect x="348.5" y="261" width="2.7" height="15.0" fill="rgb(214,44,10)" rx="2" ry="2" />
<text  x="351.46" y="271.5" ></text>
</g>
<g >
<title>release_pages (325,250 samples, 0.04%)</title><rect x="1184.7" y="101" width="0.5" height="15.0" fill="rgb(228,106,25)" rx="2" ry="2" />
<text  x="1187.72" y="111.5" ></text>
</g>
<g >
<title>tlb_finish_mmu (325,250 samples, 0.04%)</title><rect x="1184.7" y="133" width="0.5" height="15.0" fill="rgb(251,212,50)" rx="2" ry="2" />
<text  x="1187.72" y="143.5" ></text>
</g>
<g >
<title>TransformWHT_C (922,668 samples, 0.11%)</title><rect x="375.3" y="261" width="1.3" height="15.0" fill="rgb(221,76,18)" rx="2" ry="2" />
<text  x="378.28" y="271.5" ></text>
</g>
<g >
<title>ext4_da_write_begin (923,346 samples, 0.11%)</title><rect x="1183.4" y="149" width="1.3" height="15.0" fill="rgb(211,32,7)" rx="2" ry="2" />
<text  x="1186.37" y="159.5" ></text>
</g>
<g >
<title>UpsampleRgbLinePair_SSE2 (6,468,067 samples, 0.80%)</title><rect x="123.2" y="277" width="9.4" height="15.0" fill="rgb(220,70,16)" rx="2" ry="2" />
<text  x="126.17" y="287.5" ></text>
</g>
<g >
<title>YUV444ToRGB_SSE2 (14,674,422 samples, 1.82%)</title><rect x="213.8" y="277" width="21.5" height="15.0" fill="rgb(247,193,46)" rx="2" ry="2" />
<text  x="216.78" y="287.5" >Y..</text>
</g>
<g >
<title>perf_event_exec (71,695 samples, 0.01%)</title><rect x="1189.9" y="149" width="0.1" height="15.0" fill="rgb(218,60,14)" rx="2" ry="2" />
<text  x="1192.89" y="159.5" ></text>
</g>
<g >
<title>DC16_SSE2 (923,911 samples, 0.11%)</title><rect x="235.3" y="261" width="1.3" height="15.0" fill="rgb(221,75,17)" rx="2" ry="2" />
<text  x="238.28" y="271.5" ></text>
</g>
<g >
<title>tlb_finish_mmu (923,184 samples, 0.11%)</title><rect x="1188.5" y="149" width="1.4" height="15.0" fill="rgb(251,212,50)" rx="2" ry="2" />
<text  x="1191.54" y="159.5" ></text>
</g>
<g >
<title>perf_iterate_ctx (721,299 samples, 0.09%)</title><rect x="1187.5" y="149" width="1.0" height="15.0" fill="rgb(205,4,0)" rx="2" ry="2" />
<text  x="1190.48" y="159.5" ></text>
</g>
<g >
<title>__memmove_avx_unaligned_erms (923,197 samples, 0.11%)</title><rect x="1180.7" y="245" width="1.3" height="15.0" fill="rgb(205,0,0)" rx="2" ry="2" />
<text  x="1183.66" y="255.5" ></text>
</g>
<g >
<title>entry_SYSCALL_64_after_hwframe (721,299 samples, 0.09%)</title><rect x="1187.5" y="261" width="1.0" height="15.0" fill="rgb(218,63,15)" rx="2" ry="2" />
<text  x="1190.48" y="271.5" ></text>
</g>
<g >
<title>VP8YuvToRgb32_SSE2 (14,775,505 samples, 1.84%)</title><rect x="192.1" y="277" width="21.7" height="15.0" fill="rgb(241,167,40)" rx="2" ry="2" />
<text  x="195.12" y="287.5" >V..</text>
</g>
<g >
<title>do_mas_munmap (923,184 samples, 0.11%)</title><rect x="1188.5" y="197" width="1.4" height="15.0" fill="rgb(224,90,21)" rx="2" ry="2" />
<text  x="1191.54" y="207.5" ></text>
</g>
<g >
<title>entry_SYSCALL_64_after_hwframe (923,184 samples, 0.11%)</title><rect x="1188.5" y="261" width="1.4" height="15.0" fill="rgb(218,63,15)" rx="2" ry="2" />
<text  x="1191.54" y="271.5" ></text>
</g>
<g >
<title>free_unref_page_list (923,184 samples, 0.11%)</title><rect x="1188.5" y="101" width="1.4" height="15.0" fill="rgb(221,77,18)" rx="2" ry="2" />
<text  x="1191.54" y="111.5" ></text>
</g>
<g >
<title>balance_dirty_pages (923,272 samples, 0.11%)</title><rect x="1182.0" y="133" width="1.4" height="15.0" fill="rgb(247,193,46)" rx="2" ry="2" />
<text  x="1185.02" y="143.5" ></text>
</g>
<g >
<title>__mod_memcg_lruvec_state (635,684 samples, 0.08%)</title><rect x="1185.2" y="85" width="0.9" height="15.0" fill="rgb(247,195,46)" rx="2" ry="2" />
<text  x="1188.20" y="95.5" ></text>
</g>
<g >
<title>all (805,192,114 samples, 100%)</title><rect x="10.0" y="309" width="1180.0" height="15.0" fill="rgb(213,39,9)" rx="2" ry="2" />
<text  x="13.00" y="319.5" ></text>
</g>
<g >
<title>__mem_cgroup_flush_stats (923,272 samples, 0.11%)</title><rect x="1182.0" y="101" width="1.4" height="15.0" fill="rgb(208,16,3)" rx="2" ry="2" />
<text  x="1185.02" y="111.5" ></text>
</g>
<g >
<title>__mmap64 (721,299 samples, 0.09%)</title><rect x="1187.5" y="277" width="1.0" height="15.0" fill="rgb(243,175,41)" rx="2" ry="2" />
<text  x="1190.48" y="287.5" ></text>
</g>
<g >
<title>DC4_C (9,237,590 samples, 1.15%)</title><rect x="10.0" y="277" width="13.5" height="15.0" fill="rgb(209,18,4)" rx="2" ry="2" />
<text  x="13.00" y="287.5" ></text>
</g>
<g >
<title>SimpleHFilter16_SSE2 (3,695,771 samples, 0.46%)</title><rect x="332.2" y="261" width="5.4" height="15.0" fill="rgb(219,67,16)" rx="2" ry="2" />
<text  x="335.23" y="271.5" ></text>
</g>
<g >
<title>memcg_slab_post_alloc_hook (923,346 samples, 0.11%)</title><rect x="1183.4" y="53" width="1.3" height="15.0" fill="rgb(234,135,32)" rx="2" ry="2" />
<text  x="1186.37" y="63.5" ></text>
</g>
<g >
<title>VP8ParseIntraModeRow (5,543,510 samples, 0.69%)</title><rect x="151.6" y="277" width="8.1" height="15.0" fill="rgb(231,121,29)" rx="2" ry="2" />
<text  x="154.60" y="287.5" ></text>
</g>
<g >
<title>SimpleVFilter16_SSE2 (4,607,070 samples, 0.57%)</title><rect x="337.6" y="261" width="6.8" height="15.0" fill="rgb(229,111,26)" rx="2" ry="2" />
<text  x="340.65" y="271.5" ></text>
</g>
<g >
<title>VP8DecodeMB (25,616,088 samples, 3.18%)</title><rect x="386.1" y="261" width="37.6" height="15.0" fill="rgb(208,18,4)" rx="2" ry="2" />
<text  x="389.11" y="271.5" >VP8..</text>
</g>
<g >
<title>error_entry (923,197 samples, 0.11%)</title><rect x="1180.7" y="229" width="1.3" height="15.0" fill="rgb(240,163,39)" rx="2" ry="2" />
<text  x="1183.66" y="239.5" ></text>
</g>
<g >
<title>page_add_file_rmap (635,684 samples, 0.08%)</title><rect x="1185.2" y="117" width="0.9" height="15.0" fill="rgb(207,13,3)" rx="2" ry="2" />
<text  x="1188.20" y="127.5" ></text>
</g>
<g >
<title>strspn (635,684 samples, 0.08%)</title><rect x="1185.2" y="261" width="0.9" height="15.0" fill="rgb(207,13,3)" rx="2" ry="2" />
<text  x="1188.20" y="271.5" ></text>
</g>
<g >
<title>begin_new_exec (71,695 samples, 0.01%)</title><rect x="1189.9" y="165" width="0.1" height="15.0" fill="rgb(245,184,44)" rx="2" ry="2" />
<text  x="1192.89" y="175.5" ></text>
</g>
<g >
<title>SimpleHFilter16_SSE2 (924,341 samples, 0.11%)</title><rect x="71.9" y="277" width="1.3" height="15.0" fill="rgb(219,67,16)" rx="2" ry="2" />
<text  x="74.88" y="287.5" ></text>
</g>
<g >
<title>TM4_SSE2 (2,770,723 samples, 0.34%)</title><rect x="73.2" y="277" width="4.1" height="15.0" fill="rgb(232,128,30)" rx="2" ry="2" />
<text  x="76.23" y="287.5" ></text>
</g>
<g >
<title>__x64_sys_execve (71,695 samples, 0.01%)</title><rect x="1189.9" y="229" width="0.1" height="15.0" fill="rgb(247,193,46)" rx="2" ry="2" />
<text  x="1192.89" y="239.5" ></text>
</g>
</g>
</svg>
