<?xml version="1.0" standalone="no"?>
<!DOCTYPE svg PUBLIC "-//W3C//DTD SVG 1.1//EN" "http://www.w3.org/Graphics/SVG/1.1/DTD/svg11.dtd">
<svg version="1.1" width="1200" height="342" onload="init(evt)" viewBox="0 0 1200 342" xmlns="http://www.w3.org/2000/svg" xmlns:xlink="http://www.w3.org/1999/xlink">
<!-- Flame graph stack visualization. See https://github.com/brendangregg/FlameGraph for latest version, and http://www.brendangregg.com/flamegraphs.html for examples. -->
<!-- NOTES:  -->
<defs>
	<linearGradient id="background" y1="0" y2="1" x1="0" x2="0" >
		<stop stop-color="#eeeeee" offset="5%" />
		<stop stop-color="#eeeeb0" offset="95%" />
	</linearGradient>
</defs>
<style type="text/css">
	text { font-family:Verdana; font-size:12px; fill:rgb(0,0,0); }
	#search, #ignorecase { opacity:0.1; cursor:pointer; }
	#search:hover, #search.show, #ignorecase:hover, #ignorecase.show { opacity:1; }
	#subtitle { text-anchor:middle; font-color:rgb(160,160,160); }
	#title { text-anchor:middle; font-size:17px}
	#unzoom { cursor:pointer; }
	#frames > *:hover { stroke:black; stroke-width:0.5; cursor:pointer; }
	.hide { display:none; }
	.parent { opacity:0.5; }
</style>
<script type="text/ecmascript">
<![CDATA[
	"use strict";
	var details, searchbtn, unzoombtn, matchedtxt, svg, searching, currentSearchTerm, ignorecase, ignorecaseBtn;
	function init(evt) {
		details = document.getElementById("details").firstChild;
		searchbtn = document.getElementById("search");
		ignorecaseBtn = document.getElementById("ignorecase");
		unzoombtn = document.getElementById("unzoom");
		matchedtxt = document.getElementById("matched");
		svg = document.getElementsByTagName("svg")[0];
		searching = 0;
		currentSearchTerm = null;

		// use GET parameters to restore a flamegraphs state.
		var params = get_params();
		if (params.x && params.y)
			zoom(find_group(document.querySelector('[x="' + params.x + '"][y="' + params.y + '"]')));
                if (params.s) search(params.s);
	}

	// event listeners
	window.addEventListener("click", function(e) {
		var target = find_group(e.target);
		if (target) {
			if (target.nodeName == "a") {
				if (e.ctrlKey === false) return;
				e.preventDefault();
			}
			if (target.classList.contains("parent")) unzoom(true);
			zoom(target);
			if (!document.querySelector('.parent')) {
				// we have basically done a clearzoom so clear the url
				var params = get_params();
				if (params.x) delete params.x;
				if (params.y) delete params.y;
				history.replaceState(null, null, parse_params(params));
				unzoombtn.classList.add("hide");
				return;
			}

			// set parameters for zoom state
			var el = target.querySelector("rect");
			if (el && el.attributes && el.attributes.y && el.attributes._orig_x) {
				var params = get_params()
				params.x = el.attributes._orig_x.value;
				params.y = el.attributes.y.value;
				history.replaceState(null, null, parse_params(params));
			}
		}
		else if (e.target.id == "unzoom") clearzoom();
		else if (e.target.id == "search") search_prompt();
		else if (e.target.id == "ignorecase") toggle_ignorecase();
	}, false)

	// mouse-over for info
	// show
	window.addEventListener("mouseover", function(e) {
		var target = find_group(e.target);
		if (target) details.nodeValue = "Function: " + g_to_text(target);
	}, false)

	// clear
	window.addEventListener("mouseout", function(e) {
		var target = find_group(e.target);
		if (target) details.nodeValue = ' ';
	}, false)

	// ctrl-F for search
	// ctrl-I to toggle case-sensitive search
	window.addEventListener("keydown",function (e) {
		if (e.keyCode === 114 || (e.ctrlKey && e.keyCode === 70)) {
			e.preventDefault();
			search_prompt();
		}
		else if (e.ctrlKey && e.keyCode === 73) {
			e.preventDefault();
			toggle_ignorecase();
		}
	}, false)

	// functions
	function get_params() {
		var params = {};
		var paramsarr = window.location.search.substr(1).split('&');
		for (var i = 0; i < paramsarr.length; ++i) {
			var tmp = paramsarr[i].split("=");
			if (!tmp[0] || !tmp[1]) continue;
			params[tmp[0]]  = decodeURIComponent(tmp[1]);
		}
		return params;
	}
	function parse_params(params) {
		var uri = "?";
		for (var key in params) {
			uri += key + '=' + encodeURIComponent(params[key]) + '&';
		}
		if (uri.slice(-1) == "&")
			uri = uri.substring(0, uri.length - 1);
		if (uri == '?')
			uri = window.location.href.split('?')[0];
		return uri;
	}
	function find_child(node, selector) {
		var children = node.querySelectorAll(selector);
		if (children.length) return children[0];
	}
	function find_group(node) {
		var parent = node.parentElement;
		if (!parent) return;
		if (parent.id == "frames") return node;
		return find_group(parent);
	}
	function orig_save(e, attr, val) {
		if (e.attributes["_orig_" + attr] != undefined) return;
		if (e.attributes[attr] == undefined) return;
		if (val == undefined) val = e.attributes[attr].value;
		e.setAttribute("_orig_" + attr, val);
	}
	function orig_load(e, attr) {
		if (e.attributes["_orig_"+attr] == undefined) return;
		e.attributes[attr].value = e.attributes["_orig_" + attr].value;
		e.removeAttribute("_orig_"+attr);
	}
	function g_to_text(e) {
		var text = find_child(e, "title").firstChild.nodeValue;
		return (text)
	}
	function g_to_func(e) {
		var func = g_to_text(e);
		// if there's any manipulation we want to do to the function
		// name before it's searched, do it here before returning.
		return (func);
	}
	function update_text(e) {
		var r = find_child(e, "rect");
		var t = find_child(e, "text");
		var w = parseFloat(r.attributes.width.value) -3;
		var txt = find_child(e, "title").textContent.replace(/\([^(]*\)$/,"");
		t.attributes.x.value = parseFloat(r.attributes.x.value) + 3;

		// Smaller than this size won't fit anything
		if (w < 2 * 12 * 0.59) {
			t.textContent = "";
			return;
		}

		t.textContent = txt;
		var sl = t.getSubStringLength(0, txt.length);
		// check if only whitespace or if we can fit the entire string into width w
		if (/^ *$/.test(txt) || sl < w)
			return;

		// this isn't perfect, but gives a good starting point
		// and avoids calling getSubStringLength too often
		var start = Math.floor((w/sl) * txt.length);
		for (var x = start; x > 0; x = x-2) {
			if (t.getSubStringLength(0, x + 2) <= w) {
				t.textContent = txt.substring(0, x) + "..";
				return;
			}
		}
		t.textContent = "";
	}

	// zoom
	function zoom_reset(e) {
		if (e.attributes != undefined) {
			orig_load(e, "x");
			orig_load(e, "width");
		}
		if (e.childNodes == undefined) return;
		for (var i = 0, c = e.childNodes; i < c.length; i++) {
			zoom_reset(c[i]);
		}
	}
	function zoom_child(e, x, ratio) {
		if (e.attributes != undefined) {
			if (e.attributes.x != undefined) {
				orig_save(e, "x");
				e.attributes.x.value = (parseFloat(e.attributes.x.value) - x - 10) * ratio + 10;
				if (e.tagName == "text")
					e.attributes.x.value = find_child(e.parentNode, "rect[x]").attributes.x.value + 3;
			}
			if (e.attributes.width != undefined) {
				orig_save(e, "width");
				e.attributes.width.value = parseFloat(e.attributes.width.value) * ratio;
			}
		}

		if (e.childNodes == undefined) return;
		for (var i = 0, c = e.childNodes; i < c.length; i++) {
			zoom_child(c[i], x - 10, ratio);
		}
	}
	function zoom_parent(e) {
		if (e.attributes) {
			if (e.attributes.x != undefined) {
				orig_save(e, "x");
				e.attributes.x.value = 10;
			}
			if (e.attributes.width != undefined) {
				orig_save(e, "width");
				e.attributes.width.value = parseInt(svg.width.baseVal.value) - (10 * 2);
			}
		}
		if (e.childNodes == undefined) return;
		for (var i = 0, c = e.childNodes; i < c.length; i++) {
			zoom_parent(c[i]);
		}
	}
	function zoom(node) {
		var attr = find_child(node, "rect").attributes;
		var width = parseFloat(attr.width.value);
		var xmin = parseFloat(attr.x.value);
		var xmax = parseFloat(xmin + width);
		var ymin = parseFloat(attr.y.value);
		var ratio = (svg.width.baseVal.value - 2 * 10) / width;

		// XXX: Workaround for JavaScript float issues (fix me)
		var fudge = 0.0001;

		unzoombtn.classList.remove("hide");

		var el = document.getElementById("frames").children;
		for (var i = 0; i < el.length; i++) {
			var e = el[i];
			var a = find_child(e, "rect").attributes;
			var ex = parseFloat(a.x.value);
			var ew = parseFloat(a.width.value);
			var upstack;
			// Is it an ancestor
			if (0 == 0) {
				upstack = parseFloat(a.y.value) > ymin;
			} else {
				upstack = parseFloat(a.y.value) < ymin;
			}
			if (upstack) {
				// Direct ancestor
				if (ex <= xmin && (ex+ew+fudge) >= xmax) {
					e.classList.add("parent");
					zoom_parent(e);
					update_text(e);
				}
				// not in current path
				else
					e.classList.add("hide");
			}
			// Children maybe
			else {
				// no common path
				if (ex < xmin || ex + fudge >= xmax) {
					e.classList.add("hide");
				}
				else {
					zoom_child(e, xmin, ratio);
					update_text(e);
				}
			}
		}
		search();
	}
	function unzoom(dont_update_text) {
		unzoombtn.classList.add("hide");
		var el = document.getElementById("frames").children;
		for(var i = 0; i < el.length; i++) {
			el[i].classList.remove("parent");
			el[i].classList.remove("hide");
			zoom_reset(el[i]);
			if(!dont_update_text) update_text(el[i]);
		}
		search();
	}
	function clearzoom() {
		unzoom();

		// remove zoom state
		var params = get_params();
		if (params.x) delete params.x;
		if (params.y) delete params.y;
		history.replaceState(null, null, parse_params(params));
	}

	// search
	function toggle_ignorecase() {
		ignorecase = !ignorecase;
		if (ignorecase) {
			ignorecaseBtn.classList.add("show");
		} else {
			ignorecaseBtn.classList.remove("show");
		}
		reset_search();
		search();
	}
	function reset_search() {
		var el = document.querySelectorAll("#frames rect");
		for (var i = 0; i < el.length; i++) {
			orig_load(el[i], "fill")
		}
		var params = get_params();
		delete params.s;
		history.replaceState(null, null, parse_params(params));
	}
	function search_prompt() {
		if (!searching) {
			var term = prompt("Enter a search term (regexp " +
			    "allowed, eg: ^ext4_)"
			    + (ignorecase ? ", ignoring case" : "")
			    + "\nPress Ctrl-i to toggle case sensitivity", "");
			if (term != null) search(term);
		} else {
			reset_search();
			searching = 0;
			currentSearchTerm = null;
			searchbtn.classList.remove("show");
			searchbtn.firstChild.nodeValue = "Search"
			matchedtxt.classList.add("hide");
			matchedtxt.firstChild.nodeValue = ""
		}
	}
	function search(term) {
		if (term) currentSearchTerm = term;

		var re = new RegExp(currentSearchTerm, ignorecase ? 'i' : '');
		var el = document.getElementById("frames").children;
		var matches = new Object();
		var maxwidth = 0;
		for (var i = 0; i < el.length; i++) {
			var e = el[i];
			var func = g_to_func(e);
			var rect = find_child(e, "rect");
			if (func == null || rect == null)
				continue;

			// Save max width. Only works as we have a root frame
			var w = parseFloat(rect.attributes.width.value);
			if (w > maxwidth)
				maxwidth = w;

			if (func.match(re)) {
				// highlight
				var x = parseFloat(rect.attributes.x.value);
				orig_save(rect, "fill");
				rect.attributes.fill.value = "rgb(230,0,230)";

				// remember matches
				if (matches[x] == undefined) {
					matches[x] = w;
				} else {
					if (w > matches[x]) {
						// overwrite with parent
						matches[x] = w;
					}
				}
				searching = 1;
			}
		}
		if (!searching)
			return;
		var params = get_params();
		params.s = currentSearchTerm;
		history.replaceState(null, null, parse_params(params));

		searchbtn.classList.add("show");
		searchbtn.firstChild.nodeValue = "Reset Search";

		// calculate percent matched, excluding vertical overlap
		var count = 0;
		var lastx = -1;
		var lastw = 0;
		var keys = Array();
		for (k in matches) {
			if (matches.hasOwnProperty(k))
				keys.push(k);
		}
		// sort the matched frames by their x location
		// ascending, then width descending
		keys.sort(function(a, b){
			return a - b;
		});
		// Step through frames saving only the biggest bottom-up frames
		// thanks to the sort order. This relies on the tree property
		// where children are always smaller than their parents.
		var fudge = 0.0001;	// JavaScript floating point
		for (var k in keys) {
			var x = parseFloat(keys[k]);
			var w = matches[keys[k]];
			if (x >= lastx + lastw - fudge) {
				count += w;
				lastx = x;
				lastw = w;
			}
		}
		// display matched percent
		matchedtxt.classList.remove("hide");
		var pct = 100 * count / maxwidth;
		if (pct != 100) pct = pct.toFixed(1)
		matchedtxt.firstChild.nodeValue = "Matched: " + pct + "%";
	}
]]>
</script>
<rect x="0.0" y="0" width="1200.0" height="342.0" fill="url(#background)"  />
<text id="title" x="600.00" y="24" >Flame Graph</text>
<text id="details" x="10.00" y="325" > </text>
<text id="unzoom" x="10.00" y="24" class="hide">Reset Zoom</text>
<text id="search" x="1090.00" y="24" >Search</text>
<text id="ignorecase" x="1174.00" y="24" >ic</text>
<text id="matched" x="1090.00" y="325" > </text>
<g id="frames">
<g >
<title>w2c_decode__webp__wasmsimd_GetLargeValue (59,876,230 samples, 5.51%)</title><rect x="762.8" y="261" width="65.1" height="15.0" fill="rgb(234,137,32)" rx="2" ry="2" />
<text  x="765.80" y="271.5" >w2c_dec..</text>
</g>
<g >
<title>setup_arg_pages (324,778 samples, 0.03%)</title><rect x="77.1" y="149" width="0.4" height="15.0" fill="rgb(222,82,19)" rx="2" ry="2" />
<text  x="80.13" y="159.5" ></text>
</g>
<g >
<title>do_syscall_64 (642,561 samples, 0.06%)</title><rect x="136.7" y="229" width="0.7" height="15.0" fill="rgb(209,20,4)" rx="2" ry="2" />
<text  x="139.67" y="239.5" ></text>
</g>
<g >
<title>w2c_decode__webp__wasmsimd_HU4_C (4,616,470 samples, 0.43%)</title><rect x="21.0" y="165" width="5.0" height="15.0" fill="rgb(208,17,4)" rx="2" ry="2" />
<text  x="24.00" y="175.5" ></text>
</g>
<g >
<title>__x64_sys_munmap (923,526 samples, 0.09%)</title><rect x="135.7" y="213" width="1.0" height="15.0" fill="rgb(206,7,1)" rx="2" ry="2" />
<text  x="138.66" y="223.5" ></text>
</g>
<g >
<title>[unknown] (59,018,033 samples, 5.43%)</title><rect x="10.0" y="213" width="64.1" height="15.0" fill="rgb(210,24,5)" rx="2" ry="2" />
<text  x="13.00" y="223.5" >[unknown]</text>
</g>
<g >
<title>handle_mm_fault (673,291 samples, 0.06%)</title><rect x="1186.2" y="197" width="0.7" height="15.0" fill="rgb(234,135,32)" rx="2" ry="2" />
<text  x="1189.18" y="207.5" ></text>
</g>
<g >
<title>__handle_mm_fault (852,680 samples, 0.08%)</title><rect x="1185.3" y="181" width="0.9" height="15.0" fill="rgb(207,9,2)" rx="2" ry="2" />
<text  x="1188.25" y="191.5" ></text>
</g>
<g >
<title>do_mas_munmap (923,526 samples, 0.09%)</title><rect x="135.7" y="181" width="1.0" height="15.0" fill="rgb(224,90,21)" rx="2" ry="2" />
<text  x="138.66" y="191.5" ></text>
</g>
<g >
<title>do_syscall_64 (923,160 samples, 0.09%)</title><rect x="74.1" y="213" width="1.0" height="15.0" fill="rgb(209,20,4)" rx="2" ry="2" />
<text  x="77.12" y="223.5" ></text>
</g>
<g >
<title>__x64_sys_set_tid_address (642,561 samples, 0.06%)</title><rect x="136.7" y="213" width="0.7" height="15.0" fill="rgb(242,172,41)" rx="2" ry="2" />
<text  x="139.67" y="223.5" ></text>
</g>
<g >
<title>__memmove_avx_unaligned (923,141 samples, 0.09%)</title><rect x="76.1" y="245" width="1.0" height="15.0" fill="rgb(254,228,54)" rx="2" ry="2" />
<text  x="79.13" y="255.5" ></text>
</g>
<g >
<title>w2c_decode__webp__wasmsimd_ReconstructRow (16,611,018 samples, 1.53%)</title><rect x="1014.7" y="261" width="18.0" height="15.0" fill="rgb(217,55,13)" rx="2" ry="2" />
<text  x="1017.68" y="271.5" ></text>
</g>
<g >
<title>w2c_decode__webp__wasmsimd_TransformUV_C (923,473 samples, 0.09%)</title><rect x="82.5" y="245" width="1.0" height="15.0" fill="rgb(228,108,25)" rx="2" ry="2" />
<text  x="85.50" y="255.5" ></text>
</g>
<g >
<title>w2c_decode__webp__wasmsimd_DC4_C (7,357,765 samples, 0.68%)</title><rect x="10.0" y="165" width="8.0" height="15.0" fill="rgb(250,210,50)" rx="2" ry="2" />
<text  x="13.00" y="175.5" ></text>
</g>
<g >
<title>exc_page_fault (673,291 samples, 0.06%)</title><rect x="1186.2" y="229" width="0.7" height="15.0" fill="rgb(212,35,8)" rx="2" ry="2" />
<text  x="1189.18" y="239.5" ></text>
</g>
<g >
<title>do_syscall_64 (923,526 samples, 0.09%)</title><rect x="135.7" y="229" width="1.0" height="15.0" fill="rgb(209,20,4)" rx="2" ry="2" />
<text  x="138.66" y="239.5" ></text>
</g>
<g >
<title>__folio_alloc (852,680 samples, 0.08%)</title><rect x="1185.3" y="149" width="0.9" height="15.0" fill="rgb(224,91,21)" rx="2" ry="2" />
<text  x="1188.25" y="159.5" ></text>
</g>
<g >
<title>entry_SYSCALL_64_after_hwframe (324,778 samples, 0.03%)</title><rect x="77.1" y="245" width="0.4" height="15.0" fill="rgb(218,63,15)" rx="2" ry="2" />
<text  x="80.13" y="255.5" ></text>
</g>
<g >
<title>w2c_decode__webp__wasmsimd_VP8GetValue (1,848,488 samples, 0.17%)</title><rect x="1064.4" y="261" width="2.0" height="15.0" fill="rgb(222,81,19)" rx="2" ry="2" />
<text  x="1067.38" y="271.5" ></text>
</g>
<g >
<title>__fsnotify_parent (923,160 samples, 0.09%)</title><rect x="74.1" y="101" width="1.0" height="15.0" fill="rgb(225,96,23)" rx="2" ry="2" />
<text  x="77.12" y="111.5" ></text>
</g>
<g >
<title>w2c_decode__webp__wasmsimd_HE8uv_C (920,281 samples, 0.08%)</title><rect x="20.0" y="165" width="1.0" height="15.0" fill="rgb(218,60,14)" rx="2" ry="2" />
<text  x="23.00" y="175.5" ></text>
</g>
<g >
<title>do_user_addr_fault (852,680 samples, 0.08%)</title><rect x="1185.3" y="213" width="0.9" height="15.0" fill="rgb(228,108,25)" rx="2" ry="2" />
<text  x="1188.25" y="223.5" ></text>
</g>
<g >
<title>path_openat (923,160 samples, 0.09%)</title><rect x="74.1" y="149" width="1.0" height="15.0" fill="rgb(249,202,48)" rx="2" ry="2" />
<text  x="77.12" y="159.5" ></text>
</g>
<g >
<title>__handle_mm_fault (673,291 samples, 0.06%)</title><rect x="1186.2" y="181" width="0.7" height="15.0" fill="rgb(207,9,2)" rx="2" ry="2" />
<text  x="1189.18" y="191.5" ></text>
</g>
<g >
<title>notify_change (923,160 samples, 0.09%)</title><rect x="74.1" y="117" width="1.0" height="15.0" fill="rgb(237,150,35)" rx="2" ry="2" />
<text  x="77.12" y="127.5" ></text>
</g>
<g >
<title>asm_exc_page_fault (825,075 samples, 0.08%)</title><rect x="1063.5" y="245" width="0.9" height="15.0" fill="rgb(225,93,22)" rx="2" ry="2" />
<text  x="1066.48" y="255.5" ></text>
</g>
<g >
<title>w2c_decode__webp__wasmsimd_GetCoeffsAlt (563,638,457 samples, 51.90%)</title><rect x="150.4" y="261" width="612.4" height="15.0" fill="rgb(214,45,10)" rx="2" ry="2" />
<text  x="153.40" y="271.5" >w2c_decode__webp__wasmsimd_GetCoeffsAlt</text>
</g>
<g >
<title>__alloc_pages (825,075 samples, 0.08%)</title><rect x="1063.5" y="133" width="0.9" height="15.0" fill="rgb(233,129,30)" rx="2" ry="2" />
<text  x="1066.48" y="143.5" ></text>
</g>
<g >
<title>w2c_decode__webp__wasmsimd_ReconstructRow (1,846,942 samples, 0.17%)</title><rect x="80.5" y="245" width="2.0" height="15.0" fill="rgb(217,55,13)" rx="2" ry="2" />
<text  x="83.50" y="255.5" ></text>
</g>
<g >
<title>vma_alloc_folio (852,680 samples, 0.08%)</title><rect x="1185.3" y="165" width="0.9" height="15.0" fill="rgb(245,187,44)" rx="2" ry="2" />
<text  x="1188.25" y="175.5" ></text>
</g>
<g >
<title>w2c_decode__webp__wasmsimd_TM4_SSE2 (1,847,166 samples, 0.17%)</title><rect x="55.1" y="165" width="2.0" height="15.0" fill="rgb(224,90,21)" rx="2" ry="2" />
<text  x="58.05" y="175.5" ></text>
</g>
<g >
<title>[unknown] (59,018,033 samples, 5.43%)</title><rect x="10.0" y="229" width="64.1" height="15.0" fill="rgb(210,24,5)" rx="2" ry="2" />
<text  x="13.00" y="239.5" >[unknown]</text>
</g>
<g >
<title>w2c_decode__webp__wasmsimd_TransformAC3_C (923,613 samples, 0.09%)</title><rect x="58.1" y="165" width="1.0" height="15.0" fill="rgb(251,211,50)" rx="2" ry="2" />
<text  x="61.07" y="175.5" ></text>
</g>
<g >
<title>generic_perform_write (923,327 samples, 0.09%)</title><rect x="75.1" y="149" width="1.0" height="15.0" fill="rgb(236,146,35)" rx="2" ry="2" />
<text  x="78.13" y="159.5" ></text>
</g>
<g >
<title>__memset_avx2_unaligned_erms (3,694,657 samples, 0.34%)</title><rect x="131.6" y="261" width="4.1" height="15.0" fill="rgb(223,84,20)" rx="2" ry="2" />
<text  x="134.65" y="271.5" ></text>
</g>
<g >
<title>__handle_mm_fault (825,075 samples, 0.08%)</title><rect x="1063.5" y="181" width="0.9" height="15.0" fill="rgb(207,9,2)" rx="2" ry="2" />
<text  x="1066.48" y="191.5" ></text>
</g>
<g >
<title>__libc_write (923,327 samples, 0.09%)</title><rect x="75.1" y="245" width="1.0" height="15.0" fill="rgb(238,154,37)" rx="2" ry="2" />
<text  x="78.13" y="255.5" ></text>
</g>
<g >
<title>decode_webp_was (1,085,974,896 samples, 99.99%)</title><rect x="10.0" y="277" width="1179.9" height="15.0" fill="rgb(216,54,12)" rx="2" ry="2" />
<text  x="13.00" y="287.5" >decode_webp_was</text>
</g>
<g >
<title>w2c_decode__webp__wasmsimd_DC8uv_SSE2 (8,313,542 samples, 0.77%)</title><rect x="139.4" y="261" width="9.0" height="15.0" fill="rgb(248,200,48)" rx="2" ry="2" />
<text  x="142.37" y="271.5" ></text>
</g>
<g >
<title>__wake_up_common_lock (923,327 samples, 0.09%)</title><rect x="75.1" y="53" width="1.0" height="15.0" fill="rgb(238,155,37)" rx="2" ry="2" />
<text  x="78.13" y="63.5" ></text>
</g>
<g >
<title>jbd2_journal_stop (923,327 samples, 0.09%)</title><rect x="75.1" y="85" width="1.0" height="15.0" fill="rgb(237,150,35)" rx="2" ry="2" />
<text  x="78.13" y="95.5" ></text>
</g>
<g >
<title>__tls_init_tp (642,561 samples, 0.06%)</title><rect x="136.7" y="261" width="0.7" height="15.0" fill="rgb(229,112,26)" rx="2" ry="2" />
<text  x="139.67" y="271.5" ></text>
</g>
<g >
<title>generic_write_end (923,327 samples, 0.09%)</title><rect x="75.1" y="133" width="1.0" height="15.0" fill="rgb(206,8,1)" rx="2" ry="2" />
<text  x="78.13" y="143.5" ></text>
</g>
<g >
<title>handle_mm_fault (852,680 samples, 0.08%)</title><rect x="1185.3" y="197" width="0.9" height="15.0" fill="rgb(234,135,32)" rx="2" ry="2" />
<text  x="1188.25" y="207.5" ></text>
</g>
<g >
<title>vfs_write (923,327 samples, 0.09%)</title><rect x="75.1" y="181" width="1.0" height="15.0" fill="rgb(250,209,50)" rx="2" ry="2" />
<text  x="78.13" y="191.5" ></text>
</g>
<g >
<title>__x64_sys_openat (923,160 samples, 0.09%)</title><rect x="74.1" y="197" width="1.0" height="15.0" fill="rgb(251,215,51)" rx="2" ry="2" />
<text  x="77.12" y="207.5" ></text>
</g>
<g >
<title>load_elf_binary (324,778 samples, 0.03%)</title><rect x="77.1" y="165" width="0.4" height="15.0" fill="rgb(223,83,20)" rx="2" ry="2" />
<text  x="80.13" y="175.5" ></text>
</g>
<g >
<title>w2c_decode__webp__wasmsimd_DC8uvNoLeft_SSE2 (922,592 samples, 0.08%)</title><rect x="138.4" y="261" width="1.0" height="15.0" fill="rgb(226,96,23)" rx="2" ry="2" />
<text  x="141.37" y="271.5" ></text>
</g>
<g >
<title>ext4_buffered_write_iter (923,327 samples, 0.09%)</title><rect x="75.1" y="165" width="1.0" height="15.0" fill="rgb(213,40,9)" rx="2" ry="2" />
<text  x="78.13" y="175.5" ></text>
</g>
<g >
<title>unmap_vmas (923,526 samples, 0.09%)</title><rect x="135.7" y="133" width="1.0" height="15.0" fill="rgb(243,176,42)" rx="2" ry="2" />
<text  x="138.66" y="143.5" ></text>
</g>
<g >
<title>w2c_decode__webp__wasmsimd_TM8uv_SSE2 (924,109 samples, 0.09%)</title><rect x="57.1" y="165" width="1.0" height="15.0" fill="rgb(230,118,28)" rx="2" ry="2" />
<text  x="60.06" y="175.5" ></text>
</g>
<g >
<title>asm_exc_page_fault (673,291 samples, 0.06%)</title><rect x="1186.2" y="245" width="0.7" height="15.0" fill="rgb(225,93,22)" rx="2" ry="2" />
<text  x="1189.18" y="255.5" ></text>
</g>
<g >
<title>__mark_inode_dirty (923,327 samples, 0.09%)</title><rect x="75.1" y="117" width="1.0" height="15.0" fill="rgb(254,227,54)" rx="2" ry="2" />
<text  x="78.13" y="127.5" ></text>
</g>
<g >
<title>clear_page_rep (825,075 samples, 0.08%)</title><rect x="1063.5" y="101" width="0.9" height="15.0" fill="rgb(253,221,52)" rx="2" ry="2" />
<text  x="1066.48" y="111.5" ></text>
</g>
<g >
<title>_compound_head (923,526 samples, 0.09%)</title><rect x="135.7" y="101" width="1.0" height="15.0" fill="rgb(225,94,22)" rx="2" ry="2" />
<text  x="138.66" y="111.5" ></text>
</g>
<g >
<title>asm_exc_page_fault (852,680 samples, 0.08%)</title><rect x="1185.3" y="245" width="0.9" height="15.0" fill="rgb(225,93,22)" rx="2" ry="2" />
<text  x="1188.25" y="255.5" ></text>
</g>
<g >
<title>exc_page_fault (825,075 samples, 0.08%)</title><rect x="1063.5" y="229" width="0.9" height="15.0" fill="rgb(212,35,8)" rx="2" ry="2" />
<text  x="1066.48" y="239.5" ></text>
</g>
<g >
<title>entry_SYSCALL_64_after_hwframe (923,160 samples, 0.09%)</title><rect x="74.1" y="229" width="1.0" height="15.0" fill="rgb(218,63,15)" rx="2" ry="2" />
<text  x="77.12" y="239.5" ></text>
</g>
<g >
<title>w2c_decode__webp__wasmsimd_TransformDC_C (2,751,696 samples, 0.25%)</title><rect x="1047.8" y="261" width="3.0" height="15.0" fill="rgb(211,27,6)" rx="2" ry="2" />
<text  x="1050.79" y="271.5" ></text>
</g>
<g >
<title>w2c_decode__webp__wasmsimd_TransformAC3_C (6,466,813 samples, 0.60%)</title><rect x="1040.8" y="261" width="7.0" height="15.0" fill="rgb(251,211,50)" rx="2" ry="2" />
<text  x="1043.76" y="271.5" ></text>
</g>
<g >
<title>vma_alloc_folio (825,075 samples, 0.08%)</title><rect x="1063.5" y="165" width="0.9" height="15.0" fill="rgb(245,187,44)" rx="2" ry="2" />
<text  x="1066.48" y="175.5" ></text>
</g>
<g >
<title>handle_mm_fault (825,075 samples, 0.08%)</title><rect x="1063.5" y="197" width="0.9" height="15.0" fill="rgb(234,135,32)" rx="2" ry="2" />
<text  x="1066.48" y="207.5" ></text>
</g>
<g >
<title>w2c_decode__webp__wasmsimd_Transform_SSE2 (1,848,144 samples, 0.17%)</title><rect x="70.1" y="165" width="2.0" height="15.0" fill="rgb(224,91,21)" rx="2" ry="2" />
<text  x="73.11" y="175.5" ></text>
</g>
<g >
<title>w2c_decode__webp__wasmsimd_HE4_C (923,110 samples, 0.08%)</title><rect x="19.0" y="165" width="1.0" height="15.0" fill="rgb(212,32,7)" rx="2" ry="2" />
<text  x="22.00" y="175.5" ></text>
</g>
<g >
<title>do_syscall_64 (324,778 samples, 0.03%)</title><rect x="77.1" y="229" width="0.4" height="15.0" fill="rgb(209,20,4)" rx="2" ry="2" />
<text  x="80.13" y="239.5" ></text>
</g>
<g >
<title>do_sys_openat2 (923,160 samples, 0.09%)</title><rect x="74.1" y="181" width="1.0" height="15.0" fill="rgb(253,221,52)" rx="2" ry="2" />
<text  x="77.12" y="191.5" ></text>
</g>
<g >
<title>do_user_addr_fault (673,291 samples, 0.06%)</title><rect x="1186.2" y="213" width="0.7" height="15.0" fill="rgb(228,108,25)" rx="2" ry="2" />
<text  x="1189.18" y="223.5" ></text>
</g>
<g >
<title>do_mas_align_munmap (923,526 samples, 0.09%)</title><rect x="135.7" y="165" width="1.0" height="15.0" fill="rgb(232,126,30)" rx="2" ry="2" />
<text  x="138.66" y="175.5" ></text>
</g>
<g >
<title>[unknown] (111,038,983 samples, 10.22%)</title><rect x="10.0" y="261" width="120.6" height="15.0" fill="rgb(210,24,5)" rx="2" ry="2" />
<text  x="13.00" y="271.5" >[unknown]</text>
</g>
<g >
<title>__ext4_journal_stop (923,327 samples, 0.09%)</title><rect x="75.1" y="101" width="1.0" height="15.0" fill="rgb(234,134,32)" rx="2" ry="2" />
<text  x="78.13" y="111.5" ></text>
</g>
<g >
<title>w2c_decode__webp__wasmsimd_IDecode (171,026,533 samples, 15.75%)</title><rect x="828.9" y="261" width="185.8" height="15.0" fill="rgb(237,147,35)" rx="2" ry="2" />
<text  x="831.86" y="271.5" >w2c_decode__webp__wasmsi..</text>
</g>
<g >
<title>dget_parent (923,160 samples, 0.09%)</title><rect x="74.1" y="85" width="1.0" height="15.0" fill="rgb(237,150,36)" rx="2" ry="2" />
<text  x="77.12" y="95.5" ></text>
</g>
<g >
<title>w2c_decode__webp__wasmsimd_Transform_SSE2 (43,385,701 samples, 3.99%)</title><rect x="83.5" y="245" width="47.1" height="15.0" fill="rgb(224,91,21)" rx="2" ry="2" />
<text  x="86.51" y="255.5" >w2c_..</text>
</g>
<g >
<title>lockref_get_not_zero (923,160 samples, 0.09%)</title><rect x="74.1" y="69" width="1.0" height="15.0" fill="rgb(241,165,39)" rx="2" ry="2" />
<text  x="77.12" y="79.5" ></text>
</g>
<g >
<title>w2c_decode__webp__wasmsimd_SimpleVFilter16i_SSE2 (920,395 samples, 0.08%)</title><rect x="1039.8" y="261" width="1.0" height="15.0" fill="rgb(242,173,41)" rx="2" ry="2" />
<text  x="1042.76" y="271.5" ></text>
</g>
<g >
<title>w2c_decode__webp__wasmsimd_FinishRow (923,628 samples, 0.09%)</title><rect x="18.0" y="165" width="1.0" height="15.0" fill="rgb(205,3,0)" rx="2" ry="2" />
<text  x="20.99" y="175.5" ></text>
</g>
<g >
<title>__alloc_pages (852,680 samples, 0.08%)</title><rect x="1185.3" y="133" width="0.9" height="15.0" fill="rgb(233,129,30)" rx="2" ry="2" />
<text  x="1188.25" y="143.5" ></text>
</g>
<g >
<title>entry_SYSCALL_64_after_hwframe (642,561 samples, 0.06%)</title><rect x="136.7" y="245" width="0.7" height="15.0" fill="rgb(218,63,15)" rx="2" ry="2" />
<text  x="139.67" y="255.5" ></text>
</g>
<g >
<title>clear_page_rep (852,680 samples, 0.08%)</title><rect x="1185.3" y="101" width="0.9" height="15.0" fill="rgb(253,221,52)" rx="2" ry="2" />
<text  x="1188.25" y="111.5" ></text>
</g>
<g >
<title>w2c_decode__webp__wasmsimd_VP8ParseProba (1,847,940 samples, 0.17%)</title><rect x="1066.4" y="261" width="2.0" height="15.0" fill="rgb(216,51,12)" rx="2" ry="2" />
<text  x="1069.38" y="271.5" ></text>
</g>
<g >
<title>w2c_decode__webp__wasmsimd_RD4_SSE2 (2,771,257 samples, 0.26%)</title><rect x="28.0" y="165" width="3.0" height="15.0" fill="rgb(245,187,44)" rx="2" ry="2" />
<text  x="30.97" y="175.5" ></text>
</g>
<g >
<title>do_filp_open (923,160 samples, 0.09%)</title><rect x="74.1" y="165" width="1.0" height="15.0" fill="rgb(211,28,6)" rx="2" ry="2" />
<text  x="77.12" y="175.5" ></text>
</g>
<g >
<title>__memmove_avx_unaligned (923,478 samples, 0.09%)</title><rect x="130.6" y="261" width="1.0" height="15.0" fill="rgb(254,228,54)" rx="2" ry="2" />
<text  x="133.65" y="271.5" ></text>
</g>
<g >
<title>blk_cgroup_congested (673,291 samples, 0.06%)</title><rect x="1186.2" y="149" width="0.7" height="15.0" fill="rgb(250,211,50)" rx="2" ry="2" />
<text  x="1189.18" y="159.5" ></text>
</g>
<g >
<title>unmap_page_range (923,526 samples, 0.09%)</title><rect x="135.7" y="117" width="1.0" height="15.0" fill="rgb(206,5,1)" rx="2" ry="2" />
<text  x="138.66" y="127.5" ></text>
</g>
<g >
<title>w2c_decode__webp__wasmsimd_FinishRow (1,839,366 samples, 0.17%)</title><rect x="148.4" y="261" width="2.0" height="15.0" fill="rgb(205,3,0)" rx="2" ry="2" />
<text  x="151.40" y="271.5" ></text>
</g>
<g >
<title>w2c_decode__webp__wasmsimd_GetCoeffsAlt (1,847,014 samples, 0.17%)</title><rect x="77.5" y="245" width="2.0" height="15.0" fill="rgb(214,45,10)" rx="2" ry="2" />
<text  x="80.49" y="255.5" ></text>
</g>
<g >
<title>entry_SYSCALL_64_after_hwframe (923,327 samples, 0.09%)</title><rect x="75.1" y="229" width="1.0" height="15.0" fill="rgb(218,63,15)" rx="2" ry="2" />
<text  x="78.13" y="239.5" ></text>
</g>
<g >
<title>bprm_execve (324,778 samples, 0.03%)</title><rect x="77.1" y="181" width="0.4" height="15.0" fill="rgb(218,61,14)" rx="2" ry="2" />
<text  x="80.13" y="191.5" ></text>
</g>
<g >
<title>w2c_decode__webp__wasmsimd_VE4_SSE2 (1,847,353 samples, 0.17%)</title><rect x="72.1" y="165" width="2.0" height="15.0" fill="rgb(213,38,9)" rx="2" ry="2" />
<text  x="75.12" y="175.5" ></text>
</g>
<g >
<title>__cgroup_throttle_swaprate (673,291 samples, 0.06%)</title><rect x="1186.2" y="165" width="0.7" height="15.0" fill="rgb(221,73,17)" rx="2" ry="2" />
<text  x="1189.18" y="175.5" ></text>
</g>
<g >
<title>w2c_decode__webp__wasmsimd_memcpy (923,604 samples, 0.09%)</title><rect x="1186.9" y="261" width="1.0" height="15.0" fill="rgb(249,206,49)" rx="2" ry="2" />
<text  x="1189.91" y="271.5" ></text>
</g>
<g >
<title>w2c_decode__webp__wasmsimd_UpsampleRgbLinePair_SSE2 (12,518,463 samples, 1.15%)</title><rect x="1050.8" y="261" width="13.6" height="15.0" fill="rgb(212,33,7)" rx="2" ry="2" />
<text  x="1053.77" y="271.5" ></text>
</g>
<g >
<title>[unknown] (59,018,033 samples, 5.43%)</title><rect x="10.0" y="197" width="64.1" height="15.0" fill="rgb(210,24,5)" rx="2" ry="2" />
<text  x="13.00" y="207.5" >[unknown]</text>
</g>
<g >
<title>w2c_decode__webp__wasmsimd_LD4_SSE2 (1,795,826 samples, 0.17%)</title><rect x="26.0" y="165" width="2.0" height="15.0" fill="rgb(234,135,32)" rx="2" ry="2" />
<text  x="29.02" y="175.5" ></text>
</g>
<g >
<title>get_page_from_freelist (852,680 samples, 0.08%)</title><rect x="1185.3" y="117" width="0.9" height="15.0" fill="rgb(252,218,52)" rx="2" ry="2" />
<text  x="1188.25" y="127.5" ></text>
</g>
<g >
<title>w2c_decode__webp__wasmsimd_TransformDC_C (10,160,601 samples, 0.94%)</title><rect x="59.1" y="165" width="11.0" height="15.0" fill="rgb(211,27,6)" rx="2" ry="2" />
<text  x="62.07" y="175.5" ></text>
</g>
<g >
<title>stop_this_handle (923,327 samples, 0.09%)</title><rect x="75.1" y="69" width="1.0" height="15.0" fill="rgb(205,4,0)" rx="2" ry="2" />
<text  x="78.13" y="79.5" ></text>
</g>
<g >
<title>do_truncate (923,160 samples, 0.09%)</title><rect x="74.1" y="133" width="1.0" height="15.0" fill="rgb(216,53,12)" rx="2" ry="2" />
<text  x="77.12" y="143.5" ></text>
</g>
<g >
<title>__x64_sys_execve (324,778 samples, 0.03%)</title><rect x="77.1" y="213" width="0.4" height="15.0" fill="rgb(247,193,46)" rx="2" ry="2" />
<text  x="80.13" y="223.5" ></text>
</g>
<g >
<title>w2c_decode__webp__wasmsimd_VP8YuvToRgb32_SSE2 (108,409,763 samples, 9.98%)</title><rect x="1068.4" y="261" width="117.8" height="15.0" fill="rgb(233,129,31)" rx="2" ry="2" />
<text  x="1071.39" y="271.5" >w2c_decode__we..</text>
</g>
<g >
<title>[unknown] (59,018,033 samples, 5.43%)</title><rect x="10.0" y="181" width="64.1" height="15.0" fill="rgb(210,24,5)" rx="2" ry="2" />
<text  x="13.00" y="191.5" >[unknown]</text>
</g>
<g >
<title>exc_page_fault (852,680 samples, 0.08%)</title><rect x="1185.3" y="229" width="0.9" height="15.0" fill="rgb(212,35,8)" rx="2" ry="2" />
<text  x="1188.25" y="239.5" ></text>
</g>
<g >
<title>ksys_write (923,327 samples, 0.09%)</title><rect x="75.1" y="197" width="1.0" height="15.0" fill="rgb(205,4,1)" rx="2" ry="2" />
<text  x="78.13" y="207.5" ></text>
</g>
<g >
<title>do_syscall_64 (923,327 samples, 0.09%)</title><rect x="75.1" y="213" width="1.0" height="15.0" fill="rgb(209,20,4)" rx="2" ry="2" />
<text  x="78.13" y="223.5" ></text>
</g>
<g >
<title>w2c_decode__webp__wasmsimd_ReconstructRow (22,158,710 samples, 2.04%)</title><rect x="31.0" y="165" width="24.1" height="15.0" fill="rgb(217,55,13)" rx="2" ry="2" />
<text  x="33.98" y="175.5" >w..</text>
</g>
<g >
<title>__task_pid_nr_ns (642,561 samples, 0.06%)</title><rect x="136.7" y="197" width="0.7" height="15.0" fill="rgb(236,146,34)" rx="2" ry="2" />
<text  x="139.67" y="207.5" ></text>
</g>
<g >
<title>w2c_decode__webp__wasmsimd_DC16_SSE2 (923,144 samples, 0.09%)</title><rect x="137.4" y="261" width="1.0" height="15.0" fill="rgb(213,37,8)" rx="2" ry="2" />
<text  x="140.36" y="271.5" ></text>
</g>
<g >
<title>w2c_decode__webp__wasmsimd_HE8uv_C (924,300 samples, 0.09%)</title><rect x="827.9" y="261" width="1.0" height="15.0" fill="rgb(218,60,14)" rx="2" ry="2" />
<text  x="830.86" y="271.5" ></text>
</g>
<g >
<title>shift_arg_pages (324,778 samples, 0.03%)</title><rect x="77.1" y="133" width="0.4" height="15.0" fill="rgb(245,187,44)" rx="2" ry="2" />
<text  x="80.13" y="143.5" ></text>
</g>
<g >
<title>entry_SYSCALL_64_after_hwframe (923,526 samples, 0.09%)</title><rect x="135.7" y="245" width="1.0" height="15.0" fill="rgb(218,63,15)" rx="2" ry="2" />
<text  x="138.66" y="255.5" ></text>
</g>
<g >
<title>w2c_decode__webp__wasmsimd_dlmalloc (673,291 samples, 0.06%)</title><rect x="1186.2" y="261" width="0.7" height="15.0" fill="rgb(229,110,26)" rx="2" ry="2" />
<text  x="1189.18" y="271.5" ></text>
</g>
<g >
<title>w2c_decode__webp__wasmsimd_IDecode (923,414 samples, 0.09%)</title><rect x="79.5" y="245" width="1.0" height="15.0" fill="rgb(237,147,35)" rx="2" ry="2" />
<text  x="82.49" y="255.5" ></text>
</g>
<g >
<title>__vm_munmap (923,526 samples, 0.09%)</title><rect x="135.7" y="197" width="1.0" height="15.0" fill="rgb(231,121,28)" rx="2" ry="2" />
<text  x="138.66" y="207.5" ></text>
</g>
<g >
<title>do_user_addr_fault (825,075 samples, 0.08%)</title><rect x="1063.5" y="213" width="0.9" height="15.0" fill="rgb(228,108,25)" rx="2" ry="2" />
<text  x="1066.48" y="223.5" ></text>
</g>
<g >
<title>[unknown] (59,018,033 samples, 5.43%)</title><rect x="10.0" y="245" width="64.1" height="15.0" fill="rgb(210,24,5)" rx="2" ry="2" />
<text  x="13.00" y="255.5" >[unknown]</text>
</g>
<g >
<title>w2c_decode__webp__wasmsimd_memset (1,848,028 samples, 0.17%)</title><rect x="1187.9" y="261" width="2.0" height="15.0" fill="rgb(249,206,49)" rx="2" ry="2" />
<text  x="1190.92" y="271.5" ></text>
</g>
<g >
<title>__libc_open64 (923,160 samples, 0.09%)</title><rect x="74.1" y="245" width="1.0" height="15.0" fill="rgb(235,140,33)" rx="2" ry="2" />
<text  x="77.12" y="255.5" ></text>
</g>
<g >
<title>all (1,086,044,865 samples, 100%)</title><rect x="10.0" y="293" width="1180.0" height="15.0" fill="rgb(213,39,9)" rx="2" ry="2" />
<text  x="13.00" y="303.5" ></text>
</g>
<g >
<title>get_page_from_freelist (825,075 samples, 0.08%)</title><rect x="1063.5" y="117" width="0.9" height="15.0" fill="rgb(252,218,52)" rx="2" ry="2" />
<text  x="1066.48" y="127.5" ></text>
</g>
<g >
<title>unmap_region (923,526 samples, 0.09%)</title><rect x="135.7" y="149" width="1.0" height="15.0" fill="rgb(219,64,15)" rx="2" ry="2" />
<text  x="138.66" y="159.5" ></text>
</g>
<g >
<title>__wake_up_common (923,327 samples, 0.09%)</title><rect x="75.1" y="37" width="1.0" height="15.0" fill="rgb(248,197,47)" rx="2" ry="2" />
<text  x="78.13" y="47.5" ></text>
</g>
<g >
<title>__folio_alloc (825,075 samples, 0.08%)</title><rect x="1063.5" y="149" width="0.9" height="15.0" fill="rgb(224,91,21)" rx="2" ry="2" />
<text  x="1066.48" y="159.5" ></text>
</g>
<g >
<title>__munmap (923,526 samples, 0.09%)</title><rect x="135.7" y="261" width="1.0" height="15.0" fill="rgb(211,29,7)" rx="2" ry="2" />
<text  x="138.66" y="271.5" ></text>
</g>
<g >
<title>do_execveat_common.isra.0 (324,778 samples, 0.03%)</title><rect x="77.1" y="197" width="0.4" height="15.0" fill="rgb(231,123,29)" rx="2" ry="2" />
<text  x="80.13" y="207.5" ></text>
</g>
<g >
<title>w2c_decode__webp__wasmsimd_SimpleHFilter16_SSE2 (6,468,028 samples, 0.60%)</title><rect x="1032.7" y="261" width="7.1" height="15.0" fill="rgb(211,29,7)" rx="2" ry="2" />
<text  x="1035.73" y="271.5" ></text>
</g>
</g>
</svg>
