<?xml version="1.0" standalone="no"?>
<!DOCTYPE svg PUBLIC "-//W3C//DTD SVG 1.1//EN" "http://www.w3.org/Graphics/SVG/1.1/DTD/svg11.dtd">
<svg version="1.1" width="1200" height="374" onload="init(evt)" viewBox="0 0 1200 374" xmlns="http://www.w3.org/2000/svg" xmlns:xlink="http://www.w3.org/1999/xlink">
<!-- Flame graph stack visualization. See https://github.com/brendangregg/FlameGraph for latest version, and http://www.brendangregg.com/flamegraphs.html for examples. -->
<!-- NOTES:  -->
<defs>
	<linearGradient id="background" y1="0" y2="1" x1="0" x2="0" >
		<stop stop-color="#eeeeee" offset="5%" />
		<stop stop-color="#eeeeb0" offset="95%" />
	</linearGradient>
</defs>
<style type="text/css">
	text { font-family:Verdana; font-size:12px; fill:rgb(0,0,0); }
	#search, #ignorecase { opacity:0.1; cursor:pointer; }
	#search:hover, #search.show, #ignorecase:hover, #ignorecase.show { opacity:1; }
	#subtitle { text-anchor:middle; font-color:rgb(160,160,160); }
	#title { text-anchor:middle; font-size:17px}
	#unzoom { cursor:pointer; }
	#frames > *:hover { stroke:black; stroke-width:0.5; cursor:pointer; }
	.hide { display:none; }
	.parent { opacity:0.5; }
</style>
<script type="text/ecmascript">
<![CDATA[
	"use strict";
	var details, searchbtn, unzoombtn, matchedtxt, svg, searching, currentSearchTerm, ignorecase, ignorecaseBtn;
	function init(evt) {
		details = document.getElementById("details").firstChild;
		searchbtn = document.getElementById("search");
		ignorecaseBtn = document.getElementById("ignorecase");
		unzoombtn = document.getElementById("unzoom");
		matchedtxt = document.getElementById("matched");
		svg = document.getElementsByTagName("svg")[0];
		searching = 0;
		currentSearchTerm = null;

		// use GET parameters to restore a flamegraphs state.
		var params = get_params();
		if (params.x && params.y)
			zoom(find_group(document.querySelector('[x="' + params.x + '"][y="' + params.y + '"]')));
                if (params.s) search(params.s);
	}

	// event listeners
	window.addEventListener("click", function(e) {
		var target = find_group(e.target);
		if (target) {
			if (target.nodeName == "a") {
				if (e.ctrlKey === false) return;
				e.preventDefault();
			}
			if (target.classList.contains("parent")) unzoom(true);
			zoom(target);
			if (!document.querySelector('.parent')) {
				// we have basically done a clearzoom so clear the url
				var params = get_params();
				if (params.x) delete params.x;
				if (params.y) delete params.y;
				history.replaceState(null, null, parse_params(params));
				unzoombtn.classList.add("hide");
				return;
			}

			// set parameters for zoom state
			var el = target.querySelector("rect");
			if (el && el.attributes && el.attributes.y && el.attributes._orig_x) {
				var params = get_params()
				params.x = el.attributes._orig_x.value;
				params.y = el.attributes.y.value;
				history.replaceState(null, null, parse_params(params));
			}
		}
		else if (e.target.id == "unzoom") clearzoom();
		else if (e.target.id == "search") search_prompt();
		else if (e.target.id == "ignorecase") toggle_ignorecase();
	}, false)

	// mouse-over for info
	// show
	window.addEventListener("mouseover", function(e) {
		var target = find_group(e.target);
		if (target) details.nodeValue = "Function: " + g_to_text(target);
	}, false)

	// clear
	window.addEventListener("mouseout", function(e) {
		var target = find_group(e.target);
		if (target) details.nodeValue = ' ';
	}, false)

	// ctrl-F for search
	// ctrl-I to toggle case-sensitive search
	window.addEventListener("keydown",function (e) {
		if (e.keyCode === 114 || (e.ctrlKey && e.keyCode === 70)) {
			e.preventDefault();
			search_prompt();
		}
		else if (e.ctrlKey && e.keyCode === 73) {
			e.preventDefault();
			toggle_ignorecase();
		}
	}, false)

	// functions
	function get_params() {
		var params = {};
		var paramsarr = window.location.search.substr(1).split('&');
		for (var i = 0; i < paramsarr.length; ++i) {
			var tmp = paramsarr[i].split("=");
			if (!tmp[0] || !tmp[1]) continue;
			params[tmp[0]]  = decodeURIComponent(tmp[1]);
		}
		return params;
	}
	function parse_params(params) {
		var uri = "?";
		for (var key in params) {
			uri += key + '=' + encodeURIComponent(params[key]) + '&';
		}
		if (uri.slice(-1) == "&")
			uri = uri.substring(0, uri.length - 1);
		if (uri == '?')
			uri = window.location.href.split('?')[0];
		return uri;
	}
	function find_child(node, selector) {
		var children = node.querySelectorAll(selector);
		if (children.length) return children[0];
	}
	function find_group(node) {
		var parent = node.parentElement;
		if (!parent) return;
		if (parent.id == "frames") return node;
		return find_group(parent);
	}
	function orig_save(e, attr, val) {
		if (e.attributes["_orig_" + attr] != undefined) return;
		if (e.attributes[attr] == undefined) return;
		if (val == undefined) val = e.attributes[attr].value;
		e.setAttribute("_orig_" + attr, val);
	}
	function orig_load(e, attr) {
		if (e.attributes["_orig_"+attr] == undefined) return;
		e.attributes[attr].value = e.attributes["_orig_" + attr].value;
		e.removeAttribute("_orig_"+attr);
	}
	function g_to_text(e) {
		var text = find_child(e, "title").firstChild.nodeValue;
		return (text)
	}
	function g_to_func(e) {
		var func = g_to_text(e);
		// if there's any manipulation we want to do to the function
		// name before it's searched, do it here before returning.
		return (func);
	}
	function update_text(e) {
		var r = find_child(e, "rect");
		var t = find_child(e, "text");
		var w = parseFloat(r.attributes.width.value) -3;
		var txt = find_child(e, "title").textContent.replace(/\([^(]*\)$/,"");
		t.attributes.x.value = parseFloat(r.attributes.x.value) + 3;

		// Smaller than this size won't fit anything
		if (w < 2 * 12 * 0.59) {
			t.textContent = "";
			return;
		}

		t.textContent = txt;
		var sl = t.getSubStringLength(0, txt.length);
		// check if only whitespace or if we can fit the entire string into width w
		if (/^ *$/.test(txt) || sl < w)
			return;

		// this isn't perfect, but gives a good starting point
		// and avoids calling getSubStringLength too often
		var start = Math.floor((w/sl) * txt.length);
		for (var x = start; x > 0; x = x-2) {
			if (t.getSubStringLength(0, x + 2) <= w) {
				t.textContent = txt.substring(0, x) + "..";
				return;
			}
		}
		t.textContent = "";
	}

	// zoom
	function zoom_reset(e) {
		if (e.attributes != undefined) {
			orig_load(e, "x");
			orig_load(e, "width");
		}
		if (e.childNodes == undefined) return;
		for (var i = 0, c = e.childNodes; i < c.length; i++) {
			zoom_reset(c[i]);
		}
	}
	function zoom_child(e, x, ratio) {
		if (e.attributes != undefined) {
			if (e.attributes.x != undefined) {
				orig_save(e, "x");
				e.attributes.x.value = (parseFloat(e.attributes.x.value) - x - 10) * ratio + 10;
				if (e.tagName == "text")
					e.attributes.x.value = find_child(e.parentNode, "rect[x]").attributes.x.value + 3;
			}
			if (e.attributes.width != undefined) {
				orig_save(e, "width");
				e.attributes.width.value = parseFloat(e.attributes.width.value) * ratio;
			}
		}

		if (e.childNodes == undefined) return;
		for (var i = 0, c = e.childNodes; i < c.length; i++) {
			zoom_child(c[i], x - 10, ratio);
		}
	}
	function zoom_parent(e) {
		if (e.attributes) {
			if (e.attributes.x != undefined) {
				orig_save(e, "x");
				e.attributes.x.value = 10;
			}
			if (e.attributes.width != undefined) {
				orig_save(e, "width");
				e.attributes.width.value = parseInt(svg.width.baseVal.value) - (10 * 2);
			}
		}
		if (e.childNodes == undefined) return;
		for (var i = 0, c = e.childNodes; i < c.length; i++) {
			zoom_parent(c[i]);
		}
	}
	function zoom(node) {
		var attr = find_child(node, "rect").attributes;
		var width = parseFloat(attr.width.value);
		var xmin = parseFloat(attr.x.value);
		var xmax = parseFloat(xmin + width);
		var ymin = parseFloat(attr.y.value);
		var ratio = (svg.width.baseVal.value - 2 * 10) / width;

		// XXX: Workaround for JavaScript float issues (fix me)
		var fudge = 0.0001;

		unzoombtn.classList.remove("hide");

		var el = document.getElementById("frames").children;
		for (var i = 0; i < el.length; i++) {
			var e = el[i];
			var a = find_child(e, "rect").attributes;
			var ex = parseFloat(a.x.value);
			var ew = parseFloat(a.width.value);
			var upstack;
			// Is it an ancestor
			if (0 == 0) {
				upstack = parseFloat(a.y.value) > ymin;
			} else {
				upstack = parseFloat(a.y.value) < ymin;
			}
			if (upstack) {
				// Direct ancestor
				if (ex <= xmin && (ex+ew+fudge) >= xmax) {
					e.classList.add("parent");
					zoom_parent(e);
					update_text(e);
				}
				// not in current path
				else
					e.classList.add("hide");
			}
			// Children maybe
			else {
				// no common path
				if (ex < xmin || ex + fudge >= xmax) {
					e.classList.add("hide");
				}
				else {
					zoom_child(e, xmin, ratio);
					update_text(e);
				}
			}
		}
		search();
	}
	function unzoom(dont_update_text) {
		unzoombtn.classList.add("hide");
		var el = document.getElementById("frames").children;
		for(var i = 0; i < el.length; i++) {
			el[i].classList.remove("parent");
			el[i].classList.remove("hide");
			zoom_reset(el[i]);
			if(!dont_update_text) update_text(el[i]);
		}
		search();
	}
	function clearzoom() {
		unzoom();

		// remove zoom state
		var params = get_params();
		if (params.x) delete params.x;
		if (params.y) delete params.y;
		history.replaceState(null, null, parse_params(params));
	}

	// search
	function toggle_ignorecase() {
		ignorecase = !ignorecase;
		if (ignorecase) {
			ignorecaseBtn.classList.add("show");
		} else {
			ignorecaseBtn.classList.remove("show");
		}
		reset_search();
		search();
	}
	function reset_search() {
		var el = document.querySelectorAll("#frames rect");
		for (var i = 0; i < el.length; i++) {
			orig_load(el[i], "fill")
		}
		var params = get_params();
		delete params.s;
		history.replaceState(null, null, parse_params(params));
	}
	function search_prompt() {
		if (!searching) {
			var term = prompt("Enter a search term (regexp " +
			    "allowed, eg: ^ext4_)"
			    + (ignorecase ? ", ignoring case" : "")
			    + "\nPress Ctrl-i to toggle case sensitivity", "");
			if (term != null) search(term);
		} else {
			reset_search();
			searching = 0;
			currentSearchTerm = null;
			searchbtn.classList.remove("show");
			searchbtn.firstChild.nodeValue = "Search"
			matchedtxt.classList.add("hide");
			matchedtxt.firstChild.nodeValue = ""
		}
	}
	function search(term) {
		if (term) currentSearchTerm = term;

		var re = new RegExp(currentSearchTerm, ignorecase ? 'i' : '');
		var el = document.getElementById("frames").children;
		var matches = new Object();
		var maxwidth = 0;
		for (var i = 0; i < el.length; i++) {
			var e = el[i];
			var func = g_to_func(e);
			var rect = find_child(e, "rect");
			if (func == null || rect == null)
				continue;

			// Save max width. Only works as we have a root frame
			var w = parseFloat(rect.attributes.width.value);
			if (w > maxwidth)
				maxwidth = w;

			if (func.match(re)) {
				// highlight
				var x = parseFloat(rect.attributes.x.value);
				orig_save(rect, "fill");
				rect.attributes.fill.value = "rgb(230,0,230)";

				// remember matches
				if (matches[x] == undefined) {
					matches[x] = w;
				} else {
					if (w > matches[x]) {
						// overwrite with parent
						matches[x] = w;
					}
				}
				searching = 1;
			}
		}
		if (!searching)
			return;
		var params = get_params();
		params.s = currentSearchTerm;
		history.replaceState(null, null, parse_params(params));

		searchbtn.classList.add("show");
		searchbtn.firstChild.nodeValue = "Reset Search";

		// calculate percent matched, excluding vertical overlap
		var count = 0;
		var lastx = -1;
		var lastw = 0;
		var keys = Array();
		for (k in matches) {
			if (matches.hasOwnProperty(k))
				keys.push(k);
		}
		// sort the matched frames by their x location
		// ascending, then width descending
		keys.sort(function(a, b){
			return a - b;
		});
		// Step through frames saving only the biggest bottom-up frames
		// thanks to the sort order. This relies on the tree property
		// where children are always smaller than their parents.
		var fudge = 0.0001;	// JavaScript floating point
		for (var k in keys) {
			var x = parseFloat(keys[k]);
			var w = matches[keys[k]];
			if (x >= lastx + lastw - fudge) {
				count += w;
				lastx = x;
				lastw = w;
			}
		}
		// display matched percent
		matchedtxt.classList.remove("hide");
		var pct = 100 * count / maxwidth;
		if (pct != 100) pct = pct.toFixed(1)
		matchedtxt.firstChild.nodeValue = "Matched: " + pct + "%";
	}
]]>
</script>
<rect x="0.0" y="0" width="1200.0" height="374.0" fill="url(#background)"  />
<text id="title" x="600.00" y="24" >Flame Graph</text>
<text id="details" x="10.00" y="357" > </text>
<text id="unzoom" x="10.00" y="24" class="hide">Reset Zoom</text>
<text id="search" x="1090.00" y="24" >Search</text>
<text id="ignorecase" x="1174.00" y="24" >ic</text>
<text id="matched" x="1090.00" y="357" > </text>
<g id="frames">
<g >
<title>w2c_decode__webp__wasm_SimpleVFilter16_C (4,618,802 samples, 0.31%)</title><rect x="758.4" y="293" width="3.7" height="15.0" fill="rgb(250,209,50)" rx="2" ry="2" />
<text  x="761.43" y="303.5" ></text>
</g>
<g >
<title>asm_exc_page_fault (923,097 samples, 0.06%)</title><rect x="18.8" y="261" width="0.8" height="15.0" fill="rgb(225,93,22)" rx="2" ry="2" />
<text  x="21.82" y="271.5" ></text>
</g>
<g >
<title>folio_alloc (923,977 samples, 0.06%)</title><rect x="17.3" y="117" width="0.8" height="15.0" fill="rgb(252,217,52)" rx="2" ry="2" />
<text  x="20.34" y="127.5" ></text>
</g>
<g >
<title>w2c_decode__webp__wasm_TM16_C (4,135,848 samples, 0.28%)</title><rect x="769.5" y="293" width="3.3" height="15.0" fill="rgb(224,90,21)" rx="2" ry="2" />
<text  x="772.51" y="303.5" ></text>
</g>
<g >
<title>w2c_decode__webp__wasm_TransformOne_C (369,716 samples, 0.03%)</title><rect x="15.2" y="197" width="0.3" height="15.0" fill="rgb(231,120,28)" rx="2" ry="2" />
<text  x="18.19" y="207.5" ></text>
</g>
<g >
<title>perf_event_mmap (361,053 samples, 0.02%)</title><rect x="19.7" y="149" width="0.2" height="15.0" fill="rgb(229,112,26)" rx="2" ry="2" />
<text  x="22.66" y="159.5" ></text>
</g>
<g >
<title>do_fault (457,970 samples, 0.03%)</title><rect x="16.2" y="149" width="0.4" height="15.0" fill="rgb(248,200,47)" rx="2" ry="2" />
<text  x="19.23" y="159.5" ></text>
</g>
<g >
<title>w2c_decode__webp__wasm_HE4_C (3,694,187 samples, 0.25%)</title><rect x="557.4" y="293" width="3.0" height="15.0" fill="rgb(233,130,31)" rx="2" ry="2" />
<text  x="560.41" y="303.5" ></text>
</g>
<g >
<title>do_execveat_common.isra.0 (479,620 samples, 0.03%)</title><rect x="19.6" y="229" width="0.3" height="15.0" fill="rgb(231,123,29)" rx="2" ry="2" />
<text  x="22.56" y="239.5" ></text>
</g>
<g >
<title>do_user_addr_fault (460,039 samples, 0.03%)</title><rect x="692.3" y="245" width="0.4" height="15.0" fill="rgb(228,108,25)" rx="2" ry="2" />
<text  x="695.32" y="255.5" ></text>
</g>
<g >
<title>exc_page_fault (923,097 samples, 0.06%)</title><rect x="18.8" y="245" width="0.8" height="15.0" fill="rgb(212,35,8)" rx="2" ry="2" />
<text  x="21.82" y="255.5" ></text>
</g>
<g >
<title>tlb_finish_mmu (922,975 samples, 0.06%)</title><rect x="31.0" y="165" width="0.8" height="15.0" fill="rgb(251,212,50)" rx="2" ry="2" />
<text  x="34.01" y="175.5" ></text>
</g>
<g >
<title>__register_frame_info (457,970 samples, 0.03%)</title><rect x="16.2" y="245" width="0.4" height="15.0" fill="rgb(251,215,51)" rx="2" ry="2" />
<text  x="19.23" y="255.5" ></text>
</g>
<g >
<title>[unknown] (7,760,938 samples, 0.53%)</title><rect x="10.0" y="245" width="6.2" height="15.0" fill="rgb(210,24,5)" rx="2" ry="2" />
<text  x="13.00" y="255.5" ></text>
</g>
<g >
<title>w2c_decode__webp__wasm_ReconstructRow (62,518,596 samples, 4.25%)</title><rect x="694.9" y="293" width="50.2" height="15.0" fill="rgb(238,153,36)" rx="2" ry="2" />
<text  x="697.92" y="303.5" >w2c_d..</text>
</g>
<g >
<title>handle_mm_fault (520,201 samples, 0.04%)</title><rect x="1182.1" y="229" width="0.5" height="15.0" fill="rgb(234,135,32)" rx="2" ry="2" />
<text  x="1185.15" y="239.5" ></text>
</g>
<g >
<title>memcg_check_events (460,039 samples, 0.03%)</title><rect x="692.3" y="165" width="0.4" height="15.0" fill="rgb(206,4,1)" rx="2" ry="2" />
<text  x="695.32" y="175.5" ></text>
</g>
<g >
<title>__handle_mm_fault (923,097 samples, 0.06%)</title><rect x="18.8" y="197" width="0.8" height="15.0" fill="rgb(207,9,2)" rx="2" ry="2" />
<text  x="21.82" y="207.5" ></text>
</g>
<g >
<title>vfs_write (2,771,840 samples, 0.19%)</title><rect x="16.6" y="213" width="2.2" height="15.0" fill="rgb(250,209,50)" rx="2" ry="2" />
<text  x="19.60" y="223.5" ></text>
</g>
<g >
<title>exc_page_fault (460,039 samples, 0.03%)</title><rect x="692.3" y="261" width="0.4" height="15.0" fill="rgb(212,35,8)" rx="2" ry="2" />
<text  x="695.32" y="271.5" ></text>
</g>
<g >
<title>__handle_mm_fault (460,039 samples, 0.03%)</title><rect x="692.3" y="213" width="0.4" height="15.0" fill="rgb(207,9,2)" rx="2" ry="2" />
<text  x="695.32" y="223.5" ></text>
</g>
<g >
<title>w2c_decode__webp__wasm_DC8uv_C (2,772,117 samples, 0.19%)</title><rect x="43.6" y="293" width="2.2" height="15.0" fill="rgb(228,106,25)" rx="2" ry="2" />
<text  x="46.61" y="303.5" ></text>
</g>
<g >
<title>w2c_decode__webp__wasm_RD4_C (924,126 samples, 0.06%)</title><rect x="694.2" y="293" width="0.7" height="15.0" fill="rgb(225,92,22)" rx="2" ry="2" />
<text  x="697.17" y="303.5" ></text>
</g>
<g >
<title>w2c_decode__webp__wasm_LD4_C (1,847,318 samples, 0.13%)</title><rect x="692.7" y="293" width="1.5" height="15.0" fill="rgb(213,41,9)" rx="2" ry="2" />
<text  x="695.69" y="303.5" ></text>
</g>
<g >
<title>generic_perform_write (2,771,840 samples, 0.19%)</title><rect x="16.6" y="181" width="2.2" height="15.0" fill="rgb(236,146,35)" rx="2" ry="2" />
<text  x="19.60" y="191.5" ></text>
</g>
<g >
<title>w2c_decode__webp__wasm_VL4_C (5,543,048 samples, 0.38%)</title><rect x="1183.3" y="293" width="4.5" height="15.0" fill="rgb(247,196,46)" rx="2" ry="2" />
<text  x="1186.30" y="303.5" ></text>
</g>
<g >
<title>__mark_inode_dirty (923,855 samples, 0.06%)</title><rect x="18.1" y="149" width="0.7" height="15.0" fill="rgb(254,227,54)" rx="2" ry="2" />
<text  x="21.08" y="159.5" ></text>
</g>
<g >
<title>balance_dirty_pages (924,008 samples, 0.06%)</title><rect x="16.6" y="149" width="0.7" height="15.0" fill="rgb(247,193,46)" rx="2" ry="2" />
<text  x="19.60" y="159.5" ></text>
</g>
<g >
<title>__install_special_mapping (361,053 samples, 0.02%)</title><rect x="19.7" y="165" width="0.2" height="15.0" fill="rgb(212,35,8)" rx="2" ry="2" />
<text  x="22.66" y="175.5" ></text>
</g>
<g >
<title>get_page_from_freelist (923,097 samples, 0.06%)</title><rect x="18.8" y="133" width="0.8" height="15.0" fill="rgb(252,218,52)" rx="2" ry="2" />
<text  x="21.82" y="143.5" ></text>
</g>
<g >
<title>__handle_mm_fault (457,970 samples, 0.03%)</title><rect x="16.2" y="165" width="0.4" height="15.0" fill="rgb(207,9,2)" rx="2" ry="2" />
<text  x="19.23" y="175.5" ></text>
</g>
<g >
<title>__filemap_get_folio (923,977 samples, 0.06%)</title><rect x="17.3" y="133" width="0.8" height="15.0" fill="rgb(231,120,28)" rx="2" ry="2" />
<text  x="20.34" y="143.5" ></text>
</g>
<g >
<title>exc_page_fault (457,970 samples, 0.03%)</title><rect x="16.2" y="213" width="0.4" height="15.0" fill="rgb(212,35,8)" rx="2" ry="2" />
<text  x="19.23" y="223.5" ></text>
</g>
<g >
<title>ext4_mark_iloc_dirty (923,855 samples, 0.06%)</title><rect x="18.1" y="101" width="0.7" height="15.0" fill="rgb(226,101,24)" rx="2" ry="2" />
<text  x="21.08" y="111.5" ></text>
</g>
<g >
<title>w2c_decode__webp__wasm_GetCoeffsFast (923,314 samples, 0.06%)</title><rect x="19.9" y="277" width="0.8" height="15.0" fill="rgb(232,124,29)" rx="2" ry="2" />
<text  x="22.95" y="287.5" ></text>
</g>
<g >
<title>__vm_munmap (922,975 samples, 0.06%)</title><rect x="31.0" y="229" width="0.8" height="15.0" fill="rgb(231,121,28)" rx="2" ry="2" />
<text  x="34.01" y="239.5" ></text>
</g>
<g >
<title>w2c_decode__webp__wasm_DC16_C (1,848,392 samples, 0.13%)</title><rect x="31.8" y="293" width="1.4" height="15.0" fill="rgb(242,173,41)" rx="2" ry="2" />
<text  x="34.75" y="303.5" ></text>
</g>
<g >
<title>w2c_decode__webp__wasm_SimpleHFilter16_C (7,384,047 samples, 0.50%)</title><rect x="745.1" y="293" width="5.9" height="15.0" fill="rgb(241,165,39)" rx="2" ry="2" />
<text  x="748.09" y="303.5" ></text>
</g>
<g >
<title>do_mas_align_munmap (922,975 samples, 0.06%)</title><rect x="31.0" y="197" width="0.8" height="15.0" fill="rgb(232,126,30)" rx="2" ry="2" />
<text  x="34.01" y="207.5" ></text>
</g>
<g >
<title>w2c_decode__webp__wasm_IDecode (159,305,559 samples, 10.84%)</title><rect x="564.8" y="293" width="127.9" height="15.0" fill="rgb(208,15,3)" rx="2" ry="2" />
<text  x="567.83" y="303.5" >w2c_decode__webp..</text>
</g>
<g >
<title>__folio_alloc (923,097 samples, 0.06%)</title><rect x="18.8" y="165" width="0.8" height="15.0" fill="rgb(224,91,21)" rx="2" ry="2" />
<text  x="21.82" y="175.5" ></text>
</g>
<g >
<title>perf_iterate_ctx (361,053 samples, 0.02%)</title><rect x="19.7" y="133" width="0.2" height="15.0" fill="rgb(205,4,0)" rx="2" ry="2" />
<text  x="22.66" y="143.5" ></text>
</g>
<g >
<title>__folio_alloc (520,201 samples, 0.04%)</title><rect x="1182.1" y="181" width="0.5" height="15.0" fill="rgb(224,91,21)" rx="2" ry="2" />
<text  x="1185.15" y="191.5" ></text>
</g>
<g >
<title>bprm_execve (479,620 samples, 0.03%)</title><rect x="19.6" y="213" width="0.3" height="15.0" fill="rgb(218,61,14)" rx="2" ry="2" />
<text  x="22.56" y="223.5" ></text>
</g>
<g >
<title>w2c_decode__webp__wasm_SimpleHFilter16i_C (9,224,190 samples, 0.63%)</title><rect x="751.0" y="293" width="7.4" height="15.0" fill="rgb(212,35,8)" rx="2" ry="2" />
<text  x="754.02" y="303.5" ></text>
</g>
<g >
<title>__libc_start_main_impl (457,970 samples, 0.03%)</title><rect x="16.2" y="261" width="0.4" height="15.0" fill="rgb(218,63,15)" rx="2" ry="2" />
<text  x="19.23" y="271.5" ></text>
</g>
<g >
<title>w2c_decode__webp__wasm_TransformAC3_C (8,312,154 samples, 0.57%)</title><rect x="778.0" y="293" width="6.7" height="15.0" fill="rgb(222,79,19)" rx="2" ry="2" />
<text  x="781.02" y="303.5" ></text>
</g>
<g >
<title>generic_write_end (923,855 samples, 0.06%)</title><rect x="18.1" y="165" width="0.7" height="15.0" fill="rgb(206,8,1)" rx="2" ry="2" />
<text  x="21.08" y="175.5" ></text>
</g>
<g >
<title>[unknown] (26,178,788 samples, 1.78%)</title><rect x="10.0" y="293" width="21.0" height="15.0" fill="rgb(210,24,5)" rx="2" ry="2" />
<text  x="13.00" y="303.5" ></text>
</g>
<g >
<title>ext4_da_write_begin (923,977 samples, 0.06%)</title><rect x="17.3" y="165" width="0.8" height="15.0" fill="rgb(211,32,7)" rx="2" ry="2" />
<text  x="20.34" y="175.5" ></text>
</g>
<g >
<title>asm_exc_page_fault (460,039 samples, 0.03%)</title><rect x="692.3" y="277" width="0.4" height="15.0" fill="rgb(225,93,22)" rx="2" ry="2" />
<text  x="695.32" y="287.5" ></text>
</g>
<g >
<title>__list_del_entry_valid (923,097 samples, 0.06%)</title><rect x="18.8" y="101" width="0.8" height="15.0" fill="rgb(239,158,37)" rx="2" ry="2" />
<text  x="21.82" y="111.5" ></text>
</g>
<g >
<title>w2c_decode__webp__wasm_ReconstructRow (4,619,130 samples, 0.31%)</title><rect x="10.7" y="197" width="3.7" height="15.0" fill="rgb(238,153,36)" rx="2" ry="2" />
<text  x="13.74" y="207.5" ></text>
</g>
<g >
<title>pagecache_get_page (923,977 samples, 0.06%)</title><rect x="17.3" y="149" width="0.8" height="15.0" fill="rgb(253,221,53)" rx="2" ry="2" />
<text  x="20.34" y="159.5" ></text>
</g>
<g >
<title>__x64_sys_munmap (922,975 samples, 0.06%)</title><rect x="31.0" y="245" width="0.8" height="15.0" fill="rgb(206,7,1)" rx="2" ry="2" />
<text  x="34.01" y="255.5" ></text>
</g>
<g >
<title>load_elf_binary (479,620 samples, 0.03%)</title><rect x="19.6" y="197" width="0.3" height="15.0" fill="rgb(223,83,20)" rx="2" ry="2" />
<text  x="22.56" y="207.5" ></text>
</g>
<g >
<title>__mem_cgroup_charge (460,039 samples, 0.03%)</title><rect x="692.3" y="197" width="0.4" height="15.0" fill="rgb(218,60,14)" rx="2" ry="2" />
<text  x="695.32" y="207.5" ></text>
</g>
<g >
<title>ext4_buffered_write_iter (2,771,840 samples, 0.19%)</title><rect x="16.6" y="197" width="2.2" height="15.0" fill="rgb(213,40,9)" rx="2" ry="2" />
<text  x="19.60" y="207.5" ></text>
</g>
<g >
<title>w2c_decode__webp__wasm_TransformDC_C (14,771,273 samples, 1.00%)</title><rect x="787.7" y="293" width="11.8" height="15.0" fill="rgb(232,125,30)" rx="2" ry="2" />
<text  x="790.66" y="303.5" ></text>
</g>
<g >
<title>[unknown] (7,760,938 samples, 0.53%)</title><rect x="10.0" y="213" width="6.2" height="15.0" fill="rgb(210,24,5)" rx="2" ry="2" />
<text  x="13.00" y="223.5" ></text>
</g>
<g >
<title>w2c_decode__webp__wasm_FinishRow (3,695,333 samples, 0.25%)</title><rect x="45.8" y="293" width="3.0" height="15.0" fill="rgb(227,101,24)" rx="2" ry="2" />
<text  x="48.83" y="303.5" ></text>
</g>
<g >
<title>do_syscall_64 (2,771,840 samples, 0.19%)</title><rect x="16.6" y="245" width="2.2" height="15.0" fill="rgb(209,20,4)" rx="2" ry="2" />
<text  x="19.60" y="255.5" ></text>
</g>
<g >
<title>do_user_addr_fault (520,201 samples, 0.04%)</title><rect x="1182.1" y="245" width="0.5" height="15.0" fill="rgb(228,108,25)" rx="2" ry="2" />
<text  x="1185.15" y="255.5" ></text>
</g>
<g >
<title>ext4_dirty_inode (923,855 samples, 0.06%)</title><rect x="18.1" y="133" width="0.7" height="15.0" fill="rgb(227,102,24)" rx="2" ry="2" />
<text  x="21.08" y="143.5" ></text>
</g>
<g >
<title>get_page_from_freelist (520,201 samples, 0.04%)</title><rect x="1182.1" y="149" width="0.5" height="15.0" fill="rgb(252,218,52)" rx="2" ry="2" />
<text  x="1185.15" y="159.5" ></text>
</g>
<g >
<title>ext4_inode_csum (923,855 samples, 0.06%)</title><rect x="18.1" y="53" width="0.7" height="15.0" fill="rgb(226,99,23)" rx="2" ry="2" />
<text  x="21.08" y="63.5" ></text>
</g>
<g >
<title>asm_exc_page_fault (457,970 samples, 0.03%)</title><rect x="16.2" y="229" width="0.4" height="15.0" fill="rgb(225,93,22)" rx="2" ry="2" />
<text  x="19.23" y="239.5" ></text>
</g>
<g >
<title>balance_dirty_pages_ratelimited_flags (924,008 samples, 0.06%)</title><rect x="16.6" y="165" width="0.7" height="15.0" fill="rgb(207,10,2)" rx="2" ry="2" />
<text  x="19.60" y="175.5" ></text>
</g>
<g >
<title>[unknown] (7,760,938 samples, 0.53%)</title><rect x="10.0" y="277" width="6.2" height="15.0" fill="rgb(210,24,5)" rx="2" ry="2" />
<text  x="13.00" y="287.5" ></text>
</g>
<g >
<title>w2c_decode__webp__wasm_HD4_C (4,995,974 samples, 0.34%)</title><rect x="553.4" y="293" width="4.0" height="15.0" fill="rgb(239,160,38)" rx="2" ry="2" />
<text  x="556.40" y="303.5" ></text>
</g>
<g >
<title>do_mas_munmap (922,975 samples, 0.06%)</title><rect x="31.0" y="213" width="0.8" height="15.0" fill="rgb(224,90,21)" rx="2" ry="2" />
<text  x="34.01" y="223.5" ></text>
</g>
<g >
<title>w2c_decode__webp__wasm_ReconstructRow (5,531,858 samples, 0.38%)</title><rect x="23.7" y="277" width="4.4" height="15.0" fill="rgb(238,153,36)" rx="2" ry="2" />
<text  x="26.65" y="287.5" ></text>
</g>
<g >
<title>vma_alloc_folio (923,097 samples, 0.06%)</title><rect x="18.8" y="181" width="0.8" height="15.0" fill="rgb(245,187,44)" rx="2" ry="2" />
<text  x="21.82" y="191.5" ></text>
</g>
<g >
<title>[unknown] (7,760,938 samples, 0.53%)</title><rect x="10.0" y="261" width="6.2" height="15.0" fill="rgb(210,24,5)" rx="2" ry="2" />
<text  x="13.00" y="271.5" ></text>
</g>
<g >
<title>w2c_decode__webp__wasm_SimpleVFilter16i_C (9,192,632 samples, 0.63%)</title><rect x="762.1" y="293" width="7.4" height="15.0" fill="rgb(222,79,19)" rx="2" ry="2" />
<text  x="765.13" y="303.5" ></text>
</g>
<g >
<title>free_unref_page_list (922,975 samples, 0.06%)</title><rect x="31.0" y="117" width="0.8" height="15.0" fill="rgb(221,77,18)" rx="2" ry="2" />
<text  x="34.01" y="127.5" ></text>
</g>
<g >
<title>cgroup_rstat_flush_irqsafe (924,008 samples, 0.06%)</title><rect x="16.6" y="101" width="0.7" height="15.0" fill="rgb(227,103,24)" rx="2" ry="2" />
<text  x="19.60" y="111.5" ></text>
</g>
<g >
<title>clear_page_rep (520,201 samples, 0.04%)</title><rect x="1182.1" y="133" width="0.5" height="15.0" fill="rgb(253,221,52)" rx="2" ry="2" />
<text  x="1185.15" y="143.5" ></text>
</g>
<g >
<title>w2c_decode__webp__wasm_TransformDCUV_C (3,697,581 samples, 0.25%)</title><rect x="784.7" y="293" width="3.0" height="15.0" fill="rgb(227,104,25)" rx="2" ry="2" />
<text  x="787.69" y="303.5" ></text>
</g>
<g >
<title>__libc_write (2,771,840 samples, 0.19%)</title><rect x="16.6" y="277" width="2.2" height="15.0" fill="rgb(238,154,37)" rx="2" ry="2" />
<text  x="19.60" y="287.5" ></text>
</g>
<g >
<title>__perf_addr_filters_adjust (361,053 samples, 0.02%)</title><rect x="19.7" y="117" width="0.2" height="15.0" fill="rgb(247,195,46)" rx="2" ry="2" />
<text  x="22.66" y="127.5" ></text>
</g>
<g >
<title>release_pages (922,975 samples, 0.06%)</title><rect x="31.0" y="133" width="0.8" height="15.0" fill="rgb(228,106,25)" rx="2" ry="2" />
<text  x="34.01" y="143.5" ></text>
</g>
<g >
<title>__ext4_mark_inode_dirty (923,855 samples, 0.06%)</title><rect x="18.1" y="117" width="0.7" height="15.0" fill="rgb(227,104,25)" rx="2" ry="2" />
<text  x="21.08" y="127.5" ></text>
</g>
<g >
<title>__mem_cgroup_flush_stats (924,008 samples, 0.06%)</title><rect x="16.6" y="117" width="0.7" height="15.0" fill="rgb(208,16,3)" rx="2" ry="2" />
<text  x="19.60" y="127.5" ></text>
</g>
<g >
<title>mem_cgroup_wb_stats (924,008 samples, 0.06%)</title><rect x="16.6" y="133" width="0.7" height="15.0" fill="rgb(211,28,6)" rx="2" ry="2" />
<text  x="19.60" y="143.5" ></text>
</g>
<g >
<title>filemap_map_pages (457,970 samples, 0.03%)</title><rect x="16.2" y="133" width="0.4" height="15.0" fill="rgb(229,112,27)" rx="2" ry="2" />
<text  x="19.23" y="143.5" ></text>
</g>
<g >
<title>crc32c_pcl_intel_update (923,855 samples, 0.06%)</title><rect x="18.1" y="37" width="0.7" height="15.0" fill="rgb(212,33,7)" rx="2" ry="2" />
<text  x="21.08" y="47.5" ></text>
</g>
<g >
<title>asm_exc_page_fault (520,201 samples, 0.04%)</title><rect x="1182.1" y="277" width="0.5" height="15.0" fill="rgb(225,93,22)" rx="2" ry="2" />
<text  x="1185.15" y="287.5" ></text>
</g>
<g >
<title>w2c_decode__webp__wasm_GetLargeValue (60,804,556 samples, 4.14%)</title><rect x="504.6" y="293" width="48.8" height="15.0" fill="rgb(206,5,1)" rx="2" ry="2" />
<text  x="507.60" y="303.5" >w2c_..</text>
</g>
<g >
<title>w2c_decode__webp__wasm_HE8uv_C (1,847,229 samples, 0.13%)</title><rect x="560.4" y="293" width="1.5" height="15.0" fill="rgb(239,158,37)" rx="2" ry="2" />
<text  x="563.38" y="303.5" ></text>
</g>
<g >
<title>w2c_decode__webp__wasm_HU4_C (3,694,691 samples, 0.25%)</title><rect x="561.9" y="293" width="2.9" height="15.0" fill="rgb(229,114,27)" rx="2" ry="2" />
<text  x="564.86" y="303.5" ></text>
</g>
<g >
<title>w2c_decode__webp__wasm_VP8GetValue (1,844,745 samples, 0.13%)</title><rect x="1187.8" y="293" width="1.4" height="15.0" fill="rgb(243,179,42)" rx="2" ry="2" />
<text  x="1190.75" y="303.5" ></text>
</g>
<g >
<title>w2c_decode__webp__wasm_TM8uv_C (2,771,370 samples, 0.19%)</title><rect x="775.8" y="293" width="2.2" height="15.0" fill="rgb(210,24,5)" rx="2" ry="2" />
<text  x="778.80" y="303.5" ></text>
</g>
<g >
<title>do_set_pte (457,970 samples, 0.03%)</title><rect x="16.2" y="117" width="0.4" height="15.0" fill="rgb(253,221,52)" rx="2" ry="2" />
<text  x="19.23" y="127.5" ></text>
</g>
<g >
<title>__alloc_pages (520,201 samples, 0.04%)</title><rect x="1182.1" y="165" width="0.5" height="15.0" fill="rgb(233,129,30)" rx="2" ry="2" />
<text  x="1185.15" y="175.5" ></text>
</g>
<g >
<title>ksys_write (2,771,840 samples, 0.19%)</title><rect x="16.6" y="229" width="2.2" height="15.0" fill="rgb(205,4,1)" rx="2" ry="2" />
<text  x="19.60" y="239.5" ></text>
</g>
<g >
<title>entry_SYSCALL_64_after_hwframe (479,620 samples, 0.03%)</title><rect x="19.6" y="277" width="0.3" height="15.0" fill="rgb(218,63,15)" rx="2" ry="2" />
<text  x="22.56" y="287.5" ></text>
</g>
<g >
<title>w2c_decode__webp__wasm_UpsampleRgbLinePair_C (384,798,208 samples, 26.17%)</title><rect x="873.7" y="293" width="308.9" height="15.0" fill="rgb(241,168,40)" rx="2" ry="2" />
<text  x="876.71" y="303.5" >w2c_decode__webp__wasm_UpsampleRgbLinePai..</text>
</g>
<g >
<title>decode_webp_was (1,470,134,158 samples, 100.00%)</title><rect x="10.0" y="309" width="1180.0" height="15.0" fill="rgb(216,54,12)" rx="2" ry="2" />
<text  x="13.00" y="319.5" >decode_webp_was</text>
</g>
<g >
<title>tlb_batch_pages_flush (922,975 samples, 0.06%)</title><rect x="31.0" y="149" width="0.8" height="15.0" fill="rgb(234,133,32)" rx="2" ry="2" />
<text  x="34.01" y="159.5" ></text>
</g>
<g >
<title>check_preemption_disabled (460,039 samples, 0.03%)</title><rect x="692.3" y="149" width="0.4" height="15.0" fill="rgb(220,73,17)" rx="2" ry="2" />
<text  x="695.32" y="159.5" ></text>
</g>
<g >
<title>w2c_decode__webp__wasm_TransformOne_C (92,443,307 samples, 6.29%)</title><rect x="799.5" y="293" width="74.2" height="15.0" fill="rgb(231,120,28)" rx="2" ry="2" />
<text  x="802.52" y="303.5" >w2c_deco..</text>
</g>
<g >
<title>__list_del_entry_valid (923,977 samples, 0.06%)</title><rect x="17.3" y="53" width="0.8" height="15.0" fill="rgb(239,158,37)" rx="2" ry="2" />
<text  x="20.34" y="63.5" ></text>
</g>
<g >
<title>handle_mm_fault (460,039 samples, 0.03%)</title><rect x="692.3" y="229" width="0.4" height="15.0" fill="rgb(234,135,32)" rx="2" ry="2" />
<text  x="695.32" y="239.5" ></text>
</g>
<g >
<title>cgroup_rstat_flush_locked (924,008 samples, 0.06%)</title><rect x="16.6" y="85" width="0.7" height="15.0" fill="rgb(209,19,4)" rx="2" ry="2" />
<text  x="19.60" y="95.5" ></text>
</g>
<g >
<title>charge_memcg (460,039 samples, 0.03%)</title><rect x="692.3" y="181" width="0.4" height="15.0" fill="rgb(242,170,40)" rx="2" ry="2" />
<text  x="695.32" y="191.5" ></text>
</g>
<g >
<title>rmqueue_bulk (923,097 samples, 0.06%)</title><rect x="18.8" y="117" width="0.8" height="15.0" fill="rgb(235,138,33)" rx="2" ry="2" />
<text  x="21.82" y="127.5" ></text>
</g>
<g >
<title>w2c_decode__webp__wasm_TransformOne_C (923,878 samples, 0.06%)</title><rect x="28.1" y="277" width="0.7" height="15.0" fill="rgb(231,120,28)" rx="2" ry="2" />
<text  x="31.09" y="287.5" ></text>
</g>
<g >
<title>w2c_decode__webp__wasm_DC4_C (12,922,156 samples, 0.88%)</title><rect x="33.2" y="293" width="10.4" height="15.0" fill="rgb(222,78,18)" rx="2" ry="2" />
<text  x="36.24" y="303.5" ></text>
</g>
<g >
<title>w2c_decode__webp__wasm_TransformUV_C (924,652 samples, 0.06%)</title><rect x="15.5" y="197" width="0.7" height="15.0" fill="rgb(249,206,49)" rx="2" ry="2" />
<text  x="18.49" y="207.5" ></text>
</g>
<g >
<title>[unknown] (7,760,938 samples, 0.53%)</title><rect x="10.0" y="229" width="6.2" height="15.0" fill="rgb(210,24,5)" rx="2" ry="2" />
<text  x="13.00" y="239.5" ></text>
</g>
<g >
<title>w2c_decode__webp__wasm_HE8uv_C (923,446 samples, 0.06%)</title><rect x="10.0" y="197" width="0.7" height="15.0" fill="rgb(239,158,37)" rx="2" ry="2" />
<text  x="13.00" y="207.5" ></text>
</g>
<g >
<title>do_syscall_64 (922,975 samples, 0.06%)</title><rect x="31.0" y="261" width="0.8" height="15.0" fill="rgb(209,20,4)" rx="2" ry="2" />
<text  x="34.01" y="271.5" ></text>
</g>
<g >
<title>get_page_from_freelist (923,977 samples, 0.06%)</title><rect x="17.3" y="85" width="0.8" height="15.0" fill="rgb(252,218,52)" rx="2" ry="2" />
<text  x="20.34" y="95.5" ></text>
</g>
<g >
<title>w2c_decode__webp__wasm_VE8uv_C (920,272 samples, 0.06%)</title><rect x="1182.6" y="293" width="0.7" height="15.0" fill="rgb(248,202,48)" rx="2" ry="2" />
<text  x="1185.57" y="303.5" ></text>
</g>
<g >
<title>w2c_decode__webp__wasm_TransformDCUV_C (923,994 samples, 0.06%)</title><rect x="14.4" y="197" width="0.8" height="15.0" fill="rgb(227,104,25)" rx="2" ry="2" />
<text  x="17.45" y="207.5" ></text>
</g>
<g >
<title>w2c_decode__webp__wasm_TM4_C (3,696,516 samples, 0.25%)</title><rect x="772.8" y="293" width="3.0" height="15.0" fill="rgb(254,226,54)" rx="2" ry="2" />
<text  x="775.83" y="303.5" ></text>
</g>
<g >
<title>handle_mm_fault (923,097 samples, 0.06%)</title><rect x="18.8" y="213" width="0.8" height="15.0" fill="rgb(234,135,32)" rx="2" ry="2" />
<text  x="21.82" y="223.5" ></text>
</g>
<g >
<title>unmap_region (922,975 samples, 0.06%)</title><rect x="31.0" y="181" width="0.8" height="15.0" fill="rgb(219,64,15)" rx="2" ry="2" />
<text  x="34.01" y="191.5" ></text>
</g>
<g >
<title>w2c_decode__webp__wasm_IDecode (3,694,104 samples, 0.25%)</title><rect x="20.7" y="277" width="3.0" height="15.0" fill="rgb(208,15,3)" rx="2" ry="2" />
<text  x="23.69" y="287.5" ></text>
</g>
<g >
<title>__munmap (922,975 samples, 0.06%)</title><rect x="31.0" y="293" width="0.8" height="15.0" fill="rgb(211,29,7)" rx="2" ry="2" />
<text  x="34.01" y="303.5" ></text>
</g>
<g >
<title>w2c_decode__webp__wasm_TransformTwo_C (1,787,851 samples, 0.12%)</title><rect x="28.8" y="277" width="1.5" height="15.0" fill="rgb(226,96,23)" rx="2" ry="2" />
<text  x="31.84" y="287.5" ></text>
</g>
<g >
<title>entry_SYSCALL_64_after_hwframe (922,975 samples, 0.06%)</title><rect x="31.0" y="277" width="0.8" height="15.0" fill="rgb(218,63,15)" rx="2" ry="2" />
<text  x="34.01" y="287.5" ></text>
</g>
<g >
<title>handle_mm_fault (457,970 samples, 0.03%)</title><rect x="16.2" y="181" width="0.4" height="15.0" fill="rgb(234,135,32)" rx="2" ry="2" />
<text  x="19.23" y="191.5" ></text>
</g>
<g >
<title>map_vdso (361,053 samples, 0.02%)</title><rect x="19.7" y="181" width="0.2" height="15.0" fill="rgb(227,103,24)" rx="2" ry="2" />
<text  x="22.66" y="191.5" ></text>
</g>
<g >
<title>__alloc_pages (923,977 samples, 0.06%)</title><rect x="17.3" y="101" width="0.8" height="15.0" fill="rgb(233,129,30)" rx="2" ry="2" />
<text  x="20.34" y="111.5" ></text>
</g>
<g >
<title>__handle_mm_fault (520,201 samples, 0.04%)</title><rect x="1182.1" y="213" width="0.5" height="15.0" fill="rgb(207,9,2)" rx="2" ry="2" />
<text  x="1185.15" y="223.5" ></text>
</g>
<g >
<title>do_syscall_64 (479,620 samples, 0.03%)</title><rect x="19.6" y="261" width="0.3" height="15.0" fill="rgb(209,20,4)" rx="2" ry="2" />
<text  x="22.56" y="271.5" ></text>
</g>
<g >
<title>all (1,470,164,558 samples, 100%)</title><rect x="10.0" y="325" width="1180.0" height="15.0" fill="rgb(213,39,9)" rx="2" ry="2" />
<text  x="13.00" y="335.5" ></text>
</g>
<g >
<title>__x64_sys_execve (479,620 samples, 0.03%)</title><rect x="19.6" y="245" width="0.3" height="15.0" fill="rgb(247,193,46)" rx="2" ry="2" />
<text  x="22.56" y="255.5" ></text>
</g>
<g >
<title>do_user_addr_fault (457,970 samples, 0.03%)</title><rect x="16.2" y="197" width="0.4" height="15.0" fill="rgb(228,108,25)" rx="2" ry="2" />
<text  x="19.23" y="207.5" ></text>
</g>
<g >
<title>do_user_addr_fault (923,097 samples, 0.06%)</title><rect x="18.8" y="229" width="0.8" height="15.0" fill="rgb(228,108,25)" rx="2" ry="2" />
<text  x="21.82" y="239.5" ></text>
</g>
<g >
<title>rmqueue_bulk (923,977 samples, 0.06%)</title><rect x="17.3" y="69" width="0.8" height="15.0" fill="rgb(235,138,33)" rx="2" ry="2" />
<text  x="20.34" y="79.5" ></text>
</g>
<g >
<title>w2c_decode__webp__wasm_VP8ParseProba (924,047 samples, 0.06%)</title><rect x="1189.2" y="293" width="0.8" height="15.0" fill="rgb(237,149,35)" rx="2" ry="2" />
<text  x="1192.23" y="303.5" ></text>
</g>
<g >
<title>__alloc_pages (923,097 samples, 0.06%)</title><rect x="18.8" y="149" width="0.8" height="15.0" fill="rgb(233,129,30)" rx="2" ry="2" />
<text  x="21.82" y="159.5" ></text>
</g>
<g >
<title>ext4_fill_raw_inode (923,855 samples, 0.06%)</title><rect x="18.1" y="85" width="0.7" height="15.0" fill="rgb(240,165,39)" rx="2" ry="2" />
<text  x="21.08" y="95.5" ></text>
</g>
<g >
<title>w2c_decode__webp__wasm_GetCoeffsFast (567,884,121 samples, 38.63%)</title><rect x="48.8" y="293" width="455.8" height="15.0" fill="rgb(232,124,29)" rx="2" ry="2" />
<text  x="51.80" y="303.5" >w2c_decode__webp__wasm_GetCoeffsFast</text>
</g>
<g >
<title>__do_global_dtors_aux (457,970 samples, 0.03%)</title><rect x="16.2" y="277" width="0.4" height="15.0" fill="rgb(245,185,44)" rx="2" ry="2" />
<text  x="19.23" y="287.5" ></text>
</g>
<g >
<title>ext4_inode_csum_set (923,855 samples, 0.06%)</title><rect x="18.1" y="69" width="0.7" height="15.0" fill="rgb(218,60,14)" rx="2" ry="2" />
<text  x="21.08" y="79.5" ></text>
</g>
<g >
<title>exc_page_fault (520,201 samples, 0.04%)</title><rect x="1182.1" y="261" width="0.5" height="15.0" fill="rgb(212,35,8)" rx="2" ry="2" />
<text  x="1185.15" y="271.5" ></text>
</g>
<g >
<title>__memmove_avx_unaligned_erms (923,097 samples, 0.06%)</title><rect x="18.8" y="277" width="0.8" height="15.0" fill="rgb(205,0,0)" rx="2" ry="2" />
<text  x="21.82" y="287.5" ></text>
</g>
<g >
<title>vma_alloc_folio (520,201 samples, 0.04%)</title><rect x="1182.1" y="197" width="0.5" height="15.0" fill="rgb(245,187,44)" rx="2" ry="2" />
<text  x="1185.15" y="207.5" ></text>
</g>
<g >
<title>w2c_decode__webp__wasm_TransformUV_C (924,318 samples, 0.06%)</title><rect x="30.3" y="277" width="0.7" height="15.0" fill="rgb(249,206,49)" rx="2" ry="2" />
<text  x="33.27" y="287.5" ></text>
</g>
<g >
<title>entry_SYSCALL_64_after_hwframe (2,771,840 samples, 0.19%)</title><rect x="16.6" y="261" width="2.2" height="15.0" fill="rgb(218,63,15)" rx="2" ry="2" />
<text  x="19.60" y="271.5" ></text>
</g>
</g>
</svg>
