<?xml version="1.0" standalone="no"?>
<!DOCTYPE svg PUBLIC "-//W3C//DTD SVG 1.1//EN" "http://www.w3.org/Graphics/SVG/1.1/DTD/svg11.dtd">
<svg version="1.1" width="1200" height="374" onload="init(evt)" viewBox="0 0 1200 374" xmlns="http://www.w3.org/2000/svg" xmlns:xlink="http://www.w3.org/1999/xlink">
<!-- Flame graph stack visualization. See https://github.com/brendangregg/FlameGraph for latest version, and http://www.brendangregg.com/flamegraphs.html for examples. -->
<!-- NOTES:  -->
<defs>
	<linearGradient id="background" y1="0" y2="1" x1="0" x2="0" >
		<stop stop-color="#eeeeee" offset="5%" />
		<stop stop-color="#eeeeb0" offset="95%" />
	</linearGradient>
</defs>
<style type="text/css">
	text { font-family:Verdana; font-size:12px; fill:rgb(0,0,0); }
	#search, #ignorecase { opacity:0.1; cursor:pointer; }
	#search:hover, #search.show, #ignorecase:hover, #ignorecase.show { opacity:1; }
	#subtitle { text-anchor:middle; font-color:rgb(160,160,160); }
	#title { text-anchor:middle; font-size:17px}
	#unzoom { cursor:pointer; }
	#frames > *:hover { stroke:black; stroke-width:0.5; cursor:pointer; }
	.hide { display:none; }
	.parent { opacity:0.5; }
</style>
<script type="text/ecmascript">
<![CDATA[
	"use strict";
	var details, searchbtn, unzoombtn, matchedtxt, svg, searching, currentSearchTerm, ignorecase, ignorecaseBtn;
	function init(evt) {
		details = document.getElementById("details").firstChild;
		searchbtn = document.getElementById("search");
		ignorecaseBtn = document.getElementById("ignorecase");
		unzoombtn = document.getElementById("unzoom");
		matchedtxt = document.getElementById("matched");
		svg = document.getElementsByTagName("svg")[0];
		searching = 0;
		currentSearchTerm = null;

		// use GET parameters to restore a flamegraphs state.
		var params = get_params();
		if (params.x && params.y)
			zoom(find_group(document.querySelector('[x="' + params.x + '"][y="' + params.y + '"]')));
                if (params.s) search(params.s);
	}

	// event listeners
	window.addEventListener("click", function(e) {
		var target = find_group(e.target);
		if (target) {
			if (target.nodeName == "a") {
				if (e.ctrlKey === false) return;
				e.preventDefault();
			}
			if (target.classList.contains("parent")) unzoom(true);
			zoom(target);
			if (!document.querySelector('.parent')) {
				// we have basically done a clearzoom so clear the url
				var params = get_params();
				if (params.x) delete params.x;
				if (params.y) delete params.y;
				history.replaceState(null, null, parse_params(params));
				unzoombtn.classList.add("hide");
				return;
			}

			// set parameters for zoom state
			var el = target.querySelector("rect");
			if (el && el.attributes && el.attributes.y && el.attributes._orig_x) {
				var params = get_params()
				params.x = el.attributes._orig_x.value;
				params.y = el.attributes.y.value;
				history.replaceState(null, null, parse_params(params));
			}
		}
		else if (e.target.id == "unzoom") clearzoom();
		else if (e.target.id == "search") search_prompt();
		else if (e.target.id == "ignorecase") toggle_ignorecase();
	}, false)

	// mouse-over for info
	// show
	window.addEventListener("mouseover", function(e) {
		var target = find_group(e.target);
		if (target) details.nodeValue = "Function: " + g_to_text(target);
	}, false)

	// clear
	window.addEventListener("mouseout", function(e) {
		var target = find_group(e.target);
		if (target) details.nodeValue = ' ';
	}, false)

	// ctrl-F for search
	// ctrl-I to toggle case-sensitive search
	window.addEventListener("keydown",function (e) {
		if (e.keyCode === 114 || (e.ctrlKey && e.keyCode === 70)) {
			e.preventDefault();
			search_prompt();
		}
		else if (e.ctrlKey && e.keyCode === 73) {
			e.preventDefault();
			toggle_ignorecase();
		}
	}, false)

	// functions
	function get_params() {
		var params = {};
		var paramsarr = window.location.search.substr(1).split('&');
		for (var i = 0; i < paramsarr.length; ++i) {
			var tmp = paramsarr[i].split("=");
			if (!tmp[0] || !tmp[1]) continue;
			params[tmp[0]]  = decodeURIComponent(tmp[1]);
		}
		return params;
	}
	function parse_params(params) {
		var uri = "?";
		for (var key in params) {
			uri += key + '=' + encodeURIComponent(params[key]) + '&';
		}
		if (uri.slice(-1) == "&")
			uri = uri.substring(0, uri.length - 1);
		if (uri == '?')
			uri = window.location.href.split('?')[0];
		return uri;
	}
	function find_child(node, selector) {
		var children = node.querySelectorAll(selector);
		if (children.length) return children[0];
	}
	function find_group(node) {
		var parent = node.parentElement;
		if (!parent) return;
		if (parent.id == "frames") return node;
		return find_group(parent);
	}
	function orig_save(e, attr, val) {
		if (e.attributes["_orig_" + attr] != undefined) return;
		if (e.attributes[attr] == undefined) return;
		if (val == undefined) val = e.attributes[attr].value;
		e.setAttribute("_orig_" + attr, val);
	}
	function orig_load(e, attr) {
		if (e.attributes["_orig_"+attr] == undefined) return;
		e.attributes[attr].value = e.attributes["_orig_" + attr].value;
		e.removeAttribute("_orig_"+attr);
	}
	function g_to_text(e) {
		var text = find_child(e, "title").firstChild.nodeValue;
		return (text)
	}
	function g_to_func(e) {
		var func = g_to_text(e);
		// if there's any manipulation we want to do to the function
		// name before it's searched, do it here before returning.
		return (func);
	}
	function update_text(e) {
		var r = find_child(e, "rect");
		var t = find_child(e, "text");
		var w = parseFloat(r.attributes.width.value) -3;
		var txt = find_child(e, "title").textContent.replace(/\([^(]*\)$/,"");
		t.attributes.x.value = parseFloat(r.attributes.x.value) + 3;

		// Smaller than this size won't fit anything
		if (w < 2 * 12 * 0.59) {
			t.textContent = "";
			return;
		}

		t.textContent = txt;
		var sl = t.getSubStringLength(0, txt.length);
		// check if only whitespace or if we can fit the entire string into width w
		if (/^ *$/.test(txt) || sl < w)
			return;

		// this isn't perfect, but gives a good starting point
		// and avoids calling getSubStringLength too often
		var start = Math.floor((w/sl) * txt.length);
		for (var x = start; x > 0; x = x-2) {
			if (t.getSubStringLength(0, x + 2) <= w) {
				t.textContent = txt.substring(0, x) + "..";
				return;
			}
		}
		t.textContent = "";
	}

	// zoom
	function zoom_reset(e) {
		if (e.attributes != undefined) {
			orig_load(e, "x");
			orig_load(e, "width");
		}
		if (e.childNodes == undefined) return;
		for (var i = 0, c = e.childNodes; i < c.length; i++) {
			zoom_reset(c[i]);
		}
	}
	function zoom_child(e, x, ratio) {
		if (e.attributes != undefined) {
			if (e.attributes.x != undefined) {
				orig_save(e, "x");
				e.attributes.x.value = (parseFloat(e.attributes.x.value) - x - 10) * ratio + 10;
				if (e.tagName == "text")
					e.attributes.x.value = find_child(e.parentNode, "rect[x]").attributes.x.value + 3;
			}
			if (e.attributes.width != undefined) {
				orig_save(e, "width");
				e.attributes.width.value = parseFloat(e.attributes.width.value) * ratio;
			}
		}

		if (e.childNodes == undefined) return;
		for (var i = 0, c = e.childNodes; i < c.length; i++) {
			zoom_child(c[i], x - 10, ratio);
		}
	}
	function zoom_parent(e) {
		if (e.attributes) {
			if (e.attributes.x != undefined) {
				orig_save(e, "x");
				e.attributes.x.value = 10;
			}
			if (e.attributes.width != undefined) {
				orig_save(e, "width");
				e.attributes.width.value = parseInt(svg.width.baseVal.value) - (10 * 2);
			}
		}
		if (e.childNodes == undefined) return;
		for (var i = 0, c = e.childNodes; i < c.length; i++) {
			zoom_parent(c[i]);
		}
	}
	function zoom(node) {
		var attr = find_child(node, "rect").attributes;
		var width = parseFloat(attr.width.value);
		var xmin = parseFloat(attr.x.value);
		var xmax = parseFloat(xmin + width);
		var ymin = parseFloat(attr.y.value);
		var ratio = (svg.width.baseVal.value - 2 * 10) / width;

		// XXX: Workaround for JavaScript float issues (fix me)
		var fudge = 0.0001;

		unzoombtn.classList.remove("hide");

		var el = document.getElementById("frames").children;
		for (var i = 0; i < el.length; i++) {
			var e = el[i];
			var a = find_child(e, "rect").attributes;
			var ex = parseFloat(a.x.value);
			var ew = parseFloat(a.width.value);
			var upstack;
			// Is it an ancestor
			if (0 == 0) {
				upstack = parseFloat(a.y.value) > ymin;
			} else {
				upstack = parseFloat(a.y.value) < ymin;
			}
			if (upstack) {
				// Direct ancestor
				if (ex <= xmin && (ex+ew+fudge) >= xmax) {
					e.classList.add("parent");
					zoom_parent(e);
					update_text(e);
				}
				// not in current path
				else
					e.classList.add("hide");
			}
			// Children maybe
			else {
				// no common path
				if (ex < xmin || ex + fudge >= xmax) {
					e.classList.add("hide");
				}
				else {
					zoom_child(e, xmin, ratio);
					update_text(e);
				}
			}
		}
		search();
	}
	function unzoom(dont_update_text) {
		unzoombtn.classList.add("hide");
		var el = document.getElementById("frames").children;
		for(var i = 0; i < el.length; i++) {
			el[i].classList.remove("parent");
			el[i].classList.remove("hide");
			zoom_reset(el[i]);
			if(!dont_update_text) update_text(el[i]);
		}
		search();
	}
	function clearzoom() {
		unzoom();

		// remove zoom state
		var params = get_params();
		if (params.x) delete params.x;
		if (params.y) delete params.y;
		history.replaceState(null, null, parse_params(params));
	}

	// search
	function toggle_ignorecase() {
		ignorecase = !ignorecase;
		if (ignorecase) {
			ignorecaseBtn.classList.add("show");
		} else {
			ignorecaseBtn.classList.remove("show");
		}
		reset_search();
		search();
	}
	function reset_search() {
		var el = document.querySelectorAll("#frames rect");
		for (var i = 0; i < el.length; i++) {
			orig_load(el[i], "fill")
		}
		var params = get_params();
		delete params.s;
		history.replaceState(null, null, parse_params(params));
	}
	function search_prompt() {
		if (!searching) {
			var term = prompt("Enter a search term (regexp " +
			    "allowed, eg: ^ext4_)"
			    + (ignorecase ? ", ignoring case" : "")
			    + "\nPress Ctrl-i to toggle case sensitivity", "");
			if (term != null) search(term);
		} else {
			reset_search();
			searching = 0;
			currentSearchTerm = null;
			searchbtn.classList.remove("show");
			searchbtn.firstChild.nodeValue = "Search"
			matchedtxt.classList.add("hide");
			matchedtxt.firstChild.nodeValue = ""
		}
	}
	function search(term) {
		if (term) currentSearchTerm = term;

		var re = new RegExp(currentSearchTerm, ignorecase ? 'i' : '');
		var el = document.getElementById("frames").children;
		var matches = new Object();
		var maxwidth = 0;
		for (var i = 0; i < el.length; i++) {
			var e = el[i];
			var func = g_to_func(e);
			var rect = find_child(e, "rect");
			if (func == null || rect == null)
				continue;

			// Save max width. Only works as we have a root frame
			var w = parseFloat(rect.attributes.width.value);
			if (w > maxwidth)
				maxwidth = w;

			if (func.match(re)) {
				// highlight
				var x = parseFloat(rect.attributes.x.value);
				orig_save(rect, "fill");
				rect.attributes.fill.value = "rgb(230,0,230)";

				// remember matches
				if (matches[x] == undefined) {
					matches[x] = w;
				} else {
					if (w > matches[x]) {
						// overwrite with parent
						matches[x] = w;
					}
				}
				searching = 1;
			}
		}
		if (!searching)
			return;
		var params = get_params();
		params.s = currentSearchTerm;
		history.replaceState(null, null, parse_params(params));

		searchbtn.classList.add("show");
		searchbtn.firstChild.nodeValue = "Reset Search";

		// calculate percent matched, excluding vertical overlap
		var count = 0;
		var lastx = -1;
		var lastw = 0;
		var keys = Array();
		for (k in matches) {
			if (matches.hasOwnProperty(k))
				keys.push(k);
		}
		// sort the matched frames by their x location
		// ascending, then width descending
		keys.sort(function(a, b){
			return a - b;
		});
		// Step through frames saving only the biggest bottom-up frames
		// thanks to the sort order. This relies on the tree property
		// where children are always smaller than their parents.
		var fudge = 0.0001;	// JavaScript floating point
		for (var k in keys) {
			var x = parseFloat(keys[k]);
			var w = matches[keys[k]];
			if (x >= lastx + lastw - fudge) {
				count += w;
				lastx = x;
				lastw = w;
			}
		}
		// display matched percent
		matchedtxt.classList.remove("hide");
		var pct = 100 * count / maxwidth;
		if (pct != 100) pct = pct.toFixed(1)
		matchedtxt.firstChild.nodeValue = "Matched: " + pct + "%";
	}
]]>
</script>
<rect x="0.0" y="0" width="1200.0" height="374.0" fill="url(#background)"  />
<text id="title" x="600.00" y="24" >Flame Graph</text>
<text id="details" x="10.00" y="357" > </text>
<text id="unzoom" x="10.00" y="24" class="hide">Reset Zoom</text>
<text id="search" x="1090.00" y="24" >Search</text>
<text id="ignorecase" x="1174.00" y="24" >ic</text>
<text id="matched" x="1090.00" y="357" > </text>
<g id="frames">
<g >
<title>xas_load (923,860 samples, 0.12%)</title><rect x="1183.6" y="53" width="1.4" height="15.0" fill="rgb(217,59,14)" rx="2" ry="2" />
<text  x="1186.61" y="63.5" ></text>
</g>
<g >
<title>do_filp_open (923,860 samples, 0.12%)</title><rect x="1183.6" y="197" width="1.4" height="15.0" fill="rgb(211,28,6)" rx="2" ry="2" />
<text  x="1186.61" y="207.5" ></text>
</g>
<g >
<title>TransformTwo_C (923,283 samples, 0.12%)</title><rect x="230.7" y="293" width="1.5" height="15.0" fill="rgb(212,36,8)" rx="2" ry="2" />
<text  x="233.74" y="303.5" ></text>
</g>
<g >
<title>[unknown] (190,901,882 samples, 25.02%)</title><rect x="887.7" y="277" width="295.2" height="15.0" fill="rgb(210,24,5)" rx="2" ry="2" />
<text  x="890.65" y="287.5" >[unknown]</text>
</g>
<g >
<title>__libc_open64 (923,860 samples, 0.12%)</title><rect x="1183.6" y="277" width="1.4" height="15.0" fill="rgb(235,140,33)" rx="2" ry="2" />
<text  x="1186.61" y="287.5" ></text>
</g>
<g >
<title>ReconstructRow (1,845,089 samples, 0.24%)</title><rect x="212.2" y="293" width="2.8" height="15.0" fill="rgb(225,93,22)" rx="2" ry="2" />
<text  x="215.17" y="303.5" ></text>
</g>
<g >
<title>HFilter16i_C (921,287 samples, 0.12%)</title><rect x="639.6" y="277" width="1.5" height="15.0" fill="rgb(241,169,40)" rx="2" ry="2" />
<text  x="642.63" y="287.5" ></text>
</g>
<g >
<title>handle_mm_fault (724,796 samples, 0.09%)</title><rect x="1181.8" y="197" width="1.1" height="15.0" fill="rgb(234,135,32)" rx="2" ry="2" />
<text  x="1184.78" y="207.5" ></text>
</g>
<g >
<title>HFilter8i_C (1,847,807 samples, 0.24%)</title><rect x="205.0" y="293" width="2.9" height="15.0" fill="rgb(245,186,44)" rx="2" ry="2" />
<text  x="208.03" y="303.5" ></text>
</g>
<g >
<title>__handle_mm_fault (724,796 samples, 0.09%)</title><rect x="1181.8" y="181" width="1.1" height="15.0" fill="rgb(207,9,2)" rx="2" ry="2" />
<text  x="1184.78" y="191.5" ></text>
</g>
<g >
<title>generic_perform_write (923,580 samples, 0.12%)</title><rect x="1185.0" y="181" width="1.5" height="15.0" fill="rgb(236,146,35)" rx="2" ry="2" />
<text  x="1188.04" y="191.5" ></text>
</g>
<g >
<title>TransformDC_C (5,485,568 samples, 0.72%)</title><rect x="676.4" y="277" width="8.5" height="15.0" fill="rgb(219,65,15)" rx="2" ry="2" />
<text  x="679.39" y="287.5" ></text>
</g>
<g >
<title>DecodeImageData (13,342,506 samples, 1.75%)</title><rect x="887.7" y="261" width="20.6" height="15.0" fill="rgb(254,229,54)" rx="2" ry="2" />
<text  x="890.65" y="271.5" ></text>
</g>
<g >
<title>__x64_sys_openat (923,860 samples, 0.12%)</title><rect x="1183.6" y="229" width="1.4" height="15.0" fill="rgb(251,215,51)" rx="2" ry="2" />
<text  x="1186.61" y="239.5" ></text>
</g>
<g >
<title>vma_alloc_folio (422,040 samples, 0.06%)</title><rect x="42.7" y="197" width="0.6" height="15.0" fill="rgb(245,187,44)" rx="2" ry="2" />
<text  x="45.67" y="207.5" ></text>
</g>
<g >
<title>VP8ParseIntraModeRow (56,579,680 samples, 7.42%)</title><rect x="800.1" y="277" width="87.6" height="15.0" fill="rgb(231,121,29)" rx="2" ry="2" />
<text  x="803.15" y="287.5" >VP8ParseIn..</text>
</g>
<g >
<title>TM16_C (6,466,139 samples, 0.85%)</title><rect x="666.4" y="277" width="10.0" height="15.0" fill="rgb(211,30,7)" rx="2" ry="2" />
<text  x="669.39" y="287.5" ></text>
</g>
<g >
<title>all (762,969,859 samples, 100%)</title><rect x="10.0" y="325" width="1180.0" height="15.0" fill="rgb(213,39,9)" rx="2" ry="2" />
<text  x="13.00" y="335.5" ></text>
</g>
<g >
<title>exc_page_fault (724,796 samples, 0.09%)</title><rect x="1181.8" y="229" width="1.1" height="15.0" fill="rgb(212,35,8)" rx="2" ry="2" />
<text  x="1184.78" y="239.5" ></text>
</g>
<g >
<title>VP8GetValue (922,944 samples, 0.12%)</title><rect x="546.3" y="293" width="1.4" height="15.0" fill="rgb(230,119,28)" rx="2" ry="2" />
<text  x="549.31" y="303.5" ></text>
</g>
<g >
<title>FilterLoop26_C (888,616 samples, 0.12%)</title><rect x="559.2" y="277" width="1.3" height="15.0" fill="rgb(230,116,27)" rx="2" ry="2" />
<text  x="562.17" y="287.5" ></text>
</g>
<g >
<title>find_lock_entries (923,860 samples, 0.12%)</title><rect x="1183.6" y="85" width="1.4" height="15.0" fill="rgb(224,89,21)" rx="2" ry="2" />
<text  x="1186.61" y="95.5" ></text>
</g>
<g >
<title>xas_find (923,860 samples, 0.12%)</title><rect x="1183.6" y="69" width="1.4" height="15.0" fill="rgb(211,29,7)" rx="2" ry="2" />
<text  x="1186.61" y="79.5" ></text>
</g>
<g >
<title>__GI___fstatat (457,469 samples, 0.06%)</title><rect x="1182.9" y="277" width="0.7" height="15.0" fill="rgb(211,31,7)" rx="2" ry="2" />
<text  x="1185.90" y="287.5" ></text>
</g>
<g >
<title>asm_exc_page_fault (1,303,058 samples, 0.17%)</title><rect x="1180.9" y="245" width="2.0" height="15.0" fill="rgb(225,93,22)" rx="2" ry="2" />
<text  x="1183.89" y="255.5" ></text>
</g>
<g >
<title>vfs_statx (457,469 samples, 0.06%)</title><rect x="1182.9" y="197" width="0.7" height="15.0" fill="rgb(242,172,41)" rx="2" ry="2" />
<text  x="1185.90" y="207.5" ></text>
</g>
<g >
<title>__fget_light (457,469 samples, 0.06%)</title><rect x="1182.9" y="133" width="0.7" height="15.0" fill="rgb(233,132,31)" rx="2" ry="2" />
<text  x="1185.90" y="143.5" ></text>
</g>
<g >
<title>TransformDC_C (1,847,475 samples, 0.24%)</title><rect x="227.9" y="293" width="2.8" height="15.0" fill="rgb(219,65,15)" rx="2" ry="2" />
<text  x="230.88" y="303.5" ></text>
</g>
<g >
<title>entry_SYSCALL_64_after_hwframe (457,469 samples, 0.06%)</title><rect x="1182.9" y="261" width="0.7" height="15.0" fill="rgb(218,63,15)" rx="2" ry="2" />
<text  x="1185.90" y="271.5" ></text>
</g>
<g >
<title>filename_lookup (457,469 samples, 0.06%)</title><rect x="1182.9" y="181" width="0.7" height="15.0" fill="rgb(216,52,12)" rx="2" ry="2" />
<text  x="1185.90" y="191.5" ></text>
</g>
<g >
<title>perf_iterate_ctx (361,135 samples, 0.05%)</title><rect x="1186.6" y="133" width="0.6" height="15.0" fill="rgb(205,4,0)" rx="2" ry="2" />
<text  x="1189.65" y="143.5" ></text>
</g>
<g >
<title>alloc_page_buffers (923,580 samples, 0.12%)</title><rect x="1185.0" y="117" width="1.5" height="15.0" fill="rgb(251,212,50)" rx="2" ry="2" />
<text  x="1188.04" y="127.5" ></text>
</g>
<g >
<title>notify_change (923,860 samples, 0.12%)</title><rect x="1183.6" y="149" width="1.4" height="15.0" fill="rgb(237,150,35)" rx="2" ry="2" />
<text  x="1186.61" y="159.5" ></text>
</g>
<g >
<title>vfs_fstatat (457,469 samples, 0.06%)</title><rect x="1182.9" y="213" width="0.7" height="15.0" fill="rgb(232,127,30)" rx="2" ry="2" />
<text  x="1185.90" y="223.5" ></text>
</g>
<g >
<title>GetLargeValue (924,063 samples, 0.12%)</title><rect x="1173.7" y="261" width="1.5" height="15.0" fill="rgb(243,175,42)" rx="2" ry="2" />
<text  x="1176.74" y="271.5" ></text>
</g>
<g >
<title>VE4_C (924,156 samples, 0.12%)</title><rect x="475.7" y="293" width="1.4" height="15.0" fill="rgb(229,114,27)" rx="2" ry="2" />
<text  x="478.69" y="303.5" ></text>
</g>
<g >
<title>__memmove_avx_unaligned_erms (4,074,555 samples, 0.53%)</title><rect x="1176.6" y="261" width="6.3" height="15.0" fill="rgb(205,0,0)" rx="2" ry="2" />
<text  x="1179.60" y="271.5" ></text>
</g>
<g >
<title>do_syscall_64 (480,139 samples, 0.06%)</title><rect x="1186.5" y="261" width="0.7" height="15.0" fill="rgb(209,20,4)" rx="2" ry="2" />
<text  x="1189.47" y="271.5" ></text>
</g>
<g >
<title>HD4_C (1,847,920 samples, 0.24%)</title><rect x="145.0" y="293" width="2.9" height="15.0" fill="rgb(226,100,23)" rx="2" ry="2" />
<text  x="148.04" y="303.5" ></text>
</g>
<g >
<title>ExtractGreen_C (13,700,285 samples, 1.80%)</title><rect x="22.1" y="293" width="21.2" height="15.0" fill="rgb(234,134,32)" rx="2" ry="2" />
<text  x="25.14" y="303.5" ></text>
</g>
<g >
<title>__alloc_pages (422,040 samples, 0.06%)</title><rect x="42.7" y="165" width="0.6" height="15.0" fill="rgb(233,129,30)" rx="2" ry="2" />
<text  x="45.67" y="175.5" ></text>
</g>
<g >
<title>UpsampleRgbLinePair_C (157,458,027 samples, 20.64%)</title><rect x="232.2" y="293" width="243.5" height="15.0" fill="rgb(228,108,26)" rx="2" ry="2" />
<text  x="235.17" y="303.5" >UpsampleRgbLinePair_C</text>
</g>
<g >
<title>GetCoeffsFast (1,846,750 samples, 0.24%)</title><rect x="563.4" y="277" width="2.9" height="15.0" fill="rgb(219,64,15)" rx="2" ry="2" />
<text  x="566.40" y="287.5" ></text>
</g>
<g >
<title>load_elf_binary (480,139 samples, 0.06%)</title><rect x="1186.5" y="197" width="0.7" height="15.0" fill="rgb(223,83,20)" rx="2" ry="2" />
<text  x="1189.47" y="207.5" ></text>
</g>
<g >
<title>path_init (457,469 samples, 0.06%)</title><rect x="1182.9" y="149" width="0.7" height="15.0" fill="rgb(212,32,7)" rx="2" ry="2" />
<text  x="1185.90" y="159.5" ></text>
</g>
<g >
<title>BuildHuffmanTable (1,383,490 samples, 0.18%)</title><rect x="10.0" y="293" width="2.1" height="15.0" fill="rgb(226,101,24)" rx="2" ry="2" />
<text  x="13.00" y="303.5" ></text>
</g>
<g >
<title>GetCoeffsFast (1,847,695 samples, 0.24%)</title><rect x="142.2" y="293" width="2.8" height="15.0" fill="rgb(219,64,15)" rx="2" ry="2" />
<text  x="145.18" y="303.5" ></text>
</g>
<g >
<title>VP8ParseProba (3,695,782 samples, 0.48%)</title><rect x="552.0" y="293" width="5.7" height="15.0" fill="rgb(224,88,21)" rx="2" ry="2" />
<text  x="555.03" y="303.5" ></text>
</g>
<g >
<title>TransformAC3_C (3,695,057 samples, 0.48%)</title><rect x="222.2" y="293" width="5.7" height="15.0" fill="rgb(209,19,4)" rx="2" ry="2" />
<text  x="225.17" y="303.5" ></text>
</g>
<g >
<title>__libc_write (923,580 samples, 0.12%)</title><rect x="1185.0" y="277" width="1.5" height="15.0" fill="rgb(238,154,37)" rx="2" ry="2" />
<text  x="1188.04" y="287.5" ></text>
</g>
<g >
<title>begin_new_exec (119,004 samples, 0.02%)</title><rect x="1186.5" y="181" width="0.1" height="15.0" fill="rgb(245,184,44)" rx="2" ry="2" />
<text  x="1189.47" y="191.5" ></text>
</g>
<g >
<title>ext4_setattr (923,860 samples, 0.12%)</title><rect x="1183.6" y="133" width="1.4" height="15.0" fill="rgb(230,117,28)" rx="2" ry="2" />
<text  x="1186.61" y="143.5" ></text>
</g>
<g >
<title>ext4_buffered_write_iter (923,580 samples, 0.12%)</title><rect x="1185.0" y="197" width="1.5" height="15.0" fill="rgb(213,40,9)" rx="2" ry="2" />
<text  x="1188.04" y="207.5" ></text>
</g>
<g >
<title>entry_SYSCALL_64_after_hwframe (480,139 samples, 0.06%)</title><rect x="1186.5" y="277" width="0.7" height="15.0" fill="rgb(218,63,15)" rx="2" ry="2" />
<text  x="1189.47" y="287.5" ></text>
</g>
<g >
<title>asm_exc_page_fault (422,040 samples, 0.06%)</title><rect x="42.7" y="277" width="0.6" height="15.0" fill="rgb(225,93,22)" rx="2" ry="2" />
<text  x="45.67" y="287.5" ></text>
</g>
<g >
<title>bprm_execve (480,139 samples, 0.06%)</title><rect x="1186.5" y="213" width="0.7" height="15.0" fill="rgb(218,61,14)" rx="2" ry="2" />
<text  x="1189.47" y="223.5" ></text>
</g>
<g >
<title>do_syscall_64 (923,860 samples, 0.12%)</title><rect x="1183.6" y="245" width="1.4" height="15.0" fill="rgb(209,20,4)" rx="2" ry="2" />
<text  x="1186.61" y="255.5" ></text>
</g>
<g >
<title>__do_sys_newfstatat (457,469 samples, 0.06%)</title><rect x="1182.9" y="229" width="0.7" height="15.0" fill="rgb(243,177,42)" rx="2" ry="2" />
<text  x="1185.90" y="239.5" ></text>
</g>
<g >
<title>entry_SYSCALL_64_after_hwframe (923,860 samples, 0.12%)</title><rect x="1183.6" y="261" width="1.4" height="15.0" fill="rgb(218,63,15)" rx="2" ry="2" />
<text  x="1186.61" y="271.5" ></text>
</g>
<g >
<title>folio_add_lru (724,796 samples, 0.09%)</title><rect x="1181.8" y="165" width="1.1" height="15.0" fill="rgb(208,17,4)" rx="2" ry="2" />
<text  x="1184.78" y="175.5" ></text>
</g>
<g >
<title>perf_event_mmap (361,135 samples, 0.05%)</title><rect x="1186.6" y="149" width="0.6" height="15.0" fill="rgb(229,112,26)" rx="2" ry="2" />
<text  x="1189.65" y="159.5" ></text>
</g>
<g >
<title>exc_page_fault (422,040 samples, 0.06%)</title><rect x="42.7" y="261" width="0.6" height="15.0" fill="rgb(212,35,8)" rx="2" ry="2" />
<text  x="45.67" y="271.5" ></text>
</g>
<g >
<title>[unknown] (406,080,429 samples, 53.22%)</title><rect x="559.2" y="293" width="628.0" height="15.0" fill="rgb(210,24,5)" rx="2" ry="2" />
<text  x="562.17" y="303.5" >[unknown]</text>
</g>
<g >
<title>VP8DecodeMB (6,453,024 samples, 0.85%)</title><rect x="536.3" y="293" width="10.0" height="15.0" fill="rgb(208,18,4)" rx="2" ry="2" />
<text  x="539.33" y="303.5" ></text>
</g>
<g >
<title>RD4_C (1,848,006 samples, 0.24%)</title><rect x="209.3" y="293" width="2.9" height="15.0" fill="rgb(212,32,7)" rx="2" ry="2" />
<text  x="212.31" y="303.5" ></text>
</g>
<g >
<title>VL4_C (1,779,670 samples, 0.23%)</title><rect x="533.6" y="293" width="2.7" height="15.0" fill="rgb(234,136,32)" rx="2" ry="2" />
<text  x="536.58" y="303.5" ></text>
</g>
<g >
<title>do_sys_openat2 (923,860 samples, 0.12%)</title><rect x="1183.6" y="213" width="1.4" height="15.0" fill="rgb(253,221,52)" rx="2" ry="2" />
<text  x="1186.61" y="223.5" ></text>
</g>
<g >
<title>HE4_C (923,351 samples, 0.12%)</title><rect x="147.9" y="293" width="1.4" height="15.0" fill="rgb(220,70,16)" rx="2" ry="2" />
<text  x="150.90" y="303.5" ></text>
</g>
<g >
<title>decode_webp_nat (762,939,391 samples, 100.00%)</title><rect x="10.0" y="309" width="1180.0" height="15.0" fill="rgb(218,61,14)" rx="2" ry="2" />
<text  x="13.00" y="319.5" >decode_webp_nat</text>
</g>
<g >
<title>VFilter8_C (924,069 samples, 0.12%)</title><rect x="532.2" y="293" width="1.4" height="15.0" fill="rgb(233,130,31)" rx="2" ry="2" />
<text  x="535.15" y="303.5" ></text>
</g>
<g >
<title>path_lookupat (457,469 samples, 0.06%)</title><rect x="1182.9" y="165" width="0.7" height="15.0" fill="rgb(250,208,49)" rx="2" ry="2" />
<text  x="1185.90" y="175.5" ></text>
</g>
<g >
<title>LD4_C (921,111 samples, 0.12%)</title><rect x="207.9" y="293" width="1.4" height="15.0" fill="rgb(250,211,50)" rx="2" ry="2" />
<text  x="210.89" y="303.5" ></text>
</g>
<g >
<title>clear_page_rep (422,040 samples, 0.06%)</title><rect x="42.7" y="133" width="0.6" height="15.0" fill="rgb(253,221,52)" rx="2" ry="2" />
<text  x="45.67" y="143.5" ></text>
</g>
<g >
<title>HE16_C (923,609 samples, 0.12%)</title><rect x="615.4" y="277" width="1.4" height="15.0" fill="rgb(240,164,39)" rx="2" ry="2" />
<text  x="618.41" y="287.5" ></text>
</g>
<g >
<title>VFilter16i_C (35,581,401 samples, 4.66%)</title><rect x="477.1" y="293" width="55.1" height="15.0" fill="rgb(251,213,51)" rx="2" ry="2" />
<text  x="480.12" y="303.5" >VFilt..</text>
</g>
<g >
<title>HFilter8i_C (1,843,893 samples, 0.24%)</title><rect x="642.5" y="277" width="2.8" height="15.0" fill="rgb(245,186,44)" rx="2" ry="2" />
<text  x="645.49" y="287.5" ></text>
</g>
<g >
<title>memset (923,580 samples, 0.12%)</title><rect x="1185.0" y="69" width="1.5" height="15.0" fill="rgb(208,14,3)" rx="2" ry="2" />
<text  x="1188.04" y="79.5" ></text>
</g>
<g >
<title>ReconstructRow (13,612,945 samples, 1.78%)</title><rect x="645.3" y="277" width="21.1" height="15.0" fill="rgb(225,93,22)" rx="2" ry="2" />
<text  x="648.34" y="287.5" ></text>
</g>
<g >
<title>FinishRow (1,846,634 samples, 0.24%)</title><rect x="560.5" y="277" width="2.9" height="15.0" fill="rgb(213,41,9)" rx="2" ry="2" />
<text  x="563.54" y="287.5" ></text>
</g>
<g >
<title>ext4_da_write_begin (923,580 samples, 0.12%)</title><rect x="1185.0" y="165" width="1.5" height="15.0" fill="rgb(211,32,7)" rx="2" ry="2" />
<text  x="1188.04" y="175.5" ></text>
</g>
<g >
<title>handle_mm_fault (422,040 samples, 0.06%)</title><rect x="42.7" y="229" width="0.6" height="15.0" fill="rgb(234,135,32)" rx="2" ry="2" />
<text  x="45.67" y="239.5" ></text>
</g>
<g >
<title>kmem_cache_alloc (923,580 samples, 0.12%)</title><rect x="1185.0" y="85" width="1.5" height="15.0" fill="rgb(225,95,22)" rx="2" ry="2" />
<text  x="1188.04" y="95.5" ></text>
</g>
<g >
<title>do_user_addr_fault (724,796 samples, 0.09%)</title><rect x="1181.8" y="213" width="1.1" height="15.0" fill="rgb(228,108,25)" rx="2" ry="2" />
<text  x="1184.78" y="223.5" ></text>
</g>
<g >
<title>GetCoeffsFast (171,636,831 samples, 22.50%)</title><rect x="908.3" y="261" width="265.4" height="15.0" fill="rgb(219,64,15)" rx="2" ry="2" />
<text  x="911.29" y="271.5" >GetCoeffsFast</text>
</g>
<g >
<title>get_page_from_freelist (422,040 samples, 0.06%)</title><rect x="42.7" y="149" width="0.6" height="15.0" fill="rgb(252,218,52)" rx="2" ry="2" />
<text  x="45.67" y="159.5" ></text>
</g>
<g >
<title>do_syscall_64 (923,580 samples, 0.12%)</title><rect x="1185.0" y="245" width="1.5" height="15.0" fill="rgb(209,20,4)" rx="2" ry="2" />
<text  x="1188.04" y="255.5" ></text>
</g>
<g >
<title>__memmove_avx_unaligned (923,927 samples, 0.12%)</title><rect x="1175.2" y="261" width="1.4" height="15.0" fill="rgb(254,228,54)" rx="2" ry="2" />
<text  x="1178.17" y="271.5" ></text>
</g>
<g >
<title>VP8ParseQuant (922,953 samples, 0.12%)</title><rect x="557.7" y="293" width="1.5" height="15.0" fill="rgb(238,154,37)" rx="2" ry="2" />
<text  x="560.74" y="303.5" ></text>
</g>
<g >
<title>alloc_buffer_head (923,580 samples, 0.12%)</title><rect x="1185.0" y="101" width="1.5" height="15.0" fill="rgb(215,46,11)" rx="2" ry="2" />
<text  x="1188.04" y="111.5" ></text>
</g>
<g >
<title>TM4_C (4,618,686 samples, 0.61%)</title><rect x="215.0" y="293" width="7.2" height="15.0" fill="rgb(241,165,39)" rx="2" ry="2" />
<text  x="218.03" y="303.5" ></text>
</g>
<g >
<title>__perf_addr_filters_adjust (361,135 samples, 0.05%)</title><rect x="1186.6" y="117" width="0.6" height="15.0" fill="rgb(247,195,46)" rx="2" ry="2" />
<text  x="1189.65" y="127.5" ></text>
</g>
<g >
<title>__x64_sys_execve (480,139 samples, 0.06%)</title><rect x="1186.5" y="245" width="0.7" height="15.0" fill="rgb(247,193,46)" rx="2" ry="2" />
<text  x="1189.47" y="255.5" ></text>
</g>
<g >
<title>truncate_pagecache (923,860 samples, 0.12%)</title><rect x="1183.6" y="117" width="1.4" height="15.0" fill="rgb(231,123,29)" rx="2" ry="2" />
<text  x="1186.61" y="127.5" ></text>
</g>
<g >
<title>path_openat (923,860 samples, 0.12%)</title><rect x="1183.6" y="181" width="1.4" height="15.0" fill="rgb(249,202,48)" rx="2" ry="2" />
<text  x="1186.61" y="191.5" ></text>
</g>
<g >
<title>ext4_block_write_begin (923,580 samples, 0.12%)</title><rect x="1185.0" y="149" width="1.5" height="15.0" fill="rgb(206,4,1)" rx="2" ry="2" />
<text  x="1188.04" y="159.5" ></text>
</g>
<g >
<title>do_syscall_64 (457,469 samples, 0.06%)</title><rect x="1182.9" y="245" width="0.7" height="15.0" fill="rgb(209,20,4)" rx="2" ry="2" />
<text  x="1185.90" y="255.5" ></text>
</g>
<g >
<title>map_vdso (361,135 samples, 0.05%)</title><rect x="1186.6" y="181" width="0.6" height="15.0" fill="rgb(227,103,24)" rx="2" ry="2" />
<text  x="1189.65" y="191.5" ></text>
</g>
<g >
<title>VP8ParseIntraModeRow (2,771,017 samples, 0.36%)</title><rect x="547.7" y="293" width="4.3" height="15.0" fill="rgb(231,121,29)" rx="2" ry="2" />
<text  x="550.74" y="303.5" ></text>
</g>
<g >
<title>truncate_inode_pages_range (923,860 samples, 0.12%)</title><rect x="1183.6" y="101" width="1.4" height="15.0" fill="rgb(245,187,44)" rx="2" ry="2" />
<text  x="1186.61" y="111.5" ></text>
</g>
<g >
<title>__folio_alloc (422,040 samples, 0.06%)</title><rect x="42.7" y="181" width="0.6" height="15.0" fill="rgb(224,91,21)" rx="2" ry="2" />
<text  x="45.67" y="191.5" ></text>
</g>
<g >
<title>__memmove_avx_unaligned_erms (1,774,979 samples, 0.23%)</title><rect x="1187.2" y="293" width="2.8" height="15.0" fill="rgb(205,0,0)" rx="2" ry="2" />
<text  x="1190.21" y="303.5" ></text>
</g>
<g >
<title>do_execveat_common.isra.0 (480,139 samples, 0.06%)</title><rect x="1186.5" y="229" width="0.7" height="15.0" fill="rgb(231,123,29)" rx="2" ry="2" />
<text  x="1189.47" y="239.5" ></text>
</g>
<g >
<title>folio_batch_move_lru (724,796 samples, 0.09%)</title><rect x="1181.8" y="149" width="1.1" height="15.0" fill="rgb(207,10,2)" rx="2" ry="2" />
<text  x="1184.78" y="159.5" ></text>
</g>
<g >
<title>xas_start (923,860 samples, 0.12%)</title><rect x="1183.6" y="37" width="1.4" height="15.0" fill="rgb(250,209,50)" rx="2" ry="2" />
<text  x="1186.61" y="47.5" ></text>
</g>
<g >
<title>ksys_write (923,580 samples, 0.12%)</title><rect x="1185.0" y="229" width="1.5" height="15.0" fill="rgb(205,4,1)" rx="2" ry="2" />
<text  x="1188.04" y="239.5" ></text>
</g>
<g >
<title>__install_special_mapping (361,135 samples, 0.05%)</title><rect x="1186.6" y="165" width="0.6" height="15.0" fill="rgb(212,35,8)" rx="2" ry="2" />
<text  x="1189.65" y="175.5" ></text>
</g>
<g >
<title>flush_signal_handlers (119,004 samples, 0.02%)</title><rect x="1186.5" y="165" width="0.1" height="15.0" fill="rgb(253,221,53)" rx="2" ry="2" />
<text  x="1189.47" y="175.5" ></text>
</g>
<g >
<title>HFilter16i_C (36,018,038 samples, 4.72%)</title><rect x="149.3" y="293" width="55.7" height="15.0" fill="rgb(241,169,40)" rx="2" ry="2" />
<text  x="152.33" y="303.5" >HFilt..</text>
</g>
<g >
<title>create_empty_buffers (923,580 samples, 0.12%)</title><rect x="1185.0" y="133" width="1.5" height="15.0" fill="rgb(229,114,27)" rx="2" ry="2" />
<text  x="1188.04" y="143.5" ></text>
</g>
<g >
<title>VP8DecodeMB (20,694,615 samples, 2.71%)</title><rect x="768.1" y="277" width="32.0" height="15.0" fill="rgb(208,18,4)" rx="2" ry="2" />
<text  x="771.14" y="287.5" >VP..</text>
</g>
<g >
<title>entry_SYSCALL_64_after_hwframe (923,580 samples, 0.12%)</title><rect x="1185.0" y="261" width="1.5" height="15.0" fill="rgb(218,63,15)" rx="2" ry="2" />
<text  x="1188.04" y="271.5" ></text>
</g>
<g >
<title>HFilter8_C (923,537 samples, 0.12%)</title><rect x="641.1" y="277" width="1.4" height="15.0" fill="rgb(223,86,20)" rx="2" ry="2" />
<text  x="644.06" y="287.5" ></text>
</g>
<g >
<title>do_user_addr_fault (422,040 samples, 0.06%)</title><rect x="42.7" y="245" width="0.6" height="15.0" fill="rgb(228,108,25)" rx="2" ry="2" />
<text  x="45.67" y="255.5" ></text>
</g>
<g >
<title>FilterLoop26_C (40,829,708 samples, 5.35%)</title><rect x="79.0" y="293" width="63.2" height="15.0" fill="rgb(230,116,27)" rx="2" ry="2" />
<text  x="82.04" y="303.5" >Filter..</text>
</g>
<g >
<title>DC4_C (6,463,420 samples, 0.85%)</title><rect x="12.1" y="293" width="10.0" height="15.0" fill="rgb(209,18,4)" rx="2" ry="2" />
<text  x="15.14" y="303.5" ></text>
</g>
<g >
<title>TransformUV_C (923,712 samples, 0.12%)</title><rect x="766.7" y="277" width="1.4" height="15.0" fill="rgb(236,146,34)" rx="2" ry="2" />
<text  x="769.71" y="287.5" ></text>
</g>
<g >
<title>FilterLoop24_C (23,090,519 samples, 3.03%)</title><rect x="43.3" y="293" width="35.7" height="15.0" fill="rgb(243,175,42)" rx="2" ry="2" />
<text  x="46.32" y="303.5" >Fil..</text>
</g>
<g >
<title>GetLargeValue (31,782,800 samples, 4.17%)</title><rect x="566.3" y="277" width="49.1" height="15.0" fill="rgb(243,175,42)" rx="2" ry="2" />
<text  x="569.26" y="287.5" >GetL..</text>
</g>
<g >
<title>__handle_mm_fault (422,040 samples, 0.06%)</title><rect x="42.7" y="213" width="0.6" height="15.0" fill="rgb(207,9,2)" rx="2" ry="2" />
<text  x="45.67" y="223.5" ></text>
</g>
<g >
<title>TransformOne_C (52,914,178 samples, 6.94%)</title><rect x="684.9" y="277" width="81.8" height="15.0" fill="rgb(218,59,14)" rx="2" ry="2" />
<text  x="687.88" y="287.5" >Transform..</text>
</g>
<g >
<title>vfs_write (923,580 samples, 0.12%)</title><rect x="1185.0" y="213" width="1.5" height="15.0" fill="rgb(250,209,50)" rx="2" ry="2" />
<text  x="1188.04" y="223.5" ></text>
</g>
<g >
<title>HFilter16_C (14,739,536 samples, 1.93%)</title><rect x="616.8" y="277" width="22.8" height="15.0" fill="rgb(220,69,16)" rx="2" ry="2" />
<text  x="619.84" y="287.5" >H..</text>
</g>
<g >
<title>do_truncate (923,860 samples, 0.12%)</title><rect x="1183.6" y="165" width="1.4" height="15.0" fill="rgb(216,53,12)" rx="2" ry="2" />
<text  x="1186.61" y="175.5" ></text>
</g>
</g>
</svg>
