<?xml version="1.0" standalone="no"?>
<!DOCTYPE svg PUBLIC "-//W3C//DTD SVG 1.1//EN" "http://www.w3.org/Graphics/SVG/1.1/DTD/svg11.dtd">
<svg version="1.1" width="1200" height="342" onload="init(evt)" viewBox="0 0 1200 342" xmlns="http://www.w3.org/2000/svg" xmlns:xlink="http://www.w3.org/1999/xlink">
<!-- Flame graph stack visualization. See https://github.com/brendangregg/FlameGraph for latest version, and http://www.brendangregg.com/flamegraphs.html for examples. -->
<!-- NOTES:  -->
<defs>
	<linearGradient id="background" y1="0" y2="1" x1="0" x2="0" >
		<stop stop-color="#eeeeee" offset="5%" />
		<stop stop-color="#eeeeb0" offset="95%" />
	</linearGradient>
</defs>
<style type="text/css">
	text { font-family:Verdana; font-size:12px; fill:rgb(0,0,0); }
	#search, #ignorecase { opacity:0.1; cursor:pointer; }
	#search:hover, #search.show, #ignorecase:hover, #ignorecase.show { opacity:1; }
	#subtitle { text-anchor:middle; font-color:rgb(160,160,160); }
	#title { text-anchor:middle; font-size:17px}
	#unzoom { cursor:pointer; }
	#frames > *:hover { stroke:black; stroke-width:0.5; cursor:pointer; }
	.hide { display:none; }
	.parent { opacity:0.5; }
</style>
<script type="text/ecmascript">
<![CDATA[
	"use strict";
	var details, searchbtn, unzoombtn, matchedtxt, svg, searching, currentSearchTerm, ignorecase, ignorecaseBtn;
	function init(evt) {
		details = document.getElementById("details").firstChild;
		searchbtn = document.getElementById("search");
		ignorecaseBtn = document.getElementById("ignorecase");
		unzoombtn = document.getElementById("unzoom");
		matchedtxt = document.getElementById("matched");
		svg = document.getElementsByTagName("svg")[0];
		searching = 0;
		currentSearchTerm = null;

		// use GET parameters to restore a flamegraphs state.
		var params = get_params();
		if (params.x && params.y)
			zoom(find_group(document.querySelector('[x="' + params.x + '"][y="' + params.y + '"]')));
                if (params.s) search(params.s);
	}

	// event listeners
	window.addEventListener("click", function(e) {
		var target = find_group(e.target);
		if (target) {
			if (target.nodeName == "a") {
				if (e.ctrlKey === false) return;
				e.preventDefault();
			}
			if (target.classList.contains("parent")) unzoom(true);
			zoom(target);
			if (!document.querySelector('.parent')) {
				// we have basically done a clearzoom so clear the url
				var params = get_params();
				if (params.x) delete params.x;
				if (params.y) delete params.y;
				history.replaceState(null, null, parse_params(params));
				unzoombtn.classList.add("hide");
				return;
			}

			// set parameters for zoom state
			var el = target.querySelector("rect");
			if (el && el.attributes && el.attributes.y && el.attributes._orig_x) {
				var params = get_params()
				params.x = el.attributes._orig_x.value;
				params.y = el.attributes.y.value;
				history.replaceState(null, null, parse_params(params));
			}
		}
		else if (e.target.id == "unzoom") clearzoom();
		else if (e.target.id == "search") search_prompt();
		else if (e.target.id == "ignorecase") toggle_ignorecase();
	}, false)

	// mouse-over for info
	// show
	window.addEventListener("mouseover", function(e) {
		var target = find_group(e.target);
		if (target) details.nodeValue = "Function: " + g_to_text(target);
	}, false)

	// clear
	window.addEventListener("mouseout", function(e) {
		var target = find_group(e.target);
		if (target) details.nodeValue = ' ';
	}, false)

	// ctrl-F for search
	// ctrl-I to toggle case-sensitive search
	window.addEventListener("keydown",function (e) {
		if (e.keyCode === 114 || (e.ctrlKey && e.keyCode === 70)) {
			e.preventDefault();
			search_prompt();
		}
		else if (e.ctrlKey && e.keyCode === 73) {
			e.preventDefault();
			toggle_ignorecase();
		}
	}, false)

	// functions
	function get_params() {
		var params = {};
		var paramsarr = window.location.search.substr(1).split('&');
		for (var i = 0; i < paramsarr.length; ++i) {
			var tmp = paramsarr[i].split("=");
			if (!tmp[0] || !tmp[1]) continue;
			params[tmp[0]]  = decodeURIComponent(tmp[1]);
		}
		return params;
	}
	function parse_params(params) {
		var uri = "?";
		for (var key in params) {
			uri += key + '=' + encodeURIComponent(params[key]) + '&';
		}
		if (uri.slice(-1) == "&")
			uri = uri.substring(0, uri.length - 1);
		if (uri == '?')
			uri = window.location.href.split('?')[0];
		return uri;
	}
	function find_child(node, selector) {
		var children = node.querySelectorAll(selector);
		if (children.length) return children[0];
	}
	function find_group(node) {
		var parent = node.parentElement;
		if (!parent) return;
		if (parent.id == "frames") return node;
		return find_group(parent);
	}
	function orig_save(e, attr, val) {
		if (e.attributes["_orig_" + attr] != undefined) return;
		if (e.attributes[attr] == undefined) return;
		if (val == undefined) val = e.attributes[attr].value;
		e.setAttribute("_orig_" + attr, val);
	}
	function orig_load(e, attr) {
		if (e.attributes["_orig_"+attr] == undefined) return;
		e.attributes[attr].value = e.attributes["_orig_" + attr].value;
		e.removeAttribute("_orig_"+attr);
	}
	function g_to_text(e) {
		var text = find_child(e, "title").firstChild.nodeValue;
		return (text)
	}
	function g_to_func(e) {
		var func = g_to_text(e);
		// if there's any manipulation we want to do to the function
		// name before it's searched, do it here before returning.
		return (func);
	}
	function update_text(e) {
		var r = find_child(e, "rect");
		var t = find_child(e, "text");
		var w = parseFloat(r.attributes.width.value) -3;
		var txt = find_child(e, "title").textContent.replace(/\([^(]*\)$/,"");
		t.attributes.x.value = parseFloat(r.attributes.x.value) + 3;

		// Smaller than this size won't fit anything
		if (w < 2 * 12 * 0.59) {
			t.textContent = "";
			return;
		}

		t.textContent = txt;
		var sl = t.getSubStringLength(0, txt.length);
		// check if only whitespace or if we can fit the entire string into width w
		if (/^ *$/.test(txt) || sl < w)
			return;

		// this isn't perfect, but gives a good starting point
		// and avoids calling getSubStringLength too often
		var start = Math.floor((w/sl) * txt.length);
		for (var x = start; x > 0; x = x-2) {
			if (t.getSubStringLength(0, x + 2) <= w) {
				t.textContent = txt.substring(0, x) + "..";
				return;
			}
		}
		t.textContent = "";
	}

	// zoom
	function zoom_reset(e) {
		if (e.attributes != undefined) {
			orig_load(e, "x");
			orig_load(e, "width");
		}
		if (e.childNodes == undefined) return;
		for (var i = 0, c = e.childNodes; i < c.length; i++) {
			zoom_reset(c[i]);
		}
	}
	function zoom_child(e, x, ratio) {
		if (e.attributes != undefined) {
			if (e.attributes.x != undefined) {
				orig_save(e, "x");
				e.attributes.x.value = (parseFloat(e.attributes.x.value) - x - 10) * ratio + 10;
				if (e.tagName == "text")
					e.attributes.x.value = find_child(e.parentNode, "rect[x]").attributes.x.value + 3;
			}
			if (e.attributes.width != undefined) {
				orig_save(e, "width");
				e.attributes.width.value = parseFloat(e.attributes.width.value) * ratio;
			}
		}

		if (e.childNodes == undefined) return;
		for (var i = 0, c = e.childNodes; i < c.length; i++) {
			zoom_child(c[i], x - 10, ratio);
		}
	}
	function zoom_parent(e) {
		if (e.attributes) {
			if (e.attributes.x != undefined) {
				orig_save(e, "x");
				e.attributes.x.value = 10;
			}
			if (e.attributes.width != undefined) {
				orig_save(e, "width");
				e.attributes.width.value = parseInt(svg.width.baseVal.value) - (10 * 2);
			}
		}
		if (e.childNodes == undefined) return;
		for (var i = 0, c = e.childNodes; i < c.length; i++) {
			zoom_parent(c[i]);
		}
	}
	function zoom(node) {
		var attr = find_child(node, "rect").attributes;
		var width = parseFloat(attr.width.value);
		var xmin = parseFloat(attr.x.value);
		var xmax = parseFloat(xmin + width);
		var ymin = parseFloat(attr.y.value);
		var ratio = (svg.width.baseVal.value - 2 * 10) / width;

		// XXX: Workaround for JavaScript float issues (fix me)
		var fudge = 0.0001;

		unzoombtn.classList.remove("hide");

		var el = document.getElementById("frames").children;
		for (var i = 0; i < el.length; i++) {
			var e = el[i];
			var a = find_child(e, "rect").attributes;
			var ex = parseFloat(a.x.value);
			var ew = parseFloat(a.width.value);
			var upstack;
			// Is it an ancestor
			if (0 == 0) {
				upstack = parseFloat(a.y.value) > ymin;
			} else {
				upstack = parseFloat(a.y.value) < ymin;
			}
			if (upstack) {
				// Direct ancestor
				if (ex <= xmin && (ex+ew+fudge) >= xmax) {
					e.classList.add("parent");
					zoom_parent(e);
					update_text(e);
				}
				// not in current path
				else
					e.classList.add("hide");
			}
			// Children maybe
			else {
				// no common path
				if (ex < xmin || ex + fudge >= xmax) {
					e.classList.add("hide");
				}
				else {
					zoom_child(e, xmin, ratio);
					update_text(e);
				}
			}
		}
		search();
	}
	function unzoom(dont_update_text) {
		unzoombtn.classList.add("hide");
		var el = document.getElementById("frames").children;
		for(var i = 0; i < el.length; i++) {
			el[i].classList.remove("parent");
			el[i].classList.remove("hide");
			zoom_reset(el[i]);
			if(!dont_update_text) update_text(el[i]);
		}
		search();
	}
	function clearzoom() {
		unzoom();

		// remove zoom state
		var params = get_params();
		if (params.x) delete params.x;
		if (params.y) delete params.y;
		history.replaceState(null, null, parse_params(params));
	}

	// search
	function toggle_ignorecase() {
		ignorecase = !ignorecase;
		if (ignorecase) {
			ignorecaseBtn.classList.add("show");
		} else {
			ignorecaseBtn.classList.remove("show");
		}
		reset_search();
		search();
	}
	function reset_search() {
		var el = document.querySelectorAll("#frames rect");
		for (var i = 0; i < el.length; i++) {
			orig_load(el[i], "fill")
		}
		var params = get_params();
		delete params.s;
		history.replaceState(null, null, parse_params(params));
	}
	function search_prompt() {
		if (!searching) {
			var term = prompt("Enter a search term (regexp " +
			    "allowed, eg: ^ext4_)"
			    + (ignorecase ? ", ignoring case" : "")
			    + "\nPress Ctrl-i to toggle case sensitivity", "");
			if (term != null) search(term);
		} else {
			reset_search();
			searching = 0;
			currentSearchTerm = null;
			searchbtn.classList.remove("show");
			searchbtn.firstChild.nodeValue = "Search"
			matchedtxt.classList.add("hide");
			matchedtxt.firstChild.nodeValue = ""
		}
	}
	function search(term) {
		if (term) currentSearchTerm = term;

		var re = new RegExp(currentSearchTerm, ignorecase ? 'i' : '');
		var el = document.getElementById("frames").children;
		var matches = new Object();
		var maxwidth = 0;
		for (var i = 0; i < el.length; i++) {
			var e = el[i];
			var func = g_to_func(e);
			var rect = find_child(e, "rect");
			if (func == null || rect == null)
				continue;

			// Save max width. Only works as we have a root frame
			var w = parseFloat(rect.attributes.width.value);
			if (w > maxwidth)
				maxwidth = w;

			if (func.match(re)) {
				// highlight
				var x = parseFloat(rect.attributes.x.value);
				orig_save(rect, "fill");
				rect.attributes.fill.value = "rgb(230,0,230)";

				// remember matches
				if (matches[x] == undefined) {
					matches[x] = w;
				} else {
					if (w > matches[x]) {
						// overwrite with parent
						matches[x] = w;
					}
				}
				searching = 1;
			}
		}
		if (!searching)
			return;
		var params = get_params();
		params.s = currentSearchTerm;
		history.replaceState(null, null, parse_params(params));

		searchbtn.classList.add("show");
		searchbtn.firstChild.nodeValue = "Reset Search";

		// calculate percent matched, excluding vertical overlap
		var count = 0;
		var lastx = -1;
		var lastw = 0;
		var keys = Array();
		for (k in matches) {
			if (matches.hasOwnProperty(k))
				keys.push(k);
		}
		// sort the matched frames by their x location
		// ascending, then width descending
		keys.sort(function(a, b){
			return a - b;
		});
		// Step through frames saving only the biggest bottom-up frames
		// thanks to the sort order. This relies on the tree property
		// where children are always smaller than their parents.
		var fudge = 0.0001;	// JavaScript floating point
		for (var k in keys) {
			var x = parseFloat(keys[k]);
			var w = matches[keys[k]];
			if (x >= lastx + lastw - fudge) {
				count += w;
				lastx = x;
				lastw = w;
			}
		}
		// display matched percent
		matchedtxt.classList.remove("hide");
		var pct = 100 * count / maxwidth;
		if (pct != 100) pct = pct.toFixed(1)
		matchedtxt.firstChild.nodeValue = "Matched: " + pct + "%";
	}
]]>
</script>
<rect x="0.0" y="0" width="1200.0" height="342.0" fill="url(#background)"  />
<text id="title" x="600.00" y="24" >Flame Graph</text>
<text id="details" x="10.00" y="325" > </text>
<text id="unzoom" x="10.00" y="24" class="hide">Reset Zoom</text>
<text id="search" x="1090.00" y="24" >Search</text>
<text id="ignorecase" x="1174.00" y="24" >ic</text>
<text id="matched" x="1090.00" y="325" > </text>
<g id="frames">
<g >
<title>w2c_decode__webp__wasmsimd_TransformColorInverse_SSE2 (393,733 samples, 0.05%)</title><rect x="1080.9" y="261" width="0.6" height="15.0" fill="rgb(245,185,44)" rx="2" ry="2" />
<text  x="1083.89" y="271.5" ></text>
</g>
<g >
<title>sysvec_apic_timer_interrupt (924,097 samples, 0.12%)</title><rect x="108.5" y="213" width="1.4" height="15.0" fill="rgb(220,69,16)" rx="2" ry="2" />
<text  x="111.48" y="223.5" ></text>
</g>
<g >
<title>__run_timers (922,324 samples, 0.12%)</title><rect x="887.5" y="165" width="1.4" height="15.0" fill="rgb(206,5,1)" rx="2" ry="2" />
<text  x="890.49" y="175.5" ></text>
</g>
<g >
<title>asm_exc_page_fault (770,458 samples, 0.10%)</title><rect x="343.6" y="245" width="1.2" height="15.0" fill="rgb(225,93,22)" rx="2" ry="2" />
<text  x="346.60" y="255.5" ></text>
</g>
<g >
<title>w2c_decode__webp__wasmsimd_PredictorAdd1_SSE2 (8,250,772 samples, 1.06%)</title><rect x="109.9" y="245" width="12.5" height="15.0" fill="rgb(249,206,49)" rx="2" ry="2" />
<text  x="112.88" y="255.5" ></text>
</g>
<g >
<title>mem_cgroup_css_rstat_flush (924,102 samples, 0.12%)</title><rect x="10.0" y="37" width="1.4" height="15.0" fill="rgb(253,222,53)" rx="2" ry="2" />
<text  x="13.00" y="47.5" ></text>
</g>
<g >
<title>__mem_cgroup_flush_stats (924,102 samples, 0.12%)</title><rect x="10.0" y="85" width="1.4" height="15.0" fill="rgb(208,16,3)" rx="2" ry="2" />
<text  x="13.00" y="95.5" ></text>
</g>
<g >
<title>cgroup_rstat_flush_irqsafe (924,102 samples, 0.12%)</title><rect x="10.0" y="69" width="1.4" height="15.0" fill="rgb(227,103,24)" rx="2" ry="2" />
<text  x="13.00" y="79.5" ></text>
</g>
<g >
<title>delay_halt_mwaitx (924,097 samples, 0.12%)</title><rect x="108.5" y="37" width="1.4" height="15.0" fill="rgb(234,133,31)" rx="2" ry="2" />
<text  x="111.48" y="47.5" ></text>
</g>
<g >
<title>decode_webp_was (776,763,990 samples, 100.00%)</title><rect x="10.0" y="277" width="1180.0" height="15.0" fill="rgb(216,54,12)" rx="2" ry="2" />
<text  x="13.00" y="287.5" >decode_webp_was</text>
</g>
<g >
<title>[unknown] (166,668,121 samples, 21.46%)</title><rect x="10.0" y="261" width="253.2" height="15.0" fill="rgb(210,24,5)" rx="2" ry="2" />
<text  x="13.00" y="271.5" >[unknown]</text>
</g>
<g >
<title>__x64_sys_execve (468,400 samples, 0.06%)</title><rect x="11.4" y="213" width="0.7" height="15.0" fill="rgb(247,193,46)" rx="2" ry="2" />
<text  x="14.40" y="223.5" ></text>
</g>
<g >
<title>__libc_write (924,102 samples, 0.12%)</title><rect x="10.0" y="245" width="1.4" height="15.0" fill="rgb(238,154,37)" rx="2" ry="2" />
<text  x="13.00" y="255.5" ></text>
</g>
<g >
<title>do_fault (393,733 samples, 0.05%)</title><rect x="1080.9" y="165" width="0.6" height="15.0" fill="rgb(248,200,47)" rx="2" ry="2" />
<text  x="1083.89" y="175.5" ></text>
</g>
<g >
<title>sysvec_apic_timer_interrupt (2,770,693 samples, 0.36%)</title><rect x="887.5" y="229" width="4.2" height="15.0" fill="rgb(220,69,16)" rx="2" ry="2" />
<text  x="890.49" y="239.5" ></text>
</g>
<g >
<title>cpufreq_this_cpu_can_update (924,006 samples, 0.12%)</title><rect x="890.3" y="53" width="1.4" height="15.0" fill="rgb(220,71,17)" rx="2" ry="2" />
<text  x="893.29" y="63.5" ></text>
</g>
<g >
<title>update_process_times (924,097 samples, 0.12%)</title><rect x="108.5" y="117" width="1.4" height="15.0" fill="rgb(250,209,50)" rx="2" ry="2" />
<text  x="111.48" y="127.5" ></text>
</g>
<g >
<title>sugov_update_single_freq (924,006 samples, 0.12%)</title><rect x="890.3" y="69" width="1.4" height="15.0" fill="rgb(250,208,49)" rx="2" ry="2" />
<text  x="893.29" y="79.5" ></text>
</g>
<g >
<title>tick_sched_timer (924,097 samples, 0.12%)</title><rect x="108.5" y="149" width="1.4" height="15.0" fill="rgb(254,227,54)" rx="2" ry="2" />
<text  x="111.48" y="159.5" ></text>
</g>
<g >
<title>fq_flush_iotlb (922,324 samples, 0.12%)</title><rect x="887.5" y="117" width="1.4" height="15.0" fill="rgb(244,182,43)" rx="2" ry="2" />
<text  x="890.49" y="127.5" ></text>
</g>
<g >
<title>__sysvec_apic_timer_interrupt (1,848,369 samples, 0.24%)</title><rect x="888.9" y="213" width="2.8" height="15.0" fill="rgb(242,173,41)" rx="2" ry="2" />
<text  x="891.89" y="223.5" ></text>
</g>
<g >
<title>entry_SYSCALL_64_after_hwframe (468,400 samples, 0.06%)</title><rect x="11.4" y="245" width="0.7" height="15.0" fill="rgb(218,63,15)" rx="2" ry="2" />
<text  x="14.40" y="255.5" ></text>
</g>
<g >
<title>__memmove_avx_unaligned (924,097 samples, 0.12%)</title><rect x="263.9" y="261" width="1.4" height="15.0" fill="rgb(254,228,54)" rx="2" ry="2" />
<text  x="266.88" y="271.5" ></text>
</g>
<g >
<title>amd_pmu_check_overflow (924,097 samples, 0.12%)</title><rect x="108.5" y="69" width="1.4" height="15.0" fill="rgb(207,10,2)" rx="2" ry="2" />
<text  x="111.48" y="79.5" ></text>
</g>
<g >
<title>asm_sysvec_apic_timer_interrupt (924,031 samples, 0.12%)</title><rect x="233.9" y="229" width="1.4" height="15.0" fill="rgb(232,127,30)" rx="2" ry="2" />
<text  x="236.87" y="239.5" ></text>
</g>
<g >
<title>asm_sysvec_apic_timer_interrupt (924,097 samples, 0.12%)</title><rect x="108.5" y="229" width="1.4" height="15.0" fill="rgb(232,127,30)" rx="2" ry="2" />
<text  x="111.48" y="239.5" ></text>
</g>
<g >
<title>do_mas_align_munmap (923,969 samples, 0.12%)</title><rect x="266.7" y="165" width="1.4" height="15.0" fill="rgb(232,126,30)" rx="2" ry="2" />
<text  x="269.68" y="175.5" ></text>
</g>
<g >
<title>w2c_decode__webp__wasmsimd_PredictorAdd11_SSE2 (1,848,074 samples, 0.24%)</title><rect x="24.6" y="245" width="2.8" height="15.0" fill="rgb(233,130,31)" rx="2" ry="2" />
<text  x="27.58" y="255.5" ></text>
</g>
<g >
<title>scheduler_tick (924,031 samples, 0.12%)</title><rect x="233.9" y="101" width="1.4" height="15.0" fill="rgb(246,190,45)" rx="2" ry="2" />
<text  x="236.87" y="111.5" ></text>
</g>
<g >
<title>hrtimer_interrupt (924,031 samples, 0.12%)</title><rect x="233.9" y="181" width="1.4" height="15.0" fill="rgb(228,109,26)" rx="2" ry="2" />
<text  x="236.87" y="191.5" ></text>
</g>
<g >
<title>__munmap (923,969 samples, 0.12%)</title><rect x="266.7" y="261" width="1.4" height="15.0" fill="rgb(211,29,7)" rx="2" ry="2" />
<text  x="269.68" y="271.5" ></text>
</g>
<g >
<title>w2c_decode__webp__wasmsimd_PredictorAdd2_C (923,861 samples, 0.12%)</title><rect x="1066.4" y="261" width="1.4" height="15.0" fill="rgb(251,214,51)" rx="2" ry="2" />
<text  x="1069.37" y="271.5" ></text>
</g>
<g >
<title>balance_dirty_pages (924,102 samples, 0.12%)</title><rect x="10.0" y="117" width="1.4" height="15.0" fill="rgb(247,193,46)" rx="2" ry="2" />
<text  x="13.00" y="127.5" ></text>
</g>
<g >
<title>__internal_atexit (458,796 samples, 0.06%)</title><rect x="263.2" y="261" width="0.7" height="15.0" fill="rgb(229,111,26)" rx="2" ry="2" />
<text  x="266.18" y="271.5" ></text>
</g>
<g >
<title>__handle_mm_fault (393,733 samples, 0.05%)</title><rect x="1080.9" y="181" width="0.6" height="15.0" fill="rgb(207,9,2)" rx="2" ry="2" />
<text  x="1083.89" y="191.5" ></text>
</g>
<g >
<title>__sysvec_apic_timer_interrupt (924,031 samples, 0.12%)</title><rect x="233.9" y="197" width="1.4" height="15.0" fill="rgb(242,173,41)" rx="2" ry="2" />
<text  x="236.87" y="207.5" ></text>
</g>
<g >
<title>delay_halt (924,097 samples, 0.12%)</title><rect x="108.5" y="53" width="1.4" height="15.0" fill="rgb(250,207,49)" rx="2" ry="2" />
<text  x="111.48" y="63.5" ></text>
</g>
<g >
<title>scheduler_tick (924,097 samples, 0.12%)</title><rect x="108.5" y="101" width="1.4" height="15.0" fill="rgb(246,190,45)" rx="2" ry="2" />
<text  x="111.48" y="111.5" ></text>
</g>
<g >
<title>entry_SYSCALL_64_after_hwframe (923,969 samples, 0.12%)</title><rect x="266.7" y="245" width="1.4" height="15.0" fill="rgb(218,63,15)" rx="2" ry="2" />
<text  x="269.68" y="255.5" ></text>
</g>
<g >
<title>__hrtimer_run_queues (1,848,369 samples, 0.24%)</title><rect x="888.9" y="181" width="2.8" height="15.0" fill="rgb(237,150,35)" rx="2" ry="2" />
<text  x="891.89" y="191.5" ></text>
</g>
<g >
<title>w2c_decode__webp__wasmsimd_ConvertBGRAToRGB_SSE2 (16,471,018 samples, 2.12%)</title><rect x="319.8" y="261" width="25.0" height="15.0" fill="rgb(230,117,28)" rx="2" ry="2" />
<text  x="322.75" y="271.5" >w..</text>
</g>
<g >
<title>tick_sched_timer (924,031 samples, 0.12%)</title><rect x="233.9" y="149" width="1.4" height="15.0" fill="rgb(254,227,54)" rx="2" ry="2" />
<text  x="236.87" y="159.5" ></text>
</g>
<g >
<title>do_syscall_64 (468,400 samples, 0.06%)</title><rect x="11.4" y="229" width="0.7" height="15.0" fill="rgb(209,20,4)" rx="2" ry="2" />
<text  x="14.40" y="239.5" ></text>
</g>
<g >
<title>tick_sched_handle (924,097 samples, 0.12%)</title><rect x="108.5" y="133" width="1.4" height="15.0" fill="rgb(219,68,16)" rx="2" ry="2" />
<text  x="111.48" y="143.5" ></text>
</g>
<g >
<title>hrtimer_interrupt (924,097 samples, 0.12%)</title><rect x="108.5" y="181" width="1.4" height="15.0" fill="rgb(228,109,26)" rx="2" ry="2" />
<text  x="111.48" y="191.5" ></text>
</g>
<g >
<title>__kmem_cache_free (356,651 samples, 0.05%)</title><rect x="11.4" y="149" width="0.5" height="15.0" fill="rgb(226,99,23)" rx="2" ry="2" />
<text  x="14.40" y="159.5" ></text>
</g>
<g >
<title>w2c_decode__webp__wasmsimd_PredictorAdd7_SSE2 (10,161,192 samples, 1.31%)</title><rect x="133.6" y="245" width="15.5" height="15.0" fill="rgb(211,28,6)" rx="2" ry="2" />
<text  x="136.64" y="255.5" ></text>
</g>
<g >
<title>task_tick_fair (924,031 samples, 0.12%)</title><rect x="233.9" y="85" width="1.4" height="15.0" fill="rgb(217,57,13)" rx="2" ry="2" />
<text  x="236.87" y="95.5" ></text>
</g>
<g >
<title>mas_wr_bnode (923,969 samples, 0.12%)</title><rect x="266.7" y="133" width="1.4" height="15.0" fill="rgb(248,198,47)" rx="2" ry="2" />
<text  x="269.68" y="143.5" ></text>
</g>
<g >
<title>cgroup_rstat_flush_locked (924,102 samples, 0.12%)</title><rect x="10.0" y="53" width="1.4" height="15.0" fill="rgb(209,19,4)" rx="2" ry="2" />
<text  x="13.00" y="63.5" ></text>
</g>
<g >
<title>w2c_decode__webp__wasmsimd_PredictorAdd5_SSE2 (7,387,184 samples, 0.95%)</title><rect x="122.4" y="245" width="11.2" height="15.0" fill="rgb(224,87,20)" rx="2" ry="2" />
<text  x="125.41" y="255.5" ></text>
</g>
<g >
<title>call_timer_fn (922,324 samples, 0.12%)</title><rect x="887.5" y="149" width="1.4" height="15.0" fill="rgb(234,135,32)" rx="2" ry="2" />
<text  x="890.49" y="159.5" ></text>
</g>
<g >
<title>task_tick_fair (1,848,369 samples, 0.24%)</title><rect x="888.9" y="101" width="2.8" height="15.0" fill="rgb(217,57,13)" rx="2" ry="2" />
<text  x="891.89" y="111.5" ></text>
</g>
<g >
<title>do_syscall_64 (924,102 samples, 0.12%)</title><rect x="10.0" y="213" width="1.4" height="15.0" fill="rgb(209,20,4)" rx="2" ry="2" />
<text  x="13.00" y="223.5" ></text>
</g>
<g >
<title>w2c_decode__webp__wasmsimd_ParseHeadersInternal (461,655 samples, 0.06%)</title><rect x="897.3" y="261" width="0.7" height="15.0" fill="rgb(252,220,52)" rx="2" ry="2" />
<text  x="900.31" y="271.5" ></text>
</g>
<g >
<title>update_process_times (1,848,369 samples, 0.24%)</title><rect x="888.9" y="133" width="2.8" height="15.0" fill="rgb(250,209,50)" rx="2" ry="2" />
<text  x="891.89" y="143.5" ></text>
</g>
<g >
<title>entry_SYSCALL_64_after_hwframe (924,102 samples, 0.12%)</title><rect x="10.0" y="229" width="1.4" height="15.0" fill="rgb(218,63,15)" rx="2" ry="2" />
<text  x="13.00" y="239.5" ></text>
</g>
<g >
<title>vfs_write (924,102 samples, 0.12%)</title><rect x="10.0" y="181" width="1.4" height="15.0" fill="rgb(250,209,50)" rx="2" ry="2" />
<text  x="13.00" y="191.5" ></text>
</g>
<g >
<title>__memmove_avx_unaligned_erms (922,138 samples, 0.12%)</title><rect x="265.3" y="261" width="1.4" height="15.0" fill="rgb(205,0,0)" rx="2" ry="2" />
<text  x="268.28" y="271.5" ></text>
</g>
<g >
<title>w2c_decode__webp__wasmsimd_DecodeImageStream (3,694,240 samples, 0.48%)</title><rect x="891.7" y="261" width="5.6" height="15.0" fill="rgb(233,130,31)" rx="2" ry="2" />
<text  x="894.69" y="271.5" ></text>
</g>
<g >
<title>tick_sched_handle (924,031 samples, 0.12%)</title><rect x="233.9" y="133" width="1.4" height="15.0" fill="rgb(219,68,16)" rx="2" ry="2" />
<text  x="236.87" y="143.5" ></text>
</g>
<g >
<title>mas_store_prealloc (923,969 samples, 0.12%)</title><rect x="266.7" y="149" width="1.4" height="15.0" fill="rgb(223,85,20)" rx="2" ry="2" />
<text  x="269.68" y="159.5" ></text>
</g>
<g >
<title>all (776,793,335 samples, 100%)</title><rect x="10.0" y="293" width="1180.0" height="15.0" fill="rgb(213,39,9)" rx="2" ry="2" />
<text  x="13.00" y="303.5" ></text>
</g>
<g >
<title>mem_cgroup_wb_stats (924,102 samples, 0.12%)</title><rect x="10.0" y="101" width="1.4" height="15.0" fill="rgb(211,28,6)" rx="2" ry="2" />
<text  x="13.00" y="111.5" ></text>
</g>
<g >
<title>generic_perform_write (924,102 samples, 0.12%)</title><rect x="10.0" y="149" width="1.4" height="15.0" fill="rgb(236,146,35)" rx="2" ry="2" />
<text  x="13.00" y="159.5" ></text>
</g>
<g >
<title>w2c_decode__webp__wasmsimd_ReadHuffmanCode (5,863,963 samples, 0.75%)</title><rect x="1072.0" y="261" width="8.9" height="15.0" fill="rgb(222,79,18)" rx="2" ry="2" />
<text  x="1074.98" y="271.5" ></text>
</g>
<g >
<title>perf_event_task_tick (924,097 samples, 0.12%)</title><rect x="108.5" y="85" width="1.4" height="15.0" fill="rgb(205,3,0)" rx="2" ry="2" />
<text  x="111.48" y="95.5" ></text>
</g>
<g >
<title>w2c_decode__webp__wasmsimd_VP8LBuildHuffmanTable (923,969 samples, 0.12%)</title><rect x="1081.5" y="261" width="1.4" height="15.0" fill="rgb(243,177,42)" rx="2" ry="2" />
<text  x="1084.49" y="271.5" ></text>
</g>
<g >
<title>__hrtimer_run_queues (924,031 samples, 0.12%)</title><rect x="233.9" y="165" width="1.4" height="15.0" fill="rgb(237,150,35)" rx="2" ry="2" />
<text  x="236.87" y="175.5" ></text>
</g>
<g >
<title>update_curr (924,363 samples, 0.12%)</title><rect x="888.9" y="85" width="1.4" height="15.0" fill="rgb(227,105,25)" rx="2" ry="2" />
<text  x="891.89" y="95.5" ></text>
</g>
<g >
<title>w2c_decode__webp__wasmsimd_PredictorAdd13_SSE2 (45,993,434 samples, 5.92%)</title><rect x="40.0" y="245" width="69.9" height="15.0" fill="rgb(220,70,16)" rx="2" ry="2" />
<text  x="43.01" y="255.5" >w2c_dec..</text>
</g>
<g >
<title>sysvec_apic_timer_interrupt (924,031 samples, 0.12%)</title><rect x="233.9" y="213" width="1.4" height="15.0" fill="rgb(220,69,16)" rx="2" ry="2" />
<text  x="236.87" y="223.5" ></text>
</g>
<g >
<title>fq_flush_timeout (922,324 samples, 0.12%)</title><rect x="887.5" y="133" width="1.4" height="15.0" fill="rgb(213,40,9)" rx="2" ry="2" />
<text  x="890.49" y="143.5" ></text>
</g>
<g >
<title>w2c_decode__webp__wasmsimd_memcpy (2,761,835 samples, 0.36%)</title><rect x="1185.8" y="261" width="4.2" height="15.0" fill="rgb(249,206,49)" rx="2" ry="2" />
<text  x="1188.76" y="271.5" ></text>
</g>
<g >
<title>begin_new_exec (111,749 samples, 0.01%)</title><rect x="11.9" y="149" width="0.2" height="15.0" fill="rgb(245,184,44)" rx="2" ry="2" />
<text  x="14.95" y="159.5" ></text>
</g>
<g >
<title>w2c_decode__webp__wasmsimd_DecodeImageData (360,037,685 samples, 46.35%)</title><rect x="344.8" y="261" width="546.9" height="15.0" fill="rgb(246,191,45)" rx="2" ry="2" />
<text  x="347.77" y="271.5" >w2c_decode__webp__wasmsimd_DecodeImageData</text>
</g>
<g >
<title>ext4_buffered_write_iter (924,102 samples, 0.12%)</title><rect x="10.0" y="165" width="1.4" height="15.0" fill="rgb(213,40,9)" rx="2" ry="2" />
<text  x="13.00" y="175.5" ></text>
</g>
<g >
<title>mas_mab_cp (923,969 samples, 0.12%)</title><rect x="266.7" y="117" width="1.4" height="15.0" fill="rgb(235,141,33)" rx="2" ry="2" />
<text  x="269.68" y="127.5" ></text>
</g>
<g >
<title>w2c_decode__webp__wasmsimd_TransformColorInverse_SSE2 (56,746,371 samples, 7.31%)</title><rect x="149.1" y="245" width="86.2" height="15.0" fill="rgb(245,185,44)" rx="2" ry="2" />
<text  x="152.07" y="255.5" >w2c_decode..</text>
</g>
<g >
<title>tick_sched_handle (1,848,369 samples, 0.24%)</title><rect x="888.9" y="149" width="2.8" height="15.0" fill="rgb(219,68,16)" rx="2" ry="2" />
<text  x="891.89" y="159.5" ></text>
</g>
<g >
<title>ksys_write (924,102 samples, 0.12%)</title><rect x="10.0" y="197" width="1.4" height="15.0" fill="rgb(205,4,1)" rx="2" ry="2" />
<text  x="13.00" y="207.5" ></text>
</g>
<g >
<title>handle_mm_fault (393,733 samples, 0.05%)</title><rect x="1080.9" y="197" width="0.6" height="15.0" fill="rgb(234,135,32)" rx="2" ry="2" />
<text  x="1083.89" y="207.5" ></text>
</g>
<g >
<title>w2c_decode__webp__wasmsimd_PredictorAdd2_SSE2 (923,117 samples, 0.12%)</title><rect x="1067.8" y="261" width="1.4" height="15.0" fill="rgb(243,176,42)" rx="2" ry="2" />
<text  x="1070.77" y="271.5" ></text>
</g>
<g >
<title>__vm_munmap (923,969 samples, 0.12%)</title><rect x="266.7" y="197" width="1.4" height="15.0" fill="rgb(231,121,28)" rx="2" ry="2" />
<text  x="269.68" y="207.5" ></text>
</g>
<g >
<title>next_uptodate_page (393,733 samples, 0.05%)</title><rect x="1080.9" y="133" width="0.6" height="15.0" fill="rgb(210,25,6)" rx="2" ry="2" />
<text  x="1083.89" y="143.5" ></text>
</g>
<g >
<title>bprm_execve (468,400 samples, 0.06%)</title><rect x="11.4" y="181" width="0.7" height="15.0" fill="rgb(218,61,14)" rx="2" ry="2" />
<text  x="14.40" y="191.5" ></text>
</g>
<g >
<title>hrtimer_active (924,031 samples, 0.12%)</title><rect x="233.9" y="69" width="1.4" height="15.0" fill="rgb(212,34,8)" rx="2" ry="2" />
<text  x="236.87" y="79.5" ></text>
</g>
<g >
<title>w2c_decode__webp__wasmsimd_VP8LReadBits (1,847,361 samples, 0.24%)</title><rect x="1183.0" y="261" width="2.8" height="15.0" fill="rgb(228,108,26)" rx="2" ry="2" />
<text  x="1185.95" y="271.5" ></text>
</g>
<g >
<title>hrtimer_interrupt (1,848,369 samples, 0.24%)</title><rect x="888.9" y="197" width="2.8" height="15.0" fill="rgb(228,109,26)" rx="2" ry="2" />
<text  x="891.89" y="207.5" ></text>
</g>
<g >
<title>asm_sysvec_apic_timer_interrupt (2,770,693 samples, 0.36%)</title><rect x="887.5" y="245" width="4.2" height="15.0" fill="rgb(232,127,30)" rx="2" ry="2" />
<text  x="890.49" y="255.5" ></text>
</g>
<g >
<title>do_mas_munmap (923,969 samples, 0.12%)</title><rect x="266.7" y="181" width="1.4" height="15.0" fill="rgb(224,90,21)" rx="2" ry="2" />
<text  x="269.68" y="191.5" ></text>
</g>
<g >
<title>exc_page_fault (393,733 samples, 0.05%)</title><rect x="1080.9" y="229" width="0.6" height="15.0" fill="rgb(212,35,8)" rx="2" ry="2" />
<text  x="1083.89" y="239.5" ></text>
</g>
<g >
<title>asm_exc_page_fault (458,796 samples, 0.06%)</title><rect x="263.2" y="245" width="0.7" height="15.0" fill="rgb(225,93,22)" rx="2" ry="2" />
<text  x="266.18" y="255.5" ></text>
</g>
<g >
<title>__sysvec_apic_timer_interrupt (924,097 samples, 0.12%)</title><rect x="108.5" y="197" width="1.4" height="15.0" fill="rgb(242,173,41)" rx="2" ry="2" />
<text  x="111.48" y="207.5" ></text>
</g>
<g >
<title>w2c_decode__webp__wasmsimd_VP8LInverseTransform (18,371,493 samples, 2.37%)</title><rect x="235.3" y="245" width="27.9" height="15.0" fill="rgb(225,96,23)" rx="2" ry="2" />
<text  x="238.27" y="255.5" >w..</text>
</g>
<g >
<title>__irq_exit_rcu (922,324 samples, 0.12%)</title><rect x="887.5" y="213" width="1.4" height="15.0" fill="rgb(227,101,24)" rx="2" ry="2" />
<text  x="890.49" y="223.5" ></text>
</g>
<g >
<title>w2c_decode__webp__wasmsimd_PredictorAdd11_SSE2 (110,832,753 samples, 14.27%)</title><rect x="898.0" y="261" width="168.4" height="15.0" fill="rgb(233,130,31)" rx="2" ry="2" />
<text  x="901.01" y="271.5" >w2c_decode__webp__was..</text>
</g>
<g >
<title>do_syscall_64 (923,969 samples, 0.12%)</title><rect x="266.7" y="229" width="1.4" height="15.0" fill="rgb(209,20,4)" rx="2" ry="2" />
<text  x="269.68" y="239.5" ></text>
</g>
<g >
<title>w2c_decode__webp__wasmsimd_VP8LDoFillBitWindow (65,872,571 samples, 8.48%)</title><rect x="1082.9" y="261" width="100.1" height="15.0" fill="rgb(211,29,7)" rx="2" ry="2" />
<text  x="1085.89" y="271.5" >w2c_decode__..</text>
</g>
<g >
<title>tick_sched_timer (1,848,369 samples, 0.24%)</title><rect x="888.9" y="165" width="2.8" height="15.0" fill="rgb(254,227,54)" rx="2" ry="2" />
<text  x="891.89" y="175.5" ></text>
</g>
<g >
<title>filemap_map_pages (393,733 samples, 0.05%)</title><rect x="1080.9" y="149" width="0.6" height="15.0" fill="rgb(229,112,27)" rx="2" ry="2" />
<text  x="1083.89" y="159.5" ></text>
</g>
<g >
<title>asm_exc_page_fault (393,733 samples, 0.05%)</title><rect x="1080.9" y="245" width="0.6" height="15.0" fill="rgb(225,93,22)" rx="2" ry="2" />
<text  x="1083.89" y="255.5" ></text>
</g>
<g >
<title>__softirqentry_text_start (922,324 samples, 0.12%)</title><rect x="887.5" y="197" width="1.4" height="15.0" fill="rgb(234,135,32)" rx="2" ry="2" />
<text  x="890.49" y="207.5" ></text>
</g>
<g >
<title>w2c_decode__webp__wasmsimd_AddGreenToBlueAndRed_SSE2 (8,202,409 samples, 1.06%)</title><rect x="12.1" y="245" width="12.5" height="15.0" fill="rgb(231,122,29)" rx="2" ry="2" />
<text  x="15.12" y="255.5" ></text>
</g>
<g >
<title>update_load_avg (924,006 samples, 0.12%)</title><rect x="890.3" y="85" width="1.4" height="15.0" fill="rgb(240,165,39)" rx="2" ry="2" />
<text  x="893.29" y="95.5" ></text>
</g>
<g >
<title>w2c_decode__webp__wasmsimd_PredictorAdd4_SSE2 (923,260 samples, 0.12%)</title><rect x="1069.2" y="261" width="1.4" height="15.0" fill="rgb(230,117,28)" rx="2" ry="2" />
<text  x="1072.17" y="271.5" ></text>
</g>
<g >
<title>w2c_decode__webp__wasmsimd_PredictorAdd12_SSE2 (8,314,690 samples, 1.07%)</title><rect x="27.4" y="245" width="12.6" height="15.0" fill="rgb(226,100,24)" rx="2" ry="2" />
<text  x="30.38" y="255.5" ></text>
</g>
<g >
<title>load_elf_binary (468,400 samples, 0.06%)</title><rect x="11.4" y="165" width="0.7" height="15.0" fill="rgb(223,83,20)" rx="2" ry="2" />
<text  x="14.40" y="175.5" ></text>
</g>
<g >
<title>w2c_decode__webp__wasmsimd_ProcessRows (923,086 samples, 0.12%)</title><rect x="1070.6" y="261" width="1.4" height="15.0" fill="rgb(248,202,48)" rx="2" ry="2" />
<text  x="1073.58" y="271.5" ></text>
</g>
<g >
<title>__x64_sys_munmap (923,969 samples, 0.12%)</title><rect x="266.7" y="213" width="1.4" height="15.0" fill="rgb(206,7,1)" rx="2" ry="2" />
<text  x="269.68" y="223.5" ></text>
</g>
<g >
<title>amd_iommu_flush_iotlb_all (922,324 samples, 0.12%)</title><rect x="887.5" y="101" width="1.4" height="15.0" fill="rgb(248,198,47)" rx="2" ry="2" />
<text  x="890.49" y="111.5" ></text>
</g>
<g >
<title>scheduler_tick (1,848,369 samples, 0.24%)</title><rect x="888.9" y="117" width="2.8" height="15.0" fill="rgb(246,190,45)" rx="2" ry="2" />
<text  x="891.89" y="127.5" ></text>
</g>
<g >
<title>run_timer_softirq (922,324 samples, 0.12%)</title><rect x="887.5" y="181" width="1.4" height="15.0" fill="rgb(249,206,49)" rx="2" ry="2" />
<text  x="890.49" y="191.5" ></text>
</g>
<g >
<title>update_process_times (924,031 samples, 0.12%)</title><rect x="233.9" y="117" width="1.4" height="15.0" fill="rgb(250,209,50)" rx="2" ry="2" />
<text  x="236.87" y="127.5" ></text>
</g>
<g >
<title>__hrtimer_run_queues (924,097 samples, 0.12%)</title><rect x="108.5" y="165" width="1.4" height="15.0" fill="rgb(237,150,35)" rx="2" ry="2" />
<text  x="111.48" y="175.5" ></text>
</g>
<g >
<title>do_execveat_common.isra.0 (468,400 samples, 0.06%)</title><rect x="11.4" y="197" width="0.7" height="15.0" fill="rgb(231,123,29)" rx="2" ry="2" />
<text  x="14.40" y="207.5" ></text>
</g>
<g >
<title>w2c_decode__webp__wasmsimd_BuildHuffmanTable (34,012,762 samples, 4.38%)</title><rect x="268.1" y="261" width="51.7" height="15.0" fill="rgb(218,63,15)" rx="2" ry="2" />
<text  x="271.08" y="271.5" >w2c_d..</text>
</g>
<g >
<title>do_user_addr_fault (393,733 samples, 0.05%)</title><rect x="1080.9" y="213" width="0.6" height="15.0" fill="rgb(228,108,25)" rx="2" ry="2" />
<text  x="1083.89" y="223.5" ></text>
</g>
<g >
<title>balance_dirty_pages_ratelimited_flags (924,102 samples, 0.12%)</title><rect x="10.0" y="133" width="1.4" height="15.0" fill="rgb(207,10,2)" rx="2" ry="2" />
<text  x="13.00" y="143.5" ></text>
</g>
</g>
</svg>
