<?xml version="1.0" standalone="no"?>
<!DOCTYPE svg PUBLIC "-//W3C//DTD SVG 1.1//EN" "http://www.w3.org/Graphics/SVG/1.1/DTD/svg11.dtd">
<svg version="1.1" width="1200" height="486" onload="init(evt)" viewBox="0 0 1200 486" xmlns="http://www.w3.org/2000/svg" xmlns:xlink="http://www.w3.org/1999/xlink">
<!-- Flame graph stack visualization. See https://github.com/brendangregg/FlameGraph for latest version, and http://www.brendangregg.com/flamegraphs.html for examples. -->
<!-- NOTES:  -->
<defs>
	<linearGradient id="background" y1="0" y2="1" x1="0" x2="0" >
		<stop stop-color="#eeeeee" offset="5%" />
		<stop stop-color="#eeeeb0" offset="95%" />
	</linearGradient>
</defs>
<style type="text/css">
	text { font-family:Verdana; font-size:12px; fill:rgb(0,0,0); }
	#search, #ignorecase { opacity:0.1; cursor:pointer; }
	#search:hover, #search.show, #ignorecase:hover, #ignorecase.show { opacity:1; }
	#subtitle { text-anchor:middle; font-color:rgb(160,160,160); }
	#title { text-anchor:middle; font-size:17px}
	#unzoom { cursor:pointer; }
	#frames > *:hover { stroke:black; stroke-width:0.5; cursor:pointer; }
	.hide { display:none; }
	.parent { opacity:0.5; }
</style>
<script type="text/ecmascript">
<![CDATA[
	"use strict";
	var details, searchbtn, unzoombtn, matchedtxt, svg, searching, currentSearchTerm, ignorecase, ignorecaseBtn;
	function init(evt) {
		details = document.getElementById("details").firstChild;
		searchbtn = document.getElementById("search");
		ignorecaseBtn = document.getElementById("ignorecase");
		unzoombtn = document.getElementById("unzoom");
		matchedtxt = document.getElementById("matched");
		svg = document.getElementsByTagName("svg")[0];
		searching = 0;
		currentSearchTerm = null;

		// use GET parameters to restore a flamegraphs state.
		var params = get_params();
		if (params.x && params.y)
			zoom(find_group(document.querySelector('[x="' + params.x + '"][y="' + params.y + '"]')));
                if (params.s) search(params.s);
	}

	// event listeners
	window.addEventListener("click", function(e) {
		var target = find_group(e.target);
		if (target) {
			if (target.nodeName == "a") {
				if (e.ctrlKey === false) return;
				e.preventDefault();
			}
			if (target.classList.contains("parent")) unzoom(true);
			zoom(target);
			if (!document.querySelector('.parent')) {
				// we have basically done a clearzoom so clear the url
				var params = get_params();
				if (params.x) delete params.x;
				if (params.y) delete params.y;
				history.replaceState(null, null, parse_params(params));
				unzoombtn.classList.add("hide");
				return;
			}

			// set parameters for zoom state
			var el = target.querySelector("rect");
			if (el && el.attributes && el.attributes.y && el.attributes._orig_x) {
				var params = get_params()
				params.x = el.attributes._orig_x.value;
				params.y = el.attributes.y.value;
				history.replaceState(null, null, parse_params(params));
			}
		}
		else if (e.target.id == "unzoom") clearzoom();
		else if (e.target.id == "search") search_prompt();
		else if (e.target.id == "ignorecase") toggle_ignorecase();
	}, false)

	// mouse-over for info
	// show
	window.addEventListener("mouseover", function(e) {
		var target = find_group(e.target);
		if (target) details.nodeValue = "Function: " + g_to_text(target);
	}, false)

	// clear
	window.addEventListener("mouseout", function(e) {
		var target = find_group(e.target);
		if (target) details.nodeValue = ' ';
	}, false)

	// ctrl-F for search
	// ctrl-I to toggle case-sensitive search
	window.addEventListener("keydown",function (e) {
		if (e.keyCode === 114 || (e.ctrlKey && e.keyCode === 70)) {
			e.preventDefault();
			search_prompt();
		}
		else if (e.ctrlKey && e.keyCode === 73) {
			e.preventDefault();
			toggle_ignorecase();
		}
	}, false)

	// functions
	function get_params() {
		var params = {};
		var paramsarr = window.location.search.substr(1).split('&');
		for (var i = 0; i < paramsarr.length; ++i) {
			var tmp = paramsarr[i].split("=");
			if (!tmp[0] || !tmp[1]) continue;
			params[tmp[0]]  = decodeURIComponent(tmp[1]);
		}
		return params;
	}
	function parse_params(params) {
		var uri = "?";
		for (var key in params) {
			uri += key + '=' + encodeURIComponent(params[key]) + '&';
		}
		if (uri.slice(-1) == "&")
			uri = uri.substring(0, uri.length - 1);
		if (uri == '?')
			uri = window.location.href.split('?')[0];
		return uri;
	}
	function find_child(node, selector) {
		var children = node.querySelectorAll(selector);
		if (children.length) return children[0];
	}
	function find_group(node) {
		var parent = node.parentElement;
		if (!parent) return;
		if (parent.id == "frames") return node;
		return find_group(parent);
	}
	function orig_save(e, attr, val) {
		if (e.attributes["_orig_" + attr] != undefined) return;
		if (e.attributes[attr] == undefined) return;
		if (val == undefined) val = e.attributes[attr].value;
		e.setAttribute("_orig_" + attr, val);
	}
	function orig_load(e, attr) {
		if (e.attributes["_orig_"+attr] == undefined) return;
		e.attributes[attr].value = e.attributes["_orig_" + attr].value;
		e.removeAttribute("_orig_"+attr);
	}
	function g_to_text(e) {
		var text = find_child(e, "title").firstChild.nodeValue;
		return (text)
	}
	function g_to_func(e) {
		var func = g_to_text(e);
		// if there's any manipulation we want to do to the function
		// name before it's searched, do it here before returning.
		return (func);
	}
	function update_text(e) {
		var r = find_child(e, "rect");
		var t = find_child(e, "text");
		var w = parseFloat(r.attributes.width.value) -3;
		var txt = find_child(e, "title").textContent.replace(/\([^(]*\)$/,"");
		t.attributes.x.value = parseFloat(r.attributes.x.value) + 3;

		// Smaller than this size won't fit anything
		if (w < 2 * 12 * 0.59) {
			t.textContent = "";
			return;
		}

		t.textContent = txt;
		var sl = t.getSubStringLength(0, txt.length);
		// check if only whitespace or if we can fit the entire string into width w
		if (/^ *$/.test(txt) || sl < w)
			return;

		// this isn't perfect, but gives a good starting point
		// and avoids calling getSubStringLength too often
		var start = Math.floor((w/sl) * txt.length);
		for (var x = start; x > 0; x = x-2) {
			if (t.getSubStringLength(0, x + 2) <= w) {
				t.textContent = txt.substring(0, x) + "..";
				return;
			}
		}
		t.textContent = "";
	}

	// zoom
	function zoom_reset(e) {
		if (e.attributes != undefined) {
			orig_load(e, "x");
			orig_load(e, "width");
		}
		if (e.childNodes == undefined) return;
		for (var i = 0, c = e.childNodes; i < c.length; i++) {
			zoom_reset(c[i]);
		}
	}
	function zoom_child(e, x, ratio) {
		if (e.attributes != undefined) {
			if (e.attributes.x != undefined) {
				orig_save(e, "x");
				e.attributes.x.value = (parseFloat(e.attributes.x.value) - x - 10) * ratio + 10;
				if (e.tagName == "text")
					e.attributes.x.value = find_child(e.parentNode, "rect[x]").attributes.x.value + 3;
			}
			if (e.attributes.width != undefined) {
				orig_save(e, "width");
				e.attributes.width.value = parseFloat(e.attributes.width.value) * ratio;
			}
		}

		if (e.childNodes == undefined) return;
		for (var i = 0, c = e.childNodes; i < c.length; i++) {
			zoom_child(c[i], x - 10, ratio);
		}
	}
	function zoom_parent(e) {
		if (e.attributes) {
			if (e.attributes.x != undefined) {
				orig_save(e, "x");
				e.attributes.x.value = 10;
			}
			if (e.attributes.width != undefined) {
				orig_save(e, "width");
				e.attributes.width.value = parseInt(svg.width.baseVal.value) - (10 * 2);
			}
		}
		if (e.childNodes == undefined) return;
		for (var i = 0, c = e.childNodes; i < c.length; i++) {
			zoom_parent(c[i]);
		}
	}
	function zoom(node) {
		var attr = find_child(node, "rect").attributes;
		var width = parseFloat(attr.width.value);
		var xmin = parseFloat(attr.x.value);
		var xmax = parseFloat(xmin + width);
		var ymin = parseFloat(attr.y.value);
		var ratio = (svg.width.baseVal.value - 2 * 10) / width;

		// XXX: Workaround for JavaScript float issues (fix me)
		var fudge = 0.0001;

		unzoombtn.classList.remove("hide");

		var el = document.getElementById("frames").children;
		for (var i = 0; i < el.length; i++) {
			var e = el[i];
			var a = find_child(e, "rect").attributes;
			var ex = parseFloat(a.x.value);
			var ew = parseFloat(a.width.value);
			var upstack;
			// Is it an ancestor
			if (0 == 0) {
				upstack = parseFloat(a.y.value) > ymin;
			} else {
				upstack = parseFloat(a.y.value) < ymin;
			}
			if (upstack) {
				// Direct ancestor
				if (ex <= xmin && (ex+ew+fudge) >= xmax) {
					e.classList.add("parent");
					zoom_parent(e);
					update_text(e);
				}
				// not in current path
				else
					e.classList.add("hide");
			}
			// Children maybe
			else {
				// no common path
				if (ex < xmin || ex + fudge >= xmax) {
					e.classList.add("hide");
				}
				else {
					zoom_child(e, xmin, ratio);
					update_text(e);
				}
			}
		}
		search();
	}
	function unzoom(dont_update_text) {
		unzoombtn.classList.add("hide");
		var el = document.getElementById("frames").children;
		for(var i = 0; i < el.length; i++) {
			el[i].classList.remove("parent");
			el[i].classList.remove("hide");
			zoom_reset(el[i]);
			if(!dont_update_text) update_text(el[i]);
		}
		search();
	}
	function clearzoom() {
		unzoom();

		// remove zoom state
		var params = get_params();
		if (params.x) delete params.x;
		if (params.y) delete params.y;
		history.replaceState(null, null, parse_params(params));
	}

	// search
	function toggle_ignorecase() {
		ignorecase = !ignorecase;
		if (ignorecase) {
			ignorecaseBtn.classList.add("show");
		} else {
			ignorecaseBtn.classList.remove("show");
		}
		reset_search();
		search();
	}
	function reset_search() {
		var el = document.querySelectorAll("#frames rect");
		for (var i = 0; i < el.length; i++) {
			orig_load(el[i], "fill")
		}
		var params = get_params();
		delete params.s;
		history.replaceState(null, null, parse_params(params));
	}
	function search_prompt() {
		if (!searching) {
			var term = prompt("Enter a search term (regexp " +
			    "allowed, eg: ^ext4_)"
			    + (ignorecase ? ", ignoring case" : "")
			    + "\nPress Ctrl-i to toggle case sensitivity", "");
			if (term != null) search(term);
		} else {
			reset_search();
			searching = 0;
			currentSearchTerm = null;
			searchbtn.classList.remove("show");
			searchbtn.firstChild.nodeValue = "Search"
			matchedtxt.classList.add("hide");
			matchedtxt.firstChild.nodeValue = ""
		}
	}
	function search(term) {
		if (term) currentSearchTerm = term;

		var re = new RegExp(currentSearchTerm, ignorecase ? 'i' : '');
		var el = document.getElementById("frames").children;
		var matches = new Object();
		var maxwidth = 0;
		for (var i = 0; i < el.length; i++) {
			var e = el[i];
			var func = g_to_func(e);
			var rect = find_child(e, "rect");
			if (func == null || rect == null)
				continue;

			// Save max width. Only works as we have a root frame
			var w = parseFloat(rect.attributes.width.value);
			if (w > maxwidth)
				maxwidth = w;

			if (func.match(re)) {
				// highlight
				var x = parseFloat(rect.attributes.x.value);
				orig_save(rect, "fill");
				rect.attributes.fill.value = "rgb(230,0,230)";

				// remember matches
				if (matches[x] == undefined) {
					matches[x] = w;
				} else {
					if (w > matches[x]) {
						// overwrite with parent
						matches[x] = w;
					}
				}
				searching = 1;
			}
		}
		if (!searching)
			return;
		var params = get_params();
		params.s = currentSearchTerm;
		history.replaceState(null, null, parse_params(params));

		searchbtn.classList.add("show");
		searchbtn.firstChild.nodeValue = "Reset Search";

		// calculate percent matched, excluding vertical overlap
		var count = 0;
		var lastx = -1;
		var lastw = 0;
		var keys = Array();
		for (k in matches) {
			if (matches.hasOwnProperty(k))
				keys.push(k);
		}
		// sort the matched frames by their x location
		// ascending, then width descending
		keys.sort(function(a, b){
			return a - b;
		});
		// Step through frames saving only the biggest bottom-up frames
		// thanks to the sort order. This relies on the tree property
		// where children are always smaller than their parents.
		var fudge = 0.0001;	// JavaScript floating point
		for (var k in keys) {
			var x = parseFloat(keys[k]);
			var w = matches[keys[k]];
			if (x >= lastx + lastw - fudge) {
				count += w;
				lastx = x;
				lastw = w;
			}
		}
		// display matched percent
		matchedtxt.classList.remove("hide");
		var pct = 100 * count / maxwidth;
		if (pct != 100) pct = pct.toFixed(1)
		matchedtxt.firstChild.nodeValue = "Matched: " + pct + "%";
	}
]]>
</script>
<rect x="0.0" y="0" width="1200.0" height="486.0" fill="url(#background)"  />
<text id="title" x="600.00" y="24" >Flame Graph</text>
<text id="details" x="10.00" y="469" > </text>
<text id="unzoom" x="10.00" y="24" class="hide">Reset Zoom</text>
<text id="search" x="1090.00" y="24" >Search</text>
<text id="ignorecase" x="1174.00" y="24" >ic</text>
<text id="matched" x="1090.00" y="469" > </text>
<g id="frames">
<g >
<title>w2c_decode__webp__wasm_BuildHuffmanTable (924,283 samples, 0.09%)</title><rect x="40.0" y="405" width="1.0" height="15.0" fill="rgb(240,161,38)" rx="2" ry="2" />
<text  x="42.96" y="415.5" ></text>
</g>
<g >
<title>do_user_addr_fault (645,294 samples, 0.06%)</title><rect x="15.4" y="341" width="0.7" height="15.0" fill="rgb(228,108,25)" rx="2" ry="2" />
<text  x="18.35" y="351.5" ></text>
</g>
<g >
<title>w2c_decode__webp__wasm_HE4_C (4,619,320 samples, 0.45%)</title><rect x="675.2" y="405" width="5.4" height="15.0" fill="rgb(233,130,31)" rx="2" ry="2" />
<text  x="678.24" y="415.5" ></text>
</g>
<g >
<title>__handle_irq_event_percpu (923,262 samples, 0.09%)</title><rect x="38.9" y="165" width="1.1" height="15.0" fill="rgb(236,147,35)" rx="2" ry="2" />
<text  x="41.89" y="175.5" ></text>
</g>
<g >
<title>asm_exc_page_fault (645,294 samples, 0.06%)</title><rect x="15.4" y="373" width="0.7" height="15.0" fill="rgb(225,93,22)" rx="2" ry="2" />
<text  x="18.35" y="383.5" ></text>
</g>
<g >
<title>ext4_fill_raw_inode (923,086 samples, 0.09%)</title><rect x="17.2" y="197" width="1.0" height="15.0" fill="rgb(240,165,39)" rx="2" ry="2" />
<text  x="20.17" y="207.5" ></text>
</g>
<g >
<title>asm_exc_page_fault (865,315 samples, 0.08%)</title><rect x="67.2" y="389" width="1.0" height="15.0" fill="rgb(225,93,22)" rx="2" ry="2" />
<text  x="70.15" y="399.5" ></text>
</g>
<g >
<title>exc_page_fault (645,294 samples, 0.06%)</title><rect x="15.4" y="357" width="0.7" height="15.0" fill="rgb(212,35,8)" rx="2" ry="2" />
<text  x="18.35" y="367.5" ></text>
</g>
<g >
<title>filemap_map_pages (645,294 samples, 0.06%)</title><rect x="15.4" y="277" width="0.7" height="15.0" fill="rgb(229,112,27)" rx="2" ry="2" />
<text  x="18.35" y="287.5" ></text>
</g>
<g >
<title>do_syscall_64 (323,704 samples, 0.03%)</title><rect x="18.2" y="373" width="0.4" height="15.0" fill="rgb(209,20,4)" rx="2" ry="2" />
<text  x="21.24" y="383.5" ></text>
</g>
<g >
<title>__handle_mm_fault (865,315 samples, 0.08%)</title><rect x="67.2" y="325" width="1.0" height="15.0" fill="rgb(207,9,2)" rx="2" ry="2" />
<text  x="70.15" y="335.5" ></text>
</g>
<g >
<title>[unknown] (4,618,672 samples, 0.45%)</title><rect x="10.0" y="341" width="5.4" height="15.0" fill="rgb(210,24,5)" rx="2" ry="2" />
<text  x="13.00" y="351.5" ></text>
</g>
<g >
<title>__pagevec_release (923,007 samples, 0.09%)</title><rect x="16.1" y="197" width="1.1" height="15.0" fill="rgb(239,158,37)" rx="2" ry="2" />
<text  x="19.10" y="207.5" ></text>
</g>
<g >
<title>fetch_pte (923,262 samples, 0.09%)</title><rect x="38.9" y="37" width="1.1" height="15.0" fill="rgb(252,218,52)" rx="2" ry="2" />
<text  x="41.89" y="47.5" ></text>
</g>
<g >
<title>asm_exc_page_fault (876,263 samples, 0.09%)</title><rect x="34.7" y="389" width="1.0" height="15.0" fill="rgb(225,93,22)" rx="2" ry="2" />
<text  x="37.67" y="399.5" ></text>
</g>
<g >
<title>free_unref_page_list (923,007 samples, 0.09%)</title><rect x="16.1" y="165" width="1.1" height="15.0" fill="rgb(221,77,18)" rx="2" ry="2" />
<text  x="19.10" y="175.5" ></text>
</g>
<g >
<title>w2c_decode__webp__wasm_UpsampleRgbLinePair_C (233,410,981 samples, 22.92%)</title><rect x="906.7" y="405" width="270.4" height="15.0" fill="rgb(241,168,40)" rx="2" ry="2" />
<text  x="909.66" y="415.5" >w2c_decode__webp__wasm_UpsampleRgbLi..</text>
</g>
<g >
<title>truncate_inode_pages_range (923,007 samples, 0.09%)</title><rect x="16.1" y="213" width="1.1" height="15.0" fill="rgb(245,187,44)" rx="2" ry="2" />
<text  x="19.10" y="223.5" ></text>
</g>
<g >
<title>iommu_v1_unmap_pages (923,262 samples, 0.09%)</title><rect x="38.9" y="53" width="1.1" height="15.0" fill="rgb(252,219,52)" rx="2" ry="2" />
<text  x="41.89" y="63.5" ></text>
</g>
<g >
<title>__x64_sys_openat (923,007 samples, 0.09%)</title><rect x="16.1" y="341" width="1.1" height="15.0" fill="rgb(251,215,51)" rx="2" ry="2" />
<text  x="19.10" y="351.5" ></text>
</g>
<g >
<title>w2c_decode__webp__wasm_GetCoeffsFast (924,207 samples, 0.09%)</title><rect x="18.6" y="389" width="1.1" height="15.0" fill="rgb(232,124,29)" rx="2" ry="2" />
<text  x="21.61" y="399.5" ></text>
</g>
<g >
<title>w2c_decode__webp__wasm_DecodeImageData (18,109,677 samples, 1.78%)</title><rect x="47.2" y="405" width="21.0" height="15.0" fill="rgb(217,59,14)" rx="2" ry="2" />
<text  x="50.17" y="415.5" ></text>
</g>
<g >
<title>w2c_decode__webp__wasm_GetLargeValue (40,257,310 samples, 3.95%)</title><rect x="625.4" y="405" width="46.6" height="15.0" fill="rgb(206,5,1)" rx="2" ry="2" />
<text  x="628.39" y="415.5" >w2c_..</text>
</g>
<g >
<title>nvme_pci_complete_batch (923,262 samples, 0.09%)</title><rect x="38.9" y="133" width="1.1" height="15.0" fill="rgb(245,185,44)" rx="2" ry="2" />
<text  x="41.89" y="143.5" ></text>
</g>
<g >
<title>w2c_decode__webp__wasm_TransformAC3_C (2,771,932 samples, 0.27%)</title><rect x="834.2" y="405" width="3.2" height="15.0" fill="rgb(222,79,19)" rx="2" ry="2" />
<text  x="837.21" y="415.5" ></text>
</g>
<g >
<title>w2c_decode__webp__wasm_VR4_C (1,845,279 samples, 0.18%)</title><rect x="1186.7" y="405" width="2.1" height="15.0" fill="rgb(208,18,4)" rx="2" ry="2" />
<text  x="1189.71" y="415.5" ></text>
</g>
<g >
<title>tlb_finish_mmu (323,704 samples, 0.03%)</title><rect x="18.2" y="261" width="0.4" height="15.0" fill="rgb(251,212,50)" rx="2" ry="2" />
<text  x="21.24" y="271.5" ></text>
</g>
<g >
<title>tlb_batch_pages_flush (323,704 samples, 0.03%)</title><rect x="18.2" y="245" width="0.4" height="15.0" fill="rgb(234,133,32)" rx="2" ry="2" />
<text  x="21.24" y="255.5" ></text>
</g>
<g >
<title>entry_SYSCALL_64_after_hwframe (923,262 samples, 0.09%)</title><rect x="38.9" y="405" width="1.1" height="15.0" fill="rgb(218,63,15)" rx="2" ry="2" />
<text  x="41.89" y="415.5" ></text>
</g>
<g >
<title>w2c_decode__webp__wasm_ExtractGreen_C (22,985,538 samples, 2.26%)</title><rect x="69.2" y="405" width="26.7" height="15.0" fill="rgb(247,194,46)" rx="2" ry="2" />
<text  x="72.22" y="415.5" >w..</text>
</g>
<g >
<title>next_uptodate_page (645,294 samples, 0.06%)</title><rect x="15.4" y="261" width="0.7" height="15.0" fill="rgb(210,25,6)" rx="2" ry="2" />
<text  x="18.35" y="271.5" ></text>
</g>
<g >
<title>unmap_vmas (923,262 samples, 0.09%)</title><rect x="38.9" y="293" width="1.1" height="15.0" fill="rgb(243,176,42)" rx="2" ry="2" />
<text  x="41.89" y="303.5" ></text>
</g>
<g >
<title>w2c_decode__webp__wasm_DC8uv_C (924,248 samples, 0.09%)</title><rect x="46.1" y="405" width="1.1" height="15.0" fill="rgb(228,106,25)" rx="2" ry="2" />
<text  x="49.10" y="415.5" ></text>
</g>
<g >
<title>do_group_exit (923,262 samples, 0.09%)</title><rect x="38.9" y="357" width="1.1" height="15.0" fill="rgb(219,67,16)" rx="2" ry="2" />
<text  x="41.89" y="367.5" ></text>
</g>
<g >
<title>w2c_decode__webp__wasm_FilterLoop26_C (80,039,554 samples, 7.86%)</title><rect x="248.2" y="405" width="92.7" height="15.0" fill="rgb(243,176,42)" rx="2" ry="2" />
<text  x="251.21" y="415.5" >w2c_decode_..</text>
</g>
<g >
<title>w2c_decode__webp__wasm_TransformDC_C (924,305 samples, 0.09%)</title><rect x="14.3" y="309" width="1.1" height="15.0" fill="rgb(232,125,30)" rx="2" ry="2" />
<text  x="17.28" y="319.5" ></text>
</g>
<g >
<title>do_user_addr_fault (650,826 samples, 0.06%)</title><rect x="1176.3" y="357" width="0.8" height="15.0" fill="rgb(228,108,25)" rx="2" ry="2" />
<text  x="1179.33" y="367.5" ></text>
</g>
<g >
<title>w2c_decode__webp__wasm_DecodeImageStream (924,016 samples, 0.09%)</title><rect x="68.2" y="405" width="1.0" height="15.0" fill="rgb(254,228,54)" rx="2" ry="2" />
<text  x="71.15" y="415.5" ></text>
</g>
<g >
<title>ext4_dirty_inode (923,086 samples, 0.09%)</title><rect x="17.2" y="245" width="1.0" height="15.0" fill="rgb(227,102,24)" rx="2" ry="2" />
<text  x="20.17" y="255.5" ></text>
</g>
<g >
<title>__libc_write (923,086 samples, 0.09%)</title><rect x="17.2" y="389" width="1.0" height="15.0" fill="rgb(238,154,37)" rx="2" ry="2" />
<text  x="20.17" y="399.5" ></text>
</g>
<g >
<title>decode_webp_was (1,018,439,050 samples, 99.99%)</title><rect x="10.0" y="421" width="1179.9" height="15.0" fill="rgb(216,54,12)" rx="2" ry="2" />
<text  x="13.00" y="431.5" >decode_webp_was</text>
</g>
<g >
<title>ext4_mark_iloc_dirty (923,086 samples, 0.09%)</title><rect x="17.2" y="213" width="1.0" height="15.0" fill="rgb(226,101,24)" rx="2" ry="2" />
<text  x="20.17" y="223.5" ></text>
</g>
<g >
<title>w2c_decode__webp__wasm_HU4_C (924,333 samples, 0.09%)</title><rect x="681.7" y="405" width="1.0" height="15.0" fill="rgb(229,114,27)" rx="2" ry="2" />
<text  x="684.67" y="415.5" ></text>
</g>
<g >
<title>w2c_decode__webp__wasm_VL4_C (921,973 samples, 0.09%)</title><rect x="1177.1" y="405" width="1.1" height="15.0" fill="rgb(247,196,46)" rx="2" ry="2" />
<text  x="1180.08" y="415.5" ></text>
</g>
<g >
<title>w2c_decode__webp__wasm_VP8GetValue (2,769,853 samples, 0.27%)</title><rect x="1178.2" y="405" width="3.2" height="15.0" fill="rgb(243,179,42)" rx="2" ry="2" />
<text  x="1181.15" y="415.5" ></text>
</g>
<g >
<title>_compound_head (923,262 samples, 0.09%)</title><rect x="38.9" y="261" width="1.1" height="15.0" fill="rgb(225,94,22)" rx="2" ry="2" />
<text  x="41.89" y="271.5" ></text>
</g>
<g >
<title>w2c_decode__webp__wasm_TM4_C (1,847,910 samples, 0.18%)</title><rect x="832.1" y="405" width="2.1" height="15.0" fill="rgb(254,226,54)" rx="2" ry="2" />
<text  x="835.07" y="415.5" ></text>
</g>
<g >
<title>w2c_decode__webp__wasm_ReconstructRow (32,902,964 samples, 3.23%)</title><rect x="782.2" y="405" width="38.1" height="15.0" fill="rgb(238,153,36)" rx="2" ry="2" />
<text  x="785.18" y="415.5" >w2c..</text>
</g>
<g >
<title>asm_common_interrupt (923,262 samples, 0.09%)</title><rect x="38.9" y="245" width="1.1" height="15.0" fill="rgb(227,105,25)" rx="2" ry="2" />
<text  x="41.89" y="255.5" ></text>
</g>
<g >
<title>w2c_decode__webp__wasm_HFilter16i_C (923,879 samples, 0.09%)</title><rect x="680.6" y="405" width="1.1" height="15.0" fill="rgb(254,229,54)" rx="2" ry="2" />
<text  x="683.60" y="415.5" ></text>
</g>
<g >
<title>common_interrupt (923,262 samples, 0.09%)</title><rect x="38.9" y="229" width="1.1" height="15.0" fill="rgb(215,46,11)" rx="2" ry="2" />
<text  x="41.89" y="239.5" ></text>
</g>
<g >
<title>handle_mm_fault (645,294 samples, 0.06%)</title><rect x="15.4" y="325" width="0.7" height="15.0" fill="rgb(234,135,32)" rx="2" ry="2" />
<text  x="18.35" y="335.5" ></text>
</g>
<g >
<title>unmap_page_range (923,262 samples, 0.09%)</title><rect x="38.9" y="277" width="1.1" height="15.0" fill="rgb(206,5,1)" rx="2" ry="2" />
<text  x="41.89" y="287.5" ></text>
</g>
<g >
<title>do_user_addr_fault (865,315 samples, 0.08%)</title><rect x="67.2" y="357" width="1.0" height="15.0" fill="rgb(228,108,25)" rx="2" ry="2" />
<text  x="70.15" y="367.5" ></text>
</g>
<g >
<title>ksys_write (923,086 samples, 0.09%)</title><rect x="17.2" y="341" width="1.0" height="15.0" fill="rgb(205,4,1)" rx="2" ry="2" />
<text  x="20.17" y="351.5" ></text>
</g>
<g >
<title>do_syscall_64 (923,086 samples, 0.09%)</title><rect x="17.2" y="357" width="1.0" height="15.0" fill="rgb(209,20,4)" rx="2" ry="2" />
<text  x="20.17" y="367.5" ></text>
</g>
<g >
<title>vfs_write (923,086 samples, 0.09%)</title><rect x="17.2" y="325" width="1.0" height="15.0" fill="rgb(250,209,50)" rx="2" ry="2" />
<text  x="20.17" y="335.5" ></text>
</g>
<g >
<title>w2c_decode__webp__wasm_ReconstructRow (923,075 samples, 0.09%)</title><rect x="13.2" y="309" width="1.1" height="15.0" fill="rgb(238,153,36)" rx="2" ry="2" />
<text  x="16.21" y="319.5" ></text>
</g>
<g >
<title>w2c_decode__webp__wasm_DC16_C (677,019 samples, 0.07%)</title><rect x="42.1" y="405" width="0.8" height="15.0" fill="rgb(242,173,41)" rx="2" ry="2" />
<text  x="45.11" y="415.5" ></text>
</g>
<g >
<title>path_openat (923,007 samples, 0.09%)</title><rect x="16.1" y="293" width="1.1" height="15.0" fill="rgb(249,202,48)" rx="2" ry="2" />
<text  x="19.10" y="303.5" ></text>
</g>
<g >
<title>w2c_decode__webp__wasm_VP8LDoFillBitWindow (923,573 samples, 0.09%)</title><rect x="1181.4" y="405" width="1.0" height="15.0" fill="rgb(232,127,30)" rx="2" ry="2" />
<text  x="1184.36" y="415.5" ></text>
</g>
<g >
<title>release_pages (923,007 samples, 0.09%)</title><rect x="16.1" y="181" width="1.1" height="15.0" fill="rgb(228,106,25)" rx="2" ry="2" />
<text  x="19.10" y="191.5" ></text>
</g>
<g >
<title>generic_write_end (923,086 samples, 0.09%)</title><rect x="17.2" y="277" width="1.0" height="15.0" fill="rgb(206,8,1)" rx="2" ry="2" />
<text  x="20.17" y="287.5" ></text>
</g>
<g >
<title>w2c_decode__webp__wasm_DC4_C (1,848,260 samples, 0.18%)</title><rect x="42.9" y="405" width="2.1" height="15.0" fill="rgb(222,78,18)" rx="2" ry="2" />
<text  x="45.89" y="415.5" ></text>
</g>
<g >
<title>asm_exc_page_fault (816,089 samples, 0.08%)</title><rect x="94.9" y="389" width="1.0" height="15.0" fill="rgb(225,93,22)" rx="2" ry="2" />
<text  x="97.91" y="399.5" ></text>
</g>
<g >
<title>w2c_decode__webp__wasm_HE8uv_C (923,870 samples, 0.09%)</title><rect x="12.1" y="309" width="1.1" height="15.0" fill="rgb(239,158,37)" rx="2" ry="2" />
<text  x="15.14" y="319.5" ></text>
</g>
<g >
<title>do_syscall_64 (923,262 samples, 0.09%)</title><rect x="38.9" y="389" width="1.1" height="15.0" fill="rgb(209,20,4)" rx="2" ry="2" />
<text  x="41.89" y="399.5" ></text>
</g>
<g >
<title>w2c_decode__webp__wasm_ReconstructRow (1,846,235 samples, 0.18%)</title><rect x="26.1" y="389" width="2.1" height="15.0" fill="rgb(238,153,36)" rx="2" ry="2" />
<text  x="29.11" y="399.5" ></text>
</g>
<g >
<title>w2c_decode__webp__wasm_HD4_C (2,771,092 samples, 0.27%)</title><rect x="672.0" y="405" width="3.2" height="15.0" fill="rgb(239,160,38)" rx="2" ry="2" />
<text  x="675.03" y="415.5" ></text>
</g>
<g >
<title>truncate_pagecache (923,007 samples, 0.09%)</title><rect x="16.1" y="229" width="1.1" height="15.0" fill="rgb(231,123,29)" rx="2" ry="2" />
<text  x="19.10" y="239.5" ></text>
</g>
<g >
<title>__ext4_mark_inode_dirty (923,086 samples, 0.09%)</title><rect x="17.2" y="229" width="1.0" height="15.0" fill="rgb(227,104,25)" rx="2" ry="2" />
<text  x="20.17" y="239.5" ></text>
</g>
<g >
<title>__mmput (923,262 samples, 0.09%)</title><rect x="38.9" y="325" width="1.1" height="15.0" fill="rgb(249,203,48)" rx="2" ry="2" />
<text  x="41.89" y="335.5" ></text>
</g>
<g >
<title>__handle_mm_fault (650,826 samples, 0.06%)</title><rect x="1176.3" y="325" width="0.8" height="15.0" fill="rgb(207,9,2)" rx="2" ry="2" />
<text  x="1179.33" y="335.5" ></text>
</g>
<g >
<title>w2c_decode__webp__wasm_IDecode (5,545,203 samples, 0.54%)</title><rect x="19.7" y="389" width="6.4" height="15.0" fill="rgb(208,15,3)" rx="2" ry="2" />
<text  x="22.68" y="399.5" ></text>
</g>
<g >
<title>__memset_avx2_unaligned_erms (2,772,340 samples, 0.27%)</title><rect x="35.7" y="405" width="3.2" height="15.0" fill="rgb(223,84,20)" rx="2" ry="2" />
<text  x="38.68" y="415.5" ></text>
</g>
<g >
<title>handle_mm_fault (865,315 samples, 0.08%)</title><rect x="67.2" y="341" width="1.0" height="15.0" fill="rgb(234,135,32)" rx="2" ry="2" />
<text  x="70.15" y="351.5" ></text>
</g>
<g >
<title>w2c_decode__webp__wasm_IDecode (84,905,603 samples, 8.34%)</title><rect x="682.7" y="405" width="98.4" height="15.0" fill="rgb(208,15,3)" rx="2" ry="2" />
<text  x="685.74" y="415.5" >w2c_decode_..</text>
</g>
<g >
<title>w2c_decode__webp__wasm_FilterLoop24_C (131,508,745 samples, 12.91%)</title><rect x="95.9" y="405" width="152.3" height="15.0" fill="rgb(206,5,1)" rx="2" ry="2" />
<text  x="98.85" y="415.5" >w2c_decode__webp__w..</text>
</g>
<g >
<title>w2c_decode__webp__wasm_FilterLoop26_C (1,847,422 samples, 0.18%)</title><rect x="10.0" y="309" width="2.1" height="15.0" fill="rgb(243,176,42)" rx="2" ry="2" />
<text  x="13.00" y="319.5" ></text>
</g>
<g >
<title>do_sys_openat2 (923,007 samples, 0.09%)</title><rect x="16.1" y="325" width="1.1" height="15.0" fill="rgb(253,221,52)" rx="2" ry="2" />
<text  x="19.10" y="335.5" ></text>
</g>
<g >
<title>exc_page_fault (650,826 samples, 0.06%)</title><rect x="1176.3" y="373" width="0.8" height="15.0" fill="rgb(212,35,8)" rx="2" ry="2" />
<text  x="1179.33" y="383.5" ></text>
</g>
<g >
<title>setup_arg_pages (323,704 samples, 0.03%)</title><rect x="18.2" y="293" width="0.4" height="15.0" fill="rgb(222,82,19)" rx="2" ry="2" />
<text  x="21.24" y="303.5" ></text>
</g>
<g >
<title>__GI___getrlimit (645,294 samples, 0.06%)</title><rect x="15.4" y="389" width="0.7" height="15.0" fill="rgb(253,223,53)" rx="2" ry="2" />
<text  x="18.35" y="399.5" ></text>
</g>
<g >
<title>entry_SYSCALL_64_after_hwframe (923,007 samples, 0.09%)</title><rect x="16.1" y="373" width="1.1" height="15.0" fill="rgb(218,63,15)" rx="2" ry="2" />
<text  x="19.10" y="383.5" ></text>
</g>
<g >
<title>nvme_unmap_data (923,262 samples, 0.09%)</title><rect x="38.9" y="117" width="1.1" height="15.0" fill="rgb(237,149,35)" rx="2" ry="2" />
<text  x="41.89" y="127.5" ></text>
</g>
<g >
<title>exc_page_fault (865,315 samples, 0.08%)</title><rect x="67.2" y="373" width="1.0" height="15.0" fill="rgb(212,35,8)" rx="2" ry="2" />
<text  x="70.15" y="383.5" ></text>
</g>
<g >
<title>handle_irq_event (923,262 samples, 0.09%)</title><rect x="38.9" y="181" width="1.1" height="15.0" fill="rgb(209,19,4)" rx="2" ry="2" />
<text  x="41.89" y="191.5" ></text>
</g>
<g >
<title>do_execveat_common.isra.0 (323,704 samples, 0.03%)</title><rect x="18.2" y="341" width="0.4" height="15.0" fill="rgb(231,123,29)" rx="2" ry="2" />
<text  x="21.24" y="351.5" ></text>
</g>
<g >
<title>amd_iommu_unmap_pages (923,262 samples, 0.09%)</title><rect x="38.9" y="69" width="1.1" height="15.0" fill="rgb(254,229,54)" rx="2" ry="2" />
<text  x="41.89" y="79.5" ></text>
</g>
<g >
<title>w2c_decode__webp__wasm_VP8LReadBits (2,771,725 samples, 0.27%)</title><rect x="1182.4" y="405" width="3.2" height="15.0" fill="rgb(249,206,49)" rx="2" ry="2" />
<text  x="1185.43" y="415.5" ></text>
</g>
<g >
<title>entry_SYSCALL_64_after_hwframe (923,086 samples, 0.09%)</title><rect x="17.2" y="373" width="1.0" height="15.0" fill="rgb(218,63,15)" rx="2" ry="2" />
<text  x="20.17" y="383.5" ></text>
</g>
<g >
<title>__iommu_dma_unmap (923,262 samples, 0.09%)</title><rect x="38.9" y="101" width="1.1" height="15.0" fill="rgb(252,216,51)" rx="2" ry="2" />
<text  x="41.89" y="111.5" ></text>
</g>
<g >
<title>try_charge_memcg (865,315 samples, 0.08%)</title><rect x="67.2" y="277" width="1.0" height="15.0" fill="rgb(210,27,6)" rx="2" ry="2" />
<text  x="70.15" y="287.5" ></text>
</g>
<g >
<title>exit_mmap (923,262 samples, 0.09%)</title><rect x="38.9" y="309" width="1.1" height="15.0" fill="rgb(236,143,34)" rx="2" ry="2" />
<text  x="41.89" y="319.5" ></text>
</g>
<g >
<title>ext4_buffered_write_iter (923,086 samples, 0.09%)</title><rect x="17.2" y="309" width="1.0" height="15.0" fill="rgb(213,40,9)" rx="2" ry="2" />
<text  x="20.17" y="319.5" ></text>
</g>
<g >
<title>handle_mm_fault (650,826 samples, 0.06%)</title><rect x="1176.3" y="341" width="0.8" height="15.0" fill="rgb(234,135,32)" rx="2" ry="2" />
<text  x="1179.33" y="351.5" ></text>
</g>
<g >
<title>notify_change (923,007 samples, 0.09%)</title><rect x="16.1" y="261" width="1.1" height="15.0" fill="rgb(237,150,35)" rx="2" ry="2" />
<text  x="19.10" y="271.5" ></text>
</g>
<g >
<title>free_swap_cache (323,704 samples, 0.03%)</title><rect x="18.2" y="213" width="0.4" height="15.0" fill="rgb(244,180,43)" rx="2" ry="2" />
<text  x="21.24" y="223.5" ></text>
</g>
<g >
<title>w2c_decode__webp__wasm_TransformTwo_C (924,040 samples, 0.09%)</title><rect x="905.6" y="405" width="1.1" height="15.0" fill="rgb(226,96,23)" rx="2" ry="2" />
<text  x="908.59" y="415.5" ></text>
</g>
<g >
<title>generic_perform_write (923,086 samples, 0.09%)</title><rect x="17.2" y="293" width="1.0" height="15.0" fill="rgb(236,146,35)" rx="2" ry="2" />
<text  x="20.17" y="303.5" ></text>
</g>
<g >
<title>__mem_cgroup_charge (865,315 samples, 0.08%)</title><rect x="67.2" y="309" width="1.0" height="15.0" fill="rgb(218,60,14)" rx="2" ry="2" />
<text  x="70.15" y="319.5" ></text>
</g>
<g >
<title>[unknown] (4,618,672 samples, 0.45%)</title><rect x="10.0" y="373" width="5.4" height="15.0" fill="rgb(210,24,5)" rx="2" ry="2" />
<text  x="13.00" y="383.5" ></text>
</g>
<g >
<title>bprm_execve (323,704 samples, 0.03%)</title><rect x="18.2" y="325" width="0.4" height="15.0" fill="rgb(218,61,14)" rx="2" ry="2" />
<text  x="21.24" y="335.5" ></text>
</g>
<g >
<title>all (1,018,508,250 samples, 100%)</title><rect x="10.0" y="437" width="1180.0" height="15.0" fill="rgb(213,39,9)" rx="2" ry="2" />
<text  x="13.00" y="447.5" ></text>
</g>
<g >
<title>nvme_irq (923,262 samples, 0.09%)</title><rect x="38.9" y="149" width="1.1" height="15.0" fill="rgb(225,95,22)" rx="2" ry="2" />
<text  x="41.89" y="159.5" ></text>
</g>
<g >
<title>w2c_decode__webp__wasm_DC8uvNoLeft_C (923,895 samples, 0.09%)</title><rect x="45.0" y="405" width="1.1" height="15.0" fill="rgb(205,2,0)" rx="2" ry="2" />
<text  x="48.03" y="415.5" ></text>
</g>
<g >
<title>asm_exc_page_fault (650,826 samples, 0.06%)</title><rect x="1176.3" y="389" width="0.8" height="15.0" fill="rgb(225,93,22)" rx="2" ry="2" />
<text  x="1179.33" y="399.5" ></text>
</g>
<g >
<title>w2c_decode__webp__wasm_TransformDC_C (3,694,404 samples, 0.36%)</title><rect x="837.4" y="405" width="4.3" height="15.0" fill="rgb(232,125,30)" rx="2" ry="2" />
<text  x="840.42" y="415.5" ></text>
</g>
<g >
<title>shift_arg_pages (323,704 samples, 0.03%)</title><rect x="18.2" y="277" width="0.4" height="15.0" fill="rgb(245,187,44)" rx="2" ry="2" />
<text  x="21.24" y="287.5" ></text>
</g>
<g >
<title>charge_memcg (650,826 samples, 0.06%)</title><rect x="1176.3" y="293" width="0.8" height="15.0" fill="rgb(242,170,40)" rx="2" ry="2" />
<text  x="1179.33" y="303.5" ></text>
</g>
<g >
<title>do_truncate (923,007 samples, 0.09%)</title><rect x="16.1" y="277" width="1.1" height="15.0" fill="rgb(216,53,12)" rx="2" ry="2" />
<text  x="19.10" y="287.5" ></text>
</g>
<g >
<title>w2c_decode__webp__wasm_RD4_C (924,256 samples, 0.09%)</title><rect x="781.1" y="405" width="1.1" height="15.0" fill="rgb(225,92,22)" rx="2" ry="2" />
<text  x="784.10" y="415.5" ></text>
</g>
<g >
<title>__libc_open64 (923,007 samples, 0.09%)</title><rect x="16.1" y="389" width="1.1" height="15.0" fill="rgb(235,140,33)" rx="2" ry="2" />
<text  x="19.10" y="399.5" ></text>
</g>
<g >
<title>do_filp_open (923,007 samples, 0.09%)</title><rect x="16.1" y="309" width="1.1" height="15.0" fill="rgb(211,28,6)" rx="2" ry="2" />
<text  x="19.10" y="319.5" ></text>
</g>
<g >
<title>w2c_decode__webp__wasm_TM16_C (10,161,200 samples, 1.00%)</title><rect x="820.3" y="405" width="11.8" height="15.0" fill="rgb(224,90,21)" rx="2" ry="2" />
<text  x="823.30" y="415.5" ></text>
</g>
<g >
<title>__memmove_avx_unaligned_erms (6,418,722 samples, 0.63%)</title><rect x="28.2" y="405" width="7.5" height="15.0" fill="rgb(205,0,0)" rx="2" ry="2" />
<text  x="31.25" y="415.5" ></text>
</g>
<g >
<title>__mark_inode_dirty (923,086 samples, 0.09%)</title><rect x="17.2" y="261" width="1.0" height="15.0" fill="rgb(254,227,54)" rx="2" ry="2" />
<text  x="20.17" y="271.5" ></text>
</g>
<g >
<title>entry_SYSCALL_64_after_hwframe (323,704 samples, 0.03%)</title><rect x="18.2" y="389" width="0.4" height="15.0" fill="rgb(218,63,15)" rx="2" ry="2" />
<text  x="21.24" y="399.5" ></text>
</g>
<g >
<title>[unknown] (15,749,408 samples, 1.55%)</title><rect x="10.0" y="405" width="18.2" height="15.0" fill="rgb(210,24,5)" rx="2" ry="2" />
<text  x="13.00" y="415.5" ></text>
</g>
<g >
<title>__handle_mm_fault (645,294 samples, 0.06%)</title><rect x="15.4" y="309" width="0.7" height="15.0" fill="rgb(207,9,2)" rx="2" ry="2" />
<text  x="18.35" y="319.5" ></text>
</g>
<g >
<title>[unknown] (4,618,672 samples, 0.45%)</title><rect x="10.0" y="325" width="5.4" height="15.0" fill="rgb(210,24,5)" rx="2" ry="2" />
<text  x="13.00" y="335.5" ></text>
</g>
<g >
<title>w2c_decode__webp__wasm_free (923,856 samples, 0.09%)</title><rect x="1188.8" y="405" width="1.1" height="15.0" fill="rgb(226,98,23)" rx="2" ry="2" />
<text  x="1191.85" y="415.5" ></text>
</g>
<g >
<title>charge_memcg (865,315 samples, 0.08%)</title><rect x="67.2" y="293" width="1.0" height="15.0" fill="rgb(242,170,40)" rx="2" ry="2" />
<text  x="70.15" y="303.5" ></text>
</g>
<g >
<title>free_pages_and_swap_cache (323,704 samples, 0.03%)</title><rect x="18.2" y="229" width="0.4" height="15.0" fill="rgb(222,82,19)" rx="2" ry="2" />
<text  x="21.24" y="239.5" ></text>
</g>
<g >
<title>__common_interrupt (923,262 samples, 0.09%)</title><rect x="38.9" y="213" width="1.1" height="15.0" fill="rgb(237,150,36)" rx="2" ry="2" />
<text  x="41.89" y="223.5" ></text>
</g>
<g >
<title>__x64_sys_execve (323,704 samples, 0.03%)</title><rect x="18.2" y="357" width="0.4" height="15.0" fill="rgb(247,193,46)" rx="2" ry="2" />
<text  x="21.24" y="367.5" ></text>
</g>
<g >
<title>do_exit (923,262 samples, 0.09%)</title><rect x="38.9" y="341" width="1.1" height="15.0" fill="rgb(231,122,29)" rx="2" ry="2" />
<text  x="41.89" y="351.5" ></text>
</g>
<g >
<title>ext4_setattr (923,007 samples, 0.09%)</title><rect x="16.1" y="245" width="1.1" height="15.0" fill="rgb(230,117,28)" rx="2" ry="2" />
<text  x="19.10" y="255.5" ></text>
</g>
<g >
<title>__x64_sys_exit_group (923,262 samples, 0.09%)</title><rect x="38.9" y="373" width="1.1" height="15.0" fill="rgb(214,42,10)" rx="2" ry="2" />
<text  x="41.89" y="383.5" ></text>
</g>
<g >
<title>w2c_decode__webp__wasm_DC16NoLeft_C (923,740 samples, 0.09%)</title><rect x="41.0" y="405" width="1.1" height="15.0" fill="rgb(220,69,16)" rx="2" ry="2" />
<text  x="44.04" y="415.5" ></text>
</g>
<g >
<title>w2c_decode__webp__wasm_TransformOne_C (55,148,948 samples, 5.41%)</title><rect x="841.7" y="405" width="63.9" height="15.0" fill="rgb(231,120,28)" rx="2" ry="2" />
<text  x="844.70" y="415.5" >w2c_dec..</text>
</g>
<g >
<title>w2c_decode__webp__wasm_GetCoeffsFast (239,976,762 samples, 23.56%)</title><rect x="347.4" y="405" width="278.0" height="15.0" fill="rgb(232,124,29)" rx="2" ry="2" />
<text  x="350.37" y="415.5" >w2c_decode__webp__wasm_GetCoeffsFast</text>
</g>
<g >
<title>mem_cgroup_charge_statistics (650,826 samples, 0.06%)</title><rect x="1176.3" y="277" width="0.8" height="15.0" fill="rgb(232,126,30)" rx="2" ry="2" />
<text  x="1179.33" y="287.5" ></text>
</g>
<g >
<title>__iommu_unmap (923,262 samples, 0.09%)</title><rect x="38.9" y="85" width="1.1" height="15.0" fill="rgb(242,172,41)" rx="2" ry="2" />
<text  x="41.89" y="95.5" ></text>
</g>
<g >
<title>w2c_decode__webp__wasm_VP8ParseProba (923,047 samples, 0.09%)</title><rect x="1185.6" y="405" width="1.1" height="15.0" fill="rgb(237,149,35)" rx="2" ry="2" />
<text  x="1188.64" y="415.5" ></text>
</g>
<g >
<title>__mem_cgroup_charge (650,826 samples, 0.06%)</title><rect x="1176.3" y="309" width="0.8" height="15.0" fill="rgb(218,60,14)" rx="2" ry="2" />
<text  x="1179.33" y="319.5" ></text>
</g>
<g >
<title>do_syscall_64 (923,007 samples, 0.09%)</title><rect x="16.1" y="357" width="1.1" height="15.0" fill="rgb(209,20,4)" rx="2" ry="2" />
<text  x="19.10" y="367.5" ></text>
</g>
<g >
<title>handle_edge_irq (923,262 samples, 0.09%)</title><rect x="38.9" y="197" width="1.1" height="15.0" fill="rgb(220,69,16)" rx="2" ry="2" />
<text  x="41.89" y="207.5" ></text>
</g>
<g >
<title>[unknown] (4,618,672 samples, 0.45%)</title><rect x="10.0" y="389" width="5.4" height="15.0" fill="rgb(210,24,5)" rx="2" ry="2" />
<text  x="13.00" y="399.5" ></text>
</g>
<g >
<title>do_fault (645,294 samples, 0.06%)</title><rect x="15.4" y="293" width="0.7" height="15.0" fill="rgb(248,200,47)" rx="2" ry="2" />
<text  x="18.35" y="303.5" ></text>
</g>
<g >
<title>[unknown] (4,618,672 samples, 0.45%)</title><rect x="10.0" y="357" width="5.4" height="15.0" fill="rgb(210,24,5)" rx="2" ry="2" />
<text  x="13.00" y="367.5" ></text>
</g>
<g >
<title>load_elf_binary (323,704 samples, 0.03%)</title><rect x="18.2" y="309" width="0.4" height="15.0" fill="rgb(223,83,20)" rx="2" ry="2" />
<text  x="21.24" y="319.5" ></text>
</g>
<g >
<title>w2c_decode__webp__wasm_FinishRow (5,542,103 samples, 0.54%)</title><rect x="340.9" y="405" width="6.5" height="15.0" fill="rgb(227,101,24)" rx="2" ry="2" />
<text  x="343.94" y="415.5" ></text>
</g>
<g >
<title>map_id_up (923,086 samples, 0.09%)</title><rect x="17.2" y="181" width="1.0" height="15.0" fill="rgb(228,107,25)" rx="2" ry="2" />
<text  x="20.17" y="191.5" ></text>
</g>
</g>
</svg>
