<?xml version="1.0" standalone="no"?>
<!DOCTYPE svg PUBLIC "-//W3C//DTD SVG 1.1//EN" "http://www.w3.org/Graphics/SVG/1.1/DTD/svg11.dtd">
<svg version="1.1" width="1200" height="406" onload="init(evt)" viewBox="0 0 1200 406" xmlns="http://www.w3.org/2000/svg" xmlns:xlink="http://www.w3.org/1999/xlink">
<!-- Flame graph stack visualization. See https://github.com/brendangregg/FlameGraph for latest version, and http://www.brendangregg.com/flamegraphs.html for examples. -->
<!-- NOTES:  -->
<defs>
	<linearGradient id="background" y1="0" y2="1" x1="0" x2="0" >
		<stop stop-color="#eeeeee" offset="5%" />
		<stop stop-color="#eeeeb0" offset="95%" />
	</linearGradient>
</defs>
<style type="text/css">
	text { font-family:Verdana; font-size:12px; fill:rgb(0,0,0); }
	#search, #ignorecase { opacity:0.1; cursor:pointer; }
	#search:hover, #search.show, #ignorecase:hover, #ignorecase.show { opacity:1; }
	#subtitle { text-anchor:middle; font-color:rgb(160,160,160); }
	#title { text-anchor:middle; font-size:17px}
	#unzoom { cursor:pointer; }
	#frames > *:hover { stroke:black; stroke-width:0.5; cursor:pointer; }
	.hide { display:none; }
	.parent { opacity:0.5; }
</style>
<script type="text/ecmascript">
<![CDATA[
	"use strict";
	var details, searchbtn, unzoombtn, matchedtxt, svg, searching, currentSearchTerm, ignorecase, ignorecaseBtn;
	function init(evt) {
		details = document.getElementById("details").firstChild;
		searchbtn = document.getElementById("search");
		ignorecaseBtn = document.getElementById("ignorecase");
		unzoombtn = document.getElementById("unzoom");
		matchedtxt = document.getElementById("matched");
		svg = document.getElementsByTagName("svg")[0];
		searching = 0;
		currentSearchTerm = null;

		// use GET parameters to restore a flamegraphs state.
		var params = get_params();
		if (params.x && params.y)
			zoom(find_group(document.querySelector('[x="' + params.x + '"][y="' + params.y + '"]')));
                if (params.s) search(params.s);
	}

	// event listeners
	window.addEventListener("click", function(e) {
		var target = find_group(e.target);
		if (target) {
			if (target.nodeName == "a") {
				if (e.ctrlKey === false) return;
				e.preventDefault();
			}
			if (target.classList.contains("parent")) unzoom(true);
			zoom(target);
			if (!document.querySelector('.parent')) {
				// we have basically done a clearzoom so clear the url
				var params = get_params();
				if (params.x) delete params.x;
				if (params.y) delete params.y;
				history.replaceState(null, null, parse_params(params));
				unzoombtn.classList.add("hide");
				return;
			}

			// set parameters for zoom state
			var el = target.querySelector("rect");
			if (el && el.attributes && el.attributes.y && el.attributes._orig_x) {
				var params = get_params()
				params.x = el.attributes._orig_x.value;
				params.y = el.attributes.y.value;
				history.replaceState(null, null, parse_params(params));
			}
		}
		else if (e.target.id == "unzoom") clearzoom();
		else if (e.target.id == "search") search_prompt();
		else if (e.target.id == "ignorecase") toggle_ignorecase();
	}, false)

	// mouse-over for info
	// show
	window.addEventListener("mouseover", function(e) {
		var target = find_group(e.target);
		if (target) details.nodeValue = "Function: " + g_to_text(target);
	}, false)

	// clear
	window.addEventListener("mouseout", function(e) {
		var target = find_group(e.target);
		if (target) details.nodeValue = ' ';
	}, false)

	// ctrl-F for search
	// ctrl-I to toggle case-sensitive search
	window.addEventListener("keydown",function (e) {
		if (e.keyCode === 114 || (e.ctrlKey && e.keyCode === 70)) {
			e.preventDefault();
			search_prompt();
		}
		else if (e.ctrlKey && e.keyCode === 73) {
			e.preventDefault();
			toggle_ignorecase();
		}
	}, false)

	// functions
	function get_params() {
		var params = {};
		var paramsarr = window.location.search.substr(1).split('&');
		for (var i = 0; i < paramsarr.length; ++i) {
			var tmp = paramsarr[i].split("=");
			if (!tmp[0] || !tmp[1]) continue;
			params[tmp[0]]  = decodeURIComponent(tmp[1]);
		}
		return params;
	}
	function parse_params(params) {
		var uri = "?";
		for (var key in params) {
			uri += key + '=' + encodeURIComponent(params[key]) + '&';
		}
		if (uri.slice(-1) == "&")
			uri = uri.substring(0, uri.length - 1);
		if (uri == '?')
			uri = window.location.href.split('?')[0];
		return uri;
	}
	function find_child(node, selector) {
		var children = node.querySelectorAll(selector);
		if (children.length) return children[0];
	}
	function find_group(node) {
		var parent = node.parentElement;
		if (!parent) return;
		if (parent.id == "frames") return node;
		return find_group(parent);
	}
	function orig_save(e, attr, val) {
		if (e.attributes["_orig_" + attr] != undefined) return;
		if (e.attributes[attr] == undefined) return;
		if (val == undefined) val = e.attributes[attr].value;
		e.setAttribute("_orig_" + attr, val);
	}
	function orig_load(e, attr) {
		if (e.attributes["_orig_"+attr] == undefined) return;
		e.attributes[attr].value = e.attributes["_orig_" + attr].value;
		e.removeAttribute("_orig_"+attr);
	}
	function g_to_text(e) {
		var text = find_child(e, "title").firstChild.nodeValue;
		return (text)
	}
	function g_to_func(e) {
		var func = g_to_text(e);
		// if there's any manipulation we want to do to the function
		// name before it's searched, do it here before returning.
		return (func);
	}
	function update_text(e) {
		var r = find_child(e, "rect");
		var t = find_child(e, "text");
		var w = parseFloat(r.attributes.width.value) -3;
		var txt = find_child(e, "title").textContent.replace(/\([^(]*\)$/,"");
		t.attributes.x.value = parseFloat(r.attributes.x.value) + 3;

		// Smaller than this size won't fit anything
		if (w < 2 * 12 * 0.59) {
			t.textContent = "";
			return;
		}

		t.textContent = txt;
		var sl = t.getSubStringLength(0, txt.length);
		// check if only whitespace or if we can fit the entire string into width w
		if (/^ *$/.test(txt) || sl < w)
			return;

		// this isn't perfect, but gives a good starting point
		// and avoids calling getSubStringLength too often
		var start = Math.floor((w/sl) * txt.length);
		for (var x = start; x > 0; x = x-2) {
			if (t.getSubStringLength(0, x + 2) <= w) {
				t.textContent = txt.substring(0, x) + "..";
				return;
			}
		}
		t.textContent = "";
	}

	// zoom
	function zoom_reset(e) {
		if (e.attributes != undefined) {
			orig_load(e, "x");
			orig_load(e, "width");
		}
		if (e.childNodes == undefined) return;
		for (var i = 0, c = e.childNodes; i < c.length; i++) {
			zoom_reset(c[i]);
		}
	}
	function zoom_child(e, x, ratio) {
		if (e.attributes != undefined) {
			if (e.attributes.x != undefined) {
				orig_save(e, "x");
				e.attributes.x.value = (parseFloat(e.attributes.x.value) - x - 10) * ratio + 10;
				if (e.tagName == "text")
					e.attributes.x.value = find_child(e.parentNode, "rect[x]").attributes.x.value + 3;
			}
			if (e.attributes.width != undefined) {
				orig_save(e, "width");
				e.attributes.width.value = parseFloat(e.attributes.width.value) * ratio;
			}
		}

		if (e.childNodes == undefined) return;
		for (var i = 0, c = e.childNodes; i < c.length; i++) {
			zoom_child(c[i], x - 10, ratio);
		}
	}
	function zoom_parent(e) {
		if (e.attributes) {
			if (e.attributes.x != undefined) {
				orig_save(e, "x");
				e.attributes.x.value = 10;
			}
			if (e.attributes.width != undefined) {
				orig_save(e, "width");
				e.attributes.width.value = parseInt(svg.width.baseVal.value) - (10 * 2);
			}
		}
		if (e.childNodes == undefined) return;
		for (var i = 0, c = e.childNodes; i < c.length; i++) {
			zoom_parent(c[i]);
		}
	}
	function zoom(node) {
		var attr = find_child(node, "rect").attributes;
		var width = parseFloat(attr.width.value);
		var xmin = parseFloat(attr.x.value);
		var xmax = parseFloat(xmin + width);
		var ymin = parseFloat(attr.y.value);
		var ratio = (svg.width.baseVal.value - 2 * 10) / width;

		// XXX: Workaround for JavaScript float issues (fix me)
		var fudge = 0.0001;

		unzoombtn.classList.remove("hide");

		var el = document.getElementById("frames").children;
		for (var i = 0; i < el.length; i++) {
			var e = el[i];
			var a = find_child(e, "rect").attributes;
			var ex = parseFloat(a.x.value);
			var ew = parseFloat(a.width.value);
			var upstack;
			// Is it an ancestor
			if (0 == 0) {
				upstack = parseFloat(a.y.value) > ymin;
			} else {
				upstack = parseFloat(a.y.value) < ymin;
			}
			if (upstack) {
				// Direct ancestor
				if (ex <= xmin && (ex+ew+fudge) >= xmax) {
					e.classList.add("parent");
					zoom_parent(e);
					update_text(e);
				}
				// not in current path
				else
					e.classList.add("hide");
			}
			// Children maybe
			else {
				// no common path
				if (ex < xmin || ex + fudge >= xmax) {
					e.classList.add("hide");
				}
				else {
					zoom_child(e, xmin, ratio);
					update_text(e);
				}
			}
		}
		search();
	}
	function unzoom(dont_update_text) {
		unzoombtn.classList.add("hide");
		var el = document.getElementById("frames").children;
		for(var i = 0; i < el.length; i++) {
			el[i].classList.remove("parent");
			el[i].classList.remove("hide");
			zoom_reset(el[i]);
			if(!dont_update_text) update_text(el[i]);
		}
		search();
	}
	function clearzoom() {
		unzoom();

		// remove zoom state
		var params = get_params();
		if (params.x) delete params.x;
		if (params.y) delete params.y;
		history.replaceState(null, null, parse_params(params));
	}

	// search
	function toggle_ignorecase() {
		ignorecase = !ignorecase;
		if (ignorecase) {
			ignorecaseBtn.classList.add("show");
		} else {
			ignorecaseBtn.classList.remove("show");
		}
		reset_search();
		search();
	}
	function reset_search() {
		var el = document.querySelectorAll("#frames rect");
		for (var i = 0; i < el.length; i++) {
			orig_load(el[i], "fill")
		}
		var params = get_params();
		delete params.s;
		history.replaceState(null, null, parse_params(params));
	}
	function search_prompt() {
		if (!searching) {
			var term = prompt("Enter a search term (regexp " +
			    "allowed, eg: ^ext4_)"
			    + (ignorecase ? ", ignoring case" : "")
			    + "\nPress Ctrl-i to toggle case sensitivity", "");
			if (term != null) search(term);
		} else {
			reset_search();
			searching = 0;
			currentSearchTerm = null;
			searchbtn.classList.remove("show");
			searchbtn.firstChild.nodeValue = "Search"
			matchedtxt.classList.add("hide");
			matchedtxt.firstChild.nodeValue = ""
		}
	}
	function search(term) {
		if (term) currentSearchTerm = term;

		var re = new RegExp(currentSearchTerm, ignorecase ? 'i' : '');
		var el = document.getElementById("frames").children;
		var matches = new Object();
		var maxwidth = 0;
		for (var i = 0; i < el.length; i++) {
			var e = el[i];
			var func = g_to_func(e);
			var rect = find_child(e, "rect");
			if (func == null || rect == null)
				continue;

			// Save max width. Only works as we have a root frame
			var w = parseFloat(rect.attributes.width.value);
			if (w > maxwidth)
				maxwidth = w;

			if (func.match(re)) {
				// highlight
				var x = parseFloat(rect.attributes.x.value);
				orig_save(rect, "fill");
				rect.attributes.fill.value = "rgb(230,0,230)";

				// remember matches
				if (matches[x] == undefined) {
					matches[x] = w;
				} else {
					if (w > matches[x]) {
						// overwrite with parent
						matches[x] = w;
					}
				}
				searching = 1;
			}
		}
		if (!searching)
			return;
		var params = get_params();
		params.s = currentSearchTerm;
		history.replaceState(null, null, parse_params(params));

		searchbtn.classList.add("show");
		searchbtn.firstChild.nodeValue = "Reset Search";

		// calculate percent matched, excluding vertical overlap
		var count = 0;
		var lastx = -1;
		var lastw = 0;
		var keys = Array();
		for (k in matches) {
			if (matches.hasOwnProperty(k))
				keys.push(k);
		}
		// sort the matched frames by their x location
		// ascending, then width descending
		keys.sort(function(a, b){
			return a - b;
		});
		// Step through frames saving only the biggest bottom-up frames
		// thanks to the sort order. This relies on the tree property
		// where children are always smaller than their parents.
		var fudge = 0.0001;	// JavaScript floating point
		for (var k in keys) {
			var x = parseFloat(keys[k]);
			var w = matches[keys[k]];
			if (x >= lastx + lastw - fudge) {
				count += w;
				lastx = x;
				lastw = w;
			}
		}
		// display matched percent
		matchedtxt.classList.remove("hide");
		var pct = 100 * count / maxwidth;
		if (pct != 100) pct = pct.toFixed(1)
		matchedtxt.firstChild.nodeValue = "Matched: " + pct + "%";
	}
]]>
</script>
<rect x="0.0" y="0" width="1200.0" height="406.0" fill="url(#background)"  />
<text id="title" x="600.00" y="24" >Flame Graph</text>
<text id="details" x="10.00" y="389" > </text>
<text id="unzoom" x="10.00" y="24" class="hide">Reset Zoom</text>
<text id="search" x="1090.00" y="24" >Search</text>
<text id="ignorecase" x="1174.00" y="24" >ic</text>
<text id="matched" x="1090.00" y="389" > </text>
<g id="frames">
<g >
<title>w2c_decode__webp__wasmsimd_HFilter16i_SSE2 (7,391,455 samples, 1.23%)</title><rect x="787.2" y="325" width="14.6" height="15.0" fill="rgb(225,93,22)" rx="2" ry="2" />
<text  x="790.24" y="335.5" ></text>
</g>
<g >
<title>exit_to_user_mode_prepare (922,385 samples, 0.15%)</title><rect x="80.3" y="245" width="1.8" height="15.0" fill="rgb(228,108,25)" rx="2" ry="2" />
<text  x="83.29" y="255.5" ></text>
</g>
<g >
<title>w2c_decode__webp__wasmsimd_GetCoeffsAlt (923,538 samples, 0.15%)</title><rect x="98.2" y="309" width="1.8" height="15.0" fill="rgb(214,45,10)" rx="2" ry="2" />
<text  x="101.16" y="319.5" ></text>
</g>
<g >
<title>ext4_block_write_begin (922,195 samples, 0.15%)</title><rect x="83.4" y="181" width="1.8" height="15.0" fill="rgb(206,4,1)" rx="2" ry="2" />
<text  x="86.38" y="191.5" ></text>
</g>
<g >
<title>ghes_proc (2,770,874 samples, 0.46%)</title><rect x="678.6" y="181" width="5.4" height="15.0" fill="rgb(250,210,50)" rx="2" ry="2" />
<text  x="681.58" y="191.5" ></text>
</g>
<g >
<title>acpi_os_read_memory (1,847,708 samples, 0.31%)</title><rect x="678.6" y="133" width="3.6" height="15.0" fill="rgb(237,148,35)" rx="2" ry="2" />
<text  x="681.58" y="143.5" ></text>
</g>
<g >
<title>sysvec_apic_timer_interrupt (3,693,993 samples, 0.62%)</title><rect x="676.8" y="293" width="7.2" height="15.0" fill="rgb(220,69,16)" rx="2" ry="2" />
<text  x="679.76" y="303.5" ></text>
</g>
<g >
<title>w2c_decode__webp__wasmsimd_HE16_SSE2 (923,124 samples, 0.15%)</title><rect x="15.5" y="229" width="1.8" height="15.0" fill="rgb(224,89,21)" rx="2" ry="2" />
<text  x="18.45" y="239.5" ></text>
</g>
<g >
<title>do_syscall_64 (68,947 samples, 0.01%)</title><rect x="1189.9" y="293" width="0.1" height="15.0" fill="rgb(209,20,4)" rx="2" ry="2" />
<text  x="1192.86" y="303.5" ></text>
</g>
<g >
<title>shift_arg_pages (325,726 samples, 0.05%)</title><rect x="85.2" y="197" width="0.6" height="15.0" fill="rgb(245,187,44)" rx="2" ry="2" />
<text  x="88.20" y="207.5" ></text>
</g>
<g >
<title>w2c_decode__webp__wasmsimd_VP8LDoFillBitWindow (2,769,909 samples, 0.46%)</title><rect x="1036.5" y="325" width="5.4" height="15.0" fill="rgb(211,29,7)" rx="2" ry="2" />
<text  x="1039.48" y="335.5" ></text>
</g>
<g >
<title>__mod_memcg_lruvec_state (922,385 samples, 0.15%)</title><rect x="80.3" y="53" width="1.8" height="15.0" fill="rgb(247,195,46)" rx="2" ry="2" />
<text  x="83.29" y="63.5" ></text>
</g>
<g >
<title>w2c_decode__webp__wasmsimd_HFilter16_SSE2 (4,620,476 samples, 0.77%)</title><rect x="778.1" y="325" width="9.1" height="15.0" fill="rgb(253,224,53)" rx="2" ry="2" />
<text  x="781.14" y="335.5" ></text>
</g>
<g >
<title>kmem_cache_free (325,726 samples, 0.05%)</title><rect x="85.2" y="133" width="0.6" height="15.0" fill="rgb(254,225,53)" rx="2" ry="2" />
<text  x="88.20" y="143.5" ></text>
</g>
<g >
<title>do_syscall_64 (922,195 samples, 0.15%)</title><rect x="83.4" y="277" width="1.8" height="15.0" fill="rgb(209,20,4)" rx="2" ry="2" />
<text  x="86.38" y="287.5" ></text>
</g>
<g >
<title>perf-exec (68,947 samples, 0.01%)</title><rect x="1189.9" y="341" width="0.1" height="15.0" fill="rgb(231,123,29)" rx="2" ry="2" />
<text  x="1192.86" y="351.5" ></text>
</g>
<g >
<title>__libc_write (922,195 samples, 0.15%)</title><rect x="83.4" y="309" width="1.8" height="15.0" fill="rgb(238,154,37)" rx="2" ry="2" />
<text  x="86.38" y="319.5" ></text>
</g>
<g >
<title>call_timer_fn (3,693,993 samples, 0.62%)</title><rect x="676.8" y="213" width="7.2" height="15.0" fill="rgb(234,135,32)" rx="2" ry="2" />
<text  x="679.76" y="223.5" ></text>
</g>
<g >
<title>w2c_decode__webp__wasmsimd_FinishRow (1,848,447 samples, 0.31%)</title><rect x="200.8" y="325" width="3.7" height="15.0" fill="rgb(205,3,0)" rx="2" ry="2" />
<text  x="203.84" y="335.5" ></text>
</g>
<g >
<title>bprm_execve (68,947 samples, 0.01%)</title><rect x="1189.9" y="245" width="0.1" height="15.0" fill="rgb(218,61,14)" rx="2" ry="2" />
<text  x="1192.86" y="255.5" ></text>
</g>
<g >
<title>ext4_buffered_write_iter (922,195 samples, 0.15%)</title><rect x="83.4" y="229" width="1.8" height="15.0" fill="rgb(213,40,9)" rx="2" ry="2" />
<text  x="86.38" y="239.5" ></text>
</g>
<g >
<title>do_syscall_64 (922,385 samples, 0.15%)</title><rect x="80.3" y="277" width="1.8" height="15.0" fill="rgb(209,20,4)" rx="2" ry="2" />
<text  x="83.29" y="287.5" ></text>
</g>
<g >
<title>__handle_mm_fault (651,159 samples, 0.11%)</title><rect x="82.1" y="229" width="1.3" height="15.0" fill="rgb(207,9,2)" rx="2" ry="2" />
<text  x="85.10" y="239.5" ></text>
</g>
<g >
<title>__close_nocancel (922,385 samples, 0.15%)</title><rect x="80.3" y="309" width="1.8" height="15.0" fill="rgb(228,109,26)" rx="2" ry="2" />
<text  x="83.29" y="319.5" ></text>
</g>
<g >
<title>handle_mm_fault (651,159 samples, 0.11%)</title><rect x="82.1" y="245" width="1.3" height="15.0" fill="rgb(234,135,32)" rx="2" ry="2" />
<text  x="85.10" y="255.5" ></text>
</g>
<g >
<title>w2c_decode__webp__wasmsimd_DC8uvNoLeft_SSE2 (923,365 samples, 0.15%)</title><rect x="154.1" y="325" width="1.8" height="15.0" fill="rgb(226,96,23)" rx="2" ry="2" />
<text  x="157.11" y="335.5" ></text>
</g>
<g >
<title>w2c_decode__webp__wasmsimd_VP8YuvToRgb32_SSE2 (64,284,938 samples, 10.73%)</title><rect x="1057.9" y="325" width="126.5" height="15.0" fill="rgb(233,129,31)" rx="2" ry="2" />
<text  x="1060.85" y="335.5" >w2c_decode__web..</text>
</g>
<g >
<title>cgroup_rstat_updated (922,385 samples, 0.15%)</title><rect x="80.3" y="37" width="1.8" height="15.0" fill="rgb(244,180,43)" rx="2" ry="2" />
<text  x="83.29" y="47.5" ></text>
</g>
<g >
<title>filemap_fdatawrite_wbc (922,385 samples, 0.15%)</title><rect x="80.3" y="165" width="1.8" height="15.0" fill="rgb(210,25,6)" rx="2" ry="2" />
<text  x="83.29" y="175.5" ></text>
</g>
<g >
<title>__x64_sys_execve (325,726 samples, 0.05%)</title><rect x="85.2" y="277" width="0.6" height="15.0" fill="rgb(247,193,46)" rx="2" ry="2" />
<text  x="88.20" y="287.5" ></text>
</g>
<g >
<title>w2c_decode__webp__wasmsimd_memcpy (1,847,501 samples, 0.31%)</title><rect x="1186.2" y="325" width="3.7" height="15.0" fill="rgb(249,206,49)" rx="2" ry="2" />
<text  x="1189.23" y="335.5" ></text>
</g>
<g >
<title>[unknown] (68,947 samples, 0.01%)</title><rect x="1189.9" y="325" width="0.1" height="15.0" fill="rgb(210,24,5)" rx="2" ry="2" />
<text  x="1192.86" y="335.5" ></text>
</g>
<g >
<title>__ghes_peek_estatus.isra.0 (2,770,874 samples, 0.46%)</title><rect x="678.6" y="165" width="5.4" height="15.0" fill="rgb(248,201,48)" rx="2" ry="2" />
<text  x="681.58" y="175.5" ></text>
</g>
<g >
<title>w2c_decode__webp__wasmsimd_TransformUV_C (923,194 samples, 0.15%)</title><rect x="105.4" y="309" width="1.8" height="15.0" fill="rgb(228,108,25)" rx="2" ry="2" />
<text  x="108.43" y="319.5" ></text>
</g>
<g >
<title>vfs_write (922,195 samples, 0.15%)</title><rect x="83.4" y="245" width="1.8" height="15.0" fill="rgb(250,209,50)" rx="2" ry="2" />
<text  x="86.38" y="255.5" ></text>
</g>
<g >
<title>do_user_addr_fault (651,159 samples, 0.11%)</title><rect x="82.1" y="261" width="1.3" height="15.0" fill="rgb(228,108,25)" rx="2" ry="2" />
<text  x="85.10" y="271.5" ></text>
</g>
<g >
<title>w2c_decode__webp__wasmsimd_IDecode (1,846,350 samples, 0.31%)</title><rect x="100.0" y="309" width="3.6" height="15.0" fill="rgb(237,147,35)" rx="2" ry="2" />
<text  x="102.98" y="319.5" ></text>
</g>
<g >
<title>round_jiffies_relative (923,119 samples, 0.15%)</title><rect x="676.8" y="181" width="1.8" height="15.0" fill="rgb(210,24,5)" rx="2" ry="2" />
<text  x="679.76" y="191.5" ></text>
</g>
<g >
<title>[unknown] (65,103,032 samples, 10.86%)</title><rect x="10.0" y="325" width="128.2" height="15.0" fill="rgb(210,24,5)" rx="2" ry="2" />
<text  x="13.00" y="335.5" >[unknown]</text>
</g>
<g >
<title>ghes_add_timer (923,119 samples, 0.15%)</title><rect x="676.8" y="197" width="1.8" height="15.0" fill="rgb(214,43,10)" rx="2" ry="2" />
<text  x="679.76" y="207.5" ></text>
</g>
<g >
<title>__irq_exit_rcu (3,693,993 samples, 0.62%)</title><rect x="676.8" y="277" width="7.2" height="15.0" fill="rgb(227,101,24)" rx="2" ry="2" />
<text  x="679.76" y="287.5" ></text>
</g>
<g >
<title>w2c_decode__webp__wasmsimd_VP8LReadBits (6,236,950 samples, 1.04%)</title><rect x="1041.9" y="325" width="12.3" height="15.0" fill="rgb(228,108,26)" rx="2" ry="2" />
<text  x="1044.94" y="335.5" ></text>
</g>
<g >
<title>w2c_decode__webp__wasmsimd_VFilter8i_SSE2 (3,694,649 samples, 0.62%)</title><rect x="1025.6" y="325" width="7.2" height="15.0" fill="rgb(238,154,36)" rx="2" ry="2" />
<text  x="1028.57" y="335.5" ></text>
</g>
<g >
<title>ext4_da_write_begin (922,195 samples, 0.15%)</title><rect x="83.4" y="197" width="1.8" height="15.0" fill="rgb(211,32,7)" rx="2" ry="2" />
<text  x="86.38" y="207.5" ></text>
</g>
<g >
<title>w2c_decode__webp__wasmsimd_DC16_SSE2 (923,695 samples, 0.15%)</title><rect x="152.3" y="325" width="1.8" height="15.0" fill="rgb(213,37,8)" rx="2" ry="2" />
<text  x="155.30" y="335.5" ></text>
</g>
<g >
<title>setup_arg_pages (325,726 samples, 0.05%)</title><rect x="85.2" y="213" width="0.6" height="15.0" fill="rgb(222,82,19)" rx="2" ry="2" />
<text  x="88.20" y="223.5" ></text>
</g>
<g >
<title>w2c_decode__webp__wasmsimd_HFilter8_SSE2 (4,617,244 samples, 0.77%)</title><rect x="801.8" y="325" width="9.1" height="15.0" fill="rgb(207,10,2)" rx="2" ry="2" />
<text  x="804.79" y="335.5" ></text>
</g>
<g >
<title>w2c_decode__webp__wasmsimd_TM16_SSE2 (924,153 samples, 0.15%)</title><rect x="55.5" y="229" width="1.8" height="15.0" fill="rgb(245,184,44)" rx="2" ry="2" />
<text  x="58.47" y="239.5" ></text>
</g>
<g >
<title>w2c_decode__webp__wasmsimd_UpsampleRgbLinePair_SSE2 (6,391,568 samples, 1.07%)</title><rect x="1000.3" y="325" width="12.5" height="15.0" fill="rgb(212,33,7)" rx="2" ry="2" />
<text  x="1003.26" y="335.5" ></text>
</g>
<g >
<title>do_execveat_common.isra.0 (325,726 samples, 0.05%)</title><rect x="85.2" y="261" width="0.6" height="15.0" fill="rgb(231,123,29)" rx="2" ry="2" />
<text  x="88.20" y="271.5" ></text>
</g>
<g >
<title>w2c_decode__webp__wasmsimd_GetLargeValue (44,109,200 samples, 7.36%)</title><rect x="684.0" y="325" width="86.9" height="15.0" fill="rgb(234,137,32)" rx="2" ry="2" />
<text  x="687.03" y="335.5" >w2c_decode..</text>
</g>
<g >
<title>ghes_copy_tofrom_phys (923,166 samples, 0.15%)</title><rect x="682.2" y="149" width="1.8" height="15.0" fill="rgb(225,94,22)" rx="2" ry="2" />
<text  x="685.22" y="159.5" ></text>
</g>
<g >
<title>w2c_decode__webp__wasmsimd_ReconstructRow (924,339 samples, 0.15%)</title><rect x="103.6" y="309" width="1.8" height="15.0" fill="rgb(217,55,13)" rx="2" ry="2" />
<text  x="106.61" y="319.5" ></text>
</g>
<g >
<title>apei_read (1,847,708 samples, 0.31%)</title><rect x="678.6" y="149" width="3.6" height="15.0" fill="rgb(207,11,2)" rx="2" ry="2" />
<text  x="681.58" y="159.5" ></text>
</g>
<g >
<title>entry_SYSCALL_64_after_hwframe (68,947 samples, 0.01%)</title><rect x="1189.9" y="309" width="0.1" height="15.0" fill="rgb(218,63,15)" rx="2" ry="2" />
<text  x="1192.86" y="319.5" ></text>
</g>
<g >
<title>w2c_decode__webp__wasmsimd_IDecode (83,263,741 samples, 13.89%)</title><rect x="818.2" y="325" width="163.9" height="15.0" fill="rgb(237,147,35)" rx="2" ry="2" />
<text  x="821.16" y="335.5" >w2c_decode__webp__was..</text>
</g>
<g >
<title>w2c_decode__webp__wasmsimd_BuildHuffmanTable (924,322 samples, 0.15%)</title><rect x="150.5" y="325" width="1.8" height="15.0" fill="rgb(218,63,15)" rx="2" ry="2" />
<text  x="153.48" y="335.5" ></text>
</g>
<g >
<title>w2c_decode__webp__wasmsimd_ExtractGreen_SSE2 (5,542,372 samples, 0.92%)</title><rect x="87.2" y="309" width="11.0" height="15.0" fill="rgb(217,58,14)" rx="2" ry="2" />
<text  x="90.25" y="319.5" ></text>
</g>
<g >
<title>[unknown] (35,702,214 samples, 5.96%)</title><rect x="10.0" y="261" width="70.3" height="15.0" fill="rgb(210,24,5)" rx="2" ry="2" />
<text  x="13.00" y="271.5" >[unknown]</text>
</g>
<g >
<title>bprm_execve (325,726 samples, 0.05%)</title><rect x="85.2" y="245" width="0.6" height="15.0" fill="rgb(218,61,14)" rx="2" ry="2" />
<text  x="88.20" y="255.5" ></text>
</g>
<g >
<title>mas_store_prealloc (325,726 samples, 0.05%)</title><rect x="85.2" y="165" width="0.6" height="15.0" fill="rgb(223,85,20)" rx="2" ry="2" />
<text  x="88.20" y="175.5" ></text>
</g>
<g >
<title>begin_new_exec (68,947 samples, 0.01%)</title><rect x="1189.9" y="213" width="0.1" height="15.0" fill="rgb(245,184,44)" rx="2" ry="2" />
<text  x="1192.86" y="223.5" ></text>
</g>
<g >
<title>mas_destroy (325,726 samples, 0.05%)</title><rect x="85.2" y="149" width="0.6" height="15.0" fill="rgb(250,209,49)" rx="2" ry="2" />
<text  x="88.20" y="159.5" ></text>
</g>
<g >
<title>w2c_decode__webp__wasmsimd_VP8GetValue (1,847,512 samples, 0.31%)</title><rect x="1032.8" y="325" width="3.7" height="15.0" fill="rgb(222,81,19)" rx="2" ry="2" />
<text  x="1035.85" y="335.5" ></text>
</g>
<g >
<title>w2c_decode__webp__wasmsimd_TM4_SSE2 (923,764 samples, 0.15%)</title><rect x="57.3" y="229" width="1.8" height="15.0" fill="rgb(224,90,21)" rx="2" ry="2" />
<text  x="60.29" y="239.5" ></text>
</g>
<g >
<title>__filemap_fdatawrite_range (922,385 samples, 0.15%)</title><rect x="80.3" y="181" width="1.8" height="15.0" fill="rgb(233,129,30)" rx="2" ry="2" />
<text  x="83.29" y="191.5" ></text>
</g>
<g >
<title>do_user_addr_fault (710,912 samples, 0.12%)</title><rect x="149.1" y="277" width="1.4" height="15.0" fill="rgb(228,108,25)" rx="2" ry="2" />
<text  x="152.08" y="287.5" ></text>
</g>
<g >
<title>w2c_decode__webp__wasmsimd_ReadHuffmanCode (922,724 samples, 0.15%)</title><rect x="982.1" y="325" width="1.8" height="15.0" fill="rgb(222,79,18)" rx="2" ry="2" />
<text  x="985.08" y="335.5" ></text>
</g>
<g >
<title>w2c_decode__webp__wasmsimd_HE4_C (1,847,362 samples, 0.31%)</title><rect x="17.3" y="229" width="3.6" height="15.0" fill="rgb(212,32,7)" rx="2" ry="2" />
<text  x="20.27" y="239.5" ></text>
</g>
<g >
<title>__softirqentry_text_start (3,693,993 samples, 0.62%)</title><rect x="676.8" y="261" width="7.2" height="15.0" fill="rgb(234,135,32)" rx="2" ry="2" />
<text  x="679.76" y="271.5" ></text>
</g>
<g >
<title>w2c_decode__webp__wasmsimd_HE8uv_C (3,695,466 samples, 0.62%)</title><rect x="770.9" y="325" width="7.2" height="15.0" fill="rgb(218,60,14)" rx="2" ry="2" />
<text  x="773.87" y="335.5" ></text>
</g>
<g >
<title>cache_from_obj (325,726 samples, 0.05%)</title><rect x="85.2" y="117" width="0.6" height="15.0" fill="rgb(254,229,54)" rx="2" ry="2" />
<text  x="88.20" y="127.5" ></text>
</g>
<g >
<title>w2c_decode__webp__wasmsimd_HE8uv_C (1,848,468 samples, 0.31%)</title><rect x="20.9" y="229" width="3.6" height="15.0" fill="rgb(218,60,14)" rx="2" ry="2" />
<text  x="23.91" y="239.5" ></text>
</g>
<g >
<title>__run_timers (3,693,993 samples, 0.62%)</title><rect x="676.8" y="229" width="7.2" height="15.0" fill="rgb(206,5,1)" rx="2" ry="2" />
<text  x="679.76" y="239.5" ></text>
</g>
<g >
<title>w2c_decode__webp__wasmsimd_TransformDC_C (4,612,239 samples, 0.77%)</title><rect x="59.1" y="229" width="9.1" height="15.0" fill="rgb(211,27,6)" rx="2" ry="2" />
<text  x="62.11" y="239.5" ></text>
</g>
<g >
<title>w2c_decode__webp__wasmsimd_VFilter16i_SSE2 (922,806 samples, 0.15%)</title><rect x="1018.3" y="325" width="1.8" height="15.0" fill="rgb(234,137,32)" rx="2" ry="2" />
<text  x="1021.30" y="335.5" ></text>
</g>
<g >
<title>w2c_decode__webp__wasmsimd_GetCoeffsAlt (243,594,358 samples, 40.64%)</title><rect x="204.5" y="325" width="479.5" height="15.0" fill="rgb(214,45,10)" rx="2" ry="2" />
<text  x="207.48" y="335.5" >w2c_decode__webp__wasmsimd_GetCoeffsAlt</text>
</g>
<g >
<title>w2c_decode__webp__wasmsimd_DC4_C (1,847,264 samples, 0.31%)</title><rect x="10.0" y="229" width="3.6" height="15.0" fill="rgb(250,210,50)" rx="2" ry="2" />
<text  x="13.00" y="239.5" ></text>
</g>
<g >
<title>w2c_decode__webp__wasmsimd_DecodeImageData (16,341,967 samples, 2.73%)</title><rect x="168.7" y="325" width="32.1" height="15.0" fill="rgb(246,191,45)" rx="2" ry="2" />
<text  x="171.67" y="335.5" >w2..</text>
</g>
<g >
<title>asm_exc_page_fault (710,912 samples, 0.12%)</title><rect x="149.1" y="309" width="1.4" height="15.0" fill="rgb(225,93,22)" rx="2" ry="2" />
<text  x="152.08" y="319.5" ></text>
</g>
<g >
<title>__mod_lruvec_page_state (922,385 samples, 0.15%)</title><rect x="80.3" y="69" width="1.8" height="15.0" fill="rgb(245,185,44)" rx="2" ry="2" />
<text  x="83.29" y="79.5" ></text>
</g>
<g >
<title>exc_page_fault (710,912 samples, 0.12%)</title><rect x="149.1" y="293" width="1.4" height="15.0" fill="rgb(212,35,8)" rx="2" ry="2" />
<text  x="152.08" y="303.5" ></text>
</g>
<g >
<title>w2c_decode__webp__wasmsimd_DC8uv_SSE2 (6,467,806 samples, 1.08%)</title><rect x="155.9" y="325" width="12.8" height="15.0" fill="rgb(248,200,48)" rx="2" ry="2" />
<text  x="158.93" y="335.5" ></text>
</g>
<g >
<title>all (599,389,254 samples, 100%)</title><rect x="10.0" y="357" width="1180.0" height="15.0" fill="rgb(213,39,9)" rx="2" ry="2" />
<text  x="13.00" y="367.5" ></text>
</g>
<g >
<title>w2c_decode__webp__wasmsimd_ReconstructRow (13,858,484 samples, 2.31%)</title><rect x="28.2" y="229" width="27.3" height="15.0" fill="rgb(217,55,13)" rx="2" ry="2" />
<text  x="31.19" y="239.5" >w..</text>
</g>
<g >
<title>w2c_decode__webp__wasmsimd_HFilter8i_SSE2 (3,695,233 samples, 0.62%)</title><rect x="810.9" y="325" width="7.3" height="15.0" fill="rgb(229,110,26)" rx="2" ry="2" />
<text  x="813.88" y="335.5" ></text>
</g>
<g >
<title>ext4_da_get_block_prep (922,195 samples, 0.15%)</title><rect x="83.4" y="165" width="1.8" height="15.0" fill="rgb(241,168,40)" rx="2" ry="2" />
<text  x="86.38" y="175.5" ></text>
</g>
<g >
<title>__ctype_init (651,159 samples, 0.11%)</title><rect x="82.1" y="309" width="1.3" height="15.0" fill="rgb(209,20,4)" rx="2" ry="2" />
<text  x="85.10" y="319.5" ></text>
</g>
<g >
<title>[unknown] (35,702,214 samples, 5.96%)</title><rect x="10.0" y="245" width="70.3" height="15.0" fill="rgb(210,24,5)" rx="2" ry="2" />
<text  x="13.00" y="255.5" >[unknown]</text>
</g>
<g >
<title>w2c_decode__webp__wasmsimd_VP8ParseProba (1,846,972 samples, 0.31%)</title><rect x="1054.2" y="325" width="3.7" height="15.0" fill="rgb(216,51,12)" rx="2" ry="2" />
<text  x="1057.22" y="335.5" ></text>
</g>
<g >
<title>w2c_decode__webp__wasmsimd_VFilter8_SSE2 (2,770,726 samples, 0.46%)</title><rect x="1020.1" y="325" width="5.5" height="15.0" fill="rgb(216,54,13)" rx="2" ry="2" />
<text  x="1023.12" y="335.5" ></text>
</g>
<g >
<title>exc_page_fault (651,159 samples, 0.11%)</title><rect x="82.1" y="277" width="1.3" height="15.0" fill="rgb(212,35,8)" rx="2" ry="2" />
<text  x="85.10" y="287.5" ></text>
</g>
<g >
<title>w2c_decode__webp__wasmsimd_Transform_SSE2 (15,705,132 samples, 2.62%)</title><rect x="107.2" y="309" width="31.0" height="15.0" fill="rgb(224,91,21)" rx="2" ry="2" />
<text  x="110.25" y="319.5" >w2..</text>
</g>
<g >
<title>ghes_poll_func (2,770,874 samples, 0.46%)</title><rect x="678.6" y="197" width="5.4" height="15.0" fill="rgb(252,220,52)" rx="2" ry="2" />
<text  x="681.58" y="207.5" ></text>
</g>
<g >
<title>w2c_decode__webp__wasmsimd_VR4_SSE2 (923,161 samples, 0.15%)</title><rect x="78.5" y="229" width="1.8" height="15.0" fill="rgb(229,112,26)" rx="2" ry="2" />
<text  x="81.47" y="239.5" ></text>
</g>
<g >
<title>mod_lruvec_page_state (922,385 samples, 0.15%)</title><rect x="80.3" y="85" width="1.8" height="15.0" fill="rgb(222,80,19)" rx="2" ry="2" />
<text  x="83.29" y="95.5" ></text>
</g>
<g >
<title>w2c_decode__webp__wasmsimd_Transform_SSE2 (5,222,114 samples, 0.87%)</title><rect x="68.2" y="229" width="10.3" height="15.0" fill="rgb(224,91,21)" rx="2" ry="2" />
<text  x="71.19" y="239.5" ></text>
</g>
<g >
<title>__x64_sys_execve (68,947 samples, 0.01%)</title><rect x="1189.9" y="277" width="0.1" height="15.0" fill="rgb(247,193,46)" rx="2" ry="2" />
<text  x="1192.86" y="287.5" ></text>
</g>
<g >
<title>[unknown] (35,702,214 samples, 5.96%)</title><rect x="10.0" y="309" width="70.3" height="15.0" fill="rgb(210,24,5)" rx="2" ry="2" />
<text  x="13.00" y="319.5" >[unknown]</text>
</g>
<g >
<title>[unknown] (35,702,214 samples, 5.96%)</title><rect x="10.0" y="277" width="70.3" height="15.0" fill="rgb(210,24,5)" rx="2" ry="2" />
<text  x="13.00" y="287.5" >[unknown]</text>
</g>
<g >
<title>w2c_decode__webp__wasmsimd_VFilter16_SSE2 (2,772,550 samples, 0.46%)</title><rect x="1012.8" y="325" width="5.5" height="15.0" fill="rgb(213,38,9)" rx="2" ry="2" />
<text  x="1015.84" y="335.5" ></text>
</g>
<g >
<title>ext4_writepages (922,385 samples, 0.15%)</title><rect x="80.3" y="133" width="1.8" height="15.0" fill="rgb(240,165,39)" rx="2" ry="2" />
<text  x="83.29" y="143.5" ></text>
</g>
<g >
<title>w2c_decode__webp__wasmsimd_TransformDC_C (923,845 samples, 0.15%)</title><rect x="998.4" y="325" width="1.9" height="15.0" fill="rgb(211,27,6)" rx="2" ry="2" />
<text  x="1001.44" y="335.5" ></text>
</g>
<g >
<title>filemap_map_pages (651,159 samples, 0.11%)</title><rect x="82.1" y="197" width="1.3" height="15.0" fill="rgb(229,112,27)" rx="2" ry="2" />
<text  x="85.10" y="207.5" ></text>
</g>
<g >
<title>[unknown] (35,702,214 samples, 5.96%)</title><rect x="10.0" y="293" width="70.3" height="15.0" fill="rgb(210,24,5)" rx="2" ry="2" />
<text  x="13.00" y="303.5" >[unknown]</text>
</g>
<g >
<title>syscall_exit_to_user_mode (922,385 samples, 0.15%)</title><rect x="80.3" y="261" width="1.8" height="15.0" fill="rgb(251,211,50)" rx="2" ry="2" />
<text  x="83.29" y="271.5" ></text>
</g>
<g >
<title>load_elf_binary (68,947 samples, 0.01%)</title><rect x="1189.9" y="229" width="0.1" height="15.0" fill="rgb(223,83,20)" rx="2" ry="2" />
<text  x="1192.86" y="239.5" ></text>
</g>
<g >
<title>decode_webp_was (599,320,307 samples, 99.99%)</title><rect x="10.0" y="341" width="1179.9" height="15.0" fill="rgb(216,54,12)" rx="2" ry="2" />
<text  x="13.00" y="351.5" >decode_webp_was</text>
</g>
<g >
<title>w2c_decode__webp__wasmsimd_WebPIoInitFromOptions (924,312 samples, 0.15%)</title><rect x="1184.4" y="325" width="1.8" height="15.0" fill="rgb(250,210,50)" rx="2" ry="2" />
<text  x="1187.41" y="335.5" ></text>
</g>
<g >
<title>__vma_adjust (325,726 samples, 0.05%)</title><rect x="85.2" y="181" width="0.6" height="15.0" fill="rgb(224,87,20)" rx="2" ry="2" />
<text  x="88.20" y="191.5" ></text>
</g>
<g >
<title>w2c_decode__webp__wasmsimd_HD4_C (923,476 samples, 0.15%)</title><rect x="13.6" y="229" width="1.9" height="15.0" fill="rgb(218,62,14)" rx="2" ry="2" />
<text  x="16.64" y="239.5" ></text>
</g>
<g >
<title>__memmove_avx_unaligned_erms (6,252,908 samples, 1.04%)</title><rect x="138.2" y="325" width="12.3" height="15.0" fill="rgb(205,0,0)" rx="2" ry="2" />
<text  x="141.17" y="335.5" ></text>
</g>
<g >
<title>do_fault (651,159 samples, 0.11%)</title><rect x="82.1" y="213" width="1.3" height="15.0" fill="rgb(248,200,47)" rx="2" ry="2" />
<text  x="85.10" y="223.5" ></text>
</g>
<g >
<title>task_work_run (922,385 samples, 0.15%)</title><rect x="80.3" y="229" width="1.8" height="15.0" fill="rgb(209,22,5)" rx="2" ry="2" />
<text  x="83.29" y="239.5" ></text>
</g>
<g >
<title>folio_clear_dirty_for_io (922,385 samples, 0.15%)</title><rect x="80.3" y="101" width="1.8" height="15.0" fill="rgb(237,150,36)" rx="2" ry="2" />
<text  x="83.29" y="111.5" ></text>
</g>
<g >
<title>ksys_write (922,195 samples, 0.15%)</title><rect x="83.4" y="261" width="1.8" height="15.0" fill="rgb(205,4,1)" rx="2" ry="2" />
<text  x="86.38" y="271.5" ></text>
</g>
<g >
<title>__fput (922,385 samples, 0.15%)</title><rect x="80.3" y="213" width="1.8" height="15.0" fill="rgb(248,200,47)" rx="2" ry="2" />
<text  x="83.29" y="223.5" ></text>
</g>
<g >
<title>w2c_decode__webp__wasmsimd_HU4_C (924,213 samples, 0.15%)</title><rect x="24.5" y="229" width="1.9" height="15.0" fill="rgb(208,17,4)" rx="2" ry="2" />
<text  x="27.55" y="239.5" ></text>
</g>
<g >
<title>asm_sysvec_apic_timer_interrupt (3,693,993 samples, 0.62%)</title><rect x="676.8" y="309" width="7.2" height="15.0" fill="rgb(232,127,30)" rx="2" ry="2" />
<text  x="679.76" y="319.5" ></text>
</g>
<g >
<title>asm_exc_page_fault (651,159 samples, 0.11%)</title><rect x="82.1" y="293" width="1.3" height="15.0" fill="rgb(225,93,22)" rx="2" ry="2" />
<text  x="85.10" y="303.5" ></text>
</g>
<g >
<title>mpage_submit_page (922,385 samples, 0.15%)</title><rect x="80.3" y="117" width="1.8" height="15.0" fill="rgb(232,127,30)" rx="2" ry="2" />
<text  x="83.29" y="127.5" ></text>
</g>
<g >
<title>w2c_decode__webp__wasmsimd_RD4_SSE2 (924,392 samples, 0.15%)</title><rect x="26.4" y="229" width="1.8" height="15.0" fill="rgb(245,187,44)" rx="2" ry="2" />
<text  x="29.37" y="239.5" ></text>
</g>
<g >
<title>load_elf_binary (325,726 samples, 0.05%)</title><rect x="85.2" y="229" width="0.6" height="15.0" fill="rgb(223,83,20)" rx="2" ry="2" />
<text  x="88.20" y="239.5" ></text>
</g>
<g >
<title>entry_SYSCALL_64_after_hwframe (922,385 samples, 0.15%)</title><rect x="80.3" y="293" width="1.8" height="15.0" fill="rgb(218,63,15)" rx="2" ry="2" />
<text  x="83.29" y="303.5" ></text>
</g>
<g >
<title>generic_perform_write (922,195 samples, 0.15%)</title><rect x="83.4" y="213" width="1.8" height="15.0" fill="rgb(236,146,35)" rx="2" ry="2" />
<text  x="86.38" y="223.5" ></text>
</g>
<g >
<title>entry_SYSCALL_64_after_hwframe (325,726 samples, 0.05%)</title><rect x="85.2" y="309" width="0.6" height="15.0" fill="rgb(218,63,15)" rx="2" ry="2" />
<text  x="88.20" y="319.5" ></text>
</g>
<g >
<title>w2c_decode__webp__wasmsimd_TransformAC3_C (3,696,079 samples, 0.62%)</title><rect x="991.2" y="325" width="7.2" height="15.0" fill="rgb(251,211,50)" rx="2" ry="2" />
<text  x="994.17" y="335.5" ></text>
</g>
<g >
<title>w2c_decode__webp__wasmsimd_ExtractAlphaRows (714,428 samples, 0.12%)</title><rect x="85.8" y="309" width="1.4" height="15.0" fill="rgb(235,139,33)" rx="2" ry="2" />
<text  x="88.84" y="319.5" ></text>
</g>
<g >
<title>do_syscall_64 (325,726 samples, 0.05%)</title><rect x="85.2" y="293" width="0.6" height="15.0" fill="rgb(209,20,4)" rx="2" ry="2" />
<text  x="88.20" y="303.5" ></text>
</g>
<g >
<title>perf_event_exec (68,947 samples, 0.01%)</title><rect x="1189.9" y="197" width="0.1" height="15.0" fill="rgb(218,60,14)" rx="2" ry="2" />
<text  x="1192.86" y="207.5" ></text>
</g>
<g >
<title>w2c_decode__webp__wasmsimd_ReconstructRow (3,694,551 samples, 0.62%)</title><rect x="983.9" y="325" width="7.3" height="15.0" fill="rgb(217,55,13)" rx="2" ry="2" />
<text  x="986.89" y="335.5" ></text>
</g>
<g >
<title>ext4_release_file (922,385 samples, 0.15%)</title><rect x="80.3" y="197" width="1.8" height="15.0" fill="rgb(225,92,22)" rx="2" ry="2" />
<text  x="83.29" y="207.5" ></text>
</g>
<g >
<title>memcpy_fromio (923,166 samples, 0.15%)</title><rect x="682.2" y="133" width="1.8" height="15.0" fill="rgb(232,127,30)" rx="2" ry="2" />
<text  x="685.22" y="143.5" ></text>
</g>
<g >
<title>run_timer_softirq (3,693,993 samples, 0.62%)</title><rect x="676.8" y="245" width="7.2" height="15.0" fill="rgb(249,206,49)" rx="2" ry="2" />
<text  x="679.76" y="255.5" ></text>
</g>
<g >
<title>do_writepages (922,385 samples, 0.15%)</title><rect x="80.3" y="149" width="1.8" height="15.0" fill="rgb(240,164,39)" rx="2" ry="2" />
<text  x="83.29" y="159.5" ></text>
</g>
<g >
<title>entry_SYSCALL_64_after_hwframe (922,195 samples, 0.15%)</title><rect x="83.4" y="293" width="1.8" height="15.0" fill="rgb(218,63,15)" rx="2" ry="2" />
<text  x="86.38" y="303.5" ></text>
</g>
<g >
<title>do_execveat_common.isra.0 (68,947 samples, 0.01%)</title><rect x="1189.9" y="261" width="0.1" height="15.0" fill="rgb(231,123,29)" rx="2" ry="2" />
<text  x="1192.86" y="271.5" ></text>
</g>
<g >
<title>next_uptodate_page (651,159 samples, 0.11%)</title><rect x="82.1" y="181" width="1.3" height="15.0" fill="rgb(210,25,6)" rx="2" ry="2" />
<text  x="85.10" y="191.5" ></text>
</g>
</g>
</svg>
