<?xml version="1.0" standalone="no"?>
<!DOCTYPE svg PUBLIC "-//W3C//DTD SVG 1.1//EN" "http://www.w3.org/Graphics/SVG/1.1/DTD/svg11.dtd">
<svg version="1.1" width="1200" height="390" onload="init(evt)" viewBox="0 0 1200 390" xmlns="http://www.w3.org/2000/svg" xmlns:xlink="http://www.w3.org/1999/xlink">
<!-- Flame graph stack visualization. See https://github.com/brendangregg/FlameGraph for latest version, and http://www.brendangregg.com/flamegraphs.html for examples. -->
<!-- NOTES:  -->
<defs>
	<linearGradient id="background" y1="0" y2="1" x1="0" x2="0" >
		<stop stop-color="#eeeeee" offset="5%" />
		<stop stop-color="#eeeeb0" offset="95%" />
	</linearGradient>
</defs>
<style type="text/css">
	text { font-family:Verdana; font-size:12px; fill:rgb(0,0,0); }
	#search, #ignorecase { opacity:0.1; cursor:pointer; }
	#search:hover, #search.show, #ignorecase:hover, #ignorecase.show { opacity:1; }
	#subtitle { text-anchor:middle; font-color:rgb(160,160,160); }
	#title { text-anchor:middle; font-size:17px}
	#unzoom { cursor:pointer; }
	#frames > *:hover { stroke:black; stroke-width:0.5; cursor:pointer; }
	.hide { display:none; }
	.parent { opacity:0.5; }
</style>
<script type="text/ecmascript">
<![CDATA[
	"use strict";
	var details, searchbtn, unzoombtn, matchedtxt, svg, searching, currentSearchTerm, ignorecase, ignorecaseBtn;
	function init(evt) {
		details = document.getElementById("details").firstChild;
		searchbtn = document.getElementById("search");
		ignorecaseBtn = document.getElementById("ignorecase");
		unzoombtn = document.getElementById("unzoom");
		matchedtxt = document.getElementById("matched");
		svg = document.getElementsByTagName("svg")[0];
		searching = 0;
		currentSearchTerm = null;

		// use GET parameters to restore a flamegraphs state.
		var params = get_params();
		if (params.x && params.y)
			zoom(find_group(document.querySelector('[x="' + params.x + '"][y="' + params.y + '"]')));
                if (params.s) search(params.s);
	}

	// event listeners
	window.addEventListener("click", function(e) {
		var target = find_group(e.target);
		if (target) {
			if (target.nodeName == "a") {
				if (e.ctrlKey === false) return;
				e.preventDefault();
			}
			if (target.classList.contains("parent")) unzoom(true);
			zoom(target);
			if (!document.querySelector('.parent')) {
				// we have basically done a clearzoom so clear the url
				var params = get_params();
				if (params.x) delete params.x;
				if (params.y) delete params.y;
				history.replaceState(null, null, parse_params(params));
				unzoombtn.classList.add("hide");
				return;
			}

			// set parameters for zoom state
			var el = target.querySelector("rect");
			if (el && el.attributes && el.attributes.y && el.attributes._orig_x) {
				var params = get_params()
				params.x = el.attributes._orig_x.value;
				params.y = el.attributes.y.value;
				history.replaceState(null, null, parse_params(params));
			}
		}
		else if (e.target.id == "unzoom") clearzoom();
		else if (e.target.id == "search") search_prompt();
		else if (e.target.id == "ignorecase") toggle_ignorecase();
	}, false)

	// mouse-over for info
	// show
	window.addEventListener("mouseover", function(e) {
		var target = find_group(e.target);
		if (target) details.nodeValue = "Function: " + g_to_text(target);
	}, false)

	// clear
	window.addEventListener("mouseout", function(e) {
		var target = find_group(e.target);
		if (target) details.nodeValue = ' ';
	}, false)

	// ctrl-F for search
	// ctrl-I to toggle case-sensitive search
	window.addEventListener("keydown",function (e) {
		if (e.keyCode === 114 || (e.ctrlKey && e.keyCode === 70)) {
			e.preventDefault();
			search_prompt();
		}
		else if (e.ctrlKey && e.keyCode === 73) {
			e.preventDefault();
			toggle_ignorecase();
		}
	}, false)

	// functions
	function get_params() {
		var params = {};
		var paramsarr = window.location.search.substr(1).split('&');
		for (var i = 0; i < paramsarr.length; ++i) {
			var tmp = paramsarr[i].split("=");
			if (!tmp[0] || !tmp[1]) continue;
			params[tmp[0]]  = decodeURIComponent(tmp[1]);
		}
		return params;
	}
	function parse_params(params) {
		var uri = "?";
		for (var key in params) {
			uri += key + '=' + encodeURIComponent(params[key]) + '&';
		}
		if (uri.slice(-1) == "&")
			uri = uri.substring(0, uri.length - 1);
		if (uri == '?')
			uri = window.location.href.split('?')[0];
		return uri;
	}
	function find_child(node, selector) {
		var children = node.querySelectorAll(selector);
		if (children.length) return children[0];
	}
	function find_group(node) {
		var parent = node.parentElement;
		if (!parent) return;
		if (parent.id == "frames") return node;
		return find_group(parent);
	}
	function orig_save(e, attr, val) {
		if (e.attributes["_orig_" + attr] != undefined) return;
		if (e.attributes[attr] == undefined) return;
		if (val == undefined) val = e.attributes[attr].value;
		e.setAttribute("_orig_" + attr, val);
	}
	function orig_load(e, attr) {
		if (e.attributes["_orig_"+attr] == undefined) return;
		e.attributes[attr].value = e.attributes["_orig_" + attr].value;
		e.removeAttribute("_orig_"+attr);
	}
	function g_to_text(e) {
		var text = find_child(e, "title").firstChild.nodeValue;
		return (text)
	}
	function g_to_func(e) {
		var func = g_to_text(e);
		// if there's any manipulation we want to do to the function
		// name before it's searched, do it here before returning.
		return (func);
	}
	function update_text(e) {
		var r = find_child(e, "rect");
		var t = find_child(e, "text");
		var w = parseFloat(r.attributes.width.value) -3;
		var txt = find_child(e, "title").textContent.replace(/\([^(]*\)$/,"");
		t.attributes.x.value = parseFloat(r.attributes.x.value) + 3;

		// Smaller than this size won't fit anything
		if (w < 2 * 12 * 0.59) {
			t.textContent = "";
			return;
		}

		t.textContent = txt;
		var sl = t.getSubStringLength(0, txt.length);
		// check if only whitespace or if we can fit the entire string into width w
		if (/^ *$/.test(txt) || sl < w)
			return;

		// this isn't perfect, but gives a good starting point
		// and avoids calling getSubStringLength too often
		var start = Math.floor((w/sl) * txt.length);
		for (var x = start; x > 0; x = x-2) {
			if (t.getSubStringLength(0, x + 2) <= w) {
				t.textContent = txt.substring(0, x) + "..";
				return;
			}
		}
		t.textContent = "";
	}

	// zoom
	function zoom_reset(e) {
		if (e.attributes != undefined) {
			orig_load(e, "x");
			orig_load(e, "width");
		}
		if (e.childNodes == undefined) return;
		for (var i = 0, c = e.childNodes; i < c.length; i++) {
			zoom_reset(c[i]);
		}
	}
	function zoom_child(e, x, ratio) {
		if (e.attributes != undefined) {
			if (e.attributes.x != undefined) {
				orig_save(e, "x");
				e.attributes.x.value = (parseFloat(e.attributes.x.value) - x - 10) * ratio + 10;
				if (e.tagName == "text")
					e.attributes.x.value = find_child(e.parentNode, "rect[x]").attributes.x.value + 3;
			}
			if (e.attributes.width != undefined) {
				orig_save(e, "width");
				e.attributes.width.value = parseFloat(e.attributes.width.value) * ratio;
			}
		}

		if (e.childNodes == undefined) return;
		for (var i = 0, c = e.childNodes; i < c.length; i++) {
			zoom_child(c[i], x - 10, ratio);
		}
	}
	function zoom_parent(e) {
		if (e.attributes) {
			if (e.attributes.x != undefined) {
				orig_save(e, "x");
				e.attributes.x.value = 10;
			}
			if (e.attributes.width != undefined) {
				orig_save(e, "width");
				e.attributes.width.value = parseInt(svg.width.baseVal.value) - (10 * 2);
			}
		}
		if (e.childNodes == undefined) return;
		for (var i = 0, c = e.childNodes; i < c.length; i++) {
			zoom_parent(c[i]);
		}
	}
	function zoom(node) {
		var attr = find_child(node, "rect").attributes;
		var width = parseFloat(attr.width.value);
		var xmin = parseFloat(attr.x.value);
		var xmax = parseFloat(xmin + width);
		var ymin = parseFloat(attr.y.value);
		var ratio = (svg.width.baseVal.value - 2 * 10) / width;

		// XXX: Workaround for JavaScript float issues (fix me)
		var fudge = 0.0001;

		unzoombtn.classList.remove("hide");

		var el = document.getElementById("frames").children;
		for (var i = 0; i < el.length; i++) {
			var e = el[i];
			var a = find_child(e, "rect").attributes;
			var ex = parseFloat(a.x.value);
			var ew = parseFloat(a.width.value);
			var upstack;
			// Is it an ancestor
			if (0 == 0) {
				upstack = parseFloat(a.y.value) > ymin;
			} else {
				upstack = parseFloat(a.y.value) < ymin;
			}
			if (upstack) {
				// Direct ancestor
				if (ex <= xmin && (ex+ew+fudge) >= xmax) {
					e.classList.add("parent");
					zoom_parent(e);
					update_text(e);
				}
				// not in current path
				else
					e.classList.add("hide");
			}
			// Children maybe
			else {
				// no common path
				if (ex < xmin || ex + fudge >= xmax) {
					e.classList.add("hide");
				}
				else {
					zoom_child(e, xmin, ratio);
					update_text(e);
				}
			}
		}
		search();
	}
	function unzoom(dont_update_text) {
		unzoombtn.classList.add("hide");
		var el = document.getElementById("frames").children;
		for(var i = 0; i < el.length; i++) {
			el[i].classList.remove("parent");
			el[i].classList.remove("hide");
			zoom_reset(el[i]);
			if(!dont_update_text) update_text(el[i]);
		}
		search();
	}
	function clearzoom() {
		unzoom();

		// remove zoom state
		var params = get_params();
		if (params.x) delete params.x;
		if (params.y) delete params.y;
		history.replaceState(null, null, parse_params(params));
	}

	// search
	function toggle_ignorecase() {
		ignorecase = !ignorecase;
		if (ignorecase) {
			ignorecaseBtn.classList.add("show");
		} else {
			ignorecaseBtn.classList.remove("show");
		}
		reset_search();
		search();
	}
	function reset_search() {
		var el = document.querySelectorAll("#frames rect");
		for (var i = 0; i < el.length; i++) {
			orig_load(el[i], "fill")
		}
		var params = get_params();
		delete params.s;
		history.replaceState(null, null, parse_params(params));
	}
	function search_prompt() {
		if (!searching) {
			var term = prompt("Enter a search term (regexp " +
			    "allowed, eg: ^ext4_)"
			    + (ignorecase ? ", ignoring case" : "")
			    + "\nPress Ctrl-i to toggle case sensitivity", "");
			if (term != null) search(term);
		} else {
			reset_search();
			searching = 0;
			currentSearchTerm = null;
			searchbtn.classList.remove("show");
			searchbtn.firstChild.nodeValue = "Search"
			matchedtxt.classList.add("hide");
			matchedtxt.firstChild.nodeValue = ""
		}
	}
	function search(term) {
		if (term) currentSearchTerm = term;

		var re = new RegExp(currentSearchTerm, ignorecase ? 'i' : '');
		var el = document.getElementById("frames").children;
		var matches = new Object();
		var maxwidth = 0;
		for (var i = 0; i < el.length; i++) {
			var e = el[i];
			var func = g_to_func(e);
			var rect = find_child(e, "rect");
			if (func == null || rect == null)
				continue;

			// Save max width. Only works as we have a root frame
			var w = parseFloat(rect.attributes.width.value);
			if (w > maxwidth)
				maxwidth = w;

			if (func.match(re)) {
				// highlight
				var x = parseFloat(rect.attributes.x.value);
				orig_save(rect, "fill");
				rect.attributes.fill.value = "rgb(230,0,230)";

				// remember matches
				if (matches[x] == undefined) {
					matches[x] = w;
				} else {
					if (w > matches[x]) {
						// overwrite with parent
						matches[x] = w;
					}
				}
				searching = 1;
			}
		}
		if (!searching)
			return;
		var params = get_params();
		params.s = currentSearchTerm;
		history.replaceState(null, null, parse_params(params));

		searchbtn.classList.add("show");
		searchbtn.firstChild.nodeValue = "Reset Search";

		// calculate percent matched, excluding vertical overlap
		var count = 0;
		var lastx = -1;
		var lastw = 0;
		var keys = Array();
		for (k in matches) {
			if (matches.hasOwnProperty(k))
				keys.push(k);
		}
		// sort the matched frames by their x location
		// ascending, then width descending
		keys.sort(function(a, b){
			return a - b;
		});
		// Step through frames saving only the biggest bottom-up frames
		// thanks to the sort order. This relies on the tree property
		// where children are always smaller than their parents.
		var fudge = 0.0001;	// JavaScript floating point
		for (var k in keys) {
			var x = parseFloat(keys[k]);
			var w = matches[keys[k]];
			if (x >= lastx + lastw - fudge) {
				count += w;
				lastx = x;
				lastw = w;
			}
		}
		// display matched percent
		matchedtxt.classList.remove("hide");
		var pct = 100 * count / maxwidth;
		if (pct != 100) pct = pct.toFixed(1)
		matchedtxt.firstChild.nodeValue = "Matched: " + pct + "%";
	}
]]>
</script>
<rect x="0.0" y="0" width="1200.0" height="390.0" fill="url(#background)"  />
<text id="title" x="600.00" y="24" >Flame Graph</text>
<text id="details" x="10.00" y="373" > </text>
<text id="unzoom" x="10.00" y="24" class="hide">Reset Zoom</text>
<text id="search" x="1090.00" y="24" >Search</text>
<text id="ignorecase" x="1174.00" y="24" >ic</text>
<text id="matched" x="1090.00" y="373" > </text>
<g id="frames">
<g >
<title>__sysvec_apic_timer_interrupt (923,438 samples, 0.19%)</title><rect x="1118.8" y="229" width="2.2" height="15.0" fill="rgb(242,173,41)" rx="2" ry="2" />
<text  x="1121.83" y="239.5" ></text>
</g>
<g >
<title>VP8LDoFillBitWindow (16,626,639 samples, 3.34%)</title><rect x="1127.6" y="277" width="39.3" height="15.0" fill="rgb(219,67,16)" rx="2" ry="2" />
<text  x="1130.58" y="287.5" >VP8..</text>
</g>
<g >
<title>ext4_da_write_begin (923,781 samples, 0.19%)</title><rect x="1179.0" y="181" width="2.2" height="15.0" fill="rgb(211,32,7)" rx="2" ry="2" />
<text  x="1181.98" y="191.5" ></text>
</g>
<g >
<title>do_execveat_common.isra.0 (482,600 samples, 0.10%)</title><rect x="1184.4" y="245" width="1.2" height="15.0" fill="rgb(231,123,29)" rx="2" ry="2" />
<text  x="1187.44" y="255.5" ></text>
</g>
<g >
<title>run_timer_softirq (922,077 samples, 0.19%)</title><rect x="1116.6" y="197" width="2.2" height="15.0" fill="rgb(249,206,49)" rx="2" ry="2" />
<text  x="1119.65" y="207.5" ></text>
</g>
<g >
<title>release_pages (923,632 samples, 0.19%)</title><rect x="1187.7" y="149" width="2.2" height="15.0" fill="rgb(228,106,25)" rx="2" ry="2" />
<text  x="1190.74" y="159.5" ></text>
</g>
<g >
<title>tlb_batch_pages_flush (923,632 samples, 0.19%)</title><rect x="1187.7" y="165" width="2.2" height="15.0" fill="rgb(234,133,32)" rx="2" ry="2" />
<text  x="1190.74" y="175.5" ></text>
</g>
<g >
<title>__filemap_add_folio (923,781 samples, 0.19%)</title><rect x="1179.0" y="117" width="2.2" height="15.0" fill="rgb(229,113,27)" rx="2" ry="2" />
<text  x="1181.98" y="127.5" ></text>
</g>
<g >
<title>asm_sysvec_apic_timer_interrupt (1,845,515 samples, 0.37%)</title><rect x="1116.6" y="261" width="4.4" height="15.0" fill="rgb(232,127,30)" rx="2" ry="2" />
<text  x="1119.65" y="271.5" ></text>
</g>
<g >
<title>ksys_write (2,305,965 samples, 0.46%)</title><rect x="1176.8" y="245" width="5.5" height="15.0" fill="rgb(205,4,1)" rx="2" ry="2" />
<text  x="1179.80" y="255.5" ></text>
</g>
<g >
<title>__handle_mm_fault (533,575 samples, 0.11%)</title><rect x="1175.5" y="197" width="1.3" height="15.0" fill="rgb(207,9,2)" rx="2" ry="2" />
<text  x="1178.53" y="207.5" ></text>
</g>
<g >
<title>pagecache_get_page (923,781 samples, 0.19%)</title><rect x="1179.0" y="165" width="2.2" height="15.0" fill="rgb(253,221,53)" rx="2" ry="2" />
<text  x="1181.98" y="175.5" ></text>
</g>
<g >
<title>perf_iterate_sb (362,721 samples, 0.07%)</title><rect x="1184.7" y="149" width="0.9" height="15.0" fill="rgb(244,179,42)" rx="2" ry="2" />
<text  x="1187.73" y="159.5" ></text>
</g>
<g >
<title>__irq_exit_rcu (922,077 samples, 0.19%)</title><rect x="1116.6" y="229" width="2.2" height="15.0" fill="rgb(227,101,24)" rx="2" ry="2" />
<text  x="1119.65" y="239.5" ></text>
</g>
<g >
<title>vm_mmap_pgoff (449,639 samples, 0.09%)</title><rect x="1186.7" y="261" width="1.0" height="15.0" fill="rgb(237,150,35)" rx="2" ry="2" />
<text  x="1189.68" y="271.5" ></text>
</g>
<g >
<title>do_user_addr_fault (1,087,484 samples, 0.22%)</title><rect x="99.1" y="261" width="2.5" height="15.0" fill="rgb(228,108,25)" rx="2" ry="2" />
<text  x="102.07" y="271.5" ></text>
</g>
<g >
<title>__memmove_avx_unaligned (922,966 samples, 0.19%)</title><rect x="1166.9" y="277" width="2.2" height="15.0" fill="rgb(254,228,54)" rx="2" ry="2" />
<text  x="1169.95" y="287.5" ></text>
</g>
<g >
<title>all (498,360,126 samples, 100%)</title><rect x="10.0" y="341" width="1180.0" height="15.0" fill="rgb(213,39,9)" rx="2" ry="2" />
<text  x="13.00" y="351.5" ></text>
</g>
<g >
<title>do_syscall_64 (923,632 samples, 0.19%)</title><rect x="1187.7" y="277" width="2.2" height="15.0" fill="rgb(209,20,4)" rx="2" ry="2" />
<text  x="1190.74" y="287.5" ></text>
</g>
<g >
<title>ReadHuffmanCodesHelper (1,848,331 samples, 0.37%)</title><rect x="1121.0" y="277" width="4.4" height="15.0" fill="rgb(209,22,5)" rx="2" ry="2" />
<text  x="1124.02" y="287.5" ></text>
</g>
<g >
<title>tlb_finish_mmu (923,632 samples, 0.19%)</title><rect x="1187.7" y="181" width="2.2" height="15.0" fill="rgb(251,212,50)" rx="2" ry="2" />
<text  x="1190.74" y="191.5" ></text>
</g>
<g >
<title>mem_cgroup_css_rstat_flush (923,679 samples, 0.19%)</title><rect x="1176.8" y="85" width="2.2" height="15.0" fill="rgb(253,222,53)" rx="2" ry="2" />
<text  x="1179.80" y="95.5" ></text>
</g>
<g >
<title>mas_preallocate (460,101 samples, 0.09%)</title><rect x="1185.6" y="229" width="1.1" height="15.0" fill="rgb(206,8,2)" rx="2" ry="2" />
<text  x="1188.59" y="239.5" ></text>
</g>
<g >
<title>entry_SYSCALL_64_after_hwframe (482,600 samples, 0.10%)</title><rect x="1184.4" y="293" width="1.2" height="15.0" fill="rgb(218,63,15)" rx="2" ry="2" />
<text  x="1187.44" y="303.5" ></text>
</g>
<g >
<title>_raw_spin_lock_irqsave (922,077 samples, 0.19%)</title><rect x="1116.6" y="133" width="2.2" height="15.0" fill="rgb(247,195,46)" rx="2" ry="2" />
<text  x="1119.65" y="143.5" ></text>
</g>
<g >
<title>__memmove_avx_unaligned_erms (3,235,666 samples, 0.65%)</title><rect x="1169.1" y="277" width="7.7" height="15.0" fill="rgb(205,0,0)" rx="2" ry="2" />
<text  x="1172.13" y="287.5" ></text>
</g>
<g >
<title>__alloc_pages (385,841 samples, 0.08%)</title><rect x="100.7" y="181" width="0.9" height="15.0" fill="rgb(233,129,30)" rx="2" ry="2" />
<text  x="103.74" y="191.5" ></text>
</g>
<g >
<title>decode_webp_nat (498,329,577 samples, 99.99%)</title><rect x="10.0" y="325" width="1179.9" height="15.0" fill="rgb(218,61,14)" rx="2" ry="2" />
<text  x="13.00" y="335.5" >decode_webp_nat</text>
</g>
<g >
<title>perf_iterate_ctx (362,721 samples, 0.07%)</title><rect x="1184.7" y="133" width="0.9" height="15.0" fill="rgb(205,4,0)" rx="2" ry="2" />
<text  x="1187.73" y="143.5" ></text>
</g>
<g >
<title>file_tty_write.constprop.0 (458,505 samples, 0.09%)</title><rect x="1181.2" y="213" width="1.1" height="15.0" fill="rgb(219,64,15)" rx="2" ry="2" />
<text  x="1184.17" y="223.5" ></text>
</g>
<g >
<title>ReadHuffmanCode (924,126 samples, 0.19%)</title><rect x="254.1" y="293" width="2.2" height="15.0" fill="rgb(230,116,27)" rx="2" ry="2" />
<text  x="257.14" y="303.5" ></text>
</g>
<g >
<title>balance_dirty_pages_ratelimited_flags (923,679 samples, 0.19%)</title><rect x="1176.8" y="181" width="2.2" height="15.0" fill="rgb(207,10,2)" rx="2" ry="2" />
<text  x="1179.80" y="191.5" ></text>
</g>
<g >
<title>__brk (460,101 samples, 0.09%)</title><rect x="1185.6" y="309" width="1.1" height="15.0" fill="rgb(225,94,22)" rx="2" ry="2" />
<text  x="1188.59" y="319.5" ></text>
</g>
<g >
<title>__alloc_pages (533,575 samples, 0.11%)</title><rect x="1175.5" y="149" width="1.3" height="15.0" fill="rgb(233,129,30)" rx="2" ry="2" />
<text  x="1178.53" y="159.5" ></text>
</g>
<g >
<title>__softirqentry_text_start (922,077 samples, 0.19%)</title><rect x="1116.6" y="213" width="2.2" height="15.0" fill="rgb(234,135,32)" rx="2" ry="2" />
<text  x="1119.65" y="223.5" ></text>
</g>
<g >
<title>obj_cgroup_charge (923,781 samples, 0.19%)</title><rect x="1179.0" y="37" width="2.2" height="15.0" fill="rgb(221,75,18)" rx="2" ry="2" />
<text  x="1181.98" y="47.5" ></text>
</g>
<g >
<title>__run_timers (922,077 samples, 0.19%)</title><rect x="1116.6" y="181" width="2.2" height="15.0" fill="rgb(206,5,1)" rx="2" ry="2" />
<text  x="1119.65" y="191.5" ></text>
</g>
<g >
<title>__handle_mm_fault (1,087,484 samples, 0.22%)</title><rect x="99.1" y="229" width="2.5" height="15.0" fill="rgb(207,9,2)" rx="2" ry="2" />
<text  x="102.07" y="239.5" ></text>
</g>
<g >
<title>ConvertBGRAToRGB_SSE2 (14,234,275 samples, 2.86%)</title><rect x="220.4" y="293" width="33.7" height="15.0" fill="rgb(238,155,37)" rx="2" ry="2" />
<text  x="223.44" y="303.5" >Co..</text>
</g>
<g >
<title>__vm_munmap (923,632 samples, 0.19%)</title><rect x="1187.7" y="245" width="2.2" height="15.0" fill="rgb(231,121,28)" rx="2" ry="2" />
<text  x="1190.74" y="255.5" ></text>
</g>
<g >
<title>xas_alloc (923,781 samples, 0.19%)</title><rect x="1179.0" y="69" width="2.2" height="15.0" fill="rgb(226,99,23)" rx="2" ry="2" />
<text  x="1181.98" y="79.5" ></text>
</g>
<g >
<title>sysvec_apic_timer_interrupt (1,845,515 samples, 0.37%)</title><rect x="1116.6" y="245" width="4.4" height="15.0" fill="rgb(220,69,16)" rx="2" ry="2" />
<text  x="1119.65" y="255.5" ></text>
</g>
<g >
<title>do_user_addr_fault (533,575 samples, 0.11%)</title><rect x="1175.5" y="229" width="1.3" height="15.0" fill="rgb(228,108,25)" rx="2" ry="2" />
<text  x="1178.53" y="239.5" ></text>
</g>
<g >
<title>__do_sys_brk (460,101 samples, 0.09%)</title><rect x="1185.6" y="261" width="1.1" height="15.0" fill="rgb(217,58,13)" rx="2" ry="2" />
<text  x="1188.59" y="271.5" ></text>
</g>
<g >
<title>exc_page_fault (533,575 samples, 0.11%)</title><rect x="1175.5" y="245" width="1.3" height="15.0" fill="rgb(212,35,8)" rx="2" ry="2" />
<text  x="1178.53" y="255.5" ></text>
</g>
<g >
<title>xas_create (923,781 samples, 0.19%)</title><rect x="1179.0" y="85" width="2.2" height="15.0" fill="rgb(248,199,47)" rx="2" ry="2" />
<text  x="1181.98" y="95.5" ></text>
</g>
<g >
<title>bprm_execve (482,600 samples, 0.10%)</title><rect x="1184.4" y="229" width="1.2" height="15.0" fill="rgb(218,61,14)" rx="2" ry="2" />
<text  x="1187.44" y="239.5" ></text>
</g>
<g >
<title>TransformColorInverse_SSE2 (16,614,196 samples, 3.33%)</title><rect x="256.3" y="293" width="39.4" height="15.0" fill="rgb(253,223,53)" rx="2" ry="2" />
<text  x="259.33" y="303.5" >Tra..</text>
</g>
<g >
<title>do_syscall_64 (482,600 samples, 0.10%)</title><rect x="1184.4" y="277" width="1.2" height="15.0" fill="rgb(209,20,4)" rx="2" ry="2" />
<text  x="1187.44" y="287.5" ></text>
</g>
<g >
<title>__filemap_get_folio (923,781 samples, 0.19%)</title><rect x="1179.0" y="149" width="2.2" height="15.0" fill="rgb(231,120,28)" rx="2" ry="2" />
<text  x="1181.98" y="159.5" ></text>
</g>
<g >
<title>generic_perform_write (1,847,460 samples, 0.37%)</title><rect x="1176.8" y="197" width="4.4" height="15.0" fill="rgb(236,146,35)" rx="2" ry="2" />
<text  x="1179.80" y="207.5" ></text>
</g>
<g >
<title>do_mas_munmap (923,632 samples, 0.19%)</title><rect x="1187.7" y="229" width="2.2" height="15.0" fill="rgb(224,90,21)" rx="2" ry="2" />
<text  x="1190.74" y="239.5" ></text>
</g>
<g >
<title>asm_exc_page_fault (533,575 samples, 0.11%)</title><rect x="1175.5" y="261" width="1.3" height="15.0" fill="rgb(225,93,22)" rx="2" ry="2" />
<text  x="1178.53" y="271.5" ></text>
</g>
<g >
<title>BuildHuffmanTable (37,619,430 samples, 7.55%)</title><rect x="10.0" y="309" width="89.1" height="15.0" fill="rgb(226,101,24)" rx="2" ry="2" />
<text  x="13.00" y="319.5" >BuildHuffm..</text>
</g>
<g >
<title>PredictorAdd11_SSE2 (3,689,007 samples, 0.74%)</title><rect x="106.0" y="309" width="8.8" height="15.0" fill="rgb(241,168,40)" rx="2" ry="2" />
<text  x="109.02" y="319.5" ></text>
</g>
<g >
<title>VP8LBuildHuffmanTable (924,324 samples, 0.19%)</title><rect x="211.7" y="309" width="2.2" height="15.0" fill="rgb(251,215,51)" rx="2" ry="2" />
<text  x="214.70" y="319.5" ></text>
</g>
<g >
<title>vma_alloc_folio (1,087,484 samples, 0.22%)</title><rect x="99.1" y="213" width="2.5" height="15.0" fill="rgb(245,187,44)" rx="2" ry="2" />
<text  x="102.07" y="223.5" ></text>
</g>
<g >
<title>filemap_add_folio (923,781 samples, 0.19%)</title><rect x="1179.0" y="133" width="2.2" height="15.0" fill="rgb(207,9,2)" rx="2" ry="2" />
<text  x="1181.98" y="143.5" ></text>
</g>
<g >
<title>__folio_alloc (385,841 samples, 0.08%)</title><rect x="100.7" y="197" width="0.9" height="15.0" fill="rgb(224,91,21)" rx="2" ry="2" />
<text  x="103.74" y="207.5" ></text>
</g>
<g >
<title>exc_page_fault (1,087,484 samples, 0.22%)</title><rect x="99.1" y="277" width="2.5" height="15.0" fill="rgb(212,35,8)" rx="2" ry="2" />
<text  x="102.07" y="287.5" ></text>
</g>
<g >
<title>perf_event_mmap (362,721 samples, 0.07%)</title><rect x="1184.7" y="165" width="0.9" height="15.0" fill="rgb(229,112,26)" rx="2" ry="2" />
<text  x="1187.73" y="175.5" ></text>
</g>
<g >
<title>rmqueue_bulk (385,841 samples, 0.08%)</title><rect x="100.7" y="149" width="0.9" height="15.0" fill="rgb(235,138,33)" rx="2" ry="2" />
<text  x="103.74" y="159.5" ></text>
</g>
<g >
<title>__munmap (923,632 samples, 0.19%)</title><rect x="1187.7" y="309" width="2.2" height="15.0" fill="rgb(211,29,7)" rx="2" ry="2" />
<text  x="1190.74" y="319.5" ></text>
</g>
<g >
<title>PredictorAdd13_SSE2 (17,496,347 samples, 3.51%)</title><rect x="133.1" y="309" width="41.4" height="15.0" fill="rgb(228,108,25)" rx="2" ry="2" />
<text  x="136.10" y="319.5" >Pre..</text>
</g>
<g >
<title>get_page_from_freelist (533,575 samples, 0.11%)</title><rect x="1175.5" y="133" width="1.3" height="15.0" fill="rgb(252,218,52)" rx="2" ry="2" />
<text  x="1178.53" y="143.5" ></text>
</g>
<g >
<title>kmem_cache_alloc_bulk (460,101 samples, 0.09%)</title><rect x="1185.6" y="197" width="1.1" height="15.0" fill="rgb(234,135,32)" rx="2" ry="2" />
<text  x="1188.59" y="207.5" ></text>
</g>
<g >
<title>entry_SYSCALL_64_after_hwframe (2,305,965 samples, 0.46%)</title><rect x="1176.8" y="277" width="5.5" height="15.0" fill="rgb(218,63,15)" rx="2" ry="2" />
<text  x="1179.80" y="287.5" ></text>
</g>
<g >
<title>ShiftBytes (923,817 samples, 0.19%)</title><rect x="1125.4" y="277" width="2.2" height="15.0" fill="rgb(216,52,12)" rx="2" ry="2" />
<text  x="1128.39" y="287.5" ></text>
</g>
<g >
<title>security_mmap_file (449,639 samples, 0.09%)</title><rect x="1186.7" y="245" width="1.0" height="15.0" fill="rgb(254,225,54)" rx="2" ry="2" />
<text  x="1189.68" y="255.5" ></text>
</g>
<g >
<title>call_timer_fn (922,077 samples, 0.19%)</title><rect x="1116.6" y="165" width="2.2" height="15.0" fill="rgb(234,135,32)" rx="2" ry="2" />
<text  x="1119.65" y="175.5" ></text>
</g>
<g >
<title>PredictorAdd12_SSE2 (7,744,997 samples, 1.55%)</title><rect x="114.8" y="309" width="18.3" height="15.0" fill="rgb(235,138,33)" rx="2" ry="2" />
<text  x="117.76" y="319.5" ></text>
</g>
<g >
<title>get_page_from_freelist (385,841 samples, 0.08%)</title><rect x="100.7" y="165" width="0.9" height="15.0" fill="rgb(252,218,52)" rx="2" ry="2" />
<text  x="103.74" y="175.5" ></text>
</g>
<g >
<title>cgroup_rstat_flush_irqsafe (923,679 samples, 0.19%)</title><rect x="1176.8" y="117" width="2.2" height="15.0" fill="rgb(227,103,24)" rx="2" ry="2" />
<text  x="1179.80" y="127.5" ></text>
</g>
<g >
<title>__x64_sys_execve (482,600 samples, 0.10%)</title><rect x="1184.4" y="261" width="1.2" height="15.0" fill="rgb(247,193,46)" rx="2" ry="2" />
<text  x="1187.44" y="271.5" ></text>
</g>
<g >
<title>n_tty_write (458,505 samples, 0.09%)</title><rect x="1181.2" y="197" width="1.1" height="15.0" fill="rgb(210,23,5)" rx="2" ry="2" />
<text  x="1184.17" y="207.5" ></text>
</g>
<g >
<title>__libc_write (2,305,965 samples, 0.46%)</title><rect x="1176.8" y="293" width="5.5" height="15.0" fill="rgb(238,154,37)" rx="2" ry="2" />
<text  x="1179.80" y="303.5" ></text>
</g>
<g >
<title>kmem_cache_alloc_lru (923,781 samples, 0.19%)</title><rect x="1179.0" y="53" width="2.2" height="15.0" fill="rgb(222,79,18)" rx="2" ry="2" />
<text  x="1181.98" y="63.5" ></text>
</g>
<g >
<title>asm_exc_page_fault (1,087,484 samples, 0.22%)</title><rect x="99.1" y="293" width="2.5" height="15.0" fill="rgb(225,93,22)" rx="2" ry="2" />
<text  x="102.07" y="303.5" ></text>
</g>
<g >
<title>__mem_cgroup_flush_stats (923,679 samples, 0.19%)</title><rect x="1176.8" y="133" width="2.2" height="15.0" fill="rgb(208,16,3)" rx="2" ry="2" />
<text  x="1179.80" y="143.5" ></text>
</g>
<g >
<title>PredictorAdd1_SSE2 (7,388,453 samples, 1.48%)</title><rect x="174.5" y="309" width="17.5" height="15.0" fill="rgb(208,14,3)" rx="2" ry="2" />
<text  x="177.52" y="319.5" ></text>
</g>
<g >
<title>AddGreenToBlueAndRed_SSE2 (923,961 samples, 0.19%)</title><rect x="218.3" y="293" width="2.1" height="15.0" fill="rgb(239,160,38)" rx="2" ry="2" />
<text  x="221.25" y="303.5" ></text>
</g>
<g >
<title>ReadHuffmanCode (2,772,448 samples, 0.56%)</title><rect x="205.1" y="309" width="6.6" height="15.0" fill="rgb(230,116,27)" rx="2" ry="2" />
<text  x="208.13" y="319.5" ></text>
</g>
<g >
<title>_int_free (924,351 samples, 0.19%)</title><rect x="1182.3" y="293" width="2.1" height="15.0" fill="rgb(247,196,46)" rx="2" ry="2" />
<text  x="1185.26" y="303.5" ></text>
</g>
<g >
<title>ktime_get_update_offsets_now (923,438 samples, 0.19%)</title><rect x="1118.8" y="197" width="2.2" height="15.0" fill="rgb(243,178,42)" rx="2" ry="2" />
<text  x="1121.83" y="207.5" ></text>
</g>
<g >
<title>cgroup_rstat_flush_locked (923,679 samples, 0.19%)</title><rect x="1176.8" y="101" width="2.2" height="15.0" fill="rgb(209,19,4)" rx="2" ry="2" />
<text  x="1179.80" y="111.5" ></text>
</g>
<g >
<title>mas_alloc_nodes (460,101 samples, 0.09%)</title><rect x="1185.6" y="213" width="1.1" height="15.0" fill="rgb(215,46,11)" rx="2" ry="2" />
<text  x="1188.59" y="223.5" ></text>
</g>
<g >
<title>unmap_region (923,632 samples, 0.19%)</title><rect x="1187.7" y="197" width="2.2" height="15.0" fill="rgb(219,64,15)" rx="2" ry="2" />
<text  x="1190.74" y="207.5" ></text>
</g>
<g >
<title>do_syscall_64 (460,101 samples, 0.09%)</title><rect x="1185.6" y="277" width="1.1" height="15.0" fill="rgb(209,20,4)" rx="2" ry="2" />
<text  x="1188.59" y="287.5" ></text>
</g>
<g >
<title>__list_del_entry_valid (385,841 samples, 0.08%)</title><rect x="100.7" y="133" width="0.9" height="15.0" fill="rgb(239,158,37)" rx="2" ry="2" />
<text  x="103.74" y="143.5" ></text>
</g>
<g >
<title>DecodeImageData (1,847,037 samples, 0.37%)</title><rect x="101.6" y="309" width="4.4" height="15.0" fill="rgb(254,229,54)" rx="2" ry="2" />
<text  x="104.65" y="319.5" ></text>
</g>
<g >
<title>xas_store (923,781 samples, 0.19%)</title><rect x="1179.0" y="101" width="2.2" height="15.0" fill="rgb(207,9,2)" rx="2" ry="2" />
<text  x="1181.98" y="111.5" ></text>
</g>
<g >
<title>mix_interrupt_randomness (922,077 samples, 0.19%)</title><rect x="1116.6" y="149" width="2.2" height="15.0" fill="rgb(246,192,45)" rx="2" ry="2" />
<text  x="1119.65" y="159.5" ></text>
</g>
<g >
<title>do_mas_align_munmap (923,632 samples, 0.19%)</title><rect x="1187.7" y="213" width="2.2" height="15.0" fill="rgb(232,126,30)" rx="2" ry="2" />
<text  x="1190.74" y="223.5" ></text>
</g>
<g >
<title>VP8LInverseTransform (4,620,339 samples, 0.93%)</title><rect x="300.0" y="293" width="10.9" height="15.0" fill="rgb(234,134,32)" rx="2" ry="2" />
<text  x="302.99" y="303.5" ></text>
</g>
<g >
<title>process_echoes (458,505 samples, 0.09%)</title><rect x="1181.2" y="181" width="1.1" height="15.0" fill="rgb(218,64,15)" rx="2" ry="2" />
<text  x="1184.17" y="191.5" ></text>
</g>
<g >
<title>load_elf_binary (482,600 samples, 0.10%)</title><rect x="1184.4" y="213" width="1.2" height="15.0" fill="rgb(223,83,20)" rx="2" ry="2" />
<text  x="1187.44" y="223.5" ></text>
</g>
<g >
<title>__folio_alloc (533,575 samples, 0.11%)</title><rect x="1175.5" y="165" width="1.3" height="15.0" fill="rgb(224,91,21)" rx="2" ry="2" />
<text  x="1178.53" y="175.5" ></text>
</g>
<g >
<title>do_syscall_64 (449,639 samples, 0.09%)</title><rect x="1186.7" y="277" width="1.0" height="15.0" fill="rgb(209,20,4)" rx="2" ry="2" />
<text  x="1189.68" y="287.5" ></text>
</g>
<g >
<title>begin_new_exec (119,879 samples, 0.02%)</title><rect x="1184.4" y="197" width="0.3" height="15.0" fill="rgb(245,184,44)" rx="2" ry="2" />
<text  x="1187.44" y="207.5" ></text>
</g>
<g >
<title>do_syscall_64 (2,305,965 samples, 0.46%)</title><rect x="1176.8" y="261" width="5.5" height="15.0" fill="rgb(209,20,4)" rx="2" ry="2" />
<text  x="1179.80" y="271.5" ></text>
</g>
<g >
<title>balance_dirty_pages (923,679 samples, 0.19%)</title><rect x="1176.8" y="165" width="2.2" height="15.0" fill="rgb(247,193,46)" rx="2" ry="2" />
<text  x="1179.80" y="175.5" ></text>
</g>
<g >
<title>entry_SYSCALL_64_after_hwframe (460,101 samples, 0.09%)</title><rect x="1185.6" y="293" width="1.1" height="15.0" fill="rgb(218,63,15)" rx="2" ry="2" />
<text  x="1188.59" y="303.5" ></text>
</g>
<g >
<title>clear_page_rep (533,575 samples, 0.11%)</title><rect x="1175.5" y="117" width="1.3" height="15.0" fill="rgb(253,221,52)" rx="2" ry="2" />
<text  x="1178.53" y="127.5" ></text>
</g>
<g >
<title>DecodeImageData (342,130,707 samples, 68.65%)</title><rect x="310.9" y="277" width="810.1" height="15.0" fill="rgb(254,229,54)" rx="2" ry="2" />
<text  x="313.93" y="287.5" >DecodeImageData</text>
</g>
<g >
<title>VP8LInverseTransform (1,844,433 samples, 0.37%)</title><rect x="213.9" y="309" width="4.4" height="15.0" fill="rgb(234,134,32)" rx="2" ry="2" />
<text  x="216.88" y="319.5" ></text>
</g>
<g >
<title>__x64_sys_munmap (923,632 samples, 0.19%)</title><rect x="1187.7" y="261" width="2.2" height="15.0" fill="rgb(206,7,1)" rx="2" ry="2" />
<text  x="1190.74" y="271.5" ></text>
</g>
<g >
<title>entry_SYSCALL_64_after_hwframe (449,639 samples, 0.09%)</title><rect x="1186.7" y="293" width="1.0" height="15.0" fill="rgb(218,63,15)" rx="2" ry="2" />
<text  x="1189.68" y="303.5" ></text>
</g>
<g >
<title>handle_mm_fault (1,087,484 samples, 0.22%)</title><rect x="99.1" y="245" width="2.5" height="15.0" fill="rgb(234,135,32)" rx="2" ry="2" />
<text  x="102.07" y="255.5" ></text>
</g>
<g >
<title>vfs_write (2,305,965 samples, 0.46%)</title><rect x="1176.8" y="229" width="5.5" height="15.0" fill="rgb(250,209,50)" rx="2" ry="2" />
<text  x="1179.80" y="239.5" ></text>
</g>
<g >
<title>mem_cgroup_wb_stats (923,679 samples, 0.19%)</title><rect x="1176.8" y="149" width="2.2" height="15.0" fill="rgb(211,28,6)" rx="2" ry="2" />
<text  x="1179.80" y="159.5" ></text>
</g>
<g >
<title>vma_alloc_folio (533,575 samples, 0.11%)</title><rect x="1175.5" y="181" width="1.3" height="15.0" fill="rgb(245,187,44)" rx="2" ry="2" />
<text  x="1178.53" y="191.5" ></text>
</g>
<g >
<title>[unknown] (408,543,461 samples, 81.98%)</title><rect x="218.3" y="309" width="967.3" height="15.0" fill="rgb(210,24,5)" rx="2" ry="2" />
<text  x="221.25" y="319.5" >[unknown]</text>
</g>
<g >
<title>map_vdso (362,721 samples, 0.07%)</title><rect x="1184.7" y="197" width="0.9" height="15.0" fill="rgb(227,103,24)" rx="2" ry="2" />
<text  x="1187.73" y="207.5" ></text>
</g>
<g >
<title>ConvertBGRAToRGB_SSE2 (1,087,484 samples, 0.22%)</title><rect x="99.1" y="309" width="2.5" height="15.0" fill="rgb(238,155,37)" rx="2" ry="2" />
<text  x="102.07" y="319.5" ></text>
</g>
<g >
<title>PredictorAdd5_SSE2 (4,617,390 samples, 0.93%)</title><rect x="194.2" y="309" width="10.9" height="15.0" fill="rgb(232,125,29)" rx="2" ry="2" />
<text  x="197.20" y="319.5" ></text>
</g>
<g >
<title>free_unref_page_list (923,632 samples, 0.19%)</title><rect x="1187.7" y="133" width="2.2" height="15.0" fill="rgb(221,77,18)" rx="2" ry="2" />
<text  x="1190.74" y="143.5" ></text>
</g>
<g >
<title>hrtimer_interrupt (923,438 samples, 0.19%)</title><rect x="1118.8" y="213" width="2.2" height="15.0" fill="rgb(228,109,26)" rx="2" ry="2" />
<text  x="1121.83" y="223.5" ></text>
</g>
<g >
<title>VP8LConvertBGRAToRGB_C (1,825,522 samples, 0.37%)</title><rect x="295.7" y="293" width="4.3" height="15.0" fill="rgb(222,78,18)" rx="2" ry="2" />
<text  x="298.67" y="303.5" ></text>
</g>
<g >
<title>__install_special_mapping (362,721 samples, 0.07%)</title><rect x="1184.7" y="181" width="0.9" height="15.0" fill="rgb(212,35,8)" rx="2" ry="2" />
<text  x="1187.73" y="191.5" ></text>
</g>
<g >
<title>[unknown] (365,688,126 samples, 73.38%)</title><rect x="310.9" y="293" width="865.9" height="15.0" fill="rgb(210,24,5)" rx="2" ry="2" />
<text  x="313.93" y="303.5" >[unknown]</text>
</g>
<g >
<title>handle_mm_fault (533,575 samples, 0.11%)</title><rect x="1175.5" y="213" width="1.3" height="15.0" fill="rgb(234,135,32)" rx="2" ry="2" />
<text  x="1178.53" y="223.5" ></text>
</g>
<g >
<title>entry_SYSCALL_64_after_hwframe (923,632 samples, 0.19%)</title><rect x="1187.7" y="293" width="2.2" height="15.0" fill="rgb(218,63,15)" rx="2" ry="2" />
<text  x="1190.74" y="303.5" ></text>
</g>
<g >
<title>__mmap64 (449,639 samples, 0.09%)</title><rect x="1186.7" y="309" width="1.0" height="15.0" fill="rgb(243,175,41)" rx="2" ry="2" />
<text  x="1189.68" y="319.5" ></text>
</g>
<g >
<title>set_cred_ucounts (119,879 samples, 0.02%)</title><rect x="1184.4" y="181" width="0.3" height="15.0" fill="rgb(246,188,45)" rx="2" ry="2" />
<text  x="1187.44" y="191.5" ></text>
</g>
<g >
<title>ext4_buffered_write_iter (1,847,460 samples, 0.37%)</title><rect x="1176.8" y="213" width="4.4" height="15.0" fill="rgb(213,40,9)" rx="2" ry="2" />
<text  x="1179.80" y="223.5" ></text>
</g>
<g >
<title>PredictorAdd3_SSE2 (921,394 samples, 0.18%)</title><rect x="192.0" y="309" width="2.2" height="15.0" fill="rgb(245,184,44)" rx="2" ry="2" />
<text  x="195.02" y="319.5" ></text>
</g>
<g >
<title>do_brk_flags (460,101 samples, 0.09%)</title><rect x="1185.6" y="245" width="1.1" height="15.0" fill="rgb(220,73,17)" rx="2" ry="2" />
<text  x="1188.59" y="255.5" ></text>
</g>
</g>
</svg>
