<?xml version="1.0" standalone="no"?>
<!DOCTYPE svg PUBLIC "-//W3C//DTD SVG 1.1//EN" "http://www.w3.org/Graphics/SVG/1.1/DTD/svg11.dtd">
<svg version="1.1" width="1200" height="358" onload="init(evt)" viewBox="0 0 1200 358" xmlns="http://www.w3.org/2000/svg" xmlns:xlink="http://www.w3.org/1999/xlink">
<!-- Flame graph stack visualization. See https://github.com/brendangregg/FlameGraph for latest version, and http://www.brendangregg.com/flamegraphs.html for examples. -->
<!-- NOTES:  -->
<defs>
	<linearGradient id="background" y1="0" y2="1" x1="0" x2="0" >
		<stop stop-color="#eeeeee" offset="5%" />
		<stop stop-color="#eeeeb0" offset="95%" />
	</linearGradient>
</defs>
<style type="text/css">
	text { font-family:Verdana; font-size:12px; fill:rgb(0,0,0); }
	#search, #ignorecase { opacity:0.1; cursor:pointer; }
	#search:hover, #search.show, #ignorecase:hover, #ignorecase.show { opacity:1; }
	#subtitle { text-anchor:middle; font-color:rgb(160,160,160); }
	#title { text-anchor:middle; font-size:17px}
	#unzoom { cursor:pointer; }
	#frames > *:hover { stroke:black; stroke-width:0.5; cursor:pointer; }
	.hide { display:none; }
	.parent { opacity:0.5; }
</style>
<script type="text/ecmascript">
<![CDATA[
	"use strict";
	var details, searchbtn, unzoombtn, matchedtxt, svg, searching, currentSearchTerm, ignorecase, ignorecaseBtn;
	function init(evt) {
		details = document.getElementById("details").firstChild;
		searchbtn = document.getElementById("search");
		ignorecaseBtn = document.getElementById("ignorecase");
		unzoombtn = document.getElementById("unzoom");
		matchedtxt = document.getElementById("matched");
		svg = document.getElementsByTagName("svg")[0];
		searching = 0;
		currentSearchTerm = null;

		// use GET parameters to restore a flamegraphs state.
		var params = get_params();
		if (params.x && params.y)
			zoom(find_group(document.querySelector('[x="' + params.x + '"][y="' + params.y + '"]')));
                if (params.s) search(params.s);
	}

	// event listeners
	window.addEventListener("click", function(e) {
		var target = find_group(e.target);
		if (target) {
			if (target.nodeName == "a") {
				if (e.ctrlKey === false) return;
				e.preventDefault();
			}
			if (target.classList.contains("parent")) unzoom(true);
			zoom(target);
			if (!document.querySelector('.parent')) {
				// we have basically done a clearzoom so clear the url
				var params = get_params();
				if (params.x) delete params.x;
				if (params.y) delete params.y;
				history.replaceState(null, null, parse_params(params));
				unzoombtn.classList.add("hide");
				return;
			}

			// set parameters for zoom state
			var el = target.querySelector("rect");
			if (el && el.attributes && el.attributes.y && el.attributes._orig_x) {
				var params = get_params()
				params.x = el.attributes._orig_x.value;
				params.y = el.attributes.y.value;
				history.replaceState(null, null, parse_params(params));
			}
		}
		else if (e.target.id == "unzoom") clearzoom();
		else if (e.target.id == "search") search_prompt();
		else if (e.target.id == "ignorecase") toggle_ignorecase();
	}, false)

	// mouse-over for info
	// show
	window.addEventListener("mouseover", function(e) {
		var target = find_group(e.target);
		if (target) details.nodeValue = "Function: " + g_to_text(target);
	}, false)

	// clear
	window.addEventListener("mouseout", function(e) {
		var target = find_group(e.target);
		if (target) details.nodeValue = ' ';
	}, false)

	// ctrl-F for search
	// ctrl-I to toggle case-sensitive search
	window.addEventListener("keydown",function (e) {
		if (e.keyCode === 114 || (e.ctrlKey && e.keyCode === 70)) {
			e.preventDefault();
			search_prompt();
		}
		else if (e.ctrlKey && e.keyCode === 73) {
			e.preventDefault();
			toggle_ignorecase();
		}
	}, false)

	// functions
	function get_params() {
		var params = {};
		var paramsarr = window.location.search.substr(1).split('&');
		for (var i = 0; i < paramsarr.length; ++i) {
			var tmp = paramsarr[i].split("=");
			if (!tmp[0] || !tmp[1]) continue;
			params[tmp[0]]  = decodeURIComponent(tmp[1]);
		}
		return params;
	}
	function parse_params(params) {
		var uri = "?";
		for (var key in params) {
			uri += key + '=' + encodeURIComponent(params[key]) + '&';
		}
		if (uri.slice(-1) == "&")
			uri = uri.substring(0, uri.length - 1);
		if (uri == '?')
			uri = window.location.href.split('?')[0];
		return uri;
	}
	function find_child(node, selector) {
		var children = node.querySelectorAll(selector);
		if (children.length) return children[0];
	}
	function find_group(node) {
		var parent = node.parentElement;
		if (!parent) return;
		if (parent.id == "frames") return node;
		return find_group(parent);
	}
	function orig_save(e, attr, val) {
		if (e.attributes["_orig_" + attr] != undefined) return;
		if (e.attributes[attr] == undefined) return;
		if (val == undefined) val = e.attributes[attr].value;
		e.setAttribute("_orig_" + attr, val);
	}
	function orig_load(e, attr) {
		if (e.attributes["_orig_"+attr] == undefined) return;
		e.attributes[attr].value = e.attributes["_orig_" + attr].value;
		e.removeAttribute("_orig_"+attr);
	}
	function g_to_text(e) {
		var text = find_child(e, "title").firstChild.nodeValue;
		return (text)
	}
	function g_to_func(e) {
		var func = g_to_text(e);
		// if there's any manipulation we want to do to the function
		// name before it's searched, do it here before returning.
		return (func);
	}
	function update_text(e) {
		var r = find_child(e, "rect");
		var t = find_child(e, "text");
		var w = parseFloat(r.attributes.width.value) -3;
		var txt = find_child(e, "title").textContent.replace(/\([^(]*\)$/,"");
		t.attributes.x.value = parseFloat(r.attributes.x.value) + 3;

		// Smaller than this size won't fit anything
		if (w < 2 * 12 * 0.59) {
			t.textContent = "";
			return;
		}

		t.textContent = txt;
		var sl = t.getSubStringLength(0, txt.length);
		// check if only whitespace or if we can fit the entire string into width w
		if (/^ *$/.test(txt) || sl < w)
			return;

		// this isn't perfect, but gives a good starting point
		// and avoids calling getSubStringLength too often
		var start = Math.floor((w/sl) * txt.length);
		for (var x = start; x > 0; x = x-2) {
			if (t.getSubStringLength(0, x + 2) <= w) {
				t.textContent = txt.substring(0, x) + "..";
				return;
			}
		}
		t.textContent = "";
	}

	// zoom
	function zoom_reset(e) {
		if (e.attributes != undefined) {
			orig_load(e, "x");
			orig_load(e, "width");
		}
		if (e.childNodes == undefined) return;
		for (var i = 0, c = e.childNodes; i < c.length; i++) {
			zoom_reset(c[i]);
		}
	}
	function zoom_child(e, x, ratio) {
		if (e.attributes != undefined) {
			if (e.attributes.x != undefined) {
				orig_save(e, "x");
				e.attributes.x.value = (parseFloat(e.attributes.x.value) - x - 10) * ratio + 10;
				if (e.tagName == "text")
					e.attributes.x.value = find_child(e.parentNode, "rect[x]").attributes.x.value + 3;
			}
			if (e.attributes.width != undefined) {
				orig_save(e, "width");
				e.attributes.width.value = parseFloat(e.attributes.width.value) * ratio;
			}
		}

		if (e.childNodes == undefined) return;
		for (var i = 0, c = e.childNodes; i < c.length; i++) {
			zoom_child(c[i], x - 10, ratio);
		}
	}
	function zoom_parent(e) {
		if (e.attributes) {
			if (e.attributes.x != undefined) {
				orig_save(e, "x");
				e.attributes.x.value = 10;
			}
			if (e.attributes.width != undefined) {
				orig_save(e, "width");
				e.attributes.width.value = parseInt(svg.width.baseVal.value) - (10 * 2);
			}
		}
		if (e.childNodes == undefined) return;
		for (var i = 0, c = e.childNodes; i < c.length; i++) {
			zoom_parent(c[i]);
		}
	}
	function zoom(node) {
		var attr = find_child(node, "rect").attributes;
		var width = parseFloat(attr.width.value);
		var xmin = parseFloat(attr.x.value);
		var xmax = parseFloat(xmin + width);
		var ymin = parseFloat(attr.y.value);
		var ratio = (svg.width.baseVal.value - 2 * 10) / width;

		// XXX: Workaround for JavaScript float issues (fix me)
		var fudge = 0.0001;

		unzoombtn.classList.remove("hide");

		var el = document.getElementById("frames").children;
		for (var i = 0; i < el.length; i++) {
			var e = el[i];
			var a = find_child(e, "rect").attributes;
			var ex = parseFloat(a.x.value);
			var ew = parseFloat(a.width.value);
			var upstack;
			// Is it an ancestor
			if (0 == 0) {
				upstack = parseFloat(a.y.value) > ymin;
			} else {
				upstack = parseFloat(a.y.value) < ymin;
			}
			if (upstack) {
				// Direct ancestor
				if (ex <= xmin && (ex+ew+fudge) >= xmax) {
					e.classList.add("parent");
					zoom_parent(e);
					update_text(e);
				}
				// not in current path
				else
					e.classList.add("hide");
			}
			// Children maybe
			else {
				// no common path
				if (ex < xmin || ex + fudge >= xmax) {
					e.classList.add("hide");
				}
				else {
					zoom_child(e, xmin, ratio);
					update_text(e);
				}
			}
		}
		search();
	}
	function unzoom(dont_update_text) {
		unzoombtn.classList.add("hide");
		var el = document.getElementById("frames").children;
		for(var i = 0; i < el.length; i++) {
			el[i].classList.remove("parent");
			el[i].classList.remove("hide");
			zoom_reset(el[i]);
			if(!dont_update_text) update_text(el[i]);
		}
		search();
	}
	function clearzoom() {
		unzoom();

		// remove zoom state
		var params = get_params();
		if (params.x) delete params.x;
		if (params.y) delete params.y;
		history.replaceState(null, null, parse_params(params));
	}

	// search
	function toggle_ignorecase() {
		ignorecase = !ignorecase;
		if (ignorecase) {
			ignorecaseBtn.classList.add("show");
		} else {
			ignorecaseBtn.classList.remove("show");
		}
		reset_search();
		search();
	}
	function reset_search() {
		var el = document.querySelectorAll("#frames rect");
		for (var i = 0; i < el.length; i++) {
			orig_load(el[i], "fill")
		}
		var params = get_params();
		delete params.s;
		history.replaceState(null, null, parse_params(params));
	}
	function search_prompt() {
		if (!searching) {
			var term = prompt("Enter a search term (regexp " +
			    "allowed, eg: ^ext4_)"
			    + (ignorecase ? ", ignoring case" : "")
			    + "\nPress Ctrl-i to toggle case sensitivity", "");
			if (term != null) search(term);
		} else {
			reset_search();
			searching = 0;
			currentSearchTerm = null;
			searchbtn.classList.remove("show");
			searchbtn.firstChild.nodeValue = "Search"
			matchedtxt.classList.add("hide");
			matchedtxt.firstChild.nodeValue = ""
		}
	}
	function search(term) {
		if (term) currentSearchTerm = term;

		var re = new RegExp(currentSearchTerm, ignorecase ? 'i' : '');
		var el = document.getElementById("frames").children;
		var matches = new Object();
		var maxwidth = 0;
		for (var i = 0; i < el.length; i++) {
			var e = el[i];
			var func = g_to_func(e);
			var rect = find_child(e, "rect");
			if (func == null || rect == null)
				continue;

			// Save max width. Only works as we have a root frame
			var w = parseFloat(rect.attributes.width.value);
			if (w > maxwidth)
				maxwidth = w;

			if (func.match(re)) {
				// highlight
				var x = parseFloat(rect.attributes.x.value);
				orig_save(rect, "fill");
				rect.attributes.fill.value = "rgb(230,0,230)";

				// remember matches
				if (matches[x] == undefined) {
					matches[x] = w;
				} else {
					if (w > matches[x]) {
						// overwrite with parent
						matches[x] = w;
					}
				}
				searching = 1;
			}
		}
		if (!searching)
			return;
		var params = get_params();
		params.s = currentSearchTerm;
		history.replaceState(null, null, parse_params(params));

		searchbtn.classList.add("show");
		searchbtn.firstChild.nodeValue = "Reset Search";

		// calculate percent matched, excluding vertical overlap
		var count = 0;
		var lastx = -1;
		var lastw = 0;
		var keys = Array();
		for (k in matches) {
			if (matches.hasOwnProperty(k))
				keys.push(k);
		}
		// sort the matched frames by their x location
		// ascending, then width descending
		keys.sort(function(a, b){
			return a - b;
		});
		// Step through frames saving only the biggest bottom-up frames
		// thanks to the sort order. This relies on the tree property
		// where children are always smaller than their parents.
		var fudge = 0.0001;	// JavaScript floating point
		for (var k in keys) {
			var x = parseFloat(keys[k]);
			var w = matches[keys[k]];
			if (x >= lastx + lastw - fudge) {
				count += w;
				lastx = x;
				lastw = w;
			}
		}
		// display matched percent
		matchedtxt.classList.remove("hide");
		var pct = 100 * count / maxwidth;
		if (pct != 100) pct = pct.toFixed(1)
		matchedtxt.firstChild.nodeValue = "Matched: " + pct + "%";
	}
]]>
</script>
<rect x="0.0" y="0" width="1200.0" height="358.0" fill="url(#background)"  />
<text id="title" x="600.00" y="24" >Flame Graph</text>
<text id="details" x="10.00" y="341" > </text>
<text id="unzoom" x="10.00" y="24" class="hide">Reset Zoom</text>
<text id="search" x="1090.00" y="24" >Search</text>
<text id="ignorecase" x="1174.00" y="24" >ic</text>
<text id="matched" x="1090.00" y="341" > </text>
<g id="frames">
<g >
<title>xas_clear_mark (923,205 samples, 0.21%)</title><rect x="1180.1" y="37" width="2.5" height="15.0" fill="rgb(230,116,27)" rx="2" ry="2" />
<text  x="1183.14" y="47.5" ></text>
</g>
<g >
<title>VP8DecodeMB (6,466,097 samples, 1.45%)</title><rect x="140.2" y="277" width="17.1" height="15.0" fill="rgb(208,18,4)" rx="2" ry="2" />
<text  x="143.21" y="287.5" ></text>
</g>
<g >
<title>__handle_mm_fault (376,979 samples, 0.08%)</title><rect x="131.9" y="197" width="1.0" height="15.0" fill="rgb(207,9,2)" rx="2" ry="2" />
<text  x="134.90" y="207.5" ></text>
</g>
<g >
<title>__mem_cgroup_charge (440,019 samples, 0.10%)</title><rect x="44.4" y="181" width="1.2" height="15.0" fill="rgb(218,60,14)" rx="2" ry="2" />
<text  x="47.43" y="191.5" ></text>
</g>
<g >
<title>ext4_buffered_write_iter (1,846,308 samples, 0.41%)</title><rect x="1183.8" y="181" width="4.9" height="15.0" fill="rgb(213,40,9)" rx="2" ry="2" />
<text  x="1186.79" y="191.5" ></text>
</g>
<g >
<title>notify_change (923,205 samples, 0.21%)</title><rect x="1180.1" y="133" width="2.5" height="15.0" fill="rgb(237,150,35)" rx="2" ry="2" />
<text  x="1183.14" y="143.5" ></text>
</g>
<g >
<title>VP8YuvToRgb32_SSE2 (7,337,087 samples, 1.64%)</title><rect x="228.0" y="277" width="19.3" height="15.0" fill="rgb(241,167,40)" rx="2" ry="2" />
<text  x="230.97" y="287.5" ></text>
</g>
<g >
<title>VP8LReadBits (923,036 samples, 0.21%)</title><rect x="1169.4" y="245" width="2.4" height="15.0" fill="rgb(236,146,35)" rx="2" ry="2" />
<text  x="1172.40" y="255.5" ></text>
</g>
<g >
<title>do_truncate (923,205 samples, 0.21%)</title><rect x="1180.1" y="149" width="2.5" height="15.0" fill="rgb(216,53,12)" rx="2" ry="2" />
<text  x="1183.14" y="159.5" ></text>
</g>
<g >
<title>DC4_C (3,865,078 samples, 0.87%)</title><rect x="26.9" y="277" width="10.2" height="15.0" fill="rgb(209,18,4)" rx="2" ry="2" />
<text  x="29.91" y="287.5" ></text>
</g>
<g >
<title>xas_store (923,205 samples, 0.21%)</title><rect x="1180.1" y="53" width="2.5" height="15.0" fill="rgb(207,9,2)" rx="2" ry="2" />
<text  x="1183.14" y="63.5" ></text>
</g>
<g >
<title>__libc_open64 (923,205 samples, 0.21%)</title><rect x="1180.1" y="261" width="2.5" height="15.0" fill="rgb(235,140,33)" rx="2" ry="2" />
<text  x="1183.14" y="271.5" ></text>
</g>
<g >
<title>GetCoeffsFast (2,772,282 samples, 0.62%)</title><rect x="288.8" y="261" width="7.3" height="15.0" fill="rgb(219,64,15)" rx="2" ry="2" />
<text  x="291.81" y="271.5" ></text>
</g>
<g >
<title>VFilter16i_SSE2 (2,770,546 samples, 0.62%)</title><rect x="132.9" y="277" width="7.3" height="15.0" fill="rgb(243,175,42)" rx="2" ry="2" />
<text  x="135.90" y="287.5" ></text>
</g>
<g >
<title>Transform_SSE2 (7,388,051 samples, 1.65%)</title><rect x="452.8" y="261" width="19.5" height="15.0" fill="rgb(233,129,30)" rx="2" ry="2" />
<text  x="455.77" y="271.5" ></text>
</g>
<g >
<title>begin_new_exec (115,145 samples, 0.03%)</title><rect x="1188.7" y="165" width="0.3" height="15.0" fill="rgb(245,184,44)" rx="2" ry="2" />
<text  x="1191.67" y="175.5" ></text>
</g>
<g >
<title>TM4_SSE2 (924,199 samples, 0.21%)</title><rect x="74.8" y="277" width="2.4" height="15.0" fill="rgb(232,128,30)" rx="2" ry="2" />
<text  x="77.75" y="287.5" ></text>
</g>
<g >
<title>do_syscall_64 (1,846,308 samples, 0.41%)</title><rect x="1183.8" y="229" width="4.9" height="15.0" fill="rgb(209,20,4)" rx="2" ry="2" />
<text  x="1186.79" y="239.5" ></text>
</g>
<g >
<title>asm_exc_page_fault (440,019 samples, 0.10%)</title><rect x="44.4" y="261" width="1.2" height="15.0" fill="rgb(225,93,22)" rx="2" ry="2" />
<text  x="47.43" y="271.5" ></text>
</g>
<g >
<title>__libc_read (458,640 samples, 0.10%)</title><rect x="1182.6" y="261" width="1.2" height="15.0" fill="rgb(212,34,8)" rx="2" ry="2" />
<text  x="1185.58" y="271.5" ></text>
</g>
<g >
<title>Transform_SSE2 (10,086,263 samples, 2.26%)</title><rect x="96.7" y="277" width="26.6" height="15.0" fill="rgb(233,129,30)" rx="2" ry="2" />
<text  x="99.71" y="287.5" >T..</text>
</g>
<g >
<title>truncate_inode_pages_range (923,205 samples, 0.21%)</title><rect x="1180.1" y="85" width="2.5" height="15.0" fill="rgb(245,187,44)" rx="2" ry="2" />
<text  x="1183.14" y="95.5" ></text>
</g>
<g >
<title>folio_add_lru (923,272 samples, 0.21%)</title><rect x="1186.2" y="85" width="2.5" height="15.0" fill="rgb(208,17,4)" rx="2" ry="2" />
<text  x="1189.23" y="95.5" ></text>
</g>
<g >
<title>VP8PlanarTo24b_SSE2 (924,086 samples, 0.21%)</title><rect x="635.7" y="261" width="2.5" height="15.0" fill="rgb(208,15,3)" rx="2" ry="2" />
<text  x="638.72" y="271.5" ></text>
</g>
<g >
<title>filemap_add_folio (923,272 samples, 0.21%)</title><rect x="1186.2" y="101" width="2.5" height="15.0" fill="rgb(207,9,2)" rx="2" ry="2" />
<text  x="1189.23" y="111.5" ></text>
</g>
<g >
<title>VP8GetValue (2,769,843 samples, 0.62%)</title><rect x="157.3" y="277" width="7.3" height="15.0" fill="rgb(230,119,28)" rx="2" ry="2" />
<text  x="160.29" y="287.5" ></text>
</g>
<g >
<title>HFilter16i_SSE2 (3,693,835 samples, 0.83%)</title><rect x="408.9" y="261" width="9.8" height="15.0" fill="rgb(233,131,31)" rx="2" ry="2" />
<text  x="411.95" y="271.5" ></text>
</g>
<g >
<title>map_vdso (359,435 samples, 0.08%)</title><rect x="1189.0" y="165" width="0.9" height="15.0" fill="rgb(227,103,24)" rx="2" ry="2" />
<text  x="1191.97" y="175.5" ></text>
</g>
<g >
<title>ExtractGreen_SSE2 (3,211,063 samples, 0.72%)</title><rect x="37.1" y="277" width="8.5" height="15.0" fill="rgb(226,96,23)" rx="2" ry="2" />
<text  x="40.11" y="287.5" ></text>
</g>
<g >
<title>folio_batch_move_lru (923,272 samples, 0.21%)</title><rect x="1186.2" y="69" width="2.5" height="15.0" fill="rgb(207,10,2)" rx="2" ry="2" />
<text  x="1189.23" y="79.5" ></text>
</g>
<g >
<title>[unknown] (205,222,541 samples, 45.93%)</title><rect x="638.2" y="261" width="541.9" height="15.0" fill="rgb(210,24,5)" rx="2" ry="2" />
<text  x="641.16" y="271.5" >[unknown]</text>
</g>
<g >
<title>check_preemption_disabled (440,019 samples, 0.10%)</title><rect x="44.4" y="133" width="1.2" height="15.0" fill="rgb(220,73,17)" rx="2" ry="2" />
<text  x="47.43" y="143.5" ></text>
</g>
<g >
<title>VFilter8_SSE2 (1,846,854 samples, 0.41%)</title><rect x="477.2" y="261" width="4.8" height="15.0" fill="rgb(225,92,22)" rx="2" ry="2" />
<text  x="480.15" y="271.5" ></text>
</g>
<g >
<title>do_user_addr_fault (440,019 samples, 0.10%)</title><rect x="44.4" y="229" width="1.2" height="15.0" fill="rgb(228,108,25)" rx="2" ry="2" />
<text  x="47.43" y="239.5" ></text>
</g>
<g >
<title>exc_page_fault (440,019 samples, 0.10%)</title><rect x="44.4" y="245" width="1.2" height="15.0" fill="rgb(212,35,8)" rx="2" ry="2" />
<text  x="47.43" y="255.5" ></text>
</g>
<g >
<title>__mem_cgroup_charge (376,979 samples, 0.08%)</title><rect x="131.9" y="181" width="1.0" height="15.0" fill="rgb(218,60,14)" rx="2" ry="2" />
<text  x="134.90" y="191.5" ></text>
</g>
<g >
<title>entry_SYSCALL_64_after_hwframe (474,580 samples, 0.11%)</title><rect x="1188.7" y="261" width="1.2" height="15.0" fill="rgb(218,63,15)" rx="2" ry="2" />
<text  x="1191.67" y="271.5" ></text>
</g>
<g >
<title>filemap_get_pages (458,640 samples, 0.10%)</title><rect x="1182.6" y="165" width="1.2" height="15.0" fill="rgb(216,53,12)" rx="2" ry="2" />
<text  x="1185.58" y="175.5" ></text>
</g>
<g >
<title>do_syscall_64 (474,580 samples, 0.11%)</title><rect x="1188.7" y="245" width="1.2" height="15.0" fill="rgb(209,20,4)" rx="2" ry="2" />
<text  x="1191.67" y="255.5" ></text>
</g>
<g >
<title>vfs_read (458,640 samples, 0.10%)</title><rect x="1182.6" y="197" width="1.2" height="15.0" fill="rgb(224,88,21)" rx="2" ry="2" />
<text  x="1185.58" y="207.5" ></text>
</g>
<g >
<title>handle_mm_fault (376,979 samples, 0.08%)</title><rect x="131.9" y="213" width="1.0" height="15.0" fill="rgb(234,135,32)" rx="2" ry="2" />
<text  x="134.90" y="223.5" ></text>
</g>
<g >
<title>TransformDC_C (923,586 samples, 0.21%)</title><rect x="447.9" y="261" width="2.4" height="15.0" fill="rgb(219,65,15)" rx="2" ry="2" />
<text  x="450.89" y="271.5" ></text>
</g>
<g >
<title>insert_vm_struct (359,435 samples, 0.08%)</title><rect x="1189.0" y="133" width="0.9" height="15.0" fill="rgb(226,98,23)" rx="2" ry="2" />
<text  x="1191.97" y="143.5" ></text>
</g>
<g >
<title>GetCoeffsFast (177,300,754 samples, 39.68%)</title><rect x="701.2" y="245" width="468.2" height="15.0" fill="rgb(219,64,15)" rx="2" ry="2" />
<text  x="704.16" y="255.5" >GetCoeffsFast</text>
</g>
<g >
<title>ksys_read (458,640 samples, 0.10%)</title><rect x="1182.6" y="213" width="1.2" height="15.0" fill="rgb(229,113,27)" rx="2" ry="2" />
<text  x="1185.58" y="223.5" ></text>
</g>
<g >
<title>__x64_sys_openat (923,205 samples, 0.21%)</title><rect x="1180.1" y="213" width="2.5" height="15.0" fill="rgb(251,215,51)" rx="2" ry="2" />
<text  x="1183.14" y="223.5" ></text>
</g>
<g >
<title>do_filp_open (923,205 samples, 0.21%)</title><rect x="1180.1" y="181" width="2.5" height="15.0" fill="rgb(211,28,6)" rx="2" ry="2" />
<text  x="1183.14" y="191.5" ></text>
</g>
<g >
<title>pagecache_get_page (923,272 samples, 0.21%)</title><rect x="1186.2" y="133" width="2.5" height="15.0" fill="rgb(253,221,53)" rx="2" ry="2" />
<text  x="1189.23" y="143.5" ></text>
</g>
<g >
<title>asm_exc_page_fault (376,979 samples, 0.08%)</title><rect x="131.9" y="261" width="1.0" height="15.0" fill="rgb(225,93,22)" rx="2" ry="2" />
<text  x="134.90" y="271.5" ></text>
</g>
<g >
<title>HE4_C (924,409 samples, 0.21%)</title><rect x="52.9" y="277" width="2.5" height="15.0" fill="rgb(220,70,16)" rx="2" ry="2" />
<text  x="55.92" y="287.5" ></text>
</g>
<g >
<title>filemap_read (458,640 samples, 0.10%)</title><rect x="1182.6" y="181" width="1.2" height="15.0" fill="rgb(246,192,46)" rx="2" ry="2" />
<text  x="1185.58" y="191.5" ></text>
</g>
<g >
<title>VP8ParseProba (1,847,314 samples, 0.41%)</title><rect x="171.9" y="277" width="4.9" height="15.0" fill="rgb(224,88,21)" rx="2" ry="2" />
<text  x="174.92" y="287.5" ></text>
</g>
<g >
<title>do_syscall_64 (923,205 samples, 0.21%)</title><rect x="1180.1" y="229" width="2.5" height="15.0" fill="rgb(209,20,4)" rx="2" ry="2" />
<text  x="1183.14" y="239.5" ></text>
</g>
<g >
<title>TransformAC3_C (4,619,390 samples, 1.03%)</title><rect x="77.2" y="277" width="12.2" height="15.0" fill="rgb(209,19,4)" rx="2" ry="2" />
<text  x="80.19" y="287.5" ></text>
</g>
<g >
<title>HFilter8_SSE2 (4,599,673 samples, 1.03%)</title><rect x="418.7" y="261" width="12.1" height="15.0" fill="rgb(215,48,11)" rx="2" ry="2" />
<text  x="421.70" y="271.5" ></text>
</g>
<g >
<title>Upsample32Pixels_SSE2 (493,157 samples, 0.11%)</title><rect x="123.3" y="277" width="1.4" height="15.0" fill="rgb(223,83,20)" rx="2" ry="2" />
<text  x="126.35" y="287.5" ></text>
</g>
<g >
<title>VP8PlanarTo24b_SSE2 (19,373,953 samples, 4.34%)</title><rect x="176.8" y="277" width="51.2" height="15.0" fill="rgb(208,15,3)" rx="2" ry="2" />
<text  x="179.80" y="287.5" >VP8Pl..</text>
</g>
<g >
<title>ext4_setattr (923,205 samples, 0.21%)</title><rect x="1180.1" y="117" width="2.5" height="15.0" fill="rgb(230,117,28)" rx="2" ry="2" />
<text  x="1183.14" y="127.5" ></text>
</g>
<g >
<title>exc_page_fault (376,979 samples, 0.08%)</title><rect x="131.9" y="245" width="1.0" height="15.0" fill="rgb(212,35,8)" rx="2" ry="2" />
<text  x="134.90" y="255.5" ></text>
</g>
<g >
<title>VP8ParseIntraModeRow (2,771,378 samples, 0.62%)</title><rect x="164.6" y="277" width="7.3" height="15.0" fill="rgb(231,121,29)" rx="2" ry="2" />
<text  x="167.61" y="287.5" ></text>
</g>
<g >
<title>__memmove_avx_unaligned_erms (3,145,319 samples, 0.70%)</title><rect x="1171.8" y="245" width="8.3" height="15.0" fill="rgb(205,0,0)" rx="2" ry="2" />
<text  x="1174.84" y="255.5" ></text>
</g>
<g >
<title>entry_SYSCALL_64_after_hwframe (923,205 samples, 0.21%)</title><rect x="1180.1" y="245" width="2.5" height="15.0" fill="rgb(218,63,15)" rx="2" ry="2" />
<text  x="1183.14" y="255.5" ></text>
</g>
<g >
<title>UpsampleRgbLinePair_SSE2 (3,122,259 samples, 0.70%)</title><rect x="124.7" y="277" width="8.2" height="15.0" fill="rgb(220,70,16)" rx="2" ry="2" />
<text  x="127.65" y="287.5" ></text>
</g>
<g >
<title>GetCoeffsFast (2,772,090 samples, 0.62%)</title><rect x="45.6" y="277" width="7.3" height="15.0" fill="rgb(219,64,15)" rx="2" ry="2" />
<text  x="48.59" y="287.5" ></text>
</g>
<g >
<title>DoFilter6_SSE2 (11,086,515 samples, 2.48%)</title><rect x="259.5" y="261" width="29.3" height="15.0" fill="rgb(237,148,35)" rx="2" ry="2" />
<text  x="262.53" y="271.5" >Do..</text>
</g>
<g >
<title>path_openat (923,205 samples, 0.21%)</title><rect x="1180.1" y="165" width="2.5" height="15.0" fill="rgb(249,202,48)" rx="2" ry="2" />
<text  x="1183.14" y="175.5" ></text>
</g>
<g >
<title>__handle_mm_fault (440,019 samples, 0.10%)</title><rect x="44.4" y="197" width="1.2" height="15.0" fill="rgb(207,9,2)" rx="2" ry="2" />
<text  x="47.43" y="207.5" ></text>
</g>
<g >
<title>__libc_write (1,846,308 samples, 0.41%)</title><rect x="1183.8" y="261" width="4.9" height="15.0" fill="rgb(238,154,37)" rx="2" ry="2" />
<text  x="1186.79" y="271.5" ></text>
</g>
<g >
<title>mem_cgroup_wb_stats (923,036 samples, 0.21%)</title><rect x="1183.8" y="117" width="2.4" height="15.0" fill="rgb(211,28,6)" rx="2" ry="2" />
<text  x="1186.79" y="127.5" ></text>
</g>
<g >
<title>__install_special_mapping (359,435 samples, 0.08%)</title><rect x="1189.0" y="149" width="0.9" height="15.0" fill="rgb(212,35,8)" rx="2" ry="2" />
<text  x="1191.97" y="159.5" ></text>
</g>
<g >
<title>entry_SYSCALL_64_after_hwframe (1,846,308 samples, 0.41%)</title><rect x="1183.8" y="245" width="4.9" height="15.0" fill="rgb(218,63,15)" rx="2" ry="2" />
<text  x="1186.79" y="255.5" ></text>
</g>
<g >
<title>VP8ParseIntraModeRow (40,720,480 samples, 9.11%)</title><rect x="528.2" y="261" width="107.5" height="15.0" fill="rgb(231,121,29)" rx="2" ry="2" />
<text  x="531.18" y="271.5" >VP8ParseIntra..</text>
</g>
<g >
<title>__x64_sys_execve (474,580 samples, 0.11%)</title><rect x="1188.7" y="229" width="1.2" height="15.0" fill="rgb(247,193,46)" rx="2" ry="2" />
<text  x="1191.67" y="239.5" ></text>
</g>
<g >
<title>mas_wr_node_store (359,435 samples, 0.08%)</title><rect x="1189.0" y="69" width="0.9" height="15.0" fill="rgb(219,66,15)" rx="2" ry="2" />
<text  x="1191.97" y="79.5" ></text>
</g>
<g >
<title>get_mem_cgroup_from_mm (376,979 samples, 0.08%)</title><rect x="131.9" y="165" width="1.0" height="15.0" fill="rgb(218,61,14)" rx="2" ry="2" />
<text  x="134.90" y="175.5" ></text>
</g>
<g >
<title>ext4_da_write_begin (923,272 samples, 0.21%)</title><rect x="1186.2" y="149" width="2.5" height="15.0" fill="rgb(211,32,7)" rx="2" ry="2" />
<text  x="1189.23" y="159.5" ></text>
</g>
<g >
<title>mas_store_prealloc (359,435 samples, 0.08%)</title><rect x="1189.0" y="101" width="0.9" height="15.0" fill="rgb(223,85,20)" rx="2" ry="2" />
<text  x="1191.97" y="111.5" ></text>
</g>
<g >
<title>mas_wr_modify (359,435 samples, 0.08%)</title><rect x="1189.0" y="85" width="0.9" height="15.0" fill="rgb(221,75,18)" rx="2" ry="2" />
<text  x="1191.97" y="95.5" ></text>
</g>
<g >
<title>[unknown] (352,296,459 samples, 78.85%)</title><rect x="259.5" y="277" width="930.4" height="15.0" fill="rgb(210,24,5)" rx="2" ry="2" />
<text  x="262.53" y="287.5" >[unknown]</text>
</g>
<g >
<title>UpsampleRgbLinePair_SSE2 (923,057 samples, 0.21%)</title><rect x="472.3" y="261" width="2.4" height="15.0" fill="rgb(220,70,16)" rx="2" ry="2" />
<text  x="475.28" y="271.5" ></text>
</g>
<g >
<title>do_user_addr_fault (376,979 samples, 0.08%)</title><rect x="131.9" y="229" width="1.0" height="15.0" fill="rgb(228,108,25)" rx="2" ry="2" />
<text  x="134.90" y="239.5" ></text>
</g>
<g >
<title>HFilter16_SSE2 (1,847,199 samples, 0.41%)</title><rect x="404.1" y="261" width="4.8" height="15.0" fill="rgb(211,31,7)" rx="2" ry="2" />
<text  x="407.07" y="271.5" ></text>
</g>
<g >
<title>flush_signal_handlers (115,145 samples, 0.03%)</title><rect x="1188.7" y="149" width="0.3" height="15.0" fill="rgb(253,221,53)" rx="2" ry="2" />
<text  x="1191.67" y="159.5" ></text>
</g>
<g >
<title>mas_replace (359,435 samples, 0.08%)</title><rect x="1189.0" y="53" width="0.9" height="15.0" fill="rgb(247,195,46)" rx="2" ry="2" />
<text  x="1191.97" y="63.5" ></text>
</g>
<g >
<title>handle_mm_fault (440,019 samples, 0.10%)</title><rect x="44.4" y="213" width="1.2" height="15.0" fill="rgb(234,135,32)" rx="2" ry="2" />
<text  x="47.43" y="223.5" ></text>
</g>
<g >
<title>vfs_write (1,846,308 samples, 0.41%)</title><rect x="1183.8" y="197" width="4.9" height="15.0" fill="rgb(250,209,50)" rx="2" ry="2" />
<text  x="1186.79" y="207.5" ></text>
</g>
<g >
<title>bprm_execve (474,580 samples, 0.11%)</title><rect x="1188.7" y="197" width="1.2" height="15.0" fill="rgb(218,61,14)" rx="2" ry="2" />
<text  x="1191.67" y="207.5" ></text>
</g>
<g >
<title>VP8DecodeMB (17,475,861 samples, 3.91%)</title><rect x="482.0" y="261" width="46.2" height="15.0" fill="rgb(208,18,4)" rx="2" ry="2" />
<text  x="485.03" y="271.5" >VP8D..</text>
</g>
<g >
<title>TransformWHT_C (924,436 samples, 0.21%)</title><rect x="450.3" y="261" width="2.5" height="15.0" fill="rgb(221,76,18)" rx="2" ry="2" />
<text  x="453.32" y="271.5" ></text>
</g>
<g >
<title>ksys_write (1,846,308 samples, 0.41%)</title><rect x="1183.8" y="213" width="4.9" height="15.0" fill="rgb(205,4,1)" rx="2" ry="2" />
<text  x="1186.79" y="223.5" ></text>
</g>
<g >
<title>error_entry (372,358 samples, 0.08%)</title><rect x="1179.2" y="229" width="0.9" height="15.0" fill="rgb(240,163,39)" rx="2" ry="2" />
<text  x="1182.16" y="239.5" ></text>
</g>
<g >
<title>do_syscall_64 (458,640 samples, 0.10%)</title><rect x="1182.6" y="229" width="1.2" height="15.0" fill="rgb(209,20,4)" rx="2" ry="2" />
<text  x="1185.58" y="239.5" ></text>
</g>
<g >
<title>all (446,812,391 samples, 100%)</title><rect x="10.0" y="309" width="1180.0" height="15.0" fill="rgb(213,39,9)" rx="2" ry="2" />
<text  x="13.00" y="319.5" ></text>
</g>
<g >
<title>DecodeImageData (23,853,432 samples, 5.34%)</title><rect x="638.2" y="245" width="63.0" height="15.0" fill="rgb(254,229,54)" rx="2" ry="2" />
<text  x="641.16" y="255.5" >Decode..</text>
</g>
<g >
<title>__filemap_get_folio (923,272 samples, 0.21%)</title><rect x="1186.2" y="117" width="2.5" height="15.0" fill="rgb(231,120,28)" rx="2" ry="2" />
<text  x="1189.23" y="127.5" ></text>
</g>
<g >
<title>load_elf_binary (474,580 samples, 0.11%)</title><rect x="1188.7" y="181" width="1.2" height="15.0" fill="rgb(223,83,20)" rx="2" ry="2" />
<text  x="1191.67" y="191.5" ></text>
</g>
<g >
<title>vma_link (359,435 samples, 0.08%)</title><rect x="1189.0" y="117" width="0.9" height="15.0" fill="rgb(229,110,26)" rx="2" ry="2" />
<text  x="1191.97" y="127.5" ></text>
</g>
<g >
<title>__mem_cgroup_flush_stats (923,036 samples, 0.21%)</title><rect x="1183.8" y="101" width="2.4" height="15.0" fill="rgb(208,16,3)" rx="2" ry="2" />
<text  x="1186.79" y="111.5" ></text>
</g>
<g >
<title>delete_from_page_cache_batch (923,205 samples, 0.21%)</title><rect x="1180.1" y="69" width="2.5" height="15.0" fill="rgb(223,85,20)" rx="2" ry="2" />
<text  x="1183.14" y="79.5" ></text>
</g>
<g >
<title>truncate_pagecache (923,205 samples, 0.21%)</title><rect x="1180.1" y="101" width="2.5" height="15.0" fill="rgb(231,123,29)" rx="2" ry="2" />
<text  x="1183.14" y="111.5" ></text>
</g>
<g >
<title>VFilter16_SSE2 (923,218 samples, 0.21%)</title><rect x="474.7" y="261" width="2.5" height="15.0" fill="rgb(221,75,18)" rx="2" ry="2" />
<text  x="477.72" y="271.5" ></text>
</g>
<g >
<title>TransformDC_C (2,770,967 samples, 0.62%)</title><rect x="89.4" y="277" width="7.3" height="15.0" fill="rgb(219,65,15)" rx="2" ry="2" />
<text  x="92.39" y="287.5" ></text>
</g>
<g >
<title>mem_cgroup_charge_statistics (440,019 samples, 0.10%)</title><rect x="44.4" y="149" width="1.2" height="15.0" fill="rgb(232,126,30)" rx="2" ry="2" />
<text  x="47.43" y="159.5" ></text>
</g>
<g >
<title>lru_add_fn (923,272 samples, 0.21%)</title><rect x="1186.2" y="53" width="2.5" height="15.0" fill="rgb(208,14,3)" rx="2" ry="2" />
<text  x="1189.23" y="63.5" ></text>
</g>
<g >
<title>generic_perform_write (1,846,308 samples, 0.41%)</title><rect x="1183.8" y="165" width="4.9" height="15.0" fill="rgb(236,146,35)" rx="2" ry="2" />
<text  x="1186.79" y="175.5" ></text>
</g>
<g >
<title>mem_cgroup_css_rstat_flush (923,036 samples, 0.21%)</title><rect x="1183.8" y="53" width="2.4" height="15.0" fill="rgb(253,222,53)" rx="2" ry="2" />
<text  x="1186.79" y="63.5" ></text>
</g>
<g >
<title>balance_dirty_pages_ratelimited_flags (923,036 samples, 0.21%)</title><rect x="1183.8" y="149" width="2.4" height="15.0" fill="rgb(207,10,2)" rx="2" ry="2" />
<text  x="1186.79" y="159.5" ></text>
</g>
<g >
<title>charge_memcg (440,019 samples, 0.10%)</title><rect x="44.4" y="165" width="1.2" height="15.0" fill="rgb(242,170,40)" rx="2" ry="2" />
<text  x="47.43" y="175.5" ></text>
</g>
<g >
<title>cgroup_rstat_flush_irqsafe (923,036 samples, 0.21%)</title><rect x="1183.8" y="85" width="2.4" height="15.0" fill="rgb(227,103,24)" rx="2" ry="2" />
<text  x="1186.79" y="95.5" ></text>
</g>
<g >
<title>sync_regs (372,358 samples, 0.08%)</title><rect x="1179.2" y="213" width="0.9" height="15.0" fill="rgb(228,106,25)" rx="2" ry="2" />
<text  x="1182.16" y="223.5" ></text>
</g>
<g >
<title>GetLargeValue (39,946,896 samples, 8.94%)</title><rect x="296.1" y="261" width="105.5" height="15.0" fill="rgb(243,175,42)" rx="2" ry="2" />
<text  x="299.13" y="271.5" >GetLargeValue</text>
</g>
<g >
<title>entry_SYSCALL_64_after_hwframe (458,640 samples, 0.10%)</title><rect x="1182.6" y="245" width="1.2" height="15.0" fill="rgb(218,63,15)" rx="2" ry="2" />
<text  x="1185.58" y="255.5" ></text>
</g>
<g >
<title>HE8uv_C (924,171 samples, 0.21%)</title><rect x="401.6" y="261" width="2.5" height="15.0" fill="rgb(226,98,23)" rx="2" ry="2" />
<text  x="404.63" y="271.5" ></text>
</g>
<g >
<title>RD4_SSE2 (2,772,543 samples, 0.62%)</title><rect x="55.4" y="277" width="7.3" height="15.0" fill="rgb(253,224,53)" rx="2" ry="2" />
<text  x="58.36" y="287.5" ></text>
</g>
<g >
<title>YUV444ToRGB_SSE2 (4,614,071 samples, 1.03%)</title><rect x="247.3" y="277" width="12.2" height="15.0" fill="rgb(247,193,46)" rx="2" ry="2" />
<text  x="250.34" y="287.5" ></text>
</g>
<g >
<title>ReconstructRow (4,572,366 samples, 1.02%)</title><rect x="62.7" y="277" width="12.1" height="15.0" fill="rgb(225,93,22)" rx="2" ry="2" />
<text  x="65.68" y="287.5" ></text>
</g>
<g >
<title>__rcu_read_lock (376,979 samples, 0.08%)</title><rect x="131.9" y="149" width="1.0" height="15.0" fill="rgb(220,69,16)" rx="2" ry="2" />
<text  x="134.90" y="159.5" ></text>
</g>
<g >
<title>decode_webp_nat (446,782,274 samples, 99.99%)</title><rect x="10.0" y="293" width="1179.9" height="15.0" fill="rgb(218,61,14)" rx="2" ry="2" />
<text  x="13.00" y="303.5" >decode_webp_nat</text>
</g>
<g >
<title>ReconstructRow (4,602,491 samples, 1.03%)</title><rect x="435.7" y="261" width="12.2" height="15.0" fill="rgb(225,93,22)" rx="2" ry="2" />
<text  x="438.73" y="271.5" ></text>
</g>
<g >
<title>do_execveat_common.isra.0 (474,580 samples, 0.11%)</title><rect x="1188.7" y="213" width="1.2" height="15.0" fill="rgb(231,123,29)" rx="2" ry="2" />
<text  x="1191.67" y="223.5" ></text>
</g>
<g >
<title>balance_dirty_pages (923,036 samples, 0.21%)</title><rect x="1183.8" y="133" width="2.4" height="15.0" fill="rgb(247,193,46)" rx="2" ry="2" />
<text  x="1186.79" y="143.5" ></text>
</g>
<g >
<title>HFilter8i_SSE2 (1,848,494 samples, 0.41%)</title><rect x="430.8" y="261" width="4.9" height="15.0" fill="rgb(237,148,35)" rx="2" ry="2" />
<text  x="433.85" y="271.5" ></text>
</g>
<g >
<title>filemap_get_read_batch (458,640 samples, 0.10%)</title><rect x="1182.6" y="149" width="1.2" height="15.0" fill="rgb(231,123,29)" rx="2" ry="2" />
<text  x="1185.58" y="159.5" ></text>
</g>
<g >
<title>do_sys_openat2 (923,205 samples, 0.21%)</title><rect x="1180.1" y="197" width="2.5" height="15.0" fill="rgb(253,221,52)" rx="2" ry="2" />
<text  x="1183.14" y="207.5" ></text>
</g>
<g >
<title>BuildHuffmanTable (6,401,742 samples, 1.43%)</title><rect x="10.0" y="277" width="16.9" height="15.0" fill="rgb(226,101,24)" rx="2" ry="2" />
<text  x="13.00" y="287.5" ></text>
</g>
<g >
<title>cgroup_rstat_flush_locked (923,036 samples, 0.21%)</title><rect x="1183.8" y="69" width="2.4" height="15.0" fill="rgb(209,19,4)" rx="2" ry="2" />
<text  x="1186.79" y="79.5" ></text>
</g>
</g>
</svg>
