<?xml version="1.0" standalone="no"?>
<!DOCTYPE svg PUBLIC "-//W3C//DTD SVG 1.1//EN" "http://www.w3.org/Graphics/SVG/1.1/DTD/svg11.dtd">
<svg version="1.1" width="1200" height="310" onload="init(evt)" viewBox="0 0 1200 310" xmlns="http://www.w3.org/2000/svg" xmlns:xlink="http://www.w3.org/1999/xlink">
<!-- Flame graph stack visualization. See https://github.com/brendangregg/FlameGraph for latest version, and http://www.brendangregg.com/flamegraphs.html for examples. -->
<!-- NOTES:  -->
<defs>
	<linearGradient id="background" y1="0" y2="1" x1="0" x2="0" >
		<stop stop-color="#eeeeee" offset="5%" />
		<stop stop-color="#eeeeb0" offset="95%" />
	</linearGradient>
</defs>
<style type="text/css">
	text { font-family:Verdana; font-size:12px; fill:rgb(0,0,0); }
	#search, #ignorecase { opacity:0.1; cursor:pointer; }
	#search:hover, #search.show, #ignorecase:hover, #ignorecase.show { opacity:1; }
	#subtitle { text-anchor:middle; font-color:rgb(160,160,160); }
	#title { text-anchor:middle; font-size:17px}
	#unzoom { cursor:pointer; }
	#frames > *:hover { stroke:black; stroke-width:0.5; cursor:pointer; }
	.hide { display:none; }
	.parent { opacity:0.5; }
</style>
<script type="text/ecmascript">
<![CDATA[
	"use strict";
	var details, searchbtn, unzoombtn, matchedtxt, svg, searching, currentSearchTerm, ignorecase, ignorecaseBtn;
	function init(evt) {
		details = document.getElementById("details").firstChild;
		searchbtn = document.getElementById("search");
		ignorecaseBtn = document.getElementById("ignorecase");
		unzoombtn = document.getElementById("unzoom");
		matchedtxt = document.getElementById("matched");
		svg = document.getElementsByTagName("svg")[0];
		searching = 0;
		currentSearchTerm = null;

		// use GET parameters to restore a flamegraphs state.
		var params = get_params();
		if (params.x && params.y)
			zoom(find_group(document.querySelector('[x="' + params.x + '"][y="' + params.y + '"]')));
                if (params.s) search(params.s);
	}

	// event listeners
	window.addEventListener("click", function(e) {
		var target = find_group(e.target);
		if (target) {
			if (target.nodeName == "a") {
				if (e.ctrlKey === false) return;
				e.preventDefault();
			}
			if (target.classList.contains("parent")) unzoom(true);
			zoom(target);
			if (!document.querySelector('.parent')) {
				// we have basically done a clearzoom so clear the url
				var params = get_params();
				if (params.x) delete params.x;
				if (params.y) delete params.y;
				history.replaceState(null, null, parse_params(params));
				unzoombtn.classList.add("hide");
				return;
			}

			// set parameters for zoom state
			var el = target.querySelector("rect");
			if (el && el.attributes && el.attributes.y && el.attributes._orig_x) {
				var params = get_params()
				params.x = el.attributes._orig_x.value;
				params.y = el.attributes.y.value;
				history.replaceState(null, null, parse_params(params));
			}
		}
		else if (e.target.id == "unzoom") clearzoom();
		else if (e.target.id == "search") search_prompt();
		else if (e.target.id == "ignorecase") toggle_ignorecase();
	}, false)

	// mouse-over for info
	// show
	window.addEventListener("mouseover", function(e) {
		var target = find_group(e.target);
		if (target) details.nodeValue = "Function: " + g_to_text(target);
	}, false)

	// clear
	window.addEventListener("mouseout", function(e) {
		var target = find_group(e.target);
		if (target) details.nodeValue = ' ';
	}, false)

	// ctrl-F for search
	// ctrl-I to toggle case-sensitive search
	window.addEventListener("keydown",function (e) {
		if (e.keyCode === 114 || (e.ctrlKey && e.keyCode === 70)) {
			e.preventDefault();
			search_prompt();
		}
		else if (e.ctrlKey && e.keyCode === 73) {
			e.preventDefault();
			toggle_ignorecase();
		}
	}, false)

	// functions
	function get_params() {
		var params = {};
		var paramsarr = window.location.search.substr(1).split('&');
		for (var i = 0; i < paramsarr.length; ++i) {
			var tmp = paramsarr[i].split("=");
			if (!tmp[0] || !tmp[1]) continue;
			params[tmp[0]]  = decodeURIComponent(tmp[1]);
		}
		return params;
	}
	function parse_params(params) {
		var uri = "?";
		for (var key in params) {
			uri += key + '=' + encodeURIComponent(params[key]) + '&';
		}
		if (uri.slice(-1) == "&")
			uri = uri.substring(0, uri.length - 1);
		if (uri == '?')
			uri = window.location.href.split('?')[0];
		return uri;
	}
	function find_child(node, selector) {
		var children = node.querySelectorAll(selector);
		if (children.length) return children[0];
	}
	function find_group(node) {
		var parent = node.parentElement;
		if (!parent) return;
		if (parent.id == "frames") return node;
		return find_group(parent);
	}
	function orig_save(e, attr, val) {
		if (e.attributes["_orig_" + attr] != undefined) return;
		if (e.attributes[attr] == undefined) return;
		if (val == undefined) val = e.attributes[attr].value;
		e.setAttribute("_orig_" + attr, val);
	}
	function orig_load(e, attr) {
		if (e.attributes["_orig_"+attr] == undefined) return;
		e.attributes[attr].value = e.attributes["_orig_" + attr].value;
		e.removeAttribute("_orig_"+attr);
	}
	function g_to_text(e) {
		var text = find_child(e, "title").firstChild.nodeValue;
		return (text)
	}
	function g_to_func(e) {
		var func = g_to_text(e);
		// if there's any manipulation we want to do to the function
		// name before it's searched, do it here before returning.
		return (func);
	}
	function update_text(e) {
		var r = find_child(e, "rect");
		var t = find_child(e, "text");
		var w = parseFloat(r.attributes.width.value) -3;
		var txt = find_child(e, "title").textContent.replace(/\([^(]*\)$/,"");
		t.attributes.x.value = parseFloat(r.attributes.x.value) + 3;

		// Smaller than this size won't fit anything
		if (w < 2 * 12 * 0.59) {
			t.textContent = "";
			return;
		}

		t.textContent = txt;
		var sl = t.getSubStringLength(0, txt.length);
		// check if only whitespace or if we can fit the entire string into width w
		if (/^ *$/.test(txt) || sl < w)
			return;

		// this isn't perfect, but gives a good starting point
		// and avoids calling getSubStringLength too often
		var start = Math.floor((w/sl) * txt.length);
		for (var x = start; x > 0; x = x-2) {
			if (t.getSubStringLength(0, x + 2) <= w) {
				t.textContent = txt.substring(0, x) + "..";
				return;
			}
		}
		t.textContent = "";
	}

	// zoom
	function zoom_reset(e) {
		if (e.attributes != undefined) {
			orig_load(e, "x");
			orig_load(e, "width");
		}
		if (e.childNodes == undefined) return;
		for (var i = 0, c = e.childNodes; i < c.length; i++) {
			zoom_reset(c[i]);
		}
	}
	function zoom_child(e, x, ratio) {
		if (e.attributes != undefined) {
			if (e.attributes.x != undefined) {
				orig_save(e, "x");
				e.attributes.x.value = (parseFloat(e.attributes.x.value) - x - 10) * ratio + 10;
				if (e.tagName == "text")
					e.attributes.x.value = find_child(e.parentNode, "rect[x]").attributes.x.value + 3;
			}
			if (e.attributes.width != undefined) {
				orig_save(e, "width");
				e.attributes.width.value = parseFloat(e.attributes.width.value) * ratio;
			}
		}

		if (e.childNodes == undefined) return;
		for (var i = 0, c = e.childNodes; i < c.length; i++) {
			zoom_child(c[i], x - 10, ratio);
		}
	}
	function zoom_parent(e) {
		if (e.attributes) {
			if (e.attributes.x != undefined) {
				orig_save(e, "x");
				e.attributes.x.value = 10;
			}
			if (e.attributes.width != undefined) {
				orig_save(e, "width");
				e.attributes.width.value = parseInt(svg.width.baseVal.value) - (10 * 2);
			}
		}
		if (e.childNodes == undefined) return;
		for (var i = 0, c = e.childNodes; i < c.length; i++) {
			zoom_parent(c[i]);
		}
	}
	function zoom(node) {
		var attr = find_child(node, "rect").attributes;
		var width = parseFloat(attr.width.value);
		var xmin = parseFloat(attr.x.value);
		var xmax = parseFloat(xmin + width);
		var ymin = parseFloat(attr.y.value);
		var ratio = (svg.width.baseVal.value - 2 * 10) / width;

		// XXX: Workaround for JavaScript float issues (fix me)
		var fudge = 0.0001;

		unzoombtn.classList.remove("hide");

		var el = document.getElementById("frames").children;
		for (var i = 0; i < el.length; i++) {
			var e = el[i];
			var a = find_child(e, "rect").attributes;
			var ex = parseFloat(a.x.value);
			var ew = parseFloat(a.width.value);
			var upstack;
			// Is it an ancestor
			if (0 == 0) {
				upstack = parseFloat(a.y.value) > ymin;
			} else {
				upstack = parseFloat(a.y.value) < ymin;
			}
			if (upstack) {
				// Direct ancestor
				if (ex <= xmin && (ex+ew+fudge) >= xmax) {
					e.classList.add("parent");
					zoom_parent(e);
					update_text(e);
				}
				// not in current path
				else
					e.classList.add("hide");
			}
			// Children maybe
			else {
				// no common path
				if (ex < xmin || ex + fudge >= xmax) {
					e.classList.add("hide");
				}
				else {
					zoom_child(e, xmin, ratio);
					update_text(e);
				}
			}
		}
		search();
	}
	function unzoom(dont_update_text) {
		unzoombtn.classList.add("hide");
		var el = document.getElementById("frames").children;
		for(var i = 0; i < el.length; i++) {
			el[i].classList.remove("parent");
			el[i].classList.remove("hide");
			zoom_reset(el[i]);
			if(!dont_update_text) update_text(el[i]);
		}
		search();
	}
	function clearzoom() {
		unzoom();

		// remove zoom state
		var params = get_params();
		if (params.x) delete params.x;
		if (params.y) delete params.y;
		history.replaceState(null, null, parse_params(params));
	}

	// search
	function toggle_ignorecase() {
		ignorecase = !ignorecase;
		if (ignorecase) {
			ignorecaseBtn.classList.add("show");
		} else {
			ignorecaseBtn.classList.remove("show");
		}
		reset_search();
		search();
	}
	function reset_search() {
		var el = document.querySelectorAll("#frames rect");
		for (var i = 0; i < el.length; i++) {
			orig_load(el[i], "fill")
		}
		var params = get_params();
		delete params.s;
		history.replaceState(null, null, parse_params(params));
	}
	function search_prompt() {
		if (!searching) {
			var term = prompt("Enter a search term (regexp " +
			    "allowed, eg: ^ext4_)"
			    + (ignorecase ? ", ignoring case" : "")
			    + "\nPress Ctrl-i to toggle case sensitivity", "");
			if (term != null) search(term);
		} else {
			reset_search();
			searching = 0;
			currentSearchTerm = null;
			searchbtn.classList.remove("show");
			searchbtn.firstChild.nodeValue = "Search"
			matchedtxt.classList.add("hide");
			matchedtxt.firstChild.nodeValue = ""
		}
	}
	function search(term) {
		if (term) currentSearchTerm = term;

		var re = new RegExp(currentSearchTerm, ignorecase ? 'i' : '');
		var el = document.getElementById("frames").children;
		var matches = new Object();
		var maxwidth = 0;
		for (var i = 0; i < el.length; i++) {
			var e = el[i];
			var func = g_to_func(e);
			var rect = find_child(e, "rect");
			if (func == null || rect == null)
				continue;

			// Save max width. Only works as we have a root frame
			var w = parseFloat(rect.attributes.width.value);
			if (w > maxwidth)
				maxwidth = w;

			if (func.match(re)) {
				// highlight
				var x = parseFloat(rect.attributes.x.value);
				orig_save(rect, "fill");
				rect.attributes.fill.value = "rgb(230,0,230)";

				// remember matches
				if (matches[x] == undefined) {
					matches[x] = w;
				} else {
					if (w > matches[x]) {
						// overwrite with parent
						matches[x] = w;
					}
				}
				searching = 1;
			}
		}
		if (!searching)
			return;
		var params = get_params();
		params.s = currentSearchTerm;
		history.replaceState(null, null, parse_params(params));

		searchbtn.classList.add("show");
		searchbtn.firstChild.nodeValue = "Reset Search";

		// calculate percent matched, excluding vertical overlap
		var count = 0;
		var lastx = -1;
		var lastw = 0;
		var keys = Array();
		for (k in matches) {
			if (matches.hasOwnProperty(k))
				keys.push(k);
		}
		// sort the matched frames by their x location
		// ascending, then width descending
		keys.sort(function(a, b){
			return a - b;
		});
		// Step through frames saving only the biggest bottom-up frames
		// thanks to the sort order. This relies on the tree property
		// where children are always smaller than their parents.
		var fudge = 0.0001;	// JavaScript floating point
		for (var k in keys) {
			var x = parseFloat(keys[k]);
			var w = matches[keys[k]];
			if (x >= lastx + lastw - fudge) {
				count += w;
				lastx = x;
				lastw = w;
			}
		}
		// display matched percent
		matchedtxt.classList.remove("hide");
		var pct = 100 * count / maxwidth;
		if (pct != 100) pct = pct.toFixed(1)
		matchedtxt.firstChild.nodeValue = "Matched: " + pct + "%";
	}
]]>
</script>
<rect x="0.0" y="0" width="1200.0" height="310.0" fill="url(#background)"  />
<text id="title" x="600.00" y="24" >Flame Graph</text>
<text id="details" x="10.00" y="293" > </text>
<text id="unzoom" x="10.00" y="24" class="hide">Reset Zoom</text>
<text id="search" x="1090.00" y="24" >Search</text>
<text id="ignorecase" x="1174.00" y="24" >ic</text>
<text id="matched" x="1090.00" y="293" > </text>
<g id="frames">
<g >
<title>filemap_map_pages (382,576 samples, 0.05%)</title><rect x="1186.7" y="117" width="0.6" height="15.0" fill="rgb(229,112,27)" rx="2" ry="2" />
<text  x="1189.74" y="127.5" ></text>
</g>
<g >
<title>do_syscall_64 (814,757 samples, 0.10%)</title><rect x="1188.7" y="213" width="1.2" height="15.0" fill="rgb(209,20,4)" rx="2" ry="2" />
<text  x="1191.71" y="223.5" ></text>
</g>
<g >
<title>VP8ParseIntraModeRow (1,824,245 samples, 0.23%)</title><rect x="560.1" y="229" width="2.7" height="15.0" fill="rgb(231,121,29)" rx="2" ry="2" />
<text  x="563.06" y="239.5" ></text>
</g>
<g >
<title>next_uptodate_page (382,576 samples, 0.05%)</title><rect x="1186.7" y="101" width="0.6" height="15.0" fill="rgb(210,25,6)" rx="2" ry="2" />
<text  x="1189.74" y="111.5" ></text>
</g>
<g >
<title>do_user_addr_fault (423,372 samples, 0.05%)</title><rect x="496.5" y="181" width="0.6" height="15.0" fill="rgb(228,108,25)" rx="2" ry="2" />
<text  x="499.48" y="191.5" ></text>
</g>
<g >
<title>[unknown] (199,295,519 samples, 25.47%)</title><rect x="882.5" y="213" width="300.5" height="15.0" fill="rgb(210,24,5)" rx="2" ry="2" />
<text  x="885.48" y="223.5" >[unknown]</text>
</g>
<g >
<title>HU4_C (923,779 samples, 0.12%)</title><rect x="234.3" y="229" width="1.4" height="15.0" fill="rgb(216,54,13)" rx="2" ry="2" />
<text  x="237.26" y="239.5" ></text>
</g>
<g >
<title>vma_alloc_folio (423,372 samples, 0.05%)</title><rect x="496.5" y="133" width="0.6" height="15.0" fill="rgb(245,187,44)" rx="2" ry="2" />
<text  x="499.48" y="143.5" ></text>
</g>
<g >
<title>do_fault (382,576 samples, 0.05%)</title><rect x="1186.7" y="133" width="0.6" height="15.0" fill="rgb(248,200,47)" rx="2" ry="2" />
<text  x="1189.74" y="143.5" ></text>
</g>
<g >
<title>GetLargeValue (43,179,645 samples, 5.52%)</title><rect x="579.2" y="213" width="65.1" height="15.0" fill="rgb(243,175,42)" rx="2" ry="2" />
<text  x="582.19" y="223.5" >GetLarg..</text>
</g>
<g >
<title>do_syscall_64 (168,344 samples, 0.02%)</title><rect x="1186.5" y="197" width="0.2" height="15.0" fill="rgb(209,20,4)" rx="2" ry="2" />
<text  x="1189.48" y="207.5" ></text>
</g>
<g >
<title>__libc_start_main_impl (382,576 samples, 0.05%)</title><rect x="1186.7" y="229" width="0.6" height="15.0" fill="rgb(218,63,15)" rx="2" ry="2" />
<text  x="1189.74" y="239.5" ></text>
</g>
<g >
<title>DC16_C (923,170 samples, 0.12%)</title><rect x="565.4" y="213" width="1.3" height="15.0" fill="rgb(229,113,27)" rx="2" ry="2" />
<text  x="568.36" y="223.5" ></text>
</g>
<g >
<title>handle_mm_fault (382,576 samples, 0.05%)</title><rect x="1186.7" y="165" width="0.6" height="15.0" fill="rgb(234,135,32)" rx="2" ry="2" />
<text  x="1189.74" y="175.5" ></text>
</g>
<g >
<title>ExtractGreen_C (16,515,523 samples, 2.11%)</title><rect x="42.6" y="229" width="24.9" height="15.0" fill="rgb(234,134,32)" rx="2" ry="2" />
<text  x="45.58" y="239.5" >E..</text>
</g>
<g >
<title>VP8LDoFillBitWindow (923,237 samples, 0.12%)</title><rect x="1175.9" y="197" width="1.4" height="15.0" fill="rgb(219,67,16)" rx="2" ry="2" />
<text  x="1178.87" y="207.5" ></text>
</g>
<g >
<title>vma_alloc_folio (602,740 samples, 0.08%)</title><rect x="1182.1" y="101" width="0.9" height="15.0" fill="rgb(245,187,44)" rx="2" ry="2" />
<text  x="1185.12" y="111.5" ></text>
</g>
<g >
<title>entry_SYSCALL_64_after_hwframe (440,752 samples, 0.06%)</title><rect x="1183.0" y="197" width="0.7" height="15.0" fill="rgb(218,63,15)" rx="2" ry="2" />
<text  x="1186.03" y="207.5" ></text>
</g>
<g >
<title>TransformAC3_C (4,449,930 samples, 0.57%)</title><rect x="258.2" y="229" width="6.8" height="15.0" fill="rgb(209,19,4)" rx="2" ry="2" />
<text  x="261.25" y="239.5" ></text>
</g>
<g >
<title>GetCoeffsFast (176,374,104 samples, 22.54%)</title><rect x="904.3" y="197" width="266.0" height="15.0" fill="rgb(219,64,15)" rx="2" ry="2" />
<text  x="907.31" y="207.5" >GetCoeffsFast</text>
</g>
<g >
<title>TransformDC_C (2,700,493 samples, 0.35%)</title><rect x="691.9" y="213" width="4.0" height="15.0" fill="rgb(219,65,15)" rx="2" ry="2" />
<text  x="694.87" y="223.5" ></text>
</g>
<g >
<title>setup_arg_pages (168,344 samples, 0.02%)</title><rect x="1186.5" y="117" width="0.2" height="15.0" fill="rgb(222,82,19)" rx="2" ry="2" />
<text  x="1189.48" y="127.5" ></text>
</g>
<g >
<title>VP8DecodeMB (7,385,382 samples, 0.94%)</title><rect x="546.1" y="229" width="11.2" height="15.0" fill="rgb(208,18,4)" rx="2" ry="2" />
<text  x="549.13" y="239.5" ></text>
</g>
<g >
<title>VP8DecompressAlphaRows (924,086 samples, 0.12%)</title><rect x="557.3" y="229" width="1.4" height="15.0" fill="rgb(230,119,28)" rx="2" ry="2" />
<text  x="560.27" y="239.5" ></text>
</g>
<g >
<title>__x64_sys_exit_group (814,757 samples, 0.10%)</title><rect x="1188.7" y="197" width="1.2" height="15.0" fill="rgb(214,42,10)" rx="2" ry="2" />
<text  x="1191.71" y="207.5" ></text>
</g>
<g >
<title>__folio_alloc (423,372 samples, 0.05%)</title><rect x="496.5" y="117" width="0.6" height="15.0" fill="rgb(224,91,21)" rx="2" ry="2" />
<text  x="499.48" y="127.5" ></text>
</g>
<g >
<title>__folio_alloc (602,740 samples, 0.08%)</title><rect x="1182.1" y="85" width="0.9" height="15.0" fill="rgb(224,91,21)" rx="2" ry="2" />
<text  x="1185.12" y="95.5" ></text>
</g>
<g >
<title>all (782,453,764 samples, 100%)</title><rect x="10.0" y="261" width="1180.0" height="15.0" fill="rgb(213,39,9)" rx="2" ry="2" />
<text  x="13.00" y="271.5" ></text>
</g>
<g >
<title>exc_page_fault (382,576 samples, 0.05%)</title><rect x="1186.7" y="197" width="0.6" height="15.0" fill="rgb(212,35,8)" rx="2" ry="2" />
<text  x="1189.74" y="207.5" ></text>
</g>
<g >
<title>exc_page_fault (602,740 samples, 0.08%)</title><rect x="1182.1" y="165" width="0.9" height="15.0" fill="rgb(212,35,8)" rx="2" ry="2" />
<text  x="1185.12" y="175.5" ></text>
</g>
<g >
<title>entry_SYSCALL_64_after_hwframe (814,757 samples, 0.10%)</title><rect x="1188.7" y="229" width="1.2" height="15.0" fill="rgb(218,63,15)" rx="2" ry="2" />
<text  x="1191.71" y="239.5" ></text>
</g>
<g >
<title>__memmove_avx_unaligned_erms (2,900,687 samples, 0.37%)</title><rect x="1178.7" y="197" width="4.3" height="15.0" fill="rgb(205,0,0)" rx="2" ry="2" />
<text  x="1181.66" y="207.5" ></text>
</g>
<g >
<title>HFilter8i_C (6,363,155 samples, 0.81%)</title><rect x="662.1" y="213" width="9.6" height="15.0" fill="rgb(245,186,44)" rx="2" ry="2" />
<text  x="665.06" y="223.5" ></text>
</g>
<g >
<title>copy_page_to_iter (440,752 samples, 0.06%)</title><rect x="1183.0" y="117" width="0.7" height="15.0" fill="rgb(209,22,5)" rx="2" ry="2" />
<text  x="1186.03" y="127.5" ></text>
</g>
<g >
<title>HFilter16_C (11,770,425 samples, 1.50%)</title><rect x="644.3" y="213" width="17.8" height="15.0" fill="rgb(220,69,16)" rx="2" ry="2" />
<text  x="647.31" y="223.5" ></text>
</g>
<g >
<title>asm_exc_page_fault (382,576 samples, 0.05%)</title><rect x="1186.7" y="213" width="0.6" height="15.0" fill="rgb(225,93,22)" rx="2" ry="2" />
<text  x="1189.74" y="223.5" ></text>
</g>
<g >
<title>decode_webp_nat (782,410,709 samples, 99.99%)</title><rect x="10.0" y="245" width="1179.9" height="15.0" fill="rgb(218,61,14)" rx="2" ry="2" />
<text  x="13.00" y="255.5" >decode_webp_nat</text>
</g>
<g >
<title>handle_mm_fault (602,740 samples, 0.08%)</title><rect x="1182.1" y="133" width="0.9" height="15.0" fill="rgb(234,135,32)" rx="2" ry="2" />
<text  x="1185.12" y="143.5" ></text>
</g>
<g >
<title>ksys_read (440,752 samples, 0.06%)</title><rect x="1183.0" y="165" width="0.7" height="15.0" fill="rgb(229,113,27)" rx="2" ry="2" />
<text  x="1186.03" y="175.5" ></text>
</g>
<g >
<title>VFilter16_C (923,881 samples, 0.12%)</title><rect x="779.1" y="213" width="1.4" height="15.0" fill="rgb(229,113,27)" rx="2" ry="2" />
<text  x="782.13" y="223.5" ></text>
</g>
<g >
<title>filemap_read (440,752 samples, 0.06%)</title><rect x="1183.0" y="133" width="0.7" height="15.0" fill="rgb(246,192,46)" rx="2" ry="2" />
<text  x="1186.03" y="143.5" ></text>
</g>
<g >
<title>TransformOne_C (55,159,921 samples, 7.05%)</title><rect x="695.9" y="213" width="83.2" height="15.0" fill="rgb(218,59,14)" rx="2" ry="2" />
<text  x="698.94" y="223.5" >Transform..</text>
</g>
<g >
<title>do_execveat_common.isra.0 (168,344 samples, 0.02%)</title><rect x="1186.5" y="165" width="0.2" height="15.0" fill="rgb(231,123,29)" rx="2" ry="2" />
<text  x="1189.48" y="175.5" ></text>
</g>
<g >
<title>GetCoeffsFast (6,578,325 samples, 0.84%)</title><rect x="174.3" y="229" width="9.9" height="15.0" fill="rgb(219,64,15)" rx="2" ry="2" />
<text  x="177.29" y="239.5" ></text>
</g>
<g >
<title>VP8ParseProba (1,690,548 samples, 0.22%)</title><rect x="562.8" y="229" width="2.6" height="15.0" fill="rgb(224,88,21)" rx="2" ry="2" />
<text  x="565.81" y="239.5" ></text>
</g>
<g >
<title>__x64_sys_execve (168,344 samples, 0.02%)</title><rect x="1186.5" y="181" width="0.2" height="15.0" fill="rgb(247,193,46)" rx="2" ry="2" />
<text  x="1189.48" y="191.5" ></text>
</g>
<g >
<title>FilterLoop26_C (53,944,718 samples, 6.89%)</title><rect x="92.9" y="229" width="81.4" height="15.0" fill="rgb(230,116,27)" rx="2" ry="2" />
<text  x="95.94" y="239.5" >FilterLoo..</text>
</g>
<g >
<title>get_page_from_freelist (602,740 samples, 0.08%)</title><rect x="1182.1" y="53" width="0.9" height="15.0" fill="rgb(252,218,52)" rx="2" ry="2" />
<text  x="1185.12" y="63.5" ></text>
</g>
<g >
<title>_copy_to_iter (440,752 samples, 0.06%)</title><rect x="1183.0" y="101" width="0.7" height="15.0" fill="rgb(227,105,25)" rx="2" ry="2" />
<text  x="1186.03" y="111.5" ></text>
</g>
<g >
<title>do_user_addr_fault (602,740 samples, 0.08%)</title><rect x="1182.1" y="149" width="0.9" height="15.0" fill="rgb(228,108,25)" rx="2" ry="2" />
<text  x="1185.12" y="159.5" ></text>
</g>
<g >
<title>FilterLoop24_C (16,880,816 samples, 2.16%)</title><rect x="67.5" y="229" width="25.4" height="15.0" fill="rgb(243,175,42)" rx="2" ry="2" />
<text  x="70.48" y="239.5" >F..</text>
</g>
<g >
<title>VP8DecodeMB (20,715,873 samples, 2.65%)</title><rect x="780.5" y="213" width="31.3" height="15.0" fill="rgb(208,18,4)" rx="2" ry="2" />
<text  x="783.52" y="223.5" >VP..</text>
</g>
<g >
<title>__handle_mm_fault (602,740 samples, 0.08%)</title><rect x="1182.1" y="117" width="0.9" height="15.0" fill="rgb(207,9,2)" rx="2" ry="2" />
<text  x="1185.12" y="127.5" ></text>
</g>
<g >
<title>copy_user_generic_string (440,752 samples, 0.06%)</title><rect x="1183.0" y="85" width="0.7" height="15.0" fill="rgb(205,0,0)" rx="2" ry="2" />
<text  x="1186.03" y="95.5" ></text>
</g>
<g >
<title>__memmove_avx_unaligned_erms (923,623 samples, 0.12%)</title><rect x="1187.3" y="229" width="1.4" height="15.0" fill="rgb(205,0,0)" rx="2" ry="2" />
<text  x="1190.31" y="239.5" ></text>
</g>
<g >
<title>asm_exc_page_fault (440,752 samples, 0.06%)</title><rect x="1183.0" y="69" width="0.7" height="15.0" fill="rgb(225,93,22)" rx="2" ry="2" />
<text  x="1186.03" y="79.5" ></text>
</g>
<g >
<title>UpsampleArgbLinePair_C (151,250,429 samples, 19.33%)</title><rect x="269.0" y="229" width="228.1" height="15.0" fill="rgb(252,216,51)" rx="2" ry="2" />
<text  x="272.02" y="239.5" >UpsampleArgbLinePair_C</text>
</g>
<g >
<title>GetCoeffsFast (2,763,259 samples, 0.35%)</title><rect x="575.0" y="213" width="4.2" height="15.0" fill="rgb(219,64,15)" rx="2" ry="2" />
<text  x="578.02" y="223.5" ></text>
</g>
<g >
<title>get_page_from_freelist (423,372 samples, 0.05%)</title><rect x="496.5" y="85" width="0.6" height="15.0" fill="rgb(252,218,52)" rx="2" ry="2" />
<text  x="499.48" y="95.5" ></text>
</g>
<g >
<title>__libc_read (440,752 samples, 0.06%)</title><rect x="1183.0" y="213" width="0.7" height="15.0" fill="rgb(212,34,8)" rx="2" ry="2" />
<text  x="1186.03" y="223.5" ></text>
</g>
<g >
<title>mprotect_fixup (168,344 samples, 0.02%)</title><rect x="1186.5" y="101" width="0.2" height="15.0" fill="rgb(236,144,34)" rx="2" ry="2" />
<text  x="1189.48" y="111.5" ></text>
</g>
<g >
<title>TM16_C (6,315,610 samples, 0.81%)</title><rect x="680.9" y="213" width="9.6" height="15.0" fill="rgb(211,30,7)" rx="2" ry="2" />
<text  x="683.95" y="223.5" ></text>
</g>
<g >
<title>handle_mm_fault (423,372 samples, 0.05%)</title><rect x="496.5" y="165" width="0.6" height="15.0" fill="rgb(234,135,32)" rx="2" ry="2" />
<text  x="499.48" y="175.5" ></text>
</g>
<g >
<title>[unknown] (412,035,414 samples, 52.66%)</title><rect x="565.4" y="229" width="621.3" height="15.0" fill="rgb(210,24,5)" rx="2" ry="2" />
<text  x="568.36" y="239.5" >[unknown]</text>
</g>
<g >
<title>TransformDC_C (2,693,255 samples, 0.34%)</title><rect x="265.0" y="229" width="4.0" height="15.0" fill="rgb(219,65,15)" rx="2" ry="2" />
<text  x="267.96" y="239.5" ></text>
</g>
<g >
<title>ReconstructRow (10,969,148 samples, 1.40%)</title><rect x="235.7" y="229" width="16.5" height="15.0" fill="rgb(225,93,22)" rx="2" ry="2" />
<text  x="238.66" y="239.5" ></text>
</g>
<g >
<title>clear_page_rep (423,372 samples, 0.05%)</title><rect x="496.5" y="69" width="0.6" height="15.0" fill="rgb(253,221,52)" rx="2" ry="2" />
<text  x="499.48" y="79.5" ></text>
</g>
<g >
<title>__alloc_pages (423,372 samples, 0.05%)</title><rect x="496.5" y="101" width="0.6" height="15.0" fill="rgb(233,129,30)" rx="2" ry="2" />
<text  x="499.48" y="111.5" ></text>
</g>
<g >
<title>VP8GetValue (923,129 samples, 0.12%)</title><rect x="558.7" y="229" width="1.4" height="15.0" fill="rgb(230,119,28)" rx="2" ry="2" />
<text  x="561.66" y="239.5" ></text>
</g>
<g >
<title>TM4_C (4,011,626 samples, 0.51%)</title><rect x="252.2" y="229" width="6.0" height="15.0" fill="rgb(241,165,39)" rx="2" ry="2" />
<text  x="255.20" y="239.5" ></text>
</g>
<g >
<title>entry_SYSCALL_64_after_hwframe (168,344 samples, 0.02%)</title><rect x="1186.5" y="213" width="0.2" height="15.0" fill="rgb(218,63,15)" rx="2" ry="2" />
<text  x="1189.48" y="223.5" ></text>
</g>
<g >
<title>DC4_C (3,693,212 samples, 0.47%)</title><rect x="14.2" y="229" width="5.5" height="15.0" fill="rgb(209,18,4)" rx="2" ry="2" />
<text  x="17.18" y="239.5" ></text>
</g>
<g >
<title>TM8uv_C (924,186 samples, 0.12%)</title><rect x="690.5" y="213" width="1.4" height="15.0" fill="rgb(247,193,46)" rx="2" ry="2" />
<text  x="693.47" y="223.5" ></text>
</g>
<g >
<title>VP8ParseIntraModeRow (46,892,314 samples, 5.99%)</title><rect x="811.8" y="213" width="70.7" height="15.0" fill="rgb(231,121,29)" rx="2" ry="2" />
<text  x="814.76" y="223.5" >VP8Pars..</text>
</g>
<g >
<title>bprm_execve (168,344 samples, 0.02%)</title><rect x="1186.5" y="149" width="0.2" height="15.0" fill="rgb(218,61,14)" rx="2" ry="2" />
<text  x="1189.48" y="159.5" ></text>
</g>
<g >
<title>exit_mmap (814,757 samples, 0.10%)</title><rect x="1188.7" y="133" width="1.2" height="15.0" fill="rgb(236,143,34)" rx="2" ry="2" />
<text  x="1191.71" y="143.5" ></text>
</g>
<g >
<title>do_exit (814,757 samples, 0.10%)</title><rect x="1188.7" y="165" width="1.2" height="15.0" fill="rgb(231,122,29)" rx="2" ry="2" />
<text  x="1191.71" y="175.5" ></text>
</g>
<g >
<title>perf_event_mmap (168,344 samples, 0.02%)</title><rect x="1186.5" y="85" width="0.2" height="15.0" fill="rgb(229,112,26)" rx="2" ry="2" />
<text  x="1189.48" y="95.5" ></text>
</g>
<g >
<title>DC8uv_C (1,791,237 samples, 0.23%)</title><rect x="566.7" y="213" width="2.7" height="15.0" fill="rgb(215,46,11)" rx="2" ry="2" />
<text  x="569.75" y="223.5" ></text>
</g>
<g >
<title>release_pages (814,757 samples, 0.10%)</title><rect x="1188.7" y="85" width="1.2" height="15.0" fill="rgb(228,106,25)" rx="2" ry="2" />
<text  x="1191.71" y="95.5" ></text>
</g>
<g >
<title>asm_exc_page_fault (602,740 samples, 0.08%)</title><rect x="1182.1" y="181" width="0.9" height="15.0" fill="rgb(225,93,22)" rx="2" ry="2" />
<text  x="1185.12" y="191.5" ></text>
</g>
<g >
<title>VFilter16i_C (31,576,655 samples, 4.04%)</title><rect x="497.1" y="229" width="47.6" height="15.0" fill="rgb(251,213,51)" rx="2" ry="2" />
<text  x="500.12" y="239.5" >VFil..</text>
</g>
<g >
<title>__alloc_pages (602,740 samples, 0.08%)</title><rect x="1182.1" y="69" width="0.9" height="15.0" fill="rgb(233,129,30)" rx="2" ry="2" />
<text  x="1185.12" y="79.5" ></text>
</g>
<g >
<title>asm_exc_page_fault (423,372 samples, 0.05%)</title><rect x="496.5" y="213" width="0.6" height="15.0" fill="rgb(225,93,22)" rx="2" ry="2" />
<text  x="499.48" y="223.5" ></text>
</g>
<g >
<title>__handle_mm_fault (382,576 samples, 0.05%)</title><rect x="1186.7" y="149" width="0.6" height="15.0" fill="rgb(207,9,2)" rx="2" ry="2" />
<text  x="1189.74" y="159.5" ></text>
</g>
<g >
<title>tlb_batch_pages_flush (814,757 samples, 0.10%)</title><rect x="1188.7" y="101" width="1.2" height="15.0" fill="rgb(234,133,32)" rx="2" ry="2" />
<text  x="1191.71" y="111.5" ></text>
</g>
<g >
<title>ReconstructRow (6,163,326 samples, 0.79%)</title><rect x="671.7" y="213" width="9.2" height="15.0" fill="rgb(225,93,22)" rx="2" ry="2" />
<text  x="674.65" y="223.5" ></text>
</g>
<g >
<title>__mmput (814,757 samples, 0.10%)</title><rect x="1188.7" y="149" width="1.2" height="15.0" fill="rgb(249,203,48)" rx="2" ry="2" />
<text  x="1191.71" y="159.5" ></text>
</g>
<g >
<title>__handle_mm_fault (423,372 samples, 0.05%)</title><rect x="496.5" y="149" width="0.6" height="15.0" fill="rgb(207,9,2)" rx="2" ry="2" />
<text  x="499.48" y="159.5" ></text>
</g>
<g >
<title>FinishRow (2,771,498 samples, 0.35%)</title><rect x="570.8" y="213" width="4.2" height="15.0" fill="rgb(213,41,9)" rx="2" ry="2" />
<text  x="573.84" y="223.5" ></text>
</g>
<g >
<title>do_user_addr_fault (382,576 samples, 0.05%)</title><rect x="1186.7" y="181" width="0.6" height="15.0" fill="rgb(228,108,25)" rx="2" ry="2" />
<text  x="1189.74" y="191.5" ></text>
</g>
<g >
<title>VP8LReadBits (923,851 samples, 0.12%)</title><rect x="1177.3" y="197" width="1.4" height="15.0" fill="rgb(236,146,35)" rx="2" ry="2" />
<text  x="1180.26" y="207.5" ></text>
</g>
<g >
<title>exc_page_fault (423,372 samples, 0.05%)</title><rect x="496.5" y="197" width="0.6" height="15.0" fill="rgb(212,35,8)" rx="2" ry="2" />
<text  x="499.48" y="207.5" ></text>
</g>
<g >
<title>free_unref_page_list (814,757 samples, 0.10%)</title><rect x="1188.7" y="69" width="1.2" height="15.0" fill="rgb(221,77,18)" rx="2" ry="2" />
<text  x="1191.71" y="79.5" ></text>
</g>
<g >
<title>vfs_read (440,752 samples, 0.06%)</title><rect x="1183.0" y="149" width="0.7" height="15.0" fill="rgb(224,88,21)" rx="2" ry="2" />
<text  x="1186.03" y="159.5" ></text>
</g>
<g >
<title>VL4_C (924,118 samples, 0.12%)</title><rect x="544.7" y="229" width="1.4" height="15.0" fill="rgb(234,136,32)" rx="2" ry="2" />
<text  x="547.74" y="239.5" ></text>
</g>
<g >
<title>HFilter16i_C (33,186,708 samples, 4.24%)</title><rect x="184.2" y="229" width="50.1" height="15.0" fill="rgb(241,169,40)" rx="2" ry="2" />
<text  x="187.21" y="239.5" >HFilt..</text>
</g>
<g >
<title>__memmove_avx_unaligned_erms (1,848,536 samples, 0.24%)</title><rect x="1183.7" y="213" width="2.8" height="15.0" fill="rgb(205,0,0)" rx="2" ry="2" />
<text  x="1186.69" y="223.5" ></text>
</g>
<g >
<title>ShiftBytes (3,693,703 samples, 0.47%)</title><rect x="1170.3" y="197" width="5.6" height="15.0" fill="rgb(216,52,12)" rx="2" ry="2" />
<text  x="1173.30" y="207.5" ></text>
</g>
<g >
<title>do_syscall_64 (440,752 samples, 0.06%)</title><rect x="1183.0" y="181" width="0.7" height="15.0" fill="rgb(209,20,4)" rx="2" ry="2" />
<text  x="1186.03" y="191.5" ></text>
</g>
<g >
<title>tlb_finish_mmu (814,757 samples, 0.10%)</title><rect x="1188.7" y="117" width="1.2" height="15.0" fill="rgb(251,212,50)" rx="2" ry="2" />
<text  x="1191.71" y="127.5" ></text>
</g>
<g >
<title>load_elf_binary (168,344 samples, 0.02%)</title><rect x="1186.5" y="133" width="0.2" height="15.0" fill="rgb(223,83,20)" rx="2" ry="2" />
<text  x="1189.48" y="143.5" ></text>
</g>
<g >
<title>do_group_exit (814,757 samples, 0.10%)</title><rect x="1188.7" y="181" width="1.2" height="15.0" fill="rgb(219,67,16)" rx="2" ry="2" />
<text  x="1191.71" y="191.5" ></text>
</g>
<g >
<title>DecodeImageData (14,479,937 samples, 1.85%)</title><rect x="882.5" y="197" width="21.8" height="15.0" fill="rgb(254,229,54)" rx="2" ry="2" />
<text  x="885.48" y="207.5" >D..</text>
</g>
<g >
<title>BuildHuffmanTable (2,771,327 samples, 0.35%)</title><rect x="10.0" y="229" width="4.2" height="15.0" fill="rgb(226,101,24)" rx="2" ry="2" />
<text  x="13.00" y="239.5" ></text>
</g>
<g >
<title>FilterLoop26_C (924,270 samples, 0.12%)</title><rect x="569.4" y="213" width="1.4" height="15.0" fill="rgb(230,116,27)" rx="2" ry="2" />
<text  x="572.45" y="223.5" ></text>
</g>
<g >
<title>DispatchAlpha_C (15,137,380 samples, 1.93%)</title><rect x="19.7" y="229" width="22.9" height="15.0" fill="rgb(206,5,1)" rx="2" ry="2" />
<text  x="22.75" y="239.5" >D..</text>
</g>
<g >
<title>__list_del_entry_valid (602,740 samples, 0.08%)</title><rect x="1182.1" y="37" width="0.9" height="15.0" fill="rgb(239,158,37)" rx="2" ry="2" />
<text  x="1185.12" y="47.5" ></text>
</g>
</g>
</svg>
