<?xml version="1.0" standalone="no"?>
<!DOCTYPE svg PUBLIC "-//W3C//DTD SVG 1.1//EN" "http://www.w3.org/Graphics/SVG/1.1/DTD/svg11.dtd">
<svg version="1.1" width="1200" height="438" onload="init(evt)" viewBox="0 0 1200 438" xmlns="http://www.w3.org/2000/svg" xmlns:xlink="http://www.w3.org/1999/xlink">
<!-- Flame graph stack visualization. See https://github.com/brendangregg/FlameGraph for latest version, and http://www.brendangregg.com/flamegraphs.html for examples. -->
<!-- NOTES:  -->
<defs>
	<linearGradient id="background" y1="0" y2="1" x1="0" x2="0" >
		<stop stop-color="#eeeeee" offset="5%" />
		<stop stop-color="#eeeeb0" offset="95%" />
	</linearGradient>
</defs>
<style type="text/css">
	text { font-family:Verdana; font-size:12px; fill:rgb(0,0,0); }
	#search, #ignorecase { opacity:0.1; cursor:pointer; }
	#search:hover, #search.show, #ignorecase:hover, #ignorecase.show { opacity:1; }
	#subtitle { text-anchor:middle; font-color:rgb(160,160,160); }
	#title { text-anchor:middle; font-size:17px}
	#unzoom { cursor:pointer; }
	#frames > *:hover { stroke:black; stroke-width:0.5; cursor:pointer; }
	.hide { display:none; }
	.parent { opacity:0.5; }
</style>
<script type="text/ecmascript">
<![CDATA[
	"use strict";
	var details, searchbtn, unzoombtn, matchedtxt, svg, searching, currentSearchTerm, ignorecase, ignorecaseBtn;
	function init(evt) {
		details = document.getElementById("details").firstChild;
		searchbtn = document.getElementById("search");
		ignorecaseBtn = document.getElementById("ignorecase");
		unzoombtn = document.getElementById("unzoom");
		matchedtxt = document.getElementById("matched");
		svg = document.getElementsByTagName("svg")[0];
		searching = 0;
		currentSearchTerm = null;

		// use GET parameters to restore a flamegraphs state.
		var params = get_params();
		if (params.x && params.y)
			zoom(find_group(document.querySelector('[x="' + params.x + '"][y="' + params.y + '"]')));
                if (params.s) search(params.s);
	}

	// event listeners
	window.addEventListener("click", function(e) {
		var target = find_group(e.target);
		if (target) {
			if (target.nodeName == "a") {
				if (e.ctrlKey === false) return;
				e.preventDefault();
			}
			if (target.classList.contains("parent")) unzoom(true);
			zoom(target);
			if (!document.querySelector('.parent')) {
				// we have basically done a clearzoom so clear the url
				var params = get_params();
				if (params.x) delete params.x;
				if (params.y) delete params.y;
				history.replaceState(null, null, parse_params(params));
				unzoombtn.classList.add("hide");
				return;
			}

			// set parameters for zoom state
			var el = target.querySelector("rect");
			if (el && el.attributes && el.attributes.y && el.attributes._orig_x) {
				var params = get_params()
				params.x = el.attributes._orig_x.value;
				params.y = el.attributes.y.value;
				history.replaceState(null, null, parse_params(params));
			}
		}
		else if (e.target.id == "unzoom") clearzoom();
		else if (e.target.id == "search") search_prompt();
		else if (e.target.id == "ignorecase") toggle_ignorecase();
	}, false)

	// mouse-over for info
	// show
	window.addEventListener("mouseover", function(e) {
		var target = find_group(e.target);
		if (target) details.nodeValue = "Function: " + g_to_text(target);
	}, false)

	// clear
	window.addEventListener("mouseout", function(e) {
		var target = find_group(e.target);
		if (target) details.nodeValue = ' ';
	}, false)

	// ctrl-F for search
	// ctrl-I to toggle case-sensitive search
	window.addEventListener("keydown",function (e) {
		if (e.keyCode === 114 || (e.ctrlKey && e.keyCode === 70)) {
			e.preventDefault();
			search_prompt();
		}
		else if (e.ctrlKey && e.keyCode === 73) {
			e.preventDefault();
			toggle_ignorecase();
		}
	}, false)

	// functions
	function get_params() {
		var params = {};
		var paramsarr = window.location.search.substr(1).split('&');
		for (var i = 0; i < paramsarr.length; ++i) {
			var tmp = paramsarr[i].split("=");
			if (!tmp[0] || !tmp[1]) continue;
			params[tmp[0]]  = decodeURIComponent(tmp[1]);
		}
		return params;
	}
	function parse_params(params) {
		var uri = "?";
		for (var key in params) {
			uri += key + '=' + encodeURIComponent(params[key]) + '&';
		}
		if (uri.slice(-1) == "&")
			uri = uri.substring(0, uri.length - 1);
		if (uri == '?')
			uri = window.location.href.split('?')[0];
		return uri;
	}
	function find_child(node, selector) {
		var children = node.querySelectorAll(selector);
		if (children.length) return children[0];
	}
	function find_group(node) {
		var parent = node.parentElement;
		if (!parent) return;
		if (parent.id == "frames") return node;
		return find_group(parent);
	}
	function orig_save(e, attr, val) {
		if (e.attributes["_orig_" + attr] != undefined) return;
		if (e.attributes[attr] == undefined) return;
		if (val == undefined) val = e.attributes[attr].value;
		e.setAttribute("_orig_" + attr, val);
	}
	function orig_load(e, attr) {
		if (e.attributes["_orig_"+attr] == undefined) return;
		e.attributes[attr].value = e.attributes["_orig_" + attr].value;
		e.removeAttribute("_orig_"+attr);
	}
	function g_to_text(e) {
		var text = find_child(e, "title").firstChild.nodeValue;
		return (text)
	}
	function g_to_func(e) {
		var func = g_to_text(e);
		// if there's any manipulation we want to do to the function
		// name before it's searched, do it here before returning.
		return (func);
	}
	function update_text(e) {
		var r = find_child(e, "rect");
		var t = find_child(e, "text");
		var w = parseFloat(r.attributes.width.value) -3;
		var txt = find_child(e, "title").textContent.replace(/\([^(]*\)$/,"");
		t.attributes.x.value = parseFloat(r.attributes.x.value) + 3;

		// Smaller than this size won't fit anything
		if (w < 2 * 12 * 0.59) {
			t.textContent = "";
			return;
		}

		t.textContent = txt;
		var sl = t.getSubStringLength(0, txt.length);
		// check if only whitespace or if we can fit the entire string into width w
		if (/^ *$/.test(txt) || sl < w)
			return;

		// this isn't perfect, but gives a good starting point
		// and avoids calling getSubStringLength too often
		var start = Math.floor((w/sl) * txt.length);
		for (var x = start; x > 0; x = x-2) {
			if (t.getSubStringLength(0, x + 2) <= w) {
				t.textContent = txt.substring(0, x) + "..";
				return;
			}
		}
		t.textContent = "";
	}

	// zoom
	function zoom_reset(e) {
		if (e.attributes != undefined) {
			orig_load(e, "x");
			orig_load(e, "width");
		}
		if (e.childNodes == undefined) return;
		for (var i = 0, c = e.childNodes; i < c.length; i++) {
			zoom_reset(c[i]);
		}
	}
	function zoom_child(e, x, ratio) {
		if (e.attributes != undefined) {
			if (e.attributes.x != undefined) {
				orig_save(e, "x");
				e.attributes.x.value = (parseFloat(e.attributes.x.value) - x - 10) * ratio + 10;
				if (e.tagName == "text")
					e.attributes.x.value = find_child(e.parentNode, "rect[x]").attributes.x.value + 3;
			}
			if (e.attributes.width != undefined) {
				orig_save(e, "width");
				e.attributes.width.value = parseFloat(e.attributes.width.value) * ratio;
			}
		}

		if (e.childNodes == undefined) return;
		for (var i = 0, c = e.childNodes; i < c.length; i++) {
			zoom_child(c[i], x - 10, ratio);
		}
	}
	function zoom_parent(e) {
		if (e.attributes) {
			if (e.attributes.x != undefined) {
				orig_save(e, "x");
				e.attributes.x.value = 10;
			}
			if (e.attributes.width != undefined) {
				orig_save(e, "width");
				e.attributes.width.value = parseInt(svg.width.baseVal.value) - (10 * 2);
			}
		}
		if (e.childNodes == undefined) return;
		for (var i = 0, c = e.childNodes; i < c.length; i++) {
			zoom_parent(c[i]);
		}
	}
	function zoom(node) {
		var attr = find_child(node, "rect").attributes;
		var width = parseFloat(attr.width.value);
		var xmin = parseFloat(attr.x.value);
		var xmax = parseFloat(xmin + width);
		var ymin = parseFloat(attr.y.value);
		var ratio = (svg.width.baseVal.value - 2 * 10) / width;

		// XXX: Workaround for JavaScript float issues (fix me)
		var fudge = 0.0001;

		unzoombtn.classList.remove("hide");

		var el = document.getElementById("frames").children;
		for (var i = 0; i < el.length; i++) {
			var e = el[i];
			var a = find_child(e, "rect").attributes;
			var ex = parseFloat(a.x.value);
			var ew = parseFloat(a.width.value);
			var upstack;
			// Is it an ancestor
			if (0 == 0) {
				upstack = parseFloat(a.y.value) > ymin;
			} else {
				upstack = parseFloat(a.y.value) < ymin;
			}
			if (upstack) {
				// Direct ancestor
				if (ex <= xmin && (ex+ew+fudge) >= xmax) {
					e.classList.add("parent");
					zoom_parent(e);
					update_text(e);
				}
				// not in current path
				else
					e.classList.add("hide");
			}
			// Children maybe
			else {
				// no common path
				if (ex < xmin || ex + fudge >= xmax) {
					e.classList.add("hide");
				}
				else {
					zoom_child(e, xmin, ratio);
					update_text(e);
				}
			}
		}
		search();
	}
	function unzoom(dont_update_text) {
		unzoombtn.classList.add("hide");
		var el = document.getElementById("frames").children;
		for(var i = 0; i < el.length; i++) {
			el[i].classList.remove("parent");
			el[i].classList.remove("hide");
			zoom_reset(el[i]);
			if(!dont_update_text) update_text(el[i]);
		}
		search();
	}
	function clearzoom() {
		unzoom();

		// remove zoom state
		var params = get_params();
		if (params.x) delete params.x;
		if (params.y) delete params.y;
		history.replaceState(null, null, parse_params(params));
	}

	// search
	function toggle_ignorecase() {
		ignorecase = !ignorecase;
		if (ignorecase) {
			ignorecaseBtn.classList.add("show");
		} else {
			ignorecaseBtn.classList.remove("show");
		}
		reset_search();
		search();
	}
	function reset_search() {
		var el = document.querySelectorAll("#frames rect");
		for (var i = 0; i < el.length; i++) {
			orig_load(el[i], "fill")
		}
		var params = get_params();
		delete params.s;
		history.replaceState(null, null, parse_params(params));
	}
	function search_prompt() {
		if (!searching) {
			var term = prompt("Enter a search term (regexp " +
			    "allowed, eg: ^ext4_)"
			    + (ignorecase ? ", ignoring case" : "")
			    + "\nPress Ctrl-i to toggle case sensitivity", "");
			if (term != null) search(term);
		} else {
			reset_search();
			searching = 0;
			currentSearchTerm = null;
			searchbtn.classList.remove("show");
			searchbtn.firstChild.nodeValue = "Search"
			matchedtxt.classList.add("hide");
			matchedtxt.firstChild.nodeValue = ""
		}
	}
	function search(term) {
		if (term) currentSearchTerm = term;

		var re = new RegExp(currentSearchTerm, ignorecase ? 'i' : '');
		var el = document.getElementById("frames").children;
		var matches = new Object();
		var maxwidth = 0;
		for (var i = 0; i < el.length; i++) {
			var e = el[i];
			var func = g_to_func(e);
			var rect = find_child(e, "rect");
			if (func == null || rect == null)
				continue;

			// Save max width. Only works as we have a root frame
			var w = parseFloat(rect.attributes.width.value);
			if (w > maxwidth)
				maxwidth = w;

			if (func.match(re)) {
				// highlight
				var x = parseFloat(rect.attributes.x.value);
				orig_save(rect, "fill");
				rect.attributes.fill.value = "rgb(230,0,230)";

				// remember matches
				if (matches[x] == undefined) {
					matches[x] = w;
				} else {
					if (w > matches[x]) {
						// overwrite with parent
						matches[x] = w;
					}
				}
				searching = 1;
			}
		}
		if (!searching)
			return;
		var params = get_params();
		params.s = currentSearchTerm;
		history.replaceState(null, null, parse_params(params));

		searchbtn.classList.add("show");
		searchbtn.firstChild.nodeValue = "Reset Search";

		// calculate percent matched, excluding vertical overlap
		var count = 0;
		var lastx = -1;
		var lastw = 0;
		var keys = Array();
		for (k in matches) {
			if (matches.hasOwnProperty(k))
				keys.push(k);
		}
		// sort the matched frames by their x location
		// ascending, then width descending
		keys.sort(function(a, b){
			return a - b;
		});
		// Step through frames saving only the biggest bottom-up frames
		// thanks to the sort order. This relies on the tree property
		// where children are always smaller than their parents.
		var fudge = 0.0001;	// JavaScript floating point
		for (var k in keys) {
			var x = parseFloat(keys[k]);
			var w = matches[keys[k]];
			if (x >= lastx + lastw - fudge) {
				count += w;
				lastx = x;
				lastw = w;
			}
		}
		// display matched percent
		matchedtxt.classList.remove("hide");
		var pct = 100 * count / maxwidth;
		if (pct != 100) pct = pct.toFixed(1)
		matchedtxt.firstChild.nodeValue = "Matched: " + pct + "%";
	}
]]>
</script>
<rect x="0.0" y="0" width="1200.0" height="438.0" fill="url(#background)"  />
<text id="title" x="600.00" y="24" >Flame Graph</text>
<text id="details" x="10.00" y="421" > </text>
<text id="unzoom" x="10.00" y="24" class="hide">Reset Zoom</text>
<text id="search" x="1090.00" y="24" >Search</text>
<text id="ignorecase" x="1174.00" y="24" >ic</text>
<text id="matched" x="1090.00" y="421" > </text>
<g id="frames">
<g >
<title>do_brk_flags (412,172 samples, 0.04%)</title><rect x="1188.2" y="277" width="0.4" height="15.0" fill="rgb(220,73,17)" rx="2" ry="2" />
<text  x="1191.17" y="287.5" ></text>
</g>
<g >
<title>TransformDC_C (14,615,063 samples, 1.27%)</title><rect x="508.4" y="341" width="15.0" height="15.0" fill="rgb(219,65,15)" rx="2" ry="2" />
<text  x="511.40" y="351.5" ></text>
</g>
<g >
<title>ReconstructRow (15,387,633 samples, 1.33%)</title><rect x="471.4" y="341" width="15.7" height="15.0" fill="rgb(225,93,22)" rx="2" ry="2" />
<text  x="474.38" y="351.5" ></text>
</g>
<g >
<title>GetCoeffsFast (2,639,696 samples, 0.23%)</title><rect x="409.0" y="341" width="2.7" height="15.0" fill="rgb(219,64,15)" rx="2" ry="2" />
<text  x="412.03" y="351.5" ></text>
</g>
<g >
<title>vm_mmap_pgoff (321,903 samples, 0.03%)</title><rect x="1189.5" y="229" width="0.4" height="15.0" fill="rgb(237,150,35)" rx="2" ry="2" />
<text  x="1192.53" y="239.5" ></text>
</g>
<g >
<title>TransformDC_C (1,715,557 samples, 0.15%)</title><rect x="73.0" y="357" width="1.8" height="15.0" fill="rgb(219,65,15)" rx="2" ry="2" />
<text  x="76.03" y="367.5" ></text>
</g>
<g >
<title>SimpleHFilter16_C (11,669,182 samples, 1.01%)</title><rect x="487.1" y="341" width="12.0" height="15.0" fill="rgb(227,105,25)" rx="2" ry="2" />
<text  x="490.13" y="351.5" ></text>
</g>
<g >
<title>perf_event_mmap (412,172 samples, 0.04%)</title><rect x="1188.2" y="261" width="0.4" height="15.0" fill="rgb(229,112,26)" rx="2" ry="2" />
<text  x="1191.17" y="271.5" ></text>
</g>
<g >
<title>__sysvec_apic_timer_interrupt (107,190 samples, 0.01%)</title><rect x="1189.9" y="181" width="0.1" height="15.0" fill="rgb(242,173,41)" rx="2" ry="2" />
<text  x="1192.89" y="191.5" ></text>
</g>
<g >
<title>SimpleHFilter16i_C (923,372 samples, 0.08%)</title><rect x="48.4" y="357" width="1.0" height="15.0" fill="rgb(249,205,49)" rx="2" ry="2" />
<text  x="51.44" y="367.5" ></text>
</g>
<g >
<title>do_syscall_64 (923,313 samples, 0.08%)</title><rect x="1187.2" y="309" width="1.0" height="15.0" fill="rgb(209,20,4)" rx="2" ry="2" />
<text  x="1190.22" y="319.5" ></text>
</g>
<g >
<title>__hrtimer_run_queues (107,190 samples, 0.01%)</title><rect x="1189.9" y="149" width="0.1" height="15.0" fill="rgb(237,150,35)" rx="2" ry="2" />
<text  x="1192.89" y="159.5" ></text>
</g>
<g >
<title>VP8GetValue (1,750,361 samples, 0.15%)</title><rect x="391.3" y="357" width="1.8" height="15.0" fill="rgb(230,119,28)" rx="2" ry="2" />
<text  x="394.35" y="367.5" ></text>
</g>
<g >
<title>do_mmap (321,903 samples, 0.03%)</title><rect x="1189.5" y="213" width="0.4" height="15.0" fill="rgb(228,107,25)" rx="2" ry="2" />
<text  x="1192.53" y="223.5" ></text>
</g>
<g >
<title>sysvec_apic_timer_interrupt (107,190 samples, 0.01%)</title><rect x="1189.9" y="197" width="0.1" height="15.0" fill="rgb(220,69,16)" rx="2" ry="2" />
<text  x="1192.89" y="207.5" ></text>
</g>
<g >
<title>scheduler_tick (107,190 samples, 0.01%)</title><rect x="1189.9" y="85" width="0.1" height="15.0" fill="rgb(246,190,45)" rx="2" ry="2" />
<text  x="1192.89" y="95.5" ></text>
</g>
<g >
<title>entry_SYSCALL_64_after_hwframe (134,624 samples, 0.01%)</title><rect x="1189.9" y="341" width="0.1" height="15.0" fill="rgb(218,63,15)" rx="2" ry="2" />
<text  x="1192.86" y="351.5" ></text>
</g>
<g >
<title>entry_SYSCALL_64_after_hwframe (321,903 samples, 0.03%)</title><rect x="1189.5" y="341" width="0.4" height="15.0" fill="rgb(218,63,15)" rx="2" ry="2" />
<text  x="1192.53" y="351.5" ></text>
</g>
<g >
<title>SimpleVFilter16_C (12,594,417 samples, 1.09%)</title><rect x="49.4" y="357" width="12.9" height="15.0" fill="rgb(237,149,35)" rx="2" ry="2" />
<text  x="52.39" y="367.5" ></text>
</g>
<g >
<title>HU4_C (1,794,476 samples, 0.16%)</title><rect x="36.3" y="357" width="1.9" height="15.0" fill="rgb(216,54,13)" rx="2" ry="2" />
<text  x="39.34" y="367.5" ></text>
</g>
<g >
<title>__update_load_avg_cfs_rq (107,190 samples, 0.01%)</title><rect x="1189.9" y="37" width="0.1" height="15.0" fill="rgb(228,107,25)" rx="2" ry="2" />
<text  x="1192.89" y="47.5" ></text>
</g>
<g >
<title>tick_sched_timer (107,190 samples, 0.01%)</title><rect x="1189.9" y="133" width="0.1" height="15.0" fill="rgb(254,227,54)" rx="2" ry="2" />
<text  x="1192.89" y="143.5" ></text>
</g>
<g >
<title>begin_new_exec (134,624 samples, 0.01%)</title><rect x="1189.9" y="245" width="0.1" height="15.0" fill="rgb(245,184,44)" rx="2" ry="2" />
<text  x="1192.86" y="255.5" ></text>
</g>
<g >
<title>tick_sched_timer (893,659 samples, 0.08%)</title><rect x="375.7" y="261" width="0.9" height="15.0" fill="rgb(254,227,54)" rx="2" ry="2" />
<text  x="378.67" y="271.5" ></text>
</g>
<g >
<title>do_syscall_64 (134,624 samples, 0.01%)</title><rect x="1189.9" y="325" width="0.1" height="15.0" fill="rgb(209,20,4)" rx="2" ry="2" />
<text  x="1192.86" y="335.5" ></text>
</g>
<g >
<title>HE4_C (923,445 samples, 0.08%)</title><rect x="35.4" y="357" width="0.9" height="15.0" fill="rgb(220,70,16)" rx="2" ry="2" />
<text  x="38.39" y="367.5" ></text>
</g>
<g >
<title>hrtimer_interrupt (893,659 samples, 0.08%)</title><rect x="375.7" y="293" width="0.9" height="15.0" fill="rgb(228,109,26)" rx="2" ry="2" />
<text  x="378.67" y="303.5" ></text>
</g>
<g >
<title>asm_sysvec_apic_timer_interrupt (107,190 samples, 0.01%)</title><rect x="1189.9" y="213" width="0.1" height="15.0" fill="rgb(232,127,30)" rx="2" ry="2" />
<text  x="1192.89" y="223.5" ></text>
</g>
<g >
<title>__cgroup_account_cputime_field (893,659 samples, 0.08%)</title><rect x="375.7" y="197" width="0.9" height="15.0" fill="rgb(232,126,30)" rx="2" ry="2" />
<text  x="378.67" y="207.5" ></text>
</g>
<g >
<title>load_elf_binary (321,903 samples, 0.03%)</title><rect x="1189.5" y="261" width="0.4" height="15.0" fill="rgb(223,83,20)" rx="2" ry="2" />
<text  x="1192.53" y="271.5" ></text>
</g>
<g >
<title>[unknown] (134,624 samples, 0.01%)</title><rect x="1189.9" y="357" width="0.1" height="15.0" fill="rgb(210,24,5)" rx="2" ry="2" />
<text  x="1192.86" y="367.5" ></text>
</g>
<g >
<title>__x64_sys_execve (134,624 samples, 0.01%)</title><rect x="1189.9" y="309" width="0.1" height="15.0" fill="rgb(247,193,46)" rx="2" ry="2" />
<text  x="1192.86" y="319.5" ></text>
</g>
<g >
<title>DC4_C (15,750,943 samples, 1.37%)</title><rect x="10.0" y="357" width="16.1" height="15.0" fill="rgb(209,18,4)" rx="2" ry="2" />
<text  x="13.00" y="367.5" ></text>
</g>
<g >
<title>UpsampleRgbaLinePair_C (291,308,622 samples, 25.27%)</title><rect x="78.4" y="357" width="298.2" height="15.0" fill="rgb(252,216,51)" rx="2" ry="2" />
<text  x="81.40" y="367.5" >UpsampleRgbaLinePair_C</text>
</g>
<g >
<title>TransformAC3_C (1,847,278 samples, 0.16%)</title><rect x="502.9" y="341" width="1.8" height="15.0" fill="rgb(209,19,4)" rx="2" ry="2" />
<text  x="505.86" y="351.5" ></text>
</g>
<g >
<title>tick_sched_handle (893,659 samples, 0.08%)</title><rect x="375.7" y="245" width="0.9" height="15.0" fill="rgb(219,68,16)" rx="2" ry="2" />
<text  x="378.67" y="255.5" ></text>
</g>
<g >
<title>security_inode_getattr (923,313 samples, 0.08%)</title><rect x="1187.2" y="245" width="1.0" height="15.0" fill="rgb(216,53,12)" rx="2" ry="2" />
<text  x="1190.22" y="255.5" ></text>
</g>
<g >
<title>update_process_times (107,190 samples, 0.01%)</title><rect x="1189.9" y="101" width="0.1" height="15.0" fill="rgb(250,209,50)" rx="2" ry="2" />
<text  x="1192.89" y="111.5" ></text>
</g>
<g >
<title>TransformDCUV_C (3,565,474 samples, 0.31%)</title><rect x="504.7" y="341" width="3.7" height="15.0" fill="rgb(214,44,10)" rx="2" ry="2" />
<text  x="507.75" y="351.5" ></text>
</g>
<g >
<title>mod_objcg_state (321,903 samples, 0.03%)</title><rect x="1189.5" y="133" width="0.4" height="15.0" fill="rgb(208,16,3)" rx="2" ry="2" />
<text  x="1192.53" y="143.5" ></text>
</g>
<g >
<title>GetLargeValue (815,848 samples, 0.07%)</title><rect x="1186.4" y="325" width="0.8" height="15.0" fill="rgb(243,175,42)" rx="2" ry="2" />
<text  x="1189.39" y="335.5" ></text>
</g>
<g >
<title>GetCoeffsFast (421,636,985 samples, 36.58%)</title><rect x="754.8" y="325" width="431.6" height="15.0" fill="rgb(219,64,15)" rx="2" ry="2" />
<text  x="757.80" y="335.5" >GetCoeffsFast</text>
</g>
<g >
<title>[unknown] (769,195,106 samples, 66.72%)</title><rect x="402.5" y="357" width="787.4" height="15.0" fill="rgb(210,24,5)" rx="2" ry="2" />
<text  x="405.52" y="367.5" >[unknown]</text>
</g>
<g >
<title>VP8ParseIntraModeRow (86,831,807 samples, 7.53%)</title><rect x="665.9" y="341" width="88.9" height="15.0" fill="rgb(231,121,29)" rx="2" ry="2" />
<text  x="668.92" y="351.5" >VP8ParseIn..</text>
</g>
<g >
<title>DC8uvNoTop_C (914,555 samples, 0.08%)</title><rect x="402.5" y="341" width="1.0" height="15.0" fill="rgb(211,27,6)" rx="2" ry="2" />
<text  x="405.52" y="351.5" ></text>
</g>
<g >
<title>decode_webp_nat (1,152,664,927 samples, 99.99%)</title><rect x="10.0" y="373" width="1179.9" height="15.0" fill="rgb(218,61,14)" rx="2" ry="2" />
<text  x="13.00" y="383.5" >decode_webp_nat</text>
</g>
<g >
<title>elf_map (321,903 samples, 0.03%)</title><rect x="1189.5" y="245" width="0.4" height="15.0" fill="rgb(236,145,34)" rx="2" ry="2" />
<text  x="1192.53" y="255.5" ></text>
</g>
<g >
<title>VR4_C (1,831,446 samples, 0.16%)</title><rect x="400.6" y="357" width="1.9" height="15.0" fill="rgb(245,187,44)" rx="2" ry="2" />
<text  x="403.64" y="367.5" ></text>
</g>
<g >
<title>TransformTwo_C (2,771,840 samples, 0.24%)</title><rect x="635.5" y="341" width="2.9" height="15.0" fill="rgb(212,36,8)" rx="2" ry="2" />
<text  x="638.52" y="351.5" ></text>
</g>
<g >
<title>__do_sys_newfstatat (923,313 samples, 0.08%)</title><rect x="1187.2" y="293" width="1.0" height="15.0" fill="rgb(243,177,42)" rx="2" ry="2" />
<text  x="1190.22" y="303.5" ></text>
</g>
<g >
<title>tick_sched_handle (107,190 samples, 0.01%)</title><rect x="1189.9" y="117" width="0.1" height="15.0" fill="rgb(219,68,16)" rx="2" ry="2" />
<text  x="1192.89" y="127.5" ></text>
</g>
<g >
<title>check_preemption_disabled (893,659 samples, 0.08%)</title><rect x="375.7" y="181" width="0.9" height="15.0" fill="rgb(220,73,17)" rx="2" ry="2" />
<text  x="378.67" y="191.5" ></text>
</g>
<g >
<title>SimpleHFilter16i_C (922,922 samples, 0.08%)</title><rect x="499.1" y="341" width="0.9" height="15.0" fill="rgb(249,205,49)" rx="2" ry="2" />
<text  x="502.07" y="351.5" ></text>
</g>
<g >
<title>__x64_sys_execve (321,903 samples, 0.03%)</title><rect x="1189.5" y="309" width="0.4" height="15.0" fill="rgb(247,193,46)" rx="2" ry="2" />
<text  x="1192.53" y="319.5" ></text>
</g>
<g >
<title>UpsampleRgbaLinePair_C (923,679 samples, 0.08%)</title><rect x="640.2" y="341" width="0.9" height="15.0" fill="rgb(252,216,51)" rx="2" ry="2" />
<text  x="643.17" y="351.5" ></text>
</g>
<g >
<title>perf_iterate_sb (412,172 samples, 0.04%)</title><rect x="1188.2" y="245" width="0.4" height="15.0" fill="rgb(244,179,42)" rx="2" ry="2" />
<text  x="1191.17" y="255.5" ></text>
</g>
<g >
<title>VP8GetHeaders (863,599 samples, 0.07%)</title><rect x="390.5" y="357" width="0.8" height="15.0" fill="rgb(247,193,46)" rx="2" ry="2" />
<text  x="393.46" y="367.5" ></text>
</g>
<g >
<title>TransformAC3_C (6,068,508 samples, 0.53%)</title><rect x="66.8" y="357" width="6.2" height="15.0" fill="rgb(209,19,4)" rx="2" ry="2" />
<text  x="69.82" y="367.5" ></text>
</g>
<g >
<title>hrtimer_interrupt (107,190 samples, 0.01%)</title><rect x="1189.9" y="165" width="0.1" height="15.0" fill="rgb(228,109,26)" rx="2" ry="2" />
<text  x="1192.89" y="175.5" ></text>
</g>
<g >
<title>ReconstructRow (8,182,243 samples, 0.71%)</title><rect x="40.1" y="357" width="8.3" height="15.0" fill="rgb(225,93,22)" rx="2" ry="2" />
<text  x="43.07" y="367.5" ></text>
</g>
<g >
<title>perf_event_exec (134,624 samples, 0.01%)</title><rect x="1189.9" y="229" width="0.1" height="15.0" fill="rgb(218,60,14)" rx="2" ry="2" />
<text  x="1192.86" y="239.5" ></text>
</g>
<g >
<title>bprm_execve (134,624 samples, 0.01%)</title><rect x="1189.9" y="277" width="0.1" height="15.0" fill="rgb(218,61,14)" rx="2" ry="2" />
<text  x="1192.86" y="287.5" ></text>
</g>
<g >
<title>account_user_time (893,659 samples, 0.08%)</title><rect x="375.7" y="213" width="0.9" height="15.0" fill="rgb(225,96,23)" rx="2" ry="2" />
<text  x="378.67" y="223.5" ></text>
</g>
<g >
<title>VP8DecodeMB (24,235,993 samples, 2.10%)</title><rect x="641.1" y="341" width="24.8" height="15.0" fill="rgb(208,18,4)" rx="2" ry="2" />
<text  x="644.11" y="351.5" >V..</text>
</g>
<g >
<title>HE8uv_C (826,771 samples, 0.07%)</title><rect x="470.5" y="341" width="0.9" height="15.0" fill="rgb(226,98,23)" rx="2" ry="2" />
<text  x="473.53" y="351.5" ></text>
</g>
<g >
<title>__brk (412,172 samples, 0.04%)</title><rect x="1188.2" y="341" width="0.4" height="15.0" fill="rgb(225,94,22)" rx="2" ry="2" />
<text  x="1191.17" y="351.5" ></text>
</g>
<g >
<title>bprm_execve (321,903 samples, 0.03%)</title><rect x="1189.5" y="277" width="0.4" height="15.0" fill="rgb(218,61,14)" rx="2" ry="2" />
<text  x="1192.53" y="287.5" ></text>
</g>
<g >
<title>vm_area_alloc (321,903 samples, 0.03%)</title><rect x="1189.5" y="181" width="0.4" height="15.0" fill="rgb(249,203,48)" rx="2" ry="2" />
<text  x="1192.53" y="191.5" ></text>
</g>
<g >
<title>sysvec_apic_timer_interrupt (893,659 samples, 0.08%)</title><rect x="375.7" y="325" width="0.9" height="15.0" fill="rgb(220,69,16)" rx="2" ry="2" />
<text  x="378.67" y="335.5" ></text>
</g>
<g >
<title>all (1,152,799,551 samples, 100%)</title><rect x="10.0" y="389" width="1180.0" height="15.0" fill="rgb(213,39,9)" rx="2" ry="2" />
<text  x="13.00" y="399.5" ></text>
</g>
<g >
<title>GetCoeffsFast (7,252,663 samples, 0.63%)</title><rect x="26.1" y="357" width="7.4" height="15.0" fill="rgb(219,64,15)" rx="2" ry="2" />
<text  x="29.12" y="367.5" ></text>
</g>
<g >
<title>GetLargeValue (57,446,850 samples, 4.98%)</title><rect x="411.7" y="341" width="58.8" height="15.0" fill="rgb(243,175,42)" rx="2" ry="2" />
<text  x="414.73" y="351.5" >GetLar..</text>
</g>
<g >
<title>task_tick_fair (107,190 samples, 0.01%)</title><rect x="1189.9" y="69" width="0.1" height="15.0" fill="rgb(217,57,13)" rx="2" ry="2" />
<text  x="1192.89" y="79.5" ></text>
</g>
<g >
<title>TM4_C (4,433,278 samples, 0.38%)</title><rect x="62.3" y="357" width="4.5" height="15.0" fill="rgb(241,165,39)" rx="2" ry="2" />
<text  x="65.28" y="367.5" ></text>
</g>
<g >
<title>memcg_slab_post_alloc_hook (321,903 samples, 0.03%)</title><rect x="1189.5" y="149" width="0.4" height="15.0" fill="rgb(234,135,32)" rx="2" ry="2" />
<text  x="1192.53" y="159.5" ></text>
</g>
<g >
<title>update_load_avg (107,190 samples, 0.01%)</title><rect x="1189.9" y="53" width="0.1" height="15.0" fill="rgb(240,165,39)" rx="2" ry="2" />
<text  x="1192.89" y="63.5" ></text>
</g>
<g >
<title>perf-exec (134,624 samples, 0.01%)</title><rect x="1189.9" y="373" width="0.1" height="15.0" fill="rgb(231,123,29)" rx="2" ry="2" />
<text  x="1192.86" y="383.5" ></text>
</g>
<g >
<title>do_execveat_common.isra.0 (321,903 samples, 0.03%)</title><rect x="1189.5" y="293" width="0.4" height="15.0" fill="rgb(231,123,29)" rx="2" ry="2" />
<text  x="1192.53" y="303.5" ></text>
</g>
<g >
<title>EmitFancyRGB (923,763 samples, 0.08%)</title><rect x="406.2" y="341" width="0.9" height="15.0" fill="rgb(210,26,6)" rx="2" ry="2" />
<text  x="409.20" y="351.5" ></text>
</g>
<g >
<title>TransformTwo_C (3,532,539 samples, 0.31%)</title><rect x="74.8" y="357" width="3.6" height="15.0" fill="rgb(212,36,8)" rx="2" ry="2" />
<text  x="77.78" y="367.5" ></text>
</g>
<g >
<title>TransformUV_C (847,808 samples, 0.07%)</title><rect x="638.4" y="341" width="0.8" height="15.0" fill="rgb(236,146,34)" rx="2" ry="2" />
<text  x="641.35" y="351.5" ></text>
</g>
<g >
<title>check_preemption_disabled (321,903 samples, 0.03%)</title><rect x="1189.5" y="117" width="0.4" height="15.0" fill="rgb(220,73,17)" rx="2" ry="2" />
<text  x="1192.53" y="127.5" ></text>
</g>
<g >
<title>VP8DecodeMB (11,761,248 samples, 1.02%)</title><rect x="378.4" y="357" width="12.1" height="15.0" fill="rgb(208,18,4)" rx="2" ry="2" />
<text  x="381.42" y="367.5" ></text>
</g>
<g >
<title>mmap_region (321,903 samples, 0.03%)</title><rect x="1189.5" y="197" width="0.4" height="15.0" fill="rgb(231,121,28)" rx="2" ry="2" />
<text  x="1192.53" y="207.5" ></text>
</g>
<g >
<title>RD4_C (1,846,811 samples, 0.16%)</title><rect x="38.2" y="357" width="1.9" height="15.0" fill="rgb(212,32,7)" rx="2" ry="2" />
<text  x="41.18" y="367.5" ></text>
</g>
<g >
<title>vfs_fstatat (923,313 samples, 0.08%)</title><rect x="1187.2" y="277" width="1.0" height="15.0" fill="rgb(232,127,30)" rx="2" ry="2" />
<text  x="1190.22" y="287.5" ></text>
</g>
<g >
<title>[unknown] (422,452,833 samples, 36.65%)</title><rect x="754.8" y="341" width="432.4" height="15.0" fill="rgb(210,24,5)" rx="2" ry="2" />
<text  x="757.80" y="351.5" >[unknown]</text>
</g>
<g >
<title>perf_iterate_ctx (412,172 samples, 0.04%)</title><rect x="1188.2" y="229" width="0.4" height="15.0" fill="rgb(205,4,0)" rx="2" ry="2" />
<text  x="1191.17" y="239.5" ></text>
</g>
<g >
<title>asm_sysvec_apic_timer_interrupt (893,659 samples, 0.08%)</title><rect x="375.7" y="341" width="0.9" height="15.0" fill="rgb(232,127,30)" rx="2" ry="2" />
<text  x="378.67" y="351.5" ></text>
</g>
<g >
<title>kmem_cache_alloc (321,903 samples, 0.03%)</title><rect x="1189.5" y="165" width="0.4" height="15.0" fill="rgb(225,95,22)" rx="2" ry="2" />
<text  x="1192.53" y="175.5" ></text>
</g>
<g >
<title>do_syscall_64 (412,172 samples, 0.04%)</title><rect x="1188.2" y="309" width="0.4" height="15.0" fill="rgb(209,20,4)" rx="2" ry="2" />
<text  x="1191.17" y="319.5" ></text>
</g>
<g >
<title>__sysvec_apic_timer_interrupt (893,659 samples, 0.08%)</title><rect x="375.7" y="309" width="0.9" height="15.0" fill="rgb(242,173,41)" rx="2" ry="2" />
<text  x="378.67" y="319.5" ></text>
</g>
<g >
<title>do_syscall_64 (321,903 samples, 0.03%)</title><rect x="1189.5" y="325" width="0.4" height="15.0" fill="rgb(209,20,4)" rx="2" ry="2" />
<text  x="1192.53" y="335.5" ></text>
</g>
<g >
<title>FinishRow (1,837,000 samples, 0.16%)</title><rect x="407.1" y="341" width="1.9" height="15.0" fill="rgb(213,41,9)" rx="2" ry="2" />
<text  x="410.15" y="351.5" ></text>
</g>
<g >
<title>entry_SYSCALL_64_after_hwframe (412,172 samples, 0.04%)</title><rect x="1188.2" y="325" width="0.4" height="15.0" fill="rgb(218,63,15)" rx="2" ry="2" />
<text  x="1191.17" y="335.5" ></text>
</g>
<g >
<title>__do_sys_brk (412,172 samples, 0.04%)</title><rect x="1188.2" y="293" width="0.4" height="15.0" fill="rgb(217,58,13)" rx="2" ry="2" />
<text  x="1191.17" y="303.5" ></text>
</g>
<g >
<title>entry_SYSCALL_64_after_hwframe (923,313 samples, 0.08%)</title><rect x="1187.2" y="325" width="1.0" height="15.0" fill="rgb(218,63,15)" rx="2" ry="2" />
<text  x="1190.22" y="335.5" ></text>
</g>
<g >
<title>do_execveat_common.isra.0 (134,624 samples, 0.01%)</title><rect x="1189.9" y="293" width="0.1" height="15.0" fill="rgb(231,123,29)" rx="2" ry="2" />
<text  x="1192.86" y="303.5" ></text>
</g>
<g >
<title>load_elf_binary (134,624 samples, 0.01%)</title><rect x="1189.9" y="261" width="0.1" height="15.0" fill="rgb(223,83,20)" rx="2" ry="2" />
<text  x="1192.86" y="271.5" ></text>
</g>
<g >
<title>TransformWHT_C (923,552 samples, 0.08%)</title><rect x="639.2" y="341" width="1.0" height="15.0" fill="rgb(221,76,18)" rx="2" ry="2" />
<text  x="642.22" y="351.5" ></text>
</g>
<g >
<title>update_process_times (893,659 samples, 0.08%)</title><rect x="375.7" y="229" width="0.9" height="15.0" fill="rgb(250,209,50)" rx="2" ry="2" />
<text  x="378.67" y="239.5" ></text>
</g>
<g >
<title>__memmove_avx_unaligned_erms (923,210 samples, 0.08%)</title><rect x="1188.6" y="341" width="0.9" height="15.0" fill="rgb(205,0,0)" rx="2" ry="2" />
<text  x="1191.59" y="351.5" ></text>
</g>
<g >
<title>vfs_statx (923,313 samples, 0.08%)</title><rect x="1187.2" y="261" width="1.0" height="15.0" fill="rgb(242,172,41)" rx="2" ry="2" />
<text  x="1190.22" y="271.5" ></text>
</g>
<g >
<title>TransformOne_C (109,573,958 samples, 9.51%)</title><rect x="523.4" y="341" width="112.1" height="15.0" fill="rgb(218,59,14)" rx="2" ry="2" />
<text  x="526.36" y="351.5" >TransformOne_C</text>
</g>
<g >
<title>__GI___fstatat (923,313 samples, 0.08%)</title><rect x="1187.2" y="341" width="1.0" height="15.0" fill="rgb(211,31,7)" rx="2" ry="2" />
<text  x="1190.22" y="351.5" ></text>
</g>
<g >
<title>DC8uv_C (2,685,809 samples, 0.23%)</title><rect x="403.5" y="341" width="2.7" height="15.0" fill="rgb(215,46,11)" rx="2" ry="2" />
<text  x="406.45" y="351.5" ></text>
</g>
<g >
<title>HD4_C (1,804,565 samples, 0.16%)</title><rect x="33.5" y="357" width="1.9" height="15.0" fill="rgb(226,100,23)" rx="2" ry="2" />
<text  x="36.55" y="367.5" ></text>
</g>
<g >
<title>VP8ParseIntraModeRow (7,331,316 samples, 0.64%)</title><rect x="393.1" y="357" width="7.5" height="15.0" fill="rgb(231,121,29)" rx="2" ry="2" />
<text  x="396.14" y="367.5" ></text>
</g>
<g >
<title>__hrtimer_run_queues (893,659 samples, 0.08%)</title><rect x="375.7" y="277" width="0.9" height="15.0" fill="rgb(237,150,35)" rx="2" ry="2" />
<text  x="378.67" y="287.5" ></text>
</g>
<g >
<title>TM16_C (2,771,042 samples, 0.24%)</title><rect x="500.0" y="341" width="2.9" height="15.0" fill="rgb(211,30,7)" rx="2" ry="2" />
<text  x="503.02" y="351.5" ></text>
</g>
<g >
<title>VL4_C (1,800,412 samples, 0.16%)</title><rect x="376.6" y="357" width="1.8" height="15.0" fill="rgb(234,136,32)" rx="2" ry="2" />
<text  x="379.58" y="367.5" ></text>
</g>
</g>
</svg>
