<?xml version="1.0" standalone="no"?>
<!DOCTYPE svg PUBLIC "-//W3C//DTD SVG 1.1//EN" "http://www.w3.org/Graphics/SVG/1.1/DTD/svg11.dtd">
<svg version="1.1" width="1200" height="342" onload="init(evt)" viewBox="0 0 1200 342" xmlns="http://www.w3.org/2000/svg" xmlns:xlink="http://www.w3.org/1999/xlink">
<!-- Flame graph stack visualization. See https://github.com/brendangregg/FlameGraph for latest version, and http://www.brendangregg.com/flamegraphs.html for examples. -->
<!-- NOTES:  -->
<defs>
	<linearGradient id="background" y1="0" y2="1" x1="0" x2="0" >
		<stop stop-color="#eeeeee" offset="5%" />
		<stop stop-color="#eeeeb0" offset="95%" />
	</linearGradient>
</defs>
<style type="text/css">
	text { font-family:Verdana; font-size:12px; fill:rgb(0,0,0); }
	#search, #ignorecase { opacity:0.1; cursor:pointer; }
	#search:hover, #search.show, #ignorecase:hover, #ignorecase.show { opacity:1; }
	#subtitle { text-anchor:middle; font-color:rgb(160,160,160); }
	#title { text-anchor:middle; font-size:17px}
	#unzoom { cursor:pointer; }
	#frames > *:hover { stroke:black; stroke-width:0.5; cursor:pointer; }
	.hide { display:none; }
	.parent { opacity:0.5; }
</style>
<script type="text/ecmascript">
<![CDATA[
	"use strict";
	var details, searchbtn, unzoombtn, matchedtxt, svg, searching, currentSearchTerm, ignorecase, ignorecaseBtn;
	function init(evt) {
		details = document.getElementById("details").firstChild;
		searchbtn = document.getElementById("search");
		ignorecaseBtn = document.getElementById("ignorecase");
		unzoombtn = document.getElementById("unzoom");
		matchedtxt = document.getElementById("matched");
		svg = document.getElementsByTagName("svg")[0];
		searching = 0;
		currentSearchTerm = null;

		// use GET parameters to restore a flamegraphs state.
		var params = get_params();
		if (params.x && params.y)
			zoom(find_group(document.querySelector('[x="' + params.x + '"][y="' + params.y + '"]')));
                if (params.s) search(params.s);
	}

	// event listeners
	window.addEventListener("click", function(e) {
		var target = find_group(e.target);
		if (target) {
			if (target.nodeName == "a") {
				if (e.ctrlKey === false) return;
				e.preventDefault();
			}
			if (target.classList.contains("parent")) unzoom(true);
			zoom(target);
			if (!document.querySelector('.parent')) {
				// we have basically done a clearzoom so clear the url
				var params = get_params();
				if (params.x) delete params.x;
				if (params.y) delete params.y;
				history.replaceState(null, null, parse_params(params));
				unzoombtn.classList.add("hide");
				return;
			}

			// set parameters for zoom state
			var el = target.querySelector("rect");
			if (el && el.attributes && el.attributes.y && el.attributes._orig_x) {
				var params = get_params()
				params.x = el.attributes._orig_x.value;
				params.y = el.attributes.y.value;
				history.replaceState(null, null, parse_params(params));
			}
		}
		else if (e.target.id == "unzoom") clearzoom();
		else if (e.target.id == "search") search_prompt();
		else if (e.target.id == "ignorecase") toggle_ignorecase();
	}, false)

	// mouse-over for info
	// show
	window.addEventListener("mouseover", function(e) {
		var target = find_group(e.target);
		if (target) details.nodeValue = "Function: " + g_to_text(target);
	}, false)

	// clear
	window.addEventListener("mouseout", function(e) {
		var target = find_group(e.target);
		if (target) details.nodeValue = ' ';
	}, false)

	// ctrl-F for search
	// ctrl-I to toggle case-sensitive search
	window.addEventListener("keydown",function (e) {
		if (e.keyCode === 114 || (e.ctrlKey && e.keyCode === 70)) {
			e.preventDefault();
			search_prompt();
		}
		else if (e.ctrlKey && e.keyCode === 73) {
			e.preventDefault();
			toggle_ignorecase();
		}
	}, false)

	// functions
	function get_params() {
		var params = {};
		var paramsarr = window.location.search.substr(1).split('&');
		for (var i = 0; i < paramsarr.length; ++i) {
			var tmp = paramsarr[i].split("=");
			if (!tmp[0] || !tmp[1]) continue;
			params[tmp[0]]  = decodeURIComponent(tmp[1]);
		}
		return params;
	}
	function parse_params(params) {
		var uri = "?";
		for (var key in params) {
			uri += key + '=' + encodeURIComponent(params[key]) + '&';
		}
		if (uri.slice(-1) == "&")
			uri = uri.substring(0, uri.length - 1);
		if (uri == '?')
			uri = window.location.href.split('?')[0];
		return uri;
	}
	function find_child(node, selector) {
		var children = node.querySelectorAll(selector);
		if (children.length) return children[0];
	}
	function find_group(node) {
		var parent = node.parentElement;
		if (!parent) return;
		if (parent.id == "frames") return node;
		return find_group(parent);
	}
	function orig_save(e, attr, val) {
		if (e.attributes["_orig_" + attr] != undefined) return;
		if (e.attributes[attr] == undefined) return;
		if (val == undefined) val = e.attributes[attr].value;
		e.setAttribute("_orig_" + attr, val);
	}
	function orig_load(e, attr) {
		if (e.attributes["_orig_"+attr] == undefined) return;
		e.attributes[attr].value = e.attributes["_orig_" + attr].value;
		e.removeAttribute("_orig_"+attr);
	}
	function g_to_text(e) {
		var text = find_child(e, "title").firstChild.nodeValue;
		return (text)
	}
	function g_to_func(e) {
		var func = g_to_text(e);
		// if there's any manipulation we want to do to the function
		// name before it's searched, do it here before returning.
		return (func);
	}
	function update_text(e) {
		var r = find_child(e, "rect");
		var t = find_child(e, "text");
		var w = parseFloat(r.attributes.width.value) -3;
		var txt = find_child(e, "title").textContent.replace(/\([^(]*\)$/,"");
		t.attributes.x.value = parseFloat(r.attributes.x.value) + 3;

		// Smaller than this size won't fit anything
		if (w < 2 * 12 * 0.59) {
			t.textContent = "";
			return;
		}

		t.textContent = txt;
		var sl = t.getSubStringLength(0, txt.length);
		// check if only whitespace or if we can fit the entire string into width w
		if (/^ *$/.test(txt) || sl < w)
			return;

		// this isn't perfect, but gives a good starting point
		// and avoids calling getSubStringLength too often
		var start = Math.floor((w/sl) * txt.length);
		for (var x = start; x > 0; x = x-2) {
			if (t.getSubStringLength(0, x + 2) <= w) {
				t.textContent = txt.substring(0, x) + "..";
				return;
			}
		}
		t.textContent = "";
	}

	// zoom
	function zoom_reset(e) {
		if (e.attributes != undefined) {
			orig_load(e, "x");
			orig_load(e, "width");
		}
		if (e.childNodes == undefined) return;
		for (var i = 0, c = e.childNodes; i < c.length; i++) {
			zoom_reset(c[i]);
		}
	}
	function zoom_child(e, x, ratio) {
		if (e.attributes != undefined) {
			if (e.attributes.x != undefined) {
				orig_save(e, "x");
				e.attributes.x.value = (parseFloat(e.attributes.x.value) - x - 10) * ratio + 10;
				if (e.tagName == "text")
					e.attributes.x.value = find_child(e.parentNode, "rect[x]").attributes.x.value + 3;
			}
			if (e.attributes.width != undefined) {
				orig_save(e, "width");
				e.attributes.width.value = parseFloat(e.attributes.width.value) * ratio;
			}
		}

		if (e.childNodes == undefined) return;
		for (var i = 0, c = e.childNodes; i < c.length; i++) {
			zoom_child(c[i], x - 10, ratio);
		}
	}
	function zoom_parent(e) {
		if (e.attributes) {
			if (e.attributes.x != undefined) {
				orig_save(e, "x");
				e.attributes.x.value = 10;
			}
			if (e.attributes.width != undefined) {
				orig_save(e, "width");
				e.attributes.width.value = parseInt(svg.width.baseVal.value) - (10 * 2);
			}
		}
		if (e.childNodes == undefined) return;
		for (var i = 0, c = e.childNodes; i < c.length; i++) {
			zoom_parent(c[i]);
		}
	}
	function zoom(node) {
		var attr = find_child(node, "rect").attributes;
		var width = parseFloat(attr.width.value);
		var xmin = parseFloat(attr.x.value);
		var xmax = parseFloat(xmin + width);
		var ymin = parseFloat(attr.y.value);
		var ratio = (svg.width.baseVal.value - 2 * 10) / width;

		// XXX: Workaround for JavaScript float issues (fix me)
		var fudge = 0.0001;

		unzoombtn.classList.remove("hide");

		var el = document.getElementById("frames").children;
		for (var i = 0; i < el.length; i++) {
			var e = el[i];
			var a = find_child(e, "rect").attributes;
			var ex = parseFloat(a.x.value);
			var ew = parseFloat(a.width.value);
			var upstack;
			// Is it an ancestor
			if (0 == 0) {
				upstack = parseFloat(a.y.value) > ymin;
			} else {
				upstack = parseFloat(a.y.value) < ymin;
			}
			if (upstack) {
				// Direct ancestor
				if (ex <= xmin && (ex+ew+fudge) >= xmax) {
					e.classList.add("parent");
					zoom_parent(e);
					update_text(e);
				}
				// not in current path
				else
					e.classList.add("hide");
			}
			// Children maybe
			else {
				// no common path
				if (ex < xmin || ex + fudge >= xmax) {
					e.classList.add("hide");
				}
				else {
					zoom_child(e, xmin, ratio);
					update_text(e);
				}
			}
		}
		search();
	}
	function unzoom(dont_update_text) {
		unzoombtn.classList.add("hide");
		var el = document.getElementById("frames").children;
		for(var i = 0; i < el.length; i++) {
			el[i].classList.remove("parent");
			el[i].classList.remove("hide");
			zoom_reset(el[i]);
			if(!dont_update_text) update_text(el[i]);
		}
		search();
	}
	function clearzoom() {
		unzoom();

		// remove zoom state
		var params = get_params();
		if (params.x) delete params.x;
		if (params.y) delete params.y;
		history.replaceState(null, null, parse_params(params));
	}

	// search
	function toggle_ignorecase() {
		ignorecase = !ignorecase;
		if (ignorecase) {
			ignorecaseBtn.classList.add("show");
		} else {
			ignorecaseBtn.classList.remove("show");
		}
		reset_search();
		search();
	}
	function reset_search() {
		var el = document.querySelectorAll("#frames rect");
		for (var i = 0; i < el.length; i++) {
			orig_load(el[i], "fill")
		}
		var params = get_params();
		delete params.s;
		history.replaceState(null, null, parse_params(params));
	}
	function search_prompt() {
		if (!searching) {
			var term = prompt("Enter a search term (regexp " +
			    "allowed, eg: ^ext4_)"
			    + (ignorecase ? ", ignoring case" : "")
			    + "\nPress Ctrl-i to toggle case sensitivity", "");
			if (term != null) search(term);
		} else {
			reset_search();
			searching = 0;
			currentSearchTerm = null;
			searchbtn.classList.remove("show");
			searchbtn.firstChild.nodeValue = "Search"
			matchedtxt.classList.add("hide");
			matchedtxt.firstChild.nodeValue = ""
		}
	}
	function search(term) {
		if (term) currentSearchTerm = term;

		var re = new RegExp(currentSearchTerm, ignorecase ? 'i' : '');
		var el = document.getElementById("frames").children;
		var matches = new Object();
		var maxwidth = 0;
		for (var i = 0; i < el.length; i++) {
			var e = el[i];
			var func = g_to_func(e);
			var rect = find_child(e, "rect");
			if (func == null || rect == null)
				continue;

			// Save max width. Only works as we have a root frame
			var w = parseFloat(rect.attributes.width.value);
			if (w > maxwidth)
				maxwidth = w;

			if (func.match(re)) {
				// highlight
				var x = parseFloat(rect.attributes.x.value);
				orig_save(rect, "fill");
				rect.attributes.fill.value = "rgb(230,0,230)";

				// remember matches
				if (matches[x] == undefined) {
					matches[x] = w;
				} else {
					if (w > matches[x]) {
						// overwrite with parent
						matches[x] = w;
					}
				}
				searching = 1;
			}
		}
		if (!searching)
			return;
		var params = get_params();
		params.s = currentSearchTerm;
		history.replaceState(null, null, parse_params(params));

		searchbtn.classList.add("show");
		searchbtn.firstChild.nodeValue = "Reset Search";

		// calculate percent matched, excluding vertical overlap
		var count = 0;
		var lastx = -1;
		var lastw = 0;
		var keys = Array();
		for (k in matches) {
			if (matches.hasOwnProperty(k))
				keys.push(k);
		}
		// sort the matched frames by their x location
		// ascending, then width descending
		keys.sort(function(a, b){
			return a - b;
		});
		// Step through frames saving only the biggest bottom-up frames
		// thanks to the sort order. This relies on the tree property
		// where children are always smaller than their parents.
		var fudge = 0.0001;	// JavaScript floating point
		for (var k in keys) {
			var x = parseFloat(keys[k]);
			var w = matches[keys[k]];
			if (x >= lastx + lastw - fudge) {
				count += w;
				lastx = x;
				lastw = w;
			}
		}
		// display matched percent
		matchedtxt.classList.remove("hide");
		var pct = 100 * count / maxwidth;
		if (pct != 100) pct = pct.toFixed(1)
		matchedtxt.firstChild.nodeValue = "Matched: " + pct + "%";
	}
]]>
</script>
<rect x="0.0" y="0" width="1200.0" height="342.0" fill="url(#background)"  />
<text id="title" x="600.00" y="24" >Flame Graph</text>
<text id="details" x="10.00" y="325" > </text>
<text id="unzoom" x="10.00" y="24" class="hide">Reset Zoom</text>
<text id="search" x="1090.00" y="24" >Search</text>
<text id="ignorecase" x="1174.00" y="24" >ic</text>
<text id="matched" x="1090.00" y="325" > </text>
<g id="frames">
<g >
<title>perf_iterate_ctx (705,005 samples, 0.16%)</title><rect x="1174.7" y="149" width="1.9" height="15.0" fill="rgb(205,4,0)" rx="2" ry="2" />
<text  x="1177.70" y="159.5" ></text>
</g>
<g >
<title>do_syscall_64 (924,189 samples, 0.21%)</title><rect x="1170.9" y="213" width="2.5" height="15.0" fill="rgb(209,20,4)" rx="2" ry="2" />
<text  x="1173.94" y="223.5" ></text>
</g>
<g >
<title>__folio_alloc (381,085 samples, 0.09%)</title><rect x="1168.7" y="117" width="1.0" height="15.0" fill="rgb(224,91,21)" rx="2" ry="2" />
<text  x="1171.70" y="127.5" ></text>
</g>
<g >
<title>do_syscall_64 (479,950 samples, 0.11%)</title><rect x="1173.4" y="229" width="1.3" height="15.0" fill="rgb(209,20,4)" rx="2" ry="2" />
<text  x="1176.42" y="239.5" ></text>
</g>
<g >
<title>vma_alloc_folio (462,069 samples, 0.10%)</title><rect x="160.6" y="165" width="1.3" height="15.0" fill="rgb(245,187,44)" rx="2" ry="2" />
<text  x="163.63" y="175.5" ></text>
</g>
<g >
<title>TM8uv_SSE2 (924,023 samples, 0.21%)</title><rect x="458.2" y="245" width="2.5" height="15.0" fill="rgb(238,156,37)" rx="2" ry="2" />
<text  x="461.23" y="255.5" ></text>
</g>
<g >
<title>__handle_mm_fault (462,069 samples, 0.10%)</title><rect x="160.6" y="181" width="1.3" height="15.0" fill="rgb(207,9,2)" rx="2" ry="2" />
<text  x="163.63" y="191.5" ></text>
</g>
<g >
<title>asm_exc_page_fault (360,817 samples, 0.08%)</title><rect x="1173.7" y="117" width="1.0" height="15.0" fill="rgb(225,93,22)" rx="2" ry="2" />
<text  x="1176.74" y="127.5" ></text>
</g>
<g >
<title>DC4_C (5,979,746 samples, 1.36%)</title><rect x="12.5" y="261" width="16.0" height="15.0" fill="rgb(209,18,4)" rx="2" ry="2" />
<text  x="15.47" y="271.5" ></text>
</g>
<g >
<title>HFilter8i_SSE2 (3,695,088 samples, 0.84%)</title><rect x="433.8" y="245" width="9.9" height="15.0" fill="rgb(237,148,35)" rx="2" ry="2" />
<text  x="436.81" y="255.5" ></text>
</g>
<g >
<title>__handle_mm_fault (381,085 samples, 0.09%)</title><rect x="1168.7" y="149" width="1.0" height="15.0" fill="rgb(207,9,2)" rx="2" ry="2" />
<text  x="1171.70" y="159.5" ></text>
</g>
<g >
<title>ReadHuffmanCode (923,355 samples, 0.21%)</title><rect x="443.7" y="245" width="2.5" height="15.0" fill="rgb(230,116,27)" rx="2" ry="2" />
<text  x="446.69" y="255.5" ></text>
</g>
<g >
<title>__do_global_dtors_aux (456,063 samples, 0.10%)</title><rect x="1169.7" y="245" width="1.2" height="15.0" fill="rgb(245,185,44)" rx="2" ry="2" />
<text  x="1172.72" y="255.5" ></text>
</g>
<g >
<title>all (441,010,708 samples, 100%)</title><rect x="10.0" y="293" width="1180.0" height="15.0" fill="rgb(213,39,9)" rx="2" ry="2" />
<text  x="13.00" y="303.5" ></text>
</g>
<g >
<title>do_user_addr_fault (381,085 samples, 0.09%)</title><rect x="1168.7" y="181" width="1.0" height="15.0" fill="rgb(228,108,25)" rx="2" ry="2" />
<text  x="1171.70" y="191.5" ></text>
</g>
<g >
<title>ReconstructRow (3,695,133 samples, 0.84%)</title><rect x="446.2" y="245" width="9.9" height="15.0" fill="rgb(225,93,22)" rx="2" ry="2" />
<text  x="449.16" y="255.5" ></text>
</g>
<g >
<title>handle_mm_fault (360,817 samples, 0.08%)</title><rect x="1173.7" y="69" width="1.0" height="15.0" fill="rgb(234,135,32)" rx="2" ry="2" />
<text  x="1176.74" y="79.5" ></text>
</g>
<g >
<title>cgroup_rstat_flush_irqsafe (924,189 samples, 0.21%)</title><rect x="1170.9" y="69" width="2.5" height="15.0" fill="rgb(227,103,24)" rx="2" ry="2" />
<text  x="1173.94" y="79.5" ></text>
</g>
<g >
<title>HE16_SSE2 (923,956 samples, 0.21%)</title><rect x="386.8" y="245" width="2.5" height="15.0" fill="rgb(232,126,30)" rx="2" ry="2" />
<text  x="389.84" y="255.5" ></text>
</g>
<g >
<title>balance_dirty_pages_ratelimited_flags (924,189 samples, 0.21%)</title><rect x="1170.9" y="133" width="2.5" height="15.0" fill="rgb(207,10,2)" rx="2" ry="2" />
<text  x="1173.94" y="143.5" ></text>
</g>
<g >
<title>VP8GetValue (3,695,860 samples, 0.84%)</title><rect x="194.0" y="261" width="9.9" height="15.0" fill="rgb(230,119,28)" rx="2" ry="2" />
<text  x="196.97" y="271.5" ></text>
</g>
<g >
<title>VP8DecodeMB (7,381,491 samples, 1.67%)</title><rect x="174.2" y="261" width="19.8" height="15.0" fill="rgb(208,18,4)" rx="2" ry="2" />
<text  x="177.22" y="271.5" ></text>
</g>
<g >
<title>__folio_alloc (462,069 samples, 0.10%)</title><rect x="160.6" y="149" width="1.3" height="15.0" fill="rgb(224,91,21)" rx="2" ry="2" />
<text  x="163.63" y="159.5" ></text>
</g>
<g >
<title>__do_sys_brk (705,005 samples, 0.16%)</title><rect x="1174.7" y="213" width="1.9" height="15.0" fill="rgb(217,58,13)" rx="2" ry="2" />
<text  x="1177.70" y="223.5" ></text>
</g>
<g >
<title>VP8YuvToRgba32_SSE2 (8,310,974 samples, 1.88%)</title><rect x="218.7" y="261" width="22.2" height="15.0" fill="rgb(214,45,10)" rx="2" ry="2" />
<text  x="221.68" y="271.5" >V..</text>
</g>
<g >
<title>TransformDC_C (1,822,197 samples, 0.41%)</title><rect x="108.9" y="261" width="4.8" height="15.0" fill="rgb(219,65,15)" rx="2" ry="2" />
<text  x="111.87" y="271.5" ></text>
</g>
<g >
<title>DoFilter6_SSE2 (6,465,076 samples, 1.47%)</title><rect x="248.3" y="245" width="17.3" height="15.0" fill="rgb(237,148,35)" rx="2" ry="2" />
<text  x="251.34" y="255.5" ></text>
</g>
<g >
<title>perf_event_mmap (705,005 samples, 0.16%)</title><rect x="1174.7" y="181" width="1.9" height="15.0" fill="rgb(229,112,26)" rx="2" ry="2" />
<text  x="1177.70" y="191.5" ></text>
</g>
<g >
<title>decode_webp_nat (440,980,038 samples, 99.99%)</title><rect x="10.0" y="277" width="1179.9" height="15.0" fill="rgb(218,61,14)" rx="2" ry="2" />
<text  x="13.00" y="287.5" >decode_webp_nat</text>
</g>
<g >
<title>Transform_SSE2 (5,544,596 samples, 1.26%)</title><rect x="463.2" y="245" width="14.8" height="15.0" fill="rgb(233,129,30)" rx="2" ry="2" />
<text  x="466.17" y="255.5" ></text>
</g>
<g >
<title>GetLargeValue (43,713,636 samples, 9.91%)</title><rect x="269.9" y="245" width="116.9" height="15.0" fill="rgb(243,175,42)" rx="2" ry="2" />
<text  x="272.88" y="255.5" >GetLargeValue</text>
</g>
<g >
<title>HFilter16_SSE2 (4,620,565 samples, 1.05%)</title><rect x="391.8" y="245" width="12.3" height="15.0" fill="rgb(211,31,7)" rx="2" ry="2" />
<text  x="394.79" y="255.5" ></text>
</g>
<g >
<title>DispatchAlpha_SSE2 (12,933,313 samples, 2.93%)</title><rect x="28.5" y="261" width="34.6" height="15.0" fill="rgb(248,197,47)" rx="2" ry="2" />
<text  x="31.47" y="271.5" >Di..</text>
</g>
<g >
<title>mem_cgroup_wb_stats (924,189 samples, 0.21%)</title><rect x="1170.9" y="101" width="2.5" height="15.0" fill="rgb(211,28,6)" rx="2" ry="2" />
<text  x="1173.94" y="111.5" ></text>
</g>
<g >
<title>Upsample32Pixels_SSE2 (923,299 samples, 0.21%)</title><rect x="145.9" y="261" width="2.5" height="15.0" fill="rgb(223,83,20)" rx="2" ry="2" />
<text  x="148.88" y="271.5" ></text>
</g>
<g >
<title>[unknown] (348,989,066 samples, 79.13%)</title><rect x="240.9" y="261" width="933.8" height="15.0" fill="rgb(210,24,5)" rx="2" ry="2" />
<text  x="243.92" y="271.5" >[unknown]</text>
</g>
<g >
<title>asm_exc_page_fault (462,069 samples, 0.10%)</title><rect x="160.6" y="245" width="1.3" height="15.0" fill="rgb(225,93,22)" rx="2" ry="2" />
<text  x="163.63" y="255.5" ></text>
</g>
<g >
<title>ReadHuffmanCode (922,825 samples, 0.21%)</title><rect x="81.8" y="261" width="2.5" height="15.0" fill="rgb(230,116,27)" rx="2" ry="2" />
<text  x="84.83" y="271.5" ></text>
</g>
<g >
<title>HU4_C (1,848,066 samples, 0.42%)</title><rect x="74.4" y="261" width="5.0" height="15.0" fill="rgb(216,54,13)" rx="2" ry="2" />
<text  x="77.41" y="271.5" ></text>
</g>
<g >
<title>ReconstructRow (1,847,807 samples, 0.42%)</title><rect x="84.3" y="261" width="4.9" height="15.0" fill="rgb(225,93,22)" rx="2" ry="2" />
<text  x="87.30" y="271.5" ></text>
</g>
<g >
<title>BuildHuffmanTable (923,747 samples, 0.21%)</title><rect x="10.0" y="261" width="2.5" height="15.0" fill="rgb(226,101,24)" rx="2" ry="2" />
<text  x="13.00" y="271.5" ></text>
</g>
<g >
<title>do_syscall_64 (705,005 samples, 0.16%)</title><rect x="1174.7" y="229" width="1.9" height="15.0" fill="rgb(209,20,4)" rx="2" ry="2" />
<text  x="1177.70" y="239.5" ></text>
</g>
<g >
<title>UpsampleRgbaLinePair_SSE2 (1,848,068 samples, 0.42%)</title><rect x="478.0" y="245" width="5.0" height="15.0" fill="rgb(243,178,42)" rx="2" ry="2" />
<text  x="481.01" y="255.5" ></text>
</g>
<g >
<title>__libc_write (924,189 samples, 0.21%)</title><rect x="1170.9" y="245" width="2.5" height="15.0" fill="rgb(238,154,37)" rx="2" ry="2" />
<text  x="1173.94" y="255.5" ></text>
</g>
<g >
<title>[unknown] (192,808,454 samples, 43.72%)</title><rect x="653.8" y="245" width="515.9" height="15.0" fill="rgb(210,24,5)" rx="2" ry="2" />
<text  x="656.83" y="255.5" >[unknown]</text>
</g>
<g >
<title>balance_dirty_pages (924,189 samples, 0.21%)</title><rect x="1170.9" y="117" width="2.5" height="15.0" fill="rgb(247,193,46)" rx="2" ry="2" />
<text  x="1173.94" y="127.5" ></text>
</g>
<g >
<title>__alloc_pages (462,069 samples, 0.10%)</title><rect x="160.6" y="133" width="1.3" height="15.0" fill="rgb(233,129,30)" rx="2" ry="2" />
<text  x="163.63" y="143.5" ></text>
</g>
<g >
<title>LD4_SSE2 (924,040 samples, 0.21%)</title><rect x="79.4" y="261" width="2.4" height="15.0" fill="rgb(242,173,41)" rx="2" ry="2" />
<text  x="82.35" y="271.5" ></text>
</g>
<g >
<title>HFilter8_SSE2 (3,695,785 samples, 0.84%)</title><rect x="423.9" y="245" width="9.9" height="15.0" fill="rgb(215,48,11)" rx="2" ry="2" />
<text  x="426.92" y="255.5" ></text>
</g>
<g >
<title>handle_mm_fault (381,085 samples, 0.09%)</title><rect x="1168.7" y="165" width="1.0" height="15.0" fill="rgb(234,135,32)" rx="2" ry="2" />
<text  x="1171.70" y="175.5" ></text>
</g>
<g >
<title>ShiftBytes (1,846,136 samples, 0.42%)</title><rect x="1159.2" y="229" width="5.0" height="15.0" fill="rgb(216,52,12)" rx="2" ry="2" />
<text  x="1162.24" y="239.5" ></text>
</g>
<g >
<title>ReadHuffmanCodesHelper (923,381 samples, 0.21%)</title><rect x="1156.8" y="229" width="2.4" height="15.0" fill="rgb(209,22,5)" rx="2" ry="2" />
<text  x="1159.77" y="239.5" ></text>
</g>
<g >
<title>DecodeImageData (13,764,998 samples, 3.12%)</title><rect x="653.8" y="229" width="36.9" height="15.0" fill="rgb(254,229,54)" rx="2" ry="2" />
<text  x="656.83" y="239.5" >Dec..</text>
</g>
<g >
<title>ext4_buffered_write_iter (924,189 samples, 0.21%)</title><rect x="1170.9" y="165" width="2.5" height="15.0" fill="rgb(213,40,9)" rx="2" ry="2" />
<text  x="1173.94" y="175.5" ></text>
</g>
<g >
<title>TransformUV_C (924,320 samples, 0.21%)</title><rect x="460.7" y="245" width="2.5" height="15.0" fill="rgb(236,146,34)" rx="2" ry="2" />
<text  x="463.70" y="255.5" ></text>
</g>
<g >
<title>do_user_addr_fault (360,817 samples, 0.08%)</title><rect x="1173.7" y="85" width="1.0" height="15.0" fill="rgb(228,108,25)" rx="2" ry="2" />
<text  x="1176.74" y="95.5" ></text>
</g>
<g >
<title>clear_page_rep (462,069 samples, 0.10%)</title><rect x="160.6" y="101" width="1.3" height="15.0" fill="rgb(253,221,52)" rx="2" ry="2" />
<text  x="163.63" y="111.5" ></text>
</g>
<g >
<title>__memmove_avx_unaligned_erms (4,981,906 samples, 1.13%)</title><rect x="1176.6" y="261" width="13.3" height="15.0" fill="rgb(205,0,0)" rx="2" ry="2" />
<text  x="1179.59" y="271.5" ></text>
</g>
<g >
<title>vfs_write (924,189 samples, 0.21%)</title><rect x="1170.9" y="181" width="2.5" height="15.0" fill="rgb(250,209,50)" rx="2" ry="2" />
<text  x="1173.94" y="191.5" ></text>
</g>
<g >
<title>begin_new_exec (119,133 samples, 0.03%)</title><rect x="1173.4" y="149" width="0.3" height="15.0" fill="rgb(245,184,44)" rx="2" ry="2" />
<text  x="1176.42" y="159.5" ></text>
</g>
<g >
<title>__mem_cgroup_flush_stats (924,189 samples, 0.21%)</title><rect x="1170.9" y="85" width="2.5" height="15.0" fill="rgb(208,16,3)" rx="2" ry="2" />
<text  x="1173.94" y="95.5" ></text>
</g>
<g >
<title>ExtractGreen_SSE2 (3,694,902 samples, 0.84%)</title><rect x="63.1" y="261" width="9.9" height="15.0" fill="rgb(226,96,23)" rx="2" ry="2" />
<text  x="66.08" y="271.5" ></text>
</g>
<g >
<title>exc_page_fault (360,817 samples, 0.08%)</title><rect x="1173.7" y="101" width="1.0" height="15.0" fill="rgb(212,35,8)" rx="2" ry="2" />
<text  x="1176.74" y="111.5" ></text>
</g>
<g >
<title>bprm_execve (479,950 samples, 0.11%)</title><rect x="1173.4" y="181" width="1.3" height="15.0" fill="rgb(218,61,14)" rx="2" ry="2" />
<text  x="1176.42" y="191.5" ></text>
</g>
<g >
<title>DC16_SSE2 (924,106 samples, 0.21%)</title><rect x="240.9" y="245" width="2.5" height="15.0" fill="rgb(221,75,17)" rx="2" ry="2" />
<text  x="243.92" y="255.5" ></text>
</g>
<g >
<title>HE8uv_C (923,693 samples, 0.21%)</title><rect x="389.3" y="245" width="2.5" height="15.0" fill="rgb(226,98,23)" rx="2" ry="2" />
<text  x="392.31" y="255.5" ></text>
</g>
<g >
<title>generic_perform_write (924,189 samples, 0.21%)</title><rect x="1170.9" y="149" width="2.5" height="15.0" fill="rgb(236,146,35)" rx="2" ry="2" />
<text  x="1173.94" y="159.5" ></text>
</g>
<g >
<title>get_page_from_freelist (381,085 samples, 0.09%)</title><rect x="1168.7" y="85" width="1.0" height="15.0" fill="rgb(252,218,52)" rx="2" ry="2" />
<text  x="1171.70" y="95.5" ></text>
</g>
<g >
<title>VFilter16i_SSE2 (3,693,909 samples, 0.84%)</title><rect x="164.3" y="261" width="9.9" height="15.0" fill="rgb(243,175,42)" rx="2" ry="2" />
<text  x="167.33" y="271.5" ></text>
</g>
<g >
<title>TM16_SSE2 (812,351 samples, 0.18%)</title><rect x="456.1" y="245" width="2.1" height="15.0" fill="rgb(253,222,53)" rx="2" ry="2" />
<text  x="459.05" y="255.5" ></text>
</g>
<g >
<title>VP8ParseIntraModeRow (3,694,877 samples, 0.84%)</title><rect x="203.9" y="261" width="9.8" height="15.0" fill="rgb(231,121,29)" rx="2" ry="2" />
<text  x="206.86" y="271.5" ></text>
</g>
<g >
<title>exc_page_fault (462,069 samples, 0.10%)</title><rect x="160.6" y="229" width="1.3" height="15.0" fill="rgb(212,35,8)" rx="2" ry="2" />
<text  x="163.63" y="239.5" ></text>
</g>
<g >
<title>flush_signal_handlers (119,133 samples, 0.03%)</title><rect x="1173.4" y="133" width="0.3" height="15.0" fill="rgb(253,221,53)" rx="2" ry="2" />
<text  x="1176.42" y="143.5" ></text>
</g>
<g >
<title>TransformAC3_C (4,566,828 samples, 1.04%)</title><rect x="96.7" y="261" width="12.2" height="15.0" fill="rgb(209,19,4)" rx="2" ry="2" />
<text  x="99.65" y="271.5" ></text>
</g>
<g >
<title>cgroup_rstat_flush_locked (924,189 samples, 0.21%)</title><rect x="1170.9" y="53" width="2.5" height="15.0" fill="rgb(209,19,4)" rx="2" ry="2" />
<text  x="1173.94" y="63.5" ></text>
</g>
<g >
<title>HFilter16i_SSE2 (7,388,610 samples, 1.68%)</title><rect x="404.1" y="245" width="19.8" height="15.0" fill="rgb(233,131,31)" rx="2" ry="2" />
<text  x="407.15" y="255.5" ></text>
</g>
<g >
<title>entry_SYSCALL_64_after_hwframe (924,189 samples, 0.21%)</title><rect x="1170.9" y="229" width="2.5" height="15.0" fill="rgb(218,63,15)" rx="2" ry="2" />
<text  x="1173.94" y="239.5" ></text>
</g>
<g >
<title>_raw_spin_lock_irqsave (924,189 samples, 0.21%)</title><rect x="1170.9" y="37" width="2.5" height="15.0" fill="rgb(247,195,46)" rx="2" ry="2" />
<text  x="1173.94" y="47.5" ></text>
</g>
<g >
<title>GetCoeffsFast (540,303 samples, 0.12%)</title><rect x="73.0" y="261" width="1.4" height="15.0" fill="rgb(219,64,15)" rx="2" ry="2" />
<text  x="75.96" y="271.5" ></text>
</g>
<g >
<title>VE4_SSE2 (922,855 samples, 0.21%)</title><rect x="161.9" y="261" width="2.4" height="15.0" fill="rgb(221,76,18)" rx="2" ry="2" />
<text  x="164.86" y="271.5" ></text>
</g>
<g >
<title>VP8DecodeMB (14,228,183 samples, 3.23%)</title><rect x="487.9" y="245" width="38.0" height="15.0" fill="rgb(208,18,4)" rx="2" ry="2" />
<text  x="490.86" y="255.5" >VP8..</text>
</g>
<g >
<title>Transform_SSE2 (12,009,641 samples, 2.72%)</title><rect x="113.7" y="261" width="32.2" height="15.0" fill="rgb(233,129,30)" rx="2" ry="2" />
<text  x="116.75" y="271.5" >Tr..</text>
</g>
<g >
<title>perf_iterate_sb (705,005 samples, 0.16%)</title><rect x="1174.7" y="165" width="1.9" height="15.0" fill="rgb(244,179,42)" rx="2" ry="2" />
<text  x="1177.70" y="175.5" ></text>
</g>
<g >
<title>clear_user_rep_good (360,817 samples, 0.08%)</title><rect x="1173.7" y="133" width="1.0" height="15.0" fill="rgb(224,89,21)" rx="2" ry="2" />
<text  x="1176.74" y="143.5" ></text>
</g>
<g >
<title>entry_SYSCALL_64_after_hwframe (479,950 samples, 0.11%)</title><rect x="1173.4" y="245" width="1.3" height="15.0" fill="rgb(218,63,15)" rx="2" ry="2" />
<text  x="1176.42" y="255.5" ></text>
</g>
<g >
<title>exc_page_fault (381,085 samples, 0.09%)</title><rect x="1168.7" y="197" width="1.0" height="15.0" fill="rgb(212,35,8)" rx="2" ry="2" />
<text  x="1171.70" y="207.5" ></text>
</g>
<g >
<title>do_brk_flags (705,005 samples, 0.16%)</title><rect x="1174.7" y="197" width="1.9" height="15.0" fill="rgb(220,73,17)" rx="2" ry="2" />
<text  x="1177.70" y="207.5" ></text>
</g>
<g >
<title>clear_page_rep (381,085 samples, 0.09%)</title><rect x="1168.7" y="69" width="1.0" height="15.0" fill="rgb(253,221,52)" rx="2" ry="2" />
<text  x="1171.70" y="79.5" ></text>
</g>
<g >
<title>asm_exc_page_fault (1,148,918 samples, 0.26%)</title><rect x="1166.7" y="213" width="3.0" height="15.0" fill="rgb(225,93,22)" rx="2" ry="2" />
<text  x="1169.65" y="223.5" ></text>
</g>
<g >
<title>__x64_sys_execve (479,950 samples, 0.11%)</title><rect x="1173.4" y="213" width="1.3" height="15.0" fill="rgb(247,193,46)" rx="2" ry="2" />
<text  x="1176.42" y="223.5" ></text>
</g>
<g >
<title>VP8ParseProba (1,846,455 samples, 0.42%)</title><rect x="213.7" y="261" width="5.0" height="15.0" fill="rgb(224,88,21)" rx="2" ry="2" />
<text  x="216.74" y="271.5" ></text>
</g>
<g >
<title>TM4_SSE2 (2,770,943 samples, 0.63%)</title><rect x="89.2" y="261" width="7.5" height="15.0" fill="rgb(232,128,30)" rx="2" ry="2" />
<text  x="92.24" y="271.5" ></text>
</g>
<g >
<title>VP8ParseIntraModeRow (47,801,862 samples, 10.84%)</title><rect x="525.9" y="245" width="127.9" height="15.0" fill="rgb(231,121,29)" rx="2" ry="2" />
<text  x="528.93" y="255.5" >VP8ParseIntraMod..</text>
</g>
<g >
<title>do_execveat_common.isra.0 (479,950 samples, 0.11%)</title><rect x="1173.4" y="197" width="1.3" height="15.0" fill="rgb(231,123,29)" rx="2" ry="2" />
<text  x="1176.42" y="207.5" ></text>
</g>
<g >
<title>handle_mm_fault (462,069 samples, 0.10%)</title><rect x="160.6" y="197" width="1.3" height="15.0" fill="rgb(234,135,32)" rx="2" ry="2" />
<text  x="163.63" y="207.5" ></text>
</g>
<g >
<title>entry_SYSCALL_64_after_hwframe (705,005 samples, 0.16%)</title><rect x="1174.7" y="245" width="1.9" height="15.0" fill="rgb(218,63,15)" rx="2" ry="2" />
<text  x="1177.70" y="255.5" ></text>
</g>
<g >
<title>__libc_start_call_main (456,063 samples, 0.10%)</title><rect x="1169.7" y="229" width="1.2" height="15.0" fill="rgb(210,26,6)" rx="2" ry="2" />
<text  x="1172.72" y="239.5" ></text>
</g>
<g >
<title>padzero (360,817 samples, 0.08%)</title><rect x="1173.7" y="149" width="1.0" height="15.0" fill="rgb(223,84,20)" rx="2" ry="2" />
<text  x="1176.74" y="159.5" ></text>
</g>
<g >
<title>__alloc_pages (381,085 samples, 0.09%)</title><rect x="1168.7" y="101" width="1.0" height="15.0" fill="rgb(233,129,30)" rx="2" ry="2" />
<text  x="1171.70" y="111.5" ></text>
</g>
<g >
<title>get_page_from_freelist (462,069 samples, 0.10%)</title><rect x="160.6" y="117" width="1.3" height="15.0" fill="rgb(252,218,52)" rx="2" ry="2" />
<text  x="163.63" y="127.5" ></text>
</g>
<g >
<title>load_elf_binary (479,950 samples, 0.11%)</title><rect x="1173.4" y="165" width="1.3" height="15.0" fill="rgb(223,83,20)" rx="2" ry="2" />
<text  x="1176.42" y="175.5" ></text>
</g>
<g >
<title>__memmove_avx_unaligned_erms (2,073,168 samples, 0.47%)</title><rect x="1164.2" y="229" width="5.5" height="15.0" fill="rgb(205,0,0)" rx="2" ry="2" />
<text  x="1167.18" y="239.5" ></text>
</g>
<g >
<title>vma_alloc_folio (381,085 samples, 0.09%)</title><rect x="1168.7" y="133" width="1.0" height="15.0" fill="rgb(245,187,44)" rx="2" ry="2" />
<text  x="1171.70" y="143.5" ></text>
</g>
<g >
<title>__brk (705,005 samples, 0.16%)</title><rect x="1174.7" y="261" width="1.9" height="15.0" fill="rgb(225,94,22)" rx="2" ry="2" />
<text  x="1177.70" y="271.5" ></text>
</g>
<g >
<title>FinishRow (1,585,935 samples, 0.36%)</title><rect x="265.6" y="245" width="4.3" height="15.0" fill="rgb(213,41,9)" rx="2" ry="2" />
<text  x="268.64" y="255.5" ></text>
</g>
<g >
<title>UpsampleRgbaLinePair_SSE2 (5,049,983 samples, 1.15%)</title><rect x="148.4" y="261" width="13.5" height="15.0" fill="rgb(243,178,42)" rx="2" ry="2" />
<text  x="151.35" y="271.5" ></text>
</g>
<g >
<title>GetCoeffsFast (172,485,270 samples, 39.11%)</title><rect x="690.7" y="229" width="461.5" height="15.0" fill="rgb(219,64,15)" rx="2" ry="2" />
<text  x="693.66" y="239.5" >GetCoeffsFast</text>
</g>
<g >
<title>GetLargeValue (1,715,501 samples, 0.39%)</title><rect x="1152.2" y="229" width="4.6" height="15.0" fill="rgb(243,175,42)" rx="2" ry="2" />
<text  x="1155.18" y="239.5" ></text>
</g>
<g >
<title>VFilter8_SSE2 (1,834,726 samples, 0.42%)</title><rect x="483.0" y="245" width="4.9" height="15.0" fill="rgb(225,92,22)" rx="2" ry="2" />
<text  x="485.95" y="255.5" ></text>
</g>
<g >
<title>DC8uv_SSE2 (1,847,343 samples, 0.42%)</title><rect x="243.4" y="245" width="4.9" height="15.0" fill="rgb(206,8,2)" rx="2" ry="2" />
<text  x="246.39" y="255.5" ></text>
</g>
<g >
<title>ksys_write (924,189 samples, 0.21%)</title><rect x="1170.9" y="197" width="2.5" height="15.0" fill="rgb(205,4,1)" rx="2" ry="2" />
<text  x="1173.94" y="207.5" ></text>
</g>
<g >
<title>do_user_addr_fault (462,069 samples, 0.10%)</title><rect x="160.6" y="213" width="1.3" height="15.0" fill="rgb(228,108,25)" rx="2" ry="2" />
<text  x="163.63" y="223.5" ></text>
</g>
</g>
</svg>
