<?xml version="1.0" standalone="no"?>
<!DOCTYPE svg PUBLIC "-//W3C//DTD SVG 1.1//EN" "http://www.w3.org/Graphics/SVG/1.1/DTD/svg11.dtd">
<svg version="1.1" width="1200" height="326" onload="init(evt)" viewBox="0 0 1200 326" xmlns="http://www.w3.org/2000/svg" xmlns:xlink="http://www.w3.org/1999/xlink">
<!-- Flame graph stack visualization. See https://github.com/brendangregg/FlameGraph for latest version, and http://www.brendangregg.com/flamegraphs.html for examples. -->
<!-- NOTES:  -->
<defs>
	<linearGradient id="background" y1="0" y2="1" x1="0" x2="0" >
		<stop stop-color="#eeeeee" offset="5%" />
		<stop stop-color="#eeeeb0" offset="95%" />
	</linearGradient>
</defs>
<style type="text/css">
	text { font-family:Verdana; font-size:12px; fill:rgb(0,0,0); }
	#search, #ignorecase { opacity:0.1; cursor:pointer; }
	#search:hover, #search.show, #ignorecase:hover, #ignorecase.show { opacity:1; }
	#subtitle { text-anchor:middle; font-color:rgb(160,160,160); }
	#title { text-anchor:middle; font-size:17px}
	#unzoom { cursor:pointer; }
	#frames > *:hover { stroke:black; stroke-width:0.5; cursor:pointer; }
	.hide { display:none; }
	.parent { opacity:0.5; }
</style>
<script type="text/ecmascript">
<![CDATA[
	"use strict";
	var details, searchbtn, unzoombtn, matchedtxt, svg, searching, currentSearchTerm, ignorecase, ignorecaseBtn;
	function init(evt) {
		details = document.getElementById("details").firstChild;
		searchbtn = document.getElementById("search");
		ignorecaseBtn = document.getElementById("ignorecase");
		unzoombtn = document.getElementById("unzoom");
		matchedtxt = document.getElementById("matched");
		svg = document.getElementsByTagName("svg")[0];
		searching = 0;
		currentSearchTerm = null;

		// use GET parameters to restore a flamegraphs state.
		var params = get_params();
		if (params.x && params.y)
			zoom(find_group(document.querySelector('[x="' + params.x + '"][y="' + params.y + '"]')));
                if (params.s) search(params.s);
	}

	// event listeners
	window.addEventListener("click", function(e) {
		var target = find_group(e.target);
		if (target) {
			if (target.nodeName == "a") {
				if (e.ctrlKey === false) return;
				e.preventDefault();
			}
			if (target.classList.contains("parent")) unzoom(true);
			zoom(target);
			if (!document.querySelector('.parent')) {
				// we have basically done a clearzoom so clear the url
				var params = get_params();
				if (params.x) delete params.x;
				if (params.y) delete params.y;
				history.replaceState(null, null, parse_params(params));
				unzoombtn.classList.add("hide");
				return;
			}

			// set parameters for zoom state
			var el = target.querySelector("rect");
			if (el && el.attributes && el.attributes.y && el.attributes._orig_x) {
				var params = get_params()
				params.x = el.attributes._orig_x.value;
				params.y = el.attributes.y.value;
				history.replaceState(null, null, parse_params(params));
			}
		}
		else if (e.target.id == "unzoom") clearzoom();
		else if (e.target.id == "search") search_prompt();
		else if (e.target.id == "ignorecase") toggle_ignorecase();
	}, false)

	// mouse-over for info
	// show
	window.addEventListener("mouseover", function(e) {
		var target = find_group(e.target);
		if (target) details.nodeValue = "Function: " + g_to_text(target);
	}, false)

	// clear
	window.addEventListener("mouseout", function(e) {
		var target = find_group(e.target);
		if (target) details.nodeValue = ' ';
	}, false)

	// ctrl-F for search
	// ctrl-I to toggle case-sensitive search
	window.addEventListener("keydown",function (e) {
		if (e.keyCode === 114 || (e.ctrlKey && e.keyCode === 70)) {
			e.preventDefault();
			search_prompt();
		}
		else if (e.ctrlKey && e.keyCode === 73) {
			e.preventDefault();
			toggle_ignorecase();
		}
	}, false)

	// functions
	function get_params() {
		var params = {};
		var paramsarr = window.location.search.substr(1).split('&');
		for (var i = 0; i < paramsarr.length; ++i) {
			var tmp = paramsarr[i].split("=");
			if (!tmp[0] || !tmp[1]) continue;
			params[tmp[0]]  = decodeURIComponent(tmp[1]);
		}
		return params;
	}
	function parse_params(params) {
		var uri = "?";
		for (var key in params) {
			uri += key + '=' + encodeURIComponent(params[key]) + '&';
		}
		if (uri.slice(-1) == "&")
			uri = uri.substring(0, uri.length - 1);
		if (uri == '?')
			uri = window.location.href.split('?')[0];
		return uri;
	}
	function find_child(node, selector) {
		var children = node.querySelectorAll(selector);
		if (children.length) return children[0];
	}
	function find_group(node) {
		var parent = node.parentElement;
		if (!parent) return;
		if (parent.id == "frames") return node;
		return find_group(parent);
	}
	function orig_save(e, attr, val) {
		if (e.attributes["_orig_" + attr] != undefined) return;
		if (e.attributes[attr] == undefined) return;
		if (val == undefined) val = e.attributes[attr].value;
		e.setAttribute("_orig_" + attr, val);
	}
	function orig_load(e, attr) {
		if (e.attributes["_orig_"+attr] == undefined) return;
		e.attributes[attr].value = e.attributes["_orig_" + attr].value;
		e.removeAttribute("_orig_"+attr);
	}
	function g_to_text(e) {
		var text = find_child(e, "title").firstChild.nodeValue;
		return (text)
	}
	function g_to_func(e) {
		var func = g_to_text(e);
		// if there's any manipulation we want to do to the function
		// name before it's searched, do it here before returning.
		return (func);
	}
	function update_text(e) {
		var r = find_child(e, "rect");
		var t = find_child(e, "text");
		var w = parseFloat(r.attributes.width.value) -3;
		var txt = find_child(e, "title").textContent.replace(/\([^(]*\)$/,"");
		t.attributes.x.value = parseFloat(r.attributes.x.value) + 3;

		// Smaller than this size won't fit anything
		if (w < 2 * 12 * 0.59) {
			t.textContent = "";
			return;
		}

		t.textContent = txt;
		var sl = t.getSubStringLength(0, txt.length);
		// check if only whitespace or if we can fit the entire string into width w
		if (/^ *$/.test(txt) || sl < w)
			return;

		// this isn't perfect, but gives a good starting point
		// and avoids calling getSubStringLength too often
		var start = Math.floor((w/sl) * txt.length);
		for (var x = start; x > 0; x = x-2) {
			if (t.getSubStringLength(0, x + 2) <= w) {
				t.textContent = txt.substring(0, x) + "..";
				return;
			}
		}
		t.textContent = "";
	}

	// zoom
	function zoom_reset(e) {
		if (e.attributes != undefined) {
			orig_load(e, "x");
			orig_load(e, "width");
		}
		if (e.childNodes == undefined) return;
		for (var i = 0, c = e.childNodes; i < c.length; i++) {
			zoom_reset(c[i]);
		}
	}
	function zoom_child(e, x, ratio) {
		if (e.attributes != undefined) {
			if (e.attributes.x != undefined) {
				orig_save(e, "x");
				e.attributes.x.value = (parseFloat(e.attributes.x.value) - x - 10) * ratio + 10;
				if (e.tagName == "text")
					e.attributes.x.value = find_child(e.parentNode, "rect[x]").attributes.x.value + 3;
			}
			if (e.attributes.width != undefined) {
				orig_save(e, "width");
				e.attributes.width.value = parseFloat(e.attributes.width.value) * ratio;
			}
		}

		if (e.childNodes == undefined) return;
		for (var i = 0, c = e.childNodes; i < c.length; i++) {
			zoom_child(c[i], x - 10, ratio);
		}
	}
	function zoom_parent(e) {
		if (e.attributes) {
			if (e.attributes.x != undefined) {
				orig_save(e, "x");
				e.attributes.x.value = 10;
			}
			if (e.attributes.width != undefined) {
				orig_save(e, "width");
				e.attributes.width.value = parseInt(svg.width.baseVal.value) - (10 * 2);
			}
		}
		if (e.childNodes == undefined) return;
		for (var i = 0, c = e.childNodes; i < c.length; i++) {
			zoom_parent(c[i]);
		}
	}
	function zoom(node) {
		var attr = find_child(node, "rect").attributes;
		var width = parseFloat(attr.width.value);
		var xmin = parseFloat(attr.x.value);
		var xmax = parseFloat(xmin + width);
		var ymin = parseFloat(attr.y.value);
		var ratio = (svg.width.baseVal.value - 2 * 10) / width;

		// XXX: Workaround for JavaScript float issues (fix me)
		var fudge = 0.0001;

		unzoombtn.classList.remove("hide");

		var el = document.getElementById("frames").children;
		for (var i = 0; i < el.length; i++) {
			var e = el[i];
			var a = find_child(e, "rect").attributes;
			var ex = parseFloat(a.x.value);
			var ew = parseFloat(a.width.value);
			var upstack;
			// Is it an ancestor
			if (0 == 0) {
				upstack = parseFloat(a.y.value) > ymin;
			} else {
				upstack = parseFloat(a.y.value) < ymin;
			}
			if (upstack) {
				// Direct ancestor
				if (ex <= xmin && (ex+ew+fudge) >= xmax) {
					e.classList.add("parent");
					zoom_parent(e);
					update_text(e);
				}
				// not in current path
				else
					e.classList.add("hide");
			}
			// Children maybe
			else {
				// no common path
				if (ex < xmin || ex + fudge >= xmax) {
					e.classList.add("hide");
				}
				else {
					zoom_child(e, xmin, ratio);
					update_text(e);
				}
			}
		}
		search();
	}
	function unzoom(dont_update_text) {
		unzoombtn.classList.add("hide");
		var el = document.getElementById("frames").children;
		for(var i = 0; i < el.length; i++) {
			el[i].classList.remove("parent");
			el[i].classList.remove("hide");
			zoom_reset(el[i]);
			if(!dont_update_text) update_text(el[i]);
		}
		search();
	}
	function clearzoom() {
		unzoom();

		// remove zoom state
		var params = get_params();
		if (params.x) delete params.x;
		if (params.y) delete params.y;
		history.replaceState(null, null, parse_params(params));
	}

	// search
	function toggle_ignorecase() {
		ignorecase = !ignorecase;
		if (ignorecase) {
			ignorecaseBtn.classList.add("show");
		} else {
			ignorecaseBtn.classList.remove("show");
		}
		reset_search();
		search();
	}
	function reset_search() {
		var el = document.querySelectorAll("#frames rect");
		for (var i = 0; i < el.length; i++) {
			orig_load(el[i], "fill")
		}
		var params = get_params();
		delete params.s;
		history.replaceState(null, null, parse_params(params));
	}
	function search_prompt() {
		if (!searching) {
			var term = prompt("Enter a search term (regexp " +
			    "allowed, eg: ^ext4_)"
			    + (ignorecase ? ", ignoring case" : "")
			    + "\nPress Ctrl-i to toggle case sensitivity", "");
			if (term != null) search(term);
		} else {
			reset_search();
			searching = 0;
			currentSearchTerm = null;
			searchbtn.classList.remove("show");
			searchbtn.firstChild.nodeValue = "Search"
			matchedtxt.classList.add("hide");
			matchedtxt.firstChild.nodeValue = ""
		}
	}
	function search(term) {
		if (term) currentSearchTerm = term;

		var re = new RegExp(currentSearchTerm, ignorecase ? 'i' : '');
		var el = document.getElementById("frames").children;
		var matches = new Object();
		var maxwidth = 0;
		for (var i = 0; i < el.length; i++) {
			var e = el[i];
			var func = g_to_func(e);
			var rect = find_child(e, "rect");
			if (func == null || rect == null)
				continue;

			// Save max width. Only works as we have a root frame
			var w = parseFloat(rect.attributes.width.value);
			if (w > maxwidth)
				maxwidth = w;

			if (func.match(re)) {
				// highlight
				var x = parseFloat(rect.attributes.x.value);
				orig_save(rect, "fill");
				rect.attributes.fill.value = "rgb(230,0,230)";

				// remember matches
				if (matches[x] == undefined) {
					matches[x] = w;
				} else {
					if (w > matches[x]) {
						// overwrite with parent
						matches[x] = w;
					}
				}
				searching = 1;
			}
		}
		if (!searching)
			return;
		var params = get_params();
		params.s = currentSearchTerm;
		history.replaceState(null, null, parse_params(params));

		searchbtn.classList.add("show");
		searchbtn.firstChild.nodeValue = "Reset Search";

		// calculate percent matched, excluding vertical overlap
		var count = 0;
		var lastx = -1;
		var lastw = 0;
		var keys = Array();
		for (k in matches) {
			if (matches.hasOwnProperty(k))
				keys.push(k);
		}
		// sort the matched frames by their x location
		// ascending, then width descending
		keys.sort(function(a, b){
			return a - b;
		});
		// Step through frames saving only the biggest bottom-up frames
		// thanks to the sort order. This relies on the tree property
		// where children are always smaller than their parents.
		var fudge = 0.0001;	// JavaScript floating point
		for (var k in keys) {
			var x = parseFloat(keys[k]);
			var w = matches[keys[k]];
			if (x >= lastx + lastw - fudge) {
				count += w;
				lastx = x;
				lastw = w;
			}
		}
		// display matched percent
		matchedtxt.classList.remove("hide");
		var pct = 100 * count / maxwidth;
		if (pct != 100) pct = pct.toFixed(1)
		matchedtxt.firstChild.nodeValue = "Matched: " + pct + "%";
	}
]]>
</script>
<rect x="0.0" y="0" width="1200.0" height="326.0" fill="url(#background)"  />
<text id="title" x="600.00" y="24" >Flame Graph</text>
<text id="details" x="10.00" y="309" > </text>
<text id="unzoom" x="10.00" y="24" class="hide">Reset Zoom</text>
<text id="search" x="1090.00" y="24" >Search</text>
<text id="ignorecase" x="1174.00" y="24" >ic</text>
<text id="matched" x="1090.00" y="309" > </text>
<g id="frames">
<g >
<title>w2c_decode__webp__wasmsimd_VP8GetValue (2,771,356 samples, 0.27%)</title><rect x="1180.5" y="245" width="3.1" height="15.0" fill="rgb(222,81,19)" rx="2" ry="2" />
<text  x="1183.48" y="255.5" ></text>
</g>
<g >
<title>do_syscall_64 (475,556 samples, 0.05%)</title><rect x="10.5" y="213" width="0.6" height="15.0" fill="rgb(209,20,4)" rx="2" ry="2" />
<text  x="13.53" y="223.5" ></text>
</g>
<g >
<title>__softirqentry_text_start (924,366 samples, 0.09%)</title><rect x="1177.3" y="181" width="1.1" height="15.0" fill="rgb(234,135,32)" rx="2" ry="2" />
<text  x="1180.32" y="191.5" ></text>
</g>
<g >
<title>w2c_decode__webp__wasmsimd_HE8uv_C (924,080 samples, 0.09%)</title><rect x="37.4" y="229" width="1.0" height="15.0" fill="rgb(218,60,14)" rx="2" ry="2" />
<text  x="40.39" y="239.5" ></text>
</g>
<g >
<title>w2c_decode__webp__wasmsimd_FilterLoop26_C (2,772,441 samples, 0.27%)</title><rect x="29.0" y="229" width="3.1" height="15.0" fill="rgb(222,78,18)" rx="2" ry="2" />
<text  x="31.98" y="239.5" ></text>
</g>
<g >
<title>perf_iterate_ctx (360,084 samples, 0.03%)</title><rect x="10.7" y="85" width="0.4" height="15.0" fill="rgb(205,4,0)" rx="2" ry="2" />
<text  x="13.66" y="95.5" ></text>
</g>
<g >
<title>hrtimer_interrupt (924,365 samples, 0.09%)</title><rect x="802.6" y="181" width="1.1" height="15.0" fill="rgb(228,109,26)" rx="2" ry="2" />
<text  x="805.62" y="191.5" ></text>
</g>
<g >
<title>fq_flush_timeout (924,366 samples, 0.09%)</title><rect x="1177.3" y="117" width="1.1" height="15.0" fill="rgb(213,40,9)" rx="2" ry="2" />
<text  x="1180.32" y="127.5" ></text>
</g>
<g >
<title>__install_special_mapping (360,084 samples, 0.03%)</title><rect x="10.7" y="117" width="0.4" height="15.0" fill="rgb(212,35,8)" rx="2" ry="2" />
<text  x="13.66" y="127.5" ></text>
</g>
<g >
<title>sysvec_apic_timer_interrupt (924,365 samples, 0.09%)</title><rect x="802.6" y="213" width="1.1" height="15.0" fill="rgb(220,69,16)" rx="2" ry="2" />
<text  x="805.62" y="223.5" ></text>
</g>
<g >
<title>decode_webp_was (1,034,376,134 samples, 100.00%)</title><rect x="10.0" y="261" width="1180.0" height="15.0" fill="rgb(216,54,12)" rx="2" ry="2" />
<text  x="13.00" y="271.5" >decode_webp_was</text>
</g>
<g >
<title>fq_flush_timeout (924,274 samples, 0.09%)</title><rect x="672.8" y="117" width="1.0" height="15.0" fill="rgb(213,40,9)" rx="2" ry="2" />
<text  x="675.76" y="127.5" ></text>
</g>
<g >
<title>fq_flush_iotlb (924,274 samples, 0.09%)</title><rect x="672.8" y="101" width="1.0" height="15.0" fill="rgb(244,182,43)" rx="2" ry="2" />
<text  x="675.76" y="111.5" ></text>
</g>
<g >
<title>asm_sysvec_apic_timer_interrupt (924,397 samples, 0.09%)</title><rect x="381.9" y="229" width="1.1" height="15.0" fill="rgb(232,127,30)" rx="2" ry="2" />
<text  x="384.92" y="239.5" ></text>
</g>
<g >
<title>iommu_completion_wait.isra.0 (924,274 samples, 0.09%)</title><rect x="672.8" y="69" width="1.0" height="15.0" fill="rgb(225,94,22)" rx="2" ry="2" />
<text  x="675.76" y="79.5" ></text>
</g>
<g >
<title>w2c_decode__webp__wasmsimd_HFilter8_C (923,078 samples, 0.09%)</title><rect x="38.4" y="229" width="1.1" height="15.0" fill="rgb(215,48,11)" rx="2" ry="2" />
<text  x="41.45" y="239.5" ></text>
</g>
<g >
<title>delay_halt_mwaitx (924,274 samples, 0.09%)</title><rect x="672.8" y="37" width="1.0" height="15.0" fill="rgb(234,133,31)" rx="2" ry="2" />
<text  x="675.76" y="47.5" ></text>
</g>
<g >
<title>delay_halt_mwaitx (924,397 samples, 0.09%)</title><rect x="381.9" y="37" width="1.1" height="15.0" fill="rgb(234,133,31)" rx="2" ry="2" />
<text  x="384.92" y="47.5" ></text>
</g>
<g >
<title>w2c_decode__webp__wasmsimd_FilterLoop24_C (1,848,521 samples, 0.18%)</title><rect x="26.9" y="229" width="2.1" height="15.0" fill="rgb(234,137,32)" rx="2" ry="2" />
<text  x="29.87" y="239.5" ></text>
</g>
<g >
<title>__sysvec_apic_timer_interrupt (924,397 samples, 0.09%)</title><rect x="381.9" y="197" width="1.1" height="15.0" fill="rgb(242,173,41)" rx="2" ry="2" />
<text  x="384.92" y="207.5" ></text>
</g>
<g >
<title>sysvec_apic_timer_interrupt (923,872 samples, 0.09%)</title><rect x="899.0" y="213" width="1.0" height="15.0" fill="rgb(220,69,16)" rx="2" ry="2" />
<text  x="901.96" y="223.5" ></text>
</g>
<g >
<title>w2c_decode__webp__wasmsimd_VFilter16i_C (1,847,256 samples, 0.18%)</title><rect x="1178.4" y="245" width="2.1" height="15.0" fill="rgb(243,175,42)" rx="2" ry="2" />
<text  x="1181.37" y="255.5" ></text>
</g>
<g >
<title>w2c_decode__webp__wasmsimd_VP8ParseProba (3,695,264 samples, 0.36%)</title><rect x="1185.8" y="245" width="4.2" height="15.0" fill="rgb(216,51,12)" rx="2" ry="2" />
<text  x="1188.75" y="255.5" ></text>
</g>
<g >
<title>__run_timers (924,274 samples, 0.09%)</title><rect x="672.8" y="149" width="1.0" height="15.0" fill="rgb(206,5,1)" rx="2" ry="2" />
<text  x="675.76" y="159.5" ></text>
</g>
<g >
<title>w2c_decode__webp__wasmsimd_TM16_C (12,925,702 samples, 1.25%)</title><rect x="813.2" y="245" width="14.7" height="15.0" fill="rgb(253,222,53)" rx="2" ry="2" />
<text  x="816.15" y="255.5" ></text>
</g>
<g >
<title>w2c_decode__webp__wasmsimd_EmitAlphaRGB (924,258 samples, 0.09%)</title><rect x="146.8" y="245" width="1.1" height="15.0" fill="rgb(223,85,20)" rx="2" ry="2" />
<text  x="149.81" y="255.5" ></text>
</g>
<g >
<title>__softirqentry_text_start (924,354 samples, 0.09%)</title><rect x="76.3" y="165" width="1.1" height="15.0" fill="rgb(234,135,32)" rx="2" ry="2" />
<text  x="79.30" y="175.5" ></text>
</g>
<g >
<title>scheduler_tick (924,365 samples, 0.09%)</title><rect x="802.6" y="101" width="1.1" height="15.0" fill="rgb(246,190,45)" rx="2" ry="2" />
<text  x="805.62" y="111.5" ></text>
</g>
<g >
<title>tick_sched_timer (924,397 samples, 0.09%)</title><rect x="381.9" y="149" width="1.1" height="15.0" fill="rgb(254,227,54)" rx="2" ry="2" />
<text  x="384.92" y="159.5" ></text>
</g>
<g >
<title>w2c_decode__webp__wasmsimd_LD4_C (924,105 samples, 0.09%)</title><rect x="47.9" y="229" width="1.1" height="15.0" fill="rgb(242,173,41)" rx="2" ry="2" />
<text  x="50.93" y="239.5" ></text>
</g>
<g >
<title>w2c_decode__webp__wasmsimd_GetCoeffsFast (1,827,836 samples, 0.18%)</title><rect x="32.1" y="229" width="2.1" height="15.0" fill="rgb(210,26,6)" rx="2" ry="2" />
<text  x="35.14" y="239.5" ></text>
</g>
<g >
<title>__softirqentry_text_start (924,274 samples, 0.09%)</title><rect x="672.8" y="181" width="1.0" height="15.0" fill="rgb(234,135,32)" rx="2" ry="2" />
<text  x="675.76" y="191.5" ></text>
</g>
<g >
<title>map_vdso (360,084 samples, 0.03%)</title><rect x="10.7" y="133" width="0.4" height="15.0" fill="rgb(227,103,24)" rx="2" ry="2" />
<text  x="13.66" y="143.5" ></text>
</g>
<g >
<title>perf_event_task_tick (924,397 samples, 0.09%)</title><rect x="381.9" y="85" width="1.1" height="15.0" fill="rgb(205,3,0)" rx="2" ry="2" />
<text  x="384.92" y="95.5" ></text>
</g>
<g >
<title>asm_sysvec_apic_timer_interrupt (924,366 samples, 0.09%)</title><rect x="1177.3" y="229" width="1.1" height="15.0" fill="rgb(232,127,30)" rx="2" ry="2" />
<text  x="1180.32" y="239.5" ></text>
</g>
<g >
<title>__sysvec_apic_timer_interrupt (924,365 samples, 0.09%)</title><rect x="802.6" y="197" width="1.1" height="15.0" fill="rgb(242,173,41)" rx="2" ry="2" />
<text  x="805.62" y="207.5" ></text>
</g>
<g >
<title>update_process_times (924,397 samples, 0.09%)</title><rect x="381.9" y="117" width="1.1" height="15.0" fill="rgb(250,209,50)" rx="2" ry="2" />
<text  x="384.92" y="127.5" ></text>
</g>
<g >
<title>__x64_sys_execve (475,556 samples, 0.05%)</title><rect x="10.5" y="197" width="0.6" height="15.0" fill="rgb(247,193,46)" rx="2" ry="2" />
<text  x="13.53" y="207.5" ></text>
</g>
<g >
<title>scheduler_tick (924,397 samples, 0.09%)</title><rect x="381.9" y="101" width="1.1" height="15.0" fill="rgb(246,190,45)" rx="2" ry="2" />
<text  x="384.92" y="111.5" ></text>
</g>
<g >
<title>tick_sched_handle (924,365 samples, 0.09%)</title><rect x="802.6" y="133" width="1.1" height="15.0" fill="rgb(219,68,16)" rx="2" ry="2" />
<text  x="805.62" y="143.5" ></text>
</g>
<g >
<title>_int_malloc (460,457 samples, 0.04%)</title><rect x="10.0" y="229" width="0.5" height="15.0" fill="rgb(215,47,11)" rx="2" ry="2" />
<text  x="13.00" y="239.5" ></text>
</g>
<g >
<title>load_balance (924,354 samples, 0.09%)</title><rect x="76.3" y="133" width="1.1" height="15.0" fill="rgb(226,96,23)" rx="2" ry="2" />
<text  x="79.30" y="143.5" ></text>
</g>
<g >
<title>w2c_decode__webp__wasmsimd_ReconstructRow (7,388,386 samples, 0.71%)</title><rect x="804.7" y="245" width="8.5" height="15.0" fill="rgb(217,55,13)" rx="2" ry="2" />
<text  x="807.73" y="255.5" ></text>
</g>
<g >
<title>amd_iommu_flush_iotlb_all (924,274 samples, 0.09%)</title><rect x="672.8" y="85" width="1.0" height="15.0" fill="rgb(248,198,47)" rx="2" ry="2" />
<text  x="675.76" y="95.5" ></text>
</g>
<g >
<title>__memmove_avx_unaligned_erms (4,618,498 samples, 0.45%)</title><rect x="90.0" y="245" width="5.3" height="15.0" fill="rgb(205,0,0)" rx="2" ry="2" />
<text  x="93.00" y="255.5" ></text>
</g>
<g >
<title>perf_event_mmap (360,084 samples, 0.03%)</title><rect x="10.7" y="101" width="0.4" height="15.0" fill="rgb(229,112,26)" rx="2" ry="2" />
<text  x="13.66" y="111.5" ></text>
</g>
<g >
<title>entry_SYSCALL_64_after_hwframe (475,556 samples, 0.05%)</title><rect x="10.5" y="229" width="0.6" height="15.0" fill="rgb(218,63,15)" rx="2" ry="2" />
<text  x="13.53" y="239.5" ></text>
</g>
<g >
<title>run_timer_softirq (924,274 samples, 0.09%)</title><rect x="672.8" y="165" width="1.0" height="15.0" fill="rgb(249,206,49)" rx="2" ry="2" />
<text  x="675.76" y="175.5" ></text>
</g>
<g >
<title>w2c_decode__webp__wasmsimd_VP8LDoFillBitWindow (923,512 samples, 0.09%)</title><rect x="1184.7" y="245" width="1.1" height="15.0" fill="rgb(211,29,7)" rx="2" ry="2" />
<text  x="1187.70" y="255.5" ></text>
</g>
<g >
<title>all (1,034,406,089 samples, 100%)</title><rect x="10.0" y="277" width="1180.0" height="15.0" fill="rgb(213,39,9)" rx="2" ry="2" />
<text  x="13.00" y="287.5" ></text>
</g>
<g >
<title>w2c_decode__webp__wasmsimd_HE16_C (924,164 samples, 0.09%)</title><rect x="35.3" y="229" width="1.0" height="15.0" fill="rgb(232,126,30)" rx="2" ry="2" />
<text  x="38.28" y="239.5" ></text>
</g>
<g >
<title>__run_timers (924,366 samples, 0.09%)</title><rect x="1177.3" y="149" width="1.1" height="15.0" fill="rgb(206,5,1)" rx="2" ry="2" />
<text  x="1180.32" y="159.5" ></text>
</g>
<g >
<title>w2c_decode__webp__wasmsimd_HD4_C (923,317 samples, 0.09%)</title><rect x="34.2" y="229" width="1.1" height="15.0" fill="rgb(218,62,14)" rx="2" ry="2" />
<text  x="37.23" y="239.5" ></text>
</g>
<g >
<title>w2c_decode__webp__wasmsimd_RD4_C (924,277 samples, 0.09%)</title><rect x="49.0" y="229" width="1.0" height="15.0" fill="rgb(253,225,53)" rx="2" ry="2" />
<text  x="51.98" y="239.5" ></text>
</g>
<g >
<title>sysvec_apic_timer_interrupt (924,354 samples, 0.09%)</title><rect x="76.3" y="197" width="1.1" height="15.0" fill="rgb(220,69,16)" rx="2" ry="2" />
<text  x="79.30" y="207.5" ></text>
</g>
<g >
<title>w2c_decode__webp__wasmsimd_TransformOne_C (58,602,469 samples, 5.67%)</title><rect x="833.2" y="245" width="66.8" height="15.0" fill="rgb(209,22,5)" rx="2" ry="2" />
<text  x="836.17" y="255.5" >w2c_dec..</text>
</g>
<g >
<title>w2c_decode__webp__wasmsimd_ReconstructRow (23,948,075 samples, 2.32%)</title><rect x="50.0" y="229" width="27.4" height="15.0" fill="rgb(217,55,13)" rx="2" ry="2" />
<text  x="53.04" y="239.5" >w..</text>
</g>
<g >
<title>rebalance_domains (924,354 samples, 0.09%)</title><rect x="76.3" y="149" width="1.1" height="15.0" fill="rgb(248,202,48)" rx="2" ry="2" />
<text  x="79.30" y="159.5" ></text>
</g>
<g >
<title>__perf_addr_filters_adjust (360,084 samples, 0.03%)</title><rect x="10.7" y="69" width="0.4" height="15.0" fill="rgb(247,195,46)" rx="2" ry="2" />
<text  x="13.66" y="79.5" ></text>
</g>
<g >
<title>perf_event_task_tick (924,365 samples, 0.09%)</title><rect x="802.6" y="85" width="1.1" height="15.0" fill="rgb(205,3,0)" rx="2" ry="2" />
<text  x="805.62" y="95.5" ></text>
</g>
<g >
<title>__hrtimer_run_queues (924,365 samples, 0.09%)</title><rect x="802.6" y="165" width="1.1" height="15.0" fill="rgb(237,150,35)" rx="2" ry="2" />
<text  x="805.62" y="175.5" ></text>
</g>
<g >
<title>sysvec_apic_timer_interrupt (924,366 samples, 0.09%)</title><rect x="1177.3" y="213" width="1.1" height="15.0" fill="rgb(220,69,16)" rx="2" ry="2" />
<text  x="1180.32" y="223.5" ></text>
</g>
<g >
<title>__irq_exit_rcu (924,354 samples, 0.09%)</title><rect x="76.3" y="181" width="1.1" height="15.0" fill="rgb(227,101,24)" rx="2" ry="2" />
<text  x="79.30" y="191.5" ></text>
</g>
<g >
<title>w2c_decode__webp__wasmsimd_FilterLoop26_C (78,380,824 samples, 7.58%)</title><rect x="293.6" y="245" width="89.4" height="15.0" fill="rgb(222,78,18)" rx="2" ry="2" />
<text  x="296.56" y="255.5" >w2c_decode..</text>
</g>
<g >
<title>w2c_decode__webp__wasmsimd_VP8LBuildHuffmanTable (924,072 samples, 0.09%)</title><rect x="1183.6" y="245" width="1.1" height="15.0" fill="rgb(243,177,42)" rx="2" ry="2" />
<text  x="1186.64" y="255.5" ></text>
</g>
<g >
<title>asm_sysvec_apic_timer_interrupt (924,354 samples, 0.09%)</title><rect x="76.3" y="213" width="1.1" height="15.0" fill="rgb(232,127,30)" rx="2" ry="2" />
<text  x="79.30" y="223.5" ></text>
</g>
<g >
<title>amd_pmu_check_overflow (924,397 samples, 0.09%)</title><rect x="381.9" y="69" width="1.1" height="15.0" fill="rgb(207,10,2)" rx="2" ry="2" />
<text  x="384.92" y="79.5" ></text>
</g>
<g >
<title>[unknown] (68,284,719 samples, 6.60%)</title><rect x="10.0" y="245" width="77.9" height="15.0" fill="rgb(210,24,5)" rx="2" ry="2" />
<text  x="13.00" y="255.5" >[unknown]</text>
</g>
<g >
<title>update_process_times (924,365 samples, 0.09%)</title><rect x="802.6" y="117" width="1.1" height="15.0" fill="rgb(250,209,50)" rx="2" ry="2" />
<text  x="805.62" y="127.5" ></text>
</g>
<g >
<title>w2c_decode__webp__wasmsimd_UpsampleRgbaLinePair_C (243,087,305 samples, 23.50%)</title><rect x="901.1" y="245" width="277.3" height="15.0" fill="rgb(243,178,42)" rx="2" ry="2" />
<text  x="904.07" y="255.5" >w2c_decode__webp__wasmsimd_UpsampleRg..</text>
</g>
<g >
<title>asm_sysvec_apic_timer_interrupt (923,872 samples, 0.09%)</title><rect x="899.0" y="229" width="1.0" height="15.0" fill="rgb(232,127,30)" rx="2" ry="2" />
<text  x="901.96" y="239.5" ></text>
</g>
<g >
<title>__memset_avx2_unaligned_erms (923,166 samples, 0.09%)</title><rect x="95.3" y="245" width="1.0" height="15.0" fill="rgb(223,84,20)" rx="2" ry="2" />
<text  x="98.27" y="255.5" ></text>
</g>
<g >
<title>w2c_decode__webp__wasmsimd_FinishRow (5,543,809 samples, 0.54%)</title><rect x="383.0" y="245" width="6.3" height="15.0" fill="rgb(205,3,0)" rx="2" ry="2" />
<text  x="385.97" y="255.5" ></text>
</g>
<g >
<title>__softirqentry_text_start (923,872 samples, 0.09%)</title><rect x="899.0" y="181" width="1.0" height="15.0" fill="rgb(234,135,32)" rx="2" ry="2" />
<text  x="901.96" y="191.5" ></text>
</g>
<g >
<title>__run_timers (923,872 samples, 0.09%)</title><rect x="899.0" y="149" width="1.0" height="15.0" fill="rgb(206,5,1)" rx="2" ry="2" />
<text  x="901.96" y="159.5" ></text>
</g>
<g >
<title>w2c_decode__webp__wasmsimd_IDecode (69,088,192 samples, 6.68%)</title><rect x="724.9" y="245" width="78.8" height="15.0" fill="rgb(237,147,35)" rx="2" ry="2" />
<text  x="727.86" y="255.5" >w2c_decod..</text>
</g>
<g >
<title>w2c_decode__webp__wasmsimd_DispatchAlpha_C (22,173,300 samples, 2.14%)</title><rect x="121.5" y="245" width="25.3" height="15.0" fill="rgb(248,198,47)" rx="2" ry="2" />
<text  x="124.51" y="255.5" >w..</text>
</g>
<g >
<title>asm_sysvec_apic_timer_interrupt (924,274 samples, 0.09%)</title><rect x="672.8" y="229" width="1.0" height="15.0" fill="rgb(232,127,30)" rx="2" ry="2" />
<text  x="675.76" y="239.5" ></text>
</g>
<g >
<title>run_timer_softirq (924,366 samples, 0.09%)</title><rect x="1177.3" y="165" width="1.1" height="15.0" fill="rgb(249,206,49)" rx="2" ry="2" />
<text  x="1180.32" y="175.5" ></text>
</g>
<g >
<title>sysvec_apic_timer_interrupt (924,397 samples, 0.09%)</title><rect x="381.9" y="213" width="1.1" height="15.0" fill="rgb(220,69,16)" rx="2" ry="2" />
<text  x="384.92" y="223.5" ></text>
</g>
<g >
<title>__memmove_avx_unaligned (1,848,397 samples, 0.18%)</title><rect x="87.9" y="245" width="2.1" height="15.0" fill="rgb(254,228,54)" rx="2" ry="2" />
<text  x="90.90" y="255.5" ></text>
</g>
<g >
<title>w2c_decode__webp__wasmsimd_ExtractGreen_C (9,240,609 samples, 0.89%)</title><rect x="16.3" y="229" width="10.6" height="15.0" fill="rgb(226,96,23)" rx="2" ry="2" />
<text  x="19.33" y="239.5" ></text>
</g>
<g >
<title>w2c_decode__webp__wasmsimd_TransformDC_C (1,848,010 samples, 0.18%)</title><rect x="82.6" y="229" width="2.1" height="15.0" fill="rgb(211,27,6)" rx="2" ry="2" />
<text  x="85.63" y="239.5" ></text>
</g>
<g >
<title>w2c_decode__webp__wasmsimd_HU4_C (923,584 samples, 0.09%)</title><rect x="39.5" y="229" width="1.1" height="15.0" fill="rgb(208,17,4)" rx="2" ry="2" />
<text  x="42.50" y="239.5" ></text>
</g>
<g >
<title>run_timer_softirq (923,872 samples, 0.09%)</title><rect x="899.0" y="165" width="1.0" height="15.0" fill="rgb(249,206,49)" rx="2" ry="2" />
<text  x="901.96" y="175.5" ></text>
</g>
<g >
<title>w2c_decode__webp__wasmsimd_DC16_C (923,336 samples, 0.09%)</title><rect x="11.1" y="229" width="1.0" height="15.0" fill="rgb(221,75,18)" rx="2" ry="2" />
<text  x="14.07" y="239.5" ></text>
</g>
<g >
<title>w2c_decode__webp__wasmsimd_GetCoeffsFast (249,416,190 samples, 24.11%)</title><rect x="389.3" y="245" width="284.5" height="15.0" fill="rgb(210,26,6)" rx="2" ry="2" />
<text  x="392.30" y="255.5" >w2c_decode__webp__wasmsimd_GetCoeffsFast</text>
</g>
<g >
<title>delay_halt (924,365 samples, 0.09%)</title><rect x="802.6" y="53" width="1.1" height="15.0" fill="rgb(250,207,49)" rx="2" ry="2" />
<text  x="805.62" y="63.5" ></text>
</g>
<g >
<title>amd_pmu_check_overflow (924,365 samples, 0.09%)</title><rect x="802.6" y="69" width="1.1" height="15.0" fill="rgb(207,10,2)" rx="2" ry="2" />
<text  x="805.62" y="79.5" ></text>
</g>
<g >
<title>hrtimer_interrupt (924,397 samples, 0.09%)</title><rect x="381.9" y="181" width="1.1" height="15.0" fill="rgb(228,109,26)" rx="2" ry="2" />
<text  x="384.92" y="191.5" ></text>
</g>
<g >
<title>load_elf_binary (475,556 samples, 0.05%)</title><rect x="10.5" y="149" width="0.6" height="15.0" fill="rgb(223,83,20)" rx="2" ry="2" />
<text  x="13.53" y="159.5" ></text>
</g>
<g >
<title>w2c_decode__webp__wasmsimd_TransformOne_C (923,789 samples, 0.09%)</title><rect x="84.7" y="229" width="1.1" height="15.0" fill="rgb(209,22,5)" rx="2" ry="2" />
<text  x="87.73" y="239.5" ></text>
</g>
<g >
<title>delay_halt (924,274 samples, 0.09%)</title><rect x="672.8" y="53" width="1.0" height="15.0" fill="rgb(250,207,49)" rx="2" ry="2" />
<text  x="675.76" y="63.5" ></text>
</g>
<g >
<title>flush_signal_handlers (115,472 samples, 0.01%)</title><rect x="10.5" y="117" width="0.2" height="15.0" fill="rgb(253,221,53)" rx="2" ry="2" />
<text  x="13.53" y="127.5" ></text>
</g>
<g >
<title>w2c_decode__webp__wasmsimd_DC4_C (3,691,536 samples, 0.36%)</title><rect x="12.1" y="229" width="4.2" height="15.0" fill="rgb(250,210,50)" rx="2" ry="2" />
<text  x="15.12" y="239.5" ></text>
</g>
<g >
<title>call_timer_fn (924,274 samples, 0.09%)</title><rect x="672.8" y="133" width="1.0" height="15.0" fill="rgb(234,135,32)" rx="2" ry="2" />
<text  x="675.76" y="143.5" ></text>
</g>
<g >
<title>__irq_exit_rcu (924,366 samples, 0.09%)</title><rect x="1177.3" y="197" width="1.1" height="15.0" fill="rgb(227,101,24)" rx="2" ry="2" />
<text  x="1180.32" y="207.5" ></text>
</g>
<g >
<title>__irq_exit_rcu (923,872 samples, 0.09%)</title><rect x="899.0" y="197" width="1.0" height="15.0" fill="rgb(227,101,24)" rx="2" ry="2" />
<text  x="901.96" y="207.5" ></text>
</g>
<g >
<title>__irq_exit_rcu (924,274 samples, 0.09%)</title><rect x="672.8" y="197" width="1.0" height="15.0" fill="rgb(227,101,24)" rx="2" ry="2" />
<text  x="675.76" y="207.5" ></text>
</g>
<g >
<title>w2c_decode__webp__wasmsimd_VFilter8_C (923,890 samples, 0.09%)</title><rect x="85.8" y="229" width="1.0" height="15.0" fill="rgb(225,92,22)" rx="2" ry="2" />
<text  x="88.79" y="239.5" ></text>
</g>
<g >
<title>asm_sysvec_apic_timer_interrupt (924,365 samples, 0.09%)</title><rect x="802.6" y="229" width="1.1" height="15.0" fill="rgb(232,127,30)" rx="2" ry="2" />
<text  x="805.62" y="239.5" ></text>
</g>
<g >
<title>find_busiest_group (924,354 samples, 0.09%)</title><rect x="76.3" y="117" width="1.1" height="15.0" fill="rgb(239,158,37)" rx="2" ry="2" />
<text  x="79.30" y="127.5" ></text>
</g>
<g >
<title>w2c_decode__webp__wasmsimd_DecodeImageData (17,001,685 samples, 1.64%)</title><rect x="100.5" y="245" width="19.4" height="15.0" fill="rgb(246,191,45)" rx="2" ry="2" />
<text  x="103.54" y="255.5" ></text>
</g>
<g >
<title>tick_sched_timer (924,365 samples, 0.09%)</title><rect x="802.6" y="149" width="1.1" height="15.0" fill="rgb(254,227,54)" rx="2" ry="2" />
<text  x="805.62" y="159.5" ></text>
</g>
<g >
<title>do_execveat_common.isra.0 (475,556 samples, 0.05%)</title><rect x="10.5" y="181" width="0.6" height="15.0" fill="rgb(231,123,29)" rx="2" ry="2" />
<text  x="13.53" y="191.5" ></text>
</g>
<g >
<title>call_timer_fn (924,366 samples, 0.09%)</title><rect x="1177.3" y="133" width="1.1" height="15.0" fill="rgb(234,135,32)" rx="2" ry="2" />
<text  x="1180.32" y="143.5" ></text>
</g>
<g >
<title>delay_halt_mwaitx (924,365 samples, 0.09%)</title><rect x="802.6" y="37" width="1.1" height="15.0" fill="rgb(234,133,31)" rx="2" ry="2" />
<text  x="805.62" y="47.5" ></text>
</g>
<g >
<title>w2c_decode__webp__wasmsimd_GetLargeValue (43,820,777 samples, 4.24%)</title><rect x="673.8" y="245" width="50.0" height="15.0" fill="rgb(234,137,32)" rx="2" ry="2" />
<text  x="676.82" y="255.5" >w2c_d..</text>
</g>
<g >
<title>_raw_spin_lock_irqsave (924,366 samples, 0.09%)</title><rect x="1177.3" y="101" width="1.1" height="15.0" fill="rgb(247,195,46)" rx="2" ry="2" />
<text  x="1180.32" y="111.5" ></text>
</g>
<g >
<title>w2c_decode__webp__wasmsimd_DecodeImageStream (1,386,587 samples, 0.13%)</title><rect x="119.9" y="245" width="1.6" height="15.0" fill="rgb(233,130,31)" rx="2" ry="2" />
<text  x="122.93" y="255.5" ></text>
</g>
<g >
<title>w2c_decode__webp__wasmsimd_TransformTwo_C (923,160 samples, 0.09%)</title><rect x="900.0" y="245" width="1.1" height="15.0" fill="rgb(254,228,54)" rx="2" ry="2" />
<text  x="903.02" y="255.5" ></text>
</g>
<g >
<title>w2c_decode__webp__wasmsimd_VL4_C (923,793 samples, 0.09%)</title><rect x="86.8" y="229" width="1.1" height="15.0" fill="rgb(226,98,23)" rx="2" ry="2" />
<text  x="89.84" y="239.5" ></text>
</g>
<g >
<title>__hrtimer_run_queues (924,397 samples, 0.09%)</title><rect x="381.9" y="165" width="1.1" height="15.0" fill="rgb(237,150,35)" rx="2" ry="2" />
<text  x="384.92" y="175.5" ></text>
</g>
<g >
<title>delay_halt (924,397 samples, 0.09%)</title><rect x="381.9" y="53" width="1.1" height="15.0" fill="rgb(250,207,49)" rx="2" ry="2" />
<text  x="384.92" y="63.5" ></text>
</g>
<g >
<title>asm_exc_page_fault (460,457 samples, 0.04%)</title><rect x="10.0" y="213" width="0.5" height="15.0" fill="rgb(225,93,22)" rx="2" ry="2" />
<text  x="13.00" y="223.5" ></text>
</g>
<g >
<title>w2c_decode__webp__wasmsimd_BuildHuffmanTable (3,691,595 samples, 0.36%)</title><rect x="96.3" y="245" width="4.2" height="15.0" fill="rgb(218,63,15)" rx="2" ry="2" />
<text  x="99.33" y="255.5" ></text>
</g>
<g >
<title>w2c_decode__webp__wasmsimd_ReadHuffmanCode (921,536 samples, 0.09%)</title><rect x="803.7" y="245" width="1.0" height="15.0" fill="rgb(222,79,18)" rx="2" ry="2" />
<text  x="806.67" y="255.5" ></text>
</g>
<g >
<title>w2c_decode__webp__wasmsimd_TM4_C (3,695,580 samples, 0.36%)</title><rect x="77.4" y="229" width="4.2" height="15.0" fill="rgb(232,128,30)" rx="2" ry="2" />
<text  x="80.36" y="239.5" ></text>
</g>
<g >
<title>w2c_decode__webp__wasmsimd_IDecode (6,466,234 samples, 0.63%)</title><rect x="40.6" y="229" width="7.3" height="15.0" fill="rgb(237,147,35)" rx="2" ry="2" />
<text  x="43.55" y="239.5" ></text>
</g>
<g >
<title>begin_new_exec (115,472 samples, 0.01%)</title><rect x="10.5" y="133" width="0.2" height="15.0" fill="rgb(245,184,44)" rx="2" ry="2" />
<text  x="13.53" y="143.5" ></text>
</g>
<g >
<title>sysvec_apic_timer_interrupt (924,274 samples, 0.09%)</title><rect x="672.8" y="213" width="1.0" height="15.0" fill="rgb(220,69,16)" rx="2" ry="2" />
<text  x="675.76" y="223.5" ></text>
</g>
<g >
<title>w2c_decode__webp__wasmsimd_TransformAC3_C (4,619,510 samples, 0.45%)</title><rect x="827.9" y="245" width="5.3" height="15.0" fill="rgb(251,211,50)" rx="2" ry="2" />
<text  x="830.90" y="255.5" ></text>
</g>
<g >
<title>bprm_execve (475,556 samples, 0.05%)</title><rect x="10.5" y="165" width="0.6" height="15.0" fill="rgb(218,61,14)" rx="2" ry="2" />
<text  x="13.53" y="175.5" ></text>
</g>
<g >
<title>w2c_decode__webp__wasmsimd_FilterLoop24_C (127,720,464 samples, 12.35%)</title><rect x="147.9" y="245" width="145.7" height="15.0" fill="rgb(234,137,32)" rx="2" ry="2" />
<text  x="150.86" y="255.5" >w2c_decode__webp__..</text>
</g>
<g >
<title>tick_sched_handle (924,397 samples, 0.09%)</title><rect x="381.9" y="133" width="1.1" height="15.0" fill="rgb(219,68,16)" rx="2" ry="2" />
<text  x="384.92" y="143.5" ></text>
</g>
<g >
<title>call_timer_fn (923,872 samples, 0.09%)</title><rect x="899.0" y="133" width="1.0" height="15.0" fill="rgb(234,135,32)" rx="2" ry="2" />
<text  x="901.96" y="143.5" ></text>
</g>
<g >
<title>w2c_decode__webp__wasmsimd_TransformAC3_C (924,357 samples, 0.09%)</title><rect x="81.6" y="229" width="1.0" height="15.0" fill="rgb(251,211,50)" rx="2" ry="2" />
<text  x="84.57" y="239.5" ></text>
</g>
<g >
<title>w2c_decode__webp__wasmsimd_HFilter16i_C (924,145 samples, 0.09%)</title><rect x="723.8" y="245" width="1.1" height="15.0" fill="rgb(233,131,31)" rx="2" ry="2" />
<text  x="726.81" y="255.5" ></text>
</g>
<g >
<title>fq_flush_timeout (923,872 samples, 0.09%)</title><rect x="899.0" y="117" width="1.0" height="15.0" fill="rgb(213,40,9)" rx="2" ry="2" />
<text  x="901.96" y="127.5" ></text>
</g>
<g >
<title>w2c_decode__webp__wasmsimd_HE4_C (924,094 samples, 0.09%)</title><rect x="36.3" y="229" width="1.1" height="15.0" fill="rgb(212,32,7)" rx="2" ry="2" />
<text  x="39.34" y="239.5" ></text>
</g>
<g >
<title>_raw_spin_lock_irqsave (923,872 samples, 0.09%)</title><rect x="899.0" y="101" width="1.0" height="15.0" fill="rgb(247,195,46)" rx="2" ry="2" />
<text  x="901.96" y="111.5" ></text>
</g>
<g >
<title>update_sd_lb_stats.constprop.0 (924,354 samples, 0.09%)</title><rect x="76.3" y="101" width="1.1" height="15.0" fill="rgb(223,86,20)" rx="2" ry="2" />
<text  x="79.30" y="111.5" ></text>
</g>
</g>
</svg>
