<?xml version="1.0" standalone="no"?>
<!DOCTYPE svg PUBLIC "-//W3C//DTD SVG 1.1//EN" "http://www.w3.org/Graphics/SVG/1.1/DTD/svg11.dtd">
<svg version="1.1" width="1200" height="422" onload="init(evt)" viewBox="0 0 1200 422" xmlns="http://www.w3.org/2000/svg" xmlns:xlink="http://www.w3.org/1999/xlink">
<!-- Flame graph stack visualization. See https://github.com/brendangregg/FlameGraph for latest version, and http://www.brendangregg.com/flamegraphs.html for examples. -->
<!-- NOTES:  -->
<defs>
	<linearGradient id="background" y1="0" y2="1" x1="0" x2="0" >
		<stop stop-color="#eeeeee" offset="5%" />
		<stop stop-color="#eeeeb0" offset="95%" />
	</linearGradient>
</defs>
<style type="text/css">
	text { font-family:Verdana; font-size:12px; fill:rgb(0,0,0); }
	#search, #ignorecase { opacity:0.1; cursor:pointer; }
	#search:hover, #search.show, #ignorecase:hover, #ignorecase.show { opacity:1; }
	#subtitle { text-anchor:middle; font-color:rgb(160,160,160); }
	#title { text-anchor:middle; font-size:17px}
	#unzoom { cursor:pointer; }
	#frames > *:hover { stroke:black; stroke-width:0.5; cursor:pointer; }
	.hide { display:none; }
	.parent { opacity:0.5; }
</style>
<script type="text/ecmascript">
<![CDATA[
	"use strict";
	var details, searchbtn, unzoombtn, matchedtxt, svg, searching, currentSearchTerm, ignorecase, ignorecaseBtn;
	function init(evt) {
		details = document.getElementById("details").firstChild;
		searchbtn = document.getElementById("search");
		ignorecaseBtn = document.getElementById("ignorecase");
		unzoombtn = document.getElementById("unzoom");
		matchedtxt = document.getElementById("matched");
		svg = document.getElementsByTagName("svg")[0];
		searching = 0;
		currentSearchTerm = null;

		// use GET parameters to restore a flamegraphs state.
		var params = get_params();
		if (params.x && params.y)
			zoom(find_group(document.querySelector('[x="' + params.x + '"][y="' + params.y + '"]')));
                if (params.s) search(params.s);
	}

	// event listeners
	window.addEventListener("click", function(e) {
		var target = find_group(e.target);
		if (target) {
			if (target.nodeName == "a") {
				if (e.ctrlKey === false) return;
				e.preventDefault();
			}
			if (target.classList.contains("parent")) unzoom(true);
			zoom(target);
			if (!document.querySelector('.parent')) {
				// we have basically done a clearzoom so clear the url
				var params = get_params();
				if (params.x) delete params.x;
				if (params.y) delete params.y;
				history.replaceState(null, null, parse_params(params));
				unzoombtn.classList.add("hide");
				return;
			}

			// set parameters for zoom state
			var el = target.querySelector("rect");
			if (el && el.attributes && el.attributes.y && el.attributes._orig_x) {
				var params = get_params()
				params.x = el.attributes._orig_x.value;
				params.y = el.attributes.y.value;
				history.replaceState(null, null, parse_params(params));
			}
		}
		else if (e.target.id == "unzoom") clearzoom();
		else if (e.target.id == "search") search_prompt();
		else if (e.target.id == "ignorecase") toggle_ignorecase();
	}, false)

	// mouse-over for info
	// show
	window.addEventListener("mouseover", function(e) {
		var target = find_group(e.target);
		if (target) details.nodeValue = "Function: " + g_to_text(target);
	}, false)

	// clear
	window.addEventListener("mouseout", function(e) {
		var target = find_group(e.target);
		if (target) details.nodeValue = ' ';
	}, false)

	// ctrl-F for search
	// ctrl-I to toggle case-sensitive search
	window.addEventListener("keydown",function (e) {
		if (e.keyCode === 114 || (e.ctrlKey && e.keyCode === 70)) {
			e.preventDefault();
			search_prompt();
		}
		else if (e.ctrlKey && e.keyCode === 73) {
			e.preventDefault();
			toggle_ignorecase();
		}
	}, false)

	// functions
	function get_params() {
		var params = {};
		var paramsarr = window.location.search.substr(1).split('&');
		for (var i = 0; i < paramsarr.length; ++i) {
			var tmp = paramsarr[i].split("=");
			if (!tmp[0] || !tmp[1]) continue;
			params[tmp[0]]  = decodeURIComponent(tmp[1]);
		}
		return params;
	}
	function parse_params(params) {
		var uri = "?";
		for (var key in params) {
			uri += key + '=' + encodeURIComponent(params[key]) + '&';
		}
		if (uri.slice(-1) == "&")
			uri = uri.substring(0, uri.length - 1);
		if (uri == '?')
			uri = window.location.href.split('?')[0];
		return uri;
	}
	function find_child(node, selector) {
		var children = node.querySelectorAll(selector);
		if (children.length) return children[0];
	}
	function find_group(node) {
		var parent = node.parentElement;
		if (!parent) return;
		if (parent.id == "frames") return node;
		return find_group(parent);
	}
	function orig_save(e, attr, val) {
		if (e.attributes["_orig_" + attr] != undefined) return;
		if (e.attributes[attr] == undefined) return;
		if (val == undefined) val = e.attributes[attr].value;
		e.setAttribute("_orig_" + attr, val);
	}
	function orig_load(e, attr) {
		if (e.attributes["_orig_"+attr] == undefined) return;
		e.attributes[attr].value = e.attributes["_orig_" + attr].value;
		e.removeAttribute("_orig_"+attr);
	}
	function g_to_text(e) {
		var text = find_child(e, "title").firstChild.nodeValue;
		return (text)
	}
	function g_to_func(e) {
		var func = g_to_text(e);
		// if there's any manipulation we want to do to the function
		// name before it's searched, do it here before returning.
		return (func);
	}
	function update_text(e) {
		var r = find_child(e, "rect");
		var t = find_child(e, "text");
		var w = parseFloat(r.attributes.width.value) -3;
		var txt = find_child(e, "title").textContent.replace(/\([^(]*\)$/,"");
		t.attributes.x.value = parseFloat(r.attributes.x.value) + 3;

		// Smaller than this size won't fit anything
		if (w < 2 * 12 * 0.59) {
			t.textContent = "";
			return;
		}

		t.textContent = txt;
		var sl = t.getSubStringLength(0, txt.length);
		// check if only whitespace or if we can fit the entire string into width w
		if (/^ *$/.test(txt) || sl < w)
			return;

		// this isn't perfect, but gives a good starting point
		// and avoids calling getSubStringLength too often
		var start = Math.floor((w/sl) * txt.length);
		for (var x = start; x > 0; x = x-2) {
			if (t.getSubStringLength(0, x + 2) <= w) {
				t.textContent = txt.substring(0, x) + "..";
				return;
			}
		}
		t.textContent = "";
	}

	// zoom
	function zoom_reset(e) {
		if (e.attributes != undefined) {
			orig_load(e, "x");
			orig_load(e, "width");
		}
		if (e.childNodes == undefined) return;
		for (var i = 0, c = e.childNodes; i < c.length; i++) {
			zoom_reset(c[i]);
		}
	}
	function zoom_child(e, x, ratio) {
		if (e.attributes != undefined) {
			if (e.attributes.x != undefined) {
				orig_save(e, "x");
				e.attributes.x.value = (parseFloat(e.attributes.x.value) - x - 10) * ratio + 10;
				if (e.tagName == "text")
					e.attributes.x.value = find_child(e.parentNode, "rect[x]").attributes.x.value + 3;
			}
			if (e.attributes.width != undefined) {
				orig_save(e, "width");
				e.attributes.width.value = parseFloat(e.attributes.width.value) * ratio;
			}
		}

		if (e.childNodes == undefined) return;
		for (var i = 0, c = e.childNodes; i < c.length; i++) {
			zoom_child(c[i], x - 10, ratio);
		}
	}
	function zoom_parent(e) {
		if (e.attributes) {
			if (e.attributes.x != undefined) {
				orig_save(e, "x");
				e.attributes.x.value = 10;
			}
			if (e.attributes.width != undefined) {
				orig_save(e, "width");
				e.attributes.width.value = parseInt(svg.width.baseVal.value) - (10 * 2);
			}
		}
		if (e.childNodes == undefined) return;
		for (var i = 0, c = e.childNodes; i < c.length; i++) {
			zoom_parent(c[i]);
		}
	}
	function zoom(node) {
		var attr = find_child(node, "rect").attributes;
		var width = parseFloat(attr.width.value);
		var xmin = parseFloat(attr.x.value);
		var xmax = parseFloat(xmin + width);
		var ymin = parseFloat(attr.y.value);
		var ratio = (svg.width.baseVal.value - 2 * 10) / width;

		// XXX: Workaround for JavaScript float issues (fix me)
		var fudge = 0.0001;

		unzoombtn.classList.remove("hide");

		var el = document.getElementById("frames").children;
		for (var i = 0; i < el.length; i++) {
			var e = el[i];
			var a = find_child(e, "rect").attributes;
			var ex = parseFloat(a.x.value);
			var ew = parseFloat(a.width.value);
			var upstack;
			// Is it an ancestor
			if (0 == 0) {
				upstack = parseFloat(a.y.value) > ymin;
			} else {
				upstack = parseFloat(a.y.value) < ymin;
			}
			if (upstack) {
				// Direct ancestor
				if (ex <= xmin && (ex+ew+fudge) >= xmax) {
					e.classList.add("parent");
					zoom_parent(e);
					update_text(e);
				}
				// not in current path
				else
					e.classList.add("hide");
			}
			// Children maybe
			else {
				// no common path
				if (ex < xmin || ex + fudge >= xmax) {
					e.classList.add("hide");
				}
				else {
					zoom_child(e, xmin, ratio);
					update_text(e);
				}
			}
		}
		search();
	}
	function unzoom(dont_update_text) {
		unzoombtn.classList.add("hide");
		var el = document.getElementById("frames").children;
		for(var i = 0; i < el.length; i++) {
			el[i].classList.remove("parent");
			el[i].classList.remove("hide");
			zoom_reset(el[i]);
			if(!dont_update_text) update_text(el[i]);
		}
		search();
	}
	function clearzoom() {
		unzoom();

		// remove zoom state
		var params = get_params();
		if (params.x) delete params.x;
		if (params.y) delete params.y;
		history.replaceState(null, null, parse_params(params));
	}

	// search
	function toggle_ignorecase() {
		ignorecase = !ignorecase;
		if (ignorecase) {
			ignorecaseBtn.classList.add("show");
		} else {
			ignorecaseBtn.classList.remove("show");
		}
		reset_search();
		search();
	}
	function reset_search() {
		var el = document.querySelectorAll("#frames rect");
		for (var i = 0; i < el.length; i++) {
			orig_load(el[i], "fill")
		}
		var params = get_params();
		delete params.s;
		history.replaceState(null, null, parse_params(params));
	}
	function search_prompt() {
		if (!searching) {
			var term = prompt("Enter a search term (regexp " +
			    "allowed, eg: ^ext4_)"
			    + (ignorecase ? ", ignoring case" : "")
			    + "\nPress Ctrl-i to toggle case sensitivity", "");
			if (term != null) search(term);
		} else {
			reset_search();
			searching = 0;
			currentSearchTerm = null;
			searchbtn.classList.remove("show");
			searchbtn.firstChild.nodeValue = "Search"
			matchedtxt.classList.add("hide");
			matchedtxt.firstChild.nodeValue = ""
		}
	}
	function search(term) {
		if (term) currentSearchTerm = term;

		var re = new RegExp(currentSearchTerm, ignorecase ? 'i' : '');
		var el = document.getElementById("frames").children;
		var matches = new Object();
		var maxwidth = 0;
		for (var i = 0; i < el.length; i++) {
			var e = el[i];
			var func = g_to_func(e);
			var rect = find_child(e, "rect");
			if (func == null || rect == null)
				continue;

			// Save max width. Only works as we have a root frame
			var w = parseFloat(rect.attributes.width.value);
			if (w > maxwidth)
				maxwidth = w;

			if (func.match(re)) {
				// highlight
				var x = parseFloat(rect.attributes.x.value);
				orig_save(rect, "fill");
				rect.attributes.fill.value = "rgb(230,0,230)";

				// remember matches
				if (matches[x] == undefined) {
					matches[x] = w;
				} else {
					if (w > matches[x]) {
						// overwrite with parent
						matches[x] = w;
					}
				}
				searching = 1;
			}
		}
		if (!searching)
			return;
		var params = get_params();
		params.s = currentSearchTerm;
		history.replaceState(null, null, parse_params(params));

		searchbtn.classList.add("show");
		searchbtn.firstChild.nodeValue = "Reset Search";

		// calculate percent matched, excluding vertical overlap
		var count = 0;
		var lastx = -1;
		var lastw = 0;
		var keys = Array();
		for (k in matches) {
			if (matches.hasOwnProperty(k))
				keys.push(k);
		}
		// sort the matched frames by their x location
		// ascending, then width descending
		keys.sort(function(a, b){
			return a - b;
		});
		// Step through frames saving only the biggest bottom-up frames
		// thanks to the sort order. This relies on the tree property
		// where children are always smaller than their parents.
		var fudge = 0.0001;	// JavaScript floating point
		for (var k in keys) {
			var x = parseFloat(keys[k]);
			var w = matches[keys[k]];
			if (x >= lastx + lastw - fudge) {
				count += w;
				lastx = x;
				lastw = w;
			}
		}
		// display matched percent
		matchedtxt.classList.remove("hide");
		var pct = 100 * count / maxwidth;
		if (pct != 100) pct = pct.toFixed(1)
		matchedtxt.firstChild.nodeValue = "Matched: " + pct + "%";
	}
]]>
</script>
<rect x="0.0" y="0" width="1200.0" height="422.0" fill="url(#background)"  />
<text id="title" x="600.00" y="24" >Flame Graph</text>
<text id="details" x="10.00" y="405" > </text>
<text id="unzoom" x="10.00" y="24" class="hide">Reset Zoom</text>
<text id="search" x="1090.00" y="24" >Search</text>
<text id="ignorecase" x="1174.00" y="24" >ic</text>
<text id="matched" x="1090.00" y="405" > </text>
<g id="frames">
<g >
<title>ConvertBGRAToRGBA_SSE2 (778,804 samples, 0.16%)</title><rect x="87.9" y="341" width="1.9" height="15.0" fill="rgb(218,64,15)" rx="2" ry="2" />
<text  x="90.95" y="351.5" ></text>
</g>
<g >
<title>PredictorAdd11_SSE2 (5,543,913 samples, 1.14%)</title><rect x="102.9" y="341" width="13.5" height="15.0" fill="rgb(241,168,40)" rx="2" ry="2" />
<text  x="105.88" y="351.5" ></text>
</g>
<g >
<title>decode_webp_nat (484,127,972 samples, 99.98%)</title><rect x="10.0" y="357" width="1179.8" height="15.0" fill="rgb(218,61,14)" rx="2" ry="2" />
<text  x="13.00" y="367.5" >decode_webp_nat</text>
</g>
<g >
<title>bprm_execve (102,059 samples, 0.02%)</title><rect x="1189.8" y="261" width="0.2" height="15.0" fill="rgb(218,61,14)" rx="2" ry="2" />
<text  x="1192.75" y="271.5" ></text>
</g>
<g >
<title>PredictorAdd10_SSE2 (923,902 samples, 0.19%)</title><rect x="98.4" y="341" width="2.2" height="15.0" fill="rgb(248,197,47)" rx="2" ry="2" />
<text  x="101.38" y="351.5" ></text>
</g>
<g >
<title>DecodeImageData (302,063,620 samples, 62.38%)</title><rect x="390.2" y="309" width="736.1" height="15.0" fill="rgb(254,229,54)" rx="2" ry="2" />
<text  x="393.22" y="319.5" >DecodeImageData</text>
</g>
<g >
<title>asm_exc_page_fault (778,804 samples, 0.16%)</title><rect x="87.9" y="325" width="1.9" height="15.0" fill="rgb(225,93,22)" rx="2" ry="2" />
<text  x="90.95" y="335.5" ></text>
</g>
<g >
<title>VP8LInverseTransform (1,847,502 samples, 0.38%)</title><rect x="385.7" y="325" width="4.5" height="15.0" fill="rgb(234,134,32)" rx="2" ry="2" />
<text  x="388.72" y="335.5" ></text>
</g>
<g >
<title>do_user_addr_fault (744,546 samples, 0.15%)</title><rect x="1182.3" y="149" width="1.8" height="15.0" fill="rgb(228,108,25)" rx="2" ry="2" />
<text  x="1185.27" y="159.5" ></text>
</g>
<g >
<title>handle_mm_fault (778,804 samples, 0.16%)</title><rect x="87.9" y="277" width="1.9" height="15.0" fill="rgb(234,135,32)" rx="2" ry="2" />
<text  x="90.95" y="287.5" ></text>
</g>
<g >
<title>__mod_memcg_lruvec_state (744,546 samples, 0.15%)</title><rect x="1182.3" y="53" width="1.8" height="15.0" fill="rgb(247,195,46)" rx="2" ry="2" />
<text  x="1185.27" y="63.5" ></text>
</g>
<g >
<title>clear_page_rep (778,804 samples, 0.16%)</title><rect x="87.9" y="181" width="1.9" height="15.0" fill="rgb(253,221,52)" rx="2" ry="2" />
<text  x="90.95" y="191.5" ></text>
</g>
<g >
<title>PredictorAdd6_SSE2 (924,102 samples, 0.19%)</title><rect x="258.0" y="341" width="2.2" height="15.0" fill="rgb(225,95,22)" rx="2" ry="2" />
<text  x="260.99" y="351.5" ></text>
</g>
<g >
<title>ConvertBGRAToRGBA_SSE2 (5,544,029 samples, 1.14%)</title><rect x="309.6" y="325" width="13.6" height="15.0" fill="rgb(218,64,15)" rx="2" ry="2" />
<text  x="312.65" y="335.5" ></text>
</g>
<g >
<title>__x86_indirect_thunk_r14 (480,052 samples, 0.10%)</title><rect x="1184.1" y="309" width="1.1" height="15.0" fill="rgb(250,210,50)" rx="2" ry="2" />
<text  x="1187.08" y="319.5" ></text>
</g>
<g >
<title>do_mas_munmap (923,952 samples, 0.19%)</title><rect x="1185.2" y="261" width="2.3" height="15.0" fill="rgb(224,90,21)" rx="2" ry="2" />
<text  x="1188.25" y="271.5" ></text>
</g>
<g >
<title>all (484,230,031 samples, 100%)</title><rect x="10.0" y="373" width="1180.0" height="15.0" fill="rgb(213,39,9)" rx="2" ry="2" />
<text  x="13.00" y="383.5" ></text>
</g>
<g >
<title>do_syscall_64 (102,059 samples, 0.02%)</title><rect x="1189.8" y="309" width="0.2" height="15.0" fill="rgb(209,20,4)" rx="2" ry="2" />
<text  x="1192.75" y="319.5" ></text>
</g>
<g >
<title>do_syscall_64 (744,546 samples, 0.15%)</title><rect x="1182.3" y="293" width="1.8" height="15.0" fill="rgb(209,20,4)" rx="2" ry="2" />
<text  x="1185.27" y="303.5" ></text>
</g>
<g >
<title>do_user_addr_fault (793,131 samples, 0.16%)</title><rect x="1180.3" y="261" width="2.0" height="15.0" fill="rgb(228,108,25)" rx="2" ry="2" />
<text  x="1183.33" y="271.5" ></text>
</g>
<g >
<title>__folio_alloc (778,804 samples, 0.16%)</title><rect x="87.9" y="229" width="1.9" height="15.0" fill="rgb(224,91,21)" rx="2" ry="2" />
<text  x="90.95" y="239.5" ></text>
</g>
<g >
<title>lru_add_fn (744,546 samples, 0.15%)</title><rect x="1182.3" y="69" width="1.8" height="15.0" fill="rgb(208,14,3)" rx="2" ry="2" />
<text  x="1185.27" y="79.5" ></text>
</g>
<g >
<title>clear_page_rep (738,300 samples, 0.15%)</title><rect x="86.1" y="181" width="1.8" height="15.0" fill="rgb(253,221,52)" rx="2" ry="2" />
<text  x="89.15" y="191.5" ></text>
</g>
<g >
<title>__memmove_avx_unaligned_erms (1,717,396 samples, 0.35%)</title><rect x="1178.1" y="309" width="4.2" height="15.0" fill="rgb(205,0,0)" rx="2" ry="2" />
<text  x="1181.08" y="319.5" ></text>
</g>
<g >
<title>load_elf_binary (102,059 samples, 0.02%)</title><rect x="1189.8" y="245" width="0.2" height="15.0" fill="rgb(223,83,20)" rx="2" ry="2" />
<text  x="1192.75" y="255.5" ></text>
</g>
<g >
<title>[unknown] (359,316,100 samples, 74.20%)</title><rect x="309.6" y="341" width="875.6" height="15.0" fill="rgb(210,24,5)" rx="2" ry="2" />
<text  x="312.65" y="351.5" >[unknown]</text>
</g>
<g >
<title>ReadHuffmanCodesHelper (1,848,172 samples, 0.38%)</title><rect x="1126.3" y="309" width="4.5" height="15.0" fill="rgb(209,22,5)" rx="2" ry="2" />
<text  x="1129.31" y="319.5" ></text>
</g>
<g >
<title>exc_page_fault (738,300 samples, 0.15%)</title><rect x="86.1" y="309" width="1.8" height="15.0" fill="rgb(212,35,8)" rx="2" ry="2" />
<text  x="89.15" y="319.5" ></text>
</g>
<g >
<title>handle_mm_fault (793,131 samples, 0.16%)</title><rect x="1180.3" y="245" width="2.0" height="15.0" fill="rgb(234,135,32)" rx="2" ry="2" />
<text  x="1183.33" y="255.5" ></text>
</g>
<g >
<title>get_page_from_freelist (778,804 samples, 0.16%)</title><rect x="87.9" y="197" width="1.9" height="15.0" fill="rgb(252,218,52)" rx="2" ry="2" />
<text  x="90.95" y="207.5" ></text>
</g>
<g >
<title>PredictorAdd7_SSE2 (8,314,141 samples, 1.72%)</title><rect x="260.2" y="341" width="20.3" height="15.0" fill="rgb(219,65,15)" rx="2" ry="2" />
<text  x="263.25" y="351.5" ></text>
</g>
<g >
<title>PredictorAdd12_SSE2 (7,388,533 samples, 1.53%)</title><rect x="118.6" y="341" width="18.0" height="15.0" fill="rgb(235,138,33)" rx="2" ry="2" />
<text  x="121.64" y="351.5" ></text>
</g>
<g >
<title>do_user_addr_fault (778,804 samples, 0.16%)</title><rect x="87.9" y="293" width="1.9" height="15.0" fill="rgb(228,108,25)" rx="2" ry="2" />
<text  x="90.95" y="303.5" ></text>
</g>
<g >
<title>vma_alloc_folio (778,804 samples, 0.16%)</title><rect x="87.9" y="245" width="1.9" height="15.0" fill="rgb(245,187,44)" rx="2" ry="2" />
<text  x="90.95" y="255.5" ></text>
</g>
<g >
<title>PredictorAdd5_SSE2 (9,238,319 samples, 1.91%)</title><rect x="235.5" y="341" width="22.5" height="15.0" fill="rgb(232,125,29)" rx="2" ry="2" />
<text  x="238.48" y="351.5" >P..</text>
</g>
<g >
<title>exc_page_fault (744,546 samples, 0.15%)</title><rect x="1182.3" y="165" width="1.8" height="15.0" fill="rgb(212,35,8)" rx="2" ry="2" />
<text  x="1185.27" y="175.5" ></text>
</g>
<g >
<title>asm_exc_page_fault (744,546 samples, 0.15%)</title><rect x="1182.3" y="181" width="1.8" height="15.0" fill="rgb(225,93,22)" rx="2" ry="2" />
<text  x="1185.27" y="191.5" ></text>
</g>
<g >
<title>perf-exec (102,059 samples, 0.02%)</title><rect x="1189.8" y="357" width="0.2" height="15.0" fill="rgb(231,123,29)" rx="2" ry="2" />
<text  x="1192.75" y="367.5" ></text>
</g>
<g >
<title>PredictorAdd13_SSE2 (35,017,185 samples, 7.23%)</title><rect x="136.6" y="341" width="85.4" height="15.0" fill="rgb(228,108,25)" rx="2" ry="2" />
<text  x="139.64" y="351.5" >PredictorA..</text>
</g>
<g >
<title>__handle_mm_fault (793,131 samples, 0.16%)</title><rect x="1180.3" y="229" width="2.0" height="15.0" fill="rgb(207,9,2)" rx="2" ry="2" />
<text  x="1183.33" y="239.5" ></text>
</g>
<g >
<title>VP8LDoFillBitWindow (18,473,407 samples, 3.82%)</title><rect x="1130.8" y="309" width="45.0" height="15.0" fill="rgb(219,67,16)" rx="2" ry="2" />
<text  x="1133.81" y="319.5" >VP8L..</text>
</g>
<g >
<title>do_mas_align_munmap (923,952 samples, 0.19%)</title><rect x="1185.2" y="245" width="2.3" height="15.0" fill="rgb(232,126,30)" rx="2" ry="2" />
<text  x="1188.25" y="255.5" ></text>
</g>
<g >
<title>entry_SYSCALL_64_after_hwframe (102,059 samples, 0.02%)</title><rect x="1189.8" y="325" width="0.2" height="15.0" fill="rgb(218,63,15)" rx="2" ry="2" />
<text  x="1192.75" y="335.5" ></text>
</g>
<g >
<title>ksys_read (744,546 samples, 0.15%)</title><rect x="1182.3" y="277" width="1.8" height="15.0" fill="rgb(229,113,27)" rx="2" ry="2" />
<text  x="1185.27" y="287.5" ></text>
</g>
<g >
<title>PredictorAdd11_C (921,726 samples, 0.19%)</title><rect x="100.6" y="341" width="2.3" height="15.0" fill="rgb(249,206,49)" rx="2" ry="2" />
<text  x="103.63" y="351.5" ></text>
</g>
<g >
<title>unmap_region (923,952 samples, 0.19%)</title><rect x="1185.2" y="229" width="2.3" height="15.0" fill="rgb(219,64,15)" rx="2" ry="2" />
<text  x="1188.25" y="239.5" ></text>
</g>
<g >
<title>check_preemption_disabled (744,546 samples, 0.15%)</title><rect x="1182.3" y="37" width="1.8" height="15.0" fill="rgb(220,73,17)" rx="2" ry="2" />
<text  x="1185.27" y="47.5" ></text>
</g>
<g >
<title>filemap_read (744,546 samples, 0.15%)</title><rect x="1182.3" y="245" width="1.8" height="15.0" fill="rgb(246,192,46)" rx="2" ry="2" />
<text  x="1185.27" y="255.5" ></text>
</g>
<g >
<title>do_user_addr_fault (738,300 samples, 0.15%)</title><rect x="86.1" y="293" width="1.8" height="15.0" fill="rgb(228,108,25)" rx="2" ry="2" />
<text  x="89.15" y="303.5" ></text>
</g>
<g >
<title>copy_user_generic_string (744,546 samples, 0.15%)</title><rect x="1182.3" y="197" width="1.8" height="15.0" fill="rgb(205,0,0)" rx="2" ry="2" />
<text  x="1185.27" y="207.5" ></text>
</g>
<g >
<title>__folio_alloc (793,131 samples, 0.16%)</title><rect x="1180.3" y="197" width="2.0" height="15.0" fill="rgb(224,91,21)" rx="2" ry="2" />
<text  x="1183.33" y="207.5" ></text>
</g>
<g >
<title>begin_new_exec (102,059 samples, 0.02%)</title><rect x="1189.8" y="229" width="0.2" height="15.0" fill="rgb(245,184,44)" rx="2" ry="2" />
<text  x="1192.75" y="239.5" ></text>
</g>
<g >
<title>__vm_munmap (923,952 samples, 0.19%)</title><rect x="1185.2" y="277" width="2.3" height="15.0" fill="rgb(231,121,28)" rx="2" ry="2" />
<text  x="1188.25" y="287.5" ></text>
</g>
<g >
<title>vfs_read (744,546 samples, 0.15%)</title><rect x="1182.3" y="261" width="1.8" height="15.0" fill="rgb(224,88,21)" rx="2" ry="2" />
<text  x="1185.27" y="271.5" ></text>
</g>
<g >
<title>exc_page_fault (778,804 samples, 0.16%)</title><rect x="87.9" y="309" width="1.9" height="15.0" fill="rgb(212,35,8)" rx="2" ry="2" />
<text  x="90.95" y="319.5" ></text>
</g>
<g >
<title>folio_batch_move_lru (744,546 samples, 0.15%)</title><rect x="1182.3" y="85" width="1.8" height="15.0" fill="rgb(207,10,2)" rx="2" ry="2" />
<text  x="1185.27" y="95.5" ></text>
</g>
<g >
<title>vma_alloc_folio (738,300 samples, 0.15%)</title><rect x="86.1" y="245" width="1.8" height="15.0" fill="rgb(245,187,44)" rx="2" ry="2" />
<text  x="89.15" y="255.5" ></text>
</g>
<g >
<title>asm_exc_page_fault (793,131 samples, 0.16%)</title><rect x="1180.3" y="293" width="2.0" height="15.0" fill="rgb(225,93,22)" rx="2" ry="2" />
<text  x="1183.33" y="303.5" ></text>
</g>
<g >
<title>get_page_from_freelist (738,300 samples, 0.15%)</title><rect x="86.1" y="197" width="1.8" height="15.0" fill="rgb(252,218,52)" rx="2" ry="2" />
<text  x="89.15" y="207.5" ></text>
</g>
<g >
<title>__folio_alloc (738,300 samples, 0.15%)</title><rect x="86.1" y="229" width="1.8" height="15.0" fill="rgb(224,91,21)" rx="2" ry="2" />
<text  x="89.15" y="239.5" ></text>
</g>
<g >
<title>VP8LInverseTransform (7,339,299 samples, 1.52%)</title><rect x="291.8" y="341" width="17.8" height="15.0" fill="rgb(234,134,32)" rx="2" ry="2" />
<text  x="294.76" y="351.5" ></text>
</g>
<g >
<title>entry_SYSCALL_64_after_hwframe (923,952 samples, 0.19%)</title><rect x="1185.2" y="325" width="2.3" height="15.0" fill="rgb(218,63,15)" rx="2" ry="2" />
<text  x="1188.25" y="335.5" ></text>
</g>
<g >
<title>__memmove_avx_unaligned (923,801 samples, 0.19%)</title><rect x="1175.8" y="309" width="2.3" height="15.0" fill="rgb(254,228,54)" rx="2" ry="2" />
<text  x="1178.83" y="319.5" ></text>
</g>
<g >
<title>__handle_mm_fault (778,804 samples, 0.16%)</title><rect x="87.9" y="261" width="1.9" height="15.0" fill="rgb(207,9,2)" rx="2" ry="2" />
<text  x="90.95" y="271.5" ></text>
</g>
<g >
<title>__alloc_pages (738,300 samples, 0.15%)</title><rect x="86.1" y="213" width="1.8" height="15.0" fill="rgb(233,129,30)" rx="2" ry="2" />
<text  x="89.15" y="223.5" ></text>
</g>
<g >
<title>_copy_to_iter (744,546 samples, 0.15%)</title><rect x="1182.3" y="213" width="1.8" height="15.0" fill="rgb(227,105,25)" rx="2" ry="2" />
<text  x="1185.27" y="223.5" ></text>
</g>
<g >
<title>__handle_mm_fault (744,546 samples, 0.15%)</title><rect x="1182.3" y="117" width="1.8" height="15.0" fill="rgb(207,9,2)" rx="2" ry="2" />
<text  x="1185.27" y="127.5" ></text>
</g>
<g >
<title>PredictorAdd12_C (923,466 samples, 0.19%)</title><rect x="116.4" y="341" width="2.2" height="15.0" fill="rgb(243,176,42)" rx="2" ry="2" />
<text  x="119.38" y="351.5" ></text>
</g>
<g >
<title>[unknown] (325,026,396 samples, 67.12%)</title><rect x="390.2" y="325" width="792.1" height="15.0" fill="rgb(210,24,5)" rx="2" ry="2" />
<text  x="393.22" y="335.5" >[unknown]</text>
</g>
<g >
<title>__alloc_pages (793,131 samples, 0.16%)</title><rect x="1180.3" y="181" width="2.0" height="15.0" fill="rgb(233,129,30)" rx="2" ry="2" />
<text  x="1183.33" y="191.5" ></text>
</g>
<g >
<title>do_syscall_64 (923,952 samples, 0.19%)</title><rect x="1185.2" y="309" width="2.3" height="15.0" fill="rgb(209,20,4)" rx="2" ry="2" />
<text  x="1188.25" y="319.5" ></text>
</g>
<g >
<title>__perf_addr_filters_adjust (480,052 samples, 0.10%)</title><rect x="1184.1" y="325" width="1.1" height="15.0" fill="rgb(247,195,46)" rx="2" ry="2" />
<text  x="1187.08" y="335.5" ></text>
</g>
<g >
<title>asm_exc_page_fault (738,300 samples, 0.15%)</title><rect x="86.1" y="325" width="1.8" height="15.0" fill="rgb(225,93,22)" rx="2" ry="2" />
<text  x="89.15" y="335.5" ></text>
</g>
<g >
<title>DecodeImageData (3,501,835 samples, 0.72%)</title><rect x="89.8" y="341" width="8.6" height="15.0" fill="rgb(254,229,54)" rx="2" ry="2" />
<text  x="92.84" y="351.5" ></text>
</g>
<g >
<title>[unknown] (102,059 samples, 0.02%)</title><rect x="1189.8" y="341" width="0.2" height="15.0" fill="rgb(210,24,5)" rx="2" ry="2" />
<text  x="1192.75" y="351.5" ></text>
</g>
<g >
<title>unmap_page_range (923,952 samples, 0.19%)</title><rect x="1185.2" y="197" width="2.3" height="15.0" fill="rgb(206,5,1)" rx="2" ry="2" />
<text  x="1188.25" y="207.5" ></text>
</g>
<g >
<title>perf_event_exec (102,059 samples, 0.02%)</title><rect x="1189.8" y="213" width="0.2" height="15.0" fill="rgb(218,60,14)" rx="2" ry="2" />
<text  x="1192.75" y="223.5" ></text>
</g>
<g >
<title>entry_SYSCALL_64_after_hwframe (744,546 samples, 0.15%)</title><rect x="1182.3" y="309" width="1.8" height="15.0" fill="rgb(218,63,15)" rx="2" ry="2" />
<text  x="1185.27" y="319.5" ></text>
</g>
<g >
<title>__alloc_pages (778,804 samples, 0.16%)</title><rect x="87.9" y="213" width="1.9" height="15.0" fill="rgb(233,129,30)" rx="2" ry="2" />
<text  x="90.95" y="223.5" ></text>
</g>
<g >
<title>__libc_read (744,546 samples, 0.15%)</title><rect x="1182.3" y="325" width="1.8" height="15.0" fill="rgb(212,34,8)" rx="2" ry="2" />
<text  x="1185.27" y="335.5" ></text>
</g>
<g >
<title>__munmap (923,952 samples, 0.19%)</title><rect x="1185.2" y="341" width="2.3" height="15.0" fill="rgb(211,29,7)" rx="2" ry="2" />
<text  x="1188.25" y="351.5" ></text>
</g>
<g >
<title>get_page_from_freelist (793,131 samples, 0.16%)</title><rect x="1180.3" y="165" width="2.0" height="15.0" fill="rgb(252,218,52)" rx="2" ry="2" />
<text  x="1183.33" y="175.5" ></text>
</g>
<g >
<title>unmap_vmas (923,952 samples, 0.19%)</title><rect x="1185.2" y="213" width="2.3" height="15.0" fill="rgb(243,176,42)" rx="2" ry="2" />
<text  x="1188.25" y="223.5" ></text>
</g>
<g >
<title>exc_page_fault (793,131 samples, 0.16%)</title><rect x="1180.3" y="277" width="2.0" height="15.0" fill="rgb(212,35,8)" rx="2" ry="2" />
<text  x="1183.33" y="287.5" ></text>
</g>
<g >
<title>folio_add_lru (744,546 samples, 0.15%)</title><rect x="1182.3" y="101" width="1.8" height="15.0" fill="rgb(208,17,4)" rx="2" ry="2" />
<text  x="1185.27" y="111.5" ></text>
</g>
<g >
<title>__x64_sys_munmap (923,952 samples, 0.19%)</title><rect x="1185.2" y="293" width="2.3" height="15.0" fill="rgb(206,7,1)" rx="2" ry="2" />
<text  x="1188.25" y="303.5" ></text>
</g>
<g >
<title>malloc (923,434 samples, 0.19%)</title><rect x="1187.5" y="341" width="2.3" height="15.0" fill="rgb(230,119,28)" rx="2" ry="2" />
<text  x="1190.50" y="351.5" ></text>
</g>
<g >
<title>handle_mm_fault (744,546 samples, 0.15%)</title><rect x="1182.3" y="133" width="1.8" height="15.0" fill="rgb(234,135,32)" rx="2" ry="2" />
<text  x="1185.27" y="143.5" ></text>
</g>
<g >
<title>__handle_mm_fault (738,300 samples, 0.15%)</title><rect x="86.1" y="261" width="1.8" height="15.0" fill="rgb(207,9,2)" rx="2" ry="2" />
<text  x="89.15" y="271.5" ></text>
</g>
<g >
<title>do_execveat_common.isra.0 (102,059 samples, 0.02%)</title><rect x="1189.8" y="277" width="0.2" height="15.0" fill="rgb(231,123,29)" rx="2" ry="2" />
<text  x="1192.75" y="287.5" ></text>
</g>
<g >
<title>BuildHuffmanTable (31,986,434 samples, 6.61%)</title><rect x="10.0" y="341" width="77.9" height="15.0" fill="rgb(226,101,24)" rx="2" ry="2" />
<text  x="13.00" y="351.5" >BuildHuff..</text>
</g>
<g >
<title>ReadHuffmanCode (4,618,648 samples, 0.95%)</title><rect x="280.5" y="341" width="11.3" height="15.0" fill="rgb(230,116,27)" rx="2" ry="2" />
<text  x="283.51" y="351.5" ></text>
</g>
<g >
<title>handle_mm_fault (738,300 samples, 0.15%)</title><rect x="86.1" y="277" width="1.8" height="15.0" fill="rgb(234,135,32)" rx="2" ry="2" />
<text  x="89.15" y="287.5" ></text>
</g>
<g >
<title>__x64_sys_execve (102,059 samples, 0.02%)</title><rect x="1189.8" y="293" width="0.2" height="15.0" fill="rgb(247,193,46)" rx="2" ry="2" />
<text  x="1192.75" y="303.5" ></text>
</g>
<g >
<title>vma_alloc_folio (793,131 samples, 0.16%)</title><rect x="1180.3" y="213" width="2.0" height="15.0" fill="rgb(245,187,44)" rx="2" ry="2" />
<text  x="1183.33" y="223.5" ></text>
</g>
<g >
<title>TransformColorInverse_SSE2 (25,673,575 samples, 5.30%)</title><rect x="323.2" y="325" width="62.5" height="15.0" fill="rgb(253,223,53)" rx="2" ry="2" />
<text  x="326.16" y="335.5" >Transf..</text>
</g>
<g >
<title>copy_page_to_iter (744,546 samples, 0.15%)</title><rect x="1182.3" y="229" width="1.8" height="15.0" fill="rgb(209,22,5)" rx="2" ry="2" />
<text  x="1185.27" y="239.5" ></text>
</g>
<g >
<title>PredictorAdd1_SSE2 (5,544,179 samples, 1.14%)</title><rect x="222.0" y="341" width="13.5" height="15.0" fill="rgb(208,14,3)" rx="2" ry="2" />
<text  x="224.97" y="351.5" ></text>
</g>
<g >
<title>clear_page_rep (793,131 samples, 0.16%)</title><rect x="1180.3" y="149" width="2.0" height="15.0" fill="rgb(253,221,52)" rx="2" ry="2" />
<text  x="1183.33" y="159.5" ></text>
</g>
</g>
</svg>
