<?xml version="1.0" standalone="no"?>
<!DOCTYPE svg PUBLIC "-//W3C//DTD SVG 1.1//EN" "http://www.w3.org/Graphics/SVG/1.1/DTD/svg11.dtd">
<svg version="1.1" width="1200" height="342" onload="init(evt)" viewBox="0 0 1200 342" xmlns="http://www.w3.org/2000/svg" xmlns:xlink="http://www.w3.org/1999/xlink">
<!-- Flame graph stack visualization. See https://github.com/brendangregg/FlameGraph for latest version, and http://www.brendangregg.com/flamegraphs.html for examples. -->
<!-- NOTES:  -->
<defs>
	<linearGradient id="background" y1="0" y2="1" x1="0" x2="0" >
		<stop stop-color="#eeeeee" offset="5%" />
		<stop stop-color="#eeeeb0" offset="95%" />
	</linearGradient>
</defs>
<style type="text/css">
	text { font-family:Verdana; font-size:12px; fill:rgb(0,0,0); }
	#search, #ignorecase { opacity:0.1; cursor:pointer; }
	#search:hover, #search.show, #ignorecase:hover, #ignorecase.show { opacity:1; }
	#subtitle { text-anchor:middle; font-color:rgb(160,160,160); }
	#title { text-anchor:middle; font-size:17px}
	#unzoom { cursor:pointer; }
	#frames > *:hover { stroke:black; stroke-width:0.5; cursor:pointer; }
	.hide { display:none; }
	.parent { opacity:0.5; }
</style>
<script type="text/ecmascript">
<![CDATA[
	"use strict";
	var details, searchbtn, unzoombtn, matchedtxt, svg, searching, currentSearchTerm, ignorecase, ignorecaseBtn;
	function init(evt) {
		details = document.getElementById("details").firstChild;
		searchbtn = document.getElementById("search");
		ignorecaseBtn = document.getElementById("ignorecase");
		unzoombtn = document.getElementById("unzoom");
		matchedtxt = document.getElementById("matched");
		svg = document.getElementsByTagName("svg")[0];
		searching = 0;
		currentSearchTerm = null;

		// use GET parameters to restore a flamegraphs state.
		var params = get_params();
		if (params.x && params.y)
			zoom(find_group(document.querySelector('[x="' + params.x + '"][y="' + params.y + '"]')));
                if (params.s) search(params.s);
	}

	// event listeners
	window.addEventListener("click", function(e) {
		var target = find_group(e.target);
		if (target) {
			if (target.nodeName == "a") {
				if (e.ctrlKey === false) return;
				e.preventDefault();
			}
			if (target.classList.contains("parent")) unzoom(true);
			zoom(target);
			if (!document.querySelector('.parent')) {
				// we have basically done a clearzoom so clear the url
				var params = get_params();
				if (params.x) delete params.x;
				if (params.y) delete params.y;
				history.replaceState(null, null, parse_params(params));
				unzoombtn.classList.add("hide");
				return;
			}

			// set parameters for zoom state
			var el = target.querySelector("rect");
			if (el && el.attributes && el.attributes.y && el.attributes._orig_x) {
				var params = get_params()
				params.x = el.attributes._orig_x.value;
				params.y = el.attributes.y.value;
				history.replaceState(null, null, parse_params(params));
			}
		}
		else if (e.target.id == "unzoom") clearzoom();
		else if (e.target.id == "search") search_prompt();
		else if (e.target.id == "ignorecase") toggle_ignorecase();
	}, false)

	// mouse-over for info
	// show
	window.addEventListener("mouseover", function(e) {
		var target = find_group(e.target);
		if (target) details.nodeValue = "Function: " + g_to_text(target);
	}, false)

	// clear
	window.addEventListener("mouseout", function(e) {
		var target = find_group(e.target);
		if (target) details.nodeValue = ' ';
	}, false)

	// ctrl-F for search
	// ctrl-I to toggle case-sensitive search
	window.addEventListener("keydown",function (e) {
		if (e.keyCode === 114 || (e.ctrlKey && e.keyCode === 70)) {
			e.preventDefault();
			search_prompt();
		}
		else if (e.ctrlKey && e.keyCode === 73) {
			e.preventDefault();
			toggle_ignorecase();
		}
	}, false)

	// functions
	function get_params() {
		var params = {};
		var paramsarr = window.location.search.substr(1).split('&');
		for (var i = 0; i < paramsarr.length; ++i) {
			var tmp = paramsarr[i].split("=");
			if (!tmp[0] || !tmp[1]) continue;
			params[tmp[0]]  = decodeURIComponent(tmp[1]);
		}
		return params;
	}
	function parse_params(params) {
		var uri = "?";
		for (var key in params) {
			uri += key + '=' + encodeURIComponent(params[key]) + '&';
		}
		if (uri.slice(-1) == "&")
			uri = uri.substring(0, uri.length - 1);
		if (uri == '?')
			uri = window.location.href.split('?')[0];
		return uri;
	}
	function find_child(node, selector) {
		var children = node.querySelectorAll(selector);
		if (children.length) return children[0];
	}
	function find_group(node) {
		var parent = node.parentElement;
		if (!parent) return;
		if (parent.id == "frames") return node;
		return find_group(parent);
	}
	function orig_save(e, attr, val) {
		if (e.attributes["_orig_" + attr] != undefined) return;
		if (e.attributes[attr] == undefined) return;
		if (val == undefined) val = e.attributes[attr].value;
		e.setAttribute("_orig_" + attr, val);
	}
	function orig_load(e, attr) {
		if (e.attributes["_orig_"+attr] == undefined) return;
		e.attributes[attr].value = e.attributes["_orig_" + attr].value;
		e.removeAttribute("_orig_"+attr);
	}
	function g_to_text(e) {
		var text = find_child(e, "title").firstChild.nodeValue;
		return (text)
	}
	function g_to_func(e) {
		var func = g_to_text(e);
		// if there's any manipulation we want to do to the function
		// name before it's searched, do it here before returning.
		return (func);
	}
	function update_text(e) {
		var r = find_child(e, "rect");
		var t = find_child(e, "text");
		var w = parseFloat(r.attributes.width.value) -3;
		var txt = find_child(e, "title").textContent.replace(/\([^(]*\)$/,"");
		t.attributes.x.value = parseFloat(r.attributes.x.value) + 3;

		// Smaller than this size won't fit anything
		if (w < 2 * 12 * 0.59) {
			t.textContent = "";
			return;
		}

		t.textContent = txt;
		var sl = t.getSubStringLength(0, txt.length);
		// check if only whitespace or if we can fit the entire string into width w
		if (/^ *$/.test(txt) || sl < w)
			return;

		// this isn't perfect, but gives a good starting point
		// and avoids calling getSubStringLength too often
		var start = Math.floor((w/sl) * txt.length);
		for (var x = start; x > 0; x = x-2) {
			if (t.getSubStringLength(0, x + 2) <= w) {
				t.textContent = txt.substring(0, x) + "..";
				return;
			}
		}
		t.textContent = "";
	}

	// zoom
	function zoom_reset(e) {
		if (e.attributes != undefined) {
			orig_load(e, "x");
			orig_load(e, "width");
		}
		if (e.childNodes == undefined) return;
		for (var i = 0, c = e.childNodes; i < c.length; i++) {
			zoom_reset(c[i]);
		}
	}
	function zoom_child(e, x, ratio) {
		if (e.attributes != undefined) {
			if (e.attributes.x != undefined) {
				orig_save(e, "x");
				e.attributes.x.value = (parseFloat(e.attributes.x.value) - x - 10) * ratio + 10;
				if (e.tagName == "text")
					e.attributes.x.value = find_child(e.parentNode, "rect[x]").attributes.x.value + 3;
			}
			if (e.attributes.width != undefined) {
				orig_save(e, "width");
				e.attributes.width.value = parseFloat(e.attributes.width.value) * ratio;
			}
		}

		if (e.childNodes == undefined) return;
		for (var i = 0, c = e.childNodes; i < c.length; i++) {
			zoom_child(c[i], x - 10, ratio);
		}
	}
	function zoom_parent(e) {
		if (e.attributes) {
			if (e.attributes.x != undefined) {
				orig_save(e, "x");
				e.attributes.x.value = 10;
			}
			if (e.attributes.width != undefined) {
				orig_save(e, "width");
				e.attributes.width.value = parseInt(svg.width.baseVal.value) - (10 * 2);
			}
		}
		if (e.childNodes == undefined) return;
		for (var i = 0, c = e.childNodes; i < c.length; i++) {
			zoom_parent(c[i]);
		}
	}
	function zoom(node) {
		var attr = find_child(node, "rect").attributes;
		var width = parseFloat(attr.width.value);
		var xmin = parseFloat(attr.x.value);
		var xmax = parseFloat(xmin + width);
		var ymin = parseFloat(attr.y.value);
		var ratio = (svg.width.baseVal.value - 2 * 10) / width;

		// XXX: Workaround for JavaScript float issues (fix me)
		var fudge = 0.0001;

		unzoombtn.classList.remove("hide");

		var el = document.getElementById("frames").children;
		for (var i = 0; i < el.length; i++) {
			var e = el[i];
			var a = find_child(e, "rect").attributes;
			var ex = parseFloat(a.x.value);
			var ew = parseFloat(a.width.value);
			var upstack;
			// Is it an ancestor
			if (0 == 0) {
				upstack = parseFloat(a.y.value) > ymin;
			} else {
				upstack = parseFloat(a.y.value) < ymin;
			}
			if (upstack) {
				// Direct ancestor
				if (ex <= xmin && (ex+ew+fudge) >= xmax) {
					e.classList.add("parent");
					zoom_parent(e);
					update_text(e);
				}
				// not in current path
				else
					e.classList.add("hide");
			}
			// Children maybe
			else {
				// no common path
				if (ex < xmin || ex + fudge >= xmax) {
					e.classList.add("hide");
				}
				else {
					zoom_child(e, xmin, ratio);
					update_text(e);
				}
			}
		}
		search();
	}
	function unzoom(dont_update_text) {
		unzoombtn.classList.add("hide");
		var el = document.getElementById("frames").children;
		for(var i = 0; i < el.length; i++) {
			el[i].classList.remove("parent");
			el[i].classList.remove("hide");
			zoom_reset(el[i]);
			if(!dont_update_text) update_text(el[i]);
		}
		search();
	}
	function clearzoom() {
		unzoom();

		// remove zoom state
		var params = get_params();
		if (params.x) delete params.x;
		if (params.y) delete params.y;
		history.replaceState(null, null, parse_params(params));
	}

	// search
	function toggle_ignorecase() {
		ignorecase = !ignorecase;
		if (ignorecase) {
			ignorecaseBtn.classList.add("show");
		} else {
			ignorecaseBtn.classList.remove("show");
		}
		reset_search();
		search();
	}
	function reset_search() {
		var el = document.querySelectorAll("#frames rect");
		for (var i = 0; i < el.length; i++) {
			orig_load(el[i], "fill")
		}
		var params = get_params();
		delete params.s;
		history.replaceState(null, null, parse_params(params));
	}
	function search_prompt() {
		if (!searching) {
			var term = prompt("Enter a search term (regexp " +
			    "allowed, eg: ^ext4_)"
			    + (ignorecase ? ", ignoring case" : "")
			    + "\nPress Ctrl-i to toggle case sensitivity", "");
			if (term != null) search(term);
		} else {
			reset_search();
			searching = 0;
			currentSearchTerm = null;
			searchbtn.classList.remove("show");
			searchbtn.firstChild.nodeValue = "Search"
			matchedtxt.classList.add("hide");
			matchedtxt.firstChild.nodeValue = ""
		}
	}
	function search(term) {
		if (term) currentSearchTerm = term;

		var re = new RegExp(currentSearchTerm, ignorecase ? 'i' : '');
		var el = document.getElementById("frames").children;
		var matches = new Object();
		var maxwidth = 0;
		for (var i = 0; i < el.length; i++) {
			var e = el[i];
			var func = g_to_func(e);
			var rect = find_child(e, "rect");
			if (func == null || rect == null)
				continue;

			// Save max width. Only works as we have a root frame
			var w = parseFloat(rect.attributes.width.value);
			if (w > maxwidth)
				maxwidth = w;

			if (func.match(re)) {
				// highlight
				var x = parseFloat(rect.attributes.x.value);
				orig_save(rect, "fill");
				rect.attributes.fill.value = "rgb(230,0,230)";

				// remember matches
				if (matches[x] == undefined) {
					matches[x] = w;
				} else {
					if (w > matches[x]) {
						// overwrite with parent
						matches[x] = w;
					}
				}
				searching = 1;
			}
		}
		if (!searching)
			return;
		var params = get_params();
		params.s = currentSearchTerm;
		history.replaceState(null, null, parse_params(params));

		searchbtn.classList.add("show");
		searchbtn.firstChild.nodeValue = "Reset Search";

		// calculate percent matched, excluding vertical overlap
		var count = 0;
		var lastx = -1;
		var lastw = 0;
		var keys = Array();
		for (k in matches) {
			if (matches.hasOwnProperty(k))
				keys.push(k);
		}
		// sort the matched frames by their x location
		// ascending, then width descending
		keys.sort(function(a, b){
			return a - b;
		});
		// Step through frames saving only the biggest bottom-up frames
		// thanks to the sort order. This relies on the tree property
		// where children are always smaller than their parents.
		var fudge = 0.0001;	// JavaScript floating point
		for (var k in keys) {
			var x = parseFloat(keys[k]);
			var w = matches[keys[k]];
			if (x >= lastx + lastw - fudge) {
				count += w;
				lastx = x;
				lastw = w;
			}
		}
		// display matched percent
		matchedtxt.classList.remove("hide");
		var pct = 100 * count / maxwidth;
		if (pct != 100) pct = pct.toFixed(1)
		matchedtxt.firstChild.nodeValue = "Matched: " + pct + "%";
	}
]]>
</script>
<rect x="0.0" y="0" width="1200.0" height="342.0" fill="url(#background)"  />
<text id="title" x="600.00" y="24" >Flame Graph</text>
<text id="details" x="10.00" y="325" > </text>
<text id="unzoom" x="10.00" y="24" class="hide">Reset Zoom</text>
<text id="search" x="1090.00" y="24" >Search</text>
<text id="ignorecase" x="1174.00" y="24" >ic</text>
<text id="matched" x="1090.00" y="325" > </text>
<g id="frames">
<g >
<title>w2c_decode__webp__wasmsimd_VP8LGetInfo (924,431 samples, 0.12%)</title><rect x="1134.2" y="261" width="1.3" height="15.0" fill="rgb(211,30,7)" rx="2" ry="2" />
<text  x="1137.17" y="271.5" ></text>
</g>
<g >
<title>delay_halt_mwaitx (924,089 samples, 0.12%)</title><rect x="322.8" y="53" width="1.4" height="15.0" fill="rgb(234,133,31)" rx="2" ry="2" />
<text  x="325.79" y="63.5" ></text>
</g>
<g >
<title>[unknown] (182,534,617 samples, 23.08%)</title><rect x="10.0" y="261" width="272.3" height="15.0" fill="rgb(210,24,5)" rx="2" ry="2" />
<text  x="13.00" y="271.5" >[unknown]</text>
</g>
<g >
<title>w2c_decode__webp__wasmsimd_DecodeImageStream (923,794 samples, 0.12%)</title><rect x="751.5" y="261" width="1.4" height="15.0" fill="rgb(233,130,31)" rx="2" ry="2" />
<text  x="754.53" y="271.5" ></text>
</g>
<g >
<title>file_tty_write.constprop.0 (455,420 samples, 0.06%)</title><rect x="10.0" y="165" width="0.7" height="15.0" fill="rgb(219,64,15)" rx="2" ry="2" />
<text  x="13.00" y="175.5" ></text>
</g>
<g >
<title>__irq_exit_rcu (924,228 samples, 0.12%)</title><rect x="748.8" y="213" width="1.3" height="15.0" fill="rgb(227,101,24)" rx="2" ry="2" />
<text  x="751.77" y="223.5" ></text>
</g>
<g >
<title>run_timer_softirq (924,089 samples, 0.12%)</title><rect x="322.8" y="181" width="1.4" height="15.0" fill="rgb(249,206,49)" rx="2" ry="2" />
<text  x="325.79" y="191.5" ></text>
</g>
<g >
<title>scheduler_tick (924,484 samples, 0.12%)</title><rect x="187.6" y="101" width="1.4" height="15.0" fill="rgb(246,190,45)" rx="2" ry="2" />
<text  x="190.61" y="111.5" ></text>
</g>
<g >
<title>w2c_decode__webp__wasmsimd_PredictorAdd11_C (13,760,200 samples, 1.74%)</title><rect x="11.4" y="245" width="20.5" height="15.0" fill="rgb(241,168,40)" rx="2" ry="2" />
<text  x="14.40" y="255.5" ></text>
</g>
<g >
<title>delay_halt_mwaitx (924,228 samples, 0.12%)</title><rect x="748.8" y="53" width="1.3" height="15.0" fill="rgb(234,133,31)" rx="2" ry="2" />
<text  x="751.77" y="63.5" ></text>
</g>
<g >
<title>iommu_completion_wait.isra.0 (924,228 samples, 0.12%)</title><rect x="748.8" y="85" width="1.3" height="15.0" fill="rgb(225,94,22)" rx="2" ry="2" />
<text  x="751.77" y="95.5" ></text>
</g>
<g >
<title>__hrtimer_run_queues (924,394 samples, 0.12%)</title><rect x="750.1" y="181" width="1.4" height="15.0" fill="rgb(237,150,35)" rx="2" ry="2" />
<text  x="753.15" y="191.5" ></text>
</g>
<g >
<title>entry_SYSCALL_64_after_hwframe (485,272 samples, 0.06%)</title><rect x="10.7" y="245" width="0.7" height="15.0" fill="rgb(218,63,15)" rx="2" ry="2" />
<text  x="13.68" y="255.5" ></text>
</g>
<g >
<title>w2c_decode__webp__wasmsimd_PredictorAdd5_C (5,543,404 samples, 0.70%)</title><rect x="200.0" y="245" width="8.3" height="15.0" fill="rgb(232,125,30)" rx="2" ry="2" />
<text  x="203.02" y="255.5" ></text>
</g>
<g >
<title>do_execveat_common.isra.0 (485,272 samples, 0.06%)</title><rect x="10.7" y="197" width="0.7" height="15.0" fill="rgb(231,123,29)" rx="2" ry="2" />
<text  x="13.68" y="207.5" ></text>
</g>
<g >
<title>w2c_decode__webp__wasmsimd_DecodeImageData (286,463,287 samples, 36.22%)</title><rect x="324.2" y="261" width="427.3" height="15.0" fill="rgb(246,191,45)" rx="2" ry="2" />
<text  x="327.17" y="271.5" >w2c_decode__webp__wasmsimd_DecodeImageData</text>
</g>
<g >
<title>__irq_exit_rcu (924,089 samples, 0.12%)</title><rect x="322.8" y="213" width="1.4" height="15.0" fill="rgb(227,101,24)" rx="2" ry="2" />
<text  x="325.79" y="223.5" ></text>
</g>
<g >
<title>asm_sysvec_apic_timer_interrupt (924,320 samples, 0.12%)</title><rect x="814.4" y="245" width="1.4" height="15.0" fill="rgb(232,127,30)" rx="2" ry="2" />
<text  x="817.44" y="255.5" ></text>
</g>
<g >
<title>update_blocked_averages (924,320 samples, 0.12%)</title><rect x="814.4" y="165" width="1.4" height="15.0" fill="rgb(240,163,38)" rx="2" ry="2" />
<text  x="817.44" y="175.5" ></text>
</g>
<g >
<title>tick_sched_timer (924,484 samples, 0.12%)</title><rect x="187.6" y="149" width="1.4" height="15.0" fill="rgb(254,227,54)" rx="2" ry="2" />
<text  x="190.61" y="159.5" ></text>
</g>
<g >
<title>__irq_exit_rcu (924,320 samples, 0.12%)</title><rect x="814.4" y="213" width="1.4" height="15.0" fill="rgb(227,101,24)" rx="2" ry="2" />
<text  x="817.44" y="223.5" ></text>
</g>
<g >
<title>__run_timers (924,433 samples, 0.12%)</title><rect x="186.2" y="149" width="1.4" height="15.0" fill="rgb(206,5,1)" rx="2" ry="2" />
<text  x="189.23" y="159.5" ></text>
</g>
<g >
<title>w2c_decode__webp__wasmsimd_PredictorAdd12_C (41,445,934 samples, 5.24%)</title><rect x="754.0" y="261" width="61.8" height="15.0" fill="rgb(235,138,33)" rx="2" ry="2" />
<text  x="756.99" y="271.5" >w2c_de..</text>
</g>
<g >
<title>__irq_exit_rcu (924,433 samples, 0.12%)</title><rect x="186.2" y="197" width="1.4" height="15.0" fill="rgb(227,101,24)" rx="2" ry="2" />
<text  x="189.23" y="207.5" ></text>
</g>
<g >
<title>tick_sched_handle (924,394 samples, 0.12%)</title><rect x="750.1" y="149" width="1.4" height="15.0" fill="rgb(219,68,16)" rx="2" ry="2" />
<text  x="753.15" y="159.5" ></text>
</g>
<g >
<title>__libc_write (455,420 samples, 0.06%)</title><rect x="10.0" y="245" width="0.7" height="15.0" fill="rgb(238,154,37)" rx="2" ry="2" />
<text  x="13.00" y="255.5" ></text>
</g>
<g >
<title>w2c_decode__webp__wasmsimd_PredictorAdd4_C (922,792 samples, 0.12%)</title><rect x="853.0" y="261" width="1.4" height="15.0" fill="rgb(238,155,37)" rx="2" ry="2" />
<text  x="855.98" y="271.5" ></text>
</g>
<g >
<title>tick_sched_handle (924,484 samples, 0.12%)</title><rect x="187.6" y="133" width="1.4" height="15.0" fill="rgb(219,68,16)" rx="2" ry="2" />
<text  x="190.61" y="143.5" ></text>
</g>
<g >
<title>hrtimer_interrupt (924,484 samples, 0.12%)</title><rect x="187.6" y="181" width="1.4" height="15.0" fill="rgb(228,109,26)" rx="2" ry="2" />
<text  x="190.61" y="191.5" ></text>
</g>
<g >
<title>w2c_decode__webp__wasmsimd_PredictorAdd12_C (2,771,692 samples, 0.35%)</title><rect x="31.9" y="245" width="4.2" height="15.0" fill="rgb(235,138,33)" rx="2" ry="2" />
<text  x="34.93" y="255.5" ></text>
</g>
<g >
<title>amd_iommu_flush_iotlb_all (924,228 samples, 0.12%)</title><rect x="748.8" y="101" width="1.3" height="15.0" fill="rgb(248,198,47)" rx="2" ry="2" />
<text  x="751.77" y="111.5" ></text>
</g>
<g >
<title>perf_event_mmap (362,634 samples, 0.05%)</title><rect x="10.9" y="117" width="0.5" height="15.0" fill="rgb(229,112,26)" rx="2" ry="2" />
<text  x="13.86" y="127.5" ></text>
</g>
<g >
<title>amd_pmu_check_overflow (924,484 samples, 0.12%)</title><rect x="187.6" y="69" width="1.4" height="15.0" fill="rgb(207,10,2)" rx="2" ry="2" />
<text  x="190.61" y="79.5" ></text>
</g>
<g >
<title>asm_sysvec_apic_timer_interrupt (924,089 samples, 0.12%)</title><rect x="322.8" y="245" width="1.4" height="15.0" fill="rgb(232,127,30)" rx="2" ry="2" />
<text  x="325.79" y="255.5" ></text>
</g>
<g >
<title>fq_flush_timeout (924,089 samples, 0.12%)</title><rect x="322.8" y="133" width="1.4" height="15.0" fill="rgb(213,40,9)" rx="2" ry="2" />
<text  x="325.79" y="143.5" ></text>
</g>
<g >
<title>amd_iommu_flush_iotlb_all (924,089 samples, 0.12%)</title><rect x="322.8" y="101" width="1.4" height="15.0" fill="rgb(248,198,47)" rx="2" ry="2" />
<text  x="325.79" y="111.5" ></text>
</g>
<g >
<title>w2c_decode__webp__wasmsimd_BuildHuffmanTable (28,059,229 samples, 3.55%)</title><rect x="282.3" y="261" width="41.9" height="15.0" fill="rgb(218,63,15)" rx="2" ry="2" />
<text  x="285.31" y="271.5" >w2c..</text>
</g>
<g >
<title>perf_event_task_tick (924,394 samples, 0.12%)</title><rect x="750.1" y="101" width="1.4" height="15.0" fill="rgb(205,3,0)" rx="2" ry="2" />
<text  x="753.15" y="111.5" ></text>
</g>
<g >
<title>delay_halt (924,484 samples, 0.12%)</title><rect x="187.6" y="53" width="1.4" height="15.0" fill="rgb(250,207,49)" rx="2" ry="2" />
<text  x="190.61" y="63.5" ></text>
</g>
<g >
<title>sugov_update_single_freq (924,320 samples, 0.12%)</title><rect x="814.4" y="149" width="1.4" height="15.0" fill="rgb(250,208,49)" rx="2" ry="2" />
<text  x="817.44" y="159.5" ></text>
</g>
<g >
<title>__softirqentry_text_start (924,228 samples, 0.12%)</title><rect x="748.8" y="197" width="1.3" height="15.0" fill="rgb(234,135,32)" rx="2" ry="2" />
<text  x="751.77" y="207.5" ></text>
</g>
<g >
<title>amd_pmu_check_overflow (924,394 samples, 0.12%)</title><rect x="750.1" y="85" width="1.4" height="15.0" fill="rgb(207,10,2)" rx="2" ry="2" />
<text  x="753.15" y="95.5" ></text>
</g>
<g >
<title>iommu_completion_wait.isra.0 (924,089 samples, 0.12%)</title><rect x="322.8" y="85" width="1.4" height="15.0" fill="rgb(225,94,22)" rx="2" ry="2" />
<text  x="325.79" y="95.5" ></text>
</g>
<g >
<title>delay_halt (924,394 samples, 0.12%)</title><rect x="750.1" y="69" width="1.4" height="15.0" fill="rgb(250,207,49)" rx="2" ry="2" />
<text  x="753.15" y="79.5" ></text>
</g>
<g >
<title>sysvec_apic_timer_interrupt (1,848,917 samples, 0.23%)</title><rect x="186.2" y="213" width="2.8" height="15.0" fill="rgb(220,69,16)" rx="2" ry="2" />
<text  x="189.23" y="223.5" ></text>
</g>
<g >
<title>w2c_decode__webp__wasmsimd_PredictorAdd3_C (4,587,170 samples, 0.58%)</title><rect x="846.1" y="261" width="6.9" height="15.0" fill="rgb(245,184,44)" rx="2" ry="2" />
<text  x="849.14" y="271.5" ></text>
</g>
<g >
<title>perf_event_task_tick (924,484 samples, 0.12%)</title><rect x="187.6" y="85" width="1.4" height="15.0" fill="rgb(205,3,0)" rx="2" ry="2" />
<text  x="190.61" y="95.5" ></text>
</g>
<g >
<title>w2c_decode__webp__wasmsimd_PredictorAdd8_C (923,998 samples, 0.12%)</title><rect x="854.4" y="261" width="1.3" height="15.0" fill="rgb(212,36,8)" rx="2" ry="2" />
<text  x="857.36" y="271.5" ></text>
</g>
<g >
<title>w2c_decode__webp__wasmsimd_VP8LBuildHuffmanTable (924,377 samples, 0.12%)</title><rect x="939.5" y="261" width="1.4" height="15.0" fill="rgb(243,177,42)" rx="2" ry="2" />
<text  x="942.54" y="271.5" ></text>
</g>
<g >
<title>map_vdso (362,634 samples, 0.05%)</title><rect x="10.9" y="149" width="0.5" height="15.0" fill="rgb(227,103,24)" rx="2" ry="2" />
<text  x="13.86" y="159.5" ></text>
</g>
<g >
<title>update_process_times (924,394 samples, 0.12%)</title><rect x="750.1" y="133" width="1.4" height="15.0" fill="rgb(250,209,50)" rx="2" ry="2" />
<text  x="753.15" y="143.5" ></text>
</g>
<g >
<title>w2c_decode__webp__wasmsimd_VP8LReadBits (4,467,237 samples, 0.56%)</title><rect x="1135.5" y="261" width="6.7" height="15.0" fill="rgb(228,108,26)" rx="2" ry="2" />
<text  x="1138.55" y="271.5" ></text>
</g>
<g >
<title>w2c_decode__webp__wasmsimd_PredictorAdd1_C (6,466,899 samples, 0.82%)</title><rect x="189.0" y="245" width="9.6" height="15.0" fill="rgb(208,14,3)" rx="2" ry="2" />
<text  x="191.99" y="255.5" ></text>
</g>
<g >
<title>delay_halt_mwaitx (924,394 samples, 0.12%)</title><rect x="750.1" y="53" width="1.4" height="15.0" fill="rgb(234,133,31)" rx="2" ry="2" />
<text  x="753.15" y="63.5" ></text>
</g>
<g >
<title>w2c_decode__webp__wasmsimd_VP8LTransformColorInverse_C (30,153,949 samples, 3.81%)</title><rect x="1142.2" y="261" width="45.0" height="15.0" fill="rgb(228,108,25)" rx="2" ry="2" />
<text  x="1145.21" y="271.5" >w2c_..</text>
</g>
<g >
<title>w2c_decode__webp__wasmsimd_ReadHuffmanCode (4,616,673 samples, 0.58%)</title><rect x="855.7" y="261" width="6.9" height="15.0" fill="rgb(222,79,18)" rx="2" ry="2" />
<text  x="858.74" y="271.5" ></text>
</g>
<g >
<title>entry_SYSCALL_64_after_hwframe (455,420 samples, 0.06%)</title><rect x="10.0" y="229" width="0.7" height="15.0" fill="rgb(218,63,15)" rx="2" ry="2" />
<text  x="13.00" y="239.5" ></text>
</g>
<g >
<title>__x64_sys_execve (485,272 samples, 0.06%)</title><rect x="10.7" y="213" width="0.7" height="15.0" fill="rgb(247,193,46)" rx="2" ry="2" />
<text  x="13.68" y="223.5" ></text>
</g>
<g >
<title>run_rebalance_domains (924,320 samples, 0.12%)</title><rect x="814.4" y="181" width="1.4" height="15.0" fill="rgb(232,126,30)" rx="2" ry="2" />
<text  x="817.44" y="191.5" ></text>
</g>
<g >
<title>delay_halt_mwaitx (924,484 samples, 0.12%)</title><rect x="187.6" y="37" width="1.4" height="15.0" fill="rgb(234,133,31)" rx="2" ry="2" />
<text  x="190.61" y="47.5" ></text>
</g>
<g >
<title>w2c_decode__webp__wasmsimd_VP8LInverseTransform (32,443,655 samples, 4.10%)</title><rect x="213.8" y="245" width="48.4" height="15.0" fill="rgb(225,96,23)" rx="2" ry="2" />
<text  x="216.80" y="255.5" >w2c_..</text>
</g>
<g >
<title>hrtimer_interrupt (924,394 samples, 0.12%)</title><rect x="750.1" y="197" width="1.4" height="15.0" fill="rgb(228,109,26)" rx="2" ry="2" />
<text  x="753.15" y="207.5" ></text>
</g>
<g >
<title>w2c_decode__webp__wasmsimd_VP8LDoFillBitWindow (60,244,334 samples, 7.62%)</title><rect x="1044.3" y="261" width="89.9" height="15.0" fill="rgb(211,29,7)" rx="2" ry="2" />
<text  x="1047.29" y="271.5" >w2c_decode..</text>
</g>
<g >
<title>fq_flush_iotlb (924,089 samples, 0.12%)</title><rect x="322.8" y="117" width="1.4" height="15.0" fill="rgb(244,182,43)" rx="2" ry="2" />
<text  x="325.79" y="127.5" ></text>
</g>
<g >
<title>w2c_decode__webp__wasmsimd_DecodeWebpImage (725,118 samples, 0.09%)</title><rect x="752.9" y="261" width="1.1" height="15.0" fill="rgb(217,57,13)" rx="2" ry="2" />
<text  x="755.90" y="271.5" ></text>
</g>
<g >
<title>w2c_decode__webp__wasmsimd_VP8LAddGreenToBlueAndRed_C (51,559,036 samples, 6.52%)</title><rect x="862.6" y="261" width="76.9" height="15.0" fill="rgb(214,44,10)" rx="2" ry="2" />
<text  x="865.62" y="271.5" >w2c_deco..</text>
</g>
<g >
<title>w2c_decode__webp__wasmsimd_PredictorAdd2_C (3,695,282 samples, 0.47%)</title><rect x="840.6" y="261" width="5.5" height="15.0" fill="rgb(251,214,51)" rx="2" ry="2" />
<text  x="843.63" y="271.5" ></text>
</g>
<g >
<title>perf_iterate_sb (362,634 samples, 0.05%)</title><rect x="10.9" y="101" width="0.5" height="15.0" fill="rgb(244,179,42)" rx="2" ry="2" />
<text  x="13.86" y="111.5" ></text>
</g>
<g >
<title>fq_flush_iotlb (924,228 samples, 0.12%)</title><rect x="748.8" y="117" width="1.3" height="15.0" fill="rgb(244,182,43)" rx="2" ry="2" />
<text  x="751.77" y="127.5" ></text>
</g>
<g >
<title>do_syscall_64 (455,420 samples, 0.06%)</title><rect x="10.0" y="213" width="0.7" height="15.0" fill="rgb(209,20,4)" rx="2" ry="2" />
<text  x="13.00" y="223.5" ></text>
</g>
<g >
<title>vfs_write (455,420 samples, 0.06%)</title><rect x="10.0" y="181" width="0.7" height="15.0" fill="rgb(250,209,50)" rx="2" ry="2" />
<text  x="13.00" y="191.5" ></text>
</g>
<g >
<title>set_cred_ucounts (122,638 samples, 0.02%)</title><rect x="10.7" y="133" width="0.2" height="15.0" fill="rgb(246,188,45)" rx="2" ry="2" />
<text  x="13.68" y="143.5" ></text>
</g>
<g >
<title>delay_halt (924,089 samples, 0.12%)</title><rect x="322.8" y="69" width="1.4" height="15.0" fill="rgb(250,207,49)" rx="2" ry="2" />
<text  x="325.79" y="79.5" ></text>
</g>
<g >
<title>__softirqentry_text_start (924,320 samples, 0.12%)</title><rect x="814.4" y="197" width="1.4" height="15.0" fill="rgb(234,135,32)" rx="2" ry="2" />
<text  x="817.44" y="207.5" ></text>
</g>
<g >
<title>__sysvec_apic_timer_interrupt (924,394 samples, 0.12%)</title><rect x="750.1" y="213" width="1.4" height="15.0" fill="rgb(242,173,41)" rx="2" ry="2" />
<text  x="753.15" y="223.5" ></text>
</g>
<g >
<title>tick_sched_timer (924,394 samples, 0.12%)</title><rect x="750.1" y="165" width="1.4" height="15.0" fill="rgb(254,227,54)" rx="2" ry="2" />
<text  x="753.15" y="175.5" ></text>
</g>
<g >
<title>delay_halt (924,228 samples, 0.12%)</title><rect x="748.8" y="69" width="1.3" height="15.0" fill="rgb(250,207,49)" rx="2" ry="2" />
<text  x="751.77" y="79.5" ></text>
</g>
<g >
<title>fq_flush_timeout (924,228 samples, 0.12%)</title><rect x="748.8" y="133" width="1.3" height="15.0" fill="rgb(213,40,9)" rx="2" ry="2" />
<text  x="751.77" y="143.5" ></text>
</g>
<g >
<title>__run_timers (924,089 samples, 0.12%)</title><rect x="322.8" y="165" width="1.4" height="15.0" fill="rgb(206,5,1)" rx="2" ry="2" />
<text  x="325.79" y="175.5" ></text>
</g>
<g >
<title>do_syscall_64 (485,272 samples, 0.06%)</title><rect x="10.7" y="229" width="0.7" height="15.0" fill="rgb(209,20,4)" rx="2" ry="2" />
<text  x="13.68" y="239.5" ></text>
</g>
<g >
<title>__softirqentry_text_start (924,433 samples, 0.12%)</title><rect x="186.2" y="181" width="1.4" height="15.0" fill="rgb(234,135,32)" rx="2" ry="2" />
<text  x="189.23" y="191.5" ></text>
</g>
<g >
<title>sugov_get_util (924,320 samples, 0.12%)</title><rect x="814.4" y="133" width="1.4" height="15.0" fill="rgb(244,181,43)" rx="2" ry="2" />
<text  x="817.44" y="143.5" ></text>
</g>
<g >
<title>sysvec_apic_timer_interrupt (924,320 samples, 0.12%)</title><rect x="814.4" y="229" width="1.4" height="15.0" fill="rgb(220,69,16)" rx="2" ry="2" />
<text  x="817.44" y="239.5" ></text>
</g>
<g >
<title>asm_sysvec_apic_timer_interrupt (1,848,917 samples, 0.23%)</title><rect x="186.2" y="229" width="2.8" height="15.0" fill="rgb(232,127,30)" rx="2" ry="2" />
<text  x="189.23" y="239.5" ></text>
</g>
<g >
<title>w2c_decode__webp__wasmsimd_VP8LConvertBGRAToRGBA_C (69,291,833 samples, 8.76%)</title><rect x="940.9" y="261" width="103.4" height="15.0" fill="rgb(243,179,42)" rx="2" ry="2" />
<text  x="943.92" y="271.5" >w2c_decode__..</text>
</g>
<g >
<title>perf_iterate_ctx (362,634 samples, 0.05%)</title><rect x="10.9" y="85" width="0.5" height="15.0" fill="rgb(205,4,0)" rx="2" ry="2" />
<text  x="13.86" y="95.5" ></text>
</g>
<g >
<title>__softirqentry_text_start (924,089 samples, 0.12%)</title><rect x="322.8" y="197" width="1.4" height="15.0" fill="rgb(234,135,32)" rx="2" ry="2" />
<text  x="325.79" y="207.5" ></text>
</g>
<g >
<title>begin_new_exec (122,638 samples, 0.02%)</title><rect x="10.7" y="149" width="0.2" height="15.0" fill="rgb(245,184,44)" rx="2" ry="2" />
<text  x="13.68" y="159.5" ></text>
</g>
<g >
<title>load_elf_binary (485,272 samples, 0.06%)</title><rect x="10.7" y="165" width="0.7" height="15.0" fill="rgb(223,83,20)" rx="2" ry="2" />
<text  x="13.68" y="175.5" ></text>
</g>
<g >
<title>__hrtimer_run_queues (924,484 samples, 0.12%)</title><rect x="187.6" y="165" width="1.4" height="15.0" fill="rgb(237,150,35)" rx="2" ry="2" />
<text  x="190.61" y="175.5" ></text>
</g>
<g >
<title>ksys_write (455,420 samples, 0.06%)</title><rect x="10.0" y="197" width="0.7" height="15.0" fill="rgb(205,4,1)" rx="2" ry="2" />
<text  x="13.00" y="207.5" ></text>
</g>
<g >
<title>call_timer_fn (924,228 samples, 0.12%)</title><rect x="748.8" y="149" width="1.3" height="15.0" fill="rgb(234,135,32)" rx="2" ry="2" />
<text  x="751.77" y="159.5" ></text>
</g>
<g >
<title>sysvec_apic_timer_interrupt (1,848,622 samples, 0.23%)</title><rect x="748.8" y="229" width="2.7" height="15.0" fill="rgb(220,69,16)" rx="2" ry="2" />
<text  x="751.77" y="239.5" ></text>
</g>
<g >
<title>update_process_times (924,484 samples, 0.12%)</title><rect x="187.6" y="117" width="1.4" height="15.0" fill="rgb(250,209,50)" rx="2" ry="2" />
<text  x="190.61" y="127.5" ></text>
</g>
<g >
<title>run_timer_softirq (924,433 samples, 0.12%)</title><rect x="186.2" y="165" width="1.4" height="15.0" fill="rgb(249,206,49)" rx="2" ry="2" />
<text  x="189.23" y="175.5" ></text>
</g>
<g >
<title>__sysvec_apic_timer_interrupt (924,484 samples, 0.12%)</title><rect x="187.6" y="197" width="1.4" height="15.0" fill="rgb(242,173,41)" rx="2" ry="2" />
<text  x="190.61" y="207.5" ></text>
</g>
<g >
<title>__install_special_mapping (362,634 samples, 0.05%)</title><rect x="10.9" y="133" width="0.5" height="15.0" fill="rgb(212,35,8)" rx="2" ry="2" />
<text  x="13.86" y="143.5" ></text>
</g>
<g >
<title>w2c_decode__webp__wasmsimd_WebPSafeFree (1,848,608 samples, 0.23%)</title><rect x="1187.2" y="261" width="2.8" height="15.0" fill="rgb(223,84,20)" rx="2" ry="2" />
<text  x="1190.20" y="271.5" ></text>
</g>
<g >
<title>scheduler_tick (924,394 samples, 0.12%)</title><rect x="750.1" y="117" width="1.4" height="15.0" fill="rgb(246,190,45)" rx="2" ry="2" />
<text  x="753.15" y="127.5" ></text>
</g>
<g >
<title>w2c_decode__webp__wasmsimd_PredictorAdd1_C (16,630,029 samples, 2.10%)</title><rect x="815.8" y="261" width="24.8" height="15.0" fill="rgb(208,14,3)" rx="2" ry="2" />
<text  x="818.82" y="271.5" >w..</text>
</g>
<g >
<title>w2c_decode__webp__wasmsimd_VP8LTransformColorInverse_C (13,482,385 samples, 1.70%)</title><rect x="262.2" y="245" width="20.1" height="15.0" fill="rgb(228,108,25)" rx="2" ry="2" />
<text  x="265.20" y="255.5" ></text>
</g>
<g >
<title>sysvec_apic_timer_interrupt (924,089 samples, 0.12%)</title><rect x="322.8" y="229" width="1.4" height="15.0" fill="rgb(220,69,16)" rx="2" ry="2" />
<text  x="325.79" y="239.5" ></text>
</g>
<g >
<title>run_timer_softirq (924,228 samples, 0.12%)</title><rect x="748.8" y="181" width="1.3" height="15.0" fill="rgb(249,206,49)" rx="2" ry="2" />
<text  x="751.77" y="191.5" ></text>
</g>
<g >
<title>bprm_execve (485,272 samples, 0.06%)</title><rect x="10.7" y="181" width="0.7" height="15.0" fill="rgb(218,61,14)" rx="2" ry="2" />
<text  x="13.68" y="191.5" ></text>
</g>
<g >
<title>w2c_decode__webp__wasmsimd_PredictorAdd13_C (102,507,073 samples, 12.96%)</title><rect x="36.1" y="245" width="152.9" height="15.0" fill="rgb(228,108,26)" rx="2" ry="2" />
<text  x="39.07" y="255.5" >w2c_decode__webp__w..</text>
</g>
<g >
<title>w2c_decode__webp__wasmsimd_PredictorAdd3_C (923,664 samples, 0.12%)</title><rect x="198.6" y="245" width="1.4" height="15.0" fill="rgb(245,184,44)" rx="2" ry="2" />
<text  x="201.64" y="255.5" ></text>
</g>
<g >
<title>asm_sysvec_apic_timer_interrupt (1,848,622 samples, 0.23%)</title><rect x="748.8" y="245" width="2.7" height="15.0" fill="rgb(232,127,30)" rx="2" ry="2" />
<text  x="751.77" y="255.5" ></text>
</g>
<g >
<title>w2c_decode__webp__wasmsimd_PredictorAdd7_C (3,694,953 samples, 0.47%)</title><rect x="208.3" y="245" width="5.5" height="15.0" fill="rgb(219,66,15)" rx="2" ry="2" />
<text  x="211.28" y="255.5" ></text>
</g>
<g >
<title>call_timer_fn (924,089 samples, 0.12%)</title><rect x="322.8" y="149" width="1.4" height="15.0" fill="rgb(234,135,32)" rx="2" ry="2" />
<text  x="325.79" y="159.5" ></text>
</g>
<g >
<title>all (790,973,010 samples, 100%)</title><rect x="10.0" y="293" width="1180.0" height="15.0" fill="rgb(213,39,9)" rx="2" ry="2" />
<text  x="13.00" y="303.5" ></text>
</g>
<g >
<title>decode_webp_was (790,941,728 samples, 100.00%)</title><rect x="10.0" y="277" width="1180.0" height="15.0" fill="rgb(216,54,12)" rx="2" ry="2" />
<text  x="13.00" y="287.5" >decode_webp_was</text>
</g>
<g >
<title>__run_timers (924,228 samples, 0.12%)</title><rect x="748.8" y="165" width="1.3" height="15.0" fill="rgb(206,5,1)" rx="2" ry="2" />
<text  x="751.77" y="175.5" ></text>
</g>
</g>
</svg>
