<?xml version="1.0" standalone="no"?>
<!DOCTYPE svg PUBLIC "-//W3C//DTD SVG 1.1//EN" "http://www.w3.org/Graphics/SVG/1.1/DTD/svg11.dtd">
<svg version="1.1" width="1200" height="342" onload="init(evt)" viewBox="0 0 1200 342" xmlns="http://www.w3.org/2000/svg" xmlns:xlink="http://www.w3.org/1999/xlink">
<!-- Flame graph stack visualization. See https://github.com/brendangregg/FlameGraph for latest version, and http://www.brendangregg.com/flamegraphs.html for examples. -->
<!-- NOTES:  -->
<defs>
	<linearGradient id="background" y1="0" y2="1" x1="0" x2="0" >
		<stop stop-color="#eeeeee" offset="5%" />
		<stop stop-color="#eeeeb0" offset="95%" />
	</linearGradient>
</defs>
<style type="text/css">
	text { font-family:Verdana; font-size:12px; fill:rgb(0,0,0); }
	#search, #ignorecase { opacity:0.1; cursor:pointer; }
	#search:hover, #search.show, #ignorecase:hover, #ignorecase.show { opacity:1; }
	#subtitle { text-anchor:middle; font-color:rgb(160,160,160); }
	#title { text-anchor:middle; font-size:17px}
	#unzoom { cursor:pointer; }
	#frames > *:hover { stroke:black; stroke-width:0.5; cursor:pointer; }
	.hide { display:none; }
	.parent { opacity:0.5; }
</style>
<script type="text/ecmascript">
<![CDATA[
	"use strict";
	var details, searchbtn, unzoombtn, matchedtxt, svg, searching, currentSearchTerm, ignorecase, ignorecaseBtn;
	function init(evt) {
		details = document.getElementById("details").firstChild;
		searchbtn = document.getElementById("search");
		ignorecaseBtn = document.getElementById("ignorecase");
		unzoombtn = document.getElementById("unzoom");
		matchedtxt = document.getElementById("matched");
		svg = document.getElementsByTagName("svg")[0];
		searching = 0;
		currentSearchTerm = null;

		// use GET parameters to restore a flamegraphs state.
		var params = get_params();
		if (params.x && params.y)
			zoom(find_group(document.querySelector('[x="' + params.x + '"][y="' + params.y + '"]')));
                if (params.s) search(params.s);
	}

	// event listeners
	window.addEventListener("click", function(e) {
		var target = find_group(e.target);
		if (target) {
			if (target.nodeName == "a") {
				if (e.ctrlKey === false) return;
				e.preventDefault();
			}
			if (target.classList.contains("parent")) unzoom(true);
			zoom(target);
			if (!document.querySelector('.parent')) {
				// we have basically done a clearzoom so clear the url
				var params = get_params();
				if (params.x) delete params.x;
				if (params.y) delete params.y;
				history.replaceState(null, null, parse_params(params));
				unzoombtn.classList.add("hide");
				return;
			}

			// set parameters for zoom state
			var el = target.querySelector("rect");
			if (el && el.attributes && el.attributes.y && el.attributes._orig_x) {
				var params = get_params()
				params.x = el.attributes._orig_x.value;
				params.y = el.attributes.y.value;
				history.replaceState(null, null, parse_params(params));
			}
		}
		else if (e.target.id == "unzoom") clearzoom();
		else if (e.target.id == "search") search_prompt();
		else if (e.target.id == "ignorecase") toggle_ignorecase();
	}, false)

	// mouse-over for info
	// show
	window.addEventListener("mouseover", function(e) {
		var target = find_group(e.target);
		if (target) details.nodeValue = "Function: " + g_to_text(target);
	}, false)

	// clear
	window.addEventListener("mouseout", function(e) {
		var target = find_group(e.target);
		if (target) details.nodeValue = ' ';
	}, false)

	// ctrl-F for search
	// ctrl-I to toggle case-sensitive search
	window.addEventListener("keydown",function (e) {
		if (e.keyCode === 114 || (e.ctrlKey && e.keyCode === 70)) {
			e.preventDefault();
			search_prompt();
		}
		else if (e.ctrlKey && e.keyCode === 73) {
			e.preventDefault();
			toggle_ignorecase();
		}
	}, false)

	// functions
	function get_params() {
		var params = {};
		var paramsarr = window.location.search.substr(1).split('&');
		for (var i = 0; i < paramsarr.length; ++i) {
			var tmp = paramsarr[i].split("=");
			if (!tmp[0] || !tmp[1]) continue;
			params[tmp[0]]  = decodeURIComponent(tmp[1]);
		}
		return params;
	}
	function parse_params(params) {
		var uri = "?";
		for (var key in params) {
			uri += key + '=' + encodeURIComponent(params[key]) + '&';
		}
		if (uri.slice(-1) == "&")
			uri = uri.substring(0, uri.length - 1);
		if (uri == '?')
			uri = window.location.href.split('?')[0];
		return uri;
	}
	function find_child(node, selector) {
		var children = node.querySelectorAll(selector);
		if (children.length) return children[0];
	}
	function find_group(node) {
		var parent = node.parentElement;
		if (!parent) return;
		if (parent.id == "frames") return node;
		return find_group(parent);
	}
	function orig_save(e, attr, val) {
		if (e.attributes["_orig_" + attr] != undefined) return;
		if (e.attributes[attr] == undefined) return;
		if (val == undefined) val = e.attributes[attr].value;
		e.setAttribute("_orig_" + attr, val);
	}
	function orig_load(e, attr) {
		if (e.attributes["_orig_"+attr] == undefined) return;
		e.attributes[attr].value = e.attributes["_orig_" + attr].value;
		e.removeAttribute("_orig_"+attr);
	}
	function g_to_text(e) {
		var text = find_child(e, "title").firstChild.nodeValue;
		return (text)
	}
	function g_to_func(e) {
		var func = g_to_text(e);
		// if there's any manipulation we want to do to the function
		// name before it's searched, do it here before returning.
		return (func);
	}
	function update_text(e) {
		var r = find_child(e, "rect");
		var t = find_child(e, "text");
		var w = parseFloat(r.attributes.width.value) -3;
		var txt = find_child(e, "title").textContent.replace(/\([^(]*\)$/,"");
		t.attributes.x.value = parseFloat(r.attributes.x.value) + 3;

		// Smaller than this size won't fit anything
		if (w < 2 * 12 * 0.59) {
			t.textContent = "";
			return;
		}

		t.textContent = txt;
		var sl = t.getSubStringLength(0, txt.length);
		// check if only whitespace or if we can fit the entire string into width w
		if (/^ *$/.test(txt) || sl < w)
			return;

		// this isn't perfect, but gives a good starting point
		// and avoids calling getSubStringLength too often
		var start = Math.floor((w/sl) * txt.length);
		for (var x = start; x > 0; x = x-2) {
			if (t.getSubStringLength(0, x + 2) <= w) {
				t.textContent = txt.substring(0, x) + "..";
				return;
			}
		}
		t.textContent = "";
	}

	// zoom
	function zoom_reset(e) {
		if (e.attributes != undefined) {
			orig_load(e, "x");
			orig_load(e, "width");
		}
		if (e.childNodes == undefined) return;
		for (var i = 0, c = e.childNodes; i < c.length; i++) {
			zoom_reset(c[i]);
		}
	}
	function zoom_child(e, x, ratio) {
		if (e.attributes != undefined) {
			if (e.attributes.x != undefined) {
				orig_save(e, "x");
				e.attributes.x.value = (parseFloat(e.attributes.x.value) - x - 10) * ratio + 10;
				if (e.tagName == "text")
					e.attributes.x.value = find_child(e.parentNode, "rect[x]").attributes.x.value + 3;
			}
			if (e.attributes.width != undefined) {
				orig_save(e, "width");
				e.attributes.width.value = parseFloat(e.attributes.width.value) * ratio;
			}
		}

		if (e.childNodes == undefined) return;
		for (var i = 0, c = e.childNodes; i < c.length; i++) {
			zoom_child(c[i], x - 10, ratio);
		}
	}
	function zoom_parent(e) {
		if (e.attributes) {
			if (e.attributes.x != undefined) {
				orig_save(e, "x");
				e.attributes.x.value = 10;
			}
			if (e.attributes.width != undefined) {
				orig_save(e, "width");
				e.attributes.width.value = parseInt(svg.width.baseVal.value) - (10 * 2);
			}
		}
		if (e.childNodes == undefined) return;
		for (var i = 0, c = e.childNodes; i < c.length; i++) {
			zoom_parent(c[i]);
		}
	}
	function zoom(node) {
		var attr = find_child(node, "rect").attributes;
		var width = parseFloat(attr.width.value);
		var xmin = parseFloat(attr.x.value);
		var xmax = parseFloat(xmin + width);
		var ymin = parseFloat(attr.y.value);
		var ratio = (svg.width.baseVal.value - 2 * 10) / width;

		// XXX: Workaround for JavaScript float issues (fix me)
		var fudge = 0.0001;

		unzoombtn.classList.remove("hide");

		var el = document.getElementById("frames").children;
		for (var i = 0; i < el.length; i++) {
			var e = el[i];
			var a = find_child(e, "rect").attributes;
			var ex = parseFloat(a.x.value);
			var ew = parseFloat(a.width.value);
			var upstack;
			// Is it an ancestor
			if (0 == 0) {
				upstack = parseFloat(a.y.value) > ymin;
			} else {
				upstack = parseFloat(a.y.value) < ymin;
			}
			if (upstack) {
				// Direct ancestor
				if (ex <= xmin && (ex+ew+fudge) >= xmax) {
					e.classList.add("parent");
					zoom_parent(e);
					update_text(e);
				}
				// not in current path
				else
					e.classList.add("hide");
			}
			// Children maybe
			else {
				// no common path
				if (ex < xmin || ex + fudge >= xmax) {
					e.classList.add("hide");
				}
				else {
					zoom_child(e, xmin, ratio);
					update_text(e);
				}
			}
		}
		search();
	}
	function unzoom(dont_update_text) {
		unzoombtn.classList.add("hide");
		var el = document.getElementById("frames").children;
		for(var i = 0; i < el.length; i++) {
			el[i].classList.remove("parent");
			el[i].classList.remove("hide");
			zoom_reset(el[i]);
			if(!dont_update_text) update_text(el[i]);
		}
		search();
	}
	function clearzoom() {
		unzoom();

		// remove zoom state
		var params = get_params();
		if (params.x) delete params.x;
		if (params.y) delete params.y;
		history.replaceState(null, null, parse_params(params));
	}

	// search
	function toggle_ignorecase() {
		ignorecase = !ignorecase;
		if (ignorecase) {
			ignorecaseBtn.classList.add("show");
		} else {
			ignorecaseBtn.classList.remove("show");
		}
		reset_search();
		search();
	}
	function reset_search() {
		var el = document.querySelectorAll("#frames rect");
		for (var i = 0; i < el.length; i++) {
			orig_load(el[i], "fill")
		}
		var params = get_params();
		delete params.s;
		history.replaceState(null, null, parse_params(params));
	}
	function search_prompt() {
		if (!searching) {
			var term = prompt("Enter a search term (regexp " +
			    "allowed, eg: ^ext4_)"
			    + (ignorecase ? ", ignoring case" : "")
			    + "\nPress Ctrl-i to toggle case sensitivity", "");
			if (term != null) search(term);
		} else {
			reset_search();
			searching = 0;
			currentSearchTerm = null;
			searchbtn.classList.remove("show");
			searchbtn.firstChild.nodeValue = "Search"
			matchedtxt.classList.add("hide");
			matchedtxt.firstChild.nodeValue = ""
		}
	}
	function search(term) {
		if (term) currentSearchTerm = term;

		var re = new RegExp(currentSearchTerm, ignorecase ? 'i' : '');
		var el = document.getElementById("frames").children;
		var matches = new Object();
		var maxwidth = 0;
		for (var i = 0; i < el.length; i++) {
			var e = el[i];
			var func = g_to_func(e);
			var rect = find_child(e, "rect");
			if (func == null || rect == null)
				continue;

			// Save max width. Only works as we have a root frame
			var w = parseFloat(rect.attributes.width.value);
			if (w > maxwidth)
				maxwidth = w;

			if (func.match(re)) {
				// highlight
				var x = parseFloat(rect.attributes.x.value);
				orig_save(rect, "fill");
				rect.attributes.fill.value = "rgb(230,0,230)";

				// remember matches
				if (matches[x] == undefined) {
					matches[x] = w;
				} else {
					if (w > matches[x]) {
						// overwrite with parent
						matches[x] = w;
					}
				}
				searching = 1;
			}
		}
		if (!searching)
			return;
		var params = get_params();
		params.s = currentSearchTerm;
		history.replaceState(null, null, parse_params(params));

		searchbtn.classList.add("show");
		searchbtn.firstChild.nodeValue = "Reset Search";

		// calculate percent matched, excluding vertical overlap
		var count = 0;
		var lastx = -1;
		var lastw = 0;
		var keys = Array();
		for (k in matches) {
			if (matches.hasOwnProperty(k))
				keys.push(k);
		}
		// sort the matched frames by their x location
		// ascending, then width descending
		keys.sort(function(a, b){
			return a - b;
		});
		// Step through frames saving only the biggest bottom-up frames
		// thanks to the sort order. This relies on the tree property
		// where children are always smaller than their parents.
		var fudge = 0.0001;	// JavaScript floating point
		for (var k in keys) {
			var x = parseFloat(keys[k]);
			var w = matches[keys[k]];
			if (x >= lastx + lastw - fudge) {
				count += w;
				lastx = x;
				lastw = w;
			}
		}
		// display matched percent
		matchedtxt.classList.remove("hide");
		var pct = 100 * count / maxwidth;
		if (pct != 100) pct = pct.toFixed(1)
		matchedtxt.firstChild.nodeValue = "Matched: " + pct + "%";
	}
]]>
</script>
<rect x="0.0" y="0" width="1200.0" height="342.0" fill="url(#background)"  />
<text id="title" x="600.00" y="24" >Flame Graph</text>
<text id="details" x="10.00" y="325" > </text>
<text id="unzoom" x="10.00" y="24" class="hide">Reset Zoom</text>
<text id="search" x="1090.00" y="24" >Search</text>
<text id="ignorecase" x="1174.00" y="24" >ic</text>
<text id="matched" x="1090.00" y="325" > </text>
<g id="frames">
<g >
<title>__run_timers (5,541,025 samples, 0.11%)</title><rect x="273.7" y="165" width="1.3" height="15.0" fill="rgb(206,5,1)" rx="2" ry="2" />
<text  x="276.71" y="175.5" ></text>
</g>
<g >
<title>asm_sysvec_apic_timer_interrupt (5,541,025 samples, 0.11%)</title><rect x="273.7" y="245" width="1.3" height="15.0" fill="rgb(232,127,30)" rx="2" ry="2" />
<text  x="276.71" y="255.5" ></text>
</g>
<g >
<title>ksys_write (1,848,440 samples, 0.04%)</title><rect x="1188.7" y="197" width="0.4" height="15.0" fill="rgb(205,4,1)" rx="2" ry="2" />
<text  x="1191.67" y="207.5" ></text>
</g>
<g >
<title>VP8YuvToRgb32_SSE2 (923,924 samples, 0.02%)</title><rect x="1084.1" y="245" width="0.2" height="15.0" fill="rgb(241,167,40)" rx="2" ry="2" />
<text  x="1087.12" y="255.5" ></text>
</g>
<g >
<title>do_exit (924,218 samples, 0.02%)</title><rect x="1189.7" y="197" width="0.3" height="15.0" fill="rgb(231,122,29)" rx="2" ry="2" />
<text  x="1192.75" y="207.5" ></text>
</g>
<g >
<title>entry_SYSCALL_64_after_hwframe (924,218 samples, 0.02%)</title><rect x="1189.7" y="261" width="0.3" height="15.0" fill="rgb(218,63,15)" rx="2" ry="2" />
<text  x="1192.75" y="271.5" ></text>
</g>
<g >
<title>ghes_poll_func (5,541,025 samples, 0.11%)</title><rect x="273.7" y="133" width="1.3" height="15.0" fill="rgb(252,220,52)" rx="2" ry="2" />
<text  x="276.71" y="143.5" ></text>
</g>
<g >
<title>Upsample32Pixels_SSE2 (924,280 samples, 0.02%)</title><rect x="275.0" y="261" width="0.2" height="15.0" fill="rgb(223,83,20)" rx="2" ry="2" />
<text  x="278.03" y="271.5" ></text>
</g>
<g >
<title>VP8ParseProba (1,848,692 samples, 0.04%)</title><rect x="281.8" y="261" width="0.4" height="15.0" fill="rgb(224,88,21)" rx="2" ry="2" />
<text  x="284.78" y="271.5" ></text>
</g>
<g >
<title>exc_page_fault (865,042 samples, 0.02%)</title><rect x="276.5" y="229" width="0.2" height="15.0" fill="rgb(212,35,8)" rx="2" ry="2" />
<text  x="279.53" y="239.5" ></text>
</g>
<g >
<title>DC8uv_SSE2 (820,363 samples, 0.02%)</title><rect x="298.4" y="245" width="0.2" height="15.0" fill="rgb(206,8,2)" rx="2" ry="2" />
<text  x="301.42" y="255.5" ></text>
</g>
<g >
<title>irqentry_exit_to_user_mode (923,163 samples, 0.02%)</title><rect x="276.7" y="229" width="0.3" height="15.0" fill="rgb(254,229,54)" rx="2" ry="2" />
<text  x="279.74" y="239.5" ></text>
</g>
<g >
<title>__ghes_peek_estatus.isra.0 (3,694,529 samples, 0.07%)</title><rect x="1054.3" y="85" width="0.9" height="15.0" fill="rgb(248,201,48)" rx="2" ry="2" />
<text  x="1057.30" y="95.5" ></text>
</g>
<g >
<title>native_flush_tlb_one_user (923,729 samples, 0.02%)</title><rect x="274.8" y="37" width="0.2" height="15.0" fill="rgb(254,227,54)" rx="2" ry="2" />
<text  x="277.81" y="47.5" ></text>
</g>
<g >
<title>HE4_C (924,181 samples, 0.02%)</title><rect x="311.1" y="245" width="0.2" height="15.0" fill="rgb(220,70,16)" rx="2" ry="2" />
<text  x="314.09" y="255.5" ></text>
</g>
<g >
<title>HU4_C (923,535 samples, 0.02%)</title><rect x="12.4" y="261" width="0.2" height="15.0" fill="rgb(216,54,13)" rx="2" ry="2" />
<text  x="15.42" y="271.5" ></text>
</g>
<g >
<title>VP8YuvToRgb32_SSE2 (14,737,898 samples, 0.30%)</title><rect x="288.5" y="261" width="3.5" height="15.0" fill="rgb(241,167,40)" rx="2" ry="2" />
<text  x="291.52" y="271.5" ></text>
</g>
<g >
<title>VP8PlanarTo24b_SSE2 (26,476,776 samples, 0.53%)</title><rect x="282.2" y="261" width="6.3" height="15.0" fill="rgb(208,15,3)" rx="2" ry="2" />
<text  x="285.22" y="271.5" ></text>
</g>
<g >
<title>ext4_da_get_block_prep (924,195 samples, 0.02%)</title><rect x="1188.9" y="101" width="0.2" height="15.0" fill="rgb(241,168,40)" rx="2" ry="2" />
<text  x="1191.89" y="111.5" ></text>
</g>
<g >
<title>unmap_page_range (924,218 samples, 0.02%)</title><rect x="1189.7" y="133" width="0.3" height="15.0" fill="rgb(206,5,1)" rx="2" ry="2" />
<text  x="1192.75" y="143.5" ></text>
</g>
<g >
<title>do_user_addr_fault (865,042 samples, 0.02%)</title><rect x="276.5" y="213" width="0.2" height="15.0" fill="rgb(228,108,25)" rx="2" ry="2" />
<text  x="279.53" y="223.5" ></text>
</g>
<g >
<title>__softirqentry_text_start (5,541,025 samples, 0.11%)</title><rect x="273.7" y="197" width="1.3" height="15.0" fill="rgb(234,135,32)" rx="2" ry="2" />
<text  x="276.71" y="207.5" ></text>
</g>
<g >
<title>do_syscall_64 (924,218 samples, 0.02%)</title><rect x="1189.7" y="245" width="0.3" height="15.0" fill="rgb(209,20,4)" rx="2" ry="2" />
<text  x="1192.75" y="255.5" ></text>
</g>
<g >
<title>ghes_poll_func (3,694,529 samples, 0.07%)</title><rect x="1054.3" y="117" width="0.9" height="15.0" fill="rgb(252,220,52)" rx="2" ry="2" />
<text  x="1057.30" y="127.5" ></text>
</g>
<g >
<title>LD4_SSE2 (1,848,339 samples, 0.04%)</title><rect x="312.4" y="245" width="0.4" height="15.0" fill="rgb(242,173,41)" rx="2" ry="2" />
<text  x="315.38" y="255.5" ></text>
</g>
<g >
<title>HD4_C (1,848,163 samples, 0.04%)</title><rect x="310.7" y="245" width="0.4" height="15.0" fill="rgb(226,100,23)" rx="2" ry="2" />
<text  x="313.65" y="255.5" ></text>
</g>
<g >
<title>RD4_SSE2 (923,955 samples, 0.02%)</title><rect x="312.8" y="245" width="0.2" height="15.0" fill="rgb(253,224,53)" rx="2" ry="2" />
<text  x="315.82" y="255.5" ></text>
</g>
<g >
<title>memcpy_fromio (923,548 samples, 0.02%)</title><rect x="1055.0" y="53" width="0.2" height="15.0" fill="rgb(232,127,30)" rx="2" ry="2" />
<text  x="1057.96" y="63.5" ></text>
</g>
<g >
<title>TransformAC3_C (154,760,463 samples, 3.12%)</title><rect x="19.6" y="261" width="36.9" height="15.0" fill="rgb(209,19,4)" rx="2" ry="2" />
<text  x="22.64" y="271.5" >Tra..</text>
</g>
<g >
<title>IDecode (886,469 samples, 0.02%)</title><rect x="312.2" y="245" width="0.2" height="15.0" fill="rgb(245,185,44)" rx="2" ry="2" />
<text  x="315.17" y="255.5" ></text>
</g>
<g >
<title>all (4,953,806,230 samples, 100%)</title><rect x="10.0" y="293" width="1180.0" height="15.0" fill="rgb(213,39,9)" rx="2" ry="2" />
<text  x="13.00" y="303.5" ></text>
</g>
<g >
<title>TransformUV_C (5,440,578 samples, 0.11%)</title><rect x="525.9" y="245" width="1.2" height="15.0" fill="rgb(236,146,34)" rx="2" ry="2" />
<text  x="528.85" y="255.5" ></text>
</g>
<g >
<title>__memmove_avx_unaligned_erms (923,528 samples, 0.02%)</title><rect x="1189.2" y="261" width="0.2" height="15.0" fill="rgb(205,0,0)" rx="2" ry="2" />
<text  x="1192.19" y="271.5" ></text>
</g>
<g >
<title>asm_exc_page_fault (1,788,205 samples, 0.04%)</title><rect x="276.5" y="245" width="0.5" height="15.0" fill="rgb(225,93,22)" rx="2" ry="2" />
<text  x="279.53" y="255.5" ></text>
</g>
<g >
<title>ReconstructRow (110,770,346 samples, 2.24%)</title><rect x="313.0" y="245" width="26.4" height="15.0" fill="rgb(225,93,22)" rx="2" ry="2" />
<text  x="316.04" y="255.5" >R..</text>
</g>
<g >
<title>copy_page_from_iter_atomic (924,245 samples, 0.02%)</title><rect x="1188.7" y="133" width="0.2" height="15.0" fill="rgb(231,120,28)" rx="2" ry="2" />
<text  x="1191.67" y="143.5" ></text>
</g>
<g >
<title>__irq_exit_rcu (5,541,025 samples, 0.11%)</title><rect x="273.7" y="213" width="1.3" height="15.0" fill="rgb(227,101,24)" rx="2" ry="2" />
<text  x="276.71" y="223.5" ></text>
</g>
<g >
<title>sysvec_apic_timer_interrupt (3,694,529 samples, 0.07%)</title><rect x="1054.3" y="213" width="0.9" height="15.0" fill="rgb(220,69,16)" rx="2" ry="2" />
<text  x="1057.30" y="223.5" ></text>
</g>
<g >
<title>__register_frame_info (478,863 samples, 0.01%)</title><rect x="1189.6" y="261" width="0.1" height="15.0" fill="rgb(251,215,51)" rx="2" ry="2" />
<text  x="1192.63" y="271.5" ></text>
</g>
<g >
<title>Transform_SSE2 (109,540,738 samples, 2.21%)</title><rect x="248.9" y="261" width="26.1" height="15.0" fill="rgb(233,129,30)" rx="2" ry="2" />
<text  x="251.93" y="271.5" >T..</text>
</g>
<g >
<title>__ghes_peek_estatus.isra.0 (3,694,684 samples, 0.07%)</title><rect x="274.1" y="101" width="0.9" height="15.0" fill="rgb(248,201,48)" rx="2" ry="2" />
<text  x="277.15" y="111.5" ></text>
</g>
<g >
<title>VP8ParseIntraModeRow (8,316,570 samples, 0.17%)</title><rect x="279.8" y="261" width="2.0" height="15.0" fill="rgb(231,121,29)" rx="2" ry="2" />
<text  x="282.80" y="271.5" ></text>
</g>
<g >
<title>call_timer_fn (5,541,025 samples, 0.11%)</title><rect x="273.7" y="149" width="1.3" height="15.0" fill="rgb(234,135,32)" rx="2" ry="2" />
<text  x="276.71" y="159.5" ></text>
</g>
<g >
<title>VP8DecodeMB (10,994,678 samples, 0.22%)</title><rect x="277.0" y="261" width="2.6" height="15.0" fill="rgb(208,18,4)" rx="2" ry="2" />
<text  x="279.96" y="271.5" ></text>
</g>
<g >
<title>ext4_block_write_begin (924,195 samples, 0.02%)</title><rect x="1188.9" y="117" width="0.2" height="15.0" fill="rgb(206,4,1)" rx="2" ry="2" />
<text  x="1191.89" y="127.5" ></text>
</g>
<g >
<title>TransformDCUV_C (2,771,368 samples, 0.06%)</title><rect x="424.3" y="245" width="0.6" height="15.0" fill="rgb(214,44,10)" rx="2" ry="2" />
<text  x="427.28" y="255.5" ></text>
</g>
<g >
<title>run_timer_softirq (3,694,529 samples, 0.07%)</title><rect x="1054.3" y="165" width="0.9" height="15.0" fill="rgb(249,206,49)" rx="2" ry="2" />
<text  x="1057.30" y="175.5" ></text>
</g>
<g >
<title>TransformAC3_C (345,145,066 samples, 6.97%)</title><rect x="342.1" y="245" width="82.2" height="15.0" fill="rgb(209,19,4)" rx="2" ry="2" />
<text  x="345.06" y="255.5" >Transform..</text>
</g>
<g >
<title>vfs_write (1,848,440 samples, 0.04%)</title><rect x="1188.7" y="181" width="0.4" height="15.0" fill="rgb(250,209,50)" rx="2" ry="2" />
<text  x="1191.67" y="191.5" ></text>
</g>
<g >
<title>exit_to_user_mode_prepare (922,441 samples, 0.02%)</title><rect x="291.8" y="213" width="0.2" height="15.0" fill="rgb(228,108,25)" rx="2" ry="2" />
<text  x="294.82" y="223.5" ></text>
</g>
<g >
<title>__irq_exit_rcu (3,694,529 samples, 0.07%)</title><rect x="1054.3" y="197" width="0.9" height="15.0" fill="rgb(227,101,24)" rx="2" ry="2" />
<text  x="1057.30" y="207.5" ></text>
</g>
<g >
<title>__memmove_avx_unaligned_erms (924,313 samples, 0.02%)</title><rect x="1188.4" y="229" width="0.3" height="15.0" fill="rgb(205,0,0)" rx="2" ry="2" />
<text  x="1191.45" y="239.5" ></text>
</g>
<g >
<title>apei_read (1,847,564 samples, 0.04%)</title><rect x="274.1" y="85" width="0.5" height="15.0" fill="rgb(207,11,2)" rx="2" ry="2" />
<text  x="277.15" y="95.5" ></text>
</g>
<g >
<title>do_group_exit (924,218 samples, 0.02%)</title><rect x="1189.7" y="213" width="0.3" height="15.0" fill="rgb(219,67,16)" rx="2" ry="2" />
<text  x="1192.75" y="223.5" ></text>
</g>
<g >
<title>Transform_SSE2 (2,215,835,834 samples, 44.73%)</title><rect x="527.4" y="245" width="527.8" height="15.0" fill="rgb(233,129,30)" rx="2" ry="2" />
<text  x="530.37" y="255.5" >Transform_SSE2</text>
</g>
<g >
<title>call_timer_fn (3,694,529 samples, 0.07%)</title><rect x="1054.3" y="133" width="0.9" height="15.0" fill="rgb(234,135,32)" rx="2" ry="2" />
<text  x="1057.30" y="143.5" ></text>
</g>
<g >
<title>__mmput (924,218 samples, 0.02%)</title><rect x="1189.7" y="181" width="0.3" height="15.0" fill="rgb(249,203,48)" rx="2" ry="2" />
<text  x="1192.75" y="191.5" ></text>
</g>
<g >
<title>SimpleHFilter16_SSE2 (3,695,799 samples, 0.07%)</title><rect x="339.4" y="245" width="0.9" height="15.0" fill="rgb(219,67,16)" rx="2" ry="2" />
<text  x="342.42" y="255.5" ></text>
</g>
<g >
<title>VP8DecodeMB (27,521,701 samples, 0.56%)</title><rect x="1055.8" y="245" width="6.6" height="15.0" fill="rgb(208,18,4)" rx="2" ry="2" />
<text  x="1058.84" y="255.5" ></text>
</g>
<g >
<title>GetCoeffsFast (4,619,911 samples, 0.09%)</title><rect x="10.4" y="261" width="1.1" height="15.0" fill="rgb(219,64,15)" rx="2" ry="2" />
<text  x="13.44" y="271.5" ></text>
</g>
<g >
<title>VP8PlanarTo24b_SSE2 (2,772,150 samples, 0.06%)</title><rect x="1083.5" y="245" width="0.6" height="15.0" fill="rgb(208,15,3)" rx="2" ry="2" />
<text  x="1086.46" y="255.5" ></text>
</g>
<g >
<title>asm_sysvec_apic_timer_interrupt (3,694,529 samples, 0.07%)</title><rect x="1054.3" y="229" width="0.9" height="15.0" fill="rgb(232,127,30)" rx="2" ry="2" />
<text  x="1057.30" y="239.5" ></text>
</g>
<g >
<title>VR4_SSE2 (2,772,183 samples, 0.06%)</title><rect x="1084.3" y="245" width="0.7" height="15.0" fill="rgb(237,150,35)" rx="2" ry="2" />
<text  x="1087.34" y="255.5" ></text>
</g>
<g >
<title>decode_webp_nat (4,953,675,156 samples, 100.00%)</title><rect x="10.0" y="277" width="1180.0" height="15.0" fill="rgb(218,61,14)" rx="2" ry="2" />
<text  x="13.00" y="287.5" >decode_webp_nat</text>
</g>
<g >
<title>_raw_spin_lock_irqsave (1,846,341 samples, 0.04%)</title><rect x="273.7" y="117" width="0.4" height="15.0" fill="rgb(247,195,46)" rx="2" ry="2" />
<text  x="276.71" y="127.5" ></text>
</g>
<g >
<title>ext4_da_write_begin (924,195 samples, 0.02%)</title><rect x="1188.9" y="133" width="0.2" height="15.0" fill="rgb(211,32,7)" rx="2" ry="2" />
<text  x="1191.89" y="143.5" ></text>
</g>
<g >
<title>mem_cgroup_from_task (865,042 samples, 0.02%)</title><rect x="276.5" y="181" width="0.2" height="15.0" fill="rgb(247,195,46)" rx="2" ry="2" />
<text  x="279.53" y="191.5" ></text>
</g>
<g >
<title>memcpy_fromio (923,391 samples, 0.02%)</title><rect x="274.6" y="69" width="0.2" height="15.0" fill="rgb(232,127,30)" rx="2" ry="2" />
<text  x="277.59" y="79.5" ></text>
</g>
<g >
<title>__memset_avx2_unaligned (924,246 samples, 0.02%)</title><rect x="1189.4" y="261" width="0.2" height="15.0" fill="rgb(222,82,19)" rx="2" ry="2" />
<text  x="1192.41" y="271.5" ></text>
</g>
<g >
<title>_compound_head (924,218 samples, 0.02%)</title><rect x="1189.7" y="117" width="0.3" height="15.0" fill="rgb(225,94,22)" rx="2" ry="2" />
<text  x="1192.75" y="127.5" ></text>
</g>
<g >
<title>exit_to_user_mode_prepare (923,163 samples, 0.02%)</title><rect x="276.7" y="213" width="0.3" height="15.0" fill="rgb(228,108,25)" rx="2" ry="2" />
<text  x="279.74" y="223.5" ></text>
</g>
<g >
<title>generic_perform_write (1,848,440 samples, 0.04%)</title><rect x="1188.7" y="149" width="0.4" height="15.0" fill="rgb(236,146,35)" rx="2" ry="2" />
<text  x="1191.67" y="159.5" ></text>
</g>
<g >
<title>ghes_proc (3,694,684 samples, 0.07%)</title><rect x="274.1" y="117" width="0.9" height="15.0" fill="rgb(250,210,50)" rx="2" ry="2" />
<text  x="277.15" y="127.5" ></text>
</g>
<g >
<title>do_syscall_64 (1,848,440 samples, 0.04%)</title><rect x="1188.7" y="213" width="0.4" height="15.0" fill="rgb(209,20,4)" rx="2" ry="2" />
<text  x="1191.67" y="223.5" ></text>
</g>
<g >
<title>acpi_os_read_memory (2,770,981 samples, 0.06%)</title><rect x="1054.3" y="53" width="0.7" height="15.0" fill="rgb(237,148,35)" rx="2" ry="2" />
<text  x="1057.30" y="63.5" ></text>
</g>
<g >
<title>TransformDC_C (807,857,855 samples, 16.31%)</title><rect x="56.5" y="261" width="192.4" height="15.0" fill="rgb(219,65,15)" rx="2" ry="2" />
<text  x="59.50" y="271.5" >TransformDC_C</text>
</g>
<g >
<title>__run_timers (3,694,529 samples, 0.07%)</title><rect x="1054.3" y="149" width="0.9" height="15.0" fill="rgb(206,5,1)" rx="2" ry="2" />
<text  x="1057.30" y="159.5" ></text>
</g>
<g >
<title>UpsampleRgbLinePair_SSE2 (7,183,284 samples, 0.15%)</title><rect x="275.2" y="261" width="1.8" height="15.0" fill="rgb(220,70,16)" rx="2" ry="2" />
<text  x="278.25" y="271.5" ></text>
</g>
<g >
<title>ghes_copy_tofrom_phys (923,548 samples, 0.02%)</title><rect x="1055.0" y="69" width="0.2" height="15.0" fill="rgb(225,94,22)" rx="2" ry="2" />
<text  x="1057.96" y="79.5" ></text>
</g>
<g >
<title>run_timer_softirq (5,541,025 samples, 0.11%)</title><rect x="273.7" y="181" width="1.3" height="15.0" fill="rgb(249,206,49)" rx="2" ry="2" />
<text  x="276.71" y="191.5" ></text>
</g>
<g >
<title>ghes_copy_tofrom_phys (1,847,120 samples, 0.04%)</title><rect x="274.6" y="85" width="0.4" height="15.0" fill="rgb(225,94,22)" rx="2" ry="2" />
<text  x="277.59" y="95.5" ></text>
</g>
<g >
<title>sysvec_apic_timer_interrupt (5,541,025 samples, 0.11%)</title><rect x="273.7" y="229" width="1.3" height="15.0" fill="rgb(220,69,16)" rx="2" ry="2" />
<text  x="276.71" y="239.5" ></text>
</g>
<g >
<title>HD4_C (3,696,083 samples, 0.07%)</title><rect x="11.5" y="261" width="0.9" height="15.0" fill="rgb(226,100,23)" rx="2" ry="2" />
<text  x="14.54" y="271.5" ></text>
</g>
<g >
<title>__softirqentry_text_start (3,694,529 samples, 0.07%)</title><rect x="1054.3" y="181" width="0.9" height="15.0" fill="rgb(234,135,32)" rx="2" ry="2" />
<text  x="1057.30" y="191.5" ></text>
</g>
<g >
<title>[unknown] (3,750,696,987 samples, 75.71%)</title><rect x="295.8" y="261" width="893.4" height="15.0" fill="rgb(210,24,5)" rx="2" ry="2" />
<text  x="298.78" y="271.5" >[unknown]</text>
</g>
<g >
<title>apei_read (2,770,981 samples, 0.06%)</title><rect x="1054.3" y="69" width="0.7" height="15.0" fill="rgb(207,11,2)" rx="2" ry="2" />
<text  x="1057.30" y="79.5" ></text>
</g>
<g >
<title>handle_mm_fault (865,042 samples, 0.02%)</title><rect x="276.5" y="197" width="0.2" height="15.0" fill="rgb(234,135,32)" rx="2" ry="2" />
<text  x="279.53" y="207.5" ></text>
</g>
<g >
<title>GetCoeffsFast (4,466,397 samples, 0.09%)</title><rect x="298.8" y="245" width="1.1" height="15.0" fill="rgb(219,64,15)" rx="2" ry="2" />
<text  x="301.83" y="255.5" ></text>
</g>
<g >
<title>TransformWHT_C (923,691 samples, 0.02%)</title><rect x="527.1" y="245" width="0.3" height="15.0" fill="rgb(221,76,18)" rx="2" ry="2" />
<text  x="530.15" y="255.5" ></text>
</g>
<g >
<title>YUV444ToRGB_SSE2 (15,704,141 samples, 0.32%)</title><rect x="292.0" y="261" width="3.8" height="15.0" fill="rgb(247,193,46)" rx="2" ry="2" />
<text  x="295.04" y="271.5" ></text>
</g>
<g >
<title>ext4_buffered_write_iter (1,848,440 samples, 0.04%)</title><rect x="1188.7" y="165" width="0.4" height="15.0" fill="rgb(213,40,9)" rx="2" ry="2" />
<text  x="1191.67" y="175.5" ></text>
</g>
<g >
<title>ext4_es_insert_delayed_block (924,195 samples, 0.02%)</title><rect x="1188.9" y="85" width="0.2" height="15.0" fill="rgb(249,203,48)" rx="2" ry="2" />
<text  x="1191.89" y="95.5" ></text>
</g>
<g >
<title>native_set_fixmap (923,729 samples, 0.02%)</title><rect x="274.8" y="69" width="0.2" height="15.0" fill="rgb(245,185,44)" rx="2" ry="2" />
<text  x="277.81" y="79.5" ></text>
</g>
<g >
<title>[unknown] (434,291,528 samples, 8.77%)</title><rect x="1085.2" y="245" width="103.5" height="15.0" fill="rgb(210,24,5)" rx="2" ry="2" />
<text  x="1088.22" y="255.5" >[unknown]</text>
</g>
<g >
<title>VP8GetValue (923,518 samples, 0.02%)</title><rect x="279.6" y="261" width="0.2" height="15.0" fill="rgb(230,119,28)" rx="2" ry="2" />
<text  x="282.58" y="271.5" ></text>
</g>
<g >
<title>__x64_sys_exit_group (924,218 samples, 0.02%)</title><rect x="1189.7" y="229" width="0.3" height="15.0" fill="rgb(214,42,10)" rx="2" ry="2" />
<text  x="1192.75" y="239.5" ></text>
</g>
<g >
<title>VL4_SSE2 (924,242 samples, 0.02%)</title><rect x="1055.6" y="245" width="0.2" height="15.0" fill="rgb(226,98,23)" rx="2" ry="2" />
<text  x="1058.62" y="255.5" ></text>
</g>
<g >
<title>error_entry (478,863 samples, 0.01%)</title><rect x="1189.6" y="245" width="0.1" height="15.0" fill="rgb(240,163,39)" rx="2" ry="2" />
<text  x="1192.63" y="255.5" ></text>
</g>
<g >
<title>asm_exc_page_fault (922,441 samples, 0.02%)</title><rect x="291.8" y="245" width="0.2" height="15.0" fill="rgb(225,93,22)" rx="2" ry="2" />
<text  x="294.82" y="255.5" ></text>
</g>
<g >
<title>HE8uv_C (924,134 samples, 0.02%)</title><rect x="311.3" y="245" width="0.2" height="15.0" fill="rgb(226,98,23)" rx="2" ry="2" />
<text  x="314.31" y="255.5" ></text>
</g>
<g >
<title>fpregs_assert_state_consistent (922,441 samples, 0.02%)</title><rect x="291.8" y="197" width="0.2" height="15.0" fill="rgb(228,109,26)" rx="2" ry="2" />
<text  x="294.82" y="207.5" ></text>
</g>
<g >
<title>TM16_SSE2 (924,221 samples, 0.02%)</title><rect x="341.0" y="245" width="0.2" height="15.0" fill="rgb(253,222,53)" rx="2" ry="2" />
<text  x="343.96" y="255.5" ></text>
</g>
<g >
<title>entry_SYSCALL_64_after_hwframe (1,848,440 samples, 0.04%)</title><rect x="1188.7" y="229" width="0.4" height="15.0" fill="rgb(218,63,15)" rx="2" ry="2" />
<text  x="1191.67" y="239.5" ></text>
</g>
<g >
<title>YUV444ToRGB_SSE2 (924,126 samples, 0.02%)</title><rect x="1085.0" y="245" width="0.2" height="15.0" fill="rgb(247,193,46)" rx="2" ry="2" />
<text  x="1088.00" y="255.5" ></text>
</g>
<g >
<title>unmap_vmas (924,218 samples, 0.02%)</title><rect x="1189.7" y="149" width="0.3" height="15.0" fill="rgb(243,176,42)" rx="2" ry="2" />
<text  x="1192.75" y="159.5" ></text>
</g>
<g >
<title>UpsampleRgbLinePair_SSE2 (1,847,426 samples, 0.04%)</title><rect x="1055.2" y="245" width="0.4" height="15.0" fill="rgb(220,70,16)" rx="2" ry="2" />
<text  x="1058.18" y="255.5" ></text>
</g>
<g >
<title>GetCoeffsFast (433,367,215 samples, 8.75%)</title><rect x="1085.2" y="229" width="103.2" height="15.0" fill="rgb(219,64,15)" rx="2" ry="2" />
<text  x="1088.22" y="239.5" >GetCoeffsFast</text>
</g>
<g >
<title>TM4_SSE2 (3,694,941 samples, 0.07%)</title><rect x="341.2" y="245" width="0.9" height="15.0" fill="rgb(232,128,30)" rx="2" ry="2" />
<text  x="344.18" y="255.5" ></text>
</g>
<g >
<title>exit_mmap (924,218 samples, 0.02%)</title><rect x="1189.7" y="165" width="0.3" height="15.0" fill="rgb(236,143,34)" rx="2" ry="2" />
<text  x="1192.75" y="175.5" ></text>
</g>
<g >
<title>GetLargeValue (45,157,310 samples, 0.91%)</title><rect x="299.9" y="245" width="10.8" height="15.0" fill="rgb(243,175,42)" rx="2" ry="2" />
<text  x="302.90" y="255.5" ></text>
</g>
<g >
<title>VP8ParseIntraModeRow (88,409,483 samples, 1.78%)</title><rect x="1062.4" y="245" width="21.1" height="15.0" fill="rgb(231,121,29)" rx="2" ry="2" />
<text  x="1065.40" y="255.5" ></text>
</g>
<g >
<title>TransformDC_C (423,659,438 samples, 8.55%)</title><rect x="424.9" y="245" width="101.0" height="15.0" fill="rgb(219,65,15)" rx="2" ry="2" />
<text  x="427.94" y="255.5" >TransformDC_C</text>
</g>
<g >
<title>SimpleVFilter16_SSE2 (2,772,067 samples, 0.06%)</title><rect x="340.3" y="245" width="0.7" height="15.0" fill="rgb(229,111,26)" rx="2" ry="2" />
<text  x="343.30" y="255.5" ></text>
</g>
<g >
<title>FinishRow (923,902 samples, 0.02%)</title><rect x="298.6" y="245" width="0.2" height="15.0" fill="rgb(213,41,9)" rx="2" ry="2" />
<text  x="301.61" y="255.5" ></text>
</g>
<g >
<title>ReconstructRow (29,370,330 samples, 0.59%)</title><rect x="12.6" y="261" width="7.0" height="15.0" fill="rgb(225,93,22)" rx="2" ry="2" />
<text  x="15.64" y="271.5" ></text>
</g>
<g >
<title>HU4_C (2,657,178 samples, 0.05%)</title><rect x="311.5" y="245" width="0.7" height="15.0" fill="rgb(216,54,13)" rx="2" ry="2" />
<text  x="314.53" y="255.5" ></text>
</g>
<g >
<title>flush_tlb_one_kernel (923,729 samples, 0.02%)</title><rect x="274.8" y="53" width="0.2" height="15.0" fill="rgb(244,181,43)" rx="2" ry="2" />
<text  x="277.81" y="63.5" ></text>
</g>
<g >
<title>acpi_os_read_memory (1,847,564 samples, 0.04%)</title><rect x="274.1" y="69" width="0.5" height="15.0" fill="rgb(237,148,35)" rx="2" ry="2" />
<text  x="277.15" y="79.5" ></text>
</g>
<g >
<title>sync_regs (478,863 samples, 0.01%)</title><rect x="1189.6" y="229" width="0.1" height="15.0" fill="rgb(228,106,25)" rx="2" ry="2" />
<text  x="1192.63" y="239.5" ></text>
</g>
<g >
<title>ghes_proc (3,694,529 samples, 0.07%)</title><rect x="1054.3" y="101" width="0.9" height="15.0" fill="rgb(250,210,50)" rx="2" ry="2" />
<text  x="1057.30" y="111.5" ></text>
</g>
<g >
<title>__es_remove_extent (924,195 samples, 0.02%)</title><rect x="1188.9" y="69" width="0.2" height="15.0" fill="rgb(249,203,48)" rx="2" ry="2" />
<text  x="1191.89" y="79.5" ></text>
</g>
<g >
<title>irqentry_exit_to_user_mode (922,441 samples, 0.02%)</title><rect x="291.8" y="229" width="0.2" height="15.0" fill="rgb(254,229,54)" rx="2" ry="2" />
<text  x="294.82" y="239.5" ></text>
</g>
<g >
<title>DC4_C (11,086,047 samples, 0.22%)</title><rect x="295.8" y="245" width="2.6" height="15.0" fill="rgb(209,18,4)" rx="2" ry="2" />
<text  x="298.78" y="255.5" ></text>
</g>
<g >
<title>fpregs_assert_state_consistent (923,163 samples, 0.02%)</title><rect x="276.7" y="197" width="0.3" height="15.0" fill="rgb(228,109,26)" rx="2" ry="2" />
<text  x="279.74" y="207.5" ></text>
</g>
<g >
<title>__libc_write (1,848,440 samples, 0.04%)</title><rect x="1188.7" y="245" width="0.4" height="15.0" fill="rgb(238,154,37)" rx="2" ry="2" />
<text  x="1191.67" y="255.5" ></text>
</g>
</g>
</svg>
