<?xml version="1.0" standalone="no"?>
<!DOCTYPE svg PUBLIC "-//W3C//DTD SVG 1.1//EN" "http://www.w3.org/Graphics/SVG/1.1/DTD/svg11.dtd">
<svg version="1.1" width="1200" height="326" onload="init(evt)" viewBox="0 0 1200 326" xmlns="http://www.w3.org/2000/svg" xmlns:xlink="http://www.w3.org/1999/xlink">
<!-- Flame graph stack visualization. See https://github.com/brendangregg/FlameGraph for latest version, and http://www.brendangregg.com/flamegraphs.html for examples. -->
<!-- NOTES:  -->
<defs>
	<linearGradient id="background" y1="0" y2="1" x1="0" x2="0" >
		<stop stop-color="#eeeeee" offset="5%" />
		<stop stop-color="#eeeeb0" offset="95%" />
	</linearGradient>
</defs>
<style type="text/css">
	text { font-family:Verdana; font-size:12px; fill:rgb(0,0,0); }
	#search, #ignorecase { opacity:0.1; cursor:pointer; }
	#search:hover, #search.show, #ignorecase:hover, #ignorecase.show { opacity:1; }
	#subtitle { text-anchor:middle; font-color:rgb(160,160,160); }
	#title { text-anchor:middle; font-size:17px}
	#unzoom { cursor:pointer; }
	#frames > *:hover { stroke:black; stroke-width:0.5; cursor:pointer; }
	.hide { display:none; }
	.parent { opacity:0.5; }
</style>
<script type="text/ecmascript">
<![CDATA[
	"use strict";
	var details, searchbtn, unzoombtn, matchedtxt, svg, searching, currentSearchTerm, ignorecase, ignorecaseBtn;
	function init(evt) {
		details = document.getElementById("details").firstChild;
		searchbtn = document.getElementById("search");
		ignorecaseBtn = document.getElementById("ignorecase");
		unzoombtn = document.getElementById("unzoom");
		matchedtxt = document.getElementById("matched");
		svg = document.getElementsByTagName("svg")[0];
		searching = 0;
		currentSearchTerm = null;

		// use GET parameters to restore a flamegraphs state.
		var params = get_params();
		if (params.x && params.y)
			zoom(find_group(document.querySelector('[x="' + params.x + '"][y="' + params.y + '"]')));
                if (params.s) search(params.s);
	}

	// event listeners
	window.addEventListener("click", function(e) {
		var target = find_group(e.target);
		if (target) {
			if (target.nodeName == "a") {
				if (e.ctrlKey === false) return;
				e.preventDefault();
			}
			if (target.classList.contains("parent")) unzoom(true);
			zoom(target);
			if (!document.querySelector('.parent')) {
				// we have basically done a clearzoom so clear the url
				var params = get_params();
				if (params.x) delete params.x;
				if (params.y) delete params.y;
				history.replaceState(null, null, parse_params(params));
				unzoombtn.classList.add("hide");
				return;
			}

			// set parameters for zoom state
			var el = target.querySelector("rect");
			if (el && el.attributes && el.attributes.y && el.attributes._orig_x) {
				var params = get_params()
				params.x = el.attributes._orig_x.value;
				params.y = el.attributes.y.value;
				history.replaceState(null, null, parse_params(params));
			}
		}
		else if (e.target.id == "unzoom") clearzoom();
		else if (e.target.id == "search") search_prompt();
		else if (e.target.id == "ignorecase") toggle_ignorecase();
	}, false)

	// mouse-over for info
	// show
	window.addEventListener("mouseover", function(e) {
		var target = find_group(e.target);
		if (target) details.nodeValue = "Function: " + g_to_text(target);
	}, false)

	// clear
	window.addEventListener("mouseout", function(e) {
		var target = find_group(e.target);
		if (target) details.nodeValue = ' ';
	}, false)

	// ctrl-F for search
	// ctrl-I to toggle case-sensitive search
	window.addEventListener("keydown",function (e) {
		if (e.keyCode === 114 || (e.ctrlKey && e.keyCode === 70)) {
			e.preventDefault();
			search_prompt();
		}
		else if (e.ctrlKey && e.keyCode === 73) {
			e.preventDefault();
			toggle_ignorecase();
		}
	}, false)

	// functions
	function get_params() {
		var params = {};
		var paramsarr = window.location.search.substr(1).split('&');
		for (var i = 0; i < paramsarr.length; ++i) {
			var tmp = paramsarr[i].split("=");
			if (!tmp[0] || !tmp[1]) continue;
			params[tmp[0]]  = decodeURIComponent(tmp[1]);
		}
		return params;
	}
	function parse_params(params) {
		var uri = "?";
		for (var key in params) {
			uri += key + '=' + encodeURIComponent(params[key]) + '&';
		}
		if (uri.slice(-1) == "&")
			uri = uri.substring(0, uri.length - 1);
		if (uri == '?')
			uri = window.location.href.split('?')[0];
		return uri;
	}
	function find_child(node, selector) {
		var children = node.querySelectorAll(selector);
		if (children.length) return children[0];
	}
	function find_group(node) {
		var parent = node.parentElement;
		if (!parent) return;
		if (parent.id == "frames") return node;
		return find_group(parent);
	}
	function orig_save(e, attr, val) {
		if (e.attributes["_orig_" + attr] != undefined) return;
		if (e.attributes[attr] == undefined) return;
		if (val == undefined) val = e.attributes[attr].value;
		e.setAttribute("_orig_" + attr, val);
	}
	function orig_load(e, attr) {
		if (e.attributes["_orig_"+attr] == undefined) return;
		e.attributes[attr].value = e.attributes["_orig_" + attr].value;
		e.removeAttribute("_orig_"+attr);
	}
	function g_to_text(e) {
		var text = find_child(e, "title").firstChild.nodeValue;
		return (text)
	}
	function g_to_func(e) {
		var func = g_to_text(e);
		// if there's any manipulation we want to do to the function
		// name before it's searched, do it here before returning.
		return (func);
	}
	function update_text(e) {
		var r = find_child(e, "rect");
		var t = find_child(e, "text");
		var w = parseFloat(r.attributes.width.value) -3;
		var txt = find_child(e, "title").textContent.replace(/\([^(]*\)$/,"");
		t.attributes.x.value = parseFloat(r.attributes.x.value) + 3;

		// Smaller than this size won't fit anything
		if (w < 2 * 12 * 0.59) {
			t.textContent = "";
			return;
		}

		t.textContent = txt;
		var sl = t.getSubStringLength(0, txt.length);
		// check if only whitespace or if we can fit the entire string into width w
		if (/^ *$/.test(txt) || sl < w)
			return;

		// this isn't perfect, but gives a good starting point
		// and avoids calling getSubStringLength too often
		var start = Math.floor((w/sl) * txt.length);
		for (var x = start; x > 0; x = x-2) {
			if (t.getSubStringLength(0, x + 2) <= w) {
				t.textContent = txt.substring(0, x) + "..";
				return;
			}
		}
		t.textContent = "";
	}

	// zoom
	function zoom_reset(e) {
		if (e.attributes != undefined) {
			orig_load(e, "x");
			orig_load(e, "width");
		}
		if (e.childNodes == undefined) return;
		for (var i = 0, c = e.childNodes; i < c.length; i++) {
			zoom_reset(c[i]);
		}
	}
	function zoom_child(e, x, ratio) {
		if (e.attributes != undefined) {
			if (e.attributes.x != undefined) {
				orig_save(e, "x");
				e.attributes.x.value = (parseFloat(e.attributes.x.value) - x - 10) * ratio + 10;
				if (e.tagName == "text")
					e.attributes.x.value = find_child(e.parentNode, "rect[x]").attributes.x.value + 3;
			}
			if (e.attributes.width != undefined) {
				orig_save(e, "width");
				e.attributes.width.value = parseFloat(e.attributes.width.value) * ratio;
			}
		}

		if (e.childNodes == undefined) return;
		for (var i = 0, c = e.childNodes; i < c.length; i++) {
			zoom_child(c[i], x - 10, ratio);
		}
	}
	function zoom_parent(e) {
		if (e.attributes) {
			if (e.attributes.x != undefined) {
				orig_save(e, "x");
				e.attributes.x.value = 10;
			}
			if (e.attributes.width != undefined) {
				orig_save(e, "width");
				e.attributes.width.value = parseInt(svg.width.baseVal.value) - (10 * 2);
			}
		}
		if (e.childNodes == undefined) return;
		for (var i = 0, c = e.childNodes; i < c.length; i++) {
			zoom_parent(c[i]);
		}
	}
	function zoom(node) {
		var attr = find_child(node, "rect").attributes;
		var width = parseFloat(attr.width.value);
		var xmin = parseFloat(attr.x.value);
		var xmax = parseFloat(xmin + width);
		var ymin = parseFloat(attr.y.value);
		var ratio = (svg.width.baseVal.value - 2 * 10) / width;

		// XXX: Workaround for JavaScript float issues (fix me)
		var fudge = 0.0001;

		unzoombtn.classList.remove("hide");

		var el = document.getElementById("frames").children;
		for (var i = 0; i < el.length; i++) {
			var e = el[i];
			var a = find_child(e, "rect").attributes;
			var ex = parseFloat(a.x.value);
			var ew = parseFloat(a.width.value);
			var upstack;
			// Is it an ancestor
			if (0 == 0) {
				upstack = parseFloat(a.y.value) > ymin;
			} else {
				upstack = parseFloat(a.y.value) < ymin;
			}
			if (upstack) {
				// Direct ancestor
				if (ex <= xmin && (ex+ew+fudge) >= xmax) {
					e.classList.add("parent");
					zoom_parent(e);
					update_text(e);
				}
				// not in current path
				else
					e.classList.add("hide");
			}
			// Children maybe
			else {
				// no common path
				if (ex < xmin || ex + fudge >= xmax) {
					e.classList.add("hide");
				}
				else {
					zoom_child(e, xmin, ratio);
					update_text(e);
				}
			}
		}
		search();
	}
	function unzoom(dont_update_text) {
		unzoombtn.classList.add("hide");
		var el = document.getElementById("frames").children;
		for(var i = 0; i < el.length; i++) {
			el[i].classList.remove("parent");
			el[i].classList.remove("hide");
			zoom_reset(el[i]);
			if(!dont_update_text) update_text(el[i]);
		}
		search();
	}
	function clearzoom() {
		unzoom();

		// remove zoom state
		var params = get_params();
		if (params.x) delete params.x;
		if (params.y) delete params.y;
		history.replaceState(null, null, parse_params(params));
	}

	// search
	function toggle_ignorecase() {
		ignorecase = !ignorecase;
		if (ignorecase) {
			ignorecaseBtn.classList.add("show");
		} else {
			ignorecaseBtn.classList.remove("show");
		}
		reset_search();
		search();
	}
	function reset_search() {
		var el = document.querySelectorAll("#frames rect");
		for (var i = 0; i < el.length; i++) {
			orig_load(el[i], "fill")
		}
		var params = get_params();
		delete params.s;
		history.replaceState(null, null, parse_params(params));
	}
	function search_prompt() {
		if (!searching) {
			var term = prompt("Enter a search term (regexp " +
			    "allowed, eg: ^ext4_)"
			    + (ignorecase ? ", ignoring case" : "")
			    + "\nPress Ctrl-i to toggle case sensitivity", "");
			if (term != null) search(term);
		} else {
			reset_search();
			searching = 0;
			currentSearchTerm = null;
			searchbtn.classList.remove("show");
			searchbtn.firstChild.nodeValue = "Search"
			matchedtxt.classList.add("hide");
			matchedtxt.firstChild.nodeValue = ""
		}
	}
	function search(term) {
		if (term) currentSearchTerm = term;

		var re = new RegExp(currentSearchTerm, ignorecase ? 'i' : '');
		var el = document.getElementById("frames").children;
		var matches = new Object();
		var maxwidth = 0;
		for (var i = 0; i < el.length; i++) {
			var e = el[i];
			var func = g_to_func(e);
			var rect = find_child(e, "rect");
			if (func == null || rect == null)
				continue;

			// Save max width. Only works as we have a root frame
			var w = parseFloat(rect.attributes.width.value);
			if (w > maxwidth)
				maxwidth = w;

			if (func.match(re)) {
				// highlight
				var x = parseFloat(rect.attributes.x.value);
				orig_save(rect, "fill");
				rect.attributes.fill.value = "rgb(230,0,230)";

				// remember matches
				if (matches[x] == undefined) {
					matches[x] = w;
				} else {
					if (w > matches[x]) {
						// overwrite with parent
						matches[x] = w;
					}
				}
				searching = 1;
			}
		}
		if (!searching)
			return;
		var params = get_params();
		params.s = currentSearchTerm;
		history.replaceState(null, null, parse_params(params));

		searchbtn.classList.add("show");
		searchbtn.firstChild.nodeValue = "Reset Search";

		// calculate percent matched, excluding vertical overlap
		var count = 0;
		var lastx = -1;
		var lastw = 0;
		var keys = Array();
		for (k in matches) {
			if (matches.hasOwnProperty(k))
				keys.push(k);
		}
		// sort the matched frames by their x location
		// ascending, then width descending
		keys.sort(function(a, b){
			return a - b;
		});
		// Step through frames saving only the biggest bottom-up frames
		// thanks to the sort order. This relies on the tree property
		// where children are always smaller than their parents.
		var fudge = 0.0001;	// JavaScript floating point
		for (var k in keys) {
			var x = parseFloat(keys[k]);
			var w = matches[keys[k]];
			if (x >= lastx + lastw - fudge) {
				count += w;
				lastx = x;
				lastw = w;
			}
		}
		// display matched percent
		matchedtxt.classList.remove("hide");
		var pct = 100 * count / maxwidth;
		if (pct != 100) pct = pct.toFixed(1)
		matchedtxt.firstChild.nodeValue = "Matched: " + pct + "%";
	}
]]>
</script>
<rect x="0.0" y="0" width="1200.0" height="326.0" fill="url(#background)"  />
<text id="title" x="600.00" y="24" >Flame Graph</text>
<text id="details" x="10.00" y="309" > </text>
<text id="unzoom" x="10.00" y="24" class="hide">Reset Zoom</text>
<text id="search" x="1090.00" y="24" >Search</text>
<text id="ignorecase" x="1174.00" y="24" >ic</text>
<text id="matched" x="1090.00" y="309" > </text>
<g id="frames">
<g >
<title>w2c_decode__webp__wasmsimd_SimpleHFilter16_SSE2 (924,161 samples, 0.01%)</title><rect x="13.4" y="149" width="0.2" height="15.0" fill="rgb(211,29,7)" rx="2" ry="2" />
<text  x="16.39" y="159.5" ></text>
</g>
<g >
<title>w2c_decode__webp__wasmsimd_IDecode (144,558,436 samples, 2.25%)</title><rect x="278.3" y="245" width="26.6" height="15.0" fill="rgb(237,147,35)" rx="2" ry="2" />
<text  x="281.31" y="255.5" >w..</text>
</g>
<g >
<title>__mark_inode_dirty (924,205 samples, 0.01%)</title><rect x="13.9" y="101" width="0.1" height="15.0" fill="rgb(254,227,54)" rx="2" ry="2" />
<text  x="16.88" y="111.5" ></text>
</g>
<g >
<title>native_write_msr (923,709 samples, 0.01%)</title><rect x="526.3" y="37" width="0.2" height="15.0" fill="rgb(237,151,36)" rx="2" ry="2" />
<text  x="529.32" y="47.5" ></text>
</g>
<g >
<title>[unknown] (19,395,680 samples, 0.30%)</title><rect x="10.0" y="229" width="3.6" height="15.0" fill="rgb(210,24,5)" rx="2" ry="2" />
<text  x="13.00" y="239.5" ></text>
</g>
<g >
<title>__ext4_mark_inode_dirty (924,205 samples, 0.01%)</title><rect x="13.9" y="69" width="0.1" height="15.0" fill="rgb(227,104,25)" rx="2" ry="2" />
<text  x="16.88" y="79.5" ></text>
</g>
<g >
<title>__x64_sys_openat (924,305 samples, 0.01%)</title><rect x="13.7" y="181" width="0.2" height="15.0" fill="rgb(251,215,51)" rx="2" ry="2" />
<text  x="16.71" y="191.5" ></text>
</g>
<g >
<title>w2c_decode__webp__wasmsimd_GetCoeffsAlt (534,617,071 samples, 8.33%)</title><rect x="164.6" y="245" width="98.3" height="15.0" fill="rgb(214,45,10)" rx="2" ry="2" />
<text  x="167.62" y="255.5" >w2c_decode_..</text>
</g>
<g >
<title>x86_pmu_disable_all (923,709 samples, 0.01%)</title><rect x="526.3" y="53" width="0.2" height="15.0" fill="rgb(254,227,54)" rx="2" ry="2" />
<text  x="529.32" y="63.5" ></text>
</g>
<g >
<title>w2c_decode__webp__wasmsimd_DC4_C (7,391,850 samples, 0.12%)</title><rect x="161.7" y="245" width="1.4" height="15.0" fill="rgb(250,210,50)" rx="2" ry="2" />
<text  x="164.74" y="255.5" ></text>
</g>
<g >
<title>w2c_decode__webp__wasmsimd_DC8uv_SSE2 (2,770,589 samples, 0.04%)</title><rect x="163.4" y="245" width="0.5" height="15.0" fill="rgb(248,200,48)" rx="2" ry="2" />
<text  x="166.44" y="255.5" ></text>
</g>
<g >
<title>w2c_decode__webp__wasmsimd_HE8uv_C (923,872 samples, 0.01%)</title><rect x="278.0" y="245" width="0.1" height="15.0" fill="rgb(218,60,14)" rx="2" ry="2" />
<text  x="280.97" y="255.5" ></text>
</g>
<g >
<title>update_wall_time (921,452 samples, 0.01%)</title><rect x="1173.9" y="117" width="0.2" height="15.0" fill="rgb(207,11,2)" rx="2" ry="2" />
<text  x="1176.90" y="127.5" ></text>
</g>
<g >
<title>__block_commit_write.constprop.0.isra.0 (924,112 samples, 0.01%)</title><rect x="14.0" y="101" width="0.2" height="15.0" fill="rgb(249,205,49)" rx="2" ry="2" />
<text  x="17.05" y="111.5" ></text>
</g>
<g >
<title>truncate_pagecache (924,305 samples, 0.01%)</title><rect x="13.7" y="69" width="0.2" height="15.0" fill="rgb(231,123,29)" rx="2" ry="2" />
<text  x="16.71" y="79.5" ></text>
</g>
<g >
<title>do_syscall_64 (924,305 samples, 0.01%)</title><rect x="13.7" y="197" width="0.2" height="15.0" fill="rgb(209,20,4)" rx="2" ry="2" />
<text  x="16.71" y="207.5" ></text>
</g>
<g >
<title>__hrtimer_run_queues (5,543,175 samples, 0.09%)</title><rect x="1173.9" y="165" width="1.0" height="15.0" fill="rgb(237,150,35)" rx="2" ry="2" />
<text  x="1176.90" y="175.5" ></text>
</g>
<g >
<title>file_modified_flags (924,205 samples, 0.01%)</title><rect x="13.9" y="133" width="0.1" height="15.0" fill="rgb(226,98,23)" rx="2" ry="2" />
<text  x="16.88" y="143.5" ></text>
</g>
<g >
<title>asm_sysvec_apic_timer_interrupt (6,468,490 samples, 0.10%)</title><rect x="1173.9" y="229" width="1.2" height="15.0" fill="rgb(232,127,30)" rx="2" ry="2" />
<text  x="1176.90" y="239.5" ></text>
</g>
<g >
<title>w2c_decode__webp__wasmsimd_TransformDC_C (443,398,922 samples, 6.91%)</title><rect x="527.0" y="245" width="81.5" height="15.0" fill="rgb(211,27,6)" rx="2" ry="2" />
<text  x="529.98" y="255.5" >w2c_decod..</text>
</g>
<g >
<title>all (6,420,341,125 samples, 100%)</title><rect x="10.0" y="277" width="1180.0" height="15.0" fill="rgb(213,39,9)" rx="2" ry="2" />
<text  x="13.00" y="287.5" ></text>
</g>
<g >
<title>entry_SYSCALL_64_after_hwframe (924,305 samples, 0.01%)</title><rect x="13.7" y="213" width="0.2" height="15.0" fill="rgb(218,63,15)" rx="2" ry="2" />
<text  x="16.71" y="223.5" ></text>
</g>
<g >
<title>path_openat (924,305 samples, 0.01%)</title><rect x="13.7" y="133" width="0.2" height="15.0" fill="rgb(249,202,48)" rx="2" ry="2" />
<text  x="16.71" y="143.5" ></text>
</g>
<g >
<title>w2c_decode__webp__wasmsimd_HU4_C (924,323 samples, 0.01%)</title><rect x="278.1" y="245" width="0.2" height="15.0" fill="rgb(208,17,4)" rx="2" ry="2" />
<text  x="281.14" y="255.5" ></text>
</g>
<g >
<title>update_load_avg (924,356 samples, 0.01%)</title><rect x="526.5" y="69" width="0.2" height="15.0" fill="rgb(240,165,39)" rx="2" ry="2" />
<text  x="529.49" y="79.5" ></text>
</g>
<g >
<title>generic_write_end (924,112 samples, 0.01%)</title><rect x="14.0" y="117" width="0.2" height="15.0" fill="rgb(206,8,1)" rx="2" ry="2" />
<text  x="17.05" y="127.5" ></text>
</g>
<g >
<title>w2c_decode__webp__wasmsimd_memcpy (923,985 samples, 0.01%)</title><rect x="1189.8" y="245" width="0.2" height="15.0" fill="rgb(249,206,49)" rx="2" ry="2" />
<text  x="1192.81" y="255.5" ></text>
</g>
<g >
<title>__libc_open64 (924,305 samples, 0.01%)</title><rect x="13.7" y="229" width="0.2" height="15.0" fill="rgb(235,140,33)" rx="2" ry="2" />
<text  x="16.71" y="239.5" ></text>
</g>
<g >
<title>w2c_decode__webp__wasmsimd_HE4_C (6,470,014 samples, 0.10%)</title><rect x="276.8" y="245" width="1.2" height="15.0" fill="rgb(212,32,7)" rx="2" ry="2" />
<text  x="279.78" y="255.5" ></text>
</g>
<g >
<title>__memset_avx2_unaligned_erms (2,772,189 samples, 0.04%)</title><rect x="161.2" y="245" width="0.5" height="15.0" fill="rgb(223,84,20)" rx="2" ry="2" />
<text  x="164.23" y="255.5" ></text>
</g>
<g >
<title>w2c_decode__webp__wasmsimd_LD4_SSE2 (923,395 samples, 0.01%)</title><rect x="304.9" y="245" width="0.1" height="15.0" fill="rgb(234,135,32)" rx="2" ry="2" />
<text  x="307.88" y="255.5" ></text>
</g>
<g >
<title>w2c_decode__webp__wasmsimd_UpsampleRgbLinePair_SSE2 (16,579,457 samples, 0.26%)</title><rect x="1175.1" y="245" width="3.0" height="15.0" fill="rgb(212,33,7)" rx="2" ry="2" />
<text  x="1178.08" y="255.5" ></text>
</g>
<g >
<title>hrtimer_interrupt (1,848,065 samples, 0.03%)</title><rect x="526.3" y="181" width="0.4" height="15.0" fill="rgb(228,109,26)" rx="2" ry="2" />
<text  x="529.32" y="191.5" ></text>
</g>
<g >
<title>tick_sched_handle (1,848,065 samples, 0.03%)</title><rect x="526.3" y="133" width="0.4" height="15.0" fill="rgb(219,68,16)" rx="2" ry="2" />
<text  x="529.32" y="143.5" ></text>
</g>
<g >
<title>__folio_mark_dirty (924,112 samples, 0.01%)</title><rect x="14.0" y="69" width="0.2" height="15.0" fill="rgb(239,159,38)" rx="2" ry="2" />
<text  x="17.05" y="79.5" ></text>
</g>
<g >
<title>w2c_decode__webp__wasmsimd_VE4_SSE2 (1,848,430 samples, 0.03%)</title><rect x="1178.1" y="245" width="0.4" height="15.0" fill="rgb(213,38,9)" rx="2" ry="2" />
<text  x="1181.13" y="255.5" ></text>
</g>
<g >
<title>tick_sched_timer (5,543,175 samples, 0.09%)</title><rect x="1173.9" y="149" width="1.0" height="15.0" fill="rgb(254,227,54)" rx="2" ry="2" />
<text  x="1176.90" y="159.5" ></text>
</g>
<g >
<title>[unknown] (19,395,680 samples, 0.30%)</title><rect x="10.0" y="181" width="3.6" height="15.0" fill="rgb(210,24,5)" rx="2" ry="2" />
<text  x="13.00" y="191.5" ></text>
</g>
<g >
<title>notify_change (924,305 samples, 0.01%)</title><rect x="13.7" y="101" width="0.2" height="15.0" fill="rgb(237,150,35)" rx="2" ry="2" />
<text  x="16.71" y="111.5" ></text>
</g>
<g >
<title>w2c_decode__webp__wasmsimd_ReconstructRow (471,720,839 samples, 7.35%)</title><rect x="306.1" y="245" width="86.7" height="15.0" fill="rgb(217,55,13)" rx="2" ry="2" />
<text  x="309.07" y="255.5" >w2c_decode..</text>
</g>
<g >
<title>x86_pmu_disable_all (924,377 samples, 0.01%)</title><rect x="1174.6" y="53" width="0.1" height="15.0" fill="rgb(254,227,54)" rx="2" ry="2" />
<text  x="1177.58" y="63.5" ></text>
</g>
<g >
<title>do_sys_openat2 (924,305 samples, 0.01%)</title><rect x="13.7" y="165" width="0.2" height="15.0" fill="rgb(253,221,52)" rx="2" ry="2" />
<text  x="16.71" y="175.5" ></text>
</g>
<g >
<title>w2c_decode__webp__wasmsimd_IDecode (5,542,690 samples, 0.09%)</title><rect x="12.4" y="149" width="1.0" height="15.0" fill="rgb(237,147,35)" rx="2" ry="2" />
<text  x="15.38" y="159.5" ></text>
</g>
<g >
<title>arch_scale_freq_tick (924,448 samples, 0.01%)</title><rect x="1174.1" y="85" width="0.1" height="15.0" fill="rgb(252,219,52)" rx="2" ry="2" />
<text  x="1177.07" y="95.5" ></text>
</g>
<g >
<title>[unknown] (19,395,680 samples, 0.30%)</title><rect x="10.0" y="197" width="3.6" height="15.0" fill="rgb(210,24,5)" rx="2" ry="2" />
<text  x="13.00" y="207.5" ></text>
</g>
<g >
<title>amd_pmu_check_overflow (1,848,533 samples, 0.03%)</title><rect x="1174.2" y="69" width="0.4" height="15.0" fill="rgb(207,10,2)" rx="2" ry="2" />
<text  x="1177.24" y="79.5" ></text>
</g>
<g >
<title>tick_sched_do_timer (921,452 samples, 0.01%)</title><rect x="1173.9" y="133" width="0.2" height="15.0" fill="rgb(227,104,25)" rx="2" ry="2" />
<text  x="1176.90" y="143.5" ></text>
</g>
<g >
<title>timekeeping_advance (921,452 samples, 0.01%)</title><rect x="1173.9" y="101" width="0.2" height="15.0" fill="rgb(227,104,25)" rx="2" ry="2" />
<text  x="1176.90" y="111.5" ></text>
</g>
<g >
<title>w2c_decode__webp__wasmsimd_TransformUV_C (16,633,350 samples, 0.26%)</title><rect x="18.9" y="229" width="3.1" height="15.0" fill="rgb(228,108,25)" rx="2" ry="2" />
<text  x="21.91" y="239.5" ></text>
</g>
<g >
<title>scheduler_tick (4,621,723 samples, 0.07%)</title><rect x="1174.1" y="101" width="0.8" height="15.0" fill="rgb(246,190,45)" rx="2" ry="2" />
<text  x="1177.07" y="111.5" ></text>
</g>
<g >
<title>_raw_spin_lock_irqsave (924,112 samples, 0.01%)</title><rect x="14.0" y="53" width="0.2" height="15.0" fill="rgb(247,195,46)" rx="2" ry="2" />
<text  x="17.05" y="63.5" ></text>
</g>
<g >
<title>task_tick_fair (924,365 samples, 0.01%)</title><rect x="1174.7" y="85" width="0.2" height="15.0" fill="rgb(217,57,13)" rx="2" ry="2" />
<text  x="1177.75" y="95.5" ></text>
</g>
<g >
<title>ext4_setattr (924,305 samples, 0.01%)</title><rect x="13.7" y="85" width="0.2" height="15.0" fill="rgb(230,117,28)" rx="2" ry="2" />
<text  x="16.71" y="95.5" ></text>
</g>
<g >
<title>ext4_mark_iloc_dirty (924,205 samples, 0.01%)</title><rect x="13.9" y="53" width="0.1" height="15.0" fill="rgb(226,101,24)" rx="2" ry="2" />
<text  x="16.88" y="63.5" ></text>
</g>
<g >
<title>w2c_decode__webp__wasmsimd_VP8GetValue (2,772,607 samples, 0.04%)</title><rect x="1178.5" y="245" width="0.5" height="15.0" fill="rgb(222,81,19)" rx="2" ry="2" />
<text  x="1181.47" y="255.5" ></text>
</g>
<g >
<title>[unknown] (19,395,680 samples, 0.30%)</title><rect x="10.0" y="213" width="3.6" height="15.0" fill="rgb(210,24,5)" rx="2" ry="2" />
<text  x="13.00" y="223.5" ></text>
</g>
<g >
<title>task_tick_fair (924,356 samples, 0.01%)</title><rect x="526.5" y="85" width="0.2" height="15.0" fill="rgb(217,57,13)" rx="2" ry="2" />
<text  x="529.49" y="95.5" ></text>
</g>
<g >
<title>w2c_decode__webp__wasmsimd_TransformWHT_C (923,949 samples, 0.01%)</title><rect x="608.5" y="245" width="0.1" height="15.0" fill="rgb(213,38,9)" rx="2" ry="2" />
<text  x="611.48" y="255.5" ></text>
</g>
<g >
<title>ext4_dirty_inode (924,205 samples, 0.01%)</title><rect x="13.9" y="85" width="0.1" height="15.0" fill="rgb(227,102,24)" rx="2" ry="2" />
<text  x="16.88" y="95.5" ></text>
</g>
<g >
<title>update_vsyscall (921,452 samples, 0.01%)</title><rect x="1173.9" y="69" width="0.2" height="15.0" fill="rgb(254,229,54)" rx="2" ry="2" />
<text  x="1176.90" y="79.5" ></text>
</g>
<g >
<title>w2c_decode__webp__wasmsimd_HD4_C (1,848,283 samples, 0.03%)</title><rect x="276.4" y="245" width="0.4" height="15.0" fill="rgb(218,62,14)" rx="2" ry="2" />
<text  x="279.44" y="255.5" ></text>
</g>
<g >
<title>tick_nohz_get_idle_calls_cpu (924,356 samples, 0.01%)</title><rect x="526.5" y="37" width="0.2" height="15.0" fill="rgb(234,135,32)" rx="2" ry="2" />
<text  x="529.49" y="47.5" ></text>
</g>
<g >
<title>w2c_decode__webp__wasmsimd_TransformDCUV_C (1,775,015 samples, 0.03%)</title><rect x="526.7" y="245" width="0.3" height="15.0" fill="rgb(206,6,1)" rx="2" ry="2" />
<text  x="529.66" y="255.5" ></text>
</g>
<g >
<title>asm_sysvec_apic_timer_interrupt (1,848,065 samples, 0.03%)</title><rect x="526.3" y="229" width="0.4" height="15.0" fill="rgb(232,127,30)" rx="2" ry="2" />
<text  x="529.32" y="239.5" ></text>
</g>
<g >
<title>sugov_update_single_freq (924,356 samples, 0.01%)</title><rect x="526.5" y="53" width="0.2" height="15.0" fill="rgb(250,208,49)" rx="2" ry="2" />
<text  x="529.49" y="63.5" ></text>
</g>
<g >
<title>w2c_decode__webp__wasmsimd_TransformAC3_C (724,851,328 samples, 11.29%)</title><rect x="393.4" y="245" width="133.3" height="15.0" fill="rgb(251,211,50)" rx="2" ry="2" />
<text  x="396.44" y="255.5" >w2c_decode__webp..</text>
</g>
<g >
<title>_raw_spin_lock_irqsave (925,315 samples, 0.01%)</title><rect x="1174.9" y="165" width="0.2" height="15.0" fill="rgb(247,195,46)" rx="2" ry="2" />
<text  x="1177.91" y="175.5" ></text>
</g>
<g >
<title>w2c_decode__webp__wasmsimd_VP8ParseProba (924,386 samples, 0.01%)</title><rect x="1179.0" y="245" width="0.2" height="15.0" fill="rgb(216,51,12)" rx="2" ry="2" />
<text  x="1181.98" y="255.5" ></text>
</g>
<g >
<title>generic_perform_write (924,112 samples, 0.01%)</title><rect x="14.0" y="133" width="0.2" height="15.0" fill="rgb(236,146,35)" rx="2" ry="2" />
<text  x="17.05" y="143.5" ></text>
</g>
<g >
<title>amd_pmu_disable_all (923,709 samples, 0.01%)</title><rect x="526.3" y="69" width="0.2" height="15.0" fill="rgb(213,38,9)" rx="2" ry="2" />
<text  x="529.32" y="79.5" ></text>
</g>
<g >
<title>w2c_decode__webp__wasmsimd_RD4_SSE2 (5,543,915 samples, 0.09%)</title><rect x="305.0" y="245" width="1.1" height="15.0" fill="rgb(245,187,44)" rx="2" ry="2" />
<text  x="308.05" y="255.5" ></text>
</g>
<g >
<title>w2c_decode__webp__wasmsimd_GetLargeValue (73,767,936 samples, 1.15%)</title><rect x="262.9" y="245" width="13.5" height="15.0" fill="rgb(234,137,32)" rx="2" ry="2" />
<text  x="265.88" y="255.5" ></text>
</g>
<g >
<title>sysvec_apic_timer_interrupt (6,468,490 samples, 0.10%)</title><rect x="1173.9" y="213" width="1.2" height="15.0" fill="rgb(220,69,16)" rx="2" ry="2" />
<text  x="1176.90" y="223.5" ></text>
</g>
<g >
<title>do_syscall_64 (1,848,317 samples, 0.03%)</title><rect x="13.9" y="197" width="0.3" height="15.0" fill="rgb(209,20,4)" rx="2" ry="2" />
<text  x="16.88" y="207.5" ></text>
</g>
<g >
<title>perf_event_task_tick (923,709 samples, 0.01%)</title><rect x="526.3" y="85" width="0.2" height="15.0" fill="rgb(205,3,0)" rx="2" ry="2" />
<text  x="529.32" y="95.5" ></text>
</g>
<g >
<title>delay_halt_mwaitx (1,848,533 samples, 0.03%)</title><rect x="1174.2" y="37" width="0.4" height="15.0" fill="rgb(234,133,31)" rx="2" ry="2" />
<text  x="1177.24" y="47.5" ></text>
</g>
<g >
<title>find_lock_entries (924,305 samples, 0.01%)</title><rect x="13.7" y="37" width="0.2" height="15.0" fill="rgb(224,89,21)" rx="2" ry="2" />
<text  x="16.71" y="47.5" ></text>
</g>
<g >
<title>generic_update_time (924,205 samples, 0.01%)</title><rect x="13.9" y="117" width="0.1" height="15.0" fill="rgb(213,37,8)" rx="2" ry="2" />
<text  x="16.88" y="127.5" ></text>
</g>
<g >
<title>scheduler_tick (1,848,065 samples, 0.03%)</title><rect x="526.3" y="101" width="0.4" height="15.0" fill="rgb(246,190,45)" rx="2" ry="2" />
<text  x="529.32" y="111.5" ></text>
</g>
<g >
<title>update_process_times (1,848,065 samples, 0.03%)</title><rect x="526.3" y="117" width="0.4" height="15.0" fill="rgb(250,209,50)" rx="2" ry="2" />
<text  x="529.32" y="127.5" ></text>
</g>
<g >
<title>__sysvec_apic_timer_interrupt (6,468,490 samples, 0.10%)</title><rect x="1173.9" y="197" width="1.2" height="15.0" fill="rgb(242,173,41)" rx="2" ry="2" />
<text  x="1176.90" y="207.5" ></text>
</g>
<g >
<title>w2c_decode__webp__wasmsimd_Transform_SSE2 (3,081,970,044 samples, 48.00%)</title><rect x="608.6" y="245" width="566.5" height="15.0" fill="rgb(224,91,21)" rx="2" ry="2" />
<text  x="611.65" y="255.5" >w2c_decode__webp__wasmsimd_Transform_SSE2</text>
</g>
<g >
<title>do_truncate (924,305 samples, 0.01%)</title><rect x="13.7" y="117" width="0.2" height="15.0" fill="rgb(216,53,12)" rx="2" ry="2" />
<text  x="16.71" y="127.5" ></text>
</g>
<g >
<title>w2c_decode__webp__wasmsimd_ReconstructRow (11,609,144 samples, 0.18%)</title><rect x="16.8" y="229" width="2.1" height="15.0" fill="rgb(217,55,13)" rx="2" ry="2" />
<text  x="19.78" y="239.5" ></text>
</g>
<g >
<title>native_write_msr (924,377 samples, 0.01%)</title><rect x="1174.6" y="37" width="0.1" height="15.0" fill="rgb(237,151,36)" rx="2" ry="2" />
<text  x="1177.58" y="47.5" ></text>
</g>
<g >
<title>ksys_write (1,848,317 samples, 0.03%)</title><rect x="13.9" y="181" width="0.3" height="15.0" fill="rgb(205,4,1)" rx="2" ry="2" />
<text  x="16.88" y="191.5" ></text>
</g>
<g >
<title>tick_sched_handle (4,621,723 samples, 0.07%)</title><rect x="1174.1" y="133" width="0.8" height="15.0" fill="rgb(219,68,16)" rx="2" ry="2" />
<text  x="1177.07" y="143.5" ></text>
</g>
<g >
<title>w2c_decode__webp__wasmsimd_GetCoeffsAlt (12,928,829 samples, 0.20%)</title><rect x="10.0" y="149" width="2.4" height="15.0" fill="rgb(214,45,10)" rx="2" ry="2" />
<text  x="13.00" y="159.5" ></text>
</g>
<g >
<title>delay_halt (1,848,533 samples, 0.03%)</title><rect x="1174.2" y="53" width="0.4" height="15.0" fill="rgb(250,207,49)" rx="2" ry="2" />
<text  x="1177.24" y="63.5" ></text>
</g>
<g >
<title>w2c_decode__webp__wasmsimd_VR4_SSE2 (2,771,585 samples, 0.04%)</title><rect x="1189.3" y="245" width="0.5" height="15.0" fill="rgb(229,112,26)" rx="2" ry="2" />
<text  x="1192.30" y="255.5" ></text>
</g>
<g >
<title>w2c_decode__webp__wasmsimd_Transform_SSE2 (756,827,724 samples, 11.79%)</title><rect x="22.0" y="229" width="139.1" height="15.0" fill="rgb(224,91,21)" rx="2" ry="2" />
<text  x="24.97" y="239.5" >w2c_decode__webp_..</text>
</g>
<g >
<title>[unknown] (19,395,680 samples, 0.30%)</title><rect x="10.0" y="165" width="3.6" height="15.0" fill="rgb(210,24,5)" rx="2" ry="2" />
<text  x="13.00" y="175.5" ></text>
</g>
<g >
<title>w2c_decode__webp__wasmsimd_VP8YuvToRgb32_SSE2 (55,217,123 samples, 0.86%)</title><rect x="1179.2" y="245" width="10.1" height="15.0" fill="rgb(233,129,31)" rx="2" ry="2" />
<text  x="1182.15" y="255.5" ></text>
</g>
<g >
<title>amd_pmu_disable_all (924,377 samples, 0.01%)</title><rect x="1174.6" y="69" width="0.1" height="15.0" fill="rgb(213,38,9)" rx="2" ry="2" />
<text  x="1177.58" y="79.5" ></text>
</g>
<g >
<title>hrtimer_interrupt (6,468,490 samples, 0.10%)</title><rect x="1173.9" y="181" width="1.2" height="15.0" fill="rgb(228,109,26)" rx="2" ry="2" />
<text  x="1176.90" y="191.5" ></text>
</g>
<g >
<title>sysvec_apic_timer_interrupt (1,848,065 samples, 0.03%)</title><rect x="526.3" y="213" width="0.4" height="15.0" fill="rgb(220,69,16)" rx="2" ry="2" />
<text  x="529.32" y="223.5" ></text>
</g>
<g >
<title>vfs_write (1,848,317 samples, 0.03%)</title><rect x="13.9" y="165" width="0.3" height="15.0" fill="rgb(250,209,50)" rx="2" ry="2" />
<text  x="16.88" y="175.5" ></text>
</g>
<g >
<title>ext4_buffered_write_iter (1,848,317 samples, 0.03%)</title><rect x="13.9" y="149" width="0.3" height="15.0" fill="rgb(213,40,9)" rx="2" ry="2" />
<text  x="16.88" y="159.5" ></text>
</g>
<g >
<title>w2c_decode__webp__wasmsimd_SimpleHFilter16_SSE2 (2,738,427 samples, 0.04%)</title><rect x="392.8" y="245" width="0.5" height="15.0" fill="rgb(211,29,7)" rx="2" ry="2" />
<text  x="395.76" y="255.5" ></text>
</g>
<g >
<title>__hrtimer_run_queues (1,848,065 samples, 0.03%)</title><rect x="526.3" y="165" width="0.4" height="15.0" fill="rgb(237,150,35)" rx="2" ry="2" />
<text  x="529.32" y="175.5" ></text>
</g>
<g >
<title>__libc_write (1,848,317 samples, 0.03%)</title><rect x="13.9" y="229" width="0.3" height="15.0" fill="rgb(238,154,37)" rx="2" ry="2" />
<text  x="16.88" y="239.5" ></text>
</g>
<g >
<title>entry_SYSCALL_64_after_hwframe (1,848,317 samples, 0.03%)</title><rect x="13.9" y="213" width="0.3" height="15.0" fill="rgb(218,63,15)" rx="2" ry="2" />
<text  x="16.88" y="223.5" ></text>
</g>
<g >
<title>__memmove_avx_unaligned_erms (893,014 samples, 0.01%)</title><rect x="161.1" y="245" width="0.1" height="15.0" fill="rgb(205,0,0)" rx="2" ry="2" />
<text  x="164.06" y="255.5" ></text>
</g>
<g >
<title>do_filp_open (924,305 samples, 0.01%)</title><rect x="13.7" y="149" width="0.2" height="15.0" fill="rgb(211,28,6)" rx="2" ry="2" />
<text  x="16.71" y="159.5" ></text>
</g>
<g >
<title>native_read_msr (924,448 samples, 0.01%)</title><rect x="1174.1" y="69" width="0.1" height="15.0" fill="rgb(211,30,7)" rx="2" ry="2" />
<text  x="1177.07" y="79.5" ></text>
</g>
<g >
<title>w2c_decode__webp__wasmsimd_IDecode (6,251,028 samples, 0.10%)</title><rect x="15.6" y="229" width="1.2" height="15.0" fill="rgb(237,147,35)" rx="2" ry="2" />
<text  x="18.63" y="239.5" ></text>
</g>
<g >
<title>decode_webp_was (6,420,226,432 samples, 100.00%)</title><rect x="10.0" y="261" width="1180.0" height="15.0" fill="rgb(216,54,12)" rx="2" ry="2" />
<text  x="13.00" y="271.5" >decode_webp_was</text>
</g>
<g >
<title>w2c_decode__webp__wasmsimd_FinishRow (3,695,356 samples, 0.06%)</title><rect x="163.9" y="245" width="0.7" height="15.0" fill="rgb(205,3,0)" rx="2" ry="2" />
<text  x="166.95" y="255.5" ></text>
</g>
<g >
<title>tick_sched_timer (1,848,065 samples, 0.03%)</title><rect x="526.3" y="149" width="0.4" height="15.0" fill="rgb(254,227,54)" rx="2" ry="2" />
<text  x="529.32" y="159.5" ></text>
</g>
<g >
<title>update_process_times (4,621,723 samples, 0.07%)</title><rect x="1174.1" y="117" width="0.8" height="15.0" fill="rgb(250,209,50)" rx="2" ry="2" />
<text  x="1177.07" y="127.5" ></text>
</g>
<g >
<title>__sysvec_apic_timer_interrupt (1,848,065 samples, 0.03%)</title><rect x="526.3" y="197" width="0.4" height="15.0" fill="rgb(242,173,41)" rx="2" ry="2" />
<text  x="529.32" y="207.5" ></text>
</g>
<g >
<title>w2c_decode__webp__wasmsimd_TM4_SSE2 (924,151 samples, 0.01%)</title><rect x="393.3" y="245" width="0.1" height="15.0" fill="rgb(224,90,21)" rx="2" ry="2" />
<text  x="396.27" y="255.5" ></text>
</g>
<g >
<title>w2c_decode__webp__wasmsimd_DC8uvNoLeft_SSE2 (1,848,021 samples, 0.03%)</title><rect x="163.1" y="245" width="0.3" height="15.0" fill="rgb(226,96,23)" rx="2" ry="2" />
<text  x="166.10" y="255.5" ></text>
</g>
<g >
<title>mark_buffer_dirty (924,112 samples, 0.01%)</title><rect x="14.0" y="85" width="0.2" height="15.0" fill="rgb(240,163,39)" rx="2" ry="2" />
<text  x="17.05" y="95.5" ></text>
</g>
<g >
<title>perf_event_task_tick (2,772,910 samples, 0.04%)</title><rect x="1174.2" y="85" width="0.5" height="15.0" fill="rgb(205,3,0)" rx="2" ry="2" />
<text  x="1177.24" y="95.5" ></text>
</g>
<g >
<title>timekeeping_update (921,452 samples, 0.01%)</title><rect x="1173.9" y="85" width="0.2" height="15.0" fill="rgb(238,152,36)" rx="2" ry="2" />
<text  x="1176.90" y="95.5" ></text>
</g>
<g >
<title>w2c_decode__webp__wasmsimd_GetCoeffsAlt (7,392,961 samples, 0.12%)</title><rect x="14.3" y="229" width="1.3" height="15.0" fill="rgb(214,45,10)" rx="2" ry="2" />
<text  x="17.27" y="239.5" ></text>
</g>
<g >
<title>[unknown] (821,937,920 samples, 12.80%)</title><rect x="10.0" y="245" width="151.1" height="15.0" fill="rgb(210,24,5)" rx="2" ry="2" />
<text  x="13.00" y="255.5" >[unknown]</text>
</g>
<g >
<title>truncate_inode_pages_range (924,305 samples, 0.01%)</title><rect x="13.7" y="53" width="0.2" height="15.0" fill="rgb(245,187,44)" rx="2" ry="2" />
<text  x="16.71" y="63.5" ></text>
</g>
</g>
</svg>
