<?xml version="1.0" standalone="no"?>
<!DOCTYPE svg PUBLIC "-//W3C//DTD SVG 1.1//EN" "http://www.w3.org/Graphics/SVG/1.1/DTD/svg11.dtd">
<svg version="1.1" width="1200" height="342" onload="init(evt)" viewBox="0 0 1200 342" xmlns="http://www.w3.org/2000/svg" xmlns:xlink="http://www.w3.org/1999/xlink">
<!-- Flame graph stack visualization. See https://github.com/brendangregg/FlameGraph for latest version, and http://www.brendangregg.com/flamegraphs.html for examples. -->
<!-- NOTES:  -->
<defs>
	<linearGradient id="background" y1="0" y2="1" x1="0" x2="0" >
		<stop stop-color="#eeeeee" offset="5%" />
		<stop stop-color="#eeeeb0" offset="95%" />
	</linearGradient>
</defs>
<style type="text/css">
	text { font-family:Verdana; font-size:12px; fill:rgb(0,0,0); }
	#search, #ignorecase { opacity:0.1; cursor:pointer; }
	#search:hover, #search.show, #ignorecase:hover, #ignorecase.show { opacity:1; }
	#subtitle { text-anchor:middle; font-color:rgb(160,160,160); }
	#title { text-anchor:middle; font-size:17px}
	#unzoom { cursor:pointer; }
	#frames > *:hover { stroke:black; stroke-width:0.5; cursor:pointer; }
	.hide { display:none; }
	.parent { opacity:0.5; }
</style>
<script type="text/ecmascript">
<![CDATA[
	"use strict";
	var details, searchbtn, unzoombtn, matchedtxt, svg, searching, currentSearchTerm, ignorecase, ignorecaseBtn;
	function init(evt) {
		details = document.getElementById("details").firstChild;
		searchbtn = document.getElementById("search");
		ignorecaseBtn = document.getElementById("ignorecase");
		unzoombtn = document.getElementById("unzoom");
		matchedtxt = document.getElementById("matched");
		svg = document.getElementsByTagName("svg")[0];
		searching = 0;
		currentSearchTerm = null;

		// use GET parameters to restore a flamegraphs state.
		var params = get_params();
		if (params.x && params.y)
			zoom(find_group(document.querySelector('[x="' + params.x + '"][y="' + params.y + '"]')));
                if (params.s) search(params.s);
	}

	// event listeners
	window.addEventListener("click", function(e) {
		var target = find_group(e.target);
		if (target) {
			if (target.nodeName == "a") {
				if (e.ctrlKey === false) return;
				e.preventDefault();
			}
			if (target.classList.contains("parent")) unzoom(true);
			zoom(target);
			if (!document.querySelector('.parent')) {
				// we have basically done a clearzoom so clear the url
				var params = get_params();
				if (params.x) delete params.x;
				if (params.y) delete params.y;
				history.replaceState(null, null, parse_params(params));
				unzoombtn.classList.add("hide");
				return;
			}

			// set parameters for zoom state
			var el = target.querySelector("rect");
			if (el && el.attributes && el.attributes.y && el.attributes._orig_x) {
				var params = get_params()
				params.x = el.attributes._orig_x.value;
				params.y = el.attributes.y.value;
				history.replaceState(null, null, parse_params(params));
			}
		}
		else if (e.target.id == "unzoom") clearzoom();
		else if (e.target.id == "search") search_prompt();
		else if (e.target.id == "ignorecase") toggle_ignorecase();
	}, false)

	// mouse-over for info
	// show
	window.addEventListener("mouseover", function(e) {
		var target = find_group(e.target);
		if (target) details.nodeValue = "Function: " + g_to_text(target);
	}, false)

	// clear
	window.addEventListener("mouseout", function(e) {
		var target = find_group(e.target);
		if (target) details.nodeValue = ' ';
	}, false)

	// ctrl-F for search
	// ctrl-I to toggle case-sensitive search
	window.addEventListener("keydown",function (e) {
		if (e.keyCode === 114 || (e.ctrlKey && e.keyCode === 70)) {
			e.preventDefault();
			search_prompt();
		}
		else if (e.ctrlKey && e.keyCode === 73) {
			e.preventDefault();
			toggle_ignorecase();
		}
	}, false)

	// functions
	function get_params() {
		var params = {};
		var paramsarr = window.location.search.substr(1).split('&');
		for (var i = 0; i < paramsarr.length; ++i) {
			var tmp = paramsarr[i].split("=");
			if (!tmp[0] || !tmp[1]) continue;
			params[tmp[0]]  = decodeURIComponent(tmp[1]);
		}
		return params;
	}
	function parse_params(params) {
		var uri = "?";
		for (var key in params) {
			uri += key + '=' + encodeURIComponent(params[key]) + '&';
		}
		if (uri.slice(-1) == "&")
			uri = uri.substring(0, uri.length - 1);
		if (uri == '?')
			uri = window.location.href.split('?')[0];
		return uri;
	}
	function find_child(node, selector) {
		var children = node.querySelectorAll(selector);
		if (children.length) return children[0];
	}
	function find_group(node) {
		var parent = node.parentElement;
		if (!parent) return;
		if (parent.id == "frames") return node;
		return find_group(parent);
	}
	function orig_save(e, attr, val) {
		if (e.attributes["_orig_" + attr] != undefined) return;
		if (e.attributes[attr] == undefined) return;
		if (val == undefined) val = e.attributes[attr].value;
		e.setAttribute("_orig_" + attr, val);
	}
	function orig_load(e, attr) {
		if (e.attributes["_orig_"+attr] == undefined) return;
		e.attributes[attr].value = e.attributes["_orig_" + attr].value;
		e.removeAttribute("_orig_"+attr);
	}
	function g_to_text(e) {
		var text = find_child(e, "title").firstChild.nodeValue;
		return (text)
	}
	function g_to_func(e) {
		var func = g_to_text(e);
		// if there's any manipulation we want to do to the function
		// name before it's searched, do it here before returning.
		return (func);
	}
	function update_text(e) {
		var r = find_child(e, "rect");
		var t = find_child(e, "text");
		var w = parseFloat(r.attributes.width.value) -3;
		var txt = find_child(e, "title").textContent.replace(/\([^(]*\)$/,"");
		t.attributes.x.value = parseFloat(r.attributes.x.value) + 3;

		// Smaller than this size won't fit anything
		if (w < 2 * 12 * 0.59) {
			t.textContent = "";
			return;
		}

		t.textContent = txt;
		var sl = t.getSubStringLength(0, txt.length);
		// check if only whitespace or if we can fit the entire string into width w
		if (/^ *$/.test(txt) || sl < w)
			return;

		// this isn't perfect, but gives a good starting point
		// and avoids calling getSubStringLength too often
		var start = Math.floor((w/sl) * txt.length);
		for (var x = start; x > 0; x = x-2) {
			if (t.getSubStringLength(0, x + 2) <= w) {
				t.textContent = txt.substring(0, x) + "..";
				return;
			}
		}
		t.textContent = "";
	}

	// zoom
	function zoom_reset(e) {
		if (e.attributes != undefined) {
			orig_load(e, "x");
			orig_load(e, "width");
		}
		if (e.childNodes == undefined) return;
		for (var i = 0, c = e.childNodes; i < c.length; i++) {
			zoom_reset(c[i]);
		}
	}
	function zoom_child(e, x, ratio) {
		if (e.attributes != undefined) {
			if (e.attributes.x != undefined) {
				orig_save(e, "x");
				e.attributes.x.value = (parseFloat(e.attributes.x.value) - x - 10) * ratio + 10;
				if (e.tagName == "text")
					e.attributes.x.value = find_child(e.parentNode, "rect[x]").attributes.x.value + 3;
			}
			if (e.attributes.width != undefined) {
				orig_save(e, "width");
				e.attributes.width.value = parseFloat(e.attributes.width.value) * ratio;
			}
		}

		if (e.childNodes == undefined) return;
		for (var i = 0, c = e.childNodes; i < c.length; i++) {
			zoom_child(c[i], x - 10, ratio);
		}
	}
	function zoom_parent(e) {
		if (e.attributes) {
			if (e.attributes.x != undefined) {
				orig_save(e, "x");
				e.attributes.x.value = 10;
			}
			if (e.attributes.width != undefined) {
				orig_save(e, "width");
				e.attributes.width.value = parseInt(svg.width.baseVal.value) - (10 * 2);
			}
		}
		if (e.childNodes == undefined) return;
		for (var i = 0, c = e.childNodes; i < c.length; i++) {
			zoom_parent(c[i]);
		}
	}
	function zoom(node) {
		var attr = find_child(node, "rect").attributes;
		var width = parseFloat(attr.width.value);
		var xmin = parseFloat(attr.x.value);
		var xmax = parseFloat(xmin + width);
		var ymin = parseFloat(attr.y.value);
		var ratio = (svg.width.baseVal.value - 2 * 10) / width;

		// XXX: Workaround for JavaScript float issues (fix me)
		var fudge = 0.0001;

		unzoombtn.classList.remove("hide");

		var el = document.getElementById("frames").children;
		for (var i = 0; i < el.length; i++) {
			var e = el[i];
			var a = find_child(e, "rect").attributes;
			var ex = parseFloat(a.x.value);
			var ew = parseFloat(a.width.value);
			var upstack;
			// Is it an ancestor
			if (0 == 0) {
				upstack = parseFloat(a.y.value) > ymin;
			} else {
				upstack = parseFloat(a.y.value) < ymin;
			}
			if (upstack) {
				// Direct ancestor
				if (ex <= xmin && (ex+ew+fudge) >= xmax) {
					e.classList.add("parent");
					zoom_parent(e);
					update_text(e);
				}
				// not in current path
				else
					e.classList.add("hide");
			}
			// Children maybe
			else {
				// no common path
				if (ex < xmin || ex + fudge >= xmax) {
					e.classList.add("hide");
				}
				else {
					zoom_child(e, xmin, ratio);
					update_text(e);
				}
			}
		}
		search();
	}
	function unzoom(dont_update_text) {
		unzoombtn.classList.add("hide");
		var el = document.getElementById("frames").children;
		for(var i = 0; i < el.length; i++) {
			el[i].classList.remove("parent");
			el[i].classList.remove("hide");
			zoom_reset(el[i]);
			if(!dont_update_text) update_text(el[i]);
		}
		search();
	}
	function clearzoom() {
		unzoom();

		// remove zoom state
		var params = get_params();
		if (params.x) delete params.x;
		if (params.y) delete params.y;
		history.replaceState(null, null, parse_params(params));
	}

	// search
	function toggle_ignorecase() {
		ignorecase = !ignorecase;
		if (ignorecase) {
			ignorecaseBtn.classList.add("show");
		} else {
			ignorecaseBtn.classList.remove("show");
		}
		reset_search();
		search();
	}
	function reset_search() {
		var el = document.querySelectorAll("#frames rect");
		for (var i = 0; i < el.length; i++) {
			orig_load(el[i], "fill")
		}
		var params = get_params();
		delete params.s;
		history.replaceState(null, null, parse_params(params));
	}
	function search_prompt() {
		if (!searching) {
			var term = prompt("Enter a search term (regexp " +
			    "allowed, eg: ^ext4_)"
			    + (ignorecase ? ", ignoring case" : "")
			    + "\nPress Ctrl-i to toggle case sensitivity", "");
			if (term != null) search(term);
		} else {
			reset_search();
			searching = 0;
			currentSearchTerm = null;
			searchbtn.classList.remove("show");
			searchbtn.firstChild.nodeValue = "Search"
			matchedtxt.classList.add("hide");
			matchedtxt.firstChild.nodeValue = ""
		}
	}
	function search(term) {
		if (term) currentSearchTerm = term;

		var re = new RegExp(currentSearchTerm, ignorecase ? 'i' : '');
		var el = document.getElementById("frames").children;
		var matches = new Object();
		var maxwidth = 0;
		for (var i = 0; i < el.length; i++) {
			var e = el[i];
			var func = g_to_func(e);
			var rect = find_child(e, "rect");
			if (func == null || rect == null)
				continue;

			// Save max width. Only works as we have a root frame
			var w = parseFloat(rect.attributes.width.value);
			if (w > maxwidth)
				maxwidth = w;

			if (func.match(re)) {
				// highlight
				var x = parseFloat(rect.attributes.x.value);
				orig_save(rect, "fill");
				rect.attributes.fill.value = "rgb(230,0,230)";

				// remember matches
				if (matches[x] == undefined) {
					matches[x] = w;
				} else {
					if (w > matches[x]) {
						// overwrite with parent
						matches[x] = w;
					}
				}
				searching = 1;
			}
		}
		if (!searching)
			return;
		var params = get_params();
		params.s = currentSearchTerm;
		history.replaceState(null, null, parse_params(params));

		searchbtn.classList.add("show");
		searchbtn.firstChild.nodeValue = "Reset Search";

		// calculate percent matched, excluding vertical overlap
		var count = 0;
		var lastx = -1;
		var lastw = 0;
		var keys = Array();
		for (k in matches) {
			if (matches.hasOwnProperty(k))
				keys.push(k);
		}
		// sort the matched frames by their x location
		// ascending, then width descending
		keys.sort(function(a, b){
			return a - b;
		});
		// Step through frames saving only the biggest bottom-up frames
		// thanks to the sort order. This relies on the tree property
		// where children are always smaller than their parents.
		var fudge = 0.0001;	// JavaScript floating point
		for (var k in keys) {
			var x = parseFloat(keys[k]);
			var w = matches[keys[k]];
			if (x >= lastx + lastw - fudge) {
				count += w;
				lastx = x;
				lastw = w;
			}
		}
		// display matched percent
		matchedtxt.classList.remove("hide");
		var pct = 100 * count / maxwidth;
		if (pct != 100) pct = pct.toFixed(1)
		matchedtxt.firstChild.nodeValue = "Matched: " + pct + "%";
	}
]]>
</script>
<rect x="0.0" y="0" width="1200.0" height="342.0" fill="url(#background)"  />
<text id="title" x="600.00" y="24" >Flame Graph</text>
<text id="details" x="10.00" y="325" > </text>
<text id="unzoom" x="10.00" y="24" class="hide">Reset Zoom</text>
<text id="search" x="1090.00" y="24" >Search</text>
<text id="ignorecase" x="1174.00" y="24" >ic</text>
<text id="matched" x="1090.00" y="325" > </text>
<g id="frames">
<g >
<title>VP8LDoFillBitWindow (12,002,068 samples, 1.78%)</title><rect x="1157.6" y="229" width="20.9" height="15.0" fill="rgb(219,67,16)" rx="2" ry="2" />
<text  x="1160.58" y="239.5" ></text>
</g>
<g >
<title>exit_mmap (924,235 samples, 0.14%)</title><rect x="1188.3" y="165" width="1.6" height="15.0" fill="rgb(236,143,34)" rx="2" ry="2" />
<text  x="1191.27" y="175.5" ></text>
</g>
<g >
<title>mem_cgroup_css_rstat_flush (924,163 samples, 0.14%)</title><rect x="1182.9" y="37" width="1.6" height="15.0" fill="rgb(253,222,53)" rx="2" ry="2" />
<text  x="1185.88" y="47.5" ></text>
</g>
<g >
<title>ReadHuffmanCodesHelper (923,982 samples, 0.14%)</title><rect x="1152.7" y="229" width="1.7" height="15.0" fill="rgb(209,22,5)" rx="2" ry="2" />
<text  x="1155.75" y="239.5" ></text>
</g>
<g >
<title>do_exit (924,235 samples, 0.14%)</title><rect x="1188.3" y="197" width="1.6" height="15.0" fill="rgb(231,122,29)" rx="2" ry="2" />
<text  x="1191.27" y="207.5" ></text>
</g>
<g >
<title>copy_page_from_iter_atomic (924,077 samples, 0.14%)</title><rect x="1184.5" y="133" width="1.6" height="15.0" fill="rgb(231,120,28)" rx="2" ry="2" />
<text  x="1187.50" y="143.5" ></text>
</g>
<g >
<title>__ctype_init (642,308 samples, 0.10%)</title><rect x="1181.8" y="245" width="1.1" height="15.0" fill="rgb(209,20,4)" rx="2" ry="2" />
<text  x="1184.76" y="255.5" ></text>
</g>
<g >
<title>PredictorAdd7_C (924,309 samples, 0.14%)</title><rect x="335.9" y="261" width="1.6" height="15.0" fill="rgb(227,103,24)" rx="2" ry="2" />
<text  x="338.86" y="271.5" ></text>
</g>
<g >
<title>VP8LInverseTransform (5,539,712 samples, 0.82%)</title><rect x="624.8" y="245" width="9.7" height="15.0" fill="rgb(234,134,32)" rx="2" ry="2" />
<text  x="627.84" y="255.5" ></text>
</g>
<g >
<title>load_elf_binary (313,147 samples, 0.05%)</title><rect x="1186.1" y="165" width="0.6" height="15.0" fill="rgb(223,83,20)" rx="2" ry="2" />
<text  x="1189.11" y="175.5" ></text>
</g>
<g >
<title>VP8LTransformColorInverse_C (91,026,209 samples, 13.47%)</title><rect x="358.0" y="261" width="158.9" height="15.0" fill="rgb(236,145,34)" rx="2" ry="2" />
<text  x="360.97" y="271.5" >VP8LTransformColorIn..</text>
</g>
<g >
<title>DecodeImageData (284,055,074 samples, 42.02%)</title><rect x="656.9" y="229" width="495.8" height="15.0" fill="rgb(254,229,54)" rx="2" ry="2" />
<text  x="659.85" y="239.5" >DecodeImageData</text>
</g>
<g >
<title>do_execveat_common.isra.0 (66,708 samples, 0.01%)</title><rect x="1189.9" y="197" width="0.1" height="15.0" fill="rgb(231,123,29)" rx="2" ry="2" />
<text  x="1192.88" y="207.5" ></text>
</g>
<g >
<title>_itoa_word (924,144 samples, 0.14%)</title><rect x="1186.7" y="261" width="1.6" height="15.0" fill="rgb(246,191,45)" rx="2" ry="2" />
<text  x="1189.66" y="271.5" ></text>
</g>
<g >
<title>__x64_sys_execve (313,147 samples, 0.05%)</title><rect x="1186.1" y="213" width="0.6" height="15.0" fill="rgb(247,193,46)" rx="2" ry="2" />
<text  x="1189.11" y="223.5" ></text>
</g>
<g >
<title>do_execveat_common.isra.0 (313,147 samples, 0.05%)</title><rect x="1186.1" y="197" width="0.6" height="15.0" fill="rgb(231,123,29)" rx="2" ry="2" />
<text  x="1189.11" y="207.5" ></text>
</g>
<g >
<title>entry_SYSCALL_64_after_hwframe (66,708 samples, 0.01%)</title><rect x="1189.9" y="245" width="0.1" height="15.0" fill="rgb(218,63,15)" rx="2" ry="2" />
<text  x="1192.88" y="255.5" ></text>
</g>
<g >
<title>__alloc_pages (656,615 samples, 0.10%)</title><rect x="342.3" y="133" width="1.2" height="15.0" fill="rgb(233,129,30)" rx="2" ry="2" />
<text  x="345.31" y="143.5" ></text>
</g>
<g >
<title>[unknown] (66,708 samples, 0.01%)</title><rect x="1189.9" y="261" width="0.1" height="15.0" fill="rgb(210,24,5)" rx="2" ry="2" />
<text  x="1192.88" y="271.5" ></text>
</g>
<g >
<title>__handle_mm_fault (642,308 samples, 0.10%)</title><rect x="1181.8" y="165" width="1.1" height="15.0" fill="rgb(207,9,2)" rx="2" ry="2" />
<text  x="1184.76" y="175.5" ></text>
</g>
<g >
<title>VP8LReadBits (1,847,795 samples, 0.27%)</title><rect x="634.5" y="245" width="3.2" height="15.0" fill="rgb(236,146,35)" rx="2" ry="2" />
<text  x="637.51" y="255.5" ></text>
</g>
<g >
<title>filemap_map_pages (642,308 samples, 0.10%)</title><rect x="1181.8" y="133" width="1.1" height="15.0" fill="rgb(229,112,27)" rx="2" ry="2" />
<text  x="1184.76" y="143.5" ></text>
</g>
<g >
<title>entry_SYSCALL_64_after_hwframe (924,235 samples, 0.14%)</title><rect x="1188.3" y="261" width="1.6" height="15.0" fill="rgb(218,63,15)" rx="2" ry="2" />
<text  x="1191.27" y="271.5" ></text>
</g>
<g >
<title>__mem_cgroup_flush_stats (924,163 samples, 0.14%)</title><rect x="1182.9" y="85" width="1.6" height="15.0" fill="rgb(208,16,3)" rx="2" ry="2" />
<text  x="1185.88" y="95.5" ></text>
</g>
<g >
<title>do_syscall_64 (66,708 samples, 0.01%)</title><rect x="1189.9" y="229" width="0.1" height="15.0" fill="rgb(209,20,4)" rx="2" ry="2" />
<text  x="1192.88" y="239.5" ></text>
</g>
<g >
<title>entry_SYSCALL_64_after_hwframe (313,147 samples, 0.05%)</title><rect x="1186.1" y="245" width="0.6" height="15.0" fill="rgb(218,63,15)" rx="2" ry="2" />
<text  x="1189.11" y="255.5" ></text>
</g>
<g >
<title>move_page_tables (313,147 samples, 0.05%)</title><rect x="1186.1" y="117" width="0.6" height="15.0" fill="rgb(230,116,27)" rx="2" ry="2" />
<text  x="1189.11" y="127.5" ></text>
</g>
<g >
<title>PredictorAdd11_C (15,700,199 samples, 2.32%)</title><rect x="84.0" y="261" width="27.4" height="15.0" fill="rgb(249,206,49)" rx="2" ry="2" />
<text  x="86.98" y="271.5" >P..</text>
</g>
<g >
<title>__libc_write (1,848,240 samples, 0.27%)</title><rect x="1182.9" y="245" width="3.2" height="15.0" fill="rgb(238,154,37)" rx="2" ry="2" />
<text  x="1185.88" y="255.5" ></text>
</g>
<g >
<title>ApplyInverseTransforms (924,083 samples, 0.14%)</title><rect x="10.0" y="261" width="1.6" height="15.0" fill="rgb(220,69,16)" rx="2" ry="2" />
<text  x="13.00" y="271.5" ></text>
</g>
<g >
<title>DecodeImageData (1,847,524 samples, 0.27%)</title><rect x="79.1" y="261" width="3.3" height="15.0" fill="rgb(254,229,54)" rx="2" ry="2" />
<text  x="82.14" y="271.5" ></text>
</g>
<g >
<title>bprm_execve (313,147 samples, 0.05%)</title><rect x="1186.1" y="181" width="0.6" height="15.0" fill="rgb(218,61,14)" rx="2" ry="2" />
<text  x="1189.11" y="191.5" ></text>
</g>
<g >
<title>asm_exc_page_fault (656,615 samples, 0.10%)</title><rect x="342.3" y="245" width="1.2" height="15.0" fill="rgb(225,93,22)" rx="2" ry="2" />
<text  x="345.31" y="255.5" ></text>
</g>
<g >
<title>__folio_alloc (656,615 samples, 0.10%)</title><rect x="342.3" y="149" width="1.2" height="15.0" fill="rgb(224,91,21)" rx="2" ry="2" />
<text  x="345.31" y="159.5" ></text>
</g>
<g >
<title>PredictorAdd13_C (68,856,670 samples, 10.19%)</title><rect x="149.6" y="261" width="120.2" height="15.0" fill="rgb(236,146,35)" rx="2" ry="2" />
<text  x="152.58" y="271.5" >PredictorAdd13_C</text>
</g>
<g >
<title>exc_page_fault (656,615 samples, 0.10%)</title><rect x="342.3" y="229" width="1.2" height="15.0" fill="rgb(212,35,8)" rx="2" ry="2" />
<text  x="345.31" y="239.5" ></text>
</g>
<g >
<title>PredictorAdd1_C (28,611,672 samples, 4.23%)</title><rect x="269.8" y="261" width="49.9" height="15.0" fill="rgb(216,52,12)" rx="2" ry="2" />
<text  x="272.79" y="271.5" >Predi..</text>
</g>
<g >
<title>perf-exec (66,708 samples, 0.01%)</title><rect x="1189.9" y="277" width="0.1" height="15.0" fill="rgb(231,123,29)" rx="2" ry="2" />
<text  x="1192.88" y="287.5" ></text>
</g>
<g >
<title>tlb_finish_mmu (924,235 samples, 0.14%)</title><rect x="1188.3" y="149" width="1.6" height="15.0" fill="rgb(251,212,50)" rx="2" ry="2" />
<text  x="1191.27" y="159.5" ></text>
</g>
<g >
<title>copy_user_generic_string (924,077 samples, 0.14%)</title><rect x="1184.5" y="117" width="1.6" height="15.0" fill="rgb(205,0,0)" rx="2" ry="2" />
<text  x="1187.50" y="127.5" ></text>
</g>
<g >
<title>handle_mm_fault (656,615 samples, 0.10%)</title><rect x="342.3" y="197" width="1.2" height="15.0" fill="rgb(234,135,32)" rx="2" ry="2" />
<text  x="345.31" y="207.5" ></text>
</g>
<g >
<title>perf_event_exec (66,708 samples, 0.01%)</title><rect x="1189.9" y="133" width="0.1" height="15.0" fill="rgb(218,60,14)" rx="2" ry="2" />
<text  x="1192.88" y="143.5" ></text>
</g>
<g >
<title>cgroup_rstat_flush_locked (924,163 samples, 0.14%)</title><rect x="1182.9" y="53" width="1.6" height="15.0" fill="rgb(209,19,4)" rx="2" ry="2" />
<text  x="1185.88" y="63.5" ></text>
</g>
<g >
<title>next_uptodate_page (642,308 samples, 0.10%)</title><rect x="1181.8" y="117" width="1.1" height="15.0" fill="rgb(210,25,6)" rx="2" ry="2" />
<text  x="1184.76" y="127.5" ></text>
</g>
<g >
<title>[unknown] (383,660,617 samples, 56.76%)</title><rect x="516.9" y="261" width="669.8" height="15.0" fill="rgb(210,24,5)" rx="2" ry="2" />
<text  x="519.88" y="271.5" >[unknown]</text>
</g>
<g >
<title>do_fault (642,308 samples, 0.10%)</title><rect x="1181.8" y="149" width="1.1" height="15.0" fill="rgb(248,200,47)" rx="2" ry="2" />
<text  x="1184.76" y="159.5" ></text>
</g>
<g >
<title>__x64_sys_execve (66,708 samples, 0.01%)</title><rect x="1189.9" y="213" width="0.1" height="15.0" fill="rgb(247,193,46)" rx="2" ry="2" />
<text  x="1192.88" y="223.5" ></text>
</g>
<g >
<title>decode_webp_nat (675,857,593 samples, 99.99%)</title><rect x="10.0" y="277" width="1179.9" height="15.0" fill="rgb(218,61,14)" rx="2" ry="2" />
<text  x="13.00" y="287.5" >decode_webp_nat</text>
</g>
<g >
<title>do_user_addr_fault (642,308 samples, 0.10%)</title><rect x="1181.8" y="197" width="1.1" height="15.0" fill="rgb(228,108,25)" rx="2" ry="2" />
<text  x="1184.76" y="207.5" ></text>
</g>
<g >
<title>ext4_buffered_write_iter (1,848,240 samples, 0.27%)</title><rect x="1182.9" y="165" width="3.2" height="15.0" fill="rgb(213,40,9)" rx="2" ry="2" />
<text  x="1185.88" y="175.5" ></text>
</g>
<g >
<title>tlb_batch_pages_flush (924,235 samples, 0.14%)</title><rect x="1188.3" y="133" width="1.6" height="15.0" fill="rgb(234,133,32)" rx="2" ry="2" />
<text  x="1191.27" y="143.5" ></text>
</g>
<g >
<title>BuildHuffmanTable (38,682,865 samples, 5.72%)</title><rect x="11.6" y="261" width="67.5" height="15.0" fill="rgb(226,101,24)" rx="2" ry="2" />
<text  x="14.61" y="271.5" >BuildHu..</text>
</g>
<g >
<title>VP8LConvertBGRAToRGB_C (20,319,114 samples, 3.01%)</title><rect x="589.4" y="245" width="35.4" height="15.0" fill="rgb(222,78,18)" rx="2" ry="2" />
<text  x="592.37" y="255.5" >VP8..</text>
</g>
<g >
<title>entry_SYSCALL_64_after_hwframe (1,848,240 samples, 0.27%)</title><rect x="1182.9" y="229" width="3.2" height="15.0" fill="rgb(218,63,15)" rx="2" ry="2" />
<text  x="1185.88" y="239.5" ></text>
</g>
<g >
<title>do_group_exit (924,235 samples, 0.14%)</title><rect x="1188.3" y="213" width="1.6" height="15.0" fill="rgb(219,67,16)" rx="2" ry="2" />
<text  x="1191.27" y="223.5" ></text>
</g>
<g >
<title>__memmove_avx_unaligned (923,750 samples, 0.14%)</title><rect x="1180.1" y="229" width="1.7" height="15.0" fill="rgb(254,228,54)" rx="2" ry="2" />
<text  x="1183.15" y="239.5" ></text>
</g>
<g >
<title>PredictorAdd12_C (21,878,671 samples, 3.24%)</title><rect x="111.4" y="261" width="38.2" height="15.0" fill="rgb(243,176,42)" rx="2" ry="2" />
<text  x="114.39" y="271.5" >Pre..</text>
</g>
<g >
<title>cgroup_rstat_flush_irqsafe (924,163 samples, 0.14%)</title><rect x="1182.9" y="69" width="1.6" height="15.0" fill="rgb(227,103,24)" rx="2" ry="2" />
<text  x="1185.88" y="79.5" ></text>
</g>
<g >
<title>exc_page_fault (642,308 samples, 0.10%)</title><rect x="1181.8" y="213" width="1.1" height="15.0" fill="rgb(212,35,8)" rx="2" ry="2" />
<text  x="1184.76" y="223.5" ></text>
</g>
<g >
<title>do_syscall_64 (1,848,240 samples, 0.27%)</title><rect x="1182.9" y="213" width="3.2" height="15.0" fill="rgb(209,20,4)" rx="2" ry="2" />
<text  x="1185.88" y="223.5" ></text>
</g>
<g >
<title>VP8LReadBits (923,963 samples, 0.14%)</title><rect x="1178.5" y="229" width="1.6" height="15.0" fill="rgb(236,146,35)" rx="2" ry="2" />
<text  x="1181.54" y="239.5" ></text>
</g>
<g >
<title>release_pages (924,235 samples, 0.14%)</title><rect x="1188.3" y="117" width="1.6" height="15.0" fill="rgb(228,106,25)" rx="2" ry="2" />
<text  x="1191.27" y="127.5" ></text>
</g>
<g >
<title>generic_perform_write (1,848,240 samples, 0.27%)</title><rect x="1182.9" y="149" width="3.2" height="15.0" fill="rgb(236,146,35)" rx="2" ry="2" />
<text  x="1185.88" y="159.5" ></text>
</g>
<g >
<title>vma_alloc_folio (656,615 samples, 0.10%)</title><rect x="342.3" y="165" width="1.2" height="15.0" fill="rgb(245,187,44)" rx="2" ry="2" />
<text  x="345.31" y="175.5" ></text>
</g>
<g >
<title>vfs_write (1,848,240 samples, 0.27%)</title><rect x="1182.9" y="181" width="3.2" height="15.0" fill="rgb(250,209,50)" rx="2" ry="2" />
<text  x="1185.88" y="191.5" ></text>
</g>
<g >
<title>ksys_write (1,848,240 samples, 0.27%)</title><rect x="1182.9" y="197" width="3.2" height="15.0" fill="rgb(205,4,1)" rx="2" ry="2" />
<text  x="1185.88" y="207.5" ></text>
</g>
<g >
<title>handle_mm_fault (642,308 samples, 0.10%)</title><rect x="1181.8" y="181" width="1.1" height="15.0" fill="rgb(234,135,32)" rx="2" ry="2" />
<text  x="1184.76" y="191.5" ></text>
</g>
<g >
<title>all (675,924,301 samples, 100%)</title><rect x="10.0" y="293" width="1180.0" height="15.0" fill="rgb(213,39,9)" rx="2" ry="2" />
<text  x="13.00" y="303.5" ></text>
</g>
<g >
<title>PredictorAdd4_C (1,847,144 samples, 0.27%)</title><rect x="326.2" y="261" width="3.2" height="15.0" fill="rgb(246,193,46)" rx="2" ry="2" />
<text  x="329.19" y="271.5" ></text>
</g>
<g >
<title>VP8LAddGreenToBlueAndRed_C (39,676,442 samples, 5.87%)</title><rect x="520.1" y="245" width="69.3" height="15.0" fill="rgb(222,82,19)" rx="2" ry="2" />
<text  x="523.10" y="255.5" >VP8LAdd..</text>
</g>
<g >
<title>VP8LReadBits (1,847,407 samples, 0.27%)</title><rect x="354.7" y="261" width="3.3" height="15.0" fill="rgb(236,146,35)" rx="2" ry="2" />
<text  x="357.74" y="271.5" ></text>
</g>
<g >
<title>PredictorAdd5_C (3,692,773 samples, 0.55%)</title><rect x="329.4" y="261" width="6.5" height="15.0" fill="rgb(240,163,39)" rx="2" ry="2" />
<text  x="332.41" y="271.5" ></text>
</g>
<g >
<title>mem_cgroup_wb_stats (924,163 samples, 0.14%)</title><rect x="1182.9" y="101" width="1.6" height="15.0" fill="rgb(211,28,6)" rx="2" ry="2" />
<text  x="1185.88" y="111.5" ></text>
</g>
<g >
<title>VP8LTransformColorInverse_C (10,949,298 samples, 1.62%)</title><rect x="637.7" y="245" width="19.2" height="15.0" fill="rgb(236,145,34)" rx="2" ry="2" />
<text  x="640.74" y="255.5" ></text>
</g>
<g >
<title>balance_dirty_pages_ratelimited_flags (924,163 samples, 0.14%)</title><rect x="1182.9" y="133" width="1.6" height="15.0" fill="rgb(207,10,2)" rx="2" ry="2" />
<text  x="1185.88" y="143.5" ></text>
</g>
<g >
<title>setup_arg_pages (313,147 samples, 0.05%)</title><rect x="1186.1" y="149" width="0.6" height="15.0" fill="rgb(222,82,19)" rx="2" ry="2" />
<text  x="1189.11" y="159.5" ></text>
</g>
<g >
<title>VP8LInverseTransform (6,464,790 samples, 0.96%)</title><rect x="343.5" y="261" width="11.2" height="15.0" fill="rgb(234,134,32)" rx="2" ry="2" />
<text  x="346.46" y="271.5" ></text>
</g>
<g >
<title>do_syscall_64 (924,235 samples, 0.14%)</title><rect x="1188.3" y="245" width="1.6" height="15.0" fill="rgb(209,20,4)" rx="2" ry="2" />
<text  x="1191.27" y="255.5" ></text>
</g>
<g >
<title>VP8LConvertBGRAToRGB_C (656,615 samples, 0.10%)</title><rect x="342.3" y="261" width="1.2" height="15.0" fill="rgb(222,78,18)" rx="2" ry="2" />
<text  x="345.31" y="271.5" ></text>
</g>
<g >
<title>__list_del_entry_valid (656,615 samples, 0.10%)</title><rect x="342.3" y="101" width="1.2" height="15.0" fill="rgb(239,158,37)" rx="2" ry="2" />
<text  x="345.31" y="111.5" ></text>
</g>
<g >
<title>PredictorAdd2_C (1,846,728 samples, 0.27%)</title><rect x="319.7" y="261" width="3.3" height="15.0" fill="rgb(209,22,5)" rx="2" ry="2" />
<text  x="322.74" y="271.5" ></text>
</g>
<g >
<title>ShiftBytes (923,912 samples, 0.14%)</title><rect x="518.5" y="245" width="1.6" height="15.0" fill="rgb(216,52,12)" rx="2" ry="2" />
<text  x="521.49" y="255.5" ></text>
</g>
<g >
<title>__x64_sys_exit_group (924,235 samples, 0.14%)</title><rect x="1188.3" y="229" width="1.6" height="15.0" fill="rgb(214,42,10)" rx="2" ry="2" />
<text  x="1191.27" y="239.5" ></text>
</g>
<g >
<title>balance_dirty_pages (924,163 samples, 0.14%)</title><rect x="1182.9" y="117" width="1.6" height="15.0" fill="rgb(247,193,46)" rx="2" ry="2" />
<text  x="1185.88" y="127.5" ></text>
</g>
<g >
<title>asm_exc_page_fault (642,308 samples, 0.10%)</title><rect x="1181.8" y="229" width="1.1" height="15.0" fill="rgb(225,93,22)" rx="2" ry="2" />
<text  x="1184.76" y="239.5" ></text>
</g>
<g >
<title>begin_new_exec (66,708 samples, 0.01%)</title><rect x="1189.9" y="149" width="0.1" height="15.0" fill="rgb(245,184,44)" rx="2" ry="2" />
<text  x="1192.88" y="159.5" ></text>
</g>
<g >
<title>get_page_from_freelist (656,615 samples, 0.10%)</title><rect x="342.3" y="117" width="1.2" height="15.0" fill="rgb(252,218,52)" rx="2" ry="2" />
<text  x="345.31" y="127.5" ></text>
</g>
<g >
<title>ShiftBytes (1,847,474 samples, 0.27%)</title><rect x="1154.4" y="229" width="3.2" height="15.0" fill="rgb(216,52,12)" rx="2" ry="2" />
<text  x="1157.36" y="239.5" ></text>
</g>
<g >
<title>do_user_addr_fault (656,615 samples, 0.10%)</title><rect x="342.3" y="213" width="1.2" height="15.0" fill="rgb(228,108,25)" rx="2" ry="2" />
<text  x="345.31" y="223.5" ></text>
</g>
<g >
<title>__handle_mm_fault (656,615 samples, 0.10%)</title><rect x="342.3" y="181" width="1.2" height="15.0" fill="rgb(207,9,2)" rx="2" ry="2" />
<text  x="345.31" y="191.5" ></text>
</g>
<g >
<title>[unknown] (300,676,311 samples, 44.48%)</title><rect x="656.9" y="245" width="524.9" height="15.0" fill="rgb(210,24,5)" rx="2" ry="2" />
<text  x="659.85" y="255.5" >[unknown]</text>
</g>
<g >
<title>PredictorAdd3_C (1,846,004 samples, 0.27%)</title><rect x="323.0" y="261" width="3.2" height="15.0" fill="rgb(253,222,53)" rx="2" ry="2" />
<text  x="325.96" y="271.5" ></text>
</g>
<g >
<title>load_elf_binary (66,708 samples, 0.01%)</title><rect x="1189.9" y="165" width="0.1" height="15.0" fill="rgb(223,83,20)" rx="2" ry="2" />
<text  x="1192.88" y="175.5" ></text>
</g>
<g >
<title>ProcessRows (924,338 samples, 0.14%)</title><rect x="516.9" y="245" width="1.6" height="15.0" fill="rgb(207,9,2)" rx="2" ry="2" />
<text  x="519.88" y="255.5" ></text>
</g>
<g >
<title>shift_arg_pages (313,147 samples, 0.05%)</title><rect x="1186.1" y="133" width="0.6" height="15.0" fill="rgb(245,187,44)" rx="2" ry="2" />
<text  x="1189.11" y="143.5" ></text>
</g>
<g >
<title>__mmput (924,235 samples, 0.14%)</title><rect x="1188.3" y="181" width="1.6" height="15.0" fill="rgb(249,203,48)" rx="2" ry="2" />
<text  x="1191.27" y="191.5" ></text>
</g>
<g >
<title>PredictorAdd9_C (924,308 samples, 0.14%)</title><rect x="337.5" y="261" width="1.6" height="15.0" fill="rgb(214,44,10)" rx="2" ry="2" />
<text  x="340.47" y="271.5" ></text>
</g>
<g >
<title>bprm_execve (66,708 samples, 0.01%)</title><rect x="1189.9" y="181" width="0.1" height="15.0" fill="rgb(218,61,14)" rx="2" ry="2" />
<text  x="1192.88" y="191.5" ></text>
</g>
<g >
<title>do_syscall_64 (313,147 samples, 0.05%)</title><rect x="1186.1" y="229" width="0.6" height="15.0" fill="rgb(209,20,4)" rx="2" ry="2" />
<text  x="1189.11" y="239.5" ></text>
</g>
<g >
<title>ReadHuffmanCode (1,847,849 samples, 0.27%)</title><rect x="339.1" y="261" width="3.2" height="15.0" fill="rgb(230,116,27)" rx="2" ry="2" />
<text  x="342.09" y="271.5" ></text>
</g>
<g >
<title>free_unref_page_list (924,235 samples, 0.14%)</title><rect x="1188.3" y="101" width="1.6" height="15.0" fill="rgb(221,77,18)" rx="2" ry="2" />
<text  x="1191.27" y="111.5" ></text>
</g>
<g >
<title>DecodeImageStream (922,777 samples, 0.14%)</title><rect x="82.4" y="261" width="1.6" height="15.0" fill="rgb(241,168,40)" rx="2" ry="2" />
<text  x="85.37" y="271.5" ></text>
</g>
</g>
</svg>
