<?xml version="1.0" standalone="no"?>
<!DOCTYPE svg PUBLIC "-//W3C//DTD SVG 1.1//EN" "http://www.w3.org/Graphics/SVG/1.1/DTD/svg11.dtd">
<svg version="1.1" width="1200" height="390" onload="init(evt)" viewBox="0 0 1200 390" xmlns="http://www.w3.org/2000/svg" xmlns:xlink="http://www.w3.org/1999/xlink">
<!-- Flame graph stack visualization. See https://github.com/brendangregg/FlameGraph for latest version, and http://www.brendangregg.com/flamegraphs.html for examples. -->
<!-- NOTES:  -->
<defs>
	<linearGradient id="background" y1="0" y2="1" x1="0" x2="0" >
		<stop stop-color="#eeeeee" offset="5%" />
		<stop stop-color="#eeeeb0" offset="95%" />
	</linearGradient>
</defs>
<style type="text/css">
	text { font-family:Verdana; font-size:12px; fill:rgb(0,0,0); }
	#search, #ignorecase { opacity:0.1; cursor:pointer; }
	#search:hover, #search.show, #ignorecase:hover, #ignorecase.show { opacity:1; }
	#subtitle { text-anchor:middle; font-color:rgb(160,160,160); }
	#title { text-anchor:middle; font-size:17px}
	#unzoom { cursor:pointer; }
	#frames > *:hover { stroke:black; stroke-width:0.5; cursor:pointer; }
	.hide { display:none; }
	.parent { opacity:0.5; }
</style>
<script type="text/ecmascript">
<![CDATA[
	"use strict";
	var details, searchbtn, unzoombtn, matchedtxt, svg, searching, currentSearchTerm, ignorecase, ignorecaseBtn;
	function init(evt) {
		details = document.getElementById("details").firstChild;
		searchbtn = document.getElementById("search");
		ignorecaseBtn = document.getElementById("ignorecase");
		unzoombtn = document.getElementById("unzoom");
		matchedtxt = document.getElementById("matched");
		svg = document.getElementsByTagName("svg")[0];
		searching = 0;
		currentSearchTerm = null;

		// use GET parameters to restore a flamegraphs state.
		var params = get_params();
		if (params.x && params.y)
			zoom(find_group(document.querySelector('[x="' + params.x + '"][y="' + params.y + '"]')));
                if (params.s) search(params.s);
	}

	// event listeners
	window.addEventListener("click", function(e) {
		var target = find_group(e.target);
		if (target) {
			if (target.nodeName == "a") {
				if (e.ctrlKey === false) return;
				e.preventDefault();
			}
			if (target.classList.contains("parent")) unzoom(true);
			zoom(target);
			if (!document.querySelector('.parent')) {
				// we have basically done a clearzoom so clear the url
				var params = get_params();
				if (params.x) delete params.x;
				if (params.y) delete params.y;
				history.replaceState(null, null, parse_params(params));
				unzoombtn.classList.add("hide");
				return;
			}

			// set parameters for zoom state
			var el = target.querySelector("rect");
			if (el && el.attributes && el.attributes.y && el.attributes._orig_x) {
				var params = get_params()
				params.x = el.attributes._orig_x.value;
				params.y = el.attributes.y.value;
				history.replaceState(null, null, parse_params(params));
			}
		}
		else if (e.target.id == "unzoom") clearzoom();
		else if (e.target.id == "search") search_prompt();
		else if (e.target.id == "ignorecase") toggle_ignorecase();
	}, false)

	// mouse-over for info
	// show
	window.addEventListener("mouseover", function(e) {
		var target = find_group(e.target);
		if (target) details.nodeValue = "Function: " + g_to_text(target);
	}, false)

	// clear
	window.addEventListener("mouseout", function(e) {
		var target = find_group(e.target);
		if (target) details.nodeValue = ' ';
	}, false)

	// ctrl-F for search
	// ctrl-I to toggle case-sensitive search
	window.addEventListener("keydown",function (e) {
		if (e.keyCode === 114 || (e.ctrlKey && e.keyCode === 70)) {
			e.preventDefault();
			search_prompt();
		}
		else if (e.ctrlKey && e.keyCode === 73) {
			e.preventDefault();
			toggle_ignorecase();
		}
	}, false)

	// functions
	function get_params() {
		var params = {};
		var paramsarr = window.location.search.substr(1).split('&');
		for (var i = 0; i < paramsarr.length; ++i) {
			var tmp = paramsarr[i].split("=");
			if (!tmp[0] || !tmp[1]) continue;
			params[tmp[0]]  = decodeURIComponent(tmp[1]);
		}
		return params;
	}
	function parse_params(params) {
		var uri = "?";
		for (var key in params) {
			uri += key + '=' + encodeURIComponent(params[key]) + '&';
		}
		if (uri.slice(-1) == "&")
			uri = uri.substring(0, uri.length - 1);
		if (uri == '?')
			uri = window.location.href.split('?')[0];
		return uri;
	}
	function find_child(node, selector) {
		var children = node.querySelectorAll(selector);
		if (children.length) return children[0];
	}
	function find_group(node) {
		var parent = node.parentElement;
		if (!parent) return;
		if (parent.id == "frames") return node;
		return find_group(parent);
	}
	function orig_save(e, attr, val) {
		if (e.attributes["_orig_" + attr] != undefined) return;
		if (e.attributes[attr] == undefined) return;
		if (val == undefined) val = e.attributes[attr].value;
		e.setAttribute("_orig_" + attr, val);
	}
	function orig_load(e, attr) {
		if (e.attributes["_orig_"+attr] == undefined) return;
		e.attributes[attr].value = e.attributes["_orig_" + attr].value;
		e.removeAttribute("_orig_"+attr);
	}
	function g_to_text(e) {
		var text = find_child(e, "title").firstChild.nodeValue;
		return (text)
	}
	function g_to_func(e) {
		var func = g_to_text(e);
		// if there's any manipulation we want to do to the function
		// name before it's searched, do it here before returning.
		return (func);
	}
	function update_text(e) {
		var r = find_child(e, "rect");
		var t = find_child(e, "text");
		var w = parseFloat(r.attributes.width.value) -3;
		var txt = find_child(e, "title").textContent.replace(/\([^(]*\)$/,"");
		t.attributes.x.value = parseFloat(r.attributes.x.value) + 3;

		// Smaller than this size won't fit anything
		if (w < 2 * 12 * 0.59) {
			t.textContent = "";
			return;
		}

		t.textContent = txt;
		var sl = t.getSubStringLength(0, txt.length);
		// check if only whitespace or if we can fit the entire string into width w
		if (/^ *$/.test(txt) || sl < w)
			return;

		// this isn't perfect, but gives a good starting point
		// and avoids calling getSubStringLength too often
		var start = Math.floor((w/sl) * txt.length);
		for (var x = start; x > 0; x = x-2) {
			if (t.getSubStringLength(0, x + 2) <= w) {
				t.textContent = txt.substring(0, x) + "..";
				return;
			}
		}
		t.textContent = "";
	}

	// zoom
	function zoom_reset(e) {
		if (e.attributes != undefined) {
			orig_load(e, "x");
			orig_load(e, "width");
		}
		if (e.childNodes == undefined) return;
		for (var i = 0, c = e.childNodes; i < c.length; i++) {
			zoom_reset(c[i]);
		}
	}
	function zoom_child(e, x, ratio) {
		if (e.attributes != undefined) {
			if (e.attributes.x != undefined) {
				orig_save(e, "x");
				e.attributes.x.value = (parseFloat(e.attributes.x.value) - x - 10) * ratio + 10;
				if (e.tagName == "text")
					e.attributes.x.value = find_child(e.parentNode, "rect[x]").attributes.x.value + 3;
			}
			if (e.attributes.width != undefined) {
				orig_save(e, "width");
				e.attributes.width.value = parseFloat(e.attributes.width.value) * ratio;
			}
		}

		if (e.childNodes == undefined) return;
		for (var i = 0, c = e.childNodes; i < c.length; i++) {
			zoom_child(c[i], x - 10, ratio);
		}
	}
	function zoom_parent(e) {
		if (e.attributes) {
			if (e.attributes.x != undefined) {
				orig_save(e, "x");
				e.attributes.x.value = 10;
			}
			if (e.attributes.width != undefined) {
				orig_save(e, "width");
				e.attributes.width.value = parseInt(svg.width.baseVal.value) - (10 * 2);
			}
		}
		if (e.childNodes == undefined) return;
		for (var i = 0, c = e.childNodes; i < c.length; i++) {
			zoom_parent(c[i]);
		}
	}
	function zoom(node) {
		var attr = find_child(node, "rect").attributes;
		var width = parseFloat(attr.width.value);
		var xmin = parseFloat(attr.x.value);
		var xmax = parseFloat(xmin + width);
		var ymin = parseFloat(attr.y.value);
		var ratio = (svg.width.baseVal.value - 2 * 10) / width;

		// XXX: Workaround for JavaScript float issues (fix me)
		var fudge = 0.0001;

		unzoombtn.classList.remove("hide");

		var el = document.getElementById("frames").children;
		for (var i = 0; i < el.length; i++) {
			var e = el[i];
			var a = find_child(e, "rect").attributes;
			var ex = parseFloat(a.x.value);
			var ew = parseFloat(a.width.value);
			var upstack;
			// Is it an ancestor
			if (0 == 0) {
				upstack = parseFloat(a.y.value) > ymin;
			} else {
				upstack = parseFloat(a.y.value) < ymin;
			}
			if (upstack) {
				// Direct ancestor
				if (ex <= xmin && (ex+ew+fudge) >= xmax) {
					e.classList.add("parent");
					zoom_parent(e);
					update_text(e);
				}
				// not in current path
				else
					e.classList.add("hide");
			}
			// Children maybe
			else {
				// no common path
				if (ex < xmin || ex + fudge >= xmax) {
					e.classList.add("hide");
				}
				else {
					zoom_child(e, xmin, ratio);
					update_text(e);
				}
			}
		}
		search();
	}
	function unzoom(dont_update_text) {
		unzoombtn.classList.add("hide");
		var el = document.getElementById("frames").children;
		for(var i = 0; i < el.length; i++) {
			el[i].classList.remove("parent");
			el[i].classList.remove("hide");
			zoom_reset(el[i]);
			if(!dont_update_text) update_text(el[i]);
		}
		search();
	}
	function clearzoom() {
		unzoom();

		// remove zoom state
		var params = get_params();
		if (params.x) delete params.x;
		if (params.y) delete params.y;
		history.replaceState(null, null, parse_params(params));
	}

	// search
	function toggle_ignorecase() {
		ignorecase = !ignorecase;
		if (ignorecase) {
			ignorecaseBtn.classList.add("show");
		} else {
			ignorecaseBtn.classList.remove("show");
		}
		reset_search();
		search();
	}
	function reset_search() {
		var el = document.querySelectorAll("#frames rect");
		for (var i = 0; i < el.length; i++) {
			orig_load(el[i], "fill")
		}
		var params = get_params();
		delete params.s;
		history.replaceState(null, null, parse_params(params));
	}
	function search_prompt() {
		if (!searching) {
			var term = prompt("Enter a search term (regexp " +
			    "allowed, eg: ^ext4_)"
			    + (ignorecase ? ", ignoring case" : "")
			    + "\nPress Ctrl-i to toggle case sensitivity", "");
			if (term != null) search(term);
		} else {
			reset_search();
			searching = 0;
			currentSearchTerm = null;
			searchbtn.classList.remove("show");
			searchbtn.firstChild.nodeValue = "Search"
			matchedtxt.classList.add("hide");
			matchedtxt.firstChild.nodeValue = ""
		}
	}
	function search(term) {
		if (term) currentSearchTerm = term;

		var re = new RegExp(currentSearchTerm, ignorecase ? 'i' : '');
		var el = document.getElementById("frames").children;
		var matches = new Object();
		var maxwidth = 0;
		for (var i = 0; i < el.length; i++) {
			var e = el[i];
			var func = g_to_func(e);
			var rect = find_child(e, "rect");
			if (func == null || rect == null)
				continue;

			// Save max width. Only works as we have a root frame
			var w = parseFloat(rect.attributes.width.value);
			if (w > maxwidth)
				maxwidth = w;

			if (func.match(re)) {
				// highlight
				var x = parseFloat(rect.attributes.x.value);
				orig_save(rect, "fill");
				rect.attributes.fill.value = "rgb(230,0,230)";

				// remember matches
				if (matches[x] == undefined) {
					matches[x] = w;
				} else {
					if (w > matches[x]) {
						// overwrite with parent
						matches[x] = w;
					}
				}
				searching = 1;
			}
		}
		if (!searching)
			return;
		var params = get_params();
		params.s = currentSearchTerm;
		history.replaceState(null, null, parse_params(params));

		searchbtn.classList.add("show");
		searchbtn.firstChild.nodeValue = "Reset Search";

		// calculate percent matched, excluding vertical overlap
		var count = 0;
		var lastx = -1;
		var lastw = 0;
		var keys = Array();
		for (k in matches) {
			if (matches.hasOwnProperty(k))
				keys.push(k);
		}
		// sort the matched frames by their x location
		// ascending, then width descending
		keys.sort(function(a, b){
			return a - b;
		});
		// Step through frames saving only the biggest bottom-up frames
		// thanks to the sort order. This relies on the tree property
		// where children are always smaller than their parents.
		var fudge = 0.0001;	// JavaScript floating point
		for (var k in keys) {
			var x = parseFloat(keys[k]);
			var w = matches[keys[k]];
			if (x >= lastx + lastw - fudge) {
				count += w;
				lastx = x;
				lastw = w;
			}
		}
		// display matched percent
		matchedtxt.classList.remove("hide");
		var pct = 100 * count / maxwidth;
		if (pct != 100) pct = pct.toFixed(1)
		matchedtxt.firstChild.nodeValue = "Matched: " + pct + "%";
	}
]]>
</script>
<rect x="0.0" y="0" width="1200.0" height="390.0" fill="url(#background)"  />
<text id="title" x="600.00" y="24" >Flame Graph</text>
<text id="details" x="10.00" y="373" > </text>
<text id="unzoom" x="10.00" y="24" class="hide">Reset Zoom</text>
<text id="search" x="1090.00" y="24" >Search</text>
<text id="ignorecase" x="1174.00" y="24" >ic</text>
<text id="matched" x="1090.00" y="373" > </text>
<g id="frames">
<g >
<title>VP8DecodeMB (4,619,729 samples, 0.07%)</title><rect x="114.7" y="309" width="0.8" height="15.0" fill="rgb(208,18,4)" rx="2" ry="2" />
<text  x="117.68" y="319.5" ></text>
</g>
<g >
<title>entry_SYSCALL_64_after_hwframe (1,384,924 samples, 0.02%)</title><rect x="1188.4" y="277" width="0.2" height="15.0" fill="rgb(218,63,15)" rx="2" ry="2" />
<text  x="1191.36" y="287.5" ></text>
</g>
<g >
<title>GetCoeffsFast (924,129 samples, 0.01%)</title><rect x="117.6" y="293" width="0.2" height="15.0" fill="rgb(219,64,15)" rx="2" ry="2" />
<text  x="120.62" y="303.5" ></text>
</g>
<g >
<title>TransformAC3_C (316,304,516 samples, 4.50%)</title><rect x="140.7" y="293" width="53.2" height="15.0" fill="rgb(209,19,4)" rx="2" ry="2" />
<text  x="143.75" y="303.5" >Trans..</text>
</g>
<g >
<title>EmitFancyRGB (924,325 samples, 0.01%)</title><rect x="117.3" y="293" width="0.2" height="15.0" fill="rgb(210,26,6)" rx="2" ry="2" />
<text  x="120.31" y="303.5" ></text>
</g>
<g >
<title>VP8ParseIntraModeRow (923,260 samples, 0.01%)</title><rect x="115.8" y="309" width="0.1" height="15.0" fill="rgb(231,121,29)" rx="2" ry="2" />
<text  x="118.77" y="319.5" ></text>
</g>
<g >
<title>UpsampleRgbLinePair_C (245,054,464 samples, 3.49%)</title><rect x="67.5" y="309" width="41.2" height="15.0" fill="rgb(228,108,26)" rx="2" ry="2" />
<text  x="70.52" y="319.5" >Ups..</text>
</g>
<g >
<title>mod_objcg_state (923,974 samples, 0.01%)</title><rect x="1188.2" y="37" width="0.2" height="15.0" fill="rgb(208,16,3)" rx="2" ry="2" />
<text  x="1191.21" y="47.5" ></text>
</g>
<g >
<title>HFilter16i_C (23,513,815 samples, 0.33%)</title><rect x="33.7" y="309" width="3.9" height="15.0" fill="rgb(241,169,40)" rx="2" ry="2" />
<text  x="36.68" y="319.5" ></text>
</g>
<g >
<title>TM16_C (4,619,572 samples, 0.07%)</title><rect x="139.4" y="293" width="0.7" height="15.0" fill="rgb(211,30,7)" rx="2" ry="2" />
<text  x="142.35" y="303.5" ></text>
</g>
<g >
<title>asm_sysvec_apic_timer_interrupt (1,844,939 samples, 0.03%)</title><rect x="1131.4" y="277" width="0.3" height="15.0" fill="rgb(232,127,30)" rx="2" ry="2" />
<text  x="1134.42" y="287.5" ></text>
</g>
<g >
<title>VP8GetValue (1,846,689 samples, 0.03%)</title><rect x="115.5" y="309" width="0.3" height="15.0" fill="rgb(230,119,28)" rx="2" ry="2" />
<text  x="118.46" y="319.5" ></text>
</g>
<g >
<title>GetLargeValue (38,209,003 samples, 0.54%)</title><rect x="117.8" y="293" width="6.4" height="15.0" fill="rgb(243,175,42)" rx="2" ry="2" />
<text  x="120.77" y="303.5" ></text>
</g>
<g >
<title>DC4_C (5,465,786 samples, 0.08%)</title><rect x="116.2" y="293" width="1.0" height="15.0" fill="rgb(209,18,4)" rx="2" ry="2" />
<text  x="119.23" y="303.5" ></text>
</g>
<g >
<title>ext4_setattr (923,974 samples, 0.01%)</title><rect x="1188.2" y="149" width="0.2" height="15.0" fill="rgb(230,117,28)" rx="2" ry="2" />
<text  x="1191.21" y="159.5" ></text>
</g>
<g >
<title>HE4_C (923,564 samples, 0.01%)</title><rect x="124.5" y="293" width="0.1" height="15.0" fill="rgb(220,70,16)" rx="2" ry="2" />
<text  x="127.49" y="303.5" ></text>
</g>
<g >
<title>ReconstructRow (59,020,519 samples, 0.84%)</title><rect x="129.4" y="293" width="10.0" height="15.0" fill="rgb(225,93,22)" rx="2" ry="2" />
<text  x="132.44" y="303.5" ></text>
</g>
<g >
<title>[unknown] (6,390,250,262 samples, 90.93%)</title><rect x="116.2" y="309" width="1073.0" height="15.0" fill="rgb(210,24,5)" rx="2" ry="2" />
<text  x="119.23" y="319.5" >[unknown]</text>
</g>
<g >
<title>hrtimer_interrupt (921,003 samples, 0.01%)</title><rect x="1131.6" y="229" width="0.1" height="15.0" fill="rgb(228,109,26)" rx="2" ry="2" />
<text  x="1134.57" y="239.5" ></text>
</g>
<g >
<title>try_to_free_buffers (923,974 samples, 0.01%)</title><rect x="1188.2" y="85" width="0.2" height="15.0" fill="rgb(249,206,49)" rx="2" ry="2" />
<text  x="1191.21" y="95.5" ></text>
</g>
<g >
<title>truncate_inode_pages_range (923,974 samples, 0.01%)</title><rect x="1188.2" y="117" width="0.2" height="15.0" fill="rgb(245,187,44)" rx="2" ry="2" />
<text  x="1191.21" y="127.5" ></text>
</g>
<g >
<title>TransformDC_C (162,431,845 samples, 2.31%)</title><rect x="40.1" y="309" width="27.3" height="15.0" fill="rgb(219,65,15)" rx="2" ry="2" />
<text  x="43.09" y="319.5" >T..</text>
</g>
<g >
<title>__memset_avx2_unaligned_erms (924,140 samples, 0.01%)</title><rect x="1188.8" y="293" width="0.1" height="15.0" fill="rgb(223,84,20)" rx="2" ry="2" />
<text  x="1191.75" y="303.5" ></text>
</g>
<g >
<title>__filemap_get_folio (923,874 samples, 0.01%)</title><rect x="1188.4" y="149" width="0.1" height="15.0" fill="rgb(231,120,28)" rx="2" ry="2" />
<text  x="1191.36" y="159.5" ></text>
</g>
<g >
<title>pagecache_get_page (923,874 samples, 0.01%)</title><rect x="1188.4" y="165" width="0.1" height="15.0" fill="rgb(253,221,53)" rx="2" ry="2" />
<text  x="1191.36" y="175.5" ></text>
</g>
<g >
<title>DC8uv_C (923,712 samples, 0.01%)</title><rect x="117.2" y="293" width="0.1" height="15.0" fill="rgb(215,46,11)" rx="2" ry="2" />
<text  x="120.15" y="303.5" ></text>
</g>
<g >
<title>notify_change (923,974 samples, 0.01%)</title><rect x="1188.2" y="165" width="0.2" height="15.0" fill="rgb(237,150,35)" rx="2" ry="2" />
<text  x="1191.21" y="175.5" ></text>
</g>
<g >
<title>path_openat (923,974 samples, 0.01%)</title><rect x="1188.2" y="197" width="0.2" height="15.0" fill="rgb(249,202,48)" rx="2" ry="2" />
<text  x="1191.21" y="207.5" ></text>
</g>
<g >
<title>TransformDC_C (248,388,994 samples, 3.53%)</title><rect x="193.9" y="293" width="41.7" height="15.0" fill="rgb(219,65,15)" rx="2" ry="2" />
<text  x="196.86" y="303.5" >Tra..</text>
</g>
<g >
<title>VP8ParseIntraModeRow (36,883,711 samples, 0.52%)</title><rect x="1152.7" y="293" width="6.2" height="15.0" fill="rgb(231,121,29)" rx="2" ry="2" />
<text  x="1155.75" y="303.5" ></text>
</g>
<g >
<title>TransformOne_C (5,337,152,879 samples, 75.95%)</title><rect x="235.6" y="293" width="896.1" height="15.0" fill="rgb(218,59,14)" rx="2" ry="2" />
<text  x="238.57" y="303.5" >TransformOne_C</text>
</g>
<g >
<title>VFilter16i_C (33,963,322 samples, 0.48%)</title><rect x="108.7" y="309" width="5.7" height="15.0" fill="rgb(251,213,51)" rx="2" ry="2" />
<text  x="111.67" y="319.5" ></text>
</g>
<g >
<title>__x64_sys_openat (923,974 samples, 0.01%)</title><rect x="1188.2" y="245" width="0.2" height="15.0" fill="rgb(251,215,51)" rx="2" ry="2" />
<text  x="1191.21" y="255.5" ></text>
</g>
<g >
<title>FinishRow (924,273 samples, 0.01%)</title><rect x="117.5" y="293" width="0.1" height="15.0" fill="rgb(213,41,9)" rx="2" ry="2" />
<text  x="120.46" y="303.5" ></text>
</g>
<g >
<title>[unknown] (172,526,167 samples, 2.45%)</title><rect x="1159.2" y="293" width="29.0" height="15.0" fill="rgb(210,24,5)" rx="2" ry="2" />
<text  x="1162.24" y="303.5" >[u..</text>
</g>
<g >
<title>GetCoeffsFast (146,741,334 samples, 2.09%)</title><rect x="1160.9" y="277" width="24.7" height="15.0" fill="rgb(219,64,15)" rx="2" ry="2" />
<text  x="1163.93" y="287.5" >G..</text>
</g>
<g >
<title>__filemap_add_folio (923,874 samples, 0.01%)</title><rect x="1188.4" y="117" width="0.1" height="15.0" fill="rgb(229,113,27)" rx="2" ry="2" />
<text  x="1191.36" y="127.5" ></text>
</g>
<g >
<title>VP8LDoFillBitWindow (923,165 samples, 0.01%)</title><rect x="1187.3" y="277" width="0.1" height="15.0" fill="rgb(219,67,16)" rx="2" ry="2" />
<text  x="1190.28" y="287.5" ></text>
</g>
<g >
<title>TransformTwo_C (94,845,609 samples, 1.35%)</title><rect x="1131.7" y="293" width="16.0" height="15.0" fill="rgb(212,36,8)" rx="2" ry="2" />
<text  x="1134.73" y="303.5" ></text>
</g>
<g >
<title>ReadHuffmanCode (924,353 samples, 0.01%)</title><rect x="37.6" y="309" width="0.2" height="15.0" fill="rgb(230,116,27)" rx="2" ry="2" />
<text  x="40.63" y="319.5" ></text>
</g>
<g >
<title>FilterLoop24_C (29,561,214 samples, 0.42%)</title><rect x="21.9" y="309" width="5.0" height="15.0" fill="rgb(243,175,42)" rx="2" ry="2" />
<text  x="24.92" y="319.5" ></text>
</g>
<g >
<title>uw_frame_state_for (4,620,435 samples, 0.07%)</title><rect x="1189.2" y="309" width="0.8" height="15.0" fill="rgb(236,144,34)" rx="2" ry="2" />
<text  x="1192.22" y="319.5" ></text>
</g>
<g >
<title>HU4_C (923,902 samples, 0.01%)</title><rect x="129.0" y="293" width="0.1" height="15.0" fill="rgb(216,54,13)" rx="2" ry="2" />
<text  x="131.98" y="303.5" ></text>
</g>
<g >
<title>ReconstructRow (13,737,723 samples, 0.20%)</title><rect x="37.8" y="309" width="2.3" height="15.0" fill="rgb(225,93,22)" rx="2" ry="2" />
<text  x="40.79" y="319.5" ></text>
</g>
<g >
<title>TransformTwo_C (924,145 samples, 0.01%)</title><rect x="67.4" y="309" width="0.1" height="15.0" fill="rgb(212,36,8)" rx="2" ry="2" />
<text  x="70.37" y="319.5" ></text>
</g>
<g >
<title>do_truncate (923,974 samples, 0.01%)</title><rect x="1188.2" y="181" width="0.2" height="15.0" fill="rgb(216,53,12)" rx="2" ry="2" />
<text  x="1191.21" y="191.5" ></text>
</g>
<g >
<title>filemap_add_folio (923,874 samples, 0.01%)</title><rect x="1188.4" y="133" width="0.1" height="15.0" fill="rgb(207,9,2)" rx="2" ry="2" />
<text  x="1191.36" y="143.5" ></text>
</g>
<g >
<title>DecodeImageData (10,079,813 samples, 0.14%)</title><rect x="1159.2" y="277" width="1.7" height="15.0" fill="rgb(254,229,54)" rx="2" ry="2" />
<text  x="1162.24" y="287.5" ></text>
</g>
<g >
<title>__memmove_avx_unaligned_erms (3,694,510 samples, 0.05%)</title><rect x="1187.6" y="277" width="0.6" height="15.0" fill="rgb(205,0,0)" rx="2" ry="2" />
<text  x="1190.59" y="287.5" ></text>
</g>
<g >
<title>ShiftBytes (1,847,924 samples, 0.03%)</title><rect x="1185.6" y="277" width="0.3" height="15.0" fill="rgb(216,52,12)" rx="2" ry="2" />
<text  x="1188.57" y="287.5" ></text>
</g>
<g >
<title>do_syscall_64 (1,384,924 samples, 0.02%)</title><rect x="1188.4" y="261" width="0.2" height="15.0" fill="rgb(209,20,4)" rx="2" ry="2" />
<text  x="1191.36" y="271.5" ></text>
</g>
<g >
<title>truncate_cleanup_folio (923,974 samples, 0.01%)</title><rect x="1188.2" y="101" width="0.2" height="15.0" fill="rgb(240,165,39)" rx="2" ry="2" />
<text  x="1191.21" y="111.5" ></text>
</g>
<g >
<title>do_syscall_64 (923,974 samples, 0.01%)</title><rect x="1188.2" y="261" width="0.2" height="15.0" fill="rgb(209,20,4)" rx="2" ry="2" />
<text  x="1191.21" y="271.5" ></text>
</g>
<g >
<title>VE4_C (889,218 samples, 0.01%)</title><rect x="1149.8" y="293" width="0.2" height="15.0" fill="rgb(229,114,27)" rx="2" ry="2" />
<text  x="1152.81" y="303.5" ></text>
</g>
<g >
<title>ext4_buffered_write_iter (923,874 samples, 0.01%)</title><rect x="1188.4" y="213" width="0.1" height="15.0" fill="rgb(213,40,9)" rx="2" ry="2" />
<text  x="1191.36" y="223.5" ></text>
</g>
<g >
<title>BuildHuffmanTable (8,312,416 samples, 0.12%)</title><rect x="18.5" y="309" width="1.4" height="15.0" fill="rgb(226,101,24)" rx="2" ry="2" />
<text  x="21.51" y="319.5" ></text>
</g>
<g >
<title>all (7,027,576,478 samples, 100%)</title><rect x="10.0" y="341" width="1180.0" height="15.0" fill="rgb(213,39,9)" rx="2" ry="2" />
<text  x="13.00" y="351.5" ></text>
</g>
<g >
<title>xas_find_conflict (923,874 samples, 0.01%)</title><rect x="1188.4" y="101" width="0.1" height="15.0" fill="rgb(206,8,1)" rx="2" ry="2" />
<text  x="1191.36" y="111.5" ></text>
</g>
<g >
<title>VP8DecodeMB (13,829,750 samples, 0.20%)</title><rect x="1150.4" y="293" width="2.3" height="15.0" fill="rgb(208,18,4)" rx="2" ry="2" />
<text  x="1153.43" y="303.5" ></text>
</g>
<g >
<title>HD4_C (1,800,438 samples, 0.03%)</title><rect x="124.2" y="293" width="0.3" height="15.0" fill="rgb(226,100,23)" rx="2" ry="2" />
<text  x="127.19" y="303.5" ></text>
</g>
<g >
<title>HFilter16_C (21,189,506 samples, 0.30%)</title><rect x="124.6" y="293" width="3.6" height="15.0" fill="rgb(220,69,16)" rx="2" ry="2" />
<text  x="127.64" y="303.5" ></text>
</g>
<g >
<title>HFilter8i_C (4,620,089 samples, 0.07%)</title><rect x="128.2" y="293" width="0.8" height="15.0" fill="rgb(245,186,44)" rx="2" ry="2" />
<text  x="131.20" y="303.5" ></text>
</g>
<g >
<title>decode_webp_nat (7,027,546,284 samples, 100.00%)</title><rect x="10.0" y="325" width="1180.0" height="15.0" fill="rgb(218,61,14)" rx="2" ry="2" />
<text  x="13.00" y="335.5" >decode_webp_nat</text>
</g>
<g >
<title>__sysvec_apic_timer_interrupt (921,003 samples, 0.01%)</title><rect x="1131.6" y="245" width="0.1" height="15.0" fill="rgb(242,173,41)" rx="2" ry="2" />
<text  x="1134.57" y="255.5" ></text>
</g>
<g >
<title>sysvec_apic_timer_interrupt (1,844,939 samples, 0.03%)</title><rect x="1131.4" y="261" width="0.3" height="15.0" fill="rgb(220,69,16)" rx="2" ry="2" />
<text  x="1134.42" y="271.5" ></text>
</g>
<g >
<title>TransformOne_C (8,315,119 samples, 0.12%)</title><rect x="1185.9" y="277" width="1.4" height="15.0" fill="rgb(218,59,14)" rx="2" ry="2" />
<text  x="1188.88" y="287.5" ></text>
</g>
<g >
<title>preempt_count_add (923,936 samples, 0.01%)</title><rect x="1131.4" y="213" width="0.2" height="15.0" fill="rgb(253,222,53)" rx="2" ry="2" />
<text  x="1134.42" y="223.5" ></text>
</g>
<g >
<title>GetCoeffsFast (924,071 samples, 0.01%)</title><rect x="33.5" y="309" width="0.2" height="15.0" fill="rgb(219,64,15)" rx="2" ry="2" />
<text  x="36.53" y="319.5" ></text>
</g>
<g >
<title>TM4_C (3,695,861 samples, 0.05%)</title><rect x="140.1" y="293" width="0.6" height="15.0" fill="rgb(241,165,39)" rx="2" ry="2" />
<text  x="143.13" y="303.5" ></text>
</g>
<g >
<title>TransformOne_C (4,620,435 samples, 0.07%)</title><rect x="1189.2" y="293" width="0.8" height="15.0" fill="rgb(218,59,14)" rx="2" ry="2" />
<text  x="1192.22" y="303.5" ></text>
</g>
<g >
<title>__libc_write (1,384,924 samples, 0.02%)</title><rect x="1188.4" y="293" width="0.2" height="15.0" fill="rgb(238,154,37)" rx="2" ry="2" />
<text  x="1191.36" y="303.5" ></text>
</g>
<g >
<title>VFilter16_C (2,772,450 samples, 0.04%)</title><rect x="1150.0" y="293" width="0.4" height="15.0" fill="rgb(229,113,27)" rx="2" ry="2" />
<text  x="1152.96" y="303.5" ></text>
</g>
<g >
<title>ksys_write (1,384,924 samples, 0.02%)</title><rect x="1188.4" y="245" width="0.2" height="15.0" fill="rgb(205,4,1)" rx="2" ry="2" />
<text  x="1191.36" y="255.5" ></text>
</g>
<g >
<title>do_sys_openat2 (923,974 samples, 0.01%)</title><rect x="1188.2" y="229" width="0.2" height="15.0" fill="rgb(253,221,52)" rx="2" ry="2" />
<text  x="1191.21" y="239.5" ></text>
</g>
<g >
<title>TransformUV_C (12,857,112 samples, 0.18%)</title><rect x="1147.7" y="293" width="2.1" height="15.0" fill="rgb(236,146,34)" rx="2" ry="2" />
<text  x="1150.65" y="303.5" ></text>
</g>
<g >
<title>VR4_C (1,775,186 samples, 0.03%)</title><rect x="1158.9" y="293" width="0.3" height="15.0" fill="rgb(245,187,44)" rx="2" ry="2" />
<text  x="1161.94" y="303.5" ></text>
</g>
<g >
<title>LD4_C (924,237 samples, 0.01%)</title><rect x="129.1" y="293" width="0.2" height="15.0" fill="rgb(250,211,50)" rx="2" ry="2" />
<text  x="132.13" y="303.5" ></text>
</g>
<g >
<title>__irq_exit_rcu (923,936 samples, 0.01%)</title><rect x="1131.4" y="245" width="0.2" height="15.0" fill="rgb(227,101,24)" rx="2" ry="2" />
<text  x="1134.42" y="255.5" ></text>
</g>
<g >
<title>VP8ParseProba (1,847,591 samples, 0.03%)</title><rect x="115.9" y="309" width="0.3" height="15.0" fill="rgb(224,88,21)" rx="2" ry="2" />
<text  x="118.92" y="319.5" ></text>
</g>
<g >
<title>FilterLoop26_C (39,557,819 samples, 0.56%)</title><rect x="26.9" y="309" width="6.6" height="15.0" fill="rgb(230,116,27)" rx="2" ry="2" />
<text  x="29.88" y="319.5" ></text>
</g>
<g >
<title>vfs_write (1,384,924 samples, 0.02%)</title><rect x="1188.4" y="229" width="0.2" height="15.0" fill="rgb(250,209,50)" rx="2" ry="2" />
<text  x="1191.36" y="239.5" ></text>
</g>
<g >
<title>entry_SYSCALL_64_after_hwframe (923,974 samples, 0.01%)</title><rect x="1188.2" y="277" width="0.2" height="15.0" fill="rgb(218,63,15)" rx="2" ry="2" />
<text  x="1191.21" y="287.5" ></text>
</g>
<g >
<title>__softirqentry_text_start (923,936 samples, 0.01%)</title><rect x="1131.4" y="229" width="0.2" height="15.0" fill="rgb(234,135,32)" rx="2" ry="2" />
<text  x="1134.42" y="239.5" ></text>
</g>
<g >
<title>__memmove_avx_unaligned_erms (923,230 samples, 0.01%)</title><rect x="1188.6" y="293" width="0.2" height="15.0" fill="rgb(205,0,0)" rx="2" ry="2" />
<text  x="1191.60" y="303.5" ></text>
</g>
<g >
<title>DecodeImageData (923,311 samples, 0.01%)</title><rect x="19.9" y="309" width="0.2" height="15.0" fill="rgb(254,229,54)" rx="2" ry="2" />
<text  x="22.90" y="319.5" ></text>
</g>
<g >
<title>__libc_open64 (923,974 samples, 0.01%)</title><rect x="1188.2" y="293" width="0.2" height="15.0" fill="rgb(235,140,33)" rx="2" ry="2" />
<text  x="1191.21" y="303.5" ></text>
</g>
<g >
<title>ExtractGreen_C (11,086,595 samples, 0.16%)</title><rect x="20.1" y="309" width="1.8" height="15.0" fill="rgb(234,134,32)" rx="2" ry="2" />
<text  x="23.06" y="319.5" ></text>
</g>
<g >
<title>xas_descend (923,874 samples, 0.01%)</title><rect x="1188.4" y="85" width="0.1" height="15.0" fill="rgb(215,47,11)" rx="2" ry="2" />
<text  x="1191.36" y="95.5" ></text>
</g>
<g >
<title>RD4_C (923,641 samples, 0.01%)</title><rect x="129.3" y="293" width="0.1" height="15.0" fill="rgb(212,32,7)" rx="2" ry="2" />
<text  x="132.29" y="303.5" ></text>
</g>
<g >
<title>generic_perform_write (923,874 samples, 0.01%)</title><rect x="1188.4" y="197" width="0.1" height="15.0" fill="rgb(236,146,35)" rx="2" ry="2" />
<text  x="1191.36" y="207.5" ></text>
</g>
<g >
<title>ext4_da_write_begin (923,874 samples, 0.01%)</title><rect x="1188.4" y="181" width="0.1" height="15.0" fill="rgb(211,32,7)" rx="2" ry="2" />
<text  x="1191.36" y="191.5" ></text>
</g>
<g >
<title>_raw_spin_lock_irqsave (921,003 samples, 0.01%)</title><rect x="1131.6" y="213" width="0.1" height="15.0" fill="rgb(247,195,46)" rx="2" ry="2" />
<text  x="1134.57" y="223.5" ></text>
</g>
<g >
<title>do_filp_open (923,974 samples, 0.01%)</title><rect x="1188.2" y="213" width="0.2" height="15.0" fill="rgb(211,28,6)" rx="2" ry="2" />
<text  x="1191.21" y="223.5" ></text>
</g>
<g >
<title>kmem_cache_free (923,974 samples, 0.01%)</title><rect x="1188.2" y="53" width="0.2" height="15.0" fill="rgb(254,225,53)" rx="2" ry="2" />
<text  x="1191.21" y="63.5" ></text>
</g>
<g >
<title>truncate_pagecache (923,974 samples, 0.01%)</title><rect x="1188.2" y="133" width="0.2" height="15.0" fill="rgb(231,123,29)" rx="2" ry="2" />
<text  x="1191.21" y="143.5" ></text>
</g>
<g >
<title>VFilter8i_C (1,847,843 samples, 0.03%)</title><rect x="114.4" y="309" width="0.3" height="15.0" fill="rgb(205,0,0)" rx="2" ry="2" />
<text  x="117.37" y="319.5" ></text>
</g>
<g >
<title>free_buffer_head (923,974 samples, 0.01%)</title><rect x="1188.2" y="69" width="0.2" height="15.0" fill="rgb(243,177,42)" rx="2" ry="2" />
<text  x="1191.21" y="79.5" ></text>
</g>
<g >
<title>_int_malloc (1,375,558 samples, 0.02%)</title><rect x="1188.9" y="293" width="0.2" height="15.0" fill="rgb(215,47,11)" rx="2" ry="2" />
<text  x="1191.91" y="303.5" ></text>
</g>
<g >
<title>VP8LReadBits (924,302 samples, 0.01%)</title><rect x="1187.4" y="277" width="0.2" height="15.0" fill="rgb(236,146,35)" rx="2" ry="2" />
<text  x="1190.43" y="287.5" ></text>
</g>
</g>
</svg>
