<?xml version="1.0" standalone="no"?>
<!DOCTYPE svg PUBLIC "-//W3C//DTD SVG 1.1//EN" "http://www.w3.org/Graphics/SVG/1.1/DTD/svg11.dtd">
<svg version="1.1" width="1200" height="390" onload="init(evt)" viewBox="0 0 1200 390" xmlns="http://www.w3.org/2000/svg" xmlns:xlink="http://www.w3.org/1999/xlink">
<!-- Flame graph stack visualization. See https://github.com/brendangregg/FlameGraph for latest version, and http://www.brendangregg.com/flamegraphs.html for examples. -->
<!-- NOTES:  -->
<defs>
	<linearGradient id="background" y1="0" y2="1" x1="0" x2="0" >
		<stop stop-color="#eeeeee" offset="5%" />
		<stop stop-color="#eeeeb0" offset="95%" />
	</linearGradient>
</defs>
<style type="text/css">
	text { font-family:Verdana; font-size:12px; fill:rgb(0,0,0); }
	#search, #ignorecase { opacity:0.1; cursor:pointer; }
	#search:hover, #search.show, #ignorecase:hover, #ignorecase.show { opacity:1; }
	#subtitle { text-anchor:middle; font-color:rgb(160,160,160); }
	#title { text-anchor:middle; font-size:17px}
	#unzoom { cursor:pointer; }
	#frames > *:hover { stroke:black; stroke-width:0.5; cursor:pointer; }
	.hide { display:none; }
	.parent { opacity:0.5; }
</style>
<script type="text/ecmascript">
<![CDATA[
	"use strict";
	var details, searchbtn, unzoombtn, matchedtxt, svg, searching, currentSearchTerm, ignorecase, ignorecaseBtn;
	function init(evt) {
		details = document.getElementById("details").firstChild;
		searchbtn = document.getElementById("search");
		ignorecaseBtn = document.getElementById("ignorecase");
		unzoombtn = document.getElementById("unzoom");
		matchedtxt = document.getElementById("matched");
		svg = document.getElementsByTagName("svg")[0];
		searching = 0;
		currentSearchTerm = null;

		// use GET parameters to restore a flamegraphs state.
		var params = get_params();
		if (params.x && params.y)
			zoom(find_group(document.querySelector('[x="' + params.x + '"][y="' + params.y + '"]')));
                if (params.s) search(params.s);
	}

	// event listeners
	window.addEventListener("click", function(e) {
		var target = find_group(e.target);
		if (target) {
			if (target.nodeName == "a") {
				if (e.ctrlKey === false) return;
				e.preventDefault();
			}
			if (target.classList.contains("parent")) unzoom(true);
			zoom(target);
			if (!document.querySelector('.parent')) {
				// we have basically done a clearzoom so clear the url
				var params = get_params();
				if (params.x) delete params.x;
				if (params.y) delete params.y;
				history.replaceState(null, null, parse_params(params));
				unzoombtn.classList.add("hide");
				return;
			}

			// set parameters for zoom state
			var el = target.querySelector("rect");
			if (el && el.attributes && el.attributes.y && el.attributes._orig_x) {
				var params = get_params()
				params.x = el.attributes._orig_x.value;
				params.y = el.attributes.y.value;
				history.replaceState(null, null, parse_params(params));
			}
		}
		else if (e.target.id == "unzoom") clearzoom();
		else if (e.target.id == "search") search_prompt();
		else if (e.target.id == "ignorecase") toggle_ignorecase();
	}, false)

	// mouse-over for info
	// show
	window.addEventListener("mouseover", function(e) {
		var target = find_group(e.target);
		if (target) details.nodeValue = "Function: " + g_to_text(target);
	}, false)

	// clear
	window.addEventListener("mouseout", function(e) {
		var target = find_group(e.target);
		if (target) details.nodeValue = ' ';
	}, false)

	// ctrl-F for search
	// ctrl-I to toggle case-sensitive search
	window.addEventListener("keydown",function (e) {
		if (e.keyCode === 114 || (e.ctrlKey && e.keyCode === 70)) {
			e.preventDefault();
			search_prompt();
		}
		else if (e.ctrlKey && e.keyCode === 73) {
			e.preventDefault();
			toggle_ignorecase();
		}
	}, false)

	// functions
	function get_params() {
		var params = {};
		var paramsarr = window.location.search.substr(1).split('&');
		for (var i = 0; i < paramsarr.length; ++i) {
			var tmp = paramsarr[i].split("=");
			if (!tmp[0] || !tmp[1]) continue;
			params[tmp[0]]  = decodeURIComponent(tmp[1]);
		}
		return params;
	}
	function parse_params(params) {
		var uri = "?";
		for (var key in params) {
			uri += key + '=' + encodeURIComponent(params[key]) + '&';
		}
		if (uri.slice(-1) == "&")
			uri = uri.substring(0, uri.length - 1);
		if (uri == '?')
			uri = window.location.href.split('?')[0];
		return uri;
	}
	function find_child(node, selector) {
		var children = node.querySelectorAll(selector);
		if (children.length) return children[0];
	}
	function find_group(node) {
		var parent = node.parentElement;
		if (!parent) return;
		if (parent.id == "frames") return node;
		return find_group(parent);
	}
	function orig_save(e, attr, val) {
		if (e.attributes["_orig_" + attr] != undefined) return;
		if (e.attributes[attr] == undefined) return;
		if (val == undefined) val = e.attributes[attr].value;
		e.setAttribute("_orig_" + attr, val);
	}
	function orig_load(e, attr) {
		if (e.attributes["_orig_"+attr] == undefined) return;
		e.attributes[attr].value = e.attributes["_orig_" + attr].value;
		e.removeAttribute("_orig_"+attr);
	}
	function g_to_text(e) {
		var text = find_child(e, "title").firstChild.nodeValue;
		return (text)
	}
	function g_to_func(e) {
		var func = g_to_text(e);
		// if there's any manipulation we want to do to the function
		// name before it's searched, do it here before returning.
		return (func);
	}
	function update_text(e) {
		var r = find_child(e, "rect");
		var t = find_child(e, "text");
		var w = parseFloat(r.attributes.width.value) -3;
		var txt = find_child(e, "title").textContent.replace(/\([^(]*\)$/,"");
		t.attributes.x.value = parseFloat(r.attributes.x.value) + 3;

		// Smaller than this size won't fit anything
		if (w < 2 * 12 * 0.59) {
			t.textContent = "";
			return;
		}

		t.textContent = txt;
		var sl = t.getSubStringLength(0, txt.length);
		// check if only whitespace or if we can fit the entire string into width w
		if (/^ *$/.test(txt) || sl < w)
			return;

		// this isn't perfect, but gives a good starting point
		// and avoids calling getSubStringLength too often
		var start = Math.floor((w/sl) * txt.length);
		for (var x = start; x > 0; x = x-2) {
			if (t.getSubStringLength(0, x + 2) <= w) {
				t.textContent = txt.substring(0, x) + "..";
				return;
			}
		}
		t.textContent = "";
	}

	// zoom
	function zoom_reset(e) {
		if (e.attributes != undefined) {
			orig_load(e, "x");
			orig_load(e, "width");
		}
		if (e.childNodes == undefined) return;
		for (var i = 0, c = e.childNodes; i < c.length; i++) {
			zoom_reset(c[i]);
		}
	}
	function zoom_child(e, x, ratio) {
		if (e.attributes != undefined) {
			if (e.attributes.x != undefined) {
				orig_save(e, "x");
				e.attributes.x.value = (parseFloat(e.attributes.x.value) - x - 10) * ratio + 10;
				if (e.tagName == "text")
					e.attributes.x.value = find_child(e.parentNode, "rect[x]").attributes.x.value + 3;
			}
			if (e.attributes.width != undefined) {
				orig_save(e, "width");
				e.attributes.width.value = parseFloat(e.attributes.width.value) * ratio;
			}
		}

		if (e.childNodes == undefined) return;
		for (var i = 0, c = e.childNodes; i < c.length; i++) {
			zoom_child(c[i], x - 10, ratio);
		}
	}
	function zoom_parent(e) {
		if (e.attributes) {
			if (e.attributes.x != undefined) {
				orig_save(e, "x");
				e.attributes.x.value = 10;
			}
			if (e.attributes.width != undefined) {
				orig_save(e, "width");
				e.attributes.width.value = parseInt(svg.width.baseVal.value) - (10 * 2);
			}
		}
		if (e.childNodes == undefined) return;
		for (var i = 0, c = e.childNodes; i < c.length; i++) {
			zoom_parent(c[i]);
		}
	}
	function zoom(node) {
		var attr = find_child(node, "rect").attributes;
		var width = parseFloat(attr.width.value);
		var xmin = parseFloat(attr.x.value);
		var xmax = parseFloat(xmin + width);
		var ymin = parseFloat(attr.y.value);
		var ratio = (svg.width.baseVal.value - 2 * 10) / width;

		// XXX: Workaround for JavaScript float issues (fix me)
		var fudge = 0.0001;

		unzoombtn.classList.remove("hide");

		var el = document.getElementById("frames").children;
		for (var i = 0; i < el.length; i++) {
			var e = el[i];
			var a = find_child(e, "rect").attributes;
			var ex = parseFloat(a.x.value);
			var ew = parseFloat(a.width.value);
			var upstack;
			// Is it an ancestor
			if (0 == 0) {
				upstack = parseFloat(a.y.value) > ymin;
			} else {
				upstack = parseFloat(a.y.value) < ymin;
			}
			if (upstack) {
				// Direct ancestor
				if (ex <= xmin && (ex+ew+fudge) >= xmax) {
					e.classList.add("parent");
					zoom_parent(e);
					update_text(e);
				}
				// not in current path
				else
					e.classList.add("hide");
			}
			// Children maybe
			else {
				// no common path
				if (ex < xmin || ex + fudge >= xmax) {
					e.classList.add("hide");
				}
				else {
					zoom_child(e, xmin, ratio);
					update_text(e);
				}
			}
		}
		search();
	}
	function unzoom(dont_update_text) {
		unzoombtn.classList.add("hide");
		var el = document.getElementById("frames").children;
		for(var i = 0; i < el.length; i++) {
			el[i].classList.remove("parent");
			el[i].classList.remove("hide");
			zoom_reset(el[i]);
			if(!dont_update_text) update_text(el[i]);
		}
		search();
	}
	function clearzoom() {
		unzoom();

		// remove zoom state
		var params = get_params();
		if (params.x) delete params.x;
		if (params.y) delete params.y;
		history.replaceState(null, null, parse_params(params));
	}

	// search
	function toggle_ignorecase() {
		ignorecase = !ignorecase;
		if (ignorecase) {
			ignorecaseBtn.classList.add("show");
		} else {
			ignorecaseBtn.classList.remove("show");
		}
		reset_search();
		search();
	}
	function reset_search() {
		var el = document.querySelectorAll("#frames rect");
		for (var i = 0; i < el.length; i++) {
			orig_load(el[i], "fill")
		}
		var params = get_params();
		delete params.s;
		history.replaceState(null, null, parse_params(params));
	}
	function search_prompt() {
		if (!searching) {
			var term = prompt("Enter a search term (regexp " +
			    "allowed, eg: ^ext4_)"
			    + (ignorecase ? ", ignoring case" : "")
			    + "\nPress Ctrl-i to toggle case sensitivity", "");
			if (term != null) search(term);
		} else {
			reset_search();
			searching = 0;
			currentSearchTerm = null;
			searchbtn.classList.remove("show");
			searchbtn.firstChild.nodeValue = "Search"
			matchedtxt.classList.add("hide");
			matchedtxt.firstChild.nodeValue = ""
		}
	}
	function search(term) {
		if (term) currentSearchTerm = term;

		var re = new RegExp(currentSearchTerm, ignorecase ? 'i' : '');
		var el = document.getElementById("frames").children;
		var matches = new Object();
		var maxwidth = 0;
		for (var i = 0; i < el.length; i++) {
			var e = el[i];
			var func = g_to_func(e);
			var rect = find_child(e, "rect");
			if (func == null || rect == null)
				continue;

			// Save max width. Only works as we have a root frame
			var w = parseFloat(rect.attributes.width.value);
			if (w > maxwidth)
				maxwidth = w;

			if (func.match(re)) {
				// highlight
				var x = parseFloat(rect.attributes.x.value);
				orig_save(rect, "fill");
				rect.attributes.fill.value = "rgb(230,0,230)";

				// remember matches
				if (matches[x] == undefined) {
					matches[x] = w;
				} else {
					if (w > matches[x]) {
						// overwrite with parent
						matches[x] = w;
					}
				}
				searching = 1;
			}
		}
		if (!searching)
			return;
		var params = get_params();
		params.s = currentSearchTerm;
		history.replaceState(null, null, parse_params(params));

		searchbtn.classList.add("show");
		searchbtn.firstChild.nodeValue = "Reset Search";

		// calculate percent matched, excluding vertical overlap
		var count = 0;
		var lastx = -1;
		var lastw = 0;
		var keys = Array();
		for (k in matches) {
			if (matches.hasOwnProperty(k))
				keys.push(k);
		}
		// sort the matched frames by their x location
		// ascending, then width descending
		keys.sort(function(a, b){
			return a - b;
		});
		// Step through frames saving only the biggest bottom-up frames
		// thanks to the sort order. This relies on the tree property
		// where children are always smaller than their parents.
		var fudge = 0.0001;	// JavaScript floating point
		for (var k in keys) {
			var x = parseFloat(keys[k]);
			var w = matches[keys[k]];
			if (x >= lastx + lastw - fudge) {
				count += w;
				lastx = x;
				lastw = w;
			}
		}
		// display matched percent
		matchedtxt.classList.remove("hide");
		var pct = 100 * count / maxwidth;
		if (pct != 100) pct = pct.toFixed(1)
		matchedtxt.firstChild.nodeValue = "Matched: " + pct + "%";
	}
]]>
</script>
<rect x="0.0" y="0" width="1200.0" height="390.0" fill="url(#background)"  />
<text id="title" x="600.00" y="24" >Flame Graph</text>
<text id="details" x="10.00" y="373" > </text>
<text id="unzoom" x="10.00" y="24" class="hide">Reset Zoom</text>
<text id="search" x="1090.00" y="24" >Search</text>
<text id="ignorecase" x="1174.00" y="24" >ic</text>
<text id="matched" x="1090.00" y="373" > </text>
<g id="frames">
<g >
<title>do_fault (357,880 samples, 0.07%)</title><rect x="1183.6" y="85" width="0.9" height="15.0" fill="rgb(248,200,47)" rx="2" ry="2" />
<text  x="1186.64" y="95.5" ></text>
</g>
<g >
<title>do_execveat_common.isra.0 (469,349 samples, 0.09%)</title><rect x="1183.4" y="245" width="1.1" height="15.0" fill="rgb(231,123,29)" rx="2" ry="2" />
<text  x="1186.38" y="255.5" ></text>
</g>
<g >
<title>__vm_munmap (924,074 samples, 0.19%)</title><rect x="1184.5" y="245" width="2.2" height="15.0" fill="rgb(231,121,28)" rx="2" ry="2" />
<text  x="1187.49" y="255.5" ></text>
</g>
<g >
<title>asm_exc_page_fault (357,880 samples, 0.07%)</title><rect x="1183.6" y="165" width="0.9" height="15.0" fill="rgb(225,93,22)" rx="2" ry="2" />
<text  x="1186.64" y="175.5" ></text>
</g>
<g >
<title>ReadHuffmanCode (3,680,998 samples, 0.74%)</title><rect x="301.7" y="309" width="8.7" height="15.0" fill="rgb(230,116,27)" rx="2" ry="2" />
<text  x="304.70" y="319.5" ></text>
</g>
<g >
<title>ext4_buffered_write_iter (1,848,086 samples, 0.37%)</title><rect x="1179.0" y="213" width="4.4" height="15.0" fill="rgb(213,40,9)" rx="2" ry="2" />
<text  x="1182.01" y="223.5" ></text>
</g>
<g >
<title>balance_dirty_pages_ratelimited_flags (924,061 samples, 0.19%)</title><rect x="1179.0" y="181" width="2.2" height="15.0" fill="rgb(207,10,2)" rx="2" ry="2" />
<text  x="1182.01" y="191.5" ></text>
</g>
<g >
<title>do_mas_munmap (924,074 samples, 0.19%)</title><rect x="1184.5" y="229" width="2.2" height="15.0" fill="rgb(224,90,21)" rx="2" ry="2" />
<text  x="1187.49" y="239.5" ></text>
</g>
<g >
<title>begin_new_exec (111,469 samples, 0.02%)</title><rect x="1183.4" y="197" width="0.2" height="15.0" fill="rgb(245,184,44)" rx="2" ry="2" />
<text  x="1186.38" y="207.5" ></text>
</g>
<g >
<title>call_timer_fn (924,500 samples, 0.19%)</title><rect x="1125.6" y="165" width="2.2" height="15.0" fill="rgb(234,135,32)" rx="2" ry="2" />
<text  x="1128.61" y="175.5" ></text>
</g>
<g >
<title>__handle_mm_fault (389,459 samples, 0.08%)</title><rect x="1124.7" y="197" width="0.9" height="15.0" fill="rgb(207,9,2)" rx="2" ry="2" />
<text  x="1127.69" y="207.5" ></text>
</g>
<g >
<title>asm_exc_page_fault (402,337 samples, 0.08%)</title><rect x="1177.0" y="261" width="0.9" height="15.0" fill="rgb(225,93,22)" rx="2" ry="2" />
<text  x="1179.96" y="271.5" ></text>
</g>
<g >
<title>charge_memcg (402,337 samples, 0.08%)</title><rect x="1177.0" y="165" width="0.9" height="15.0" fill="rgb(242,170,40)" rx="2" ry="2" />
<text  x="1179.96" y="175.5" ></text>
</g>
<g >
<title>asm_exc_page_fault (389,459 samples, 0.08%)</title><rect x="1124.7" y="261" width="0.9" height="15.0" fill="rgb(225,93,22)" rx="2" ry="2" />
<text  x="1127.69" y="271.5" ></text>
</g>
<g >
<title>ShiftBytes (2,771,041 samples, 0.56%)</title><rect x="1132.2" y="277" width="6.5" height="15.0" fill="rgb(216,52,12)" rx="2" ry="2" />
<text  x="1135.17" y="287.5" ></text>
</g>
<g >
<title>PredictorAdd5_SSE2 (10,159,981 samples, 2.04%)</title><rect x="238.7" y="309" width="24.0" height="15.0" fill="rgb(232,125,29)" rx="2" ry="2" />
<text  x="241.69" y="319.5" >P..</text>
</g>
<g >
<title>mem_cgroup_css_rstat_flush (924,061 samples, 0.19%)</title><rect x="1179.0" y="85" width="2.2" height="15.0" fill="rgb(253,222,53)" rx="2" ry="2" />
<text  x="1182.01" y="95.5" ></text>
</g>
<g >
<title>mem_cgroup_wb_stats (924,061 samples, 0.19%)</title><rect x="1179.0" y="149" width="2.2" height="15.0" fill="rgb(211,28,6)" rx="2" ry="2" />
<text  x="1182.01" y="159.5" ></text>
</g>
<g >
<title>handle_mm_fault (402,337 samples, 0.08%)</title><rect x="1177.0" y="213" width="0.9" height="15.0" fill="rgb(234,135,32)" rx="2" ry="2" />
<text  x="1179.96" y="223.5" ></text>
</g>
<g >
<title>PredictorAdd3_SSE2 (926,367 samples, 0.19%)</title><rect x="236.5" y="309" width="2.2" height="15.0" fill="rgb(245,184,44)" rx="2" ry="2" />
<text  x="239.50" y="319.5" ></text>
</g>
<g >
<title>do_user_addr_fault (454,131 samples, 0.09%)</title><rect x="1188.9" y="261" width="1.0" height="15.0" fill="rgb(228,108,25)" rx="2" ry="2" />
<text  x="1191.86" y="271.5" ></text>
</g>
<g >
<title>asm_sysvec_apic_timer_interrupt (924,500 samples, 0.19%)</title><rect x="1125.6" y="261" width="2.2" height="15.0" fill="rgb(232,127,30)" rx="2" ry="2" />
<text  x="1128.61" y="271.5" ></text>
</g>
<g >
<title>AddGreenToBlueAndRed_SSE2 (6,358,441 samples, 1.27%)</title><rect x="335.5" y="293" width="15.0" height="15.0" fill="rgb(239,160,38)" rx="2" ry="2" />
<text  x="338.50" y="303.5" ></text>
</g>
<g >
<title>perf_iterate_sb (111,469 samples, 0.02%)</title><rect x="1183.4" y="165" width="0.2" height="15.0" fill="rgb(244,179,42)" rx="2" ry="2" />
<text  x="1186.38" y="175.5" ></text>
</g>
<g >
<title>VP8LInverseTransform (9,687,649 samples, 1.94%)</title><rect x="310.4" y="309" width="22.9" height="15.0" fill="rgb(234,134,32)" rx="2" ry="2" />
<text  x="313.40" y="319.5" >V..</text>
</g>
<g >
<title>do_mas_align_munmap (924,074 samples, 0.19%)</title><rect x="1184.5" y="213" width="2.2" height="15.0" fill="rgb(232,126,30)" rx="2" ry="2" />
<text  x="1187.49" y="223.5" ></text>
</g>
<g >
<title>sysmalloc_mmap.constprop.0 (454,131 samples, 0.09%)</title><rect x="1188.9" y="309" width="1.0" height="15.0" fill="rgb(227,101,24)" rx="2" ry="2" />
<text  x="1191.86" y="319.5" ></text>
</g>
<g >
<title>_raw_spin_unlock (454,131 samples, 0.09%)</title><rect x="1188.9" y="197" width="1.0" height="15.0" fill="rgb(223,85,20)" rx="2" ry="2" />
<text  x="1191.86" y="207.5" ></text>
</g>
<g >
<title>__mem_cgroup_charge (402,337 samples, 0.08%)</title><rect x="1177.0" y="181" width="0.9" height="15.0" fill="rgb(218,60,14)" rx="2" ry="2" />
<text  x="1179.96" y="191.5" ></text>
</g>
<g >
<title>do_syscall_64 (1,848,086 samples, 0.37%)</title><rect x="1179.0" y="261" width="4.4" height="15.0" fill="rgb(209,20,4)" rx="2" ry="2" />
<text  x="1182.01" y="271.5" ></text>
</g>
<g >
<title>handle_mm_fault (462,741 samples, 0.09%)</title><rect x="1177.9" y="197" width="1.1" height="15.0" fill="rgb(234,135,32)" rx="2" ry="2" />
<text  x="1180.91" y="207.5" ></text>
</g>
<g >
<title>PredictorAdd2_SSE2 (924,030 samples, 0.19%)</title><rect x="234.3" y="309" width="2.2" height="15.0" fill="rgb(251,214,51)" rx="2" ry="2" />
<text  x="237.31" y="319.5" ></text>
</g>
<g >
<title>mem_cgroup_charge_statistics (402,337 samples, 0.08%)</title><rect x="1177.0" y="149" width="0.9" height="15.0" fill="rgb(232,126,30)" rx="2" ry="2" />
<text  x="1179.96" y="159.5" ></text>
</g>
<g >
<title>__register_frame_info (462,741 samples, 0.09%)</title><rect x="1177.9" y="261" width="1.1" height="15.0" fill="rgb(251,215,51)" rx="2" ry="2" />
<text  x="1180.91" y="271.5" ></text>
</g>
<g >
<title>asm_exc_page_fault (462,741 samples, 0.09%)</title><rect x="1177.9" y="245" width="1.1" height="15.0" fill="rgb(225,93,22)" rx="2" ry="2" />
<text  x="1180.91" y="255.5" ></text>
</g>
<g >
<title>VP8LInverseTransform (1,792,600 samples, 0.36%)</title><rect x="483.2" y="293" width="4.2" height="15.0" fill="rgb(234,134,32)" rx="2" ry="2" />
<text  x="486.16" y="303.5" ></text>
</g>
<g >
<title>exc_page_fault (389,459 samples, 0.08%)</title><rect x="1124.7" y="245" width="0.9" height="15.0" fill="rgb(212,35,8)" rx="2" ry="2" />
<text  x="1127.69" y="255.5" ></text>
</g>
<g >
<title>VP8LConvertBGRAToRGB_C (923,934 samples, 0.19%)</title><rect x="481.0" y="293" width="2.2" height="15.0" fill="rgb(222,78,18)" rx="2" ry="2" />
<text  x="483.98" y="303.5" ></text>
</g>
<g >
<title>unmap_region (924,074 samples, 0.19%)</title><rect x="1184.5" y="197" width="2.2" height="15.0" fill="rgb(219,64,15)" rx="2" ry="2" />
<text  x="1187.49" y="207.5" ></text>
</g>
<g >
<title>entry_SYSCALL_64_after_hwframe (924,074 samples, 0.19%)</title><rect x="1184.5" y="293" width="2.2" height="15.0" fill="rgb(218,63,15)" rx="2" ry="2" />
<text  x="1187.49" y="303.5" ></text>
</g>
<g >
<title>__libc_write (1,848,086 samples, 0.37%)</title><rect x="1179.0" y="293" width="4.4" height="15.0" fill="rgb(238,154,37)" rx="2" ry="2" />
<text  x="1182.01" y="303.5" ></text>
</g>
<g >
<title>[unknown] (292,048,360 samples, 58.52%)</title><rect x="487.4" y="293" width="690.5" height="15.0" fill="rgb(210,24,5)" rx="2" ry="2" />
<text  x="490.40" y="303.5" >[unknown]</text>
</g>
<g >
<title>__handle_mm_fault (402,337 samples, 0.08%)</title><rect x="1177.0" y="197" width="0.9" height="15.0" fill="rgb(207,9,2)" rx="2" ry="2" />
<text  x="1179.96" y="207.5" ></text>
</g>
<g >
<title>cgroup_rstat_flush_irqsafe (924,061 samples, 0.19%)</title><rect x="1179.0" y="117" width="2.2" height="15.0" fill="rgb(227,103,24)" rx="2" ry="2" />
<text  x="1182.01" y="127.5" ></text>
</g>
<g >
<title>__alloc_pages (389,459 samples, 0.08%)</title><rect x="1124.7" y="149" width="0.9" height="15.0" fill="rgb(233,129,30)" rx="2" ry="2" />
<text  x="1127.69" y="159.5" ></text>
</g>
<g >
<title>__handle_mm_fault (454,131 samples, 0.09%)</title><rect x="1188.9" y="229" width="1.0" height="15.0" fill="rgb(207,9,2)" rx="2" ry="2" />
<text  x="1191.86" y="239.5" ></text>
</g>
<g >
<title>do_syscall_64 (924,074 samples, 0.19%)</title><rect x="1184.5" y="277" width="2.2" height="15.0" fill="rgb(209,20,4)" rx="2" ry="2" />
<text  x="1187.49" y="287.5" ></text>
</g>
<g >
<title>[unknown] (359,074,632 samples, 71.95%)</title><rect x="335.5" y="309" width="849.0" height="15.0" fill="rgb(210,24,5)" rx="2" ry="2" />
<text  x="338.50" y="319.5" >[unknown]</text>
</g>
<g >
<title>__folio_alloc (389,459 samples, 0.08%)</title><rect x="1124.7" y="165" width="0.9" height="15.0" fill="rgb(224,91,21)" rx="2" ry="2" />
<text  x="1127.69" y="175.5" ></text>
</g>
<g >
<title>all (499,072,824 samples, 100%)</title><rect x="10.0" y="341" width="1180.0" height="15.0" fill="rgb(213,39,9)" rx="2" ry="2" />
<text  x="13.00" y="351.5" ></text>
</g>
<g >
<title>__libc_start_main_impl (462,741 samples, 0.09%)</title><rect x="1177.9" y="277" width="1.1" height="15.0" fill="rgb(218,63,15)" rx="2" ry="2" />
<text  x="1180.91" y="287.5" ></text>
</g>
<g >
<title>get_page_from_freelist (389,459 samples, 0.08%)</title><rect x="1124.7" y="133" width="0.9" height="15.0" fill="rgb(252,218,52)" rx="2" ry="2" />
<text  x="1127.69" y="143.5" ></text>
</g>
<g >
<title>generic_perform_write (1,848,086 samples, 0.37%)</title><rect x="1179.0" y="197" width="4.4" height="15.0" fill="rgb(236,146,35)" rx="2" ry="2" />
<text  x="1182.01" y="207.5" ></text>
</g>
<g >
<title>PredictorAdd13_SSE2 (39,660,887 samples, 7.95%)</title><rect x="129.6" y="309" width="93.8" height="15.0" fill="rgb(228,108,25)" rx="2" ry="2" />
<text  x="132.61" y="319.5" >PredictorAd..</text>
</g>
<g >
<title>__mem_cgroup_flush_stats (924,061 samples, 0.19%)</title><rect x="1179.0" y="133" width="2.2" height="15.0" fill="rgb(208,16,3)" rx="2" ry="2" />
<text  x="1182.01" y="143.5" ></text>
</g>
<g >
<title>__rcu_read_lock (357,880 samples, 0.07%)</title><rect x="1183.6" y="37" width="0.9" height="15.0" fill="rgb(220,69,16)" rx="2" ry="2" />
<text  x="1186.64" y="47.5" ></text>
</g>
<g >
<title>exc_page_fault (402,337 samples, 0.08%)</title><rect x="1177.0" y="245" width="0.9" height="15.0" fill="rgb(212,35,8)" rx="2" ry="2" />
<text  x="1179.96" y="255.5" ></text>
</g>
<g >
<title>handle_mm_fault (357,880 samples, 0.07%)</title><rect x="1183.6" y="117" width="0.9" height="15.0" fill="rgb(234,135,32)" rx="2" ry="2" />
<text  x="1186.64" y="127.5" ></text>
</g>
<g >
<title>ConvertBGRAToRGB_SSE2 (18,866,760 samples, 3.78%)</title><rect x="350.5" y="293" width="44.6" height="15.0" fill="rgb(238,155,37)" rx="2" ry="2" />
<text  x="353.53" y="303.5" >Conv..</text>
</g>
<g >
<title>preempt_count_sub (454,131 samples, 0.09%)</title><rect x="1188.9" y="181" width="1.0" height="15.0" fill="rgb(240,162,38)" rx="2" ry="2" />
<text  x="1191.86" y="191.5" ></text>
</g>
<g >
<title>ksys_write (1,848,086 samples, 0.37%)</title><rect x="1179.0" y="245" width="4.4" height="15.0" fill="rgb(205,4,1)" rx="2" ry="2" />
<text  x="1182.01" y="255.5" ></text>
</g>
<g >
<title>__mem_cgroup_charge (357,880 samples, 0.07%)</title><rect x="1183.6" y="69" width="0.9" height="15.0" fill="rgb(218,60,14)" rx="2" ry="2" />
<text  x="1186.64" y="79.5" ></text>
</g>
<g >
<title>tlb_batch_pages_flush (924,074 samples, 0.19%)</title><rect x="1184.5" y="165" width="2.2" height="15.0" fill="rgb(234,133,32)" rx="2" ry="2" />
<text  x="1187.49" y="175.5" ></text>
</g>
<g >
<title>fq_flush_timeout (924,500 samples, 0.19%)</title><rect x="1125.6" y="149" width="2.2" height="15.0" fill="rgb(213,40,9)" rx="2" ry="2" />
<text  x="1128.61" y="159.5" ></text>
</g>
<g >
<title>DecodeImageData (270,853,459 samples, 54.27%)</title><rect x="487.4" y="277" width="640.4" height="15.0" fill="rgb(254,229,54)" rx="2" ry="2" />
<text  x="490.40" y="287.5" >DecodeImageData</text>
</g>
<g >
<title>perf_event_comm (111,469 samples, 0.02%)</title><rect x="1183.4" y="181" width="0.2" height="15.0" fill="rgb(222,82,19)" rx="2" ry="2" />
<text  x="1186.38" y="191.5" ></text>
</g>
<g >
<title>load_elf_binary (469,349 samples, 0.09%)</title><rect x="1183.4" y="213" width="1.1" height="15.0" fill="rgb(223,83,20)" rx="2" ry="2" />
<text  x="1186.38" y="223.5" ></text>
</g>
<g >
<title>_int_free (924,718 samples, 0.19%)</title><rect x="1186.7" y="309" width="2.2" height="15.0" fill="rgb(247,196,46)" rx="2" ry="2" />
<text  x="1189.67" y="319.5" ></text>
</g>
<g >
<title>__x64_sys_execve (469,349 samples, 0.09%)</title><rect x="1183.4" y="261" width="1.1" height="15.0" fill="rgb(247,193,46)" rx="2" ry="2" />
<text  x="1186.38" y="271.5" ></text>
</g>
<g >
<title>exc_page_fault (357,880 samples, 0.07%)</title><rect x="1183.6" y="149" width="0.9" height="15.0" fill="rgb(212,35,8)" rx="2" ry="2" />
<text  x="1186.64" y="159.5" ></text>
</g>
<g >
<title>clear_page_rep (389,459 samples, 0.08%)</title><rect x="1124.7" y="117" width="0.9" height="15.0" fill="rgb(253,221,52)" rx="2" ry="2" />
<text  x="1127.69" y="127.5" ></text>
</g>
<g >
<title>release_pages (924,074 samples, 0.19%)</title><rect x="1184.5" y="149" width="2.2" height="15.0" fill="rgb(228,106,25)" rx="2" ry="2" />
<text  x="1187.49" y="159.5" ></text>
</g>
<g >
<title>exc_page_fault (454,131 samples, 0.09%)</title><rect x="1188.9" y="277" width="1.0" height="15.0" fill="rgb(212,35,8)" rx="2" ry="2" />
<text  x="1191.86" y="287.5" ></text>
</g>
<g >
<title>filemap_map_pages (462,741 samples, 0.09%)</title><rect x="1177.9" y="149" width="1.1" height="15.0" fill="rgb(229,112,27)" rx="2" ry="2" />
<text  x="1180.91" y="159.5" ></text>
</g>
<g >
<title>_raw_spin_lock_irqsave (924,500 samples, 0.19%)</title><rect x="1125.6" y="133" width="2.2" height="15.0" fill="rgb(247,195,46)" rx="2" ry="2" />
<text  x="1128.61" y="143.5" ></text>
</g>
<g >
<title>handle_mm_fault (389,459 samples, 0.08%)</title><rect x="1124.7" y="213" width="0.9" height="15.0" fill="rgb(234,135,32)" rx="2" ry="2" />
<text  x="1127.69" y="223.5" ></text>
</g>
<g >
<title>BuildHuffmanTable (36,736,708 samples, 7.36%)</title><rect x="10.0" y="309" width="86.9" height="15.0" fill="rgb(226,101,24)" rx="2" ry="2" />
<text  x="13.00" y="319.5" >BuildHuffm..</text>
</g>
<g >
<title>exc_page_fault (462,741 samples, 0.09%)</title><rect x="1177.9" y="229" width="1.1" height="15.0" fill="rgb(212,35,8)" rx="2" ry="2" />
<text  x="1180.91" y="239.5" ></text>
</g>
<g >
<title>vfs_write (1,848,086 samples, 0.37%)</title><rect x="1179.0" y="229" width="4.4" height="15.0" fill="rgb(250,209,50)" rx="2" ry="2" />
<text  x="1182.01" y="239.5" ></text>
</g>
<g >
<title>entry_SYSCALL_64_after_hwframe (1,848,086 samples, 0.37%)</title><rect x="1179.0" y="277" width="4.4" height="15.0" fill="rgb(218,63,15)" rx="2" ry="2" />
<text  x="1182.01" y="287.5" ></text>
</g>
<g >
<title>do_fault (462,741 samples, 0.09%)</title><rect x="1177.9" y="165" width="1.1" height="15.0" fill="rgb(248,200,47)" rx="2" ry="2" />
<text  x="1180.91" y="175.5" ></text>
</g>
<g >
<title>tlb_finish_mmu (924,074 samples, 0.19%)</title><rect x="1184.5" y="181" width="2.2" height="15.0" fill="rgb(251,212,50)" rx="2" ry="2" />
<text  x="1187.49" y="191.5" ></text>
</g>
<g >
<title>do_user_addr_fault (389,459 samples, 0.08%)</title><rect x="1124.7" y="229" width="0.9" height="15.0" fill="rgb(228,108,25)" rx="2" ry="2" />
<text  x="1127.69" y="239.5" ></text>
</g>
<g >
<title>asm_exc_page_fault (454,131 samples, 0.09%)</title><rect x="1188.9" y="293" width="1.0" height="15.0" fill="rgb(225,93,22)" rx="2" ry="2" />
<text  x="1191.86" y="303.5" ></text>
</g>
<g >
<title>handle_mm_fault (454,131 samples, 0.09%)</title><rect x="1188.9" y="245" width="1.0" height="15.0" fill="rgb(234,135,32)" rx="2" ry="2" />
<text  x="1191.86" y="255.5" ></text>
</g>
<g >
<title>__pte_alloc (454,131 samples, 0.09%)</title><rect x="1188.9" y="213" width="1.0" height="15.0" fill="rgb(218,62,15)" rx="2" ry="2" />
<text  x="1191.86" y="223.5" ></text>
</g>
<g >
<title>__do_global_dtors_aux (462,741 samples, 0.09%)</title><rect x="1177.9" y="293" width="1.1" height="15.0" fill="rgb(245,185,44)" rx="2" ry="2" />
<text  x="1180.91" y="303.5" ></text>
</g>
<g >
<title>PredictorAdd11_SSE2 (1,848,558 samples, 0.37%)</title><rect x="107.8" y="309" width="4.3" height="15.0" fill="rgb(241,168,40)" rx="2" ry="2" />
<text  x="110.78" y="319.5" ></text>
</g>
<g >
<title>PredictorAdd12_SSE2 (7,386,222 samples, 1.48%)</title><rect x="112.1" y="309" width="17.5" height="15.0" fill="rgb(235,138,33)" rx="2" ry="2" />
<text  x="115.15" y="319.5" ></text>
</g>
<g >
<title>vma_alloc_folio (389,459 samples, 0.08%)</title><rect x="1124.7" y="181" width="0.9" height="15.0" fill="rgb(245,187,44)" rx="2" ry="2" />
<text  x="1127.69" y="191.5" ></text>
</g>
<g >
<title>sysvec_apic_timer_interrupt (924,500 samples, 0.19%)</title><rect x="1125.6" y="245" width="2.2" height="15.0" fill="rgb(220,69,16)" rx="2" ry="2" />
<text  x="1128.61" y="255.5" ></text>
</g>
<g >
<title>TransformColorInverse_SSE2 (36,304,361 samples, 7.27%)</title><rect x="395.1" y="293" width="85.9" height="15.0" fill="rgb(253,223,53)" rx="2" ry="2" />
<text  x="398.14" y="303.5" >TransformC..</text>
</g>
<g >
<title>ext4_block_write_begin (924,025 samples, 0.19%)</title><rect x="1181.2" y="165" width="2.2" height="15.0" fill="rgb(206,4,1)" rx="2" ry="2" />
<text  x="1184.19" y="175.5" ></text>
</g>
<g >
<title>cgroup_rstat_flush_locked (924,061 samples, 0.19%)</title><rect x="1179.0" y="101" width="2.2" height="15.0" fill="rgb(209,19,4)" rx="2" ry="2" />
<text  x="1182.01" y="111.5" ></text>
</g>
<g >
<title>__x64_sys_munmap (924,074 samples, 0.19%)</title><rect x="1184.5" y="261" width="2.2" height="15.0" fill="rgb(206,7,1)" rx="2" ry="2" />
<text  x="1187.49" y="271.5" ></text>
</g>
<g >
<title>ext4_da_write_begin (924,025 samples, 0.19%)</title><rect x="1181.2" y="181" width="2.2" height="15.0" fill="rgb(211,32,7)" rx="2" ry="2" />
<text  x="1184.19" y="191.5" ></text>
</g>
<g >
<title>do_user_addr_fault (462,741 samples, 0.09%)</title><rect x="1177.9" y="213" width="1.1" height="15.0" fill="rgb(228,108,25)" rx="2" ry="2" />
<text  x="1180.91" y="223.5" ></text>
</g>
<g >
<title>__memmove_avx_unaligned_erms (1,326,520 samples, 0.27%)</title><rect x="1174.8" y="277" width="3.1" height="15.0" fill="rgb(205,0,0)" rx="2" ry="2" />
<text  x="1177.78" y="287.5" ></text>
</g>
<g >
<title>do_syscall_64 (469,349 samples, 0.09%)</title><rect x="1183.4" y="277" width="1.1" height="15.0" fill="rgb(209,20,4)" rx="2" ry="2" />
<text  x="1186.38" y="287.5" ></text>
</g>
<g >
<title>decode_webp_nat (499,043,613 samples, 99.99%)</title><rect x="10.0" y="325" width="1179.9" height="15.0" fill="rgb(218,61,14)" rx="2" ry="2" />
<text  x="13.00" y="335.5" >decode_webp_nat</text>
</g>
<g >
<title>next_uptodate_page (462,741 samples, 0.09%)</title><rect x="1177.9" y="133" width="1.1" height="15.0" fill="rgb(210,25,6)" rx="2" ry="2" />
<text  x="1180.91" y="143.5" ></text>
</g>
<g >
<title>__handle_mm_fault (357,880 samples, 0.07%)</title><rect x="1183.6" y="101" width="0.9" height="15.0" fill="rgb(207,9,2)" rx="2" ry="2" />
<text  x="1186.64" y="111.5" ></text>
</g>
<g >
<title>PredictorAdd7_SSE2 (16,489,111 samples, 3.30%)</title><rect x="262.7" y="309" width="39.0" height="15.0" fill="rgb(219,65,15)" rx="2" ry="2" />
<text  x="265.71" y="319.5" >Pre..</text>
</g>
<g >
<title>asm_exc_page_fault (392,827 samples, 0.08%)</title><rect x="394.2" y="277" width="0.9" height="15.0" fill="rgb(225,93,22)" rx="2" ry="2" />
<text  x="397.21" y="287.5" ></text>
</g>
<g >
<title>get_mem_cgroup_from_mm (357,880 samples, 0.07%)</title><rect x="1183.6" y="53" width="0.9" height="15.0" fill="rgb(218,61,14)" rx="2" ry="2" />
<text  x="1186.64" y="63.5" ></text>
</g>
<g >
<title>ReadHuffmanCodesHelper (1,848,490 samples, 0.37%)</title><rect x="1127.8" y="277" width="4.4" height="15.0" fill="rgb(209,22,5)" rx="2" ry="2" />
<text  x="1130.80" y="287.5" ></text>
</g>
<g >
<title>__run_timers (924,500 samples, 0.19%)</title><rect x="1125.6" y="181" width="2.2" height="15.0" fill="rgb(206,5,1)" rx="2" ry="2" />
<text  x="1128.61" y="191.5" ></text>
</g>
<g >
<title>__handle_mm_fault (462,741 samples, 0.09%)</title><rect x="1177.9" y="181" width="1.1" height="15.0" fill="rgb(207,9,2)" rx="2" ry="2" />
<text  x="1180.91" y="191.5" ></text>
</g>
<g >
<title>__irq_exit_rcu (924,500 samples, 0.19%)</title><rect x="1125.6" y="229" width="2.2" height="15.0" fill="rgb(227,101,24)" rx="2" ry="2" />
<text  x="1128.61" y="239.5" ></text>
</g>
<g >
<title>padzero (357,880 samples, 0.07%)</title><rect x="1183.6" y="197" width="0.9" height="15.0" fill="rgb(223,84,20)" rx="2" ry="2" />
<text  x="1186.64" y="207.5" ></text>
</g>
<g >
<title>PredictorAdd1_SSE2 (4,622,084 samples, 0.93%)</title><rect x="223.4" y="309" width="10.9" height="15.0" fill="rgb(208,14,3)" rx="2" ry="2" />
<text  x="226.39" y="319.5" ></text>
</g>
<g >
<title>entry_SYSCALL_64_after_hwframe (469,349 samples, 0.09%)</title><rect x="1183.4" y="293" width="1.1" height="15.0" fill="rgb(218,63,15)" rx="2" ry="2" />
<text  x="1186.38" y="303.5" ></text>
</g>
<g >
<title>bprm_execve (469,349 samples, 0.09%)</title><rect x="1183.4" y="229" width="1.1" height="15.0" fill="rgb(218,61,14)" rx="2" ry="2" />
<text  x="1186.38" y="239.5" ></text>
</g>
<g >
<title>do_user_addr_fault (402,337 samples, 0.08%)</title><rect x="1177.0" y="229" width="0.9" height="15.0" fill="rgb(228,108,25)" rx="2" ry="2" />
<text  x="1179.96" y="239.5" ></text>
</g>
<g >
<title>__softirqentry_text_start (924,500 samples, 0.19%)</title><rect x="1125.6" y="213" width="2.2" height="15.0" fill="rgb(234,135,32)" rx="2" ry="2" />
<text  x="1128.61" y="223.5" ></text>
</g>
<g >
<title>DecodeImageData (3,693,219 samples, 0.74%)</title><rect x="96.9" y="309" width="8.7" height="15.0" fill="rgb(254,229,54)" rx="2" ry="2" />
<text  x="99.86" y="319.5" ></text>
</g>
<g >
<title>balance_dirty_pages (924,061 samples, 0.19%)</title><rect x="1179.0" y="165" width="2.2" height="15.0" fill="rgb(247,193,46)" rx="2" ry="2" />
<text  x="1182.01" y="175.5" ></text>
</g>
<g >
<title>__munmap (924,074 samples, 0.19%)</title><rect x="1184.5" y="309" width="2.2" height="15.0" fill="rgb(211,29,7)" rx="2" ry="2" />
<text  x="1187.49" y="319.5" ></text>
</g>
<g >
<title>do_user_addr_fault (357,880 samples, 0.07%)</title><rect x="1183.6" y="133" width="0.9" height="15.0" fill="rgb(228,108,25)" rx="2" ry="2" />
<text  x="1186.64" y="143.5" ></text>
</g>
<g >
<title>ext4_da_get_block_prep (924,025 samples, 0.19%)</title><rect x="1181.2" y="149" width="2.2" height="15.0" fill="rgb(241,168,40)" rx="2" ry="2" />
<text  x="1184.19" y="159.5" ></text>
</g>
<g >
<title>clear_user_rep_good (357,880 samples, 0.07%)</title><rect x="1183.6" y="181" width="0.9" height="15.0" fill="rgb(224,89,21)" rx="2" ry="2" />
<text  x="1186.64" y="191.5" ></text>
</g>
<g >
<title>VP8LDoFillBitWindow (15,248,850 samples, 3.06%)</title><rect x="1138.7" y="277" width="36.1" height="15.0" fill="rgb(219,67,16)" rx="2" ry="2" />
<text  x="1141.72" y="287.5" >VP8..</text>
</g>
<g >
<title>perf_iterate_ctx (111,469 samples, 0.02%)</title><rect x="1183.4" y="149" width="0.2" height="15.0" fill="rgb(205,4,0)" rx="2" ry="2" />
<text  x="1186.38" y="159.5" ></text>
</g>
<g >
<title>WebPSafeMalloc (925,642 samples, 0.19%)</title><rect x="333.3" y="309" width="2.2" height="15.0" fill="rgb(249,203,48)" rx="2" ry="2" />
<text  x="336.31" y="319.5" ></text>
</g>
<g >
<title>DecodeImageStream (924,602 samples, 0.19%)</title><rect x="105.6" y="309" width="2.2" height="15.0" fill="rgb(241,168,40)" rx="2" ry="2" />
<text  x="108.59" y="319.5" ></text>
</g>
<g >
<title>run_timer_softirq (924,500 samples, 0.19%)</title><rect x="1125.6" y="197" width="2.2" height="15.0" fill="rgb(249,206,49)" rx="2" ry="2" />
<text  x="1128.61" y="207.5" ></text>
</g>
</g>
</svg>
