<?xml version="1.0" standalone="no"?>
<!DOCTYPE svg PUBLIC "-//W3C//DTD SVG 1.1//EN" "http://www.w3.org/Graphics/SVG/1.1/DTD/svg11.dtd">
<svg version="1.1" width="1200" height="374" onload="init(evt)" viewBox="0 0 1200 374" xmlns="http://www.w3.org/2000/svg" xmlns:xlink="http://www.w3.org/1999/xlink">
<!-- Flame graph stack visualization. See https://github.com/brendangregg/FlameGraph for latest version, and http://www.brendangregg.com/flamegraphs.html for examples. -->
<!-- NOTES:  -->
<defs>
	<linearGradient id="background" y1="0" y2="1" x1="0" x2="0" >
		<stop stop-color="#eeeeee" offset="5%" />
		<stop stop-color="#eeeeb0" offset="95%" />
	</linearGradient>
</defs>
<style type="text/css">
	text { font-family:Verdana; font-size:12px; fill:rgb(0,0,0); }
	#search, #ignorecase { opacity:0.1; cursor:pointer; }
	#search:hover, #search.show, #ignorecase:hover, #ignorecase.show { opacity:1; }
	#subtitle { text-anchor:middle; font-color:rgb(160,160,160); }
	#title { text-anchor:middle; font-size:17px}
	#unzoom { cursor:pointer; }
	#frames > *:hover { stroke:black; stroke-width:0.5; cursor:pointer; }
	.hide { display:none; }
	.parent { opacity:0.5; }
</style>
<script type="text/ecmascript">
<![CDATA[
	"use strict";
	var details, searchbtn, unzoombtn, matchedtxt, svg, searching, currentSearchTerm, ignorecase, ignorecaseBtn;
	function init(evt) {
		details = document.getElementById("details").firstChild;
		searchbtn = document.getElementById("search");
		ignorecaseBtn = document.getElementById("ignorecase");
		unzoombtn = document.getElementById("unzoom");
		matchedtxt = document.getElementById("matched");
		svg = document.getElementsByTagName("svg")[0];
		searching = 0;
		currentSearchTerm = null;

		// use GET parameters to restore a flamegraphs state.
		var params = get_params();
		if (params.x && params.y)
			zoom(find_group(document.querySelector('[x="' + params.x + '"][y="' + params.y + '"]')));
                if (params.s) search(params.s);
	}

	// event listeners
	window.addEventListener("click", function(e) {
		var target = find_group(e.target);
		if (target) {
			if (target.nodeName == "a") {
				if (e.ctrlKey === false) return;
				e.preventDefault();
			}
			if (target.classList.contains("parent")) unzoom(true);
			zoom(target);
			if (!document.querySelector('.parent')) {
				// we have basically done a clearzoom so clear the url
				var params = get_params();
				if (params.x) delete params.x;
				if (params.y) delete params.y;
				history.replaceState(null, null, parse_params(params));
				unzoombtn.classList.add("hide");
				return;
			}

			// set parameters for zoom state
			var el = target.querySelector("rect");
			if (el && el.attributes && el.attributes.y && el.attributes._orig_x) {
				var params = get_params()
				params.x = el.attributes._orig_x.value;
				params.y = el.attributes.y.value;
				history.replaceState(null, null, parse_params(params));
			}
		}
		else if (e.target.id == "unzoom") clearzoom();
		else if (e.target.id == "search") search_prompt();
		else if (e.target.id == "ignorecase") toggle_ignorecase();
	}, false)

	// mouse-over for info
	// show
	window.addEventListener("mouseover", function(e) {
		var target = find_group(e.target);
		if (target) details.nodeValue = "Function: " + g_to_text(target);
	}, false)

	// clear
	window.addEventListener("mouseout", function(e) {
		var target = find_group(e.target);
		if (target) details.nodeValue = ' ';
	}, false)

	// ctrl-F for search
	// ctrl-I to toggle case-sensitive search
	window.addEventListener("keydown",function (e) {
		if (e.keyCode === 114 || (e.ctrlKey && e.keyCode === 70)) {
			e.preventDefault();
			search_prompt();
		}
		else if (e.ctrlKey && e.keyCode === 73) {
			e.preventDefault();
			toggle_ignorecase();
		}
	}, false)

	// functions
	function get_params() {
		var params = {};
		var paramsarr = window.location.search.substr(1).split('&');
		for (var i = 0; i < paramsarr.length; ++i) {
			var tmp = paramsarr[i].split("=");
			if (!tmp[0] || !tmp[1]) continue;
			params[tmp[0]]  = decodeURIComponent(tmp[1]);
		}
		return params;
	}
	function parse_params(params) {
		var uri = "?";
		for (var key in params) {
			uri += key + '=' + encodeURIComponent(params[key]) + '&';
		}
		if (uri.slice(-1) == "&")
			uri = uri.substring(0, uri.length - 1);
		if (uri == '?')
			uri = window.location.href.split('?')[0];
		return uri;
	}
	function find_child(node, selector) {
		var children = node.querySelectorAll(selector);
		if (children.length) return children[0];
	}
	function find_group(node) {
		var parent = node.parentElement;
		if (!parent) return;
		if (parent.id == "frames") return node;
		return find_group(parent);
	}
	function orig_save(e, attr, val) {
		if (e.attributes["_orig_" + attr] != undefined) return;
		if (e.attributes[attr] == undefined) return;
		if (val == undefined) val = e.attributes[attr].value;
		e.setAttribute("_orig_" + attr, val);
	}
	function orig_load(e, attr) {
		if (e.attributes["_orig_"+attr] == undefined) return;
		e.attributes[attr].value = e.attributes["_orig_" + attr].value;
		e.removeAttribute("_orig_"+attr);
	}
	function g_to_text(e) {
		var text = find_child(e, "title").firstChild.nodeValue;
		return (text)
	}
	function g_to_func(e) {
		var func = g_to_text(e);
		// if there's any manipulation we want to do to the function
		// name before it's searched, do it here before returning.
		return (func);
	}
	function update_text(e) {
		var r = find_child(e, "rect");
		var t = find_child(e, "text");
		var w = parseFloat(r.attributes.width.value) -3;
		var txt = find_child(e, "title").textContent.replace(/\([^(]*\)$/,"");
		t.attributes.x.value = parseFloat(r.attributes.x.value) + 3;

		// Smaller than this size won't fit anything
		if (w < 2 * 12 * 0.59) {
			t.textContent = "";
			return;
		}

		t.textContent = txt;
		var sl = t.getSubStringLength(0, txt.length);
		// check if only whitespace or if we can fit the entire string into width w
		if (/^ *$/.test(txt) || sl < w)
			return;

		// this isn't perfect, but gives a good starting point
		// and avoids calling getSubStringLength too often
		var start = Math.floor((w/sl) * txt.length);
		for (var x = start; x > 0; x = x-2) {
			if (t.getSubStringLength(0, x + 2) <= w) {
				t.textContent = txt.substring(0, x) + "..";
				return;
			}
		}
		t.textContent = "";
	}

	// zoom
	function zoom_reset(e) {
		if (e.attributes != undefined) {
			orig_load(e, "x");
			orig_load(e, "width");
		}
		if (e.childNodes == undefined) return;
		for (var i = 0, c = e.childNodes; i < c.length; i++) {
			zoom_reset(c[i]);
		}
	}
	function zoom_child(e, x, ratio) {
		if (e.attributes != undefined) {
			if (e.attributes.x != undefined) {
				orig_save(e, "x");
				e.attributes.x.value = (parseFloat(e.attributes.x.value) - x - 10) * ratio + 10;
				if (e.tagName == "text")
					e.attributes.x.value = find_child(e.parentNode, "rect[x]").attributes.x.value + 3;
			}
			if (e.attributes.width != undefined) {
				orig_save(e, "width");
				e.attributes.width.value = parseFloat(e.attributes.width.value) * ratio;
			}
		}

		if (e.childNodes == undefined) return;
		for (var i = 0, c = e.childNodes; i < c.length; i++) {
			zoom_child(c[i], x - 10, ratio);
		}
	}
	function zoom_parent(e) {
		if (e.attributes) {
			if (e.attributes.x != undefined) {
				orig_save(e, "x");
				e.attributes.x.value = 10;
			}
			if (e.attributes.width != undefined) {
				orig_save(e, "width");
				e.attributes.width.value = parseInt(svg.width.baseVal.value) - (10 * 2);
			}
		}
		if (e.childNodes == undefined) return;
		for (var i = 0, c = e.childNodes; i < c.length; i++) {
			zoom_parent(c[i]);
		}
	}
	function zoom(node) {
		var attr = find_child(node, "rect").attributes;
		var width = parseFloat(attr.width.value);
		var xmin = parseFloat(attr.x.value);
		var xmax = parseFloat(xmin + width);
		var ymin = parseFloat(attr.y.value);
		var ratio = (svg.width.baseVal.value - 2 * 10) / width;

		// XXX: Workaround for JavaScript float issues (fix me)
		var fudge = 0.0001;

		unzoombtn.classList.remove("hide");

		var el = document.getElementById("frames").children;
		for (var i = 0; i < el.length; i++) {
			var e = el[i];
			var a = find_child(e, "rect").attributes;
			var ex = parseFloat(a.x.value);
			var ew = parseFloat(a.width.value);
			var upstack;
			// Is it an ancestor
			if (0 == 0) {
				upstack = parseFloat(a.y.value) > ymin;
			} else {
				upstack = parseFloat(a.y.value) < ymin;
			}
			if (upstack) {
				// Direct ancestor
				if (ex <= xmin && (ex+ew+fudge) >= xmax) {
					e.classList.add("parent");
					zoom_parent(e);
					update_text(e);
				}
				// not in current path
				else
					e.classList.add("hide");
			}
			// Children maybe
			else {
				// no common path
				if (ex < xmin || ex + fudge >= xmax) {
					e.classList.add("hide");
				}
				else {
					zoom_child(e, xmin, ratio);
					update_text(e);
				}
			}
		}
		search();
	}
	function unzoom(dont_update_text) {
		unzoombtn.classList.add("hide");
		var el = document.getElementById("frames").children;
		for(var i = 0; i < el.length; i++) {
			el[i].classList.remove("parent");
			el[i].classList.remove("hide");
			zoom_reset(el[i]);
			if(!dont_update_text) update_text(el[i]);
		}
		search();
	}
	function clearzoom() {
		unzoom();

		// remove zoom state
		var params = get_params();
		if (params.x) delete params.x;
		if (params.y) delete params.y;
		history.replaceState(null, null, parse_params(params));
	}

	// search
	function toggle_ignorecase() {
		ignorecase = !ignorecase;
		if (ignorecase) {
			ignorecaseBtn.classList.add("show");
		} else {
			ignorecaseBtn.classList.remove("show");
		}
		reset_search();
		search();
	}
	function reset_search() {
		var el = document.querySelectorAll("#frames rect");
		for (var i = 0; i < el.length; i++) {
			orig_load(el[i], "fill")
		}
		var params = get_params();
		delete params.s;
		history.replaceState(null, null, parse_params(params));
	}
	function search_prompt() {
		if (!searching) {
			var term = prompt("Enter a search term (regexp " +
			    "allowed, eg: ^ext4_)"
			    + (ignorecase ? ", ignoring case" : "")
			    + "\nPress Ctrl-i to toggle case sensitivity", "");
			if (term != null) search(term);
		} else {
			reset_search();
			searching = 0;
			currentSearchTerm = null;
			searchbtn.classList.remove("show");
			searchbtn.firstChild.nodeValue = "Search"
			matchedtxt.classList.add("hide");
			matchedtxt.firstChild.nodeValue = ""
		}
	}
	function search(term) {
		if (term) currentSearchTerm = term;

		var re = new RegExp(currentSearchTerm, ignorecase ? 'i' : '');
		var el = document.getElementById("frames").children;
		var matches = new Object();
		var maxwidth = 0;
		for (var i = 0; i < el.length; i++) {
			var e = el[i];
			var func = g_to_func(e);
			var rect = find_child(e, "rect");
			if (func == null || rect == null)
				continue;

			// Save max width. Only works as we have a root frame
			var w = parseFloat(rect.attributes.width.value);
			if (w > maxwidth)
				maxwidth = w;

			if (func.match(re)) {
				// highlight
				var x = parseFloat(rect.attributes.x.value);
				orig_save(rect, "fill");
				rect.attributes.fill.value = "rgb(230,0,230)";

				// remember matches
				if (matches[x] == undefined) {
					matches[x] = w;
				} else {
					if (w > matches[x]) {
						// overwrite with parent
						matches[x] = w;
					}
				}
				searching = 1;
			}
		}
		if (!searching)
			return;
		var params = get_params();
		params.s = currentSearchTerm;
		history.replaceState(null, null, parse_params(params));

		searchbtn.classList.add("show");
		searchbtn.firstChild.nodeValue = "Reset Search";

		// calculate percent matched, excluding vertical overlap
		var count = 0;
		var lastx = -1;
		var lastw = 0;
		var keys = Array();
		for (k in matches) {
			if (matches.hasOwnProperty(k))
				keys.push(k);
		}
		// sort the matched frames by their x location
		// ascending, then width descending
		keys.sort(function(a, b){
			return a - b;
		});
		// Step through frames saving only the biggest bottom-up frames
		// thanks to the sort order. This relies on the tree property
		// where children are always smaller than their parents.
		var fudge = 0.0001;	// JavaScript floating point
		for (var k in keys) {
			var x = parseFloat(keys[k]);
			var w = matches[keys[k]];
			if (x >= lastx + lastw - fudge) {
				count += w;
				lastx = x;
				lastw = w;
			}
		}
		// display matched percent
		matchedtxt.classList.remove("hide");
		var pct = 100 * count / maxwidth;
		if (pct != 100) pct = pct.toFixed(1)
		matchedtxt.firstChild.nodeValue = "Matched: " + pct + "%";
	}
]]>
</script>
<rect x="0.0" y="0" width="1200.0" height="374.0" fill="url(#background)"  />
<text id="title" x="600.00" y="24" >Flame Graph</text>
<text id="details" x="10.00" y="357" > </text>
<text id="unzoom" x="10.00" y="24" class="hide">Reset Zoom</text>
<text id="search" x="1090.00" y="24" >Search</text>
<text id="ignorecase" x="1174.00" y="24" >ic</text>
<text id="matched" x="1090.00" y="357" > </text>
<g id="frames">
<g >
<title>perf_event_mmap (1,326,752 samples, 0.13%)</title><rect x="98.9" y="149" width="1.5" height="15.0" fill="rgb(229,112,26)" rx="2" ry="2" />
<text  x="101.87" y="159.5" ></text>
</g>
<g >
<title>decode_webp_was (1,017,879,714 samples, 99.98%)</title><rect x="10.0" y="309" width="1179.8" height="15.0" fill="rgb(216,54,12)" rx="2" ry="2" />
<text  x="13.00" y="319.5" >decode_webp_was</text>
</g>
<g >
<title>truncate_pagecache (924,568 samples, 0.09%)</title><rect x="96.7" y="117" width="1.1" height="15.0" fill="rgb(231,123,29)" rx="2" ry="2" />
<text  x="99.73" y="127.5" ></text>
</g>
<g >
<title>[unknown] (162,988 samples, 0.02%)</title><rect x="1189.8" y="293" width="0.2" height="15.0" fill="rgb(210,24,5)" rx="2" ry="2" />
<text  x="1192.81" y="303.5" ></text>
</g>
<g >
<title>do_syscall_64 (1,326,752 samples, 0.13%)</title><rect x="98.9" y="261" width="1.5" height="15.0" fill="rgb(209,20,4)" rx="2" ry="2" />
<text  x="101.87" y="271.5" ></text>
</g>
<g >
<title>w2c_decode__webp__wasmsimd_HU4_C (2,770,565 samples, 0.27%)</title><rect x="33.1" y="197" width="3.3" height="15.0" fill="rgb(208,17,4)" rx="2" ry="2" />
<text  x="36.15" y="207.5" ></text>
</g>
<g >
<title>[unknown] (72,980,135 samples, 7.17%)</title><rect x="10.0" y="229" width="84.6" height="15.0" fill="rgb(210,24,5)" rx="2" ry="2" />
<text  x="13.00" y="239.5" >[unknown]</text>
</g>
<g >
<title>do_syscall_64 (162,988 samples, 0.02%)</title><rect x="1189.8" y="261" width="0.2" height="15.0" fill="rgb(209,20,4)" rx="2" ry="2" />
<text  x="1192.81" y="271.5" ></text>
</g>
<g >
<title>truncate_cleanup_folio (924,568 samples, 0.09%)</title><rect x="96.7" y="85" width="1.1" height="15.0" fill="rgb(240,165,39)" rx="2" ry="2" />
<text  x="99.73" y="95.5" ></text>
</g>
<g >
<title>__memset_avx2_unaligned_erms (1,847,843 samples, 0.18%)</title><rect x="159.0" y="293" width="2.1" height="15.0" fill="rgb(223,84,20)" rx="2" ry="2" />
<text  x="161.98" y="303.5" ></text>
</g>
<g >
<title>__install_special_mapping (1,326,752 samples, 0.13%)</title><rect x="98.9" y="165" width="1.5" height="15.0" fill="rgb(212,35,8)" rx="2" ry="2" />
<text  x="101.87" y="175.5" ></text>
</g>
<g >
<title>w2c_decode__webp__wasmsimd_IDecode (163,381,259 samples, 16.05%)</title><rect x="859.3" y="293" width="189.4" height="15.0" fill="rgb(237,147,35)" rx="2" ry="2" />
<text  x="862.29" y="303.5" >w2c_decode__webp__wasmsi..</text>
</g>
<g >
<title>ext4_fill_raw_inode (923,344 samples, 0.09%)</title><rect x="97.8" y="85" width="1.1" height="15.0" fill="rgb(240,165,39)" rx="2" ry="2" />
<text  x="100.80" y="95.5" ></text>
</g>
<g >
<title>map_vdso (1,326,752 samples, 0.13%)</title><rect x="98.9" y="181" width="1.5" height="15.0" fill="rgb(227,103,24)" rx="2" ry="2" />
<text  x="101.87" y="191.5" ></text>
</g>
<g >
<title>generic_perform_write (923,344 samples, 0.09%)</title><rect x="97.8" y="181" width="1.1" height="15.0" fill="rgb(236,146,35)" rx="2" ry="2" />
<text  x="100.80" y="191.5" ></text>
</g>
<g >
<title>exit_to_user_mode_prepare (923,271 samples, 0.09%)</title><rect x="95.7" y="213" width="1.0" height="15.0" fill="rgb(228,108,25)" rx="2" ry="2" />
<text  x="98.66" y="223.5" ></text>
</g>
<g >
<title>notify_change (924,568 samples, 0.09%)</title><rect x="96.7" y="149" width="1.1" height="15.0" fill="rgb(237,150,35)" rx="2" ry="2" />
<text  x="99.73" y="159.5" ></text>
</g>
<g >
<title>w2c_decode__webp__wasmsimd_Transform_SSE2 (37,688,117 samples, 3.70%)</title><rect x="114.2" y="277" width="43.7" height="15.0" fill="rgb(224,91,21)" rx="2" ry="2" />
<text  x="117.22" y="287.5" >w2c_..</text>
</g>
<g >
<title>w2c_decode__webp__wasmsimd_UpsampleRgbLinePair_SSE2 (15,550,834 samples, 1.53%)</title><rect x="1080.7" y="293" width="18.0" height="15.0" fill="rgb(212,33,7)" rx="2" ry="2" />
<text  x="1083.66" y="303.5" ></text>
</g>
<g >
<title>crc32c_pcl_intel_update (923,344 samples, 0.09%)</title><rect x="97.8" y="37" width="1.1" height="15.0" fill="rgb(212,33,7)" rx="2" ry="2" />
<text  x="100.80" y="47.5" ></text>
</g>
<g >
<title>w2c_decode__webp__wasmsimd_TransformUV_C (922,749 samples, 0.09%)</title><rect x="88.2" y="197" width="1.0" height="15.0" fill="rgb(228,108,25)" rx="2" ry="2" />
<text  x="91.17" y="207.5" ></text>
</g>
<g >
<title>w2c_decode__webp__wasmsimd_GetCoeffsAlt (538,200,510 samples, 52.87%)</title><rect x="168.7" y="293" width="623.9" height="15.0" fill="rgb(214,45,10)" rx="2" ry="2" />
<text  x="171.74" y="303.5" >w2c_decode__webp__wasmsimd_GetCoeffsAlt</text>
</g>
<g >
<title>w2c_decode__webp__wasmsimd_GetCoeffsAlt (5,324,475 samples, 0.52%)</title><rect x="24.8" y="197" width="6.2" height="15.0" fill="rgb(214,45,10)" rx="2" ry="2" />
<text  x="27.83" y="207.5" ></text>
</g>
<g >
<title>w2c_decode__webp__wasmsimd_SimpleHFilter16_SSE2 (5,485,026 samples, 0.54%)</title><rect x="1061.5" y="293" width="6.3" height="15.0" fill="rgb(211,29,7)" rx="2" ry="2" />
<text  x="1064.46" y="303.5" ></text>
</g>
<g >
<title>__x64_sys_execve (1,326,752 samples, 0.13%)</title><rect x="98.9" y="245" width="1.5" height="15.0" fill="rgb(247,193,46)" rx="2" ry="2" />
<text  x="101.87" y="255.5" ></text>
</g>
<g >
<title>w2c_decode__webp__wasmsimd_HE16_SSE2 (924,495 samples, 0.09%)</title><rect x="32.1" y="197" width="1.0" height="15.0" fill="rgb(224,89,21)" rx="2" ry="2" />
<text  x="35.07" y="207.5" ></text>
</g>
<g >
<title>ext4_setattr (924,568 samples, 0.09%)</title><rect x="96.7" y="133" width="1.1" height="15.0" fill="rgb(230,117,28)" rx="2" ry="2" />
<text  x="99.73" y="143.5" ></text>
</g>
<g >
<title>__x64_sys_execve (162,988 samples, 0.02%)</title><rect x="1189.8" y="245" width="0.2" height="15.0" fill="rgb(247,193,46)" rx="2" ry="2" />
<text  x="1192.81" y="255.5" ></text>
</g>
<g >
<title>__libc_write (923,344 samples, 0.09%)</title><rect x="97.8" y="277" width="1.1" height="15.0" fill="rgb(238,154,37)" rx="2" ry="2" />
<text  x="100.80" y="287.5" ></text>
</g>
<g >
<title>do_syscall_64 (923,344 samples, 0.09%)</title><rect x="97.8" y="245" width="1.1" height="15.0" fill="rgb(209,20,4)" rx="2" ry="2" />
<text  x="100.80" y="255.5" ></text>
</g>
<g >
<title>w2c_decode__webp__wasmsimd_VP8YuvToRgb32_SSE2 (72,162,889 samples, 7.09%)</title><rect x="1105.1" y="293" width="83.6" height="15.0" fill="rgb(233,129,31)" rx="2" ry="2" />
<text  x="1108.10" y="303.5" >w2c_decod..</text>
</g>
<g >
<title>ext4_bio_write_page (923,271 samples, 0.09%)</title><rect x="95.7" y="69" width="1.0" height="15.0" fill="rgb(228,105,25)" rx="2" ry="2" />
<text  x="98.66" y="79.5" ></text>
</g>
<g >
<title>filemap_fdatawrite_wbc (923,271 samples, 0.09%)</title><rect x="95.7" y="133" width="1.0" height="15.0" fill="rgb(210,25,6)" rx="2" ry="2" />
<text  x="98.66" y="143.5" ></text>
</g>
<g >
<title>__ext4_mark_inode_dirty (923,344 samples, 0.09%)</title><rect x="97.8" y="117" width="1.1" height="15.0" fill="rgb(227,104,25)" rx="2" ry="2" />
<text  x="100.80" y="127.5" ></text>
</g>
<g >
<title>[unknown] (73,903,675 samples, 7.26%)</title><rect x="10.0" y="277" width="85.7" height="15.0" fill="rgb(210,24,5)" rx="2" ry="2" />
<text  x="13.00" y="287.5" >[unknown]</text>
</g>
<g >
<title>[unknown] (72,980,135 samples, 7.17%)</title><rect x="10.0" y="213" width="84.6" height="15.0" fill="rgb(210,24,5)" rx="2" ry="2" />
<text  x="13.00" y="223.5" >[unknown]</text>
</g>
<g >
<title>w2c_decode__webp__wasmsimd_DC16_SSE2 (1,032,962 samples, 0.10%)</title><rect x="161.1" y="293" width="1.2" height="15.0" fill="rgb(213,37,8)" rx="2" ry="2" />
<text  x="164.12" y="303.5" ></text>
</g>
<g >
<title>w2c_decode__webp__wasmsimd_HD4_C (923,403 samples, 0.09%)</title><rect x="31.0" y="197" width="1.1" height="15.0" fill="rgb(218,62,14)" rx="2" ry="2" />
<text  x="34.00" y="207.5" ></text>
</g>
<g >
<title>w2c_decode__webp__wasmsimd_TM4_SSE2 (3,696,997 samples, 0.36%)</title><rect x="76.4" y="197" width="4.3" height="15.0" fill="rgb(224,90,21)" rx="2" ry="2" />
<text  x="79.45" y="207.5" ></text>
</g>
<g >
<title>load_elf_binary (162,988 samples, 0.02%)</title><rect x="1189.8" y="197" width="0.2" height="15.0" fill="rgb(223,83,20)" rx="2" ry="2" />
<text  x="1192.81" y="207.5" ></text>
</g>
<g >
<title>entry_SYSCALL_64_after_hwframe (923,271 samples, 0.09%)</title><rect x="95.7" y="261" width="1.0" height="15.0" fill="rgb(218,63,15)" rx="2" ry="2" />
<text  x="98.66" y="271.5" ></text>
</g>
<g >
<title>ext4_inode_csum_set (923,344 samples, 0.09%)</title><rect x="97.8" y="69" width="1.1" height="15.0" fill="rgb(218,60,14)" rx="2" ry="2" />
<text  x="100.80" y="79.5" ></text>
</g>
<g >
<title>task_work_run (923,271 samples, 0.09%)</title><rect x="95.7" y="197" width="1.0" height="15.0" fill="rgb(209,22,5)" rx="2" ry="2" />
<text  x="98.66" y="207.5" ></text>
</g>
<g >
<title>do_sys_openat2 (924,568 samples, 0.09%)</title><rect x="96.7" y="213" width="1.1" height="15.0" fill="rgb(253,221,52)" rx="2" ry="2" />
<text  x="99.73" y="223.5" ></text>
</g>
<g >
<title>truncate_inode_pages_range (924,568 samples, 0.09%)</title><rect x="96.7" y="101" width="1.1" height="15.0" fill="rgb(245,187,44)" rx="2" ry="2" />
<text  x="99.73" y="111.5" ></text>
</g>
<g >
<title>w2c_decode__webp__wasmsimd_LD4_SSE2 (923,499 samples, 0.09%)</title><rect x="42.7" y="197" width="1.1" height="15.0" fill="rgb(234,135,32)" rx="2" ry="2" />
<text  x="45.72" y="207.5" ></text>
</g>
<g >
<title>bprm_execve (162,988 samples, 0.02%)</title><rect x="1189.8" y="213" width="0.2" height="15.0" fill="rgb(218,61,14)" rx="2" ry="2" />
<text  x="1192.81" y="223.5" ></text>
</g>
<g >
<title>entry_SYSCALL_64_after_hwframe (923,344 samples, 0.09%)</title><rect x="97.8" y="261" width="1.1" height="15.0" fill="rgb(218,63,15)" rx="2" ry="2" />
<text  x="100.80" y="271.5" ></text>
</g>
<g >
<title>w2c_decode__webp__wasmsimd_ReconstructRow (25,406,227 samples, 2.50%)</title><rect x="47.0" y="197" width="29.4" height="15.0" fill="rgb(217,55,13)" rx="2" ry="2" />
<text  x="50.00" y="207.5" >w2..</text>
</g>
<g >
<title>w2c_decode__webp__wasmsimd_TransformWHT_C (1,847,106 samples, 0.18%)</title><rect x="1078.5" y="293" width="2.2" height="15.0" fill="rgb(213,38,9)" rx="2" ry="2" />
<text  x="1081.52" y="303.5" ></text>
</g>
<g >
<title>generic_write_end (923,344 samples, 0.09%)</title><rect x="97.8" y="165" width="1.1" height="15.0" fill="rgb(206,8,1)" rx="2" ry="2" />
<text  x="100.80" y="175.5" ></text>
</g>
<g >
<title>[unknown] (72,980,135 samples, 7.17%)</title><rect x="10.0" y="245" width="84.6" height="15.0" fill="rgb(210,24,5)" rx="2" ry="2" />
<text  x="13.00" y="255.5" >[unknown]</text>
</g>
<g >
<title>ext4_dirty_inode (923,344 samples, 0.09%)</title><rect x="97.8" y="133" width="1.1" height="15.0" fill="rgb(227,102,24)" rx="2" ry="2" />
<text  x="100.80" y="143.5" ></text>
</g>
<g >
<title>vfs_write (923,344 samples, 0.09%)</title><rect x="97.8" y="213" width="1.1" height="15.0" fill="rgb(250,209,50)" rx="2" ry="2" />
<text  x="100.80" y="223.5" ></text>
</g>
<g >
<title>ext4_mark_iloc_dirty (923,344 samples, 0.09%)</title><rect x="97.8" y="101" width="1.1" height="15.0" fill="rgb(226,101,24)" rx="2" ry="2" />
<text  x="100.80" y="111.5" ></text>
</g>
<g >
<title>w2c_decode__webp__wasmsimd_TransformDC_C (5,492,869 samples, 0.54%)</title><rect x="81.8" y="197" width="6.4" height="15.0" fill="rgb(211,27,6)" rx="2" ry="2" />
<text  x="84.80" y="207.5" ></text>
</g>
<g >
<title>w2c_decode__webp__wasmsimd_IDecode (923,540 samples, 0.09%)</title><rect x="94.6" y="261" width="1.1" height="15.0" fill="rgb(237,147,35)" rx="2" ry="2" />
<text  x="97.59" y="271.5" ></text>
</g>
<g >
<title>__fput (923,271 samples, 0.09%)</title><rect x="95.7" y="181" width="1.0" height="15.0" fill="rgb(248,200,47)" rx="2" ry="2" />
<text  x="98.66" y="191.5" ></text>
</g>
<g >
<title>all (1,018,042,702 samples, 100%)</title><rect x="10.0" y="325" width="1180.0" height="15.0" fill="rgb(213,39,9)" rx="2" ry="2" />
<text  x="13.00" y="335.5" ></text>
</g>
<g >
<title>do_filp_open (924,568 samples, 0.09%)</title><rect x="96.7" y="197" width="1.1" height="15.0" fill="rgb(211,28,6)" rx="2" ry="2" />
<text  x="99.73" y="207.5" ></text>
</g>
<g >
<title>w2c_decode__webp__wasmsimd_GetLargeValue (57,572,012 samples, 5.66%)</title><rect x="792.6" y="293" width="66.7" height="15.0" fill="rgb(234,137,32)" rx="2" ry="2" />
<text  x="795.56" y="303.5" >w2c_dec..</text>
</g>
<g >
<title>do_execveat_common.isra.0 (1,326,752 samples, 0.13%)</title><rect x="98.9" y="229" width="1.5" height="15.0" fill="rgb(231,123,29)" rx="2" ry="2" />
<text  x="101.87" y="239.5" ></text>
</g>
<g >
<title>__x64_sys_openat (924,568 samples, 0.09%)</title><rect x="96.7" y="229" width="1.1" height="15.0" fill="rgb(251,215,51)" rx="2" ry="2" />
<text  x="99.73" y="239.5" ></text>
</g>
<g >
<title>ext4_inode_csum (923,344 samples, 0.09%)</title><rect x="97.8" y="53" width="1.1" height="15.0" fill="rgb(226,99,23)" rx="2" ry="2" />
<text  x="100.80" y="63.5" ></text>
</g>
<g >
<title>w2c_decode__webp__wasmsimd_VR4_SSE2 (922,525 samples, 0.09%)</title><rect x="93.5" y="197" width="1.1" height="15.0" fill="rgb(229,112,26)" rx="2" ry="2" />
<text  x="96.52" y="207.5" ></text>
</g>
<g >
<title>do_syscall_64 (923,271 samples, 0.09%)</title><rect x="95.7" y="245" width="1.0" height="15.0" fill="rgb(209,20,4)" rx="2" ry="2" />
<text  x="98.66" y="255.5" ></text>
</g>
<g >
<title>do_syscall_64 (924,568 samples, 0.09%)</title><rect x="96.7" y="245" width="1.1" height="15.0" fill="rgb(209,20,4)" rx="2" ry="2" />
<text  x="99.73" y="255.5" ></text>
</g>
<g >
<title>w2c_decode__webp__wasmsimd_GetCoeffsAlt (6,473,422 samples, 0.64%)</title><rect x="100.4" y="277" width="7.5" height="15.0" fill="rgb(214,45,10)" rx="2" ry="2" />
<text  x="103.41" y="287.5" ></text>
</g>
<g >
<title>w2c_decode__webp__wasmsimd_VP8GetValue (3,694,439 samples, 0.36%)</title><rect x="1098.7" y="293" width="4.3" height="15.0" fill="rgb(222,81,19)" rx="2" ry="2" />
<text  x="1101.69" y="303.5" ></text>
</g>
<g >
<title>do_writepages (923,271 samples, 0.09%)</title><rect x="95.7" y="117" width="1.0" height="15.0" fill="rgb(240,164,39)" rx="2" ry="2" />
<text  x="98.66" y="127.5" ></text>
</g>
<g >
<title>do_execveat_common.isra.0 (162,988 samples, 0.02%)</title><rect x="1189.8" y="229" width="0.2" height="15.0" fill="rgb(231,123,29)" rx="2" ry="2" />
<text  x="1192.81" y="239.5" ></text>
</g>
<g >
<title>begin_new_exec (162,988 samples, 0.02%)</title><rect x="1189.8" y="181" width="0.2" height="15.0" fill="rgb(245,184,44)" rx="2" ry="2" />
<text  x="1192.81" y="191.5" ></text>
</g>
<g >
<title>w2c_decode__webp__wasmsimd_DC4_C (12,797,248 samples, 1.26%)</title><rect x="10.0" y="197" width="14.8" height="15.0" fill="rgb(250,210,50)" rx="2" ry="2" />
<text  x="13.00" y="207.5" ></text>
</g>
<g >
<title>[unknown] (72,980,135 samples, 7.17%)</title><rect x="10.0" y="261" width="84.6" height="15.0" fill="rgb(210,24,5)" rx="2" ry="2" />
<text  x="13.00" y="271.5" >[unknown]</text>
</g>
<g >
<title>load_elf_binary (1,326,752 samples, 0.13%)</title><rect x="98.9" y="197" width="1.5" height="15.0" fill="rgb(223,83,20)" rx="2" ry="2" />
<text  x="101.87" y="207.5" ></text>
</g>
<g >
<title>w2c_decode__webp__wasmsimd_memcpy (923,410 samples, 0.09%)</title><rect x="1188.7" y="293" width="1.1" height="15.0" fill="rgb(249,206,49)" rx="2" ry="2" />
<text  x="1191.74" y="303.5" ></text>
</g>
<g >
<title>__libc_open64 (924,568 samples, 0.09%)</title><rect x="96.7" y="277" width="1.1" height="15.0" fill="rgb(235,140,33)" rx="2" ry="2" />
<text  x="99.73" y="287.5" ></text>
</g>
<g >
<title>entry_SYSCALL_64_after_hwframe (1,326,752 samples, 0.13%)</title><rect x="98.9" y="277" width="1.5" height="15.0" fill="rgb(218,63,15)" rx="2" ry="2" />
<text  x="101.87" y="287.5" ></text>
</g>
<g >
<title>w2c_decode__webp__wasmsimd_ReconstructRow (11,036,333 samples, 1.08%)</title><rect x="1048.7" y="293" width="12.8" height="15.0" fill="rgb(217,55,13)" rx="2" ry="2" />
<text  x="1051.67" y="303.5" ></text>
</g>
<g >
<title>ext4_writepages (923,271 samples, 0.09%)</title><rect x="95.7" y="101" width="1.0" height="15.0" fill="rgb(240,165,39)" rx="2" ry="2" />
<text  x="98.66" y="111.5" ></text>
</g>
<g >
<title>entry_SYSCALL_64_after_hwframe (924,568 samples, 0.09%)</title><rect x="96.7" y="261" width="1.1" height="15.0" fill="rgb(218,63,15)" rx="2" ry="2" />
<text  x="99.73" y="271.5" ></text>
</g>
<g >
<title>block_invalidate_folio (924,568 samples, 0.09%)</title><rect x="96.7" y="69" width="1.1" height="15.0" fill="rgb(210,25,6)" rx="2" ry="2" />
<text  x="99.73" y="79.5" ></text>
</g>
<g >
<title>w2c_decode__webp__wasmsimd_TransformDCUV_C (923,686 samples, 0.09%)</title><rect x="80.7" y="197" width="1.1" height="15.0" fill="rgb(206,6,1)" rx="2" ry="2" />
<text  x="83.73" y="207.5" ></text>
</g>
<g >
<title>w2c_decode__webp__wasmsimd_TransformAC3_C (9,237,039 samples, 0.91%)</title><rect x="1067.8" y="293" width="10.7" height="15.0" fill="rgb(251,211,50)" rx="2" ry="2" />
<text  x="1070.82" y="303.5" ></text>
</g>
<g >
<title>ext4_buffered_write_iter (923,344 samples, 0.09%)</title><rect x="97.8" y="197" width="1.1" height="15.0" fill="rgb(213,40,9)" rx="2" ry="2" />
<text  x="100.80" y="207.5" ></text>
</g>
<g >
<title>__close_nocancel (923,271 samples, 0.09%)</title><rect x="95.7" y="277" width="1.0" height="15.0" fill="rgb(228,109,26)" rx="2" ry="2" />
<text  x="98.66" y="287.5" ></text>
</g>
<g >
<title>w2c_decode__webp__wasmsimd_Transform_SSE2 (2,771,260 samples, 0.27%)</title><rect x="89.2" y="197" width="3.3" height="15.0" fill="rgb(224,91,21)" rx="2" ry="2" />
<text  x="92.24" y="207.5" ></text>
</g>
<g >
<title>bprm_execve (1,326,752 samples, 0.13%)</title><rect x="98.9" y="213" width="1.5" height="15.0" fill="rgb(218,61,14)" rx="2" ry="2" />
<text  x="101.87" y="223.5" ></text>
</g>
<g >
<title>[unknown] (127,607,731 samples, 12.53%)</title><rect x="10.0" y="293" width="147.9" height="15.0" fill="rgb(210,24,5)" rx="2" ry="2" />
<text  x="13.00" y="303.5" >[unknown]</text>
</g>
<g >
<title>__filemap_fdatawrite_range (923,271 samples, 0.09%)</title><rect x="95.7" y="149" width="1.0" height="15.0" fill="rgb(233,129,30)" rx="2" ry="2" />
<text  x="98.66" y="159.5" ></text>
</g>
<g >
<title>w2c_decode__webp__wasmsimd_RD4_SSE2 (2,771,499 samples, 0.27%)</title><rect x="43.8" y="197" width="3.2" height="15.0" fill="rgb(245,187,44)" rx="2" ry="2" />
<text  x="46.79" y="207.5" ></text>
</g>
<g >
<title>w2c_decode__webp__wasmsimd_VP8ParseProba (1,834,367 samples, 0.18%)</title><rect x="1103.0" y="293" width="2.1" height="15.0" fill="rgb(216,51,12)" rx="2" ry="2" />
<text  x="1105.97" y="303.5" ></text>
</g>
<g >
<title>w2c_decode__webp__wasmsimd_VL4_SSE2 (923,622 samples, 0.09%)</title><rect x="92.5" y="197" width="1.0" height="15.0" fill="rgb(218,60,14)" rx="2" ry="2" />
<text  x="95.45" y="207.5" ></text>
</g>
<g >
<title>ksys_write (923,344 samples, 0.09%)</title><rect x="97.8" y="229" width="1.1" height="15.0" fill="rgb(205,4,1)" rx="2" ry="2" />
<text  x="100.80" y="239.5" ></text>
</g>
<g >
<title>ext4_release_file (923,271 samples, 0.09%)</title><rect x="95.7" y="165" width="1.0" height="15.0" fill="rgb(225,92,22)" rx="2" ry="2" />
<text  x="98.66" y="175.5" ></text>
</g>
<g >
<title>entry_SYSCALL_64_after_hwframe (162,988 samples, 0.02%)</title><rect x="1189.8" y="277" width="0.2" height="15.0" fill="rgb(218,63,15)" rx="2" ry="2" />
<text  x="1192.81" y="287.5" ></text>
</g>
<g >
<title>w2c_decode__webp__wasmsimd_ReconstructRow (2,671,011 samples, 0.26%)</title><rect x="111.1" y="277" width="3.1" height="15.0" fill="rgb(217,55,13)" rx="2" ry="2" />
<text  x="114.13" y="287.5" ></text>
</g>
<g >
<title>w2c_decode__webp__wasmsimd_DC8uv_SSE2 (5,542,361 samples, 0.54%)</title><rect x="162.3" y="293" width="6.4" height="15.0" fill="rgb(248,200,48)" rx="2" ry="2" />
<text  x="165.32" y="303.5" ></text>
</g>
<g >
<title>perf_event_exec (162,988 samples, 0.02%)</title><rect x="1189.8" y="165" width="0.2" height="15.0" fill="rgb(218,60,14)" rx="2" ry="2" />
<text  x="1192.81" y="175.5" ></text>
</g>
<g >
<title>__memmove_avx_unaligned_erms (923,593 samples, 0.09%)</title><rect x="157.9" y="293" width="1.1" height="15.0" fill="rgb(205,0,0)" rx="2" ry="2" />
<text  x="160.91" y="303.5" ></text>
</g>
<g >
<title>mpage_submit_page (923,271 samples, 0.09%)</title><rect x="95.7" y="85" width="1.0" height="15.0" fill="rgb(232,127,30)" rx="2" ry="2" />
<text  x="98.66" y="95.5" ></text>
</g>
<g >
<title>syscall_exit_to_user_mode (923,271 samples, 0.09%)</title><rect x="95.7" y="229" width="1.0" height="15.0" fill="rgb(251,211,50)" rx="2" ry="2" />
<text  x="98.66" y="239.5" ></text>
</g>
<g >
<title>__mark_inode_dirty (923,344 samples, 0.09%)</title><rect x="97.8" y="149" width="1.1" height="15.0" fill="rgb(254,227,54)" rx="2" ry="2" />
<text  x="100.80" y="159.5" ></text>
</g>
<g >
<title>path_openat (924,568 samples, 0.09%)</title><rect x="96.7" y="181" width="1.1" height="15.0" fill="rgb(249,202,48)" rx="2" ry="2" />
<text  x="99.73" y="191.5" ></text>
</g>
<g >
<title>do_truncate (924,568 samples, 0.09%)</title><rect x="96.7" y="165" width="1.1" height="15.0" fill="rgb(216,53,12)" rx="2" ry="2" />
<text  x="99.73" y="175.5" ></text>
</g>
<g >
<title>w2c_decode__webp__wasmsimd_IDecode (2,773,571 samples, 0.27%)</title><rect x="107.9" y="277" width="3.2" height="15.0" fill="rgb(237,147,35)" rx="2" ry="2" />
<text  x="110.91" y="287.5" ></text>
</g>
<g >
<title>w2c_decode__webp__wasmsimd_IDecode (5,485,016 samples, 0.54%)</title><rect x="36.4" y="197" width="6.3" height="15.0" fill="rgb(237,147,35)" rx="2" ry="2" />
<text  x="39.36" y="207.5" ></text>
</g>
<g >
<title>perf-exec (162,988 samples, 0.02%)</title><rect x="1189.8" y="309" width="0.2" height="15.0" fill="rgb(231,123,29)" rx="2" ry="2" />
<text  x="1192.81" y="319.5" ></text>
</g>
</g>
</svg>
