<?xml version="1.0" standalone="no"?>
<!DOCTYPE svg PUBLIC "-//W3C//DTD SVG 1.1//EN" "http://www.w3.org/Graphics/SVG/1.1/DTD/svg11.dtd">
<svg version="1.1" width="1200" height="326" onload="init(evt)" viewBox="0 0 1200 326" xmlns="http://www.w3.org/2000/svg" xmlns:xlink="http://www.w3.org/1999/xlink">
<!-- Flame graph stack visualization. See https://github.com/brendangregg/FlameGraph for latest version, and http://www.brendangregg.com/flamegraphs.html for examples. -->
<!-- NOTES:  -->
<defs>
	<linearGradient id="background" y1="0" y2="1" x1="0" x2="0" >
		<stop stop-color="#eeeeee" offset="5%" />
		<stop stop-color="#eeeeb0" offset="95%" />
	</linearGradient>
</defs>
<style type="text/css">
	text { font-family:Verdana; font-size:12px; fill:rgb(0,0,0); }
	#search, #ignorecase { opacity:0.1; cursor:pointer; }
	#search:hover, #search.show, #ignorecase:hover, #ignorecase.show { opacity:1; }
	#subtitle { text-anchor:middle; font-color:rgb(160,160,160); }
	#title { text-anchor:middle; font-size:17px}
	#unzoom { cursor:pointer; }
	#frames > *:hover { stroke:black; stroke-width:0.5; cursor:pointer; }
	.hide { display:none; }
	.parent { opacity:0.5; }
</style>
<script type="text/ecmascript">
<![CDATA[
	"use strict";
	var details, searchbtn, unzoombtn, matchedtxt, svg, searching, currentSearchTerm, ignorecase, ignorecaseBtn;
	function init(evt) {
		details = document.getElementById("details").firstChild;
		searchbtn = document.getElementById("search");
		ignorecaseBtn = document.getElementById("ignorecase");
		unzoombtn = document.getElementById("unzoom");
		matchedtxt = document.getElementById("matched");
		svg = document.getElementsByTagName("svg")[0];
		searching = 0;
		currentSearchTerm = null;

		// use GET parameters to restore a flamegraphs state.
		var params = get_params();
		if (params.x && params.y)
			zoom(find_group(document.querySelector('[x="' + params.x + '"][y="' + params.y + '"]')));
                if (params.s) search(params.s);
	}

	// event listeners
	window.addEventListener("click", function(e) {
		var target = find_group(e.target);
		if (target) {
			if (target.nodeName == "a") {
				if (e.ctrlKey === false) return;
				e.preventDefault();
			}
			if (target.classList.contains("parent")) unzoom(true);
			zoom(target);
			if (!document.querySelector('.parent')) {
				// we have basically done a clearzoom so clear the url
				var params = get_params();
				if (params.x) delete params.x;
				if (params.y) delete params.y;
				history.replaceState(null, null, parse_params(params));
				unzoombtn.classList.add("hide");
				return;
			}

			// set parameters for zoom state
			var el = target.querySelector("rect");
			if (el && el.attributes && el.attributes.y && el.attributes._orig_x) {
				var params = get_params()
				params.x = el.attributes._orig_x.value;
				params.y = el.attributes.y.value;
				history.replaceState(null, null, parse_params(params));
			}
		}
		else if (e.target.id == "unzoom") clearzoom();
		else if (e.target.id == "search") search_prompt();
		else if (e.target.id == "ignorecase") toggle_ignorecase();
	}, false)

	// mouse-over for info
	// show
	window.addEventListener("mouseover", function(e) {
		var target = find_group(e.target);
		if (target) details.nodeValue = "Function: " + g_to_text(target);
	}, false)

	// clear
	window.addEventListener("mouseout", function(e) {
		var target = find_group(e.target);
		if (target) details.nodeValue = ' ';
	}, false)

	// ctrl-F for search
	// ctrl-I to toggle case-sensitive search
	window.addEventListener("keydown",function (e) {
		if (e.keyCode === 114 || (e.ctrlKey && e.keyCode === 70)) {
			e.preventDefault();
			search_prompt();
		}
		else if (e.ctrlKey && e.keyCode === 73) {
			e.preventDefault();
			toggle_ignorecase();
		}
	}, false)

	// functions
	function get_params() {
		var params = {};
		var paramsarr = window.location.search.substr(1).split('&');
		for (var i = 0; i < paramsarr.length; ++i) {
			var tmp = paramsarr[i].split("=");
			if (!tmp[0] || !tmp[1]) continue;
			params[tmp[0]]  = decodeURIComponent(tmp[1]);
		}
		return params;
	}
	function parse_params(params) {
		var uri = "?";
		for (var key in params) {
			uri += key + '=' + encodeURIComponent(params[key]) + '&';
		}
		if (uri.slice(-1) == "&")
			uri = uri.substring(0, uri.length - 1);
		if (uri == '?')
			uri = window.location.href.split('?')[0];
		return uri;
	}
	function find_child(node, selector) {
		var children = node.querySelectorAll(selector);
		if (children.length) return children[0];
	}
	function find_group(node) {
		var parent = node.parentElement;
		if (!parent) return;
		if (parent.id == "frames") return node;
		return find_group(parent);
	}
	function orig_save(e, attr, val) {
		if (e.attributes["_orig_" + attr] != undefined) return;
		if (e.attributes[attr] == undefined) return;
		if (val == undefined) val = e.attributes[attr].value;
		e.setAttribute("_orig_" + attr, val);
	}
	function orig_load(e, attr) {
		if (e.attributes["_orig_"+attr] == undefined) return;
		e.attributes[attr].value = e.attributes["_orig_" + attr].value;
		e.removeAttribute("_orig_"+attr);
	}
	function g_to_text(e) {
		var text = find_child(e, "title").firstChild.nodeValue;
		return (text)
	}
	function g_to_func(e) {
		var func = g_to_text(e);
		// if there's any manipulation we want to do to the function
		// name before it's searched, do it here before returning.
		return (func);
	}
	function update_text(e) {
		var r = find_child(e, "rect");
		var t = find_child(e, "text");
		var w = parseFloat(r.attributes.width.value) -3;
		var txt = find_child(e, "title").textContent.replace(/\([^(]*\)$/,"");
		t.attributes.x.value = parseFloat(r.attributes.x.value) + 3;

		// Smaller than this size won't fit anything
		if (w < 2 * 12 * 0.59) {
			t.textContent = "";
			return;
		}

		t.textContent = txt;
		var sl = t.getSubStringLength(0, txt.length);
		// check if only whitespace or if we can fit the entire string into width w
		if (/^ *$/.test(txt) || sl < w)
			return;

		// this isn't perfect, but gives a good starting point
		// and avoids calling getSubStringLength too often
		var start = Math.floor((w/sl) * txt.length);
		for (var x = start; x > 0; x = x-2) {
			if (t.getSubStringLength(0, x + 2) <= w) {
				t.textContent = txt.substring(0, x) + "..";
				return;
			}
		}
		t.textContent = "";
	}

	// zoom
	function zoom_reset(e) {
		if (e.attributes != undefined) {
			orig_load(e, "x");
			orig_load(e, "width");
		}
		if (e.childNodes == undefined) return;
		for (var i = 0, c = e.childNodes; i < c.length; i++) {
			zoom_reset(c[i]);
		}
	}
	function zoom_child(e, x, ratio) {
		if (e.attributes != undefined) {
			if (e.attributes.x != undefined) {
				orig_save(e, "x");
				e.attributes.x.value = (parseFloat(e.attributes.x.value) - x - 10) * ratio + 10;
				if (e.tagName == "text")
					e.attributes.x.value = find_child(e.parentNode, "rect[x]").attributes.x.value + 3;
			}
			if (e.attributes.width != undefined) {
				orig_save(e, "width");
				e.attributes.width.value = parseFloat(e.attributes.width.value) * ratio;
			}
		}

		if (e.childNodes == undefined) return;
		for (var i = 0, c = e.childNodes; i < c.length; i++) {
			zoom_child(c[i], x - 10, ratio);
		}
	}
	function zoom_parent(e) {
		if (e.attributes) {
			if (e.attributes.x != undefined) {
				orig_save(e, "x");
				e.attributes.x.value = 10;
			}
			if (e.attributes.width != undefined) {
				orig_save(e, "width");
				e.attributes.width.value = parseInt(svg.width.baseVal.value) - (10 * 2);
			}
		}
		if (e.childNodes == undefined) return;
		for (var i = 0, c = e.childNodes; i < c.length; i++) {
			zoom_parent(c[i]);
		}
	}
	function zoom(node) {
		var attr = find_child(node, "rect").attributes;
		var width = parseFloat(attr.width.value);
		var xmin = parseFloat(attr.x.value);
		var xmax = parseFloat(xmin + width);
		var ymin = parseFloat(attr.y.value);
		var ratio = (svg.width.baseVal.value - 2 * 10) / width;

		// XXX: Workaround for JavaScript float issues (fix me)
		var fudge = 0.0001;

		unzoombtn.classList.remove("hide");

		var el = document.getElementById("frames").children;
		for (var i = 0; i < el.length; i++) {
			var e = el[i];
			var a = find_child(e, "rect").attributes;
			var ex = parseFloat(a.x.value);
			var ew = parseFloat(a.width.value);
			var upstack;
			// Is it an ancestor
			if (0 == 0) {
				upstack = parseFloat(a.y.value) > ymin;
			} else {
				upstack = parseFloat(a.y.value) < ymin;
			}
			if (upstack) {
				// Direct ancestor
				if (ex <= xmin && (ex+ew+fudge) >= xmax) {
					e.classList.add("parent");
					zoom_parent(e);
					update_text(e);
				}
				// not in current path
				else
					e.classList.add("hide");
			}
			// Children maybe
			else {
				// no common path
				if (ex < xmin || ex + fudge >= xmax) {
					e.classList.add("hide");
				}
				else {
					zoom_child(e, xmin, ratio);
					update_text(e);
				}
			}
		}
		search();
	}
	function unzoom(dont_update_text) {
		unzoombtn.classList.add("hide");
		var el = document.getElementById("frames").children;
		for(var i = 0; i < el.length; i++) {
			el[i].classList.remove("parent");
			el[i].classList.remove("hide");
			zoom_reset(el[i]);
			if(!dont_update_text) update_text(el[i]);
		}
		search();
	}
	function clearzoom() {
		unzoom();

		// remove zoom state
		var params = get_params();
		if (params.x) delete params.x;
		if (params.y) delete params.y;
		history.replaceState(null, null, parse_params(params));
	}

	// search
	function toggle_ignorecase() {
		ignorecase = !ignorecase;
		if (ignorecase) {
			ignorecaseBtn.classList.add("show");
		} else {
			ignorecaseBtn.classList.remove("show");
		}
		reset_search();
		search();
	}
	function reset_search() {
		var el = document.querySelectorAll("#frames rect");
		for (var i = 0; i < el.length; i++) {
			orig_load(el[i], "fill")
		}
		var params = get_params();
		delete params.s;
		history.replaceState(null, null, parse_params(params));
	}
	function search_prompt() {
		if (!searching) {
			var term = prompt("Enter a search term (regexp " +
			    "allowed, eg: ^ext4_)"
			    + (ignorecase ? ", ignoring case" : "")
			    + "\nPress Ctrl-i to toggle case sensitivity", "");
			if (term != null) search(term);
		} else {
			reset_search();
			searching = 0;
			currentSearchTerm = null;
			searchbtn.classList.remove("show");
			searchbtn.firstChild.nodeValue = "Search"
			matchedtxt.classList.add("hide");
			matchedtxt.firstChild.nodeValue = ""
		}
	}
	function search(term) {
		if (term) currentSearchTerm = term;

		var re = new RegExp(currentSearchTerm, ignorecase ? 'i' : '');
		var el = document.getElementById("frames").children;
		var matches = new Object();
		var maxwidth = 0;
		for (var i = 0; i < el.length; i++) {
			var e = el[i];
			var func = g_to_func(e);
			var rect = find_child(e, "rect");
			if (func == null || rect == null)
				continue;

			// Save max width. Only works as we have a root frame
			var w = parseFloat(rect.attributes.width.value);
			if (w > maxwidth)
				maxwidth = w;

			if (func.match(re)) {
				// highlight
				var x = parseFloat(rect.attributes.x.value);
				orig_save(rect, "fill");
				rect.attributes.fill.value = "rgb(230,0,230)";

				// remember matches
				if (matches[x] == undefined) {
					matches[x] = w;
				} else {
					if (w > matches[x]) {
						// overwrite with parent
						matches[x] = w;
					}
				}
				searching = 1;
			}
		}
		if (!searching)
			return;
		var params = get_params();
		params.s = currentSearchTerm;
		history.replaceState(null, null, parse_params(params));

		searchbtn.classList.add("show");
		searchbtn.firstChild.nodeValue = "Reset Search";

		// calculate percent matched, excluding vertical overlap
		var count = 0;
		var lastx = -1;
		var lastw = 0;
		var keys = Array();
		for (k in matches) {
			if (matches.hasOwnProperty(k))
				keys.push(k);
		}
		// sort the matched frames by their x location
		// ascending, then width descending
		keys.sort(function(a, b){
			return a - b;
		});
		// Step through frames saving only the biggest bottom-up frames
		// thanks to the sort order. This relies on the tree property
		// where children are always smaller than their parents.
		var fudge = 0.0001;	// JavaScript floating point
		for (var k in keys) {
			var x = parseFloat(keys[k]);
			var w = matches[keys[k]];
			if (x >= lastx + lastw - fudge) {
				count += w;
				lastx = x;
				lastw = w;
			}
		}
		// display matched percent
		matchedtxt.classList.remove("hide");
		var pct = 100 * count / maxwidth;
		if (pct != 100) pct = pct.toFixed(1)
		matchedtxt.firstChild.nodeValue = "Matched: " + pct + "%";
	}
]]>
</script>
<rect x="0.0" y="0" width="1200.0" height="326.0" fill="url(#background)"  />
<text id="title" x="600.00" y="24" >Flame Graph</text>
<text id="details" x="10.00" y="309" > </text>
<text id="unzoom" x="10.00" y="24" class="hide">Reset Zoom</text>
<text id="search" x="1090.00" y="24" >Search</text>
<text id="ignorecase" x="1174.00" y="24" >ic</text>
<text id="matched" x="1090.00" y="309" > </text>
<g id="frames">
<g >
<title>__folio_alloc (457,541 samples, 0.03%)</title><rect x="52.6" y="117" width="0.4" height="15.0" fill="rgb(224,91,21)" rx="2" ry="2" />
<text  x="55.62" y="127.5" ></text>
</g>
<g >
<title>w2c_decode__webp__wasm_VL4_C (923,759 samples, 0.06%)</title><rect x="1183.4" y="245" width="0.7" height="15.0" fill="rgb(247,196,46)" rx="2" ry="2" />
<text  x="1186.38" y="255.5" ></text>
</g>
<g >
<title>w2c_decode__webp__wasm_TM4_C (2,726,530 samples, 0.18%)</title><rect x="766.9" y="245" width="2.2" height="15.0" fill="rgb(254,226,54)" rx="2" ry="2" />
<text  x="769.94" y="255.5" ></text>
</g>
<g >
<title>asm_sysvec_apic_timer_interrupt (1,848,333 samples, 0.13%)</title><rect x="515.3" y="229" width="1.5" height="15.0" fill="rgb(232,127,30)" rx="2" ry="2" />
<text  x="518.29" y="239.5" ></text>
</g>
<g >
<title>w2c_decode__webp__wasm_VE8uv_C (923,546 samples, 0.06%)</title><rect x="26.8" y="149" width="0.7" height="15.0" fill="rgb(248,202,48)" rx="2" ry="2" />
<text  x="29.78" y="159.5" ></text>
</g>
<g >
<title>[unknown] (21,902,488 samples, 1.48%)</title><rect x="10.0" y="181" width="17.5" height="15.0" fill="rgb(210,24,5)" rx="2" ry="2" />
<text  x="13.00" y="191.5" ></text>
</g>
<g >
<title>asm_sysvec_apic_timer_interrupt (924,347 samples, 0.06%)</title><rect x="863.8" y="229" width="0.8" height="15.0" fill="rgb(232,127,30)" rx="2" ry="2" />
<text  x="866.84" y="239.5" ></text>
</g>
<g >
<title>__handle_mm_fault (457,541 samples, 0.03%)</title><rect x="52.6" y="165" width="0.4" height="15.0" fill="rgb(207,9,2)" rx="2" ry="2" />
<text  x="55.62" y="175.5" ></text>
</g>
<g >
<title>fq_flush_timeout (923,994 samples, 0.06%)</title><rect x="515.3" y="117" width="0.7" height="15.0" fill="rgb(213,40,9)" rx="2" ry="2" />
<text  x="518.29" y="127.5" ></text>
</g>
<g >
<title>w2c_decode__webp__wasm_UpsampleRgbLinePair_C (393,005,206 samples, 26.64%)</title><rect x="866.8" y="245" width="314.4" height="15.0" fill="rgb(241,168,40)" rx="2" ry="2" />
<text  x="869.79" y="255.5" >w2c_decode__webp__wasm_UpsampleRgbLinePair_C</text>
</g>
<g >
<title>update_process_times (924,355 samples, 0.06%)</title><rect x="683.9" y="117" width="0.7" height="15.0" fill="rgb(250,209,50)" rx="2" ry="2" />
<text  x="686.89" y="127.5" ></text>
</g>
<g >
<title>perf_event_task_tick (924,339 samples, 0.06%)</title><rect x="516.0" y="85" width="0.8" height="15.0" fill="rgb(205,3,0)" rx="2" ry="2" />
<text  x="519.03" y="95.5" ></text>
</g>
<g >
<title>w2c_decode__webp__wasm_TM8uv_C (2,771,035 samples, 0.19%)</title><rect x="769.1" y="245" width="2.2" height="15.0" fill="rgb(210,24,5)" rx="2" ry="2" />
<text  x="772.12" y="255.5" ></text>
</g>
<g >
<title>delay_halt_mwaitx (924,339 samples, 0.06%)</title><rect x="516.0" y="37" width="0.8" height="15.0" fill="rgb(234,133,31)" rx="2" ry="2" />
<text  x="519.03" y="47.5" ></text>
</g>
<g >
<title>__sysvec_apic_timer_interrupt (924,355 samples, 0.06%)</title><rect x="683.9" y="197" width="0.7" height="15.0" fill="rgb(242,173,41)" rx="2" ry="2" />
<text  x="686.89" y="207.5" ></text>
</g>
<g >
<title>clear_page_rep (457,541 samples, 0.03%)</title><rect x="52.6" y="69" width="0.4" height="15.0" fill="rgb(253,221,52)" rx="2" ry="2" />
<text  x="55.62" y="79.5" ></text>
</g>
<g >
<title>entry_SYSCALL_64_after_hwframe (2,772,069 samples, 0.19%)</title><rect x="27.5" y="213" width="2.2" height="15.0" fill="rgb(218,63,15)" rx="2" ry="2" />
<text  x="30.52" y="223.5" ></text>
</g>
<g >
<title>__perf_addr_filters_adjust (361,834 samples, 0.02%)</title><rect x="30.6" y="69" width="0.3" height="15.0" fill="rgb(247,195,46)" rx="2" ry="2" />
<text  x="33.57" y="79.5" ></text>
</g>
<g >
<title>asm_exc_page_fault (924,145 samples, 0.06%)</title><rect x="29.7" y="213" width="0.8" height="15.0" fill="rgb(225,93,22)" rx="2" ry="2" />
<text  x="32.74" y="223.5" ></text>
</g>
<g >
<title>__memmove_avx_unaligned_erms (924,145 samples, 0.06%)</title><rect x="29.7" y="229" width="0.8" height="15.0" fill="rgb(205,0,0)" rx="2" ry="2" />
<text  x="32.74" y="239.5" ></text>
</g>
<g >
<title>scheduler_tick (924,355 samples, 0.06%)</title><rect x="683.9" y="101" width="0.7" height="15.0" fill="rgb(246,190,45)" rx="2" ry="2" />
<text  x="686.89" y="111.5" ></text>
</g>
<g >
<title>w2c_decode__webp__wasm_IDecode (3,689,472 samples, 0.25%)</title><rect x="12.2" y="149" width="3.0" height="15.0" fill="rgb(208,15,3)" rx="2" ry="2" />
<text  x="15.22" y="159.5" ></text>
</g>
<g >
<title>handle_mm_fault (924,145 samples, 0.06%)</title><rect x="29.7" y="165" width="0.8" height="15.0" fill="rgb(234,135,32)" rx="2" ry="2" />
<text  x="32.74" y="175.5" ></text>
</g>
<g >
<title>tick_sched_timer (924,347 samples, 0.06%)</title><rect x="863.8" y="149" width="0.8" height="15.0" fill="rgb(254,227,54)" rx="2" ry="2" />
<text  x="866.84" y="159.5" ></text>
</g>
<g >
<title>exc_page_fault (924,145 samples, 0.06%)</title><rect x="29.7" y="197" width="0.8" height="15.0" fill="rgb(212,35,8)" rx="2" ry="2" />
<text  x="32.74" y="207.5" ></text>
</g>
<g >
<title>do_user_addr_fault (457,541 samples, 0.03%)</title><rect x="52.6" y="197" width="0.4" height="15.0" fill="rgb(228,108,25)" rx="2" ry="2" />
<text  x="55.62" y="207.5" ></text>
</g>
<g >
<title>sysvec_apic_timer_interrupt (924,347 samples, 0.06%)</title><rect x="863.8" y="213" width="0.8" height="15.0" fill="rgb(220,69,16)" rx="2" ry="2" />
<text  x="866.84" y="223.5" ></text>
</g>
<g >
<title>w2c_decode__webp__wasm_ReconstructRow (5,543,665 samples, 0.38%)</title><rect x="43.0" y="229" width="4.4" height="15.0" fill="rgb(238,153,36)" rx="2" ry="2" />
<text  x="46.02" y="239.5" ></text>
</g>
<g >
<title>mem_cgroup_wb_stats (924,000 samples, 0.06%)</title><rect x="27.5" y="85" width="0.8" height="15.0" fill="rgb(211,28,6)" rx="2" ry="2" />
<text  x="30.52" y="95.5" ></text>
</g>
<g >
<title>vma_alloc_folio (457,541 samples, 0.03%)</title><rect x="52.6" y="133" width="0.4" height="15.0" fill="rgb(245,187,44)" rx="2" ry="2" />
<text  x="55.62" y="143.5" ></text>
</g>
<g >
<title>__irq_exit_rcu (923,994 samples, 0.06%)</title><rect x="515.3" y="197" width="0.7" height="15.0" fill="rgb(227,101,24)" rx="2" ry="2" />
<text  x="518.29" y="207.5" ></text>
</g>
<g >
<title>__mem_cgroup_flush_stats (924,000 samples, 0.06%)</title><rect x="27.5" y="69" width="0.8" height="15.0" fill="rgb(208,16,3)" rx="2" ry="2" />
<text  x="30.52" y="79.5" ></text>
</g>
<g >
<title>delay_halt (924,355 samples, 0.06%)</title><rect x="683.9" y="53" width="0.7" height="15.0" fill="rgb(250,207,49)" rx="2" ry="2" />
<text  x="686.89" y="63.5" ></text>
</g>
<g >
<title>w2c_decode__webp__wasm_TransformOne_C (922,769 samples, 0.06%)</title><rect x="26.0" y="149" width="0.8" height="15.0" fill="rgb(231,120,28)" rx="2" ry="2" />
<text  x="29.04" y="159.5" ></text>
</g>
<g >
<title>w2c_decode__webp__wasm_GetCoeffsFast (2,772,018 samples, 0.19%)</title><rect x="10.0" y="149" width="2.2" height="15.0" fill="rgb(232,124,29)" rx="2" ry="2" />
<text  x="13.00" y="159.5" ></text>
</g>
<g >
<title>vma_alloc_folio (924,145 samples, 0.06%)</title><rect x="29.7" y="133" width="0.8" height="15.0" fill="rgb(245,187,44)" rx="2" ry="2" />
<text  x="32.74" y="143.5" ></text>
</g>
<g >
<title>w2c_decode__webp__wasm_DC4_C (15,697,747 samples, 1.06%)</title><rect x="54.1" y="245" width="12.5" height="15.0" fill="rgb(222,78,18)" rx="2" ry="2" />
<text  x="57.07" y="255.5" ></text>
</g>
<g >
<title>delay_halt (923,994 samples, 0.06%)</title><rect x="515.3" y="53" width="0.7" height="15.0" fill="rgb(250,207,49)" rx="2" ry="2" />
<text  x="518.29" y="63.5" ></text>
</g>
<g >
<title>w2c_decode__webp__wasm_TransformDC_C (12,926,530 samples, 0.88%)</title><rect x="774.3" y="245" width="10.3" height="15.0" fill="rgb(232,125,30)" rx="2" ry="2" />
<text  x="777.25" y="255.5" ></text>
</g>
<g >
<title>do_execveat_common.isra.0 (480,716 samples, 0.03%)</title><rect x="30.5" y="181" width="0.4" height="15.0" fill="rgb(231,123,29)" rx="2" ry="2" />
<text  x="33.48" y="191.5" ></text>
</g>
<g >
<title>asm_exc_page_fault (457,541 samples, 0.03%)</title><rect x="52.6" y="229" width="0.4" height="15.0" fill="rgb(225,93,22)" rx="2" ry="2" />
<text  x="55.62" y="239.5" ></text>
</g>
<g >
<title>load_elf_binary (480,716 samples, 0.03%)</title><rect x="30.5" y="149" width="0.4" height="15.0" fill="rgb(223,83,20)" rx="2" ry="2" />
<text  x="33.48" y="159.5" ></text>
</g>
<g >
<title>entry_SYSCALL_64_after_hwframe (480,716 samples, 0.03%)</title><rect x="30.5" y="229" width="0.4" height="15.0" fill="rgb(218,63,15)" rx="2" ry="2" />
<text  x="33.48" y="239.5" ></text>
</g>
<g >
<title>w2c_decode__webp__wasm_ReconstructRow (61,893,202 samples, 4.20%)</title><rect x="690.5" y="245" width="49.6" height="15.0" fill="rgb(238,153,36)" rx="2" ry="2" />
<text  x="693.54" y="255.5" >w2c_..</text>
</g>
<g >
<title>amd_pmu_check_overflow (924,339 samples, 0.06%)</title><rect x="516.0" y="69" width="0.8" height="15.0" fill="rgb(207,10,2)" rx="2" ry="2" />
<text  x="519.03" y="79.5" ></text>
</g>
<g >
<title>w2c_decode__webp__wasm_IDecode (5,508,822 samples, 0.37%)</title><rect x="38.6" y="229" width="4.4" height="15.0" fill="rgb(208,15,3)" rx="2" ry="2" />
<text  x="41.61" y="239.5" ></text>
</g>
<g >
<title>fq_flush_iotlb (923,994 samples, 0.06%)</title><rect x="515.3" y="101" width="0.7" height="15.0" fill="rgb(244,182,43)" rx="2" ry="2" />
<text  x="518.29" y="111.5" ></text>
</g>
<g >
<title>w2c_decode__webp__wasm_TransformOne_C (99,994,386 samples, 6.78%)</title><rect x="784.6" y="245" width="80.0" height="15.0" fill="rgb(231,120,28)" rx="2" ry="2" />
<text  x="787.59" y="255.5" >w2c_decod..</text>
</g>
<g >
<title>w2c_decode__webp__wasm_SimpleVFilter16i_C (14,781,289 samples, 1.00%)</title><rect x="752.9" y="245" width="11.8" height="15.0" fill="rgb(222,79,19)" rx="2" ry="2" />
<text  x="755.90" y="255.5" ></text>
</g>
<g >
<title>blk_cgroup_congested (459,391 samples, 0.03%)</title><rect x="683.5" y="133" width="0.4" height="15.0" fill="rgb(250,211,50)" rx="2" ry="2" />
<text  x="686.53" y="143.5" ></text>
</g>
<g >
<title>__handle_mm_fault (459,391 samples, 0.03%)</title><rect x="683.5" y="165" width="0.4" height="15.0" fill="rgb(207,9,2)" rx="2" ry="2" />
<text  x="686.53" y="175.5" ></text>
</g>
<g >
<title>__libc_write (2,772,069 samples, 0.19%)</title><rect x="27.5" y="229" width="2.2" height="15.0" fill="rgb(238,154,37)" rx="2" ry="2" />
<text  x="30.52" y="239.5" ></text>
</g>
<g >
<title>[unknown] (21,902,488 samples, 1.48%)</title><rect x="10.0" y="213" width="17.5" height="15.0" fill="rgb(210,24,5)" rx="2" ry="2" />
<text  x="13.00" y="223.5" ></text>
</g>
<g >
<title>[unknown] (21,902,488 samples, 1.48%)</title><rect x="10.0" y="165" width="17.5" height="15.0" fill="rgb(210,24,5)" rx="2" ry="2" />
<text  x="13.00" y="175.5" ></text>
</g>
<g >
<title>get_page_from_freelist (457,541 samples, 0.03%)</title><rect x="52.6" y="85" width="0.4" height="15.0" fill="rgb(252,218,52)" rx="2" ry="2" />
<text  x="55.62" y="95.5" ></text>
</g>
<g >
<title>amd_pmu_check_overflow (924,355 samples, 0.06%)</title><rect x="683.9" y="69" width="0.7" height="15.0" fill="rgb(207,10,2)" rx="2" ry="2" />
<text  x="686.89" y="79.5" ></text>
</g>
<g >
<title>w2c_decode__webp__wasm_TM16_C (2,771,265 samples, 0.19%)</title><rect x="764.7" y="245" width="2.2" height="15.0" fill="rgb(224,90,21)" rx="2" ry="2" />
<text  x="767.72" y="255.5" ></text>
</g>
<g >
<title>w2c_decode__webp__wasm_VR4_C (2,770,066 samples, 0.19%)</title><rect x="1187.8" y="245" width="2.2" height="15.0" fill="rgb(208,18,4)" rx="2" ry="2" />
<text  x="1190.76" y="255.5" ></text>
</g>
<g >
<title>run_timer_softirq (923,994 samples, 0.06%)</title><rect x="515.3" y="165" width="0.7" height="15.0" fill="rgb(249,206,49)" rx="2" ry="2" />
<text  x="518.29" y="175.5" ></text>
</g>
<g >
<title>tick_sched_handle (924,347 samples, 0.06%)</title><rect x="863.8" y="133" width="0.8" height="15.0" fill="rgb(219,68,16)" rx="2" ry="2" />
<text  x="866.84" y="143.5" ></text>
</g>
<g >
<title>generic_perform_write (1,848,082 samples, 0.13%)</title><rect x="27.5" y="133" width="1.5" height="15.0" fill="rgb(236,146,35)" rx="2" ry="2" />
<text  x="30.52" y="143.5" ></text>
</g>
<g >
<title>amd_pmu_check_overflow (924,347 samples, 0.06%)</title><rect x="863.8" y="69" width="0.8" height="15.0" fill="rgb(207,10,2)" rx="2" ry="2" />
<text  x="866.84" y="79.5" ></text>
</g>
<g >
<title>__internal_atexit (457,541 samples, 0.03%)</title><rect x="52.6" y="245" width="0.4" height="15.0" fill="rgb(229,111,26)" rx="2" ry="2" />
<text  x="55.62" y="255.5" ></text>
</g>
<g >
<title>w2c_decode__webp__wasm_GetLargeValue (53,493,929 samples, 3.63%)</title><rect x="516.8" y="245" width="42.8" height="15.0" fill="rgb(206,5,1)" rx="2" ry="2" />
<text  x="519.77" y="255.5" >w2c_..</text>
</g>
<g >
<title>delay_halt_mwaitx (924,347 samples, 0.06%)</title><rect x="863.8" y="37" width="0.8" height="15.0" fill="rgb(234,133,31)" rx="2" ry="2" />
<text  x="866.84" y="47.5" ></text>
</g>
<g >
<title>w2c_decode__webp__wasm_GetCoeffsFast (8,762,390 samples, 0.59%)</title><rect x="30.9" y="229" width="7.0" height="15.0" fill="rgb(232,124,29)" rx="2" ry="2" />
<text  x="33.86" y="239.5" ></text>
</g>
<g >
<title>w2c_decode__webp__wasm_RD4_C (2,770,644 samples, 0.19%)</title><rect x="688.3" y="245" width="2.2" height="15.0" fill="rgb(225,92,22)" rx="2" ry="2" />
<text  x="691.33" y="255.5" ></text>
</g>
<g >
<title>wp_page_copy (457,541 samples, 0.03%)</title><rect x="52.6" y="149" width="0.4" height="15.0" fill="rgb(214,42,10)" rx="2" ry="2" />
<text  x="55.62" y="159.5" ></text>
</g>
<g >
<title>sysvec_apic_timer_interrupt (1,848,333 samples, 0.13%)</title><rect x="515.3" y="213" width="1.5" height="15.0" fill="rgb(220,69,16)" rx="2" ry="2" />
<text  x="518.29" y="223.5" ></text>
</g>
<g >
<title>amd_iommu_flush_iotlb_all (923,994 samples, 0.06%)</title><rect x="515.3" y="85" width="0.7" height="15.0" fill="rgb(248,198,47)" rx="2" ry="2" />
<text  x="518.29" y="95.5" ></text>
</g>
<g >
<title>__install_special_mapping (361,834 samples, 0.02%)</title><rect x="30.6" y="117" width="0.3" height="15.0" fill="rgb(212,35,8)" rx="2" ry="2" />
<text  x="33.57" y="127.5" ></text>
</g>
<g >
<title>bprm_execve (480,716 samples, 0.03%)</title><rect x="30.5" y="165" width="0.4" height="15.0" fill="rgb(218,61,14)" rx="2" ry="2" />
<text  x="33.48" y="175.5" ></text>
</g>
<g >
<title>handle_mm_fault (459,391 samples, 0.03%)</title><rect x="683.5" y="181" width="0.4" height="15.0" fill="rgb(234,135,32)" rx="2" ry="2" />
<text  x="686.53" y="191.5" ></text>
</g>
<g >
<title>fault_in_readable (924,082 samples, 0.06%)</title><rect x="28.3" y="101" width="0.7" height="15.0" fill="rgb(237,150,35)" rx="2" ry="2" />
<text  x="31.26" y="111.5" ></text>
</g>
<g >
<title>tick_sched_timer (924,339 samples, 0.06%)</title><rect x="516.0" y="149" width="0.8" height="15.0" fill="rgb(254,227,54)" rx="2" ry="2" />
<text  x="519.03" y="159.5" ></text>
</g>
<g >
<title>cgroup_rstat_flush_irqsafe (924,000 samples, 0.06%)</title><rect x="27.5" y="53" width="0.8" height="15.0" fill="rgb(227,103,24)" rx="2" ry="2" />
<text  x="30.52" y="63.5" ></text>
</g>
<g >
<title>w2c_decode__webp__wasm_TransformTwo_C (2,770,017 samples, 0.19%)</title><rect x="864.6" y="245" width="2.2" height="15.0" fill="rgb(226,96,23)" rx="2" ry="2" />
<text  x="867.58" y="255.5" ></text>
</g>
<g >
<title>w2c_decode__webp__wasm_HE4_C (1,749,817 samples, 0.12%)</title><rect x="562.5" y="245" width="1.4" height="15.0" fill="rgb(233,130,31)" rx="2" ry="2" />
<text  x="565.51" y="255.5" ></text>
</g>
<g >
<title>perf_event_task_tick (924,355 samples, 0.06%)</title><rect x="683.9" y="85" width="0.7" height="15.0" fill="rgb(205,3,0)" rx="2" ry="2" />
<text  x="686.89" y="95.5" ></text>
</g>
<g >
<title>[unknown] (21,902,488 samples, 1.48%)</title><rect x="10.0" y="229" width="17.5" height="15.0" fill="rgb(210,24,5)" rx="2" ry="2" />
<text  x="13.00" y="239.5" ></text>
</g>
<g >
<title>w2c_decode__webp__wasm_DC8uv_C (1,847,364 samples, 0.13%)</title><rect x="66.6" y="245" width="1.5" height="15.0" fill="rgb(228,106,25)" rx="2" ry="2" />
<text  x="69.62" y="255.5" ></text>
</g>
<g >
<title>map_vdso (361,834 samples, 0.02%)</title><rect x="30.6" y="133" width="0.3" height="15.0" fill="rgb(227,103,24)" rx="2" ry="2" />
<text  x="33.57" y="143.5" ></text>
</g>
<g >
<title>w2c_decode__webp__wasm_TransformDC_C (4,615,436 samples, 0.31%)</title><rect x="22.4" y="149" width="3.6" height="15.0" fill="rgb(232,125,30)" rx="2" ry="2" />
<text  x="25.35" y="159.5" ></text>
</g>
<g >
<title>[unknown] (53,286,222 samples, 3.61%)</title><rect x="10.0" y="245" width="42.6" height="15.0" fill="rgb(210,24,5)" rx="2" ry="2" />
<text  x="13.00" y="255.5" >[unk..</text>
</g>
<g >
<title>w2c_decode__webp__wasm_TransformAC3_C (3,641,219 samples, 0.25%)</title><rect x="771.3" y="245" width="3.0" height="15.0" fill="rgb(222,79,19)" rx="2" ry="2" />
<text  x="774.34" y="255.5" ></text>
</g>
<g >
<title>do_syscall_64 (2,772,069 samples, 0.19%)</title><rect x="27.5" y="197" width="2.2" height="15.0" fill="rgb(209,20,4)" rx="2" ry="2" />
<text  x="30.52" y="207.5" ></text>
</g>
<g >
<title>__run_timers (923,994 samples, 0.06%)</title><rect x="515.3" y="149" width="0.7" height="15.0" fill="rgb(206,5,1)" rx="2" ry="2" />
<text  x="518.29" y="159.5" ></text>
</g>
<g >
<title>w2c_decode__webp__wasm_TransformUV_C (2,772,666 samples, 0.19%)</title><rect x="50.4" y="229" width="2.2" height="15.0" fill="rgb(249,206,49)" rx="2" ry="2" />
<text  x="53.41" y="239.5" ></text>
</g>
<g >
<title>hrtimer_interrupt (924,347 samples, 0.06%)</title><rect x="863.8" y="181" width="0.8" height="15.0" fill="rgb(228,109,26)" rx="2" ry="2" />
<text  x="866.84" y="191.5" ></text>
</g>
<g >
<title>ksys_write (2,772,069 samples, 0.19%)</title><rect x="27.5" y="181" width="2.2" height="15.0" fill="rgb(205,4,1)" rx="2" ry="2" />
<text  x="30.52" y="191.5" ></text>
</g>
<g >
<title>exc_page_fault (457,541 samples, 0.03%)</title><rect x="52.6" y="213" width="0.4" height="15.0" fill="rgb(212,35,8)" rx="2" ry="2" />
<text  x="55.62" y="223.5" ></text>
</g>
<g >
<title>w2c_decode__webp__wasm_VP8ParseProba (3,632,316 samples, 0.25%)</title><rect x="1184.9" y="245" width="2.9" height="15.0" fill="rgb(237,149,35)" rx="2" ry="2" />
<text  x="1187.85" y="255.5" ></text>
</g>
<g >
<title>w2c_decode__webp__wasm_SimpleVFilter16_C (6,825,609 samples, 0.46%)</title><rect x="747.4" y="245" width="5.5" height="15.0" fill="rgb(250,209,50)" rx="2" ry="2" />
<text  x="750.44" y="255.5" ></text>
</g>
<g >
<title>__alloc_pages (457,541 samples, 0.03%)</title><rect x="52.6" y="101" width="0.4" height="15.0" fill="rgb(233,129,30)" rx="2" ry="2" />
<text  x="55.62" y="111.5" ></text>
</g>
<g >
<title>w2c_decode__webp__wasm_VP8GetValue (924,326 samples, 0.06%)</title><rect x="1184.1" y="245" width="0.8" height="15.0" fill="rgb(243,179,42)" rx="2" ry="2" />
<text  x="1187.12" y="255.5" ></text>
</g>
<g >
<title>__memset_avx2_unaligned_erms (1,345,947 samples, 0.09%)</title><rect x="53.0" y="245" width="1.1" height="15.0" fill="rgb(223,84,20)" rx="2" ry="2" />
<text  x="55.99" y="255.5" ></text>
</g>
<g >
<title>sysvec_apic_timer_interrupt (924,355 samples, 0.06%)</title><rect x="683.9" y="213" width="0.7" height="15.0" fill="rgb(220,69,16)" rx="2" ry="2" />
<text  x="686.89" y="223.5" ></text>
</g>
<g >
<title>perf_event_task_tick (924,347 samples, 0.06%)</title><rect x="863.8" y="85" width="0.8" height="15.0" fill="rgb(205,3,0)" rx="2" ry="2" />
<text  x="866.84" y="95.5" ></text>
</g>
<g >
<title>[unknown] (21,902,488 samples, 1.48%)</title><rect x="10.0" y="197" width="17.5" height="15.0" fill="rgb(210,24,5)" rx="2" ry="2" />
<text  x="13.00" y="207.5" ></text>
</g>
<g >
<title>tick_sched_handle (924,355 samples, 0.06%)</title><rect x="683.9" y="133" width="0.7" height="15.0" fill="rgb(219,68,16)" rx="2" ry="2" />
<text  x="686.89" y="143.5" ></text>
</g>
<g >
<title>w2c_decode__webp__wasm_GetLargeValue (923,805 samples, 0.06%)</title><rect x="37.9" y="229" width="0.7" height="15.0" fill="rgb(206,5,1)" rx="2" ry="2" />
<text  x="40.87" y="239.5" ></text>
</g>
<g >
<title>do_user_addr_fault (459,391 samples, 0.03%)</title><rect x="683.5" y="197" width="0.4" height="15.0" fill="rgb(228,108,25)" rx="2" ry="2" />
<text  x="686.53" y="207.5" ></text>
</g>
<g >
<title>asm_sysvec_apic_timer_interrupt (924,355 samples, 0.06%)</title><rect x="683.9" y="229" width="0.7" height="15.0" fill="rgb(232,127,30)" rx="2" ry="2" />
<text  x="686.89" y="239.5" ></text>
</g>
<g >
<title>tick_sched_timer (924,355 samples, 0.06%)</title><rect x="683.9" y="149" width="0.7" height="15.0" fill="rgb(254,227,54)" rx="2" ry="2" />
<text  x="686.89" y="159.5" ></text>
</g>
<g >
<title>tick_sched_handle (924,339 samples, 0.06%)</title><rect x="516.0" y="133" width="0.8" height="15.0" fill="rgb(219,68,16)" rx="2" ry="2" />
<text  x="519.03" y="143.5" ></text>
</g>
<g >
<title>do_user_addr_fault (924,145 samples, 0.06%)</title><rect x="29.7" y="181" width="0.8" height="15.0" fill="rgb(228,108,25)" rx="2" ry="2" />
<text  x="32.74" y="191.5" ></text>
</g>
<g >
<title>__handle_mm_fault (924,145 samples, 0.06%)</title><rect x="29.7" y="149" width="0.8" height="15.0" fill="rgb(207,9,2)" rx="2" ry="2" />
<text  x="32.74" y="159.5" ></text>
</g>
<g >
<title>all (1,475,179,102 samples, 100%)</title><rect x="10.0" y="277" width="1180.0" height="15.0" fill="rgb(213,39,9)" rx="2" ry="2" />
<text  x="13.00" y="287.5" ></text>
</g>
<g >
<title>vfs_write (2,772,069 samples, 0.19%)</title><rect x="27.5" y="165" width="2.2" height="15.0" fill="rgb(250,209,50)" rx="2" ry="2" />
<text  x="30.52" y="175.5" ></text>
</g>
<g >
<title>w2c_decode__webp__wasm_VE8uv_C (923,772 samples, 0.06%)</title><rect x="1182.6" y="245" width="0.8" height="15.0" fill="rgb(248,202,48)" rx="2" ry="2" />
<text  x="1185.64" y="255.5" ></text>
</g>
<g >
<title>decode_webp_was (1,475,148,754 samples, 100.00%)</title><rect x="10.0" y="261" width="1180.0" height="15.0" fill="rgb(216,54,12)" rx="2" ry="2" />
<text  x="13.00" y="271.5" >decode_webp_was</text>
</g>
<g >
<title>w2c_decode__webp__wasm_GetCoeffsFast (558,128,457 samples, 37.83%)</title><rect x="70.3" y="245" width="446.5" height="15.0" fill="rgb(232,124,29)" rx="2" ry="2" />
<text  x="73.32" y="255.5" >w2c_decode__webp__wasm_GetCoeffsFast</text>
</g>
<g >
<title>__sysvec_apic_timer_interrupt (924,339 samples, 0.06%)</title><rect x="516.0" y="197" width="0.8" height="15.0" fill="rgb(242,173,41)" rx="2" ry="2" />
<text  x="519.03" y="207.5" ></text>
</g>
<g >
<title>__sysvec_apic_timer_interrupt (924,347 samples, 0.06%)</title><rect x="863.8" y="197" width="0.8" height="15.0" fill="rgb(242,173,41)" rx="2" ry="2" />
<text  x="866.84" y="207.5" ></text>
</g>
<g >
<title>perf_iterate_ctx (361,834 samples, 0.02%)</title><rect x="30.6" y="85" width="0.3" height="15.0" fill="rgb(205,4,0)" rx="2" ry="2" />
<text  x="33.57" y="95.5" ></text>
</g>
<g >
<title>handle_mm_fault (457,541 samples, 0.03%)</title><rect x="52.6" y="181" width="0.4" height="15.0" fill="rgb(234,135,32)" rx="2" ry="2" />
<text  x="55.62" y="191.5" ></text>
</g>
<g >
<title>w2c_decode__webp__wasm_LD4_C (4,617,195 samples, 0.31%)</title><rect x="684.6" y="245" width="3.7" height="15.0" fill="rgb(213,41,9)" rx="2" ry="2" />
<text  x="687.63" y="255.5" ></text>
</g>
<g >
<title>do_syscall_64 (480,716 samples, 0.03%)</title><rect x="30.5" y="213" width="0.4" height="15.0" fill="rgb(209,20,4)" rx="2" ry="2" />
<text  x="33.48" y="223.5" ></text>
</g>
<g >
<title>__x64_sys_execve (480,716 samples, 0.03%)</title><rect x="30.5" y="197" width="0.4" height="15.0" fill="rgb(247,193,46)" rx="2" ry="2" />
<text  x="33.48" y="207.5" ></text>
</g>
<g >
<title>delay_halt_mwaitx (924,355 samples, 0.06%)</title><rect x="683.9" y="37" width="0.7" height="15.0" fill="rgb(234,133,31)" rx="2" ry="2" />
<text  x="686.89" y="47.5" ></text>
</g>
<g >
<title>w2c_decode__webp__wasm_HD4_C (3,695,220 samples, 0.25%)</title><rect x="559.6" y="245" width="2.9" height="15.0" fill="rgb(239,160,38)" rx="2" ry="2" />
<text  x="562.56" y="255.5" ></text>
</g>
<g >
<title>up_write (923,987 samples, 0.06%)</title><rect x="29.0" y="133" width="0.7" height="15.0" fill="rgb(235,139,33)" rx="2" ry="2" />
<text  x="32.00" y="143.5" ></text>
</g>
<g >
<title>w2c_decode__webp__wasm_ReconstructRow (4,920,344 samples, 0.33%)</title><rect x="15.2" y="149" width="3.9" height="15.0" fill="rgb(238,153,36)" rx="2" ry="2" />
<text  x="18.17" y="159.5" ></text>
</g>
<g >
<title>hrtimer_interrupt (924,339 samples, 0.06%)</title><rect x="516.0" y="181" width="0.8" height="15.0" fill="rgb(228,109,26)" rx="2" ry="2" />
<text  x="519.03" y="191.5" ></text>
</g>
<g >
<title>asm_exc_page_fault (459,391 samples, 0.03%)</title><rect x="683.5" y="229" width="0.4" height="15.0" fill="rgb(225,93,22)" rx="2" ry="2" />
<text  x="686.53" y="239.5" ></text>
</g>
<g >
<title>w2c_decode__webp__wasm_TransformTwo_C (3,695,456 samples, 0.25%)</title><rect x="47.4" y="229" width="3.0" height="15.0" fill="rgb(226,96,23)" rx="2" ry="2" />
<text  x="50.45" y="239.5" ></text>
</g>
<g >
<title>delay_halt (924,339 samples, 0.06%)</title><rect x="516.0" y="53" width="0.8" height="15.0" fill="rgb(250,207,49)" rx="2" ry="2" />
<text  x="519.03" y="63.5" ></text>
</g>
<g >
<title>w2c_decode__webp__wasm_TransformDCUV_C (4,058,903 samples, 0.28%)</title><rect x="19.1" y="149" width="3.3" height="15.0" fill="rgb(227,104,25)" rx="2" ry="2" />
<text  x="22.10" y="159.5" ></text>
</g>
<g >
<title>__cgroup_throttle_swaprate (459,391 samples, 0.03%)</title><rect x="683.5" y="149" width="0.4" height="15.0" fill="rgb(221,73,17)" rx="2" ry="2" />
<text  x="686.53" y="159.5" ></text>
</g>
<g >
<title>update_process_times (924,347 samples, 0.06%)</title><rect x="863.8" y="117" width="0.8" height="15.0" fill="rgb(250,209,50)" rx="2" ry="2" />
<text  x="866.84" y="127.5" ></text>
</g>
<g >
<title>w2c_decode__webp__wasm_FinishRow (1,847,215 samples, 0.13%)</title><rect x="68.8" y="245" width="1.5" height="15.0" fill="rgb(227,101,24)" rx="2" ry="2" />
<text  x="71.84" y="255.5" ></text>
</g>
<g >
<title>ext4_buffered_write_iter (2,772,069 samples, 0.19%)</title><rect x="27.5" y="149" width="2.2" height="15.0" fill="rgb(213,40,9)" rx="2" ry="2" />
<text  x="30.52" y="159.5" ></text>
</g>
<g >
<title>update_process_times (924,339 samples, 0.06%)</title><rect x="516.0" y="117" width="0.8" height="15.0" fill="rgb(250,209,50)" rx="2" ry="2" />
<text  x="519.03" y="127.5" ></text>
</g>
<g >
<title>__softirqentry_text_start (923,994 samples, 0.06%)</title><rect x="515.3" y="181" width="0.7" height="15.0" fill="rgb(234,135,32)" rx="2" ry="2" />
<text  x="518.29" y="191.5" ></text>
</g>
<g >
<title>__hrtimer_run_queues (924,355 samples, 0.06%)</title><rect x="683.9" y="165" width="0.7" height="15.0" fill="rgb(237,150,35)" rx="2" ry="2" />
<text  x="686.89" y="175.5" ></text>
</g>
<g >
<title>perf_event_mmap (361,834 samples, 0.02%)</title><rect x="30.6" y="101" width="0.3" height="15.0" fill="rgb(229,112,26)" rx="2" ry="2" />
<text  x="33.57" y="111.5" ></text>
</g>
<g >
<title>fault_in_iov_iter_readable (924,082 samples, 0.06%)</title><rect x="28.3" y="117" width="0.7" height="15.0" fill="rgb(236,143,34)" rx="2" ry="2" />
<text  x="31.26" y="127.5" ></text>
</g>
<g >
<title>__hrtimer_run_queues (924,347 samples, 0.06%)</title><rect x="863.8" y="165" width="0.8" height="15.0" fill="rgb(237,150,35)" rx="2" ry="2" />
<text  x="866.84" y="175.5" ></text>
</g>
<g >
<title>w2c_decode__webp__wasm_HE8uv_C (924,099 samples, 0.06%)</title><rect x="563.9" y="245" width="0.8" height="15.0" fill="rgb(239,158,37)" rx="2" ry="2" />
<text  x="566.91" y="255.5" ></text>
</g>
<g >
<title>w2c_decode__webp__wasm_SimpleHFilter16i_C (9,238,422 samples, 0.63%)</title><rect x="740.1" y="245" width="7.3" height="15.0" fill="rgb(212,35,8)" rx="2" ry="2" />
<text  x="743.05" y="255.5" ></text>
</g>
<g >
<title>hrtimer_interrupt (924,355 samples, 0.06%)</title><rect x="683.9" y="181" width="0.7" height="15.0" fill="rgb(228,109,26)" rx="2" ry="2" />
<text  x="686.89" y="191.5" ></text>
</g>
<g >
<title>balance_dirty_pages_ratelimited_flags (924,000 samples, 0.06%)</title><rect x="27.5" y="117" width="0.8" height="15.0" fill="rgb(207,10,2)" rx="2" ry="2" />
<text  x="30.52" y="127.5" ></text>
</g>
<g >
<title>cgroup_rstat_flush_locked (924,000 samples, 0.06%)</title><rect x="27.5" y="37" width="0.8" height="15.0" fill="rgb(209,19,4)" rx="2" ry="2" />
<text  x="30.52" y="47.5" ></text>
</g>
<g >
<title>w2c_decode__webp__wasm_IDecode (149,997,145 samples, 10.17%)</title><rect x="564.7" y="245" width="119.9" height="15.0" fill="rgb(208,15,3)" rx="2" ry="2" />
<text  x="567.65" y="255.5" >w2c_decode__we..</text>
</g>
<g >
<title>iommu_completion_wait.isra.0 (923,994 samples, 0.06%)</title><rect x="515.3" y="69" width="0.7" height="15.0" fill="rgb(225,94,22)" rx="2" ry="2" />
<text  x="518.29" y="79.5" ></text>
</g>
<g >
<title>scheduler_tick (924,347 samples, 0.06%)</title><rect x="863.8" y="101" width="0.8" height="15.0" fill="rgb(246,190,45)" rx="2" ry="2" />
<text  x="866.84" y="111.5" ></text>
</g>
<g >
<title>exc_page_fault (459,391 samples, 0.03%)</title><rect x="683.5" y="213" width="0.4" height="15.0" fill="rgb(212,35,8)" rx="2" ry="2" />
<text  x="686.53" y="223.5" ></text>
</g>
<g >
<title>delay_halt (924,347 samples, 0.06%)</title><rect x="863.8" y="53" width="0.8" height="15.0" fill="rgb(250,207,49)" rx="2" ry="2" />
<text  x="866.84" y="63.5" ></text>
</g>
<g >
<title>w2c_decode__webp__wasm_EmitFancyRGB (923,260 samples, 0.06%)</title><rect x="68.1" y="245" width="0.7" height="15.0" fill="rgb(223,86,20)" rx="2" ry="2" />
<text  x="71.10" y="255.5" ></text>
</g>
<g >
<title>balance_dirty_pages (924,000 samples, 0.06%)</title><rect x="27.5" y="101" width="0.8" height="15.0" fill="rgb(247,193,46)" rx="2" ry="2" />
<text  x="30.52" y="111.5" ></text>
</g>
<g >
<title>scheduler_tick (924,339 samples, 0.06%)</title><rect x="516.0" y="101" width="0.8" height="15.0" fill="rgb(246,190,45)" rx="2" ry="2" />
<text  x="519.03" y="111.5" ></text>
</g>
<g >
<title>call_timer_fn (923,994 samples, 0.06%)</title><rect x="515.3" y="133" width="0.7" height="15.0" fill="rgb(234,135,32)" rx="2" ry="2" />
<text  x="518.29" y="143.5" ></text>
</g>
<g >
<title>__hrtimer_run_queues (924,339 samples, 0.06%)</title><rect x="516.0" y="165" width="0.8" height="15.0" fill="rgb(237,150,35)" rx="2" ry="2" />
<text  x="519.03" y="175.5" ></text>
</g>
<g >
<title>w2c_decode__webp__wasm_VE4_C (1,848,003 samples, 0.13%)</title><rect x="1181.2" y="245" width="1.4" height="15.0" fill="rgb(242,174,41)" rx="2" ry="2" />
<text  x="1184.16" y="255.5" ></text>
</g>
</g>
</svg>
