<?xml version="1.0" standalone="no"?>
<!DOCTYPE svg PUBLIC "-//W3C//DTD SVG 1.1//EN" "http://www.w3.org/Graphics/SVG/1.1/DTD/svg11.dtd">
<svg version="1.1" width="1200" height="390" onload="init(evt)" viewBox="0 0 1200 390" xmlns="http://www.w3.org/2000/svg" xmlns:xlink="http://www.w3.org/1999/xlink">
<!-- Flame graph stack visualization. See https://github.com/brendangregg/FlameGraph for latest version, and http://www.brendangregg.com/flamegraphs.html for examples. -->
<!-- NOTES:  -->
<defs>
	<linearGradient id="background" y1="0" y2="1" x1="0" x2="0" >
		<stop stop-color="#eeeeee" offset="5%" />
		<stop stop-color="#eeeeb0" offset="95%" />
	</linearGradient>
</defs>
<style type="text/css">
	text { font-family:Verdana; font-size:12px; fill:rgb(0,0,0); }
	#search, #ignorecase { opacity:0.1; cursor:pointer; }
	#search:hover, #search.show, #ignorecase:hover, #ignorecase.show { opacity:1; }
	#subtitle { text-anchor:middle; font-color:rgb(160,160,160); }
	#title { text-anchor:middle; font-size:17px}
	#unzoom { cursor:pointer; }
	#frames > *:hover { stroke:black; stroke-width:0.5; cursor:pointer; }
	.hide { display:none; }
	.parent { opacity:0.5; }
</style>
<script type="text/ecmascript">
<![CDATA[
	"use strict";
	var details, searchbtn, unzoombtn, matchedtxt, svg, searching, currentSearchTerm, ignorecase, ignorecaseBtn;
	function init(evt) {
		details = document.getElementById("details").firstChild;
		searchbtn = document.getElementById("search");
		ignorecaseBtn = document.getElementById("ignorecase");
		unzoombtn = document.getElementById("unzoom");
		matchedtxt = document.getElementById("matched");
		svg = document.getElementsByTagName("svg")[0];
		searching = 0;
		currentSearchTerm = null;

		// use GET parameters to restore a flamegraphs state.
		var params = get_params();
		if (params.x && params.y)
			zoom(find_group(document.querySelector('[x="' + params.x + '"][y="' + params.y + '"]')));
                if (params.s) search(params.s);
	}

	// event listeners
	window.addEventListener("click", function(e) {
		var target = find_group(e.target);
		if (target) {
			if (target.nodeName == "a") {
				if (e.ctrlKey === false) return;
				e.preventDefault();
			}
			if (target.classList.contains("parent")) unzoom(true);
			zoom(target);
			if (!document.querySelector('.parent')) {
				// we have basically done a clearzoom so clear the url
				var params = get_params();
				if (params.x) delete params.x;
				if (params.y) delete params.y;
				history.replaceState(null, null, parse_params(params));
				unzoombtn.classList.add("hide");
				return;
			}

			// set parameters for zoom state
			var el = target.querySelector("rect");
			if (el && el.attributes && el.attributes.y && el.attributes._orig_x) {
				var params = get_params()
				params.x = el.attributes._orig_x.value;
				params.y = el.attributes.y.value;
				history.replaceState(null, null, parse_params(params));
			}
		}
		else if (e.target.id == "unzoom") clearzoom();
		else if (e.target.id == "search") search_prompt();
		else if (e.target.id == "ignorecase") toggle_ignorecase();
	}, false)

	// mouse-over for info
	// show
	window.addEventListener("mouseover", function(e) {
		var target = find_group(e.target);
		if (target) details.nodeValue = "Function: " + g_to_text(target);
	}, false)

	// clear
	window.addEventListener("mouseout", function(e) {
		var target = find_group(e.target);
		if (target) details.nodeValue = ' ';
	}, false)

	// ctrl-F for search
	// ctrl-I to toggle case-sensitive search
	window.addEventListener("keydown",function (e) {
		if (e.keyCode === 114 || (e.ctrlKey && e.keyCode === 70)) {
			e.preventDefault();
			search_prompt();
		}
		else if (e.ctrlKey && e.keyCode === 73) {
			e.preventDefault();
			toggle_ignorecase();
		}
	}, false)

	// functions
	function get_params() {
		var params = {};
		var paramsarr = window.location.search.substr(1).split('&');
		for (var i = 0; i < paramsarr.length; ++i) {
			var tmp = paramsarr[i].split("=");
			if (!tmp[0] || !tmp[1]) continue;
			params[tmp[0]]  = decodeURIComponent(tmp[1]);
		}
		return params;
	}
	function parse_params(params) {
		var uri = "?";
		for (var key in params) {
			uri += key + '=' + encodeURIComponent(params[key]) + '&';
		}
		if (uri.slice(-1) == "&")
			uri = uri.substring(0, uri.length - 1);
		if (uri == '?')
			uri = window.location.href.split('?')[0];
		return uri;
	}
	function find_child(node, selector) {
		var children = node.querySelectorAll(selector);
		if (children.length) return children[0];
	}
	function find_group(node) {
		var parent = node.parentElement;
		if (!parent) return;
		if (parent.id == "frames") return node;
		return find_group(parent);
	}
	function orig_save(e, attr, val) {
		if (e.attributes["_orig_" + attr] != undefined) return;
		if (e.attributes[attr] == undefined) return;
		if (val == undefined) val = e.attributes[attr].value;
		e.setAttribute("_orig_" + attr, val);
	}
	function orig_load(e, attr) {
		if (e.attributes["_orig_"+attr] == undefined) return;
		e.attributes[attr].value = e.attributes["_orig_" + attr].value;
		e.removeAttribute("_orig_"+attr);
	}
	function g_to_text(e) {
		var text = find_child(e, "title").firstChild.nodeValue;
		return (text)
	}
	function g_to_func(e) {
		var func = g_to_text(e);
		// if there's any manipulation we want to do to the function
		// name before it's searched, do it here before returning.
		return (func);
	}
	function update_text(e) {
		var r = find_child(e, "rect");
		var t = find_child(e, "text");
		var w = parseFloat(r.attributes.width.value) -3;
		var txt = find_child(e, "title").textContent.replace(/\([^(]*\)$/,"");
		t.attributes.x.value = parseFloat(r.attributes.x.value) + 3;

		// Smaller than this size won't fit anything
		if (w < 2 * 12 * 0.59) {
			t.textContent = "";
			return;
		}

		t.textContent = txt;
		var sl = t.getSubStringLength(0, txt.length);
		// check if only whitespace or if we can fit the entire string into width w
		if (/^ *$/.test(txt) || sl < w)
			return;

		// this isn't perfect, but gives a good starting point
		// and avoids calling getSubStringLength too often
		var start = Math.floor((w/sl) * txt.length);
		for (var x = start; x > 0; x = x-2) {
			if (t.getSubStringLength(0, x + 2) <= w) {
				t.textContent = txt.substring(0, x) + "..";
				return;
			}
		}
		t.textContent = "";
	}

	// zoom
	function zoom_reset(e) {
		if (e.attributes != undefined) {
			orig_load(e, "x");
			orig_load(e, "width");
		}
		if (e.childNodes == undefined) return;
		for (var i = 0, c = e.childNodes; i < c.length; i++) {
			zoom_reset(c[i]);
		}
	}
	function zoom_child(e, x, ratio) {
		if (e.attributes != undefined) {
			if (e.attributes.x != undefined) {
				orig_save(e, "x");
				e.attributes.x.value = (parseFloat(e.attributes.x.value) - x - 10) * ratio + 10;
				if (e.tagName == "text")
					e.attributes.x.value = find_child(e.parentNode, "rect[x]").attributes.x.value + 3;
			}
			if (e.attributes.width != undefined) {
				orig_save(e, "width");
				e.attributes.width.value = parseFloat(e.attributes.width.value) * ratio;
			}
		}

		if (e.childNodes == undefined) return;
		for (var i = 0, c = e.childNodes; i < c.length; i++) {
			zoom_child(c[i], x - 10, ratio);
		}
	}
	function zoom_parent(e) {
		if (e.attributes) {
			if (e.attributes.x != undefined) {
				orig_save(e, "x");
				e.attributes.x.value = 10;
			}
			if (e.attributes.width != undefined) {
				orig_save(e, "width");
				e.attributes.width.value = parseInt(svg.width.baseVal.value) - (10 * 2);
			}
		}
		if (e.childNodes == undefined) return;
		for (var i = 0, c = e.childNodes; i < c.length; i++) {
			zoom_parent(c[i]);
		}
	}
	function zoom(node) {
		var attr = find_child(node, "rect").attributes;
		var width = parseFloat(attr.width.value);
		var xmin = parseFloat(attr.x.value);
		var xmax = parseFloat(xmin + width);
		var ymin = parseFloat(attr.y.value);
		var ratio = (svg.width.baseVal.value - 2 * 10) / width;

		// XXX: Workaround for JavaScript float issues (fix me)
		var fudge = 0.0001;

		unzoombtn.classList.remove("hide");

		var el = document.getElementById("frames").children;
		for (var i = 0; i < el.length; i++) {
			var e = el[i];
			var a = find_child(e, "rect").attributes;
			var ex = parseFloat(a.x.value);
			var ew = parseFloat(a.width.value);
			var upstack;
			// Is it an ancestor
			if (0 == 0) {
				upstack = parseFloat(a.y.value) > ymin;
			} else {
				upstack = parseFloat(a.y.value) < ymin;
			}
			if (upstack) {
				// Direct ancestor
				if (ex <= xmin && (ex+ew+fudge) >= xmax) {
					e.classList.add("parent");
					zoom_parent(e);
					update_text(e);
				}
				// not in current path
				else
					e.classList.add("hide");
			}
			// Children maybe
			else {
				// no common path
				if (ex < xmin || ex + fudge >= xmax) {
					e.classList.add("hide");
				}
				else {
					zoom_child(e, xmin, ratio);
					update_text(e);
				}
			}
		}
		search();
	}
	function unzoom(dont_update_text) {
		unzoombtn.classList.add("hide");
		var el = document.getElementById("frames").children;
		for(var i = 0; i < el.length; i++) {
			el[i].classList.remove("parent");
			el[i].classList.remove("hide");
			zoom_reset(el[i]);
			if(!dont_update_text) update_text(el[i]);
		}
		search();
	}
	function clearzoom() {
		unzoom();

		// remove zoom state
		var params = get_params();
		if (params.x) delete params.x;
		if (params.y) delete params.y;
		history.replaceState(null, null, parse_params(params));
	}

	// search
	function toggle_ignorecase() {
		ignorecase = !ignorecase;
		if (ignorecase) {
			ignorecaseBtn.classList.add("show");
		} else {
			ignorecaseBtn.classList.remove("show");
		}
		reset_search();
		search();
	}
	function reset_search() {
		var el = document.querySelectorAll("#frames rect");
		for (var i = 0; i < el.length; i++) {
			orig_load(el[i], "fill")
		}
		var params = get_params();
		delete params.s;
		history.replaceState(null, null, parse_params(params));
	}
	function search_prompt() {
		if (!searching) {
			var term = prompt("Enter a search term (regexp " +
			    "allowed, eg: ^ext4_)"
			    + (ignorecase ? ", ignoring case" : "")
			    + "\nPress Ctrl-i to toggle case sensitivity", "");
			if (term != null) search(term);
		} else {
			reset_search();
			searching = 0;
			currentSearchTerm = null;
			searchbtn.classList.remove("show");
			searchbtn.firstChild.nodeValue = "Search"
			matchedtxt.classList.add("hide");
			matchedtxt.firstChild.nodeValue = ""
		}
	}
	function search(term) {
		if (term) currentSearchTerm = term;

		var re = new RegExp(currentSearchTerm, ignorecase ? 'i' : '');
		var el = document.getElementById("frames").children;
		var matches = new Object();
		var maxwidth = 0;
		for (var i = 0; i < el.length; i++) {
			var e = el[i];
			var func = g_to_func(e);
			var rect = find_child(e, "rect");
			if (func == null || rect == null)
				continue;

			// Save max width. Only works as we have a root frame
			var w = parseFloat(rect.attributes.width.value);
			if (w > maxwidth)
				maxwidth = w;

			if (func.match(re)) {
				// highlight
				var x = parseFloat(rect.attributes.x.value);
				orig_save(rect, "fill");
				rect.attributes.fill.value = "rgb(230,0,230)";

				// remember matches
				if (matches[x] == undefined) {
					matches[x] = w;
				} else {
					if (w > matches[x]) {
						// overwrite with parent
						matches[x] = w;
					}
				}
				searching = 1;
			}
		}
		if (!searching)
			return;
		var params = get_params();
		params.s = currentSearchTerm;
		history.replaceState(null, null, parse_params(params));

		searchbtn.classList.add("show");
		searchbtn.firstChild.nodeValue = "Reset Search";

		// calculate percent matched, excluding vertical overlap
		var count = 0;
		var lastx = -1;
		var lastw = 0;
		var keys = Array();
		for (k in matches) {
			if (matches.hasOwnProperty(k))
				keys.push(k);
		}
		// sort the matched frames by their x location
		// ascending, then width descending
		keys.sort(function(a, b){
			return a - b;
		});
		// Step through frames saving only the biggest bottom-up frames
		// thanks to the sort order. This relies on the tree property
		// where children are always smaller than their parents.
		var fudge = 0.0001;	// JavaScript floating point
		for (var k in keys) {
			var x = parseFloat(keys[k]);
			var w = matches[keys[k]];
			if (x >= lastx + lastw - fudge) {
				count += w;
				lastx = x;
				lastw = w;
			}
		}
		// display matched percent
		matchedtxt.classList.remove("hide");
		var pct = 100 * count / maxwidth;
		if (pct != 100) pct = pct.toFixed(1)
		matchedtxt.firstChild.nodeValue = "Matched: " + pct + "%";
	}
]]>
</script>
<rect x="0.0" y="0" width="1200.0" height="390.0" fill="url(#background)"  />
<text id="title" x="600.00" y="24" >Flame Graph</text>
<text id="details" x="10.00" y="373" > </text>
<text id="unzoom" x="10.00" y="24" class="hide">Reset Zoom</text>
<text id="search" x="1090.00" y="24" >Search</text>
<text id="ignorecase" x="1174.00" y="24" >ic</text>
<text id="matched" x="1090.00" y="373" > </text>
<g id="frames">
<g >
<title>TransformWHT_C (2,769,369 samples, 0.24%)</title><rect x="632.0" y="293" width="2.9" height="15.0" fill="rgb(221,76,18)" rx="2" ry="2" />
<text  x="635.01" y="303.5" ></text>
</g>
<g >
<title>folio_batch_move_lru (840,433 samples, 0.07%)</title><rect x="1186.3" y="101" width="0.9" height="15.0" fill="rgb(207,10,2)" rx="2" ry="2" />
<text  x="1189.33" y="111.5" ></text>
</g>
<g >
<title>HD4_C (3,591,234 samples, 0.32%)</title><rect x="21.2" y="309" width="3.7" height="15.0" fill="rgb(226,100,23)" rx="2" ry="2" />
<text  x="24.22" y="319.5" ></text>
</g>
<g >
<title>decode_webp_nat (1,139,828,302 samples, 100.00%)</title><rect x="10.0" y="325" width="1180.0" height="15.0" fill="rgb(218,61,14)" rx="2" ry="2" />
<text  x="13.00" y="335.5" >decode_webp_nat</text>
</g>
<g >
<title>handle_mm_fault (360,114 samples, 0.03%)</title><rect x="1188.3" y="117" width="0.4" height="15.0" fill="rgb(234,135,32)" rx="2" ry="2" />
<text  x="1191.28" y="127.5" ></text>
</g>
<g >
<title>RD4_C (3,694,077 samples, 0.32%)</title><rect x="39.0" y="309" width="3.9" height="15.0" fill="rgb(212,32,7)" rx="2" ry="2" />
<text  x="42.04" y="319.5" ></text>
</g>
<g >
<title>entry_SYSCALL_64_after_hwframe (1,692,452 samples, 0.15%)</title><rect x="1185.5" y="277" width="1.7" height="15.0" fill="rgb(218,63,15)" rx="2" ry="2" />
<text  x="1188.45" y="287.5" ></text>
</g>
<g >
<title>[unknown] (426,587,579 samples, 37.42%)</title><rect x="743.8" y="293" width="441.7" height="15.0" fill="rgb(210,24,5)" rx="2" ry="2" />
<text  x="746.84" y="303.5" >[unknown]</text>
</g>
<g >
<title>balance_dirty_pages_ratelimited_flags (852,019 samples, 0.07%)</title><rect x="1185.5" y="181" width="0.8" height="15.0" fill="rgb(207,10,2)" rx="2" ry="2" />
<text  x="1188.45" y="191.5" ></text>
</g>
<g >
<title>do_user_addr_fault (865,846 samples, 0.08%)</title><rect x="1184.6" y="229" width="0.9" height="15.0" fill="rgb(228,108,25)" rx="2" ry="2" />
<text  x="1187.55" y="239.5" ></text>
</g>
<g >
<title>TransformDC_C (7,775,053 samples, 0.68%)</title><rect x="74.4" y="309" width="8.1" height="15.0" fill="rgb(219,65,15)" rx="2" ry="2" />
<text  x="77.42" y="319.5" ></text>
</g>
<g >
<title>DC8uv_C (3,740,766 samples, 0.33%)</title><rect x="391.5" y="293" width="3.9" height="15.0" fill="rgb(215,46,11)" rx="2" ry="2" />
<text  x="394.48" y="303.5" ></text>
</g>
<g >
<title>HE8uv_C (921,660 samples, 0.08%)</title><rect x="455.0" y="293" width="1.0" height="15.0" fill="rgb(226,98,23)" rx="2" ry="2" />
<text  x="458.02" y="303.5" ></text>
</g>
<g >
<title>finish_fault (360,114 samples, 0.03%)</title><rect x="1188.3" y="69" width="0.4" height="15.0" fill="rgb(220,72,17)" rx="2" ry="2" />
<text  x="1191.28" y="79.5" ></text>
</g>
<g >
<title>__rcu_read_unlock (454,377 samples, 0.04%)</title><rect x="1188.7" y="181" width="0.4" height="15.0" fill="rgb(253,224,53)" rx="2" ry="2" />
<text  x="1191.65" y="191.5" ></text>
</g>
<g >
<title>DC16NoTop_C (456,587 samples, 0.04%)</title><rect x="391.0" y="293" width="0.5" height="15.0" fill="rgb(225,94,22)" rx="2" ry="2" />
<text  x="394.01" y="303.5" ></text>
</g>
<g >
<title>page_add_new_anon_rmap (454,377 samples, 0.04%)</title><rect x="1188.7" y="197" width="0.4" height="15.0" fill="rgb(235,138,33)" rx="2" ry="2" />
<text  x="1191.65" y="207.5" ></text>
</g>
<g >
<title>mem_cgroup_wb_stats (852,019 samples, 0.07%)</title><rect x="1185.5" y="149" width="0.8" height="15.0" fill="rgb(211,28,6)" rx="2" ry="2" />
<text  x="1188.45" y="159.5" ></text>
</g>
<g >
<title>cgroup_rstat_flush_irqsafe (852,019 samples, 0.07%)</title><rect x="1185.5" y="117" width="0.8" height="15.0" fill="rgb(227,103,24)" rx="2" ry="2" />
<text  x="1188.45" y="127.5" ></text>
</g>
<g >
<title>do_syscall_64 (480,695 samples, 0.04%)</title><rect x="1188.2" y="277" width="0.5" height="15.0" fill="rgb(209,20,4)" rx="2" ry="2" />
<text  x="1191.16" y="287.5" ></text>
</g>
<g >
<title>__libc_write (1,692,452 samples, 0.15%)</title><rect x="1185.5" y="293" width="1.7" height="15.0" fill="rgb(238,154,37)" rx="2" ry="2" />
<text  x="1188.45" y="303.5" ></text>
</g>
<g >
<title>TM16_C (923,349 samples, 0.08%)</title><rect x="490.0" y="293" width="0.9" height="15.0" fill="rgb(211,30,7)" rx="2" ry="2" />
<text  x="492.98" y="303.5" ></text>
</g>
<g >
<title>do_fault (360,114 samples, 0.03%)</title><rect x="1188.3" y="85" width="0.4" height="15.0" fill="rgb(248,200,47)" rx="2" ry="2" />
<text  x="1191.28" y="95.5" ></text>
</g>
<g >
<title>SimpleVFilter16_C (10,778,379 samples, 0.95%)</title><rect x="48.3" y="309" width="11.1" height="15.0" fill="rgb(237,149,35)" rx="2" ry="2" />
<text  x="51.26" y="319.5" ></text>
</g>
<g >
<title>folio_add_lru (360,114 samples, 0.03%)</title><rect x="1188.3" y="37" width="0.4" height="15.0" fill="rgb(208,17,4)" rx="2" ry="2" />
<text  x="1191.28" y="47.5" ></text>
</g>
<g >
<title>ksys_write (1,692,452 samples, 0.15%)</title><rect x="1185.5" y="245" width="1.7" height="15.0" fill="rgb(205,4,1)" rx="2" ry="2" />
<text  x="1188.45" y="255.5" ></text>
</g>
<g >
<title>VE8uv_C (856,285 samples, 0.08%)</title><rect x="634.9" y="293" width="0.9" height="15.0" fill="rgb(235,142,34)" rx="2" ry="2" />
<text  x="637.88" y="303.5" ></text>
</g>
<g >
<title>TransformTwo_C (923,690 samples, 0.08%)</title><rect x="630.1" y="293" width="1.0" height="15.0" fill="rgb(212,36,8)" rx="2" ry="2" />
<text  x="633.10" y="303.5" ></text>
</g>
<g >
<title>asm_exc_page_fault (454,377 samples, 0.04%)</title><rect x="1188.7" y="293" width="0.4" height="15.0" fill="rgb(225,93,22)" rx="2" ry="2" />
<text  x="1191.65" y="303.5" ></text>
</g>
<g >
<title>exc_page_fault (865,846 samples, 0.08%)</title><rect x="1184.6" y="245" width="0.9" height="15.0" fill="rgb(212,35,8)" rx="2" ry="2" />
<text  x="1187.55" y="255.5" ></text>
</g>
<g >
<title>do_set_pte (360,114 samples, 0.03%)</title><rect x="1188.3" y="53" width="0.4" height="15.0" fill="rgb(253,221,52)" rx="2" ry="2" />
<text  x="1191.28" y="63.5" ></text>
</g>
<g >
<title>asm_exc_page_fault (446,590 samples, 0.04%)</title><rect x="365.0" y="293" width="0.4" height="15.0" fill="rgb(225,93,22)" rx="2" ry="2" />
<text  x="367.98" y="303.5" ></text>
</g>
<g >
<title>VP8ParseIntraModeRow (7,259,550 samples, 0.64%)</title><rect x="379.8" y="309" width="7.5" height="15.0" fill="rgb(231,121,29)" rx="2" ry="2" />
<text  x="382.78" y="319.5" ></text>
</g>
<g >
<title>TransformDCUV_C (923,452 samples, 0.08%)</title><rect x="496.7" y="293" width="0.9" height="15.0" fill="rgb(214,44,10)" rx="2" ry="2" />
<text  x="499.68" y="303.5" ></text>
</g>
<g >
<title>folio_mapping (840,433 samples, 0.07%)</title><rect x="1186.3" y="69" width="0.9" height="15.0" fill="rgb(248,201,48)" rx="2" ry="2" />
<text  x="1189.33" y="79.5" ></text>
</g>
<g >
<title>TM8uv_C (1,847,739 samples, 0.16%)</title><rect x="490.9" y="293" width="2.0" height="15.0" fill="rgb(247,193,46)" rx="2" ry="2" />
<text  x="493.94" y="303.5" ></text>
</g>
<g >
<title>HE4_C (3,699,738 samples, 0.32%)</title><rect x="24.9" y="309" width="3.9" height="15.0" fill="rgb(220,70,16)" rx="2" ry="2" />
<text  x="27.93" y="319.5" ></text>
</g>
<g >
<title>VP8ParseProba (2,665,389 samples, 0.23%)</title><rect x="387.3" y="309" width="2.8" height="15.0" fill="rgb(224,88,21)" rx="2" ry="2" />
<text  x="390.29" y="319.5" ></text>
</g>
<g >
<title>wp_page_copy (454,377 samples, 0.04%)</title><rect x="1188.7" y="213" width="0.4" height="15.0" fill="rgb(214,42,10)" rx="2" ry="2" />
<text  x="1191.65" y="223.5" ></text>
</g>
<g >
<title>VR4_C (922,404 samples, 0.08%)</title><rect x="390.1" y="309" width="0.9" height="15.0" fill="rgb(245,187,44)" rx="2" ry="2" />
<text  x="393.05" y="319.5" ></text>
</g>
<g >
<title>VP8ParseIntraModeRow (87,231,867 samples, 7.65%)</title><rect x="653.5" y="293" width="90.3" height="15.0" fill="rgb(231,121,29)" rx="2" ry="2" />
<text  x="656.54" y="303.5" >VP8ParseIn..</text>
</g>
<g >
<title>VP8DecodeMB (17,166,219 samples, 1.51%)</title><rect x="635.8" y="293" width="17.7" height="15.0" fill="rgb(208,18,4)" rx="2" ry="2" />
<text  x="638.77" y="303.5" ></text>
</g>
<g >
<title>VP8GetValue (923,826 samples, 0.08%)</title><rect x="378.8" y="309" width="1.0" height="15.0" fill="rgb(230,119,28)" rx="2" ry="2" />
<text  x="381.82" y="319.5" ></text>
</g>
<g >
<title>__handle_mm_fault (360,114 samples, 0.03%)</title><rect x="1188.3" y="101" width="0.4" height="15.0" fill="rgb(207,9,2)" rx="2" ry="2" />
<text  x="1191.28" y="111.5" ></text>
</g>
<g >
<title>TransformUV_C (920,400 samples, 0.08%)</title><rect x="631.1" y="293" width="0.9" height="15.0" fill="rgb(236,146,34)" rx="2" ry="2" />
<text  x="634.06" y="303.5" ></text>
</g>
<g >
<title>begin_new_exec (120,581 samples, 0.01%)</title><rect x="1188.2" y="197" width="0.1" height="15.0" fill="rgb(245,184,44)" rx="2" ry="2" />
<text  x="1191.16" y="207.5" ></text>
</g>
<g >
<title>HU4_C (7,195,620 samples, 0.63%)</title><rect x="28.8" y="309" width="7.4" height="15.0" fill="rgb(216,54,13)" rx="2" ry="2" />
<text  x="31.76" y="319.5" ></text>
</g>
<g >
<title>pagecache_get_page (840,433 samples, 0.07%)</title><rect x="1186.3" y="165" width="0.9" height="15.0" fill="rgb(253,221,53)" rx="2" ry="2" />
<text  x="1189.33" y="175.5" ></text>
</g>
<g >
<title>__x64_sys_execve (480,695 samples, 0.04%)</title><rect x="1188.2" y="261" width="0.5" height="15.0" fill="rgb(247,193,46)" rx="2" ry="2" />
<text  x="1191.16" y="271.5" ></text>
</g>
<g >
<title>folio_add_lru (840,433 samples, 0.07%)</title><rect x="1186.3" y="117" width="0.9" height="15.0" fill="rgb(208,17,4)" rx="2" ry="2" />
<text  x="1189.33" y="127.5" ></text>
</g>
<g >
<title>exc_page_fault (454,377 samples, 0.04%)</title><rect x="1188.7" y="277" width="0.4" height="15.0" fill="rgb(212,35,8)" rx="2" ry="2" />
<text  x="1191.65" y="287.5" ></text>
</g>
<g >
<title>FinishRow (2,691,177 samples, 0.24%)</title><rect x="395.4" y="293" width="2.7" height="15.0" fill="rgb(213,41,9)" rx="2" ry="2" />
<text  x="398.35" y="303.5" ></text>
</g>
<g >
<title>LD4_C (2,730,674 samples, 0.24%)</title><rect x="36.2" y="309" width="2.8" height="15.0" fill="rgb(250,211,50)" rx="2" ry="2" />
<text  x="39.21" y="319.5" ></text>
</g>
<g >
<title>VE4_C (1,846,511 samples, 0.16%)</title><rect x="365.4" y="309" width="1.9" height="15.0" fill="rgb(229,114,27)" rx="2" ry="2" />
<text  x="368.44" y="319.5" ></text>
</g>
<g >
<title>__memmove_avx_unaligned_erms (922,538 samples, 0.08%)</title><rect x="1187.2" y="293" width="1.0" height="15.0" fill="rgb(205,0,0)" rx="2" ry="2" />
<text  x="1190.20" y="303.5" ></text>
</g>
<g >
<title>cgroup_rstat_flush_locked (852,019 samples, 0.07%)</title><rect x="1185.5" y="101" width="0.8" height="15.0" fill="rgb(209,19,4)" rx="2" ry="2" />
<text  x="1188.45" y="111.5" ></text>
</g>
<g >
<title>DC4_C (8,166,328 samples, 0.72%)</title><rect x="10.0" y="309" width="8.5" height="15.0" fill="rgb(209,18,4)" rx="2" ry="2" />
<text  x="13.00" y="319.5" ></text>
</g>
<g >
<title>do_syscall_64 (1,692,452 samples, 0.15%)</title><rect x="1185.5" y="261" width="1.7" height="15.0" fill="rgb(209,20,4)" rx="2" ry="2" />
<text  x="1188.45" y="271.5" ></text>
</g>
<g >
<title>TM4_C (4,517,432 samples, 0.40%)</title><rect x="60.4" y="309" width="4.6" height="15.0" fill="rgb(241,165,39)" rx="2" ry="2" />
<text  x="63.37" y="319.5" ></text>
</g>
<g >
<title>__internal_atexit (454,377 samples, 0.04%)</title><rect x="1188.7" y="309" width="0.4" height="15.0" fill="rgb(229,111,26)" rx="2" ry="2" />
<text  x="1191.65" y="319.5" ></text>
</g>
<g >
<title>ext4_buffered_write_iter (1,692,452 samples, 0.15%)</title><rect x="1185.5" y="213" width="1.7" height="15.0" fill="rgb(213,40,9)" rx="2" ry="2" />
<text  x="1188.45" y="223.5" ></text>
</g>
<g >
<title>all (1,139,859,325 samples, 100%)</title><rect x="10.0" y="341" width="1180.0" height="15.0" fill="rgb(213,39,9)" rx="2" ry="2" />
<text  x="13.00" y="351.5" ></text>
</g>
<g >
<title>set_cred_ucounts (120,581 samples, 0.01%)</title><rect x="1188.2" y="181" width="0.1" height="15.0" fill="rgb(246,188,45)" rx="2" ry="2" />
<text  x="1191.16" y="191.5" ></text>
</g>
<g >
<title>TransformAC3_C (3,693,715 samples, 0.32%)</title><rect x="492.9" y="293" width="3.8" height="15.0" fill="rgb(209,19,4)" rx="2" ry="2" />
<text  x="495.85" y="303.5" ></text>
</g>
<g >
<title>asm_exc_page_fault (360,114 samples, 0.03%)</title><rect x="1188.3" y="165" width="0.4" height="15.0" fill="rgb(225,93,22)" rx="2" ry="2" />
<text  x="1191.28" y="175.5" ></text>
</g>
<g >
<title>handle_mm_fault (454,377 samples, 0.04%)</title><rect x="1188.7" y="245" width="0.4" height="15.0" fill="rgb(234,135,32)" rx="2" ry="2" />
<text  x="1191.65" y="255.5" ></text>
</g>
<g >
<title>__handle_mm_fault (865,846 samples, 0.08%)</title><rect x="1184.6" y="197" width="0.9" height="15.0" fill="rgb(207,9,2)" rx="2" ry="2" />
<text  x="1187.55" y="207.5" ></text>
</g>
<g >
<title>filemap_add_folio (840,433 samples, 0.07%)</title><rect x="1186.3" y="133" width="0.9" height="15.0" fill="rgb(207,9,2)" rx="2" ry="2" />
<text  x="1189.33" y="143.5" ></text>
</g>
<g >
<title>UpsampleRgbLinePair_C (273,339,722 samples, 23.98%)</title><rect x="82.5" y="309" width="282.9" height="15.0" fill="rgb(228,108,26)" rx="2" ry="2" />
<text  x="85.47" y="319.5" >UpsampleRgbLinePair_C</text>
</g>
<g >
<title>do_execveat_common.isra.0 (480,695 samples, 0.04%)</title><rect x="1188.2" y="245" width="0.5" height="15.0" fill="rgb(231,123,29)" rx="2" ry="2" />
<text  x="1191.16" y="255.5" ></text>
</g>
<g >
<title>SimpleHFilter16_C (10,005,433 samples, 0.88%)</title><rect x="478.7" y="293" width="10.3" height="15.0" fill="rgb(227,105,25)" rx="2" ry="2" />
<text  x="481.67" y="303.5" ></text>
</g>
<g >
<title>ext4_da_write_begin (840,433 samples, 0.07%)</title><rect x="1186.3" y="181" width="0.9" height="15.0" fill="rgb(211,32,7)" rx="2" ry="2" />
<text  x="1189.33" y="191.5" ></text>
</g>
<g >
<title>TransformOne_C (114,390,562 samples, 10.04%)</title><rect x="511.7" y="293" width="118.4" height="15.0" fill="rgb(218,59,14)" rx="2" ry="2" />
<text  x="514.68" y="303.5" >TransformOne_C</text>
</g>
<g >
<title>bprm_execve (480,695 samples, 0.04%)</title><rect x="1188.2" y="229" width="0.5" height="15.0" fill="rgb(218,61,14)" rx="2" ry="2" />
<text  x="1191.16" y="239.5" ></text>
</g>
<g >
<title>blk_cgroup_congested (865,846 samples, 0.08%)</title><rect x="1184.6" y="165" width="0.9" height="15.0" fill="rgb(250,211,50)" rx="2" ry="2" />
<text  x="1187.55" y="175.5" ></text>
</g>
<g >
<title>handle_mm_fault (865,846 samples, 0.08%)</title><rect x="1184.6" y="213" width="0.9" height="15.0" fill="rgb(234,135,32)" rx="2" ry="2" />
<text  x="1187.55" y="223.5" ></text>
</g>
<g >
<title>VP8DecodeMB (8,308,279 samples, 0.73%)</title><rect x="370.2" y="309" width="8.6" height="15.0" fill="rgb(208,18,4)" rx="2" ry="2" />
<text  x="373.22" y="319.5" ></text>
</g>
<g >
<title>load_elf_binary (480,695 samples, 0.04%)</title><rect x="1188.2" y="213" width="0.5" height="15.0" fill="rgb(223,83,20)" rx="2" ry="2" />
<text  x="1191.16" y="223.5" ></text>
</g>
<g >
<title>__mem_cgroup_flush_stats (852,019 samples, 0.07%)</title><rect x="1185.5" y="133" width="0.8" height="15.0" fill="rgb(208,16,3)" rx="2" ry="2" />
<text  x="1188.45" y="143.5" ></text>
</g>
<g >
<title>entry_SYSCALL_64_after_hwframe (480,695 samples, 0.04%)</title><rect x="1188.2" y="293" width="0.5" height="15.0" fill="rgb(218,63,15)" rx="2" ry="2" />
<text  x="1191.16" y="303.5" ></text>
</g>
<g >
<title>ReconstructRow (5,211,316 samples, 0.46%)</title><rect x="42.9" y="309" width="5.4" height="15.0" fill="rgb(225,93,22)" rx="2" ry="2" />
<text  x="45.86" y="319.5" ></text>
</g>
<g >
<title>GetCoeffsFast (3,692,139 samples, 0.32%)</title><rect x="398.1" y="293" width="3.9" height="15.0" fill="rgb(219,64,15)" rx="2" ry="2" />
<text  x="401.14" y="303.5" ></text>
</g>
<g >
<title>TransformDC_C (13,573,240 samples, 1.19%)</title><rect x="497.6" y="293" width="14.1" height="15.0" fill="rgb(219,65,15)" rx="2" ry="2" />
<text  x="500.63" y="303.5" ></text>
</g>
<g >
<title>clear_user_rep_good (360,114 samples, 0.03%)</title><rect x="1188.3" y="181" width="0.4" height="15.0" fill="rgb(224,89,21)" rx="2" ry="2" />
<text  x="1191.28" y="191.5" ></text>
</g>
<g >
<title>exc_page_fault (360,114 samples, 0.03%)</title><rect x="1188.3" y="149" width="0.4" height="15.0" fill="rgb(212,35,8)" rx="2" ry="2" />
<text  x="1191.28" y="159.5" ></text>
</g>
<g >
<title>GetCoeffsFast (2,668,716 samples, 0.23%)</title><rect x="18.5" y="309" width="2.7" height="15.0" fill="rgb(219,64,15)" rx="2" ry="2" />
<text  x="21.45" y="319.5" ></text>
</g>
<g >
<title>SimpleVFilter16i_C (922,947 samples, 0.08%)</title><rect x="59.4" y="309" width="1.0" height="15.0" fill="rgb(209,19,4)" rx="2" ry="2" />
<text  x="62.42" y="319.5" ></text>
</g>
<g >
<title>__memmove_avx_unaligned_erms (814,081 samples, 0.07%)</title><rect x="1189.1" y="309" width="0.9" height="15.0" fill="rgb(205,0,0)" rx="2" ry="2" />
<text  x="1192.13" y="319.5" ></text>
</g>
<g >
<title>do_user_addr_fault (454,377 samples, 0.04%)</title><rect x="1188.7" y="261" width="0.4" height="15.0" fill="rgb(228,108,25)" rx="2" ry="2" />
<text  x="1191.65" y="271.5" ></text>
</g>
<g >
<title>do_user_addr_fault (360,114 samples, 0.03%)</title><rect x="1188.3" y="133" width="0.4" height="15.0" fill="rgb(228,108,25)" rx="2" ry="2" />
<text  x="1191.28" y="143.5" ></text>
</g>
<g >
<title>__handle_mm_fault (454,377 samples, 0.04%)</title><rect x="1188.7" y="229" width="0.4" height="15.0" fill="rgb(207,9,2)" rx="2" ry="2" />
<text  x="1191.65" y="239.5" ></text>
</g>
<g >
<title>balance_dirty_pages (852,019 samples, 0.07%)</title><rect x="1185.5" y="165" width="0.8" height="15.0" fill="rgb(247,193,46)" rx="2" ry="2" />
<text  x="1188.45" y="175.5" ></text>
</g>
<g >
<title>lru_add_fn (840,433 samples, 0.07%)</title><rect x="1186.3" y="85" width="0.9" height="15.0" fill="rgb(208,14,3)" rx="2" ry="2" />
<text  x="1189.33" y="95.5" ></text>
</g>
<g >
<title>__memmove_avx_unaligned_erms (865,846 samples, 0.08%)</title><rect x="1184.6" y="277" width="0.9" height="15.0" fill="rgb(205,0,0)" rx="2" ry="2" />
<text  x="1187.55" y="287.5" ></text>
</g>
<g >
<title>IDecode (1,845,295 samples, 0.16%)</title><rect x="456.0" y="293" width="1.9" height="15.0" fill="rgb(245,185,44)" rx="2" ry="2" />
<text  x="458.98" y="303.5" ></text>
</g>
<g >
<title>ReconstructRow (20,075,703 samples, 1.76%)</title><rect x="457.9" y="293" width="20.8" height="15.0" fill="rgb(225,93,22)" rx="2" ry="2" />
<text  x="460.89" y="303.5" ></text>
</g>
<g >
<title>GetLargeValue (1,847,868 samples, 0.16%)</title><rect x="1182.6" y="277" width="2.0" height="15.0" fill="rgb(243,175,42)" rx="2" ry="2" />
<text  x="1185.64" y="287.5" ></text>
</g>
<g >
<title>VL4_C (2,772,063 samples, 0.24%)</title><rect x="367.3" y="309" width="2.9" height="15.0" fill="rgb(234,136,32)" rx="2" ry="2" />
<text  x="370.35" y="319.5" ></text>
</g>
<g >
<title>asm_exc_page_fault (865,846 samples, 0.08%)</title><rect x="1184.6" y="261" width="0.9" height="15.0" fill="rgb(225,93,22)" rx="2" ry="2" />
<text  x="1187.55" y="271.5" ></text>
</g>
<g >
<title>__filemap_get_folio (840,433 samples, 0.07%)</title><rect x="1186.3" y="149" width="0.9" height="15.0" fill="rgb(231,120,28)" rx="2" ry="2" />
<text  x="1189.33" y="159.5" ></text>
</g>
<g >
<title>generic_perform_write (1,692,452 samples, 0.15%)</title><rect x="1185.5" y="197" width="1.7" height="15.0" fill="rgb(236,146,35)" rx="2" ry="2" />
<text  x="1188.45" y="207.5" ></text>
</g>
<g >
<title>__cgroup_throttle_swaprate (865,846 samples, 0.08%)</title><rect x="1184.6" y="181" width="0.9" height="15.0" fill="rgb(221,73,17)" rx="2" ry="2" />
<text  x="1187.55" y="191.5" ></text>
</g>
<g >
<title>GetLargeValue (51,260,000 samples, 4.50%)</title><rect x="402.0" y="293" width="53.0" height="15.0" fill="rgb(243,175,42)" rx="2" ry="2" />
<text  x="404.96" y="303.5" >GetLa..</text>
</g>
<g >
<title>GetCoeffsFast (423,873,865 samples, 37.19%)</title><rect x="743.8" y="277" width="438.8" height="15.0" fill="rgb(219,64,15)" rx="2" ry="2" />
<text  x="746.84" y="287.5" >GetCoeffsFast</text>
</g>
<g >
<title>padzero (360,114 samples, 0.03%)</title><rect x="1188.3" y="197" width="0.4" height="15.0" fill="rgb(223,84,20)" rx="2" ry="2" />
<text  x="1191.28" y="207.5" ></text>
</g>
<g >
<title>TransformAC3_C (9,055,255 samples, 0.79%)</title><rect x="65.0" y="309" width="9.4" height="15.0" fill="rgb(209,19,4)" rx="2" ry="2" />
<text  x="68.05" y="319.5" ></text>
</g>
<g >
<title>SimpleVFilter16i_C (923,420 samples, 0.08%)</title><rect x="489.0" y="293" width="1.0" height="15.0" fill="rgb(209,19,4)" rx="2" ry="2" />
<text  x="492.03" y="303.5" ></text>
</g>
<g >
<title>[unknown] (770,515,331 samples, 67.60%)</title><rect x="391.0" y="309" width="797.7" height="15.0" fill="rgb(210,24,5)" rx="2" ry="2" />
<text  x="394.01" y="319.5" >[unknown]</text>
</g>
<g >
<title>vfs_write (1,692,452 samples, 0.15%)</title><rect x="1185.5" y="229" width="1.7" height="15.0" fill="rgb(250,209,50)" rx="2" ry="2" />
<text  x="1188.45" y="239.5" ></text>
</g>
</g>
</svg>
