<?xml version="1.0" standalone="no"?>
<!DOCTYPE svg PUBLIC "-//W3C//DTD SVG 1.1//EN" "http://www.w3.org/Graphics/SVG/1.1/DTD/svg11.dtd">
<svg version="1.1" width="1200" height="390" onload="init(evt)" viewBox="0 0 1200 390" xmlns="http://www.w3.org/2000/svg" xmlns:xlink="http://www.w3.org/1999/xlink">
<!-- Flame graph stack visualization. See https://github.com/brendangregg/FlameGraph for latest version, and http://www.brendangregg.com/flamegraphs.html for examples. -->
<!-- NOTES:  -->
<defs>
	<linearGradient id="background" y1="0" y2="1" x1="0" x2="0" >
		<stop stop-color="#eeeeee" offset="5%" />
		<stop stop-color="#eeeeb0" offset="95%" />
	</linearGradient>
</defs>
<style type="text/css">
	text { font-family:Verdana; font-size:12px; fill:rgb(0,0,0); }
	#search, #ignorecase { opacity:0.1; cursor:pointer; }
	#search:hover, #search.show, #ignorecase:hover, #ignorecase.show { opacity:1; }
	#subtitle { text-anchor:middle; font-color:rgb(160,160,160); }
	#title { text-anchor:middle; font-size:17px}
	#unzoom { cursor:pointer; }
	#frames > *:hover { stroke:black; stroke-width:0.5; cursor:pointer; }
	.hide { display:none; }
	.parent { opacity:0.5; }
</style>
<script type="text/ecmascript">
<![CDATA[
	"use strict";
	var details, searchbtn, unzoombtn, matchedtxt, svg, searching, currentSearchTerm, ignorecase, ignorecaseBtn;
	function init(evt) {
		details = document.getElementById("details").firstChild;
		searchbtn = document.getElementById("search");
		ignorecaseBtn = document.getElementById("ignorecase");
		unzoombtn = document.getElementById("unzoom");
		matchedtxt = document.getElementById("matched");
		svg = document.getElementsByTagName("svg")[0];
		searching = 0;
		currentSearchTerm = null;

		// use GET parameters to restore a flamegraphs state.
		var params = get_params();
		if (params.x && params.y)
			zoom(find_group(document.querySelector('[x="' + params.x + '"][y="' + params.y + '"]')));
                if (params.s) search(params.s);
	}

	// event listeners
	window.addEventListener("click", function(e) {
		var target = find_group(e.target);
		if (target) {
			if (target.nodeName == "a") {
				if (e.ctrlKey === false) return;
				e.preventDefault();
			}
			if (target.classList.contains("parent")) unzoom(true);
			zoom(target);
			if (!document.querySelector('.parent')) {
				// we have basically done a clearzoom so clear the url
				var params = get_params();
				if (params.x) delete params.x;
				if (params.y) delete params.y;
				history.replaceState(null, null, parse_params(params));
				unzoombtn.classList.add("hide");
				return;
			}

			// set parameters for zoom state
			var el = target.querySelector("rect");
			if (el && el.attributes && el.attributes.y && el.attributes._orig_x) {
				var params = get_params()
				params.x = el.attributes._orig_x.value;
				params.y = el.attributes.y.value;
				history.replaceState(null, null, parse_params(params));
			}
		}
		else if (e.target.id == "unzoom") clearzoom();
		else if (e.target.id == "search") search_prompt();
		else if (e.target.id == "ignorecase") toggle_ignorecase();
	}, false)

	// mouse-over for info
	// show
	window.addEventListener("mouseover", function(e) {
		var target = find_group(e.target);
		if (target) details.nodeValue = "Function: " + g_to_text(target);
	}, false)

	// clear
	window.addEventListener("mouseout", function(e) {
		var target = find_group(e.target);
		if (target) details.nodeValue = ' ';
	}, false)

	// ctrl-F for search
	// ctrl-I to toggle case-sensitive search
	window.addEventListener("keydown",function (e) {
		if (e.keyCode === 114 || (e.ctrlKey && e.keyCode === 70)) {
			e.preventDefault();
			search_prompt();
		}
		else if (e.ctrlKey && e.keyCode === 73) {
			e.preventDefault();
			toggle_ignorecase();
		}
	}, false)

	// functions
	function get_params() {
		var params = {};
		var paramsarr = window.location.search.substr(1).split('&');
		for (var i = 0; i < paramsarr.length; ++i) {
			var tmp = paramsarr[i].split("=");
			if (!tmp[0] || !tmp[1]) continue;
			params[tmp[0]]  = decodeURIComponent(tmp[1]);
		}
		return params;
	}
	function parse_params(params) {
		var uri = "?";
		for (var key in params) {
			uri += key + '=' + encodeURIComponent(params[key]) + '&';
		}
		if (uri.slice(-1) == "&")
			uri = uri.substring(0, uri.length - 1);
		if (uri == '?')
			uri = window.location.href.split('?')[0];
		return uri;
	}
	function find_child(node, selector) {
		var children = node.querySelectorAll(selector);
		if (children.length) return children[0];
	}
	function find_group(node) {
		var parent = node.parentElement;
		if (!parent) return;
		if (parent.id == "frames") return node;
		return find_group(parent);
	}
	function orig_save(e, attr, val) {
		if (e.attributes["_orig_" + attr] != undefined) return;
		if (e.attributes[attr] == undefined) return;
		if (val == undefined) val = e.attributes[attr].value;
		e.setAttribute("_orig_" + attr, val);
	}
	function orig_load(e, attr) {
		if (e.attributes["_orig_"+attr] == undefined) return;
		e.attributes[attr].value = e.attributes["_orig_" + attr].value;
		e.removeAttribute("_orig_"+attr);
	}
	function g_to_text(e) {
		var text = find_child(e, "title").firstChild.nodeValue;
		return (text)
	}
	function g_to_func(e) {
		var func = g_to_text(e);
		// if there's any manipulation we want to do to the function
		// name before it's searched, do it here before returning.
		return (func);
	}
	function update_text(e) {
		var r = find_child(e, "rect");
		var t = find_child(e, "text");
		var w = parseFloat(r.attributes.width.value) -3;
		var txt = find_child(e, "title").textContent.replace(/\([^(]*\)$/,"");
		t.attributes.x.value = parseFloat(r.attributes.x.value) + 3;

		// Smaller than this size won't fit anything
		if (w < 2 * 12 * 0.59) {
			t.textContent = "";
			return;
		}

		t.textContent = txt;
		var sl = t.getSubStringLength(0, txt.length);
		// check if only whitespace or if we can fit the entire string into width w
		if (/^ *$/.test(txt) || sl < w)
			return;

		// this isn't perfect, but gives a good starting point
		// and avoids calling getSubStringLength too often
		var start = Math.floor((w/sl) * txt.length);
		for (var x = start; x > 0; x = x-2) {
			if (t.getSubStringLength(0, x + 2) <= w) {
				t.textContent = txt.substring(0, x) + "..";
				return;
			}
		}
		t.textContent = "";
	}

	// zoom
	function zoom_reset(e) {
		if (e.attributes != undefined) {
			orig_load(e, "x");
			orig_load(e, "width");
		}
		if (e.childNodes == undefined) return;
		for (var i = 0, c = e.childNodes; i < c.length; i++) {
			zoom_reset(c[i]);
		}
	}
	function zoom_child(e, x, ratio) {
		if (e.attributes != undefined) {
			if (e.attributes.x != undefined) {
				orig_save(e, "x");
				e.attributes.x.value = (parseFloat(e.attributes.x.value) - x - 10) * ratio + 10;
				if (e.tagName == "text")
					e.attributes.x.value = find_child(e.parentNode, "rect[x]").attributes.x.value + 3;
			}
			if (e.attributes.width != undefined) {
				orig_save(e, "width");
				e.attributes.width.value = parseFloat(e.attributes.width.value) * ratio;
			}
		}

		if (e.childNodes == undefined) return;
		for (var i = 0, c = e.childNodes; i < c.length; i++) {
			zoom_child(c[i], x - 10, ratio);
		}
	}
	function zoom_parent(e) {
		if (e.attributes) {
			if (e.attributes.x != undefined) {
				orig_save(e, "x");
				e.attributes.x.value = 10;
			}
			if (e.attributes.width != undefined) {
				orig_save(e, "width");
				e.attributes.width.value = parseInt(svg.width.baseVal.value) - (10 * 2);
			}
		}
		if (e.childNodes == undefined) return;
		for (var i = 0, c = e.childNodes; i < c.length; i++) {
			zoom_parent(c[i]);
		}
	}
	function zoom(node) {
		var attr = find_child(node, "rect").attributes;
		var width = parseFloat(attr.width.value);
		var xmin = parseFloat(attr.x.value);
		var xmax = parseFloat(xmin + width);
		var ymin = parseFloat(attr.y.value);
		var ratio = (svg.width.baseVal.value - 2 * 10) / width;

		// XXX: Workaround for JavaScript float issues (fix me)
		var fudge = 0.0001;

		unzoombtn.classList.remove("hide");

		var el = document.getElementById("frames").children;
		for (var i = 0; i < el.length; i++) {
			var e = el[i];
			var a = find_child(e, "rect").attributes;
			var ex = parseFloat(a.x.value);
			var ew = parseFloat(a.width.value);
			var upstack;
			// Is it an ancestor
			if (0 == 0) {
				upstack = parseFloat(a.y.value) > ymin;
			} else {
				upstack = parseFloat(a.y.value) < ymin;
			}
			if (upstack) {
				// Direct ancestor
				if (ex <= xmin && (ex+ew+fudge) >= xmax) {
					e.classList.add("parent");
					zoom_parent(e);
					update_text(e);
				}
				// not in current path
				else
					e.classList.add("hide");
			}
			// Children maybe
			else {
				// no common path
				if (ex < xmin || ex + fudge >= xmax) {
					e.classList.add("hide");
				}
				else {
					zoom_child(e, xmin, ratio);
					update_text(e);
				}
			}
		}
		search();
	}
	function unzoom(dont_update_text) {
		unzoombtn.classList.add("hide");
		var el = document.getElementById("frames").children;
		for(var i = 0; i < el.length; i++) {
			el[i].classList.remove("parent");
			el[i].classList.remove("hide");
			zoom_reset(el[i]);
			if(!dont_update_text) update_text(el[i]);
		}
		search();
	}
	function clearzoom() {
		unzoom();

		// remove zoom state
		var params = get_params();
		if (params.x) delete params.x;
		if (params.y) delete params.y;
		history.replaceState(null, null, parse_params(params));
	}

	// search
	function toggle_ignorecase() {
		ignorecase = !ignorecase;
		if (ignorecase) {
			ignorecaseBtn.classList.add("show");
		} else {
			ignorecaseBtn.classList.remove("show");
		}
		reset_search();
		search();
	}
	function reset_search() {
		var el = document.querySelectorAll("#frames rect");
		for (var i = 0; i < el.length; i++) {
			orig_load(el[i], "fill")
		}
		var params = get_params();
		delete params.s;
		history.replaceState(null, null, parse_params(params));
	}
	function search_prompt() {
		if (!searching) {
			var term = prompt("Enter a search term (regexp " +
			    "allowed, eg: ^ext4_)"
			    + (ignorecase ? ", ignoring case" : "")
			    + "\nPress Ctrl-i to toggle case sensitivity", "");
			if (term != null) search(term);
		} else {
			reset_search();
			searching = 0;
			currentSearchTerm = null;
			searchbtn.classList.remove("show");
			searchbtn.firstChild.nodeValue = "Search"
			matchedtxt.classList.add("hide");
			matchedtxt.firstChild.nodeValue = ""
		}
	}
	function search(term) {
		if (term) currentSearchTerm = term;

		var re = new RegExp(currentSearchTerm, ignorecase ? 'i' : '');
		var el = document.getElementById("frames").children;
		var matches = new Object();
		var maxwidth = 0;
		for (var i = 0; i < el.length; i++) {
			var e = el[i];
			var func = g_to_func(e);
			var rect = find_child(e, "rect");
			if (func == null || rect == null)
				continue;

			// Save max width. Only works as we have a root frame
			var w = parseFloat(rect.attributes.width.value);
			if (w > maxwidth)
				maxwidth = w;

			if (func.match(re)) {
				// highlight
				var x = parseFloat(rect.attributes.x.value);
				orig_save(rect, "fill");
				rect.attributes.fill.value = "rgb(230,0,230)";

				// remember matches
				if (matches[x] == undefined) {
					matches[x] = w;
				} else {
					if (w > matches[x]) {
						// overwrite with parent
						matches[x] = w;
					}
				}
				searching = 1;
			}
		}
		if (!searching)
			return;
		var params = get_params();
		params.s = currentSearchTerm;
		history.replaceState(null, null, parse_params(params));

		searchbtn.classList.add("show");
		searchbtn.firstChild.nodeValue = "Reset Search";

		// calculate percent matched, excluding vertical overlap
		var count = 0;
		var lastx = -1;
		var lastw = 0;
		var keys = Array();
		for (k in matches) {
			if (matches.hasOwnProperty(k))
				keys.push(k);
		}
		// sort the matched frames by their x location
		// ascending, then width descending
		keys.sort(function(a, b){
			return a - b;
		});
		// Step through frames saving only the biggest bottom-up frames
		// thanks to the sort order. This relies on the tree property
		// where children are always smaller than their parents.
		var fudge = 0.0001;	// JavaScript floating point
		for (var k in keys) {
			var x = parseFloat(keys[k]);
			var w = matches[keys[k]];
			if (x >= lastx + lastw - fudge) {
				count += w;
				lastx = x;
				lastw = w;
			}
		}
		// display matched percent
		matchedtxt.classList.remove("hide");
		var pct = 100 * count / maxwidth;
		if (pct != 100) pct = pct.toFixed(1)
		matchedtxt.firstChild.nodeValue = "Matched: " + pct + "%";
	}
]]>
</script>
<rect x="0.0" y="0" width="1200.0" height="390.0" fill="url(#background)"  />
<text id="title" x="600.00" y="24" >Flame Graph</text>
<text id="details" x="10.00" y="373" > </text>
<text id="unzoom" x="10.00" y="24" class="hide">Reset Zoom</text>
<text id="search" x="1090.00" y="24" >Search</text>
<text id="ignorecase" x="1174.00" y="24" >ic</text>
<text id="matched" x="1090.00" y="373" > </text>
<g id="frames">
<g >
<title>do_syscall_64 (484,563 samples, 0.07%)</title><rect x="1189.1" y="277" width="0.8" height="15.0" fill="rgb(209,20,4)" rx="2" ry="2" />
<text  x="1192.10" y="287.5" ></text>
</g>
<g >
<title>__rcu_read_unlock (921,077 samples, 0.14%)</title><rect x="1181.9" y="37" width="1.6" height="15.0" fill="rgb(253,224,53)" rx="2" ry="2" />
<text  x="1184.85" y="47.5" ></text>
</g>
<g >
<title>VP8LTransformColorInverse_C (92,916,576 samples, 13.75%)</title><rect x="316.7" y="309" width="162.3" height="15.0" fill="rgb(236,145,34)" rx="2" ry="2" />
<text  x="319.68" y="319.5" >VP8LTransformColorIn..</text>
</g>
<g >
<title>ext4_mb_normalize_request.constprop.0 (921,077 samples, 0.14%)</title><rect x="1181.9" y="53" width="1.6" height="15.0" fill="rgb(227,103,24)" rx="2" ry="2" />
<text  x="1184.85" y="63.5" ></text>
</g>
<g >
<title>__handle_mm_fault (1,152,239 samples, 0.17%)</title><rect x="1132.9" y="197" width="2.0" height="15.0" fill="rgb(207,9,2)" rx="2" ry="2" />
<text  x="1135.91" y="207.5" ></text>
</g>
<g >
<title>DecodeImageData (5,377,888 samples, 0.80%)</title><rect x="65.1" y="309" width="9.4" height="15.0" fill="rgb(254,229,54)" rx="2" ry="2" />
<text  x="68.11" y="319.5" ></text>
</g>
<g >
<title>mas_wr_modify (365,132 samples, 0.05%)</title><rect x="1189.3" y="117" width="0.6" height="15.0" fill="rgb(221,75,18)" rx="2" ry="2" />
<text  x="1192.31" y="127.5" ></text>
</g>
<g >
<title>ReadHuffmanCodesHelper (3,608,124 samples, 0.53%)</title><rect x="1135.8" y="277" width="6.3" height="15.0" fill="rgb(209,22,5)" rx="2" ry="2" />
<text  x="1138.79" y="287.5" ></text>
</g>
<g >
<title>ext4_mb_new_blocks (921,077 samples, 0.14%)</title><rect x="1181.9" y="69" width="1.6" height="15.0" fill="rgb(219,65,15)" rx="2" ry="2" />
<text  x="1184.85" y="79.5" ></text>
</g>
<g >
<title>queue_work_on (462,121 samples, 0.07%)</title><rect x="1186.7" y="165" width="0.8" height="15.0" fill="rgb(248,200,48)" rx="2" ry="2" />
<text  x="1189.68" y="175.5" ></text>
</g>
<g >
<title>ttwu_queue_wakelist (462,121 samples, 0.07%)</title><rect x="1186.7" y="117" width="0.8" height="15.0" fill="rgb(209,19,4)" rx="2" ry="2" />
<text  x="1189.68" y="127.5" ></text>
</g>
<g >
<title>VP8LReadBits (2,554,886 samples, 0.38%)</title><rect x="1171.1" y="277" width="4.4" height="15.0" fill="rgb(236,146,35)" rx="2" ry="2" />
<text  x="1174.06" y="287.5" ></text>
</g>
<g >
<title>__libc_write (2,304,098 samples, 0.34%)</title><rect x="1183.5" y="293" width="4.0" height="15.0" fill="rgb(238,154,37)" rx="2" ry="2" />
<text  x="1186.46" y="303.5" ></text>
</g>
<g >
<title>ShiftBytes (603,303 samples, 0.09%)</title><rect x="480.4" y="293" width="1.0" height="15.0" fill="rgb(216,52,12)" rx="2" ry="2" />
<text  x="483.37" y="303.5" ></text>
</g>
<g >
<title>cgroup_rstat_flush_irqsafe (1,841,977 samples, 0.27%)</title><rect x="1183.5" y="117" width="3.2" height="15.0" fill="rgb(227,103,24)" rx="2" ry="2" />
<text  x="1186.46" y="127.5" ></text>
</g>
<g >
<title>PredictorAdd2_C (5,169,064 samples, 0.77%)</title><rect x="254.4" y="309" width="9.0" height="15.0" fill="rgb(209,22,5)" rx="2" ry="2" />
<text  x="257.39" y="319.5" ></text>
</g>
<g >
<title>exc_page_fault (1,152,239 samples, 0.17%)</title><rect x="1132.9" y="245" width="2.0" height="15.0" fill="rgb(212,35,8)" rx="2" ry="2" />
<text  x="1135.91" y="255.5" ></text>
</g>
<g >
<title>__fput (921,077 samples, 0.14%)</title><rect x="1181.9" y="197" width="1.6" height="15.0" fill="rgb(248,200,47)" rx="2" ry="2" />
<text  x="1184.85" y="207.5" ></text>
</g>
<g >
<title>balance_dirty_pages_ratelimited_flags (1,841,977 samples, 0.27%)</title><rect x="1183.5" y="181" width="3.2" height="15.0" fill="rgb(207,10,2)" rx="2" ry="2" />
<text  x="1186.46" y="191.5" ></text>
</g>
<g >
<title>ext4_map_blocks (921,077 samples, 0.14%)</title><rect x="1181.9" y="101" width="1.6" height="15.0" fill="rgb(247,196,46)" rx="2" ry="2" />
<text  x="1184.85" y="111.5" ></text>
</g>
<g >
<title>BuildHuffmanTable (31,555,069 samples, 4.67%)</title><rect x="10.0" y="309" width="55.1" height="15.0" fill="rgb(226,101,24)" rx="2" ry="2" />
<text  x="13.00" y="319.5" >Build..</text>
</g>
<g >
<title>PredictorAdd5_C (6,433,273 samples, 0.95%)</title><rect x="267.7" y="309" width="11.2" height="15.0" fill="rgb(240,163,39)" rx="2" ry="2" />
<text  x="270.66" y="319.5" ></text>
</g>
<g >
<title>try_to_wake_up (462,121 samples, 0.07%)</title><rect x="1186.7" y="133" width="0.8" height="15.0" fill="rgb(220,70,16)" rx="2" ry="2" />
<text  x="1189.68" y="143.5" ></text>
</g>
<g >
<title>__mem_cgroup_flush_stats (1,841,977 samples, 0.27%)</title><rect x="1183.5" y="133" width="3.2" height="15.0" fill="rgb(208,16,3)" rx="2" ry="2" />
<text  x="1186.46" y="143.5" ></text>
</g>
<g >
<title>charge_memcg (699,617 samples, 0.10%)</title><rect x="1132.9" y="165" width="1.2" height="15.0" fill="rgb(242,170,40)" rx="2" ry="2" />
<text  x="1135.91" y="175.5" ></text>
</g>
<g >
<title>VP8LReadBits (1,709,907 samples, 0.25%)</title><rect x="595.6" y="293" width="2.9" height="15.0" fill="rgb(236,146,35)" rx="2" ry="2" />
<text  x="598.56" y="303.5" ></text>
</g>
<g >
<title>do_syscall_64 (921,077 samples, 0.14%)</title><rect x="1181.9" y="261" width="1.6" height="15.0" fill="rgb(209,20,4)" rx="2" ry="2" />
<text  x="1184.85" y="271.5" ></text>
</g>
<g >
<title>__close_nocancel (921,077 samples, 0.14%)</title><rect x="1181.9" y="293" width="1.6" height="15.0" fill="rgb(228,109,26)" rx="2" ry="2" />
<text  x="1184.85" y="303.5" ></text>
</g>
<g >
<title>__install_special_mapping (365,132 samples, 0.05%)</title><rect x="1189.3" y="181" width="0.6" height="15.0" fill="rgb(212,35,8)" rx="2" ry="2" />
<text  x="1192.31" y="191.5" ></text>
</g>
<g >
<title>ext4_buffered_write_iter (1,841,977 samples, 0.27%)</title><rect x="1183.5" y="213" width="3.2" height="15.0" fill="rgb(213,40,9)" rx="2" ry="2" />
<text  x="1186.46" y="223.5" ></text>
</g>
<g >
<title>PredictorAdd13_C (42,190,182 samples, 6.24%)</title><rect x="139.5" y="309" width="73.7" height="15.0" fill="rgb(236,146,35)" rx="2" ry="2" />
<text  x="142.48" y="319.5" >Predicto..</text>
</g>
<g >
<title>__alloc_pages (452,622 samples, 0.07%)</title><rect x="1134.1" y="149" width="0.8" height="15.0" fill="rgb(233,129,30)" rx="2" ry="2" />
<text  x="1137.13" y="159.5" ></text>
</g>
<g >
<title>VP8LTransformColorInverse_C (1,793,587 samples, 0.27%)</title><rect x="598.5" y="293" width="3.2" height="15.0" fill="rgb(236,145,34)" rx="2" ry="2" />
<text  x="601.54" y="303.5" ></text>
</g>
<g >
<title>n_tty_write (462,121 samples, 0.07%)</title><rect x="1186.7" y="197" width="0.8" height="15.0" fill="rgb(210,23,5)" rx="2" ry="2" />
<text  x="1189.68" y="207.5" ></text>
</g>
<g >
<title>DecodeImageData (305,824,802 samples, 45.26%)</title><rect x="601.7" y="277" width="534.1" height="15.0" fill="rgb(254,229,54)" rx="2" ry="2" />
<text  x="604.67" y="287.5" >DecodeImageData</text>
</g>
<g >
<title>ksys_write (2,304,098 samples, 0.34%)</title><rect x="1183.5" y="245" width="4.0" height="15.0" fill="rgb(205,4,1)" rx="2" ry="2" />
<text  x="1186.46" y="255.5" ></text>
</g>
<g >
<title>__this_cpu_preempt_check (699,617 samples, 0.10%)</title><rect x="1132.9" y="133" width="1.2" height="15.0" fill="rgb(247,195,46)" rx="2" ry="2" />
<text  x="1135.91" y="143.5" ></text>
</g>
<g >
<title>PredictorAdd11_C (17,448,174 samples, 2.58%)</title><rect x="74.5" y="309" width="30.5" height="15.0" fill="rgb(249,206,49)" rx="2" ry="2" />
<text  x="77.50" y="319.5" >Pr..</text>
</g>
<g >
<title>do_execveat_common.isra.0 (484,563 samples, 0.07%)</title><rect x="1189.1" y="245" width="0.8" height="15.0" fill="rgb(231,123,29)" rx="2" ry="2" />
<text  x="1192.10" y="255.5" ></text>
</g>
<g >
<title>file_tty_write.constprop.0 (462,121 samples, 0.07%)</title><rect x="1186.7" y="213" width="0.8" height="15.0" fill="rgb(219,64,15)" rx="2" ry="2" />
<text  x="1189.68" y="223.5" ></text>
</g>
<g >
<title>insert_vm_struct (365,132 samples, 0.05%)</title><rect x="1189.3" y="165" width="0.6" height="15.0" fill="rgb(226,98,23)" rx="2" ry="2" />
<text  x="1192.31" y="175.5" ></text>
</g>
<g >
<title>ext4_writepages (921,077 samples, 0.14%)</title><rect x="1181.9" y="117" width="1.6" height="15.0" fill="rgb(240,165,39)" rx="2" ry="2" />
<text  x="1184.85" y="127.5" ></text>
</g>
<g >
<title>load_elf_binary (484,563 samples, 0.07%)</title><rect x="1189.1" y="213" width="0.8" height="15.0" fill="rgb(223,83,20)" rx="2" ry="2" />
<text  x="1192.10" y="223.5" ></text>
</g>
<g >
<title>_int_malloc (923,688 samples, 0.14%)</title><rect x="1187.5" y="293" width="1.6" height="15.0" fill="rgb(215,47,11)" rx="2" ry="2" />
<text  x="1190.49" y="303.5" ></text>
</g>
<g >
<title>do_syscall_64 (2,304,098 samples, 0.34%)</title><rect x="1183.5" y="261" width="4.0" height="15.0" fill="rgb(209,20,4)" rx="2" ry="2" />
<text  x="1186.46" y="271.5" ></text>
</g>
<g >
<title>entry_SYSCALL_64_after_hwframe (484,563 samples, 0.07%)</title><rect x="1189.1" y="293" width="0.8" height="15.0" fill="rgb(218,63,15)" rx="2" ry="2" />
<text  x="1192.10" y="303.5" ></text>
</g>
<g >
<title>__memmove_avx_unaligned_erms (924,032 samples, 0.14%)</title><rect x="1180.2" y="277" width="1.7" height="15.0" fill="rgb(205,0,0)" rx="2" ry="2" />
<text  x="1183.24" y="287.5" ></text>
</g>
<g >
<title>balance_dirty_pages (1,841,977 samples, 0.27%)</title><rect x="1183.5" y="165" width="3.2" height="15.0" fill="rgb(247,193,46)" rx="2" ry="2" />
<text  x="1186.46" y="175.5" ></text>
</g>
<g >
<title>syscall_exit_to_user_mode (921,077 samples, 0.14%)</title><rect x="1181.9" y="245" width="1.6" height="15.0" fill="rgb(251,211,50)" rx="2" ry="2" />
<text  x="1184.85" y="255.5" ></text>
</g>
<g >
<title>filemap_fdatawrite_wbc (921,077 samples, 0.14%)</title><rect x="1181.9" y="149" width="1.6" height="15.0" fill="rgb(210,25,6)" rx="2" ry="2" />
<text  x="1184.85" y="159.5" ></text>
</g>
<g >
<title>entry_SYSCALL_64_after_hwframe (921,077 samples, 0.14%)</title><rect x="1181.9" y="277" width="1.6" height="15.0" fill="rgb(218,63,15)" rx="2" ry="2" />
<text  x="1184.85" y="287.5" ></text>
</g>
<g >
<title>PredictorAdd3_C (2,427,509 samples, 0.36%)</title><rect x="263.4" y="309" width="4.3" height="15.0" fill="rgb(253,222,53)" rx="2" ry="2" />
<text  x="266.42" y="319.5" ></text>
</g>
<g >
<title>[unknown] (407,102,836 samples, 60.25%)</title><rect x="479.0" y="309" width="710.9" height="15.0" fill="rgb(210,24,5)" rx="2" ry="2" />
<text  x="481.96" y="319.5" >[unknown]</text>
</g>
<g >
<title>bprm_execve (484,563 samples, 0.07%)</title><rect x="1189.1" y="229" width="0.8" height="15.0" fill="rgb(218,61,14)" rx="2" ry="2" />
<text  x="1192.10" y="239.5" ></text>
</g>
<g >
<title>PredictorAdd7_C (5,852,690 samples, 0.87%)</title><rect x="278.9" y="309" width="10.2" height="15.0" fill="rgb(227,103,24)" rx="2" ry="2" />
<text  x="281.89" y="319.5" ></text>
</g>
<g >
<title>mem_cgroup_css_rstat_flush (1,841,977 samples, 0.27%)</title><rect x="1183.5" y="85" width="3.2" height="15.0" fill="rgb(253,222,53)" rx="2" ry="2" />
<text  x="1186.46" y="95.5" ></text>
</g>
<g >
<title>commit_creds (119,431 samples, 0.02%)</title><rect x="1189.1" y="181" width="0.2" height="15.0" fill="rgb(240,161,38)" rx="2" ry="2" />
<text  x="1192.10" y="191.5" ></text>
</g>
<g >
<title>VP8LConvertBGRAToRGB_C (25,429,543 samples, 3.76%)</title><rect x="541.0" y="293" width="44.4" height="15.0" fill="rgb(222,78,18)" rx="2" ry="2" />
<text  x="543.96" y="303.5" >VP8L..</text>
</g>
<g >
<title>tty_insert_flip_string_and_push_buffer (462,121 samples, 0.07%)</title><rect x="1186.7" y="181" width="0.8" height="15.0" fill="rgb(217,55,13)" rx="2" ry="2" />
<text  x="1189.68" y="191.5" ></text>
</g>
<g >
<title>irqentry_exit_to_user_mode (494,358 samples, 0.07%)</title><rect x="1134.9" y="245" width="0.9" height="15.0" fill="rgb(254,229,54)" rx="2" ry="2" />
<text  x="1137.92" y="255.5" ></text>
</g>
<g >
<title>ProcessRows (808,732 samples, 0.12%)</title><rect x="479.0" y="293" width="1.4" height="15.0" fill="rgb(207,9,2)" rx="2" ry="2" />
<text  x="481.96" y="303.5" ></text>
</g>
<g >
<title>cgroup_rstat_flush_locked (1,841,977 samples, 0.27%)</title><rect x="1183.5" y="101" width="3.2" height="15.0" fill="rgb(209,19,4)" rx="2" ry="2" />
<text  x="1186.46" y="111.5" ></text>
</g>
<g >
<title>clear_page_rep (452,622 samples, 0.07%)</title><rect x="1134.1" y="117" width="0.8" height="15.0" fill="rgb(253,221,52)" rx="2" ry="2" />
<text  x="1137.13" y="127.5" ></text>
</g>
<g >
<title>__queue_work (462,121 samples, 0.07%)</title><rect x="1186.7" y="149" width="0.8" height="15.0" fill="rgb(212,34,8)" rx="2" ry="2" />
<text  x="1189.68" y="159.5" ></text>
</g>
<g >
<title>VP8LDoFillBitWindow (16,589,782 samples, 2.46%)</title><rect x="1142.1" y="277" width="29.0" height="15.0" fill="rgb(219,67,16)" rx="2" ry="2" />
<text  x="1145.09" y="287.5" >VP..</text>
</g>
<g >
<title>PredictorAdd1_C (23,606,301 samples, 3.49%)</title><rect x="213.2" y="309" width="41.2" height="15.0" fill="rgb(216,52,12)" rx="2" ry="2" />
<text  x="216.16" y="319.5" >Pre..</text>
</g>
<g >
<title>begin_new_exec (119,431 samples, 0.02%)</title><rect x="1189.1" y="197" width="0.2" height="15.0" fill="rgb(245,184,44)" rx="2" ry="2" />
<text  x="1192.10" y="207.5" ></text>
</g>
<g >
<title>VP8LAddGreenToBlueAndRed_C (34,089,102 samples, 5.05%)</title><rect x="481.4" y="293" width="59.6" height="15.0" fill="rgb(222,82,19)" rx="2" ry="2" />
<text  x="484.42" y="303.5" >VP8LAd..</text>
</g>
<g >
<title>decode_webp_nat (675,622,054 samples, 100.00%)</title><rect x="10.0" y="325" width="1179.9" height="15.0" fill="rgb(218,61,14)" rx="2" ry="2" />
<text  x="13.00" y="335.5" >decode_webp_nat</text>
</g>
<g >
<title>__memmove_avx_unaligned (2,701,790 samples, 0.40%)</title><rect x="1175.5" y="277" width="4.7" height="15.0" fill="rgb(254,228,54)" rx="2" ry="2" />
<text  x="1178.52" y="287.5" ></text>
</g>
<g >
<title>generic_perform_write (1,841,977 samples, 0.27%)</title><rect x="1183.5" y="197" width="3.2" height="15.0" fill="rgb(236,146,35)" rx="2" ry="2" />
<text  x="1186.46" y="207.5" ></text>
</g>
<g >
<title>__folio_alloc (452,622 samples, 0.07%)</title><rect x="1134.1" y="165" width="0.8" height="15.0" fill="rgb(224,91,21)" rx="2" ry="2" />
<text  x="1137.13" y="175.5" ></text>
</g>
<g >
<title>mem_cgroup_wb_stats (1,841,977 samples, 0.27%)</title><rect x="1183.5" y="149" width="3.2" height="15.0" fill="rgb(211,28,6)" rx="2" ry="2" />
<text  x="1186.46" y="159.5" ></text>
</g>
<g >
<title>__x64_sys_execve (484,563 samples, 0.07%)</title><rect x="1189.1" y="261" width="0.8" height="15.0" fill="rgb(247,193,46)" rx="2" ry="2" />
<text  x="1192.10" y="271.5" ></text>
</g>
<g >
<title>ShiftBytes (1,719,981 samples, 0.25%)</title><rect x="292.2" y="309" width="3.0" height="15.0" fill="rgb(216,52,12)" rx="2" ry="2" />
<text  x="295.17" y="319.5" ></text>
</g>
<g >
<title>get_page_from_freelist (452,622 samples, 0.07%)</title><rect x="1134.1" y="133" width="0.8" height="15.0" fill="rgb(252,218,52)" rx="2" ry="2" />
<text  x="1137.13" y="143.5" ></text>
</g>
<g >
<title>ReadHuffmanCode (1,747,304 samples, 0.26%)</title><rect x="289.1" y="309" width="3.1" height="15.0" fill="rgb(230,116,27)" rx="2" ry="2" />
<text  x="292.11" y="319.5" ></text>
</g>
<g >
<title>ext4_release_file (921,077 samples, 0.14%)</title><rect x="1181.9" y="181" width="1.6" height="15.0" fill="rgb(225,92,22)" rx="2" ry="2" />
<text  x="1184.85" y="191.5" ></text>
</g>
<g >
<title>send_call_function_single_ipi (462,121 samples, 0.07%)</title><rect x="1186.7" y="101" width="0.8" height="15.0" fill="rgb(247,197,47)" rx="2" ry="2" />
<text  x="1189.68" y="111.5" ></text>
</g>
<g >
<title>__filemap_fdatawrite_range (921,077 samples, 0.14%)</title><rect x="1181.9" y="165" width="1.6" height="15.0" fill="rgb(233,129,30)" rx="2" ry="2" />
<text  x="1184.85" y="175.5" ></text>
</g>
<g >
<title>exit_to_user_mode_prepare (494,358 samples, 0.07%)</title><rect x="1134.9" y="229" width="0.9" height="15.0" fill="rgb(228,108,25)" rx="2" ry="2" />
<text  x="1137.92" y="239.5" ></text>
</g>
<g >
<title>VP8LConvertFromBGRA (807,638 samples, 0.12%)</title><rect x="295.2" y="309" width="1.4" height="15.0" fill="rgb(233,129,30)" rx="2" ry="2" />
<text  x="298.17" y="319.5" ></text>
</g>
<g >
<title>exit_to_user_mode_prepare (921,077 samples, 0.14%)</title><rect x="1181.9" y="229" width="1.6" height="15.0" fill="rgb(228,108,25)" rx="2" ry="2" />
<text  x="1184.85" y="239.5" ></text>
</g>
<g >
<title>mas_store_prealloc (365,132 samples, 0.05%)</title><rect x="1189.3" y="133" width="0.6" height="15.0" fill="rgb(223,85,20)" rx="2" ry="2" />
<text  x="1192.31" y="143.5" ></text>
</g>
<g >
<title>entry_SYSCALL_64_after_hwframe (2,304,098 samples, 0.34%)</title><rect x="1183.5" y="277" width="4.0" height="15.0" fill="rgb(218,63,15)" rx="2" ry="2" />
<text  x="1186.46" y="287.5" ></text>
</g>
<g >
<title>asm_exc_page_fault (2,145,533 samples, 0.32%)</title><rect x="1132.0" y="261" width="3.8" height="15.0" fill="rgb(225,93,22)" rx="2" ry="2" />
<text  x="1135.04" y="271.5" ></text>
</g>
<g >
<title>VP8LInverseTransform (11,510,910 samples, 1.70%)</title><rect x="296.6" y="309" width="20.1" height="15.0" fill="rgb(234,134,32)" rx="2" ry="2" />
<text  x="299.58" y="319.5" ></text>
</g>
<g >
<title>vma_alloc_folio (452,622 samples, 0.07%)</title><rect x="1134.1" y="181" width="0.8" height="15.0" fill="rgb(245,187,44)" rx="2" ry="2" />
<text  x="1137.13" y="191.5" ></text>
</g>
<g >
<title>task_work_run (921,077 samples, 0.14%)</title><rect x="1181.9" y="213" width="1.6" height="15.0" fill="rgb(209,22,5)" rx="2" ry="2" />
<text  x="1184.85" y="223.5" ></text>
</g>
<g >
<title>all (675,652,653 samples, 100%)</title><rect x="10.0" y="341" width="1180.0" height="15.0" fill="rgb(213,39,9)" rx="2" ry="2" />
<text  x="13.00" y="351.5" ></text>
</g>
<g >
<title>PredictorAdd12_C (19,756,659 samples, 2.92%)</title><rect x="105.0" y="309" width="34.5" height="15.0" fill="rgb(243,176,42)" rx="2" ry="2" />
<text  x="107.97" y="319.5" >Pr..</text>
</g>
<g >
<title>vma_link (365,132 samples, 0.05%)</title><rect x="1189.3" y="149" width="0.6" height="15.0" fill="rgb(229,110,26)" rx="2" ry="2" />
<text  x="1192.31" y="159.5" ></text>
</g>
<g >
<title>handle_mm_fault (1,152,239 samples, 0.17%)</title><rect x="1132.9" y="213" width="2.0" height="15.0" fill="rgb(234,135,32)" rx="2" ry="2" />
<text  x="1135.91" y="223.5" ></text>
</g>
<g >
<title>map_vdso (365,132 samples, 0.05%)</title><rect x="1189.3" y="197" width="0.6" height="15.0" fill="rgb(227,103,24)" rx="2" ry="2" />
<text  x="1192.31" y="207.5" ></text>
</g>
<g >
<title>VP8LInverseTransform (5,831,820 samples, 0.86%)</title><rect x="585.4" y="293" width="10.2" height="15.0" fill="rgb(234,134,32)" rx="2" ry="2" />
<text  x="588.37" y="303.5" ></text>
</g>
<g >
<title>vfs_write (2,304,098 samples, 0.34%)</title><rect x="1183.5" y="229" width="4.0" height="15.0" fill="rgb(250,209,50)" rx="2" ry="2" />
<text  x="1186.46" y="239.5" ></text>
</g>
<g >
<title>[unknown] (332,203,416 samples, 49.17%)</title><rect x="601.7" y="293" width="580.2" height="15.0" fill="rgb(210,24,5)" rx="2" ry="2" />
<text  x="604.67" y="303.5" >[unknown]</text>
</g>
<g >
<title>ext4_ext_map_blocks (921,077 samples, 0.14%)</title><rect x="1181.9" y="85" width="1.6" height="15.0" fill="rgb(206,8,2)" rx="2" ry="2" />
<text  x="1184.85" y="95.5" ></text>
</g>
<g >
<title>memcg_check_events (699,617 samples, 0.10%)</title><rect x="1132.9" y="149" width="1.2" height="15.0" fill="rgb(206,4,1)" rx="2" ry="2" />
<text  x="1135.91" y="159.5" ></text>
</g>
<g >
<title>do_user_addr_fault (1,152,239 samples, 0.17%)</title><rect x="1132.9" y="229" width="2.0" height="15.0" fill="rgb(228,108,25)" rx="2" ry="2" />
<text  x="1135.91" y="239.5" ></text>
</g>
<g >
<title>__mem_cgroup_charge (699,617 samples, 0.10%)</title><rect x="1132.9" y="181" width="1.2" height="15.0" fill="rgb(218,60,14)" rx="2" ry="2" />
<text  x="1135.91" y="191.5" ></text>
</g>
<g >
<title>do_writepages (921,077 samples, 0.14%)</title><rect x="1181.9" y="133" width="1.6" height="15.0" fill="rgb(240,164,39)" rx="2" ry="2" />
<text  x="1184.85" y="143.5" ></text>
</g>
</g>
</svg>
