<?xml version="1.0" standalone="no"?>
<!DOCTYPE svg PUBLIC "-//W3C//DTD SVG 1.1//EN" "http://www.w3.org/Graphics/SVG/1.1/DTD/svg11.dtd">
<svg version="1.1" width="1200" height="358" onload="init(evt)" viewBox="0 0 1200 358" xmlns="http://www.w3.org/2000/svg" xmlns:xlink="http://www.w3.org/1999/xlink">
<!-- Flame graph stack visualization. See https://github.com/brendangregg/FlameGraph for latest version, and http://www.brendangregg.com/flamegraphs.html for examples. -->
<!-- NOTES:  -->
<defs>
	<linearGradient id="background" y1="0" y2="1" x1="0" x2="0" >
		<stop stop-color="#eeeeee" offset="5%" />
		<stop stop-color="#eeeeb0" offset="95%" />
	</linearGradient>
</defs>
<style type="text/css">
	text { font-family:Verdana; font-size:12px; fill:rgb(0,0,0); }
	#search, #ignorecase { opacity:0.1; cursor:pointer; }
	#search:hover, #search.show, #ignorecase:hover, #ignorecase.show { opacity:1; }
	#subtitle { text-anchor:middle; font-color:rgb(160,160,160); }
	#title { text-anchor:middle; font-size:17px}
	#unzoom { cursor:pointer; }
	#frames > *:hover { stroke:black; stroke-width:0.5; cursor:pointer; }
	.hide { display:none; }
	.parent { opacity:0.5; }
</style>
<script type="text/ecmascript">
<![CDATA[
	"use strict";
	var details, searchbtn, unzoombtn, matchedtxt, svg, searching, currentSearchTerm, ignorecase, ignorecaseBtn;
	function init(evt) {
		details = document.getElementById("details").firstChild;
		searchbtn = document.getElementById("search");
		ignorecaseBtn = document.getElementById("ignorecase");
		unzoombtn = document.getElementById("unzoom");
		matchedtxt = document.getElementById("matched");
		svg = document.getElementsByTagName("svg")[0];
		searching = 0;
		currentSearchTerm = null;

		// use GET parameters to restore a flamegraphs state.
		var params = get_params();
		if (params.x && params.y)
			zoom(find_group(document.querySelector('[x="' + params.x + '"][y="' + params.y + '"]')));
                if (params.s) search(params.s);
	}

	// event listeners
	window.addEventListener("click", function(e) {
		var target = find_group(e.target);
		if (target) {
			if (target.nodeName == "a") {
				if (e.ctrlKey === false) return;
				e.preventDefault();
			}
			if (target.classList.contains("parent")) unzoom(true);
			zoom(target);
			if (!document.querySelector('.parent')) {
				// we have basically done a clearzoom so clear the url
				var params = get_params();
				if (params.x) delete params.x;
				if (params.y) delete params.y;
				history.replaceState(null, null, parse_params(params));
				unzoombtn.classList.add("hide");
				return;
			}

			// set parameters for zoom state
			var el = target.querySelector("rect");
			if (el && el.attributes && el.attributes.y && el.attributes._orig_x) {
				var params = get_params()
				params.x = el.attributes._orig_x.value;
				params.y = el.attributes.y.value;
				history.replaceState(null, null, parse_params(params));
			}
		}
		else if (e.target.id == "unzoom") clearzoom();
		else if (e.target.id == "search") search_prompt();
		else if (e.target.id == "ignorecase") toggle_ignorecase();
	}, false)

	// mouse-over for info
	// show
	window.addEventListener("mouseover", function(e) {
		var target = find_group(e.target);
		if (target) details.nodeValue = "Function: " + g_to_text(target);
	}, false)

	// clear
	window.addEventListener("mouseout", function(e) {
		var target = find_group(e.target);
		if (target) details.nodeValue = ' ';
	}, false)

	// ctrl-F for search
	// ctrl-I to toggle case-sensitive search
	window.addEventListener("keydown",function (e) {
		if (e.keyCode === 114 || (e.ctrlKey && e.keyCode === 70)) {
			e.preventDefault();
			search_prompt();
		}
		else if (e.ctrlKey && e.keyCode === 73) {
			e.preventDefault();
			toggle_ignorecase();
		}
	}, false)

	// functions
	function get_params() {
		var params = {};
		var paramsarr = window.location.search.substr(1).split('&');
		for (var i = 0; i < paramsarr.length; ++i) {
			var tmp = paramsarr[i].split("=");
			if (!tmp[0] || !tmp[1]) continue;
			params[tmp[0]]  = decodeURIComponent(tmp[1]);
		}
		return params;
	}
	function parse_params(params) {
		var uri = "?";
		for (var key in params) {
			uri += key + '=' + encodeURIComponent(params[key]) + '&';
		}
		if (uri.slice(-1) == "&")
			uri = uri.substring(0, uri.length - 1);
		if (uri == '?')
			uri = window.location.href.split('?')[0];
		return uri;
	}
	function find_child(node, selector) {
		var children = node.querySelectorAll(selector);
		if (children.length) return children[0];
	}
	function find_group(node) {
		var parent = node.parentElement;
		if (!parent) return;
		if (parent.id == "frames") return node;
		return find_group(parent);
	}
	function orig_save(e, attr, val) {
		if (e.attributes["_orig_" + attr] != undefined) return;
		if (e.attributes[attr] == undefined) return;
		if (val == undefined) val = e.attributes[attr].value;
		e.setAttribute("_orig_" + attr, val);
	}
	function orig_load(e, attr) {
		if (e.attributes["_orig_"+attr] == undefined) return;
		e.attributes[attr].value = e.attributes["_orig_" + attr].value;
		e.removeAttribute("_orig_"+attr);
	}
	function g_to_text(e) {
		var text = find_child(e, "title").firstChild.nodeValue;
		return (text)
	}
	function g_to_func(e) {
		var func = g_to_text(e);
		// if there's any manipulation we want to do to the function
		// name before it's searched, do it here before returning.
		return (func);
	}
	function update_text(e) {
		var r = find_child(e, "rect");
		var t = find_child(e, "text");
		var w = parseFloat(r.attributes.width.value) -3;
		var txt = find_child(e, "title").textContent.replace(/\([^(]*\)$/,"");
		t.attributes.x.value = parseFloat(r.attributes.x.value) + 3;

		// Smaller than this size won't fit anything
		if (w < 2 * 12 * 0.59) {
			t.textContent = "";
			return;
		}

		t.textContent = txt;
		var sl = t.getSubStringLength(0, txt.length);
		// check if only whitespace or if we can fit the entire string into width w
		if (/^ *$/.test(txt) || sl < w)
			return;

		// this isn't perfect, but gives a good starting point
		// and avoids calling getSubStringLength too often
		var start = Math.floor((w/sl) * txt.length);
		for (var x = start; x > 0; x = x-2) {
			if (t.getSubStringLength(0, x + 2) <= w) {
				t.textContent = txt.substring(0, x) + "..";
				return;
			}
		}
		t.textContent = "";
	}

	// zoom
	function zoom_reset(e) {
		if (e.attributes != undefined) {
			orig_load(e, "x");
			orig_load(e, "width");
		}
		if (e.childNodes == undefined) return;
		for (var i = 0, c = e.childNodes; i < c.length; i++) {
			zoom_reset(c[i]);
		}
	}
	function zoom_child(e, x, ratio) {
		if (e.attributes != undefined) {
			if (e.attributes.x != undefined) {
				orig_save(e, "x");
				e.attributes.x.value = (parseFloat(e.attributes.x.value) - x - 10) * ratio + 10;
				if (e.tagName == "text")
					e.attributes.x.value = find_child(e.parentNode, "rect[x]").attributes.x.value + 3;
			}
			if (e.attributes.width != undefined) {
				orig_save(e, "width");
				e.attributes.width.value = parseFloat(e.attributes.width.value) * ratio;
			}
		}

		if (e.childNodes == undefined) return;
		for (var i = 0, c = e.childNodes; i < c.length; i++) {
			zoom_child(c[i], x - 10, ratio);
		}
	}
	function zoom_parent(e) {
		if (e.attributes) {
			if (e.attributes.x != undefined) {
				orig_save(e, "x");
				e.attributes.x.value = 10;
			}
			if (e.attributes.width != undefined) {
				orig_save(e, "width");
				e.attributes.width.value = parseInt(svg.width.baseVal.value) - (10 * 2);
			}
		}
		if (e.childNodes == undefined) return;
		for (var i = 0, c = e.childNodes; i < c.length; i++) {
			zoom_parent(c[i]);
		}
	}
	function zoom(node) {
		var attr = find_child(node, "rect").attributes;
		var width = parseFloat(attr.width.value);
		var xmin = parseFloat(attr.x.value);
		var xmax = parseFloat(xmin + width);
		var ymin = parseFloat(attr.y.value);
		var ratio = (svg.width.baseVal.value - 2 * 10) / width;

		// XXX: Workaround for JavaScript float issues (fix me)
		var fudge = 0.0001;

		unzoombtn.classList.remove("hide");

		var el = document.getElementById("frames").children;
		for (var i = 0; i < el.length; i++) {
			var e = el[i];
			var a = find_child(e, "rect").attributes;
			var ex = parseFloat(a.x.value);
			var ew = parseFloat(a.width.value);
			var upstack;
			// Is it an ancestor
			if (0 == 0) {
				upstack = parseFloat(a.y.value) > ymin;
			} else {
				upstack = parseFloat(a.y.value) < ymin;
			}
			if (upstack) {
				// Direct ancestor
				if (ex <= xmin && (ex+ew+fudge) >= xmax) {
					e.classList.add("parent");
					zoom_parent(e);
					update_text(e);
				}
				// not in current path
				else
					e.classList.add("hide");
			}
			// Children maybe
			else {
				// no common path
				if (ex < xmin || ex + fudge >= xmax) {
					e.classList.add("hide");
				}
				else {
					zoom_child(e, xmin, ratio);
					update_text(e);
				}
			}
		}
		search();
	}
	function unzoom(dont_update_text) {
		unzoombtn.classList.add("hide");
		var el = document.getElementById("frames").children;
		for(var i = 0; i < el.length; i++) {
			el[i].classList.remove("parent");
			el[i].classList.remove("hide");
			zoom_reset(el[i]);
			if(!dont_update_text) update_text(el[i]);
		}
		search();
	}
	function clearzoom() {
		unzoom();

		// remove zoom state
		var params = get_params();
		if (params.x) delete params.x;
		if (params.y) delete params.y;
		history.replaceState(null, null, parse_params(params));
	}

	// search
	function toggle_ignorecase() {
		ignorecase = !ignorecase;
		if (ignorecase) {
			ignorecaseBtn.classList.add("show");
		} else {
			ignorecaseBtn.classList.remove("show");
		}
		reset_search();
		search();
	}
	function reset_search() {
		var el = document.querySelectorAll("#frames rect");
		for (var i = 0; i < el.length; i++) {
			orig_load(el[i], "fill")
		}
		var params = get_params();
		delete params.s;
		history.replaceState(null, null, parse_params(params));
	}
	function search_prompt() {
		if (!searching) {
			var term = prompt("Enter a search term (regexp " +
			    "allowed, eg: ^ext4_)"
			    + (ignorecase ? ", ignoring case" : "")
			    + "\nPress Ctrl-i to toggle case sensitivity", "");
			if (term != null) search(term);
		} else {
			reset_search();
			searching = 0;
			currentSearchTerm = null;
			searchbtn.classList.remove("show");
			searchbtn.firstChild.nodeValue = "Search"
			matchedtxt.classList.add("hide");
			matchedtxt.firstChild.nodeValue = ""
		}
	}
	function search(term) {
		if (term) currentSearchTerm = term;

		var re = new RegExp(currentSearchTerm, ignorecase ? 'i' : '');
		var el = document.getElementById("frames").children;
		var matches = new Object();
		var maxwidth = 0;
		for (var i = 0; i < el.length; i++) {
			var e = el[i];
			var func = g_to_func(e);
			var rect = find_child(e, "rect");
			if (func == null || rect == null)
				continue;

			// Save max width. Only works as we have a root frame
			var w = parseFloat(rect.attributes.width.value);
			if (w > maxwidth)
				maxwidth = w;

			if (func.match(re)) {
				// highlight
				var x = parseFloat(rect.attributes.x.value);
				orig_save(rect, "fill");
				rect.attributes.fill.value = "rgb(230,0,230)";

				// remember matches
				if (matches[x] == undefined) {
					matches[x] = w;
				} else {
					if (w > matches[x]) {
						// overwrite with parent
						matches[x] = w;
					}
				}
				searching = 1;
			}
		}
		if (!searching)
			return;
		var params = get_params();
		params.s = currentSearchTerm;
		history.replaceState(null, null, parse_params(params));

		searchbtn.classList.add("show");
		searchbtn.firstChild.nodeValue = "Reset Search";

		// calculate percent matched, excluding vertical overlap
		var count = 0;
		var lastx = -1;
		var lastw = 0;
		var keys = Array();
		for (k in matches) {
			if (matches.hasOwnProperty(k))
				keys.push(k);
		}
		// sort the matched frames by their x location
		// ascending, then width descending
		keys.sort(function(a, b){
			return a - b;
		});
		// Step through frames saving only the biggest bottom-up frames
		// thanks to the sort order. This relies on the tree property
		// where children are always smaller than their parents.
		var fudge = 0.0001;	// JavaScript floating point
		for (var k in keys) {
			var x = parseFloat(keys[k]);
			var w = matches[keys[k]];
			if (x >= lastx + lastw - fudge) {
				count += w;
				lastx = x;
				lastw = w;
			}
		}
		// display matched percent
		matchedtxt.classList.remove("hide");
		var pct = 100 * count / maxwidth;
		if (pct != 100) pct = pct.toFixed(1)
		matchedtxt.firstChild.nodeValue = "Matched: " + pct + "%";
	}
]]>
</script>
<rect x="0.0" y="0" width="1200.0" height="358.0" fill="url(#background)"  />
<text id="title" x="600.00" y="24" >Flame Graph</text>
<text id="details" x="10.00" y="341" > </text>
<text id="unzoom" x="10.00" y="24" class="hide">Reset Zoom</text>
<text id="search" x="1090.00" y="24" >Search</text>
<text id="ignorecase" x="1174.00" y="24" >ic</text>
<text id="matched" x="1090.00" y="341" > </text>
<g id="frames">
<g >
<title>__handle_mm_fault (462,447 samples, 0.09%)</title><rect x="88.6" y="197" width="1.1" height="15.0" fill="rgb(207,9,2)" rx="2" ry="2" />
<text  x="91.60" y="207.5" ></text>
</g>
<g >
<title>exc_page_fault (462,447 samples, 0.09%)</title><rect x="88.6" y="245" width="1.1" height="15.0" fill="rgb(212,35,8)" rx="2" ry="2" />
<text  x="91.60" y="255.5" ></text>
</g>
<g >
<title>PredictorAdd12_SSE2 (1,846,260 samples, 0.37%)</title><rect x="112.1" y="277" width="4.3" height="15.0" fill="rgb(235,138,33)" rx="2" ry="2" />
<text  x="115.06" y="287.5" ></text>
</g>
<g >
<title>DecodeImageData (3,695,326 samples, 0.74%)</title><rect x="89.7" y="277" width="8.8" height="15.0" fill="rgb(254,229,54)" rx="2" ry="2" />
<text  x="92.69" y="287.5" ></text>
</g>
<g >
<title>__memmove_avx_unaligned_erms (923,168 samples, 0.19%)</title><rect x="1180.2" y="245" width="2.2" height="15.0" fill="rgb(205,0,0)" rx="2" ry="2" />
<text  x="1183.18" y="255.5" ></text>
</g>
<g >
<title>truncate_inode_pages_range (923,402 samples, 0.19%)</title><rect x="1184.6" y="85" width="2.1" height="15.0" fill="rgb(245,187,44)" rx="2" ry="2" />
<text  x="1187.56" y="95.5" ></text>
</g>
<g >
<title>ShiftBytes (923,217 samples, 0.19%)</title><rect x="1134.2" y="245" width="2.2" height="15.0" fill="rgb(216,52,12)" rx="2" ry="2" />
<text  x="1137.17" y="255.5" ></text>
</g>
<g >
<title>do_filp_open (923,402 samples, 0.19%)</title><rect x="1184.6" y="181" width="2.1" height="15.0" fill="rgb(211,28,6)" rx="2" ry="2" />
<text  x="1187.56" y="191.5" ></text>
</g>
<g >
<title>filemap_fdatawrite_wbc (923,412 samples, 0.19%)</title><rect x="1182.4" y="117" width="2.2" height="15.0" fill="rgb(210,25,6)" rx="2" ry="2" />
<text  x="1185.37" y="127.5" ></text>
</g>
<g >
<title>ReadHuffmanCodesHelper (1,848,192 samples, 0.37%)</title><rect x="1129.8" y="245" width="4.4" height="15.0" fill="rgb(209,22,5)" rx="2" ry="2" />
<text  x="1132.79" y="255.5" ></text>
</g>
<g >
<title>PredictorAdd5_SSE2 (5,539,022 samples, 1.11%)</title><rect x="181.9" y="277" width="13.2" height="15.0" fill="rgb(232,125,29)" rx="2" ry="2" />
<text  x="184.92" y="287.5" ></text>
</g>
<g >
<title>VP8LConvertFromBGRA (924,329 samples, 0.19%)</title><rect x="307.8" y="261" width="2.2" height="15.0" fill="rgb(233,129,30)" rx="2" ry="2" />
<text  x="310.81" y="271.5" ></text>
</g>
<g >
<title>do_syscall_64 (923,412 samples, 0.19%)</title><rect x="1182.4" y="229" width="2.2" height="15.0" fill="rgb(209,20,4)" rx="2" ry="2" />
<text  x="1185.37" y="239.5" ></text>
</g>
<g >
<title>entry_SYSCALL_64_after_hwframe (923,412 samples, 0.19%)</title><rect x="1182.4" y="245" width="2.2" height="15.0" fill="rgb(218,63,15)" rx="2" ry="2" />
<text  x="1185.37" y="255.5" ></text>
</g>
<g >
<title>entry_SYSCALL_64_after_hwframe (923,402 samples, 0.19%)</title><rect x="1184.6" y="245" width="2.1" height="15.0" fill="rgb(218,63,15)" rx="2" ry="2" />
<text  x="1187.56" y="255.5" ></text>
</g>
<g >
<title>decode_webp_nat (497,680,138 samples, 99.99%)</title><rect x="10.0" y="293" width="1179.9" height="15.0" fill="rgb(218,61,14)" rx="2" ry="2" />
<text  x="13.00" y="303.5" >decode_webp_nat</text>
</g>
<g >
<title>entry_SYSCALL_64_after_hwframe (456,045 samples, 0.09%)</title><rect x="1186.7" y="245" width="1.1" height="15.0" fill="rgb(218,63,15)" rx="2" ry="2" />
<text  x="1189.75" y="255.5" ></text>
</g>
<g >
<title>__libc_write (456,045 samples, 0.09%)</title><rect x="1186.7" y="261" width="1.1" height="15.0" fill="rgb(238,154,37)" rx="2" ry="2" />
<text  x="1189.75" y="271.5" ></text>
</g>
<g >
<title>mas_store_prealloc (400,630 samples, 0.08%)</title><rect x="1189.0" y="181" width="0.9" height="15.0" fill="rgb(223,85,20)" rx="2" ry="2" />
<text  x="1191.98" y="191.5" ></text>
</g>
<g >
<title>PredictorAdd2_C (928,491 samples, 0.19%)</title><rect x="175.3" y="277" width="2.3" height="15.0" fill="rgb(209,22,5)" rx="2" ry="2" />
<text  x="178.35" y="287.5" ></text>
</g>
<g >
<title>entry_SYSCALL_64_after_hwframe (400,630 samples, 0.08%)</title><rect x="1189.0" y="261" width="0.9" height="15.0" fill="rgb(218,63,15)" rx="2" ry="2" />
<text  x="1191.98" y="271.5" ></text>
</g>
<g >
<title>[unknown] (409,060,927 samples, 82.19%)</title><rect x="219.2" y="277" width="969.8" height="15.0" fill="rgb(210,24,5)" rx="2" ry="2" />
<text  x="222.15" y="287.5" >[unknown]</text>
</g>
<g >
<title>mmap_region (400,630 samples, 0.08%)</title><rect x="1189.0" y="197" width="0.9" height="15.0" fill="rgb(231,121,28)" rx="2" ry="2" />
<text  x="1191.98" y="207.5" ></text>
</g>
<g >
<title>perf_iterate_ctx (361,901 samples, 0.07%)</title><rect x="1188.1" y="117" width="0.9" height="15.0" fill="rgb(205,4,0)" rx="2" ry="2" />
<text  x="1191.12" y="127.5" ></text>
</g>
<g >
<title>__folio_alloc (462,447 samples, 0.09%)</title><rect x="88.6" y="165" width="1.1" height="15.0" fill="rgb(224,91,21)" rx="2" ry="2" />
<text  x="91.60" y="175.5" ></text>
</g>
<g >
<title>truncate_pagecache (923,402 samples, 0.19%)</title><rect x="1184.6" y="101" width="2.1" height="15.0" fill="rgb(231,123,29)" rx="2" ry="2" />
<text  x="1187.56" y="111.5" ></text>
</g>
<g >
<title>bprm_execve (483,254 samples, 0.10%)</title><rect x="1187.8" y="197" width="1.2" height="15.0" fill="rgb(218,61,14)" rx="2" ry="2" />
<text  x="1190.83" y="207.5" ></text>
</g>
<g >
<title>__mmap64 (400,630 samples, 0.08%)</title><rect x="1189.0" y="277" width="0.9" height="15.0" fill="rgb(243,175,41)" rx="2" ry="2" />
<text  x="1191.98" y="287.5" ></text>
</g>
<g >
<title>ShiftBytes (924,128 samples, 0.19%)</title><rect x="212.6" y="277" width="2.2" height="15.0" fill="rgb(216,52,12)" rx="2" ry="2" />
<text  x="215.58" y="287.5" ></text>
</g>
<g >
<title>do_syscall_64 (923,402 samples, 0.19%)</title><rect x="1184.6" y="229" width="2.1" height="15.0" fill="rgb(209,20,4)" rx="2" ry="2" />
<text  x="1187.56" y="239.5" ></text>
</g>
<g >
<title>VP8LConvertBGRAToRGB_C (1,849,355 samples, 0.37%)</title><rect x="303.4" y="261" width="4.4" height="15.0" fill="rgb(222,78,18)" rx="2" ry="2" />
<text  x="306.43" y="271.5" ></text>
</g>
<g >
<title>do_execveat_common.isra.0 (483,254 samples, 0.10%)</title><rect x="1187.8" y="213" width="1.2" height="15.0" fill="rgb(231,123,29)" rx="2" ry="2" />
<text  x="1190.83" y="223.5" ></text>
</g>
<g >
<title>VP8LReadBits (924,090 samples, 0.19%)</title><rect x="1178.0" y="245" width="2.2" height="15.0" fill="rgb(236,146,35)" rx="2" ry="2" />
<text  x="1180.99" y="255.5" ></text>
</g>
<g >
<title>vm_mmap_pgoff (400,630 samples, 0.08%)</title><rect x="1189.0" y="229" width="0.9" height="15.0" fill="rgb(237,150,35)" rx="2" ry="2" />
<text  x="1191.98" y="239.5" ></text>
</g>
<g >
<title>ext4_writepages (923,412 samples, 0.19%)</title><rect x="1182.4" y="85" width="2.2" height="15.0" fill="rgb(240,165,39)" rx="2" ry="2" />
<text  x="1185.37" y="95.5" ></text>
</g>
<g >
<title>__libc_open64 (923,402 samples, 0.19%)</title><rect x="1184.6" y="261" width="2.1" height="15.0" fill="rgb(235,140,33)" rx="2" ry="2" />
<text  x="1187.56" y="271.5" ></text>
</g>
<g >
<title>PredictorAdd12_C (661,321 samples, 0.13%)</title><rect x="110.5" y="277" width="1.6" height="15.0" fill="rgb(243,176,42)" rx="2" ry="2" />
<text  x="113.49" y="287.5" ></text>
</g>
<g >
<title>VP8LDoFillBitWindow (17,558,793 samples, 3.53%)</title><rect x="1136.4" y="245" width="41.6" height="15.0" fill="rgb(219,67,16)" rx="2" ry="2" />
<text  x="1139.36" y="255.5" >VP8..</text>
</g>
<g >
<title>begin_new_exec (121,353 samples, 0.02%)</title><rect x="1187.8" y="165" width="0.3" height="15.0" fill="rgb(245,184,44)" rx="2" ry="2" />
<text  x="1190.83" y="175.5" ></text>
</g>
<g >
<title>notify_change (923,402 samples, 0.19%)</title><rect x="1184.6" y="133" width="2.1" height="15.0" fill="rgb(237,150,35)" rx="2" ry="2" />
<text  x="1187.56" y="143.5" ></text>
</g>
<g >
<title>wake_up_bit (923,402 samples, 0.19%)</title><rect x="1184.6" y="37" width="2.1" height="15.0" fill="rgb(207,9,2)" rx="2" ry="2" />
<text  x="1187.56" y="47.5" ></text>
</g>
<g >
<title>syscall_exit_to_user_mode (923,412 samples, 0.19%)</title><rect x="1182.4" y="213" width="2.2" height="15.0" fill="rgb(251,211,50)" rx="2" ry="2" />
<text  x="1185.37" y="223.5" ></text>
</g>
<g >
<title>do_mmap (400,630 samples, 0.08%)</title><rect x="1189.0" y="213" width="0.9" height="15.0" fill="rgb(228,107,25)" rx="2" ry="2" />
<text  x="1191.98" y="223.5" ></text>
</g>
<g >
<title>PredictorAdd13_SSE2 (17,515,808 samples, 3.52%)</title><rect x="116.4" y="277" width="41.6" height="15.0" fill="rgb(228,108,25)" rx="2" ry="2" />
<text  x="119.43" y="287.5" >Pre..</text>
</g>
<g >
<title>ReadHuffmanCode (7,392,867 samples, 1.49%)</title><rect x="195.1" y="277" width="17.5" height="15.0" fill="rgb(230,116,27)" rx="2" ry="2" />
<text  x="198.06" y="287.5" ></text>
</g>
<g >
<title>__x64_sys_execve (483,254 samples, 0.10%)</title><rect x="1187.8" y="229" width="1.2" height="15.0" fill="rgb(247,193,46)" rx="2" ry="2" />
<text  x="1190.83" y="239.5" ></text>
</g>
<g >
<title>block_invalidate_folio (923,402 samples, 0.19%)</title><rect x="1184.6" y="53" width="2.1" height="15.0" fill="rgb(210,25,6)" rx="2" ry="2" />
<text  x="1187.56" y="63.5" ></text>
</g>
<g >
<title>all (497,711,516 samples, 100%)</title><rect x="10.0" y="309" width="1180.0" height="15.0" fill="rgb(213,39,9)" rx="2" ry="2" />
<text  x="13.00" y="319.5" ></text>
</g>
<g >
<title>vma_alloc_folio (462,447 samples, 0.09%)</title><rect x="88.6" y="181" width="1.1" height="15.0" fill="rgb(245,187,44)" rx="2" ry="2" />
<text  x="91.60" y="191.5" ></text>
</g>
<g >
<title>BuildHuffmanTable (33,150,592 samples, 6.66%)</title><rect x="10.0" y="277" width="78.6" height="15.0" fill="rgb(226,101,24)" rx="2" ry="2" />
<text  x="13.00" y="287.5" >BuildHuff..</text>
</g>
<g >
<title>mas_push_data (400,630 samples, 0.08%)</title><rect x="1189.0" y="149" width="0.9" height="15.0" fill="rgb(219,68,16)" rx="2" ry="2" />
<text  x="1191.98" y="159.5" ></text>
</g>
<g >
<title>set_cred_ucounts (121,353 samples, 0.02%)</title><rect x="1187.8" y="149" width="0.3" height="15.0" fill="rgb(246,188,45)" rx="2" ry="2" />
<text  x="1190.83" y="159.5" ></text>
</g>
<g >
<title>__fput (923,412 samples, 0.19%)</title><rect x="1182.4" y="165" width="2.2" height="15.0" fill="rgb(248,200,47)" rx="2" ry="2" />
<text  x="1185.37" y="175.5" ></text>
</g>
<g >
<title>PredictorAdd2_SSE2 (921,336 samples, 0.19%)</title><rect x="177.6" y="277" width="2.1" height="15.0" fill="rgb(251,214,51)" rx="2" ry="2" />
<text  x="180.55" y="287.5" ></text>
</g>
<g >
<title>PredictorAdd11_SSE2 (4,619,048 samples, 0.93%)</title><rect x="99.5" y="277" width="11.0" height="15.0" fill="rgb(241,168,40)" rx="2" ry="2" />
<text  x="102.54" y="287.5" ></text>
</g>
<g >
<title>security_file_permission (456,045 samples, 0.09%)</title><rect x="1186.7" y="181" width="1.1" height="15.0" fill="rgb(225,96,23)" rx="2" ry="2" />
<text  x="1189.75" y="191.5" ></text>
</g>
<g >
<title>DecodeImageStream (457,741 samples, 0.09%)</title><rect x="98.5" y="277" width="1.0" height="15.0" fill="rgb(241,168,40)" rx="2" ry="2" />
<text  x="101.45" y="287.5" ></text>
</g>
<g >
<title>ConvertBGRAToRGB_SSE2 (14,337,351 samples, 2.88%)</title><rect x="225.7" y="261" width="34.0" height="15.0" fill="rgb(238,155,37)" rx="2" ry="2" />
<text  x="228.73" y="271.5" >Co..</text>
</g>
<g >
<title>[unknown] (361,490,264 samples, 72.63%)</title><rect x="325.3" y="261" width="857.1" height="15.0" fill="rgb(210,24,5)" rx="2" ry="2" />
<text  x="328.33" y="271.5" >[unknown]</text>
</g>
<g >
<title>AddGreenToBlueAndRed_SSE2 (2,772,043 samples, 0.56%)</title><rect x="219.2" y="261" width="6.5" height="15.0" fill="rgb(239,160,38)" rx="2" ry="2" />
<text  x="222.15" y="271.5" ></text>
</g>
<g >
<title>do_writepages (923,412 samples, 0.19%)</title><rect x="1182.4" y="101" width="2.2" height="15.0" fill="rgb(240,164,39)" rx="2" ry="2" />
<text  x="1185.37" y="111.5" ></text>
</g>
<g >
<title>do_truncate (923,402 samples, 0.19%)</title><rect x="1184.6" y="149" width="2.1" height="15.0" fill="rgb(216,53,12)" rx="2" ry="2" />
<text  x="1187.56" y="159.5" ></text>
</g>
<g >
<title>apparmor_file_permission (456,045 samples, 0.09%)</title><rect x="1186.7" y="165" width="1.1" height="15.0" fill="rgb(218,60,14)" rx="2" ry="2" />
<text  x="1189.75" y="175.5" ></text>
</g>
<g >
<title>VP8LInverseTransform (1,846,940 samples, 0.37%)</title><rect x="214.8" y="277" width="4.4" height="15.0" fill="rgb(234,134,32)" rx="2" ry="2" />
<text  x="217.77" y="287.5" ></text>
</g>
<g >
<title>ksys_write (456,045 samples, 0.09%)</title><rect x="1186.7" y="213" width="1.1" height="15.0" fill="rgb(205,4,1)" rx="2" ry="2" />
<text  x="1189.75" y="223.5" ></text>
</g>
<g >
<title>do_syscall_64 (400,630 samples, 0.08%)</title><rect x="1189.0" y="245" width="0.9" height="15.0" fill="rgb(209,20,4)" rx="2" ry="2" />
<text  x="1191.98" y="255.5" ></text>
</g>
<g >
<title>asm_exc_page_fault (704,478 samples, 0.14%)</title><rect x="1128.1" y="229" width="1.7" height="15.0" fill="rgb(225,93,22)" rx="2" ry="2" />
<text  x="1131.12" y="239.5" ></text>
</g>
<g >
<title>vfs_write (456,045 samples, 0.09%)</title><rect x="1186.7" y="197" width="1.1" height="15.0" fill="rgb(250,209,50)" rx="2" ry="2" />
<text  x="1189.75" y="207.5" ></text>
</g>
<g >
<title>VP8LInverseTransform (6,465,315 samples, 1.30%)</title><rect x="310.0" y="261" width="15.3" height="15.0" fill="rgb(234,134,32)" rx="2" ry="2" />
<text  x="313.00" y="271.5" ></text>
</g>
<g >
<title>load_elf_binary (483,254 samples, 0.10%)</title><rect x="1187.8" y="181" width="1.2" height="15.0" fill="rgb(223,83,20)" rx="2" ry="2" />
<text  x="1190.83" y="191.5" ></text>
</g>
<g >
<title>perf_event_mmap (361,901 samples, 0.07%)</title><rect x="1188.1" y="133" width="0.9" height="15.0" fill="rgb(229,112,26)" rx="2" ry="2" />
<text  x="1191.12" y="143.5" ></text>
</g>
<g >
<title>exit_to_user_mode_prepare (923,412 samples, 0.19%)</title><rect x="1182.4" y="197" width="2.2" height="15.0" fill="rgb(228,108,25)" rx="2" ry="2" />
<text  x="1185.37" y="207.5" ></text>
</g>
<g >
<title>PredictorAdd1_SSE2 (7,333,924 samples, 1.47%)</title><rect x="158.0" y="277" width="17.3" height="15.0" fill="rgb(208,14,3)" rx="2" ry="2" />
<text  x="160.96" y="287.5" ></text>
</g>
<g >
<title>task_work_run (923,412 samples, 0.19%)</title><rect x="1182.4" y="181" width="2.2" height="15.0" fill="rgb(209,22,5)" rx="2" ry="2" />
<text  x="1185.37" y="191.5" ></text>
</g>
<g >
<title>do_syscall_64 (456,045 samples, 0.09%)</title><rect x="1186.7" y="229" width="1.1" height="15.0" fill="rgb(209,20,4)" rx="2" ry="2" />
<text  x="1189.75" y="239.5" ></text>
</g>
<g >
<title>__perf_addr_filters_adjust (361,901 samples, 0.07%)</title><rect x="1188.1" y="101" width="0.9" height="15.0" fill="rgb(247,195,46)" rx="2" ry="2" />
<text  x="1191.12" y="111.5" ></text>
</g>
<g >
<title>__x64_sys_openat (923,402 samples, 0.19%)</title><rect x="1184.6" y="213" width="2.1" height="15.0" fill="rgb(251,215,51)" rx="2" ry="2" />
<text  x="1187.56" y="223.5" ></text>
</g>
<g >
<title>do_syscall_64 (483,254 samples, 0.10%)</title><rect x="1187.8" y="245" width="1.2" height="15.0" fill="rgb(209,20,4)" rx="2" ry="2" />
<text  x="1190.83" y="255.5" ></text>
</g>
<g >
<title>DecodeImageData (339,312,804 samples, 68.17%)</title><rect x="325.3" y="245" width="804.5" height="15.0" fill="rgb(254,229,54)" rx="2" ry="2" />
<text  x="328.33" y="255.5" >DecodeImageData</text>
</g>
<g >
<title>handle_mm_fault (704,478 samples, 0.14%)</title><rect x="1128.1" y="181" width="1.7" height="15.0" fill="rgb(234,135,32)" rx="2" ry="2" />
<text  x="1131.12" y="191.5" ></text>
</g>
<g >
<title>map_vdso (361,901 samples, 0.07%)</title><rect x="1188.1" y="165" width="0.9" height="15.0" fill="rgb(227,103,24)" rx="2" ry="2" />
<text  x="1191.12" y="175.5" ></text>
</g>
<g >
<title>ConvertBGRAToRGB_SSE2 (462,447 samples, 0.09%)</title><rect x="88.6" y="277" width="1.1" height="15.0" fill="rgb(238,155,37)" rx="2" ry="2" />
<text  x="91.60" y="287.5" ></text>
</g>
<g >
<title>__handle_mm_fault (704,478 samples, 0.14%)</title><rect x="1128.1" y="165" width="1.7" height="15.0" fill="rgb(207,9,2)" rx="2" ry="2" />
<text  x="1131.12" y="175.5" ></text>
</g>
<g >
<title>mas_wr_bnode (400,630 samples, 0.08%)</title><rect x="1189.0" y="165" width="0.9" height="15.0" fill="rgb(248,198,47)" rx="2" ry="2" />
<text  x="1191.98" y="175.5" ></text>
</g>
<g >
<title>do_user_addr_fault (704,478 samples, 0.14%)</title><rect x="1128.1" y="197" width="1.7" height="15.0" fill="rgb(228,108,25)" rx="2" ry="2" />
<text  x="1131.12" y="207.5" ></text>
</g>
<g >
<title>path_openat (923,402 samples, 0.19%)</title><rect x="1184.6" y="165" width="2.1" height="15.0" fill="rgb(249,202,48)" rx="2" ry="2" />
<text  x="1187.56" y="175.5" ></text>
</g>
<g >
<title>exc_page_fault (704,478 samples, 0.14%)</title><rect x="1128.1" y="213" width="1.7" height="15.0" fill="rgb(212,35,8)" rx="2" ry="2" />
<text  x="1131.12" y="223.5" ></text>
</g>
<g >
<title>entry_SYSCALL_64_after_hwframe (483,254 samples, 0.10%)</title><rect x="1187.8" y="261" width="1.2" height="15.0" fill="rgb(218,63,15)" rx="2" ry="2" />
<text  x="1190.83" y="271.5" ></text>
</g>
<g >
<title>__alloc_pages (462,447 samples, 0.09%)</title><rect x="88.6" y="149" width="1.1" height="15.0" fill="rgb(233,129,30)" rx="2" ry="2" />
<text  x="91.60" y="159.5" ></text>
</g>
<g >
<title>__install_special_mapping (361,901 samples, 0.07%)</title><rect x="1188.1" y="149" width="0.9" height="15.0" fill="rgb(212,35,8)" rx="2" ry="2" />
<text  x="1191.12" y="159.5" ></text>
</g>
<g >
<title>do_user_addr_fault (462,447 samples, 0.09%)</title><rect x="88.6" y="229" width="1.1" height="15.0" fill="rgb(228,108,25)" rx="2" ry="2" />
<text  x="91.60" y="239.5" ></text>
</g>
<g >
<title>do_sys_openat2 (923,402 samples, 0.19%)</title><rect x="1184.6" y="197" width="2.1" height="15.0" fill="rgb(253,221,52)" rx="2" ry="2" />
<text  x="1187.56" y="207.5" ></text>
</g>
<g >
<title>__filemap_fdatawrite_range (923,412 samples, 0.19%)</title><rect x="1182.4" y="133" width="2.2" height="15.0" fill="rgb(233,129,30)" rx="2" ry="2" />
<text  x="1185.37" y="143.5" ></text>
</g>
<g >
<title>__page_set_anon_rmap (704,478 samples, 0.14%)</title><rect x="1128.1" y="149" width="1.7" height="15.0" fill="rgb(226,101,24)" rx="2" ry="2" />
<text  x="1131.12" y="159.5" ></text>
</g>
<g >
<title>ext4_release_file (923,412 samples, 0.19%)</title><rect x="1182.4" y="149" width="2.2" height="15.0" fill="rgb(225,92,22)" rx="2" ry="2" />
<text  x="1185.37" y="159.5" ></text>
</g>
<g >
<title>__close_nocancel (923,412 samples, 0.19%)</title><rect x="1182.4" y="261" width="2.2" height="15.0" fill="rgb(228,109,26)" rx="2" ry="2" />
<text  x="1185.37" y="271.5" ></text>
</g>
<g >
<title>asm_exc_page_fault (462,447 samples, 0.09%)</title><rect x="88.6" y="261" width="1.1" height="15.0" fill="rgb(225,93,22)" rx="2" ry="2" />
<text  x="91.60" y="271.5" ></text>
</g>
<g >
<title>PredictorAdd3_SSE2 (923,330 samples, 0.19%)</title><rect x="179.7" y="277" width="2.2" height="15.0" fill="rgb(245,184,44)" rx="2" ry="2" />
<text  x="182.73" y="287.5" ></text>
</g>
<g >
<title>ext4_setattr (923,402 samples, 0.19%)</title><rect x="1184.6" y="117" width="2.1" height="15.0" fill="rgb(230,117,28)" rx="2" ry="2" />
<text  x="1187.56" y="127.5" ></text>
</g>
<g >
<title>clear_page_rep (462,447 samples, 0.09%)</title><rect x="88.6" y="117" width="1.1" height="15.0" fill="rgb(253,221,52)" rx="2" ry="2" />
<text  x="91.60" y="127.5" ></text>
</g>
<g >
<title>handle_mm_fault (462,447 samples, 0.09%)</title><rect x="88.6" y="213" width="1.1" height="15.0" fill="rgb(234,135,32)" rx="2" ry="2" />
<text  x="91.60" y="223.5" ></text>
</g>
<g >
<title>truncate_cleanup_folio (923,402 samples, 0.19%)</title><rect x="1184.6" y="69" width="2.1" height="15.0" fill="rgb(240,165,39)" rx="2" ry="2" />
<text  x="1187.56" y="79.5" ></text>
</g>
<g >
<title>TransformColorInverse_SSE2 (18,436,157 samples, 3.70%)</title><rect x="259.7" y="261" width="43.7" height="15.0" fill="rgb(253,223,53)" rx="2" ry="2" />
<text  x="262.72" y="271.5" >Tran..</text>
</g>
<g >
<title>mpage_prepare_extent_to_map (923,412 samples, 0.19%)</title><rect x="1182.4" y="69" width="2.2" height="15.0" fill="rgb(225,93,22)" rx="2" ry="2" />
<text  x="1185.37" y="79.5" ></text>
</g>
<g >
<title>get_page_from_freelist (462,447 samples, 0.09%)</title><rect x="88.6" y="133" width="1.1" height="15.0" fill="rgb(252,218,52)" rx="2" ry="2" />
<text  x="91.60" y="143.5" ></text>
</g>
</g>
</svg>
