<?xml version="1.0" standalone="no"?>
<!DOCTYPE svg PUBLIC "-//W3C//DTD SVG 1.1//EN" "http://www.w3.org/Graphics/SVG/1.1/DTD/svg11.dtd">
<svg version="1.1" width="1200" height="374" onload="init(evt)" viewBox="0 0 1200 374" xmlns="http://www.w3.org/2000/svg" xmlns:xlink="http://www.w3.org/1999/xlink">
<!-- Flame graph stack visualization. See https://github.com/brendangregg/FlameGraph for latest version, and http://www.brendangregg.com/flamegraphs.html for examples. -->
<!-- NOTES:  -->
<defs>
	<linearGradient id="background" y1="0" y2="1" x1="0" x2="0" >
		<stop stop-color="#eeeeee" offset="5%" />
		<stop stop-color="#eeeeb0" offset="95%" />
	</linearGradient>
</defs>
<style type="text/css">
	text { font-family:Verdana; font-size:12px; fill:rgb(0,0,0); }
	#search, #ignorecase { opacity:0.1; cursor:pointer; }
	#search:hover, #search.show, #ignorecase:hover, #ignorecase.show { opacity:1; }
	#subtitle { text-anchor:middle; font-color:rgb(160,160,160); }
	#title { text-anchor:middle; font-size:17px}
	#unzoom { cursor:pointer; }
	#frames > *:hover { stroke:black; stroke-width:0.5; cursor:pointer; }
	.hide { display:none; }
	.parent { opacity:0.5; }
</style>
<script type="text/ecmascript">
<![CDATA[
	"use strict";
	var details, searchbtn, unzoombtn, matchedtxt, svg, searching, currentSearchTerm, ignorecase, ignorecaseBtn;
	function init(evt) {
		details = document.getElementById("details").firstChild;
		searchbtn = document.getElementById("search");
		ignorecaseBtn = document.getElementById("ignorecase");
		unzoombtn = document.getElementById("unzoom");
		matchedtxt = document.getElementById("matched");
		svg = document.getElementsByTagName("svg")[0];
		searching = 0;
		currentSearchTerm = null;

		// use GET parameters to restore a flamegraphs state.
		var params = get_params();
		if (params.x && params.y)
			zoom(find_group(document.querySelector('[x="' + params.x + '"][y="' + params.y + '"]')));
                if (params.s) search(params.s);
	}

	// event listeners
	window.addEventListener("click", function(e) {
		var target = find_group(e.target);
		if (target) {
			if (target.nodeName == "a") {
				if (e.ctrlKey === false) return;
				e.preventDefault();
			}
			if (target.classList.contains("parent")) unzoom(true);
			zoom(target);
			if (!document.querySelector('.parent')) {
				// we have basically done a clearzoom so clear the url
				var params = get_params();
				if (params.x) delete params.x;
				if (params.y) delete params.y;
				history.replaceState(null, null, parse_params(params));
				unzoombtn.classList.add("hide");
				return;
			}

			// set parameters for zoom state
			var el = target.querySelector("rect");
			if (el && el.attributes && el.attributes.y && el.attributes._orig_x) {
				var params = get_params()
				params.x = el.attributes._orig_x.value;
				params.y = el.attributes.y.value;
				history.replaceState(null, null, parse_params(params));
			}
		}
		else if (e.target.id == "unzoom") clearzoom();
		else if (e.target.id == "search") search_prompt();
		else if (e.target.id == "ignorecase") toggle_ignorecase();
	}, false)

	// mouse-over for info
	// show
	window.addEventListener("mouseover", function(e) {
		var target = find_group(e.target);
		if (target) details.nodeValue = "Function: " + g_to_text(target);
	}, false)

	// clear
	window.addEventListener("mouseout", function(e) {
		var target = find_group(e.target);
		if (target) details.nodeValue = ' ';
	}, false)

	// ctrl-F for search
	// ctrl-I to toggle case-sensitive search
	window.addEventListener("keydown",function (e) {
		if (e.keyCode === 114 || (e.ctrlKey && e.keyCode === 70)) {
			e.preventDefault();
			search_prompt();
		}
		else if (e.ctrlKey && e.keyCode === 73) {
			e.preventDefault();
			toggle_ignorecase();
		}
	}, false)

	// functions
	function get_params() {
		var params = {};
		var paramsarr = window.location.search.substr(1).split('&');
		for (var i = 0; i < paramsarr.length; ++i) {
			var tmp = paramsarr[i].split("=");
			if (!tmp[0] || !tmp[1]) continue;
			params[tmp[0]]  = decodeURIComponent(tmp[1]);
		}
		return params;
	}
	function parse_params(params) {
		var uri = "?";
		for (var key in params) {
			uri += key + '=' + encodeURIComponent(params[key]) + '&';
		}
		if (uri.slice(-1) == "&")
			uri = uri.substring(0, uri.length - 1);
		if (uri == '?')
			uri = window.location.href.split('?')[0];
		return uri;
	}
	function find_child(node, selector) {
		var children = node.querySelectorAll(selector);
		if (children.length) return children[0];
	}
	function find_group(node) {
		var parent = node.parentElement;
		if (!parent) return;
		if (parent.id == "frames") return node;
		return find_group(parent);
	}
	function orig_save(e, attr, val) {
		if (e.attributes["_orig_" + attr] != undefined) return;
		if (e.attributes[attr] == undefined) return;
		if (val == undefined) val = e.attributes[attr].value;
		e.setAttribute("_orig_" + attr, val);
	}
	function orig_load(e, attr) {
		if (e.attributes["_orig_"+attr] == undefined) return;
		e.attributes[attr].value = e.attributes["_orig_" + attr].value;
		e.removeAttribute("_orig_"+attr);
	}
	function g_to_text(e) {
		var text = find_child(e, "title").firstChild.nodeValue;
		return (text)
	}
	function g_to_func(e) {
		var func = g_to_text(e);
		// if there's any manipulation we want to do to the function
		// name before it's searched, do it here before returning.
		return (func);
	}
	function update_text(e) {
		var r = find_child(e, "rect");
		var t = find_child(e, "text");
		var w = parseFloat(r.attributes.width.value) -3;
		var txt = find_child(e, "title").textContent.replace(/\([^(]*\)$/,"");
		t.attributes.x.value = parseFloat(r.attributes.x.value) + 3;

		// Smaller than this size won't fit anything
		if (w < 2 * 12 * 0.59) {
			t.textContent = "";
			return;
		}

		t.textContent = txt;
		var sl = t.getSubStringLength(0, txt.length);
		// check if only whitespace or if we can fit the entire string into width w
		if (/^ *$/.test(txt) || sl < w)
			return;

		// this isn't perfect, but gives a good starting point
		// and avoids calling getSubStringLength too often
		var start = Math.floor((w/sl) * txt.length);
		for (var x = start; x > 0; x = x-2) {
			if (t.getSubStringLength(0, x + 2) <= w) {
				t.textContent = txt.substring(0, x) + "..";
				return;
			}
		}
		t.textContent = "";
	}

	// zoom
	function zoom_reset(e) {
		if (e.attributes != undefined) {
			orig_load(e, "x");
			orig_load(e, "width");
		}
		if (e.childNodes == undefined) return;
		for (var i = 0, c = e.childNodes; i < c.length; i++) {
			zoom_reset(c[i]);
		}
	}
	function zoom_child(e, x, ratio) {
		if (e.attributes != undefined) {
			if (e.attributes.x != undefined) {
				orig_save(e, "x");
				e.attributes.x.value = (parseFloat(e.attributes.x.value) - x - 10) * ratio + 10;
				if (e.tagName == "text")
					e.attributes.x.value = find_child(e.parentNode, "rect[x]").attributes.x.value + 3;
			}
			if (e.attributes.width != undefined) {
				orig_save(e, "width");
				e.attributes.width.value = parseFloat(e.attributes.width.value) * ratio;
			}
		}

		if (e.childNodes == undefined) return;
		for (var i = 0, c = e.childNodes; i < c.length; i++) {
			zoom_child(c[i], x - 10, ratio);
		}
	}
	function zoom_parent(e) {
		if (e.attributes) {
			if (e.attributes.x != undefined) {
				orig_save(e, "x");
				e.attributes.x.value = 10;
			}
			if (e.attributes.width != undefined) {
				orig_save(e, "width");
				e.attributes.width.value = parseInt(svg.width.baseVal.value) - (10 * 2);
			}
		}
		if (e.childNodes == undefined) return;
		for (var i = 0, c = e.childNodes; i < c.length; i++) {
			zoom_parent(c[i]);
		}
	}
	function zoom(node) {
		var attr = find_child(node, "rect").attributes;
		var width = parseFloat(attr.width.value);
		var xmin = parseFloat(attr.x.value);
		var xmax = parseFloat(xmin + width);
		var ymin = parseFloat(attr.y.value);
		var ratio = (svg.width.baseVal.value - 2 * 10) / width;

		// XXX: Workaround for JavaScript float issues (fix me)
		var fudge = 0.0001;

		unzoombtn.classList.remove("hide");

		var el = document.getElementById("frames").children;
		for (var i = 0; i < el.length; i++) {
			var e = el[i];
			var a = find_child(e, "rect").attributes;
			var ex = parseFloat(a.x.value);
			var ew = parseFloat(a.width.value);
			var upstack;
			// Is it an ancestor
			if (0 == 0) {
				upstack = parseFloat(a.y.value) > ymin;
			} else {
				upstack = parseFloat(a.y.value) < ymin;
			}
			if (upstack) {
				// Direct ancestor
				if (ex <= xmin && (ex+ew+fudge) >= xmax) {
					e.classList.add("parent");
					zoom_parent(e);
					update_text(e);
				}
				// not in current path
				else
					e.classList.add("hide");
			}
			// Children maybe
			else {
				// no common path
				if (ex < xmin || ex + fudge >= xmax) {
					e.classList.add("hide");
				}
				else {
					zoom_child(e, xmin, ratio);
					update_text(e);
				}
			}
		}
		search();
	}
	function unzoom(dont_update_text) {
		unzoombtn.classList.add("hide");
		var el = document.getElementById("frames").children;
		for(var i = 0; i < el.length; i++) {
			el[i].classList.remove("parent");
			el[i].classList.remove("hide");
			zoom_reset(el[i]);
			if(!dont_update_text) update_text(el[i]);
		}
		search();
	}
	function clearzoom() {
		unzoom();

		// remove zoom state
		var params = get_params();
		if (params.x) delete params.x;
		if (params.y) delete params.y;
		history.replaceState(null, null, parse_params(params));
	}

	// search
	function toggle_ignorecase() {
		ignorecase = !ignorecase;
		if (ignorecase) {
			ignorecaseBtn.classList.add("show");
		} else {
			ignorecaseBtn.classList.remove("show");
		}
		reset_search();
		search();
	}
	function reset_search() {
		var el = document.querySelectorAll("#frames rect");
		for (var i = 0; i < el.length; i++) {
			orig_load(el[i], "fill")
		}
		var params = get_params();
		delete params.s;
		history.replaceState(null, null, parse_params(params));
	}
	function search_prompt() {
		if (!searching) {
			var term = prompt("Enter a search term (regexp " +
			    "allowed, eg: ^ext4_)"
			    + (ignorecase ? ", ignoring case" : "")
			    + "\nPress Ctrl-i to toggle case sensitivity", "");
			if (term != null) search(term);
		} else {
			reset_search();
			searching = 0;
			currentSearchTerm = null;
			searchbtn.classList.remove("show");
			searchbtn.firstChild.nodeValue = "Search"
			matchedtxt.classList.add("hide");
			matchedtxt.firstChild.nodeValue = ""
		}
	}
	function search(term) {
		if (term) currentSearchTerm = term;

		var re = new RegExp(currentSearchTerm, ignorecase ? 'i' : '');
		var el = document.getElementById("frames").children;
		var matches = new Object();
		var maxwidth = 0;
		for (var i = 0; i < el.length; i++) {
			var e = el[i];
			var func = g_to_func(e);
			var rect = find_child(e, "rect");
			if (func == null || rect == null)
				continue;

			// Save max width. Only works as we have a root frame
			var w = parseFloat(rect.attributes.width.value);
			if (w > maxwidth)
				maxwidth = w;

			if (func.match(re)) {
				// highlight
				var x = parseFloat(rect.attributes.x.value);
				orig_save(rect, "fill");
				rect.attributes.fill.value = "rgb(230,0,230)";

				// remember matches
				if (matches[x] == undefined) {
					matches[x] = w;
				} else {
					if (w > matches[x]) {
						// overwrite with parent
						matches[x] = w;
					}
				}
				searching = 1;
			}
		}
		if (!searching)
			return;
		var params = get_params();
		params.s = currentSearchTerm;
		history.replaceState(null, null, parse_params(params));

		searchbtn.classList.add("show");
		searchbtn.firstChild.nodeValue = "Reset Search";

		// calculate percent matched, excluding vertical overlap
		var count = 0;
		var lastx = -1;
		var lastw = 0;
		var keys = Array();
		for (k in matches) {
			if (matches.hasOwnProperty(k))
				keys.push(k);
		}
		// sort the matched frames by their x location
		// ascending, then width descending
		keys.sort(function(a, b){
			return a - b;
		});
		// Step through frames saving only the biggest bottom-up frames
		// thanks to the sort order. This relies on the tree property
		// where children are always smaller than their parents.
		var fudge = 0.0001;	// JavaScript floating point
		for (var k in keys) {
			var x = parseFloat(keys[k]);
			var w = matches[keys[k]];
			if (x >= lastx + lastw - fudge) {
				count += w;
				lastx = x;
				lastw = w;
			}
		}
		// display matched percent
		matchedtxt.classList.remove("hide");
		var pct = 100 * count / maxwidth;
		if (pct != 100) pct = pct.toFixed(1)
		matchedtxt.firstChild.nodeValue = "Matched: " + pct + "%";
	}
]]>
</script>
<rect x="0.0" y="0" width="1200.0" height="374.0" fill="url(#background)"  />
<text id="title" x="600.00" y="24" >Flame Graph</text>
<text id="details" x="10.00" y="357" > </text>
<text id="unzoom" x="10.00" y="24" class="hide">Reset Zoom</text>
<text id="search" x="1090.00" y="24" >Search</text>
<text id="ignorecase" x="1174.00" y="24" >ic</text>
<text id="matched" x="1090.00" y="357" > </text>
<g id="frames">
<g >
<title>do_execveat_common.isra.0 (137,457 samples, 0.01%)</title><rect x="1189.8" y="229" width="0.2" height="15.0" fill="rgb(231,123,29)" rx="2" ry="2" />
<text  x="1192.84" y="239.5" ></text>
</g>
<g >
<title>w2c_decode__webp__wasm_DecodeImageData (23,088,916 samples, 2.26%)</title><rect x="56.2" y="293" width="26.7" height="15.0" fill="rgb(217,59,14)" rx="2" ry="2" />
<text  x="59.24" y="303.5" >w..</text>
</g>
<g >
<title>generic_write_end (924,782 samples, 0.09%)</title><rect x="25.4" y="165" width="1.1" height="15.0" fill="rgb(206,8,1)" rx="2" ry="2" />
<text  x="28.40" y="175.5" ></text>
</g>
<g >
<title>decode_webp_was (1,021,183,683 samples, 99.99%)</title><rect x="10.0" y="309" width="1179.8" height="15.0" fill="rgb(216,54,12)" rx="2" ry="2" />
<text  x="13.00" y="319.5" >decode_webp_was</text>
</g>
<g >
<title>w2c_decode__webp__wasm_ExtractAlphaRows (924,274 samples, 0.09%)</title><rect x="26.9" y="277" width="1.0" height="15.0" fill="rgb(206,7,1)" rx="2" ry="2" />
<text  x="29.88" y="287.5" ></text>
</g>
<g >
<title>w2c_decode__webp__wasm_GetCoeffsFast (217,233,164 samples, 21.27%)</title><rect x="354.7" y="293" width="251.0" height="15.0" fill="rgb(232,124,29)" rx="2" ry="2" />
<text  x="357.72" y="303.5" >w2c_decode__webp__wasm_GetCoeffsF..</text>
</g>
<g >
<title>w2c_decode__webp__wasm_IDecode (76,868,994 samples, 7.53%)</title><rect x="660.1" y="293" width="88.8" height="15.0" fill="rgb(208,15,3)" rx="2" ry="2" />
<text  x="663.11" y="303.5" >w2c_decode..</text>
</g>
<g >
<title>__folio_mark_dirty (924,782 samples, 0.09%)</title><rect x="25.4" y="117" width="1.1" height="15.0" fill="rgb(239,159,38)" rx="2" ry="2" />
<text  x="28.40" y="127.5" ></text>
</g>
<g >
<title>__x64_sys_execve (137,457 samples, 0.01%)</title><rect x="1189.8" y="245" width="0.2" height="15.0" fill="rgb(247,193,46)" rx="2" ry="2" />
<text  x="1192.84" y="255.5" ></text>
</g>
<g >
<title>syscall_exit_to_user_mode (924,607 samples, 0.09%)</title><rect x="24.3" y="229" width="1.1" height="15.0" fill="rgb(251,211,50)" rx="2" ry="2" />
<text  x="27.33" y="239.5" ></text>
</g>
<g >
<title>asm_exc_page_fault (865,089 samples, 0.08%)</title><rect x="1149.4" y="277" width="1.0" height="15.0" fill="rgb(225,93,22)" rx="2" ry="2" />
<text  x="1152.36" y="287.5" ></text>
</g>
<g >
<title>tlb_gather_mmu (467,305 samples, 0.05%)</title><rect x="45.0" y="213" width="0.6" height="15.0" fill="rgb(239,160,38)" rx="2" ry="2" />
<text  x="48.02" y="223.5" ></text>
</g>
<g >
<title>[unknown] (11,938,435 samples, 1.17%)</title><rect x="10.0" y="261" width="13.8" height="15.0" fill="rgb(210,24,5)" rx="2" ry="2" />
<text  x="13.00" y="271.5" ></text>
</g>
<g >
<title>handle_mm_fault (356,639 samples, 0.03%)</title><rect x="26.5" y="101" width="0.4" height="15.0" fill="rgb(234,135,32)" rx="2" ry="2" />
<text  x="29.47" y="111.5" ></text>
</g>
<g >
<title>w2c_decode__webp__wasm_TransformOne_C (40,611,704 samples, 3.98%)</title><rect x="800.2" y="293" width="46.9" height="15.0" fill="rgb(231,120,28)" rx="2" ry="2" />
<text  x="803.15" y="303.5" >w2c_..</text>
</g>
<g >
<title>task_work_run (924,607 samples, 0.09%)</title><rect x="24.3" y="197" width="1.1" height="15.0" fill="rgb(209,22,5)" rx="2" ry="2" />
<text  x="27.33" y="207.5" ></text>
</g>
<g >
<title>begin_new_exec (137,457 samples, 0.01%)</title><rect x="1189.8" y="181" width="0.2" height="15.0" fill="rgb(245,184,44)" rx="2" ry="2" />
<text  x="1192.84" y="191.5" ></text>
</g>
<g >
<title>perf_iterate_sb (108,831 samples, 0.01%)</title><rect x="1189.8" y="149" width="0.2" height="15.0" fill="rgb(244,179,42)" rx="2" ry="2" />
<text  x="1192.84" y="159.5" ></text>
</g>
<g >
<title>getenv (464,626 samples, 0.05%)</title><rect x="23.8" y="261" width="0.5" height="15.0" fill="rgb(221,73,17)" rx="2" ry="2" />
<text  x="26.79" y="271.5" ></text>
</g>
<g >
<title>w2c_decode__webp__wasm_VL4_C (923,367 samples, 0.09%)</title><rect x="1155.7" y="293" width="1.1" height="15.0" fill="rgb(247,196,46)" rx="2" ry="2" />
<text  x="1158.69" y="303.5" ></text>
</g>
<g >
<title>w2c_decode__webp__wasm_HFilter16i_C (924,108 samples, 0.09%)</title><rect x="655.8" y="293" width="1.1" height="15.0" fill="rgb(254,229,54)" rx="2" ry="2" />
<text  x="658.84" y="303.5" ></text>
</g>
<g >
<title>w2c_decode__webp__wasm_FinishRow (5,544,173 samples, 0.54%)</title><rect x="348.3" y="293" width="6.4" height="15.0" fill="rgb(227,101,24)" rx="2" ry="2" />
<text  x="351.31" y="303.5" ></text>
</g>
<g >
<title>exc_page_fault (865,089 samples, 0.08%)</title><rect x="1149.4" y="261" width="1.0" height="15.0" fill="rgb(212,35,8)" rx="2" ry="2" />
<text  x="1152.36" y="271.5" ></text>
</g>
<g >
<title>asm_exc_page_fault (356,639 samples, 0.03%)</title><rect x="26.5" y="149" width="0.4" height="15.0" fill="rgb(225,93,22)" rx="2" ry="2" />
<text  x="29.47" y="159.5" ></text>
</g>
<g >
<title>ext4_writepages (924,607 samples, 0.09%)</title><rect x="24.3" y="101" width="1.1" height="15.0" fill="rgb(240,165,39)" rx="2" ry="2" />
<text  x="27.33" y="111.5" ></text>
</g>
<g >
<title>perf_iterate_ctx (108,831 samples, 0.01%)</title><rect x="1189.8" y="133" width="0.2" height="15.0" fill="rgb(205,4,0)" rx="2" ry="2" />
<text  x="1192.84" y="143.5" ></text>
</g>
<g >
<title>__close_nocancel (924,607 samples, 0.09%)</title><rect x="24.3" y="277" width="1.1" height="15.0" fill="rgb(228,109,26)" rx="2" ry="2" />
<text  x="27.33" y="287.5" ></text>
</g>
<g >
<title>entry_SYSCALL_64_after_hwframe (137,457 samples, 0.01%)</title><rect x="1189.8" y="277" width="0.2" height="15.0" fill="rgb(218,63,15)" rx="2" ry="2" />
<text  x="1192.84" y="287.5" ></text>
</g>
<g >
<title>__memmove_avx_unaligned_erms (5,543,029 samples, 0.54%)</title><rect x="37.6" y="293" width="6.4" height="15.0" fill="rgb(205,0,0)" rx="2" ry="2" />
<text  x="40.55" y="303.5" ></text>
</g>
<g >
<title>page_add_new_anon_rmap (865,089 samples, 0.08%)</title><rect x="1149.4" y="197" width="1.0" height="15.0" fill="rgb(235,138,33)" rx="2" ry="2" />
<text  x="1152.36" y="207.5" ></text>
</g>
<g >
<title>w2c_decode__webp__wasm_GetCoeffsFast (6,395,905 samples, 0.63%)</title><rect x="11.1" y="197" width="7.4" height="15.0" fill="rgb(232,124,29)" rx="2" ry="2" />
<text  x="14.07" y="207.5" ></text>
</g>
<g >
<title>bprm_execve (137,457 samples, 0.01%)</title><rect x="1189.8" y="213" width="0.2" height="15.0" fill="rgb(218,61,14)" rx="2" ry="2" />
<text  x="1192.84" y="223.5" ></text>
</g>
<g >
<title>entry_SYSCALL_64_after_hwframe (924,782 samples, 0.09%)</title><rect x="25.4" y="261" width="1.1" height="15.0" fill="rgb(218,63,15)" rx="2" ry="2" />
<text  x="28.40" y="271.5" ></text>
</g>
<g >
<title>__handle_mm_fault (356,639 samples, 0.03%)</title><rect x="26.5" y="85" width="0.4" height="15.0" fill="rgb(207,9,2)" rx="2" ry="2" />
<text  x="29.47" y="95.5" ></text>
</g>
<g >
<title>w2c_decode__webp__wasm_TransformWHT_C (923,037 samples, 0.09%)</title><rect x="36.5" y="277" width="1.1" height="15.0" fill="rgb(234,136,32)" rx="2" ry="2" />
<text  x="39.49" y="287.5" ></text>
</g>
<g >
<title>w2c_decode__webp__wasm_TransformUV_C (923,253 samples, 0.09%)</title><rect x="22.7" y="197" width="1.1" height="15.0" fill="rgb(249,206,49)" rx="2" ry="2" />
<text  x="25.73" y="207.5" ></text>
</g>
<g >
<title>[unknown] (23,847,379 samples, 2.33%)</title><rect x="10.0" y="293" width="27.6" height="15.0" fill="rgb(210,24,5)" rx="2" ry="2" />
<text  x="13.00" y="303.5" >[..</text>
</g>
<g >
<title>__x64_sys_execve (356,639 samples, 0.03%)</title><rect x="26.5" y="245" width="0.4" height="15.0" fill="rgb(247,193,46)" rx="2" ry="2" />
<text  x="29.47" y="255.5" ></text>
</g>
<g >
<title>__fput (924,607 samples, 0.09%)</title><rect x="24.3" y="181" width="1.1" height="15.0" fill="rgb(248,200,47)" rx="2" ry="2" />
<text  x="27.33" y="191.5" ></text>
</g>
<g >
<title>entry_SYSCALL_64_after_hwframe (924,607 samples, 0.09%)</title><rect x="24.3" y="261" width="1.1" height="15.0" fill="rgb(218,63,15)" rx="2" ry="2" />
<text  x="27.33" y="271.5" ></text>
</g>
<g >
<title>padzero (356,639 samples, 0.03%)</title><rect x="26.5" y="181" width="0.4" height="15.0" fill="rgb(223,84,20)" rx="2" ry="2" />
<text  x="29.47" y="191.5" ></text>
</g>
<g >
<title>w2c_decode__webp__wasm_VE4_C (3,688,232 samples, 0.36%)</title><rect x="1150.4" y="293" width="4.2" height="15.0" fill="rgb(242,174,41)" rx="2" ry="2" />
<text  x="1153.36" y="303.5" ></text>
</g>
<g >
<title>vma_alloc_folio (356,639 samples, 0.03%)</title><rect x="26.5" y="53" width="0.4" height="15.0" fill="rgb(245,187,44)" rx="2" ry="2" />
<text  x="29.47" y="63.5" ></text>
</g>
<g >
<title>__mod_lruvec_page_state (865,089 samples, 0.08%)</title><rect x="1149.4" y="181" width="1.0" height="15.0" fill="rgb(245,185,44)" rx="2" ry="2" />
<text  x="1152.36" y="191.5" ></text>
</g>
<g >
<title>perf_event_comm (108,831 samples, 0.01%)</title><rect x="1189.8" y="165" width="0.2" height="15.0" fill="rgb(222,82,19)" rx="2" ry="2" />
<text  x="1192.84" y="175.5" ></text>
</g>
<g >
<title>do_syscall_64 (924,607 samples, 0.09%)</title><rect x="24.3" y="245" width="1.1" height="15.0" fill="rgb(209,20,4)" rx="2" ry="2" />
<text  x="27.33" y="255.5" ></text>
</g>
<g >
<title>w2c_decode__webp__wasm_FilterLoop24_C (923,409 samples, 0.09%)</title><rect x="10.0" y="197" width="1.1" height="15.0" fill="rgb(206,5,1)" rx="2" ry="2" />
<text  x="13.00" y="207.5" ></text>
</g>
<g >
<title>[unknown] (12,403,061 samples, 1.21%)</title><rect x="10.0" y="277" width="14.3" height="15.0" fill="rgb(210,24,5)" rx="2" ry="2" />
<text  x="13.00" y="287.5" ></text>
</g>
<g >
<title>do_syscall_64 (137,457 samples, 0.01%)</title><rect x="1189.8" y="261" width="0.2" height="15.0" fill="rgb(209,20,4)" rx="2" ry="2" />
<text  x="1192.84" y="271.5" ></text>
</g>
<g >
<title>vfs_write (924,782 samples, 0.09%)</title><rect x="25.4" y="213" width="1.1" height="15.0" fill="rgb(250,209,50)" rx="2" ry="2" />
<text  x="28.40" y="223.5" ></text>
</g>
<g >
<title>filemap_fdatawrite_wbc (924,607 samples, 0.09%)</title><rect x="24.3" y="133" width="1.1" height="15.0" fill="rgb(210,25,6)" rx="2" ry="2" />
<text  x="27.33" y="143.5" ></text>
</g>
<g >
<title>[unknown] (11,938,435 samples, 1.17%)</title><rect x="10.0" y="245" width="13.8" height="15.0" fill="rgb(210,24,5)" rx="2" ry="2" />
<text  x="13.00" y="255.5" ></text>
</g>
<g >
<title>w2c_decode__webp__wasm_TransformTwo_C (924,336 samples, 0.09%)</title><rect x="847.1" y="293" width="1.0" height="15.0" fill="rgb(226,96,23)" rx="2" ry="2" />
<text  x="850.07" y="303.5" ></text>
</g>
<g >
<title>__get_vma_policy (356,639 samples, 0.03%)</title><rect x="26.5" y="37" width="0.4" height="15.0" fill="rgb(210,27,6)" rx="2" ry="2" />
<text  x="29.47" y="47.5" ></text>
</g>
<g >
<title>w2c_decode__webp__wasm_TM4_C (4,618,465 samples, 0.45%)</title><rect x="780.9" y="293" width="5.4" height="15.0" fill="rgb(254,226,54)" rx="2" ry="2" />
<text  x="783.94" y="303.5" ></text>
</g>
<g >
<title>w2c_decode__webp__wasm_LD4_C (923,736 samples, 0.09%)</title><rect x="748.9" y="293" width="1.1" height="15.0" fill="rgb(213,41,9)" rx="2" ry="2" />
<text  x="751.92" y="303.5" ></text>
</g>
<g >
<title>do_execveat_common.isra.0 (356,639 samples, 0.03%)</title><rect x="26.5" y="229" width="0.4" height="15.0" fill="rgb(231,123,29)" rx="2" ry="2" />
<text  x="29.47" y="239.5" ></text>
</g>
<g >
<title>w2c_decode__webp__wasm_TransformAC3_C (7,387,624 samples, 0.72%)</title><rect x="787.3" y="293" width="8.6" height="15.0" fill="rgb(222,79,19)" rx="2" ry="2" />
<text  x="790.35" y="303.5" ></text>
</g>
<g >
<title>entry_SYSCALL_64_after_hwframe (356,639 samples, 0.03%)</title><rect x="26.5" y="277" width="0.4" height="15.0" fill="rgb(218,63,15)" rx="2" ry="2" />
<text  x="29.47" y="287.5" ></text>
</g>
<g >
<title>w2c_decode__webp__wasm_HD4_C (2,771,188 samples, 0.27%)</title><rect x="651.6" y="293" width="3.2" height="15.0" fill="rgb(239,160,38)" rx="2" ry="2" />
<text  x="654.57" y="303.5" ></text>
</g>
<g >
<title>do_fault (356,639 samples, 0.03%)</title><rect x="26.5" y="69" width="0.4" height="15.0" fill="rgb(248,200,47)" rx="2" ry="2" />
<text  x="29.47" y="79.5" ></text>
</g>
<g >
<title>__block_commit_write.constprop.0.isra.0 (924,782 samples, 0.09%)</title><rect x="25.4" y="149" width="1.1" height="15.0" fill="rgb(249,205,49)" rx="2" ry="2" />
<text  x="28.40" y="159.5" ></text>
</g>
<g >
<title>w2c_decode__webp__wasm_HU4_C (2,771,787 samples, 0.27%)</title><rect x="656.9" y="293" width="3.2" height="15.0" fill="rgb(229,114,27)" rx="2" ry="2" />
<text  x="659.91" y="303.5" ></text>
</g>
<g >
<title>handle_mm_fault (865,089 samples, 0.08%)</title><rect x="1149.4" y="229" width="1.0" height="15.0" fill="rgb(234,135,32)" rx="2" ry="2" />
<text  x="1152.36" y="239.5" ></text>
</g>
<g >
<title>load_elf_binary (137,457 samples, 0.01%)</title><rect x="1189.8" y="197" width="0.2" height="15.0" fill="rgb(223,83,20)" rx="2" ry="2" />
<text  x="1192.84" y="207.5" ></text>
</g>
<g >
<title>[unknown] (11,938,435 samples, 1.17%)</title><rect x="10.0" y="229" width="13.8" height="15.0" fill="rgb(210,24,5)" rx="2" ry="2" />
<text  x="13.00" y="239.5" ></text>
</g>
<g >
<title>w2c_decode__webp__wasm_TM16_C (7,389,928 samples, 0.72%)</title><rect x="772.4" y="293" width="8.5" height="15.0" fill="rgb(224,90,21)" rx="2" ry="2" />
<text  x="775.40" y="303.5" ></text>
</g>
<g >
<title>w2c_decode__webp__wasm_FilterLoop26_C (82,957,092 samples, 8.12%)</title><rect x="252.5" y="293" width="95.8" height="15.0" fill="rgb(243,176,42)" rx="2" ry="2" />
<text  x="255.47" y="303.5" >w2c_decode_..</text>
</g>
<g >
<title>__x64_sys_mprotect (467,305 samples, 0.05%)</title><rect x="45.0" y="245" width="0.6" height="15.0" fill="rgb(209,21,5)" rx="2" ry="2" />
<text  x="48.02" y="255.5" ></text>
</g>
<g >
<title>ksys_write (924,782 samples, 0.09%)</title><rect x="25.4" y="229" width="1.1" height="15.0" fill="rgb(205,4,1)" rx="2" ry="2" />
<text  x="28.40" y="239.5" ></text>
</g>
<g >
<title>find_get_pages_range_tag (924,607 samples, 0.09%)</title><rect x="24.3" y="53" width="1.1" height="15.0" fill="rgb(254,226,54)" rx="2" ry="2" />
<text  x="27.33" y="63.5" ></text>
</g>
<g >
<title>mark_buffer_dirty (924,782 samples, 0.09%)</title><rect x="25.4" y="133" width="1.1" height="15.0" fill="rgb(240,163,39)" rx="2" ry="2" />
<text  x="28.40" y="143.5" ></text>
</g>
<g >
<title>w2c_decode__webp__wasm_IDecode (4,619,152 samples, 0.45%)</title><rect x="31.1" y="277" width="5.4" height="15.0" fill="rgb(208,15,3)" rx="2" ry="2" />
<text  x="34.15" y="287.5" ></text>
</g>
<g >
<title>w2c_decode__webp__wasm_FilterLoop24_C (109,888,676 samples, 10.76%)</title><rect x="125.5" y="293" width="127.0" height="15.0" fill="rgb(206,5,1)" rx="2" ry="2" />
<text  x="128.50" y="303.5" >w2c_decode__web..</text>
</g>
<g >
<title>[unknown] (137,457 samples, 0.01%)</title><rect x="1189.8" y="293" width="0.2" height="15.0" fill="rgb(210,24,5)" rx="2" ry="2" />
<text  x="1192.84" y="303.5" ></text>
</g>
<g >
<title>w2c_decode__webp__wasm_DC4_C (5,543,361 samples, 0.54%)</title><rect x="49.8" y="293" width="6.4" height="15.0" fill="rgb(222,78,18)" rx="2" ry="2" />
<text  x="52.83" y="303.5" ></text>
</g>
<g >
<title>__memset_avx2_unaligned_erms (924,084 samples, 0.09%)</title><rect x="44.0" y="293" width="1.0" height="15.0" fill="rgb(223,84,20)" rx="2" ry="2" />
<text  x="46.96" y="303.5" ></text>
</g>
<g >
<title>__filemap_fdatawrite_range (924,607 samples, 0.09%)</title><rect x="24.3" y="149" width="1.1" height="15.0" fill="rgb(233,129,30)" rx="2" ry="2" />
<text  x="27.33" y="159.5" ></text>
</g>
<g >
<title>clear_user_rep_good (356,639 samples, 0.03%)</title><rect x="26.5" y="165" width="0.4" height="15.0" fill="rgb(224,89,21)" rx="2" ry="2" />
<text  x="29.47" y="175.5" ></text>
</g>
<g >
<title>do_syscall_64 (924,782 samples, 0.09%)</title><rect x="25.4" y="245" width="1.1" height="15.0" fill="rgb(209,20,4)" rx="2" ry="2" />
<text  x="28.40" y="255.5" ></text>
</g>
<g >
<title>w2c_decode__webp__wasm_BuildHuffmanTable (2,772,146 samples, 0.27%)</title><rect x="45.6" y="293" width="3.2" height="15.0" fill="rgb(240,161,38)" rx="2" ry="2" />
<text  x="48.56" y="303.5" ></text>
</g>
<g >
<title>__handle_mm_fault (865,089 samples, 0.08%)</title><rect x="1149.4" y="213" width="1.0" height="15.0" fill="rgb(207,9,2)" rx="2" ry="2" />
<text  x="1152.36" y="223.5" ></text>
</g>
<g >
<title>w2c_decode__webp__wasm_HE4_C (923,573 samples, 0.09%)</title><rect x="654.8" y="293" width="1.0" height="15.0" fill="rgb(233,130,31)" rx="2" ry="2" />
<text  x="657.78" y="303.5" ></text>
</g>
<g >
<title>pagevec_lookup_range_tag (924,607 samples, 0.09%)</title><rect x="24.3" y="69" width="1.1" height="15.0" fill="rgb(215,47,11)" rx="2" ry="2" />
<text  x="27.33" y="79.5" ></text>
</g>
<g >
<title>generic_perform_write (924,782 samples, 0.09%)</title><rect x="25.4" y="181" width="1.1" height="15.0" fill="rgb(236,146,35)" rx="2" ry="2" />
<text  x="28.40" y="191.5" ></text>
</g>
<g >
<title>ext4_buffered_write_iter (924,782 samples, 0.09%)</title><rect x="25.4" y="197" width="1.1" height="15.0" fill="rgb(213,40,9)" rx="2" ry="2" />
<text  x="28.40" y="207.5" ></text>
</g>
<g >
<title>[unknown] (11,938,435 samples, 1.17%)</title><rect x="10.0" y="213" width="13.8" height="15.0" fill="rgb(210,24,5)" rx="2" ry="2" />
<text  x="13.00" y="223.5" ></text>
</g>
<g >
<title>w2c_decode__webp__wasm_TransformDC_C (924,215 samples, 0.09%)</title><rect x="21.7" y="197" width="1.0" height="15.0" fill="rgb(232,125,30)" rx="2" ry="2" />
<text  x="24.66" y="207.5" ></text>
</g>
<g >
<title>w2c_decode__webp__wasm_TransformDC_C (3,696,157 samples, 0.36%)</title><rect x="795.9" y="293" width="4.3" height="15.0" fill="rgb(232,125,30)" rx="2" ry="2" />
<text  x="798.88" y="303.5" ></text>
</g>
<g >
<title>do_mprotect_pkey (467,305 samples, 0.05%)</title><rect x="45.0" y="229" width="0.6" height="15.0" fill="rgb(252,218,52)" rx="2" ry="2" />
<text  x="48.02" y="239.5" ></text>
</g>
<g >
<title>w2c_decode__webp__wasm_VFilter8_C (924,165 samples, 0.09%)</title><rect x="1154.6" y="293" width="1.1" height="15.0" fill="rgb(246,190,45)" rx="2" ry="2" />
<text  x="1157.62" y="303.5" ></text>
</g>
<g >
<title>do_user_addr_fault (356,639 samples, 0.03%)</title><rect x="26.5" y="117" width="0.4" height="15.0" fill="rgb(228,108,25)" rx="2" ry="2" />
<text  x="29.47" y="127.5" ></text>
</g>
<g >
<title>do_user_addr_fault (865,089 samples, 0.08%)</title><rect x="1149.4" y="245" width="1.0" height="15.0" fill="rgb(228,108,25)" rx="2" ry="2" />
<text  x="1152.36" y="255.5" ></text>
</g>
<g >
<title>do_syscall_64 (467,305 samples, 0.05%)</title><rect x="45.0" y="261" width="0.6" height="15.0" fill="rgb(209,20,4)" rx="2" ry="2" />
<text  x="48.02" y="271.5" ></text>
</g>
<g >
<title>w2c_decode__webp__wasm_ExtractGreen_C (36,861,423 samples, 3.61%)</title><rect x="82.9" y="293" width="42.6" height="15.0" fill="rgb(247,194,46)" rx="2" ry="2" />
<text  x="85.92" y="303.5" >w2c_..</text>
</g>
<g >
<title>mpage_prepare_extent_to_map (924,607 samples, 0.09%)</title><rect x="24.3" y="85" width="1.1" height="15.0" fill="rgb(225,93,22)" rx="2" ry="2" />
<text  x="27.33" y="95.5" ></text>
</g>
<g >
<title>entry_SYSCALL_64_after_hwframe (467,305 samples, 0.05%)</title><rect x="45.0" y="277" width="0.6" height="15.0" fill="rgb(218,63,15)" rx="2" ry="2" />
<text  x="48.02" y="287.5" ></text>
</g>
<g >
<title>exit_to_user_mode_prepare (924,607 samples, 0.09%)</title><rect x="24.3" y="213" width="1.1" height="15.0" fill="rgb(228,108,25)" rx="2" ry="2" />
<text  x="27.33" y="223.5" ></text>
</g>
<g >
<title>w2c_decode__webp__wasm_IDecode (2,771,653 samples, 0.27%)</title><rect x="18.5" y="197" width="3.2" height="15.0" fill="rgb(208,15,3)" rx="2" ry="2" />
<text  x="21.46" y="207.5" ></text>
</g>
<g >
<title>load_elf_binary (356,639 samples, 0.03%)</title><rect x="26.5" y="197" width="0.4" height="15.0" fill="rgb(223,83,20)" rx="2" ry="2" />
<text  x="29.47" y="207.5" ></text>
</g>
<g >
<title>w2c_decode__webp__wasm_VP8LReadBits (3,694,175 samples, 0.36%)</title><rect x="1173.8" y="293" width="4.3" height="15.0" fill="rgb(249,206,49)" rx="2" ry="2" />
<text  x="1176.83" y="303.5" ></text>
</g>
<g >
<title>w2c_decode__webp__wasm_UpsampleRgbLinePair_C (261,578,809 samples, 25.61%)</title><rect x="848.1" y="293" width="302.3" height="15.0" fill="rgb(241,168,40)" rx="2" ry="2" />
<text  x="851.14" y="303.5" >w2c_decode__webp__wasm_UpsampleRgbLinePa..</text>
</g>
<g >
<title>w2c_decode__webp__wasm_GetCoeffsFast (2,771,827 samples, 0.27%)</title><rect x="27.9" y="277" width="3.2" height="15.0" fill="rgb(232,124,29)" rx="2" ry="2" />
<text  x="30.95" y="287.5" ></text>
</g>
<g >
<title>do_writepages (924,607 samples, 0.09%)</title><rect x="24.3" y="117" width="1.1" height="15.0" fill="rgb(240,164,39)" rx="2" ry="2" />
<text  x="27.33" y="127.5" ></text>
</g>
<g >
<title>w2c_decode__webp__wasm_RD4_C (924,415 samples, 0.09%)</title><rect x="750.0" y="293" width="1.1" height="15.0" fill="rgb(225,92,22)" rx="2" ry="2" />
<text  x="752.99" y="303.5" ></text>
</g>
<g >
<title>w2c_decode__webp__wasm_CustomPut (923,843 samples, 0.09%)</title><rect x="48.8" y="293" width="1.0" height="15.0" fill="rgb(252,219,52)" rx="2" ry="2" />
<text  x="51.77" y="303.5" ></text>
</g>
<g >
<title>all (1,021,321,140 samples, 100%)</title><rect x="10.0" y="325" width="1180.0" height="15.0" fill="rgb(213,39,9)" rx="2" ry="2" />
<text  x="13.00" y="335.5" ></text>
</g>
<g >
<title>w2c_decode__webp__wasm_TM8uv_C (922,788 samples, 0.09%)</title><rect x="786.3" y="293" width="1.0" height="15.0" fill="rgb(210,24,5)" rx="2" ry="2" />
<text  x="789.28" y="303.5" ></text>
</g>
<g >
<title>exc_page_fault (356,639 samples, 0.03%)</title><rect x="26.5" y="133" width="0.4" height="15.0" fill="rgb(212,35,8)" rx="2" ry="2" />
<text  x="29.47" y="143.5" ></text>
</g>
<g >
<title>w2c_decode__webp__wasm_VP8GetValue (12,010,441 samples, 1.18%)</title><rect x="1156.8" y="293" width="13.8" height="15.0" fill="rgb(243,179,42)" rx="2" ry="2" />
<text  x="1159.76" y="303.5" ></text>
</g>
<g >
<title>__libc_write (924,782 samples, 0.09%)</title><rect x="25.4" y="277" width="1.1" height="15.0" fill="rgb(238,154,37)" rx="2" ry="2" />
<text  x="28.40" y="287.5" ></text>
</g>
<g >
<title>perf-exec (137,457 samples, 0.01%)</title><rect x="1189.8" y="309" width="0.2" height="15.0" fill="rgb(231,123,29)" rx="2" ry="2" />
<text  x="1192.84" y="319.5" ></text>
</g>
<g >
<title>w2c_decode__webp__wasm_ReconstructRow (18,474,955 samples, 1.81%)</title><rect x="751.1" y="293" width="21.3" height="15.0" fill="rgb(238,153,36)" rx="2" ry="2" />
<text  x="754.06" y="303.5" >w..</text>
</g>
<g >
<title>bprm_execve (356,639 samples, 0.03%)</title><rect x="26.5" y="213" width="0.4" height="15.0" fill="rgb(218,61,14)" rx="2" ry="2" />
<text  x="29.47" y="223.5" ></text>
</g>
<g >
<title>w2c_decode__webp__wasm_VP8ParseProba (10,160,285 samples, 0.99%)</title><rect x="1178.1" y="293" width="11.7" height="15.0" fill="rgb(237,149,35)" rx="2" ry="2" />
<text  x="1181.10" y="303.5" ></text>
</g>
<g >
<title>__mprotect (467,305 samples, 0.05%)</title><rect x="45.0" y="293" width="0.6" height="15.0" fill="rgb(214,43,10)" rx="2" ry="2" />
<text  x="48.02" y="303.5" ></text>
</g>
<g >
<title>do_syscall_64 (356,639 samples, 0.03%)</title><rect x="26.5" y="261" width="0.4" height="15.0" fill="rgb(209,20,4)" rx="2" ry="2" />
<text  x="29.47" y="271.5" ></text>
</g>
<g >
<title>w2c_decode__webp__wasm_VP8LDoFillBitWindow (2,771,688 samples, 0.27%)</title><rect x="1170.6" y="293" width="3.2" height="15.0" fill="rgb(232,127,30)" rx="2" ry="2" />
<text  x="1173.63" y="303.5" ></text>
</g>
<g >
<title>ext4_release_file (924,607 samples, 0.09%)</title><rect x="24.3" y="165" width="1.1" height="15.0" fill="rgb(225,92,22)" rx="2" ry="2" />
<text  x="27.33" y="175.5" ></text>
</g>
<g >
<title>w2c_decode__webp__wasm_GetLargeValue (39,704,172 samples, 3.89%)</title><rect x="605.7" y="293" width="45.9" height="15.0" fill="rgb(206,5,1)" rx="2" ry="2" />
<text  x="608.70" y="303.5" >w2c_..</text>
</g>
</g>
</svg>
