<?xml version="1.0" standalone="no"?>
<!DOCTYPE svg PUBLIC "-//W3C//DTD SVG 1.1//EN" "http://www.w3.org/Graphics/SVG/1.1/DTD/svg11.dtd">
<svg version="1.1" width="1200" height="326" onload="init(evt)" viewBox="0 0 1200 326" xmlns="http://www.w3.org/2000/svg" xmlns:xlink="http://www.w3.org/1999/xlink">
<!-- Flame graph stack visualization. See https://github.com/brendangregg/FlameGraph for latest version, and http://www.brendangregg.com/flamegraphs.html for examples. -->
<!-- NOTES:  -->
<defs>
	<linearGradient id="background" y1="0" y2="1" x1="0" x2="0" >
		<stop stop-color="#eeeeee" offset="5%" />
		<stop stop-color="#eeeeb0" offset="95%" />
	</linearGradient>
</defs>
<style type="text/css">
	text { font-family:Verdana; font-size:12px; fill:rgb(0,0,0); }
	#search, #ignorecase { opacity:0.1; cursor:pointer; }
	#search:hover, #search.show, #ignorecase:hover, #ignorecase.show { opacity:1; }
	#subtitle { text-anchor:middle; font-color:rgb(160,160,160); }
	#title { text-anchor:middle; font-size:17px}
	#unzoom { cursor:pointer; }
	#frames > *:hover { stroke:black; stroke-width:0.5; cursor:pointer; }
	.hide { display:none; }
	.parent { opacity:0.5; }
</style>
<script type="text/ecmascript">
<![CDATA[
	"use strict";
	var details, searchbtn, unzoombtn, matchedtxt, svg, searching, currentSearchTerm, ignorecase, ignorecaseBtn;
	function init(evt) {
		details = document.getElementById("details").firstChild;
		searchbtn = document.getElementById("search");
		ignorecaseBtn = document.getElementById("ignorecase");
		unzoombtn = document.getElementById("unzoom");
		matchedtxt = document.getElementById("matched");
		svg = document.getElementsByTagName("svg")[0];
		searching = 0;
		currentSearchTerm = null;

		// use GET parameters to restore a flamegraphs state.
		var params = get_params();
		if (params.x && params.y)
			zoom(find_group(document.querySelector('[x="' + params.x + '"][y="' + params.y + '"]')));
                if (params.s) search(params.s);
	}

	// event listeners
	window.addEventListener("click", function(e) {
		var target = find_group(e.target);
		if (target) {
			if (target.nodeName == "a") {
				if (e.ctrlKey === false) return;
				e.preventDefault();
			}
			if (target.classList.contains("parent")) unzoom(true);
			zoom(target);
			if (!document.querySelector('.parent')) {
				// we have basically done a clearzoom so clear the url
				var params = get_params();
				if (params.x) delete params.x;
				if (params.y) delete params.y;
				history.replaceState(null, null, parse_params(params));
				unzoombtn.classList.add("hide");
				return;
			}

			// set parameters for zoom state
			var el = target.querySelector("rect");
			if (el && el.attributes && el.attributes.y && el.attributes._orig_x) {
				var params = get_params()
				params.x = el.attributes._orig_x.value;
				params.y = el.attributes.y.value;
				history.replaceState(null, null, parse_params(params));
			}
		}
		else if (e.target.id == "unzoom") clearzoom();
		else if (e.target.id == "search") search_prompt();
		else if (e.target.id == "ignorecase") toggle_ignorecase();
	}, false)

	// mouse-over for info
	// show
	window.addEventListener("mouseover", function(e) {
		var target = find_group(e.target);
		if (target) details.nodeValue = "Function: " + g_to_text(target);
	}, false)

	// clear
	window.addEventListener("mouseout", function(e) {
		var target = find_group(e.target);
		if (target) details.nodeValue = ' ';
	}, false)

	// ctrl-F for search
	// ctrl-I to toggle case-sensitive search
	window.addEventListener("keydown",function (e) {
		if (e.keyCode === 114 || (e.ctrlKey && e.keyCode === 70)) {
			e.preventDefault();
			search_prompt();
		}
		else if (e.ctrlKey && e.keyCode === 73) {
			e.preventDefault();
			toggle_ignorecase();
		}
	}, false)

	// functions
	function get_params() {
		var params = {};
		var paramsarr = window.location.search.substr(1).split('&');
		for (var i = 0; i < paramsarr.length; ++i) {
			var tmp = paramsarr[i].split("=");
			if (!tmp[0] || !tmp[1]) continue;
			params[tmp[0]]  = decodeURIComponent(tmp[1]);
		}
		return params;
	}
	function parse_params(params) {
		var uri = "?";
		for (var key in params) {
			uri += key + '=' + encodeURIComponent(params[key]) + '&';
		}
		if (uri.slice(-1) == "&")
			uri = uri.substring(0, uri.length - 1);
		if (uri == '?')
			uri = window.location.href.split('?')[0];
		return uri;
	}
	function find_child(node, selector) {
		var children = node.querySelectorAll(selector);
		if (children.length) return children[0];
	}
	function find_group(node) {
		var parent = node.parentElement;
		if (!parent) return;
		if (parent.id == "frames") return node;
		return find_group(parent);
	}
	function orig_save(e, attr, val) {
		if (e.attributes["_orig_" + attr] != undefined) return;
		if (e.attributes[attr] == undefined) return;
		if (val == undefined) val = e.attributes[attr].value;
		e.setAttribute("_orig_" + attr, val);
	}
	function orig_load(e, attr) {
		if (e.attributes["_orig_"+attr] == undefined) return;
		e.attributes[attr].value = e.attributes["_orig_" + attr].value;
		e.removeAttribute("_orig_"+attr);
	}
	function g_to_text(e) {
		var text = find_child(e, "title").firstChild.nodeValue;
		return (text)
	}
	function g_to_func(e) {
		var func = g_to_text(e);
		// if there's any manipulation we want to do to the function
		// name before it's searched, do it here before returning.
		return (func);
	}
	function update_text(e) {
		var r = find_child(e, "rect");
		var t = find_child(e, "text");
		var w = parseFloat(r.attributes.width.value) -3;
		var txt = find_child(e, "title").textContent.replace(/\([^(]*\)$/,"");
		t.attributes.x.value = parseFloat(r.attributes.x.value) + 3;

		// Smaller than this size won't fit anything
		if (w < 2 * 12 * 0.59) {
			t.textContent = "";
			return;
		}

		t.textContent = txt;
		var sl = t.getSubStringLength(0, txt.length);
		// check if only whitespace or if we can fit the entire string into width w
		if (/^ *$/.test(txt) || sl < w)
			return;

		// this isn't perfect, but gives a good starting point
		// and avoids calling getSubStringLength too often
		var start = Math.floor((w/sl) * txt.length);
		for (var x = start; x > 0; x = x-2) {
			if (t.getSubStringLength(0, x + 2) <= w) {
				t.textContent = txt.substring(0, x) + "..";
				return;
			}
		}
		t.textContent = "";
	}

	// zoom
	function zoom_reset(e) {
		if (e.attributes != undefined) {
			orig_load(e, "x");
			orig_load(e, "width");
		}
		if (e.childNodes == undefined) return;
		for (var i = 0, c = e.childNodes; i < c.length; i++) {
			zoom_reset(c[i]);
		}
	}
	function zoom_child(e, x, ratio) {
		if (e.attributes != undefined) {
			if (e.attributes.x != undefined) {
				orig_save(e, "x");
				e.attributes.x.value = (parseFloat(e.attributes.x.value) - x - 10) * ratio + 10;
				if (e.tagName == "text")
					e.attributes.x.value = find_child(e.parentNode, "rect[x]").attributes.x.value + 3;
			}
			if (e.attributes.width != undefined) {
				orig_save(e, "width");
				e.attributes.width.value = parseFloat(e.attributes.width.value) * ratio;
			}
		}

		if (e.childNodes == undefined) return;
		for (var i = 0, c = e.childNodes; i < c.length; i++) {
			zoom_child(c[i], x - 10, ratio);
		}
	}
	function zoom_parent(e) {
		if (e.attributes) {
			if (e.attributes.x != undefined) {
				orig_save(e, "x");
				e.attributes.x.value = 10;
			}
			if (e.attributes.width != undefined) {
				orig_save(e, "width");
				e.attributes.width.value = parseInt(svg.width.baseVal.value) - (10 * 2);
			}
		}
		if (e.childNodes == undefined) return;
		for (var i = 0, c = e.childNodes; i < c.length; i++) {
			zoom_parent(c[i]);
		}
	}
	function zoom(node) {
		var attr = find_child(node, "rect").attributes;
		var width = parseFloat(attr.width.value);
		var xmin = parseFloat(attr.x.value);
		var xmax = parseFloat(xmin + width);
		var ymin = parseFloat(attr.y.value);
		var ratio = (svg.width.baseVal.value - 2 * 10) / width;

		// XXX: Workaround for JavaScript float issues (fix me)
		var fudge = 0.0001;

		unzoombtn.classList.remove("hide");

		var el = document.getElementById("frames").children;
		for (var i = 0; i < el.length; i++) {
			var e = el[i];
			var a = find_child(e, "rect").attributes;
			var ex = parseFloat(a.x.value);
			var ew = parseFloat(a.width.value);
			var upstack;
			// Is it an ancestor
			if (0 == 0) {
				upstack = parseFloat(a.y.value) > ymin;
			} else {
				upstack = parseFloat(a.y.value) < ymin;
			}
			if (upstack) {
				// Direct ancestor
				if (ex <= xmin && (ex+ew+fudge) >= xmax) {
					e.classList.add("parent");
					zoom_parent(e);
					update_text(e);
				}
				// not in current path
				else
					e.classList.add("hide");
			}
			// Children maybe
			else {
				// no common path
				if (ex < xmin || ex + fudge >= xmax) {
					e.classList.add("hide");
				}
				else {
					zoom_child(e, xmin, ratio);
					update_text(e);
				}
			}
		}
		search();
	}
	function unzoom(dont_update_text) {
		unzoombtn.classList.add("hide");
		var el = document.getElementById("frames").children;
		for(var i = 0; i < el.length; i++) {
			el[i].classList.remove("parent");
			el[i].classList.remove("hide");
			zoom_reset(el[i]);
			if(!dont_update_text) update_text(el[i]);
		}
		search();
	}
	function clearzoom() {
		unzoom();

		// remove zoom state
		var params = get_params();
		if (params.x) delete params.x;
		if (params.y) delete params.y;
		history.replaceState(null, null, parse_params(params));
	}

	// search
	function toggle_ignorecase() {
		ignorecase = !ignorecase;
		if (ignorecase) {
			ignorecaseBtn.classList.add("show");
		} else {
			ignorecaseBtn.classList.remove("show");
		}
		reset_search();
		search();
	}
	function reset_search() {
		var el = document.querySelectorAll("#frames rect");
		for (var i = 0; i < el.length; i++) {
			orig_load(el[i], "fill")
		}
		var params = get_params();
		delete params.s;
		history.replaceState(null, null, parse_params(params));
	}
	function search_prompt() {
		if (!searching) {
			var term = prompt("Enter a search term (regexp " +
			    "allowed, eg: ^ext4_)"
			    + (ignorecase ? ", ignoring case" : "")
			    + "\nPress Ctrl-i to toggle case sensitivity", "");
			if (term != null) search(term);
		} else {
			reset_search();
			searching = 0;
			currentSearchTerm = null;
			searchbtn.classList.remove("show");
			searchbtn.firstChild.nodeValue = "Search"
			matchedtxt.classList.add("hide");
			matchedtxt.firstChild.nodeValue = ""
		}
	}
	function search(term) {
		if (term) currentSearchTerm = term;

		var re = new RegExp(currentSearchTerm, ignorecase ? 'i' : '');
		var el = document.getElementById("frames").children;
		var matches = new Object();
		var maxwidth = 0;
		for (var i = 0; i < el.length; i++) {
			var e = el[i];
			var func = g_to_func(e);
			var rect = find_child(e, "rect");
			if (func == null || rect == null)
				continue;

			// Save max width. Only works as we have a root frame
			var w = parseFloat(rect.attributes.width.value);
			if (w > maxwidth)
				maxwidth = w;

			if (func.match(re)) {
				// highlight
				var x = parseFloat(rect.attributes.x.value);
				orig_save(rect, "fill");
				rect.attributes.fill.value = "rgb(230,0,230)";

				// remember matches
				if (matches[x] == undefined) {
					matches[x] = w;
				} else {
					if (w > matches[x]) {
						// overwrite with parent
						matches[x] = w;
					}
				}
				searching = 1;
			}
		}
		if (!searching)
			return;
		var params = get_params();
		params.s = currentSearchTerm;
		history.replaceState(null, null, parse_params(params));

		searchbtn.classList.add("show");
		searchbtn.firstChild.nodeValue = "Reset Search";

		// calculate percent matched, excluding vertical overlap
		var count = 0;
		var lastx = -1;
		var lastw = 0;
		var keys = Array();
		for (k in matches) {
			if (matches.hasOwnProperty(k))
				keys.push(k);
		}
		// sort the matched frames by their x location
		// ascending, then width descending
		keys.sort(function(a, b){
			return a - b;
		});
		// Step through frames saving only the biggest bottom-up frames
		// thanks to the sort order. This relies on the tree property
		// where children are always smaller than their parents.
		var fudge = 0.0001;	// JavaScript floating point
		for (var k in keys) {
			var x = parseFloat(keys[k]);
			var w = matches[keys[k]];
			if (x >= lastx + lastw - fudge) {
				count += w;
				lastx = x;
				lastw = w;
			}
		}
		// display matched percent
		matchedtxt.classList.remove("hide");
		var pct = 100 * count / maxwidth;
		if (pct != 100) pct = pct.toFixed(1)
		matchedtxt.firstChild.nodeValue = "Matched: " + pct + "%";
	}
]]>
</script>
<rect x="0.0" y="0" width="1200.0" height="326.0" fill="url(#background)"  />
<text id="title" x="600.00" y="24" >Flame Graph</text>
<text id="details" x="10.00" y="309" > </text>
<text id="unzoom" x="10.00" y="24" class="hide">Reset Zoom</text>
<text id="search" x="1090.00" y="24" >Search</text>
<text id="ignorecase" x="1174.00" y="24" >ic</text>
<text id="matched" x="1090.00" y="309" > </text>
<g id="frames">
<g >
<title>unmap_page_range (923,948 samples, 0.20%)</title><rect x="1187.5" y="117" width="2.4" height="15.0" fill="rgb(206,5,1)" rx="2" ry="2" />
<text  x="1190.51" y="127.5" ></text>
</g>
<g >
<title>[unknown] (191,122,467 samples, 42.32%)</title><rect x="673.9" y="229" width="499.4" height="15.0" fill="rgb(210,24,5)" rx="2" ry="2" />
<text  x="676.89" y="239.5" >[unknown]</text>
</g>
<g >
<title>VP8ParseIntraModeRow (44,412,168 samples, 9.83%)</title><rect x="545.8" y="229" width="116.0" height="15.0" fill="rgb(231,121,29)" rx="2" ry="2" />
<text  x="548.78" y="239.5" >VP8ParseIntraM..</text>
</g>
<g >
<title>cgroup_rstat_flush_irqsafe (924,104 samples, 0.20%)</title><rect x="1173.3" y="53" width="2.4" height="15.0" fill="rgb(227,103,24)" rx="2" ry="2" />
<text  x="1176.27" y="63.5" ></text>
</g>
<g >
<title>unmap_vmas (923,948 samples, 0.20%)</title><rect x="1187.5" y="133" width="2.4" height="15.0" fill="rgb(243,176,42)" rx="2" ry="2" />
<text  x="1190.51" y="143.5" ></text>
</g>
<g >
<title>page_remove_rmap (923,948 samples, 0.20%)</title><rect x="1187.5" y="101" width="2.4" height="15.0" fill="rgb(252,219,52)" rx="2" ry="2" />
<text  x="1190.51" y="111.5" ></text>
</g>
<g >
<title>asm_exc_page_fault (400,494 samples, 0.09%)</title><rect x="1179.2" y="229" width="1.1" height="15.0" fill="rgb(225,93,22)" rx="2" ry="2" />
<text  x="1182.22" y="239.5" ></text>
</g>
<g >
<title>ksys_write (924,104 samples, 0.20%)</title><rect x="1173.3" y="181" width="2.4" height="15.0" fill="rgb(205,4,1)" rx="2" ry="2" />
<text  x="1176.27" y="191.5" ></text>
</g>
<g >
<title>DC4_C (6,465,035 samples, 1.43%)</title><rect x="18.3" y="245" width="16.9" height="15.0" fill="rgb(209,18,4)" rx="2" ry="2" />
<text  x="21.31" y="255.5" ></text>
</g>
<g >
<title>VE4_SSE2 (924,206 samples, 0.20%)</title><rect x="139.7" y="245" width="2.5" height="15.0" fill="rgb(221,76,18)" rx="2" ry="2" />
<text  x="142.74" y="255.5" ></text>
</g>
<g >
<title>TM4_SSE2 (923,727 samples, 0.20%)</title><rect x="86.6" y="245" width="2.5" height="15.0" fill="rgb(232,128,30)" rx="2" ry="2" />
<text  x="89.64" y="255.5" ></text>
</g>
<g >
<title>__internal_atexit (400,494 samples, 0.09%)</title><rect x="1179.2" y="245" width="1.1" height="15.0" fill="rgb(229,111,26)" rx="2" ry="2" />
<text  x="1182.22" y="255.5" ></text>
</g>
<g >
<title>folio_memcg_unlock (923,948 samples, 0.20%)</title><rect x="1187.5" y="85" width="2.4" height="15.0" fill="rgb(239,159,38)" rx="2" ry="2" />
<text  x="1190.51" y="95.5" ></text>
</g>
<g >
<title>vm_mmap_pgoff (316,293 samples, 0.07%)</title><rect x="1178.4" y="117" width="0.8" height="15.0" fill="rgb(237,150,35)" rx="2" ry="2" />
<text  x="1181.39" y="127.5" ></text>
</g>
<g >
<title>ShiftBytes (923,085 samples, 0.20%)</title><rect x="1166.3" y="213" width="2.4" height="15.0" fill="rgb(216,52,12)" rx="2" ry="2" />
<text  x="1169.27" y="223.5" ></text>
</g>
<g >
<title>entry_SYSCALL_64_after_hwframe (429,853 samples, 0.10%)</title><rect x="1178.1" y="229" width="1.1" height="15.0" fill="rgb(218,63,15)" rx="2" ry="2" />
<text  x="1181.10" y="239.5" ></text>
</g>
<g >
<title>balance_dirty_pages (924,104 samples, 0.20%)</title><rect x="1173.3" y="101" width="2.4" height="15.0" fill="rgb(247,193,46)" rx="2" ry="2" />
<text  x="1176.27" y="111.5" ></text>
</g>
<g >
<title>BuildHuffmanTable (3,179,178 samples, 0.70%)</title><rect x="10.0" y="245" width="8.3" height="15.0" fill="rgb(226,101,24)" rx="2" ry="2" />
<text  x="13.00" y="255.5" ></text>
</g>
<g >
<title>__memmove_avx_unaligned (924,303 samples, 0.20%)</title><rect x="1175.7" y="229" width="2.4" height="15.0" fill="rgb(254,228,54)" rx="2" ry="2" />
<text  x="1178.68" y="239.5" ></text>
</g>
<g >
<title>VP8ParseIntraModeRow (2,771,594 samples, 0.61%)</title><rect x="163.9" y="245" width="7.2" height="15.0" fill="rgb(231,121,29)" rx="2" ry="2" />
<text  x="166.88" y="255.5" ></text>
</g>
<g >
<title>do_syscall_64 (924,104 samples, 0.20%)</title><rect x="1173.3" y="197" width="2.4" height="15.0" fill="rgb(209,20,4)" rx="2" ry="2" />
<text  x="1176.27" y="207.5" ></text>
</g>
<g >
<title>TransformAC3_C (4,619,310 samples, 1.02%)</title><rect x="89.1" y="245" width="12.0" height="15.0" fill="rgb(209,19,4)" rx="2" ry="2" />
<text  x="92.05" y="255.5" ></text>
</g>
<g >
<title>find_vma (400,494 samples, 0.09%)</title><rect x="1179.2" y="165" width="1.1" height="15.0" fill="rgb(213,37,8)" rx="2" ry="2" />
<text  x="1182.22" y="175.5" ></text>
</g>
<g >
<title>HFilter16i_SSE2 (7,361,858 samples, 1.63%)</title><rect x="432.7" y="229" width="19.3" height="15.0" fill="rgb(233,131,31)" rx="2" ry="2" />
<text  x="435.74" y="239.5" ></text>
</g>
<g >
<title>do_exit (923,948 samples, 0.20%)</title><rect x="1187.5" y="181" width="2.4" height="15.0" fill="rgb(231,122,29)" rx="2" ry="2" />
<text  x="1190.51" y="191.5" ></text>
</g>
<g >
<title>GetLargeValue (1,848,132 samples, 0.41%)</title><rect x="1159.0" y="213" width="4.9" height="15.0" fill="rgb(243,175,42)" rx="2" ry="2" />
<text  x="1162.03" y="223.5" ></text>
</g>
<g >
<title>VP8YuvToRgb32_SSE2 (7,344,777 samples, 1.63%)</title><rect x="224.1" y="245" width="19.2" height="15.0" fill="rgb(241,167,40)" rx="2" ry="2" />
<text  x="227.06" y="255.5" ></text>
</g>
<g >
<title>TransformDC_C (1,846,687 samples, 0.41%)</title><rect x="101.1" y="245" width="4.8" height="15.0" fill="rgb(219,65,15)" rx="2" ry="2" />
<text  x="104.12" y="255.5" ></text>
</g>
<g >
<title>VR4_SSE2 (924,210 samples, 0.20%)</title><rect x="243.3" y="245" width="2.4" height="15.0" fill="rgb(237,150,35)" rx="2" ry="2" />
<text  x="246.25" y="255.5" ></text>
</g>
<g >
<title>__x64_sys_execve (429,853 samples, 0.10%)</title><rect x="1178.1" y="197" width="1.1" height="15.0" fill="rgb(247,193,46)" rx="2" ry="2" />
<text  x="1181.10" y="207.5" ></text>
</g>
<g >
<title>VP8PlanarTo24b_SSE2 (2,771,504 samples, 0.61%)</title><rect x="661.8" y="229" width="7.3" height="15.0" fill="rgb(208,15,3)" rx="2" ry="2" />
<text  x="664.82" y="239.5" ></text>
</g>
<g >
<title>ReadHuffmanCodesHelper (924,368 samples, 0.20%)</title><rect x="1163.9" y="213" width="2.4" height="15.0" fill="rgb(209,22,5)" rx="2" ry="2" />
<text  x="1166.86" y="223.5" ></text>
</g>
<g >
<title>__libc_write (924,104 samples, 0.20%)</title><rect x="1173.3" y="229" width="2.4" height="15.0" fill="rgb(238,154,37)" rx="2" ry="2" />
<text  x="1176.27" y="239.5" ></text>
</g>
<g >
<title>FinishRow (1,847,420 samples, 0.41%)</title><rect x="283.5" y="229" width="4.8" height="15.0" fill="rgb(213,41,9)" rx="2" ry="2" />
<text  x="286.47" y="239.5" ></text>
</g>
<g >
<title>VFilter8_SSE2 (2,771,045 samples, 0.61%)</title><rect x="509.6" y="229" width="7.2" height="15.0" fill="rgb(225,92,22)" rx="2" ry="2" />
<text  x="512.57" y="239.5" ></text>
</g>
<g >
<title>UpsampleRgbLinePair_SSE2 (923,203 samples, 0.20%)</title><rect x="507.2" y="229" width="2.4" height="15.0" fill="rgb(220,70,16)" rx="2" ry="2" />
<text  x="510.16" y="239.5" ></text>
</g>
<g >
<title>HFilter8i_SSE2 (2,772,597 samples, 0.61%)</title><rect x="456.8" y="229" width="7.2" height="15.0" fill="rgb(237,148,35)" rx="2" ry="2" />
<text  x="459.80" y="239.5" ></text>
</g>
<g >
<title>GetLargeValue (46,045,506 samples, 10.20%)</title><rect x="295.5" y="229" width="120.4" height="15.0" fill="rgb(243,175,42)" rx="2" ry="2" />
<text  x="298.54" y="239.5" >GetLargeValue</text>
</g>
<g >
<title>__mmput (923,948 samples, 0.20%)</title><rect x="1187.5" y="165" width="2.4" height="15.0" fill="rgb(249,203,48)" rx="2" ry="2" />
<text  x="1190.51" y="175.5" ></text>
</g>
<g >
<title>Transform_SSE2 (7,390,428 samples, 1.64%)</title><rect x="487.8" y="229" width="19.4" height="15.0" fill="rgb(233,129,30)" rx="2" ry="2" />
<text  x="490.84" y="239.5" ></text>
</g>
<g >
<title>VP8DecodeMB (11,088,746 samples, 2.46%)</title><rect x="516.8" y="229" width="29.0" height="15.0" fill="rgb(208,18,4)" rx="2" ry="2" />
<text  x="519.81" y="239.5" >VP..</text>
</g>
<g >
<title>lock_mm_and_find_vma (400,494 samples, 0.09%)</title><rect x="1179.2" y="181" width="1.1" height="15.0" fill="rgb(235,138,33)" rx="2" ry="2" />
<text  x="1182.22" y="191.5" ></text>
</g>
<g >
<title>load_elf_binary (429,853 samples, 0.10%)</title><rect x="1178.1" y="149" width="1.1" height="15.0" fill="rgb(223,83,20)" rx="2" ry="2" />
<text  x="1181.10" y="159.5" ></text>
</g>
<g >
<title>VFilter8i_SSE2 (924,107 samples, 0.20%)</title><rect x="149.4" y="245" width="2.4" height="15.0" fill="rgb(246,192,46)" rx="2" ry="2" />
<text  x="152.39" y="255.5" ></text>
</g>
<g >
<title>TransformDC_C (3,564,653 samples, 0.79%)</title><rect x="478.5" y="229" width="9.3" height="15.0" fill="rgb(219,65,15)" rx="2" ry="2" />
<text  x="481.53" y="239.5" ></text>
</g>
<g >
<title>DoFilter6_SSE2 (3,695,346 samples, 0.82%)</title><rect x="273.8" y="229" width="9.7" height="15.0" fill="rgb(237,148,35)" rx="2" ry="2" />
<text  x="276.82" y="239.5" ></text>
</g>
<g >
<title>ReconstructRow (4,619,601 samples, 1.02%)</title><rect x="464.0" y="229" width="12.1" height="15.0" fill="rgb(225,93,22)" rx="2" ry="2" />
<text  x="467.05" y="239.5" ></text>
</g>
<g >
<title>do_syscall_64 (923,948 samples, 0.20%)</title><rect x="1187.5" y="229" width="2.4" height="15.0" fill="rgb(209,20,4)" rx="2" ry="2" />
<text  x="1190.51" y="239.5" ></text>
</g>
<g >
<title>entry_SYSCALL_64_after_hwframe (923,948 samples, 0.20%)</title><rect x="1187.5" y="245" width="2.4" height="15.0" fill="rgb(218,63,15)" rx="2" ry="2" />
<text  x="1190.51" y="255.5" ></text>
</g>
<g >
<title>DecodeImageData (12,930,332 samples, 2.86%)</title><rect x="673.9" y="213" width="33.8" height="15.0" fill="rgb(254,229,54)" rx="2" ry="2" />
<text  x="676.89" y="223.5" >De..</text>
</g>
<g >
<title>exit_mmap (923,948 samples, 0.20%)</title><rect x="1187.5" y="149" width="2.4" height="15.0" fill="rgb(236,143,34)" rx="2" ry="2" />
<text  x="1190.51" y="159.5" ></text>
</g>
<g >
<title>HD4_C (1,847,450 samples, 0.41%)</title><rect x="55.6" y="245" width="4.8" height="15.0" fill="rgb(226,100,23)" rx="2" ry="2" />
<text  x="58.55" y="255.5" ></text>
</g>
<g >
<title>RD4_SSE2 (924,093 samples, 0.20%)</title><rect x="67.3" y="245" width="2.4" height="15.0" fill="rgb(253,224,53)" rx="2" ry="2" />
<text  x="70.33" y="255.5" ></text>
</g>
<g >
<title>VP8PlanarTo24b_SSE2 (20,263,715 samples, 4.49%)</title><rect x="171.1" y="245" width="53.0" height="15.0" fill="rgb(208,15,3)" rx="2" ry="2" />
<text  x="174.12" y="255.5" >VP8Pl..</text>
</g>
<g >
<title>do_group_exit (923,948 samples, 0.20%)</title><rect x="1187.5" y="197" width="2.4" height="15.0" fill="rgb(219,67,16)" rx="2" ry="2" />
<text  x="1190.51" y="207.5" ></text>
</g>
<g >
<title>mtree_range_walk (400,494 samples, 0.09%)</title><rect x="1179.2" y="133" width="1.1" height="15.0" fill="rgb(215,49,11)" rx="2" ry="2" />
<text  x="1182.22" y="143.5" ></text>
</g>
<g >
<title>do_user_addr_fault (400,494 samples, 0.09%)</title><rect x="1179.2" y="197" width="1.1" height="15.0" fill="rgb(228,108,25)" rx="2" ry="2" />
<text  x="1182.22" y="207.5" ></text>
</g>
<g >
<title>__memmove_avx_unaligned_erms (2,771,446 samples, 0.61%)</title><rect x="1180.3" y="245" width="7.2" height="15.0" fill="rgb(205,0,0)" rx="2" ry="2" />
<text  x="1183.27" y="255.5" ></text>
</g>
<g >
<title>ExtractAlphaRows (1,848,444 samples, 0.41%)</title><rect x="35.2" y="245" width="4.8" height="15.0" fill="rgb(243,177,42)" rx="2" ry="2" />
<text  x="38.20" y="255.5" ></text>
</g>
<g >
<title>begin_new_exec (113,560 samples, 0.03%)</title><rect x="1178.1" y="133" width="0.3" height="15.0" fill="rgb(245,184,44)" rx="2" ry="2" />
<text  x="1181.10" y="143.5" ></text>
</g>
<g >
<title>decode_webp_nat (451,584,995 samples, 99.99%)</title><rect x="10.0" y="261" width="1179.9" height="15.0" fill="rgb(218,61,14)" rx="2" ry="2" />
<text  x="13.00" y="271.5" >decode_webp_nat</text>
</g>
<g >
<title>asm_exc_page_fault (829,510 samples, 0.18%)</title><rect x="1171.1" y="197" width="2.2" height="15.0" fill="rgb(225,93,22)" rx="2" ry="2" />
<text  x="1174.10" y="207.5" ></text>
</g>
<g >
<title>UpsampleRgbLinePair_SSE2 (4,618,830 samples, 1.02%)</title><rect x="127.7" y="245" width="12.0" height="15.0" fill="rgb(220,70,16)" rx="2" ry="2" />
<text  x="130.67" y="255.5" ></text>
</g>
<g >
<title>VFilter16i_SSE2 (2,771,474 samples, 0.61%)</title><rect x="142.2" y="245" width="7.2" height="15.0" fill="rgb(243,175,42)" rx="2" ry="2" />
<text  x="145.15" y="255.5" ></text>
</g>
<g >
<title>[unknown] (348,368,327 samples, 77.14%)</title><rect x="269.0" y="245" width="910.2" height="15.0" fill="rgb(210,24,5)" rx="2" ry="2" />
<text  x="271.99" y="255.5" >[unknown]</text>
</g>
<g >
<title>__x64_sys_exit_group (923,948 samples, 0.20%)</title><rect x="1187.5" y="213" width="2.4" height="15.0" fill="rgb(214,42,10)" rx="2" ry="2" />
<text  x="1190.51" y="223.5" ></text>
</g>
<g >
<title>entry_SYSCALL_64_after_hwframe (924,104 samples, 0.20%)</title><rect x="1173.3" y="213" width="2.4" height="15.0" fill="rgb(218,63,15)" rx="2" ry="2" />
<text  x="1176.27" y="223.5" ></text>
</g>
<g >
<title>VP8DecodeMB (2,771,831 samples, 0.61%)</title><rect x="151.8" y="245" width="7.2" height="15.0" fill="rgb(208,18,4)" rx="2" ry="2" />
<text  x="154.81" y="255.5" ></text>
</g>
<g >
<title>mt_find (400,494 samples, 0.09%)</title><rect x="1179.2" y="149" width="1.1" height="15.0" fill="rgb(252,218,52)" rx="2" ry="2" />
<text  x="1182.22" y="159.5" ></text>
</g>
<g >
<title>GetCoeffsFast (2,771,843 samples, 0.61%)</title><rect x="288.3" y="229" width="7.2" height="15.0" fill="rgb(219,64,15)" rx="2" ry="2" />
<text  x="291.30" y="239.5" ></text>
</g>
<g >
<title>do_mmap (316,293 samples, 0.07%)</title><rect x="1178.4" y="101" width="0.8" height="15.0" fill="rgb(228,107,25)" rx="2" ry="2" />
<text  x="1181.39" y="111.5" ></text>
</g>
<g >
<title>TM16_SSE2 (924,050 samples, 0.20%)</title><rect x="476.1" y="229" width="2.4" height="15.0" fill="rgb(253,222,53)" rx="2" ry="2" />
<text  x="479.12" y="239.5" ></text>
</g>
<g >
<title>__memmove_avx_unaligned_erms (1,753,463 samples, 0.39%)</title><rect x="1168.7" y="213" width="4.6" height="15.0" fill="rgb(205,0,0)" rx="2" ry="2" />
<text  x="1171.69" y="223.5" ></text>
</g>
<g >
<title>DC8uv_SSE2 (1,848,050 samples, 0.41%)</title><rect x="269.0" y="229" width="4.8" height="15.0" fill="rgb(206,8,2)" rx="2" ry="2" />
<text  x="271.99" y="239.5" ></text>
</g>
<g >
<title>generic_perform_write (924,104 samples, 0.20%)</title><rect x="1173.3" y="133" width="2.4" height="15.0" fill="rgb(236,146,35)" rx="2" ry="2" />
<text  x="1176.27" y="143.5" ></text>
</g>
<g >
<title>HFilter8_SSE2 (1,847,522 samples, 0.41%)</title><rect x="452.0" y="229" width="4.8" height="15.0" fill="rgb(215,48,11)" rx="2" ry="2" />
<text  x="454.97" y="239.5" ></text>
</g>
<g >
<title>ReconstructRow (6,465,291 samples, 1.43%)</title><rect x="69.7" y="245" width="16.9" height="15.0" fill="rgb(225,93,22)" rx="2" ry="2" />
<text  x="72.74" y="255.5" ></text>
</g>
<g >
<title>Transform_SSE2 (7,390,110 samples, 1.64%)</title><rect x="105.9" y="245" width="19.4" height="15.0" fill="rgb(233,129,30)" rx="2" ry="2" />
<text  x="108.95" y="255.5" ></text>
</g>
<g >
<title>Upsample32Pixels_SSE2 (923,146 samples, 0.20%)</title><rect x="125.3" y="245" width="2.4" height="15.0" fill="rgb(223,83,20)" rx="2" ry="2" />
<text  x="128.26" y="255.5" ></text>
</g>
<g >
<title>VP8YuvToRgb32_SSE2 (924,024 samples, 0.20%)</title><rect x="669.1" y="229" width="2.4" height="15.0" fill="rgb(241,167,40)" rx="2" ry="2" />
<text  x="672.06" y="239.5" ></text>
</g>
<g >
<title>vfs_write (924,104 samples, 0.20%)</title><rect x="1173.3" y="165" width="2.4" height="15.0" fill="rgb(250,209,50)" rx="2" ry="2" />
<text  x="1176.27" y="175.5" ></text>
</g>
<g >
<title>balance_dirty_pages_ratelimited_flags (924,104 samples, 0.20%)</title><rect x="1173.3" y="117" width="2.4" height="15.0" fill="rgb(207,10,2)" rx="2" ry="2" />
<text  x="1176.27" y="127.5" ></text>
</g>
<g >
<title>VP8GetValue (1,847,667 samples, 0.41%)</title><rect x="159.0" y="245" width="4.9" height="15.0" fill="rgb(230,119,28)" rx="2" ry="2" />
<text  x="162.05" y="255.5" ></text>
</g>
<g >
<title>do_execveat_common.isra.0 (429,853 samples, 0.10%)</title><rect x="1178.1" y="181" width="1.1" height="15.0" fill="rgb(231,123,29)" rx="2" ry="2" />
<text  x="1181.10" y="191.5" ></text>
</g>
<g >
<title>exc_page_fault (400,494 samples, 0.09%)</title><rect x="1179.2" y="213" width="1.1" height="15.0" fill="rgb(212,35,8)" rx="2" ry="2" />
<text  x="1182.22" y="223.5" ></text>
</g>
<g >
<title>flush_signal_handlers (113,560 samples, 0.03%)</title><rect x="1178.1" y="117" width="0.3" height="15.0" fill="rgb(253,221,53)" rx="2" ry="2" />
<text  x="1181.10" y="127.5" ></text>
</g>
<g >
<title>do_syscall_64 (429,853 samples, 0.10%)</title><rect x="1178.1" y="213" width="1.1" height="15.0" fill="rgb(209,20,4)" rx="2" ry="2" />
<text  x="1181.10" y="223.5" ></text>
</g>
<g >
<title>GetCoeffsFast (2,245,884 samples, 0.50%)</title><rect x="49.7" y="245" width="5.9" height="15.0" fill="rgb(219,64,15)" rx="2" ry="2" />
<text  x="52.68" y="255.5" ></text>
</g>
<g >
<title>YUV444ToRGB_SSE2 (924,404 samples, 0.20%)</title><rect x="671.5" y="229" width="2.4" height="15.0" fill="rgb(247,193,46)" rx="2" ry="2" />
<text  x="674.48" y="239.5" ></text>
</g>
<g >
<title>ExtractGreen_SSE2 (3,695,523 samples, 0.82%)</title><rect x="40.0" y="245" width="9.7" height="15.0" fill="rgb(226,96,23)" rx="2" ry="2" />
<text  x="43.03" y="255.5" ></text>
</g>
<g >
<title>HE4_C (1,847,625 samples, 0.41%)</title><rect x="60.4" y="245" width="4.8" height="15.0" fill="rgb(220,70,16)" rx="2" ry="2" />
<text  x="63.38" y="255.5" ></text>
</g>
<g >
<title>cgroup_rstat_flush_locked (924,104 samples, 0.20%)</title><rect x="1173.3" y="37" width="2.4" height="15.0" fill="rgb(209,19,4)" rx="2" ry="2" />
<text  x="1176.27" y="47.5" ></text>
</g>
<g >
<title>ext4_buffered_write_iter (924,104 samples, 0.20%)</title><rect x="1173.3" y="149" width="2.4" height="15.0" fill="rgb(213,40,9)" rx="2" ry="2" />
<text  x="1176.27" y="159.5" ></text>
</g>
<g >
<title>elf_map (316,293 samples, 0.07%)</title><rect x="1178.4" y="133" width="0.8" height="15.0" fill="rgb(236,145,34)" rx="2" ry="2" />
<text  x="1181.39" y="143.5" ></text>
</g>
<g >
<title>all (451,614,589 samples, 100%)</title><rect x="10.0" y="277" width="1180.0" height="15.0" fill="rgb(213,39,9)" rx="2" ry="2" />
<text  x="13.00" y="287.5" ></text>
</g>
<g >
<title>__mem_cgroup_flush_stats (924,104 samples, 0.20%)</title><rect x="1173.3" y="69" width="2.4" height="15.0" fill="rgb(208,16,3)" rx="2" ry="2" />
<text  x="1176.27" y="79.5" ></text>
</g>
<g >
<title>mem_cgroup_wb_stats (924,104 samples, 0.20%)</title><rect x="1173.3" y="85" width="2.4" height="15.0" fill="rgb(211,28,6)" rx="2" ry="2" />
<text  x="1176.27" y="95.5" ></text>
</g>
<g >
<title>bprm_execve (429,853 samples, 0.10%)</title><rect x="1178.1" y="165" width="1.1" height="15.0" fill="rgb(218,61,14)" rx="2" ry="2" />
<text  x="1181.10" y="175.5" ></text>
</g>
<g >
<title>HU4_C (812,572 samples, 0.18%)</title><rect x="65.2" y="245" width="2.1" height="15.0" fill="rgb(216,54,13)" rx="2" ry="2" />
<text  x="68.21" y="255.5" ></text>
</g>
<g >
<title>HFilter16_SSE2 (6,463,632 samples, 1.43%)</title><rect x="415.9" y="229" width="16.8" height="15.0" fill="rgb(211,31,7)" rx="2" ry="2" />
<text  x="418.85" y="239.5" ></text>
</g>
<g >
<title>YUV444ToRGB_SSE2 (8,924,294 samples, 1.98%)</title><rect x="245.7" y="245" width="23.3" height="15.0" fill="rgb(247,193,46)" rx="2" ry="2" />
<text  x="248.67" y="255.5" >Y..</text>
</g>
<g >
<title>GetCoeffsFast (172,743,087 samples, 38.25%)</title><rect x="707.7" y="213" width="451.3" height="15.0" fill="rgb(219,64,15)" rx="2" ry="2" />
<text  x="710.68" y="223.5" >GetCoeffsFast</text>
</g>
</g>
</svg>
