<?xml version="1.0" standalone="no"?>
<!DOCTYPE svg PUBLIC "-//W3C//DTD SVG 1.1//EN" "http://www.w3.org/Graphics/SVG/1.1/DTD/svg11.dtd">
<svg version="1.1" width="1200" height="470" onload="init(evt)" viewBox="0 0 1200 470" xmlns="http://www.w3.org/2000/svg" xmlns:xlink="http://www.w3.org/1999/xlink">
<!-- Flame graph stack visualization. See https://github.com/brendangregg/FlameGraph for latest version, and http://www.brendangregg.com/flamegraphs.html for examples. -->
<!-- NOTES:  -->
<defs>
	<linearGradient id="background" y1="0" y2="1" x1="0" x2="0" >
		<stop stop-color="#eeeeee" offset="5%" />
		<stop stop-color="#eeeeb0" offset="95%" />
	</linearGradient>
</defs>
<style type="text/css">
	text { font-family:Verdana; font-size:12px; fill:rgb(0,0,0); }
	#search, #ignorecase { opacity:0.1; cursor:pointer; }
	#search:hover, #search.show, #ignorecase:hover, #ignorecase.show { opacity:1; }
	#subtitle { text-anchor:middle; font-color:rgb(160,160,160); }
	#title { text-anchor:middle; font-size:17px}
	#unzoom { cursor:pointer; }
	#frames > *:hover { stroke:black; stroke-width:0.5; cursor:pointer; }
	.hide { display:none; }
	.parent { opacity:0.5; }
</style>
<script type="text/ecmascript">
<![CDATA[
	"use strict";
	var details, searchbtn, unzoombtn, matchedtxt, svg, searching, currentSearchTerm, ignorecase, ignorecaseBtn;
	function init(evt) {
		details = document.getElementById("details").firstChild;
		searchbtn = document.getElementById("search");
		ignorecaseBtn = document.getElementById("ignorecase");
		unzoombtn = document.getElementById("unzoom");
		matchedtxt = document.getElementById("matched");
		svg = document.getElementsByTagName("svg")[0];
		searching = 0;
		currentSearchTerm = null;

		// use GET parameters to restore a flamegraphs state.
		var params = get_params();
		if (params.x && params.y)
			zoom(find_group(document.querySelector('[x="' + params.x + '"][y="' + params.y + '"]')));
                if (params.s) search(params.s);
	}

	// event listeners
	window.addEventListener("click", function(e) {
		var target = find_group(e.target);
		if (target) {
			if (target.nodeName == "a") {
				if (e.ctrlKey === false) return;
				e.preventDefault();
			}
			if (target.classList.contains("parent")) unzoom(true);
			zoom(target);
			if (!document.querySelector('.parent')) {
				// we have basically done a clearzoom so clear the url
				var params = get_params();
				if (params.x) delete params.x;
				if (params.y) delete params.y;
				history.replaceState(null, null, parse_params(params));
				unzoombtn.classList.add("hide");
				return;
			}

			// set parameters for zoom state
			var el = target.querySelector("rect");
			if (el && el.attributes && el.attributes.y && el.attributes._orig_x) {
				var params = get_params()
				params.x = el.attributes._orig_x.value;
				params.y = el.attributes.y.value;
				history.replaceState(null, null, parse_params(params));
			}
		}
		else if (e.target.id == "unzoom") clearzoom();
		else if (e.target.id == "search") search_prompt();
		else if (e.target.id == "ignorecase") toggle_ignorecase();
	}, false)

	// mouse-over for info
	// show
	window.addEventListener("mouseover", function(e) {
		var target = find_group(e.target);
		if (target) details.nodeValue = "Function: " + g_to_text(target);
	}, false)

	// clear
	window.addEventListener("mouseout", function(e) {
		var target = find_group(e.target);
		if (target) details.nodeValue = ' ';
	}, false)

	// ctrl-F for search
	// ctrl-I to toggle case-sensitive search
	window.addEventListener("keydown",function (e) {
		if (e.keyCode === 114 || (e.ctrlKey && e.keyCode === 70)) {
			e.preventDefault();
			search_prompt();
		}
		else if (e.ctrlKey && e.keyCode === 73) {
			e.preventDefault();
			toggle_ignorecase();
		}
	}, false)

	// functions
	function get_params() {
		var params = {};
		var paramsarr = window.location.search.substr(1).split('&');
		for (var i = 0; i < paramsarr.length; ++i) {
			var tmp = paramsarr[i].split("=");
			if (!tmp[0] || !tmp[1]) continue;
			params[tmp[0]]  = decodeURIComponent(tmp[1]);
		}
		return params;
	}
	function parse_params(params) {
		var uri = "?";
		for (var key in params) {
			uri += key + '=' + encodeURIComponent(params[key]) + '&';
		}
		if (uri.slice(-1) == "&")
			uri = uri.substring(0, uri.length - 1);
		if (uri == '?')
			uri = window.location.href.split('?')[0];
		return uri;
	}
	function find_child(node, selector) {
		var children = node.querySelectorAll(selector);
		if (children.length) return children[0];
	}
	function find_group(node) {
		var parent = node.parentElement;
		if (!parent) return;
		if (parent.id == "frames") return node;
		return find_group(parent);
	}
	function orig_save(e, attr, val) {
		if (e.attributes["_orig_" + attr] != undefined) return;
		if (e.attributes[attr] == undefined) return;
		if (val == undefined) val = e.attributes[attr].value;
		e.setAttribute("_orig_" + attr, val);
	}
	function orig_load(e, attr) {
		if (e.attributes["_orig_"+attr] == undefined) return;
		e.attributes[attr].value = e.attributes["_orig_" + attr].value;
		e.removeAttribute("_orig_"+attr);
	}
	function g_to_text(e) {
		var text = find_child(e, "title").firstChild.nodeValue;
		return (text)
	}
	function g_to_func(e) {
		var func = g_to_text(e);
		// if there's any manipulation we want to do to the function
		// name before it's searched, do it here before returning.
		return (func);
	}
	function update_text(e) {
		var r = find_child(e, "rect");
		var t = find_child(e, "text");
		var w = parseFloat(r.attributes.width.value) -3;
		var txt = find_child(e, "title").textContent.replace(/\([^(]*\)$/,"");
		t.attributes.x.value = parseFloat(r.attributes.x.value) + 3;

		// Smaller than this size won't fit anything
		if (w < 2 * 12 * 0.59) {
			t.textContent = "";
			return;
		}

		t.textContent = txt;
		var sl = t.getSubStringLength(0, txt.length);
		// check if only whitespace or if we can fit the entire string into width w
		if (/^ *$/.test(txt) || sl < w)
			return;

		// this isn't perfect, but gives a good starting point
		// and avoids calling getSubStringLength too often
		var start = Math.floor((w/sl) * txt.length);
		for (var x = start; x > 0; x = x-2) {
			if (t.getSubStringLength(0, x + 2) <= w) {
				t.textContent = txt.substring(0, x) + "..";
				return;
			}
		}
		t.textContent = "";
	}

	// zoom
	function zoom_reset(e) {
		if (e.attributes != undefined) {
			orig_load(e, "x");
			orig_load(e, "width");
		}
		if (e.childNodes == undefined) return;
		for (var i = 0, c = e.childNodes; i < c.length; i++) {
			zoom_reset(c[i]);
		}
	}
	function zoom_child(e, x, ratio) {
		if (e.attributes != undefined) {
			if (e.attributes.x != undefined) {
				orig_save(e, "x");
				e.attributes.x.value = (parseFloat(e.attributes.x.value) - x - 10) * ratio + 10;
				if (e.tagName == "text")
					e.attributes.x.value = find_child(e.parentNode, "rect[x]").attributes.x.value + 3;
			}
			if (e.attributes.width != undefined) {
				orig_save(e, "width");
				e.attributes.width.value = parseFloat(e.attributes.width.value) * ratio;
			}
		}

		if (e.childNodes == undefined) return;
		for (var i = 0, c = e.childNodes; i < c.length; i++) {
			zoom_child(c[i], x - 10, ratio);
		}
	}
	function zoom_parent(e) {
		if (e.attributes) {
			if (e.attributes.x != undefined) {
				orig_save(e, "x");
				e.attributes.x.value = 10;
			}
			if (e.attributes.width != undefined) {
				orig_save(e, "width");
				e.attributes.width.value = parseInt(svg.width.baseVal.value) - (10 * 2);
			}
		}
		if (e.childNodes == undefined) return;
		for (var i = 0, c = e.childNodes; i < c.length; i++) {
			zoom_parent(c[i]);
		}
	}
	function zoom(node) {
		var attr = find_child(node, "rect").attributes;
		var width = parseFloat(attr.width.value);
		var xmin = parseFloat(attr.x.value);
		var xmax = parseFloat(xmin + width);
		var ymin = parseFloat(attr.y.value);
		var ratio = (svg.width.baseVal.value - 2 * 10) / width;

		// XXX: Workaround for JavaScript float issues (fix me)
		var fudge = 0.0001;

		unzoombtn.classList.remove("hide");

		var el = document.getElementById("frames").children;
		for (var i = 0; i < el.length; i++) {
			var e = el[i];
			var a = find_child(e, "rect").attributes;
			var ex = parseFloat(a.x.value);
			var ew = parseFloat(a.width.value);
			var upstack;
			// Is it an ancestor
			if (0 == 0) {
				upstack = parseFloat(a.y.value) > ymin;
			} else {
				upstack = parseFloat(a.y.value) < ymin;
			}
			if (upstack) {
				// Direct ancestor
				if (ex <= xmin && (ex+ew+fudge) >= xmax) {
					e.classList.add("parent");
					zoom_parent(e);
					update_text(e);
				}
				// not in current path
				else
					e.classList.add("hide");
			}
			// Children maybe
			else {
				// no common path
				if (ex < xmin || ex + fudge >= xmax) {
					e.classList.add("hide");
				}
				else {
					zoom_child(e, xmin, ratio);
					update_text(e);
				}
			}
		}
		search();
	}
	function unzoom(dont_update_text) {
		unzoombtn.classList.add("hide");
		var el = document.getElementById("frames").children;
		for(var i = 0; i < el.length; i++) {
			el[i].classList.remove("parent");
			el[i].classList.remove("hide");
			zoom_reset(el[i]);
			if(!dont_update_text) update_text(el[i]);
		}
		search();
	}
	function clearzoom() {
		unzoom();

		// remove zoom state
		var params = get_params();
		if (params.x) delete params.x;
		if (params.y) delete params.y;
		history.replaceState(null, null, parse_params(params));
	}

	// search
	function toggle_ignorecase() {
		ignorecase = !ignorecase;
		if (ignorecase) {
			ignorecaseBtn.classList.add("show");
		} else {
			ignorecaseBtn.classList.remove("show");
		}
		reset_search();
		search();
	}
	function reset_search() {
		var el = document.querySelectorAll("#frames rect");
		for (var i = 0; i < el.length; i++) {
			orig_load(el[i], "fill")
		}
		var params = get_params();
		delete params.s;
		history.replaceState(null, null, parse_params(params));
	}
	function search_prompt() {
		if (!searching) {
			var term = prompt("Enter a search term (regexp " +
			    "allowed, eg: ^ext4_)"
			    + (ignorecase ? ", ignoring case" : "")
			    + "\nPress Ctrl-i to toggle case sensitivity", "");
			if (term != null) search(term);
		} else {
			reset_search();
			searching = 0;
			currentSearchTerm = null;
			searchbtn.classList.remove("show");
			searchbtn.firstChild.nodeValue = "Search"
			matchedtxt.classList.add("hide");
			matchedtxt.firstChild.nodeValue = ""
		}
	}
	function search(term) {
		if (term) currentSearchTerm = term;

		var re = new RegExp(currentSearchTerm, ignorecase ? 'i' : '');
		var el = document.getElementById("frames").children;
		var matches = new Object();
		var maxwidth = 0;
		for (var i = 0; i < el.length; i++) {
			var e = el[i];
			var func = g_to_func(e);
			var rect = find_child(e, "rect");
			if (func == null || rect == null)
				continue;

			// Save max width. Only works as we have a root frame
			var w = parseFloat(rect.attributes.width.value);
			if (w > maxwidth)
				maxwidth = w;

			if (func.match(re)) {
				// highlight
				var x = parseFloat(rect.attributes.x.value);
				orig_save(rect, "fill");
				rect.attributes.fill.value = "rgb(230,0,230)";

				// remember matches
				if (matches[x] == undefined) {
					matches[x] = w;
				} else {
					if (w > matches[x]) {
						// overwrite with parent
						matches[x] = w;
					}
				}
				searching = 1;
			}
		}
		if (!searching)
			return;
		var params = get_params();
		params.s = currentSearchTerm;
		history.replaceState(null, null, parse_params(params));

		searchbtn.classList.add("show");
		searchbtn.firstChild.nodeValue = "Reset Search";

		// calculate percent matched, excluding vertical overlap
		var count = 0;
		var lastx = -1;
		var lastw = 0;
		var keys = Array();
		for (k in matches) {
			if (matches.hasOwnProperty(k))
				keys.push(k);
		}
		// sort the matched frames by their x location
		// ascending, then width descending
		keys.sort(function(a, b){
			return a - b;
		});
		// Step through frames saving only the biggest bottom-up frames
		// thanks to the sort order. This relies on the tree property
		// where children are always smaller than their parents.
		var fudge = 0.0001;	// JavaScript floating point
		for (var k in keys) {
			var x = parseFloat(keys[k]);
			var w = matches[keys[k]];
			if (x >= lastx + lastw - fudge) {
				count += w;
				lastx = x;
				lastw = w;
			}
		}
		// display matched percent
		matchedtxt.classList.remove("hide");
		var pct = 100 * count / maxwidth;
		if (pct != 100) pct = pct.toFixed(1)
		matchedtxt.firstChild.nodeValue = "Matched: " + pct + "%";
	}
]]>
</script>
<rect x="0.0" y="0" width="1200.0" height="470.0" fill="url(#background)"  />
<text id="title" x="600.00" y="24" >Flame Graph</text>
<text id="details" x="10.00" y="453" > </text>
<text id="unzoom" x="10.00" y="24" class="hide">Reset Zoom</text>
<text id="search" x="1090.00" y="24" >Search</text>
<text id="ignorecase" x="1174.00" y="24" >ic</text>
<text id="matched" x="1090.00" y="453" > </text>
<g id="frames">
<g >
<title>__x64_sys_execve (103,912 samples, 0.01%)</title><rect x="1189.9" y="341" width="0.1" height="15.0" fill="rgb(247,193,46)" rx="2" ry="2" />
<text  x="1192.86" y="351.5" ></text>
</g>
<g >
<title>w2c_decode__webp__wasm_DecodeImageStream (2,653,844 samples, 0.30%)</title><rect x="759.5" y="389" width="3.5" height="15.0" fill="rgb(254,228,54)" rx="2" ry="2" />
<text  x="762.49" y="399.5" ></text>
</g>
<g >
<title>down_read_trylock (752,137 samples, 0.08%)</title><rect x="255.7" y="309" width="1.0" height="15.0" fill="rgb(219,66,15)" rx="2" ry="2" />
<text  x="258.68" y="319.5" ></text>
</g>
<g >
<title>w2c_decode__webp__wasm_BuildHuffmanTable (32,266,783 samples, 3.64%)</title><rect x="257.9" y="389" width="43.0" height="15.0" fill="rgb(240,161,38)" rx="2" ry="2" />
<text  x="260.91" y="399.5" >w2c_..</text>
</g>
<g >
<title>perf_event_mmap (489,106 samples, 0.06%)</title><rect x="12.5" y="213" width="0.6" height="15.0" fill="rgb(229,112,26)" rx="2" ry="2" />
<text  x="15.46" y="223.5" ></text>
</g>
<g >
<title>__libc_write (923,824 samples, 0.10%)</title><rect x="11.2" y="373" width="1.3" height="15.0" fill="rgb(238,154,37)" rx="2" ry="2" />
<text  x="14.23" y="383.5" ></text>
</g>
<g >
<title>do_syscall_64 (923,949 samples, 0.10%)</title><rect x="256.7" y="373" width="1.2" height="15.0" fill="rgb(209,20,4)" rx="2" ry="2" />
<text  x="259.68" y="383.5" ></text>
</g>
<g >
<title>clear_page_rep (862,820 samples, 0.10%)</title><rect x="977.8" y="229" width="1.2" height="15.0" fill="rgb(253,221,52)" rx="2" ry="2" />
<text  x="980.84" y="239.5" ></text>
</g>
<g >
<title>w2c_decode__webp__wasm_PredictorAdd4_C (1,848,600 samples, 0.21%)</title><rect x="164.8" y="373" width="2.5" height="15.0" fill="rgb(210,23,5)" rx="2" ry="2" />
<text  x="167.82" y="383.5" ></text>
</g>
<g >
<title>exc_page_fault (752,137 samples, 0.08%)</title><rect x="255.7" y="357" width="1.0" height="15.0" fill="rgb(212,35,8)" rx="2" ry="2" />
<text  x="258.68" y="367.5" ></text>
</g>
<g >
<title>__x64_sys_execve (489,106 samples, 0.06%)</title><rect x="12.5" y="341" width="0.6" height="15.0" fill="rgb(247,193,46)" rx="2" ry="2" />
<text  x="15.46" y="351.5" ></text>
</g>
<g >
<title>mmap_region (489,106 samples, 0.06%)</title><rect x="12.5" y="229" width="0.6" height="15.0" fill="rgb(231,121,28)" rx="2" ry="2" />
<text  x="15.46" y="239.5" ></text>
</g>
<g >
<title>do_user_addr_fault (752,137 samples, 0.08%)</title><rect x="255.7" y="341" width="1.0" height="15.0" fill="rgb(228,108,25)" rx="2" ry="2" />
<text  x="258.68" y="351.5" ></text>
</g>
<g >
<title>asm_common_interrupt (923,949 samples, 0.10%)</title><rect x="256.7" y="229" width="1.2" height="15.0" fill="rgb(227,105,25)" rx="2" ry="2" />
<text  x="259.68" y="239.5" ></text>
</g>
<g >
<title>nvme_irq (923,949 samples, 0.10%)</title><rect x="256.7" y="133" width="1.2" height="15.0" fill="rgb(225,95,22)" rx="2" ry="2" />
<text  x="259.68" y="143.5" ></text>
</g>
<g >
<title>asm_exc_page_fault (752,137 samples, 0.08%)</title><rect x="255.7" y="373" width="1.0" height="15.0" fill="rgb(225,93,22)" rx="2" ry="2" />
<text  x="258.68" y="383.5" ></text>
</g>
<g >
<title>w2c_decode__webp__wasm_PredictorAdd7_C (2,772,601 samples, 0.31%)</title><rect x="175.9" y="373" width="3.7" height="15.0" fill="rgb(240,164,39)" rx="2" ry="2" />
<text  x="178.90" y="383.5" ></text>
</g>
<g >
<title>entry_SYSCALL_64_after_hwframe (923,920 samples, 0.10%)</title><rect x="10.0" y="357" width="1.2" height="15.0" fill="rgb(218,63,15)" rx="2" ry="2" />
<text  x="13.00" y="367.5" ></text>
</g>
<g >
<title>w2c_decode__webp__wasm_PredictorAdd3_C (2,690,099 samples, 0.30%)</title><rect x="161.2" y="373" width="3.6" height="15.0" fill="rgb(216,52,12)" rx="2" ry="2" />
<text  x="164.23" y="383.5" ></text>
</g>
<g >
<title>w2c_decode__webp__wasm_PredictorAdd1_C (25,868,447 samples, 2.92%)</title><rect x="803.5" y="389" width="34.5" height="15.0" fill="rgb(229,112,26)" rx="2" ry="2" />
<text  x="806.47" y="399.5" >w2..</text>
</g>
<g >
<title>do_mmap (489,106 samples, 0.06%)</title><rect x="12.5" y="245" width="0.6" height="15.0" fill="rgb(228,107,25)" rx="2" ry="2" />
<text  x="15.46" y="255.5" ></text>
</g>
<g >
<title>do_syscall_64 (489,106 samples, 0.06%)</title><rect x="12.5" y="357" width="0.6" height="15.0" fill="rgb(209,20,4)" rx="2" ry="2" />
<text  x="15.46" y="367.5" ></text>
</g>
<g >
<title>ext4_get_inode_loc (923,920 samples, 0.10%)</title><rect x="10.0" y="181" width="1.2" height="15.0" fill="rgb(233,132,31)" rx="2" ry="2" />
<text  x="13.00" y="191.5" ></text>
</g>
<g >
<title>__handle_mm_fault (862,820 samples, 0.10%)</title><rect x="977.8" y="309" width="1.2" height="15.0" fill="rgb(207,9,2)" rx="2" ry="2" />
<text  x="980.84" y="319.5" ></text>
</g>
<g >
<title>__common_interrupt (923,949 samples, 0.10%)</title><rect x="256.7" y="197" width="1.2" height="15.0" fill="rgb(237,150,36)" rx="2" ry="2" />
<text  x="259.68" y="207.5" ></text>
</g>
<g >
<title>__memmove_avx_unaligned (924,335 samples, 0.10%)</title><rect x="253.2" y="389" width="1.2" height="15.0" fill="rgb(254,228,54)" rx="2" ry="2" />
<text  x="256.22" y="399.5" ></text>
</g>
<g >
<title>perf_event_exec (103,912 samples, 0.01%)</title><rect x="1189.9" y="261" width="0.1" height="15.0" fill="rgb(218,60,14)" rx="2" ry="2" />
<text  x="1192.86" y="271.5" ></text>
</g>
<g >
<title>vfs_write (923,824 samples, 0.10%)</title><rect x="11.2" y="309" width="1.3" height="15.0" fill="rgb(250,209,50)" rx="2" ry="2" />
<text  x="14.23" y="319.5" ></text>
</g>
<g >
<title>asm_sysvec_apic_timer_interrupt (790,461 samples, 0.09%)</title><rect x="142.9" y="357" width="1.1" height="15.0" fill="rgb(232,127,30)" rx="2" ry="2" />
<text  x="145.94" y="367.5" ></text>
</g>
<g >
<title>preempt_count_add (489,106 samples, 0.06%)</title><rect x="12.5" y="181" width="0.6" height="15.0" fill="rgb(253,222,53)" rx="2" ry="2" />
<text  x="15.46" y="191.5" ></text>
</g>
<g >
<title>do_syscall_64 (923,920 samples, 0.10%)</title><rect x="10.0" y="341" width="1.2" height="15.0" fill="rgb(209,20,4)" rx="2" ry="2" />
<text  x="13.00" y="351.5" ></text>
</g>
<g >
<title>sysvec_apic_timer_interrupt (790,461 samples, 0.09%)</title><rect x="142.9" y="341" width="1.1" height="15.0" fill="rgb(220,69,16)" rx="2" ry="2" />
<text  x="145.94" y="351.5" ></text>
</g>
<g >
<title>__default_send_IPI_dest_field (790,461 samples, 0.09%)</title><rect x="142.9" y="181" width="1.1" height="15.0" fill="rgb(208,17,4)" rx="2" ry="2" />
<text  x="145.94" y="191.5" ></text>
</g>
<g >
<title>ksys_write (923,824 samples, 0.10%)</title><rect x="11.2" y="325" width="1.3" height="15.0" fill="rgb(205,4,1)" rx="2" ry="2" />
<text  x="14.23" y="335.5" ></text>
</g>
<g >
<title>w2c_decode__webp__wasm_VP8LDoFillBitWindow (58,867,233 samples, 6.65%)</title><rect x="979.0" y="389" width="78.4" height="15.0" fill="rgb(232,127,30)" rx="2" ry="2" />
<text  x="981.99" y="399.5" >w2c_decod..</text>
</g>
<g >
<title>__cond_resched (923,824 samples, 0.10%)</title><rect x="11.2" y="165" width="1.3" height="15.0" fill="rgb(217,58,14)" rx="2" ry="2" />
<text  x="14.23" y="175.5" ></text>
</g>
<g >
<title>_raw_spin_lock_irqsave (923,949 samples, 0.10%)</title><rect x="256.7" y="37" width="1.2" height="15.0" fill="rgb(247,195,46)" rx="2" ry="2" />
<text  x="259.68" y="47.5" ></text>
</g>
<g >
<title>w2c_decode__webp__wasm_free (924,096 samples, 0.10%)</title><rect x="1188.6" y="389" width="1.3" height="15.0" fill="rgb(226,98,23)" rx="2" ry="2" />
<text  x="1191.63" y="399.5" ></text>
</g>
<g >
<title>bprm_execve (103,912 samples, 0.01%)</title><rect x="1189.9" y="309" width="0.1" height="15.0" fill="rgb(218,61,14)" rx="2" ry="2" />
<text  x="1192.86" y="319.5" ></text>
</g>
<g >
<title>__ext4_journal_start_sb (923,824 samples, 0.10%)</title><rect x="11.2" y="213" width="1.3" height="15.0" fill="rgb(222,81,19)" rx="2" ry="2" />
<text  x="14.23" y="223.5" ></text>
</g>
<g >
<title>do_exit (923,949 samples, 0.10%)</title><rect x="256.7" y="325" width="1.2" height="15.0" fill="rgb(231,122,29)" rx="2" ry="2" />
<text  x="259.68" y="335.5" ></text>
</g>
<g >
<title>do_execveat_common.isra.0 (489,106 samples, 0.06%)</title><rect x="12.5" y="325" width="0.6" height="15.0" fill="rgb(231,123,29)" rx="2" ry="2" />
<text  x="15.46" y="335.5" ></text>
</g>
<g >
<title>all (885,280,724 samples, 100%)</title><rect x="10.0" y="421" width="1180.0" height="15.0" fill="rgb(213,39,9)" rx="2" ry="2" />
<text  x="13.00" y="431.5" ></text>
</g>
<g >
<title>lock_mm_and_find_vma (752,137 samples, 0.08%)</title><rect x="255.7" y="325" width="1.0" height="15.0" fill="rgb(235,138,33)" rx="2" ry="2" />
<text  x="258.68" y="335.5" ></text>
</g>
<g >
<title>bprm_execve (489,106 samples, 0.06%)</title><rect x="12.5" y="309" width="0.6" height="15.0" fill="rgb(218,61,14)" rx="2" ry="2" />
<text  x="15.46" y="319.5" ></text>
</g>
<g >
<title>w2c_decode__webp__wasm_DecodeImageData (344,032,189 samples, 38.86%)</title><rect x="300.9" y="389" width="458.6" height="15.0" fill="rgb(217,59,14)" rx="2" ry="2" />
<text  x="303.92" y="399.5" >w2c_decode__webp__wasm_DecodeImageData</text>
</g>
<g >
<title>perf-exec (103,912 samples, 0.01%)</title><rect x="1189.9" y="405" width="0.1" height="15.0" fill="rgb(231,123,29)" rx="2" ry="2" />
<text  x="1192.86" y="415.5" ></text>
</g>
<g >
<title>do_filp_open (923,920 samples, 0.10%)</title><rect x="10.0" y="293" width="1.2" height="15.0" fill="rgb(211,28,6)" rx="2" ry="2" />
<text  x="13.00" y="303.5" ></text>
</g>
<g >
<title>default_send_IPI_single_phys (790,461 samples, 0.09%)</title><rect x="142.9" y="197" width="1.1" height="15.0" fill="rgb(243,175,41)" rx="2" ry="2" />
<text  x="145.94" y="207.5" ></text>
</g>
<g >
<title>do_user_addr_fault (862,820 samples, 0.10%)</title><rect x="977.8" y="341" width="1.2" height="15.0" fill="rgb(228,108,25)" rx="2" ry="2" />
<text  x="980.84" y="351.5" ></text>
</g>
<g >
<title>elf_map (489,106 samples, 0.06%)</title><rect x="12.5" y="277" width="0.6" height="15.0" fill="rgb(236,145,34)" rx="2" ry="2" />
<text  x="15.46" y="287.5" ></text>
</g>
<g >
<title>hrtimer_interrupt (790,461 samples, 0.09%)</title><rect x="142.9" y="309" width="1.1" height="15.0" fill="rgb(228,109,26)" rx="2" ry="2" />
<text  x="145.94" y="319.5" ></text>
</g>
<g >
<title>asm_exc_page_fault (862,820 samples, 0.10%)</title><rect x="977.8" y="373" width="1.2" height="15.0" fill="rgb(225,93,22)" rx="2" ry="2" />
<text  x="980.84" y="383.5" ></text>
</g>
<g >
<title>w2c_decode__webp__wasm_ReadHuffmanCode (4,618,508 samples, 0.52%)</title><rect x="838.0" y="389" width="6.1" height="15.0" fill="rgb(243,177,42)" rx="2" ry="2" />
<text  x="840.95" y="399.5" ></text>
</g>
<g >
<title>path_openat (923,920 samples, 0.10%)</title><rect x="10.0" y="277" width="1.2" height="15.0" fill="rgb(249,202,48)" rx="2" ry="2" />
<text  x="13.00" y="287.5" ></text>
</g>
<g >
<title>vma_alloc_folio (862,820 samples, 0.10%)</title><rect x="977.8" y="293" width="1.2" height="15.0" fill="rgb(245,187,44)" rx="2" ry="2" />
<text  x="980.84" y="303.5" ></text>
</g>
<g >
<title>do_truncate (923,920 samples, 0.10%)</title><rect x="10.0" y="261" width="1.2" height="15.0" fill="rgb(216,53,12)" rx="2" ry="2" />
<text  x="13.00" y="271.5" ></text>
</g>
<g >
<title>unmap_page_range (923,949 samples, 0.10%)</title><rect x="256.7" y="261" width="1.2" height="15.0" fill="rgb(206,5,1)" rx="2" ry="2" />
<text  x="259.68" y="271.5" ></text>
</g>
<g >
<title>__ext4_get_inode_loc (923,920 samples, 0.10%)</title><rect x="10.0" y="165" width="1.2" height="15.0" fill="rgb(206,6,1)" rx="2" ry="2" />
<text  x="13.00" y="175.5" ></text>
</g>
<g >
<title>w2c_decode__webp__wasm_VP8LReadBits (3,695,728 samples, 0.42%)</title><rect x="1062.2" y="389" width="4.9" height="15.0" fill="rgb(249,206,49)" rx="2" ry="2" />
<text  x="1065.21" y="399.5" ></text>
</g>
<g >
<title>handle_edge_irq (923,949 samples, 0.10%)</title><rect x="256.7" y="181" width="1.2" height="15.0" fill="rgb(220,69,16)" rx="2" ry="2" />
<text  x="259.68" y="191.5" ></text>
</g>
<g >
<title>update_process_times (790,461 samples, 0.09%)</title><rect x="142.9" y="245" width="1.1" height="15.0" fill="rgb(250,209,50)" rx="2" ry="2" />
<text  x="145.94" y="255.5" ></text>
</g>
<g >
<title>w2c_decode__webp__wasm_VP8LAddGreenToBlueAndRed_C (47,730,780 samples, 5.39%)</title><rect x="844.1" y="389" width="63.6" height="15.0" fill="rgb(236,142,34)" rx="2" ry="2" />
<text  x="847.11" y="399.5" >w2c_de..</text>
</g>
<g >
<title>w2c_decode__webp__wasm_PredictorAdd5_C (5,543,234 samples, 0.63%)</title><rect x="167.3" y="373" width="7.4" height="15.0" fill="rgb(253,223,53)" rx="2" ry="2" />
<text  x="170.28" y="383.5" ></text>
</g>
<g >
<title>_compound_head (923,949 samples, 0.10%)</title><rect x="256.7" y="245" width="1.2" height="15.0" fill="rgb(225,94,22)" rx="2" ry="2" />
<text  x="259.68" y="255.5" ></text>
</g>
<g >
<title>entry_SYSCALL_64_after_hwframe (489,106 samples, 0.06%)</title><rect x="12.5" y="373" width="0.6" height="15.0" fill="rgb(218,63,15)" rx="2" ry="2" />
<text  x="15.46" y="383.5" ></text>
</g>
<g >
<title>common_interrupt (923,949 samples, 0.10%)</title><rect x="256.7" y="213" width="1.2" height="15.0" fill="rgb(215,46,11)" rx="2" ry="2" />
<text  x="259.68" y="223.5" ></text>
</g>
<g >
<title>generic_exec_single (790,461 samples, 0.09%)</title><rect x="142.9" y="213" width="1.1" height="15.0" fill="rgb(234,134,32)" rx="2" ry="2" />
<text  x="145.94" y="223.5" ></text>
</g>
<g >
<title>do_sys_openat2 (923,920 samples, 0.10%)</title><rect x="10.0" y="309" width="1.2" height="15.0" fill="rgb(253,221,52)" rx="2" ry="2" />
<text  x="13.00" y="319.5" ></text>
</g>
<g >
<title>[unknown] (182,469,319 samples, 20.61%)</title><rect x="10.0" y="389" width="243.2" height="15.0" fill="rgb(210,24,5)" rx="2" ry="2" />
<text  x="13.00" y="399.5" >[unknown]</text>
</g>
<g >
<title>perf_iterate_sb (489,106 samples, 0.06%)</title><rect x="12.5" y="197" width="0.6" height="15.0" fill="rgb(244,179,42)" rx="2" ry="2" />
<text  x="15.46" y="207.5" ></text>
</g>
<g >
<title>generic_perform_write (923,824 samples, 0.10%)</title><rect x="11.2" y="277" width="1.3" height="15.0" fill="rgb(236,146,35)" rx="2" ry="2" />
<text  x="14.23" y="287.5" ></text>
</g>
<g >
<title>__hrtimer_run_queues (790,461 samples, 0.09%)</title><rect x="142.9" y="293" width="1.1" height="15.0" fill="rgb(237,150,35)" rx="2" ry="2" />
<text  x="145.94" y="303.5" ></text>
</g>
<g >
<title>__find_get_block (923,920 samples, 0.10%)</title><rect x="10.0" y="133" width="1.2" height="15.0" fill="rgb(219,65,15)" rx="2" ry="2" />
<text  x="13.00" y="143.5" ></text>
</g>
<g >
<title>kmem_cache_alloc (923,824 samples, 0.10%)</title><rect x="11.2" y="181" width="1.3" height="15.0" fill="rgb(225,95,22)" rx="2" ry="2" />
<text  x="14.23" y="191.5" ></text>
</g>
<g >
<title>__strchrnul_avx2 (752,137 samples, 0.08%)</title><rect x="255.7" y="389" width="1.0" height="15.0" fill="rgb(244,183,43)" rx="2" ry="2" />
<text  x="258.68" y="399.5" ></text>
</g>
<g >
<title>__getblk_gfp (923,920 samples, 0.10%)</title><rect x="10.0" y="149" width="1.2" height="15.0" fill="rgb(235,140,33)" rx="2" ry="2" />
<text  x="13.00" y="159.5" ></text>
</g>
<g >
<title>handle_mm_fault (862,820 samples, 0.10%)</title><rect x="977.8" y="325" width="1.2" height="15.0" fill="rgb(234,135,32)" rx="2" ry="2" />
<text  x="980.84" y="335.5" ></text>
</g>
<g >
<title>vm_mmap_pgoff (489,106 samples, 0.06%)</title><rect x="12.5" y="261" width="0.6" height="15.0" fill="rgb(237,150,35)" rx="2" ry="2" />
<text  x="15.46" y="271.5" ></text>
</g>
<g >
<title>tick_sched_timer (790,461 samples, 0.09%)</title><rect x="142.9" y="277" width="1.1" height="15.0" fill="rgb(254,227,54)" rx="2" ry="2" />
<text  x="145.94" y="287.5" ></text>
</g>
<g >
<title>do_group_exit (923,949 samples, 0.10%)</title><rect x="256.7" y="341" width="1.2" height="15.0" fill="rgb(219,67,16)" rx="2" ry="2" />
<text  x="259.68" y="351.5" ></text>
</g>
<g >
<title>load_elf_binary (103,912 samples, 0.01%)</title><rect x="1189.9" y="293" width="0.1" height="15.0" fill="rgb(223,83,20)" rx="2" ry="2" />
<text  x="1192.86" y="303.5" ></text>
</g>
<g >
<title>w2c_decode__webp__wasm_PredictorAdd6_C (924,297 samples, 0.10%)</title><rect x="174.7" y="373" width="1.2" height="15.0" fill="rgb(247,193,46)" rx="2" ry="2" />
<text  x="177.67" y="383.5" ></text>
</g>
<g >
<title>w2c_decode__webp__wasm_PredictorAdd13_C (80,640,815 samples, 9.11%)</title><rect x="36.5" y="373" width="107.5" height="15.0" fill="rgb(249,206,49)" rx="2" ry="2" />
<text  x="39.50" y="383.5" >w2c_decode__w..</text>
</g>
<g >
<title>w2c_decode__webp__wasm_PredictorAdd12_C (30,345,811 samples, 3.43%)</title><rect x="763.0" y="389" width="40.5" height="15.0" fill="rgb(206,6,1)" rx="2" ry="2" />
<text  x="766.02" y="399.5" >w2c..</text>
</g>
<g >
<title>entry_SYSCALL_64_after_hwframe (923,824 samples, 0.10%)</title><rect x="11.2" y="357" width="1.3" height="15.0" fill="rgb(218,63,15)" rx="2" ry="2" />
<text  x="14.23" y="367.5" ></text>
</g>
<g >
<title>__mark_inode_dirty (923,824 samples, 0.10%)</title><rect x="11.2" y="245" width="1.3" height="15.0" fill="rgb(254,227,54)" rx="2" ry="2" />
<text  x="14.23" y="255.5" ></text>
</g>
<g >
<title>ext4_buffered_write_iter (923,824 samples, 0.10%)</title><rect x="11.2" y="293" width="1.3" height="15.0" fill="rgb(213,40,9)" rx="2" ry="2" />
<text  x="14.23" y="303.5" ></text>
</g>
<g >
<title>entry_SYSCALL_64_after_hwframe (103,912 samples, 0.01%)</title><rect x="1189.9" y="373" width="0.1" height="15.0" fill="rgb(218,63,15)" rx="2" ry="2" />
<text  x="1192.86" y="383.5" ></text>
</g>
<g >
<title>__mmput (923,949 samples, 0.10%)</title><rect x="256.7" y="309" width="1.2" height="15.0" fill="rgb(249,203,48)" rx="2" ry="2" />
<text  x="259.68" y="319.5" ></text>
</g>
<g >
<title>ext4_setattr (923,920 samples, 0.10%)</title><rect x="10.0" y="229" width="1.2" height="15.0" fill="rgb(230,117,28)" rx="2" ry="2" />
<text  x="13.00" y="239.5" ></text>
</g>
<g >
<title>__x64_sys_exit_group (923,949 samples, 0.10%)</title><rect x="256.7" y="357" width="1.2" height="15.0" fill="rgb(214,42,10)" rx="2" ry="2" />
<text  x="259.68" y="367.5" ></text>
</g>
<g >
<title>w2c_decode__webp__wasm_VP8LInverseTransform (43,217,765 samples, 4.88%)</title><rect x="179.6" y="373" width="57.6" height="15.0" fill="rgb(247,194,46)" rx="2" ry="2" />
<text  x="182.60" y="383.5" >w2c_de..</text>
</g>
<g >
<title>get_page_from_freelist (862,820 samples, 0.10%)</title><rect x="977.8" y="245" width="1.2" height="15.0" fill="rgb(252,218,52)" rx="2" ry="2" />
<text  x="980.84" y="255.5" ></text>
</g>
<g >
<title>notify_change (923,920 samples, 0.10%)</title><rect x="10.0" y="245" width="1.2" height="15.0" fill="rgb(237,150,35)" rx="2" ry="2" />
<text  x="13.00" y="255.5" ></text>
</g>
<g >
<title>nvme_unmap_data (923,949 samples, 0.10%)</title><rect x="256.7" y="101" width="1.2" height="15.0" fill="rgb(237,149,35)" rx="2" ry="2" />
<text  x="259.68" y="111.5" ></text>
</g>
<g >
<title>ext4_orphan_add (923,920 samples, 0.10%)</title><rect x="10.0" y="213" width="1.2" height="15.0" fill="rgb(218,62,15)" rx="2" ry="2" />
<text  x="13.00" y="223.5" ></text>
</g>
<g >
<title>exit_mmap (923,949 samples, 0.10%)</title><rect x="256.7" y="293" width="1.2" height="15.0" fill="rgb(236,143,34)" rx="2" ry="2" />
<text  x="259.68" y="303.5" ></text>
</g>
<g >
<title>smp_call_function_single_async (790,461 samples, 0.09%)</title><rect x="142.9" y="229" width="1.1" height="15.0" fill="rgb(208,14,3)" rx="2" ry="2" />
<text  x="145.94" y="239.5" ></text>
</g>
<g >
<title>handle_irq_event (923,949 samples, 0.10%)</title><rect x="256.7" y="165" width="1.2" height="15.0" fill="rgb(209,19,4)" rx="2" ry="2" />
<text  x="259.68" y="175.5" ></text>
</g>
<g >
<title>exc_page_fault (862,820 samples, 0.10%)</title><rect x="977.8" y="357" width="1.2" height="15.0" fill="rgb(212,35,8)" rx="2" ry="2" />
<text  x="980.84" y="367.5" ></text>
</g>
<g >
<title>__sysvec_apic_timer_interrupt (790,461 samples, 0.09%)</title><rect x="142.9" y="325" width="1.1" height="15.0" fill="rgb(242,173,41)" rx="2" ry="2" />
<text  x="145.94" y="335.5" ></text>
</g>
<g >
<title>w2c_decode__webp__wasm_PredictorAdd11_C (15,698,393 samples, 1.77%)</title><rect x="14.3" y="373" width="21.0" height="15.0" fill="rgb(212,36,8)" rx="2" ry="2" />
<text  x="17.35" y="383.5" ></text>
</g>
<g >
<title>pagecache_get_page (923,920 samples, 0.10%)</title><rect x="10.0" y="117" width="1.2" height="15.0" fill="rgb(253,221,53)" rx="2" ry="2" />
<text  x="13.00" y="127.5" ></text>
</g>
<g >
<title>__x64_sys_openat (923,920 samples, 0.10%)</title><rect x="10.0" y="325" width="1.2" height="15.0" fill="rgb(251,215,51)" rx="2" ry="2" />
<text  x="13.00" y="335.5" ></text>
</g>
<g >
<title>load_elf_binary (489,106 samples, 0.06%)</title><rect x="12.5" y="293" width="0.6" height="15.0" fill="rgb(223,83,20)" rx="2" ry="2" />
<text  x="15.46" y="303.5" ></text>
</g>
<g >
<title>w2c_decode__webp__wasm_PredictorAdd2_C (2,772,985 samples, 0.31%)</title><rect x="157.5" y="373" width="3.7" height="15.0" fill="rgb(222,82,19)" rx="2" ry="2" />
<text  x="160.54" y="383.5" ></text>
</g>
<g >
<title>__folio_alloc (862,820 samples, 0.10%)</title><rect x="977.8" y="277" width="1.2" height="15.0" fill="rgb(224,91,21)" rx="2" ry="2" />
<text  x="980.84" y="287.5" ></text>
</g>
<g >
<title>[unknown] (103,912 samples, 0.01%)</title><rect x="1189.9" y="389" width="0.1" height="15.0" fill="rgb(210,24,5)" rx="2" ry="2" />
<text  x="1192.86" y="399.5" ></text>
</g>
<g >
<title>__iommu_dma_unmap (923,949 samples, 0.10%)</title><rect x="256.7" y="85" width="1.2" height="15.0" fill="rgb(252,216,51)" rx="2" ry="2" />
<text  x="259.68" y="95.5" ></text>
</g>
<g >
<title>__handle_irq_event_percpu (923,949 samples, 0.10%)</title><rect x="256.7" y="149" width="1.2" height="15.0" fill="rgb(236,147,35)" rx="2" ry="2" />
<text  x="259.68" y="159.5" ></text>
</g>
<g >
<title>lock_timer_base (923,949 samples, 0.10%)</title><rect x="256.7" y="53" width="1.2" height="15.0" fill="rgb(215,46,11)" rx="2" ry="2" />
<text  x="259.68" y="63.5" ></text>
</g>
<g >
<title>do_syscall_64 (923,824 samples, 0.10%)</title><rect x="11.2" y="341" width="1.3" height="15.0" fill="rgb(209,20,4)" rx="2" ry="2" />
<text  x="14.23" y="351.5" ></text>
</g>
<g >
<title>w2c_decode__webp__wasm_VP8LConvertBGRAToRGB_C (53,459,169 samples, 6.04%)</title><rect x="907.7" y="389" width="71.3" height="15.0" fill="rgb(235,138,33)" rx="2" ry="2" />
<text  x="910.73" y="399.5" >w2c_deco..</text>
</g>
<g >
<title>ext4_reserve_inode_write (923,920 samples, 0.10%)</title><rect x="10.0" y="197" width="1.2" height="15.0" fill="rgb(234,136,32)" rx="2" ry="2" />
<text  x="13.00" y="207.5" ></text>
</g>
<g >
<title>w2c_decode__webp__wasm_PredictorAdd10_C (924,373 samples, 0.10%)</title><rect x="13.1" y="373" width="1.2" height="15.0" fill="rgb(219,65,15)" rx="2" ry="2" />
<text  x="16.11" y="383.5" ></text>
</g>
<g >
<title>unmap_vmas (923,949 samples, 0.10%)</title><rect x="256.7" y="277" width="1.2" height="15.0" fill="rgb(243,176,42)" rx="2" ry="2" />
<text  x="259.68" y="287.5" ></text>
</g>
<g >
<title>nvme_pci_complete_batch (923,949 samples, 0.10%)</title><rect x="256.7" y="117" width="1.2" height="15.0" fill="rgb(245,185,44)" rx="2" ry="2" />
<text  x="259.68" y="127.5" ></text>
</g>
<g >
<title>do_execveat_common.isra.0 (103,912 samples, 0.01%)</title><rect x="1189.9" y="325" width="0.1" height="15.0" fill="rgb(231,123,29)" rx="2" ry="2" />
<text  x="1192.86" y="335.5" ></text>
</g>
<g >
<title>PageHeadHuge (923,920 samples, 0.10%)</title><rect x="10.0" y="101" width="1.2" height="15.0" fill="rgb(223,84,20)" rx="2" ry="2" />
<text  x="13.00" y="111.5" ></text>
</g>
<g >
<title>w2c_decode__webp__wasm_PredictorAdd12_C (923,552 samples, 0.10%)</title><rect x="35.3" y="373" width="1.2" height="15.0" fill="rgb(206,6,1)" rx="2" ry="2" />
<text  x="38.27" y="383.5" ></text>
</g>
<g >
<title>generic_write_end (923,824 samples, 0.10%)</title><rect x="11.2" y="261" width="1.3" height="15.0" fill="rgb(206,8,1)" rx="2" ry="2" />
<text  x="14.23" y="271.5" ></text>
</g>
<g >
<title>__libc_open64 (923,920 samples, 0.10%)</title><rect x="10.0" y="373" width="1.2" height="15.0" fill="rgb(235,140,33)" rx="2" ry="2" />
<text  x="13.00" y="383.5" ></text>
</g>
<g >
<title>__memmove_avx_unaligned_erms (924,146 samples, 0.10%)</title><rect x="254.4" y="389" width="1.3" height="15.0" fill="rgb(205,0,0)" rx="2" ry="2" />
<text  x="257.45" y="399.5" ></text>
</g>
<g >
<title>w2c_decode__webp__wasm_VP8LInverseTransform (3,573,209 samples, 0.40%)</title><rect x="1057.4" y="389" width="4.8" height="15.0" fill="rgb(247,194,46)" rx="2" ry="2" />
<text  x="1060.45" y="399.5" ></text>
</g>
<g >
<title>begin_new_exec (103,912 samples, 0.01%)</title><rect x="1189.9" y="277" width="0.1" height="15.0" fill="rgb(245,184,44)" rx="2" ry="2" />
<text  x="1192.86" y="287.5" ></text>
</g>
<g >
<title>w2c_decode__webp__wasm_PredictorAdd1_C (10,163,136 samples, 1.15%)</title><rect x="144.0" y="373" width="13.5" height="15.0" fill="rgb(229,112,26)" rx="2" ry="2" />
<text  x="146.99" y="383.5" ></text>
</g>
<g >
<title>entry_SYSCALL_64_after_hwframe (923,949 samples, 0.10%)</title><rect x="256.7" y="389" width="1.2" height="15.0" fill="rgb(218,63,15)" rx="2" ry="2" />
<text  x="259.68" y="399.5" ></text>
</g>
<g >
<title>__mod_timer (923,949 samples, 0.10%)</title><rect x="256.7" y="69" width="1.2" height="15.0" fill="rgb(234,136,32)" rx="2" ry="2" />
<text  x="259.68" y="79.5" ></text>
</g>
<g >
<title>tick_sched_handle (790,461 samples, 0.09%)</title><rect x="142.9" y="261" width="1.1" height="15.0" fill="rgb(219,68,16)" rx="2" ry="2" />
<text  x="145.94" y="271.5" ></text>
</g>
<g >
<title>w2c_decode__webp__wasm_VP8LTransformColorInverse_C (12,012,619 samples, 1.36%)</title><rect x="237.2" y="373" width="16.0" height="15.0" fill="rgb(249,205,49)" rx="2" ry="2" />
<text  x="240.20" y="383.5" ></text>
</g>
<g >
<title>ext4_dirty_inode (923,824 samples, 0.10%)</title><rect x="11.2" y="229" width="1.3" height="15.0" fill="rgb(227,102,24)" rx="2" ry="2" />
<text  x="14.23" y="239.5" ></text>
</g>
<g >
<title>decode_webp_was (885,176,812 samples, 99.99%)</title><rect x="10.0" y="405" width="1179.9" height="15.0" fill="rgb(216,54,12)" rx="2" ry="2" />
<text  x="13.00" y="415.5" >decode_webp_was</text>
</g>
<g >
<title>do_syscall_64 (103,912 samples, 0.01%)</title><rect x="1189.9" y="357" width="0.1" height="15.0" fill="rgb(209,20,4)" rx="2" ry="2" />
<text  x="1192.86" y="367.5" ></text>
</g>
<g >
<title>jbd2__journal_start (923,824 samples, 0.10%)</title><rect x="11.2" y="197" width="1.3" height="15.0" fill="rgb(252,216,51)" rx="2" ry="2" />
<text  x="14.23" y="207.5" ></text>
</g>
<g >
<title>__alloc_pages (862,820 samples, 0.10%)</title><rect x="977.8" y="261" width="1.2" height="15.0" fill="rgb(233,129,30)" rx="2" ry="2" />
<text  x="980.84" y="271.5" ></text>
</g>
<g >
<title>w2c_decode__webp__wasm_VP8LTransformColorInverse_C (91,147,129 samples, 10.30%)</title><rect x="1067.1" y="389" width="121.5" height="15.0" fill="rgb(249,205,49)" rx="2" ry="2" />
<text  x="1070.14" y="399.5" >w2c_decode__web..</text>
</g>
</g>
</svg>
