<?xml version="1.0" standalone="no"?>
<!DOCTYPE svg PUBLIC "-//W3C//DTD SVG 1.1//EN" "http://www.w3.org/Graphics/SVG/1.1/DTD/svg11.dtd">
<svg version="1.1" width="1200" height="374" onload="init(evt)" viewBox="0 0 1200 374" xmlns="http://www.w3.org/2000/svg" xmlns:xlink="http://www.w3.org/1999/xlink">
<!-- Flame graph stack visualization. See https://github.com/brendangregg/FlameGraph for latest version, and http://www.brendangregg.com/flamegraphs.html for examples. -->
<!-- NOTES:  -->
<defs>
	<linearGradient id="background" y1="0" y2="1" x1="0" x2="0" >
		<stop stop-color="#eeeeee" offset="5%" />
		<stop stop-color="#eeeeb0" offset="95%" />
	</linearGradient>
</defs>
<style type="text/css">
	text { font-family:Verdana; font-size:12px; fill:rgb(0,0,0); }
	#search, #ignorecase { opacity:0.1; cursor:pointer; }
	#search:hover, #search.show, #ignorecase:hover, #ignorecase.show { opacity:1; }
	#subtitle { text-anchor:middle; font-color:rgb(160,160,160); }
	#title { text-anchor:middle; font-size:17px}
	#unzoom { cursor:pointer; }
	#frames > *:hover { stroke:black; stroke-width:0.5; cursor:pointer; }
	.hide { display:none; }
	.parent { opacity:0.5; }
</style>
<script type="text/ecmascript">
<![CDATA[
	"use strict";
	var details, searchbtn, unzoombtn, matchedtxt, svg, searching, currentSearchTerm, ignorecase, ignorecaseBtn;
	function init(evt) {
		details = document.getElementById("details").firstChild;
		searchbtn = document.getElementById("search");
		ignorecaseBtn = document.getElementById("ignorecase");
		unzoombtn = document.getElementById("unzoom");
		matchedtxt = document.getElementById("matched");
		svg = document.getElementsByTagName("svg")[0];
		searching = 0;
		currentSearchTerm = null;

		// use GET parameters to restore a flamegraphs state.
		var params = get_params();
		if (params.x && params.y)
			zoom(find_group(document.querySelector('[x="' + params.x + '"][y="' + params.y + '"]')));
                if (params.s) search(params.s);
	}

	// event listeners
	window.addEventListener("click", function(e) {
		var target = find_group(e.target);
		if (target) {
			if (target.nodeName == "a") {
				if (e.ctrlKey === false) return;
				e.preventDefault();
			}
			if (target.classList.contains("parent")) unzoom(true);
			zoom(target);
			if (!document.querySelector('.parent')) {
				// we have basically done a clearzoom so clear the url
				var params = get_params();
				if (params.x) delete params.x;
				if (params.y) delete params.y;
				history.replaceState(null, null, parse_params(params));
				unzoombtn.classList.add("hide");
				return;
			}

			// set parameters for zoom state
			var el = target.querySelector("rect");
			if (el && el.attributes && el.attributes.y && el.attributes._orig_x) {
				var params = get_params()
				params.x = el.attributes._orig_x.value;
				params.y = el.attributes.y.value;
				history.replaceState(null, null, parse_params(params));
			}
		}
		else if (e.target.id == "unzoom") clearzoom();
		else if (e.target.id == "search") search_prompt();
		else if (e.target.id == "ignorecase") toggle_ignorecase();
	}, false)

	// mouse-over for info
	// show
	window.addEventListener("mouseover", function(e) {
		var target = find_group(e.target);
		if (target) details.nodeValue = "Function: " + g_to_text(target);
	}, false)

	// clear
	window.addEventListener("mouseout", function(e) {
		var target = find_group(e.target);
		if (target) details.nodeValue = ' ';
	}, false)

	// ctrl-F for search
	// ctrl-I to toggle case-sensitive search
	window.addEventListener("keydown",function (e) {
		if (e.keyCode === 114 || (e.ctrlKey && e.keyCode === 70)) {
			e.preventDefault();
			search_prompt();
		}
		else if (e.ctrlKey && e.keyCode === 73) {
			e.preventDefault();
			toggle_ignorecase();
		}
	}, false)

	// functions
	function get_params() {
		var params = {};
		var paramsarr = window.location.search.substr(1).split('&');
		for (var i = 0; i < paramsarr.length; ++i) {
			var tmp = paramsarr[i].split("=");
			if (!tmp[0] || !tmp[1]) continue;
			params[tmp[0]]  = decodeURIComponent(tmp[1]);
		}
		return params;
	}
	function parse_params(params) {
		var uri = "?";
		for (var key in params) {
			uri += key + '=' + encodeURIComponent(params[key]) + '&';
		}
		if (uri.slice(-1) == "&")
			uri = uri.substring(0, uri.length - 1);
		if (uri == '?')
			uri = window.location.href.split('?')[0];
		return uri;
	}
	function find_child(node, selector) {
		var children = node.querySelectorAll(selector);
		if (children.length) return children[0];
	}
	function find_group(node) {
		var parent = node.parentElement;
		if (!parent) return;
		if (parent.id == "frames") return node;
		return find_group(parent);
	}
	function orig_save(e, attr, val) {
		if (e.attributes["_orig_" + attr] != undefined) return;
		if (e.attributes[attr] == undefined) return;
		if (val == undefined) val = e.attributes[attr].value;
		e.setAttribute("_orig_" + attr, val);
	}
	function orig_load(e, attr) {
		if (e.attributes["_orig_"+attr] == undefined) return;
		e.attributes[attr].value = e.attributes["_orig_" + attr].value;
		e.removeAttribute("_orig_"+attr);
	}
	function g_to_text(e) {
		var text = find_child(e, "title").firstChild.nodeValue;
		return (text)
	}
	function g_to_func(e) {
		var func = g_to_text(e);
		// if there's any manipulation we want to do to the function
		// name before it's searched, do it here before returning.
		return (func);
	}
	function update_text(e) {
		var r = find_child(e, "rect");
		var t = find_child(e, "text");
		var w = parseFloat(r.attributes.width.value) -3;
		var txt = find_child(e, "title").textContent.replace(/\([^(]*\)$/,"");
		t.attributes.x.value = parseFloat(r.attributes.x.value) + 3;

		// Smaller than this size won't fit anything
		if (w < 2 * 12 * 0.59) {
			t.textContent = "";
			return;
		}

		t.textContent = txt;
		var sl = t.getSubStringLength(0, txt.length);
		// check if only whitespace or if we can fit the entire string into width w
		if (/^ *$/.test(txt) || sl < w)
			return;

		// this isn't perfect, but gives a good starting point
		// and avoids calling getSubStringLength too often
		var start = Math.floor((w/sl) * txt.length);
		for (var x = start; x > 0; x = x-2) {
			if (t.getSubStringLength(0, x + 2) <= w) {
				t.textContent = txt.substring(0, x) + "..";
				return;
			}
		}
		t.textContent = "";
	}

	// zoom
	function zoom_reset(e) {
		if (e.attributes != undefined) {
			orig_load(e, "x");
			orig_load(e, "width");
		}
		if (e.childNodes == undefined) return;
		for (var i = 0, c = e.childNodes; i < c.length; i++) {
			zoom_reset(c[i]);
		}
	}
	function zoom_child(e, x, ratio) {
		if (e.attributes != undefined) {
			if (e.attributes.x != undefined) {
				orig_save(e, "x");
				e.attributes.x.value = (parseFloat(e.attributes.x.value) - x - 10) * ratio + 10;
				if (e.tagName == "text")
					e.attributes.x.value = find_child(e.parentNode, "rect[x]").attributes.x.value + 3;
			}
			if (e.attributes.width != undefined) {
				orig_save(e, "width");
				e.attributes.width.value = parseFloat(e.attributes.width.value) * ratio;
			}
		}

		if (e.childNodes == undefined) return;
		for (var i = 0, c = e.childNodes; i < c.length; i++) {
			zoom_child(c[i], x - 10, ratio);
		}
	}
	function zoom_parent(e) {
		if (e.attributes) {
			if (e.attributes.x != undefined) {
				orig_save(e, "x");
				e.attributes.x.value = 10;
			}
			if (e.attributes.width != undefined) {
				orig_save(e, "width");
				e.attributes.width.value = parseInt(svg.width.baseVal.value) - (10 * 2);
			}
		}
		if (e.childNodes == undefined) return;
		for (var i = 0, c = e.childNodes; i < c.length; i++) {
			zoom_parent(c[i]);
		}
	}
	function zoom(node) {
		var attr = find_child(node, "rect").attributes;
		var width = parseFloat(attr.width.value);
		var xmin = parseFloat(attr.x.value);
		var xmax = parseFloat(xmin + width);
		var ymin = parseFloat(attr.y.value);
		var ratio = (svg.width.baseVal.value - 2 * 10) / width;

		// XXX: Workaround for JavaScript float issues (fix me)
		var fudge = 0.0001;

		unzoombtn.classList.remove("hide");

		var el = document.getElementById("frames").children;
		for (var i = 0; i < el.length; i++) {
			var e = el[i];
			var a = find_child(e, "rect").attributes;
			var ex = parseFloat(a.x.value);
			var ew = parseFloat(a.width.value);
			var upstack;
			// Is it an ancestor
			if (0 == 0) {
				upstack = parseFloat(a.y.value) > ymin;
			} else {
				upstack = parseFloat(a.y.value) < ymin;
			}
			if (upstack) {
				// Direct ancestor
				if (ex <= xmin && (ex+ew+fudge) >= xmax) {
					e.classList.add("parent");
					zoom_parent(e);
					update_text(e);
				}
				// not in current path
				else
					e.classList.add("hide");
			}
			// Children maybe
			else {
				// no common path
				if (ex < xmin || ex + fudge >= xmax) {
					e.classList.add("hide");
				}
				else {
					zoom_child(e, xmin, ratio);
					update_text(e);
				}
			}
		}
		search();
	}
	function unzoom(dont_update_text) {
		unzoombtn.classList.add("hide");
		var el = document.getElementById("frames").children;
		for(var i = 0; i < el.length; i++) {
			el[i].classList.remove("parent");
			el[i].classList.remove("hide");
			zoom_reset(el[i]);
			if(!dont_update_text) update_text(el[i]);
		}
		search();
	}
	function clearzoom() {
		unzoom();

		// remove zoom state
		var params = get_params();
		if (params.x) delete params.x;
		if (params.y) delete params.y;
		history.replaceState(null, null, parse_params(params));
	}

	// search
	function toggle_ignorecase() {
		ignorecase = !ignorecase;
		if (ignorecase) {
			ignorecaseBtn.classList.add("show");
		} else {
			ignorecaseBtn.classList.remove("show");
		}
		reset_search();
		search();
	}
	function reset_search() {
		var el = document.querySelectorAll("#frames rect");
		for (var i = 0; i < el.length; i++) {
			orig_load(el[i], "fill")
		}
		var params = get_params();
		delete params.s;
		history.replaceState(null, null, parse_params(params));
	}
	function search_prompt() {
		if (!searching) {
			var term = prompt("Enter a search term (regexp " +
			    "allowed, eg: ^ext4_)"
			    + (ignorecase ? ", ignoring case" : "")
			    + "\nPress Ctrl-i to toggle case sensitivity", "");
			if (term != null) search(term);
		} else {
			reset_search();
			searching = 0;
			currentSearchTerm = null;
			searchbtn.classList.remove("show");
			searchbtn.firstChild.nodeValue = "Search"
			matchedtxt.classList.add("hide");
			matchedtxt.firstChild.nodeValue = ""
		}
	}
	function search(term) {
		if (term) currentSearchTerm = term;

		var re = new RegExp(currentSearchTerm, ignorecase ? 'i' : '');
		var el = document.getElementById("frames").children;
		var matches = new Object();
		var maxwidth = 0;
		for (var i = 0; i < el.length; i++) {
			var e = el[i];
			var func = g_to_func(e);
			var rect = find_child(e, "rect");
			if (func == null || rect == null)
				continue;

			// Save max width. Only works as we have a root frame
			var w = parseFloat(rect.attributes.width.value);
			if (w > maxwidth)
				maxwidth = w;

			if (func.match(re)) {
				// highlight
				var x = parseFloat(rect.attributes.x.value);
				orig_save(rect, "fill");
				rect.attributes.fill.value = "rgb(230,0,230)";

				// remember matches
				if (matches[x] == undefined) {
					matches[x] = w;
				} else {
					if (w > matches[x]) {
						// overwrite with parent
						matches[x] = w;
					}
				}
				searching = 1;
			}
		}
		if (!searching)
			return;
		var params = get_params();
		params.s = currentSearchTerm;
		history.replaceState(null, null, parse_params(params));

		searchbtn.classList.add("show");
		searchbtn.firstChild.nodeValue = "Reset Search";

		// calculate percent matched, excluding vertical overlap
		var count = 0;
		var lastx = -1;
		var lastw = 0;
		var keys = Array();
		for (k in matches) {
			if (matches.hasOwnProperty(k))
				keys.push(k);
		}
		// sort the matched frames by their x location
		// ascending, then width descending
		keys.sort(function(a, b){
			return a - b;
		});
		// Step through frames saving only the biggest bottom-up frames
		// thanks to the sort order. This relies on the tree property
		// where children are always smaller than their parents.
		var fudge = 0.0001;	// JavaScript floating point
		for (var k in keys) {
			var x = parseFloat(keys[k]);
			var w = matches[keys[k]];
			if (x >= lastx + lastw - fudge) {
				count += w;
				lastx = x;
				lastw = w;
			}
		}
		// display matched percent
		matchedtxt.classList.remove("hide");
		var pct = 100 * count / maxwidth;
		if (pct != 100) pct = pct.toFixed(1)
		matchedtxt.firstChild.nodeValue = "Matched: " + pct + "%";
	}
]]>
</script>
<rect x="0.0" y="0" width="1200.0" height="374.0" fill="url(#background)"  />
<text id="title" x="600.00" y="24" >Flame Graph</text>
<text id="details" x="10.00" y="357" > </text>
<text id="unzoom" x="10.00" y="24" class="hide">Reset Zoom</text>
<text id="search" x="1090.00" y="24" >Search</text>
<text id="ignorecase" x="1174.00" y="24" >ic</text>
<text id="matched" x="1090.00" y="357" > </text>
<g id="frames">
<g >
<title>decode_webp_nat (4,258,149,559 samples, 100.00%)</title><rect x="10.0" y="309" width="1180.0" height="15.0" fill="rgb(218,61,14)" rx="2" ry="2" />
<text  x="13.00" y="319.5" >decode_webp_nat</text>
</g>
<g >
<title>ReconstructRow (14,739,924 samples, 0.35%)</title><rect x="156.0" y="277" width="4.1" height="15.0" fill="rgb(225,93,22)" rx="2" ry="2" />
<text  x="159.02" y="287.5" ></text>
</g>
<g >
<title>ext4_bio_write_page (911,638 samples, 0.02%)</title><rect x="1188.5" y="69" width="0.2" height="15.0" fill="rgb(228,105,25)" rx="2" ry="2" />
<text  x="1191.46" y="79.5" ></text>
</g>
<g >
<title>do_syscall_64 (474,734 samples, 0.01%)</title><rect x="1189.6" y="261" width="0.1" height="15.0" fill="rgb(209,20,4)" rx="2" ry="2" />
<text  x="1192.60" y="271.5" ></text>
</g>
<g >
<title>do_syscall_64 (909,436 samples, 0.02%)</title><rect x="1188.7" y="245" width="0.3" height="15.0" fill="rgb(209,20,4)" rx="2" ry="2" />
<text  x="1191.72" y="255.5" ></text>
</g>
<g >
<title>VP8DecodeMB (28,495,759 samples, 0.67%)</title><rect x="1040.5" y="277" width="7.9" height="15.0" fill="rgb(208,18,4)" rx="2" ry="2" />
<text  x="1043.52" y="287.5" ></text>
</g>
<g >
<title>__libc_write (1,369,575 samples, 0.03%)</title><rect x="1189.0" y="277" width="0.3" height="15.0" fill="rgb(238,154,37)" rx="2" ry="2" />
<text  x="1191.97" y="287.5" ></text>
</g>
<g >
<title>do_execveat_common.isra.0 (474,734 samples, 0.01%)</title><rect x="1189.6" y="229" width="0.1" height="15.0" fill="rgb(231,123,29)" rx="2" ry="2" />
<text  x="1192.60" y="239.5" ></text>
</g>
<g >
<title>entry_SYSCALL_64_after_hwframe (911,638 samples, 0.02%)</title><rect x="1188.5" y="261" width="0.2" height="15.0" fill="rgb(218,63,15)" rx="2" ry="2" />
<text  x="1191.46" y="271.5" ></text>
</g>
<g >
<title>mpage_submit_page (911,638 samples, 0.02%)</title><rect x="1188.5" y="85" width="0.2" height="15.0" fill="rgb(232,127,30)" rx="2" ry="2" />
<text  x="1191.46" y="95.5" ></text>
</g>
<g >
<title>SimpleHFilter16_C (12,848,249 samples, 0.30%)</title><rect x="160.1" y="277" width="3.6" height="15.0" fill="rgb(227,105,25)" rx="2" ry="2" />
<text  x="163.10" y="287.5" ></text>
</g>
<g >
<title>TransformDC_C (5,543,299 samples, 0.13%)</title><rect x="28.7" y="293" width="1.6" height="15.0" fill="rgb(219,65,15)" rx="2" ry="2" />
<text  x="31.72" y="303.5" ></text>
</g>
<g >
<title>TransformTwo_C (1,847,589 samples, 0.04%)</title><rect x="30.3" y="293" width="0.5" height="15.0" fill="rgb(212,36,8)" rx="2" ry="2" />
<text  x="33.25" y="303.5" ></text>
</g>
<g >
<title>GetCoeffsFast (4,618,286 samples, 0.11%)</title><rect x="141.8" y="277" width="1.2" height="15.0" fill="rgb(219,64,15)" rx="2" ry="2" />
<text  x="144.76" y="287.5" ></text>
</g>
<g >
<title>HE4_C (6,366,720 samples, 0.15%)</title><rect x="17.4" y="293" width="1.7" height="15.0" fill="rgb(220,70,16)" rx="2" ry="2" />
<text  x="20.37" y="303.5" ></text>
</g>
<g >
<title>ext4_release_file (911,638 samples, 0.02%)</title><rect x="1188.5" y="165" width="0.2" height="15.0" fill="rgb(225,92,22)" rx="2" ry="2" />
<text  x="1191.46" y="175.5" ></text>
</g>
<g >
<title>__alloc_pages (723,006 samples, 0.02%)</title><rect x="132.1" y="165" width="0.2" height="15.0" fill="rgb(233,129,30)" rx="2" ry="2" />
<text  x="135.12" y="175.5" ></text>
</g>
<g >
<title>handle_mm_fault (1,646,511 samples, 0.04%)</title><rect x="131.9" y="229" width="0.4" height="15.0" fill="rgb(234,135,32)" rx="2" ry="2" />
<text  x="134.87" y="239.5" ></text>
</g>
<g >
<title>FinishRow (919,952 samples, 0.02%)</title><rect x="141.5" y="277" width="0.3" height="15.0" fill="rgb(213,41,9)" rx="2" ry="2" />
<text  x="144.50" y="287.5" ></text>
</g>
<g >
<title>check_preemption_disabled (923,505 samples, 0.02%)</title><rect x="131.9" y="149" width="0.2" height="15.0" fill="rgb(220,73,17)" rx="2" ry="2" />
<text  x="134.87" y="159.5" ></text>
</g>
<g >
<title>TransformTwo_C (42,236,186 samples, 0.99%)</title><rect x="1025.1" y="277" width="11.7" height="15.0" fill="rgb(212,36,8)" rx="2" ry="2" />
<text  x="1028.14" y="287.5" ></text>
</g>
<g >
<title>do_user_addr_fault (1,646,511 samples, 0.04%)</title><rect x="131.9" y="245" width="0.4" height="15.0" fill="rgb(228,108,25)" rx="2" ry="2" />
<text  x="134.87" y="255.5" ></text>
</g>
<g >
<title>__handle_mm_fault (1,646,511 samples, 0.04%)</title><rect x="131.9" y="213" width="0.4" height="15.0" fill="rgb(207,9,2)" rx="2" ry="2" />
<text  x="134.87" y="223.5" ></text>
</g>
<g >
<title>__x64_sys_execve (474,734 samples, 0.01%)</title><rect x="1189.6" y="245" width="0.1" height="15.0" fill="rgb(247,193,46)" rx="2" ry="2" />
<text  x="1192.60" y="255.5" ></text>
</g>
<g >
<title>try_charge_memcg (923,505 samples, 0.02%)</title><rect x="131.9" y="165" width="0.2" height="15.0" fill="rgb(210,27,6)" rx="2" ry="2" />
<text  x="134.87" y="175.5" ></text>
</g>
<g >
<title>TransformAC3_C (5,116,236 samples, 0.12%)</title><rect x="27.3" y="293" width="1.4" height="15.0" fill="rgb(209,19,4)" rx="2" ry="2" />
<text  x="30.30" y="303.5" ></text>
</g>
<g >
<title>do_writepages (911,638 samples, 0.02%)</title><rect x="1188.5" y="117" width="0.2" height="15.0" fill="rgb(240,164,39)" rx="2" ry="2" />
<text  x="1191.46" y="127.5" ></text>
</g>
<g >
<title>[unknown] (415,340,362 samples, 9.75%)</title><rect x="1073.4" y="277" width="115.1" height="15.0" fill="rgb(210,24,5)" rx="2" ry="2" />
<text  x="1076.37" y="287.5" >[unknown]</text>
</g>
<g >
<title>TransformUV_C (12,363,249 samples, 0.29%)</title><rect x="1036.8" y="277" width="3.5" height="15.0" fill="rgb(236,146,34)" rx="2" ry="2" />
<text  x="1039.84" y="287.5" ></text>
</g>
<g >
<title>GetCoeffsFast (6,414,750 samples, 0.15%)</title><rect x="14.6" y="293" width="1.7" height="15.0" fill="rgb(219,64,15)" rx="2" ry="2" />
<text  x="17.57" y="303.5" ></text>
</g>
<g >
<title>[unknown] (3,783,604,566 samples, 88.85%)</title><rect x="141.2" y="293" width="1048.5" height="15.0" fill="rgb(210,24,5)" rx="2" ry="2" />
<text  x="144.25" y="303.5" >[unknown]</text>
</g>
<g >
<title>__folio_start_writeback (911,638 samples, 0.02%)</title><rect x="1188.5" y="53" width="0.2" height="15.0" fill="rgb(209,20,5)" rx="2" ry="2" />
<text  x="1191.46" y="63.5" ></text>
</g>
<g >
<title>process_echoes (459,833 samples, 0.01%)</title><rect x="1189.2" y="165" width="0.1" height="15.0" fill="rgb(218,64,15)" rx="2" ry="2" />
<text  x="1192.22" y="175.5" ></text>
</g>
<g >
<title>DC4_C (14,649,466 samples, 0.34%)</title><rect x="10.5" y="293" width="4.1" height="15.0" fill="rgb(209,18,4)" rx="2" ry="2" />
<text  x="13.51" y="303.5" ></text>
</g>
<g >
<title>bprm_execve (474,734 samples, 0.01%)</title><rect x="1189.6" y="213" width="0.1" height="15.0" fill="rgb(218,61,14)" rx="2" ry="2" />
<text  x="1192.60" y="223.5" ></text>
</g>
<g >
<title>TransformAC3_C (2,770,712 samples, 0.07%)</title><rect x="163.9" y="277" width="0.8" height="15.0" fill="rgb(209,19,4)" rx="2" ry="2" />
<text  x="166.92" y="287.5" ></text>
</g>
<g >
<title>charge_memcg (923,505 samples, 0.02%)</title><rect x="131.9" y="181" width="0.2" height="15.0" fill="rgb(242,170,40)" rx="2" ry="2" />
<text  x="134.87" y="191.5" ></text>
</g>
<g >
<title>ksys_write (1,369,575 samples, 0.03%)</title><rect x="1189.0" y="229" width="0.3" height="15.0" fill="rgb(205,4,1)" rx="2" ry="2" />
<text  x="1191.97" y="239.5" ></text>
</g>
<g >
<title>folio_alloc (909,742 samples, 0.02%)</title><rect x="1189.0" y="117" width="0.2" height="15.0" fill="rgb(252,217,52)" rx="2" ry="2" />
<text  x="1191.97" y="127.5" ></text>
</g>
<g >
<title>do_truncate (909,436 samples, 0.02%)</title><rect x="1188.7" y="165" width="0.3" height="15.0" fill="rgb(216,53,12)" rx="2" ry="2" />
<text  x="1191.72" y="175.5" ></text>
</g>
<g >
<title>SimpleHFilter16i_C (924,376 samples, 0.02%)</title><rect x="21.2" y="293" width="0.2" height="15.0" fill="rgb(249,205,49)" rx="2" ry="2" />
<text  x="24.19" y="303.5" ></text>
</g>
<g >
<title>all (4,258,179,155 samples, 100%)</title><rect x="10.0" y="325" width="1180.0" height="15.0" fill="rgb(213,39,9)" rx="2" ry="2" />
<text  x="13.00" y="335.5" ></text>
</g>
<g >
<title>VP8ParseIntraModeRow (90,029,551 samples, 2.11%)</title><rect x="1048.4" y="277" width="25.0" height="15.0" fill="rgb(231,121,29)" rx="2" ry="2" />
<text  x="1051.42" y="287.5" >V..</text>
</g>
<g >
<title>asm_exc_page_fault (921,814 samples, 0.02%)</title><rect x="1189.7" y="277" width="0.3" height="15.0" fill="rgb(225,93,22)" rx="2" ry="2" />
<text  x="1192.74" y="287.5" ></text>
</g>
<g >
<title>clear_page_rep (723,006 samples, 0.02%)</title><rect x="132.1" y="133" width="0.2" height="15.0" fill="rgb(253,221,52)" rx="2" ry="2" />
<text  x="135.12" y="143.5" ></text>
</g>
<g >
<title>TM16_C (923,920 samples, 0.02%)</title><rect x="163.7" y="277" width="0.2" height="15.0" fill="rgb(211,30,7)" rx="2" ry="2" />
<text  x="166.66" y="287.5" ></text>
</g>
<g >
<title>vfs_write (1,369,575 samples, 0.03%)</title><rect x="1189.0" y="213" width="0.3" height="15.0" fill="rgb(250,209,50)" rx="2" ry="2" />
<text  x="1191.97" y="223.5" ></text>
</g>
<g >
<title>vma_alloc_folio (723,006 samples, 0.02%)</title><rect x="132.1" y="197" width="0.2" height="15.0" fill="rgb(245,187,44)" rx="2" ry="2" />
<text  x="135.12" y="207.5" ></text>
</g>
<g >
<title>TransformWHT_C (924,104 samples, 0.02%)</title><rect x="1040.3" y="277" width="0.2" height="15.0" fill="rgb(221,76,18)" rx="2" ry="2" />
<text  x="1043.27" y="287.5" ></text>
</g>
<g >
<title>__close_nocancel (911,638 samples, 0.02%)</title><rect x="1188.5" y="277" width="0.2" height="15.0" fill="rgb(228,109,26)" rx="2" ry="2" />
<text  x="1191.46" y="287.5" ></text>
</g>
<g >
<title>__folio_alloc (723,006 samples, 0.02%)</title><rect x="132.1" y="181" width="0.2" height="15.0" fill="rgb(224,91,21)" rx="2" ry="2" />
<text  x="135.12" y="191.5" ></text>
</g>
<g >
<title>__x64_sys_openat (909,436 samples, 0.02%)</title><rect x="1188.7" y="229" width="0.3" height="15.0" fill="rgb(251,215,51)" rx="2" ry="2" />
<text  x="1191.72" y="239.5" ></text>
</g>
<g >
<title>file_tty_write.constprop.0 (459,833 samples, 0.01%)</title><rect x="1189.2" y="197" width="0.1" height="15.0" fill="rgb(219,64,15)" rx="2" ry="2" />
<text  x="1192.22" y="207.5" ></text>
</g>
<g >
<title>VE4_C (2,771,185 samples, 0.07%)</title><rect x="132.3" y="293" width="0.8" height="15.0" fill="rgb(229,114,27)" rx="2" ry="2" />
<text  x="135.32" y="303.5" ></text>
</g>
<g >
<title>VP8ParseIntraModeRow (6,451,043 samples, 0.15%)</title><rect x="138.7" y="293" width="1.8" height="15.0" fill="rgb(231,121,29)" rx="2" ry="2" />
<text  x="141.69" y="303.5" ></text>
</g>
<g >
<title>TransformOne_C (3,089,421,797 samples, 72.55%)</title><rect x="169.0" y="277" width="856.1" height="15.0" fill="rgb(218,59,14)" rx="2" ry="2" />
<text  x="172.02" y="287.5" >TransformOne_C</text>
</g>
<g >
<title>generic_perform_write (909,742 samples, 0.02%)</title><rect x="1189.0" y="181" width="0.2" height="15.0" fill="rgb(236,146,35)" rx="2" ry="2" />
<text  x="1191.97" y="191.5" ></text>
</g>
<g >
<title>filemap_fdatawrite_wbc (911,638 samples, 0.02%)</title><rect x="1188.5" y="133" width="0.2" height="15.0" fill="rgb(210,25,6)" rx="2" ry="2" />
<text  x="1191.46" y="143.5" ></text>
</g>
<g >
<title>entry_SYSCALL_64_after_hwframe (1,369,575 samples, 0.03%)</title><rect x="1189.0" y="261" width="0.3" height="15.0" fill="rgb(218,63,15)" rx="2" ry="2" />
<text  x="1191.97" y="271.5" ></text>
</g>
<g >
<title>__libc_open64 (909,436 samples, 0.02%)</title><rect x="1188.7" y="277" width="0.3" height="15.0" fill="rgb(235,140,33)" rx="2" ry="2" />
<text  x="1191.72" y="287.5" ></text>
</g>
<g >
<title>load_elf_binary (474,734 samples, 0.01%)</title><rect x="1189.6" y="197" width="0.1" height="15.0" fill="rgb(223,83,20)" rx="2" ry="2" />
<text  x="1192.60" y="207.5" ></text>
</g>
<g >
<title>ext4_buffered_write_iter (909,742 samples, 0.02%)</title><rect x="1189.0" y="197" width="0.2" height="15.0" fill="rgb(213,40,9)" rx="2" ry="2" />
<text  x="1191.97" y="207.5" ></text>
</g>
<g >
<title>ext4_setattr (909,436 samples, 0.02%)</title><rect x="1188.7" y="133" width="0.3" height="15.0" fill="rgb(230,117,28)" rx="2" ry="2" />
<text  x="1191.72" y="143.5" ></text>
</g>
<g >
<title>exit_to_user_mode_prepare (911,638 samples, 0.02%)</title><rect x="1188.5" y="213" width="0.2" height="15.0" fill="rgb(228,108,25)" rx="2" ry="2" />
<text  x="1191.46" y="223.5" ></text>
</g>
<g >
<title>do_syscall_64 (1,369,575 samples, 0.03%)</title><rect x="1189.0" y="245" width="0.3" height="15.0" fill="rgb(209,20,4)" rx="2" ry="2" />
<text  x="1191.97" y="255.5" ></text>
</g>
<g >
<title>do_sys_openat2 (909,436 samples, 0.02%)</title><rect x="1188.7" y="213" width="0.3" height="15.0" fill="rgb(253,221,52)" rx="2" ry="2" />
<text  x="1191.72" y="223.5" ></text>
</g>
<g >
<title>truncate_pagecache (909,436 samples, 0.02%)</title><rect x="1188.7" y="117" width="0.3" height="15.0" fill="rgb(231,123,29)" rx="2" ry="2" />
<text  x="1191.72" y="127.5" ></text>
</g>
<g >
<title>UpsampleRgbLinePair_C (366,484,153 samples, 8.61%)</title><rect x="30.8" y="293" width="101.5" height="15.0" fill="rgb(228,108,26)" rx="2" ry="2" />
<text  x="33.77" y="303.5" >UpsampleRgbL..</text>
</g>
<g >
<title>do_filp_open (909,436 samples, 0.02%)</title><rect x="1188.7" y="197" width="0.3" height="15.0" fill="rgb(211,28,6)" rx="2" ry="2" />
<text  x="1191.72" y="207.5" ></text>
</g>
<g >
<title>TransformDC_C (11,920,567 samples, 0.28%)</title><rect x="165.7" y="277" width="3.3" height="15.0" fill="rgb(219,65,15)" rx="2" ry="2" />
<text  x="168.71" y="287.5" ></text>
</g>
<g >
<title>GetCoeffsFast (409,798,015 samples, 9.62%)</title><rect x="1073.4" y="261" width="113.5" height="15.0" fill="rgb(219,64,15)" rx="2" ry="2" />
<text  x="1076.37" y="271.5" >GetCoeffsFast</text>
</g>
<g >
<title>entry_SYSCALL_64_after_hwframe (474,734 samples, 0.01%)</title><rect x="1189.6" y="277" width="0.1" height="15.0" fill="rgb(218,63,15)" rx="2" ry="2" />
<text  x="1192.60" y="287.5" ></text>
</g>
<g >
<title>entry_SYSCALL_64_after_hwframe (909,436 samples, 0.02%)</title><rect x="1188.7" y="261" width="0.3" height="15.0" fill="rgb(218,63,15)" rx="2" ry="2" />
<text  x="1191.72" y="271.5" ></text>
</g>
<g >
<title>GetLargeValue (4,618,235 samples, 0.11%)</title><rect x="1186.9" y="261" width="1.3" height="15.0" fill="rgb(243,175,42)" rx="2" ry="2" />
<text  x="1189.93" y="271.5" ></text>
</g>
<g >
<title>__memmove_avx_unaligned_erms (921,814 samples, 0.02%)</title><rect x="1189.7" y="293" width="0.3" height="15.0" fill="rgb(205,0,0)" rx="2" ry="2" />
<text  x="1192.74" y="303.5" ></text>
</g>
<g >
<title>__filemap_get_folio (909,742 samples, 0.02%)</title><rect x="1189.0" y="133" width="0.2" height="15.0" fill="rgb(231,120,28)" rx="2" ry="2" />
<text  x="1191.97" y="143.5" ></text>
</g>
<g >
<title>__mem_cgroup_charge (923,505 samples, 0.02%)</title><rect x="131.9" y="197" width="0.2" height="15.0" fill="rgb(218,60,14)" rx="2" ry="2" />
<text  x="134.87" y="207.5" ></text>
</g>
<g >
<title>syscall_exit_to_user_mode (911,638 samples, 0.02%)</title><rect x="1188.5" y="229" width="0.2" height="15.0" fill="rgb(251,211,50)" rx="2" ry="2" />
<text  x="1191.46" y="239.5" ></text>
</g>
<g >
<title>GetLargeValue (46,843,466 samples, 1.10%)</title><rect x="143.0" y="277" width="13.0" height="15.0" fill="rgb(243,175,42)" rx="2" ry="2" />
<text  x="146.04" y="287.5" ></text>
</g>
<g >
<title>__alloc_pages (909,742 samples, 0.02%)</title><rect x="1189.0" y="101" width="0.2" height="15.0" fill="rgb(233,129,30)" rx="2" ry="2" />
<text  x="1191.97" y="111.5" ></text>
</g>
<g >
<title>pagecache_get_page (909,742 samples, 0.02%)</title><rect x="1189.0" y="149" width="0.2" height="15.0" fill="rgb(253,221,53)" rx="2" ry="2" />
<text  x="1191.97" y="159.5" ></text>
</g>
<g >
<title>xas_clear_mark (911,638 samples, 0.02%)</title><rect x="1188.5" y="37" width="0.2" height="15.0" fill="rgb(230,116,27)" rx="2" ry="2" />
<text  x="1191.46" y="47.5" ></text>
</g>
<g >
<title>ReconstructRow (5,543,805 samples, 0.13%)</title><rect x="19.6" y="293" width="1.6" height="15.0" fill="rgb(225,93,22)" rx="2" ry="2" />
<text  x="22.65" y="303.5" ></text>
</g>
<g >
<title>VP8GetValue (2,771,634 samples, 0.07%)</title><rect x="137.9" y="293" width="0.8" height="15.0" fill="rgb(230,119,28)" rx="2" ry="2" />
<text  x="140.92" y="303.5" ></text>
</g>
<g >
<title>_raw_spin_trylock (909,742 samples, 0.02%)</title><rect x="1189.0" y="69" width="0.2" height="15.0" fill="rgb(222,80,19)" rx="2" ry="2" />
<text  x="1191.97" y="79.5" ></text>
</g>
<g >
<title>ext4_writepages (911,638 samples, 0.02%)</title><rect x="1188.5" y="101" width="0.2" height="15.0" fill="rgb(240,165,39)" rx="2" ry="2" />
<text  x="1191.46" y="111.5" ></text>
</g>
<g >
<title>exc_page_fault (1,646,511 samples, 0.04%)</title><rect x="131.9" y="261" width="0.4" height="15.0" fill="rgb(212,35,8)" rx="2" ry="2" />
<text  x="134.87" y="271.5" ></text>
</g>
<g >
<title>__fput (911,638 samples, 0.02%)</title><rect x="1188.5" y="181" width="0.2" height="15.0" fill="rgb(248,200,47)" rx="2" ry="2" />
<text  x="1191.46" y="191.5" ></text>
</g>
<g >
<title>get_page_from_freelist (909,742 samples, 0.02%)</title><rect x="1189.0" y="85" width="0.2" height="15.0" fill="rgb(252,218,52)" rx="2" ry="2" />
<text  x="1191.97" y="95.5" ></text>
</g>
<g >
<title>__filemap_fdatawrite_range (911,638 samples, 0.02%)</title><rect x="1188.5" y="149" width="0.2" height="15.0" fill="rgb(233,129,30)" rx="2" ry="2" />
<text  x="1191.46" y="159.5" ></text>
</g>
<g >
<title>get_page_from_freelist (723,006 samples, 0.02%)</title><rect x="132.1" y="149" width="0.2" height="15.0" fill="rgb(252,218,52)" rx="2" ry="2" />
<text  x="135.12" y="159.5" ></text>
</g>
<g >
<title>truncate_inode_pages_range (909,436 samples, 0.02%)</title><rect x="1188.7" y="101" width="0.3" height="15.0" fill="rgb(245,187,44)" rx="2" ry="2" />
<text  x="1191.72" y="111.5" ></text>
</g>
<g >
<title>ext4_da_write_begin (909,742 samples, 0.02%)</title><rect x="1189.0" y="165" width="0.2" height="15.0" fill="rgb(211,32,7)" rx="2" ry="2" />
<text  x="1191.97" y="175.5" ></text>
</g>
<g >
<title>notify_change (909,436 samples, 0.02%)</title><rect x="1188.7" y="149" width="0.3" height="15.0" fill="rgb(237,150,35)" rx="2" ry="2" />
<text  x="1191.72" y="159.5" ></text>
</g>
<g >
<title>HD4_C (3,695,280 samples, 0.09%)</title><rect x="16.3" y="293" width="1.1" height="15.0" fill="rgb(226,100,23)" rx="2" ry="2" />
<text  x="19.35" y="303.5" ></text>
</g>
<g >
<title>TransformOne_C (924,112 samples, 0.02%)</title><rect x="1188.2" y="261" width="0.3" height="15.0" fill="rgb(218,59,14)" rx="2" ry="2" />
<text  x="1191.21" y="271.5" ></text>
</g>
<g >
<title>do_syscall_64 (911,638 samples, 0.02%)</title><rect x="1188.5" y="245" width="0.2" height="15.0" fill="rgb(209,20,4)" rx="2" ry="2" />
<text  x="1191.46" y="255.5" ></text>
</g>
<g >
<title>TM4_C (6,467,082 samples, 0.15%)</title><rect x="25.5" y="293" width="1.8" height="15.0" fill="rgb(241,165,39)" rx="2" ry="2" />
<text  x="28.51" y="303.5" ></text>
</g>
<g >
<title>LD4_C (1,847,630 samples, 0.04%)</title><rect x="19.1" y="293" width="0.5" height="15.0" fill="rgb(250,211,50)" rx="2" ry="2" />
<text  x="22.14" y="303.5" ></text>
</g>
<g >
<title>VP8DecodeMB (17,434,527 samples, 0.41%)</title><rect x="133.1" y="293" width="4.8" height="15.0" fill="rgb(208,18,4)" rx="2" ry="2" />
<text  x="136.09" y="303.5" ></text>
</g>
<g >
<title>find_lock_entries (909,436 samples, 0.02%)</title><rect x="1188.7" y="85" width="0.3" height="15.0" fill="rgb(224,89,21)" rx="2" ry="2" />
<text  x="1191.72" y="95.5" ></text>
</g>
<g >
<title>asm_exc_page_fault (1,646,511 samples, 0.04%)</title><rect x="131.9" y="277" width="0.4" height="15.0" fill="rgb(225,93,22)" rx="2" ry="2" />
<text  x="134.87" y="287.5" ></text>
</g>
<g >
<title>TransformDCUV_C (3,694,922 samples, 0.09%)</title><rect x="164.7" y="277" width="1.0" height="15.0" fill="rgb(214,44,10)" rx="2" ry="2" />
<text  x="167.69" y="287.5" ></text>
</g>
<g >
<title>n_tty_write (459,833 samples, 0.01%)</title><rect x="1189.2" y="181" width="0.1" height="15.0" fill="rgb(210,23,5)" rx="2" ry="2" />
<text  x="1192.22" y="191.5" ></text>
</g>
<g >
<title>__memmove_avx_unaligned_erms (924,160 samples, 0.02%)</title><rect x="1189.3" y="277" width="0.3" height="15.0" fill="rgb(205,0,0)" rx="2" ry="2" />
<text  x="1192.35" y="287.5" ></text>
</g>
<g >
<title>SimpleVFilter16_C (14,673,868 samples, 0.34%)</title><rect x="21.4" y="293" width="4.1" height="15.0" fill="rgb(237,149,35)" rx="2" ry="2" />
<text  x="24.44" y="303.5" ></text>
</g>
<g >
<title>path_openat (909,436 samples, 0.02%)</title><rect x="1188.7" y="181" width="0.3" height="15.0" fill="rgb(249,202,48)" rx="2" ry="2" />
<text  x="1191.72" y="191.5" ></text>
</g>
<g >
<title>VR4_C (2,772,197 samples, 0.07%)</title><rect x="140.5" y="293" width="0.7" height="15.0" fill="rgb(245,187,44)" rx="2" ry="2" />
<text  x="143.48" y="303.5" ></text>
</g>
<g >
<title>DC8uv_C (924,017 samples, 0.02%)</title><rect x="141.2" y="277" width="0.3" height="15.0" fill="rgb(215,46,11)" rx="2" ry="2" />
<text  x="144.25" y="287.5" ></text>
</g>
<g >
<title>task_work_run (911,638 samples, 0.02%)</title><rect x="1188.5" y="197" width="0.2" height="15.0" fill="rgb(209,22,5)" rx="2" ry="2" />
<text  x="1191.46" y="207.5" ></text>
</g>
</g>
</svg>
