<?xml version="1.0" standalone="no"?>
<!DOCTYPE svg PUBLIC "-//W3C//DTD SVG 1.1//EN" "http://www.w3.org/Graphics/SVG/1.1/DTD/svg11.dtd">
<svg version="1.1" width="1200" height="310" onload="init(evt)" viewBox="0 0 1200 310" xmlns="http://www.w3.org/2000/svg" xmlns:xlink="http://www.w3.org/1999/xlink">
<!-- Flame graph stack visualization. See https://github.com/brendangregg/FlameGraph for latest version, and http://www.brendangregg.com/flamegraphs.html for examples. -->
<!-- NOTES:  -->
<defs>
	<linearGradient id="background" y1="0" y2="1" x1="0" x2="0" >
		<stop stop-color="#eeeeee" offset="5%" />
		<stop stop-color="#eeeeb0" offset="95%" />
	</linearGradient>
</defs>
<style type="text/css">
	text { font-family:Verdana; font-size:12px; fill:rgb(0,0,0); }
	#search, #ignorecase { opacity:0.1; cursor:pointer; }
	#search:hover, #search.show, #ignorecase:hover, #ignorecase.show { opacity:1; }
	#subtitle { text-anchor:middle; font-color:rgb(160,160,160); }
	#title { text-anchor:middle; font-size:17px}
	#unzoom { cursor:pointer; }
	#frames > *:hover { stroke:black; stroke-width:0.5; cursor:pointer; }
	.hide { display:none; }
	.parent { opacity:0.5; }
</style>
<script type="text/ecmascript">
<![CDATA[
	"use strict";
	var details, searchbtn, unzoombtn, matchedtxt, svg, searching, currentSearchTerm, ignorecase, ignorecaseBtn;
	function init(evt) {
		details = document.getElementById("details").firstChild;
		searchbtn = document.getElementById("search");
		ignorecaseBtn = document.getElementById("ignorecase");
		unzoombtn = document.getElementById("unzoom");
		matchedtxt = document.getElementById("matched");
		svg = document.getElementsByTagName("svg")[0];
		searching = 0;
		currentSearchTerm = null;

		// use GET parameters to restore a flamegraphs state.
		var params = get_params();
		if (params.x && params.y)
			zoom(find_group(document.querySelector('[x="' + params.x + '"][y="' + params.y + '"]')));
                if (params.s) search(params.s);
	}

	// event listeners
	window.addEventListener("click", function(e) {
		var target = find_group(e.target);
		if (target) {
			if (target.nodeName == "a") {
				if (e.ctrlKey === false) return;
				e.preventDefault();
			}
			if (target.classList.contains("parent")) unzoom(true);
			zoom(target);
			if (!document.querySelector('.parent')) {
				// we have basically done a clearzoom so clear the url
				var params = get_params();
				if (params.x) delete params.x;
				if (params.y) delete params.y;
				history.replaceState(null, null, parse_params(params));
				unzoombtn.classList.add("hide");
				return;
			}

			// set parameters for zoom state
			var el = target.querySelector("rect");
			if (el && el.attributes && el.attributes.y && el.attributes._orig_x) {
				var params = get_params()
				params.x = el.attributes._orig_x.value;
				params.y = el.attributes.y.value;
				history.replaceState(null, null, parse_params(params));
			}
		}
		else if (e.target.id == "unzoom") clearzoom();
		else if (e.target.id == "search") search_prompt();
		else if (e.target.id == "ignorecase") toggle_ignorecase();
	}, false)

	// mouse-over for info
	// show
	window.addEventListener("mouseover", function(e) {
		var target = find_group(e.target);
		if (target) details.nodeValue = "Function: " + g_to_text(target);
	}, false)

	// clear
	window.addEventListener("mouseout", function(e) {
		var target = find_group(e.target);
		if (target) details.nodeValue = ' ';
	}, false)

	// ctrl-F for search
	// ctrl-I to toggle case-sensitive search
	window.addEventListener("keydown",function (e) {
		if (e.keyCode === 114 || (e.ctrlKey && e.keyCode === 70)) {
			e.preventDefault();
			search_prompt();
		}
		else if (e.ctrlKey && e.keyCode === 73) {
			e.preventDefault();
			toggle_ignorecase();
		}
	}, false)

	// functions
	function get_params() {
		var params = {};
		var paramsarr = window.location.search.substr(1).split('&');
		for (var i = 0; i < paramsarr.length; ++i) {
			var tmp = paramsarr[i].split("=");
			if (!tmp[0] || !tmp[1]) continue;
			params[tmp[0]]  = decodeURIComponent(tmp[1]);
		}
		return params;
	}
	function parse_params(params) {
		var uri = "?";
		for (var key in params) {
			uri += key + '=' + encodeURIComponent(params[key]) + '&';
		}
		if (uri.slice(-1) == "&")
			uri = uri.substring(0, uri.length - 1);
		if (uri == '?')
			uri = window.location.href.split('?')[0];
		return uri;
	}
	function find_child(node, selector) {
		var children = node.querySelectorAll(selector);
		if (children.length) return children[0];
	}
	function find_group(node) {
		var parent = node.parentElement;
		if (!parent) return;
		if (parent.id == "frames") return node;
		return find_group(parent);
	}
	function orig_save(e, attr, val) {
		if (e.attributes["_orig_" + attr] != undefined) return;
		if (e.attributes[attr] == undefined) return;
		if (val == undefined) val = e.attributes[attr].value;
		e.setAttribute("_orig_" + attr, val);
	}
	function orig_load(e, attr) {
		if (e.attributes["_orig_"+attr] == undefined) return;
		e.attributes[attr].value = e.attributes["_orig_" + attr].value;
		e.removeAttribute("_orig_"+attr);
	}
	function g_to_text(e) {
		var text = find_child(e, "title").firstChild.nodeValue;
		return (text)
	}
	function g_to_func(e) {
		var func = g_to_text(e);
		// if there's any manipulation we want to do to the function
		// name before it's searched, do it here before returning.
		return (func);
	}
	function update_text(e) {
		var r = find_child(e, "rect");
		var t = find_child(e, "text");
		var w = parseFloat(r.attributes.width.value) -3;
		var txt = find_child(e, "title").textContent.replace(/\([^(]*\)$/,"");
		t.attributes.x.value = parseFloat(r.attributes.x.value) + 3;

		// Smaller than this size won't fit anything
		if (w < 2 * 12 * 0.59) {
			t.textContent = "";
			return;
		}

		t.textContent = txt;
		var sl = t.getSubStringLength(0, txt.length);
		// check if only whitespace or if we can fit the entire string into width w
		if (/^ *$/.test(txt) || sl < w)
			return;

		// this isn't perfect, but gives a good starting point
		// and avoids calling getSubStringLength too often
		var start = Math.floor((w/sl) * txt.length);
		for (var x = start; x > 0; x = x-2) {
			if (t.getSubStringLength(0, x + 2) <= w) {
				t.textContent = txt.substring(0, x) + "..";
				return;
			}
		}
		t.textContent = "";
	}

	// zoom
	function zoom_reset(e) {
		if (e.attributes != undefined) {
			orig_load(e, "x");
			orig_load(e, "width");
		}
		if (e.childNodes == undefined) return;
		for (var i = 0, c = e.childNodes; i < c.length; i++) {
			zoom_reset(c[i]);
		}
	}
	function zoom_child(e, x, ratio) {
		if (e.attributes != undefined) {
			if (e.attributes.x != undefined) {
				orig_save(e, "x");
				e.attributes.x.value = (parseFloat(e.attributes.x.value) - x - 10) * ratio + 10;
				if (e.tagName == "text")
					e.attributes.x.value = find_child(e.parentNode, "rect[x]").attributes.x.value + 3;
			}
			if (e.attributes.width != undefined) {
				orig_save(e, "width");
				e.attributes.width.value = parseFloat(e.attributes.width.value) * ratio;
			}
		}

		if (e.childNodes == undefined) return;
		for (var i = 0, c = e.childNodes; i < c.length; i++) {
			zoom_child(c[i], x - 10, ratio);
		}
	}
	function zoom_parent(e) {
		if (e.attributes) {
			if (e.attributes.x != undefined) {
				orig_save(e, "x");
				e.attributes.x.value = 10;
			}
			if (e.attributes.width != undefined) {
				orig_save(e, "width");
				e.attributes.width.value = parseInt(svg.width.baseVal.value) - (10 * 2);
			}
		}
		if (e.childNodes == undefined) return;
		for (var i = 0, c = e.childNodes; i < c.length; i++) {
			zoom_parent(c[i]);
		}
	}
	function zoom(node) {
		var attr = find_child(node, "rect").attributes;
		var width = parseFloat(attr.width.value);
		var xmin = parseFloat(attr.x.value);
		var xmax = parseFloat(xmin + width);
		var ymin = parseFloat(attr.y.value);
		var ratio = (svg.width.baseVal.value - 2 * 10) / width;

		// XXX: Workaround for JavaScript float issues (fix me)
		var fudge = 0.0001;

		unzoombtn.classList.remove("hide");

		var el = document.getElementById("frames").children;
		for (var i = 0; i < el.length; i++) {
			var e = el[i];
			var a = find_child(e, "rect").attributes;
			var ex = parseFloat(a.x.value);
			var ew = parseFloat(a.width.value);
			var upstack;
			// Is it an ancestor
			if (0 == 0) {
				upstack = parseFloat(a.y.value) > ymin;
			} else {
				upstack = parseFloat(a.y.value) < ymin;
			}
			if (upstack) {
				// Direct ancestor
				if (ex <= xmin && (ex+ew+fudge) >= xmax) {
					e.classList.add("parent");
					zoom_parent(e);
					update_text(e);
				}
				// not in current path
				else
					e.classList.add("hide");
			}
			// Children maybe
			else {
				// no common path
				if (ex < xmin || ex + fudge >= xmax) {
					e.classList.add("hide");
				}
				else {
					zoom_child(e, xmin, ratio);
					update_text(e);
				}
			}
		}
		search();
	}
	function unzoom(dont_update_text) {
		unzoombtn.classList.add("hide");
		var el = document.getElementById("frames").children;
		for(var i = 0; i < el.length; i++) {
			el[i].classList.remove("parent");
			el[i].classList.remove("hide");
			zoom_reset(el[i]);
			if(!dont_update_text) update_text(el[i]);
		}
		search();
	}
	function clearzoom() {
		unzoom();

		// remove zoom state
		var params = get_params();
		if (params.x) delete params.x;
		if (params.y) delete params.y;
		history.replaceState(null, null, parse_params(params));
	}

	// search
	function toggle_ignorecase() {
		ignorecase = !ignorecase;
		if (ignorecase) {
			ignorecaseBtn.classList.add("show");
		} else {
			ignorecaseBtn.classList.remove("show");
		}
		reset_search();
		search();
	}
	function reset_search() {
		var el = document.querySelectorAll("#frames rect");
		for (var i = 0; i < el.length; i++) {
			orig_load(el[i], "fill")
		}
		var params = get_params();
		delete params.s;
		history.replaceState(null, null, parse_params(params));
	}
	function search_prompt() {
		if (!searching) {
			var term = prompt("Enter a search term (regexp " +
			    "allowed, eg: ^ext4_)"
			    + (ignorecase ? ", ignoring case" : "")
			    + "\nPress Ctrl-i to toggle case sensitivity", "");
			if (term != null) search(term);
		} else {
			reset_search();
			searching = 0;
			currentSearchTerm = null;
			searchbtn.classList.remove("show");
			searchbtn.firstChild.nodeValue = "Search"
			matchedtxt.classList.add("hide");
			matchedtxt.firstChild.nodeValue = ""
		}
	}
	function search(term) {
		if (term) currentSearchTerm = term;

		var re = new RegExp(currentSearchTerm, ignorecase ? 'i' : '');
		var el = document.getElementById("frames").children;
		var matches = new Object();
		var maxwidth = 0;
		for (var i = 0; i < el.length; i++) {
			var e = el[i];
			var func = g_to_func(e);
			var rect = find_child(e, "rect");
			if (func == null || rect == null)
				continue;

			// Save max width. Only works as we have a root frame
			var w = parseFloat(rect.attributes.width.value);
			if (w > maxwidth)
				maxwidth = w;

			if (func.match(re)) {
				// highlight
				var x = parseFloat(rect.attributes.x.value);
				orig_save(rect, "fill");
				rect.attributes.fill.value = "rgb(230,0,230)";

				// remember matches
				if (matches[x] == undefined) {
					matches[x] = w;
				} else {
					if (w > matches[x]) {
						// overwrite with parent
						matches[x] = w;
					}
				}
				searching = 1;
			}
		}
		if (!searching)
			return;
		var params = get_params();
		params.s = currentSearchTerm;
		history.replaceState(null, null, parse_params(params));

		searchbtn.classList.add("show");
		searchbtn.firstChild.nodeValue = "Reset Search";

		// calculate percent matched, excluding vertical overlap
		var count = 0;
		var lastx = -1;
		var lastw = 0;
		var keys = Array();
		for (k in matches) {
			if (matches.hasOwnProperty(k))
				keys.push(k);
		}
		// sort the matched frames by their x location
		// ascending, then width descending
		keys.sort(function(a, b){
			return a - b;
		});
		// Step through frames saving only the biggest bottom-up frames
		// thanks to the sort order. This relies on the tree property
		// where children are always smaller than their parents.
		var fudge = 0.0001;	// JavaScript floating point
		for (var k in keys) {
			var x = parseFloat(keys[k]);
			var w = matches[keys[k]];
			if (x >= lastx + lastw - fudge) {
				count += w;
				lastx = x;
				lastw = w;
			}
		}
		// display matched percent
		matchedtxt.classList.remove("hide");
		var pct = 100 * count / maxwidth;
		if (pct != 100) pct = pct.toFixed(1)
		matchedtxt.firstChild.nodeValue = "Matched: " + pct + "%";
	}
]]>
</script>
<rect x="0.0" y="0" width="1200.0" height="310.0" fill="url(#background)"  />
<text id="title" x="600.00" y="24" >Flame Graph</text>
<text id="details" x="10.00" y="293" > </text>
<text id="unzoom" x="10.00" y="24" class="hide">Reset Zoom</text>
<text id="search" x="1090.00" y="24" >Search</text>
<text id="ignorecase" x="1174.00" y="24" >ic</text>
<text id="matched" x="1090.00" y="293" > </text>
<g id="frames">
<g >
<title>map_vdso (362,542 samples, 0.03%)</title><rect x="1188.7" y="117" width="0.3" height="15.0" fill="rgb(227,103,24)" rx="2" ry="2" />
<text  x="1191.67" y="127.5" ></text>
</g>
<g >
<title>HU4_C (3,694,771 samples, 0.32%)</title><rect x="34.8" y="229" width="3.7" height="15.0" fill="rgb(216,54,13)" rx="2" ry="2" />
<text  x="37.80" y="239.5" ></text>
</g>
<g >
<title>ksys_write (2,308,482 samples, 0.20%)</title><rect x="1184.4" y="165" width="2.3" height="15.0" fill="rgb(205,4,1)" rx="2" ry="2" />
<text  x="1187.37" y="175.5" ></text>
</g>
<g >
<title>TransformAC3_C (5,480,641 samples, 0.47%)</title><rect x="57.0" y="229" width="5.6" height="15.0" fill="rgb(209,19,4)" rx="2" ry="2" />
<text  x="60.03" y="239.5" ></text>
</g>
<g >
<title>load_elf_binary (479,581 samples, 0.04%)</title><rect x="1188.6" y="133" width="0.4" height="15.0" fill="rgb(223,83,20)" rx="2" ry="2" />
<text  x="1191.56" y="143.5" ></text>
</g>
<g >
<title>get_page_from_freelist (672,326 samples, 0.06%)</title><rect x="168.1" y="85" width="0.7" height="15.0" fill="rgb(252,218,52)" rx="2" ry="2" />
<text  x="171.13" y="95.5" ></text>
</g>
<g >
<title>do_syscall_64 (923,475 samples, 0.08%)</title><rect x="1189.0" y="197" width="1.0" height="15.0" fill="rgb(209,20,4)" rx="2" ry="2" />
<text  x="1192.04" y="207.5" ></text>
</g>
<g >
<title>ext4_da_write_begin (923,559 samples, 0.08%)</title><rect x="1185.3" y="101" width="0.9" height="15.0" fill="rgb(211,32,7)" rx="2" ry="2" />
<text  x="1188.30" y="111.5" ></text>
</g>
<g >
<title>DC4_C (10,714,913 samples, 0.92%)</title><rect x="10.0" y="229" width="10.8" height="15.0" fill="rgb(209,18,4)" rx="2" ry="2" />
<text  x="13.00" y="239.5" ></text>
</g>
<g >
<title>perf_event_mmap (362,542 samples, 0.03%)</title><rect x="1188.7" y="85" width="0.3" height="15.0" fill="rgb(229,112,26)" rx="2" ry="2" />
<text  x="1191.67" y="95.5" ></text>
</g>
<g >
<title>HE4_C (1,847,654 samples, 0.16%)</title><rect x="32.9" y="229" width="1.9" height="15.0" fill="rgb(220,70,16)" rx="2" ry="2" />
<text  x="35.94" y="239.5" ></text>
</g>
<g >
<title>entry_SYSCALL_64_after_hwframe (2,308,482 samples, 0.20%)</title><rect x="1184.4" y="197" width="2.3" height="15.0" fill="rgb(218,63,15)" rx="2" ry="2" />
<text  x="1187.37" y="207.5" ></text>
</g>
<g >
<title>file_tty_write.constprop.0 (461,438 samples, 0.04%)</title><rect x="1186.2" y="133" width="0.5" height="15.0" fill="rgb(219,64,15)" rx="2" ry="2" />
<text  x="1189.23" y="143.5" ></text>
</g>
<g >
<title>copy_page_from_iter_atomic (923,485 samples, 0.08%)</title><rect x="1184.4" y="101" width="0.9" height="15.0" fill="rgb(231,120,28)" rx="2" ry="2" />
<text  x="1187.37" y="111.5" ></text>
</g>
<g >
<title>Transform_SSE2 (24,731,018 samples, 2.11%)</title><rect x="67.2" y="229" width="24.9" height="15.0" fill="rgb(233,129,30)" rx="2" ry="2" />
<text  x="70.21" y="239.5" >T..</text>
</g>
<g >
<title>flush_signal_handlers (117,039 samples, 0.01%)</title><rect x="1188.6" y="101" width="0.1" height="15.0" fill="rgb(253,221,53)" rx="2" ry="2" />
<text  x="1191.56" y="111.5" ></text>
</g>
<g >
<title>SimpleHFilter16_SSE2 (4,176,108 samples, 0.36%)</title><rect x="253.5" y="213" width="4.2" height="15.0" fill="rgb(219,67,16)" rx="2" ry="2" />
<text  x="256.52" y="223.5" ></text>
</g>
<g >
<title>handle_mm_fault (672,326 samples, 0.06%)</title><rect x="168.1" y="165" width="0.7" height="15.0" fill="rgb(234,135,32)" rx="2" ry="2" />
<text  x="171.13" y="175.5" ></text>
</g>
<g >
<title>__memmove_avx_unaligned_erms (1,846,891 samples, 0.16%)</title><rect x="1186.7" y="213" width="1.9" height="15.0" fill="rgb(205,0,0)" rx="2" ry="2" />
<text  x="1189.69" y="223.5" ></text>
</g>
<g >
<title>all (1,170,503,257 samples, 100%)</title><rect x="10.0" y="261" width="1180.0" height="15.0" fill="rgb(213,39,9)" rx="2" ry="2" />
<text  x="13.00" y="271.5" ></text>
</g>
<g >
<title>[unknown] (993,709,919 samples, 84.90%)</title><rect x="187.3" y="229" width="1001.7" height="15.0" fill="rgb(210,24,5)" rx="2" ry="2" />
<text  x="190.27" y="239.5" >[unknown]</text>
</g>
<g >
<title>VR4_SSE2 (924,254 samples, 0.08%)</title><rect x="168.8" y="229" width="0.9" height="15.0" fill="rgb(237,150,35)" rx="2" ry="2" />
<text  x="171.81" y="239.5" ></text>
</g>
<g >
<title>__libc_write (2,308,482 samples, 0.20%)</title><rect x="1184.4" y="213" width="2.3" height="15.0" fill="rgb(238,154,37)" rx="2" ry="2" />
<text  x="1187.37" y="223.5" ></text>
</g>
<g >
<title>ReconstructRow (12,010,396 samples, 1.03%)</title><rect x="241.4" y="213" width="12.1" height="15.0" fill="rgb(225,93,22)" rx="2" ry="2" />
<text  x="244.41" y="223.5" ></text>
</g>
<g >
<title>ReconstructRow (9,115,742 samples, 0.78%)</title><rect x="43.2" y="229" width="9.2" height="15.0" fill="rgb(225,93,22)" rx="2" ry="2" />
<text  x="46.18" y="239.5" ></text>
</g>
<g >
<title>HD4_C (2,416,309 samples, 0.21%)</title><rect x="30.5" y="229" width="2.4" height="15.0" fill="rgb(226,100,23)" rx="2" ry="2" />
<text  x="33.50" y="239.5" ></text>
</g>
<g >
<title>TM4_SSE2 (2,771,050 samples, 0.24%)</title><rect x="54.2" y="229" width="2.8" height="15.0" fill="rgb(232,128,30)" rx="2" ry="2" />
<text  x="57.23" y="239.5" ></text>
</g>
<g >
<title>__x64_sys_execve (479,581 samples, 0.04%)</title><rect x="1188.6" y="181" width="0.4" height="15.0" fill="rgb(247,193,46)" rx="2" ry="2" />
<text  x="1191.56" y="191.5" ></text>
</g>
<g >
<title>ext4_buffered_write_iter (1,847,044 samples, 0.16%)</title><rect x="1184.4" y="133" width="1.8" height="15.0" fill="rgb(213,40,9)" rx="2" ry="2" />
<text  x="1187.37" y="143.5" ></text>
</g>
<g >
<title>do_mas_align_munmap (923,475 samples, 0.08%)</title><rect x="1189.0" y="133" width="1.0" height="15.0" fill="rgb(232,126,30)" rx="2" ry="2" />
<text  x="1192.04" y="143.5" ></text>
</g>
<g >
<title>vma_alloc_folio (672,326 samples, 0.06%)</title><rect x="168.1" y="133" width="0.7" height="15.0" fill="rgb(245,187,44)" rx="2" ry="2" />
<text  x="171.13" y="143.5" ></text>
</g>
<g >
<title>begin_new_exec (117,039 samples, 0.01%)</title><rect x="1188.6" y="117" width="0.1" height="15.0" fill="rgb(245,184,44)" rx="2" ry="2" />
<text  x="1191.56" y="127.5" ></text>
</g>
<g >
<title>n_tty_write (461,438 samples, 0.04%)</title><rect x="1186.2" y="117" width="0.5" height="15.0" fill="rgb(210,23,5)" rx="2" ry="2" />
<text  x="1189.23" y="127.5" ></text>
</g>
<g >
<title>LD4_SSE2 (3,695,118 samples, 0.32%)</title><rect x="38.5" y="229" width="3.8" height="15.0" fill="rgb(242,173,41)" rx="2" ry="2" />
<text  x="41.53" y="239.5" ></text>
</g>
<g >
<title>GetLargeValue (47,236,619 samples, 4.04%)</title><rect x="191.9" y="213" width="47.6" height="15.0" fill="rgb(243,175,42)" rx="2" ry="2" />
<text  x="194.92" y="223.5" >GetL..</text>
</g>
<g >
<title>VP8PlanarTo24b_SSE2 (24,938,889 samples, 2.13%)</title><rect x="130.1" y="229" width="25.1" height="15.0" fill="rgb(208,15,3)" rx="2" ry="2" />
<text  x="133.09" y="239.5" >V..</text>
</g>
<g >
<title>TransformUV_C (2,771,829 samples, 0.24%)</title><rect x="276.6" y="213" width="2.8" height="15.0" fill="rgb(236,146,34)" rx="2" ry="2" />
<text  x="279.63" y="223.5" ></text>
</g>
<g >
<title>VP8ParseProba (1,848,072 samples, 0.16%)</title><rect x="128.2" y="229" width="1.9" height="15.0" fill="rgb(224,88,21)" rx="2" ry="2" />
<text  x="131.22" y="239.5" ></text>
</g>
<g >
<title>[unknown] (425,926,080 samples, 36.39%)</title><rect x="755.0" y="213" width="429.4" height="15.0" fill="rgb(210,24,5)" rx="2" ry="2" />
<text  x="757.98" y="223.5" >[unknown]</text>
</g>
<g >
<title>do_mas_munmap (923,475 samples, 0.08%)</title><rect x="1189.0" y="149" width="1.0" height="15.0" fill="rgb(224,90,21)" rx="2" ry="2" />
<text  x="1192.04" y="159.5" ></text>
</g>
<g >
<title>exc_page_fault (672,326 samples, 0.06%)</title><rect x="168.1" y="197" width="0.7" height="15.0" fill="rgb(212,35,8)" rx="2" ry="2" />
<text  x="171.13" y="207.5" ></text>
</g>
<g >
<title>generic_perform_write (1,847,044 samples, 0.16%)</title><rect x="1184.4" y="117" width="1.8" height="15.0" fill="rgb(236,146,35)" rx="2" ry="2" />
<text  x="1187.37" y="127.5" ></text>
</g>
<g >
<title>__perf_addr_filters_adjust (362,542 samples, 0.03%)</title><rect x="1188.7" y="53" width="0.3" height="15.0" fill="rgb(247,195,46)" rx="2" ry="2" />
<text  x="1191.67" y="63.5" ></text>
</g>
<g >
<title>__vm_munmap (923,475 samples, 0.08%)</title><rect x="1189.0" y="165" width="1.0" height="15.0" fill="rgb(231,121,28)" rx="2" ry="2" />
<text  x="1192.04" y="175.5" ></text>
</g>
<g >
<title>clear_page_rep (672,326 samples, 0.06%)</title><rect x="168.1" y="69" width="0.7" height="15.0" fill="rgb(253,221,52)" rx="2" ry="2" />
<text  x="171.13" y="79.5" ></text>
</g>
<g >
<title>ext4_block_write_begin (923,559 samples, 0.08%)</title><rect x="1185.3" y="85" width="0.9" height="15.0" fill="rgb(206,4,1)" rx="2" ry="2" />
<text  x="1188.30" y="95.5" ></text>
</g>
<g >
<title>bprm_execve (479,581 samples, 0.04%)</title><rect x="1188.6" y="149" width="0.4" height="15.0" fill="rgb(218,61,14)" rx="2" ry="2" />
<text  x="1191.56" y="159.5" ></text>
</g>
<g >
<title>mt_destroy_walk.isra.0 (923,475 samples, 0.08%)</title><rect x="1189.0" y="101" width="1.0" height="15.0" fill="rgb(234,133,32)" rx="2" ry="2" />
<text  x="1192.04" y="111.5" ></text>
</g>
<g >
<title>UpsampleRgbLinePair_SSE2 (924,042 samples, 0.08%)</title><rect x="635.4" y="213" width="0.9" height="15.0" fill="rgb(220,70,16)" rx="2" ry="2" />
<text  x="638.37" y="223.5" ></text>
</g>
<g >
<title>__folio_alloc (672,326 samples, 0.06%)</title><rect x="168.1" y="117" width="0.7" height="15.0" fill="rgb(224,91,21)" rx="2" ry="2" />
<text  x="171.13" y="127.5" ></text>
</g>
<g >
<title>YUV444ToRGB_SSE2 (17,383,766 samples, 1.49%)</title><rect x="169.7" y="229" width="17.6" height="15.0" fill="rgb(247,193,46)" rx="2" ry="2" />
<text  x="172.74" y="239.5" ></text>
</g>
<g >
<title>copy_user_generic_string (923,485 samples, 0.08%)</title><rect x="1184.4" y="85" width="0.9" height="15.0" fill="rgb(205,0,0)" rx="2" ry="2" />
<text  x="1187.37" y="95.5" ></text>
</g>
<g >
<title>UpsampleRgbLinePair_SSE2 (8,216,427 samples, 0.70%)</title><rect x="94.0" y="229" width="8.3" height="15.0" fill="rgb(220,70,16)" rx="2" ry="2" />
<text  x="97.00" y="239.5" ></text>
</g>
<g >
<title>VP8DecodeMB (12,007,713 samples, 1.03%)</title><rect x="102.3" y="229" width="12.1" height="15.0" fill="rgb(208,18,4)" rx="2" ry="2" />
<text  x="105.29" y="239.5" ></text>
</g>
<g >
<title>vfs_write (2,308,482 samples, 0.20%)</title><rect x="1184.4" y="149" width="2.3" height="15.0" fill="rgb(250,209,50)" rx="2" ry="2" />
<text  x="1187.37" y="159.5" ></text>
</g>
<g >
<title>GetCoeffsFast (423,153,814 samples, 36.15%)</title><rect x="755.0" y="197" width="426.6" height="15.0" fill="rgb(219,64,15)" rx="2" ry="2" />
<text  x="757.98" y="207.5" >GetCoeffsFast</text>
</g>
<g >
<title>Upsample32Pixels_SSE2 (1,847,467 samples, 0.16%)</title><rect x="92.1" y="229" width="1.9" height="15.0" fill="rgb(223,83,20)" rx="2" ry="2" />
<text  x="95.14" y="239.5" ></text>
</g>
<g >
<title>do_syscall_64 (2,308,482 samples, 0.20%)</title><rect x="1184.4" y="181" width="2.3" height="15.0" fill="rgb(209,20,4)" rx="2" ry="2" />
<text  x="1187.37" y="191.5" ></text>
</g>
<g >
<title>do_syscall_64 (479,581 samples, 0.04%)</title><rect x="1188.6" y="197" width="0.4" height="15.0" fill="rgb(209,20,4)" rx="2" ry="2" />
<text  x="1191.56" y="207.5" ></text>
</g>
<g >
<title>VP8ParseIntraModeRow (93,960,273 samples, 8.03%)</title><rect x="655.7" y="213" width="94.7" height="15.0" fill="rgb(231,121,29)" rx="2" ry="2" />
<text  x="658.73" y="223.5" >VP8ParseInt..</text>
</g>
<g >
<title>decode_webp_nat (1,170,473,467 samples, 100.00%)</title><rect x="10.0" y="245" width="1180.0" height="15.0" fill="rgb(218,61,14)" rx="2" ry="2" />
<text  x="13.00" y="255.5" >decode_webp_nat</text>
</g>
<g >
<title>TransformDCUV_C (3,664,744 samples, 0.31%)</title><rect x="259.6" y="213" width="3.7" height="15.0" fill="rgb(214,44,10)" rx="2" ry="2" />
<text  x="262.59" y="223.5" ></text>
</g>
<g >
<title>GetCoeffsFast (1,846,755 samples, 0.16%)</title><rect x="190.1" y="213" width="1.8" height="15.0" fill="rgb(219,64,15)" rx="2" ry="2" />
<text  x="193.06" y="223.5" ></text>
</g>
<g >
<title>DC8uv_SSE2 (1,848,488 samples, 0.16%)</title><rect x="188.2" y="213" width="1.9" height="15.0" fill="rgb(206,8,2)" rx="2" ry="2" />
<text  x="191.20" y="223.5" ></text>
</g>
<g >
<title>SimpleHFilter16_SSE2 (1,846,515 samples, 0.16%)</title><rect x="52.4" y="229" width="1.8" height="15.0" fill="rgb(219,67,16)" rx="2" ry="2" />
<text  x="55.37" y="239.5" ></text>
</g>
<g >
<title>VP8PlanarTo24b_SSE2 (1,367,835 samples, 0.12%)</title><rect x="750.4" y="213" width="1.4" height="15.0" fill="rgb(208,15,3)" rx="2" ry="2" />
<text  x="753.45" y="223.5" ></text>
</g>
<g >
<title>__mt_destroy (923,475 samples, 0.08%)</title><rect x="1189.0" y="117" width="1.0" height="15.0" fill="rgb(243,175,42)" rx="2" ry="2" />
<text  x="1192.04" y="127.5" ></text>
</g>
<g >
<title>__install_special_mapping (362,542 samples, 0.03%)</title><rect x="1188.7" y="101" width="0.3" height="15.0" fill="rgb(212,35,8)" rx="2" ry="2" />
<text  x="1191.67" y="111.5" ></text>
</g>
<g >
<title>YUV444ToRGB_SSE2 (2,207,695 samples, 0.19%)</title><rect x="752.8" y="213" width="2.2" height="15.0" fill="rgb(247,193,46)" rx="2" ry="2" />
<text  x="755.76" y="223.5" ></text>
</g>
<g >
<title>do_user_addr_fault (672,326 samples, 0.06%)</title><rect x="168.1" y="181" width="0.7" height="15.0" fill="rgb(228,108,25)" rx="2" ry="2" />
<text  x="171.13" y="191.5" ></text>
</g>
<g >
<title>__x64_sys_munmap (923,475 samples, 0.08%)</title><rect x="1189.0" y="181" width="1.0" height="15.0" fill="rgb(206,7,1)" rx="2" ry="2" />
<text  x="1192.04" y="191.5" ></text>
</g>
<g >
<title>GetCoeffsFast (9,624,487 samples, 0.82%)</title><rect x="20.8" y="229" width="9.7" height="15.0" fill="rgb(219,64,15)" rx="2" ry="2" />
<text  x="23.80" y="239.5" ></text>
</g>
<g >
<title>ext4_da_reserve_space (923,559 samples, 0.08%)</title><rect x="1185.3" y="53" width="0.9" height="15.0" fill="rgb(216,53,12)" rx="2" ry="2" />
<text  x="1188.30" y="63.5" ></text>
</g>
<g >
<title>VP8YuvToRgb32_SSE2 (923,861 samples, 0.08%)</title><rect x="751.8" y="213" width="1.0" height="15.0" fill="rgb(241,167,40)" rx="2" ry="2" />
<text  x="754.83" y="223.5" ></text>
</g>
<g >
<title>VP8GetValue (3,628,330 samples, 0.31%)</title><rect x="114.4" y="229" width="3.6" height="15.0" fill="rgb(230,119,28)" rx="2" ry="2" />
<text  x="117.39" y="239.5" ></text>
</g>
<g >
<title>GetLargeValue (2,772,266 samples, 0.24%)</title><rect x="1181.6" y="197" width="2.8" height="15.0" fill="rgb(243,175,42)" rx="2" ry="2" />
<text  x="1184.57" y="207.5" ></text>
</g>
<g >
<title>asm_exc_page_fault (672,326 samples, 0.06%)</title><rect x="168.1" y="213" width="0.7" height="15.0" fill="rgb(225,93,22)" rx="2" ry="2" />
<text  x="171.13" y="223.5" ></text>
</g>
<g >
<title>TransformDC_C (13,239,742 samples, 1.13%)</title><rect x="263.3" y="213" width="13.3" height="15.0" fill="rgb(219,65,15)" rx="2" ry="2" />
<text  x="266.28" y="223.5" ></text>
</g>
<g >
<title>RD4_SSE2 (923,188 samples, 0.08%)</title><rect x="42.3" y="229" width="0.9" height="15.0" fill="rgb(253,224,53)" rx="2" ry="2" />
<text  x="45.25" y="239.5" ></text>
</g>
<g >
<title>entry_SYSCALL_64_after_hwframe (479,581 samples, 0.04%)</title><rect x="1188.6" y="213" width="0.4" height="15.0" fill="rgb(218,63,15)" rx="2" ry="2" />
<text  x="1191.56" y="223.5" ></text>
</g>
<g >
<title>VP8YuvToRgb32_SSE2 (13,473,981 samples, 1.15%)</title><rect x="155.2" y="229" width="13.6" height="15.0" fill="rgb(241,167,40)" rx="2" ry="2" />
<text  x="158.23" y="239.5" ></text>
</g>
<g >
<title>VP8DecodeMB (18,339,936 samples, 1.57%)</title><rect x="637.2" y="213" width="18.5" height="15.0" fill="rgb(208,18,4)" rx="2" ry="2" />
<text  x="640.24" y="223.5" ></text>
</g>
<g >
<title>VE8uv_SSE2 (923,551 samples, 0.08%)</title><rect x="636.3" y="213" width="0.9" height="15.0" fill="rgb(227,104,24)" rx="2" ry="2" />
<text  x="639.31" y="223.5" ></text>
</g>
<g >
<title>__alloc_pages (672,326 samples, 0.06%)</title><rect x="168.1" y="101" width="0.7" height="15.0" fill="rgb(233,129,30)" rx="2" ry="2" />
<text  x="171.13" y="111.5" ></text>
</g>
<g >
<title>DC16_SSE2 (924,097 samples, 0.08%)</title><rect x="187.3" y="213" width="0.9" height="15.0" fill="rgb(221,75,17)" rx="2" ry="2" />
<text  x="190.27" y="223.5" ></text>
</g>
<g >
<title>TransformDC_C (4,617,699 samples, 0.39%)</title><rect x="62.6" y="229" width="4.6" height="15.0" fill="rgb(219,65,15)" rx="2" ry="2" />
<text  x="65.55" y="239.5" ></text>
</g>
<g >
<title>VP8ParseIntraModeRow (10,092,069 samples, 0.86%)</title><rect x="118.0" y="229" width="10.2" height="15.0" fill="rgb(231,121,29)" rx="2" ry="2" />
<text  x="121.05" y="239.5" ></text>
</g>
<g >
<title>HE8uv_C (925,969 samples, 0.08%)</title><rect x="239.5" y="213" width="1.0" height="15.0" fill="rgb(226,98,23)" rx="2" ry="2" />
<text  x="242.54" y="223.5" ></text>
</g>
<g >
<title>IDecode (923,644 samples, 0.08%)</title><rect x="240.5" y="213" width="0.9" height="15.0" fill="rgb(245,185,44)" rx="2" ry="2" />
<text  x="243.48" y="223.5" ></text>
</g>
<g >
<title>perf_iterate_ctx (362,542 samples, 0.03%)</title><rect x="1188.7" y="69" width="0.3" height="15.0" fill="rgb(205,4,0)" rx="2" ry="2" />
<text  x="1191.67" y="79.5" ></text>
</g>
<g >
<title>do_execveat_common.isra.0 (479,581 samples, 0.04%)</title><rect x="1188.6" y="165" width="0.4" height="15.0" fill="rgb(231,123,29)" rx="2" ry="2" />
<text  x="1191.56" y="175.5" ></text>
</g>
<g >
<title>__handle_mm_fault (672,326 samples, 0.06%)</title><rect x="168.1" y="149" width="0.7" height="15.0" fill="rgb(207,9,2)" rx="2" ry="2" />
<text  x="171.13" y="159.5" ></text>
</g>
<g >
<title>__munmap (923,475 samples, 0.08%)</title><rect x="1189.0" y="229" width="1.0" height="15.0" fill="rgb(211,29,7)" rx="2" ry="2" />
<text  x="1192.04" y="239.5" ></text>
</g>
<g >
<title>ext4_da_get_block_prep (923,559 samples, 0.08%)</title><rect x="1185.3" y="69" width="0.9" height="15.0" fill="rgb(241,168,40)" rx="2" ry="2" />
<text  x="1188.30" y="79.5" ></text>
</g>
<g >
<title>_raw_spin_lock (923,559 samples, 0.08%)</title><rect x="1185.3" y="37" width="0.9" height="15.0" fill="rgb(239,160,38)" rx="2" ry="2" />
<text  x="1188.30" y="47.5" ></text>
</g>
<g >
<title>process_echoes (461,438 samples, 0.04%)</title><rect x="1186.2" y="101" width="0.5" height="15.0" fill="rgb(218,64,15)" rx="2" ry="2" />
<text  x="1189.23" y="111.5" ></text>
</g>
<g >
<title>Transform_SSE2 (353,086,338 samples, 30.17%)</title><rect x="279.4" y="213" width="356.0" height="15.0" fill="rgb(233,129,30)" rx="2" ry="2" />
<text  x="282.42" y="223.5" >Transform_SSE2</text>
</g>
<g >
<title>entry_SYSCALL_64_after_hwframe (923,475 samples, 0.08%)</title><rect x="1189.0" y="213" width="1.0" height="15.0" fill="rgb(218,63,15)" rx="2" ry="2" />
<text  x="1192.04" y="223.5" ></text>
</g>
<g >
<title>TransformAC3_C (1,846,963 samples, 0.16%)</title><rect x="257.7" y="213" width="1.9" height="15.0" fill="rgb(209,19,4)" rx="2" ry="2" />
<text  x="260.73" y="223.5" ></text>
</g>
</g>
</svg>
