<?xml version="1.0" standalone="no"?>
<!DOCTYPE svg PUBLIC "-//W3C//DTD SVG 1.1//EN" "http://www.w3.org/Graphics/SVG/1.1/DTD/svg11.dtd">
<svg version="1.1" width="1200" height="358" onload="init(evt)" viewBox="0 0 1200 358" xmlns="http://www.w3.org/2000/svg" xmlns:xlink="http://www.w3.org/1999/xlink">
<!-- Flame graph stack visualization. See https://github.com/brendangregg/FlameGraph for latest version, and http://www.brendangregg.com/flamegraphs.html for examples. -->
<!-- NOTES:  -->
<defs>
	<linearGradient id="background" y1="0" y2="1" x1="0" x2="0" >
		<stop stop-color="#eeeeee" offset="5%" />
		<stop stop-color="#eeeeb0" offset="95%" />
	</linearGradient>
</defs>
<style type="text/css">
	text { font-family:Verdana; font-size:12px; fill:rgb(0,0,0); }
	#search, #ignorecase { opacity:0.1; cursor:pointer; }
	#search:hover, #search.show, #ignorecase:hover, #ignorecase.show { opacity:1; }
	#subtitle { text-anchor:middle; font-color:rgb(160,160,160); }
	#title { text-anchor:middle; font-size:17px}
	#unzoom { cursor:pointer; }
	#frames > *:hover { stroke:black; stroke-width:0.5; cursor:pointer; }
	.hide { display:none; }
	.parent { opacity:0.5; }
</style>
<script type="text/ecmascript">
<![CDATA[
	"use strict";
	var details, searchbtn, unzoombtn, matchedtxt, svg, searching, currentSearchTerm, ignorecase, ignorecaseBtn;
	function init(evt) {
		details = document.getElementById("details").firstChild;
		searchbtn = document.getElementById("search");
		ignorecaseBtn = document.getElementById("ignorecase");
		unzoombtn = document.getElementById("unzoom");
		matchedtxt = document.getElementById("matched");
		svg = document.getElementsByTagName("svg")[0];
		searching = 0;
		currentSearchTerm = null;

		// use GET parameters to restore a flamegraphs state.
		var params = get_params();
		if (params.x && params.y)
			zoom(find_group(document.querySelector('[x="' + params.x + '"][y="' + params.y + '"]')));
                if (params.s) search(params.s);
	}

	// event listeners
	window.addEventListener("click", function(e) {
		var target = find_group(e.target);
		if (target) {
			if (target.nodeName == "a") {
				if (e.ctrlKey === false) return;
				e.preventDefault();
			}
			if (target.classList.contains("parent")) unzoom(true);
			zoom(target);
			if (!document.querySelector('.parent')) {
				// we have basically done a clearzoom so clear the url
				var params = get_params();
				if (params.x) delete params.x;
				if (params.y) delete params.y;
				history.replaceState(null, null, parse_params(params));
				unzoombtn.classList.add("hide");
				return;
			}

			// set parameters for zoom state
			var el = target.querySelector("rect");
			if (el && el.attributes && el.attributes.y && el.attributes._orig_x) {
				var params = get_params()
				params.x = el.attributes._orig_x.value;
				params.y = el.attributes.y.value;
				history.replaceState(null, null, parse_params(params));
			}
		}
		else if (e.target.id == "unzoom") clearzoom();
		else if (e.target.id == "search") search_prompt();
		else if (e.target.id == "ignorecase") toggle_ignorecase();
	}, false)

	// mouse-over for info
	// show
	window.addEventListener("mouseover", function(e) {
		var target = find_group(e.target);
		if (target) details.nodeValue = "Function: " + g_to_text(target);
	}, false)

	// clear
	window.addEventListener("mouseout", function(e) {
		var target = find_group(e.target);
		if (target) details.nodeValue = ' ';
	}, false)

	// ctrl-F for search
	// ctrl-I to toggle case-sensitive search
	window.addEventListener("keydown",function (e) {
		if (e.keyCode === 114 || (e.ctrlKey && e.keyCode === 70)) {
			e.preventDefault();
			search_prompt();
		}
		else if (e.ctrlKey && e.keyCode === 73) {
			e.preventDefault();
			toggle_ignorecase();
		}
	}, false)

	// functions
	function get_params() {
		var params = {};
		var paramsarr = window.location.search.substr(1).split('&');
		for (var i = 0; i < paramsarr.length; ++i) {
			var tmp = paramsarr[i].split("=");
			if (!tmp[0] || !tmp[1]) continue;
			params[tmp[0]]  = decodeURIComponent(tmp[1]);
		}
		return params;
	}
	function parse_params(params) {
		var uri = "?";
		for (var key in params) {
			uri += key + '=' + encodeURIComponent(params[key]) + '&';
		}
		if (uri.slice(-1) == "&")
			uri = uri.substring(0, uri.length - 1);
		if (uri == '?')
			uri = window.location.href.split('?')[0];
		return uri;
	}
	function find_child(node, selector) {
		var children = node.querySelectorAll(selector);
		if (children.length) return children[0];
	}
	function find_group(node) {
		var parent = node.parentElement;
		if (!parent) return;
		if (parent.id == "frames") return node;
		return find_group(parent);
	}
	function orig_save(e, attr, val) {
		if (e.attributes["_orig_" + attr] != undefined) return;
		if (e.attributes[attr] == undefined) return;
		if (val == undefined) val = e.attributes[attr].value;
		e.setAttribute("_orig_" + attr, val);
	}
	function orig_load(e, attr) {
		if (e.attributes["_orig_"+attr] == undefined) return;
		e.attributes[attr].value = e.attributes["_orig_" + attr].value;
		e.removeAttribute("_orig_"+attr);
	}
	function g_to_text(e) {
		var text = find_child(e, "title").firstChild.nodeValue;
		return (text)
	}
	function g_to_func(e) {
		var func = g_to_text(e);
		// if there's any manipulation we want to do to the function
		// name before it's searched, do it here before returning.
		return (func);
	}
	function update_text(e) {
		var r = find_child(e, "rect");
		var t = find_child(e, "text");
		var w = parseFloat(r.attributes.width.value) -3;
		var txt = find_child(e, "title").textContent.replace(/\([^(]*\)$/,"");
		t.attributes.x.value = parseFloat(r.attributes.x.value) + 3;

		// Smaller than this size won't fit anything
		if (w < 2 * 12 * 0.59) {
			t.textContent = "";
			return;
		}

		t.textContent = txt;
		var sl = t.getSubStringLength(0, txt.length);
		// check if only whitespace or if we can fit the entire string into width w
		if (/^ *$/.test(txt) || sl < w)
			return;

		// this isn't perfect, but gives a good starting point
		// and avoids calling getSubStringLength too often
		var start = Math.floor((w/sl) * txt.length);
		for (var x = start; x > 0; x = x-2) {
			if (t.getSubStringLength(0, x + 2) <= w) {
				t.textContent = txt.substring(0, x) + "..";
				return;
			}
		}
		t.textContent = "";
	}

	// zoom
	function zoom_reset(e) {
		if (e.attributes != undefined) {
			orig_load(e, "x");
			orig_load(e, "width");
		}
		if (e.childNodes == undefined) return;
		for (var i = 0, c = e.childNodes; i < c.length; i++) {
			zoom_reset(c[i]);
		}
	}
	function zoom_child(e, x, ratio) {
		if (e.attributes != undefined) {
			if (e.attributes.x != undefined) {
				orig_save(e, "x");
				e.attributes.x.value = (parseFloat(e.attributes.x.value) - x - 10) * ratio + 10;
				if (e.tagName == "text")
					e.attributes.x.value = find_child(e.parentNode, "rect[x]").attributes.x.value + 3;
			}
			if (e.attributes.width != undefined) {
				orig_save(e, "width");
				e.attributes.width.value = parseFloat(e.attributes.width.value) * ratio;
			}
		}

		if (e.childNodes == undefined) return;
		for (var i = 0, c = e.childNodes; i < c.length; i++) {
			zoom_child(c[i], x - 10, ratio);
		}
	}
	function zoom_parent(e) {
		if (e.attributes) {
			if (e.attributes.x != undefined) {
				orig_save(e, "x");
				e.attributes.x.value = 10;
			}
			if (e.attributes.width != undefined) {
				orig_save(e, "width");
				e.attributes.width.value = parseInt(svg.width.baseVal.value) - (10 * 2);
			}
		}
		if (e.childNodes == undefined) return;
		for (var i = 0, c = e.childNodes; i < c.length; i++) {
			zoom_parent(c[i]);
		}
	}
	function zoom(node) {
		var attr = find_child(node, "rect").attributes;
		var width = parseFloat(attr.width.value);
		var xmin = parseFloat(attr.x.value);
		var xmax = parseFloat(xmin + width);
		var ymin = parseFloat(attr.y.value);
		var ratio = (svg.width.baseVal.value - 2 * 10) / width;

		// XXX: Workaround for JavaScript float issues (fix me)
		var fudge = 0.0001;

		unzoombtn.classList.remove("hide");

		var el = document.getElementById("frames").children;
		for (var i = 0; i < el.length; i++) {
			var e = el[i];
			var a = find_child(e, "rect").attributes;
			var ex = parseFloat(a.x.value);
			var ew = parseFloat(a.width.value);
			var upstack;
			// Is it an ancestor
			if (0 == 0) {
				upstack = parseFloat(a.y.value) > ymin;
			} else {
				upstack = parseFloat(a.y.value) < ymin;
			}
			if (upstack) {
				// Direct ancestor
				if (ex <= xmin && (ex+ew+fudge) >= xmax) {
					e.classList.add("parent");
					zoom_parent(e);
					update_text(e);
				}
				// not in current path
				else
					e.classList.add("hide");
			}
			// Children maybe
			else {
				// no common path
				if (ex < xmin || ex + fudge >= xmax) {
					e.classList.add("hide");
				}
				else {
					zoom_child(e, xmin, ratio);
					update_text(e);
				}
			}
		}
		search();
	}
	function unzoom(dont_update_text) {
		unzoombtn.classList.add("hide");
		var el = document.getElementById("frames").children;
		for(var i = 0; i < el.length; i++) {
			el[i].classList.remove("parent");
			el[i].classList.remove("hide");
			zoom_reset(el[i]);
			if(!dont_update_text) update_text(el[i]);
		}
		search();
	}
	function clearzoom() {
		unzoom();

		// remove zoom state
		var params = get_params();
		if (params.x) delete params.x;
		if (params.y) delete params.y;
		history.replaceState(null, null, parse_params(params));
	}

	// search
	function toggle_ignorecase() {
		ignorecase = !ignorecase;
		if (ignorecase) {
			ignorecaseBtn.classList.add("show");
		} else {
			ignorecaseBtn.classList.remove("show");
		}
		reset_search();
		search();
	}
	function reset_search() {
		var el = document.querySelectorAll("#frames rect");
		for (var i = 0; i < el.length; i++) {
			orig_load(el[i], "fill")
		}
		var params = get_params();
		delete params.s;
		history.replaceState(null, null, parse_params(params));
	}
	function search_prompt() {
		if (!searching) {
			var term = prompt("Enter a search term (regexp " +
			    "allowed, eg: ^ext4_)"
			    + (ignorecase ? ", ignoring case" : "")
			    + "\nPress Ctrl-i to toggle case sensitivity", "");
			if (term != null) search(term);
		} else {
			reset_search();
			searching = 0;
			currentSearchTerm = null;
			searchbtn.classList.remove("show");
			searchbtn.firstChild.nodeValue = "Search"
			matchedtxt.classList.add("hide");
			matchedtxt.firstChild.nodeValue = ""
		}
	}
	function search(term) {
		if (term) currentSearchTerm = term;

		var re = new RegExp(currentSearchTerm, ignorecase ? 'i' : '');
		var el = document.getElementById("frames").children;
		var matches = new Object();
		var maxwidth = 0;
		for (var i = 0; i < el.length; i++) {
			var e = el[i];
			var func = g_to_func(e);
			var rect = find_child(e, "rect");
			if (func == null || rect == null)
				continue;

			// Save max width. Only works as we have a root frame
			var w = parseFloat(rect.attributes.width.value);
			if (w > maxwidth)
				maxwidth = w;

			if (func.match(re)) {
				// highlight
				var x = parseFloat(rect.attributes.x.value);
				orig_save(rect, "fill");
				rect.attributes.fill.value = "rgb(230,0,230)";

				// remember matches
				if (matches[x] == undefined) {
					matches[x] = w;
				} else {
					if (w > matches[x]) {
						// overwrite with parent
						matches[x] = w;
					}
				}
				searching = 1;
			}
		}
		if (!searching)
			return;
		var params = get_params();
		params.s = currentSearchTerm;
		history.replaceState(null, null, parse_params(params));

		searchbtn.classList.add("show");
		searchbtn.firstChild.nodeValue = "Reset Search";

		// calculate percent matched, excluding vertical overlap
		var count = 0;
		var lastx = -1;
		var lastw = 0;
		var keys = Array();
		for (k in matches) {
			if (matches.hasOwnProperty(k))
				keys.push(k);
		}
		// sort the matched frames by their x location
		// ascending, then width descending
		keys.sort(function(a, b){
			return a - b;
		});
		// Step through frames saving only the biggest bottom-up frames
		// thanks to the sort order. This relies on the tree property
		// where children are always smaller than their parents.
		var fudge = 0.0001;	// JavaScript floating point
		for (var k in keys) {
			var x = parseFloat(keys[k]);
			var w = matches[keys[k]];
			if (x >= lastx + lastw - fudge) {
				count += w;
				lastx = x;
				lastw = w;
			}
		}
		// display matched percent
		matchedtxt.classList.remove("hide");
		var pct = 100 * count / maxwidth;
		if (pct != 100) pct = pct.toFixed(1)
		matchedtxt.firstChild.nodeValue = "Matched: " + pct + "%";
	}
]]>
</script>
<rect x="0.0" y="0" width="1200.0" height="358.0" fill="url(#background)"  />
<text id="title" x="600.00" y="24" >Flame Graph</text>
<text id="details" x="10.00" y="341" > </text>
<text id="unzoom" x="10.00" y="24" class="hide">Reset Zoom</text>
<text id="search" x="1090.00" y="24" >Search</text>
<text id="ignorecase" x="1174.00" y="24" >ic</text>
<text id="matched" x="1090.00" y="341" > </text>
<g id="frames">
<g >
<title>exc_page_fault (687,024 samples, 0.02%)</title><rect x="42.3" y="213" width="0.2" height="15.0" fill="rgb(212,35,8)" rx="2" ry="2" />
<text  x="45.28" y="223.5" ></text>
</g>
<g >
<title>tlb_finish_mmu (924,139 samples, 0.02%)</title><rect x="42.0" y="101" width="0.3" height="15.0" fill="rgb(251,212,50)" rx="2" ry="2" />
<text  x="45.03" y="111.5" ></text>
</g>
<g >
<title>__x64_sys_munmap (924,139 samples, 0.02%)</title><rect x="42.0" y="181" width="0.3" height="15.0" fill="rgb(206,7,1)" rx="2" ry="2" />
<text  x="45.03" y="191.5" ></text>
</g>
<g >
<title>[unknown] (119,758,824 samples, 2.71%)</title><rect x="10.0" y="261" width="32.0" height="15.0" fill="rgb(210,24,5)" rx="2" ry="2" />
<text  x="13.00" y="271.5" >[u..</text>
</g>
<g >
<title>w2c_decode__webp__wasmsimd_TransformAC3_C (3,696,469 samples, 0.08%)</title><rect x="302.1" y="277" width="1.0" height="15.0" fill="rgb(251,211,50)" rx="2" ry="2" />
<text  x="305.08" y="287.5" ></text>
</g>
<g >
<title>w2c_decode__webp__wasmsimd_EmitFancyRGB (924,287 samples, 0.02%)</title><rect x="82.9" y="277" width="0.2" height="15.0" fill="rgb(252,218,52)" rx="2" ry="2" />
<text  x="85.87" y="287.5" ></text>
</g>
<g >
<title>lookup_memtype (687,024 samples, 0.02%)</title><rect x="42.3" y="85" width="0.2" height="15.0" fill="rgb(229,114,27)" rx="2" ry="2" />
<text  x="45.28" y="95.5" ></text>
</g>
<g >
<title>asm_exc_page_fault (924,132 samples, 0.02%)</title><rect x="43.0" y="245" width="0.2" height="15.0" fill="rgb(225,93,22)" rx="2" ry="2" />
<text  x="45.96" y="255.5" ></text>
</g>
<g >
<title>all (4,411,640,044 samples, 100%)</title><rect x="10.0" y="309" width="1180.0" height="15.0" fill="rgb(213,39,9)" rx="2" ry="2" />
<text  x="13.00" y="319.5" ></text>
</g>
<g >
<title>w2c_decode__webp__wasmsimd_ReconstructRow (15,605,355 samples, 0.35%)</title><rect x="290.5" y="277" width="4.2" height="15.0" fill="rgb(217,55,13)" rx="2" ry="2" />
<text  x="293.50" y="287.5" ></text>
</g>
<g >
<title>do_mas_munmap (924,139 samples, 0.02%)</title><rect x="42.0" y="149" width="0.3" height="15.0" fill="rgb(224,90,21)" rx="2" ry="2" />
<text  x="45.03" y="159.5" ></text>
</g>
<g >
<title>w2c_decode__webp__wasmsimd_ReconstructRow (5,544,389 samples, 0.13%)</title><rect x="47.5" y="261" width="1.5" height="15.0" fill="rgb(217,55,13)" rx="2" ry="2" />
<text  x="50.49" y="271.5" ></text>
</g>
<g >
<title>w2c_decode__webp__wasmsimd_SimpleVFilter16i_C (7,382,155 samples, 0.17%)</title><rect x="298.9" y="277" width="1.9" height="15.0" fill="rgb(251,211,50)" rx="2" ry="2" />
<text  x="301.87" y="287.5" ></text>
</g>
<g >
<title>__vm_munmap (924,139 samples, 0.02%)</title><rect x="42.0" y="165" width="0.3" height="15.0" fill="rgb(231,121,28)" rx="2" ry="2" />
<text  x="45.03" y="175.5" ></text>
</g>
<g >
<title>__vdso_gettimeofday (687,024 samples, 0.02%)</title><rect x="42.3" y="245" width="0.2" height="15.0" fill="rgb(222,81,19)" rx="2" ry="2" />
<text  x="45.28" y="255.5" ></text>
</g>
<g >
<title>__memmove_avx_unaligned_erms (924,132 samples, 0.02%)</title><rect x="43.0" y="261" width="0.2" height="15.0" fill="rgb(205,0,0)" rx="2" ry="2" />
<text  x="45.96" y="271.5" ></text>
</g>
<g >
<title>w2c_decode__webp__wasmsimd_DC4_C (11,017,732 samples, 0.25%)</title><rect x="10.2" y="181" width="3.0" height="15.0" fill="rgb(250,210,50)" rx="2" ry="2" />
<text  x="13.25" y="191.5" ></text>
</g>
<g >
<title>entry_SYSCALL_64_after_hwframe (1,848,175 samples, 0.04%)</title><rect x="42.5" y="245" width="0.5" height="15.0" fill="rgb(218,63,15)" rx="2" ry="2" />
<text  x="45.46" y="255.5" ></text>
</g>
<g >
<title>[unknown] (264,485,818 samples, 6.00%)</title><rect x="10.0" y="277" width="70.7" height="15.0" fill="rgb(210,24,5)" rx="2" ry="2" />
<text  x="13.00" y="287.5" >[unknown]</text>
</g>
<g >
<title>w2c_decode__webp__wasmsimd_HE8uv_C (923,820 samples, 0.02%)</title><rect x="245.9" y="277" width="0.2" height="15.0" fill="rgb(218,60,14)" rx="2" ry="2" />
<text  x="248.87" y="287.5" ></text>
</g>
<g >
<title>w2c_decode__webp__wasmsimd_GetCoeffsFast (562,390,250 samples, 12.75%)</title><rect x="84.1" y="277" width="150.4" height="15.0" fill="rgb(210,26,6)" rx="2" ry="2" />
<text  x="87.10" y="287.5" >w2c_decode__webp__w..</text>
</g>
<g >
<title>copy_user_generic_string (924,097 samples, 0.02%)</title><rect x="42.7" y="133" width="0.3" height="15.0" fill="rgb(205,0,0)" rx="2" ry="2" />
<text  x="45.71" y="143.5" ></text>
</g>
<g >
<title>__libc_start_call_main (924,139 samples, 0.02%)</title><rect x="42.0" y="245" width="0.3" height="15.0" fill="rgb(210,26,6)" rx="2" ry="2" />
<text  x="45.03" y="255.5" ></text>
</g>
<g >
<title>w2c_decode__webp__wasmsimd_UpsampleRgbLinePair_C (924,360 samples, 0.02%)</title><rect x="80.5" y="261" width="0.2" height="15.0" fill="rgb(220,71,16)" rx="2" ry="2" />
<text  x="83.50" y="271.5" ></text>
</g>
<g >
<title>__libc_write (1,848,175 samples, 0.04%)</title><rect x="42.5" y="261" width="0.5" height="15.0" fill="rgb(238,154,37)" rx="2" ry="2" />
<text  x="45.46" y="271.5" ></text>
</g>
<g >
<title>track_pfn_insert (687,024 samples, 0.02%)</title><rect x="42.3" y="101" width="0.2" height="15.0" fill="rgb(230,115,27)" rx="2" ry="2" />
<text  x="45.28" y="111.5" ></text>
</g>
<g >
<title>w2c_decode__webp__wasmsimd_HD4_C (4,614,543 samples, 0.10%)</title><rect x="13.9" y="181" width="1.3" height="15.0" fill="rgb(218,62,14)" rx="2" ry="2" />
<text  x="16.94" y="191.5" ></text>
</g>
<g >
<title>w2c_decode__webp__wasmsimd_GetCoeffsFast (8,315,382 samples, 0.19%)</title><rect x="43.3" y="261" width="2.2" height="15.0" fill="rgb(210,26,6)" rx="2" ry="2" />
<text  x="46.29" y="271.5" ></text>
</g>
<g >
<title>generic_perform_write (1,848,175 samples, 0.04%)</title><rect x="42.5" y="165" width="0.5" height="15.0" fill="rgb(236,146,35)" rx="2" ry="2" />
<text  x="45.46" y="175.5" ></text>
</g>
<g >
<title>w2c_decode__webp__wasmsimd_TransformDCUV_C (2,772,168 samples, 0.06%)</title><rect x="36.9" y="181" width="0.7" height="15.0" fill="rgb(206,6,1)" rx="2" ry="2" />
<text  x="39.87" y="191.5" ></text>
</g>
<g >
<title>[unknown] (119,758,824 samples, 2.71%)</title><rect x="10.0" y="197" width="32.0" height="15.0" fill="rgb(210,24,5)" rx="2" ry="2" />
<text  x="13.00" y="207.5" >[u..</text>
</g>
<g >
<title>[unknown] (119,758,824 samples, 2.71%)</title><rect x="10.0" y="229" width="32.0" height="15.0" fill="rgb(210,24,5)" rx="2" ry="2" />
<text  x="13.00" y="239.5" >[u..</text>
</g>
<g >
<title>w2c_decode__webp__wasmsimd_HU4_C (6,467,513 samples, 0.15%)</title><rect x="15.9" y="181" width="1.7" height="15.0" fill="rgb(208,17,4)" rx="2" ry="2" />
<text  x="18.91" y="191.5" ></text>
</g>
<g >
<title>handle_mm_fault (687,024 samples, 0.02%)</title><rect x="42.3" y="181" width="0.2" height="15.0" fill="rgb(234,135,32)" rx="2" ry="2" />
<text  x="45.28" y="191.5" ></text>
</g>
<g >
<title>w2c_decode__webp__wasmsimd_DC8uvNoTop_C (1,848,091 samples, 0.04%)</title><rect x="81.4" y="277" width="0.5" height="15.0" fill="rgb(252,219,52)" rx="2" ry="2" />
<text  x="84.41" y="287.5" ></text>
</g>
<g >
<title>exc_page_fault (924,132 samples, 0.02%)</title><rect x="43.0" y="229" width="0.2" height="15.0" fill="rgb(212,35,8)" rx="2" ry="2" />
<text  x="45.96" y="239.5" ></text>
</g>
<g >
<title>w2c_decode__webp__wasmsimd_TransformOne_C (2,895,691,461 samples, 65.64%)</title><rect x="303.1" y="277" width="774.5" height="15.0" fill="rgb(209,22,5)" rx="2" ry="2" />
<text  x="306.07" y="287.5" >w2c_decode__webp__wasmsimd_TransformOne_C</text>
</g>
<g >
<title>w2c_decode__webp__wasmsimd_TransformWHT_C (923,449 samples, 0.02%)</title><rect x="80.2" y="261" width="0.3" height="15.0" fill="rgb(213,38,9)" rx="2" ry="2" />
<text  x="83.25" y="271.5" ></text>
</g>
<g >
<title>w2c_decode__webp__wasmsimd_TransformUV_C (52,602,415 samples, 1.19%)</title><rect x="66.2" y="261" width="14.0" height="15.0" fill="rgb(228,108,25)" rx="2" ry="2" />
<text  x="69.18" y="271.5" ></text>
</g>
<g >
<title>w2c_decode__webp__wasmsimd_GetCoeffsFast (1,847,372 samples, 0.04%)</title><rect x="13.4" y="181" width="0.5" height="15.0" fill="rgb(210,26,6)" rx="2" ry="2" />
<text  x="16.44" y="191.5" ></text>
</g>
<g >
<title>w2c_decode__webp__wasmsimd_RD4_C (1,847,422 samples, 0.04%)</title><rect x="20.1" y="181" width="0.5" height="15.0" fill="rgb(253,225,53)" rx="2" ry="2" />
<text  x="23.10" y="191.5" ></text>
</g>
<g >
<title>do_syscall_64 (1,848,175 samples, 0.04%)</title><rect x="42.5" y="229" width="0.5" height="15.0" fill="rgb(209,20,4)" rx="2" ry="2" />
<text  x="45.46" y="239.5" ></text>
</g>
<g >
<title>__gettimeofday (687,024 samples, 0.02%)</title><rect x="42.3" y="261" width="0.2" height="15.0" fill="rgb(254,228,54)" rx="2" ry="2" />
<text  x="45.28" y="271.5" ></text>
</g>
<g >
<title>w2c_decode__webp__wasmsimd_TM4_C (3,691,843 samples, 0.08%)</title><rect x="35.4" y="181" width="1.0" height="15.0" fill="rgb(232,128,30)" rx="2" ry="2" />
<text  x="38.39" y="191.5" ></text>
</g>
<g >
<title>w2c_decode__webp__wasmsimd_IDecode (165,908,856 samples, 3.76%)</title><rect x="246.1" y="277" width="44.4" height="15.0" fill="rgb(237,147,35)" rx="2" ry="2" />
<text  x="249.12" y="287.5" >w2c_..</text>
</g>
<g >
<title>do_user_addr_fault (687,024 samples, 0.02%)</title><rect x="42.3" y="197" width="0.2" height="15.0" fill="rgb(228,108,25)" rx="2" ry="2" />
<text  x="45.28" y="207.5" ></text>
</g>
<g >
<title>w2c_decode__webp__wasmsimd_TM8uv_C (923,393 samples, 0.02%)</title><rect x="36.4" y="181" width="0.2" height="15.0" fill="rgb(238,156,37)" rx="2" ry="2" />
<text  x="39.37" y="191.5" ></text>
</g>
<g >
<title>balance_dirty_pages_ratelimited (924,078 samples, 0.02%)</title><rect x="42.5" y="149" width="0.2" height="15.0" fill="rgb(212,34,8)" rx="2" ry="2" />
<text  x="45.46" y="159.5" ></text>
</g>
<g >
<title>w2c_decode__webp__wasmsimd_LD4_C (2,738,099 samples, 0.06%)</title><rect x="19.4" y="181" width="0.7" height="15.0" fill="rgb(242,173,41)" rx="2" ry="2" />
<text  x="22.37" y="191.5" ></text>
</g>
<g >
<title>find_next_iomem_res (687,024 samples, 0.02%)</title><rect x="42.3" y="37" width="0.2" height="15.0" fill="rgb(253,222,53)" rx="2" ry="2" />
<text  x="45.28" y="47.5" ></text>
</g>
<g >
<title>w2c_decode__webp__wasmsimd_VP8ParseProba (2,772,198 samples, 0.06%)</title><rect x="1189.2" y="277" width="0.8" height="15.0" fill="rgb(216,51,12)" rx="2" ry="2" />
<text  x="1192.24" y="287.5" ></text>
</g>
<g >
<title>w2c_decode__webp__wasmsimd_GetLargeValue (42,416,474 samples, 0.96%)</title><rect x="234.5" y="277" width="11.4" height="15.0" fill="rgb(234,137,32)" rx="2" ry="2" />
<text  x="237.53" y="287.5" ></text>
</g>
<g >
<title>w2c_decode__webp__wasmsimd_ReconstructRow (55,293,374 samples, 1.25%)</title><rect x="20.6" y="181" width="14.8" height="15.0" fill="rgb(217,55,13)" rx="2" ry="2" />
<text  x="23.60" y="191.5" ></text>
</g>
<g >
<title>w2c_decode__webp__wasmsimd_TransformDC_C (10,110,903 samples, 0.23%)</title><rect x="37.6" y="181" width="2.7" height="15.0" fill="rgb(211,27,6)" rx="2" ry="2" />
<text  x="40.61" y="191.5" ></text>
</g>
<g >
<title>w2c_decode__webp__wasmsimd_VP8GetValue (1,846,421 samples, 0.04%)</title><rect x="1188.7" y="277" width="0.5" height="15.0" fill="rgb(222,81,19)" rx="2" ry="2" />
<text  x="1191.75" y="287.5" ></text>
</g>
<g >
<title>w2c_decode__webp__wasmsimd_VL4_C (3,652,385 samples, 0.08%)</title><rect x="41.1" y="181" width="0.9" height="15.0" fill="rgb(226,98,23)" rx="2" ry="2" />
<text  x="44.06" y="191.5" ></text>
</g>
<g >
<title>w2c_decode__webp__wasmsimd_HE4_C (1,847,788 samples, 0.04%)</title><rect x="15.2" y="181" width="0.5" height="15.0" fill="rgb(212,32,7)" rx="2" ry="2" />
<text  x="18.17" y="191.5" ></text>
</g>
<g >
<title>w2c_decode__webp__wasmsimd_SimpleHFilter16i_C (8,316,438 samples, 0.19%)</title><rect x="295.7" y="277" width="2.2" height="15.0" fill="rgb(241,167,40)" rx="2" ry="2" />
<text  x="298.66" y="287.5" ></text>
</g>
<g >
<title>pat_pagerange_is_ram (687,024 samples, 0.02%)</title><rect x="42.3" y="69" width="0.2" height="15.0" fill="rgb(225,93,22)" rx="2" ry="2" />
<text  x="45.28" y="79.5" ></text>
</g>
<g >
<title>w2c_decode__webp__wasmsimd_TransformOne_C (40,337,004 samples, 0.91%)</title><rect x="49.0" y="261" width="10.8" height="15.0" fill="rgb(209,22,5)" rx="2" ry="2" />
<text  x="51.98" y="271.5" ></text>
</g>
<g >
<title>w2c_decode__webp__wasmsimd_FinishRow (3,694,919 samples, 0.08%)</title><rect x="83.1" y="277" width="1.0" height="15.0" fill="rgb(205,3,0)" rx="2" ry="2" />
<text  x="86.12" y="287.5" ></text>
</g>
<g >
<title>__munmap (924,139 samples, 0.02%)</title><rect x="42.0" y="229" width="0.3" height="15.0" fill="rgb(211,29,7)" rx="2" ry="2" />
<text  x="45.03" y="239.5" ></text>
</g>
<g >
<title>__handle_mm_fault (687,024 samples, 0.02%)</title><rect x="42.3" y="165" width="0.2" height="15.0" fill="rgb(207,9,2)" rx="2" ry="2" />
<text  x="45.28" y="175.5" ></text>
</g>
<g >
<title>copy_page_from_iter_atomic (924,097 samples, 0.02%)</title><rect x="42.7" y="149" width="0.3" height="15.0" fill="rgb(231,120,28)" rx="2" ry="2" />
<text  x="45.71" y="159.5" ></text>
</g>
<g >
<title>w2c_decode__webp__wasmsimd_TM16_C (1,848,262 samples, 0.04%)</title><rect x="300.8" y="277" width="0.5" height="15.0" fill="rgb(253,222,53)" rx="2" ry="2" />
<text  x="303.85" y="287.5" ></text>
</g>
<g >
<title>asm_exc_page_fault (687,024 samples, 0.02%)</title><rect x="42.3" y="229" width="0.2" height="15.0" fill="rgb(225,93,22)" rx="2" ry="2" />
<text  x="45.28" y="239.5" ></text>
</g>
<g >
<title>w2c_decode__webp__wasmsimd_TransformUV_C (924,263 samples, 0.02%)</title><rect x="40.3" y="181" width="0.3" height="15.0" fill="rgb(228,108,25)" rx="2" ry="2" />
<text  x="43.31" y="191.5" ></text>
</g>
<g >
<title>__memmove_avx_unaligned_erms (923,821 samples, 0.02%)</title><rect x="80.9" y="277" width="0.3" height="15.0" fill="rgb(205,0,0)" rx="2" ry="2" />
<text  x="83.92" y="287.5" ></text>
</g>
<g >
<title>do_syscall_64 (924,139 samples, 0.02%)</title><rect x="42.0" y="197" width="0.3" height="15.0" fill="rgb(209,20,4)" rx="2" ry="2" />
<text  x="45.03" y="207.5" ></text>
</g>
<g >
<title>handle_mm_fault (924,132 samples, 0.02%)</title><rect x="43.0" y="197" width="0.2" height="15.0" fill="rgb(234,135,32)" rx="2" ry="2" />
<text  x="45.96" y="207.5" ></text>
</g>
<g >
<title>w2c_decode__webp__wasmsimd_TransformTwo_C (21,098,267 samples, 0.48%)</title><rect x="1077.6" y="277" width="5.6" height="15.0" fill="rgb(254,228,54)" rx="2" ry="2" />
<text  x="1080.60" y="287.5" ></text>
</g>
<g >
<title>w2c_decode__webp__wasmsimd_TM8uv_C (2,772,196 samples, 0.06%)</title><rect x="301.3" y="277" width="0.8" height="15.0" fill="rgb(238,156,37)" rx="2" ry="2" />
<text  x="304.34" y="287.5" ></text>
</g>
<g >
<title>[unknown] (119,758,824 samples, 2.71%)</title><rect x="10.0" y="213" width="32.0" height="15.0" fill="rgb(210,24,5)" rx="2" ry="2" />
<text  x="13.00" y="223.5" >[u..</text>
</g>
<g >
<title>tlb_batch_pages_flush (924,139 samples, 0.02%)</title><rect x="42.0" y="85" width="0.3" height="15.0" fill="rgb(234,133,32)" rx="2" ry="2" />
<text  x="45.03" y="95.5" ></text>
</g>
<g >
<title>w2c_decode__webp__wasmsimd_SimpleHFilter16_C (3,696,396 samples, 0.08%)</title><rect x="294.7" y="277" width="1.0" height="15.0" fill="rgb(219,67,16)" rx="2" ry="2" />
<text  x="297.67" y="287.5" ></text>
</g>
<g >
<title>vfs_write (1,848,175 samples, 0.04%)</title><rect x="42.5" y="197" width="0.5" height="15.0" fill="rgb(250,209,50)" rx="2" ry="2" />
<text  x="45.46" y="207.5" ></text>
</g>
<g >
<title>w2c_decode__webp__wasmsimd_HE8uv_C (923,418 samples, 0.02%)</title><rect x="15.7" y="181" width="0.2" height="15.0" fill="rgb(218,60,14)" rx="2" ry="2" />
<text  x="18.66" y="191.5" ></text>
</g>
<g >
<title>__do_fault (687,024 samples, 0.02%)</title><rect x="42.3" y="133" width="0.2" height="15.0" fill="rgb(221,74,17)" rx="2" ry="2" />
<text  x="45.28" y="143.5" ></text>
</g>
<g >
<title>release_pages (924,139 samples, 0.02%)</title><rect x="42.0" y="69" width="0.3" height="15.0" fill="rgb(228,106,25)" rx="2" ry="2" />
<text  x="45.03" y="79.5" ></text>
</g>
<g >
<title>unmap_region (924,139 samples, 0.02%)</title><rect x="42.0" y="117" width="0.3" height="15.0" fill="rgb(219,64,15)" rx="2" ry="2" />
<text  x="45.03" y="127.5" ></text>
</g>
<g >
<title>__handle_mm_fault (924,132 samples, 0.02%)</title><rect x="43.0" y="181" width="0.2" height="15.0" fill="rgb(207,9,2)" rx="2" ry="2" />
<text  x="45.96" y="191.5" ></text>
</g>
<g >
<title>asm_exc_page_fault (803,059 samples, 0.02%)</title><rect x="1188.5" y="261" width="0.2" height="15.0" fill="rgb(225,93,22)" rx="2" ry="2" />
<text  x="1191.53" y="271.5" ></text>
</g>
<g >
<title>entry_SYSCALL_64_after_hwframe (924,139 samples, 0.02%)</title><rect x="42.0" y="213" width="0.3" height="15.0" fill="rgb(218,63,15)" rx="2" ry="2" />
<text  x="45.03" y="223.5" ></text>
</g>
<g >
<title>__memset_avx2_unaligned_erms (923,589 samples, 0.02%)</title><rect x="81.2" y="277" width="0.2" height="15.0" fill="rgb(223,84,20)" rx="2" ry="2" />
<text  x="84.16" y="287.5" ></text>
</g>
<g >
<title>w2c_decode__webp__wasmsimd_TransformAC3_C (923,740 samples, 0.02%)</title><rect x="36.6" y="181" width="0.3" height="15.0" fill="rgb(251,211,50)" rx="2" ry="2" />
<text  x="39.62" y="191.5" ></text>
</g>
<g >
<title>decode_webp_was (4,411,571,151 samples, 100.00%)</title><rect x="10.0" y="293" width="1180.0" height="15.0" fill="rgb(216,54,12)" rx="2" ry="2" />
<text  x="13.00" y="303.5" >decode_webp_was</text>
</g>
<g >
<title>w2c_decode__webp__wasmsimd_UpsampleRgbLinePair_C (394,459,227 samples, 8.94%)</title><rect x="1083.2" y="277" width="105.5" height="15.0" fill="rgb(220,71,16)" rx="2" ry="2" />
<text  x="1086.24" y="287.5" >w2c_decode__..</text>
</g>
<g >
<title>[unknown] (119,758,824 samples, 2.71%)</title><rect x="10.0" y="245" width="32.0" height="15.0" fill="rgb(210,24,5)" rx="2" ry="2" />
<text  x="13.00" y="255.5" >[u..</text>
</g>
<g >
<title>w2c_decode__webp__wasmsimd_DC16_C (924,337 samples, 0.02%)</title><rect x="10.0" y="181" width="0.2" height="15.0" fill="rgb(221,75,18)" rx="2" ry="2" />
<text  x="13.00" y="191.5" ></text>
</g>
<g >
<title>w2c_decode__webp__wasmsimd_DC8uv_C (3,599,515 samples, 0.08%)</title><rect x="81.9" y="277" width="1.0" height="15.0" fill="rgb(206,8,2)" rx="2" ry="2" />
<text  x="84.91" y="287.5" ></text>
</g>
<g >
<title>do_mas_align_munmap (924,139 samples, 0.02%)</title><rect x="42.0" y="133" width="0.3" height="15.0" fill="rgb(232,126,30)" rx="2" ry="2" />
<text  x="45.03" y="143.5" ></text>
</g>
<g >
<title>do_user_addr_fault (924,132 samples, 0.02%)</title><rect x="43.0" y="213" width="0.2" height="15.0" fill="rgb(228,108,25)" rx="2" ry="2" />
<text  x="45.96" y="223.5" ></text>
</g>
<g >
<title>free_unref_page_list (924,139 samples, 0.02%)</title><rect x="42.0" y="53" width="0.3" height="15.0" fill="rgb(221,77,18)" rx="2" ry="2" />
<text  x="45.03" y="63.5" ></text>
</g>
<g >
<title>w2c_decode__webp__wasmsimd_DC8uv_C (923,446 samples, 0.02%)</title><rect x="13.2" y="181" width="0.2" height="15.0" fill="rgb(206,8,2)" rx="2" ry="2" />
<text  x="16.19" y="191.5" ></text>
</g>
<g >
<title>__memmove_avx_unaligned (650,557 samples, 0.01%)</title><rect x="80.7" y="277" width="0.2" height="15.0" fill="rgb(254,228,54)" rx="2" ry="2" />
<text  x="83.74" y="287.5" ></text>
</g>
<g >
<title>walk_system_ram_range (687,024 samples, 0.02%)</title><rect x="42.3" y="53" width="0.2" height="15.0" fill="rgb(206,6,1)" rx="2" ry="2" />
<text  x="45.28" y="63.5" ></text>
</g>
<g >
<title>w2c_decode__webp__wasmsimd_TransformTwo_C (23,981,162 samples, 0.54%)</title><rect x="59.8" y="261" width="6.4" height="15.0" fill="rgb(254,228,54)" rx="2" ry="2" />
<text  x="62.76" y="271.5" ></text>
</g>
<g >
<title>w2c_decode__webp__wasmsimd_IDecode (6,467,491 samples, 0.15%)</title><rect x="17.6" y="181" width="1.8" height="15.0" fill="rgb(237,147,35)" rx="2" ry="2" />
<text  x="20.64" y="191.5" ></text>
</g>
<g >
<title>__do_global_dtors_aux (924,139 samples, 0.02%)</title><rect x="42.0" y="261" width="0.3" height="15.0" fill="rgb(245,185,44)" rx="2" ry="2" />
<text  x="45.03" y="271.5" ></text>
</g>
<g >
<title>ext4_buffered_write_iter (1,848,175 samples, 0.04%)</title><rect x="42.5" y="181" width="0.5" height="15.0" fill="rgb(213,40,9)" rx="2" ry="2" />
<text  x="45.46" y="191.5" ></text>
</g>
<g >
<title>w2c_decode__webp__wasmsimd_SimpleVFilter16_C (3,696,309 samples, 0.08%)</title><rect x="297.9" y="277" width="1.0" height="15.0" fill="rgb(229,111,26)" rx="2" ry="2" />
<text  x="300.88" y="287.5" ></text>
</g>
<g >
<title>ksys_write (1,848,175 samples, 0.04%)</title><rect x="42.5" y="213" width="0.5" height="15.0" fill="rgb(205,4,1)" rx="2" ry="2" />
<text  x="45.46" y="223.5" ></text>
</g>
<g >
<title>vmf_insert_pfn_prot (687,024 samples, 0.02%)</title><rect x="42.3" y="117" width="0.2" height="15.0" fill="rgb(207,13,3)" rx="2" ry="2" />
<text  x="45.28" y="127.5" ></text>
</g>
<g >
<title>w2c_decode__webp__wasmsimd_VE4_C (1,847,594 samples, 0.04%)</title><rect x="40.6" y="181" width="0.5" height="15.0" fill="rgb(221,76,18)" rx="2" ry="2" />
<text  x="43.56" y="191.5" ></text>
</g>
<g >
<title>w2c_decode__webp__wasmsimd_IDecode (7,391,657 samples, 0.17%)</title><rect x="45.5" y="261" width="2.0" height="15.0" fill="rgb(237,147,35)" rx="2" ry="2" />
<text  x="48.52" y="271.5" ></text>
</g>
<g >
<title>do_fault (687,024 samples, 0.02%)</title><rect x="42.3" y="149" width="0.2" height="15.0" fill="rgb(248,200,47)" rx="2" ry="2" />
<text  x="45.28" y="159.5" ></text>
</g>
</g>
</svg>
