<?xml version="1.0" standalone="no"?>
<!DOCTYPE svg PUBLIC "-//W3C//DTD SVG 1.1//EN" "http://www.w3.org/Graphics/SVG/1.1/DTD/svg11.dtd">
<svg version="1.1" width="1200" height="342" onload="init(evt)" viewBox="0 0 1200 342" xmlns="http://www.w3.org/2000/svg" xmlns:xlink="http://www.w3.org/1999/xlink">
<!-- Flame graph stack visualization. See https://github.com/brendangregg/FlameGraph for latest version, and http://www.brendangregg.com/flamegraphs.html for examples. -->
<!-- NOTES:  -->
<defs>
	<linearGradient id="background" y1="0" y2="1" x1="0" x2="0" >
		<stop stop-color="#eeeeee" offset="5%" />
		<stop stop-color="#eeeeb0" offset="95%" />
	</linearGradient>
</defs>
<style type="text/css">
	text { font-family:Verdana; font-size:12px; fill:rgb(0,0,0); }
	#search, #ignorecase { opacity:0.1; cursor:pointer; }
	#search:hover, #search.show, #ignorecase:hover, #ignorecase.show { opacity:1; }
	#subtitle { text-anchor:middle; font-color:rgb(160,160,160); }
	#title { text-anchor:middle; font-size:17px}
	#unzoom { cursor:pointer; }
	#frames > *:hover { stroke:black; stroke-width:0.5; cursor:pointer; }
	.hide { display:none; }
	.parent { opacity:0.5; }
</style>
<script type="text/ecmascript">
<![CDATA[
	"use strict";
	var details, searchbtn, unzoombtn, matchedtxt, svg, searching, currentSearchTerm, ignorecase, ignorecaseBtn;
	function init(evt) {
		details = document.getElementById("details").firstChild;
		searchbtn = document.getElementById("search");
		ignorecaseBtn = document.getElementById("ignorecase");
		unzoombtn = document.getElementById("unzoom");
		matchedtxt = document.getElementById("matched");
		svg = document.getElementsByTagName("svg")[0];
		searching = 0;
		currentSearchTerm = null;

		// use GET parameters to restore a flamegraphs state.
		var params = get_params();
		if (params.x && params.y)
			zoom(find_group(document.querySelector('[x="' + params.x + '"][y="' + params.y + '"]')));
                if (params.s) search(params.s);
	}

	// event listeners
	window.addEventListener("click", function(e) {
		var target = find_group(e.target);
		if (target) {
			if (target.nodeName == "a") {
				if (e.ctrlKey === false) return;
				e.preventDefault();
			}
			if (target.classList.contains("parent")) unzoom(true);
			zoom(target);
			if (!document.querySelector('.parent')) {
				// we have basically done a clearzoom so clear the url
				var params = get_params();
				if (params.x) delete params.x;
				if (params.y) delete params.y;
				history.replaceState(null, null, parse_params(params));
				unzoombtn.classList.add("hide");
				return;
			}

			// set parameters for zoom state
			var el = target.querySelector("rect");
			if (el && el.attributes && el.attributes.y && el.attributes._orig_x) {
				var params = get_params()
				params.x = el.attributes._orig_x.value;
				params.y = el.attributes.y.value;
				history.replaceState(null, null, parse_params(params));
			}
		}
		else if (e.target.id == "unzoom") clearzoom();
		else if (e.target.id == "search") search_prompt();
		else if (e.target.id == "ignorecase") toggle_ignorecase();
	}, false)

	// mouse-over for info
	// show
	window.addEventListener("mouseover", function(e) {
		var target = find_group(e.target);
		if (target) details.nodeValue = "Function: " + g_to_text(target);
	}, false)

	// clear
	window.addEventListener("mouseout", function(e) {
		var target = find_group(e.target);
		if (target) details.nodeValue = ' ';
	}, false)

	// ctrl-F for search
	// ctrl-I to toggle case-sensitive search
	window.addEventListener("keydown",function (e) {
		if (e.keyCode === 114 || (e.ctrlKey && e.keyCode === 70)) {
			e.preventDefault();
			search_prompt();
		}
		else if (e.ctrlKey && e.keyCode === 73) {
			e.preventDefault();
			toggle_ignorecase();
		}
	}, false)

	// functions
	function get_params() {
		var params = {};
		var paramsarr = window.location.search.substr(1).split('&');
		for (var i = 0; i < paramsarr.length; ++i) {
			var tmp = paramsarr[i].split("=");
			if (!tmp[0] || !tmp[1]) continue;
			params[tmp[0]]  = decodeURIComponent(tmp[1]);
		}
		return params;
	}
	function parse_params(params) {
		var uri = "?";
		for (var key in params) {
			uri += key + '=' + encodeURIComponent(params[key]) + '&';
		}
		if (uri.slice(-1) == "&")
			uri = uri.substring(0, uri.length - 1);
		if (uri == '?')
			uri = window.location.href.split('?')[0];
		return uri;
	}
	function find_child(node, selector) {
		var children = node.querySelectorAll(selector);
		if (children.length) return children[0];
	}
	function find_group(node) {
		var parent = node.parentElement;
		if (!parent) return;
		if (parent.id == "frames") return node;
		return find_group(parent);
	}
	function orig_save(e, attr, val) {
		if (e.attributes["_orig_" + attr] != undefined) return;
		if (e.attributes[attr] == undefined) return;
		if (val == undefined) val = e.attributes[attr].value;
		e.setAttribute("_orig_" + attr, val);
	}
	function orig_load(e, attr) {
		if (e.attributes["_orig_"+attr] == undefined) return;
		e.attributes[attr].value = e.attributes["_orig_" + attr].value;
		e.removeAttribute("_orig_"+attr);
	}
	function g_to_text(e) {
		var text = find_child(e, "title").firstChild.nodeValue;
		return (text)
	}
	function g_to_func(e) {
		var func = g_to_text(e);
		// if there's any manipulation we want to do to the function
		// name before it's searched, do it here before returning.
		return (func);
	}
	function update_text(e) {
		var r = find_child(e, "rect");
		var t = find_child(e, "text");
		var w = parseFloat(r.attributes.width.value) -3;
		var txt = find_child(e, "title").textContent.replace(/\([^(]*\)$/,"");
		t.attributes.x.value = parseFloat(r.attributes.x.value) + 3;

		// Smaller than this size won't fit anything
		if (w < 2 * 12 * 0.59) {
			t.textContent = "";
			return;
		}

		t.textContent = txt;
		var sl = t.getSubStringLength(0, txt.length);
		// check if only whitespace or if we can fit the entire string into width w
		if (/^ *$/.test(txt) || sl < w)
			return;

		// this isn't perfect, but gives a good starting point
		// and avoids calling getSubStringLength too often
		var start = Math.floor((w/sl) * txt.length);
		for (var x = start; x > 0; x = x-2) {
			if (t.getSubStringLength(0, x + 2) <= w) {
				t.textContent = txt.substring(0, x) + "..";
				return;
			}
		}
		t.textContent = "";
	}

	// zoom
	function zoom_reset(e) {
		if (e.attributes != undefined) {
			orig_load(e, "x");
			orig_load(e, "width");
		}
		if (e.childNodes == undefined) return;
		for (var i = 0, c = e.childNodes; i < c.length; i++) {
			zoom_reset(c[i]);
		}
	}
	function zoom_child(e, x, ratio) {
		if (e.attributes != undefined) {
			if (e.attributes.x != undefined) {
				orig_save(e, "x");
				e.attributes.x.value = (parseFloat(e.attributes.x.value) - x - 10) * ratio + 10;
				if (e.tagName == "text")
					e.attributes.x.value = find_child(e.parentNode, "rect[x]").attributes.x.value + 3;
			}
			if (e.attributes.width != undefined) {
				orig_save(e, "width");
				e.attributes.width.value = parseFloat(e.attributes.width.value) * ratio;
			}
		}

		if (e.childNodes == undefined) return;
		for (var i = 0, c = e.childNodes; i < c.length; i++) {
			zoom_child(c[i], x - 10, ratio);
		}
	}
	function zoom_parent(e) {
		if (e.attributes) {
			if (e.attributes.x != undefined) {
				orig_save(e, "x");
				e.attributes.x.value = 10;
			}
			if (e.attributes.width != undefined) {
				orig_save(e, "width");
				e.attributes.width.value = parseInt(svg.width.baseVal.value) - (10 * 2);
			}
		}
		if (e.childNodes == undefined) return;
		for (var i = 0, c = e.childNodes; i < c.length; i++) {
			zoom_parent(c[i]);
		}
	}
	function zoom(node) {
		var attr = find_child(node, "rect").attributes;
		var width = parseFloat(attr.width.value);
		var xmin = parseFloat(attr.x.value);
		var xmax = parseFloat(xmin + width);
		var ymin = parseFloat(attr.y.value);
		var ratio = (svg.width.baseVal.value - 2 * 10) / width;

		// XXX: Workaround for JavaScript float issues (fix me)
		var fudge = 0.0001;

		unzoombtn.classList.remove("hide");

		var el = document.getElementById("frames").children;
		for (var i = 0; i < el.length; i++) {
			var e = el[i];
			var a = find_child(e, "rect").attributes;
			var ex = parseFloat(a.x.value);
			var ew = parseFloat(a.width.value);
			var upstack;
			// Is it an ancestor
			if (0 == 0) {
				upstack = parseFloat(a.y.value) > ymin;
			} else {
				upstack = parseFloat(a.y.value) < ymin;
			}
			if (upstack) {
				// Direct ancestor
				if (ex <= xmin && (ex+ew+fudge) >= xmax) {
					e.classList.add("parent");
					zoom_parent(e);
					update_text(e);
				}
				// not in current path
				else
					e.classList.add("hide");
			}
			// Children maybe
			else {
				// no common path
				if (ex < xmin || ex + fudge >= xmax) {
					e.classList.add("hide");
				}
				else {
					zoom_child(e, xmin, ratio);
					update_text(e);
				}
			}
		}
		search();
	}
	function unzoom(dont_update_text) {
		unzoombtn.classList.add("hide");
		var el = document.getElementById("frames").children;
		for(var i = 0; i < el.length; i++) {
			el[i].classList.remove("parent");
			el[i].classList.remove("hide");
			zoom_reset(el[i]);
			if(!dont_update_text) update_text(el[i]);
		}
		search();
	}
	function clearzoom() {
		unzoom();

		// remove zoom state
		var params = get_params();
		if (params.x) delete params.x;
		if (params.y) delete params.y;
		history.replaceState(null, null, parse_params(params));
	}

	// search
	function toggle_ignorecase() {
		ignorecase = !ignorecase;
		if (ignorecase) {
			ignorecaseBtn.classList.add("show");
		} else {
			ignorecaseBtn.classList.remove("show");
		}
		reset_search();
		search();
	}
	function reset_search() {
		var el = document.querySelectorAll("#frames rect");
		for (var i = 0; i < el.length; i++) {
			orig_load(el[i], "fill")
		}
		var params = get_params();
		delete params.s;
		history.replaceState(null, null, parse_params(params));
	}
	function search_prompt() {
		if (!searching) {
			var term = prompt("Enter a search term (regexp " +
			    "allowed, eg: ^ext4_)"
			    + (ignorecase ? ", ignoring case" : "")
			    + "\nPress Ctrl-i to toggle case sensitivity", "");
			if (term != null) search(term);
		} else {
			reset_search();
			searching = 0;
			currentSearchTerm = null;
			searchbtn.classList.remove("show");
			searchbtn.firstChild.nodeValue = "Search"
			matchedtxt.classList.add("hide");
			matchedtxt.firstChild.nodeValue = ""
		}
	}
	function search(term) {
		if (term) currentSearchTerm = term;

		var re = new RegExp(currentSearchTerm, ignorecase ? 'i' : '');
		var el = document.getElementById("frames").children;
		var matches = new Object();
		var maxwidth = 0;
		for (var i = 0; i < el.length; i++) {
			var e = el[i];
			var func = g_to_func(e);
			var rect = find_child(e, "rect");
			if (func == null || rect == null)
				continue;

			// Save max width. Only works as we have a root frame
			var w = parseFloat(rect.attributes.width.value);
			if (w > maxwidth)
				maxwidth = w;

			if (func.match(re)) {
				// highlight
				var x = parseFloat(rect.attributes.x.value);
				orig_save(rect, "fill");
				rect.attributes.fill.value = "rgb(230,0,230)";

				// remember matches
				if (matches[x] == undefined) {
					matches[x] = w;
				} else {
					if (w > matches[x]) {
						// overwrite with parent
						matches[x] = w;
					}
				}
				searching = 1;
			}
		}
		if (!searching)
			return;
		var params = get_params();
		params.s = currentSearchTerm;
		history.replaceState(null, null, parse_params(params));

		searchbtn.classList.add("show");
		searchbtn.firstChild.nodeValue = "Reset Search";

		// calculate percent matched, excluding vertical overlap
		var count = 0;
		var lastx = -1;
		var lastw = 0;
		var keys = Array();
		for (k in matches) {
			if (matches.hasOwnProperty(k))
				keys.push(k);
		}
		// sort the matched frames by their x location
		// ascending, then width descending
		keys.sort(function(a, b){
			return a - b;
		});
		// Step through frames saving only the biggest bottom-up frames
		// thanks to the sort order. This relies on the tree property
		// where children are always smaller than their parents.
		var fudge = 0.0001;	// JavaScript floating point
		for (var k in keys) {
			var x = parseFloat(keys[k]);
			var w = matches[keys[k]];
			if (x >= lastx + lastw - fudge) {
				count += w;
				lastx = x;
				lastw = w;
			}
		}
		// display matched percent
		matchedtxt.classList.remove("hide");
		var pct = 100 * count / maxwidth;
		if (pct != 100) pct = pct.toFixed(1)
		matchedtxt.firstChild.nodeValue = "Matched: " + pct + "%";
	}
]]>
</script>
<rect x="0.0" y="0" width="1200.0" height="342.0" fill="url(#background)"  />
<text id="title" x="600.00" y="24" >Flame Graph</text>
<text id="details" x="10.00" y="325" > </text>
<text id="unzoom" x="10.00" y="24" class="hide">Reset Zoom</text>
<text id="search" x="1090.00" y="24" >Search</text>
<text id="ignorecase" x="1174.00" y="24" >ic</text>
<text id="matched" x="1090.00" y="325" > </text>
<g id="frames">
<g >
<title>start_this_handle (923,149 samples, 0.05%)</title><rect x="59.7" y="53" width="0.7" height="15.0" fill="rgb(234,133,31)" rx="2" ry="2" />
<text  x="62.70" y="63.5" ></text>
</g>
<g >
<title>w2c_decode__webp__wasmsimd_SimpleVFilter16_SSE2 (923,968 samples, 0.05%)</title><rect x="1124.3" y="261" width="0.7" height="15.0" fill="rgb(221,73,17)" rx="2" ry="2" />
<text  x="1127.35" y="271.5" ></text>
</g>
<g >
<title>handle_mm_fault (385,957 samples, 0.02%)</title><rect x="51.4" y="101" width="0.3" height="15.0" fill="rgb(234,135,32)" rx="2" ry="2" />
<text  x="54.41" y="111.5" ></text>
</g>
<g >
<title>do_user_addr_fault (1,266,634 samples, 0.08%)</title><rect x="1140.5" y="213" width="0.9" height="15.0" fill="rgb(228,108,25)" rx="2" ry="2" />
<text  x="1143.46" y="223.5" ></text>
</g>
<g >
<title>vm_mmap_pgoff (385,784 samples, 0.02%)</title><rect x="58.8" y="165" width="0.3" height="15.0" fill="rgb(237,150,35)" rx="2" ry="2" />
<text  x="61.78" y="175.5" ></text>
</g>
<g >
<title>entry_SYSCALL_64_after_hwframe (385,784 samples, 0.02%)</title><rect x="58.8" y="197" width="0.3" height="15.0" fill="rgb(218,63,15)" rx="2" ry="2" />
<text  x="61.78" y="207.5" ></text>
</g>
<g >
<title>filemap_map_pages (372,955 samples, 0.02%)</title><rect x="60.4" y="133" width="0.2" height="15.0" fill="rgb(229,112,27)" rx="2" ry="2" />
<text  x="63.35" y="143.5" ></text>
</g>
<g >
<title>mmap_region (293,360 samples, 0.02%)</title><rect x="60.7" y="101" width="0.2" height="15.0" fill="rgb(231,121,28)" rx="2" ry="2" />
<text  x="63.69" y="111.5" ></text>
</g>
<g >
<title>__libc_write (923,149 samples, 0.05%)</title><rect x="59.7" y="245" width="0.7" height="15.0" fill="rgb(238,154,37)" rx="2" ry="2" />
<text  x="62.70" y="255.5" ></text>
</g>
<g >
<title>perf_iterate_ctx (385,784 samples, 0.02%)</title><rect x="58.8" y="85" width="0.3" height="15.0" fill="rgb(205,4,0)" rx="2" ry="2" />
<text  x="61.78" y="95.5" ></text>
</g>
<g >
<title>w2c_decode__webp__wasmsimd_UpsampleRgbLinePair_SSE2 (15,910,059 samples, 0.95%)</title><rect x="1130.2" y="261" width="11.2" height="15.0" fill="rgb(212,33,7)" rx="2" ry="2" />
<text  x="1133.18" y="271.5" ></text>
</g>
<g >
<title>exc_page_fault (1,266,634 samples, 0.08%)</title><rect x="1140.5" y="229" width="0.9" height="15.0" fill="rgb(212,35,8)" rx="2" ry="2" />
<text  x="1143.46" y="239.5" ></text>
</g>
<g >
<title>do_syscall_64 (923,149 samples, 0.05%)</title><rect x="59.7" y="213" width="0.7" height="15.0" fill="rgb(209,20,4)" rx="2" ry="2" />
<text  x="62.70" y="223.5" ></text>
</g>
<g >
<title>asm_exc_page_fault (885,707 samples, 0.05%)</title><rect x="1188.7" y="245" width="0.6" height="15.0" fill="rgb(225,93,22)" rx="2" ry="2" />
<text  x="1191.71" y="255.5" ></text>
</g>
<g >
<title>__rb_insert_augmented (293,360 samples, 0.02%)</title><rect x="60.7" y="85" width="0.2" height="15.0" fill="rgb(206,7,1)" rx="2" ry="2" />
<text  x="63.69" y="95.5" ></text>
</g>
<g >
<title>__mmap64 (385,784 samples, 0.02%)</title><rect x="58.8" y="213" width="0.3" height="15.0" fill="rgb(243,175,41)" rx="2" ry="2" />
<text  x="61.78" y="223.5" ></text>
</g>
<g >
<title>w2c_decode__webp__wasmsimd_TransformDC_C (4,618,826 samples, 0.27%)</title><rect x="53.0" y="165" width="3.2" height="15.0" fill="rgb(211,27,6)" rx="2" ry="2" />
<text  x="55.97" y="175.5" ></text>
</g>
<g >
<title>w2c_decode__webp__wasmsimd_HE4_C (3,694,085 samples, 0.22%)</title><rect x="26.2" y="165" width="2.6" height="15.0" fill="rgb(212,32,7)" rx="2" ry="2" />
<text  x="29.21" y="175.5" ></text>
</g>
<g >
<title>w2c_decode__webp__wasmsimd_FinishRow (924,088 samples, 0.05%)</title><rect x="593.8" y="261" width="0.6" height="15.0" fill="rgb(205,3,0)" rx="2" ry="2" />
<text  x="596.79" y="271.5" ></text>
</g>
<g >
<title>w2c_decode__webp__wasmsimd_DC4_C (10,159,830 samples, 0.60%)</title><rect x="10.0" y="165" width="7.1" height="15.0" fill="rgb(250,210,50)" rx="2" ry="2" />
<text  x="13.00" y="175.5" ></text>
</g>
<g >
<title>__x64_sys_execve (405,185 samples, 0.02%)</title><rect x="60.6" y="213" width="0.3" height="15.0" fill="rgb(247,193,46)" rx="2" ry="2" />
<text  x="63.61" y="223.5" ></text>
</g>
<g >
<title>__pthread_tunables_init (372,955 samples, 0.02%)</title><rect x="60.4" y="245" width="0.2" height="15.0" fill="rgb(217,58,13)" rx="2" ry="2" />
<text  x="63.35" y="255.5" ></text>
</g>
<g >
<title>__alloc_pages (455,710 samples, 0.03%)</title><rect x="1141.0" y="133" width="0.4" height="15.0" fill="rgb(233,129,30)" rx="2" ry="2" />
<text  x="1144.03" y="143.5" ></text>
</g>
<g >
<title>do_fault (385,957 samples, 0.02%)</title><rect x="51.4" y="69" width="0.3" height="15.0" fill="rgb(248,200,47)" rx="2" ry="2" />
<text  x="54.41" y="79.5" ></text>
</g>
<g >
<title>asm_exc_page_fault (372,955 samples, 0.02%)</title><rect x="60.4" y="229" width="0.2" height="15.0" fill="rgb(225,93,22)" rx="2" ry="2" />
<text  x="63.35" y="239.5" ></text>
</g>
<g >
<title>main (923,226 samples, 0.05%)</title><rect x="59.1" y="213" width="0.6" height="15.0" fill="rgb(243,179,42)" rx="2" ry="2" />
<text  x="62.05" y="223.5" ></text>
</g>
<g >
<title>[unknown] (68,564,555 samples, 4.08%)</title><rect x="10.0" y="213" width="48.1" height="15.0" fill="rgb(210,24,5)" rx="2" ry="2" />
<text  x="13.00" y="223.5" >[unk..</text>
</g>
<g >
<title>entry_SYSCALL_64_after_hwframe (405,185 samples, 0.02%)</title><rect x="60.6" y="245" width="0.3" height="15.0" fill="rgb(218,63,15)" rx="2" ry="2" />
<text  x="63.61" y="255.5" ></text>
</g>
<g >
<title>syscall_exit_to_user_mode (923,385 samples, 0.05%)</title><rect x="58.1" y="197" width="0.7" height="15.0" fill="rgb(251,211,50)" rx="2" ry="2" />
<text  x="61.14" y="207.5" ></text>
</g>
<g >
<title>w2c_decode__webp__wasmsimd_VP8ParseProba (2,769,949 samples, 0.16%)</title><rect x="1142.0" y="261" width="1.9" height="15.0" fill="rgb(216,51,12)" rx="2" ry="2" />
<text  x="1145.00" y="271.5" ></text>
</g>
<g >
<title>perf_event_mmap (385,784 samples, 0.02%)</title><rect x="58.8" y="117" width="0.3" height="15.0" fill="rgb(229,112,26)" rx="2" ry="2" />
<text  x="61.78" y="127.5" ></text>
</g>
<g >
<title>w2c_decode__webp__wasmsimd_VP8YuvToRgb32_SSE2 (64,645,224 samples, 3.85%)</title><rect x="1143.9" y="261" width="45.4" height="15.0" fill="rgb(233,129,31)" rx="2" ry="2" />
<text  x="1146.95" y="271.5" >w2c_..</text>
</g>
<g >
<title>__filemap_fdatawrite_range (923,385 samples, 0.05%)</title><rect x="58.1" y="117" width="0.7" height="15.0" fill="rgb(233,129,30)" rx="2" ry="2" />
<text  x="61.14" y="127.5" ></text>
</g>
<g >
<title>w2c_decode__webp__wasmsimd_GetCoeffsAlt (9,210,019 samples, 0.55%)</title><rect x="60.9" y="245" width="6.5" height="15.0" fill="rgb(214,45,10)" rx="2" ry="2" />
<text  x="63.90" y="255.5" ></text>
</g>
<g >
<title>folio_clear_dirty_for_io (923,385 samples, 0.05%)</title><rect x="58.1" y="37" width="0.7" height="15.0" fill="rgb(237,150,36)" rx="2" ry="2" />
<text  x="61.14" y="47.5" ></text>
</g>
<g >
<title>[unknown] (68,564,555 samples, 4.08%)</title><rect x="10.0" y="197" width="48.1" height="15.0" fill="rgb(210,24,5)" rx="2" ry="2" />
<text  x="13.00" y="207.5" >[unk..</text>
</g>
<g >
<title>__do_global_dtors_aux (1,309,010 samples, 0.08%)</title><rect x="58.8" y="245" width="0.9" height="15.0" fill="rgb(245,185,44)" rx="2" ry="2" />
<text  x="61.78" y="255.5" ></text>
</g>
<g >
<title>[unknown] (68,564,555 samples, 4.08%)</title><rect x="10.0" y="181" width="48.1" height="15.0" fill="rgb(210,24,5)" rx="2" ry="2" />
<text  x="13.00" y="191.5" >[unk..</text>
</g>
<g >
<title>task_tick_fair (881,576 samples, 0.05%)</title><rect x="958.9" y="101" width="0.7" height="15.0" fill="rgb(217,57,13)" rx="2" ry="2" />
<text  x="961.95" y="111.5" ></text>
</g>
<g >
<title>handle_mm_fault (1,266,634 samples, 0.08%)</title><rect x="1140.5" y="197" width="0.9" height="15.0" fill="rgb(234,135,32)" rx="2" ry="2" />
<text  x="1143.46" y="207.5" ></text>
</g>
<g >
<title>do_user_addr_fault (385,957 samples, 0.02%)</title><rect x="51.4" y="117" width="0.3" height="15.0" fill="rgb(228,108,25)" rx="2" ry="2" />
<text  x="54.41" y="127.5" ></text>
</g>
<g >
<title>__libc_start_call_main (1,309,010 samples, 0.08%)</title><rect x="58.8" y="229" width="0.9" height="15.0" fill="rgb(210,26,6)" rx="2" ry="2" />
<text  x="61.78" y="239.5" ></text>
</g>
<g >
<title>[unknown] (821,476,605 samples, 48.87%)</title><rect x="10.0" y="261" width="576.7" height="15.0" fill="rgb(210,24,5)" rx="2" ry="2" />
<text  x="13.00" y="271.5" >[unknown]</text>
</g>
<g >
<title>ksys_write (923,149 samples, 0.05%)</title><rect x="59.7" y="197" width="0.7" height="15.0" fill="rgb(205,4,1)" rx="2" ry="2" />
<text  x="62.70" y="207.5" ></text>
</g>
<g >
<title>w2c_decode__webp__wasmsimd_GetCoeffsAlt (12,930,890 samples, 0.77%)</title><rect x="17.1" y="165" width="9.1" height="15.0" fill="rgb(214,45,10)" rx="2" ry="2" />
<text  x="20.13" y="175.5" ></text>
</g>
<g >
<title>w2c_decode__webp__wasmsimd_TransformUV_C (885,923 samples, 0.05%)</title><rect x="56.2" y="165" width="0.6" height="15.0" fill="rgb(228,108,25)" rx="2" ry="2" />
<text  x="59.22" y="175.5" ></text>
</g>
<g >
<title>w2c_decode__webp__wasmsimd_HE8uv_C (836,308 samples, 0.05%)</title><rect x="28.8" y="165" width="0.6" height="15.0" fill="rgb(218,60,14)" rx="2" ry="2" />
<text  x="31.80" y="175.5" ></text>
</g>
<g >
<title>__mod_lruvec_state (372,955 samples, 0.02%)</title><rect x="60.4" y="69" width="0.2" height="15.0" fill="rgb(226,100,24)" rx="2" ry="2" />
<text  x="63.35" y="79.5" ></text>
</g>
<g >
<title>task_work_run (923,385 samples, 0.05%)</title><rect x="58.1" y="165" width="0.7" height="15.0" fill="rgb(209,22,5)" rx="2" ry="2" />
<text  x="61.14" y="175.5" ></text>
</g>
<g >
<title>__handle_mm_fault (385,957 samples, 0.02%)</title><rect x="51.4" y="85" width="0.3" height="15.0" fill="rgb(207,9,2)" rx="2" ry="2" />
<text  x="54.41" y="95.5" ></text>
</g>
<g >
<title>do_writepages (923,385 samples, 0.05%)</title><rect x="58.1" y="85" width="0.7" height="15.0" fill="rgb(240,164,39)" rx="2" ry="2" />
<text  x="61.14" y="95.5" ></text>
</g>
<g >
<title>vfs_write (923,149 samples, 0.05%)</title><rect x="59.7" y="181" width="0.7" height="15.0" fill="rgb(250,209,50)" rx="2" ry="2" />
<text  x="62.70" y="191.5" ></text>
</g>
<g >
<title>mpage_submit_page (923,385 samples, 0.05%)</title><rect x="58.1" y="53" width="0.7" height="15.0" fill="rgb(232,127,30)" rx="2" ry="2" />
<text  x="61.14" y="63.5" ></text>
</g>
<g >
<title>entry_SYSCALL_64_after_hwframe (923,149 samples, 0.05%)</title><rect x="59.7" y="229" width="0.7" height="15.0" fill="rgb(218,63,15)" rx="2" ry="2" />
<text  x="62.70" y="239.5" ></text>
</g>
<g >
<title>tick_sched_timer (881,576 samples, 0.05%)</title><rect x="958.9" y="165" width="0.7" height="15.0" fill="rgb(254,227,54)" rx="2" ry="2" />
<text  x="961.95" y="175.5" ></text>
</g>
<g >
<title>__sysvec_apic_timer_interrupt (881,576 samples, 0.05%)</title><rect x="958.9" y="213" width="0.7" height="15.0" fill="rgb(242,173,41)" rx="2" ry="2" />
<text  x="961.95" y="223.5" ></text>
</g>
<g >
<title>hrtimer_interrupt (881,576 samples, 0.05%)</title><rect x="958.9" y="197" width="0.7" height="15.0" fill="rgb(228,109,26)" rx="2" ry="2" />
<text  x="961.95" y="207.5" ></text>
</g>
<g >
<title>filemap_map_pages (385,957 samples, 0.02%)</title><rect x="51.4" y="53" width="0.3" height="15.0" fill="rgb(229,112,27)" rx="2" ry="2" />
<text  x="54.41" y="63.5" ></text>
</g>
<g >
<title>w2c_decode__webp__wasmsimd_TM4_SSE2 (3,156,865 samples, 0.19%)</title><rect x="49.5" y="165" width="2.2" height="15.0" fill="rgb(224,90,21)" rx="2" ry="2" />
<text  x="52.46" y="175.5" ></text>
</g>
<g >
<title>do_user_addr_fault (372,955 samples, 0.02%)</title><rect x="60.4" y="197" width="0.2" height="15.0" fill="rgb(228,108,25)" rx="2" ry="2" />
<text  x="63.35" y="207.5" ></text>
</g>
<g >
<title>__close_nocancel (923,385 samples, 0.05%)</title><rect x="58.1" y="245" width="0.7" height="15.0" fill="rgb(228,109,26)" rx="2" ry="2" />
<text  x="61.14" y="255.5" ></text>
</g>
<g >
<title>do_syscall_64 (405,185 samples, 0.02%)</title><rect x="60.6" y="229" width="0.3" height="15.0" fill="rgb(209,20,4)" rx="2" ry="2" />
<text  x="63.61" y="239.5" ></text>
</g>
<g >
<title>filemap_fdatawrite_wbc (923,385 samples, 0.05%)</title><rect x="58.1" y="101" width="0.7" height="15.0" fill="rgb(210,25,6)" rx="2" ry="2" />
<text  x="61.14" y="111.5" ></text>
</g>
<g >
<title>w2c_decode__webp__wasmsimd_Transform_SSE2 (703,836,570 samples, 41.88%)</title><rect x="92.6" y="245" width="494.1" height="15.0" fill="rgb(224,91,21)" rx="2" ry="2" />
<text  x="95.59" y="255.5" >w2c_decode__webp__wasmsimd_Transform_SSE2</text>
</g>
<g >
<title>w2c_decode__webp__wasmsimd_VR4_SSE2 (923,656 samples, 0.05%)</title><rect x="57.5" y="165" width="0.6" height="15.0" fill="rgb(229,112,26)" rx="2" ry="2" />
<text  x="60.49" y="175.5" ></text>
</g>
<g >
<title>w2c_decode__webp__wasmsimd_EmitFancyRGB (924,005 samples, 0.05%)</title><rect x="593.1" y="261" width="0.7" height="15.0" fill="rgb(252,218,52)" rx="2" ry="2" />
<text  x="596.14" y="271.5" ></text>
</g>
<g >
<title>elf_map (293,360 samples, 0.02%)</title><rect x="60.7" y="149" width="0.2" height="15.0" fill="rgb(236,145,34)" rx="2" ry="2" />
<text  x="63.69" y="159.5" ></text>
</g>
<g >
<title>do_mmap (385,784 samples, 0.02%)</title><rect x="58.8" y="149" width="0.3" height="15.0" fill="rgb(228,107,25)" rx="2" ry="2" />
<text  x="61.78" y="159.5" ></text>
</g>
<g >
<title>do_syscall_64 (923,385 samples, 0.05%)</title><rect x="58.1" y="213" width="0.7" height="15.0" fill="rgb(209,20,4)" rx="2" ry="2" />
<text  x="61.14" y="223.5" ></text>
</g>
<g >
<title>w2c_decode__webp__wasmsimd_DC16_SSE2 (1,847,534 samples, 0.11%)</title><rect x="588.0" y="261" width="1.3" height="15.0" fill="rgb(213,37,8)" rx="2" ry="2" />
<text  x="591.01" y="271.5" ></text>
</g>
<g >
<title>__mark_inode_dirty (923,149 samples, 0.05%)</title><rect x="59.7" y="117" width="0.7" height="15.0" fill="rgb(254,227,54)" rx="2" ry="2" />
<text  x="62.70" y="127.5" ></text>
</g>
<g >
<title>w2c_decode__webp__wasmsimd_GetCoeffsAlt (520,089,129 samples, 30.94%)</title><rect x="594.4" y="261" width="365.2" height="15.0" fill="rgb(214,45,10)" rx="2" ry="2" />
<text  x="597.44" y="271.5" >w2c_decode__webp__wasmsimd_GetCoeffsAlt</text>
</g>
<g >
<title>__hrtimer_run_queues (881,576 samples, 0.05%)</title><rect x="958.9" y="181" width="0.7" height="15.0" fill="rgb(237,150,35)" rx="2" ry="2" />
<text  x="961.95" y="191.5" ></text>
</g>
<g >
<title>__memset_avx2_unaligned_erms (1,847,765 samples, 0.11%)</title><rect x="586.7" y="261" width="1.3" height="15.0" fill="rgb(223,84,20)" rx="2" ry="2" />
<text  x="589.71" y="271.5" ></text>
</g>
<g >
<title>asm_exc_page_fault (1,266,634 samples, 0.08%)</title><rect x="1140.5" y="245" width="0.9" height="15.0" fill="rgb(225,93,22)" rx="2" ry="2" />
<text  x="1143.46" y="255.5" ></text>
</g>
<g >
<title>__ext4_journal_start_sb (923,149 samples, 0.05%)</title><rect x="59.7" y="85" width="0.7" height="15.0" fill="rgb(222,81,19)" rx="2" ry="2" />
<text  x="62.70" y="95.5" ></text>
</g>
<g >
<title>asm_sysvec_apic_timer_interrupt (881,576 samples, 0.05%)</title><rect x="958.9" y="245" width="0.7" height="15.0" fill="rgb(232,127,30)" rx="2" ry="2" />
<text  x="961.95" y="255.5" ></text>
</g>
<g >
<title>load_elf_binary (405,185 samples, 0.02%)</title><rect x="60.6" y="165" width="0.3" height="15.0" fill="rgb(223,83,20)" rx="2" ry="2" />
<text  x="63.61" y="175.5" ></text>
</g>
<g >
<title>__fput (923,385 samples, 0.05%)</title><rect x="58.1" y="149" width="0.7" height="15.0" fill="rgb(248,200,47)" rx="2" ry="2" />
<text  x="61.14" y="159.5" ></text>
</g>
<g >
<title>vm_mmap_pgoff (293,360 samples, 0.02%)</title><rect x="60.7" y="133" width="0.2" height="15.0" fill="rgb(237,150,35)" rx="2" ry="2" />
<text  x="63.69" y="143.5" ></text>
</g>
<g >
<title>asm_exc_page_fault (385,957 samples, 0.02%)</title><rect x="51.4" y="149" width="0.3" height="15.0" fill="rgb(225,93,22)" rx="2" ry="2" />
<text  x="54.41" y="159.5" ></text>
</g>
<g >
<title>w2c_decode__webp__wasmsimd_GetLargeValue (56,079,335 samples, 3.34%)</title><rect x="959.6" y="261" width="39.3" height="15.0" fill="rgb(234,137,32)" rx="2" ry="2" />
<text  x="962.56" y="271.5" >w2c..</text>
</g>
<g >
<title>w2c_decode__webp__wasmsimd_IDecode (5,540,043 samples, 0.33%)</title><rect x="30.0" y="165" width="3.9" height="15.0" fill="rgb(237,147,35)" rx="2" ry="2" />
<text  x="33.04" y="175.5" ></text>
</g>
<g >
<title>w2c_decode__webp__wasmsimd_SimpleHFilter16_SSE2 (10,041,846 samples, 0.60%)</title><rect x="1117.3" y="261" width="7.0" height="15.0" fill="rgb(211,29,7)" rx="2" ry="2" />
<text  x="1120.30" y="271.5" ></text>
</g>
<g >
<title>w2c_decode__webp__wasmsimd_TransformAC3_C (3,692,697 samples, 0.22%)</title><rect x="1126.3" y="261" width="2.6" height="15.0" fill="rgb(251,211,50)" rx="2" ry="2" />
<text  x="1129.29" y="271.5" ></text>
</g>
<g >
<title>do_execveat_common.isra.0 (405,185 samples, 0.02%)</title><rect x="60.6" y="197" width="0.3" height="15.0" fill="rgb(231,123,29)" rx="2" ry="2" />
<text  x="63.61" y="207.5" ></text>
</g>
<g >
<title>exit_to_user_mode_prepare (923,385 samples, 0.05%)</title><rect x="58.1" y="181" width="0.7" height="15.0" fill="rgb(228,108,25)" rx="2" ry="2" />
<text  x="61.14" y="191.5" ></text>
</g>
<g >
<title>scheduler_tick (881,576 samples, 0.05%)</title><rect x="958.9" y="117" width="0.7" height="15.0" fill="rgb(246,190,45)" rx="2" ry="2" />
<text  x="961.95" y="127.5" ></text>
</g>
<g >
<title>w2c_decode__webp__wasmsimd_SimpleVFilter16i_SSE2 (1,846,988 samples, 0.11%)</title><rect x="1125.0" y="261" width="1.3" height="15.0" fill="rgb(242,173,41)" rx="2" ry="2" />
<text  x="1128.00" y="271.5" ></text>
</g>
<g >
<title>generic_write_end (923,149 samples, 0.05%)</title><rect x="59.7" y="133" width="0.7" height="15.0" fill="rgb(206,8,1)" rx="2" ry="2" />
<text  x="62.70" y="143.5" ></text>
</g>
<g >
<title>tick_sched_handle (881,576 samples, 0.05%)</title><rect x="958.9" y="149" width="0.7" height="15.0" fill="rgb(219,68,16)" rx="2" ry="2" />
<text  x="961.95" y="159.5" ></text>
</g>
<g >
<title>handle_mm_fault (372,955 samples, 0.02%)</title><rect x="60.4" y="181" width="0.2" height="15.0" fill="rgb(234,135,32)" rx="2" ry="2" />
<text  x="63.35" y="191.5" ></text>
</g>
<g >
<title>[unknown] (68,564,555 samples, 4.08%)</title><rect x="10.0" y="229" width="48.1" height="15.0" fill="rgb(210,24,5)" rx="2" ry="2" />
<text  x="13.00" y="239.5" >[unk..</text>
</g>
<g >
<title>__folio_alloc (455,710 samples, 0.03%)</title><rect x="1141.0" y="149" width="0.4" height="15.0" fill="rgb(224,91,21)" rx="2" ry="2" />
<text  x="1144.03" y="159.5" ></text>
</g>
<g >
<title>exc_page_fault (385,957 samples, 0.02%)</title><rect x="51.4" y="133" width="0.3" height="15.0" fill="rgb(212,35,8)" rx="2" ry="2" />
<text  x="54.41" y="143.5" ></text>
</g>
<g >
<title>clear_page_rep (455,710 samples, 0.03%)</title><rect x="1141.0" y="101" width="0.4" height="15.0" fill="rgb(253,221,52)" rx="2" ry="2" />
<text  x="1144.03" y="111.5" ></text>
</g>
<g >
<title>generic_perform_write (923,149 samples, 0.05%)</title><rect x="59.7" y="149" width="0.7" height="15.0" fill="rgb(236,146,35)" rx="2" ry="2" />
<text  x="62.70" y="159.5" ></text>
</g>
<g >
<title>bprm_execve (405,185 samples, 0.02%)</title><rect x="60.6" y="181" width="0.3" height="15.0" fill="rgb(218,61,14)" rx="2" ry="2" />
<text  x="63.61" y="191.5" ></text>
</g>
<g >
<title>w2c_decode__webp__wasmsimd_TransformUV_C (30,392,012 samples, 1.81%)</title><rect x="71.3" y="245" width="21.3" height="15.0" fill="rgb(228,108,25)" rx="2" ry="2" />
<text  x="74.25" y="255.5" >w..</text>
</g>
<g >
<title>folio_batch_move_lru (810,924 samples, 0.05%)</title><rect x="1140.5" y="149" width="0.5" height="15.0" fill="rgb(207,10,2)" rx="2" ry="2" />
<text  x="1143.46" y="159.5" ></text>
</g>
<g >
<title>[unknown] (68,564,555 samples, 4.08%)</title><rect x="10.0" y="245" width="48.1" height="15.0" fill="rgb(210,24,5)" rx="2" ry="2" />
<text  x="13.00" y="255.5" >[unk..</text>
</g>
<g >
<title>w2c_decode__webp__wasmsimd_TransformWHT_C (1,846,273 samples, 0.11%)</title><rect x="1128.9" y="261" width="1.3" height="15.0" fill="rgb(213,38,9)" rx="2" ry="2" />
<text  x="1131.89" y="271.5" ></text>
</g>
<g >
<title>all (1,680,799,830 samples, 100%)</title><rect x="10.0" y="293" width="1180.0" height="15.0" fill="rgb(213,39,9)" rx="2" ry="2" />
<text  x="13.00" y="303.5" ></text>
</g>
<g >
<title>w2c_decode__webp__wasmsimd_TransformDCUV_C (924,227 samples, 0.05%)</title><rect x="52.3" y="165" width="0.7" height="15.0" fill="rgb(206,6,1)" rx="2" ry="2" />
<text  x="55.32" y="175.5" ></text>
</g>
<g >
<title>w2c_decode__webp__wasmsimd_HU4_C (923,099 samples, 0.05%)</title><rect x="29.4" y="165" width="0.6" height="15.0" fill="rgb(208,17,4)" rx="2" ry="2" />
<text  x="32.39" y="175.5" ></text>
</g>
<g >
<title>w2c_decode__webp__wasmsimd_DC8uv_SSE2 (5,456,337 samples, 0.32%)</title><rect x="589.3" y="261" width="3.8" height="15.0" fill="rgb(248,200,48)" rx="2" ry="2" />
<text  x="592.31" y="271.5" ></text>
</g>
<g >
<title>entry_SYSCALL_64_after_hwframe (923,385 samples, 0.05%)</title><rect x="58.1" y="229" width="0.7" height="15.0" fill="rgb(218,63,15)" rx="2" ry="2" />
<text  x="61.14" y="239.5" ></text>
</g>
<g >
<title>ext4_dirty_inode (923,149 samples, 0.05%)</title><rect x="59.7" y="101" width="0.7" height="15.0" fill="rgb(227,102,24)" rx="2" ry="2" />
<text  x="62.70" y="111.5" ></text>
</g>
<g >
<title>w2c_decode__webp__wasmsimd_VE4_SSE2 (924,029 samples, 0.05%)</title><rect x="56.8" y="165" width="0.7" height="15.0" fill="rgb(213,38,9)" rx="2" ry="2" />
<text  x="59.84" y="175.5" ></text>
</g>
<g >
<title>w2c_decode__webp__wasmsimd_VE8uv_SSE2 (924,365 samples, 0.05%)</title><rect x="1141.4" y="261" width="0.6" height="15.0" fill="rgb(219,66,15)" rx="2" ry="2" />
<text  x="1144.35" y="271.5" ></text>
</g>
<g >
<title>update_curr (881,576 samples, 0.05%)</title><rect x="958.9" y="85" width="0.7" height="15.0" fill="rgb(227,105,25)" rx="2" ry="2" />
<text  x="961.95" y="95.5" ></text>
</g>
<g >
<title>mmap_region (385,784 samples, 0.02%)</title><rect x="58.8" y="133" width="0.3" height="15.0" fill="rgb(231,121,28)" rx="2" ry="2" />
<text  x="61.78" y="143.5" ></text>
</g>
<g >
<title>get_page_from_freelist (455,710 samples, 0.03%)</title><rect x="1141.0" y="117" width="0.4" height="15.0" fill="rgb(252,218,52)" rx="2" ry="2" />
<text  x="1144.03" y="127.5" ></text>
</g>
<g >
<title>decode_webp_was (1,680,768,700 samples, 100.00%)</title><rect x="10.0" y="277" width="1180.0" height="15.0" fill="rgb(216,54,12)" rx="2" ry="2" />
<text  x="13.00" y="287.5" >decode_webp_was</text>
</g>
<g >
<title>__handle_mm_fault (1,266,634 samples, 0.08%)</title><rect x="1140.5" y="181" width="0.9" height="15.0" fill="rgb(207,9,2)" rx="2" ry="2" />
<text  x="1143.46" y="191.5" ></text>
</g>
<g >
<title>exc_page_fault (372,955 samples, 0.02%)</title><rect x="60.4" y="213" width="0.2" height="15.0" fill="rgb(212,35,8)" rx="2" ry="2" />
<text  x="63.35" y="223.5" ></text>
</g>
<g >
<title>__handle_mm_fault (372,955 samples, 0.02%)</title><rect x="60.4" y="165" width="0.2" height="15.0" fill="rgb(207,9,2)" rx="2" ry="2" />
<text  x="63.35" y="175.5" ></text>
</g>
<g >
<title>ext4_release_file (923,385 samples, 0.05%)</title><rect x="58.1" y="133" width="0.7" height="15.0" fill="rgb(225,92,22)" rx="2" ry="2" />
<text  x="61.14" y="143.5" ></text>
</g>
<g >
<title>vma_alloc_folio (455,710 samples, 0.03%)</title><rect x="1141.0" y="165" width="0.4" height="15.0" fill="rgb(245,187,44)" rx="2" ry="2" />
<text  x="1144.03" y="175.5" ></text>
</g>
<g >
<title>ext4_buffered_write_iter (923,149 samples, 0.05%)</title><rect x="59.7" y="165" width="0.7" height="15.0" fill="rgb(213,40,9)" rx="2" ry="2" />
<text  x="62.70" y="175.5" ></text>
</g>
<g >
<title>w2c_decode__webp__wasmsimd_RD4_SSE2 (2,770,245 samples, 0.16%)</title><rect x="33.9" y="165" width="2.0" height="15.0" fill="rgb(245,187,44)" rx="2" ry="2" />
<text  x="36.93" y="175.5" ></text>
</g>
<g >
<title>do_set_pte (372,955 samples, 0.02%)</title><rect x="60.4" y="117" width="0.2" height="15.0" fill="rgb(253,221,52)" rx="2" ry="2" />
<text  x="63.35" y="127.5" ></text>
</g>
<g >
<title>do_mmap (293,360 samples, 0.02%)</title><rect x="60.7" y="117" width="0.2" height="15.0" fill="rgb(228,107,25)" rx="2" ry="2" />
<text  x="63.69" y="127.5" ></text>
</g>
<g >
<title>update_process_times (881,576 samples, 0.05%)</title><rect x="958.9" y="133" width="0.7" height="15.0" fill="rgb(250,209,50)" rx="2" ry="2" />
<text  x="961.95" y="143.5" ></text>
</g>
<g >
<title>w2c_decode__webp__wasmsimd_memcpy (923,485 samples, 0.05%)</title><rect x="1189.3" y="261" width="0.7" height="15.0" fill="rgb(249,206,49)" rx="2" ry="2" />
<text  x="1192.33" y="271.5" ></text>
</g>
<g >
<title>w2c_decode__webp__wasmsimd_ReconstructRow (3,693,231 samples, 0.22%)</title><rect x="68.7" y="245" width="2.6" height="15.0" fill="rgb(217,55,13)" rx="2" ry="2" />
<text  x="71.66" y="255.5" ></text>
</g>
<g >
<title>jbd2__journal_start (923,149 samples, 0.05%)</title><rect x="59.7" y="69" width="0.7" height="15.0" fill="rgb(252,216,51)" rx="2" ry="2" />
<text  x="62.70" y="79.5" ></text>
</g>
<g >
<title>__mod_lruvec_page_state (372,955 samples, 0.02%)</title><rect x="60.4" y="85" width="0.2" height="15.0" fill="rgb(245,185,44)" rx="2" ry="2" />
<text  x="63.35" y="95.5" ></text>
</g>
<g >
<title>folio_add_lru (810,924 samples, 0.05%)</title><rect x="1140.5" y="165" width="0.5" height="15.0" fill="rgb(208,17,4)" rx="2" ry="2" />
<text  x="1143.46" y="175.5" ></text>
</g>
<g >
<title>w2c_decode__webp__wasmsimd_ReconstructRow (19,352,480 samples, 1.15%)</title><rect x="35.9" y="165" width="13.6" height="15.0" fill="rgb(217,55,13)" rx="2" ry="2" />
<text  x="38.87" y="175.5" ></text>
</g>
<g >
<title>page_add_file_rmap (372,955 samples, 0.02%)</title><rect x="60.4" y="101" width="0.2" height="15.0" fill="rgb(207,13,3)" rx="2" ry="2" />
<text  x="63.35" y="111.5" ></text>
</g>
<g >
<title>sysvec_apic_timer_interrupt (881,576 samples, 0.05%)</title><rect x="958.9" y="229" width="0.7" height="15.0" fill="rgb(220,69,16)" rx="2" ry="2" />
<text  x="961.95" y="239.5" ></text>
</g>
<g >
<title>w2c_decode__webp__wasmsimd_IDecode (1,846,534 samples, 0.11%)</title><rect x="67.4" y="245" width="1.3" height="15.0" fill="rgb(237,147,35)" rx="2" ry="2" />
<text  x="70.36" y="255.5" ></text>
</g>
<g >
<title>next_uptodate_page (385,957 samples, 0.02%)</title><rect x="51.4" y="37" width="0.3" height="15.0" fill="rgb(210,25,6)" rx="2" ry="2" />
<text  x="54.41" y="47.5" ></text>
</g>
<g >
<title>w2c_decode__webp__wasmsimd_ReconstructRow (8,256,239 samples, 0.49%)</title><rect x="1111.5" y="261" width="5.8" height="15.0" fill="rgb(217,55,13)" rx="2" ry="2" />
<text  x="1114.50" y="271.5" ></text>
</g>
<g >
<title>perf_iterate_sb (385,784 samples, 0.02%)</title><rect x="58.8" y="101" width="0.3" height="15.0" fill="rgb(244,179,42)" rx="2" ry="2" />
<text  x="61.78" y="111.5" ></text>
</g>
<g >
<title>w2c_decode__webp__wasmsimd_IDecode (160,342,809 samples, 9.54%)</title><rect x="998.9" y="261" width="112.6" height="15.0" fill="rgb(237,147,35)" rx="2" ry="2" />
<text  x="1001.93" y="271.5" >w2c_decode__w..</text>
</g>
<g >
<title>w2c_decode__webp__wasmsimd_TM8uv_SSE2 (924,049 samples, 0.05%)</title><rect x="51.7" y="165" width="0.6" height="15.0" fill="rgb(230,118,28)" rx="2" ry="2" />
<text  x="54.68" y="175.5" ></text>
</g>
<g >
<title>do_fault (372,955 samples, 0.02%)</title><rect x="60.4" y="149" width="0.2" height="15.0" fill="rgb(248,200,47)" rx="2" ry="2" />
<text  x="63.35" y="159.5" ></text>
</g>
<g >
<title>do_syscall_64 (385,784 samples, 0.02%)</title><rect x="58.8" y="181" width="0.3" height="15.0" fill="rgb(209,20,4)" rx="2" ry="2" />
<text  x="61.78" y="191.5" ></text>
</g>
<g >
<title>ext4_writepages (923,385 samples, 0.05%)</title><rect x="58.1" y="69" width="0.7" height="15.0" fill="rgb(240,165,39)" rx="2" ry="2" />
<text  x="61.14" y="79.5" ></text>
</g>
</g>
</svg>
