<?xml version="1.0" standalone="no"?>
<!DOCTYPE svg PUBLIC "-//W3C//DTD SVG 1.1//EN" "http://www.w3.org/Graphics/SVG/1.1/DTD/svg11.dtd">
<svg version="1.1" width="1200" height="374" onload="init(evt)" viewBox="0 0 1200 374" xmlns="http://www.w3.org/2000/svg" xmlns:xlink="http://www.w3.org/1999/xlink">
<!-- Flame graph stack visualization. See https://github.com/brendangregg/FlameGraph for latest version, and http://www.brendangregg.com/flamegraphs.html for examples. -->
<!-- NOTES:  -->
<defs>
	<linearGradient id="background" y1="0" y2="1" x1="0" x2="0" >
		<stop stop-color="#eeeeee" offset="5%" />
		<stop stop-color="#eeeeb0" offset="95%" />
	</linearGradient>
</defs>
<style type="text/css">
	text { font-family:Verdana; font-size:12px; fill:rgb(0,0,0); }
	#search, #ignorecase { opacity:0.1; cursor:pointer; }
	#search:hover, #search.show, #ignorecase:hover, #ignorecase.show { opacity:1; }
	#subtitle { text-anchor:middle; font-color:rgb(160,160,160); }
	#title { text-anchor:middle; font-size:17px}
	#unzoom { cursor:pointer; }
	#frames > *:hover { stroke:black; stroke-width:0.5; cursor:pointer; }
	.hide { display:none; }
	.parent { opacity:0.5; }
</style>
<script type="text/ecmascript">
<![CDATA[
	"use strict";
	var details, searchbtn, unzoombtn, matchedtxt, svg, searching, currentSearchTerm, ignorecase, ignorecaseBtn;
	function init(evt) {
		details = document.getElementById("details").firstChild;
		searchbtn = document.getElementById("search");
		ignorecaseBtn = document.getElementById("ignorecase");
		unzoombtn = document.getElementById("unzoom");
		matchedtxt = document.getElementById("matched");
		svg = document.getElementsByTagName("svg")[0];
		searching = 0;
		currentSearchTerm = null;

		// use GET parameters to restore a flamegraphs state.
		var params = get_params();
		if (params.x && params.y)
			zoom(find_group(document.querySelector('[x="' + params.x + '"][y="' + params.y + '"]')));
                if (params.s) search(params.s);
	}

	// event listeners
	window.addEventListener("click", function(e) {
		var target = find_group(e.target);
		if (target) {
			if (target.nodeName == "a") {
				if (e.ctrlKey === false) return;
				e.preventDefault();
			}
			if (target.classList.contains("parent")) unzoom(true);
			zoom(target);
			if (!document.querySelector('.parent')) {
				// we have basically done a clearzoom so clear the url
				var params = get_params();
				if (params.x) delete params.x;
				if (params.y) delete params.y;
				history.replaceState(null, null, parse_params(params));
				unzoombtn.classList.add("hide");
				return;
			}

			// set parameters for zoom state
			var el = target.querySelector("rect");
			if (el && el.attributes && el.attributes.y && el.attributes._orig_x) {
				var params = get_params()
				params.x = el.attributes._orig_x.value;
				params.y = el.attributes.y.value;
				history.replaceState(null, null, parse_params(params));
			}
		}
		else if (e.target.id == "unzoom") clearzoom();
		else if (e.target.id == "search") search_prompt();
		else if (e.target.id == "ignorecase") toggle_ignorecase();
	}, false)

	// mouse-over for info
	// show
	window.addEventListener("mouseover", function(e) {
		var target = find_group(e.target);
		if (target) details.nodeValue = "Function: " + g_to_text(target);
	}, false)

	// clear
	window.addEventListener("mouseout", function(e) {
		var target = find_group(e.target);
		if (target) details.nodeValue = ' ';
	}, false)

	// ctrl-F for search
	// ctrl-I to toggle case-sensitive search
	window.addEventListener("keydown",function (e) {
		if (e.keyCode === 114 || (e.ctrlKey && e.keyCode === 70)) {
			e.preventDefault();
			search_prompt();
		}
		else if (e.ctrlKey && e.keyCode === 73) {
			e.preventDefault();
			toggle_ignorecase();
		}
	}, false)

	// functions
	function get_params() {
		var params = {};
		var paramsarr = window.location.search.substr(1).split('&');
		for (var i = 0; i < paramsarr.length; ++i) {
			var tmp = paramsarr[i].split("=");
			if (!tmp[0] || !tmp[1]) continue;
			params[tmp[0]]  = decodeURIComponent(tmp[1]);
		}
		return params;
	}
	function parse_params(params) {
		var uri = "?";
		for (var key in params) {
			uri += key + '=' + encodeURIComponent(params[key]) + '&';
		}
		if (uri.slice(-1) == "&")
			uri = uri.substring(0, uri.length - 1);
		if (uri == '?')
			uri = window.location.href.split('?')[0];
		return uri;
	}
	function find_child(node, selector) {
		var children = node.querySelectorAll(selector);
		if (children.length) return children[0];
	}
	function find_group(node) {
		var parent = node.parentElement;
		if (!parent) return;
		if (parent.id == "frames") return node;
		return find_group(parent);
	}
	function orig_save(e, attr, val) {
		if (e.attributes["_orig_" + attr] != undefined) return;
		if (e.attributes[attr] == undefined) return;
		if (val == undefined) val = e.attributes[attr].value;
		e.setAttribute("_orig_" + attr, val);
	}
	function orig_load(e, attr) {
		if (e.attributes["_orig_"+attr] == undefined) return;
		e.attributes[attr].value = e.attributes["_orig_" + attr].value;
		e.removeAttribute("_orig_"+attr);
	}
	function g_to_text(e) {
		var text = find_child(e, "title").firstChild.nodeValue;
		return (text)
	}
	function g_to_func(e) {
		var func = g_to_text(e);
		// if there's any manipulation we want to do to the function
		// name before it's searched, do it here before returning.
		return (func);
	}
	function update_text(e) {
		var r = find_child(e, "rect");
		var t = find_child(e, "text");
		var w = parseFloat(r.attributes.width.value) -3;
		var txt = find_child(e, "title").textContent.replace(/\([^(]*\)$/,"");
		t.attributes.x.value = parseFloat(r.attributes.x.value) + 3;

		// Smaller than this size won't fit anything
		if (w < 2 * 12 * 0.59) {
			t.textContent = "";
			return;
		}

		t.textContent = txt;
		var sl = t.getSubStringLength(0, txt.length);
		// check if only whitespace or if we can fit the entire string into width w
		if (/^ *$/.test(txt) || sl < w)
			return;

		// this isn't perfect, but gives a good starting point
		// and avoids calling getSubStringLength too often
		var start = Math.floor((w/sl) * txt.length);
		for (var x = start; x > 0; x = x-2) {
			if (t.getSubStringLength(0, x + 2) <= w) {
				t.textContent = txt.substring(0, x) + "..";
				return;
			}
		}
		t.textContent = "";
	}

	// zoom
	function zoom_reset(e) {
		if (e.attributes != undefined) {
			orig_load(e, "x");
			orig_load(e, "width");
		}
		if (e.childNodes == undefined) return;
		for (var i = 0, c = e.childNodes; i < c.length; i++) {
			zoom_reset(c[i]);
		}
	}
	function zoom_child(e, x, ratio) {
		if (e.attributes != undefined) {
			if (e.attributes.x != undefined) {
				orig_save(e, "x");
				e.attributes.x.value = (parseFloat(e.attributes.x.value) - x - 10) * ratio + 10;
				if (e.tagName == "text")
					e.attributes.x.value = find_child(e.parentNode, "rect[x]").attributes.x.value + 3;
			}
			if (e.attributes.width != undefined) {
				orig_save(e, "width");
				e.attributes.width.value = parseFloat(e.attributes.width.value) * ratio;
			}
		}

		if (e.childNodes == undefined) return;
		for (var i = 0, c = e.childNodes; i < c.length; i++) {
			zoom_child(c[i], x - 10, ratio);
		}
	}
	function zoom_parent(e) {
		if (e.attributes) {
			if (e.attributes.x != undefined) {
				orig_save(e, "x");
				e.attributes.x.value = 10;
			}
			if (e.attributes.width != undefined) {
				orig_save(e, "width");
				e.attributes.width.value = parseInt(svg.width.baseVal.value) - (10 * 2);
			}
		}
		if (e.childNodes == undefined) return;
		for (var i = 0, c = e.childNodes; i < c.length; i++) {
			zoom_parent(c[i]);
		}
	}
	function zoom(node) {
		var attr = find_child(node, "rect").attributes;
		var width = parseFloat(attr.width.value);
		var xmin = parseFloat(attr.x.value);
		var xmax = parseFloat(xmin + width);
		var ymin = parseFloat(attr.y.value);
		var ratio = (svg.width.baseVal.value - 2 * 10) / width;

		// XXX: Workaround for JavaScript float issues (fix me)
		var fudge = 0.0001;

		unzoombtn.classList.remove("hide");

		var el = document.getElementById("frames").children;
		for (var i = 0; i < el.length; i++) {
			var e = el[i];
			var a = find_child(e, "rect").attributes;
			var ex = parseFloat(a.x.value);
			var ew = parseFloat(a.width.value);
			var upstack;
			// Is it an ancestor
			if (0 == 0) {
				upstack = parseFloat(a.y.value) > ymin;
			} else {
				upstack = parseFloat(a.y.value) < ymin;
			}
			if (upstack) {
				// Direct ancestor
				if (ex <= xmin && (ex+ew+fudge) >= xmax) {
					e.classList.add("parent");
					zoom_parent(e);
					update_text(e);
				}
				// not in current path
				else
					e.classList.add("hide");
			}
			// Children maybe
			else {
				// no common path
				if (ex < xmin || ex + fudge >= xmax) {
					e.classList.add("hide");
				}
				else {
					zoom_child(e, xmin, ratio);
					update_text(e);
				}
			}
		}
		search();
	}
	function unzoom(dont_update_text) {
		unzoombtn.classList.add("hide");
		var el = document.getElementById("frames").children;
		for(var i = 0; i < el.length; i++) {
			el[i].classList.remove("parent");
			el[i].classList.remove("hide");
			zoom_reset(el[i]);
			if(!dont_update_text) update_text(el[i]);
		}
		search();
	}
	function clearzoom() {
		unzoom();

		// remove zoom state
		var params = get_params();
		if (params.x) delete params.x;
		if (params.y) delete params.y;
		history.replaceState(null, null, parse_params(params));
	}

	// search
	function toggle_ignorecase() {
		ignorecase = !ignorecase;
		if (ignorecase) {
			ignorecaseBtn.classList.add("show");
		} else {
			ignorecaseBtn.classList.remove("show");
		}
		reset_search();
		search();
	}
	function reset_search() {
		var el = document.querySelectorAll("#frames rect");
		for (var i = 0; i < el.length; i++) {
			orig_load(el[i], "fill")
		}
		var params = get_params();
		delete params.s;
		history.replaceState(null, null, parse_params(params));
	}
	function search_prompt() {
		if (!searching) {
			var term = prompt("Enter a search term (regexp " +
			    "allowed, eg: ^ext4_)"
			    + (ignorecase ? ", ignoring case" : "")
			    + "\nPress Ctrl-i to toggle case sensitivity", "");
			if (term != null) search(term);
		} else {
			reset_search();
			searching = 0;
			currentSearchTerm = null;
			searchbtn.classList.remove("show");
			searchbtn.firstChild.nodeValue = "Search"
			matchedtxt.classList.add("hide");
			matchedtxt.firstChild.nodeValue = ""
		}
	}
	function search(term) {
		if (term) currentSearchTerm = term;

		var re = new RegExp(currentSearchTerm, ignorecase ? 'i' : '');
		var el = document.getElementById("frames").children;
		var matches = new Object();
		var maxwidth = 0;
		for (var i = 0; i < el.length; i++) {
			var e = el[i];
			var func = g_to_func(e);
			var rect = find_child(e, "rect");
			if (func == null || rect == null)
				continue;

			// Save max width. Only works as we have a root frame
			var w = parseFloat(rect.attributes.width.value);
			if (w > maxwidth)
				maxwidth = w;

			if (func.match(re)) {
				// highlight
				var x = parseFloat(rect.attributes.x.value);
				orig_save(rect, "fill");
				rect.attributes.fill.value = "rgb(230,0,230)";

				// remember matches
				if (matches[x] == undefined) {
					matches[x] = w;
				} else {
					if (w > matches[x]) {
						// overwrite with parent
						matches[x] = w;
					}
				}
				searching = 1;
			}
		}
		if (!searching)
			return;
		var params = get_params();
		params.s = currentSearchTerm;
		history.replaceState(null, null, parse_params(params));

		searchbtn.classList.add("show");
		searchbtn.firstChild.nodeValue = "Reset Search";

		// calculate percent matched, excluding vertical overlap
		var count = 0;
		var lastx = -1;
		var lastw = 0;
		var keys = Array();
		for (k in matches) {
			if (matches.hasOwnProperty(k))
				keys.push(k);
		}
		// sort the matched frames by their x location
		// ascending, then width descending
		keys.sort(function(a, b){
			return a - b;
		});
		// Step through frames saving only the biggest bottom-up frames
		// thanks to the sort order. This relies on the tree property
		// where children are always smaller than their parents.
		var fudge = 0.0001;	// JavaScript floating point
		for (var k in keys) {
			var x = parseFloat(keys[k]);
			var w = matches[keys[k]];
			if (x >= lastx + lastw - fudge) {
				count += w;
				lastx = x;
				lastw = w;
			}
		}
		// display matched percent
		matchedtxt.classList.remove("hide");
		var pct = 100 * count / maxwidth;
		if (pct != 100) pct = pct.toFixed(1)
		matchedtxt.firstChild.nodeValue = "Matched: " + pct + "%";
	}
]]>
</script>
<rect x="0.0" y="0" width="1200.0" height="374.0" fill="url(#background)"  />
<text id="title" x="600.00" y="24" >Flame Graph</text>
<text id="details" x="10.00" y="357" > </text>
<text id="unzoom" x="10.00" y="24" class="hide">Reset Zoom</text>
<text id="search" x="1090.00" y="24" >Search</text>
<text id="ignorecase" x="1174.00" y="24" >ic</text>
<text id="matched" x="1090.00" y="357" > </text>
<g id="frames">
<g >
<title>exc_page_fault (720,578 samples, 0.08%)</title><rect x="224.4" y="261" width="1.0" height="15.0" fill="rgb(212,35,8)" rx="2" ry="2" />
<text  x="227.43" y="271.5" ></text>
</g>
<g >
<title>tlb_finish_mmu (923,836 samples, 0.10%)</title><rect x="10.0" y="117" width="1.2" height="15.0" fill="rgb(251,212,50)" rx="2" ry="2" />
<text  x="13.00" y="127.5" ></text>
</g>
<g >
<title>__handle_mm_fault (532,067 samples, 0.06%)</title><rect x="14.4" y="197" width="0.8" height="15.0" fill="rgb(207,9,2)" rx="2" ry="2" />
<text  x="17.45" y="207.5" ></text>
</g>
<g >
<title>w2c_decode__webp__wasm_PredictorAdd12_C (3,590,690 samples, 0.41%)</title><rect x="36.5" y="277" width="4.8" height="15.0" fill="rgb(206,6,1)" rx="2" ry="2" />
<text  x="39.52" y="287.5" ></text>
</g>
<g >
<title>generic_write_end (923,959 samples, 0.10%)</title><rect x="12.0" y="165" width="1.2" height="15.0" fill="rgb(206,8,1)" rx="2" ry="2" />
<text  x="14.97" y="175.5" ></text>
</g>
<g >
<title>do_syscall_64 (1,847,935 samples, 0.21%)</title><rect x="12.0" y="245" width="2.4" height="15.0" fill="rgb(209,20,4)" rx="2" ry="2" />
<text  x="14.97" y="255.5" ></text>
</g>
<g >
<title>w2c_decode__webp__wasm_VP8LAddGreenToBlueAndRed_C (45,086,866 samples, 5.11%)</title><rect x="812.1" y="293" width="60.3" height="15.0" fill="rgb(236,142,34)" rx="2" ry="2" />
<text  x="815.10" y="303.5" >w2c_de..</text>
</g>
<g >
<title>__memset_avx2_unaligned_erms (923,383 samples, 0.10%)</title><rect x="225.4" y="293" width="1.2" height="15.0" fill="rgb(223,84,20)" rx="2" ry="2" />
<text  x="228.40" y="303.5" ></text>
</g>
<g >
<title>__libc_write (1,847,935 samples, 0.21%)</title><rect x="12.0" y="277" width="2.4" height="15.0" fill="rgb(238,154,37)" rx="2" ry="2" />
<text  x="14.97" y="287.5" ></text>
</g>
<g >
<title>try_to_wake_up (923,976 samples, 0.10%)</title><rect x="13.2" y="117" width="1.2" height="15.0" fill="rgb(220,70,16)" rx="2" ry="2" />
<text  x="16.21" y="127.5" ></text>
</g>
<g >
<title>__ext4_mark_inode_dirty (923,959 samples, 0.10%)</title><rect x="12.0" y="117" width="1.2" height="15.0" fill="rgb(227,104,25)" rx="2" ry="2" />
<text  x="14.97" y="127.5" ></text>
</g>
<g >
<title>unmap_region (923,836 samples, 0.10%)</title><rect x="10.0" y="133" width="1.2" height="15.0" fill="rgb(219,64,15)" rx="2" ry="2" />
<text  x="13.00" y="143.5" ></text>
</g>
<g >
<title>llist_add_batch (923,976 samples, 0.10%)</title><rect x="13.2" y="69" width="1.2" height="15.0" fill="rgb(231,121,28)" rx="2" ry="2" />
<text  x="16.21" y="79.5" ></text>
</g>
<g >
<title>_copy_to_iter (551,978 samples, 0.06%)</title><rect x="11.2" y="165" width="0.8" height="15.0" fill="rgb(227,105,25)" rx="2" ry="2" />
<text  x="14.24" y="175.5" ></text>
</g>
<g >
<title>__do_global_dtors_aux (923,836 samples, 0.10%)</title><rect x="10.0" y="277" width="1.2" height="15.0" fill="rgb(245,185,44)" rx="2" ry="2" />
<text  x="13.00" y="287.5" ></text>
</g>
<g >
<title>w2c_decode__webp__wasm_VP8LDoFillBitWindow (87,545,729 samples, 9.92%)</title><rect x="944.9" y="293" width="117.1" height="15.0" fill="rgb(232,127,30)" rx="2" ry="2" />
<text  x="947.88" y="303.5" >w2c_decode__we..</text>
</g>
<g >
<title>__smp_call_single_queue (923,976 samples, 0.10%)</title><rect x="13.2" y="85" width="1.2" height="15.0" fill="rgb(219,66,15)" rx="2" ry="2" />
<text  x="16.21" y="95.5" ></text>
</g>
<g >
<title>free_unref_page_list (923,836 samples, 0.10%)</title><rect x="10.0" y="69" width="1.2" height="15.0" fill="rgb(221,77,18)" rx="2" ry="2" />
<text  x="13.00" y="79.5" ></text>
</g>
<g >
<title>__list_del_entry_valid (720,578 samples, 0.08%)</title><rect x="224.4" y="133" width="1.0" height="15.0" fill="rgb(239,158,37)" rx="2" ry="2" />
<text  x="227.43" y="143.5" ></text>
</g>
<g >
<title>__mark_inode_dirty (923,959 samples, 0.10%)</title><rect x="12.0" y="149" width="1.2" height="15.0" fill="rgb(254,227,54)" rx="2" ry="2" />
<text  x="14.97" y="159.5" ></text>
</g>
<g >
<title>w2c_decode__webp__wasm_VP8LTransformColorInverse_C (13,715,140 samples, 1.55%)</title><rect x="203.7" y="277" width="18.3" height="15.0" fill="rgb(249,205,49)" rx="2" ry="2" />
<text  x="206.69" y="287.5" ></text>
</g>
<g >
<title>vfs_write (1,847,935 samples, 0.21%)</title><rect x="12.0" y="213" width="2.4" height="15.0" fill="rgb(250,209,50)" rx="2" ry="2" />
<text  x="14.97" y="223.5" ></text>
</g>
<g >
<title>asm_sysvec_apic_timer_interrupt (1,847,843 samples, 0.21%)</title><rect x="743.0" y="277" width="2.5" height="15.0" fill="rgb(232,127,30)" rx="2" ry="2" />
<text  x="746.04" y="287.5" ></text>
</g>
<g >
<title>tty_insert_flip_string_and_push_buffer (923,976 samples, 0.10%)</title><rect x="13.2" y="165" width="1.2" height="15.0" fill="rgb(217,55,13)" rx="2" ry="2" />
<text  x="16.21" y="175.5" ></text>
</g>
<g >
<title>handle_mm_fault (779,332 samples, 0.09%)</title><rect x="943.8" y="229" width="1.1" height="15.0" fill="rgb(234,135,32)" rx="2" ry="2" />
<text  x="946.84" y="239.5" ></text>
</g>
<g >
<title>ext4_buffered_write_iter (923,959 samples, 0.10%)</title><rect x="12.0" y="197" width="1.2" height="15.0" fill="rgb(213,40,9)" rx="2" ry="2" />
<text  x="14.97" y="207.5" ></text>
</g>
<g >
<title>__x64_sys_munmap (923,836 samples, 0.10%)</title><rect x="10.0" y="197" width="1.2" height="15.0" fill="rgb(206,7,1)" rx="2" ry="2" />
<text  x="13.00" y="207.5" ></text>
</g>
<g >
<title>__folio_alloc (779,332 samples, 0.09%)</title><rect x="943.8" y="181" width="1.1" height="15.0" fill="rgb(224,91,21)" rx="2" ry="2" />
<text  x="946.84" y="191.5" ></text>
</g>
<g >
<title>__libc_start_call_main (923,836 samples, 0.10%)</title><rect x="10.0" y="261" width="1.2" height="15.0" fill="rgb(210,26,6)" rx="2" ry="2" />
<text  x="13.00" y="271.5" ></text>
</g>
<g >
<title>do_user_addr_fault (779,332 samples, 0.09%)</title><rect x="943.8" y="245" width="1.1" height="15.0" fill="rgb(228,108,25)" rx="2" ry="2" />
<text  x="946.84" y="255.5" ></text>
</g>
<g >
<title>w2c_decode__webp__wasm_PredictorAdd3_C (919,645 samples, 0.10%)</title><rect x="148.2" y="277" width="1.2" height="15.0" fill="rgb(216,52,12)" rx="2" ry="2" />
<text  x="151.19" y="287.5" ></text>
</g>
<g >
<title>__sysvec_apic_timer_interrupt (1,847,843 samples, 0.21%)</title><rect x="743.0" y="245" width="2.5" height="15.0" fill="rgb(242,173,41)" rx="2" ry="2" />
<text  x="746.04" y="255.5" ></text>
</g>
<g >
<title>do_user_addr_fault (532,067 samples, 0.06%)</title><rect x="14.4" y="229" width="0.8" height="15.0" fill="rgb(228,108,25)" rx="2" ry="2" />
<text  x="17.45" y="239.5" ></text>
</g>
<g >
<title>w2c_decode__webp__wasm_BuildHuffmanTable (32,879,629 samples, 3.73%)</title><rect x="226.6" y="293" width="44.0" height="15.0" fill="rgb(240,161,38)" rx="2" ry="2" />
<text  x="229.63" y="303.5" >w2c_..</text>
</g>
<g >
<title>w2c_decode__webp__wasm_PredictorAdd13_C (69,062,693 samples, 7.83%)</title><rect x="41.3" y="277" width="92.4" height="15.0" fill="rgb(249,206,49)" rx="2" ry="2" />
<text  x="44.32" y="287.5" >w2c_decode_..</text>
</g>
<g >
<title>do_syscall_64 (292,671 samples, 0.03%)</title><rect x="15.2" y="261" width="0.3" height="15.0" fill="rgb(209,20,4)" rx="2" ry="2" />
<text  x="18.16" y="271.5" ></text>
</g>
<g >
<title>__memmove_avx_unaligned (872,960 samples, 0.10%)</title><rect x="222.0" y="293" width="1.2" height="15.0" fill="rgb(254,228,54)" rx="2" ry="2" />
<text  x="225.03" y="303.5" ></text>
</g>
<g >
<title>__alloc_pages (720,578 samples, 0.08%)</title><rect x="224.4" y="165" width="1.0" height="15.0" fill="rgb(233,129,30)" rx="2" ry="2" />
<text  x="227.43" y="175.5" ></text>
</g>
<g >
<title>all (882,267,822 samples, 100%)</title><rect x="10.0" y="325" width="1180.0" height="15.0" fill="rgb(213,39,9)" rx="2" ry="2" />
<text  x="13.00" y="335.5" ></text>
</g>
<g >
<title>handle_mm_fault (720,578 samples, 0.08%)</title><rect x="224.4" y="229" width="1.0" height="15.0" fill="rgb(234,135,32)" rx="2" ry="2" />
<text  x="227.43" y="239.5" ></text>
</g>
<g >
<title>queue_work_on (923,976 samples, 0.10%)</title><rect x="13.2" y="149" width="1.2" height="15.0" fill="rgb(248,200,48)" rx="2" ry="2" />
<text  x="16.21" y="159.5" ></text>
</g>
<g >
<title>__vma_adjust (292,671 samples, 0.03%)</title><rect x="15.2" y="149" width="0.3" height="15.0" fill="rgb(224,87,20)" rx="2" ry="2" />
<text  x="18.16" y="159.5" ></text>
</g>
<g >
<title>w2c_decode__webp__wasm_VP8LConvertBGRAToRGB_C (54,187,550 samples, 6.14%)</title><rect x="872.4" y="293" width="72.5" height="15.0" fill="rgb(235,138,33)" rx="2" ry="2" />
<text  x="875.41" y="303.5" >w2c_deco..</text>
</g>
<g >
<title>error_entry (923,997 samples, 0.10%)</title><rect x="1188.7" y="277" width="1.2" height="15.0" fill="rgb(240,163,39)" rx="2" ry="2" />
<text  x="1191.67" y="287.5" ></text>
</g>
<g >
<title>ksys_write (1,847,935 samples, 0.21%)</title><rect x="12.0" y="229" width="2.4" height="15.0" fill="rgb(205,4,1)" rx="2" ry="2" />
<text  x="14.97" y="239.5" ></text>
</g>
<g >
<title>w2c_decode__webp__wasm_DecodeImageData (355,082,941 samples, 40.25%)</title><rect x="270.6" y="293" width="474.9" height="15.0" fill="rgb(217,59,14)" rx="2" ry="2" />
<text  x="273.61" y="303.5" >w2c_decode__webp__wasm_DecodeImageData</text>
</g>
<g >
<title>crc32c_pcl_intel_update (923,959 samples, 0.10%)</title><rect x="12.0" y="37" width="1.2" height="15.0" fill="rgb(212,33,7)" rx="2" ry="2" />
<text  x="14.97" y="47.5" ></text>
</g>
<g >
<title>setup_arg_pages (292,671 samples, 0.03%)</title><rect x="15.2" y="181" width="0.3" height="15.0" fill="rgb(222,82,19)" rx="2" ry="2" />
<text  x="18.16" y="191.5" ></text>
</g>
<g >
<title>w2c_decode__webp__wasm_VP8LTransformColorInverse_C (92,885,739 samples, 10.53%)</title><rect x="1065.7" y="293" width="124.2" height="15.0" fill="rgb(249,205,49)" rx="2" ry="2" />
<text  x="1068.67" y="303.5" >w2c_decode__web..</text>
</g>
<g >
<title>sysvec_apic_timer_interrupt (1,847,843 samples, 0.21%)</title><rect x="743.0" y="261" width="2.5" height="15.0" fill="rgb(220,69,16)" rx="2" ry="2" />
<text  x="746.04" y="271.5" ></text>
</g>
<g >
<title>__munmap (923,836 samples, 0.10%)</title><rect x="10.0" y="245" width="1.2" height="15.0" fill="rgb(211,29,7)" rx="2" ry="2" />
<text  x="13.00" y="255.5" ></text>
</g>
<g >
<title>copy_user_generic_string (551,978 samples, 0.06%)</title><rect x="11.2" y="149" width="0.8" height="15.0" fill="rgb(205,0,0)" rx="2" ry="2" />
<text  x="14.24" y="159.5" ></text>
</g>
<g >
<title>vfs_read (551,978 samples, 0.06%)</title><rect x="11.2" y="213" width="0.8" height="15.0" fill="rgb(224,88,21)" rx="2" ry="2" />
<text  x="14.24" y="223.5" ></text>
</g>
<g >
<title>load_elf_binary (292,671 samples, 0.03%)</title><rect x="15.2" y="197" width="0.3" height="15.0" fill="rgb(223,83,20)" rx="2" ry="2" />
<text  x="18.16" y="207.5" ></text>
</g>
<g >
<title>__list_del_entry_valid (779,332 samples, 0.09%)</title><rect x="943.8" y="133" width="1.1" height="15.0" fill="rgb(239,158,37)" rx="2" ry="2" />
<text  x="946.84" y="143.5" ></text>
</g>
<g >
<title>ext4_inode_csum_set (923,959 samples, 0.10%)</title><rect x="12.0" y="69" width="1.2" height="15.0" fill="rgb(218,60,14)" rx="2" ry="2" />
<text  x="14.97" y="79.5" ></text>
</g>
<g >
<title>[unknown] (158,530,847 samples, 17.97%)</title><rect x="10.0" y="293" width="212.0" height="15.0" fill="rgb(210,24,5)" rx="2" ry="2" />
<text  x="13.00" y="303.5" >[unknown]</text>
</g>
<g >
<title>asm_exc_page_fault (779,332 samples, 0.09%)</title><rect x="943.8" y="277" width="1.1" height="15.0" fill="rgb(225,93,22)" rx="2" ry="2" />
<text  x="946.84" y="287.5" ></text>
</g>
<g >
<title>w2c_decode__webp__wasm_PredictorAdd7_C (4,618,834 samples, 0.52%)</title><rect x="159.2" y="277" width="6.2" height="15.0" fill="rgb(240,164,39)" rx="2" ry="2" />
<text  x="162.24" y="287.5" ></text>
</g>
<g >
<title>filemap_read (551,978 samples, 0.06%)</title><rect x="11.2" y="197" width="0.8" height="15.0" fill="rgb(246,192,46)" rx="2" ry="2" />
<text  x="14.24" y="207.5" ></text>
</g>
<g >
<title>do_mas_munmap (923,836 samples, 0.10%)</title><rect x="10.0" y="165" width="1.2" height="15.0" fill="rgb(224,90,21)" rx="2" ry="2" />
<text  x="13.00" y="175.5" ></text>
</g>
<g >
<title>hrtimer_interrupt (1,847,843 samples, 0.21%)</title><rect x="743.0" y="229" width="2.5" height="15.0" fill="rgb(228,109,26)" rx="2" ry="2" />
<text  x="746.04" y="239.5" ></text>
</g>
<g >
<title>do_syscall_64 (923,836 samples, 0.10%)</title><rect x="10.0" y="213" width="1.2" height="15.0" fill="rgb(209,20,4)" rx="2" ry="2" />
<text  x="13.00" y="223.5" ></text>
</g>
<g >
<title>__libc_read (551,978 samples, 0.06%)</title><rect x="11.2" y="277" width="0.8" height="15.0" fill="rgb(212,34,8)" rx="2" ry="2" />
<text  x="14.24" y="287.5" ></text>
</g>
<g >
<title>entry_SYSCALL_64_after_hwframe (923,836 samples, 0.10%)</title><rect x="10.0" y="229" width="1.2" height="15.0" fill="rgb(218,63,15)" rx="2" ry="2" />
<text  x="13.00" y="239.5" ></text>
</g>
<g >
<title>asm_exc_page_fault (532,067 samples, 0.06%)</title><rect x="14.4" y="261" width="0.8" height="15.0" fill="rgb(225,93,22)" rx="2" ry="2" />
<text  x="17.45" y="271.5" ></text>
</g>
<g >
<title>entry_SYSCALL_64_after_hwframe (551,978 samples, 0.06%)</title><rect x="11.2" y="261" width="0.8" height="15.0" fill="rgb(218,63,15)" rx="2" ry="2" />
<text  x="14.24" y="271.5" ></text>
</g>
<g >
<title>__handle_mm_fault (720,578 samples, 0.08%)</title><rect x="224.4" y="213" width="1.0" height="15.0" fill="rgb(207,9,2)" rx="2" ry="2" />
<text  x="227.43" y="223.5" ></text>
</g>
<g >
<title>shift_arg_pages (292,671 samples, 0.03%)</title><rect x="15.2" y="165" width="0.3" height="15.0" fill="rgb(245,187,44)" rx="2" ry="2" />
<text  x="18.16" y="175.5" ></text>
</g>
<g >
<title>w2c_decode__webp__wasm_PredictorAdd1_C (18,452,805 samples, 2.09%)</title><rect x="780.1" y="293" width="24.6" height="15.0" fill="rgb(229,112,26)" rx="2" ry="2" />
<text  x="783.05" y="303.5" >w..</text>
</g>
<g >
<title>ext4_dirty_inode (923,959 samples, 0.10%)</title><rect x="12.0" y="133" width="1.2" height="15.0" fill="rgb(227,102,24)" rx="2" ry="2" />
<text  x="14.97" y="143.5" ></text>
</g>
<g >
<title>do_mas_align_munmap (923,836 samples, 0.10%)</title><rect x="10.0" y="149" width="1.2" height="15.0" fill="rgb(232,126,30)" rx="2" ry="2" />
<text  x="13.00" y="159.5" ></text>
</g>
<g >
<title>get_page_from_freelist (779,332 samples, 0.09%)</title><rect x="943.8" y="149" width="1.1" height="15.0" fill="rgb(252,218,52)" rx="2" ry="2" />
<text  x="946.84" y="159.5" ></text>
</g>
<g >
<title>w2c_decode__webp__wasm_VP8LReadBits (2,770,718 samples, 0.31%)</title><rect x="1062.0" y="293" width="3.7" height="15.0" fill="rgb(249,206,49)" rx="2" ry="2" />
<text  x="1064.97" y="303.5" ></text>
</g>
<g >
<title>__alloc_pages (779,332 samples, 0.09%)</title><rect x="943.8" y="165" width="1.1" height="15.0" fill="rgb(233,129,30)" rx="2" ry="2" />
<text  x="946.84" y="175.5" ></text>
</g>
<g >
<title>do_syscall_64 (551,978 samples, 0.06%)</title><rect x="11.2" y="245" width="0.8" height="15.0" fill="rgb(209,20,4)" rx="2" ry="2" />
<text  x="14.24" y="255.5" ></text>
</g>
<g >
<title>ktime_get_update_offsets_now (924,048 samples, 0.10%)</title><rect x="744.3" y="213" width="1.2" height="15.0" fill="rgb(243,178,42)" rx="2" ry="2" />
<text  x="747.28" y="223.5" ></text>
</g>
<g >
<title>w2c_decode__webp__wasm_VP8LInverseTransform (26,765,952 samples, 3.03%)</title><rect x="167.9" y="277" width="35.8" height="15.0" fill="rgb(247,194,46)" rx="2" ry="2" />
<text  x="170.89" y="287.5" >w2c..</text>
</g>
<g >
<title>__vm_munmap (923,836 samples, 0.10%)</title><rect x="10.0" y="181" width="1.2" height="15.0" fill="rgb(231,121,28)" rx="2" ry="2" />
<text  x="13.00" y="191.5" ></text>
</g>
<g >
<title>entry_SYSCALL_64_after_hwframe (1,847,935 samples, 0.21%)</title><rect x="12.0" y="261" width="2.4" height="15.0" fill="rgb(218,63,15)" rx="2" ry="2" />
<text  x="14.97" y="271.5" ></text>
</g>
<g >
<title>w2c_decode__webp__wasm_PredictorAdd11_C (15,680,017 samples, 1.78%)</title><rect x="15.5" y="277" width="21.0" height="15.0" fill="rgb(212,36,8)" rx="2" ry="2" />
<text  x="18.55" y="287.5" ></text>
</g>
<g >
<title>release_pages (923,836 samples, 0.10%)</title><rect x="10.0" y="85" width="1.2" height="15.0" fill="rgb(228,106,25)" rx="2" ry="2" />
<text  x="13.00" y="95.5" ></text>
</g>
<g >
<title>__handle_mm_fault (779,332 samples, 0.09%)</title><rect x="943.8" y="213" width="1.1" height="15.0" fill="rgb(207,9,2)" rx="2" ry="2" />
<text  x="946.84" y="223.5" ></text>
</g>
<g >
<title>next_uptodate_page (532,067 samples, 0.06%)</title><rect x="14.4" y="149" width="0.8" height="15.0" fill="rgb(210,25,6)" rx="2" ry="2" />
<text  x="17.45" y="159.5" ></text>
</g>
<g >
<title>file_tty_write.constprop.0 (923,976 samples, 0.10%)</title><rect x="13.2" y="197" width="1.2" height="15.0" fill="rgb(219,64,15)" rx="2" ry="2" />
<text  x="16.21" y="207.5" ></text>
</g>
<g >
<title>w2c_decode__webp__wasm_PredictorAdd12_C (23,976,551 samples, 2.72%)</title><rect x="748.0" y="293" width="32.1" height="15.0" fill="rgb(206,6,1)" rx="2" ry="2" />
<text  x="750.98" y="303.5" >w2..</text>
</g>
<g >
<title>decode_webp_was (882,197,420 samples, 99.99%)</title><rect x="10.0" y="309" width="1179.9" height="15.0" fill="rgb(216,54,12)" rx="2" ry="2" />
<text  x="13.00" y="319.5" >decode_webp_was</text>
</g>
<g >
<title>w2c_decode__webp__wasm_DecodeImageStream (1,844,689 samples, 0.21%)</title><rect x="745.5" y="293" width="2.5" height="15.0" fill="rgb(254,228,54)" rx="2" ry="2" />
<text  x="748.52" y="303.5" ></text>
</g>
<g >
<title>get_page_from_freelist (720,578 samples, 0.08%)</title><rect x="224.4" y="149" width="1.0" height="15.0" fill="rgb(252,218,52)" rx="2" ry="2" />
<text  x="227.43" y="159.5" ></text>
</g>
<g >
<title>ext4_inode_csum (923,959 samples, 0.10%)</title><rect x="12.0" y="53" width="1.2" height="15.0" fill="rgb(226,99,23)" rx="2" ry="2" />
<text  x="14.97" y="63.5" ></text>
</g>
<g >
<title>vma_alloc_folio (720,578 samples, 0.08%)</title><rect x="224.4" y="197" width="1.0" height="15.0" fill="rgb(245,187,44)" rx="2" ry="2" />
<text  x="227.43" y="207.5" ></text>
</g>
<g >
<title>read_tsc (924,048 samples, 0.10%)</title><rect x="744.3" y="197" width="1.2" height="15.0" fill="rgb(206,7,1)" rx="2" ry="2" />
<text  x="747.28" y="207.5" ></text>
</g>
<g >
<title>ttwu_queue_wakelist (923,976 samples, 0.10%)</title><rect x="13.2" y="101" width="1.2" height="15.0" fill="rgb(209,19,4)" rx="2" ry="2" />
<text  x="16.21" y="111.5" ></text>
</g>
<g >
<title>entry_SYSCALL_64_after_hwframe (292,671 samples, 0.03%)</title><rect x="15.2" y="277" width="0.3" height="15.0" fill="rgb(218,63,15)" rx="2" ry="2" />
<text  x="18.16" y="287.5" ></text>
</g>
<g >
<title>w2c_decode__webp__wasm_PredictorAdd2_C (4,376,639 samples, 0.50%)</title><rect x="142.3" y="277" width="5.9" height="15.0" fill="rgb(222,82,19)" rx="2" ry="2" />
<text  x="145.34" y="287.5" ></text>
</g>
<g >
<title>_raw_spin_lock_irqsave (923,795 samples, 0.10%)</title><rect x="743.0" y="213" width="1.3" height="15.0" fill="rgb(247,195,46)" rx="2" ry="2" />
<text  x="746.04" y="223.5" ></text>
</g>
<g >
<title>asm_exc_page_fault (720,578 samples, 0.08%)</title><rect x="224.4" y="277" width="1.0" height="15.0" fill="rgb(225,93,22)" rx="2" ry="2" />
<text  x="227.43" y="287.5" ></text>
</g>
<g >
<title>vma_alloc_folio (779,332 samples, 0.09%)</title><rect x="943.8" y="197" width="1.1" height="15.0" fill="rgb(245,187,44)" rx="2" ry="2" />
<text  x="946.84" y="207.5" ></text>
</g>
<g >
<title>w2c_decode__webp__wasm_PredictorAdd1_C (6,466,443 samples, 0.73%)</title><rect x="133.7" y="277" width="8.6" height="15.0" fill="rgb(229,112,26)" rx="2" ry="2" />
<text  x="136.69" y="287.5" ></text>
</g>
<g >
<title>handle_mm_fault (532,067 samples, 0.06%)</title><rect x="14.4" y="213" width="0.8" height="15.0" fill="rgb(234,135,32)" rx="2" ry="2" />
<text  x="17.45" y="223.5" ></text>
</g>
<g >
<title>filemap_map_pages (532,067 samples, 0.06%)</title><rect x="14.4" y="165" width="0.8" height="15.0" fill="rgb(229,112,27)" rx="2" ry="2" />
<text  x="17.45" y="175.5" ></text>
</g>
<g >
<title>__wmemset (532,067 samples, 0.06%)</title><rect x="14.4" y="277" width="0.8" height="15.0" fill="rgb(212,32,7)" rx="2" ry="2" />
<text  x="17.45" y="287.5" ></text>
</g>
<g >
<title>tlb_batch_pages_flush (923,836 samples, 0.10%)</title><rect x="10.0" y="101" width="1.2" height="15.0" fill="rgb(234,133,32)" rx="2" ry="2" />
<text  x="13.00" y="111.5" ></text>
</g>
<g >
<title>__queue_work (923,976 samples, 0.10%)</title><rect x="13.2" y="133" width="1.2" height="15.0" fill="rgb(212,34,8)" rx="2" ry="2" />
<text  x="16.21" y="143.5" ></text>
</g>
<g >
<title>exc_page_fault (532,067 samples, 0.06%)</title><rect x="14.4" y="245" width="0.8" height="15.0" fill="rgb(212,35,8)" rx="2" ry="2" />
<text  x="17.45" y="255.5" ></text>
</g>
<g >
<title>ksys_read (551,978 samples, 0.06%)</title><rect x="11.2" y="229" width="0.8" height="15.0" fill="rgb(229,113,27)" rx="2" ry="2" />
<text  x="14.24" y="239.5" ></text>
</g>
<g >
<title>copy_page_to_iter (551,978 samples, 0.06%)</title><rect x="11.2" y="181" width="0.8" height="15.0" fill="rgb(209,22,5)" rx="2" ry="2" />
<text  x="14.24" y="191.5" ></text>
</g>
<g >
<title>n_tty_write (923,976 samples, 0.10%)</title><rect x="13.2" y="181" width="1.2" height="15.0" fill="rgb(210,23,5)" rx="2" ry="2" />
<text  x="16.21" y="191.5" ></text>
</g>
<g >
<title>bprm_execve (292,671 samples, 0.03%)</title><rect x="15.2" y="213" width="0.3" height="15.0" fill="rgb(218,61,14)" rx="2" ry="2" />
<text  x="18.16" y="223.5" ></text>
</g>
<g >
<title>do_user_addr_fault (720,578 samples, 0.08%)</title><rect x="224.4" y="245" width="1.0" height="15.0" fill="rgb(228,108,25)" rx="2" ry="2" />
<text  x="227.43" y="255.5" ></text>
</g>
<g >
<title>__memmove_avx_unaligned_erms (1,644,047 samples, 0.19%)</title><rect x="223.2" y="293" width="2.2" height="15.0" fill="rgb(205,0,0)" rx="2" ry="2" />
<text  x="226.20" y="303.5" ></text>
</g>
<g >
<title>__x64_sys_execve (292,671 samples, 0.03%)</title><rect x="15.2" y="245" width="0.3" height="15.0" fill="rgb(247,193,46)" rx="2" ry="2" />
<text  x="18.16" y="255.5" ></text>
</g>
<g >
<title>w2c_decode__webp__wasm_PredictorAdd5_C (7,338,494 samples, 0.83%)</title><rect x="149.4" y="277" width="9.8" height="15.0" fill="rgb(253,223,53)" rx="2" ry="2" />
<text  x="152.42" y="287.5" ></text>
</g>
<g >
<title>w2c_decode__webp__wasm_ReadHuffmanCode (5,512,966 samples, 0.62%)</title><rect x="804.7" y="293" width="7.4" height="15.0" fill="rgb(243,177,42)" rx="2" ry="2" />
<text  x="807.73" y="303.5" ></text>
</g>
<g >
<title>ext4_mark_iloc_dirty (923,959 samples, 0.10%)</title><rect x="12.0" y="101" width="1.2" height="15.0" fill="rgb(226,101,24)" rx="2" ry="2" />
<text  x="14.97" y="111.5" ></text>
</g>
<g >
<title>do_fault (532,067 samples, 0.06%)</title><rect x="14.4" y="181" width="0.8" height="15.0" fill="rgb(248,200,47)" rx="2" ry="2" />
<text  x="17.45" y="191.5" ></text>
</g>
<g >
<title>__folio_alloc (720,578 samples, 0.08%)</title><rect x="224.4" y="181" width="1.0" height="15.0" fill="rgb(224,91,21)" rx="2" ry="2" />
<text  x="227.43" y="191.5" ></text>
</g>
<g >
<title>ext4_fill_raw_inode (923,959 samples, 0.10%)</title><rect x="12.0" y="85" width="1.2" height="15.0" fill="rgb(240,165,39)" rx="2" ry="2" />
<text  x="14.97" y="95.5" ></text>
</g>
<g >
<title>w2c_decode__webp__wasm_VP8LAddGreenToBlueAndRed_C (1,847,813 samples, 0.21%)</title><rect x="165.4" y="277" width="2.5" height="15.0" fill="rgb(236,142,34)" rx="2" ry="2" />
<text  x="168.42" y="287.5" ></text>
</g>
<g >
<title>exc_page_fault (779,332 samples, 0.09%)</title><rect x="943.8" y="261" width="1.1" height="15.0" fill="rgb(212,35,8)" rx="2" ry="2" />
<text  x="946.84" y="271.5" ></text>
</g>
<g >
<title>generic_perform_write (923,959 samples, 0.10%)</title><rect x="12.0" y="181" width="1.2" height="15.0" fill="rgb(236,146,35)" rx="2" ry="2" />
<text  x="14.97" y="191.5" ></text>
</g>
<g >
<title>mt_find (292,671 samples, 0.03%)</title><rect x="15.2" y="133" width="0.3" height="15.0" fill="rgb(252,218,52)" rx="2" ry="2" />
<text  x="18.16" y="143.5" ></text>
</g>
<g >
<title>sync_regs (923,997 samples, 0.10%)</title><rect x="1188.7" y="261" width="1.2" height="15.0" fill="rgb(228,106,25)" rx="2" ry="2" />
<text  x="1191.67" y="271.5" ></text>
</g>
<g >
<title>do_execveat_common.isra.0 (292,671 samples, 0.03%)</title><rect x="15.2" y="229" width="0.3" height="15.0" fill="rgb(231,123,29)" rx="2" ry="2" />
<text  x="18.16" y="239.5" ></text>
</g>
</g>
</svg>
