<?xml version="1.0" standalone="no"?>
<!DOCTYPE svg PUBLIC "-//W3C//DTD SVG 1.1//EN" "http://www.w3.org/Graphics/SVG/1.1/DTD/svg11.dtd">
<svg version="1.1" width="1200" height="406" onload="init(evt)" viewBox="0 0 1200 406" xmlns="http://www.w3.org/2000/svg" xmlns:xlink="http://www.w3.org/1999/xlink">
<!-- Flame graph stack visualization. See https://github.com/brendangregg/FlameGraph for latest version, and http://www.brendangregg.com/flamegraphs.html for examples. -->
<!-- NOTES:  -->
<defs>
	<linearGradient id="background" y1="0" y2="1" x1="0" x2="0" >
		<stop stop-color="#eeeeee" offset="5%" />
		<stop stop-color="#eeeeb0" offset="95%" />
	</linearGradient>
</defs>
<style type="text/css">
	text { font-family:Verdana; font-size:12px; fill:rgb(0,0,0); }
	#search, #ignorecase { opacity:0.1; cursor:pointer; }
	#search:hover, #search.show, #ignorecase:hover, #ignorecase.show { opacity:1; }
	#subtitle { text-anchor:middle; font-color:rgb(160,160,160); }
	#title { text-anchor:middle; font-size:17px}
	#unzoom { cursor:pointer; }
	#frames > *:hover { stroke:black; stroke-width:0.5; cursor:pointer; }
	.hide { display:none; }
	.parent { opacity:0.5; }
</style>
<script type="text/ecmascript">
<![CDATA[
	"use strict";
	var details, searchbtn, unzoombtn, matchedtxt, svg, searching, currentSearchTerm, ignorecase, ignorecaseBtn;
	function init(evt) {
		details = document.getElementById("details").firstChild;
		searchbtn = document.getElementById("search");
		ignorecaseBtn = document.getElementById("ignorecase");
		unzoombtn = document.getElementById("unzoom");
		matchedtxt = document.getElementById("matched");
		svg = document.getElementsByTagName("svg")[0];
		searching = 0;
		currentSearchTerm = null;

		// use GET parameters to restore a flamegraphs state.
		var params = get_params();
		if (params.x && params.y)
			zoom(find_group(document.querySelector('[x="' + params.x + '"][y="' + params.y + '"]')));
                if (params.s) search(params.s);
	}

	// event listeners
	window.addEventListener("click", function(e) {
		var target = find_group(e.target);
		if (target) {
			if (target.nodeName == "a") {
				if (e.ctrlKey === false) return;
				e.preventDefault();
			}
			if (target.classList.contains("parent")) unzoom(true);
			zoom(target);
			if (!document.querySelector('.parent')) {
				// we have basically done a clearzoom so clear the url
				var params = get_params();
				if (params.x) delete params.x;
				if (params.y) delete params.y;
				history.replaceState(null, null, parse_params(params));
				unzoombtn.classList.add("hide");
				return;
			}

			// set parameters for zoom state
			var el = target.querySelector("rect");
			if (el && el.attributes && el.attributes.y && el.attributes._orig_x) {
				var params = get_params()
				params.x = el.attributes._orig_x.value;
				params.y = el.attributes.y.value;
				history.replaceState(null, null, parse_params(params));
			}
		}
		else if (e.target.id == "unzoom") clearzoom();
		else if (e.target.id == "search") search_prompt();
		else if (e.target.id == "ignorecase") toggle_ignorecase();
	}, false)

	// mouse-over for info
	// show
	window.addEventListener("mouseover", function(e) {
		var target = find_group(e.target);
		if (target) details.nodeValue = "Function: " + g_to_text(target);
	}, false)

	// clear
	window.addEventListener("mouseout", function(e) {
		var target = find_group(e.target);
		if (target) details.nodeValue = ' ';
	}, false)

	// ctrl-F for search
	// ctrl-I to toggle case-sensitive search
	window.addEventListener("keydown",function (e) {
		if (e.keyCode === 114 || (e.ctrlKey && e.keyCode === 70)) {
			e.preventDefault();
			search_prompt();
		}
		else if (e.ctrlKey && e.keyCode === 73) {
			e.preventDefault();
			toggle_ignorecase();
		}
	}, false)

	// functions
	function get_params() {
		var params = {};
		var paramsarr = window.location.search.substr(1).split('&');
		for (var i = 0; i < paramsarr.length; ++i) {
			var tmp = paramsarr[i].split("=");
			if (!tmp[0] || !tmp[1]) continue;
			params[tmp[0]]  = decodeURIComponent(tmp[1]);
		}
		return params;
	}
	function parse_params(params) {
		var uri = "?";
		for (var key in params) {
			uri += key + '=' + encodeURIComponent(params[key]) + '&';
		}
		if (uri.slice(-1) == "&")
			uri = uri.substring(0, uri.length - 1);
		if (uri == '?')
			uri = window.location.href.split('?')[0];
		return uri;
	}
	function find_child(node, selector) {
		var children = node.querySelectorAll(selector);
		if (children.length) return children[0];
	}
	function find_group(node) {
		var parent = node.parentElement;
		if (!parent) return;
		if (parent.id == "frames") return node;
		return find_group(parent);
	}
	function orig_save(e, attr, val) {
		if (e.attributes["_orig_" + attr] != undefined) return;
		if (e.attributes[attr] == undefined) return;
		if (val == undefined) val = e.attributes[attr].value;
		e.setAttribute("_orig_" + attr, val);
	}
	function orig_load(e, attr) {
		if (e.attributes["_orig_"+attr] == undefined) return;
		e.attributes[attr].value = e.attributes["_orig_" + attr].value;
		e.removeAttribute("_orig_"+attr);
	}
	function g_to_text(e) {
		var text = find_child(e, "title").firstChild.nodeValue;
		return (text)
	}
	function g_to_func(e) {
		var func = g_to_text(e);
		// if there's any manipulation we want to do to the function
		// name before it's searched, do it here before returning.
		return (func);
	}
	function update_text(e) {
		var r = find_child(e, "rect");
		var t = find_child(e, "text");
		var w = parseFloat(r.attributes.width.value) -3;
		var txt = find_child(e, "title").textContent.replace(/\([^(]*\)$/,"");
		t.attributes.x.value = parseFloat(r.attributes.x.value) + 3;

		// Smaller than this size won't fit anything
		if (w < 2 * 12 * 0.59) {
			t.textContent = "";
			return;
		}

		t.textContent = txt;
		var sl = t.getSubStringLength(0, txt.length);
		// check if only whitespace or if we can fit the entire string into width w
		if (/^ *$/.test(txt) || sl < w)
			return;

		// this isn't perfect, but gives a good starting point
		// and avoids calling getSubStringLength too often
		var start = Math.floor((w/sl) * txt.length);
		for (var x = start; x > 0; x = x-2) {
			if (t.getSubStringLength(0, x + 2) <= w) {
				t.textContent = txt.substring(0, x) + "..";
				return;
			}
		}
		t.textContent = "";
	}

	// zoom
	function zoom_reset(e) {
		if (e.attributes != undefined) {
			orig_load(e, "x");
			orig_load(e, "width");
		}
		if (e.childNodes == undefined) return;
		for (var i = 0, c = e.childNodes; i < c.length; i++) {
			zoom_reset(c[i]);
		}
	}
	function zoom_child(e, x, ratio) {
		if (e.attributes != undefined) {
			if (e.attributes.x != undefined) {
				orig_save(e, "x");
				e.attributes.x.value = (parseFloat(e.attributes.x.value) - x - 10) * ratio + 10;
				if (e.tagName == "text")
					e.attributes.x.value = find_child(e.parentNode, "rect[x]").attributes.x.value + 3;
			}
			if (e.attributes.width != undefined) {
				orig_save(e, "width");
				e.attributes.width.value = parseFloat(e.attributes.width.value) * ratio;
			}
		}

		if (e.childNodes == undefined) return;
		for (var i = 0, c = e.childNodes; i < c.length; i++) {
			zoom_child(c[i], x - 10, ratio);
		}
	}
	function zoom_parent(e) {
		if (e.attributes) {
			if (e.attributes.x != undefined) {
				orig_save(e, "x");
				e.attributes.x.value = 10;
			}
			if (e.attributes.width != undefined) {
				orig_save(e, "width");
				e.attributes.width.value = parseInt(svg.width.baseVal.value) - (10 * 2);
			}
		}
		if (e.childNodes == undefined) return;
		for (var i = 0, c = e.childNodes; i < c.length; i++) {
			zoom_parent(c[i]);
		}
	}
	function zoom(node) {
		var attr = find_child(node, "rect").attributes;
		var width = parseFloat(attr.width.value);
		var xmin = parseFloat(attr.x.value);
		var xmax = parseFloat(xmin + width);
		var ymin = parseFloat(attr.y.value);
		var ratio = (svg.width.baseVal.value - 2 * 10) / width;

		// XXX: Workaround for JavaScript float issues (fix me)
		var fudge = 0.0001;

		unzoombtn.classList.remove("hide");

		var el = document.getElementById("frames").children;
		for (var i = 0; i < el.length; i++) {
			var e = el[i];
			var a = find_child(e, "rect").attributes;
			var ex = parseFloat(a.x.value);
			var ew = parseFloat(a.width.value);
			var upstack;
			// Is it an ancestor
			if (0 == 0) {
				upstack = parseFloat(a.y.value) > ymin;
			} else {
				upstack = parseFloat(a.y.value) < ymin;
			}
			if (upstack) {
				// Direct ancestor
				if (ex <= xmin && (ex+ew+fudge) >= xmax) {
					e.classList.add("parent");
					zoom_parent(e);
					update_text(e);
				}
				// not in current path
				else
					e.classList.add("hide");
			}
			// Children maybe
			else {
				// no common path
				if (ex < xmin || ex + fudge >= xmax) {
					e.classList.add("hide");
				}
				else {
					zoom_child(e, xmin, ratio);
					update_text(e);
				}
			}
		}
		search();
	}
	function unzoom(dont_update_text) {
		unzoombtn.classList.add("hide");
		var el = document.getElementById("frames").children;
		for(var i = 0; i < el.length; i++) {
			el[i].classList.remove("parent");
			el[i].classList.remove("hide");
			zoom_reset(el[i]);
			if(!dont_update_text) update_text(el[i]);
		}
		search();
	}
	function clearzoom() {
		unzoom();

		// remove zoom state
		var params = get_params();
		if (params.x) delete params.x;
		if (params.y) delete params.y;
		history.replaceState(null, null, parse_params(params));
	}

	// search
	function toggle_ignorecase() {
		ignorecase = !ignorecase;
		if (ignorecase) {
			ignorecaseBtn.classList.add("show");
		} else {
			ignorecaseBtn.classList.remove("show");
		}
		reset_search();
		search();
	}
	function reset_search() {
		var el = document.querySelectorAll("#frames rect");
		for (var i = 0; i < el.length; i++) {
			orig_load(el[i], "fill")
		}
		var params = get_params();
		delete params.s;
		history.replaceState(null, null, parse_params(params));
	}
	function search_prompt() {
		if (!searching) {
			var term = prompt("Enter a search term (regexp " +
			    "allowed, eg: ^ext4_)"
			    + (ignorecase ? ", ignoring case" : "")
			    + "\nPress Ctrl-i to toggle case sensitivity", "");
			if (term != null) search(term);
		} else {
			reset_search();
			searching = 0;
			currentSearchTerm = null;
			searchbtn.classList.remove("show");
			searchbtn.firstChild.nodeValue = "Search"
			matchedtxt.classList.add("hide");
			matchedtxt.firstChild.nodeValue = ""
		}
	}
	function search(term) {
		if (term) currentSearchTerm = term;

		var re = new RegExp(currentSearchTerm, ignorecase ? 'i' : '');
		var el = document.getElementById("frames").children;
		var matches = new Object();
		var maxwidth = 0;
		for (var i = 0; i < el.length; i++) {
			var e = el[i];
			var func = g_to_func(e);
			var rect = find_child(e, "rect");
			if (func == null || rect == null)
				continue;

			// Save max width. Only works as we have a root frame
			var w = parseFloat(rect.attributes.width.value);
			if (w > maxwidth)
				maxwidth = w;

			if (func.match(re)) {
				// highlight
				var x = parseFloat(rect.attributes.x.value);
				orig_save(rect, "fill");
				rect.attributes.fill.value = "rgb(230,0,230)";

				// remember matches
				if (matches[x] == undefined) {
					matches[x] = w;
				} else {
					if (w > matches[x]) {
						// overwrite with parent
						matches[x] = w;
					}
				}
				searching = 1;
			}
		}
		if (!searching)
			return;
		var params = get_params();
		params.s = currentSearchTerm;
		history.replaceState(null, null, parse_params(params));

		searchbtn.classList.add("show");
		searchbtn.firstChild.nodeValue = "Reset Search";

		// calculate percent matched, excluding vertical overlap
		var count = 0;
		var lastx = -1;
		var lastw = 0;
		var keys = Array();
		for (k in matches) {
			if (matches.hasOwnProperty(k))
				keys.push(k);
		}
		// sort the matched frames by their x location
		// ascending, then width descending
		keys.sort(function(a, b){
			return a - b;
		});
		// Step through frames saving only the biggest bottom-up frames
		// thanks to the sort order. This relies on the tree property
		// where children are always smaller than their parents.
		var fudge = 0.0001;	// JavaScript floating point
		for (var k in keys) {
			var x = parseFloat(keys[k]);
			var w = matches[keys[k]];
			if (x >= lastx + lastw - fudge) {
				count += w;
				lastx = x;
				lastw = w;
			}
		}
		// display matched percent
		matchedtxt.classList.remove("hide");
		var pct = 100 * count / maxwidth;
		if (pct != 100) pct = pct.toFixed(1)
		matchedtxt.firstChild.nodeValue = "Matched: " + pct + "%";
	}
]]>
</script>
<rect x="0.0" y="0" width="1200.0" height="406.0" fill="url(#background)"  />
<text id="title" x="600.00" y="24" >Flame Graph</text>
<text id="details" x="10.00" y="389" > </text>
<text id="unzoom" x="10.00" y="24" class="hide">Reset Zoom</text>
<text id="search" x="1090.00" y="24" >Search</text>
<text id="ignorecase" x="1174.00" y="24" >ic</text>
<text id="matched" x="1090.00" y="389" > </text>
<g id="frames">
<g >
<title>w2c_decode__webp__wasm_TransformDC_C (924,272 samples, 0.02%)</title><rect x="12.3" y="229" width="0.3" height="15.0" fill="rgb(232,125,30)" rx="2" ry="2" />
<text  x="15.28" y="239.5" ></text>
</g>
<g >
<title>generic_perform_write (922,879 samples, 0.02%)</title><rect x="13.3" y="213" width="0.3" height="15.0" fill="rgb(236,146,35)" rx="2" ry="2" />
<text  x="16.27" y="223.5" ></text>
</g>
<g >
<title>ext4_mark_iloc_dirty (922,879 samples, 0.02%)</title><rect x="13.3" y="133" width="0.3" height="15.0" fill="rgb(226,101,24)" rx="2" ry="2" />
<text  x="16.27" y="143.5" ></text>
</g>
<g >
<title>w2c_decode__webp__wasm_ReconstructRow (1,847,094 samples, 0.05%)</title><rect x="18.0" y="309" width="0.5" height="15.0" fill="rgb(238,153,36)" rx="2" ry="2" />
<text  x="20.97" y="319.5" ></text>
</g>
<g >
<title>load_elf_binary (478,276 samples, 0.01%)</title><rect x="13.6" y="229" width="0.1" height="15.0" fill="rgb(223,83,20)" rx="2" ry="2" />
<text  x="16.56" y="239.5" ></text>
</g>
<g >
<title>w2c_decode__webp__wasm_GetCoeffsFast (216,100,519 samples, 5.64%)</title><rect x="144.3" y="325" width="66.6" height="15.0" fill="rgb(232,124,29)" rx="2" ry="2" />
<text  x="147.32" y="335.5" >w2c_dec..</text>
</g>
<g >
<title>[unknown] (9,240,433 samples, 0.24%)</title><rect x="10.0" y="245" width="2.8" height="15.0" fill="rgb(210,24,5)" rx="2" ry="2" />
<text  x="13.00" y="255.5" ></text>
</g>
<g >
<title>[unknown] (9,240,433 samples, 0.24%)</title><rect x="10.0" y="293" width="2.8" height="15.0" fill="rgb(210,24,5)" rx="2" ry="2" />
<text  x="13.00" y="303.5" ></text>
</g>
<g >
<title>w2c_decode__webp__wasm_TransformOne_C (2,721,503,694 samples, 71.03%)</title><rect x="266.1" y="325" width="838.2" height="15.0" fill="rgb(231,120,28)" rx="2" ry="2" />
<text  x="269.10" y="335.5" >w2c_decode__webp__wasm_TransformOne_C</text>
</g>
<g >
<title>all (3,831,400,418 samples, 100%)</title><rect x="10.0" y="357" width="1180.0" height="15.0" fill="rgb(213,39,9)" rx="2" ry="2" />
<text  x="13.00" y="367.5" ></text>
</g>
<g >
<title>do_group_exit (922,889 samples, 0.02%)</title><rect x="60.9" y="277" width="0.3" height="15.0" fill="rgb(219,67,16)" rx="2" ry="2" />
<text  x="63.93" y="287.5" ></text>
</g>
<g >
<title>__memset_avx2_unaligned_erms (1,847,088 samples, 0.05%)</title><rect x="60.4" y="325" width="0.5" height="15.0" fill="rgb(223,84,20)" rx="2" ry="2" />
<text  x="63.36" y="335.5" ></text>
</g>
<g >
<title>entry_SYSCALL_64_after_hwframe (922,889 samples, 0.02%)</title><rect x="60.9" y="325" width="0.3" height="15.0" fill="rgb(218,63,15)" rx="2" ry="2" />
<text  x="63.93" y="335.5" ></text>
</g>
<g >
<title>w2c_decode__webp__wasm_IDecode (2,771,304 samples, 0.07%)</title><rect x="17.1" y="309" width="0.9" height="15.0" fill="rgb(208,15,3)" rx="2" ry="2" />
<text  x="20.12" y="319.5" ></text>
</g>
<g >
<title>do_filp_open (924,234 samples, 0.02%)</title><rect x="13.0" y="229" width="0.3" height="15.0" fill="rgb(211,28,6)" rx="2" ry="2" />
<text  x="15.99" y="239.5" ></text>
</g>
<g >
<title>w2c_decode__webp__wasm_IDecode (924,204 samples, 0.02%)</title><rect x="11.7" y="229" width="0.3" height="15.0" fill="rgb(208,15,3)" rx="2" ry="2" />
<text  x="14.71" y="239.5" ></text>
</g>
<g >
<title>[unknown] (9,704,134 samples, 0.25%)</title><rect x="10.0" y="309" width="3.0" height="15.0" fill="rgb(210,24,5)" rx="2" ry="2" />
<text  x="13.00" y="319.5" ></text>
</g>
<g >
<title>__x64_sys_execve (478,276 samples, 0.01%)</title><rect x="13.6" y="277" width="0.1" height="15.0" fill="rgb(247,193,46)" rx="2" ry="2" />
<text  x="16.56" y="287.5" ></text>
</g>
<g >
<title>truncate_pagecache (924,234 samples, 0.02%)</title><rect x="13.0" y="149" width="0.3" height="15.0" fill="rgb(231,123,29)" rx="2" ry="2" />
<text  x="15.99" y="159.5" ></text>
</g>
<g >
<title>decode_webp_was (3,831,370,761 samples, 100.00%)</title><rect x="10.0" y="341" width="1180.0" height="15.0" fill="rgb(216,54,12)" rx="2" ry="2" />
<text  x="13.00" y="351.5" >decode_webp_was</text>
</g>
<g >
<title>w2c_decode__webp__wasm_DecodeImageData (27,156,705 samples, 0.71%)</title><rect x="64.1" y="325" width="8.3" height="15.0" fill="rgb(217,59,14)" rx="2" ry="2" />
<text  x="67.06" y="335.5" ></text>
</g>
<g >
<title>w2c_decode__webp__wasm_HD4_C (924,283 samples, 0.02%)</title><rect x="224.7" y="325" width="0.3" height="15.0" fill="rgb(239,160,38)" rx="2" ry="2" />
<text  x="227.68" y="335.5" ></text>
</g>
<g >
<title>generic_write_end (922,879 samples, 0.02%)</title><rect x="13.3" y="197" width="0.3" height="15.0" fill="rgb(206,8,1)" rx="2" ry="2" />
<text  x="16.27" y="207.5" ></text>
</g>
<g >
<title>w2c_decode__webp__wasm_GetCoeffsFast (9,238,810 samples, 0.24%)</title><rect x="14.3" y="309" width="2.8" height="15.0" fill="rgb(232,124,29)" rx="2" ry="2" />
<text  x="17.27" y="319.5" ></text>
</g>
<g >
<title>do_truncate (924,234 samples, 0.02%)</title><rect x="13.0" y="197" width="0.3" height="15.0" fill="rgb(216,53,12)" rx="2" ry="2" />
<text  x="15.99" y="207.5" ></text>
</g>
<g >
<title>w2c_decode__webp__wasm_ExtractAlphaRows (1,846,861 samples, 0.05%)</title><rect x="13.7" y="309" width="0.6" height="15.0" fill="rgb(206,7,1)" rx="2" ry="2" />
<text  x="16.70" y="319.5" ></text>
</g>
<g >
<title>__libc_write (922,879 samples, 0.02%)</title><rect x="13.3" y="309" width="0.3" height="15.0" fill="rgb(238,154,37)" rx="2" ry="2" />
<text  x="16.27" y="319.5" ></text>
</g>
<g >
<title>w2c_decode__webp__wasm_VP8LDoFillBitWindow (924,117 samples, 0.02%)</title><rect x="1188.3" y="325" width="0.3" height="15.0" fill="rgb(232,127,30)" rx="2" ry="2" />
<text  x="1191.28" y="335.5" ></text>
</g>
<g >
<title>w2c_decode__webp__wasm_TransformAC3_C (1,848,479 samples, 0.05%)</title><rect x="264.4" y="325" width="0.6" height="15.0" fill="rgb(222,79,19)" rx="2" ry="2" />
<text  x="267.39" y="335.5" ></text>
</g>
<g >
<title>w2c_decode__webp__wasm_HFilter8i_C (923,968 samples, 0.02%)</title><rect x="226.1" y="325" width="0.3" height="15.0" fill="rgb(208,16,3)" rx="2" ry="2" />
<text  x="229.10" y="335.5" ></text>
</g>
<g >
<title>__mprotect (463,701 samples, 0.01%)</title><rect x="12.8" y="293" width="0.2" height="15.0" fill="rgb(214,43,10)" rx="2" ry="2" />
<text  x="15.85" y="303.5" ></text>
</g>
<g >
<title>handle_mm_fault (844,370 samples, 0.02%)</title><rect x="1185.7" y="261" width="0.3" height="15.0" fill="rgb(234,135,32)" rx="2" ry="2" />
<text  x="1188.75" y="271.5" ></text>
</g>
<g >
<title>do_syscall_64 (478,276 samples, 0.01%)</title><rect x="13.6" y="293" width="0.1" height="15.0" fill="rgb(209,20,4)" rx="2" ry="2" />
<text  x="16.56" y="303.5" ></text>
</g>
<g >
<title>ext4_dirty_inode (922,879 samples, 0.02%)</title><rect x="13.3" y="165" width="0.3" height="15.0" fill="rgb(227,102,24)" rx="2" ry="2" />
<text  x="16.27" y="175.5" ></text>
</g>
<g >
<title>ext4_fill_raw_inode (922,879 samples, 0.02%)</title><rect x="13.3" y="117" width="0.3" height="15.0" fill="rgb(240,165,39)" rx="2" ry="2" />
<text  x="16.27" y="127.5" ></text>
</g>
<g >
<title>w2c_decode__webp__wasm_TransformUV_C (73,905,810 samples, 1.93%)</title><rect x="35.3" y="309" width="22.8" height="15.0" fill="rgb(249,206,49)" rx="2" ry="2" />
<text  x="38.32" y="319.5" >w..</text>
</g>
<g >
<title>[unknown] (9,240,433 samples, 0.24%)</title><rect x="10.0" y="261" width="2.8" height="15.0" fill="rgb(210,24,5)" rx="2" ry="2" />
<text  x="13.00" y="271.5" ></text>
</g>
<g >
<title>w2c_decode__webp__wasm_VP8ParseProba (4,618,453 samples, 0.12%)</title><rect x="1188.6" y="325" width="1.4" height="15.0" fill="rgb(237,149,35)" rx="2" ry="2" />
<text  x="1191.57" y="335.5" ></text>
</g>
<g >
<title>try_to_free_buffers (924,234 samples, 0.02%)</title><rect x="13.0" y="101" width="0.3" height="15.0" fill="rgb(249,206,49)" rx="2" ry="2" />
<text  x="15.99" y="111.5" ></text>
</g>
<g >
<title>w2c_decode__webp__wasm_TM4_C (1,847,781 samples, 0.05%)</title><rect x="263.5" y="325" width="0.6" height="15.0" fill="rgb(254,226,54)" rx="2" ry="2" />
<text  x="266.54" y="335.5" ></text>
</g>
<g >
<title>w2c_decode__webp__wasm_DC8uv_C (923,624 samples, 0.02%)</title><rect x="63.8" y="325" width="0.3" height="15.0" fill="rgb(228,106,25)" rx="2" ry="2" />
<text  x="66.77" y="335.5" ></text>
</g>
<g >
<title>w2c_decode__webp__wasm_TransformTwo_C (15,707,570 samples, 0.41%)</title><rect x="30.5" y="309" width="4.8" height="15.0" fill="rgb(226,96,23)" rx="2" ry="2" />
<text  x="33.49" y="319.5" ></text>
</g>
<g >
<title>w2c_decode__webp__wasm_FilterLoop24_C (120,824,798 samples, 3.15%)</title><rect x="79.0" y="325" width="37.2" height="15.0" fill="rgb(206,5,1)" rx="2" ry="2" />
<text  x="81.97" y="335.5" >w2c..</text>
</g>
<g >
<title>w2c_decode__webp__wasm_HE4_C (3,695,274 samples, 0.10%)</title><rect x="225.0" y="325" width="1.1" height="15.0" fill="rgb(233,130,31)" rx="2" ry="2" />
<text  x="227.96" y="335.5" ></text>
</g>
<g >
<title>asm_exc_page_fault (463,701 samples, 0.01%)</title><rect x="12.8" y="277" width="0.2" height="15.0" fill="rgb(225,93,22)" rx="2" ry="2" />
<text  x="15.85" y="287.5" ></text>
</g>
<g >
<title>unmap_vmas (922,889 samples, 0.02%)</title><rect x="60.9" y="213" width="0.3" height="15.0" fill="rgb(243,176,42)" rx="2" ry="2" />
<text  x="63.93" y="223.5" ></text>
</g>
<g >
<title>w2c_decode__webp__wasm_ReconstructRow (924,207 samples, 0.02%)</title><rect x="12.0" y="229" width="0.3" height="15.0" fill="rgb(238,153,36)" rx="2" ry="2" />
<text  x="14.99" y="239.5" ></text>
</g>
<g >
<title>w2c_decode__webp__wasm_LD4_C (924,279 samples, 0.02%)</title><rect x="253.9" y="325" width="0.2" height="15.0" fill="rgb(213,41,9)" rx="2" ry="2" />
<text  x="256.86" y="335.5" ></text>
</g>
<g >
<title>__ext4_mark_inode_dirty (922,879 samples, 0.02%)</title><rect x="13.3" y="149" width="0.3" height="15.0" fill="rgb(227,104,25)" rx="2" ry="2" />
<text  x="16.27" y="159.5" ></text>
</g>
<g >
<title>ksys_write (922,879 samples, 0.02%)</title><rect x="13.3" y="261" width="0.3" height="15.0" fill="rgb(205,4,1)" rx="2" ry="2" />
<text  x="16.27" y="271.5" ></text>
</g>
<g >
<title>w2c_decode__webp__wasm_VE4_C (2,770,639 samples, 0.07%)</title><rect x="1186.0" y="325" width="0.9" height="15.0" fill="rgb(242,174,41)" rx="2" ry="2" />
<text  x="1189.01" y="335.5" ></text>
</g>
<g >
<title>do_execveat_common.isra.0 (478,276 samples, 0.01%)</title><rect x="13.6" y="261" width="0.1" height="15.0" fill="rgb(231,123,29)" rx="2" ry="2" />
<text  x="16.56" y="271.5" ></text>
</g>
<g >
<title>w2c_decode__webp__wasm_TransformUV_C (924,303 samples, 0.02%)</title><rect x="12.6" y="229" width="0.2" height="15.0" fill="rgb(249,206,49)" rx="2" ry="2" />
<text  x="15.56" y="239.5" ></text>
</g>
<g >
<title>do_user_addr_fault (844,370 samples, 0.02%)</title><rect x="1185.7" y="277" width="0.3" height="15.0" fill="rgb(228,108,25)" rx="2" ry="2" />
<text  x="1188.75" y="287.5" ></text>
</g>
<g >
<title>w2c_decode__webp__wasm_TM8uv_C (923,465 samples, 0.02%)</title><rect x="264.1" y="325" width="0.3" height="15.0" fill="rgb(210,24,5)" rx="2" ry="2" />
<text  x="267.11" y="335.5" ></text>
</g>
<g >
<title>w2c_decode__webp__wasm_DC16_C (924,128 samples, 0.02%)</title><rect x="62.1" y="325" width="0.3" height="15.0" fill="rgb(242,173,41)" rx="2" ry="2" />
<text  x="65.07" y="335.5" ></text>
</g>
<g >
<title>exc_page_fault (844,370 samples, 0.02%)</title><rect x="1185.7" y="293" width="0.3" height="15.0" fill="rgb(212,35,8)" rx="2" ry="2" />
<text  x="1188.75" y="303.5" ></text>
</g>
<g >
<title>w2c_decode__webp__wasm_DC4_C (4,611,984 samples, 0.12%)</title><rect x="62.4" y="325" width="1.4" height="15.0" fill="rgb(222,78,18)" rx="2" ry="2" />
<text  x="65.35" y="335.5" ></text>
</g>
<g >
<title>w2c_decode__webp__wasm_IDecode (89,232,864 samples, 2.33%)</title><rect x="226.4" y="325" width="27.5" height="15.0" fill="rgb(208,15,3)" rx="2" ry="2" />
<text  x="229.38" y="335.5" >w..</text>
</g>
<g >
<title>entry_SYSCALL_64_after_hwframe (924,234 samples, 0.02%)</title><rect x="13.0" y="293" width="0.3" height="15.0" fill="rgb(218,63,15)" rx="2" ry="2" />
<text  x="15.99" y="303.5" ></text>
</g>
<g >
<title>w2c_decode__webp__wasm_BuildHuffmanTable (2,771,705 samples, 0.07%)</title><rect x="61.2" y="325" width="0.9" height="15.0" fill="rgb(240,161,38)" rx="2" ry="2" />
<text  x="64.22" y="335.5" ></text>
</g>
<g >
<title>__memmove_avx_unaligned (2,772,386 samples, 0.07%)</title><rect x="58.1" y="325" width="0.8" height="15.0" fill="rgb(254,228,54)" rx="2" ry="2" />
<text  x="61.09" y="335.5" ></text>
</g>
<g >
<title>do_syscall_64 (922,879 samples, 0.02%)</title><rect x="13.3" y="277" width="0.3" height="15.0" fill="rgb(209,20,4)" rx="2" ry="2" />
<text  x="16.27" y="287.5" ></text>
</g>
<g >
<title>w2c_decode__webp__wasm_TransformDC_C (3,695,544 samples, 0.10%)</title><rect x="265.0" y="325" width="1.1" height="15.0" fill="rgb(232,125,30)" rx="2" ry="2" />
<text  x="267.96" y="335.5" ></text>
</g>
<g >
<title>do_sys_openat2 (924,234 samples, 0.02%)</title><rect x="13.0" y="245" width="0.3" height="15.0" fill="rgb(253,221,52)" rx="2" ry="2" />
<text  x="15.99" y="255.5" ></text>
</g>
<g >
<title>w2c_decode__webp__wasm_EmitFancyRGB (924,071 samples, 0.02%)</title><rect x="72.4" y="325" width="0.3" height="15.0" fill="rgb(223,86,20)" rx="2" ry="2" />
<text  x="75.42" y="335.5" ></text>
</g>
<g >
<title>path_openat (924,234 samples, 0.02%)</title><rect x="13.0" y="213" width="0.3" height="15.0" fill="rgb(249,202,48)" rx="2" ry="2" />
<text  x="15.99" y="223.5" ></text>
</g>
<g >
<title>__memmove_avx_unaligned_erms (4,619,320 samples, 0.12%)</title><rect x="58.9" y="325" width="1.5" height="15.0" fill="rgb(205,0,0)" rx="2" ry="2" />
<text  x="61.94" y="335.5" ></text>
</g>
<g >
<title>w2c_decode__webp__wasm_RD4_C (2,772,641 samples, 0.07%)</title><rect x="254.1" y="325" width="0.9" height="15.0" fill="rgb(225,92,22)" rx="2" ry="2" />
<text  x="257.15" y="335.5" ></text>
</g>
<g >
<title>w2c_decode__webp__wasm_TM16_C (5,544,792 samples, 0.14%)</title><rect x="261.8" y="325" width="1.7" height="15.0" fill="rgb(224,90,21)" rx="2" ry="2" />
<text  x="264.83" y="335.5" ></text>
</g>
<g >
<title>w2c_decode__webp__wasm_FilterLoop26_C (1,848,098 samples, 0.05%)</title><rect x="10.6" y="229" width="0.5" height="15.0" fill="rgb(243,176,42)" rx="2" ry="2" />
<text  x="13.57" y="239.5" ></text>
</g>
<g >
<title>w2c_decode__webp__wasm_UpsampleRgbLinePair_C (238,602,959 samples, 6.23%)</title><rect x="1112.5" y="325" width="73.5" height="15.0" fill="rgb(241,168,40)" rx="2" ry="2" />
<text  x="1115.52" y="335.5" >w2c_deco..</text>
</g>
<g >
<title>mod_objcg_state (924,234 samples, 0.02%)</title><rect x="13.0" y="53" width="0.3" height="15.0" fill="rgb(208,16,3)" rx="2" ry="2" />
<text  x="15.99" y="63.5" ></text>
</g>
<g >
<title>do_syscall_64 (924,234 samples, 0.02%)</title><rect x="13.0" y="277" width="0.3" height="15.0" fill="rgb(209,20,4)" rx="2" ry="2" />
<text  x="15.99" y="287.5" ></text>
</g>
<g >
<title>ext4_buffered_write_iter (922,879 samples, 0.02%)</title><rect x="13.3" y="229" width="0.3" height="15.0" fill="rgb(213,40,9)" rx="2" ry="2" />
<text  x="16.27" y="239.5" ></text>
</g>
<g >
<title>w2c_decode__webp__wasm_FilterLoop24_C (1,847,190 samples, 0.05%)</title><rect x="10.0" y="229" width="0.6" height="15.0" fill="rgb(206,5,1)" rx="2" ry="2" />
<text  x="13.00" y="239.5" ></text>
</g>
<g >
<title>w2c_decode__webp__wasm_VP8GetValue (3,695,317 samples, 0.10%)</title><rect x="1187.1" y="325" width="1.2" height="15.0" fill="rgb(243,179,42)" rx="2" ry="2" />
<text  x="1190.15" y="335.5" ></text>
</g>
<g >
<title>notify_change (924,234 samples, 0.02%)</title><rect x="13.0" y="181" width="0.3" height="15.0" fill="rgb(237,150,35)" rx="2" ry="2" />
<text  x="15.99" y="191.5" ></text>
</g>
<g >
<title>w2c_decode__webp__wasm_GetLargeValue (44,800,724 samples, 1.17%)</title><rect x="210.9" y="325" width="13.8" height="15.0" fill="rgb(206,5,1)" rx="2" ry="2" />
<text  x="213.88" y="335.5" ></text>
</g>
<g >
<title>bprm_execve (478,276 samples, 0.01%)</title><rect x="13.6" y="245" width="0.1" height="15.0" fill="rgb(218,61,14)" rx="2" ry="2" />
<text  x="16.56" y="255.5" ></text>
</g>
<g >
<title>truncate_inode_pages_range (924,234 samples, 0.02%)</title><rect x="13.0" y="133" width="0.3" height="15.0" fill="rgb(245,187,44)" rx="2" ry="2" />
<text  x="15.99" y="143.5" ></text>
</g>
<g >
<title>w2c_decode__webp__wasm_TransformTwo_C (26,791,375 samples, 0.70%)</title><rect x="1104.3" y="325" width="8.2" height="15.0" fill="rgb(226,96,23)" rx="2" ry="2" />
<text  x="1107.27" y="335.5" ></text>
</g>
<g >
<title>kmem_cache_free (924,234 samples, 0.02%)</title><rect x="13.0" y="69" width="0.3" height="15.0" fill="rgb(254,225,53)" rx="2" ry="2" />
<text  x="15.99" y="79.5" ></text>
</g>
<g >
<title>__mmput (922,889 samples, 0.02%)</title><rect x="60.9" y="245" width="0.3" height="15.0" fill="rgb(249,203,48)" rx="2" ry="2" />
<text  x="63.93" y="255.5" ></text>
</g>
<g >
<title>vfs_write (922,879 samples, 0.02%)</title><rect x="13.3" y="245" width="0.3" height="15.0" fill="rgb(250,209,50)" rx="2" ry="2" />
<text  x="16.27" y="255.5" ></text>
</g>
<g >
<title>free_buffer_head (924,234 samples, 0.02%)</title><rect x="13.0" y="85" width="0.3" height="15.0" fill="rgb(243,177,42)" rx="2" ry="2" />
<text  x="15.99" y="95.5" ></text>
</g>
<g >
<title>entry_SYSCALL_64_after_hwframe (478,276 samples, 0.01%)</title><rect x="13.6" y="309" width="0.1" height="15.0" fill="rgb(218,63,15)" rx="2" ry="2" />
<text  x="16.56" y="319.5" ></text>
</g>
<g >
<title>__handle_mm_fault (844,370 samples, 0.02%)</title><rect x="1185.7" y="245" width="0.3" height="15.0" fill="rgb(207,9,2)" rx="2" ry="2" />
<text  x="1188.75" y="255.5" ></text>
</g>
<g >
<title>__x64_sys_openat (924,234 samples, 0.02%)</title><rect x="13.0" y="261" width="0.3" height="15.0" fill="rgb(251,215,51)" rx="2" ry="2" />
<text  x="15.99" y="271.5" ></text>
</g>
<g >
<title>kfree (362,828 samples, 0.01%)</title><rect x="13.6" y="213" width="0.1" height="15.0" fill="rgb(222,78,18)" rx="2" ry="2" />
<text  x="16.59" y="223.5" ></text>
</g>
<g >
<title>do_exit (922,889 samples, 0.02%)</title><rect x="60.9" y="261" width="0.3" height="15.0" fill="rgb(231,122,29)" rx="2" ry="2" />
<text  x="63.93" y="271.5" ></text>
</g>
<g >
<title>truncate_cleanup_folio (924,234 samples, 0.02%)</title><rect x="13.0" y="117" width="0.3" height="15.0" fill="rgb(240,165,39)" rx="2" ry="2" />
<text  x="15.99" y="127.5" ></text>
</g>
<g >
<title>w2c_decode__webp__wasm_ExtractGreen_C (20,322,315 samples, 0.53%)</title><rect x="72.7" y="325" width="6.3" height="15.0" fill="rgb(247,194,46)" rx="2" ry="2" />
<text  x="75.71" y="335.5" ></text>
</g>
<g >
<title>w2c_decode__webp__wasm_VFilter16i_C (923,045 samples, 0.02%)</title><rect x="1186.9" y="325" width="0.2" height="15.0" fill="rgb(214,43,10)" rx="2" ry="2" />
<text  x="1189.86" y="335.5" ></text>
</g>
<g >
<title>check_preemption_disabled (924,234 samples, 0.02%)</title><rect x="13.0" y="37" width="0.3" height="15.0" fill="rgb(220,73,17)" rx="2" ry="2" />
<text  x="15.99" y="47.5" ></text>
</g>
<g >
<title>[unknown] (156,132,230 samples, 4.08%)</title><rect x="10.0" y="325" width="48.1" height="15.0" fill="rgb(210,24,5)" rx="2" ry="2" />
<text  x="13.00" y="335.5" >[unk..</text>
</g>
<g >
<title>unmap_page_range (922,889 samples, 0.02%)</title><rect x="60.9" y="197" width="0.3" height="15.0" fill="rgb(206,5,1)" rx="2" ry="2" />
<text  x="63.93" y="207.5" ></text>
</g>
<g >
<title>asm_exc_page_fault (844,370 samples, 0.02%)</title><rect x="1185.7" y="309" width="0.3" height="15.0" fill="rgb(225,93,22)" rx="2" ry="2" />
<text  x="1188.75" y="319.5" ></text>
</g>
<g >
<title>ext4_setattr (924,234 samples, 0.02%)</title><rect x="13.0" y="165" width="0.3" height="15.0" fill="rgb(230,117,28)" rx="2" ry="2" />
<text  x="15.99" y="175.5" ></text>
</g>
<g >
<title>w2c_decode__webp__wasm_FilterLoop26_C (84,917,368 samples, 2.22%)</title><rect x="116.2" y="325" width="26.1" height="15.0" fill="rgb(243,176,42)" rx="2" ry="2" />
<text  x="119.18" y="335.5" >w..</text>
</g>
<g >
<title>do_syscall_64 (922,889 samples, 0.02%)</title><rect x="60.9" y="309" width="0.3" height="15.0" fill="rgb(209,20,4)" rx="2" ry="2" />
<text  x="63.93" y="319.5" ></text>
</g>
<g >
<title>exit_mmap (922,889 samples, 0.02%)</title><rect x="60.9" y="229" width="0.3" height="15.0" fill="rgb(236,143,34)" rx="2" ry="2" />
<text  x="63.93" y="239.5" ></text>
</g>
<g >
<title>w2c_decode__webp__wasm_TransformOne_C (38,785,258 samples, 1.01%)</title><rect x="18.5" y="309" width="12.0" height="15.0" fill="rgb(231,120,28)" rx="2" ry="2" />
<text  x="21.54" y="319.5" ></text>
</g>
<g >
<title>__x64_sys_exit_group (922,889 samples, 0.02%)</title><rect x="60.9" y="293" width="0.3" height="15.0" fill="rgb(214,42,10)" rx="2" ry="2" />
<text  x="63.93" y="303.5" ></text>
</g>
<g >
<title>w2c_decode__webp__wasm_GetCoeffsFast (1,848,159 samples, 0.05%)</title><rect x="11.1" y="229" width="0.6" height="15.0" fill="rgb(232,124,29)" rx="2" ry="2" />
<text  x="14.14" y="239.5" ></text>
</g>
<g >
<title>w2c_decode__webp__wasm_ReconstructRow (22,166,991 samples, 0.58%)</title><rect x="255.0" y="325" width="6.8" height="15.0" fill="rgb(238,153,36)" rx="2" ry="2" />
<text  x="258.00" y="335.5" ></text>
</g>
<g >
<title>entry_SYSCALL_64_after_hwframe (922,879 samples, 0.02%)</title><rect x="13.3" y="293" width="0.3" height="15.0" fill="rgb(218,63,15)" rx="2" ry="2" />
<text  x="16.27" y="303.5" ></text>
</g>
<g >
<title>[unknown] (9,240,433 samples, 0.24%)</title><rect x="10.0" y="277" width="2.8" height="15.0" fill="rgb(210,24,5)" rx="2" ry="2" />
<text  x="13.00" y="287.5" ></text>
</g>
<g >
<title>w2c_decode__webp__wasm_FinishRow (6,468,947 samples, 0.17%)</title><rect x="142.3" y="325" width="2.0" height="15.0" fill="rgb(227,101,24)" rx="2" ry="2" />
<text  x="145.33" y="335.5" ></text>
</g>
<g >
<title>__mark_inode_dirty (922,879 samples, 0.02%)</title><rect x="13.3" y="181" width="0.3" height="15.0" fill="rgb(254,227,54)" rx="2" ry="2" />
<text  x="16.27" y="191.5" ></text>
</g>
<g >
<title>__libc_open64 (924,234 samples, 0.02%)</title><rect x="13.0" y="309" width="0.3" height="15.0" fill="rgb(235,140,33)" rx="2" ry="2" />
<text  x="15.99" y="319.5" ></text>
</g>
</g>
</svg>
