<?xml version="1.0" standalone="no"?>
<!DOCTYPE svg PUBLIC "-//W3C//DTD SVG 1.1//EN" "http://www.w3.org/Graphics/SVG/1.1/DTD/svg11.dtd">
<svg version="1.1" width="1200" height="374" onload="init(evt)" viewBox="0 0 1200 374" xmlns="http://www.w3.org/2000/svg" xmlns:xlink="http://www.w3.org/1999/xlink">
<!-- Flame graph stack visualization. See https://github.com/brendangregg/FlameGraph for latest version, and http://www.brendangregg.com/flamegraphs.html for examples. -->
<!-- NOTES:  -->
<defs>
	<linearGradient id="background" y1="0" y2="1" x1="0" x2="0" >
		<stop stop-color="#eeeeee" offset="5%" />
		<stop stop-color="#eeeeb0" offset="95%" />
	</linearGradient>
</defs>
<style type="text/css">
	text { font-family:Verdana; font-size:12px; fill:rgb(0,0,0); }
	#search, #ignorecase { opacity:0.1; cursor:pointer; }
	#search:hover, #search.show, #ignorecase:hover, #ignorecase.show { opacity:1; }
	#subtitle { text-anchor:middle; font-color:rgb(160,160,160); }
	#title { text-anchor:middle; font-size:17px}
	#unzoom { cursor:pointer; }
	#frames > *:hover { stroke:black; stroke-width:0.5; cursor:pointer; }
	.hide { display:none; }
	.parent { opacity:0.5; }
</style>
<script type="text/ecmascript">
<![CDATA[
	"use strict";
	var details, searchbtn, unzoombtn, matchedtxt, svg, searching, currentSearchTerm, ignorecase, ignorecaseBtn;
	function init(evt) {
		details = document.getElementById("details").firstChild;
		searchbtn = document.getElementById("search");
		ignorecaseBtn = document.getElementById("ignorecase");
		unzoombtn = document.getElementById("unzoom");
		matchedtxt = document.getElementById("matched");
		svg = document.getElementsByTagName("svg")[0];
		searching = 0;
		currentSearchTerm = null;

		// use GET parameters to restore a flamegraphs state.
		var params = get_params();
		if (params.x && params.y)
			zoom(find_group(document.querySelector('[x="' + params.x + '"][y="' + params.y + '"]')));
                if (params.s) search(params.s);
	}

	// event listeners
	window.addEventListener("click", function(e) {
		var target = find_group(e.target);
		if (target) {
			if (target.nodeName == "a") {
				if (e.ctrlKey === false) return;
				e.preventDefault();
			}
			if (target.classList.contains("parent")) unzoom(true);
			zoom(target);
			if (!document.querySelector('.parent')) {
				// we have basically done a clearzoom so clear the url
				var params = get_params();
				if (params.x) delete params.x;
				if (params.y) delete params.y;
				history.replaceState(null, null, parse_params(params));
				unzoombtn.classList.add("hide");
				return;
			}

			// set parameters for zoom state
			var el = target.querySelector("rect");
			if (el && el.attributes && el.attributes.y && el.attributes._orig_x) {
				var params = get_params()
				params.x = el.attributes._orig_x.value;
				params.y = el.attributes.y.value;
				history.replaceState(null, null, parse_params(params));
			}
		}
		else if (e.target.id == "unzoom") clearzoom();
		else if (e.target.id == "search") search_prompt();
		else if (e.target.id == "ignorecase") toggle_ignorecase();
	}, false)

	// mouse-over for info
	// show
	window.addEventListener("mouseover", function(e) {
		var target = find_group(e.target);
		if (target) details.nodeValue = "Function: " + g_to_text(target);
	}, false)

	// clear
	window.addEventListener("mouseout", function(e) {
		var target = find_group(e.target);
		if (target) details.nodeValue = ' ';
	}, false)

	// ctrl-F for search
	// ctrl-I to toggle case-sensitive search
	window.addEventListener("keydown",function (e) {
		if (e.keyCode === 114 || (e.ctrlKey && e.keyCode === 70)) {
			e.preventDefault();
			search_prompt();
		}
		else if (e.ctrlKey && e.keyCode === 73) {
			e.preventDefault();
			toggle_ignorecase();
		}
	}, false)

	// functions
	function get_params() {
		var params = {};
		var paramsarr = window.location.search.substr(1).split('&');
		for (var i = 0; i < paramsarr.length; ++i) {
			var tmp = paramsarr[i].split("=");
			if (!tmp[0] || !tmp[1]) continue;
			params[tmp[0]]  = decodeURIComponent(tmp[1]);
		}
		return params;
	}
	function parse_params(params) {
		var uri = "?";
		for (var key in params) {
			uri += key + '=' + encodeURIComponent(params[key]) + '&';
		}
		if (uri.slice(-1) == "&")
			uri = uri.substring(0, uri.length - 1);
		if (uri == '?')
			uri = window.location.href.split('?')[0];
		return uri;
	}
	function find_child(node, selector) {
		var children = node.querySelectorAll(selector);
		if (children.length) return children[0];
	}
	function find_group(node) {
		var parent = node.parentElement;
		if (!parent) return;
		if (parent.id == "frames") return node;
		return find_group(parent);
	}
	function orig_save(e, attr, val) {
		if (e.attributes["_orig_" + attr] != undefined) return;
		if (e.attributes[attr] == undefined) return;
		if (val == undefined) val = e.attributes[attr].value;
		e.setAttribute("_orig_" + attr, val);
	}
	function orig_load(e, attr) {
		if (e.attributes["_orig_"+attr] == undefined) return;
		e.attributes[attr].value = e.attributes["_orig_" + attr].value;
		e.removeAttribute("_orig_"+attr);
	}
	function g_to_text(e) {
		var text = find_child(e, "title").firstChild.nodeValue;
		return (text)
	}
	function g_to_func(e) {
		var func = g_to_text(e);
		// if there's any manipulation we want to do to the function
		// name before it's searched, do it here before returning.
		return (func);
	}
	function update_text(e) {
		var r = find_child(e, "rect");
		var t = find_child(e, "text");
		var w = parseFloat(r.attributes.width.value) -3;
		var txt = find_child(e, "title").textContent.replace(/\([^(]*\)$/,"");
		t.attributes.x.value = parseFloat(r.attributes.x.value) + 3;

		// Smaller than this size won't fit anything
		if (w < 2 * 12 * 0.59) {
			t.textContent = "";
			return;
		}

		t.textContent = txt;
		var sl = t.getSubStringLength(0, txt.length);
		// check if only whitespace or if we can fit the entire string into width w
		if (/^ *$/.test(txt) || sl < w)
			return;

		// this isn't perfect, but gives a good starting point
		// and avoids calling getSubStringLength too often
		var start = Math.floor((w/sl) * txt.length);
		for (var x = start; x > 0; x = x-2) {
			if (t.getSubStringLength(0, x + 2) <= w) {
				t.textContent = txt.substring(0, x) + "..";
				return;
			}
		}
		t.textContent = "";
	}

	// zoom
	function zoom_reset(e) {
		if (e.attributes != undefined) {
			orig_load(e, "x");
			orig_load(e, "width");
		}
		if (e.childNodes == undefined) return;
		for (var i = 0, c = e.childNodes; i < c.length; i++) {
			zoom_reset(c[i]);
		}
	}
	function zoom_child(e, x, ratio) {
		if (e.attributes != undefined) {
			if (e.attributes.x != undefined) {
				orig_save(e, "x");
				e.attributes.x.value = (parseFloat(e.attributes.x.value) - x - 10) * ratio + 10;
				if (e.tagName == "text")
					e.attributes.x.value = find_child(e.parentNode, "rect[x]").attributes.x.value + 3;
			}
			if (e.attributes.width != undefined) {
				orig_save(e, "width");
				e.attributes.width.value = parseFloat(e.attributes.width.value) * ratio;
			}
		}

		if (e.childNodes == undefined) return;
		for (var i = 0, c = e.childNodes; i < c.length; i++) {
			zoom_child(c[i], x - 10, ratio);
		}
	}
	function zoom_parent(e) {
		if (e.attributes) {
			if (e.attributes.x != undefined) {
				orig_save(e, "x");
				e.attributes.x.value = 10;
			}
			if (e.attributes.width != undefined) {
				orig_save(e, "width");
				e.attributes.width.value = parseInt(svg.width.baseVal.value) - (10 * 2);
			}
		}
		if (e.childNodes == undefined) return;
		for (var i = 0, c = e.childNodes; i < c.length; i++) {
			zoom_parent(c[i]);
		}
	}
	function zoom(node) {
		var attr = find_child(node, "rect").attributes;
		var width = parseFloat(attr.width.value);
		var xmin = parseFloat(attr.x.value);
		var xmax = parseFloat(xmin + width);
		var ymin = parseFloat(attr.y.value);
		var ratio = (svg.width.baseVal.value - 2 * 10) / width;

		// XXX: Workaround for JavaScript float issues (fix me)
		var fudge = 0.0001;

		unzoombtn.classList.remove("hide");

		var el = document.getElementById("frames").children;
		for (var i = 0; i < el.length; i++) {
			var e = el[i];
			var a = find_child(e, "rect").attributes;
			var ex = parseFloat(a.x.value);
			var ew = parseFloat(a.width.value);
			var upstack;
			// Is it an ancestor
			if (0 == 0) {
				upstack = parseFloat(a.y.value) > ymin;
			} else {
				upstack = parseFloat(a.y.value) < ymin;
			}
			if (upstack) {
				// Direct ancestor
				if (ex <= xmin && (ex+ew+fudge) >= xmax) {
					e.classList.add("parent");
					zoom_parent(e);
					update_text(e);
				}
				// not in current path
				else
					e.classList.add("hide");
			}
			// Children maybe
			else {
				// no common path
				if (ex < xmin || ex + fudge >= xmax) {
					e.classList.add("hide");
				}
				else {
					zoom_child(e, xmin, ratio);
					update_text(e);
				}
			}
		}
		search();
	}
	function unzoom(dont_update_text) {
		unzoombtn.classList.add("hide");
		var el = document.getElementById("frames").children;
		for(var i = 0; i < el.length; i++) {
			el[i].classList.remove("parent");
			el[i].classList.remove("hide");
			zoom_reset(el[i]);
			if(!dont_update_text) update_text(el[i]);
		}
		search();
	}
	function clearzoom() {
		unzoom();

		// remove zoom state
		var params = get_params();
		if (params.x) delete params.x;
		if (params.y) delete params.y;
		history.replaceState(null, null, parse_params(params));
	}

	// search
	function toggle_ignorecase() {
		ignorecase = !ignorecase;
		if (ignorecase) {
			ignorecaseBtn.classList.add("show");
		} else {
			ignorecaseBtn.classList.remove("show");
		}
		reset_search();
		search();
	}
	function reset_search() {
		var el = document.querySelectorAll("#frames rect");
		for (var i = 0; i < el.length; i++) {
			orig_load(el[i], "fill")
		}
		var params = get_params();
		delete params.s;
		history.replaceState(null, null, parse_params(params));
	}
	function search_prompt() {
		if (!searching) {
			var term = prompt("Enter a search term (regexp " +
			    "allowed, eg: ^ext4_)"
			    + (ignorecase ? ", ignoring case" : "")
			    + "\nPress Ctrl-i to toggle case sensitivity", "");
			if (term != null) search(term);
		} else {
			reset_search();
			searching = 0;
			currentSearchTerm = null;
			searchbtn.classList.remove("show");
			searchbtn.firstChild.nodeValue = "Search"
			matchedtxt.classList.add("hide");
			matchedtxt.firstChild.nodeValue = ""
		}
	}
	function search(term) {
		if (term) currentSearchTerm = term;

		var re = new RegExp(currentSearchTerm, ignorecase ? 'i' : '');
		var el = document.getElementById("frames").children;
		var matches = new Object();
		var maxwidth = 0;
		for (var i = 0; i < el.length; i++) {
			var e = el[i];
			var func = g_to_func(e);
			var rect = find_child(e, "rect");
			if (func == null || rect == null)
				continue;

			// Save max width. Only works as we have a root frame
			var w = parseFloat(rect.attributes.width.value);
			if (w > maxwidth)
				maxwidth = w;

			if (func.match(re)) {
				// highlight
				var x = parseFloat(rect.attributes.x.value);
				orig_save(rect, "fill");
				rect.attributes.fill.value = "rgb(230,0,230)";

				// remember matches
				if (matches[x] == undefined) {
					matches[x] = w;
				} else {
					if (w > matches[x]) {
						// overwrite with parent
						matches[x] = w;
					}
				}
				searching = 1;
			}
		}
		if (!searching)
			return;
		var params = get_params();
		params.s = currentSearchTerm;
		history.replaceState(null, null, parse_params(params));

		searchbtn.classList.add("show");
		searchbtn.firstChild.nodeValue = "Reset Search";

		// calculate percent matched, excluding vertical overlap
		var count = 0;
		var lastx = -1;
		var lastw = 0;
		var keys = Array();
		for (k in matches) {
			if (matches.hasOwnProperty(k))
				keys.push(k);
		}
		// sort the matched frames by their x location
		// ascending, then width descending
		keys.sort(function(a, b){
			return a - b;
		});
		// Step through frames saving only the biggest bottom-up frames
		// thanks to the sort order. This relies on the tree property
		// where children are always smaller than their parents.
		var fudge = 0.0001;	// JavaScript floating point
		for (var k in keys) {
			var x = parseFloat(keys[k]);
			var w = matches[keys[k]];
			if (x >= lastx + lastw - fudge) {
				count += w;
				lastx = x;
				lastw = w;
			}
		}
		// display matched percent
		matchedtxt.classList.remove("hide");
		var pct = 100 * count / maxwidth;
		if (pct != 100) pct = pct.toFixed(1)
		matchedtxt.firstChild.nodeValue = "Matched: " + pct + "%";
	}
]]>
</script>
<rect x="0.0" y="0" width="1200.0" height="374.0" fill="url(#background)"  />
<text id="title" x="600.00" y="24" >Flame Graph</text>
<text id="details" x="10.00" y="357" > </text>
<text id="unzoom" x="10.00" y="24" class="hide">Reset Zoom</text>
<text id="search" x="1090.00" y="24" >Search</text>
<text id="ignorecase" x="1174.00" y="24" >ic</text>
<text id="matched" x="1090.00" y="357" > </text>
<g id="frames">
<g >
<title>VR4_C (1,848,556 samples, 0.05%)</title><rect x="138.9" y="293" width="0.6" height="15.0" fill="rgb(245,187,44)" rx="2" ry="2" />
<text  x="141.86" y="303.5" ></text>
</g>
<g >
<title>VP8DecodeMB (10,037,553 samples, 0.28%)</title><rect x="132.9" y="293" width="3.3" height="15.0" fill="rgb(208,18,4)" rx="2" ry="2" />
<text  x="135.93" y="303.5" ></text>
</g>
<g >
<title>all (3,638,223,372 samples, 100%)</title><rect x="10.0" y="325" width="1180.0" height="15.0" fill="rgb(213,39,9)" rx="2" ry="2" />
<text  x="13.00" y="335.5" ></text>
</g>
<g >
<title>EmitFancyRGB (922,850 samples, 0.03%)</title><rect x="1128.3" y="261" width="0.3" height="15.0" fill="rgb(210,26,6)" rx="2" ry="2" />
<text  x="1131.34" y="271.5" ></text>
</g>
<g >
<title>do_user_addr_fault (905,098 samples, 0.02%)</title><rect x="1128.0" y="213" width="0.3" height="15.0" fill="rgb(228,108,25)" rx="2" ry="2" />
<text  x="1131.04" y="223.5" ></text>
</g>
<g >
<title>asm_exc_page_fault (898,390 samples, 0.02%)</title><rect x="1189.4" y="277" width="0.3" height="15.0" fill="rgb(225,93,22)" rx="2" ry="2" />
<text  x="1192.41" y="287.5" ></text>
</g>
<g >
<title>HFilter16_C (19,400,528 samples, 0.53%)</title><rect x="156.1" y="277" width="6.3" height="15.0" fill="rgb(220,69,16)" rx="2" ry="2" />
<text  x="159.07" y="287.5" ></text>
</g>
<g >
<title>GetCoeffsFast (1,847,561 samples, 0.05%)</title><rect x="141.0" y="277" width="0.6" height="15.0" fill="rgb(219,64,15)" rx="2" ry="2" />
<text  x="143.96" y="287.5" ></text>
</g>
<g >
<title>entry_SYSCALL_64_after_hwframe (478,519 samples, 0.01%)</title><rect x="1188.4" y="277" width="0.1" height="15.0" fill="rgb(218,63,15)" rx="2" ry="2" />
<text  x="1191.36" y="287.5" ></text>
</g>
<g >
<title>truncate_cleanup_folio (923,134 samples, 0.03%)</title><rect x="1188.1" y="85" width="0.3" height="15.0" fill="rgb(240,165,39)" rx="2" ry="2" />
<text  x="1191.06" y="95.5" ></text>
</g>
<g >
<title>__memmove_avx_unaligned_erms (2,745,584 samples, 0.08%)</title><rect x="1188.8" y="293" width="0.9" height="15.0" fill="rgb(205,0,0)" rx="2" ry="2" />
<text  x="1191.81" y="303.5" ></text>
</g>
<g >
<title>__handle_mm_fault (376,260 samples, 0.01%)</title><rect x="1188.4" y="85" width="0.1" height="15.0" fill="rgb(207,9,2)" rx="2" ry="2" />
<text  x="1191.36" y="95.5" ></text>
</g>
<g >
<title>do_syscall_64 (478,519 samples, 0.01%)</title><rect x="1188.4" y="261" width="0.1" height="15.0" fill="rgb(209,20,4)" rx="2" ry="2" />
<text  x="1191.36" y="271.5" ></text>
</g>
<g >
<title>__x64_sys_openat (923,134 samples, 0.03%)</title><rect x="1188.1" y="229" width="0.3" height="15.0" fill="rgb(251,215,51)" rx="2" ry="2" />
<text  x="1191.06" y="239.5" ></text>
</g>
<g >
<title>__do_global_dtors_aux (546,007 samples, 0.02%)</title><rect x="1187.9" y="277" width="0.2" height="15.0" fill="rgb(245,185,44)" rx="2" ry="2" />
<text  x="1190.88" y="287.5" ></text>
</g>
<g >
<title>VP8ParseIntraModeRow (44,159,876 samples, 1.21%)</title><rect x="1111.0" y="277" width="14.3" height="15.0" fill="rgb(231,121,29)" rx="2" ry="2" />
<text  x="1114.02" y="287.5" ></text>
</g>
<g >
<title>TM16_C (7,388,720 samples, 0.20%)</title><rect x="166.0" y="277" width="2.4" height="15.0" fill="rgb(211,30,7)" rx="2" ry="2" />
<text  x="168.95" y="287.5" ></text>
</g>
<g >
<title>__count_memcg_events (898,390 samples, 0.02%)</title><rect x="1189.4" y="197" width="0.3" height="15.0" fill="rgb(250,211,50)" rx="2" ry="2" />
<text  x="1192.41" y="207.5" ></text>
</g>
<g >
<title>VP8DecodeMB (21,247,667 samples, 0.58%)</title><rect x="1104.1" y="277" width="6.9" height="15.0" fill="rgb(208,18,4)" rx="2" ry="2" />
<text  x="1107.13" y="287.5" ></text>
</g>
<g >
<title>__x64_sys_execve (478,519 samples, 0.01%)</title><rect x="1188.4" y="245" width="0.1" height="15.0" fill="rgb(247,193,46)" rx="2" ry="2" />
<text  x="1191.36" y="255.5" ></text>
</g>
<g >
<title>__anon_vma_prepare (376,260 samples, 0.01%)</title><rect x="1188.4" y="53" width="0.1" height="15.0" fill="rgb(249,205,49)" rx="2" ry="2" />
<text  x="1191.36" y="63.5" ></text>
</g>
<g >
<title>[unknown] (3,234,480,516 samples, 88.90%)</title><rect x="139.5" y="293" width="1049.0" height="15.0" fill="rgb(210,24,5)" rx="2" ry="2" />
<text  x="142.46" y="303.5" >[unknown]</text>
</g>
<g >
<title>ExtractGreen_C (16,625,771 samples, 0.46%)</title><rect x="12.7" y="293" width="5.4" height="15.0" fill="rgb(234,134,32)" rx="2" ry="2" />
<text  x="15.70" y="303.5" ></text>
</g>
<g >
<title>do_fault (546,007 samples, 0.02%)</title><rect x="1187.9" y="149" width="0.2" height="15.0" fill="rgb(248,200,47)" rx="2" ry="2" />
<text  x="1190.88" y="159.5" ></text>
</g>
<g >
<title>clear_user_rep_good (376,260 samples, 0.01%)</title><rect x="1188.4" y="165" width="0.1" height="15.0" fill="rgb(224,89,21)" rx="2" ry="2" />
<text  x="1191.36" y="175.5" ></text>
</g>
<g >
<title>FinishRow (924,266 samples, 0.03%)</title><rect x="38.3" y="293" width="0.3" height="15.0" fill="rgb(213,41,9)" rx="2" ry="2" />
<text  x="41.29" y="303.5" ></text>
</g>
<g >
<title>TransformDC_C (5,541,595 samples, 0.15%)</title><rect x="169.2" y="277" width="1.8" height="15.0" fill="rgb(219,65,15)" rx="2" ry="2" />
<text  x="172.25" y="287.5" ></text>
</g>
<g >
<title>do_filp_open (923,134 samples, 0.03%)</title><rect x="1188.1" y="197" width="0.3" height="15.0" fill="rgb(211,28,6)" rx="2" ry="2" />
<text  x="1191.06" y="207.5" ></text>
</g>
<g >
<title>handle_mm_fault (898,390 samples, 0.02%)</title><rect x="1189.4" y="229" width="0.3" height="15.0" fill="rgb(234,135,32)" rx="2" ry="2" />
<text  x="1192.41" y="239.5" ></text>
</g>
<g >
<title>do_user_addr_fault (882,341 samples, 0.02%)</title><rect x="1187.6" y="213" width="0.3" height="15.0" fill="rgb(228,108,25)" rx="2" ry="2" />
<text  x="1190.59" y="223.5" ></text>
</g>
<g >
<title>FinishRow (3,696,190 samples, 0.10%)</title><rect x="139.8" y="277" width="1.2" height="15.0" fill="rgb(213,41,9)" rx="2" ry="2" />
<text  x="142.76" y="287.5" ></text>
</g>
<g >
<title>HU4_C (1,847,681 samples, 0.05%)</title><rect x="48.7" y="293" width="0.6" height="15.0" fill="rgb(216,54,13)" rx="2" ry="2" />
<text  x="51.75" y="303.5" ></text>
</g>
<g >
<title>GetCoeffsFast (4,620,088 samples, 0.13%)</title><rect x="38.6" y="293" width="1.5" height="15.0" fill="rgb(219,64,15)" rx="2" ry="2" />
<text  x="41.59" y="303.5" ></text>
</g>
<g >
<title>[unknown] (192,802,105 samples, 5.30%)</title><rect x="1125.3" y="277" width="62.6" height="15.0" fill="rgb(210,24,5)" rx="2" ry="2" />
<text  x="1128.35" y="287.5" >[unkno..</text>
</g>
<g >
<title>do_truncate (923,134 samples, 0.03%)</title><rect x="1188.1" y="165" width="0.3" height="15.0" fill="rgb(216,53,12)" rx="2" ry="2" />
<text  x="1191.06" y="175.5" ></text>
</g>
<g >
<title>VFilter8_C (923,670 samples, 0.03%)</title><rect x="132.6" y="293" width="0.3" height="15.0" fill="rgb(233,130,31)" rx="2" ry="2" />
<text  x="135.63" y="303.5" ></text>
</g>
<g >
<title>do_execveat_common.isra.0 (478,519 samples, 0.01%)</title><rect x="1188.4" y="229" width="0.1" height="15.0" fill="rgb(231,123,29)" rx="2" ry="2" />
<text  x="1191.36" y="239.5" ></text>
</g>
<g >
<title>bprm_execve (478,519 samples, 0.01%)</title><rect x="1188.4" y="213" width="0.1" height="15.0" fill="rgb(218,61,14)" rx="2" ry="2" />
<text  x="1191.36" y="223.5" ></text>
</g>
<g >
<title>notify_change (923,134 samples, 0.03%)</title><rect x="1188.1" y="149" width="0.3" height="15.0" fill="rgb(237,150,35)" rx="2" ry="2" />
<text  x="1191.06" y="159.5" ></text>
</g>
<g >
<title>__memmove_avx_unaligned_erms (882,341 samples, 0.02%)</title><rect x="1187.6" y="261" width="0.3" height="15.0" fill="rgb(205,0,0)" rx="2" ry="2" />
<text  x="1190.59" y="271.5" ></text>
</g>
<g >
<title>find_mergeable_anon_vma (376,260 samples, 0.01%)</title><rect x="1188.4" y="37" width="0.1" height="15.0" fill="rgb(250,208,49)" rx="2" ry="2" />
<text  x="1191.36" y="47.5" ></text>
</g>
<g >
<title>asm_exc_page_fault (882,341 samples, 0.02%)</title><rect x="1187.6" y="245" width="0.3" height="15.0" fill="rgb(225,93,22)" rx="2" ry="2" />
<text  x="1190.59" y="255.5" ></text>
</g>
<g >
<title>entry_SYSCALL_64_after_hwframe (923,134 samples, 0.03%)</title><rect x="1188.1" y="261" width="0.3" height="15.0" fill="rgb(218,63,15)" rx="2" ry="2" />
<text  x="1191.06" y="271.5" ></text>
</g>
<g >
<title>do_syscall_64 (923,134 samples, 0.03%)</title><rect x="1188.1" y="245" width="0.3" height="15.0" fill="rgb(209,20,4)" rx="2" ry="2" />
<text  x="1191.06" y="255.5" ></text>
</g>
<g >
<title>TransformOne_C (2,840,115,284 samples, 78.06%)</title><rect x="171.0" y="277" width="921.2" height="15.0" fill="rgb(218,59,14)" rx="2" ry="2" />
<text  x="174.05" y="287.5" >TransformOne_C</text>
</g>
<g >
<title>ReconstructRow (4,615,181 samples, 0.13%)</title><rect x="164.5" y="277" width="1.5" height="15.0" fill="rgb(225,93,22)" rx="2" ry="2" />
<text  x="167.46" y="287.5" ></text>
</g>
<g >
<title>handle_mm_fault (376,260 samples, 0.01%)</title><rect x="1188.4" y="101" width="0.1" height="15.0" fill="rgb(234,135,32)" rx="2" ry="2" />
<text  x="1191.36" y="111.5" ></text>
</g>
<g >
<title>block_invalidate_folio (923,134 samples, 0.03%)</title><rect x="1188.1" y="69" width="0.3" height="15.0" fill="rgb(210,25,6)" rx="2" ry="2" />
<text  x="1191.06" y="79.5" ></text>
</g>
<g >
<title>HE8uv_C (923,443 samples, 0.03%)</title><rect x="155.8" y="277" width="0.3" height="15.0" fill="rgb(226,98,23)" rx="2" ry="2" />
<text  x="158.77" y="287.5" ></text>
</g>
<g >
<title>DecodeImageData (9,220,583 samples, 0.25%)</title><rect x="1125.3" y="261" width="3.0" height="15.0" fill="rgb(254,229,54)" rx="2" ry="2" />
<text  x="1128.35" y="271.5" ></text>
</g>
<g >
<title>asm_exc_page_fault (905,098 samples, 0.02%)</title><rect x="1128.0" y="245" width="0.3" height="15.0" fill="rgb(225,93,22)" rx="2" ry="2" />
<text  x="1131.04" y="255.5" ></text>
</g>
<g >
<title>__handle_mm_fault (905,098 samples, 0.02%)</title><rect x="1128.0" y="181" width="0.3" height="15.0" fill="rgb(207,9,2)" rx="2" ry="2" />
<text  x="1131.04" y="191.5" ></text>
</g>
<g >
<title>exc_page_fault (376,260 samples, 0.01%)</title><rect x="1188.4" y="133" width="0.1" height="15.0" fill="rgb(212,35,8)" rx="2" ry="2" />
<text  x="1191.36" y="143.5" ></text>
</g>
<g >
<title>GetCoeffsFast (175,311,311 samples, 4.82%)</title><rect x="1128.6" y="261" width="56.9" height="15.0" fill="rgb(219,64,15)" rx="2" ry="2" />
<text  x="1131.64" y="271.5" >GetCoe..</text>
</g>
<g >
<title>ReadHuffmanCodesHelper (923,013 samples, 0.03%)</title><rect x="1186.1" y="261" width="0.3" height="15.0" fill="rgb(209,22,5)" rx="2" ry="2" />
<text  x="1189.09" y="271.5" ></text>
</g>
<g >
<title>__register_frame_info (546,007 samples, 0.02%)</title><rect x="1187.9" y="245" width="0.2" height="15.0" fill="rgb(251,215,51)" rx="2" ry="2" />
<text  x="1190.88" y="255.5" ></text>
</g>
<g >
<title>GetLargeValue (1,846,781 samples, 0.05%)</title><rect x="1185.5" y="261" width="0.6" height="15.0" fill="rgb(243,175,42)" rx="2" ry="2" />
<text  x="1188.50" y="271.5" ></text>
</g>
<g >
<title>VP8ParseProba (1,774,370 samples, 0.05%)</title><rect x="138.3" y="293" width="0.6" height="15.0" fill="rgb(224,88,21)" rx="2" ry="2" />
<text  x="141.28" y="303.5" ></text>
</g>
<g >
<title>check_preemption_disabled (898,390 samples, 0.02%)</title><rect x="1189.4" y="181" width="0.3" height="15.0" fill="rgb(220,73,17)" rx="2" ry="2" />
<text  x="1192.41" y="191.5" ></text>
</g>
<g >
<title>do_user_addr_fault (546,007 samples, 0.02%)</title><rect x="1187.9" y="197" width="0.2" height="15.0" fill="rgb(228,108,25)" rx="2" ry="2" />
<text  x="1190.88" y="207.5" ></text>
</g>
<g >
<title>DC4_C (4,618,466 samples, 0.13%)</title><rect x="11.2" y="293" width="1.5" height="15.0" fill="rgb(209,18,4)" rx="2" ry="2" />
<text  x="14.20" y="303.5" ></text>
</g>
<g >
<title>TransformDCUV_C (2,771,328 samples, 0.08%)</title><rect x="168.4" y="277" width="0.8" height="15.0" fill="rgb(214,44,10)" rx="2" ry="2" />
<text  x="171.35" y="287.5" ></text>
</g>
<g >
<title>__libc_open64 (923,134 samples, 0.03%)</title><rect x="1188.1" y="277" width="0.3" height="15.0" fill="rgb(235,140,33)" rx="2" ry="2" />
<text  x="1191.06" y="287.5" ></text>
</g>
<g >
<title>HFilter8i_C (5,540,749 samples, 0.15%)</title><rect x="162.7" y="277" width="1.8" height="15.0" fill="rgb(245,186,44)" rx="2" ry="2" />
<text  x="165.66" y="287.5" ></text>
</g>
<g >
<title>truncate_pagecache (923,134 samples, 0.03%)</title><rect x="1188.1" y="117" width="0.3" height="15.0" fill="rgb(231,123,29)" rx="2" ry="2" />
<text  x="1191.06" y="127.5" ></text>
</g>
<g >
<title>BuildHuffmanTable (3,693,886 samples, 0.10%)</title><rect x="10.0" y="293" width="1.2" height="15.0" fill="rgb(226,101,24)" rx="2" ry="2" />
<text  x="13.00" y="303.5" ></text>
</g>
<g >
<title>truncate_inode_pages_range (923,134 samples, 0.03%)</title><rect x="1188.1" y="101" width="0.3" height="15.0" fill="rgb(245,187,44)" rx="2" ry="2" />
<text  x="1191.06" y="111.5" ></text>
</g>
<g >
<title>TransformDC_C (923,876 samples, 0.03%)</title><rect x="55.2" y="293" width="0.3" height="15.0" fill="rgb(219,65,15)" rx="2" ry="2" />
<text  x="58.18" y="303.5" ></text>
</g>
<g >
<title>__handle_mm_fault (546,007 samples, 0.02%)</title><rect x="1187.9" y="165" width="0.2" height="15.0" fill="rgb(207,9,2)" rx="2" ry="2" />
<text  x="1190.88" y="175.5" ></text>
</g>
<g >
<title>do_user_addr_fault (376,260 samples, 0.01%)</title><rect x="1188.4" y="117" width="0.1" height="15.0" fill="rgb(228,108,25)" rx="2" ry="2" />
<text  x="1191.36" y="127.5" ></text>
</g>
<g >
<title>ReconstructRow (6,465,355 samples, 0.18%)</title><rect x="50.5" y="293" width="2.1" height="15.0" fill="rgb(225,93,22)" rx="2" ry="2" />
<text  x="53.55" y="303.5" ></text>
</g>
<g >
<title>next_uptodate_page (546,007 samples, 0.02%)</title><rect x="1187.9" y="117" width="0.2" height="15.0" fill="rgb(210,25,6)" rx="2" ry="2" />
<text  x="1190.88" y="127.5" ></text>
</g>
<g >
<title>count_memcg_events.constprop.0 (898,390 samples, 0.02%)</title><rect x="1189.4" y="213" width="0.3" height="15.0" fill="rgb(213,41,9)" rx="2" ry="2" />
<text  x="1192.41" y="223.5" ></text>
</g>
<g >
<title>ext4_setattr (923,134 samples, 0.03%)</title><rect x="1188.1" y="133" width="0.3" height="15.0" fill="rgb(230,117,28)" rx="2" ry="2" />
<text  x="1191.06" y="143.5" ></text>
</g>
<g >
<title>exc_page_fault (898,390 samples, 0.02%)</title><rect x="1189.4" y="261" width="0.3" height="15.0" fill="rgb(212,35,8)" rx="2" ry="2" />
<text  x="1192.41" y="271.5" ></text>
</g>
<g >
<title>page_add_new_anon_rmap (905,098 samples, 0.02%)</title><rect x="1128.0" y="165" width="0.3" height="15.0" fill="rgb(235,138,33)" rx="2" ry="2" />
<text  x="1131.04" y="175.5" ></text>
</g>
<g >
<title>FilterLoop24_C (19,361,280 samples, 0.53%)</title><rect x="18.1" y="293" width="6.3" height="15.0" fill="rgb(243,175,42)" rx="2" ry="2" />
<text  x="21.09" y="303.5" ></text>
</g>
<g >
<title>DC8uvNoLeft_C (924,011 samples, 0.03%)</title><rect x="139.5" y="277" width="0.3" height="15.0" fill="rgb(242,172,41)" rx="2" ry="2" />
<text  x="142.46" y="287.5" ></text>
</g>
<g >
<title>load_elf_binary (478,519 samples, 0.01%)</title><rect x="1188.4" y="197" width="0.1" height="15.0" fill="rgb(223,83,20)" rx="2" ry="2" />
<text  x="1191.36" y="207.5" ></text>
</g>
<g >
<title>path_openat (923,134 samples, 0.03%)</title><rect x="1188.1" y="181" width="0.3" height="15.0" fill="rgb(249,202,48)" rx="2" ry="2" />
<text  x="1191.06" y="191.5" ></text>
</g>
<g >
<title>asm_exc_page_fault (376,260 samples, 0.01%)</title><rect x="1188.4" y="149" width="0.1" height="15.0" fill="rgb(225,93,22)" rx="2" ry="2" />
<text  x="1191.36" y="159.5" ></text>
</g>
<g >
<title>TransformAC3_C (5,058,765 samples, 0.14%)</title><rect x="53.5" y="293" width="1.7" height="15.0" fill="rgb(209,19,4)" rx="2" ry="2" />
<text  x="56.54" y="303.5" ></text>
</g>
<g >
<title>TM4_C (2,770,810 samples, 0.08%)</title><rect x="52.6" y="293" width="0.9" height="15.0" fill="rgb(241,165,39)" rx="2" ry="2" />
<text  x="55.64" y="303.5" ></text>
</g>
<g >
<title>VP8ParseIntraModeRow (6,468,179 samples, 0.18%)</title><rect x="136.2" y="293" width="2.1" height="15.0" fill="rgb(231,121,29)" rx="2" ry="2" />
<text  x="139.19" y="303.5" ></text>
</g>
<g >
<title>do_fault (376,260 samples, 0.01%)</title><rect x="1188.4" y="69" width="0.1" height="15.0" fill="rgb(248,200,47)" rx="2" ry="2" />
<text  x="1191.36" y="79.5" ></text>
</g>
<g >
<title>malloc (924,283 samples, 0.03%)</title><rect x="1189.7" y="293" width="0.3" height="15.0" fill="rgb(230,119,28)" rx="2" ry="2" />
<text  x="1192.70" y="303.5" ></text>
</g>
<g >
<title>filemap_map_pages (546,007 samples, 0.02%)</title><rect x="1187.9" y="133" width="0.2" height="15.0" fill="rgb(229,112,27)" rx="2" ry="2" />
<text  x="1190.88" y="143.5" ></text>
</g>
<g >
<title>__mod_lruvec_page_state (905,098 samples, 0.02%)</title><rect x="1128.0" y="149" width="0.3" height="15.0" fill="rgb(245,185,44)" rx="2" ry="2" />
<text  x="1131.04" y="159.5" ></text>
</g>
<g >
<title>FilterLoop26_C (42,921,490 samples, 1.18%)</title><rect x="24.4" y="293" width="13.9" height="15.0" fill="rgb(230,116,27)" rx="2" ry="2" />
<text  x="27.37" y="303.5" ></text>
</g>
<g >
<title>TransformTwo_C (924,108 samples, 0.03%)</title><rect x="55.5" y="293" width="0.3" height="15.0" fill="rgb(212,36,8)" rx="2" ry="2" />
<text  x="58.48" y="303.5" ></text>
</g>
<g >
<title>asm_exc_page_fault (546,007 samples, 0.02%)</title><rect x="1187.9" y="229" width="0.2" height="15.0" fill="rgb(225,93,22)" rx="2" ry="2" />
<text  x="1190.88" y="239.5" ></text>
</g>
<g >
<title>VFilter16i_C (28,240,001 samples, 0.78%)</title><rect x="123.5" y="293" width="9.1" height="15.0" fill="rgb(251,213,51)" rx="2" ry="2" />
<text  x="126.47" y="303.5" ></text>
</g>
<g >
<title>exc_page_fault (905,098 samples, 0.02%)</title><rect x="1128.0" y="229" width="0.3" height="15.0" fill="rgb(212,35,8)" rx="2" ry="2" />
<text  x="1131.04" y="239.5" ></text>
</g>
<g >
<title>UpsampleRgbLinePair_C (923,822 samples, 0.03%)</title><rect x="1103.8" y="277" width="0.3" height="15.0" fill="rgb(228,108,26)" rx="2" ry="2" />
<text  x="1106.83" y="287.5" ></text>
</g>
<g >
<title>padzero (376,260 samples, 0.01%)</title><rect x="1188.4" y="181" width="0.1" height="15.0" fill="rgb(223,84,20)" rx="2" ry="2" />
<text  x="1191.36" y="191.5" ></text>
</g>
<g >
<title>decode_webp_nat (3,638,223,372 samples, 100.00%)</title><rect x="10.0" y="309" width="1180.0" height="15.0" fill="rgb(218,61,14)" rx="2" ry="2" />
<text  x="13.00" y="319.5" >decode_webp_nat</text>
</g>
<g >
<title>__libc_start_main_impl (546,007 samples, 0.02%)</title><rect x="1187.9" y="261" width="0.2" height="15.0" fill="rgb(218,63,15)" rx="2" ry="2" />
<text  x="1190.88" y="271.5" ></text>
</g>
<g >
<title>handle_mm_fault (905,098 samples, 0.02%)</title><rect x="1128.0" y="197" width="0.3" height="15.0" fill="rgb(234,135,32)" rx="2" ry="2" />
<text  x="1131.04" y="207.5" ></text>
</g>
<g >
<title>UpsampleRgbLinePair_C (208,697,271 samples, 5.74%)</title><rect x="55.8" y="293" width="67.7" height="15.0" fill="rgb(228,108,26)" rx="2" ry="2" />
<text  x="58.78" y="303.5" >Upsampl..</text>
</g>
<g >
<title>wake_up_bit (923,134 samples, 0.03%)</title><rect x="1188.1" y="53" width="0.3" height="15.0" fill="rgb(207,9,2)" rx="2" ry="2" />
<text  x="1191.06" y="63.5" ></text>
</g>
<g >
<title>HFilter16i_C (26,708,065 samples, 0.73%)</title><rect x="40.1" y="293" width="8.6" height="15.0" fill="rgb(241,169,40)" rx="2" ry="2" />
<text  x="43.09" y="303.5" ></text>
</g>
<g >
<title>exc_page_fault (546,007 samples, 0.02%)</title><rect x="1187.9" y="213" width="0.2" height="15.0" fill="rgb(212,35,8)" rx="2" ry="2" />
<text  x="1190.88" y="223.5" ></text>
</g>
<g >
<title>RD4_C (3,696,471 samples, 0.10%)</title><rect x="49.3" y="293" width="1.2" height="15.0" fill="rgb(212,32,7)" rx="2" ry="2" />
<text  x="52.35" y="303.5" ></text>
</g>
<g >
<title>do_sys_openat2 (923,134 samples, 0.03%)</title><rect x="1188.1" y="213" width="0.3" height="15.0" fill="rgb(253,221,52)" rx="2" ry="2" />
<text  x="1191.06" y="223.5" ></text>
</g>
<g >
<title>GetLargeValue (43,821,767 samples, 1.20%)</title><rect x="141.6" y="277" width="14.2" height="15.0" fill="rgb(243,175,42)" rx="2" ry="2" />
<text  x="144.56" y="287.5" ></text>
</g>
<g >
<title>handle_mm_fault (882,341 samples, 0.02%)</title><rect x="1187.6" y="197" width="0.3" height="15.0" fill="rgb(234,135,32)" rx="2" ry="2" />
<text  x="1190.59" y="207.5" ></text>
</g>
<g >
<title>TransformOne_C (1,846,742 samples, 0.05%)</title><rect x="1187.0" y="261" width="0.6" height="15.0" fill="rgb(218,59,14)" rx="2" ry="2" />
<text  x="1189.99" y="271.5" ></text>
</g>
<g >
<title>HFilter16i_C (923,181 samples, 0.03%)</title><rect x="162.4" y="277" width="0.3" height="15.0" fill="rgb(241,169,40)" rx="2" ry="2" />
<text  x="165.36" y="287.5" ></text>
</g>
<g >
<title>_IO_new_file_xsputn (923,011 samples, 0.03%)</title><rect x="1188.5" y="293" width="0.3" height="15.0" fill="rgb(250,209,50)" rx="2" ry="2" />
<text  x="1191.51" y="303.5" ></text>
</g>
<g >
<title>exc_page_fault (882,341 samples, 0.02%)</title><rect x="1187.6" y="229" width="0.3" height="15.0" fill="rgb(212,35,8)" rx="2" ry="2" />
<text  x="1190.59" y="239.5" ></text>
</g>
<g >
<title>TransformTwo_C (27,576,014 samples, 0.76%)</title><rect x="1092.2" y="277" width="8.9" height="15.0" fill="rgb(212,36,8)" rx="2" ry="2" />
<text  x="1095.19" y="287.5" ></text>
</g>
<g >
<title>handle_mm_fault (546,007 samples, 0.02%)</title><rect x="1187.9" y="181" width="0.2" height="15.0" fill="rgb(234,135,32)" rx="2" ry="2" />
<text  x="1190.88" y="191.5" ></text>
</g>
<g >
<title>TransformUV_C (8,313,834 samples, 0.23%)</title><rect x="1101.1" y="277" width="2.7" height="15.0" fill="rgb(236,146,34)" rx="2" ry="2" />
<text  x="1104.14" y="287.5" ></text>
</g>
<g >
<title>do_user_addr_fault (898,390 samples, 0.02%)</title><rect x="1189.4" y="245" width="0.3" height="15.0" fill="rgb(228,108,25)" rx="2" ry="2" />
<text  x="1192.41" y="255.5" ></text>
</g>
<g >
<title>ShiftBytes (1,848,484 samples, 0.05%)</title><rect x="1186.4" y="261" width="0.6" height="15.0" fill="rgb(216,52,12)" rx="2" ry="2" />
<text  x="1189.39" y="271.5" ></text>
</g>
</g>
</svg>
