<?xml version="1.0" standalone="no"?>
<!DOCTYPE svg PUBLIC "-//W3C//DTD SVG 1.1//EN" "http://www.w3.org/Graphics/SVG/1.1/DTD/svg11.dtd">
<svg version="1.1" width="1200" height="422" onload="init(evt)" viewBox="0 0 1200 422" xmlns="http://www.w3.org/2000/svg" xmlns:xlink="http://www.w3.org/1999/xlink">
<!-- Flame graph stack visualization. See https://github.com/brendangregg/FlameGraph for latest version, and http://www.brendangregg.com/flamegraphs.html for examples. -->
<!-- NOTES:  -->
<defs>
	<linearGradient id="background" y1="0" y2="1" x1="0" x2="0" >
		<stop stop-color="#eeeeee" offset="5%" />
		<stop stop-color="#eeeeb0" offset="95%" />
	</linearGradient>
</defs>
<style type="text/css">
	text { font-family:Verdana; font-size:12px; fill:rgb(0,0,0); }
	#search, #ignorecase { opacity:0.1; cursor:pointer; }
	#search:hover, #search.show, #ignorecase:hover, #ignorecase.show { opacity:1; }
	#subtitle { text-anchor:middle; font-color:rgb(160,160,160); }
	#title { text-anchor:middle; font-size:17px}
	#unzoom { cursor:pointer; }
	#frames > *:hover { stroke:black; stroke-width:0.5; cursor:pointer; }
	.hide { display:none; }
	.parent { opacity:0.5; }
</style>
<script type="text/ecmascript">
<![CDATA[
	"use strict";
	var details, searchbtn, unzoombtn, matchedtxt, svg, searching, currentSearchTerm, ignorecase, ignorecaseBtn;
	function init(evt) {
		details = document.getElementById("details").firstChild;
		searchbtn = document.getElementById("search");
		ignorecaseBtn = document.getElementById("ignorecase");
		unzoombtn = document.getElementById("unzoom");
		matchedtxt = document.getElementById("matched");
		svg = document.getElementsByTagName("svg")[0];
		searching = 0;
		currentSearchTerm = null;

		// use GET parameters to restore a flamegraphs state.
		var params = get_params();
		if (params.x && params.y)
			zoom(find_group(document.querySelector('[x="' + params.x + '"][y="' + params.y + '"]')));
                if (params.s) search(params.s);
	}

	// event listeners
	window.addEventListener("click", function(e) {
		var target = find_group(e.target);
		if (target) {
			if (target.nodeName == "a") {
				if (e.ctrlKey === false) return;
				e.preventDefault();
			}
			if (target.classList.contains("parent")) unzoom(true);
			zoom(target);
			if (!document.querySelector('.parent')) {
				// we have basically done a clearzoom so clear the url
				var params = get_params();
				if (params.x) delete params.x;
				if (params.y) delete params.y;
				history.replaceState(null, null, parse_params(params));
				unzoombtn.classList.add("hide");
				return;
			}

			// set parameters for zoom state
			var el = target.querySelector("rect");
			if (el && el.attributes && el.attributes.y && el.attributes._orig_x) {
				var params = get_params()
				params.x = el.attributes._orig_x.value;
				params.y = el.attributes.y.value;
				history.replaceState(null, null, parse_params(params));
			}
		}
		else if (e.target.id == "unzoom") clearzoom();
		else if (e.target.id == "search") search_prompt();
		else if (e.target.id == "ignorecase") toggle_ignorecase();
	}, false)

	// mouse-over for info
	// show
	window.addEventListener("mouseover", function(e) {
		var target = find_group(e.target);
		if (target) details.nodeValue = "Function: " + g_to_text(target);
	}, false)

	// clear
	window.addEventListener("mouseout", function(e) {
		var target = find_group(e.target);
		if (target) details.nodeValue = ' ';
	}, false)

	// ctrl-F for search
	// ctrl-I to toggle case-sensitive search
	window.addEventListener("keydown",function (e) {
		if (e.keyCode === 114 || (e.ctrlKey && e.keyCode === 70)) {
			e.preventDefault();
			search_prompt();
		}
		else if (e.ctrlKey && e.keyCode === 73) {
			e.preventDefault();
			toggle_ignorecase();
		}
	}, false)

	// functions
	function get_params() {
		var params = {};
		var paramsarr = window.location.search.substr(1).split('&');
		for (var i = 0; i < paramsarr.length; ++i) {
			var tmp = paramsarr[i].split("=");
			if (!tmp[0] || !tmp[1]) continue;
			params[tmp[0]]  = decodeURIComponent(tmp[1]);
		}
		return params;
	}
	function parse_params(params) {
		var uri = "?";
		for (var key in params) {
			uri += key + '=' + encodeURIComponent(params[key]) + '&';
		}
		if (uri.slice(-1) == "&")
			uri = uri.substring(0, uri.length - 1);
		if (uri == '?')
			uri = window.location.href.split('?')[0];
		return uri;
	}
	function find_child(node, selector) {
		var children = node.querySelectorAll(selector);
		if (children.length) return children[0];
	}
	function find_group(node) {
		var parent = node.parentElement;
		if (!parent) return;
		if (parent.id == "frames") return node;
		return find_group(parent);
	}
	function orig_save(e, attr, val) {
		if (e.attributes["_orig_" + attr] != undefined) return;
		if (e.attributes[attr] == undefined) return;
		if (val == undefined) val = e.attributes[attr].value;
		e.setAttribute("_orig_" + attr, val);
	}
	function orig_load(e, attr) {
		if (e.attributes["_orig_"+attr] == undefined) return;
		e.attributes[attr].value = e.attributes["_orig_" + attr].value;
		e.removeAttribute("_orig_"+attr);
	}
	function g_to_text(e) {
		var text = find_child(e, "title").firstChild.nodeValue;
		return (text)
	}
	function g_to_func(e) {
		var func = g_to_text(e);
		// if there's any manipulation we want to do to the function
		// name before it's searched, do it here before returning.
		return (func);
	}
	function update_text(e) {
		var r = find_child(e, "rect");
		var t = find_child(e, "text");
		var w = parseFloat(r.attributes.width.value) -3;
		var txt = find_child(e, "title").textContent.replace(/\([^(]*\)$/,"");
		t.attributes.x.value = parseFloat(r.attributes.x.value) + 3;

		// Smaller than this size won't fit anything
		if (w < 2 * 12 * 0.59) {
			t.textContent = "";
			return;
		}

		t.textContent = txt;
		var sl = t.getSubStringLength(0, txt.length);
		// check if only whitespace or if we can fit the entire string into width w
		if (/^ *$/.test(txt) || sl < w)
			return;

		// this isn't perfect, but gives a good starting point
		// and avoids calling getSubStringLength too often
		var start = Math.floor((w/sl) * txt.length);
		for (var x = start; x > 0; x = x-2) {
			if (t.getSubStringLength(0, x + 2) <= w) {
				t.textContent = txt.substring(0, x) + "..";
				return;
			}
		}
		t.textContent = "";
	}

	// zoom
	function zoom_reset(e) {
		if (e.attributes != undefined) {
			orig_load(e, "x");
			orig_load(e, "width");
		}
		if (e.childNodes == undefined) return;
		for (var i = 0, c = e.childNodes; i < c.length; i++) {
			zoom_reset(c[i]);
		}
	}
	function zoom_child(e, x, ratio) {
		if (e.attributes != undefined) {
			if (e.attributes.x != undefined) {
				orig_save(e, "x");
				e.attributes.x.value = (parseFloat(e.attributes.x.value) - x - 10) * ratio + 10;
				if (e.tagName == "text")
					e.attributes.x.value = find_child(e.parentNode, "rect[x]").attributes.x.value + 3;
			}
			if (e.attributes.width != undefined) {
				orig_save(e, "width");
				e.attributes.width.value = parseFloat(e.attributes.width.value) * ratio;
			}
		}

		if (e.childNodes == undefined) return;
		for (var i = 0, c = e.childNodes; i < c.length; i++) {
			zoom_child(c[i], x - 10, ratio);
		}
	}
	function zoom_parent(e) {
		if (e.attributes) {
			if (e.attributes.x != undefined) {
				orig_save(e, "x");
				e.attributes.x.value = 10;
			}
			if (e.attributes.width != undefined) {
				orig_save(e, "width");
				e.attributes.width.value = parseInt(svg.width.baseVal.value) - (10 * 2);
			}
		}
		if (e.childNodes == undefined) return;
		for (var i = 0, c = e.childNodes; i < c.length; i++) {
			zoom_parent(c[i]);
		}
	}
	function zoom(node) {
		var attr = find_child(node, "rect").attributes;
		var width = parseFloat(attr.width.value);
		var xmin = parseFloat(attr.x.value);
		var xmax = parseFloat(xmin + width);
		var ymin = parseFloat(attr.y.value);
		var ratio = (svg.width.baseVal.value - 2 * 10) / width;

		// XXX: Workaround for JavaScript float issues (fix me)
		var fudge = 0.0001;

		unzoombtn.classList.remove("hide");

		var el = document.getElementById("frames").children;
		for (var i = 0; i < el.length; i++) {
			var e = el[i];
			var a = find_child(e, "rect").attributes;
			var ex = parseFloat(a.x.value);
			var ew = parseFloat(a.width.value);
			var upstack;
			// Is it an ancestor
			if (0 == 0) {
				upstack = parseFloat(a.y.value) > ymin;
			} else {
				upstack = parseFloat(a.y.value) < ymin;
			}
			if (upstack) {
				// Direct ancestor
				if (ex <= xmin && (ex+ew+fudge) >= xmax) {
					e.classList.add("parent");
					zoom_parent(e);
					update_text(e);
				}
				// not in current path
				else
					e.classList.add("hide");
			}
			// Children maybe
			else {
				// no common path
				if (ex < xmin || ex + fudge >= xmax) {
					e.classList.add("hide");
				}
				else {
					zoom_child(e, xmin, ratio);
					update_text(e);
				}
			}
		}
		search();
	}
	function unzoom(dont_update_text) {
		unzoombtn.classList.add("hide");
		var el = document.getElementById("frames").children;
		for(var i = 0; i < el.length; i++) {
			el[i].classList.remove("parent");
			el[i].classList.remove("hide");
			zoom_reset(el[i]);
			if(!dont_update_text) update_text(el[i]);
		}
		search();
	}
	function clearzoom() {
		unzoom();

		// remove zoom state
		var params = get_params();
		if (params.x) delete params.x;
		if (params.y) delete params.y;
		history.replaceState(null, null, parse_params(params));
	}

	// search
	function toggle_ignorecase() {
		ignorecase = !ignorecase;
		if (ignorecase) {
			ignorecaseBtn.classList.add("show");
		} else {
			ignorecaseBtn.classList.remove("show");
		}
		reset_search();
		search();
	}
	function reset_search() {
		var el = document.querySelectorAll("#frames rect");
		for (var i = 0; i < el.length; i++) {
			orig_load(el[i], "fill")
		}
		var params = get_params();
		delete params.s;
		history.replaceState(null, null, parse_params(params));
	}
	function search_prompt() {
		if (!searching) {
			var term = prompt("Enter a search term (regexp " +
			    "allowed, eg: ^ext4_)"
			    + (ignorecase ? ", ignoring case" : "")
			    + "\nPress Ctrl-i to toggle case sensitivity", "");
			if (term != null) search(term);
		} else {
			reset_search();
			searching = 0;
			currentSearchTerm = null;
			searchbtn.classList.remove("show");
			searchbtn.firstChild.nodeValue = "Search"
			matchedtxt.classList.add("hide");
			matchedtxt.firstChild.nodeValue = ""
		}
	}
	function search(term) {
		if (term) currentSearchTerm = term;

		var re = new RegExp(currentSearchTerm, ignorecase ? 'i' : '');
		var el = document.getElementById("frames").children;
		var matches = new Object();
		var maxwidth = 0;
		for (var i = 0; i < el.length; i++) {
			var e = el[i];
			var func = g_to_func(e);
			var rect = find_child(e, "rect");
			if (func == null || rect == null)
				continue;

			// Save max width. Only works as we have a root frame
			var w = parseFloat(rect.attributes.width.value);
			if (w > maxwidth)
				maxwidth = w;

			if (func.match(re)) {
				// highlight
				var x = parseFloat(rect.attributes.x.value);
				orig_save(rect, "fill");
				rect.attributes.fill.value = "rgb(230,0,230)";

				// remember matches
				if (matches[x] == undefined) {
					matches[x] = w;
				} else {
					if (w > matches[x]) {
						// overwrite with parent
						matches[x] = w;
					}
				}
				searching = 1;
			}
		}
		if (!searching)
			return;
		var params = get_params();
		params.s = currentSearchTerm;
		history.replaceState(null, null, parse_params(params));

		searchbtn.classList.add("show");
		searchbtn.firstChild.nodeValue = "Reset Search";

		// calculate percent matched, excluding vertical overlap
		var count = 0;
		var lastx = -1;
		var lastw = 0;
		var keys = Array();
		for (k in matches) {
			if (matches.hasOwnProperty(k))
				keys.push(k);
		}
		// sort the matched frames by their x location
		// ascending, then width descending
		keys.sort(function(a, b){
			return a - b;
		});
		// Step through frames saving only the biggest bottom-up frames
		// thanks to the sort order. This relies on the tree property
		// where children are always smaller than their parents.
		var fudge = 0.0001;	// JavaScript floating point
		for (var k in keys) {
			var x = parseFloat(keys[k]);
			var w = matches[keys[k]];
			if (x >= lastx + lastw - fudge) {
				count += w;
				lastx = x;
				lastw = w;
			}
		}
		// display matched percent
		matchedtxt.classList.remove("hide");
		var pct = 100 * count / maxwidth;
		if (pct != 100) pct = pct.toFixed(1)
		matchedtxt.firstChild.nodeValue = "Matched: " + pct + "%";
	}
]]>
</script>
<rect x="0.0" y="0" width="1200.0" height="422.0" fill="url(#background)"  />
<text id="title" x="600.00" y="24" >Flame Graph</text>
<text id="details" x="10.00" y="405" > </text>
<text id="unzoom" x="10.00" y="24" class="hide">Reset Zoom</text>
<text id="search" x="1090.00" y="24" >Search</text>
<text id="ignorecase" x="1174.00" y="24" >ic</text>
<text id="matched" x="1090.00" y="405" > </text>
<g id="frames">
<g >
<title>__filemap_get_folio (359,967 samples, 0.05%)</title><rect x="14.3" y="69" width="0.5" height="15.0" fill="rgb(231,120,28)" rx="2" ry="2" />
<text  x="17.31" y="79.5" ></text>
</g>
<g >
<title>entry_SYSCALL_64_after_hwframe (475,342 samples, 0.06%)</title><rect x="14.1" y="325" width="0.7" height="15.0" fill="rgb(218,63,15)" rx="2" ry="2" />
<text  x="17.14" y="335.5" ></text>
</g>
<g >
<title>xas_descend (359,967 samples, 0.05%)</title><rect x="14.3" y="37" width="0.5" height="15.0" fill="rgb(215,47,11)" rx="2" ry="2" />
<text  x="17.31" y="47.5" ></text>
</g>
<g >
<title>path_openat (923,217 samples, 0.12%)</title><rect x="11.4" y="229" width="1.4" height="15.0" fill="rgb(249,202,48)" rx="2" ry="2" />
<text  x="14.38" y="239.5" ></text>
</g>
<g >
<title>ksys_write (923,094 samples, 0.12%)</title><rect x="12.8" y="277" width="1.3" height="15.0" fill="rgb(205,4,1)" rx="2" ry="2" />
<text  x="15.76" y="287.5" ></text>
</g>
<g >
<title>clear_user_rep_good (359,967 samples, 0.05%)</title><rect x="14.3" y="213" width="0.5" height="15.0" fill="rgb(224,89,21)" rx="2" ry="2" />
<text  x="17.31" y="223.5" ></text>
</g>
<g >
<title>w2c_decode__webp__wasmsimd_VP8LConvertBGRAToRGB_C (83,140,282 samples, 10.52%)</title><rect x="934.9" y="341" width="124.2" height="15.0" fill="rgb(213,40,9)" rx="2" ry="2" />
<text  x="937.88" y="351.5" >w2c_decode__web..</text>
</g>
<g >
<title>exc_page_fault (462,510 samples, 0.06%)</title><rect x="10.7" y="261" width="0.7" height="15.0" fill="rgb(212,35,8)" rx="2" ry="2" />
<text  x="13.69" y="271.5" ></text>
</g>
<g >
<title>do_execveat_common.isra.0 (475,342 samples, 0.06%)</title><rect x="14.1" y="277" width="0.7" height="15.0" fill="rgb(231,123,29)" rx="2" ry="2" />
<text  x="17.14" y="287.5" ></text>
</g>
<g >
<title>w2c_decode__webp__wasmsimd_VP8LInverseTransform (22,550,070 samples, 2.85%)</title><rect x="153.7" y="325" width="33.7" height="15.0" fill="rgb(225,96,23)" rx="2" ry="2" />
<text  x="156.68" y="335.5" >w2..</text>
</g>
<g >
<title>w2c_decode__webp__wasmsimd_ReadHuffmanCode (5,824,632 samples, 0.74%)</title><rect x="828.6" y="341" width="8.7" height="15.0" fill="rgb(222,79,18)" rx="2" ry="2" />
<text  x="831.57" y="351.5" ></text>
</g>
<g >
<title>do_syscall_64 (475,342 samples, 0.06%)</title><rect x="14.1" y="309" width="0.7" height="15.0" fill="rgb(209,20,4)" rx="2" ry="2" />
<text  x="17.14" y="319.5" ></text>
</g>
<g >
<title>w2c_decode__webp__wasmsimd_VP8LAddGreenToBlueAndRed_C (924,144 samples, 0.12%)</title><rect x="152.3" y="325" width="1.4" height="15.0" fill="rgb(214,44,10)" rx="2" ry="2" />
<text  x="155.30" y="335.5" ></text>
</g>
<g >
<title>do_fault (460,232 samples, 0.06%)</title><rect x="10.0" y="213" width="0.7" height="15.0" fill="rgb(248,200,47)" rx="2" ry="2" />
<text  x="13.00" y="223.5" ></text>
</g>
<g >
<title>w2c_decode__webp__wasmsimd_PredictorAdd7_C (3,593,225 samples, 0.45%)</title><rect x="145.6" y="325" width="5.3" height="15.0" fill="rgb(219,66,15)" rx="2" ry="2" />
<text  x="148.56" y="335.5" ></text>
</g>
<g >
<title>__handle_mm_fault (460,232 samples, 0.06%)</title><rect x="10.0" y="229" width="0.7" height="15.0" fill="rgb(207,9,2)" rx="2" ry="2" />
<text  x="13.00" y="239.5" ></text>
</g>
<g >
<title>w2c_decode__webp__wasmsimd_PredictorAdd9_C (923,986 samples, 0.12%)</title><rect x="150.9" y="325" width="1.4" height="15.0" fill="rgb(206,6,1)" rx="2" ry="2" />
<text  x="153.92" y="335.5" ></text>
</g>
<g >
<title>do_truncate (923,217 samples, 0.12%)</title><rect x="11.4" y="213" width="1.4" height="15.0" fill="rgb(216,53,12)" rx="2" ry="2" />
<text  x="14.38" y="223.5" ></text>
</g>
<g >
<title>perf_iterate_sb (115,375 samples, 0.01%)</title><rect x="14.1" y="197" width="0.2" height="15.0" fill="rgb(244,179,42)" rx="2" ry="2" />
<text  x="17.14" y="207.5" ></text>
</g>
<g >
<title>w2c_decode__webp__wasmsimd_VP8LTransformColorInverse_C (11,900,733 samples, 1.51%)</title><rect x="1172.2" y="341" width="17.8" height="15.0" fill="rgb(228,108,25)" rx="2" ry="2" />
<text  x="1175.18" y="351.5" ></text>
</g>
<g >
<title>begin_new_exec (115,375 samples, 0.01%)</title><rect x="14.1" y="229" width="0.2" height="15.0" fill="rgb(245,184,44)" rx="2" ry="2" />
<text  x="17.14" y="239.5" ></text>
</g>
<g >
<title>ext4_buffered_write_iter (923,094 samples, 0.12%)</title><rect x="12.8" y="245" width="1.3" height="15.0" fill="rgb(213,40,9)" rx="2" ry="2" />
<text  x="15.76" y="255.5" ></text>
</g>
<g >
<title>w2c_decode__webp__wasmsimd_VP8LDoFillBitWindow (67,422,580 samples, 8.53%)</title><rect x="1061.8" y="341" width="100.7" height="15.0" fill="rgb(211,29,7)" rx="2" ry="2" />
<text  x="1064.82" y="351.5" >w2c_decode__..</text>
</g>
<g >
<title>w2c_decode__webp__wasmsimd_VP8LInverseTransform (924,154 samples, 0.12%)</title><rect x="1162.5" y="341" width="1.4" height="15.0" fill="rgb(225,96,23)" rx="2" ry="2" />
<text  x="1165.52" y="351.5" ></text>
</g>
<g >
<title>w2c_decode__webp__wasmsimd_VP8LTransformColorInverse_C (10,898,951 samples, 1.38%)</title><rect x="187.4" y="325" width="16.2" height="15.0" fill="rgb(228,108,25)" rx="2" ry="2" />
<text  x="190.37" y="335.5" ></text>
</g>
<g >
<title>w2c_decode__webp__wasmsimd_PredictorAdd1_C (10,463,120 samples, 1.32%)</title><rect x="801.9" y="341" width="15.6" height="15.0" fill="rgb(208,14,3)" rx="2" ry="2" />
<text  x="804.90" y="351.5" ></text>
</g>
<g >
<title>bprm_execve (475,342 samples, 0.06%)</title><rect x="14.1" y="261" width="0.7" height="15.0" fill="rgb(218,61,14)" rx="2" ry="2" />
<text  x="17.14" y="271.5" ></text>
</g>
<g >
<title>entry_SYSCALL_64_after_hwframe (923,451 samples, 0.12%)</title><rect x="206.4" y="341" width="1.4" height="15.0" fill="rgb(218,63,15)" rx="2" ry="2" />
<text  x="209.40" y="351.5" ></text>
</g>
<g >
<title>do_sys_openat2 (923,217 samples, 0.12%)</title><rect x="11.4" y="261" width="1.4" height="15.0" fill="rgb(253,221,52)" rx="2" ry="2" />
<text  x="14.38" y="271.5" ></text>
</g>
<g >
<title>__mark_inode_dirty (923,094 samples, 0.12%)</title><rect x="12.8" y="197" width="1.3" height="15.0" fill="rgb(254,227,54)" rx="2" ry="2" />
<text  x="15.76" y="207.5" ></text>
</g>
<g >
<title>do_syscall_64 (923,217 samples, 0.12%)</title><rect x="11.4" y="293" width="1.4" height="15.0" fill="rgb(209,20,4)" rx="2" ry="2" />
<text  x="14.38" y="303.5" ></text>
</g>
<g >
<title>ext4_inode_csum (923,094 samples, 0.12%)</title><rect x="12.8" y="101" width="1.3" height="15.0" fill="rgb(226,99,23)" rx="2" ry="2" />
<text  x="15.76" y="111.5" ></text>
</g>
<g >
<title>__libc_write (923,094 samples, 0.12%)</title><rect x="12.8" y="325" width="1.3" height="15.0" fill="rgb(238,154,37)" rx="2" ry="2" />
<text  x="15.76" y="335.5" ></text>
</g>
<g >
<title>do_fault (359,967 samples, 0.05%)</title><rect x="14.3" y="117" width="0.5" height="15.0" fill="rgb(248,200,47)" rx="2" ry="2" />
<text  x="17.31" y="127.5" ></text>
</g>
<g >
<title>w2c_decode__webp__wasmsimd_VP8LConvertFromBGRA (1,847,810 samples, 0.23%)</title><rect x="1059.1" y="341" width="2.7" height="15.0" fill="rgb(224,91,21)" rx="2" ry="2" />
<text  x="1062.06" y="351.5" ></text>
</g>
<g >
<title>__ext4_mark_inode_dirty (923,094 samples, 0.12%)</title><rect x="12.8" y="165" width="1.3" height="15.0" fill="rgb(227,104,25)" rx="2" ry="2" />
<text  x="15.76" y="175.5" ></text>
</g>
<g >
<title>w2c_decode__webp__wasmsimd_PredictorAdd4_C (923,261 samples, 0.12%)</title><rect x="823.0" y="341" width="1.4" height="15.0" fill="rgb(238,155,37)" rx="2" ry="2" />
<text  x="826.05" y="351.5" ></text>
</g>
<g >
<title>exc_page_fault (359,967 samples, 0.05%)</title><rect x="14.3" y="181" width="0.5" height="15.0" fill="rgb(212,35,8)" rx="2" ry="2" />
<text  x="17.31" y="191.5" ></text>
</g>
<g >
<title>ext4_mark_iloc_dirty (923,094 samples, 0.12%)</title><rect x="12.8" y="149" width="1.3" height="15.0" fill="rgb(226,101,24)" rx="2" ry="2" />
<text  x="15.76" y="159.5" ></text>
</g>
<g >
<title>w2c_decode__webp__wasmsimd_ProcessRows (2,771,698 samples, 0.35%)</title><rect x="824.4" y="341" width="4.2" height="15.0" fill="rgb(248,202,48)" rx="2" ry="2" />
<text  x="827.43" y="351.5" ></text>
</g>
<g >
<title>__handle_mm_fault (359,967 samples, 0.05%)</title><rect x="14.3" y="133" width="0.5" height="15.0" fill="rgb(207,9,2)" rx="2" ry="2" />
<text  x="17.31" y="143.5" ></text>
</g>
<g >
<title>perf_event_comm (115,375 samples, 0.01%)</title><rect x="14.1" y="213" width="0.2" height="15.0" fill="rgb(222,82,19)" rx="2" ry="2" />
<text  x="17.14" y="223.5" ></text>
</g>
<g >
<title>__libc_start_call_main (462,510 samples, 0.06%)</title><rect x="10.7" y="309" width="0.7" height="15.0" fill="rgb(210,26,6)" rx="2" ry="2" />
<text  x="13.69" y="319.5" ></text>
</g>
<g >
<title>padzero (359,967 samples, 0.05%)</title><rect x="14.3" y="229" width="0.5" height="15.0" fill="rgb(223,84,20)" rx="2" ry="2" />
<text  x="17.31" y="239.5" ></text>
</g>
<g >
<title>unlock_page (460,232 samples, 0.06%)</title><rect x="10.0" y="197" width="0.7" height="15.0" fill="rgb(220,69,16)" rx="2" ry="2" />
<text  x="13.00" y="207.5" ></text>
</g>
<g >
<title>__handle_mm_fault (462,510 samples, 0.06%)</title><rect x="10.7" y="213" width="0.7" height="15.0" fill="rgb(207,9,2)" rx="2" ry="2" />
<text  x="13.69" y="223.5" ></text>
</g>
<g >
<title>ext4_fill_raw_inode (923,094 samples, 0.12%)</title><rect x="12.8" y="133" width="1.3" height="15.0" fill="rgb(240,165,39)" rx="2" ry="2" />
<text  x="15.76" y="143.5" ></text>
</g>
<g >
<title>_dl_non_dynamic_init (460,232 samples, 0.06%)</title><rect x="10.0" y="309" width="0.7" height="15.0" fill="rgb(223,85,20)" rx="2" ry="2" />
<text  x="13.00" y="319.5" ></text>
</g>
<g >
<title>do_exit (923,451 samples, 0.12%)</title><rect x="206.4" y="277" width="1.4" height="15.0" fill="rgb(231,122,29)" rx="2" ry="2" />
<text  x="209.40" y="287.5" ></text>
</g>
<g >
<title>ext4_dirty_inode (923,094 samples, 0.12%)</title><rect x="12.8" y="181" width="1.3" height="15.0" fill="rgb(227,102,24)" rx="2" ry="2" />
<text  x="15.76" y="191.5" ></text>
</g>
<g >
<title>crc32c_pcl_intel_update (923,094 samples, 0.12%)</title><rect x="12.8" y="85" width="1.3" height="15.0" fill="rgb(212,33,7)" rx="2" ry="2" />
<text  x="15.76" y="95.5" ></text>
</g>
<g >
<title>__folio_alloc (462,510 samples, 0.06%)</title><rect x="10.7" y="181" width="0.7" height="15.0" fill="rgb(224,91,21)" rx="2" ry="2" />
<text  x="13.69" y="191.5" ></text>
</g>
<g >
<title>generic_perform_write (923,094 samples, 0.12%)</title><rect x="12.8" y="229" width="1.3" height="15.0" fill="rgb(236,146,35)" rx="2" ry="2" />
<text  x="15.76" y="239.5" ></text>
</g>
<g >
<title>notify_change (923,217 samples, 0.12%)</title><rect x="11.4" y="197" width="1.4" height="15.0" fill="rgb(237,150,35)" rx="2" ry="2" />
<text  x="14.38" y="207.5" ></text>
</g>
<g >
<title>truncate_pagecache (923,217 samples, 0.12%)</title><rect x="11.4" y="165" width="1.4" height="15.0" fill="rgb(231,123,29)" rx="2" ry="2" />
<text  x="14.38" y="175.5" ></text>
</g>
<g >
<title>do_user_addr_fault (460,232 samples, 0.06%)</title><rect x="10.0" y="261" width="0.7" height="15.0" fill="rgb(228,108,25)" rx="2" ry="2" />
<text  x="13.00" y="271.5" ></text>
</g>
<g >
<title>vfs_write (923,094 samples, 0.12%)</title><rect x="12.8" y="261" width="1.3" height="15.0" fill="rgb(250,209,50)" rx="2" ry="2" />
<text  x="15.76" y="271.5" ></text>
</g>
<g >
<title>__x64_sys_execve (475,342 samples, 0.06%)</title><rect x="14.1" y="293" width="0.7" height="15.0" fill="rgb(247,193,46)" rx="2" ry="2" />
<text  x="17.14" y="303.5" ></text>
</g>
<g >
<title>vma_alloc_folio (462,510 samples, 0.06%)</title><rect x="10.7" y="197" width="0.7" height="15.0" fill="rgb(245,187,44)" rx="2" ry="2" />
<text  x="13.69" y="207.5" ></text>
</g>
<g >
<title>all (790,028,180 samples, 100%)</title><rect x="10.0" y="373" width="1180.0" height="15.0" fill="rgb(213,39,9)" rx="2" ry="2" />
<text  x="13.00" y="383.5" ></text>
</g>
<g >
<title>do_syscall_64 (923,094 samples, 0.12%)</title><rect x="12.8" y="293" width="1.3" height="15.0" fill="rgb(209,20,4)" rx="2" ry="2" />
<text  x="15.76" y="303.5" ></text>
</g>
<g >
<title>do_user_addr_fault (462,510 samples, 0.06%)</title><rect x="10.7" y="245" width="0.7" height="15.0" fill="rgb(228,108,25)" rx="2" ry="2" />
<text  x="13.69" y="255.5" ></text>
</g>
<g >
<title>w2c_decode__webp__wasmsimd_PredictorAdd12_C (33,129,351 samples, 4.19%)</title><rect x="752.4" y="341" width="49.5" height="15.0" fill="rgb(235,138,33)" rx="2" ry="2" />
<text  x="755.42" y="351.5" >w2c_..</text>
</g>
<g >
<title>clear_page_rep (462,510 samples, 0.06%)</title><rect x="10.7" y="133" width="0.7" height="15.0" fill="rgb(253,221,52)" rx="2" ry="2" />
<text  x="13.69" y="143.5" ></text>
</g>
<g >
<title>do_filp_open (923,217 samples, 0.12%)</title><rect x="11.4" y="245" width="1.4" height="15.0" fill="rgb(211,28,6)" rx="2" ry="2" />
<text  x="14.38" y="255.5" ></text>
</g>
<g >
<title>w2c_decode__webp__wasmsimd_PredictorAdd3_C (923,453 samples, 0.12%)</title><rect x="821.7" y="341" width="1.3" height="15.0" fill="rgb(245,184,44)" rx="2" ry="2" />
<text  x="824.67" y="351.5" ></text>
</g>
<g >
<title>filemap_fault (359,967 samples, 0.05%)</title><rect x="14.3" y="85" width="0.5" height="15.0" fill="rgb(219,68,16)" rx="2" ry="2" />
<text  x="17.31" y="95.5" ></text>
</g>
<g >
<title>asm_exc_page_fault (359,967 samples, 0.05%)</title><rect x="14.3" y="197" width="0.5" height="15.0" fill="rgb(225,93,22)" rx="2" ry="2" />
<text  x="17.31" y="207.5" ></text>
</g>
<g >
<title>ext4_invalidate_folio (923,217 samples, 0.12%)</title><rect x="11.4" y="117" width="1.4" height="15.0" fill="rgb(226,97,23)" rx="2" ry="2" />
<text  x="14.38" y="127.5" ></text>
</g>
<g >
<title>perf_iterate_ctx (115,375 samples, 0.01%)</title><rect x="14.1" y="181" width="0.2" height="15.0" fill="rgb(205,4,0)" rx="2" ry="2" />
<text  x="17.14" y="191.5" ></text>
</g>
<g >
<title>ext4_setattr (923,217 samples, 0.12%)</title><rect x="11.4" y="181" width="1.4" height="15.0" fill="rgb(230,117,28)" rx="2" ry="2" />
<text  x="14.38" y="191.5" ></text>
</g>
<g >
<title>__x64_sys_exit_group (923,451 samples, 0.12%)</title><rect x="206.4" y="309" width="1.4" height="15.0" fill="rgb(214,42,10)" rx="2" ry="2" />
<text  x="209.40" y="319.5" ></text>
</g>
<g >
<title>ext4_inode_csum_set (923,094 samples, 0.12%)</title><rect x="12.8" y="117" width="1.3" height="15.0" fill="rgb(218,60,14)" rx="2" ry="2" />
<text  x="15.76" y="127.5" ></text>
</g>
<g >
<title>entry_SYSCALL_64_after_hwframe (923,217 samples, 0.12%)</title><rect x="11.4" y="309" width="1.4" height="15.0" fill="rgb(218,63,15)" rx="2" ry="2" />
<text  x="14.38" y="319.5" ></text>
</g>
<g >
<title>w2c_decode__webp__wasmsimd_PredictorAdd1_C (12,921,770 samples, 1.64%)</title><rect x="120.7" y="325" width="19.3" height="15.0" fill="rgb(208,14,3)" rx="2" ry="2" />
<text  x="123.74" y="335.5" ></text>
</g>
<g >
<title>__libc_open64 (923,217 samples, 0.12%)</title><rect x="11.4" y="325" width="1.4" height="15.0" fill="rgb(235,140,33)" rx="2" ry="2" />
<text  x="14.38" y="335.5" ></text>
</g>
<g >
<title>__x64_sys_openat (923,217 samples, 0.12%)</title><rect x="11.4" y="277" width="1.4" height="15.0" fill="rgb(251,215,51)" rx="2" ry="2" />
<text  x="14.38" y="287.5" ></text>
</g>
<g >
<title>do_syscall_64 (923,451 samples, 0.12%)</title><rect x="206.4" y="325" width="1.4" height="15.0" fill="rgb(209,20,4)" rx="2" ry="2" />
<text  x="209.40" y="335.5" ></text>
</g>
<g >
<title>w2c_decode__webp__wasmsimd_PredictorAdd2_C (2,770,638 samples, 0.35%)</title><rect x="817.5" y="341" width="4.2" height="15.0" fill="rgb(251,214,51)" rx="2" ry="2" />
<text  x="820.53" y="351.5" ></text>
</g>
<g >
<title>__memmove_avx_unaligned_erms (462,510 samples, 0.06%)</title><rect x="10.7" y="293" width="0.7" height="15.0" fill="rgb(205,0,0)" rx="2" ry="2" />
<text  x="13.69" y="303.5" ></text>
</g>
<g >
<title>w2c_decode__webp__wasmsimd_PredictorAdd13_C (60,734,839 samples, 7.69%)</title><rect x="30.0" y="325" width="90.7" height="15.0" fill="rgb(228,108,26)" rx="2" ry="2" />
<text  x="33.02" y="335.5" >w2c_decode..</text>
</g>
<g >
<title>w2c_decode__webp__wasmsimd_DecodeImageData (326,821,421 samples, 41.37%)</title><rect x="264.3" y="341" width="488.1" height="15.0" fill="rgb(246,191,45)" rx="2" ry="2" />
<text  x="267.27" y="351.5" >w2c_decode__webp__wasmsimd_DecodeImageData</text>
</g>
<g >
<title>w2c_decode__webp__wasmsimd_BuildHuffmanTable (37,820,450 samples, 4.79%)</title><rect x="207.8" y="341" width="56.5" height="15.0" fill="rgb(218,63,15)" rx="2" ry="2" />
<text  x="210.78" y="351.5" >w2c_d..</text>
</g>
<g >
<title>handle_mm_fault (460,232 samples, 0.06%)</title><rect x="10.0" y="245" width="0.7" height="15.0" fill="rgb(234,135,32)" rx="2" ry="2" />
<text  x="13.00" y="255.5" ></text>
</g>
<g >
<title>entry_SYSCALL_64_after_hwframe (923,094 samples, 0.12%)</title><rect x="12.8" y="309" width="1.3" height="15.0" fill="rgb(218,63,15)" rx="2" ry="2" />
<text  x="15.76" y="319.5" ></text>
</g>
<g >
<title>w2c_decode__webp__wasmsimd_VP8LAddGreenToBlueAndRed_C (65,353,032 samples, 8.27%)</title><rect x="837.3" y="341" width="97.6" height="15.0" fill="rgb(214,44,10)" rx="2" ry="2" />
<text  x="840.27" y="351.5" >w2c_decode_..</text>
</g>
<g >
<title>[unknown] (129,648,110 samples, 16.41%)</title><rect x="10.0" y="341" width="193.6" height="15.0" fill="rgb(210,24,5)" rx="2" ry="2" />
<text  x="13.00" y="351.5" >[unknown]</text>
</g>
<g >
<title>__do_global_dtors_aux (462,510 samples, 0.06%)</title><rect x="10.7" y="325" width="0.7" height="15.0" fill="rgb(245,185,44)" rx="2" ry="2" />
<text  x="13.69" y="335.5" ></text>
</g>
<g >
<title>decode_webp_was (789,998,500 samples, 100.00%)</title><rect x="10.0" y="357" width="1180.0" height="15.0" fill="rgb(216,54,12)" rx="2" ry="2" />
<text  x="13.00" y="367.5" >decode_webp_was</text>
</g>
<g >
<title>truncate_inode_pages_range (923,217 samples, 0.12%)</title><rect x="11.4" y="149" width="1.4" height="15.0" fill="rgb(245,187,44)" rx="2" ry="2" />
<text  x="14.38" y="159.5" ></text>
</g>
<g >
<title>[unknown] (460,232 samples, 0.06%)</title><rect x="10.0" y="325" width="0.7" height="15.0" fill="rgb(210,24,5)" rx="2" ry="2" />
<text  x="13.00" y="335.5" ></text>
</g>
<g >
<title>do_user_addr_fault (359,967 samples, 0.05%)</title><rect x="14.3" y="165" width="0.5" height="15.0" fill="rgb(228,108,25)" rx="2" ry="2" />
<text  x="17.31" y="175.5" ></text>
</g>
<g >
<title>asm_exc_page_fault (460,232 samples, 0.06%)</title><rect x="10.0" y="293" width="0.7" height="15.0" fill="rgb(225,93,22)" rx="2" ry="2" />
<text  x="13.00" y="303.5" ></text>
</g>
<g >
<title>w2c_decode__webp__wasmsimd_PredictorAdd11_C (8,312,077 samples, 1.05%)</title><rect x="14.8" y="325" width="12.5" height="15.0" fill="rgb(241,168,40)" rx="2" ry="2" />
<text  x="17.85" y="335.5" ></text>
</g>
<g >
<title>do_group_exit (923,451 samples, 0.12%)</title><rect x="206.4" y="293" width="1.4" height="15.0" fill="rgb(219,67,16)" rx="2" ry="2" />
<text  x="209.40" y="303.5" ></text>
</g>
<g >
<title>load_elf_binary (475,342 samples, 0.06%)</title><rect x="14.1" y="245" width="0.7" height="15.0" fill="rgb(223,83,20)" rx="2" ry="2" />
<text  x="17.14" y="255.5" ></text>
</g>
<g >
<title>handle_mm_fault (462,510 samples, 0.06%)</title><rect x="10.7" y="229" width="0.7" height="15.0" fill="rgb(234,135,32)" rx="2" ry="2" />
<text  x="13.69" y="239.5" ></text>
</g>
<g >
<title>w2c_decode__webp__wasmsimd_PredictorAdd5_C (3,696,513 samples, 0.47%)</title><rect x="140.0" y="325" width="5.6" height="15.0" fill="rgb(232,125,30)" rx="2" ry="2" />
<text  x="143.04" y="335.5" ></text>
</g>
<g >
<title>get_page_from_freelist (462,510 samples, 0.06%)</title><rect x="10.7" y="149" width="0.7" height="15.0" fill="rgb(252,218,52)" rx="2" ry="2" />
<text  x="13.69" y="159.5" ></text>
</g>
<g >
<title>w2c_decode__webp__wasmsimd_VP8LReadBits (5,542,804 samples, 0.70%)</title><rect x="1163.9" y="341" width="8.3" height="15.0" fill="rgb(228,108,26)" rx="2" ry="2" />
<text  x="1166.90" y="351.5" ></text>
</g>
<g >
<title>xas_load (359,967 samples, 0.05%)</title><rect x="14.3" y="53" width="0.5" height="15.0" fill="rgb(217,59,14)" rx="2" ry="2" />
<text  x="17.31" y="63.5" ></text>
</g>
<g >
<title>__alloc_pages (462,510 samples, 0.06%)</title><rect x="10.7" y="165" width="0.7" height="15.0" fill="rgb(233,129,30)" rx="2" ry="2" />
<text  x="13.69" y="175.5" ></text>
</g>
<g >
<title>__memmove_avx_unaligned_erms (1,847,520 samples, 0.23%)</title><rect x="203.6" y="341" width="2.8" height="15.0" fill="rgb(205,0,0)" rx="2" ry="2" />
<text  x="206.64" y="351.5" ></text>
</g>
<g >
<title>generic_write_end (923,094 samples, 0.12%)</title><rect x="12.8" y="213" width="1.3" height="15.0" fill="rgb(206,8,1)" rx="2" ry="2" />
<text  x="15.76" y="223.5" ></text>
</g>
<g >
<title>exc_page_fault (460,232 samples, 0.06%)</title><rect x="10.0" y="277" width="0.7" height="15.0" fill="rgb(212,35,8)" rx="2" ry="2" />
<text  x="13.00" y="287.5" ></text>
</g>
<g >
<title>w2c_decode__webp__wasmsimd_PredictorAdd12_C (1,848,140 samples, 0.23%)</title><rect x="27.3" y="325" width="2.7" height="15.0" fill="rgb(235,138,33)" rx="2" ry="2" />
<text  x="30.26" y="335.5" ></text>
</g>
<g >
<title>fpu__drop (923,451 samples, 0.12%)</title><rect x="206.4" y="261" width="1.4" height="15.0" fill="rgb(224,91,21)" rx="2" ry="2" />
<text  x="209.40" y="271.5" ></text>
</g>
<g >
<title>asm_exc_page_fault (462,510 samples, 0.06%)</title><rect x="10.7" y="277" width="0.7" height="15.0" fill="rgb(225,93,22)" rx="2" ry="2" />
<text  x="13.69" y="287.5" ></text>
</g>
<g >
<title>truncate_cleanup_folio (923,217 samples, 0.12%)</title><rect x="11.4" y="133" width="1.4" height="15.0" fill="rgb(240,165,39)" rx="2" ry="2" />
<text  x="14.38" y="143.5" ></text>
</g>
<g >
<title>handle_mm_fault (359,967 samples, 0.05%)</title><rect x="14.3" y="149" width="0.5" height="15.0" fill="rgb(234,135,32)" rx="2" ry="2" />
<text  x="17.31" y="159.5" ></text>
</g>
<g >
<title>asm_exc_page_fault (441,150 samples, 0.06%)</title><rect x="1189.3" y="325" width="0.7" height="15.0" fill="rgb(225,93,22)" rx="2" ry="2" />
<text  x="1192.30" y="335.5" ></text>
</g>
<g >
<title>__do_fault (359,967 samples, 0.05%)</title><rect x="14.3" y="101" width="0.5" height="15.0" fill="rgb(221,74,17)" rx="2" ry="2" />
<text  x="17.31" y="111.5" ></text>
</g>
</g>
</svg>
