<?xml version="1.0" standalone="no"?>
<!DOCTYPE svg PUBLIC "-//W3C//DTD SVG 1.1//EN" "http://www.w3.org/Graphics/SVG/1.1/DTD/svg11.dtd">
<svg version="1.1" width="1200" height="342" onload="init(evt)" viewBox="0 0 1200 342" xmlns="http://www.w3.org/2000/svg" xmlns:xlink="http://www.w3.org/1999/xlink">
<!-- Flame graph stack visualization. See https://github.com/brendangregg/FlameGraph for latest version, and http://www.brendangregg.com/flamegraphs.html for examples. -->
<!-- NOTES:  -->
<defs>
	<linearGradient id="background" y1="0" y2="1" x1="0" x2="0" >
		<stop stop-color="#eeeeee" offset="5%" />
		<stop stop-color="#eeeeb0" offset="95%" />
	</linearGradient>
</defs>
<style type="text/css">
	text { font-family:Verdana; font-size:12px; fill:rgb(0,0,0); }
	#search, #ignorecase { opacity:0.1; cursor:pointer; }
	#search:hover, #search.show, #ignorecase:hover, #ignorecase.show { opacity:1; }
	#subtitle { text-anchor:middle; font-color:rgb(160,160,160); }
	#title { text-anchor:middle; font-size:17px}
	#unzoom { cursor:pointer; }
	#frames > *:hover { stroke:black; stroke-width:0.5; cursor:pointer; }
	.hide { display:none; }
	.parent { opacity:0.5; }
</style>
<script type="text/ecmascript">
<![CDATA[
	"use strict";
	var details, searchbtn, unzoombtn, matchedtxt, svg, searching, currentSearchTerm, ignorecase, ignorecaseBtn;
	function init(evt) {
		details = document.getElementById("details").firstChild;
		searchbtn = document.getElementById("search");
		ignorecaseBtn = document.getElementById("ignorecase");
		unzoombtn = document.getElementById("unzoom");
		matchedtxt = document.getElementById("matched");
		svg = document.getElementsByTagName("svg")[0];
		searching = 0;
		currentSearchTerm = null;

		// use GET parameters to restore a flamegraphs state.
		var params = get_params();
		if (params.x && params.y)
			zoom(find_group(document.querySelector('[x="' + params.x + '"][y="' + params.y + '"]')));
                if (params.s) search(params.s);
	}

	// event listeners
	window.addEventListener("click", function(e) {
		var target = find_group(e.target);
		if (target) {
			if (target.nodeName == "a") {
				if (e.ctrlKey === false) return;
				e.preventDefault();
			}
			if (target.classList.contains("parent")) unzoom(true);
			zoom(target);
			if (!document.querySelector('.parent')) {
				// we have basically done a clearzoom so clear the url
				var params = get_params();
				if (params.x) delete params.x;
				if (params.y) delete params.y;
				history.replaceState(null, null, parse_params(params));
				unzoombtn.classList.add("hide");
				return;
			}

			// set parameters for zoom state
			var el = target.querySelector("rect");
			if (el && el.attributes && el.attributes.y && el.attributes._orig_x) {
				var params = get_params()
				params.x = el.attributes._orig_x.value;
				params.y = el.attributes.y.value;
				history.replaceState(null, null, parse_params(params));
			}
		}
		else if (e.target.id == "unzoom") clearzoom();
		else if (e.target.id == "search") search_prompt();
		else if (e.target.id == "ignorecase") toggle_ignorecase();
	}, false)

	// mouse-over for info
	// show
	window.addEventListener("mouseover", function(e) {
		var target = find_group(e.target);
		if (target) details.nodeValue = "Function: " + g_to_text(target);
	}, false)

	// clear
	window.addEventListener("mouseout", function(e) {
		var target = find_group(e.target);
		if (target) details.nodeValue = ' ';
	}, false)

	// ctrl-F for search
	// ctrl-I to toggle case-sensitive search
	window.addEventListener("keydown",function (e) {
		if (e.keyCode === 114 || (e.ctrlKey && e.keyCode === 70)) {
			e.preventDefault();
			search_prompt();
		}
		else if (e.ctrlKey && e.keyCode === 73) {
			e.preventDefault();
			toggle_ignorecase();
		}
	}, false)

	// functions
	function get_params() {
		var params = {};
		var paramsarr = window.location.search.substr(1).split('&');
		for (var i = 0; i < paramsarr.length; ++i) {
			var tmp = paramsarr[i].split("=");
			if (!tmp[0] || !tmp[1]) continue;
			params[tmp[0]]  = decodeURIComponent(tmp[1]);
		}
		return params;
	}
	function parse_params(params) {
		var uri = "?";
		for (var key in params) {
			uri += key + '=' + encodeURIComponent(params[key]) + '&';
		}
		if (uri.slice(-1) == "&")
			uri = uri.substring(0, uri.length - 1);
		if (uri == '?')
			uri = window.location.href.split('?')[0];
		return uri;
	}
	function find_child(node, selector) {
		var children = node.querySelectorAll(selector);
		if (children.length) return children[0];
	}
	function find_group(node) {
		var parent = node.parentElement;
		if (!parent) return;
		if (parent.id == "frames") return node;
		return find_group(parent);
	}
	function orig_save(e, attr, val) {
		if (e.attributes["_orig_" + attr] != undefined) return;
		if (e.attributes[attr] == undefined) return;
		if (val == undefined) val = e.attributes[attr].value;
		e.setAttribute("_orig_" + attr, val);
	}
	function orig_load(e, attr) {
		if (e.attributes["_orig_"+attr] == undefined) return;
		e.attributes[attr].value = e.attributes["_orig_" + attr].value;
		e.removeAttribute("_orig_"+attr);
	}
	function g_to_text(e) {
		var text = find_child(e, "title").firstChild.nodeValue;
		return (text)
	}
	function g_to_func(e) {
		var func = g_to_text(e);
		// if there's any manipulation we want to do to the function
		// name before it's searched, do it here before returning.
		return (func);
	}
	function update_text(e) {
		var r = find_child(e, "rect");
		var t = find_child(e, "text");
		var w = parseFloat(r.attributes.width.value) -3;
		var txt = find_child(e, "title").textContent.replace(/\([^(]*\)$/,"");
		t.attributes.x.value = parseFloat(r.attributes.x.value) + 3;

		// Smaller than this size won't fit anything
		if (w < 2 * 12 * 0.59) {
			t.textContent = "";
			return;
		}

		t.textContent = txt;
		var sl = t.getSubStringLength(0, txt.length);
		// check if only whitespace or if we can fit the entire string into width w
		if (/^ *$/.test(txt) || sl < w)
			return;

		// this isn't perfect, but gives a good starting point
		// and avoids calling getSubStringLength too often
		var start = Math.floor((w/sl) * txt.length);
		for (var x = start; x > 0; x = x-2) {
			if (t.getSubStringLength(0, x + 2) <= w) {
				t.textContent = txt.substring(0, x) + "..";
				return;
			}
		}
		t.textContent = "";
	}

	// zoom
	function zoom_reset(e) {
		if (e.attributes != undefined) {
			orig_load(e, "x");
			orig_load(e, "width");
		}
		if (e.childNodes == undefined) return;
		for (var i = 0, c = e.childNodes; i < c.length; i++) {
			zoom_reset(c[i]);
		}
	}
	function zoom_child(e, x, ratio) {
		if (e.attributes != undefined) {
			if (e.attributes.x != undefined) {
				orig_save(e, "x");
				e.attributes.x.value = (parseFloat(e.attributes.x.value) - x - 10) * ratio + 10;
				if (e.tagName == "text")
					e.attributes.x.value = find_child(e.parentNode, "rect[x]").attributes.x.value + 3;
			}
			if (e.attributes.width != undefined) {
				orig_save(e, "width");
				e.attributes.width.value = parseFloat(e.attributes.width.value) * ratio;
			}
		}

		if (e.childNodes == undefined) return;
		for (var i = 0, c = e.childNodes; i < c.length; i++) {
			zoom_child(c[i], x - 10, ratio);
		}
	}
	function zoom_parent(e) {
		if (e.attributes) {
			if (e.attributes.x != undefined) {
				orig_save(e, "x");
				e.attributes.x.value = 10;
			}
			if (e.attributes.width != undefined) {
				orig_save(e, "width");
				e.attributes.width.value = parseInt(svg.width.baseVal.value) - (10 * 2);
			}
		}
		if (e.childNodes == undefined) return;
		for (var i = 0, c = e.childNodes; i < c.length; i++) {
			zoom_parent(c[i]);
		}
	}
	function zoom(node) {
		var attr = find_child(node, "rect").attributes;
		var width = parseFloat(attr.width.value);
		var xmin = parseFloat(attr.x.value);
		var xmax = parseFloat(xmin + width);
		var ymin = parseFloat(attr.y.value);
		var ratio = (svg.width.baseVal.value - 2 * 10) / width;

		// XXX: Workaround for JavaScript float issues (fix me)
		var fudge = 0.0001;

		unzoombtn.classList.remove("hide");

		var el = document.getElementById("frames").children;
		for (var i = 0; i < el.length; i++) {
			var e = el[i];
			var a = find_child(e, "rect").attributes;
			var ex = parseFloat(a.x.value);
			var ew = parseFloat(a.width.value);
			var upstack;
			// Is it an ancestor
			if (0 == 0) {
				upstack = parseFloat(a.y.value) > ymin;
			} else {
				upstack = parseFloat(a.y.value) < ymin;
			}
			if (upstack) {
				// Direct ancestor
				if (ex <= xmin && (ex+ew+fudge) >= xmax) {
					e.classList.add("parent");
					zoom_parent(e);
					update_text(e);
				}
				// not in current path
				else
					e.classList.add("hide");
			}
			// Children maybe
			else {
				// no common path
				if (ex < xmin || ex + fudge >= xmax) {
					e.classList.add("hide");
				}
				else {
					zoom_child(e, xmin, ratio);
					update_text(e);
				}
			}
		}
		search();
	}
	function unzoom(dont_update_text) {
		unzoombtn.classList.add("hide");
		var el = document.getElementById("frames").children;
		for(var i = 0; i < el.length; i++) {
			el[i].classList.remove("parent");
			el[i].classList.remove("hide");
			zoom_reset(el[i]);
			if(!dont_update_text) update_text(el[i]);
		}
		search();
	}
	function clearzoom() {
		unzoom();

		// remove zoom state
		var params = get_params();
		if (params.x) delete params.x;
		if (params.y) delete params.y;
		history.replaceState(null, null, parse_params(params));
	}

	// search
	function toggle_ignorecase() {
		ignorecase = !ignorecase;
		if (ignorecase) {
			ignorecaseBtn.classList.add("show");
		} else {
			ignorecaseBtn.classList.remove("show");
		}
		reset_search();
		search();
	}
	function reset_search() {
		var el = document.querySelectorAll("#frames rect");
		for (var i = 0; i < el.length; i++) {
			orig_load(el[i], "fill")
		}
		var params = get_params();
		delete params.s;
		history.replaceState(null, null, parse_params(params));
	}
	function search_prompt() {
		if (!searching) {
			var term = prompt("Enter a search term (regexp " +
			    "allowed, eg: ^ext4_)"
			    + (ignorecase ? ", ignoring case" : "")
			    + "\nPress Ctrl-i to toggle case sensitivity", "");
			if (term != null) search(term);
		} else {
			reset_search();
			searching = 0;
			currentSearchTerm = null;
			searchbtn.classList.remove("show");
			searchbtn.firstChild.nodeValue = "Search"
			matchedtxt.classList.add("hide");
			matchedtxt.firstChild.nodeValue = ""
		}
	}
	function search(term) {
		if (term) currentSearchTerm = term;

		var re = new RegExp(currentSearchTerm, ignorecase ? 'i' : '');
		var el = document.getElementById("frames").children;
		var matches = new Object();
		var maxwidth = 0;
		for (var i = 0; i < el.length; i++) {
			var e = el[i];
			var func = g_to_func(e);
			var rect = find_child(e, "rect");
			if (func == null || rect == null)
				continue;

			// Save max width. Only works as we have a root frame
			var w = parseFloat(rect.attributes.width.value);
			if (w > maxwidth)
				maxwidth = w;

			if (func.match(re)) {
				// highlight
				var x = parseFloat(rect.attributes.x.value);
				orig_save(rect, "fill");
				rect.attributes.fill.value = "rgb(230,0,230)";

				// remember matches
				if (matches[x] == undefined) {
					matches[x] = w;
				} else {
					if (w > matches[x]) {
						// overwrite with parent
						matches[x] = w;
					}
				}
				searching = 1;
			}
		}
		if (!searching)
			return;
		var params = get_params();
		params.s = currentSearchTerm;
		history.replaceState(null, null, parse_params(params));

		searchbtn.classList.add("show");
		searchbtn.firstChild.nodeValue = "Reset Search";

		// calculate percent matched, excluding vertical overlap
		var count = 0;
		var lastx = -1;
		var lastw = 0;
		var keys = Array();
		for (k in matches) {
			if (matches.hasOwnProperty(k))
				keys.push(k);
		}
		// sort the matched frames by their x location
		// ascending, then width descending
		keys.sort(function(a, b){
			return a - b;
		});
		// Step through frames saving only the biggest bottom-up frames
		// thanks to the sort order. This relies on the tree property
		// where children are always smaller than their parents.
		var fudge = 0.0001;	// JavaScript floating point
		for (var k in keys) {
			var x = parseFloat(keys[k]);
			var w = matches[keys[k]];
			if (x >= lastx + lastw - fudge) {
				count += w;
				lastx = x;
				lastw = w;
			}
		}
		// display matched percent
		matchedtxt.classList.remove("hide");
		var pct = 100 * count / maxwidth;
		if (pct != 100) pct = pct.toFixed(1)
		matchedtxt.firstChild.nodeValue = "Matched: " + pct + "%";
	}
]]>
</script>
<rect x="0.0" y="0" width="1200.0" height="342.0" fill="url(#background)"  />
<text id="title" x="600.00" y="24" >Flame Graph</text>
<text id="details" x="10.00" y="325" > </text>
<text id="unzoom" x="10.00" y="24" class="hide">Reset Zoom</text>
<text id="search" x="1090.00" y="24" >Search</text>
<text id="ignorecase" x="1174.00" y="24" >ic</text>
<text id="matched" x="1090.00" y="325" > </text>
<g id="frames">
<g >
<title>cgroup_rstat_flush_locked (923,922 samples, 0.12%)</title><rect x="1178.4" y="53" width="1.4" height="15.0" fill="rgb(209,19,4)" rx="2" ry="2" />
<text  x="1181.38" y="63.5" ></text>
</g>
<g >
<title>UpsampleRgbLinePair_SSE2 (5,542,774 samples, 0.70%)</title><rect x="85.6" y="261" width="8.3" height="15.0" fill="rgb(220,70,16)" rx="2" ry="2" />
<text  x="88.60" y="271.5" ></text>
</g>
<g >
<title>bprm_execve (94,073 samples, 0.01%)</title><rect x="1189.9" y="181" width="0.1" height="15.0" fill="rgb(218,61,14)" rx="2" ry="2" />
<text  x="1192.86" y="191.5" ></text>
</g>
<g >
<title>__memmove_avx_unaligned_erms (1,847,527 samples, 0.23%)</title><rect x="1185.7" y="261" width="2.8" height="15.0" fill="rgb(205,0,0)" rx="2" ry="2" />
<text  x="1188.74" y="271.5" ></text>
</g>
<g >
<title>[unknown] (211,261,220 samples, 26.64%)</title><rect x="864.0" y="245" width="314.4" height="15.0" fill="rgb(210,24,5)" rx="2" ry="2" />
<text  x="867.01" y="255.5" >[unknown]</text>
</g>
<g >
<title>Transform_SSE2 (6,465,862 samples, 0.82%)</title><rect x="74.6" y="261" width="9.6" height="15.0" fill="rgb(233,129,30)" rx="2" ry="2" />
<text  x="77.61" y="271.5" ></text>
</g>
<g >
<title>try_to_wake_up (783,667 samples, 0.10%)</title><rect x="1179.8" y="85" width="1.1" height="15.0" fill="rgb(220,70,16)" rx="2" ry="2" />
<text  x="1182.75" y="95.5" ></text>
</g>
<g >
<title>entry_SYSCALL_64_after_hwframe (1,707,589 samples, 0.22%)</title><rect x="1178.4" y="229" width="2.5" height="15.0" fill="rgb(218,63,15)" rx="2" ry="2" />
<text  x="1181.38" y="239.5" ></text>
</g>
<g >
<title>__memset_avx2_unaligned_erms (1,848,590 samples, 0.23%)</title><rect x="1180.9" y="245" width="2.8" height="15.0" fill="rgb(223,84,20)" rx="2" ry="2" />
<text  x="1183.92" y="255.5" ></text>
</g>
<g >
<title>__queue_work (783,667 samples, 0.10%)</title><rect x="1179.8" y="101" width="1.1" height="15.0" fill="rgb(212,34,8)" rx="2" ry="2" />
<text  x="1182.75" y="111.5" ></text>
</g>
<g >
<title>ReconstructRow (9,234,641 samples, 1.16%)</title><rect x="238.4" y="245" width="13.7" height="15.0" fill="rgb(225,93,22)" rx="2" ry="2" />
<text  x="241.35" y="255.5" ></text>
</g>
<g >
<title>hrtimer_interrupt (583,537 samples, 0.07%)</title><rect x="1170.6" y="165" width="0.9" height="15.0" fill="rgb(228,109,26)" rx="2" ry="2" />
<text  x="1173.64" y="175.5" ></text>
</g>
<g >
<title>load_elf_binary (466,699 samples, 0.06%)</title><rect x="1185.0" y="165" width="0.7" height="15.0" fill="rgb(223,83,20)" rx="2" ry="2" />
<text  x="1188.04" y="175.5" ></text>
</g>
<g >
<title>handle_mm_fault (785,871 samples, 0.10%)</title><rect x="148.0" y="197" width="1.2" height="15.0" fill="rgb(234,135,32)" rx="2" ry="2" />
<text  x="151.05" y="207.5" ></text>
</g>
<g >
<title>GetCoeffsFast (183,936,811 samples, 23.20%)</title><rect x="897.8" y="229" width="273.7" height="15.0" fill="rgb(219,64,15)" rx="2" ry="2" />
<text  x="900.80" y="239.5" >GetCoeffsFast</text>
</g>
<g >
<title>BuildHuffmanTable (1,848,143 samples, 0.23%)</title><rect x="11.4" y="261" width="2.7" height="15.0" fill="rgb(226,101,24)" rx="2" ry="2" />
<text  x="14.37" y="271.5" ></text>
</g>
<g >
<title>RD4_SSE2 (1,848,195 samples, 0.23%)</title><rect x="55.4" y="261" width="2.7" height="15.0" fill="rgb(253,224,53)" rx="2" ry="2" />
<text  x="58.36" y="271.5" ></text>
</g>
<g >
<title>vfs_write (1,707,589 samples, 0.22%)</title><rect x="1178.4" y="181" width="2.5" height="15.0" fill="rgb(250,209,50)" rx="2" ry="2" />
<text  x="1181.38" y="191.5" ></text>
</g>
<g >
<title>VR4_SSE2 (924,062 samples, 0.12%)</title><rect x="149.2" y="261" width="1.4" height="15.0" fill="rgb(237,150,35)" rx="2" ry="2" />
<text  x="152.22" y="271.5" ></text>
</g>
<g >
<title>VP8DecodeMB (13,826,922 samples, 1.74%)</title><rect x="772.4" y="245" width="20.6" height="15.0" fill="rgb(208,18,4)" rx="2" ry="2" />
<text  x="775.43" y="255.5" ></text>
</g>
<g >
<title>perf_event_exec (94,073 samples, 0.01%)</title><rect x="1189.9" y="133" width="0.1" height="15.0" fill="rgb(218,60,14)" rx="2" ry="2" />
<text  x="1192.86" y="143.5" ></text>
</g>
<g >
<title>HD4_C (1,847,573 samples, 0.23%)</title><rect x="48.5" y="261" width="2.7" height="15.0" fill="rgb(226,100,23)" rx="2" ry="2" />
<text  x="51.48" y="271.5" ></text>
</g>
<g >
<title>load_elf_binary (94,073 samples, 0.01%)</title><rect x="1189.9" y="165" width="0.1" height="15.0" fill="rgb(223,83,20)" rx="2" ry="2" />
<text  x="1192.86" y="175.5" ></text>
</g>
<g >
<title>do_execveat_common.isra.0 (94,073 samples, 0.01%)</title><rect x="1189.9" y="197" width="0.1" height="15.0" fill="rgb(231,123,29)" rx="2" ry="2" />
<text  x="1192.86" y="207.5" ></text>
</g>
<g >
<title>TransformUV_C (3,661,102 samples, 0.46%)</title><rect x="261.7" y="245" width="5.5" height="15.0" fill="rgb(236,146,34)" rx="2" ry="2" />
<text  x="264.72" y="255.5" ></text>
</g>
<g >
<title>generic_perform_write (923,922 samples, 0.12%)</title><rect x="1178.4" y="149" width="1.4" height="15.0" fill="rgb(236,146,35)" rx="2" ry="2" />
<text  x="1181.38" y="159.5" ></text>
</g>
<g >
<title>sysvec_apic_timer_interrupt (583,537 samples, 0.07%)</title><rect x="1170.6" y="197" width="0.9" height="15.0" fill="rgb(220,69,16)" rx="2" ry="2" />
<text  x="1173.64" y="207.5" ></text>
</g>
<g >
<title>HFilter8_SSE2 (4,616,476 samples, 0.58%)</title><rect x="228.7" y="245" width="6.9" height="15.0" fill="rgb(215,48,11)" rx="2" ry="2" />
<text  x="231.73" y="255.5" ></text>
</g>
<g >
<title>[unknown] (691,094,856 samples, 87.15%)</title><rect x="157.4" y="261" width="1028.3" height="15.0" fill="rgb(210,24,5)" rx="2" ry="2" />
<text  x="160.36" y="271.5" >[unknown]</text>
</g>
<g >
<title>mem_cgroup_wb_stats (923,922 samples, 0.12%)</title><rect x="1178.4" y="101" width="1.4" height="15.0" fill="rgb(211,28,6)" rx="2" ry="2" />
<text  x="1181.38" y="111.5" ></text>
</g>
<g >
<title>HE4_C (923,776 samples, 0.12%)</title><rect x="51.2" y="261" width="1.4" height="15.0" fill="rgb(220,70,16)" rx="2" ry="2" />
<text  x="54.23" y="271.5" ></text>
</g>
<g >
<title>VFilter16_SSE2 (924,351 samples, 0.12%)</title><rect x="769.7" y="245" width="1.4" height="15.0" fill="rgb(221,75,18)" rx="2" ry="2" />
<text  x="772.68" y="255.5" ></text>
</g>
<g >
<title>HFilter16i_SSE2 (1,847,178 samples, 0.23%)</title><rect x="226.0" y="245" width="2.7" height="15.0" fill="rgb(233,131,31)" rx="2" ry="2" />
<text  x="228.98" y="255.5" ></text>
</g>
<g >
<title>VP8GetValue (924,391 samples, 0.12%)</title><rect x="105.5" y="261" width="1.3" height="15.0" fill="rgb(230,119,28)" rx="2" ry="2" />
<text  x="108.45" y="271.5" ></text>
</g>
<g >
<title>__handle_mm_fault (785,871 samples, 0.10%)</title><rect x="148.0" y="181" width="1.2" height="15.0" fill="rgb(207,9,2)" rx="2" ry="2" />
<text  x="151.05" y="191.5" ></text>
</g>
<g >
<title>DecodeImageData (20,857,939 samples, 2.63%)</title><rect x="864.0" y="229" width="31.0" height="15.0" fill="rgb(254,229,54)" rx="2" ry="2" />
<text  x="867.01" y="239.5" >De..</text>
</g>
<g >
<title>ReconstructRow (3,694,745 samples, 0.47%)</title><rect x="58.1" y="261" width="5.5" height="15.0" fill="rgb(225,93,22)" rx="2" ry="2" />
<text  x="61.11" y="271.5" ></text>
</g>
<g >
<title>entry_SYSCALL_64_after_hwframe (94,073 samples, 0.01%)</title><rect x="1189.9" y="245" width="0.1" height="15.0" fill="rgb(218,63,15)" rx="2" ry="2" />
<text  x="1192.86" y="255.5" ></text>
</g>
<g >
<title>VP8YuvToRgb32_SSE2 (8,165,275 samples, 1.03%)</title><rect x="137.1" y="261" width="12.1" height="15.0" fill="rgb(241,167,40)" rx="2" ry="2" />
<text  x="140.07" y="271.5" ></text>
</g>
<g >
<title>__sysvec_apic_timer_interrupt (583,537 samples, 0.07%)</title><rect x="1170.6" y="181" width="0.9" height="15.0" fill="rgb(242,173,41)" rx="2" ry="2" />
<text  x="1173.64" y="191.5" ></text>
</g>
<g >
<title>LD4_SSE2 (1,848,241 samples, 0.23%)</title><rect x="52.6" y="261" width="2.8" height="15.0" fill="rgb(242,173,41)" rx="2" ry="2" />
<text  x="55.61" y="271.5" ></text>
</g>
<g >
<title>tty_insert_flip_string_and_push_buffer (783,667 samples, 0.10%)</title><rect x="1179.8" y="133" width="1.1" height="15.0" fill="rgb(217,55,13)" rx="2" ry="2" />
<text  x="1182.75" y="143.5" ></text>
</g>
<g >
<title>HE16_SSE2 (923,224 samples, 0.12%)</title><rect x="216.4" y="245" width="1.3" height="15.0" fill="rgb(232,126,30)" rx="2" ry="2" />
<text  x="219.36" y="255.5" ></text>
</g>
<g >
<title>VP8ParseIntraModeRow (45,873,140 samples, 5.78%)</title><rect x="793.0" y="245" width="68.3" height="15.0" fill="rgb(231,121,29)" rx="2" ry="2" />
<text  x="796.00" y="255.5" >VP8Pars..</text>
</g>
<g >
<title>do_syscall_64 (1,707,589 samples, 0.22%)</title><rect x="1178.4" y="213" width="2.5" height="15.0" fill="rgb(209,20,4)" rx="2" ry="2" />
<text  x="1181.38" y="223.5" ></text>
</g>
<g >
<title>DC4_C (4,619,983 samples, 0.58%)</title><rect x="14.1" y="261" width="6.9" height="15.0" fill="rgb(209,18,4)" rx="2" ry="2" />
<text  x="17.12" y="271.5" ></text>
</g>
<g >
<title>Upsample32Pixels_SSE2 (924,346 samples, 0.12%)</title><rect x="84.2" y="261" width="1.4" height="15.0" fill="rgb(223,83,20)" rx="2" ry="2" />
<text  x="87.23" y="271.5" ></text>
</g>
<g >
<title>DC8uv_SSE2 (923,946 samples, 0.12%)</title><rect x="157.4" y="245" width="1.3" height="15.0" fill="rgb(206,8,2)" rx="2" ry="2" />
<text  x="160.36" y="255.5" ></text>
</g>
<g >
<title>balance_dirty_pages (923,922 samples, 0.12%)</title><rect x="1178.4" y="117" width="1.4" height="15.0" fill="rgb(247,193,46)" rx="2" ry="2" />
<text  x="1181.38" y="127.5" ></text>
</g>
<g >
<title>__mem_cgroup_charge (785,871 samples, 0.10%)</title><rect x="148.0" y="165" width="1.2" height="15.0" fill="rgb(218,60,14)" rx="2" ry="2" />
<text  x="151.05" y="175.5" ></text>
</g>
<g >
<title>ExtractAlphaRows (924,230 samples, 0.12%)</title><rect x="896.4" y="229" width="1.4" height="15.0" fill="rgb(243,177,42)" rx="2" ry="2" />
<text  x="899.42" y="239.5" ></text>
</g>
<g >
<title>decode_webp_nat (792,894,773 samples, 99.99%)</title><rect x="10.0" y="277" width="1179.9" height="15.0" fill="rgb(218,61,14)" rx="2" ry="2" />
<text  x="13.00" y="287.5" >decode_webp_nat</text>
</g>
<g >
<title>__mem_cgroup_flush_stats (923,922 samples, 0.12%)</title><rect x="1178.4" y="85" width="1.4" height="15.0" fill="rgb(208,16,3)" rx="2" ry="2" />
<text  x="1181.38" y="95.5" ></text>
</g>
<g >
<title>GetCoeffsFast (13,851,289 samples, 1.75%)</title><rect x="27.9" y="261" width="20.6" height="15.0" fill="rgb(219,64,15)" rx="2" ry="2" />
<text  x="30.87" y="271.5" ></text>
</g>
<g >
<title>queue_work_on (783,667 samples, 0.10%)</title><rect x="1179.8" y="117" width="1.1" height="15.0" fill="rgb(248,200,48)" rx="2" ry="2" />
<text  x="1182.75" y="127.5" ></text>
</g>
<g >
<title>asm_sysvec_apic_timer_interrupt (583,537 samples, 0.07%)</title><rect x="1170.6" y="213" width="0.9" height="15.0" fill="rgb(232,127,30)" rx="2" ry="2" />
<text  x="1173.64" y="223.5" ></text>
</g>
<g >
<title>VP8PlanarTo24b_SSE2 (12,008,975 samples, 1.51%)</title><rect x="119.2" y="261" width="17.9" height="15.0" fill="rgb(208,15,3)" rx="2" ry="2" />
<text  x="122.20" y="271.5" ></text>
</g>
<g >
<title>UpsampleRgbLinePair_SSE2 (1,848,429 samples, 0.23%)</title><rect x="766.9" y="245" width="2.8" height="15.0" fill="rgb(220,70,16)" rx="2" ry="2" />
<text  x="769.93" y="255.5" ></text>
</g>
<g >
<title>_raw_spin_lock_irqsave (923,922 samples, 0.12%)</title><rect x="1178.4" y="37" width="1.4" height="15.0" fill="rgb(247,195,46)" rx="2" ry="2" />
<text  x="1181.38" y="47.5" ></text>
</g>
<g >
<title>do_syscall_64 (466,699 samples, 0.06%)</title><rect x="1185.0" y="229" width="0.7" height="15.0" fill="rgb(209,20,4)" rx="2" ry="2" />
<text  x="1188.04" y="239.5" ></text>
</g>
<g >
<title>YUV444ToRGB_SSE2 (4,547,859 samples, 0.57%)</title><rect x="150.6" y="261" width="6.8" height="15.0" fill="rgb(247,193,46)" rx="2" ry="2" />
<text  x="153.59" y="271.5" ></text>
</g>
<g >
<title>GetLargeValue (26,719,109 samples, 3.37%)</title><rect x="176.6" y="245" width="39.8" height="15.0" fill="rgb(243,175,42)" rx="2" ry="2" />
<text  x="179.60" y="255.5" >Get..</text>
</g>
<g >
<title>__printf_fp_l (923,840 samples, 0.12%)</title><rect x="1188.5" y="245" width="1.4" height="15.0" fill="rgb(221,76,18)" rx="2" ry="2" />
<text  x="1191.49" y="255.5" ></text>
</g>
<g >
<title>available_idle_cpu (783,667 samples, 0.10%)</title><rect x="1179.8" y="53" width="1.1" height="15.0" fill="rgb(241,168,40)" rx="2" ry="2" />
<text  x="1182.75" y="63.5" ></text>
</g>
<g >
<title>EmitFancyRGB (923,968 samples, 0.12%)</title><rect x="895.0" y="229" width="1.4" height="15.0" fill="rgb(210,26,6)" rx="2" ry="2" />
<text  x="898.05" y="239.5" ></text>
</g>
<g >
<title>VP8PlanarTo24b_SSE2 (1,847,101 samples, 0.23%)</title><rect x="861.3" y="245" width="2.7" height="15.0" fill="rgb(208,15,3)" rx="2" ry="2" />
<text  x="864.26" y="255.5" ></text>
</g>
<g >
<title>GetCoeffsFast (5,541,532 samples, 0.70%)</title><rect x="168.4" y="245" width="8.2" height="15.0" fill="rgb(219,64,15)" rx="2" ry="2" />
<text  x="171.36" y="255.5" ></text>
</g>
<g >
<title>HFilter16_SSE2 (5,543,355 samples, 0.70%)</title><rect x="217.7" y="245" width="8.3" height="15.0" fill="rgb(211,31,7)" rx="2" ry="2" />
<text  x="220.74" y="255.5" ></text>
</g>
<g >
<title>__vfprintf_internal (923,840 samples, 0.12%)</title><rect x="1188.5" y="261" width="1.4" height="15.0" fill="rgb(232,125,30)" rx="2" ry="2" />
<text  x="1191.49" y="271.5" ></text>
</g>
<g >
<title>VP8ParseProba (2,769,327 samples, 0.35%)</title><rect x="115.1" y="261" width="4.1" height="15.0" fill="rgb(224,88,21)" rx="2" ry="2" />
<text  x="118.08" y="271.5" ></text>
</g>
<g >
<title>[unknown] (94,073 samples, 0.01%)</title><rect x="1189.9" y="261" width="0.1" height="15.0" fill="rgb(210,24,5)" rx="2" ry="2" />
<text  x="1192.86" y="271.5" ></text>
</g>
<g >
<title>file_tty_write.constprop.0 (783,667 samples, 0.10%)</title><rect x="1179.8" y="165" width="1.1" height="15.0" fill="rgb(219,64,15)" rx="2" ry="2" />
<text  x="1182.75" y="175.5" ></text>
</g>
<g >
<title>select_task_rq_fair (783,667 samples, 0.10%)</title><rect x="1179.8" y="69" width="1.1" height="15.0" fill="rgb(211,29,7)" rx="2" ry="2" />
<text  x="1182.75" y="79.5" ></text>
</g>
<g >
<title>TransformAC3_C (924,231 samples, 0.12%)</title><rect x="66.4" y="261" width="1.3" height="15.0" fill="rgb(209,19,4)" rx="2" ry="2" />
<text  x="69.36" y="271.5" ></text>
</g>
<g >
<title>cgroup_rstat_flush_irqsafe (923,922 samples, 0.12%)</title><rect x="1178.4" y="69" width="1.4" height="15.0" fill="rgb(227,103,24)" rx="2" ry="2" />
<text  x="1181.38" y="79.5" ></text>
</g>
<g >
<title>get_mem_cgroup_from_mm (785,871 samples, 0.10%)</title><rect x="148.0" y="149" width="1.2" height="15.0" fill="rgb(218,61,14)" rx="2" ry="2" />
<text  x="151.05" y="159.5" ></text>
</g>
<g >
<title>DoFilter6_SSE2 (5,543,535 samples, 0.70%)</title><rect x="158.7" y="245" width="8.3" height="15.0" fill="rgb(237,148,35)" rx="2" ry="2" />
<text  x="161.73" y="255.5" ></text>
</g>
<g >
<title>bprm_execve (466,699 samples, 0.06%)</title><rect x="1185.0" y="181" width="0.7" height="15.0" fill="rgb(218,61,14)" rx="2" ry="2" />
<text  x="1188.04" y="191.5" ></text>
</g>
<g >
<title>do_user_addr_fault (785,871 samples, 0.10%)</title><rect x="148.0" y="213" width="1.2" height="15.0" fill="rgb(228,108,25)" rx="2" ry="2" />
<text  x="151.05" y="223.5" ></text>
</g>
<g >
<title>ktime_get (583,537 samples, 0.07%)</title><rect x="1170.6" y="133" width="0.9" height="15.0" fill="rgb(207,10,2)" rx="2" ry="2" />
<text  x="1173.64" y="143.5" ></text>
</g>
<g >
<title>__x64_sys_execve (466,699 samples, 0.06%)</title><rect x="1185.0" y="213" width="0.7" height="15.0" fill="rgb(247,193,46)" rx="2" ry="2" />
<text  x="1188.04" y="223.5" ></text>
</g>
<g >
<title>Transform_SSE2 (335,851,199 samples, 42.35%)</title><rect x="267.2" y="245" width="499.7" height="15.0" fill="rgb(233,129,30)" rx="2" ry="2" />
<text  x="270.16" y="255.5" >Transform_SSE2</text>
</g>
<g >
<title>vm_mmap_pgoff (466,699 samples, 0.06%)</title><rect x="1185.0" y="133" width="0.7" height="15.0" fill="rgb(237,150,35)" rx="2" ry="2" />
<text  x="1188.04" y="143.5" ></text>
</g>
<g >
<title>begin_new_exec (94,073 samples, 0.01%)</title><rect x="1189.9" y="149" width="0.1" height="15.0" fill="rgb(245,184,44)" rx="2" ry="2" />
<text  x="1192.86" y="159.5" ></text>
</g>
<g >
<title>__rcu_read_lock (785,871 samples, 0.10%)</title><rect x="148.0" y="133" width="1.2" height="15.0" fill="rgb(220,69,16)" rx="2" ry="2" />
<text  x="151.05" y="143.5" ></text>
</g>
<g >
<title>ksys_write (1,707,589 samples, 0.22%)</title><rect x="1178.4" y="197" width="2.5" height="15.0" fill="rgb(205,4,1)" rx="2" ry="2" />
<text  x="1181.38" y="207.5" ></text>
</g>
<g >
<title>VP8DecodeMB (6,342,868 samples, 0.80%)</title><rect x="96.0" y="261" width="9.5" height="15.0" fill="rgb(208,18,4)" rx="2" ry="2" />
<text  x="99.02" y="271.5" ></text>
</g>
<g >
<title>TransformDC_C (4,619,231 samples, 0.58%)</title><rect x="67.7" y="261" width="6.9" height="15.0" fill="rgb(219,65,15)" rx="2" ry="2" />
<text  x="70.73" y="271.5" ></text>
</g>
<g >
<title>all (792,988,846 samples, 100%)</title><rect x="10.0" y="293" width="1180.0" height="15.0" fill="rgb(213,39,9)" rx="2" ry="2" />
<text  x="13.00" y="303.5" ></text>
</g>
<g >
<title>VP8ParseIntraModeRow (5,541,579 samples, 0.70%)</title><rect x="106.8" y="261" width="8.3" height="15.0" fill="rgb(231,121,29)" rx="2" ry="2" />
<text  x="109.83" y="271.5" ></text>
</g>
<g >
<title>ExtractGreen_SSE2 (3,695,853 samples, 0.47%)</title><rect x="21.0" y="261" width="5.5" height="15.0" fill="rgb(226,96,23)" rx="2" ry="2" />
<text  x="24.00" y="271.5" ></text>
</g>
<g >
<title>__libc_write (1,707,589 samples, 0.22%)</title><rect x="1178.4" y="245" width="2.5" height="15.0" fill="rgb(238,154,37)" rx="2" ry="2" />
<text  x="1181.38" y="255.5" ></text>
</g>
<g >
<title>__x64_sys_execve (94,073 samples, 0.01%)</title><rect x="1189.9" y="213" width="0.1" height="15.0" fill="rgb(247,193,46)" rx="2" ry="2" />
<text  x="1192.86" y="223.5" ></text>
</g>
<g >
<title>do_syscall_64 (94,073 samples, 0.01%)</title><rect x="1189.9" y="229" width="0.1" height="15.0" fill="rgb(209,20,4)" rx="2" ry="2" />
<text  x="1192.86" y="239.5" ></text>
</g>
<g >
<title>perf-exec (94,073 samples, 0.01%)</title><rect x="1189.9" y="277" width="0.1" height="15.0" fill="rgb(231,123,29)" rx="2" ry="2" />
<text  x="1192.86" y="287.5" ></text>
</g>
<g >
<title>__memmove_avx_unaligned_erms (2,770,971 samples, 0.35%)</title><rect x="1174.3" y="229" width="4.1" height="15.0" fill="rgb(205,0,0)" rx="2" ry="2" />
<text  x="1177.25" y="239.5" ></text>
</g>
<g >
<title>exc_page_fault (785,871 samples, 0.10%)</title><rect x="148.0" y="229" width="1.2" height="15.0" fill="rgb(212,35,8)" rx="2" ry="2" />
<text  x="151.05" y="239.5" ></text>
</g>
<g >
<title>ShiftBytes (1,847,301 samples, 0.23%)</title><rect x="1171.5" y="229" width="2.8" height="15.0" fill="rgb(216,52,12)" rx="2" ry="2" />
<text  x="1174.50" y="239.5" ></text>
</g>
<g >
<title>TransformDC_C (6,467,874 samples, 0.82%)</title><rect x="252.1" y="245" width="9.6" height="15.0" fill="rgb(219,65,15)" rx="2" ry="2" />
<text  x="255.09" y="255.5" ></text>
</g>
<g >
<title>elf_map (466,699 samples, 0.06%)</title><rect x="1185.0" y="149" width="0.7" height="15.0" fill="rgb(236,145,34)" rx="2" ry="2" />
<text  x="1188.04" y="159.5" ></text>
</g>
<g >
<title>clockevents_program_event (583,537 samples, 0.07%)</title><rect x="1170.6" y="149" width="0.9" height="15.0" fill="rgb(244,182,43)" rx="2" ry="2" />
<text  x="1173.64" y="159.5" ></text>
</g>
<g >
<title>HFilter8i_SSE2 (1,847,456 samples, 0.23%)</title><rect x="235.6" y="245" width="2.8" height="15.0" fill="rgb(237,148,35)" rx="2" ry="2" />
<text  x="238.60" y="255.5" ></text>
</g>
<g >
<title>asm_exc_page_fault (785,871 samples, 0.10%)</title><rect x="148.0" y="245" width="1.2" height="15.0" fill="rgb(225,93,22)" rx="2" ry="2" />
<text  x="151.05" y="255.5" ></text>
</g>
<g >
<title>balance_dirty_pages_ratelimited_flags (923,922 samples, 0.12%)</title><rect x="1178.4" y="133" width="1.4" height="15.0" fill="rgb(207,10,2)" rx="2" ry="2" />
<text  x="1181.38" y="143.5" ></text>
</g>
<g >
<title>FinishRow (923,140 samples, 0.12%)</title><rect x="167.0" y="245" width="1.4" height="15.0" fill="rgb(213,41,9)" rx="2" ry="2" />
<text  x="169.98" y="255.5" ></text>
</g>
<g >
<title>VFilter8_SSE2 (923,847 samples, 0.12%)</title><rect x="771.1" y="245" width="1.3" height="15.0" fill="rgb(225,92,22)" rx="2" ry="2" />
<text  x="774.05" y="255.5" ></text>
</g>
<g >
<title>VL4_SSE2 (802,518 samples, 0.10%)</title><rect x="94.8" y="261" width="1.2" height="15.0" fill="rgb(226,98,23)" rx="2" ry="2" />
<text  x="97.82" y="271.5" ></text>
</g>
<g >
<title>do_execveat_common.isra.0 (466,699 samples, 0.06%)</title><rect x="1185.0" y="197" width="0.7" height="15.0" fill="rgb(231,123,29)" rx="2" ry="2" />
<text  x="1188.04" y="207.5" ></text>
</g>
<g >
<title>n_tty_write (783,667 samples, 0.10%)</title><rect x="1179.8" y="149" width="1.1" height="15.0" fill="rgb(210,23,5)" rx="2" ry="2" />
<text  x="1182.75" y="159.5" ></text>
</g>
<g >
<title>VFilter8i_SSE2 (651,857 samples, 0.08%)</title><rect x="93.9" y="261" width="0.9" height="15.0" fill="rgb(246,192,46)" rx="2" ry="2" />
<text  x="96.85" y="271.5" ></text>
</g>
<g >
<title>_int_malloc (923,201 samples, 0.12%)</title><rect x="1183.7" y="245" width="1.3" height="15.0" fill="rgb(215,47,11)" rx="2" ry="2" />
<text  x="1186.67" y="255.5" ></text>
</g>
<g >
<title>ext4_buffered_write_iter (923,922 samples, 0.12%)</title><rect x="1178.4" y="165" width="1.4" height="15.0" fill="rgb(213,40,9)" rx="2" ry="2" />
<text  x="1181.38" y="175.5" ></text>
</g>
<g >
<title>FinishRow (924,242 samples, 0.12%)</title><rect x="26.5" y="261" width="1.4" height="15.0" fill="rgb(213,41,9)" rx="2" ry="2" />
<text  x="29.50" y="271.5" ></text>
</g>
<g >
<title>entry_SYSCALL_64_after_hwframe (466,699 samples, 0.06%)</title><rect x="1185.0" y="245" width="0.7" height="15.0" fill="rgb(218,63,15)" rx="2" ry="2" />
<text  x="1188.04" y="255.5" ></text>
</g>
<g >
<title>TM4_SSE2 (1,848,120 samples, 0.23%)</title><rect x="63.6" y="261" width="2.8" height="15.0" fill="rgb(232,128,30)" rx="2" ry="2" />
<text  x="66.61" y="271.5" ></text>
</g>
</g>
</svg>
