<?xml version="1.0" standalone="no"?>
<!DOCTYPE svg PUBLIC "-//W3C//DTD SVG 1.1//EN" "http://www.w3.org/Graphics/SVG/1.1/DTD/svg11.dtd">
<svg version="1.1" width="1200" height="358" onload="init(evt)" viewBox="0 0 1200 358" xmlns="http://www.w3.org/2000/svg" xmlns:xlink="http://www.w3.org/1999/xlink">
<!-- Flame graph stack visualization. See https://github.com/brendangregg/FlameGraph for latest version, and http://www.brendangregg.com/flamegraphs.html for examples. -->
<!-- NOTES:  -->
<defs>
	<linearGradient id="background" y1="0" y2="1" x1="0" x2="0" >
		<stop stop-color="#eeeeee" offset="5%" />
		<stop stop-color="#eeeeb0" offset="95%" />
	</linearGradient>
</defs>
<style type="text/css">
	text { font-family:Verdana; font-size:12px; fill:rgb(0,0,0); }
	#search, #ignorecase { opacity:0.1; cursor:pointer; }
	#search:hover, #search.show, #ignorecase:hover, #ignorecase.show { opacity:1; }
	#subtitle { text-anchor:middle; font-color:rgb(160,160,160); }
	#title { text-anchor:middle; font-size:17px}
	#unzoom { cursor:pointer; }
	#frames > *:hover { stroke:black; stroke-width:0.5; cursor:pointer; }
	.hide { display:none; }
	.parent { opacity:0.5; }
</style>
<script type="text/ecmascript">
<![CDATA[
	"use strict";
	var details, searchbtn, unzoombtn, matchedtxt, svg, searching, currentSearchTerm, ignorecase, ignorecaseBtn;
	function init(evt) {
		details = document.getElementById("details").firstChild;
		searchbtn = document.getElementById("search");
		ignorecaseBtn = document.getElementById("ignorecase");
		unzoombtn = document.getElementById("unzoom");
		matchedtxt = document.getElementById("matched");
		svg = document.getElementsByTagName("svg")[0];
		searching = 0;
		currentSearchTerm = null;

		// use GET parameters to restore a flamegraphs state.
		var params = get_params();
		if (params.x && params.y)
			zoom(find_group(document.querySelector('[x="' + params.x + '"][y="' + params.y + '"]')));
                if (params.s) search(params.s);
	}

	// event listeners
	window.addEventListener("click", function(e) {
		var target = find_group(e.target);
		if (target) {
			if (target.nodeName == "a") {
				if (e.ctrlKey === false) return;
				e.preventDefault();
			}
			if (target.classList.contains("parent")) unzoom(true);
			zoom(target);
			if (!document.querySelector('.parent')) {
				// we have basically done a clearzoom so clear the url
				var params = get_params();
				if (params.x) delete params.x;
				if (params.y) delete params.y;
				history.replaceState(null, null, parse_params(params));
				unzoombtn.classList.add("hide");
				return;
			}

			// set parameters for zoom state
			var el = target.querySelector("rect");
			if (el && el.attributes && el.attributes.y && el.attributes._orig_x) {
				var params = get_params()
				params.x = el.attributes._orig_x.value;
				params.y = el.attributes.y.value;
				history.replaceState(null, null, parse_params(params));
			}
		}
		else if (e.target.id == "unzoom") clearzoom();
		else if (e.target.id == "search") search_prompt();
		else if (e.target.id == "ignorecase") toggle_ignorecase();
	}, false)

	// mouse-over for info
	// show
	window.addEventListener("mouseover", function(e) {
		var target = find_group(e.target);
		if (target) details.nodeValue = "Function: " + g_to_text(target);
	}, false)

	// clear
	window.addEventListener("mouseout", function(e) {
		var target = find_group(e.target);
		if (target) details.nodeValue = ' ';
	}, false)

	// ctrl-F for search
	// ctrl-I to toggle case-sensitive search
	window.addEventListener("keydown",function (e) {
		if (e.keyCode === 114 || (e.ctrlKey && e.keyCode === 70)) {
			e.preventDefault();
			search_prompt();
		}
		else if (e.ctrlKey && e.keyCode === 73) {
			e.preventDefault();
			toggle_ignorecase();
		}
	}, false)

	// functions
	function get_params() {
		var params = {};
		var paramsarr = window.location.search.substr(1).split('&');
		for (var i = 0; i < paramsarr.length; ++i) {
			var tmp = paramsarr[i].split("=");
			if (!tmp[0] || !tmp[1]) continue;
			params[tmp[0]]  = decodeURIComponent(tmp[1]);
		}
		return params;
	}
	function parse_params(params) {
		var uri = "?";
		for (var key in params) {
			uri += key + '=' + encodeURIComponent(params[key]) + '&';
		}
		if (uri.slice(-1) == "&")
			uri = uri.substring(0, uri.length - 1);
		if (uri == '?')
			uri = window.location.href.split('?')[0];
		return uri;
	}
	function find_child(node, selector) {
		var children = node.querySelectorAll(selector);
		if (children.length) return children[0];
	}
	function find_group(node) {
		var parent = node.parentElement;
		if (!parent) return;
		if (parent.id == "frames") return node;
		return find_group(parent);
	}
	function orig_save(e, attr, val) {
		if (e.attributes["_orig_" + attr] != undefined) return;
		if (e.attributes[attr] == undefined) return;
		if (val == undefined) val = e.attributes[attr].value;
		e.setAttribute("_orig_" + attr, val);
	}
	function orig_load(e, attr) {
		if (e.attributes["_orig_"+attr] == undefined) return;
		e.attributes[attr].value = e.attributes["_orig_" + attr].value;
		e.removeAttribute("_orig_"+attr);
	}
	function g_to_text(e) {
		var text = find_child(e, "title").firstChild.nodeValue;
		return (text)
	}
	function g_to_func(e) {
		var func = g_to_text(e);
		// if there's any manipulation we want to do to the function
		// name before it's searched, do it here before returning.
		return (func);
	}
	function update_text(e) {
		var r = find_child(e, "rect");
		var t = find_child(e, "text");
		var w = parseFloat(r.attributes.width.value) -3;
		var txt = find_child(e, "title").textContent.replace(/\([^(]*\)$/,"");
		t.attributes.x.value = parseFloat(r.attributes.x.value) + 3;

		// Smaller than this size won't fit anything
		if (w < 2 * 12 * 0.59) {
			t.textContent = "";
			return;
		}

		t.textContent = txt;
		var sl = t.getSubStringLength(0, txt.length);
		// check if only whitespace or if we can fit the entire string into width w
		if (/^ *$/.test(txt) || sl < w)
			return;

		// this isn't perfect, but gives a good starting point
		// and avoids calling getSubStringLength too often
		var start = Math.floor((w/sl) * txt.length);
		for (var x = start; x > 0; x = x-2) {
			if (t.getSubStringLength(0, x + 2) <= w) {
				t.textContent = txt.substring(0, x) + "..";
				return;
			}
		}
		t.textContent = "";
	}

	// zoom
	function zoom_reset(e) {
		if (e.attributes != undefined) {
			orig_load(e, "x");
			orig_load(e, "width");
		}
		if (e.childNodes == undefined) return;
		for (var i = 0, c = e.childNodes; i < c.length; i++) {
			zoom_reset(c[i]);
		}
	}
	function zoom_child(e, x, ratio) {
		if (e.attributes != undefined) {
			if (e.attributes.x != undefined) {
				orig_save(e, "x");
				e.attributes.x.value = (parseFloat(e.attributes.x.value) - x - 10) * ratio + 10;
				if (e.tagName == "text")
					e.attributes.x.value = find_child(e.parentNode, "rect[x]").attributes.x.value + 3;
			}
			if (e.attributes.width != undefined) {
				orig_save(e, "width");
				e.attributes.width.value = parseFloat(e.attributes.width.value) * ratio;
			}
		}

		if (e.childNodes == undefined) return;
		for (var i = 0, c = e.childNodes; i < c.length; i++) {
			zoom_child(c[i], x - 10, ratio);
		}
	}
	function zoom_parent(e) {
		if (e.attributes) {
			if (e.attributes.x != undefined) {
				orig_save(e, "x");
				e.attributes.x.value = 10;
			}
			if (e.attributes.width != undefined) {
				orig_save(e, "width");
				e.attributes.width.value = parseInt(svg.width.baseVal.value) - (10 * 2);
			}
		}
		if (e.childNodes == undefined) return;
		for (var i = 0, c = e.childNodes; i < c.length; i++) {
			zoom_parent(c[i]);
		}
	}
	function zoom(node) {
		var attr = find_child(node, "rect").attributes;
		var width = parseFloat(attr.width.value);
		var xmin = parseFloat(attr.x.value);
		var xmax = parseFloat(xmin + width);
		var ymin = parseFloat(attr.y.value);
		var ratio = (svg.width.baseVal.value - 2 * 10) / width;

		// XXX: Workaround for JavaScript float issues (fix me)
		var fudge = 0.0001;

		unzoombtn.classList.remove("hide");

		var el = document.getElementById("frames").children;
		for (var i = 0; i < el.length; i++) {
			var e = el[i];
			var a = find_child(e, "rect").attributes;
			var ex = parseFloat(a.x.value);
			var ew = parseFloat(a.width.value);
			var upstack;
			// Is it an ancestor
			if (0 == 0) {
				upstack = parseFloat(a.y.value) > ymin;
			} else {
				upstack = parseFloat(a.y.value) < ymin;
			}
			if (upstack) {
				// Direct ancestor
				if (ex <= xmin && (ex+ew+fudge) >= xmax) {
					e.classList.add("parent");
					zoom_parent(e);
					update_text(e);
				}
				// not in current path
				else
					e.classList.add("hide");
			}
			// Children maybe
			else {
				// no common path
				if (ex < xmin || ex + fudge >= xmax) {
					e.classList.add("hide");
				}
				else {
					zoom_child(e, xmin, ratio);
					update_text(e);
				}
			}
		}
		search();
	}
	function unzoom(dont_update_text) {
		unzoombtn.classList.add("hide");
		var el = document.getElementById("frames").children;
		for(var i = 0; i < el.length; i++) {
			el[i].classList.remove("parent");
			el[i].classList.remove("hide");
			zoom_reset(el[i]);
			if(!dont_update_text) update_text(el[i]);
		}
		search();
	}
	function clearzoom() {
		unzoom();

		// remove zoom state
		var params = get_params();
		if (params.x) delete params.x;
		if (params.y) delete params.y;
		history.replaceState(null, null, parse_params(params));
	}

	// search
	function toggle_ignorecase() {
		ignorecase = !ignorecase;
		if (ignorecase) {
			ignorecaseBtn.classList.add("show");
		} else {
			ignorecaseBtn.classList.remove("show");
		}
		reset_search();
		search();
	}
	function reset_search() {
		var el = document.querySelectorAll("#frames rect");
		for (var i = 0; i < el.length; i++) {
			orig_load(el[i], "fill")
		}
		var params = get_params();
		delete params.s;
		history.replaceState(null, null, parse_params(params));
	}
	function search_prompt() {
		if (!searching) {
			var term = prompt("Enter a search term (regexp " +
			    "allowed, eg: ^ext4_)"
			    + (ignorecase ? ", ignoring case" : "")
			    + "\nPress Ctrl-i to toggle case sensitivity", "");
			if (term != null) search(term);
		} else {
			reset_search();
			searching = 0;
			currentSearchTerm = null;
			searchbtn.classList.remove("show");
			searchbtn.firstChild.nodeValue = "Search"
			matchedtxt.classList.add("hide");
			matchedtxt.firstChild.nodeValue = ""
		}
	}
	function search(term) {
		if (term) currentSearchTerm = term;

		var re = new RegExp(currentSearchTerm, ignorecase ? 'i' : '');
		var el = document.getElementById("frames").children;
		var matches = new Object();
		var maxwidth = 0;
		for (var i = 0; i < el.length; i++) {
			var e = el[i];
			var func = g_to_func(e);
			var rect = find_child(e, "rect");
			if (func == null || rect == null)
				continue;

			// Save max width. Only works as we have a root frame
			var w = parseFloat(rect.attributes.width.value);
			if (w > maxwidth)
				maxwidth = w;

			if (func.match(re)) {
				// highlight
				var x = parseFloat(rect.attributes.x.value);
				orig_save(rect, "fill");
				rect.attributes.fill.value = "rgb(230,0,230)";

				// remember matches
				if (matches[x] == undefined) {
					matches[x] = w;
				} else {
					if (w > matches[x]) {
						// overwrite with parent
						matches[x] = w;
					}
				}
				searching = 1;
			}
		}
		if (!searching)
			return;
		var params = get_params();
		params.s = currentSearchTerm;
		history.replaceState(null, null, parse_params(params));

		searchbtn.classList.add("show");
		searchbtn.firstChild.nodeValue = "Reset Search";

		// calculate percent matched, excluding vertical overlap
		var count = 0;
		var lastx = -1;
		var lastw = 0;
		var keys = Array();
		for (k in matches) {
			if (matches.hasOwnProperty(k))
				keys.push(k);
		}
		// sort the matched frames by their x location
		// ascending, then width descending
		keys.sort(function(a, b){
			return a - b;
		});
		// Step through frames saving only the biggest bottom-up frames
		// thanks to the sort order. This relies on the tree property
		// where children are always smaller than their parents.
		var fudge = 0.0001;	// JavaScript floating point
		for (var k in keys) {
			var x = parseFloat(keys[k]);
			var w = matches[keys[k]];
			if (x >= lastx + lastw - fudge) {
				count += w;
				lastx = x;
				lastw = w;
			}
		}
		// display matched percent
		matchedtxt.classList.remove("hide");
		var pct = 100 * count / maxwidth;
		if (pct != 100) pct = pct.toFixed(1)
		matchedtxt.firstChild.nodeValue = "Matched: " + pct + "%";
	}
]]>
</script>
<rect x="0.0" y="0" width="1200.0" height="358.0" fill="url(#background)"  />
<text id="title" x="600.00" y="24" >Flame Graph</text>
<text id="details" x="10.00" y="341" > </text>
<text id="unzoom" x="10.00" y="24" class="hide">Reset Zoom</text>
<text id="search" x="1090.00" y="24" >Search</text>
<text id="ignorecase" x="1174.00" y="24" >ic</text>
<text id="matched" x="1090.00" y="341" > </text>
<g id="frames">
<g >
<title>w2c_decode__webp__wasmsimd_ReconstructRow (5,543,007 samples, 0.14%)</title><rect x="258.5" y="277" width="1.7" height="15.0" fill="rgb(217,55,13)" rx="2" ry="2" />
<text  x="261.54" y="287.5" ></text>
</g>
<g >
<title>w2c_decode__webp__wasmsimd_ReconstructRow (15,686,660 samples, 0.41%)</title><rect x="15.7" y="181" width="4.8" height="15.0" fill="rgb(217,55,13)" rx="2" ry="2" />
<text  x="18.68" y="191.5" ></text>
</g>
<g >
<title>__folio_mark_dirty (924,007 samples, 0.02%)</title><rect x="24.0" y="101" width="0.3" height="15.0" fill="rgb(239,159,38)" rx="2" ry="2" />
<text  x="27.05" y="111.5" ></text>
</g>
<g >
<title>__memmove_avx_unaligned_erms (5,527,281 samples, 0.14%)</title><rect x="59.9" y="277" width="1.7" height="15.0" fill="rgb(205,0,0)" rx="2" ry="2" />
<text  x="62.93" y="287.5" ></text>
</g>
<g >
<title>w2c_decode__webp__wasmsimd_TransformUV_C (48,870,838 samples, 1.27%)</title><rect x="44.9" y="261" width="15.0" height="15.0" fill="rgb(228,108,25)" rx="2" ry="2" />
<text  x="47.89" y="271.5" ></text>
</g>
<g >
<title>__gettimeofday (407,881 samples, 0.01%)</title><rect x="23.6" y="261" width="0.2" height="15.0" fill="rgb(254,228,54)" rx="2" ry="2" />
<text  x="26.64" y="271.5" ></text>
</g>
<g >
<title>proc_pid_make_inode (398,969 samples, 0.01%)</title><rect x="62.5" y="85" width="0.1" height="15.0" fill="rgb(229,112,26)" rx="2" ry="2" />
<text  x="65.48" y="95.5" ></text>
</g>
<g >
<title>filename_lookup (398,969 samples, 0.01%)</title><rect x="62.5" y="181" width="0.1" height="15.0" fill="rgb(216,52,12)" rx="2" ry="2" />
<text  x="65.48" y="191.5" ></text>
</g>
<g >
<title>_dl_get_origin (398,969 samples, 0.01%)</title><rect x="62.5" y="277" width="0.1" height="15.0" fill="rgb(225,94,22)" rx="2" ry="2" />
<text  x="65.48" y="287.5" ></text>
</g>
<g >
<title>w2c_decode__webp__wasmsimd_DC8uvNoTop_C (923,561 samples, 0.02%)</title><rect x="12.6" y="181" width="0.2" height="15.0" fill="rgb(252,219,52)" rx="2" ry="2" />
<text  x="15.56" y="191.5" ></text>
</g>
<g >
<title>__filemap_get_folio (924,218 samples, 0.02%)</title><rect x="23.8" y="117" width="0.2" height="15.0" fill="rgb(231,120,28)" rx="2" ry="2" />
<text  x="26.76" y="127.5" ></text>
</g>
<g >
<title>w2c_decode__webp__wasmsimd_ReconstructRow (2,770,942 samples, 0.07%)</title><rect x="26.4" y="261" width="0.9" height="15.0" fill="rgb(217,55,13)" rx="2" ry="2" />
<text  x="29.42" y="271.5" ></text>
</g>
<g >
<title>handle_mm_fault (407,881 samples, 0.01%)</title><rect x="23.6" y="181" width="0.2" height="15.0" fill="rgb(234,135,32)" rx="2" ry="2" />
<text  x="26.64" y="191.5" ></text>
</g>
<g >
<title>walk_system_ram_range (407,881 samples, 0.01%)</title><rect x="23.6" y="53" width="0.2" height="15.0" fill="rgb(206,6,1)" rx="2" ry="2" />
<text  x="26.64" y="63.5" ></text>
</g>
<g >
<title>w2c_decode__webp__wasmsimd_VL4_C (923,023 samples, 0.02%)</title><rect x="22.8" y="181" width="0.3" height="15.0" fill="rgb(226,98,23)" rx="2" ry="2" />
<text  x="25.78" y="191.5" ></text>
</g>
<g >
<title>__filemap_add_folio (924,218 samples, 0.02%)</title><rect x="23.8" y="85" width="0.2" height="15.0" fill="rgb(229,113,27)" rx="2" ry="2" />
<text  x="26.76" y="95.5" ></text>
</g>
<g >
<title>__lookup_slow (398,969 samples, 0.01%)</title><rect x="62.5" y="133" width="0.1" height="15.0" fill="rgb(243,178,42)" rx="2" ry="2" />
<text  x="65.48" y="143.5" ></text>
</g>
<g >
<title>entry_SYSCALL_64_after_hwframe (398,969 samples, 0.01%)</title><rect x="62.5" y="261" width="0.1" height="15.0" fill="rgb(218,63,15)" rx="2" ry="2" />
<text  x="65.48" y="271.5" ></text>
</g>
<g >
<title>asm_exc_page_fault (407,881 samples, 0.01%)</title><rect x="23.6" y="229" width="0.2" height="15.0" fill="rgb(225,93,22)" rx="2" ry="2" />
<text  x="26.64" y="239.5" ></text>
</g>
<g >
<title>w2c_decode__webp__wasmsimd_TransformTwo_C (30,462,434 samples, 0.79%)</title><rect x="1109.6" y="277" width="9.4" height="15.0" fill="rgb(254,228,54)" rx="2" ry="2" />
<text  x="1112.59" y="287.5" ></text>
</g>
<g >
<title>w2c_decode__webp__wasmsimd_GetCoeffsFast (924,031 samples, 0.02%)</title><rect x="25.0" y="261" width="0.3" height="15.0" fill="rgb(210,26,6)" rx="2" ry="2" />
<text  x="28.00" y="271.5" ></text>
</g>
<g >
<title>w2c_decode__webp__wasmsimd_TM8uv_C (923,214 samples, 0.02%)</title><rect x="263.9" y="277" width="0.3" height="15.0" fill="rgb(238,156,37)" rx="2" ry="2" />
<text  x="266.93" y="287.5" ></text>
</g>
<g >
<title>vmf_insert_pfn_prot (407,881 samples, 0.01%)</title><rect x="23.6" y="117" width="0.2" height="15.0" fill="rgb(207,13,3)" rx="2" ry="2" />
<text  x="26.64" y="127.5" ></text>
</g>
<g >
<title>proc_pident_instantiate (398,969 samples, 0.01%)</title><rect x="62.5" y="101" width="0.1" height="15.0" fill="rgb(235,138,33)" rx="2" ry="2" />
<text  x="65.48" y="111.5" ></text>
</g>
<g >
<title>walk_component (398,969 samples, 0.01%)</title><rect x="62.5" y="149" width="0.1" height="15.0" fill="rgb(241,167,40)" rx="2" ry="2" />
<text  x="65.48" y="159.5" ></text>
</g>
<g >
<title>__x64_sys_readlink (398,969 samples, 0.01%)</title><rect x="62.5" y="229" width="0.1" height="15.0" fill="rgb(242,171,40)" rx="2" ry="2" />
<text  x="65.48" y="239.5" ></text>
</g>
<g >
<title>w2c_decode__webp__wasmsimd_IDecode (3,695,778 samples, 0.10%)</title><rect x="25.3" y="261" width="1.1" height="15.0" fill="rgb(237,147,35)" rx="2" ry="2" />
<text  x="28.28" y="271.5" ></text>
</g>
<g >
<title>__vdso_gettimeofday (407,881 samples, 0.01%)</title><rect x="23.6" y="245" width="0.2" height="15.0" fill="rgb(222,81,19)" rx="2" ry="2" />
<text  x="26.64" y="255.5" ></text>
</g>
<g >
<title>do_user_addr_fault (407,881 samples, 0.01%)</title><rect x="23.6" y="197" width="0.2" height="15.0" fill="rgb(228,108,25)" rx="2" ry="2" />
<text  x="26.64" y="207.5" ></text>
</g>
<g >
<title>w2c_decode__webp__wasmsimd_GetCoeffsFast (252,065,589 samples, 6.57%)</title><rect x="137.8" y="277" width="77.6" height="15.0" fill="rgb(210,26,6)" rx="2" ry="2" />
<text  x="140.84" y="287.5" >w2c_deco..</text>
</g>
<g >
<title>w2c_decode__webp__wasmsimd_GetLargeValue (49,715,786 samples, 1.30%)</title><rect x="215.4" y="277" width="15.3" height="15.0" fill="rgb(234,137,32)" rx="2" ry="2" />
<text  x="218.40" y="287.5" ></text>
</g>
<g >
<title>w2c_decode__webp__wasmsimd_TM4_C (3,696,190 samples, 0.10%)</title><rect x="20.5" y="181" width="1.1" height="15.0" fill="rgb(232,128,30)" rx="2" ry="2" />
<text  x="23.51" y="191.5" ></text>
</g>
<g >
<title>w2c_decode__webp__wasmsimd_UpsampleRgbLinePair_C (218,737,979 samples, 5.70%)</title><rect x="1119.0" y="277" width="67.3" height="15.0" fill="rgb(220,71,16)" rx="2" ry="2" />
<text  x="1121.96" y="287.5" >w2c_dec..</text>
</g>
<g >
<title>__libc_write (1,848,225 samples, 0.05%)</title><rect x="23.8" y="261" width="0.5" height="15.0" fill="rgb(238,154,37)" rx="2" ry="2" />
<text  x="26.76" y="271.5" ></text>
</g>
<g >
<title>w2c_decode__webp__wasmsimd_DecodeImageData (24,897,189 samples, 0.65%)</title><rect x="64.9" y="277" width="7.6" height="15.0" fill="rgb(246,191,45)" rx="2" ry="2" />
<text  x="67.88" y="287.5" ></text>
</g>
<g >
<title>do_syscall_64 (398,969 samples, 0.01%)</title><rect x="62.5" y="245" width="0.1" height="15.0" fill="rgb(209,20,4)" rx="2" ry="2" />
<text  x="65.48" y="255.5" ></text>
</g>
<g >
<title>w2c_decode__webp__wasmsimd_GetCoeffsFast (924,018 samples, 0.02%)</title><rect x="13.1" y="181" width="0.3" height="15.0" fill="rgb(210,26,6)" rx="2" ry="2" />
<text  x="16.13" y="191.5" ></text>
</g>
<g >
<title>w2c_decode__webp__wasmsimd_TransformOne_C (40,641,020 samples, 1.06%)</title><rect x="27.3" y="261" width="12.5" height="15.0" fill="rgb(209,22,5)" rx="2" ry="2" />
<text  x="30.27" y="271.5" ></text>
</g>
<g >
<title>w2c_decode__webp__wasmsimd_HU4_C (924,222 samples, 0.02%)</title><rect x="14.5" y="181" width="0.3" height="15.0" fill="rgb(208,17,4)" rx="2" ry="2" />
<text  x="17.55" y="191.5" ></text>
</g>
<g >
<title>w2c_decode__webp__wasmsimd_VP8LDoFillBitWindow (1,847,039 samples, 0.05%)</title><rect x="1186.8" y="277" width="0.6" height="15.0" fill="rgb(211,29,7)" rx="2" ry="2" />
<text  x="1189.83" y="287.5" ></text>
</g>
<g >
<title>w2c_decode__webp__wasmsimd_DC8uv_C (1,847,811 samples, 0.05%)</title><rect x="64.3" y="277" width="0.6" height="15.0" fill="rgb(206,8,2)" rx="2" ry="2" />
<text  x="67.31" y="287.5" ></text>
</g>
<g >
<title>__do_fault (407,881 samples, 0.01%)</title><rect x="23.6" y="133" width="0.2" height="15.0" fill="rgb(221,74,17)" rx="2" ry="2" />
<text  x="26.64" y="143.5" ></text>
</g>
<g >
<title>lookup_memtype (407,881 samples, 0.01%)</title><rect x="23.6" y="85" width="0.2" height="15.0" fill="rgb(229,114,27)" rx="2" ry="2" />
<text  x="26.64" y="95.5" ></text>
</g>
<g >
<title>w2c_decode__webp__wasmsimd_HE4_C (1,846,477 samples, 0.05%)</title><rect x="14.0" y="181" width="0.5" height="15.0" fill="rgb(212,32,7)" rx="2" ry="2" />
<text  x="16.98" y="191.5" ></text>
</g>
<g >
<title>decode_webp_was (3,835,127,704 samples, 100.00%)</title><rect x="10.0" y="293" width="1180.0" height="15.0" fill="rgb(216,54,12)" rx="2" ry="2" />
<text  x="13.00" y="303.5" >decode_webp_was</text>
</g>
<g >
<title>filemap_add_folio (924,218 samples, 0.02%)</title><rect x="23.8" y="101" width="0.2" height="15.0" fill="rgb(207,9,2)" rx="2" ry="2" />
<text  x="26.76" y="111.5" ></text>
</g>
<g >
<title>[unknown] (44,323,425 samples, 1.16%)</title><rect x="10.0" y="245" width="13.6" height="15.0" fill="rgb(210,24,5)" rx="2" ry="2" />
<text  x="13.00" y="255.5" ></text>
</g>
<g >
<title>try_charge_memcg (924,218 samples, 0.02%)</title><rect x="23.8" y="37" width="0.2" height="15.0" fill="rgb(210,27,6)" rx="2" ry="2" />
<text  x="26.76" y="47.5" ></text>
</g>
<g >
<title>path_lookupat (398,969 samples, 0.01%)</title><rect x="62.5" y="165" width="0.1" height="15.0" fill="rgb(250,208,49)" rx="2" ry="2" />
<text  x="65.48" y="175.5" ></text>
</g>
<g >
<title>pagecache_get_page (924,218 samples, 0.02%)</title><rect x="23.8" y="133" width="0.2" height="15.0" fill="rgb(253,221,53)" rx="2" ry="2" />
<text  x="26.76" y="143.5" ></text>
</g>
<g >
<title>do_fault (407,881 samples, 0.01%)</title><rect x="23.6" y="149" width="0.2" height="15.0" fill="rgb(248,200,47)" rx="2" ry="2" />
<text  x="26.64" y="159.5" ></text>
</g>
<g >
<title>w2c_decode__webp__wasmsimd_IDecode (2,771,486 samples, 0.07%)</title><rect x="14.8" y="181" width="0.9" height="15.0" fill="rgb(237,147,35)" rx="2" ry="2" />
<text  x="17.83" y="191.5" ></text>
</g>
<g >
<title>w2c_decode__webp__wasmsimd_FilterLoop26_C (82,160,025 samples, 2.14%)</title><rect x="110.0" y="277" width="25.3" height="15.0" fill="rgb(222,78,18)" rx="2" ry="2" />
<text  x="113.02" y="287.5" >w..</text>
</g>
<g >
<title>w2c_decode__webp__wasmsimd_HFilter16i_C (923,804 samples, 0.02%)</title><rect x="231.0" y="277" width="0.3" height="15.0" fill="rgb(233,131,31)" rx="2" ry="2" />
<text  x="233.98" y="287.5" ></text>
</g>
<g >
<title>w2c_decode__webp__wasmsimd_FinishRow (8,272,809 samples, 0.22%)</title><rect x="135.3" y="277" width="2.5" height="15.0" fill="rgb(205,3,0)" rx="2" ry="2" />
<text  x="138.30" y="287.5" ></text>
</g>
<g >
<title>generic_perform_write (1,848,225 samples, 0.05%)</title><rect x="23.8" y="165" width="0.5" height="15.0" fill="rgb(236,146,35)" rx="2" ry="2" />
<text  x="26.76" y="175.5" ></text>
</g>
<g >
<title>w2c_decode__webp__wasmsimd_HFilter16_C (923,350 samples, 0.02%)</title><rect x="230.7" y="277" width="0.3" height="15.0" fill="rgb(211,32,7)" rx="2" ry="2" />
<text  x="233.69" y="287.5" ></text>
</g>
<g >
<title>entry_SYSCALL_64_after_hwframe (1,848,225 samples, 0.05%)</title><rect x="23.8" y="245" width="0.5" height="15.0" fill="rgb(218,63,15)" rx="2" ry="2" />
<text  x="26.76" y="255.5" ></text>
</g>
<g >
<title>w2c_decode__webp__wasmsimd_VR4_C (1,846,682 samples, 0.05%)</title><rect x="23.1" y="181" width="0.5" height="15.0" fill="rgb(237,150,35)" rx="2" ry="2" />
<text  x="26.07" y="191.5" ></text>
</g>
<g >
<title>ext4_buffered_write_iter (1,848,225 samples, 0.05%)</title><rect x="23.8" y="181" width="0.5" height="15.0" fill="rgb(213,40,9)" rx="2" ry="2" />
<text  x="26.76" y="191.5" ></text>
</g>
<g >
<title>do_readlinkat (398,969 samples, 0.01%)</title><rect x="62.5" y="213" width="0.1" height="15.0" fill="rgb(221,76,18)" rx="2" ry="2" />
<text  x="65.48" y="223.5" ></text>
</g>
<g >
<title>pat_pagerange_is_ram (407,881 samples, 0.01%)</title><rect x="23.6" y="69" width="0.2" height="15.0" fill="rgb(225,93,22)" rx="2" ry="2" />
<text  x="26.64" y="79.5" ></text>
</g>
<g >
<title>__block_commit_write.constprop.0.isra.0 (924,007 samples, 0.02%)</title><rect x="24.0" y="133" width="0.3" height="15.0" fill="rgb(249,205,49)" rx="2" ry="2" />
<text  x="27.05" y="143.5" ></text>
</g>
<g >
<title>proc_pident_lookup (398,969 samples, 0.01%)</title><rect x="62.5" y="117" width="0.1" height="15.0" fill="rgb(207,10,2)" rx="2" ry="2" />
<text  x="65.48" y="127.5" ></text>
</g>
<g >
<title>charge_memcg (924,218 samples, 0.02%)</title><rect x="23.8" y="53" width="0.2" height="15.0" fill="rgb(242,170,40)" rx="2" ry="2" />
<text  x="26.76" y="63.5" ></text>
</g>
<g >
<title>__handle_mm_fault (407,881 samples, 0.01%)</title><rect x="23.6" y="165" width="0.2" height="15.0" fill="rgb(207,9,2)" rx="2" ry="2" />
<text  x="26.64" y="175.5" ></text>
</g>
<g >
<title>mark_buffer_dirty (924,007 samples, 0.02%)</title><rect x="24.0" y="117" width="0.3" height="15.0" fill="rgb(240,163,39)" rx="2" ry="2" />
<text  x="27.05" y="127.5" ></text>
</g>
<g >
<title>__memset_avx2_unaligned_erms (2,771,015 samples, 0.07%)</title><rect x="61.6" y="277" width="0.9" height="15.0" fill="rgb(223,84,20)" rx="2" ry="2" />
<text  x="64.63" y="287.5" ></text>
</g>
<g >
<title>w2c_decode__webp__wasmsimd_FilterLoop24_C (121,834,773 samples, 3.18%)</title><rect x="72.5" y="277" width="37.5" height="15.0" fill="rgb(234,137,32)" rx="2" ry="2" />
<text  x="75.54" y="287.5" >w2c..</text>
</g>
<g >
<title>w2c_decode__webp__wasmsimd_ExtractGreen_C (1,847,692 samples, 0.05%)</title><rect x="24.4" y="261" width="0.6" height="15.0" fill="rgb(226,96,23)" rx="2" ry="2" />
<text  x="27.43" y="271.5" ></text>
</g>
<g >
<title>w2c_decode__webp__wasmsimd_TransformTwo_C (16,624,747 samples, 0.43%)</title><rect x="39.8" y="261" width="5.1" height="15.0" fill="rgb(254,228,54)" rx="2" ry="2" />
<text  x="42.78" y="271.5" ></text>
</g>
<g >
<title>w2c_decode__webp__wasmsimd_HD4_C (1,846,748 samples, 0.05%)</title><rect x="13.4" y="181" width="0.6" height="15.0" fill="rgb(218,62,14)" rx="2" ry="2" />
<text  x="16.41" y="191.5" ></text>
</g>
<g >
<title>w2c_decode__webp__wasmsimd_memcpy (923,209 samples, 0.02%)</title><rect x="1189.7" y="277" width="0.3" height="15.0" fill="rgb(249,206,49)" rx="2" ry="2" />
<text  x="1192.67" y="287.5" ></text>
</g>
<g >
<title>track_pfn_insert (407,881 samples, 0.01%)</title><rect x="23.6" y="101" width="0.2" height="15.0" fill="rgb(230,115,27)" rx="2" ry="2" />
<text  x="26.64" y="111.5" ></text>
</g>
<g >
<title>generic_write_end (924,007 samples, 0.02%)</title><rect x="24.0" y="149" width="0.3" height="15.0" fill="rgb(206,8,1)" rx="2" ry="2" />
<text  x="27.05" y="159.5" ></text>
</g>
<g >
<title>w2c_decode__webp__wasmsimd_VP8LReadBits (5,539,801 samples, 0.14%)</title><rect x="1187.4" y="277" width="1.7" height="15.0" fill="rgb(228,108,26)" rx="2" ry="2" />
<text  x="1190.40" y="287.5" ></text>
</g>
<g >
<title>[unknown] (162,271,662 samples, 4.23%)</title><rect x="10.0" y="277" width="49.9" height="15.0" fill="rgb(210,24,5)" rx="2" ry="2" />
<text  x="13.00" y="287.5" >[unkn..</text>
</g>
<g >
<title>w2c_decode__webp__wasmsimd_DC4_C (7,390,428 samples, 0.19%)</title><rect x="10.3" y="181" width="2.3" height="15.0" fill="rgb(250,210,50)" rx="2" ry="2" />
<text  x="13.28" y="191.5" ></text>
</g>
<g >
<title>w2c_decode__webp__wasmsimd_IDecode (87,725,327 samples, 2.29%)</title><rect x="231.3" y="277" width="27.0" height="15.0" fill="rgb(237,147,35)" rx="2" ry="2" />
<text  x="234.26" y="287.5" >w..</text>
</g>
<g >
<title>vfs_write (1,848,225 samples, 0.05%)</title><rect x="23.8" y="197" width="0.5" height="15.0" fill="rgb(250,209,50)" rx="2" ry="2" />
<text  x="26.76" y="207.5" ></text>
</g>
<g >
<title>w2c_decode__webp__wasmsimd_TransformDC_C (1,848,004 samples, 0.05%)</title><rect x="21.6" y="181" width="0.6" height="15.0" fill="rgb(211,27,6)" rx="2" ry="2" />
<text  x="24.65" y="191.5" ></text>
</g>
<g >
<title>w2c_decode__webp__wasmsimd_TM16_C (11,997,157 samples, 0.31%)</title><rect x="260.2" y="277" width="3.7" height="15.0" fill="rgb(253,222,53)" rx="2" ry="2" />
<text  x="263.24" y="287.5" ></text>
</g>
<g >
<title>w2c_decode__webp__wasmsimd_TransformAC3_C (5,542,860 samples, 0.14%)</title><rect x="264.2" y="277" width="1.7" height="15.0" fill="rgb(251,211,50)" rx="2" ry="2" />
<text  x="267.22" y="287.5" ></text>
</g>
<g >
<title>new_inode (398,969 samples, 0.01%)</title><rect x="62.5" y="69" width="0.1" height="15.0" fill="rgb(213,40,9)" rx="2" ry="2" />
<text  x="65.48" y="79.5" ></text>
</g>
<g >
<title>user_path_at_empty (398,969 samples, 0.01%)</title><rect x="62.5" y="197" width="0.1" height="15.0" fill="rgb(226,99,23)" rx="2" ry="2" />
<text  x="65.48" y="207.5" ></text>
</g>
<g >
<title>do_syscall_64 (1,848,225 samples, 0.05%)</title><rect x="23.8" y="229" width="0.5" height="15.0" fill="rgb(209,20,4)" rx="2" ry="2" />
<text  x="26.76" y="239.5" ></text>
</g>
<g >
<title>w2c_decode__webp__wasmsimd_DC16NoTop_C (923,354 samples, 0.02%)</title><rect x="10.0" y="181" width="0.3" height="15.0" fill="rgb(217,56,13)" rx="2" ry="2" />
<text  x="13.00" y="191.5" ></text>
</g>
<g >
<title>w2c_decode__webp__wasmsimd_VP8GetValue (1,847,306 samples, 0.05%)</title><rect x="1186.3" y="277" width="0.5" height="15.0" fill="rgb(222,81,19)" rx="2" ry="2" />
<text  x="1189.26" y="287.5" ></text>
</g>
<g >
<title>w2c_decode__webp__wasmsimd_ReadHuffmanCode (924,023 samples, 0.02%)</title><rect x="258.3" y="277" width="0.2" height="15.0" fill="rgb(222,79,18)" rx="2" ry="2" />
<text  x="261.25" y="287.5" ></text>
</g>
<g >
<title>w2c_decode__webp__wasmsimd_FilterLoop26_C (924,175 samples, 0.02%)</title><rect x="12.8" y="181" width="0.3" height="15.0" fill="rgb(222,78,18)" rx="2" ry="2" />
<text  x="15.84" y="191.5" ></text>
</g>
<g >
<title>w2c_decode__webp__wasmsimd_VP8ParseProba (1,847,595 samples, 0.05%)</title><rect x="1189.1" y="277" width="0.6" height="15.0" fill="rgb(216,51,12)" rx="2" ry="2" />
<text  x="1192.10" y="287.5" ></text>
</g>
<g >
<title>find_next_iomem_res (407,881 samples, 0.01%)</title><rect x="23.6" y="37" width="0.2" height="15.0" fill="rgb(253,222,53)" rx="2" ry="2" />
<text  x="26.64" y="47.5" ></text>
</g>
<g >
<title>ksys_write (1,848,225 samples, 0.05%)</title><rect x="23.8" y="213" width="0.5" height="15.0" fill="rgb(205,4,1)" rx="2" ry="2" />
<text  x="26.76" y="223.5" ></text>
</g>
<g >
<title>__mem_cgroup_charge (924,218 samples, 0.02%)</title><rect x="23.8" y="69" width="0.2" height="15.0" fill="rgb(218,60,14)" rx="2" ry="2" />
<text  x="26.76" y="79.5" ></text>
</g>
<g >
<title>[unknown] (44,323,425 samples, 1.16%)</title><rect x="10.0" y="213" width="13.6" height="15.0" fill="rgb(210,24,5)" rx="2" ry="2" />
<text  x="13.00" y="223.5" ></text>
</g>
<g >
<title>w2c_decode__webp__wasmsimd_TransformOne_C (2,742,116,589 samples, 71.50%)</title><rect x="265.9" y="277" width="843.7" height="15.0" fill="rgb(209,22,5)" rx="2" ry="2" />
<text  x="268.92" y="287.5" >w2c_decode__webp__wasmsimd_TransformOne_C</text>
</g>
<g >
<title>w2c_decode__webp__wasmsimd_VE8uv_C (1,848,397 samples, 0.05%)</title><rect x="22.2" y="181" width="0.6" height="15.0" fill="rgb(227,104,24)" rx="2" ry="2" />
<text  x="25.22" y="191.5" ></text>
</g>
<g >
<title>w2c_decode__webp__wasmsimd_BuildHuffmanTable (5,540,101 samples, 0.14%)</title><rect x="62.6" y="277" width="1.7" height="15.0" fill="rgb(218,63,15)" rx="2" ry="2" />
<text  x="65.60" y="287.5" ></text>
</g>
<g >
<title>[unknown] (44,323,425 samples, 1.16%)</title><rect x="10.0" y="197" width="13.6" height="15.0" fill="rgb(210,24,5)" rx="2" ry="2" />
<text  x="13.00" y="207.5" ></text>
</g>
<g >
<title>[unknown] (44,323,425 samples, 1.16%)</title><rect x="10.0" y="261" width="13.6" height="15.0" fill="rgb(210,24,5)" rx="2" ry="2" />
<text  x="13.00" y="271.5" ></text>
</g>
<g >
<title>[unknown] (44,323,425 samples, 1.16%)</title><rect x="10.0" y="229" width="13.6" height="15.0" fill="rgb(210,24,5)" rx="2" ry="2" />
<text  x="13.00" y="239.5" ></text>
</g>
<g >
<title>asm_exc_page_fault (921,472 samples, 0.02%)</title><rect x="1186.0" y="261" width="0.3" height="15.0" fill="rgb(225,93,22)" rx="2" ry="2" />
<text  x="1188.98" y="271.5" ></text>
</g>
<g >
<title>ext4_da_write_begin (924,218 samples, 0.02%)</title><rect x="23.8" y="149" width="0.2" height="15.0" fill="rgb(211,32,7)" rx="2" ry="2" />
<text  x="26.76" y="159.5" ></text>
</g>
<g >
<title>exc_page_fault (407,881 samples, 0.01%)</title><rect x="23.6" y="213" width="0.2" height="15.0" fill="rgb(212,35,8)" rx="2" ry="2" />
<text  x="26.64" y="223.5" ></text>
</g>
<g >
<title>all (3,835,270,576 samples, 100%)</title><rect x="10.0" y="309" width="1180.0" height="15.0" fill="rgb(213,39,9)" rx="2" ry="2" />
<text  x="13.00" y="319.5" ></text>
</g>
</g>
</svg>
