<?xml version="1.0" standalone="no"?>
<!DOCTYPE svg PUBLIC "-//W3C//DTD SVG 1.1//EN" "http://www.w3.org/Graphics/SVG/1.1/DTD/svg11.dtd">
<svg version="1.1" width="1200" height="342" onload="init(evt)" viewBox="0 0 1200 342" xmlns="http://www.w3.org/2000/svg" xmlns:xlink="http://www.w3.org/1999/xlink">
<!-- Flame graph stack visualization. See https://github.com/brendangregg/FlameGraph for latest version, and http://www.brendangregg.com/flamegraphs.html for examples. -->
<!-- NOTES:  -->
<defs>
	<linearGradient id="background" y1="0" y2="1" x1="0" x2="0" >
		<stop stop-color="#eeeeee" offset="5%" />
		<stop stop-color="#eeeeb0" offset="95%" />
	</linearGradient>
</defs>
<style type="text/css">
	text { font-family:Verdana; font-size:12px; fill:rgb(0,0,0); }
	#search, #ignorecase { opacity:0.1; cursor:pointer; }
	#search:hover, #search.show, #ignorecase:hover, #ignorecase.show { opacity:1; }
	#subtitle { text-anchor:middle; font-color:rgb(160,160,160); }
	#title { text-anchor:middle; font-size:17px}
	#unzoom { cursor:pointer; }
	#frames > *:hover { stroke:black; stroke-width:0.5; cursor:pointer; }
	.hide { display:none; }
	.parent { opacity:0.5; }
</style>
<script type="text/ecmascript">
<![CDATA[
	"use strict";
	var details, searchbtn, unzoombtn, matchedtxt, svg, searching, currentSearchTerm, ignorecase, ignorecaseBtn;
	function init(evt) {
		details = document.getElementById("details").firstChild;
		searchbtn = document.getElementById("search");
		ignorecaseBtn = document.getElementById("ignorecase");
		unzoombtn = document.getElementById("unzoom");
		matchedtxt = document.getElementById("matched");
		svg = document.getElementsByTagName("svg")[0];
		searching = 0;
		currentSearchTerm = null;

		// use GET parameters to restore a flamegraphs state.
		var params = get_params();
		if (params.x && params.y)
			zoom(find_group(document.querySelector('[x="' + params.x + '"][y="' + params.y + '"]')));
                if (params.s) search(params.s);
	}

	// event listeners
	window.addEventListener("click", function(e) {
		var target = find_group(e.target);
		if (target) {
			if (target.nodeName == "a") {
				if (e.ctrlKey === false) return;
				e.preventDefault();
			}
			if (target.classList.contains("parent")) unzoom(true);
			zoom(target);
			if (!document.querySelector('.parent')) {
				// we have basically done a clearzoom so clear the url
				var params = get_params();
				if (params.x) delete params.x;
				if (params.y) delete params.y;
				history.replaceState(null, null, parse_params(params));
				unzoombtn.classList.add("hide");
				return;
			}

			// set parameters for zoom state
			var el = target.querySelector("rect");
			if (el && el.attributes && el.attributes.y && el.attributes._orig_x) {
				var params = get_params()
				params.x = el.attributes._orig_x.value;
				params.y = el.attributes.y.value;
				history.replaceState(null, null, parse_params(params));
			}
		}
		else if (e.target.id == "unzoom") clearzoom();
		else if (e.target.id == "search") search_prompt();
		else if (e.target.id == "ignorecase") toggle_ignorecase();
	}, false)

	// mouse-over for info
	// show
	window.addEventListener("mouseover", function(e) {
		var target = find_group(e.target);
		if (target) details.nodeValue = "Function: " + g_to_text(target);
	}, false)

	// clear
	window.addEventListener("mouseout", function(e) {
		var target = find_group(e.target);
		if (target) details.nodeValue = ' ';
	}, false)

	// ctrl-F for search
	// ctrl-I to toggle case-sensitive search
	window.addEventListener("keydown",function (e) {
		if (e.keyCode === 114 || (e.ctrlKey && e.keyCode === 70)) {
			e.preventDefault();
			search_prompt();
		}
		else if (e.ctrlKey && e.keyCode === 73) {
			e.preventDefault();
			toggle_ignorecase();
		}
	}, false)

	// functions
	function get_params() {
		var params = {};
		var paramsarr = window.location.search.substr(1).split('&');
		for (var i = 0; i < paramsarr.length; ++i) {
			var tmp = paramsarr[i].split("=");
			if (!tmp[0] || !tmp[1]) continue;
			params[tmp[0]]  = decodeURIComponent(tmp[1]);
		}
		return params;
	}
	function parse_params(params) {
		var uri = "?";
		for (var key in params) {
			uri += key + '=' + encodeURIComponent(params[key]) + '&';
		}
		if (uri.slice(-1) == "&")
			uri = uri.substring(0, uri.length - 1);
		if (uri == '?')
			uri = window.location.href.split('?')[0];
		return uri;
	}
	function find_child(node, selector) {
		var children = node.querySelectorAll(selector);
		if (children.length) return children[0];
	}
	function find_group(node) {
		var parent = node.parentElement;
		if (!parent) return;
		if (parent.id == "frames") return node;
		return find_group(parent);
	}
	function orig_save(e, attr, val) {
		if (e.attributes["_orig_" + attr] != undefined) return;
		if (e.attributes[attr] == undefined) return;
		if (val == undefined) val = e.attributes[attr].value;
		e.setAttribute("_orig_" + attr, val);
	}
	function orig_load(e, attr) {
		if (e.attributes["_orig_"+attr] == undefined) return;
		e.attributes[attr].value = e.attributes["_orig_" + attr].value;
		e.removeAttribute("_orig_"+attr);
	}
	function g_to_text(e) {
		var text = find_child(e, "title").firstChild.nodeValue;
		return (text)
	}
	function g_to_func(e) {
		var func = g_to_text(e);
		// if there's any manipulation we want to do to the function
		// name before it's searched, do it here before returning.
		return (func);
	}
	function update_text(e) {
		var r = find_child(e, "rect");
		var t = find_child(e, "text");
		var w = parseFloat(r.attributes.width.value) -3;
		var txt = find_child(e, "title").textContent.replace(/\([^(]*\)$/,"");
		t.attributes.x.value = parseFloat(r.attributes.x.value) + 3;

		// Smaller than this size won't fit anything
		if (w < 2 * 12 * 0.59) {
			t.textContent = "";
			return;
		}

		t.textContent = txt;
		var sl = t.getSubStringLength(0, txt.length);
		// check if only whitespace or if we can fit the entire string into width w
		if (/^ *$/.test(txt) || sl < w)
			return;

		// this isn't perfect, but gives a good starting point
		// and avoids calling getSubStringLength too often
		var start = Math.floor((w/sl) * txt.length);
		for (var x = start; x > 0; x = x-2) {
			if (t.getSubStringLength(0, x + 2) <= w) {
				t.textContent = txt.substring(0, x) + "..";
				return;
			}
		}
		t.textContent = "";
	}

	// zoom
	function zoom_reset(e) {
		if (e.attributes != undefined) {
			orig_load(e, "x");
			orig_load(e, "width");
		}
		if (e.childNodes == undefined) return;
		for (var i = 0, c = e.childNodes; i < c.length; i++) {
			zoom_reset(c[i]);
		}
	}
	function zoom_child(e, x, ratio) {
		if (e.attributes != undefined) {
			if (e.attributes.x != undefined) {
				orig_save(e, "x");
				e.attributes.x.value = (parseFloat(e.attributes.x.value) - x - 10) * ratio + 10;
				if (e.tagName == "text")
					e.attributes.x.value = find_child(e.parentNode, "rect[x]").attributes.x.value + 3;
			}
			if (e.attributes.width != undefined) {
				orig_save(e, "width");
				e.attributes.width.value = parseFloat(e.attributes.width.value) * ratio;
			}
		}

		if (e.childNodes == undefined) return;
		for (var i = 0, c = e.childNodes; i < c.length; i++) {
			zoom_child(c[i], x - 10, ratio);
		}
	}
	function zoom_parent(e) {
		if (e.attributes) {
			if (e.attributes.x != undefined) {
				orig_save(e, "x");
				e.attributes.x.value = 10;
			}
			if (e.attributes.width != undefined) {
				orig_save(e, "width");
				e.attributes.width.value = parseInt(svg.width.baseVal.value) - (10 * 2);
			}
		}
		if (e.childNodes == undefined) return;
		for (var i = 0, c = e.childNodes; i < c.length; i++) {
			zoom_parent(c[i]);
		}
	}
	function zoom(node) {
		var attr = find_child(node, "rect").attributes;
		var width = parseFloat(attr.width.value);
		var xmin = parseFloat(attr.x.value);
		var xmax = parseFloat(xmin + width);
		var ymin = parseFloat(attr.y.value);
		var ratio = (svg.width.baseVal.value - 2 * 10) / width;

		// XXX: Workaround for JavaScript float issues (fix me)
		var fudge = 0.0001;

		unzoombtn.classList.remove("hide");

		var el = document.getElementById("frames").children;
		for (var i = 0; i < el.length; i++) {
			var e = el[i];
			var a = find_child(e, "rect").attributes;
			var ex = parseFloat(a.x.value);
			var ew = parseFloat(a.width.value);
			var upstack;
			// Is it an ancestor
			if (0 == 0) {
				upstack = parseFloat(a.y.value) > ymin;
			} else {
				upstack = parseFloat(a.y.value) < ymin;
			}
			if (upstack) {
				// Direct ancestor
				if (ex <= xmin && (ex+ew+fudge) >= xmax) {
					e.classList.add("parent");
					zoom_parent(e);
					update_text(e);
				}
				// not in current path
				else
					e.classList.add("hide");
			}
			// Children maybe
			else {
				// no common path
				if (ex < xmin || ex + fudge >= xmax) {
					e.classList.add("hide");
				}
				else {
					zoom_child(e, xmin, ratio);
					update_text(e);
				}
			}
		}
		search();
	}
	function unzoom(dont_update_text) {
		unzoombtn.classList.add("hide");
		var el = document.getElementById("frames").children;
		for(var i = 0; i < el.length; i++) {
			el[i].classList.remove("parent");
			el[i].classList.remove("hide");
			zoom_reset(el[i]);
			if(!dont_update_text) update_text(el[i]);
		}
		search();
	}
	function clearzoom() {
		unzoom();

		// remove zoom state
		var params = get_params();
		if (params.x) delete params.x;
		if (params.y) delete params.y;
		history.replaceState(null, null, parse_params(params));
	}

	// search
	function toggle_ignorecase() {
		ignorecase = !ignorecase;
		if (ignorecase) {
			ignorecaseBtn.classList.add("show");
		} else {
			ignorecaseBtn.classList.remove("show");
		}
		reset_search();
		search();
	}
	function reset_search() {
		var el = document.querySelectorAll("#frames rect");
		for (var i = 0; i < el.length; i++) {
			orig_load(el[i], "fill")
		}
		var params = get_params();
		delete params.s;
		history.replaceState(null, null, parse_params(params));
	}
	function search_prompt() {
		if (!searching) {
			var term = prompt("Enter a search term (regexp " +
			    "allowed, eg: ^ext4_)"
			    + (ignorecase ? ", ignoring case" : "")
			    + "\nPress Ctrl-i to toggle case sensitivity", "");
			if (term != null) search(term);
		} else {
			reset_search();
			searching = 0;
			currentSearchTerm = null;
			searchbtn.classList.remove("show");
			searchbtn.firstChild.nodeValue = "Search"
			matchedtxt.classList.add("hide");
			matchedtxt.firstChild.nodeValue = ""
		}
	}
	function search(term) {
		if (term) currentSearchTerm = term;

		var re = new RegExp(currentSearchTerm, ignorecase ? 'i' : '');
		var el = document.getElementById("frames").children;
		var matches = new Object();
		var maxwidth = 0;
		for (var i = 0; i < el.length; i++) {
			var e = el[i];
			var func = g_to_func(e);
			var rect = find_child(e, "rect");
			if (func == null || rect == null)
				continue;

			// Save max width. Only works as we have a root frame
			var w = parseFloat(rect.attributes.width.value);
			if (w > maxwidth)
				maxwidth = w;

			if (func.match(re)) {
				// highlight
				var x = parseFloat(rect.attributes.x.value);
				orig_save(rect, "fill");
				rect.attributes.fill.value = "rgb(230,0,230)";

				// remember matches
				if (matches[x] == undefined) {
					matches[x] = w;
				} else {
					if (w > matches[x]) {
						// overwrite with parent
						matches[x] = w;
					}
				}
				searching = 1;
			}
		}
		if (!searching)
			return;
		var params = get_params();
		params.s = currentSearchTerm;
		history.replaceState(null, null, parse_params(params));

		searchbtn.classList.add("show");
		searchbtn.firstChild.nodeValue = "Reset Search";

		// calculate percent matched, excluding vertical overlap
		var count = 0;
		var lastx = -1;
		var lastw = 0;
		var keys = Array();
		for (k in matches) {
			if (matches.hasOwnProperty(k))
				keys.push(k);
		}
		// sort the matched frames by their x location
		// ascending, then width descending
		keys.sort(function(a, b){
			return a - b;
		});
		// Step through frames saving only the biggest bottom-up frames
		// thanks to the sort order. This relies on the tree property
		// where children are always smaller than their parents.
		var fudge = 0.0001;	// JavaScript floating point
		for (var k in keys) {
			var x = parseFloat(keys[k]);
			var w = matches[keys[k]];
			if (x >= lastx + lastw - fudge) {
				count += w;
				lastx = x;
				lastw = w;
			}
		}
		// display matched percent
		matchedtxt.classList.remove("hide");
		var pct = 100 * count / maxwidth;
		if (pct != 100) pct = pct.toFixed(1)
		matchedtxt.firstChild.nodeValue = "Matched: " + pct + "%";
	}
]]>
</script>
<rect x="0.0" y="0" width="1200.0" height="342.0" fill="url(#background)"  />
<text id="title" x="600.00" y="24" >Flame Graph</text>
<text id="details" x="10.00" y="325" > </text>
<text id="unzoom" x="10.00" y="24" class="hide">Reset Zoom</text>
<text id="search" x="1090.00" y="24" >Search</text>
<text id="ignorecase" x="1174.00" y="24" >ic</text>
<text id="matched" x="1090.00" y="325" > </text>
<g id="frames">
<g >
<title>__do_global_dtors_aux (1,381,092 samples, 0.12%)</title><rect x="39.7" y="245" width="1.4" height="15.0" fill="rgb(245,185,44)" rx="2" ry="2" />
<text  x="42.73" y="255.5" ></text>
</g>
<g >
<title>map_vdso (362,295 samples, 0.03%)</title><rect x="42.2" y="149" width="0.3" height="15.0" fill="rgb(227,103,24)" rx="2" ry="2" />
<text  x="45.18" y="159.5" ></text>
</g>
<g >
<title>release_pages (924,240 samples, 0.08%)</title><rect x="39.7" y="53" width="1.0" height="15.0" fill="rgb(228,106,25)" rx="2" ry="2" />
<text  x="42.73" y="63.5" ></text>
</g>
<g >
<title>set_cred_ucounts (120,847 samples, 0.01%)</title><rect x="42.1" y="133" width="0.1" height="15.0" fill="rgb(246,188,45)" rx="2" ry="2" />
<text  x="45.06" y="143.5" ></text>
</g>
<g >
<title>w2c_decode__webp__wasmsimd_ReconstructRow (2,772,558 samples, 0.24%)</title><rect x="52.2" y="245" width="2.8" height="15.0" fill="rgb(217,55,13)" rx="2" ry="2" />
<text  x="55.20" y="255.5" ></text>
</g>
<g >
<title>w2c_decode__webp__wasmsimd_HFilter16_SSE2 (6,392,560 samples, 0.55%)</title><rect x="1024.2" y="261" width="6.5" height="15.0" fill="rgb(253,224,53)" rx="2" ry="2" />
<text  x="1027.22" y="271.5" ></text>
</g>
<g >
<title>xas_start (924,372 samples, 0.08%)</title><rect x="41.1" y="37" width="1.0" height="15.0" fill="rgb(250,209,50)" rx="2" ry="2" />
<text  x="44.12" y="47.5" ></text>
</g>
<g >
<title>w2c_decode__webp__wasmsimd_TM4_SSE2 (4,519,573 samples, 0.39%)</title><rect x="31.4" y="165" width="4.6" height="15.0" fill="rgb(224,90,21)" rx="2" ry="2" />
<text  x="34.44" y="175.5" ></text>
</g>
<g >
<title>w2c_decode__webp__wasmsimd_GetLargeValue (46,366,327 samples, 3.97%)</title><rect x="977.4" y="261" width="46.8" height="15.0" fill="rgb(234,137,32)" rx="2" ry="2" />
<text  x="980.42" y="271.5" >w2c_..</text>
</g>
<g >
<title>__install_special_mapping (362,295 samples, 0.03%)</title><rect x="42.2" y="133" width="0.3" height="15.0" fill="rgb(212,35,8)" rx="2" ry="2" />
<text  x="45.18" y="143.5" ></text>
</g>
<g >
<title>__x64_sys_munmap (924,240 samples, 0.08%)</title><rect x="39.7" y="165" width="1.0" height="15.0" fill="rgb(206,7,1)" rx="2" ry="2" />
<text  x="42.73" y="175.5" ></text>
</g>
<g >
<title>w2c_decode__webp__wasmsimd_memcpy (923,798 samples, 0.08%)</title><rect x="1189.0" y="261" width="1.0" height="15.0" fill="rgb(249,206,49)" rx="2" ry="2" />
<text  x="1192.04" y="271.5" ></text>
</g>
<g >
<title>asm_exc_page_fault (368,041 samples, 0.03%)</title><rect x="47.2" y="229" width="0.3" height="15.0" fill="rgb(225,93,22)" rx="2" ry="2" />
<text  x="50.16" y="239.5" ></text>
</g>
<g >
<title>__x64_sys_execve (483,142 samples, 0.04%)</title><rect x="42.1" y="213" width="0.4" height="15.0" fill="rgb(247,193,46)" rx="2" ry="2" />
<text  x="45.06" y="223.5" ></text>
</g>
<g >
<title>w2c_decode__webp__wasmsimd_TransformUV_C (29,566,399 samples, 2.53%)</title><rect x="55.0" y="245" width="29.8" height="15.0" fill="rgb(228,108,25)" rx="2" ry="2" />
<text  x="57.99" y="255.5" >w2..</text>
</g>
<g >
<title>w2c_decode__webp__wasmsimd_GetCoeffsAlt (239,302,795 samples, 20.47%)</title><rect x="735.9" y="261" width="241.5" height="15.0" fill="rgb(214,45,10)" rx="2" ry="2" />
<text  x="738.92" y="271.5" >w2c_decode__webp__wasmsimd_GetCo..</text>
</g>
<g >
<title>exc_page_fault (368,041 samples, 0.03%)</title><rect x="47.2" y="213" width="0.3" height="15.0" fill="rgb(212,35,8)" rx="2" ry="2" />
<text  x="50.16" y="223.5" ></text>
</g>
<g >
<title>do_mas_munmap (924,240 samples, 0.08%)</title><rect x="39.7" y="133" width="1.0" height="15.0" fill="rgb(224,90,21)" rx="2" ry="2" />
<text  x="42.73" y="143.5" ></text>
</g>
<g >
<title>w2c_decode__webp__wasmsimd_HFilter8i_SSE2 (2,769,873 samples, 0.24%)</title><rect x="1039.1" y="261" width="2.8" height="15.0" fill="rgb(229,110,26)" rx="2" ry="2" />
<text  x="1042.06" y="271.5" ></text>
</g>
<g >
<title>vfs_write (924,372 samples, 0.08%)</title><rect x="41.1" y="181" width="1.0" height="15.0" fill="rgb(250,209,50)" rx="2" ry="2" />
<text  x="44.12" y="191.5" ></text>
</g>
<g >
<title>filemap_add_folio (924,372 samples, 0.08%)</title><rect x="41.1" y="85" width="1.0" height="15.0" fill="rgb(207,9,2)" rx="2" ry="2" />
<text  x="44.12" y="95.5" ></text>
</g>
<g >
<title>do_syscall_64 (483,142 samples, 0.04%)</title><rect x="42.1" y="229" width="0.4" height="15.0" fill="rgb(209,20,4)" rx="2" ry="2" />
<text  x="45.06" y="239.5" ></text>
</g>
<g >
<title>w2c_decode__webp__wasmsimd_IDecode (1,848,344 samples, 0.16%)</title><rect x="50.3" y="245" width="1.9" height="15.0" fill="rgb(237,147,35)" rx="2" ry="2" />
<text  x="53.33" y="255.5" ></text>
</g>
<g >
<title>w2c_decode__webp__wasmsimd_ReadHuffmanCode (1,847,745 samples, 0.16%)</title><rect x="1108.9" y="261" width="1.9" height="15.0" fill="rgb(222,79,18)" rx="2" ry="2" />
<text  x="1111.91" y="271.5" ></text>
</g>
<g >
<title>w2c_decode__webp__wasmsimd_TransformAC3_C (923,587 samples, 0.08%)</title><rect x="1119.9" y="261" width="1.0" height="15.0" fill="rgb(251,211,50)" rx="2" ry="2" />
<text  x="1122.93" y="271.5" ></text>
</g>
<g >
<title>perf_iterate_ctx (362,295 samples, 0.03%)</title><rect x="42.2" y="101" width="0.3" height="15.0" fill="rgb(205,4,0)" rx="2" ry="2" />
<text  x="45.18" y="111.5" ></text>
</g>
<g >
<title>__libc_write (924,372 samples, 0.08%)</title><rect x="41.1" y="245" width="1.0" height="15.0" fill="rgb(238,154,37)" rx="2" ry="2" />
<text  x="44.12" y="255.5" ></text>
</g>
<g >
<title>w2c_decode__webp__wasmsimd_VP8YuvToRgb32_SSE2 (39,105,426 samples, 3.34%)</title><rect x="1149.6" y="261" width="39.4" height="15.0" fill="rgb(233,129,31)" rx="2" ry="2" />
<text  x="1152.57" y="271.5" >w2c..</text>
</g>
<g >
<title>[unknown] (29,458,950 samples, 2.52%)</title><rect x="10.0" y="229" width="29.7" height="15.0" fill="rgb(210,24,5)" rx="2" ry="2" />
<text  x="13.00" y="239.5" >[u..</text>
</g>
<g >
<title>decode_webp_was (1,169,202,738 samples, 100.00%)</title><rect x="10.0" y="277" width="1180.0" height="15.0" fill="rgb(216,54,12)" rx="2" ry="2" />
<text  x="13.00" y="287.5" >decode_webp_was</text>
</g>
<g >
<title>[unknown] (29,458,950 samples, 2.52%)</title><rect x="10.0" y="197" width="29.7" height="15.0" fill="rgb(210,24,5)" rx="2" ry="2" />
<text  x="13.00" y="207.5" >[u..</text>
</g>
<g >
<title>w2c_decode__webp__wasmsimd_BuildHuffmanTable (3,694,553 samples, 0.32%)</title><rect x="703.0" y="261" width="3.7" height="15.0" fill="rgb(218,63,15)" rx="2" ry="2" />
<text  x="705.96" y="271.5" ></text>
</g>
<g >
<title>__memmove_avx_unaligned_erms (4,562,527 samples, 0.39%)</title><rect x="698.4" y="261" width="4.6" height="15.0" fill="rgb(205,0,0)" rx="2" ry="2" />
<text  x="701.36" y="271.5" ></text>
</g>
<g >
<title>do_user_addr_fault (456,852 samples, 0.04%)</title><rect x="40.7" y="165" width="0.4" height="15.0" fill="rgb(228,108,25)" rx="2" ry="2" />
<text  x="43.66" y="175.5" ></text>
</g>
<g >
<title>w2c_decode__webp__wasmsimd_VP8ParseProba (923,894 samples, 0.08%)</title><rect x="1148.6" y="261" width="1.0" height="15.0" fill="rgb(216,51,12)" rx="2" ry="2" />
<text  x="1151.64" y="271.5" ></text>
</g>
<g >
<title>w2c_decode__webp__wasmsimd_ExtractGreen_SSE2 (4,942,475 samples, 0.42%)</title><rect x="42.5" y="245" width="5.0" height="15.0" fill="rgb(217,58,14)" rx="2" ry="2" />
<text  x="45.54" y="255.5" ></text>
</g>
<g >
<title>free_unref_page_list (924,240 samples, 0.08%)</title><rect x="39.7" y="37" width="1.0" height="15.0" fill="rgb(221,77,18)" rx="2" ry="2" />
<text  x="42.73" y="47.5" ></text>
</g>
<g >
<title>__handle_mm_fault (725,573 samples, 0.06%)</title><rect x="1132.1" y="181" width="0.7" height="15.0" fill="rgb(207,9,2)" rx="2" ry="2" />
<text  x="1135.05" y="191.5" ></text>
</g>
<g >
<title>w2c_decode__webp__wasmsimd_IDecode (66,444,400 samples, 5.68%)</title><rect x="1041.9" y="261" width="67.0" height="15.0" fill="rgb(237,147,35)" rx="2" ry="2" />
<text  x="1044.86" y="271.5" >w2c_dec..</text>
</g>
<g >
<title>do_user_addr_fault (368,041 samples, 0.03%)</title><rect x="47.2" y="197" width="0.3" height="15.0" fill="rgb(228,108,25)" rx="2" ry="2" />
<text  x="50.16" y="207.5" ></text>
</g>
<g >
<title>all (1,169,233,799 samples, 100%)</title><rect x="10.0" y="293" width="1180.0" height="15.0" fill="rgb(213,39,9)" rx="2" ry="2" />
<text  x="13.00" y="303.5" ></text>
</g>
<g >
<title>__filemap_get_folio (924,372 samples, 0.08%)</title><rect x="41.1" y="101" width="1.0" height="15.0" fill="rgb(231,120,28)" rx="2" ry="2" />
<text  x="44.12" y="111.5" ></text>
</g>
<g >
<title>begin_new_exec (120,847 samples, 0.01%)</title><rect x="42.1" y="149" width="0.1" height="15.0" fill="rgb(245,184,44)" rx="2" ry="2" />
<text  x="45.06" y="159.5" ></text>
</g>
<g >
<title>w2c_decode__webp__wasmsimd_VFilter16_SSE2 (2,771,940 samples, 0.24%)</title><rect x="1132.8" y="261" width="2.8" height="15.0" fill="rgb(213,38,9)" rx="2" ry="2" />
<text  x="1135.79" y="271.5" ></text>
</g>
<g >
<title>tlb_finish_mmu (924,240 samples, 0.08%)</title><rect x="39.7" y="85" width="1.0" height="15.0" fill="rgb(251,212,50)" rx="2" ry="2" />
<text  x="42.73" y="95.5" ></text>
</g>
<g >
<title>__handle_mm_fault (456,852 samples, 0.04%)</title><rect x="40.7" y="133" width="0.4" height="15.0" fill="rgb(207,9,2)" rx="2" ry="2" />
<text  x="43.66" y="143.5" ></text>
</g>
<g >
<title>[unknown] (29,458,950 samples, 2.52%)</title><rect x="10.0" y="181" width="29.7" height="15.0" fill="rgb(210,24,5)" rx="2" ry="2" />
<text  x="13.00" y="191.5" >[u..</text>
</g>
<g >
<title>w2c_decode__webp__wasmsimd_UpsampleRgbLinePair_SSE2 (11,817,236 samples, 1.01%)</title><rect x="1120.9" y="261" width="11.9" height="15.0" fill="rgb(212,33,7)" rx="2" ry="2" />
<text  x="1123.86" y="271.5" ></text>
</g>
<g >
<title>__mod_memcg_lruvec_state (725,573 samples, 0.06%)</title><rect x="1132.1" y="117" width="0.7" height="15.0" fill="rgb(247,195,46)" rx="2" ry="2" />
<text  x="1135.05" y="127.5" ></text>
</g>
<g >
<title>handle_mm_fault (368,041 samples, 0.03%)</title><rect x="47.2" y="181" width="0.3" height="15.0" fill="rgb(234,135,32)" rx="2" ry="2" />
<text  x="50.16" y="191.5" ></text>
</g>
<g >
<title>w2c_decode__webp__wasmsimd_FinishRow (923,159 samples, 0.08%)</title><rect x="735.0" y="261" width="0.9" height="15.0" fill="rgb(205,3,0)" rx="2" ry="2" />
<text  x="737.99" y="271.5" ></text>
</g>
<g >
<title>w2c_decode__webp__wasmsimd_GetCoeffsAlt (2,772,260 samples, 0.24%)</title><rect x="13.7" y="165" width="2.8" height="15.0" fill="rgb(214,45,10)" rx="2" ry="2" />
<text  x="16.73" y="175.5" ></text>
</g>
<g >
<title>folio_batch_move_lru (725,573 samples, 0.06%)</title><rect x="1132.1" y="149" width="0.7" height="15.0" fill="rgb(207,10,2)" rx="2" ry="2" />
<text  x="1135.05" y="159.5" ></text>
</g>
<g >
<title>w2c_decode__webp__wasmsimd_HFilter16i_SSE2 (7,391,749 samples, 0.63%)</title><rect x="1030.7" y="261" width="7.4" height="15.0" fill="rgb(225,93,22)" rx="2" ry="2" />
<text  x="1033.67" y="271.5" ></text>
</g>
<g >
<title>ext4_buffered_write_iter (924,372 samples, 0.08%)</title><rect x="41.1" y="165" width="1.0" height="15.0" fill="rgb(213,40,9)" rx="2" ry="2" />
<text  x="44.12" y="175.5" ></text>
</g>
<g >
<title>[unknown] (29,458,950 samples, 2.52%)</title><rect x="10.0" y="245" width="29.7" height="15.0" fill="rgb(210,24,5)" rx="2" ry="2" />
<text  x="13.00" y="255.5" >[u..</text>
</g>
<g >
<title>w2c_decode__webp__wasmsimd_Transform_SSE2 (607,928,987 samples, 51.99%)</title><rect x="84.8" y="245" width="613.6" height="15.0" fill="rgb(224,91,21)" rx="2" ry="2" />
<text  x="87.83" y="255.5" >w2c_decode__webp__wasmsimd_Transform_SSE2</text>
</g>
<g >
<title>w2c_decode__webp__wasmsimd_RD4_SSE2 (923,025 samples, 0.08%)</title><rect x="22.1" y="165" width="1.0" height="15.0" fill="rgb(245,187,44)" rx="2" ry="2" />
<text  x="25.12" y="175.5" ></text>
</g>
<g >
<title>xas_find_conflict (924,372 samples, 0.08%)</title><rect x="41.1" y="53" width="1.0" height="15.0" fill="rgb(206,8,1)" rx="2" ry="2" />
<text  x="44.12" y="63.5" ></text>
</g>
<g >
<title>handle_mm_fault (456,852 samples, 0.04%)</title><rect x="40.7" y="149" width="0.4" height="15.0" fill="rgb(234,135,32)" rx="2" ry="2" />
<text  x="43.66" y="159.5" ></text>
</g>
<g >
<title>w2c_decode__webp__wasmsimd_VP8LDoFillBitWindow (2,771,496 samples, 0.24%)</title><rect x="1143.0" y="261" width="2.8" height="15.0" fill="rgb(211,29,7)" rx="2" ry="2" />
<text  x="1146.05" y="271.5" ></text>
</g>
<g >
<title>w2c_decode__webp__wasmsimd_DC8uv_SSE2 (2,762,481 samples, 0.24%)</title><rect x="707.6" y="261" width="2.8" height="15.0" fill="rgb(248,200,48)" rx="2" ry="2" />
<text  x="710.62" y="271.5" ></text>
</g>
<g >
<title>__perf_addr_filters_adjust (362,295 samples, 0.03%)</title><rect x="42.2" y="85" width="0.3" height="15.0" fill="rgb(247,195,46)" rx="2" ry="2" />
<text  x="45.18" y="95.5" ></text>
</g>
<g >
<title>do_mas_align_munmap (924,240 samples, 0.08%)</title><rect x="39.7" y="117" width="1.0" height="15.0" fill="rgb(232,126,30)" rx="2" ry="2" />
<text  x="42.73" y="127.5" ></text>
</g>
<g >
<title>w2c_decode__webp__wasmsimd_HD4_C (924,185 samples, 0.08%)</title><rect x="16.5" y="165" width="1.0" height="15.0" fill="rgb(218,62,14)" rx="2" ry="2" />
<text  x="19.53" y="175.5" ></text>
</g>
<g >
<title>w2c_decode__webp__wasmsimd_TransformDC_C (1,846,279 samples, 0.16%)</title><rect x="36.0" y="165" width="1.9" height="15.0" fill="rgb(211,27,6)" rx="2" ry="2" />
<text  x="39.00" y="175.5" ></text>
</g>
<g >
<title>do_user_addr_fault (725,573 samples, 0.06%)</title><rect x="1132.1" y="213" width="0.7" height="15.0" fill="rgb(228,108,25)" rx="2" ry="2" />
<text  x="1135.05" y="223.5" ></text>
</g>
<g >
<title>w2c_decode__webp__wasmsimd_GetCoeffsAlt (2,772,175 samples, 0.24%)</title><rect x="47.5" y="245" width="2.8" height="15.0" fill="rgb(214,45,10)" rx="2" ry="2" />
<text  x="50.53" y="255.5" ></text>
</g>
<g >
<title>ksys_write (924,372 samples, 0.08%)</title><rect x="41.1" y="197" width="1.0" height="15.0" fill="rgb(205,4,1)" rx="2" ry="2" />
<text  x="44.12" y="207.5" ></text>
</g>
<g >
<title>entry_SYSCALL_64_after_hwframe (924,240 samples, 0.08%)</title><rect x="39.7" y="197" width="1.0" height="15.0" fill="rgb(218,63,15)" rx="2" ry="2" />
<text  x="42.73" y="207.5" ></text>
</g>
<g >
<title>w2c_decode__webp__wasmsimd_HFilter8_SSE2 (923,936 samples, 0.08%)</title><rect x="1038.1" y="261" width="1.0" height="15.0" fill="rgb(207,10,2)" rx="2" ry="2" />
<text  x="1041.13" y="271.5" ></text>
</g>
<g >
<title>perf_event_mmap (362,295 samples, 0.03%)</title><rect x="42.2" y="117" width="0.3" height="15.0" fill="rgb(229,112,26)" rx="2" ry="2" />
<text  x="45.18" y="127.5" ></text>
</g>
<g >
<title>__libc_start_call_main (1,381,092 samples, 0.12%)</title><rect x="39.7" y="229" width="1.4" height="15.0" fill="rgb(210,26,6)" rx="2" ry="2" />
<text  x="42.73" y="239.5" ></text>
</g>
<g >
<title>asm_exc_page_fault (725,573 samples, 0.06%)</title><rect x="1132.1" y="245" width="0.7" height="15.0" fill="rgb(225,93,22)" rx="2" ry="2" />
<text  x="1135.05" y="255.5" ></text>
</g>
<g >
<title>w2c_decode__webp__wasmsimd_VFilter16i_SSE2 (5,545,452 samples, 0.47%)</title><rect x="1135.6" y="261" width="5.6" height="15.0" fill="rgb(234,137,32)" rx="2" ry="2" />
<text  x="1138.58" y="271.5" ></text>
</g>
<g >
<title>do_syscall_64 (924,372 samples, 0.08%)</title><rect x="41.1" y="213" width="1.0" height="15.0" fill="rgb(209,20,4)" rx="2" ry="2" />
<text  x="44.12" y="223.5" ></text>
</g>
<g >
<title>w2c_decode__webp__wasmsimd_DC8uvNoLeft_SSE2 (924,241 samples, 0.08%)</title><rect x="706.7" y="261" width="0.9" height="15.0" fill="rgb(226,96,23)" rx="2" ry="2" />
<text  x="709.69" y="271.5" ></text>
</g>
<g >
<title>w2c_decode__webp__wasmsimd_IDecode (923,961 samples, 0.08%)</title><rect x="21.2" y="165" width="0.9" height="15.0" fill="rgb(237,147,35)" rx="2" ry="2" />
<text  x="24.19" y="175.5" ></text>
</g>
<g >
<title>w2c_decode__webp__wasmsimd_VE4_SSE2 (1,848,671 samples, 0.16%)</title><rect x="37.9" y="165" width="1.8" height="15.0" fill="rgb(213,38,9)" rx="2" ry="2" />
<text  x="40.86" y="175.5" ></text>
</g>
<g >
<title>printf (456,852 samples, 0.04%)</title><rect x="40.7" y="213" width="0.4" height="15.0" fill="rgb(206,6,1)" rx="2" ry="2" />
<text  x="43.66" y="223.5" ></text>
</g>
<g >
<title>bprm_execve (483,142 samples, 0.04%)</title><rect x="42.1" y="181" width="0.4" height="15.0" fill="rgb(218,61,14)" rx="2" ry="2" />
<text  x="45.06" y="191.5" ></text>
</g>
<g >
<title>pagecache_get_page (924,372 samples, 0.08%)</title><rect x="41.1" y="117" width="1.0" height="15.0" fill="rgb(253,221,53)" rx="2" ry="2" />
<text  x="44.12" y="127.5" ></text>
</g>
<g >
<title>w2c_decode__webp__wasmsimd_DecodeImageData (24,348,104 samples, 2.08%)</title><rect x="710.4" y="261" width="24.6" height="15.0" fill="rgb(246,191,45)" rx="2" ry="2" />
<text  x="713.41" y="271.5" >w..</text>
</g>
<g >
<title>filemap_map_pages (456,852 samples, 0.04%)</title><rect x="40.7" y="101" width="0.4" height="15.0" fill="rgb(229,112,27)" rx="2" ry="2" />
<text  x="43.66" y="111.5" ></text>
</g>
<g >
<title>folio_add_lru (725,573 samples, 0.06%)</title><rect x="1132.1" y="165" width="0.7" height="15.0" fill="rgb(208,17,4)" rx="2" ry="2" />
<text  x="1135.05" y="175.5" ></text>
</g>
<g >
<title>w2c_decode__webp__wasmsimd_VP8LReadBits (2,770,728 samples, 0.24%)</title><rect x="1145.8" y="261" width="2.8" height="15.0" fill="rgb(228,108,26)" rx="2" ry="2" />
<text  x="1148.84" y="271.5" ></text>
</g>
<g >
<title>__munmap (924,240 samples, 0.08%)</title><rect x="39.7" y="213" width="1.0" height="15.0" fill="rgb(211,29,7)" rx="2" ry="2" />
<text  x="42.73" y="223.5" ></text>
</g>
<g >
<title>unmap_region (924,240 samples, 0.08%)</title><rect x="39.7" y="101" width="1.0" height="15.0" fill="rgb(219,64,15)" rx="2" ry="2" />
<text  x="42.73" y="111.5" ></text>
</g>
<g >
<title>ext4_da_write_begin (924,372 samples, 0.08%)</title><rect x="41.1" y="133" width="1.0" height="15.0" fill="rgb(211,32,7)" rx="2" ry="2" />
<text  x="44.12" y="143.5" ></text>
</g>
<g >
<title>load_elf_binary (483,142 samples, 0.04%)</title><rect x="42.1" y="165" width="0.4" height="15.0" fill="rgb(223,83,20)" rx="2" ry="2" />
<text  x="45.06" y="175.5" ></text>
</g>
<g >
<title>next_uptodate_page (456,852 samples, 0.04%)</title><rect x="40.7" y="85" width="0.4" height="15.0" fill="rgb(210,25,6)" rx="2" ry="2" />
<text  x="43.66" y="95.5" ></text>
</g>
<g >
<title>entry_SYSCALL_64_after_hwframe (483,142 samples, 0.04%)</title><rect x="42.1" y="245" width="0.4" height="15.0" fill="rgb(218,63,15)" rx="2" ry="2" />
<text  x="45.06" y="255.5" ></text>
</g>
<g >
<title>w2c_decode__webp__wasmsimd_ReconstructRow (9,067,910 samples, 0.78%)</title><rect x="1110.8" y="261" width="9.1" height="15.0" fill="rgb(217,55,13)" rx="2" ry="2" />
<text  x="1113.78" y="271.5" ></text>
</g>
<g >
<title>exc_page_fault (456,852 samples, 0.04%)</title><rect x="40.7" y="181" width="0.4" height="15.0" fill="rgb(212,35,8)" rx="2" ry="2" />
<text  x="43.66" y="191.5" ></text>
</g>
<g >
<title>generic_perform_write (924,372 samples, 0.08%)</title><rect x="41.1" y="149" width="1.0" height="15.0" fill="rgb(236,146,35)" rx="2" ry="2" />
<text  x="44.12" y="159.5" ></text>
</g>
<g >
<title>do_syscall_64 (924,240 samples, 0.08%)</title><rect x="39.7" y="181" width="1.0" height="15.0" fill="rgb(209,20,4)" rx="2" ry="2" />
<text  x="42.73" y="191.5" ></text>
</g>
<g >
<title>tlb_batch_pages_flush (924,240 samples, 0.08%)</title><rect x="39.7" y="69" width="1.0" height="15.0" fill="rgb(234,133,32)" rx="2" ry="2" />
<text  x="42.73" y="79.5" ></text>
</g>
<g >
<title>lru_add_fn (725,573 samples, 0.06%)</title><rect x="1132.1" y="133" width="0.7" height="15.0" fill="rgb(208,14,3)" rx="2" ry="2" />
<text  x="1135.05" y="143.5" ></text>
</g>
<g >
<title>handle_mm_fault (725,573 samples, 0.06%)</title><rect x="1132.1" y="197" width="0.7" height="15.0" fill="rgb(234,135,32)" rx="2" ry="2" />
<text  x="1135.05" y="207.5" ></text>
</g>
<g >
<title>asm_exc_page_fault (456,852 samples, 0.04%)</title><rect x="40.7" y="197" width="0.4" height="15.0" fill="rgb(225,93,22)" rx="2" ry="2" />
<text  x="43.66" y="207.5" ></text>
</g>
<g >
<title>do_fault (456,852 samples, 0.04%)</title><rect x="40.7" y="117" width="0.4" height="15.0" fill="rgb(248,200,47)" rx="2" ry="2" />
<text  x="43.66" y="127.5" ></text>
</g>
<g >
<title>exc_page_fault (725,573 samples, 0.06%)</title><rect x="1132.1" y="229" width="0.7" height="15.0" fill="rgb(212,35,8)" rx="2" ry="2" />
<text  x="1135.05" y="239.5" ></text>
</g>
<g >
<title>w2c_decode__webp__wasmsimd_HU4_C (924,079 samples, 0.08%)</title><rect x="20.3" y="165" width="0.9" height="15.0" fill="rgb(208,17,4)" rx="2" ry="2" />
<text  x="23.26" y="175.5" ></text>
</g>
<g >
<title>__vm_munmap (924,240 samples, 0.08%)</title><rect x="39.7" y="149" width="1.0" height="15.0" fill="rgb(231,121,28)" rx="2" ry="2" />
<text  x="42.73" y="159.5" ></text>
</g>
<g >
<title>do_execveat_common.isra.0 (483,142 samples, 0.04%)</title><rect x="42.1" y="197" width="0.4" height="15.0" fill="rgb(231,123,29)" rx="2" ry="2" />
<text  x="45.06" y="207.5" ></text>
</g>
<g >
<title>w2c_decode__webp__wasmsimd_DC4_C (3,695,653 samples, 0.32%)</title><rect x="10.0" y="165" width="3.7" height="15.0" fill="rgb(250,210,50)" rx="2" ry="2" />
<text  x="13.00" y="175.5" ></text>
</g>
<g >
<title>__filemap_add_folio (924,372 samples, 0.08%)</title><rect x="41.1" y="69" width="1.0" height="15.0" fill="rgb(229,113,27)" rx="2" ry="2" />
<text  x="44.12" y="79.5" ></text>
</g>
<g >
<title>w2c_decode__webp__wasmsimd_VFilter8_SSE2 (1,848,327 samples, 0.16%)</title><rect x="1141.2" y="261" width="1.8" height="15.0" fill="rgb(216,54,13)" rx="2" ry="2" />
<text  x="1144.18" y="271.5" ></text>
</g>
<g >
<title>[unknown] (682,078,494 samples, 58.34%)</title><rect x="10.0" y="261" width="688.4" height="15.0" fill="rgb(210,24,5)" rx="2" ry="2" />
<text  x="13.00" y="271.5" >[unknown]</text>
</g>
<g >
<title>w2c_decode__webp__wasmsimd_ReconstructRow (8,310,022 samples, 0.71%)</title><rect x="23.1" y="165" width="8.3" height="15.0" fill="rgb(217,55,13)" rx="2" ry="2" />
<text  x="26.05" y="175.5" ></text>
</g>
<g >
<title>[unknown] (29,458,950 samples, 2.52%)</title><rect x="10.0" y="213" width="29.7" height="15.0" fill="rgb(210,24,5)" rx="2" ry="2" />
<text  x="13.00" y="223.5" >[u..</text>
</g>
<g >
<title>entry_SYSCALL_64_after_hwframe (924,372 samples, 0.08%)</title><rect x="41.1" y="229" width="1.0" height="15.0" fill="rgb(218,63,15)" rx="2" ry="2" />
<text  x="44.12" y="239.5" ></text>
</g>
<g >
<title>w2c_decode__webp__wasmsimd_HE4_C (2,771,242 samples, 0.24%)</title><rect x="17.5" y="165" width="2.8" height="15.0" fill="rgb(212,32,7)" rx="2" ry="2" />
<text  x="20.46" y="175.5" ></text>
</g>
</g>
</svg>
