<?xml version="1.0" standalone="no"?>
<!DOCTYPE svg PUBLIC "-//W3C//DTD SVG 1.1//EN" "http://www.w3.org/Graphics/SVG/1.1/DTD/svg11.dtd">
<svg version="1.1" width="1200" height="326" onload="init(evt)" viewBox="0 0 1200 326" xmlns="http://www.w3.org/2000/svg" xmlns:xlink="http://www.w3.org/1999/xlink">
<!-- Flame graph stack visualization. See https://github.com/brendangregg/FlameGraph for latest version, and http://www.brendangregg.com/flamegraphs.html for examples. -->
<!-- NOTES:  -->
<defs>
	<linearGradient id="background" y1="0" y2="1" x1="0" x2="0" >
		<stop stop-color="#eeeeee" offset="5%" />
		<stop stop-color="#eeeeb0" offset="95%" />
	</linearGradient>
</defs>
<style type="text/css">
	text { font-family:Verdana; font-size:12px; fill:rgb(0,0,0); }
	#search, #ignorecase { opacity:0.1; cursor:pointer; }
	#search:hover, #search.show, #ignorecase:hover, #ignorecase.show { opacity:1; }
	#subtitle { text-anchor:middle; font-color:rgb(160,160,160); }
	#title { text-anchor:middle; font-size:17px}
	#unzoom { cursor:pointer; }
	#frames > *:hover { stroke:black; stroke-width:0.5; cursor:pointer; }
	.hide { display:none; }
	.parent { opacity:0.5; }
</style>
<script type="text/ecmascript">
<![CDATA[
	"use strict";
	var details, searchbtn, unzoombtn, matchedtxt, svg, searching, currentSearchTerm, ignorecase, ignorecaseBtn;
	function init(evt) {
		details = document.getElementById("details").firstChild;
		searchbtn = document.getElementById("search");
		ignorecaseBtn = document.getElementById("ignorecase");
		unzoombtn = document.getElementById("unzoom");
		matchedtxt = document.getElementById("matched");
		svg = document.getElementsByTagName("svg")[0];
		searching = 0;
		currentSearchTerm = null;

		// use GET parameters to restore a flamegraphs state.
		var params = get_params();
		if (params.x && params.y)
			zoom(find_group(document.querySelector('[x="' + params.x + '"][y="' + params.y + '"]')));
                if (params.s) search(params.s);
	}

	// event listeners
	window.addEventListener("click", function(e) {
		var target = find_group(e.target);
		if (target) {
			if (target.nodeName == "a") {
				if (e.ctrlKey === false) return;
				e.preventDefault();
			}
			if (target.classList.contains("parent")) unzoom(true);
			zoom(target);
			if (!document.querySelector('.parent')) {
				// we have basically done a clearzoom so clear the url
				var params = get_params();
				if (params.x) delete params.x;
				if (params.y) delete params.y;
				history.replaceState(null, null, parse_params(params));
				unzoombtn.classList.add("hide");
				return;
			}

			// set parameters for zoom state
			var el = target.querySelector("rect");
			if (el && el.attributes && el.attributes.y && el.attributes._orig_x) {
				var params = get_params()
				params.x = el.attributes._orig_x.value;
				params.y = el.attributes.y.value;
				history.replaceState(null, null, parse_params(params));
			}
		}
		else if (e.target.id == "unzoom") clearzoom();
		else if (e.target.id == "search") search_prompt();
		else if (e.target.id == "ignorecase") toggle_ignorecase();
	}, false)

	// mouse-over for info
	// show
	window.addEventListener("mouseover", function(e) {
		var target = find_group(e.target);
		if (target) details.nodeValue = "Function: " + g_to_text(target);
	}, false)

	// clear
	window.addEventListener("mouseout", function(e) {
		var target = find_group(e.target);
		if (target) details.nodeValue = ' ';
	}, false)

	// ctrl-F for search
	// ctrl-I to toggle case-sensitive search
	window.addEventListener("keydown",function (e) {
		if (e.keyCode === 114 || (e.ctrlKey && e.keyCode === 70)) {
			e.preventDefault();
			search_prompt();
		}
		else if (e.ctrlKey && e.keyCode === 73) {
			e.preventDefault();
			toggle_ignorecase();
		}
	}, false)

	// functions
	function get_params() {
		var params = {};
		var paramsarr = window.location.search.substr(1).split('&');
		for (var i = 0; i < paramsarr.length; ++i) {
			var tmp = paramsarr[i].split("=");
			if (!tmp[0] || !tmp[1]) continue;
			params[tmp[0]]  = decodeURIComponent(tmp[1]);
		}
		return params;
	}
	function parse_params(params) {
		var uri = "?";
		for (var key in params) {
			uri += key + '=' + encodeURIComponent(params[key]) + '&';
		}
		if (uri.slice(-1) == "&")
			uri = uri.substring(0, uri.length - 1);
		if (uri == '?')
			uri = window.location.href.split('?')[0];
		return uri;
	}
	function find_child(node, selector) {
		var children = node.querySelectorAll(selector);
		if (children.length) return children[0];
	}
	function find_group(node) {
		var parent = node.parentElement;
		if (!parent) return;
		if (parent.id == "frames") return node;
		return find_group(parent);
	}
	function orig_save(e, attr, val) {
		if (e.attributes["_orig_" + attr] != undefined) return;
		if (e.attributes[attr] == undefined) return;
		if (val == undefined) val = e.attributes[attr].value;
		e.setAttribute("_orig_" + attr, val);
	}
	function orig_load(e, attr) {
		if (e.attributes["_orig_"+attr] == undefined) return;
		e.attributes[attr].value = e.attributes["_orig_" + attr].value;
		e.removeAttribute("_orig_"+attr);
	}
	function g_to_text(e) {
		var text = find_child(e, "title").firstChild.nodeValue;
		return (text)
	}
	function g_to_func(e) {
		var func = g_to_text(e);
		// if there's any manipulation we want to do to the function
		// name before it's searched, do it here before returning.
		return (func);
	}
	function update_text(e) {
		var r = find_child(e, "rect");
		var t = find_child(e, "text");
		var w = parseFloat(r.attributes.width.value) -3;
		var txt = find_child(e, "title").textContent.replace(/\([^(]*\)$/,"");
		t.attributes.x.value = parseFloat(r.attributes.x.value) + 3;

		// Smaller than this size won't fit anything
		if (w < 2 * 12 * 0.59) {
			t.textContent = "";
			return;
		}

		t.textContent = txt;
		var sl = t.getSubStringLength(0, txt.length);
		// check if only whitespace or if we can fit the entire string into width w
		if (/^ *$/.test(txt) || sl < w)
			return;

		// this isn't perfect, but gives a good starting point
		// and avoids calling getSubStringLength too often
		var start = Math.floor((w/sl) * txt.length);
		for (var x = start; x > 0; x = x-2) {
			if (t.getSubStringLength(0, x + 2) <= w) {
				t.textContent = txt.substring(0, x) + "..";
				return;
			}
		}
		t.textContent = "";
	}

	// zoom
	function zoom_reset(e) {
		if (e.attributes != undefined) {
			orig_load(e, "x");
			orig_load(e, "width");
		}
		if (e.childNodes == undefined) return;
		for (var i = 0, c = e.childNodes; i < c.length; i++) {
			zoom_reset(c[i]);
		}
	}
	function zoom_child(e, x, ratio) {
		if (e.attributes != undefined) {
			if (e.attributes.x != undefined) {
				orig_save(e, "x");
				e.attributes.x.value = (parseFloat(e.attributes.x.value) - x - 10) * ratio + 10;
				if (e.tagName == "text")
					e.attributes.x.value = find_child(e.parentNode, "rect[x]").attributes.x.value + 3;
			}
			if (e.attributes.width != undefined) {
				orig_save(e, "width");
				e.attributes.width.value = parseFloat(e.attributes.width.value) * ratio;
			}
		}

		if (e.childNodes == undefined) return;
		for (var i = 0, c = e.childNodes; i < c.length; i++) {
			zoom_child(c[i], x - 10, ratio);
		}
	}
	function zoom_parent(e) {
		if (e.attributes) {
			if (e.attributes.x != undefined) {
				orig_save(e, "x");
				e.attributes.x.value = 10;
			}
			if (e.attributes.width != undefined) {
				orig_save(e, "width");
				e.attributes.width.value = parseInt(svg.width.baseVal.value) - (10 * 2);
			}
		}
		if (e.childNodes == undefined) return;
		for (var i = 0, c = e.childNodes; i < c.length; i++) {
			zoom_parent(c[i]);
		}
	}
	function zoom(node) {
		var attr = find_child(node, "rect").attributes;
		var width = parseFloat(attr.width.value);
		var xmin = parseFloat(attr.x.value);
		var xmax = parseFloat(xmin + width);
		var ymin = parseFloat(attr.y.value);
		var ratio = (svg.width.baseVal.value - 2 * 10) / width;

		// XXX: Workaround for JavaScript float issues (fix me)
		var fudge = 0.0001;

		unzoombtn.classList.remove("hide");

		var el = document.getElementById("frames").children;
		for (var i = 0; i < el.length; i++) {
			var e = el[i];
			var a = find_child(e, "rect").attributes;
			var ex = parseFloat(a.x.value);
			var ew = parseFloat(a.width.value);
			var upstack;
			// Is it an ancestor
			if (0 == 0) {
				upstack = parseFloat(a.y.value) > ymin;
			} else {
				upstack = parseFloat(a.y.value) < ymin;
			}
			if (upstack) {
				// Direct ancestor
				if (ex <= xmin && (ex+ew+fudge) >= xmax) {
					e.classList.add("parent");
					zoom_parent(e);
					update_text(e);
				}
				// not in current path
				else
					e.classList.add("hide");
			}
			// Children maybe
			else {
				// no common path
				if (ex < xmin || ex + fudge >= xmax) {
					e.classList.add("hide");
				}
				else {
					zoom_child(e, xmin, ratio);
					update_text(e);
				}
			}
		}
		search();
	}
	function unzoom(dont_update_text) {
		unzoombtn.classList.add("hide");
		var el = document.getElementById("frames").children;
		for(var i = 0; i < el.length; i++) {
			el[i].classList.remove("parent");
			el[i].classList.remove("hide");
			zoom_reset(el[i]);
			if(!dont_update_text) update_text(el[i]);
		}
		search();
	}
	function clearzoom() {
		unzoom();

		// remove zoom state
		var params = get_params();
		if (params.x) delete params.x;
		if (params.y) delete params.y;
		history.replaceState(null, null, parse_params(params));
	}

	// search
	function toggle_ignorecase() {
		ignorecase = !ignorecase;
		if (ignorecase) {
			ignorecaseBtn.classList.add("show");
		} else {
			ignorecaseBtn.classList.remove("show");
		}
		reset_search();
		search();
	}
	function reset_search() {
		var el = document.querySelectorAll("#frames rect");
		for (var i = 0; i < el.length; i++) {
			orig_load(el[i], "fill")
		}
		var params = get_params();
		delete params.s;
		history.replaceState(null, null, parse_params(params));
	}
	function search_prompt() {
		if (!searching) {
			var term = prompt("Enter a search term (regexp " +
			    "allowed, eg: ^ext4_)"
			    + (ignorecase ? ", ignoring case" : "")
			    + "\nPress Ctrl-i to toggle case sensitivity", "");
			if (term != null) search(term);
		} else {
			reset_search();
			searching = 0;
			currentSearchTerm = null;
			searchbtn.classList.remove("show");
			searchbtn.firstChild.nodeValue = "Search"
			matchedtxt.classList.add("hide");
			matchedtxt.firstChild.nodeValue = ""
		}
	}
	function search(term) {
		if (term) currentSearchTerm = term;

		var re = new RegExp(currentSearchTerm, ignorecase ? 'i' : '');
		var el = document.getElementById("frames").children;
		var matches = new Object();
		var maxwidth = 0;
		for (var i = 0; i < el.length; i++) {
			var e = el[i];
			var func = g_to_func(e);
			var rect = find_child(e, "rect");
			if (func == null || rect == null)
				continue;

			// Save max width. Only works as we have a root frame
			var w = parseFloat(rect.attributes.width.value);
			if (w > maxwidth)
				maxwidth = w;

			if (func.match(re)) {
				// highlight
				var x = parseFloat(rect.attributes.x.value);
				orig_save(rect, "fill");
				rect.attributes.fill.value = "rgb(230,0,230)";

				// remember matches
				if (matches[x] == undefined) {
					matches[x] = w;
				} else {
					if (w > matches[x]) {
						// overwrite with parent
						matches[x] = w;
					}
				}
				searching = 1;
			}
		}
		if (!searching)
			return;
		var params = get_params();
		params.s = currentSearchTerm;
		history.replaceState(null, null, parse_params(params));

		searchbtn.classList.add("show");
		searchbtn.firstChild.nodeValue = "Reset Search";

		// calculate percent matched, excluding vertical overlap
		var count = 0;
		var lastx = -1;
		var lastw = 0;
		var keys = Array();
		for (k in matches) {
			if (matches.hasOwnProperty(k))
				keys.push(k);
		}
		// sort the matched frames by their x location
		// ascending, then width descending
		keys.sort(function(a, b){
			return a - b;
		});
		// Step through frames saving only the biggest bottom-up frames
		// thanks to the sort order. This relies on the tree property
		// where children are always smaller than their parents.
		var fudge = 0.0001;	// JavaScript floating point
		for (var k in keys) {
			var x = parseFloat(keys[k]);
			var w = matches[keys[k]];
			if (x >= lastx + lastw - fudge) {
				count += w;
				lastx = x;
				lastw = w;
			}
		}
		// display matched percent
		matchedtxt.classList.remove("hide");
		var pct = 100 * count / maxwidth;
		if (pct != 100) pct = pct.toFixed(1)
		matchedtxt.firstChild.nodeValue = "Matched: " + pct + "%";
	}
]]>
</script>
<rect x="0.0" y="0" width="1200.0" height="326.0" fill="url(#background)"  />
<text id="title" x="600.00" y="24" >Flame Graph</text>
<text id="details" x="10.00" y="309" > </text>
<text id="unzoom" x="10.00" y="24" class="hide">Reset Zoom</text>
<text id="search" x="1090.00" y="24" >Search</text>
<text id="ignorecase" x="1174.00" y="24" >ic</text>
<text id="matched" x="1090.00" y="309" > </text>
<g id="frames">
<g >
<title>asm_exc_page_fault (1,276,089 samples, 0.31%)</title><rect x="638.3" y="197" width="3.7" height="15.0" fill="rgb(225,93,22)" rx="2" ry="2" />
<text  x="641.25" y="207.5" ></text>
</g>
<g >
<title>tick_sched_handle (924,058 samples, 0.23%)</title><rect x="594.1" y="117" width="2.7" height="15.0" fill="rgb(219,68,16)" rx="2" ry="2" />
<text  x="597.07" y="127.5" ></text>
</g>
<g >
<title>preempt_count_add (823,207 samples, 0.20%)</title><rect x="638.3" y="37" width="2.3" height="15.0" fill="rgb(253,222,53)" rx="2" ry="2" />
<text  x="641.25" y="47.5" ></text>
</g>
<g >
<title>VR4_SSE2 (917,520 samples, 0.23%)</title><rect x="189.8" y="245" width="2.7" height="15.0" fill="rgb(237,150,35)" rx="2" ry="2" />
<text  x="192.80" y="255.5" ></text>
</g>
<g >
<title>TransformDC_C (1,623,999 samples, 0.40%)</title><rect x="374.1" y="229" width="4.7" height="15.0" fill="rgb(219,65,15)" rx="2" ry="2" />
<text  x="377.06" y="239.5" ></text>
</g>
<g >
<title>TM4_SSE2 (1,725,141 samples, 0.43%)</title><rect x="76.9" y="245" width="5.0" height="15.0" fill="rgb(232,128,30)" rx="2" ry="2" />
<text  x="79.90" y="255.5" ></text>
</g>
<g >
<title>VP8DecodeMB (9,538,176 samples, 2.35%)</title><rect x="146.2" y="245" width="27.8" height="15.0" fill="rgb(208,18,4)" rx="2" ry="2" />
<text  x="149.24" y="255.5" >V..</text>
</g>
<g >
<title>VE4_SSE2 (1,711,964 samples, 0.42%)</title><rect x="136.3" y="245" width="5.0" height="15.0" fill="rgb(221,76,18)" rx="2" ry="2" />
<text  x="139.32" y="255.5" ></text>
</g>
<g >
<title>FinishRow (887,032 samples, 0.22%)</title><rect x="51.4" y="245" width="2.6" height="15.0" fill="rgb(213,41,9)" rx="2" ry="2" />
<text  x="54.39" y="255.5" ></text>
</g>
<g >
<title>ExtractAlphaRows (923,376 samples, 0.23%)</title><rect x="43.3" y="245" width="2.7" height="15.0" fill="rgb(243,177,42)" rx="2" ry="2" />
<text  x="46.34" y="255.5" ></text>
</g>
<g >
<title>do_syscall_64 (477,086 samples, 0.12%)</title><rect x="1171.1" y="213" width="1.4" height="15.0" fill="rgb(209,20,4)" rx="2" ry="2" />
<text  x="1174.15" y="223.5" ></text>
</g>
<g >
<title>exc_page_fault (1,276,089 samples, 0.31%)</title><rect x="638.3" y="181" width="3.7" height="15.0" fill="rgb(212,35,8)" rx="2" ry="2" />
<text  x="641.25" y="191.5" ></text>
</g>
<g >
<title>begin_new_exec (115,753 samples, 0.03%)</title><rect x="1171.1" y="133" width="0.4" height="15.0" fill="rgb(245,184,44)" rx="2" ry="2" />
<text  x="1174.15" y="143.5" ></text>
</g>
<g >
<title>update_process_times (924,058 samples, 0.23%)</title><rect x="594.1" y="101" width="2.7" height="15.0" fill="rgb(250,209,50)" rx="2" ry="2" />
<text  x="597.07" y="111.5" ></text>
</g>
<g >
<title>ExtractGreen_SSE2 (1,844,087 samples, 0.45%)</title><rect x="46.0" y="245" width="5.4" height="15.0" fill="rgb(226,96,23)" rx="2" ry="2" />
<text  x="49.03" y="255.5" ></text>
</g>
<g >
<title>charge_memcg (683,152 samples, 0.17%)</title><rect x="1165.3" y="101" width="2.0" height="15.0" fill="rgb(242,170,40)" rx="2" ry="2" />
<text  x="1168.27" y="111.5" ></text>
</g>
<g >
<title>tick_sched_timer (924,058 samples, 0.23%)</title><rect x="594.1" y="133" width="2.7" height="15.0" fill="rgb(254,227,54)" rx="2" ry="2" />
<text  x="597.07" y="143.5" ></text>
</g>
<g >
<title>__alloc_pages (823,207 samples, 0.20%)</title><rect x="638.3" y="85" width="2.3" height="15.0" fill="rgb(233,129,30)" rx="2" ry="2" />
<text  x="641.25" y="95.5" ></text>
</g>
<g >
<title>TransformAC3_C (5,298,343 samples, 1.31%)</title><rect x="81.9" y="245" width="15.4" height="15.0" fill="rgb(209,19,4)" rx="2" ry="2" />
<text  x="84.92" y="255.5" ></text>
</g>
<g >
<title>[unknown] (196,071,751 samples, 48.35%)</title><rect x="596.8" y="229" width="570.5" height="15.0" fill="rgb(210,24,5)" rx="2" ry="2" />
<text  x="599.76" y="239.5" >[unknown]</text>
</g>
<g >
<title>DC16NoTop_SSE2 (920,538 samples, 0.23%)</title><rect x="192.5" y="229" width="2.7" height="15.0" fill="rgb(217,56,13)" rx="2" ry="2" />
<text  x="195.47" y="239.5" ></text>
</g>
<g >
<title>__memset_avx2_unaligned_erms (875,752 samples, 0.22%)</title><rect x="1168.6" y="229" width="2.5" height="15.0" fill="rgb(223,84,20)" rx="2" ry="2" />
<text  x="1171.60" y="239.5" ></text>
</g>
<g >
<title>asm_sysvec_apic_timer_interrupt (924,058 samples, 0.23%)</title><rect x="594.1" y="213" width="2.7" height="15.0" fill="rgb(232,127,30)" rx="2" ry="2" />
<text  x="597.07" y="223.5" ></text>
</g>
<g >
<title>VP8ParseProba (870,714 samples, 0.21%)</title><rect x="184.6" y="245" width="2.5" height="15.0" fill="rgb(224,88,21)" rx="2" ry="2" />
<text  x="187.59" y="255.5" ></text>
</g>
<g >
<title>FinishRow (3,554,492 samples, 0.88%)</title><rect x="224.2" y="229" width="10.3" height="15.0" fill="rgb(213,41,9)" rx="2" ry="2" />
<text  x="227.19" y="239.5" ></text>
</g>
<g >
<title>__memmove_avx_unaligned_erms (5,971,845 samples, 1.47%)</title><rect x="1172.5" y="245" width="17.4" height="15.0" fill="rgb(205,0,0)" rx="2" ry="2" />
<text  x="1175.54" y="255.5" ></text>
</g>
<g >
<title>HFilter16i_SSE2 (3,575,573 samples, 0.88%)</title><rect x="327.1" y="229" width="10.4" height="15.0" fill="rgb(233,131,31)" rx="2" ry="2" />
<text  x="330.12" y="239.5" ></text>
</g>
<g >
<title>__mem_cgroup_charge (683,152 samples, 0.17%)</title><rect x="1165.3" y="117" width="2.0" height="15.0" fill="rgb(218,60,14)" rx="2" ry="2" />
<text  x="1168.27" y="127.5" ></text>
</g>
<g >
<title>do_user_addr_fault (1,276,089 samples, 0.31%)</title><rect x="638.3" y="165" width="3.7" height="15.0" fill="rgb(228,108,25)" rx="2" ry="2" />
<text  x="641.25" y="175.5" ></text>
</g>
<g >
<title>flush_signal_handlers (115,753 samples, 0.03%)</title><rect x="1171.1" y="117" width="0.4" height="15.0" fill="rgb(253,221,53)" rx="2" ry="2" />
<text  x="1174.15" y="127.5" ></text>
</g>
<g >
<title>GetCoeffsFast (1,798,975 samples, 0.44%)</title><rect x="54.0" y="245" width="5.2" height="15.0" fill="rgb(219,64,15)" rx="2" ry="2" />
<text  x="56.97" y="255.5" ></text>
</g>
<g >
<title>GetCoeffsFast (1,828,196 samples, 0.45%)</title><rect x="234.5" y="229" width="5.4" height="15.0" fill="rgb(219,64,15)" rx="2" ry="2" />
<text  x="237.54" y="239.5" ></text>
</g>
<g >
<title>ReconstructRow (8,169,050 samples, 2.01%)</title><rect x="347.7" y="229" width="23.7" height="15.0" fill="rgb(225,93,22)" rx="2" ry="2" />
<text  x="350.65" y="239.5" >R..</text>
</g>
<g >
<title>do_execveat_common.isra.0 (477,086 samples, 0.12%)</title><rect x="1171.1" y="181" width="1.4" height="15.0" fill="rgb(231,123,29)" rx="2" ry="2" />
<text  x="1174.15" y="191.5" ></text>
</g>
<g >
<title>__folio_alloc (823,207 samples, 0.20%)</title><rect x="638.3" y="101" width="2.3" height="15.0" fill="rgb(224,91,21)" rx="2" ry="2" />
<text  x="641.25" y="111.5" ></text>
</g>
<g >
<title>load_elf_binary (477,086 samples, 0.12%)</title><rect x="1171.1" y="149" width="1.4" height="15.0" fill="rgb(223,83,20)" rx="2" ry="2" />
<text  x="1174.15" y="159.5" ></text>
</g>
<g >
<title>hrtimer_interrupt (924,058 samples, 0.23%)</title><rect x="594.1" y="165" width="2.7" height="15.0" fill="rgb(228,109,26)" rx="2" ry="2" />
<text  x="597.07" y="175.5" ></text>
</g>
<g >
<title>HFilter8_SSE2 (1,769,875 samples, 0.44%)</title><rect x="337.5" y="229" width="5.2" height="15.0" fill="rgb(215,48,11)" rx="2" ry="2" />
<text  x="340.52" y="239.5" ></text>
</g>
<g >
<title>HFilter8i_SSE2 (1,710,620 samples, 0.42%)</title><rect x="342.7" y="229" width="5.0" height="15.0" fill="rgb(237,148,35)" rx="2" ry="2" />
<text  x="345.67" y="239.5" ></text>
</g>
<g >
<title>VP8ParseQuant (920,335 samples, 0.23%)</title><rect x="187.1" y="245" width="2.7" height="15.0" fill="rgb(238,154,37)" rx="2" ry="2" />
<text  x="190.13" y="255.5" ></text>
</g>
<g >
<title>__sysvec_apic_timer_interrupt (924,058 samples, 0.23%)</title><rect x="594.1" y="181" width="2.7" height="15.0" fill="rgb(242,173,41)" rx="2" ry="2" />
<text  x="597.07" y="191.5" ></text>
</g>
<g >
<title>task_tick_fair (924,058 samples, 0.23%)</title><rect x="594.1" y="69" width="2.7" height="15.0" fill="rgb(217,57,13)" rx="2" ry="2" />
<text  x="597.07" y="79.5" ></text>
</g>
<g >
<title>entry_SYSCALL_64_after_hwframe (477,086 samples, 0.12%)</title><rect x="1171.1" y="229" width="1.4" height="15.0" fill="rgb(218,63,15)" rx="2" ry="2" />
<text  x="1174.15" y="239.5" ></text>
</g>
<g >
<title>HD4_C (814,028 samples, 0.20%)</title><rect x="59.2" y="245" width="2.4" height="15.0" fill="rgb(226,100,23)" rx="2" ry="2" />
<text  x="62.21" y="255.5" ></text>
</g>
<g >
<title>DoFilter6_SSE2 (7,313,982 samples, 1.80%)</title><rect x="202.9" y="229" width="21.3" height="15.0" fill="rgb(237,148,35)" rx="2" ry="2" />
<text  x="205.91" y="239.5" >D..</text>
</g>
<g >
<title>DC4_C (8,905,845 samples, 2.20%)</title><rect x="17.4" y="245" width="25.9" height="15.0" fill="rgb(209,18,4)" rx="2" ry="2" />
<text  x="20.43" y="255.5" >D..</text>
</g>
<g >
<title>VE8uv_SSE2 (1,846,741 samples, 0.46%)</title><rect x="399.3" y="229" width="5.4" height="15.0" fill="rgb(227,104,24)" rx="2" ry="2" />
<text  x="402.33" y="239.5" ></text>
</g>
<g >
<title>VFilter16i_SSE2 (1,695,185 samples, 0.42%)</title><rect x="141.3" y="245" width="4.9" height="15.0" fill="rgb(243,175,42)" rx="2" ry="2" />
<text  x="144.30" y="255.5" ></text>
</g>
<g >
<title>TransformWHT_C (912,327 samples, 0.22%)</title><rect x="378.8" y="229" width="2.6" height="15.0" fill="rgb(221,76,18)" rx="2" ry="2" />
<text  x="381.79" y="239.5" ></text>
</g>
<g >
<title>TM16_SSE2 (907,249 samples, 0.22%)</title><rect x="371.4" y="229" width="2.7" height="15.0" fill="rgb(253,222,53)" rx="2" ry="2" />
<text  x="374.42" y="239.5" ></text>
</g>
<g >
<title>map_vdso (361,333 samples, 0.09%)</title><rect x="1171.5" y="133" width="1.0" height="15.0" fill="rgb(227,103,24)" rx="2" ry="2" />
<text  x="1174.49" y="143.5" ></text>
</g>
<g >
<title>__libc_write (461,734 samples, 0.11%)</title><rect x="1167.3" y="229" width="1.3" height="15.0" fill="rgb(238,154,37)" rx="2" ry="2" />
<text  x="1170.26" y="239.5" ></text>
</g>
<g >
<title>do_user_addr_fault (683,152 samples, 0.17%)</title><rect x="1165.3" y="165" width="2.0" height="15.0" fill="rgb(228,108,25)" rx="2" ry="2" />
<text  x="1168.27" y="175.5" ></text>
</g>
<g >
<title>BuildHuffmanTable (1,747,526 samples, 0.43%)</title><rect x="12.3" y="245" width="5.1" height="15.0" fill="rgb(226,101,24)" rx="2" ry="2" />
<text  x="15.34" y="255.5" ></text>
</g>
<g >
<title>bprm_execve (477,086 samples, 0.12%)</title><rect x="1171.1" y="165" width="1.4" height="15.0" fill="rgb(218,61,14)" rx="2" ry="2" />
<text  x="1174.15" y="175.5" ></text>
</g>
<g >
<title>GetCoeffsFast (176,199,652 samples, 43.45%)</title><rect x="642.0" y="213" width="512.6" height="15.0" fill="rgb(219,64,15)" rx="2" ry="2" />
<text  x="644.97" y="223.5" >GetCoeffsFast</text>
</g>
<g >
<title>ApplyInverseTransforms (804,691 samples, 0.20%)</title><rect x="10.0" y="245" width="2.3" height="15.0" fill="rgb(220,69,16)" rx="2" ry="2" />
<text  x="13.00" y="255.5" ></text>
</g>
<g >
<title>handle_mm_fault (683,152 samples, 0.17%)</title><rect x="1165.3" y="149" width="2.0" height="15.0" fill="rgb(234,135,32)" rx="2" ry="2" />
<text  x="1168.27" y="159.5" ></text>
</g>
<g >
<title>__install_special_mapping (361,333 samples, 0.09%)</title><rect x="1171.5" y="117" width="1.0" height="15.0" fill="rgb(212,35,8)" rx="2" ry="2" />
<text  x="1174.49" y="127.5" ></text>
</g>
<g >
<title>perf_event_mmap (361,333 samples, 0.09%)</title><rect x="1171.5" y="101" width="1.0" height="15.0" fill="rgb(229,112,26)" rx="2" ry="2" />
<text  x="1174.49" y="111.5" ></text>
</g>
<g >
<title>vma_alloc_folio (823,207 samples, 0.20%)</title><rect x="638.3" y="117" width="2.3" height="15.0" fill="rgb(245,187,44)" rx="2" ry="2" />
<text  x="641.25" y="127.5" ></text>
</g>
<g >
<title>_raw_spin_trylock (823,207 samples, 0.20%)</title><rect x="638.3" y="53" width="2.3" height="15.0" fill="rgb(222,80,19)" rx="2" ry="2" />
<text  x="641.25" y="63.5" ></text>
</g>
<g >
<title>VP8ParseIntraModeRow (46,454,509 samples, 11.45%)</title><rect x="461.6" y="229" width="135.2" height="15.0" fill="rgb(231,121,29)" rx="2" ry="2" />
<text  x="464.59" y="239.5" >VP8ParseIntraMode..</text>
</g>
<g >
<title>handle_mm_fault (1,276,089 samples, 0.31%)</title><rect x="638.3" y="149" width="3.7" height="15.0" fill="rgb(234,135,32)" rx="2" ry="2" />
<text  x="641.25" y="159.5" ></text>
</g>
<g >
<title>VP8ParseIntraModeRow (1,845,374 samples, 0.46%)</title><rect x="179.2" y="245" width="5.4" height="15.0" fill="rgb(231,121,29)" rx="2" ry="2" />
<text  x="182.22" y="255.5" ></text>
</g>
<g >
<title>HU4_C (1,802,016 samples, 0.44%)</title><rect x="61.6" y="245" width="5.2" height="15.0" fill="rgb(216,54,13)" rx="2" ry="2" />
<text  x="64.58" y="255.5" ></text>
</g>
<g >
<title>GetLargeValue (26,356,934 samples, 6.50%)</title><rect x="239.9" y="229" width="76.6" height="15.0" fill="rgb(243,175,42)" rx="2" ry="2" />
<text  x="242.86" y="239.5" >GetLarge..</text>
</g>
<g >
<title>TransformDC_C (4,383,248 samples, 1.08%)</title><rect x="97.3" y="245" width="12.8" height="15.0" fill="rgb(219,65,15)" rx="2" ry="2" />
<text  x="100.34" y="255.5" ></text>
</g>
<g >
<title>HFilter16_SSE2 (1,837,089 samples, 0.45%)</title><rect x="321.8" y="229" width="5.3" height="15.0" fill="rgb(211,31,7)" rx="2" ry="2" />
<text  x="324.78" y="239.5" ></text>
</g>
<g >
<title>DC8uv_SSE2 (1,820,247 samples, 0.45%)</title><rect x="197.6" y="229" width="5.3" height="15.0" fill="rgb(206,8,2)" rx="2" ry="2" />
<text  x="200.62" y="239.5" ></text>
</g>
<g >
<title>ShiftBytes (924,378 samples, 0.23%)</title><rect x="1157.3" y="213" width="2.7" height="15.0" fill="rgb(216,52,12)" rx="2" ry="2" />
<text  x="1160.33" y="223.5" ></text>
</g>
<g >
<title>count_memcg_events.constprop.0 (452,882 samples, 0.11%)</title><rect x="640.6" y="133" width="1.4" height="15.0" fill="rgb(213,41,9)" rx="2" ry="2" />
<text  x="643.65" y="143.5" ></text>
</g>
<g >
<title>__x64_sys_execve (477,086 samples, 0.12%)</title><rect x="1171.1" y="197" width="1.4" height="15.0" fill="rgb(247,193,46)" rx="2" ry="2" />
<text  x="1174.15" y="207.5" ></text>
</g>
<g >
<title>all (405,547,872 samples, 100%)</title><rect x="10.0" y="277" width="1180.0" height="15.0" fill="rgb(213,39,9)" rx="2" ry="2" />
<text  x="13.00" y="287.5" ></text>
</g>
<g >
<title>HE8uv_C (1,797,799 samples, 0.44%)</title><rect x="316.5" y="229" width="5.3" height="15.0" fill="rgb(226,98,23)" rx="2" ry="2" />
<text  x="319.54" y="239.5" ></text>
</g>
<g >
<title>__memmove_avx_unaligned_erms (683,152 samples, 0.17%)</title><rect x="1165.3" y="213" width="2.0" height="15.0" fill="rgb(205,0,0)" rx="2" ry="2" />
<text  x="1168.27" y="223.5" ></text>
</g>
<g >
<title>Transform_SSE2 (9,015,119 samples, 2.22%)</title><rect x="110.1" y="245" width="26.2" height="15.0" fill="rgb(233,129,30)" rx="2" ry="2" />
<text  x="113.09" y="255.5" >T..</text>
</g>
<g >
<title>get_page_from_freelist (823,207 samples, 0.20%)</title><rect x="638.3" y="69" width="2.3" height="15.0" fill="rgb(252,218,52)" rx="2" ry="2" />
<text  x="641.25" y="79.5" ></text>
</g>
<g >
<title>__hrtimer_run_queues (924,058 samples, 0.23%)</title><rect x="594.1" y="149" width="2.7" height="15.0" fill="rgb(237,150,35)" rx="2" ry="2" />
<text  x="597.07" y="159.5" ></text>
</g>
<g >
<title>try_charge_memcg (683,152 samples, 0.17%)</title><rect x="1165.3" y="85" width="2.0" height="15.0" fill="rgb(210,27,6)" rx="2" ry="2" />
<text  x="1168.27" y="95.5" ></text>
</g>
<g >
<title>VFilter16_SSE2 (911,609 samples, 0.22%)</title><rect x="404.7" y="229" width="2.7" height="15.0" fill="rgb(221,75,18)" rx="2" ry="2" />
<text  x="407.71" y="239.5" ></text>
</g>
<g >
<title>Transform_SSE2 (6,149,680 samples, 1.52%)</title><rect x="381.4" y="229" width="17.9" height="15.0" fill="rgb(233,129,30)" rx="2" ry="2" />
<text  x="384.44" y="239.5" ></text>
</g>
<g >
<title>__update_load_avg_se (924,058 samples, 0.23%)</title><rect x="594.1" y="37" width="2.7" height="15.0" fill="rgb(254,227,54)" rx="2" ry="2" />
<text  x="597.07" y="47.5" ></text>
</g>
<g >
<title>decode_webp_nat (405,518,139 samples, 99.99%)</title><rect x="10.0" y="261" width="1179.9" height="15.0" fill="rgb(218,61,14)" rx="2" ry="2" />
<text  x="13.00" y="271.5" >decode_webp_nat</text>
</g>
<g >
<title>sysvec_apic_timer_interrupt (871,312 samples, 0.21%)</title><rect x="14.9" y="213" width="2.5" height="15.0" fill="rgb(220,69,16)" rx="2" ry="2" />
<text  x="17.89" y="223.5" ></text>
</g>
<g >
<title>asm_exc_page_fault (683,152 samples, 0.17%)</title><rect x="1165.3" y="197" width="2.0" height="15.0" fill="rgb(225,93,22)" rx="2" ry="2" />
<text  x="1168.27" y="207.5" ></text>
</g>
<g >
<title>__handle_mm_fault (823,207 samples, 0.20%)</title><rect x="638.3" y="133" width="2.3" height="15.0" fill="rgb(207,9,2)" rx="2" ry="2" />
<text  x="641.25" y="143.5" ></text>
</g>
<g >
<title>__perf_addr_filters_adjust (361,333 samples, 0.09%)</title><rect x="1171.5" y="69" width="1.0" height="15.0" fill="rgb(247,195,46)" rx="2" ry="2" />
<text  x="1174.49" y="79.5" ></text>
</g>
<g >
<title>DC16_SSE2 (847,196 samples, 0.21%)</title><rect x="195.2" y="229" width="2.4" height="15.0" fill="rgb(221,75,17)" rx="2" ry="2" />
<text  x="198.15" y="239.5" ></text>
</g>
<g >
<title>ReconstructRow (2,589,092 samples, 0.64%)</title><rect x="69.4" y="245" width="7.5" height="15.0" fill="rgb(225,93,22)" rx="2" ry="2" />
<text  x="72.37" y="255.5" ></text>
</g>
<g >
<title>exc_page_fault (683,152 samples, 0.17%)</title><rect x="1165.3" y="181" width="2.0" height="15.0" fill="rgb(212,35,8)" rx="2" ry="2" />
<text  x="1168.27" y="191.5" ></text>
</g>
<g >
<title>VP8LReadBits (1,803,797 samples, 0.44%)</title><rect x="1160.0" y="213" width="5.3" height="15.0" fill="rgb(236,146,35)" rx="2" ry="2" />
<text  x="1163.02" y="223.5" ></text>
</g>
<g >
<title>GetLargeValue (923,515 samples, 0.23%)</title><rect x="1154.6" y="213" width="2.7" height="15.0" fill="rgb(243,175,42)" rx="2" ry="2" />
<text  x="1157.64" y="223.5" ></text>
</g>
<g >
<title>perf_iterate_ctx (361,333 samples, 0.09%)</title><rect x="1171.5" y="85" width="1.0" height="15.0" fill="rgb(205,4,0)" rx="2" ry="2" />
<text  x="1174.49" y="95.5" ></text>
</g>
<g >
<title>VP8DecodeMB (18,639,147 samples, 4.60%)</title><rect x="407.4" y="229" width="54.2" height="15.0" fill="rgb(208,18,4)" rx="2" ry="2" />
<text  x="410.36" y="239.5" >VP8De..</text>
</g>
<g >
<title>DecodeImageData (15,537,257 samples, 3.83%)</title><rect x="596.8" y="213" width="45.2" height="15.0" fill="rgb(254,229,54)" rx="2" ry="2" />
<text  x="599.76" y="223.5" >Deco..</text>
</g>
<g >
<title>asm_sysvec_apic_timer_interrupt (871,312 samples, 0.21%)</title><rect x="14.9" y="229" width="2.5" height="15.0" fill="rgb(232,127,30)" rx="2" ry="2" />
<text  x="17.89" y="239.5" ></text>
</g>
<g >
<title>sysvec_apic_timer_interrupt (924,058 samples, 0.23%)</title><rect x="594.1" y="197" width="2.7" height="15.0" fill="rgb(220,69,16)" rx="2" ry="2" />
<text  x="597.07" y="207.5" ></text>
</g>
<g >
<title>RD4_SSE2 (876,217 samples, 0.22%)</title><rect x="66.8" y="245" width="2.6" height="15.0" fill="rgb(253,224,53)" rx="2" ry="2" />
<text  x="69.82" y="255.5" ></text>
</g>
<g >
<title>scheduler_tick (924,058 samples, 0.23%)</title><rect x="594.1" y="85" width="2.7" height="15.0" fill="rgb(246,190,45)" rx="2" ry="2" />
<text  x="597.07" y="95.5" ></text>
</g>
<g >
<title>update_load_avg (924,058 samples, 0.23%)</title><rect x="594.1" y="53" width="2.7" height="15.0" fill="rgb(240,165,39)" rx="2" ry="2" />
<text  x="597.07" y="63.5" ></text>
</g>
<g >
<title>__handle_mm_fault (683,152 samples, 0.17%)</title><rect x="1165.3" y="133" width="2.0" height="15.0" fill="rgb(207,9,2)" rx="2" ry="2" />
<text  x="1168.27" y="143.5" ></text>
</g>
<g >
<title>[unknown] (336,833,175 samples, 83.06%)</title><rect x="192.5" y="245" width="980.0" height="15.0" fill="rgb(210,24,5)" rx="2" ry="2" />
<text  x="195.47" y="255.5" >[unknown]</text>
</g>
<g >
<title>VP8GetValue (1,799,115 samples, 0.44%)</title><rect x="174.0" y="245" width="5.2" height="15.0" fill="rgb(230,119,28)" rx="2" ry="2" />
<text  x="176.99" y="255.5" ></text>
</g>
</g>
</svg>
