<?xml version="1.0" standalone="no"?>
<!DOCTYPE svg PUBLIC "-//W3C//DTD SVG 1.1//EN" "http://www.w3.org/Graphics/SVG/1.1/DTD/svg11.dtd">
<svg version="1.1" width="1200" height="390" onload="init(evt)" viewBox="0 0 1200 390" xmlns="http://www.w3.org/2000/svg" xmlns:xlink="http://www.w3.org/1999/xlink">
<!-- Flame graph stack visualization. See https://github.com/brendangregg/FlameGraph for latest version, and http://www.brendangregg.com/flamegraphs.html for examples. -->
<!-- NOTES:  -->
<defs>
	<linearGradient id="background" y1="0" y2="1" x1="0" x2="0" >
		<stop stop-color="#eeeeee" offset="5%" />
		<stop stop-color="#eeeeb0" offset="95%" />
	</linearGradient>
</defs>
<style type="text/css">
	text { font-family:Verdana; font-size:12px; fill:rgb(0,0,0); }
	#search, #ignorecase { opacity:0.1; cursor:pointer; }
	#search:hover, #search.show, #ignorecase:hover, #ignorecase.show { opacity:1; }
	#subtitle { text-anchor:middle; font-color:rgb(160,160,160); }
	#title { text-anchor:middle; font-size:17px}
	#unzoom { cursor:pointer; }
	#frames > *:hover { stroke:black; stroke-width:0.5; cursor:pointer; }
	.hide { display:none; }
	.parent { opacity:0.5; }
</style>
<script type="text/ecmascript">
<![CDATA[
	"use strict";
	var details, searchbtn, unzoombtn, matchedtxt, svg, searching, currentSearchTerm, ignorecase, ignorecaseBtn;
	function init(evt) {
		details = document.getElementById("details").firstChild;
		searchbtn = document.getElementById("search");
		ignorecaseBtn = document.getElementById("ignorecase");
		unzoombtn = document.getElementById("unzoom");
		matchedtxt = document.getElementById("matched");
		svg = document.getElementsByTagName("svg")[0];
		searching = 0;
		currentSearchTerm = null;

		// use GET parameters to restore a flamegraphs state.
		var params = get_params();
		if (params.x && params.y)
			zoom(find_group(document.querySelector('[x="' + params.x + '"][y="' + params.y + '"]')));
                if (params.s) search(params.s);
	}

	// event listeners
	window.addEventListener("click", function(e) {
		var target = find_group(e.target);
		if (target) {
			if (target.nodeName == "a") {
				if (e.ctrlKey === false) return;
				e.preventDefault();
			}
			if (target.classList.contains("parent")) unzoom(true);
			zoom(target);
			if (!document.querySelector('.parent')) {
				// we have basically done a clearzoom so clear the url
				var params = get_params();
				if (params.x) delete params.x;
				if (params.y) delete params.y;
				history.replaceState(null, null, parse_params(params));
				unzoombtn.classList.add("hide");
				return;
			}

			// set parameters for zoom state
			var el = target.querySelector("rect");
			if (el && el.attributes && el.attributes.y && el.attributes._orig_x) {
				var params = get_params()
				params.x = el.attributes._orig_x.value;
				params.y = el.attributes.y.value;
				history.replaceState(null, null, parse_params(params));
			}
		}
		else if (e.target.id == "unzoom") clearzoom();
		else if (e.target.id == "search") search_prompt();
		else if (e.target.id == "ignorecase") toggle_ignorecase();
	}, false)

	// mouse-over for info
	// show
	window.addEventListener("mouseover", function(e) {
		var target = find_group(e.target);
		if (target) details.nodeValue = "Function: " + g_to_text(target);
	}, false)

	// clear
	window.addEventListener("mouseout", function(e) {
		var target = find_group(e.target);
		if (target) details.nodeValue = ' ';
	}, false)

	// ctrl-F for search
	// ctrl-I to toggle case-sensitive search
	window.addEventListener("keydown",function (e) {
		if (e.keyCode === 114 || (e.ctrlKey && e.keyCode === 70)) {
			e.preventDefault();
			search_prompt();
		}
		else if (e.ctrlKey && e.keyCode === 73) {
			e.preventDefault();
			toggle_ignorecase();
		}
	}, false)

	// functions
	function get_params() {
		var params = {};
		var paramsarr = window.location.search.substr(1).split('&');
		for (var i = 0; i < paramsarr.length; ++i) {
			var tmp = paramsarr[i].split("=");
			if (!tmp[0] || !tmp[1]) continue;
			params[tmp[0]]  = decodeURIComponent(tmp[1]);
		}
		return params;
	}
	function parse_params(params) {
		var uri = "?";
		for (var key in params) {
			uri += key + '=' + encodeURIComponent(params[key]) + '&';
		}
		if (uri.slice(-1) == "&")
			uri = uri.substring(0, uri.length - 1);
		if (uri == '?')
			uri = window.location.href.split('?')[0];
		return uri;
	}
	function find_child(node, selector) {
		var children = node.querySelectorAll(selector);
		if (children.length) return children[0];
	}
	function find_group(node) {
		var parent = node.parentElement;
		if (!parent) return;
		if (parent.id == "frames") return node;
		return find_group(parent);
	}
	function orig_save(e, attr, val) {
		if (e.attributes["_orig_" + attr] != undefined) return;
		if (e.attributes[attr] == undefined) return;
		if (val == undefined) val = e.attributes[attr].value;
		e.setAttribute("_orig_" + attr, val);
	}
	function orig_load(e, attr) {
		if (e.attributes["_orig_"+attr] == undefined) return;
		e.attributes[attr].value = e.attributes["_orig_" + attr].value;
		e.removeAttribute("_orig_"+attr);
	}
	function g_to_text(e) {
		var text = find_child(e, "title").firstChild.nodeValue;
		return (text)
	}
	function g_to_func(e) {
		var func = g_to_text(e);
		// if there's any manipulation we want to do to the function
		// name before it's searched, do it here before returning.
		return (func);
	}
	function update_text(e) {
		var r = find_child(e, "rect");
		var t = find_child(e, "text");
		var w = parseFloat(r.attributes.width.value) -3;
		var txt = find_child(e, "title").textContent.replace(/\([^(]*\)$/,"");
		t.attributes.x.value = parseFloat(r.attributes.x.value) + 3;

		// Smaller than this size won't fit anything
		if (w < 2 * 12 * 0.59) {
			t.textContent = "";
			return;
		}

		t.textContent = txt;
		var sl = t.getSubStringLength(0, txt.length);
		// check if only whitespace or if we can fit the entire string into width w
		if (/^ *$/.test(txt) || sl < w)
			return;

		// this isn't perfect, but gives a good starting point
		// and avoids calling getSubStringLength too often
		var start = Math.floor((w/sl) * txt.length);
		for (var x = start; x > 0; x = x-2) {
			if (t.getSubStringLength(0, x + 2) <= w) {
				t.textContent = txt.substring(0, x) + "..";
				return;
			}
		}
		t.textContent = "";
	}

	// zoom
	function zoom_reset(e) {
		if (e.attributes != undefined) {
			orig_load(e, "x");
			orig_load(e, "width");
		}
		if (e.childNodes == undefined) return;
		for (var i = 0, c = e.childNodes; i < c.length; i++) {
			zoom_reset(c[i]);
		}
	}
	function zoom_child(e, x, ratio) {
		if (e.attributes != undefined) {
			if (e.attributes.x != undefined) {
				orig_save(e, "x");
				e.attributes.x.value = (parseFloat(e.attributes.x.value) - x - 10) * ratio + 10;
				if (e.tagName == "text")
					e.attributes.x.value = find_child(e.parentNode, "rect[x]").attributes.x.value + 3;
			}
			if (e.attributes.width != undefined) {
				orig_save(e, "width");
				e.attributes.width.value = parseFloat(e.attributes.width.value) * ratio;
			}
		}

		if (e.childNodes == undefined) return;
		for (var i = 0, c = e.childNodes; i < c.length; i++) {
			zoom_child(c[i], x - 10, ratio);
		}
	}
	function zoom_parent(e) {
		if (e.attributes) {
			if (e.attributes.x != undefined) {
				orig_save(e, "x");
				e.attributes.x.value = 10;
			}
			if (e.attributes.width != undefined) {
				orig_save(e, "width");
				e.attributes.width.value = parseInt(svg.width.baseVal.value) - (10 * 2);
			}
		}
		if (e.childNodes == undefined) return;
		for (var i = 0, c = e.childNodes; i < c.length; i++) {
			zoom_parent(c[i]);
		}
	}
	function zoom(node) {
		var attr = find_child(node, "rect").attributes;
		var width = parseFloat(attr.width.value);
		var xmin = parseFloat(attr.x.value);
		var xmax = parseFloat(xmin + width);
		var ymin = parseFloat(attr.y.value);
		var ratio = (svg.width.baseVal.value - 2 * 10) / width;

		// XXX: Workaround for JavaScript float issues (fix me)
		var fudge = 0.0001;

		unzoombtn.classList.remove("hide");

		var el = document.getElementById("frames").children;
		for (var i = 0; i < el.length; i++) {
			var e = el[i];
			var a = find_child(e, "rect").attributes;
			var ex = parseFloat(a.x.value);
			var ew = parseFloat(a.width.value);
			var upstack;
			// Is it an ancestor
			if (0 == 0) {
				upstack = parseFloat(a.y.value) > ymin;
			} else {
				upstack = parseFloat(a.y.value) < ymin;
			}
			if (upstack) {
				// Direct ancestor
				if (ex <= xmin && (ex+ew+fudge) >= xmax) {
					e.classList.add("parent");
					zoom_parent(e);
					update_text(e);
				}
				// not in current path
				else
					e.classList.add("hide");
			}
			// Children maybe
			else {
				// no common path
				if (ex < xmin || ex + fudge >= xmax) {
					e.classList.add("hide");
				}
				else {
					zoom_child(e, xmin, ratio);
					update_text(e);
				}
			}
		}
		search();
	}
	function unzoom(dont_update_text) {
		unzoombtn.classList.add("hide");
		var el = document.getElementById("frames").children;
		for(var i = 0; i < el.length; i++) {
			el[i].classList.remove("parent");
			el[i].classList.remove("hide");
			zoom_reset(el[i]);
			if(!dont_update_text) update_text(el[i]);
		}
		search();
	}
	function clearzoom() {
		unzoom();

		// remove zoom state
		var params = get_params();
		if (params.x) delete params.x;
		if (params.y) delete params.y;
		history.replaceState(null, null, parse_params(params));
	}

	// search
	function toggle_ignorecase() {
		ignorecase = !ignorecase;
		if (ignorecase) {
			ignorecaseBtn.classList.add("show");
		} else {
			ignorecaseBtn.classList.remove("show");
		}
		reset_search();
		search();
	}
	function reset_search() {
		var el = document.querySelectorAll("#frames rect");
		for (var i = 0; i < el.length; i++) {
			orig_load(el[i], "fill")
		}
		var params = get_params();
		delete params.s;
		history.replaceState(null, null, parse_params(params));
	}
	function search_prompt() {
		if (!searching) {
			var term = prompt("Enter a search term (regexp " +
			    "allowed, eg: ^ext4_)"
			    + (ignorecase ? ", ignoring case" : "")
			    + "\nPress Ctrl-i to toggle case sensitivity", "");
			if (term != null) search(term);
		} else {
			reset_search();
			searching = 0;
			currentSearchTerm = null;
			searchbtn.classList.remove("show");
			searchbtn.firstChild.nodeValue = "Search"
			matchedtxt.classList.add("hide");
			matchedtxt.firstChild.nodeValue = ""
		}
	}
	function search(term) {
		if (term) currentSearchTerm = term;

		var re = new RegExp(currentSearchTerm, ignorecase ? 'i' : '');
		var el = document.getElementById("frames").children;
		var matches = new Object();
		var maxwidth = 0;
		for (var i = 0; i < el.length; i++) {
			var e = el[i];
			var func = g_to_func(e);
			var rect = find_child(e, "rect");
			if (func == null || rect == null)
				continue;

			// Save max width. Only works as we have a root frame
			var w = parseFloat(rect.attributes.width.value);
			if (w > maxwidth)
				maxwidth = w;

			if (func.match(re)) {
				// highlight
				var x = parseFloat(rect.attributes.x.value);
				orig_save(rect, "fill");
				rect.attributes.fill.value = "rgb(230,0,230)";

				// remember matches
				if (matches[x] == undefined) {
					matches[x] = w;
				} else {
					if (w > matches[x]) {
						// overwrite with parent
						matches[x] = w;
					}
				}
				searching = 1;
			}
		}
		if (!searching)
			return;
		var params = get_params();
		params.s = currentSearchTerm;
		history.replaceState(null, null, parse_params(params));

		searchbtn.classList.add("show");
		searchbtn.firstChild.nodeValue = "Reset Search";

		// calculate percent matched, excluding vertical overlap
		var count = 0;
		var lastx = -1;
		var lastw = 0;
		var keys = Array();
		for (k in matches) {
			if (matches.hasOwnProperty(k))
				keys.push(k);
		}
		// sort the matched frames by their x location
		// ascending, then width descending
		keys.sort(function(a, b){
			return a - b;
		});
		// Step through frames saving only the biggest bottom-up frames
		// thanks to the sort order. This relies on the tree property
		// where children are always smaller than their parents.
		var fudge = 0.0001;	// JavaScript floating point
		for (var k in keys) {
			var x = parseFloat(keys[k]);
			var w = matches[keys[k]];
			if (x >= lastx + lastw - fudge) {
				count += w;
				lastx = x;
				lastw = w;
			}
		}
		// display matched percent
		matchedtxt.classList.remove("hide");
		var pct = 100 * count / maxwidth;
		if (pct != 100) pct = pct.toFixed(1)
		matchedtxt.firstChild.nodeValue = "Matched: " + pct + "%";
	}
]]>
</script>
<rect x="0.0" y="0" width="1200.0" height="390.0" fill="url(#background)"  />
<text id="title" x="600.00" y="24" >Flame Graph</text>
<text id="details" x="10.00" y="373" > </text>
<text id="unzoom" x="10.00" y="24" class="hide">Reset Zoom</text>
<text id="search" x="1090.00" y="24" >Search</text>
<text id="ignorecase" x="1174.00" y="24" >ic</text>
<text id="matched" x="1090.00" y="373" > </text>
<g id="frames">
<g >
<title>__tunables_init (794,143 samples, 0.05%)</title><rect x="82.7" y="277" width="0.6" height="15.0" fill="rgb(237,149,35)" rx="2" ry="2" />
<text  x="85.68" y="287.5" ></text>
</g>
<g >
<title>[unknown] (89,526,480 samples, 6.16%)</title><rect x="10.0" y="245" width="72.7" height="15.0" fill="rgb(210,24,5)" rx="2" ry="2" />
<text  x="13.00" y="255.5" >[unknown]</text>
</g>
<g >
<title>w2c_decode__webp__wasmsimd_TM4_C (1,846,988 samples, 0.13%)</title><rect x="69.2" y="213" width="1.5" height="15.0" fill="rgb(232,128,30)" rx="2" ry="2" />
<text  x="72.18" y="223.5" ></text>
</g>
<g >
<title>entry_SYSCALL_64_after_hwframe (924,058 samples, 0.06%)</title><rect x="83.3" y="277" width="0.8" height="15.0" fill="rgb(218,63,15)" rx="2" ry="2" />
<text  x="86.32" y="287.5" ></text>
</g>
<g >
<title>dm_submit_bio (924,058 samples, 0.06%)</title><rect x="83.3" y="53" width="0.8" height="15.0" fill="rgb(244,179,43)" rx="2" ry="2" />
<text  x="86.32" y="63.5" ></text>
</g>
<g >
<title>w2c_decode__webp__wasmsimd_TransformTwo_C (1,847,421 samples, 0.13%)</title><rect x="833.9" y="309" width="1.5" height="15.0" fill="rgb(254,228,54)" rx="2" ry="2" />
<text  x="836.86" y="319.5" ></text>
</g>
<g >
<title>w2c_decode__webp__wasmsimd_GetLargeValue (50,808,693 samples, 3.50%)</title><rect x="551.3" y="309" width="41.2" height="15.0" fill="rgb(234,137,32)" rx="2" ry="2" />
<text  x="554.27" y="319.5" >w2c..</text>
</g>
<g >
<title>ext4_release_file (924,058 samples, 0.06%)</title><rect x="83.3" y="181" width="0.8" height="15.0" fill="rgb(225,92,22)" rx="2" ry="2" />
<text  x="86.32" y="191.5" ></text>
</g>
<g >
<title>w2c_decode__webp__wasmsimd_VP8GetValue (1,868,898 samples, 0.13%)</title><rect x="1185.5" y="309" width="1.5" height="15.0" fill="rgb(222,81,19)" rx="2" ry="2" />
<text  x="1188.45" y="319.5" ></text>
</g>
<g >
<title>w2c_decode__webp__wasmsimd_IDecode (1,848,368 samples, 0.13%)</title><rect x="33.2" y="213" width="1.5" height="15.0" fill="rgb(237,147,35)" rx="2" ry="2" />
<text  x="36.24" y="223.5" ></text>
</g>
<g >
<title>ext4_setattr (924,088 samples, 0.06%)</title><rect x="84.1" y="149" width="0.7" height="15.0" fill="rgb(230,117,28)" rx="2" ry="2" />
<text  x="87.07" y="159.5" ></text>
</g>
<g >
<title>syscall_exit_to_user_mode (924,058 samples, 0.06%)</title><rect x="83.3" y="245" width="0.8" height="15.0" fill="rgb(251,211,50)" rx="2" ry="2" />
<text  x="86.32" y="255.5" ></text>
</g>
<g >
<title>crc32c_pcl_intel_update (924,088 samples, 0.06%)</title><rect x="84.1" y="101" width="0.7" height="15.0" fill="rgb(212,33,7)" rx="2" ry="2" />
<text  x="87.07" y="111.5" ></text>
</g>
<g >
<title>ksys_write (923,928 samples, 0.06%)</title><rect x="84.8" y="245" width="0.8" height="15.0" fill="rgb(205,4,1)" rx="2" ry="2" />
<text  x="87.82" y="255.5" ></text>
</g>
<g >
<title>notify_change (924,088 samples, 0.06%)</title><rect x="84.1" y="165" width="0.7" height="15.0" fill="rgb(237,150,35)" rx="2" ry="2" />
<text  x="87.07" y="175.5" ></text>
</g>
<g >
<title>w2c_decode__webp__wasmsimd_SimpleVFilter16i_C (9,198,492 samples, 0.63%)</title><rect x="748.4" y="309" width="7.5" height="15.0" fill="rgb(251,211,50)" rx="2" ry="2" />
<text  x="751.41" y="319.5" ></text>
</g>
<g >
<title>__x64_sys_execve (236,554 samples, 0.02%)</title><rect x="85.6" y="261" width="0.2" height="15.0" fill="rgb(247,193,46)" rx="2" ry="2" />
<text  x="88.57" y="271.5" ></text>
</g>
<g >
<title>filemap_add_folio (923,928 samples, 0.06%)</title><rect x="84.8" y="133" width="0.8" height="15.0" fill="rgb(207,9,2)" rx="2" ry="2" />
<text  x="87.82" y="143.5" ></text>
</g>
<g >
<title>w2c_decode__webp__wasmsimd_RD4_C (5,541,701 samples, 0.38%)</title><rect x="36.2" y="213" width="4.5" height="15.0" fill="rgb(253,225,53)" rx="2" ry="2" />
<text  x="39.24" y="223.5" ></text>
</g>
<g >
<title>w2c_decode__webp__wasmsimd_VL4_C (923,722 samples, 0.06%)</title><rect x="78.9" y="213" width="0.8" height="15.0" fill="rgb(226,98,23)" rx="2" ry="2" />
<text  x="81.93" y="223.5" ></text>
</g>
<g >
<title>crc_41 (924,088 samples, 0.06%)</title><rect x="84.1" y="85" width="0.7" height="15.0" fill="rgb(231,123,29)" rx="2" ry="2" />
<text  x="87.07" y="95.5" ></text>
</g>
<g >
<title>w2c_decode__webp__wasmsimd_VP8ParseProba (2,770,180 samples, 0.19%)</title><rect x="1187.0" y="309" width="2.2" height="15.0" fill="rgb(216,51,12)" rx="2" ry="2" />
<text  x="1189.97" y="319.5" ></text>
</g>
<g >
<title>get_random_u64 (236,554 samples, 0.02%)</title><rect x="85.6" y="181" width="0.2" height="15.0" fill="rgb(237,150,35)" rx="2" ry="2" />
<text  x="88.57" y="191.5" ></text>
</g>
<g >
<title>w2c_decode__webp__wasmsimd_LD4_C (1,847,313 samples, 0.13%)</title><rect x="34.7" y="213" width="1.5" height="15.0" fill="rgb(242,173,41)" rx="2" ry="2" />
<text  x="37.74" y="223.5" ></text>
</g>
<g >
<title>w2c_decode__webp__wasmsimd_TransformUV_C (924,063 samples, 0.06%)</title><rect x="99.3" y="293" width="0.7" height="15.0" fill="rgb(228,108,25)" rx="2" ry="2" />
<text  x="102.26" y="303.5" ></text>
</g>
<g >
<title>lru_add_fn (923,928 samples, 0.06%)</title><rect x="84.8" y="85" width="0.8" height="15.0" fill="rgb(208,14,3)" rx="2" ry="2" />
<text  x="87.82" y="95.5" ></text>
</g>
<g >
<title>w2c_decode__webp__wasmsimd_TransformUV_C (923,325 samples, 0.06%)</title><rect x="78.2" y="213" width="0.7" height="15.0" fill="rgb(228,108,25)" rx="2" ry="2" />
<text  x="81.18" y="223.5" ></text>
</g>
<g >
<title>[unknown] (89,526,480 samples, 6.16%)</title><rect x="10.0" y="261" width="72.7" height="15.0" fill="rgb(210,24,5)" rx="2" ry="2" />
<text  x="13.00" y="271.5" >[unknown]</text>
</g>
<g >
<title>__submit_bio (924,058 samples, 0.06%)</title><rect x="83.3" y="69" width="0.8" height="15.0" fill="rgb(230,117,28)" rx="2" ry="2" />
<text  x="86.32" y="79.5" ></text>
</g>
<g >
<title>folio_batch_move_lru (923,928 samples, 0.06%)</title><rect x="84.8" y="101" width="0.8" height="15.0" fill="rgb(207,10,2)" rx="2" ry="2" />
<text  x="87.82" y="111.5" ></text>
</g>
<g >
<title>[unknown] (89,526,480 samples, 6.16%)</title><rect x="10.0" y="277" width="72.7" height="15.0" fill="rgb(210,24,5)" rx="2" ry="2" />
<text  x="13.00" y="287.5" >[unknown]</text>
</g>
<g >
<title>w2c_decode__webp__wasmsimd_ReconstructRow (35,032,531 samples, 2.41%)</title><rect x="40.7" y="213" width="28.5" height="15.0" fill="rgb(217,55,13)" rx="2" ry="2" />
<text  x="43.74" y="223.5" >w2..</text>
</g>
<g >
<title>w2c_decode__webp__wasmsimd_DC4_C (13,853,515 samples, 0.95%)</title><rect x="10.0" y="213" width="11.2" height="15.0" fill="rgb(250,210,50)" rx="2" ry="2" />
<text  x="13.00" y="223.5" ></text>
</g>
<g >
<title>__filemap_get_folio (923,928 samples, 0.06%)</title><rect x="84.8" y="149" width="0.8" height="15.0" fill="rgb(231,120,28)" rx="2" ry="2" />
<text  x="87.82" y="159.5" ></text>
</g>
<g >
<title>[unknown] (111,805,955 samples, 7.69%)</title><rect x="10.0" y="309" width="90.8" height="15.0" fill="rgb(210,24,5)" rx="2" ry="2" />
<text  x="13.00" y="319.5" >[unknown]</text>
</g>
<g >
<title>w2c_decode__webp__wasmsimd_TransformAC3_C (923,160 samples, 0.06%)</title><rect x="70.7" y="213" width="0.7" height="15.0" fill="rgb(251,211,50)" rx="2" ry="2" />
<text  x="73.68" y="223.5" ></text>
</g>
<g >
<title>folio_add_lru (923,928 samples, 0.06%)</title><rect x="84.8" y="117" width="0.8" height="15.0" fill="rgb(208,17,4)" rx="2" ry="2" />
<text  x="87.82" y="127.5" ></text>
</g>
<g >
<title>w2c_decode__webp__wasmsimd_HE4_C (922,867 samples, 0.06%)</title><rect x="29.5" y="213" width="0.7" height="15.0" fill="rgb(212,32,7)" rx="2" ry="2" />
<text  x="32.49" y="223.5" ></text>
</g>
<g >
<title>w2c_decode__webp__wasmsimd_VR4_C (3,694,772 samples, 0.25%)</title><rect x="79.7" y="213" width="3.0" height="15.0" fill="rgb(237,150,35)" rx="2" ry="2" />
<text  x="82.68" y="223.5" ></text>
</g>
<g >
<title>task_work_run (924,058 samples, 0.06%)</title><rect x="83.3" y="213" width="0.8" height="15.0" fill="rgb(209,22,5)" rx="2" ry="2" />
<text  x="86.32" y="223.5" ></text>
</g>
<g >
<title>w2c_decode__webp__wasmsimd_TransformOne_C (85,895,344 samples, 5.91%)</title><rect x="764.1" y="309" width="69.8" height="15.0" fill="rgb(209,22,5)" rx="2" ry="2" />
<text  x="767.13" y="319.5" >w2c_dec..</text>
</g>
<g >
<title>do_writepages (924,058 samples, 0.06%)</title><rect x="83.3" y="133" width="0.8" height="15.0" fill="rgb(240,164,39)" rx="2" ry="2" />
<text  x="86.32" y="143.5" ></text>
</g>
<g >
<title>w2c_decode__webp__wasmsimd_SimpleHFilter16_C (2,771,419 samples, 0.19%)</title><rect x="728.9" y="309" width="2.3" height="15.0" fill="rgb(219,67,16)" rx="2" ry="2" />
<text  x="731.92" y="319.5" ></text>
</g>
<g >
<title>__libc_write (923,928 samples, 0.06%)</title><rect x="84.8" y="293" width="0.8" height="15.0" fill="rgb(238,154,37)" rx="2" ry="2" />
<text  x="87.82" y="303.5" ></text>
</g>
<g >
<title>w2c_decode__webp__wasmsimd_DC8uv_C (1,846,753 samples, 0.13%)</title><rect x="102.3" y="309" width="1.5" height="15.0" fill="rgb(206,8,2)" rx="2" ry="2" />
<text  x="105.26" y="319.5" ></text>
</g>
<g >
<title>decode_webp_was (1,453,559,467 samples, 100.00%)</title><rect x="10.0" y="325" width="1180.0" height="15.0" fill="rgb(216,54,12)" rx="2" ry="2" />
<text  x="13.00" y="335.5" >decode_webp_was</text>
</g>
<g >
<title>w2c_decode__webp__wasmsimd_SimpleHFilter16i_C (17,548,977 samples, 1.21%)</title><rect x="731.2" y="309" width="14.2" height="15.0" fill="rgb(241,167,40)" rx="2" ry="2" />
<text  x="734.17" y="319.5" ></text>
</g>
<g >
<title>w2c_decode__webp__wasmsimd_FinishRow (923,652 samples, 0.06%)</title><rect x="103.8" y="309" width="0.7" height="15.0" fill="rgb(205,3,0)" rx="2" ry="2" />
<text  x="106.76" y="319.5" ></text>
</g>
<g >
<title>w2c_decode__webp__wasmsimd_ReconstructRow (4,619,632 samples, 0.32%)</title><rect x="94.8" y="293" width="3.7" height="15.0" fill="rgb(217,55,13)" rx="2" ry="2" />
<text  x="97.76" y="303.5" ></text>
</g>
<g >
<title>w2c_decode__webp__wasmsimd_GetCoeffsFast (2,769,734 samples, 0.19%)</title><rect x="22.7" y="213" width="2.3" height="15.0" fill="rgb(210,26,6)" rx="2" ry="2" />
<text  x="25.75" y="223.5" ></text>
</g>
<g >
<title>do_truncate (924,088 samples, 0.06%)</title><rect x="84.1" y="181" width="0.7" height="15.0" fill="rgb(216,53,12)" rx="2" ry="2" />
<text  x="87.07" y="191.5" ></text>
</g>
<g >
<title>do_syscall_64 (924,088 samples, 0.06%)</title><rect x="84.1" y="261" width="0.7" height="15.0" fill="rgb(209,20,4)" rx="2" ry="2" />
<text  x="87.07" y="271.5" ></text>
</g>
<g >
<title>w2c_decode__webp__wasmsimd_UpsampleRgbLinePair_C (430,349,554 samples, 29.61%)</title><rect x="835.4" y="309" width="349.3" height="15.0" fill="rgb(220,71,16)" rx="2" ry="2" />
<text  x="838.36" y="319.5" >w2c_decode__webp__wasmsimd_UpsampleRgbLinePair_C</text>
</g>
<g >
<title>randomize_stack_top (236,554 samples, 0.02%)</title><rect x="85.6" y="197" width="0.2" height="15.0" fill="rgb(237,147,35)" rx="2" ry="2" />
<text  x="88.57" y="207.5" ></text>
</g>
<g >
<title>__memset_avx2_unaligned_erms (1,848,066 samples, 0.13%)</title><rect x="100.8" y="309" width="1.5" height="15.0" fill="rgb(223,84,20)" rx="2" ry="2" />
<text  x="103.76" y="319.5" ></text>
</g>
<g >
<title>exit_to_user_mode_prepare (924,058 samples, 0.06%)</title><rect x="83.3" y="229" width="0.8" height="15.0" fill="rgb(228,108,25)" rx="2" ry="2" />
<text  x="86.32" y="239.5" ></text>
</g>
<g >
<title>__close_nocancel (924,058 samples, 0.06%)</title><rect x="83.3" y="293" width="0.8" height="15.0" fill="rgb(228,109,26)" rx="2" ry="2" />
<text  x="86.32" y="303.5" ></text>
</g>
<g >
<title>bprm_execve (236,554 samples, 0.02%)</title><rect x="85.6" y="229" width="0.2" height="15.0" fill="rgb(218,61,14)" rx="2" ry="2" />
<text  x="88.57" y="239.5" ></text>
</g>
<g >
<title>ext4_orphan_add (924,088 samples, 0.06%)</title><rect x="84.1" y="133" width="0.7" height="15.0" fill="rgb(218,62,15)" rx="2" ry="2" />
<text  x="87.07" y="143.5" ></text>
</g>
<g >
<title>load_elf_binary (236,554 samples, 0.02%)</title><rect x="85.6" y="213" width="0.2" height="15.0" fill="rgb(223,83,20)" rx="2" ry="2" />
<text  x="88.57" y="223.5" ></text>
</g>
<g >
<title>__fput (924,058 samples, 0.06%)</title><rect x="83.3" y="197" width="0.8" height="15.0" fill="rgb(248,200,47)" rx="2" ry="2" />
<text  x="86.32" y="207.5" ></text>
</g>
<g >
<title>w2c_decode__webp__wasmsimd_TransformDC_C (7,389,596 samples, 0.51%)</title><rect x="72.2" y="213" width="6.0" height="15.0" fill="rgb(211,27,6)" rx="2" ry="2" />
<text  x="75.18" y="223.5" ></text>
</g>
<g >
<title>__x64_sys_openat (924,088 samples, 0.06%)</title><rect x="84.1" y="245" width="0.7" height="15.0" fill="rgb(251,215,51)" rx="2" ry="2" />
<text  x="87.07" y="255.5" ></text>
</g>
<g >
<title>w2c_decode__webp__wasmsimd_IDecode (156,019,826 samples, 10.73%)</title><rect x="594.0" y="309" width="126.7" height="15.0" fill="rgb(237,147,35)" rx="2" ry="2" />
<text  x="597.02" y="319.5" >w2c_decode__web..</text>
</g>
<g >
<title>w2c_decode__webp__wasmsimd_VE4_C (924,146 samples, 0.06%)</title><rect x="1184.7" y="309" width="0.8" height="15.0" fill="rgb(221,76,18)" rx="2" ry="2" />
<text  x="1187.70" y="319.5" ></text>
</g>
<g >
<title>submit_bio_noacct (924,058 samples, 0.06%)</title><rect x="83.3" y="37" width="0.8" height="15.0" fill="rgb(211,30,7)" rx="2" ry="2" />
<text  x="86.32" y="47.5" ></text>
</g>
<g >
<title>w2c_decode__webp__wasmsimd_ReconstructRow (10,161,333 samples, 0.70%)</title><rect x="720.7" y="309" width="8.2" height="15.0" fill="rgb(217,55,13)" rx="2" ry="2" />
<text  x="723.67" y="319.5" ></text>
</g>
<g >
<title>w2c_decode__webp__wasmsimd_GetCoeffsFast (2,770,073 samples, 0.19%)</title><rect x="85.8" y="293" width="2.2" height="15.0" fill="rgb(210,26,6)" rx="2" ry="2" />
<text  x="88.76" y="303.5" ></text>
</g>
<g >
<title>all (1,453,597,759 samples, 100%)</title><rect x="10.0" y="341" width="1180.0" height="15.0" fill="rgb(213,39,9)" rx="2" ry="2" />
<text  x="13.00" y="351.5" ></text>
</g>
<g >
<title>ext4_buffered_write_iter (923,928 samples, 0.06%)</title><rect x="84.8" y="213" width="0.8" height="15.0" fill="rgb(213,40,9)" rx="2" ry="2" />
<text  x="87.82" y="223.5" ></text>
</g>
<g >
<title>filemap_fdatawrite_wbc (924,058 samples, 0.06%)</title><rect x="83.3" y="149" width="0.8" height="15.0" fill="rgb(210,25,6)" rx="2" ry="2" />
<text  x="86.32" y="159.5" ></text>
</g>
<g >
<title>ext4_io_submit (924,058 samples, 0.06%)</title><rect x="83.3" y="101" width="0.8" height="15.0" fill="rgb(214,43,10)" rx="2" ry="2" />
<text  x="86.32" y="111.5" ></text>
</g>
<g >
<title>w2c_decode__webp__wasmsimd_HE8uv_C (923,027 samples, 0.06%)</title><rect x="30.2" y="213" width="0.8" height="15.0" fill="rgb(218,60,14)" rx="2" ry="2" />
<text  x="33.24" y="223.5" ></text>
</g>
<g >
<title>w2c_decode__webp__wasmsimd_TransformDCUV_C (923,856 samples, 0.06%)</title><rect x="71.4" y="213" width="0.8" height="15.0" fill="rgb(206,6,1)" rx="2" ry="2" />
<text  x="74.43" y="223.5" ></text>
</g>
<g >
<title>entry_SYSCALL_64_after_hwframe (924,088 samples, 0.06%)</title><rect x="84.1" y="277" width="0.7" height="15.0" fill="rgb(218,63,15)" rx="2" ry="2" />
<text  x="87.07" y="287.5" ></text>
</g>
<g >
<title>w2c_decode__webp__wasmsimd_free (922,174 samples, 0.06%)</title><rect x="1189.2" y="309" width="0.8" height="15.0" fill="rgb(205,0,0)" rx="2" ry="2" />
<text  x="1192.22" y="319.5" ></text>
</g>
<g >
<title>generic_perform_write (923,928 samples, 0.06%)</title><rect x="84.8" y="197" width="0.8" height="15.0" fill="rgb(236,146,35)" rx="2" ry="2" />
<text  x="87.82" y="207.5" ></text>
</g>
<g >
<title>w2c_decode__webp__wasmsimd_DC8uv_C (1,847,151 samples, 0.13%)</title><rect x="21.2" y="213" width="1.5" height="15.0" fill="rgb(206,8,2)" rx="2" ry="2" />
<text  x="24.25" y="223.5" ></text>
</g>
<g >
<title>w2c_decode__webp__wasmsimd_GetCoeffsFast (550,346,816 samples, 37.86%)</title><rect x="104.5" y="309" width="446.8" height="15.0" fill="rgb(210,26,6)" rx="2" ry="2" />
<text  x="107.51" y="319.5" >w2c_decode__webp__wasmsimd_GetCoeffsFast</text>
</g>
<g >
<title>__libc_open64 (924,088 samples, 0.06%)</title><rect x="84.1" y="293" width="0.7" height="15.0" fill="rgb(235,140,33)" rx="2" ry="2" />
<text  x="87.07" y="303.5" ></text>
</g>
<g >
<title>path_openat (924,088 samples, 0.06%)</title><rect x="84.1" y="197" width="0.7" height="15.0" fill="rgb(249,202,48)" rx="2" ry="2" />
<text  x="87.07" y="207.5" ></text>
</g>
<g >
<title>entry_SYSCALL_64_after_hwframe (923,928 samples, 0.06%)</title><rect x="84.8" y="277" width="0.8" height="15.0" fill="rgb(218,63,15)" rx="2" ry="2" />
<text  x="87.82" y="287.5" ></text>
</g>
<g >
<title>w2c_decode__webp__wasmsimd_TransformWHT_C (924,237 samples, 0.06%)</title><rect x="100.0" y="293" width="0.8" height="15.0" fill="rgb(213,38,9)" rx="2" ry="2" />
<text  x="103.01" y="303.5" ></text>
</g>
<g >
<title>w2c_decode__webp__wasmsimd_HE16_C (1,847,747 samples, 0.13%)</title><rect x="28.0" y="213" width="1.5" height="15.0" fill="rgb(232,126,30)" rx="2" ry="2" />
<text  x="30.99" y="223.5" ></text>
</g>
<g >
<title>vfs_write (923,928 samples, 0.06%)</title><rect x="84.8" y="229" width="0.8" height="15.0" fill="rgb(250,209,50)" rx="2" ry="2" />
<text  x="87.82" y="239.5" ></text>
</g>
<g >
<title>submit_bio_noacct_nocheck (924,058 samples, 0.06%)</title><rect x="83.3" y="85" width="0.8" height="15.0" fill="rgb(225,95,22)" rx="2" ry="2" />
<text  x="86.32" y="95.5" ></text>
</g>
<g >
<title>w2c_decode__webp__wasmsimd_SimpleVFilter16_C (3,694,095 samples, 0.25%)</title><rect x="745.4" y="309" width="3.0" height="15.0" fill="rgb(229,111,26)" rx="2" ry="2" />
<text  x="748.41" y="319.5" ></text>
</g>
<g >
<title>w2c_decode__webp__wasmsimd_TransformAC3_C (7,388,089 samples, 0.51%)</title><rect x="758.1" y="309" width="6.0" height="15.0" fill="rgb(251,211,50)" rx="2" ry="2" />
<text  x="761.13" y="319.5" ></text>
</g>
<g >
<title>do_filp_open (924,088 samples, 0.06%)</title><rect x="84.1" y="213" width="0.7" height="15.0" fill="rgb(211,28,6)" rx="2" ry="2" />
<text  x="87.07" y="223.5" ></text>
</g>
<g >
<title>w2c_decode__webp__wasmsimd_HU4_C (2,771,122 samples, 0.19%)</title><rect x="31.0" y="213" width="2.2" height="15.0" fill="rgb(208,17,4)" rx="2" ry="2" />
<text  x="33.99" y="223.5" ></text>
</g>
<g >
<title>[unknown] (90,320,623 samples, 6.21%)</title><rect x="10.0" y="293" width="73.3" height="15.0" fill="rgb(210,24,5)" rx="2" ry="2" />
<text  x="13.00" y="303.5" >[unknown]</text>
</g>
<g >
<title>do_syscall_64 (924,058 samples, 0.06%)</title><rect x="83.3" y="261" width="0.8" height="15.0" fill="rgb(209,20,4)" rx="2" ry="2" />
<text  x="86.32" y="271.5" ></text>
</g>
<g >
<title>[unknown] (89,526,480 samples, 6.16%)</title><rect x="10.0" y="229" width="72.7" height="15.0" fill="rgb(210,24,5)" rx="2" ry="2" />
<text  x="13.00" y="239.5" >[unknown]</text>
</g>
<g >
<title>__filemap_fdatawrite_range (924,058 samples, 0.06%)</title><rect x="83.3" y="165" width="0.8" height="15.0" fill="rgb(233,129,30)" rx="2" ry="2" />
<text  x="86.32" y="175.5" ></text>
</g>
<g >
<title>ext4_writepages (924,058 samples, 0.06%)</title><rect x="83.3" y="117" width="0.8" height="15.0" fill="rgb(240,165,39)" rx="2" ry="2" />
<text  x="86.32" y="127.5" ></text>
</g>
<g >
<title>w2c_decode__webp__wasmsimd_HD4_C (3,695,985 samples, 0.25%)</title><rect x="25.0" y="213" width="3.0" height="15.0" fill="rgb(218,62,14)" rx="2" ry="2" />
<text  x="27.99" y="223.5" ></text>
</g>
<g >
<title>entry_SYSCALL_64_after_hwframe (236,554 samples, 0.02%)</title><rect x="85.6" y="293" width="0.2" height="15.0" fill="rgb(218,63,15)" rx="2" ry="2" />
<text  x="88.57" y="303.5" ></text>
</g>
<g >
<title>do_execveat_common.isra.0 (236,554 samples, 0.02%)</title><rect x="85.6" y="245" width="0.2" height="15.0" fill="rgb(231,123,29)" rx="2" ry="2" />
<text  x="88.57" y="255.5" ></text>
</g>
<g >
<title>w2c_decode__webp__wasmsimd_TM8uv_C (923,493 samples, 0.06%)</title><rect x="757.4" y="309" width="0.7" height="15.0" fill="rgb(238,156,37)" rx="2" ry="2" />
<text  x="760.38" y="319.5" ></text>
</g>
<g >
<title>do_syscall_64 (923,928 samples, 0.06%)</title><rect x="84.8" y="261" width="0.8" height="15.0" fill="rgb(209,20,4)" rx="2" ry="2" />
<text  x="87.82" y="271.5" ></text>
</g>
<g >
<title>ext4_superblock_csum_set (924,088 samples, 0.06%)</title><rect x="84.1" y="117" width="0.7" height="15.0" fill="rgb(232,128,30)" rx="2" ry="2" />
<text  x="87.07" y="127.5" ></text>
</g>
<g >
<title>w2c_decode__webp__wasmsimd_TM16_C (1,847,707 samples, 0.13%)</title><rect x="755.9" y="309" width="1.5" height="15.0" fill="rgb(253,222,53)" rx="2" ry="2" />
<text  x="758.88" y="319.5" ></text>
</g>
<g >
<title>ext4_da_write_begin (923,928 samples, 0.06%)</title><rect x="84.8" y="181" width="0.8" height="15.0" fill="rgb(211,32,7)" rx="2" ry="2" />
<text  x="87.82" y="191.5" ></text>
</g>
<g >
<title>do_syscall_64 (236,554 samples, 0.02%)</title><rect x="85.6" y="277" width="0.2" height="15.0" fill="rgb(209,20,4)" rx="2" ry="2" />
<text  x="88.57" y="287.5" ></text>
</g>
<g >
<title>w2c_decode__webp__wasmsimd_HE8uv_C (1,848,384 samples, 0.13%)</title><rect x="592.5" y="309" width="1.5" height="15.0" fill="rgb(218,60,14)" rx="2" ry="2" />
<text  x="595.52" y="319.5" ></text>
</g>
<g >
<title>w2c_decode__webp__wasmsimd_IDecode (8,314,920 samples, 0.57%)</title><rect x="88.0" y="293" width="6.8" height="15.0" fill="rgb(237,147,35)" rx="2" ry="2" />
<text  x="91.01" y="303.5" ></text>
</g>
<g >
<title>pagecache_get_page (923,928 samples, 0.06%)</title><rect x="84.8" y="165" width="0.8" height="15.0" fill="rgb(253,221,53)" rx="2" ry="2" />
<text  x="87.82" y="175.5" ></text>
</g>
<g >
<title>do_sys_openat2 (924,088 samples, 0.06%)</title><rect x="84.1" y="229" width="0.7" height="15.0" fill="rgb(253,221,52)" rx="2" ry="2" />
<text  x="87.07" y="239.5" ></text>
</g>
<g >
<title>w2c_decode__webp__wasmsimd_TransformOne_C (923,779 samples, 0.06%)</title><rect x="98.5" y="293" width="0.8" height="15.0" fill="rgb(209,22,5)" rx="2" ry="2" />
<text  x="101.51" y="303.5" ></text>
</g>
</g>
</svg>
