<?xml version="1.0" standalone="no"?>
<!DOCTYPE svg PUBLIC "-//W3C//DTD SVG 1.1//EN" "http://www.w3.org/Graphics/SVG/1.1/DTD/svg11.dtd">
<svg version="1.1" width="1200" height="374" onload="init(evt)" viewBox="0 0 1200 374" xmlns="http://www.w3.org/2000/svg" xmlns:xlink="http://www.w3.org/1999/xlink">
<!-- Flame graph stack visualization. See https://github.com/brendangregg/FlameGraph for latest version, and http://www.brendangregg.com/flamegraphs.html for examples. -->
<!-- NOTES:  -->
<defs>
	<linearGradient id="background" y1="0" y2="1" x1="0" x2="0" >
		<stop stop-color="#eeeeee" offset="5%" />
		<stop stop-color="#eeeeb0" offset="95%" />
	</linearGradient>
</defs>
<style type="text/css">
	text { font-family:Verdana; font-size:12px; fill:rgb(0,0,0); }
	#search, #ignorecase { opacity:0.1; cursor:pointer; }
	#search:hover, #search.show, #ignorecase:hover, #ignorecase.show { opacity:1; }
	#subtitle { text-anchor:middle; font-color:rgb(160,160,160); }
	#title { text-anchor:middle; font-size:17px}
	#unzoom { cursor:pointer; }
	#frames > *:hover { stroke:black; stroke-width:0.5; cursor:pointer; }
	.hide { display:none; }
	.parent { opacity:0.5; }
</style>
<script type="text/ecmascript">
<![CDATA[
	"use strict";
	var details, searchbtn, unzoombtn, matchedtxt, svg, searching, currentSearchTerm, ignorecase, ignorecaseBtn;
	function init(evt) {
		details = document.getElementById("details").firstChild;
		searchbtn = document.getElementById("search");
		ignorecaseBtn = document.getElementById("ignorecase");
		unzoombtn = document.getElementById("unzoom");
		matchedtxt = document.getElementById("matched");
		svg = document.getElementsByTagName("svg")[0];
		searching = 0;
		currentSearchTerm = null;

		// use GET parameters to restore a flamegraphs state.
		var params = get_params();
		if (params.x && params.y)
			zoom(find_group(document.querySelector('[x="' + params.x + '"][y="' + params.y + '"]')));
                if (params.s) search(params.s);
	}

	// event listeners
	window.addEventListener("click", function(e) {
		var target = find_group(e.target);
		if (target) {
			if (target.nodeName == "a") {
				if (e.ctrlKey === false) return;
				e.preventDefault();
			}
			if (target.classList.contains("parent")) unzoom(true);
			zoom(target);
			if (!document.querySelector('.parent')) {
				// we have basically done a clearzoom so clear the url
				var params = get_params();
				if (params.x) delete params.x;
				if (params.y) delete params.y;
				history.replaceState(null, null, parse_params(params));
				unzoombtn.classList.add("hide");
				return;
			}

			// set parameters for zoom state
			var el = target.querySelector("rect");
			if (el && el.attributes && el.attributes.y && el.attributes._orig_x) {
				var params = get_params()
				params.x = el.attributes._orig_x.value;
				params.y = el.attributes.y.value;
				history.replaceState(null, null, parse_params(params));
			}
		}
		else if (e.target.id == "unzoom") clearzoom();
		else if (e.target.id == "search") search_prompt();
		else if (e.target.id == "ignorecase") toggle_ignorecase();
	}, false)

	// mouse-over for info
	// show
	window.addEventListener("mouseover", function(e) {
		var target = find_group(e.target);
		if (target) details.nodeValue = "Function: " + g_to_text(target);
	}, false)

	// clear
	window.addEventListener("mouseout", function(e) {
		var target = find_group(e.target);
		if (target) details.nodeValue = ' ';
	}, false)

	// ctrl-F for search
	// ctrl-I to toggle case-sensitive search
	window.addEventListener("keydown",function (e) {
		if (e.keyCode === 114 || (e.ctrlKey && e.keyCode === 70)) {
			e.preventDefault();
			search_prompt();
		}
		else if (e.ctrlKey && e.keyCode === 73) {
			e.preventDefault();
			toggle_ignorecase();
		}
	}, false)

	// functions
	function get_params() {
		var params = {};
		var paramsarr = window.location.search.substr(1).split('&');
		for (var i = 0; i < paramsarr.length; ++i) {
			var tmp = paramsarr[i].split("=");
			if (!tmp[0] || !tmp[1]) continue;
			params[tmp[0]]  = decodeURIComponent(tmp[1]);
		}
		return params;
	}
	function parse_params(params) {
		var uri = "?";
		for (var key in params) {
			uri += key + '=' + encodeURIComponent(params[key]) + '&';
		}
		if (uri.slice(-1) == "&")
			uri = uri.substring(0, uri.length - 1);
		if (uri == '?')
			uri = window.location.href.split('?')[0];
		return uri;
	}
	function find_child(node, selector) {
		var children = node.querySelectorAll(selector);
		if (children.length) return children[0];
	}
	function find_group(node) {
		var parent = node.parentElement;
		if (!parent) return;
		if (parent.id == "frames") return node;
		return find_group(parent);
	}
	function orig_save(e, attr, val) {
		if (e.attributes["_orig_" + attr] != undefined) return;
		if (e.attributes[attr] == undefined) return;
		if (val == undefined) val = e.attributes[attr].value;
		e.setAttribute("_orig_" + attr, val);
	}
	function orig_load(e, attr) {
		if (e.attributes["_orig_"+attr] == undefined) return;
		e.attributes[attr].value = e.attributes["_orig_" + attr].value;
		e.removeAttribute("_orig_"+attr);
	}
	function g_to_text(e) {
		var text = find_child(e, "title").firstChild.nodeValue;
		return (text)
	}
	function g_to_func(e) {
		var func = g_to_text(e);
		// if there's any manipulation we want to do to the function
		// name before it's searched, do it here before returning.
		return (func);
	}
	function update_text(e) {
		var r = find_child(e, "rect");
		var t = find_child(e, "text");
		var w = parseFloat(r.attributes.width.value) -3;
		var txt = find_child(e, "title").textContent.replace(/\([^(]*\)$/,"");
		t.attributes.x.value = parseFloat(r.attributes.x.value) + 3;

		// Smaller than this size won't fit anything
		if (w < 2 * 12 * 0.59) {
			t.textContent = "";
			return;
		}

		t.textContent = txt;
		var sl = t.getSubStringLength(0, txt.length);
		// check if only whitespace or if we can fit the entire string into width w
		if (/^ *$/.test(txt) || sl < w)
			return;

		// this isn't perfect, but gives a good starting point
		// and avoids calling getSubStringLength too often
		var start = Math.floor((w/sl) * txt.length);
		for (var x = start; x > 0; x = x-2) {
			if (t.getSubStringLength(0, x + 2) <= w) {
				t.textContent = txt.substring(0, x) + "..";
				return;
			}
		}
		t.textContent = "";
	}

	// zoom
	function zoom_reset(e) {
		if (e.attributes != undefined) {
			orig_load(e, "x");
			orig_load(e, "width");
		}
		if (e.childNodes == undefined) return;
		for (var i = 0, c = e.childNodes; i < c.length; i++) {
			zoom_reset(c[i]);
		}
	}
	function zoom_child(e, x, ratio) {
		if (e.attributes != undefined) {
			if (e.attributes.x != undefined) {
				orig_save(e, "x");
				e.attributes.x.value = (parseFloat(e.attributes.x.value) - x - 10) * ratio + 10;
				if (e.tagName == "text")
					e.attributes.x.value = find_child(e.parentNode, "rect[x]").attributes.x.value + 3;
			}
			if (e.attributes.width != undefined) {
				orig_save(e, "width");
				e.attributes.width.value = parseFloat(e.attributes.width.value) * ratio;
			}
		}

		if (e.childNodes == undefined) return;
		for (var i = 0, c = e.childNodes; i < c.length; i++) {
			zoom_child(c[i], x - 10, ratio);
		}
	}
	function zoom_parent(e) {
		if (e.attributes) {
			if (e.attributes.x != undefined) {
				orig_save(e, "x");
				e.attributes.x.value = 10;
			}
			if (e.attributes.width != undefined) {
				orig_save(e, "width");
				e.attributes.width.value = parseInt(svg.width.baseVal.value) - (10 * 2);
			}
		}
		if (e.childNodes == undefined) return;
		for (var i = 0, c = e.childNodes; i < c.length; i++) {
			zoom_parent(c[i]);
		}
	}
	function zoom(node) {
		var attr = find_child(node, "rect").attributes;
		var width = parseFloat(attr.width.value);
		var xmin = parseFloat(attr.x.value);
		var xmax = parseFloat(xmin + width);
		var ymin = parseFloat(attr.y.value);
		var ratio = (svg.width.baseVal.value - 2 * 10) / width;

		// XXX: Workaround for JavaScript float issues (fix me)
		var fudge = 0.0001;

		unzoombtn.classList.remove("hide");

		var el = document.getElementById("frames").children;
		for (var i = 0; i < el.length; i++) {
			var e = el[i];
			var a = find_child(e, "rect").attributes;
			var ex = parseFloat(a.x.value);
			var ew = parseFloat(a.width.value);
			var upstack;
			// Is it an ancestor
			if (0 == 0) {
				upstack = parseFloat(a.y.value) > ymin;
			} else {
				upstack = parseFloat(a.y.value) < ymin;
			}
			if (upstack) {
				// Direct ancestor
				if (ex <= xmin && (ex+ew+fudge) >= xmax) {
					e.classList.add("parent");
					zoom_parent(e);
					update_text(e);
				}
				// not in current path
				else
					e.classList.add("hide");
			}
			// Children maybe
			else {
				// no common path
				if (ex < xmin || ex + fudge >= xmax) {
					e.classList.add("hide");
				}
				else {
					zoom_child(e, xmin, ratio);
					update_text(e);
				}
			}
		}
		search();
	}
	function unzoom(dont_update_text) {
		unzoombtn.classList.add("hide");
		var el = document.getElementById("frames").children;
		for(var i = 0; i < el.length; i++) {
			el[i].classList.remove("parent");
			el[i].classList.remove("hide");
			zoom_reset(el[i]);
			if(!dont_update_text) update_text(el[i]);
		}
		search();
	}
	function clearzoom() {
		unzoom();

		// remove zoom state
		var params = get_params();
		if (params.x) delete params.x;
		if (params.y) delete params.y;
		history.replaceState(null, null, parse_params(params));
	}

	// search
	function toggle_ignorecase() {
		ignorecase = !ignorecase;
		if (ignorecase) {
			ignorecaseBtn.classList.add("show");
		} else {
			ignorecaseBtn.classList.remove("show");
		}
		reset_search();
		search();
	}
	function reset_search() {
		var el = document.querySelectorAll("#frames rect");
		for (var i = 0; i < el.length; i++) {
			orig_load(el[i], "fill")
		}
		var params = get_params();
		delete params.s;
		history.replaceState(null, null, parse_params(params));
	}
	function search_prompt() {
		if (!searching) {
			var term = prompt("Enter a search term (regexp " +
			    "allowed, eg: ^ext4_)"
			    + (ignorecase ? ", ignoring case" : "")
			    + "\nPress Ctrl-i to toggle case sensitivity", "");
			if (term != null) search(term);
		} else {
			reset_search();
			searching = 0;
			currentSearchTerm = null;
			searchbtn.classList.remove("show");
			searchbtn.firstChild.nodeValue = "Search"
			matchedtxt.classList.add("hide");
			matchedtxt.firstChild.nodeValue = ""
		}
	}
	function search(term) {
		if (term) currentSearchTerm = term;

		var re = new RegExp(currentSearchTerm, ignorecase ? 'i' : '');
		var el = document.getElementById("frames").children;
		var matches = new Object();
		var maxwidth = 0;
		for (var i = 0; i < el.length; i++) {
			var e = el[i];
			var func = g_to_func(e);
			var rect = find_child(e, "rect");
			if (func == null || rect == null)
				continue;

			// Save max width. Only works as we have a root frame
			var w = parseFloat(rect.attributes.width.value);
			if (w > maxwidth)
				maxwidth = w;

			if (func.match(re)) {
				// highlight
				var x = parseFloat(rect.attributes.x.value);
				orig_save(rect, "fill");
				rect.attributes.fill.value = "rgb(230,0,230)";

				// remember matches
				if (matches[x] == undefined) {
					matches[x] = w;
				} else {
					if (w > matches[x]) {
						// overwrite with parent
						matches[x] = w;
					}
				}
				searching = 1;
			}
		}
		if (!searching)
			return;
		var params = get_params();
		params.s = currentSearchTerm;
		history.replaceState(null, null, parse_params(params));

		searchbtn.classList.add("show");
		searchbtn.firstChild.nodeValue = "Reset Search";

		// calculate percent matched, excluding vertical overlap
		var count = 0;
		var lastx = -1;
		var lastw = 0;
		var keys = Array();
		for (k in matches) {
			if (matches.hasOwnProperty(k))
				keys.push(k);
		}
		// sort the matched frames by their x location
		// ascending, then width descending
		keys.sort(function(a, b){
			return a - b;
		});
		// Step through frames saving only the biggest bottom-up frames
		// thanks to the sort order. This relies on the tree property
		// where children are always smaller than their parents.
		var fudge = 0.0001;	// JavaScript floating point
		for (var k in keys) {
			var x = parseFloat(keys[k]);
			var w = matches[keys[k]];
			if (x >= lastx + lastw - fudge) {
				count += w;
				lastx = x;
				lastw = w;
			}
		}
		// display matched percent
		matchedtxt.classList.remove("hide");
		var pct = 100 * count / maxwidth;
		if (pct != 100) pct = pct.toFixed(1)
		matchedtxt.firstChild.nodeValue = "Matched: " + pct + "%";
	}
]]>
</script>
<rect x="0.0" y="0" width="1200.0" height="374.0" fill="url(#background)"  />
<text id="title" x="600.00" y="24" >Flame Graph</text>
<text id="details" x="10.00" y="357" > </text>
<text id="unzoom" x="10.00" y="24" class="hide">Reset Zoom</text>
<text id="search" x="1090.00" y="24" >Search</text>
<text id="ignorecase" x="1174.00" y="24" >ic</text>
<text id="matched" x="1090.00" y="357" > </text>
<g id="frames">
<g >
<title>w2c_decode__webp__wasmsimd_memset (1,846,556 samples, 0.18%)</title><rect x="1187.8" y="293" width="2.2" height="15.0" fill="rgb(249,206,49)" rx="2" ry="2" />
<text  x="1190.81" y="303.5" ></text>
</g>
<g >
<title>folio_add_lru (448,220 samples, 0.04%)</title><rect x="1185.1" y="197" width="0.6" height="15.0" fill="rgb(208,17,4)" rx="2" ry="2" />
<text  x="1188.13" y="207.5" ></text>
</g>
<g >
<title>w2c_decode__webp__wasmsimd_HD4_C (3,694,740 samples, 0.37%)</title><rect x="34.8" y="197" width="4.3" height="15.0" fill="rgb(218,62,14)" rx="2" ry="2" />
<text  x="37.75" y="207.5" ></text>
</g>
<g >
<title>_raw_spin_lock_irqsave (923,423 samples, 0.09%)</title><rect x="95.9" y="69" width="1.1" height="15.0" fill="rgb(247,195,46)" rx="2" ry="2" />
<text  x="98.92" y="79.5" ></text>
</g>
<g >
<title>entry_SYSCALL_64_after_hwframe (481,037 samples, 0.05%)</title><rect x="99.1" y="277" width="0.6" height="15.0" fill="rgb(218,63,15)" rx="2" ry="2" />
<text  x="102.15" y="287.5" ></text>
</g>
<g >
<title>w2c_decode__webp__wasmsimd_TransformWHT_C (924,066 samples, 0.09%)</title><rect x="1063.0" y="293" width="1.1" height="15.0" fill="rgb(213,38,9)" rx="2" ry="2" />
<text  x="1066.04" y="303.5" ></text>
</g>
<g >
<title>mprotect_fixup (456,638 samples, 0.05%)</title><rect x="95.4" y="181" width="0.5" height="15.0" fill="rgb(236,144,34)" rx="2" ry="2" />
<text  x="98.39" y="191.5" ></text>
</g>
<g >
<title>vma_mas_store (456,638 samples, 0.05%)</title><rect x="95.4" y="133" width="0.5" height="15.0" fill="rgb(221,75,18)" rx="2" ry="2" />
<text  x="98.39" y="143.5" ></text>
</g>
<g >
<title>get_page_from_freelist (384,972 samples, 0.04%)</title><rect x="1090.0" y="149" width="0.4" height="15.0" fill="rgb(252,218,52)" rx="2" ry="2" />
<text  x="1092.97" y="159.5" ></text>
</g>
<g >
<title>handle_mm_fault (448,220 samples, 0.04%)</title><rect x="1185.1" y="229" width="0.6" height="15.0" fill="rgb(234,135,32)" rx="2" ry="2" />
<text  x="1188.13" y="239.5" ></text>
</g>
<g >
<title>w2c_decode__webp__wasmsimd_memcpy (1,847,045 samples, 0.18%)</title><rect x="1185.7" y="293" width="2.1" height="15.0" fill="rgb(249,206,49)" rx="2" ry="2" />
<text  x="1188.66" y="303.5" ></text>
</g>
<g >
<title>[unknown] (73,229,261 samples, 7.24%)</title><rect x="10.0" y="229" width="85.4" height="15.0" fill="rgb(210,24,5)" rx="2" ry="2" />
<text  x="13.00" y="239.5" >[unknown]</text>
</g>
<g >
<title>handle_mm_fault (384,972 samples, 0.04%)</title><rect x="1090.0" y="229" width="0.4" height="15.0" fill="rgb(234,135,32)" rx="2" ry="2" />
<text  x="1092.97" y="239.5" ></text>
</g>
<g >
<title>w2c_decode__webp__wasmsimd_ReconstructRow (3,696,273 samples, 0.37%)</title><rect x="104.0" y="277" width="4.3" height="15.0" fill="rgb(217,55,13)" rx="2" ry="2" />
<text  x="107.02" y="287.5" ></text>
</g>
<g >
<title>__handle_mm_fault (361,327 samples, 0.04%)</title><rect x="99.3" y="85" width="0.4" height="15.0" fill="rgb(207,9,2)" rx="2" ry="2" />
<text  x="102.29" y="95.5" ></text>
</g>
<g >
<title>w2c_decode__webp__wasmsimd_LD4_SSE2 (1,848,186 samples, 0.18%)</title><rect x="44.4" y="197" width="2.2" height="15.0" fill="rgb(234,135,32)" rx="2" ry="2" />
<text  x="47.44" y="207.5" ></text>
</g>
<g >
<title>handle_mm_fault (361,327 samples, 0.04%)</title><rect x="99.3" y="101" width="0.4" height="15.0" fill="rgb(234,135,32)" rx="2" ry="2" />
<text  x="102.29" y="111.5" ></text>
</g>
<g >
<title>w2c_decode__webp__wasmsimd_Transform_SSE2 (3,332,708 samples, 0.33%)</title><rect x="89.3" y="197" width="3.9" height="15.0" fill="rgb(224,91,21)" rx="2" ry="2" />
<text  x="92.34" y="207.5" ></text>
</g>
<g >
<title>[unknown] (73,229,261 samples, 7.24%)</title><rect x="10.0" y="261" width="85.4" height="15.0" fill="rgb(210,24,5)" rx="2" ry="2" />
<text  x="13.00" y="271.5" >[unknown]</text>
</g>
<g >
<title>clear_page_rep (384,972 samples, 0.04%)</title><rect x="1090.0" y="133" width="0.4" height="15.0" fill="rgb(253,221,52)" rx="2" ry="2" />
<text  x="1092.97" y="143.5" ></text>
</g>
<g >
<title>all (1,012,007,402 samples, 100%)</title><rect x="10.0" y="325" width="1180.0" height="15.0" fill="rgb(213,39,9)" rx="2" ry="2" />
<text  x="13.00" y="335.5" ></text>
</g>
<g >
<title>entry_SYSCALL_64_after_hwframe (1,846,916 samples, 0.18%)</title><rect x="95.9" y="261" width="2.2" height="15.0" fill="rgb(218,63,15)" rx="2" ry="2" />
<text  x="98.92" y="271.5" ></text>
</g>
<g >
<title>w2c_decode__webp__wasmsimd_VR4_SSE2 (924,155 samples, 0.09%)</title><rect x="94.3" y="197" width="1.1" height="15.0" fill="rgb(229,112,26)" rx="2" ry="2" />
<text  x="97.31" y="207.5" ></text>
</g>
<g >
<title>w2c_decode__webp__wasmsimd_DC8uv_SSE2 (8,799,406 samples, 0.87%)</title><rect x="144.8" y="293" width="10.3" height="15.0" fill="rgb(248,200,48)" rx="2" ry="2" />
<text  x="147.80" y="303.5" ></text>
</g>
<g >
<title>w2c_decode__webp__wasmsimd_GetCoeffsAlt (544,668,751 samples, 53.82%)</title><rect x="157.2" y="293" width="635.1" height="15.0" fill="rgb(214,45,10)" rx="2" ry="2" />
<text  x="160.21" y="303.5" >w2c_decode__webp__wasmsimd_GetCoeffsAlt</text>
</g>
<g >
<title>w2c_decode__webp__wasmsimd_FinishRow (1,848,563 samples, 0.18%)</title><rect x="155.1" y="293" width="2.1" height="15.0" fill="rgb(205,3,0)" rx="2" ry="2" />
<text  x="158.06" y="303.5" ></text>
</g>
<g >
<title>__vma_adjust (456,638 samples, 0.05%)</title><rect x="95.4" y="149" width="0.5" height="15.0" fill="rgb(224,87,20)" rx="2" ry="2" />
<text  x="98.39" y="159.5" ></text>
</g>
<g >
<title>do_set_pte (361,327 samples, 0.04%)</title><rect x="99.3" y="37" width="0.4" height="15.0" fill="rgb(253,221,52)" rx="2" ry="2" />
<text  x="102.29" y="47.5" ></text>
</g>
<g >
<title>__alloc_pages (384,972 samples, 0.04%)</title><rect x="1090.0" y="165" width="0.4" height="15.0" fill="rgb(233,129,30)" rx="2" ry="2" />
<text  x="1092.97" y="175.5" ></text>
</g>
<g >
<title>copy_user_generic_string (923,493 samples, 0.09%)</title><rect x="97.0" y="149" width="1.1" height="15.0" fill="rgb(205,0,0)" rx="2" ry="2" />
<text  x="99.99" y="159.5" ></text>
</g>
<g >
<title>w2c_decode__webp__wasmsimd_TransformAC3_C (5,241,543 samples, 0.52%)</title><rect x="1056.9" y="293" width="6.1" height="15.0" fill="rgb(251,211,50)" rx="2" ry="2" />
<text  x="1059.93" y="303.5" ></text>
</g>
<g >
<title>w2c_decode__webp__wasmsimd_ReconstructRow (10,160,909 samples, 1.00%)</title><rect x="1041.8" y="293" width="11.9" height="15.0" fill="rgb(217,55,13)" rx="2" ry="2" />
<text  x="1044.85" y="303.5" ></text>
</g>
<g >
<title>w2c_decode__webp__wasmsimd_IDecode (2,770,912 samples, 0.27%)</title><rect x="41.2" y="197" width="3.2" height="15.0" fill="rgb(237,147,35)" rx="2" ry="2" />
<text  x="44.21" y="207.5" ></text>
</g>
<g >
<title>[unknown] (73,229,261 samples, 7.24%)</title><rect x="10.0" y="213" width="85.4" height="15.0" fill="rgb(210,24,5)" rx="2" ry="2" />
<text  x="13.00" y="223.5" >[unknown]</text>
</g>
<g >
<title>w2c_decode__webp__wasmsimd_UpsampleRgbLinePair_SSE2 (22,557,786 samples, 2.23%)</title><rect x="1064.1" y="293" width="26.3" height="15.0" fill="rgb(212,33,7)" rx="2" ry="2" />
<text  x="1067.11" y="303.5" >w..</text>
</g>
<g >
<title>exc_page_fault (448,220 samples, 0.04%)</title><rect x="1185.1" y="261" width="0.6" height="15.0" fill="rgb(212,35,8)" rx="2" ry="2" />
<text  x="1188.13" y="271.5" ></text>
</g>
<g >
<title>w2c_decode__webp__wasmsimd_TransformUV_C (923,351 samples, 0.09%)</title><rect x="88.3" y="197" width="1.0" height="15.0" fill="rgb(228,108,25)" rx="2" ry="2" />
<text  x="91.27" y="207.5" ></text>
</g>
<g >
<title>finish_fault (361,327 samples, 0.04%)</title><rect x="99.3" y="53" width="0.4" height="15.0" fill="rgb(220,72,17)" rx="2" ry="2" />
<text  x="102.29" y="63.5" ></text>
</g>
<g >
<title>__memset_avx2_unaligned_erms (1,847,669 samples, 0.18%)</title><rect x="140.5" y="293" width="2.1" height="15.0" fill="rgb(223,84,20)" rx="2" ry="2" />
<text  x="143.49" y="303.5" ></text>
</g>
<g >
<title>charge_memcg (923,367 samples, 0.09%)</title><rect x="98.1" y="165" width="1.0" height="15.0" fill="rgb(242,170,40)" rx="2" ry="2" />
<text  x="101.07" y="175.5" ></text>
</g>
<g >
<title>handle_mm_fault (923,367 samples, 0.09%)</title><rect x="98.1" y="213" width="1.0" height="15.0" fill="rgb(234,135,32)" rx="2" ry="2" />
<text  x="101.07" y="223.5" ></text>
</g>
<g >
<title>do_user_addr_fault (923,367 samples, 0.09%)</title><rect x="98.1" y="229" width="1.0" height="15.0" fill="rgb(228,108,25)" rx="2" ry="2" />
<text  x="101.07" y="239.5" ></text>
</g>
<g >
<title>cgroup_rstat_flush_locked (923,423 samples, 0.09%)</title><rect x="95.9" y="85" width="1.1" height="15.0" fill="rgb(209,19,4)" rx="2" ry="2" />
<text  x="98.92" y="95.5" ></text>
</g>
<g >
<title>w2c_decode__webp__wasmsimd_DC16_SSE2 (1,848,220 samples, 0.18%)</title><rect x="10.0" y="197" width="2.2" height="15.0" fill="rgb(213,37,8)" rx="2" ry="2" />
<text  x="13.00" y="207.5" ></text>
</g>
<g >
<title>__mem_cgroup_charge (923,367 samples, 0.09%)</title><rect x="98.1" y="181" width="1.0" height="15.0" fill="rgb(218,60,14)" rx="2" ry="2" />
<text  x="101.07" y="191.5" ></text>
</g>
<g >
<title>w2c_decode__webp__wasmsimd_IDecode (139,251,483 samples, 13.76%)</title><rect x="879.5" y="293" width="162.3" height="15.0" fill="rgb(237,147,35)" rx="2" ry="2" />
<text  x="882.48" y="303.5" >w2c_decode__webp__wa..</text>
</g>
<g >
<title>w2c_decode__webp__wasmsimd_RD4_SSE2 (1,847,017 samples, 0.18%)</title><rect x="46.6" y="197" width="2.2" height="15.0" fill="rgb(245,187,44)" rx="2" ry="2" />
<text  x="49.60" y="207.5" ></text>
</g>
<g >
<title>w2c_decode__webp__wasmsimd_VP8GetValue (1,847,028 samples, 0.18%)</title><rect x="1090.4" y="293" width="2.2" height="15.0" fill="rgb(222,81,19)" rx="2" ry="2" />
<text  x="1093.42" y="303.5" ></text>
</g>
<g >
<title>[unknown] (73,685,899 samples, 7.28%)</title><rect x="10.0" y="277" width="85.9" height="15.0" fill="rgb(210,24,5)" rx="2" ry="2" />
<text  x="13.00" y="287.5" >[unknown]</text>
</g>
<g >
<title>w2c_decode__webp__wasmsimd_TM4_SSE2 (1,808,225 samples, 0.18%)</title><rect x="71.3" y="197" width="2.1" height="15.0" fill="rgb(224,90,21)" rx="2" ry="2" />
<text  x="74.29" y="207.5" ></text>
</g>
<g >
<title>do_user_addr_fault (384,972 samples, 0.04%)</title><rect x="1090.0" y="245" width="0.4" height="15.0" fill="rgb(228,108,25)" rx="2" ry="2" />
<text  x="1092.97" y="255.5" ></text>
</g>
<g >
<title>__x64_sys_mprotect (456,638 samples, 0.05%)</title><rect x="95.4" y="213" width="0.5" height="15.0" fill="rgb(209,21,5)" rx="2" ry="2" />
<text  x="98.39" y="223.5" ></text>
</g>
<g >
<title>do_execveat_common.isra.0 (481,037 samples, 0.05%)</title><rect x="99.1" y="229" width="0.6" height="15.0" fill="rgb(231,123,29)" rx="2" ry="2" />
<text  x="102.15" y="239.5" ></text>
</g>
<g >
<title>w2c_decode__webp__wasmsimd_SimpleHFilter16_SSE2 (924,117 samples, 0.09%)</title><rect x="1053.7" y="293" width="1.1" height="15.0" fill="rgb(211,29,7)" rx="2" ry="2" />
<text  x="1056.69" y="303.5" ></text>
</g>
<g >
<title>[unknown] (73,229,261 samples, 7.24%)</title><rect x="10.0" y="245" width="85.4" height="15.0" fill="rgb(210,24,5)" rx="2" ry="2" />
<text  x="13.00" y="255.5" >[unknown]</text>
</g>
<g >
<title>do_user_addr_fault (448,220 samples, 0.04%)</title><rect x="1185.1" y="245" width="0.6" height="15.0" fill="rgb(228,108,25)" rx="2" ry="2" />
<text  x="1188.13" y="255.5" ></text>
</g>
<g >
<title>do_mprotect_pkey (456,638 samples, 0.05%)</title><rect x="95.4" y="197" width="0.5" height="15.0" fill="rgb(252,218,52)" rx="2" ry="2" />
<text  x="98.39" y="207.5" ></text>
</g>
<g >
<title>do_syscall_64 (456,638 samples, 0.05%)</title><rect x="95.4" y="229" width="0.5" height="15.0" fill="rgb(209,20,4)" rx="2" ry="2" />
<text  x="98.39" y="239.5" ></text>
</g>
<g >
<title>generic_perform_write (1,846,916 samples, 0.18%)</title><rect x="95.9" y="181" width="2.2" height="15.0" fill="rgb(236,146,35)" rx="2" ry="2" />
<text  x="98.92" y="191.5" ></text>
</g>
<g >
<title>w2c_decode__webp__wasmsimd_ReconstructRow (19,328,542 samples, 1.91%)</title><rect x="48.8" y="197" width="22.5" height="15.0" fill="rgb(217,55,13)" rx="2" ry="2" />
<text  x="51.75" y="207.5" >w..</text>
</g>
<g >
<title>do_user_addr_fault (361,327 samples, 0.04%)</title><rect x="99.3" y="117" width="0.4" height="15.0" fill="rgb(228,108,25)" rx="2" ry="2" />
<text  x="102.29" y="127.5" ></text>
</g>
<g >
<title>[unknown] (111,910,921 samples, 11.06%)</title><rect x="10.0" y="293" width="130.5" height="15.0" fill="rgb(210,24,5)" rx="2" ry="2" />
<text  x="13.00" y="303.5" >[unknown]</text>
</g>
<g >
<title>w2c_decode__webp__wasmsimd_SimpleVFilter16i_SSE2 (923,643 samples, 0.09%)</title><rect x="1055.8" y="293" width="1.1" height="15.0" fill="rgb(242,173,41)" rx="2" ry="2" />
<text  x="1058.85" y="303.5" ></text>
</g>
<g >
<title>balance_dirty_pages_ratelimited_flags (923,423 samples, 0.09%)</title><rect x="95.9" y="165" width="1.1" height="15.0" fill="rgb(207,10,2)" rx="2" ry="2" />
<text  x="98.92" y="175.5" ></text>
</g>
<g >
<title>w2c_decode__webp__wasmsimd_DC16_SSE2 (923,784 samples, 0.09%)</title><rect x="142.6" y="293" width="1.1" height="15.0" fill="rgb(213,37,8)" rx="2" ry="2" />
<text  x="145.64" y="303.5" ></text>
</g>
<g >
<title>vma_alloc_folio (384,972 samples, 0.04%)</title><rect x="1090.0" y="197" width="0.4" height="15.0" fill="rgb(245,187,44)" rx="2" ry="2" />
<text  x="1092.97" y="207.5" ></text>
</g>
<g >
<title>copy_page_from_iter_atomic (923,493 samples, 0.09%)</title><rect x="97.0" y="165" width="1.1" height="15.0" fill="rgb(231,120,28)" rx="2" ry="2" />
<text  x="99.99" y="175.5" ></text>
</g>
<g >
<title>w2c_decode__webp__wasmsimd_SimpleHFilter16i_SSE2 (923,625 samples, 0.09%)</title><rect x="1054.8" y="293" width="1.0" height="15.0" fill="rgb(233,129,31)" rx="2" ry="2" />
<text  x="1057.77" y="303.5" ></text>
</g>
<g >
<title>exc_page_fault (923,367 samples, 0.09%)</title><rect x="98.1" y="245" width="1.0" height="15.0" fill="rgb(212,35,8)" rx="2" ry="2" />
<text  x="101.07" y="255.5" ></text>
</g>
<g >
<title>asm_exc_page_fault (384,972 samples, 0.04%)</title><rect x="1090.0" y="277" width="0.4" height="15.0" fill="rgb(225,93,22)" rx="2" ry="2" />
<text  x="1092.97" y="287.5" ></text>
</g>
<g >
<title>w2c_decode__webp__wasmsimd_TransformDC_C (9,983,643 samples, 0.99%)</title><rect x="76.6" y="197" width="11.7" height="15.0" fill="rgb(211,27,6)" rx="2" ry="2" />
<text  x="79.63" y="207.5" ></text>
</g>
<g >
<title>exc_page_fault (384,972 samples, 0.04%)</title><rect x="1090.0" y="261" width="0.4" height="15.0" fill="rgb(212,35,8)" rx="2" ry="2" />
<text  x="1092.97" y="271.5" ></text>
</g>
<g >
<title>__handle_mm_fault (448,220 samples, 0.04%)</title><rect x="1185.1" y="213" width="0.6" height="15.0" fill="rgb(207,9,2)" rx="2" ry="2" />
<text  x="1188.13" y="223.5" ></text>
</g>
<g >
<title>padzero (361,327 samples, 0.04%)</title><rect x="99.3" y="181" width="0.4" height="15.0" fill="rgb(223,84,20)" rx="2" ry="2" />
<text  x="102.29" y="191.5" ></text>
</g>
<g >
<title>w2c_decode__webp__wasmsimd_GetCoeffsAlt (2,770,235 samples, 0.27%)</title><rect x="99.7" y="277" width="3.2" height="15.0" fill="rgb(214,45,10)" rx="2" ry="2" />
<text  x="102.71" y="287.5" ></text>
</g>
<g >
<title>w2c_decode__webp__wasmsimd_HE8uv_C (1,845,553 samples, 0.18%)</title><rect x="877.3" y="293" width="2.2" height="15.0" fill="rgb(218,60,14)" rx="2" ry="2" />
<text  x="880.33" y="303.5" ></text>
</g>
<g >
<title>entry_SYSCALL_64_after_hwframe (456,638 samples, 0.05%)</title><rect x="95.4" y="245" width="0.5" height="15.0" fill="rgb(218,63,15)" rx="2" ry="2" />
<text  x="98.39" y="255.5" ></text>
</g>
<g >
<title>__folio_alloc (384,972 samples, 0.04%)</title><rect x="1090.0" y="181" width="0.4" height="15.0" fill="rgb(224,91,21)" rx="2" ry="2" />
<text  x="1092.97" y="191.5" ></text>
</g>
<g >
<title>w2c_decode__webp__wasmsimd_Transform_SSE2 (27,583,479 samples, 2.73%)</title><rect x="108.3" y="277" width="32.2" height="15.0" fill="rgb(224,91,21)" rx="2" ry="2" />
<text  x="111.33" y="287.5" >w2..</text>
</g>
<g >
<title>asm_exc_page_fault (448,220 samples, 0.04%)</title><rect x="1185.1" y="277" width="0.6" height="15.0" fill="rgb(225,93,22)" rx="2" ry="2" />
<text  x="1188.13" y="287.5" ></text>
</g>
<g >
<title>do_fault (361,327 samples, 0.04%)</title><rect x="99.3" y="69" width="0.4" height="15.0" fill="rgb(248,200,47)" rx="2" ry="2" />
<text  x="102.29" y="79.5" ></text>
</g>
<g >
<title>clear_user_rep_good (361,327 samples, 0.04%)</title><rect x="99.3" y="165" width="0.4" height="15.0" fill="rgb(224,89,21)" rx="2" ry="2" />
<text  x="102.29" y="175.5" ></text>
</g>
<g >
<title>memcg_check_events (923,367 samples, 0.09%)</title><rect x="98.1" y="149" width="1.0" height="15.0" fill="rgb(206,4,1)" rx="2" ry="2" />
<text  x="101.07" y="159.5" ></text>
</g>
<g >
<title>__split_vma (456,638 samples, 0.05%)</title><rect x="95.4" y="165" width="0.5" height="15.0" fill="rgb(237,150,36)" rx="2" ry="2" />
<text  x="98.39" y="175.5" ></text>
</g>
<g >
<title>__mprotect (456,638 samples, 0.05%)</title><rect x="95.4" y="261" width="0.5" height="15.0" fill="rgb(214,43,10)" rx="2" ry="2" />
<text  x="98.39" y="271.5" ></text>
</g>
<g >
<title>w2c_decode__webp__wasmsimd_IDecode (923,715 samples, 0.09%)</title><rect x="102.9" y="277" width="1.1" height="15.0" fill="rgb(237,147,35)" rx="2" ry="2" />
<text  x="105.94" y="287.5" ></text>
</g>
<g >
<title>exc_page_fault (361,327 samples, 0.04%)</title><rect x="99.3" y="133" width="0.4" height="15.0" fill="rgb(212,35,8)" rx="2" ry="2" />
<text  x="102.29" y="143.5" ></text>
</g>
<g >
<title>set_cred_ucounts (119,710 samples, 0.01%)</title><rect x="99.1" y="165" width="0.2" height="15.0" fill="rgb(246,188,45)" rx="2" ry="2" />
<text  x="102.15" y="175.5" ></text>
</g>
<g >
<title>w2c_decode__webp__wasmsimd_HE8uv_C (924,311 samples, 0.09%)</title><rect x="40.1" y="197" width="1.1" height="15.0" fill="rgb(218,60,14)" rx="2" ry="2" />
<text  x="43.14" y="207.5" ></text>
</g>
<g >
<title>mem_cgroup_wb_stats (923,423 samples, 0.09%)</title><rect x="95.9" y="133" width="1.1" height="15.0" fill="rgb(211,28,6)" rx="2" ry="2" />
<text  x="98.92" y="143.5" ></text>
</g>
<g >
<title>w2c_decode__webp__wasmsimd_VE4_SSE2 (923,758 samples, 0.09%)</title><rect x="93.2" y="197" width="1.1" height="15.0" fill="rgb(213,38,9)" rx="2" ry="2" />
<text  x="96.23" y="207.5" ></text>
</g>
<g >
<title>folio_batch_move_lru (448,220 samples, 0.04%)</title><rect x="1185.1" y="181" width="0.6" height="15.0" fill="rgb(207,10,2)" rx="2" ry="2" />
<text  x="1188.13" y="191.5" ></text>
</g>
<g >
<title>w2c_decode__webp__wasmsimd_VP8YuvToRgb32_SSE2 (77,986,422 samples, 7.71%)</title><rect x="1094.7" y="293" width="91.0" height="15.0" fill="rgb(233,129,31)" rx="2" ry="2" />
<text  x="1097.73" y="303.5" >w2c_decode..</text>
</g>
<g >
<title>do_syscall_64 (481,037 samples, 0.05%)</title><rect x="99.1" y="261" width="0.6" height="15.0" fill="rgb(209,20,4)" rx="2" ry="2" />
<text  x="102.15" y="271.5" ></text>
</g>
<g >
<title>asm_exc_page_fault (923,367 samples, 0.09%)</title><rect x="98.1" y="261" width="1.0" height="15.0" fill="rgb(225,93,22)" rx="2" ry="2" />
<text  x="101.07" y="271.5" ></text>
</g>
<g >
<title>do_syscall_64 (1,846,916 samples, 0.18%)</title><rect x="95.9" y="245" width="2.2" height="15.0" fill="rgb(209,20,4)" rx="2" ry="2" />
<text  x="98.92" y="255.5" ></text>
</g>
<g >
<title>__x64_sys_execve (481,037 samples, 0.05%)</title><rect x="99.1" y="245" width="0.6" height="15.0" fill="rgb(247,193,46)" rx="2" ry="2" />
<text  x="102.15" y="255.5" ></text>
</g>
<g >
<title>__handle_mm_fault (923,367 samples, 0.09%)</title><rect x="98.1" y="197" width="1.0" height="15.0" fill="rgb(207,9,2)" rx="2" ry="2" />
<text  x="101.07" y="207.5" ></text>
</g>
<g >
<title>w2c_decode__webp__wasmsimd_HE4_C (923,068 samples, 0.09%)</title><rect x="39.1" y="197" width="1.0" height="15.0" fill="rgb(212,32,7)" rx="2" ry="2" />
<text  x="42.06" y="207.5" ></text>
</g>
<g >
<title>ext4_buffered_write_iter (1,846,916 samples, 0.18%)</title><rect x="95.9" y="197" width="2.2" height="15.0" fill="rgb(213,40,9)" rx="2" ry="2" />
<text  x="98.92" y="207.5" ></text>
</g>
<g >
<title>__handle_mm_fault (384,972 samples, 0.04%)</title><rect x="1090.0" y="213" width="0.4" height="15.0" fill="rgb(207,9,2)" rx="2" ry="2" />
<text  x="1092.97" y="223.5" ></text>
</g>
<g >
<title>w2c_decode__webp__wasmsimd_GetCoeffsAlt (9,222,128 samples, 0.91%)</title><rect x="24.0" y="197" width="10.8" height="15.0" fill="rgb(214,45,10)" rx="2" ry="2" />
<text  x="27.00" y="207.5" ></text>
</g>
<g >
<title>__libc_write (1,846,916 samples, 0.18%)</title><rect x="95.9" y="277" width="2.2" height="15.0" fill="rgb(238,154,37)" rx="2" ry="2" />
<text  x="98.92" y="287.5" ></text>
</g>
<g >
<title>__memmove_avx_unaligned_erms (923,367 samples, 0.09%)</title><rect x="98.1" y="277" width="1.0" height="15.0" fill="rgb(205,0,0)" rx="2" ry="2" />
<text  x="101.07" y="287.5" ></text>
</g>
<g >
<title>w2c_decode__webp__wasmsimd_DC4_C (9,234,275 samples, 0.91%)</title><rect x="12.2" y="197" width="10.7" height="15.0" fill="rgb(250,210,50)" rx="2" ry="2" />
<text  x="15.16" y="207.5" ></text>
</g>
<g >
<title>w2c_decode__webp__wasmsimd_VP8ParseProba (1,848,047 samples, 0.18%)</title><rect x="1092.6" y="293" width="2.1" height="15.0" fill="rgb(216,51,12)" rx="2" ry="2" />
<text  x="1095.57" y="303.5" ></text>
</g>
<g >
<title>vfs_write (1,846,916 samples, 0.18%)</title><rect x="95.9" y="213" width="2.2" height="15.0" fill="rgb(250,209,50)" rx="2" ry="2" />
<text  x="98.92" y="223.5" ></text>
</g>
<g >
<title>begin_new_exec (119,710 samples, 0.01%)</title><rect x="99.1" y="181" width="0.2" height="15.0" fill="rgb(245,184,44)" rx="2" ry="2" />
<text  x="102.15" y="191.5" ></text>
</g>
<g >
<title>w2c_decode__webp__wasmsimd_DC8uv_SSE2 (923,357 samples, 0.09%)</title><rect x="22.9" y="197" width="1.1" height="15.0" fill="rgb(248,200,48)" rx="2" ry="2" />
<text  x="25.92" y="207.5" ></text>
</g>
<g >
<title>w2c_decode__webp__wasmsimd_TransformDCUV_C (2,768,665 samples, 0.27%)</title><rect x="73.4" y="197" width="3.2" height="15.0" fill="rgb(206,6,1)" rx="2" ry="2" />
<text  x="76.40" y="207.5" ></text>
</g>
<g >
<title>balance_dirty_pages (923,423 samples, 0.09%)</title><rect x="95.9" y="149" width="1.1" height="15.0" fill="rgb(247,193,46)" rx="2" ry="2" />
<text  x="98.92" y="159.5" ></text>
</g>
<g >
<title>__mem_cgroup_flush_stats (923,423 samples, 0.09%)</title><rect x="95.9" y="117" width="1.1" height="15.0" fill="rgb(208,16,3)" rx="2" ry="2" />
<text  x="98.92" y="127.5" ></text>
</g>
<g >
<title>cgroup_rstat_flush_irqsafe (923,423 samples, 0.09%)</title><rect x="95.9" y="101" width="1.1" height="15.0" fill="rgb(227,103,24)" rx="2" ry="2" />
<text  x="98.92" y="111.5" ></text>
</g>
<g >
<title>decode_webp_was (1,011,976,683 samples, 100.00%)</title><rect x="10.0" y="309" width="1180.0" height="15.0" fill="rgb(216,54,12)" rx="2" ry="2" />
<text  x="13.00" y="319.5" >decode_webp_was</text>
</g>
<g >
<title>ksys_write (1,846,916 samples, 0.18%)</title><rect x="95.9" y="229" width="2.2" height="15.0" fill="rgb(205,4,1)" rx="2" ry="2" />
<text  x="98.92" y="239.5" ></text>
</g>
<g >
<title>bprm_execve (481,037 samples, 0.05%)</title><rect x="99.1" y="213" width="0.6" height="15.0" fill="rgb(218,61,14)" rx="2" ry="2" />
<text  x="102.15" y="223.5" ></text>
</g>
<g >
<title>load_elf_binary (481,037 samples, 0.05%)</title><rect x="99.1" y="197" width="0.6" height="15.0" fill="rgb(223,83,20)" rx="2" ry="2" />
<text  x="102.15" y="207.5" ></text>
</g>
<g >
<title>asm_exc_page_fault (361,327 samples, 0.04%)</title><rect x="99.3" y="149" width="0.4" height="15.0" fill="rgb(225,93,22)" rx="2" ry="2" />
<text  x="102.29" y="159.5" ></text>
</g>
<g >
<title>w2c_decode__webp__wasmsimd_DC8uvNoLeft_SSE2 (924,052 samples, 0.09%)</title><rect x="143.7" y="293" width="1.1" height="15.0" fill="rgb(226,96,23)" rx="2" ry="2" />
<text  x="146.72" y="303.5" ></text>
</g>
<g >
<title>w2c_decode__webp__wasmsimd_GetLargeValue (72,925,714 samples, 7.21%)</title><rect x="792.3" y="293" width="85.0" height="15.0" fill="rgb(234,137,32)" rx="2" ry="2" />
<text  x="795.30" y="303.5" >w2c_decode..</text>
</g>
</g>
</svg>
