<?xml version="1.0" standalone="no"?>
<!DOCTYPE svg PUBLIC "-//W3C//DTD SVG 1.1//EN" "http://www.w3.org/Graphics/SVG/1.1/DTD/svg11.dtd">
<svg version="1.1" width="1200" height="342" onload="init(evt)" viewBox="0 0 1200 342" xmlns="http://www.w3.org/2000/svg" xmlns:xlink="http://www.w3.org/1999/xlink">
<!-- Flame graph stack visualization. See https://github.com/brendangregg/FlameGraph for latest version, and http://www.brendangregg.com/flamegraphs.html for examples. -->
<!-- NOTES:  -->
<defs>
	<linearGradient id="background" y1="0" y2="1" x1="0" x2="0" >
		<stop stop-color="#eeeeee" offset="5%" />
		<stop stop-color="#eeeeb0" offset="95%" />
	</linearGradient>
</defs>
<style type="text/css">
	text { font-family:Verdana; font-size:12px; fill:rgb(0,0,0); }
	#search, #ignorecase { opacity:0.1; cursor:pointer; }
	#search:hover, #search.show, #ignorecase:hover, #ignorecase.show { opacity:1; }
	#subtitle { text-anchor:middle; font-color:rgb(160,160,160); }
	#title { text-anchor:middle; font-size:17px}
	#unzoom { cursor:pointer; }
	#frames > *:hover { stroke:black; stroke-width:0.5; cursor:pointer; }
	.hide { display:none; }
	.parent { opacity:0.5; }
</style>
<script type="text/ecmascript">
<![CDATA[
	"use strict";
	var details, searchbtn, unzoombtn, matchedtxt, svg, searching, currentSearchTerm, ignorecase, ignorecaseBtn;
	function init(evt) {
		details = document.getElementById("details").firstChild;
		searchbtn = document.getElementById("search");
		ignorecaseBtn = document.getElementById("ignorecase");
		unzoombtn = document.getElementById("unzoom");
		matchedtxt = document.getElementById("matched");
		svg = document.getElementsByTagName("svg")[0];
		searching = 0;
		currentSearchTerm = null;

		// use GET parameters to restore a flamegraphs state.
		var params = get_params();
		if (params.x && params.y)
			zoom(find_group(document.querySelector('[x="' + params.x + '"][y="' + params.y + '"]')));
                if (params.s) search(params.s);
	}

	// event listeners
	window.addEventListener("click", function(e) {
		var target = find_group(e.target);
		if (target) {
			if (target.nodeName == "a") {
				if (e.ctrlKey === false) return;
				e.preventDefault();
			}
			if (target.classList.contains("parent")) unzoom(true);
			zoom(target);
			if (!document.querySelector('.parent')) {
				// we have basically done a clearzoom so clear the url
				var params = get_params();
				if (params.x) delete params.x;
				if (params.y) delete params.y;
				history.replaceState(null, null, parse_params(params));
				unzoombtn.classList.add("hide");
				return;
			}

			// set parameters for zoom state
			var el = target.querySelector("rect");
			if (el && el.attributes && el.attributes.y && el.attributes._orig_x) {
				var params = get_params()
				params.x = el.attributes._orig_x.value;
				params.y = el.attributes.y.value;
				history.replaceState(null, null, parse_params(params));
			}
		}
		else if (e.target.id == "unzoom") clearzoom();
		else if (e.target.id == "search") search_prompt();
		else if (e.target.id == "ignorecase") toggle_ignorecase();
	}, false)

	// mouse-over for info
	// show
	window.addEventListener("mouseover", function(e) {
		var target = find_group(e.target);
		if (target) details.nodeValue = "Function: " + g_to_text(target);
	}, false)

	// clear
	window.addEventListener("mouseout", function(e) {
		var target = find_group(e.target);
		if (target) details.nodeValue = ' ';
	}, false)

	// ctrl-F for search
	// ctrl-I to toggle case-sensitive search
	window.addEventListener("keydown",function (e) {
		if (e.keyCode === 114 || (e.ctrlKey && e.keyCode === 70)) {
			e.preventDefault();
			search_prompt();
		}
		else if (e.ctrlKey && e.keyCode === 73) {
			e.preventDefault();
			toggle_ignorecase();
		}
	}, false)

	// functions
	function get_params() {
		var params = {};
		var paramsarr = window.location.search.substr(1).split('&');
		for (var i = 0; i < paramsarr.length; ++i) {
			var tmp = paramsarr[i].split("=");
			if (!tmp[0] || !tmp[1]) continue;
			params[tmp[0]]  = decodeURIComponent(tmp[1]);
		}
		return params;
	}
	function parse_params(params) {
		var uri = "?";
		for (var key in params) {
			uri += key + '=' + encodeURIComponent(params[key]) + '&';
		}
		if (uri.slice(-1) == "&")
			uri = uri.substring(0, uri.length - 1);
		if (uri == '?')
			uri = window.location.href.split('?')[0];
		return uri;
	}
	function find_child(node, selector) {
		var children = node.querySelectorAll(selector);
		if (children.length) return children[0];
	}
	function find_group(node) {
		var parent = node.parentElement;
		if (!parent) return;
		if (parent.id == "frames") return node;
		return find_group(parent);
	}
	function orig_save(e, attr, val) {
		if (e.attributes["_orig_" + attr] != undefined) return;
		if (e.attributes[attr] == undefined) return;
		if (val == undefined) val = e.attributes[attr].value;
		e.setAttribute("_orig_" + attr, val);
	}
	function orig_load(e, attr) {
		if (e.attributes["_orig_"+attr] == undefined) return;
		e.attributes[attr].value = e.attributes["_orig_" + attr].value;
		e.removeAttribute("_orig_"+attr);
	}
	function g_to_text(e) {
		var text = find_child(e, "title").firstChild.nodeValue;
		return (text)
	}
	function g_to_func(e) {
		var func = g_to_text(e);
		// if there's any manipulation we want to do to the function
		// name before it's searched, do it here before returning.
		return (func);
	}
	function update_text(e) {
		var r = find_child(e, "rect");
		var t = find_child(e, "text");
		var w = parseFloat(r.attributes.width.value) -3;
		var txt = find_child(e, "title").textContent.replace(/\([^(]*\)$/,"");
		t.attributes.x.value = parseFloat(r.attributes.x.value) + 3;

		// Smaller than this size won't fit anything
		if (w < 2 * 12 * 0.59) {
			t.textContent = "";
			return;
		}

		t.textContent = txt;
		var sl = t.getSubStringLength(0, txt.length);
		// check if only whitespace or if we can fit the entire string into width w
		if (/^ *$/.test(txt) || sl < w)
			return;

		// this isn't perfect, but gives a good starting point
		// and avoids calling getSubStringLength too often
		var start = Math.floor((w/sl) * txt.length);
		for (var x = start; x > 0; x = x-2) {
			if (t.getSubStringLength(0, x + 2) <= w) {
				t.textContent = txt.substring(0, x) + "..";
				return;
			}
		}
		t.textContent = "";
	}

	// zoom
	function zoom_reset(e) {
		if (e.attributes != undefined) {
			orig_load(e, "x");
			orig_load(e, "width");
		}
		if (e.childNodes == undefined) return;
		for (var i = 0, c = e.childNodes; i < c.length; i++) {
			zoom_reset(c[i]);
		}
	}
	function zoom_child(e, x, ratio) {
		if (e.attributes != undefined) {
			if (e.attributes.x != undefined) {
				orig_save(e, "x");
				e.attributes.x.value = (parseFloat(e.attributes.x.value) - x - 10) * ratio + 10;
				if (e.tagName == "text")
					e.attributes.x.value = find_child(e.parentNode, "rect[x]").attributes.x.value + 3;
			}
			if (e.attributes.width != undefined) {
				orig_save(e, "width");
				e.attributes.width.value = parseFloat(e.attributes.width.value) * ratio;
			}
		}

		if (e.childNodes == undefined) return;
		for (var i = 0, c = e.childNodes; i < c.length; i++) {
			zoom_child(c[i], x - 10, ratio);
		}
	}
	function zoom_parent(e) {
		if (e.attributes) {
			if (e.attributes.x != undefined) {
				orig_save(e, "x");
				e.attributes.x.value = 10;
			}
			if (e.attributes.width != undefined) {
				orig_save(e, "width");
				e.attributes.width.value = parseInt(svg.width.baseVal.value) - (10 * 2);
			}
		}
		if (e.childNodes == undefined) return;
		for (var i = 0, c = e.childNodes; i < c.length; i++) {
			zoom_parent(c[i]);
		}
	}
	function zoom(node) {
		var attr = find_child(node, "rect").attributes;
		var width = parseFloat(attr.width.value);
		var xmin = parseFloat(attr.x.value);
		var xmax = parseFloat(xmin + width);
		var ymin = parseFloat(attr.y.value);
		var ratio = (svg.width.baseVal.value - 2 * 10) / width;

		// XXX: Workaround for JavaScript float issues (fix me)
		var fudge = 0.0001;

		unzoombtn.classList.remove("hide");

		var el = document.getElementById("frames").children;
		for (var i = 0; i < el.length; i++) {
			var e = el[i];
			var a = find_child(e, "rect").attributes;
			var ex = parseFloat(a.x.value);
			var ew = parseFloat(a.width.value);
			var upstack;
			// Is it an ancestor
			if (0 == 0) {
				upstack = parseFloat(a.y.value) > ymin;
			} else {
				upstack = parseFloat(a.y.value) < ymin;
			}
			if (upstack) {
				// Direct ancestor
				if (ex <= xmin && (ex+ew+fudge) >= xmax) {
					e.classList.add("parent");
					zoom_parent(e);
					update_text(e);
				}
				// not in current path
				else
					e.classList.add("hide");
			}
			// Children maybe
			else {
				// no common path
				if (ex < xmin || ex + fudge >= xmax) {
					e.classList.add("hide");
				}
				else {
					zoom_child(e, xmin, ratio);
					update_text(e);
				}
			}
		}
		search();
	}
	function unzoom(dont_update_text) {
		unzoombtn.classList.add("hide");
		var el = document.getElementById("frames").children;
		for(var i = 0; i < el.length; i++) {
			el[i].classList.remove("parent");
			el[i].classList.remove("hide");
			zoom_reset(el[i]);
			if(!dont_update_text) update_text(el[i]);
		}
		search();
	}
	function clearzoom() {
		unzoom();

		// remove zoom state
		var params = get_params();
		if (params.x) delete params.x;
		if (params.y) delete params.y;
		history.replaceState(null, null, parse_params(params));
	}

	// search
	function toggle_ignorecase() {
		ignorecase = !ignorecase;
		if (ignorecase) {
			ignorecaseBtn.classList.add("show");
		} else {
			ignorecaseBtn.classList.remove("show");
		}
		reset_search();
		search();
	}
	function reset_search() {
		var el = document.querySelectorAll("#frames rect");
		for (var i = 0; i < el.length; i++) {
			orig_load(el[i], "fill")
		}
		var params = get_params();
		delete params.s;
		history.replaceState(null, null, parse_params(params));
	}
	function search_prompt() {
		if (!searching) {
			var term = prompt("Enter a search term (regexp " +
			    "allowed, eg: ^ext4_)"
			    + (ignorecase ? ", ignoring case" : "")
			    + "\nPress Ctrl-i to toggle case sensitivity", "");
			if (term != null) search(term);
		} else {
			reset_search();
			searching = 0;
			currentSearchTerm = null;
			searchbtn.classList.remove("show");
			searchbtn.firstChild.nodeValue = "Search"
			matchedtxt.classList.add("hide");
			matchedtxt.firstChild.nodeValue = ""
		}
	}
	function search(term) {
		if (term) currentSearchTerm = term;

		var re = new RegExp(currentSearchTerm, ignorecase ? 'i' : '');
		var el = document.getElementById("frames").children;
		var matches = new Object();
		var maxwidth = 0;
		for (var i = 0; i < el.length; i++) {
			var e = el[i];
			var func = g_to_func(e);
			var rect = find_child(e, "rect");
			if (func == null || rect == null)
				continue;

			// Save max width. Only works as we have a root frame
			var w = parseFloat(rect.attributes.width.value);
			if (w > maxwidth)
				maxwidth = w;

			if (func.match(re)) {
				// highlight
				var x = parseFloat(rect.attributes.x.value);
				orig_save(rect, "fill");
				rect.attributes.fill.value = "rgb(230,0,230)";

				// remember matches
				if (matches[x] == undefined) {
					matches[x] = w;
				} else {
					if (w > matches[x]) {
						// overwrite with parent
						matches[x] = w;
					}
				}
				searching = 1;
			}
		}
		if (!searching)
			return;
		var params = get_params();
		params.s = currentSearchTerm;
		history.replaceState(null, null, parse_params(params));

		searchbtn.classList.add("show");
		searchbtn.firstChild.nodeValue = "Reset Search";

		// calculate percent matched, excluding vertical overlap
		var count = 0;
		var lastx = -1;
		var lastw = 0;
		var keys = Array();
		for (k in matches) {
			if (matches.hasOwnProperty(k))
				keys.push(k);
		}
		// sort the matched frames by their x location
		// ascending, then width descending
		keys.sort(function(a, b){
			return a - b;
		});
		// Step through frames saving only the biggest bottom-up frames
		// thanks to the sort order. This relies on the tree property
		// where children are always smaller than their parents.
		var fudge = 0.0001;	// JavaScript floating point
		for (var k in keys) {
			var x = parseFloat(keys[k]);
			var w = matches[keys[k]];
			if (x >= lastx + lastw - fudge) {
				count += w;
				lastx = x;
				lastw = w;
			}
		}
		// display matched percent
		matchedtxt.classList.remove("hide");
		var pct = 100 * count / maxwidth;
		if (pct != 100) pct = pct.toFixed(1)
		matchedtxt.firstChild.nodeValue = "Matched: " + pct + "%";
	}
]]>
</script>
<rect x="0.0" y="0" width="1200.0" height="342.0" fill="url(#background)"  />
<text id="title" x="600.00" y="24" >Flame Graph</text>
<text id="details" x="10.00" y="325" > </text>
<text id="unzoom" x="10.00" y="24" class="hide">Reset Zoom</text>
<text id="search" x="1090.00" y="24" >Search</text>
<text id="ignorecase" x="1174.00" y="24" >ic</text>
<text id="matched" x="1090.00" y="325" > </text>
<g id="frames">
<g >
<title>cgroup_rstat_flush_locked (923,033 samples, 0.21%)</title><rect x="1171.7" y="53" width="2.4" height="15.0" fill="rgb(209,19,4)" rx="2" ry="2" />
<text  x="1174.69" y="63.5" ></text>
</g>
<g >
<title>DC8uv_SSE2 (411,000 samples, 0.09%)</title><rect x="271.3" y="245" width="1.1" height="15.0" fill="rgb(206,8,2)" rx="2" ry="2" />
<text  x="274.32" y="255.5" ></text>
</g>
<g >
<title>ext4_block_write_begin (923,010 samples, 0.21%)</title><rect x="1174.1" y="117" width="2.4" height="15.0" fill="rgb(206,4,1)" rx="2" ry="2" />
<text  x="1177.12" y="127.5" ></text>
</g>
<g >
<title>filemap_read (462,656 samples, 0.10%)</title><rect x="1170.5" y="165" width="1.2" height="15.0" fill="rgb(246,192,46)" rx="2" ry="2" />
<text  x="1173.48" y="175.5" ></text>
</g>
<g >
<title>TransformDC_C (4,619,866 samples, 1.03%)</title><rect x="482.8" y="245" width="12.1" height="15.0" fill="rgb(219,65,15)" rx="2" ry="2" />
<text  x="485.77" y="255.5" ></text>
</g>
<g >
<title>GetCoeffsFast (1,847,797 samples, 0.41%)</title><rect x="45.2" y="261" width="4.9" height="15.0" fill="rgb(219,64,15)" rx="2" ry="2" />
<text  x="48.25" y="271.5" ></text>
</g>
<g >
<title>vfs_write (1,846,043 samples, 0.41%)</title><rect x="1171.7" y="181" width="4.8" height="15.0" fill="rgb(250,209,50)" rx="2" ry="2" />
<text  x="1174.69" y="191.5" ></text>
</g>
<g >
<title>VFilter16i_SSE2 (2,771,626 samples, 0.62%)</title><rect x="133.6" y="261" width="7.3" height="15.0" fill="rgb(243,175,42)" rx="2" ry="2" />
<text  x="136.60" y="271.5" ></text>
</g>
<g >
<title>RD4_SSE2 (1,847,345 samples, 0.41%)</title><rect x="59.8" y="261" width="4.9" height="15.0" fill="rgb(253,224,53)" rx="2" ry="2" />
<text  x="62.81" y="271.5" ></text>
</g>
<g >
<title>mtree_range_walk (923,292 samples, 0.21%)</title><rect x="1179.0" y="101" width="2.4" height="15.0" fill="rgb(215,49,11)" rx="2" ry="2" />
<text  x="1181.97" y="111.5" ></text>
</g>
<g >
<title>Transform_SSE2 (8,022,123 samples, 1.79%)</title><rect x="99.5" y="261" width="21.0" height="15.0" fill="rgb(233,129,30)" rx="2" ry="2" />
<text  x="102.47" y="271.5" ></text>
</g>
<g >
<title>do_syscall_64 (923,292 samples, 0.21%)</title><rect x="1179.0" y="213" width="2.4" height="15.0" fill="rgb(209,20,4)" rx="2" ry="2" />
<text  x="1181.97" y="223.5" ></text>
</g>
<g >
<title>asm_exc_page_fault (453,851 samples, 0.10%)</title><rect x="248.5" y="245" width="1.2" height="15.0" fill="rgb(225,93,22)" rx="2" ry="2" />
<text  x="251.49" y="255.5" ></text>
</g>
<g >
<title>asm_exc_page_fault (568,353 samples, 0.13%)</title><rect x="179.7" y="245" width="1.5" height="15.0" fill="rgb(225,93,22)" rx="2" ry="2" />
<text  x="182.70" y="255.5" ></text>
</g>
<g >
<title>exc_page_fault (453,851 samples, 0.10%)</title><rect x="248.5" y="229" width="1.2" height="15.0" fill="rgb(212,35,8)" rx="2" ry="2" />
<text  x="251.49" y="239.5" ></text>
</g>
<g >
<title>VFilter8_SSE2 (3,653,866 samples, 0.81%)</title><rect x="507.0" y="245" width="9.6" height="15.0" fill="rgb(225,92,22)" rx="2" ry="2" />
<text  x="510.04" y="255.5" ></text>
</g>
<g >
<title>__libc_write (1,846,043 samples, 0.41%)</title><rect x="1171.7" y="245" width="4.8" height="15.0" fill="rgb(238,154,37)" rx="2" ry="2" />
<text  x="1174.69" y="255.5" ></text>
</g>
<g >
<title>VP8YuvToRgb32_SSE2 (11,340,128 samples, 2.52%)</title><rect x="219.9" y="261" width="29.8" height="15.0" fill="rgb(241,167,40)" rx="2" ry="2" />
<text  x="222.89" y="271.5" >VP..</text>
</g>
<g >
<title>HFilter8_SSE2 (3,694,633 samples, 0.82%)</title><rect x="441.6" y="245" width="9.7" height="15.0" fill="rgb(215,48,11)" rx="2" ry="2" />
<text  x="444.61" y="255.5" ></text>
</g>
<g >
<title>GetLargeValue (2,771,317 samples, 0.62%)</title><rect x="1158.3" y="229" width="7.3" height="15.0" fill="rgb(243,175,42)" rx="2" ry="2" />
<text  x="1161.34" y="239.5" ></text>
</g>
<g >
<title>mem_cgroup_css_rstat_flush (923,033 samples, 0.21%)</title><rect x="1171.7" y="37" width="2.4" height="15.0" fill="rgb(253,222,53)" rx="2" ry="2" />
<text  x="1174.69" y="47.5" ></text>
</g>
<g >
<title>DC4_C (4,615,398 samples, 1.03%)</title><rect x="19.7" y="261" width="12.1" height="15.0" fill="rgb(209,18,4)" rx="2" ry="2" />
<text  x="22.70" y="271.5" ></text>
</g>
<g >
<title>map_vdso (360,375 samples, 0.08%)</title><rect x="1181.7" y="149" width="0.9" height="15.0" fill="rgb(227,103,24)" rx="2" ry="2" />
<text  x="1184.69" y="159.5" ></text>
</g>
<g >
<title>DecodeImageData (15,703,973 samples, 3.50%)</title><rect x="659.3" y="229" width="41.2" height="15.0" fill="rgb(254,229,54)" rx="2" ry="2" />
<text  x="662.28" y="239.5" >Dec..</text>
</g>
<g >
<title>VP8DecodeMB (7,390,450 samples, 1.65%)</title><rect x="143.3" y="261" width="19.4" height="15.0" fill="rgb(208,18,4)" rx="2" ry="2" />
<text  x="146.30" y="271.5" ></text>
</g>
<g >
<title>UpsampleRgbLinePair_SSE2 (3,136,326 samples, 0.70%)</title><rect x="123.0" y="261" width="8.2" height="15.0" fill="rgb(220,70,16)" rx="2" ry="2" />
<text  x="125.97" y="271.5" ></text>
</g>
<g >
<title>VP8YuvToRgb32_SSE2 (924,284 samples, 0.21%)</title><rect x="654.4" y="245" width="2.5" height="15.0" fill="rgb(241,167,40)" rx="2" ry="2" />
<text  x="657.43" y="255.5" ></text>
</g>
<g >
<title>YUV444ToRGB_SSE2 (923,900 samples, 0.21%)</title><rect x="656.9" y="245" width="2.4" height="15.0" fill="rgb(247,193,46)" rx="2" ry="2" />
<text  x="659.86" y="255.5" ></text>
</g>
<g >
<title>ksys_write (1,846,043 samples, 0.41%)</title><rect x="1171.7" y="197" width="4.8" height="15.0" fill="rgb(205,4,1)" rx="2" ry="2" />
<text  x="1174.69" y="207.5" ></text>
</g>
<g >
<title>VP8ParseProba (924,285 samples, 0.21%)</title><rect x="181.2" y="261" width="2.4" height="15.0" fill="rgb(224,88,21)" rx="2" ry="2" />
<text  x="184.20" y="271.5" ></text>
</g>
<g >
<title>cgroup_rstat_flush_irqsafe (923,033 samples, 0.21%)</title><rect x="1171.7" y="69" width="2.4" height="15.0" fill="rgb(227,103,24)" rx="2" ry="2" />
<text  x="1174.69" y="79.5" ></text>
</g>
<g >
<title>ext4_da_write_begin (923,010 samples, 0.21%)</title><rect x="1174.1" y="133" width="2.4" height="15.0" fill="rgb(211,32,7)" rx="2" ry="2" />
<text  x="1177.12" y="143.5" ></text>
</g>
<g >
<title>do_group_exit (923,292 samples, 0.21%)</title><rect x="1179.0" y="181" width="2.4" height="15.0" fill="rgb(219,67,16)" rx="2" ry="2" />
<text  x="1181.97" y="191.5" ></text>
</g>
<g >
<title>balance_dirty_pages (923,033 samples, 0.21%)</title><rect x="1171.7" y="117" width="2.4" height="15.0" fill="rgb(247,193,46)" rx="2" ry="2" />
<text  x="1174.69" y="127.5" ></text>
</g>
<g >
<title>ReconstructRow (8,281,700 samples, 1.84%)</title><rect x="458.6" y="245" width="21.8" height="15.0" fill="rgb(225,93,22)" rx="2" ry="2" />
<text  x="461.59" y="255.5" >R..</text>
</g>
<g >
<title>arch_get_unmapped_area_topdown (360,375 samples, 0.08%)</title><rect x="1181.7" y="117" width="0.9" height="15.0" fill="rgb(250,208,49)" rx="2" ry="2" />
<text  x="1184.69" y="127.5" ></text>
</g>
<g >
<title>__memmove_avx_unaligned_erms (923,991 samples, 0.21%)</title><rect x="1168.1" y="229" width="2.4" height="15.0" fill="rgb(205,0,0)" rx="2" ry="2" />
<text  x="1171.05" y="239.5" ></text>
</g>
<g >
<title>__handle_mm_fault (453,851 samples, 0.10%)</title><rect x="248.5" y="181" width="1.2" height="15.0" fill="rgb(207,9,2)" rx="2" ry="2" />
<text  x="251.49" y="191.5" ></text>
</g>
<g >
<title>entry_SYSCALL_64_after_hwframe (1,846,043 samples, 0.41%)</title><rect x="1171.7" y="229" width="4.8" height="15.0" fill="rgb(218,63,15)" rx="2" ry="2" />
<text  x="1174.69" y="239.5" ></text>
</g>
<g >
<title>do_syscall_64 (474,139 samples, 0.11%)</title><rect x="1181.4" y="229" width="1.2" height="15.0" fill="rgb(209,20,4)" rx="2" ry="2" />
<text  x="1184.39" y="239.5" ></text>
</g>
<g >
<title>__x64_sys_execve (474,139 samples, 0.11%)</title><rect x="1181.4" y="213" width="1.2" height="15.0" fill="rgb(247,193,46)" rx="2" ry="2" />
<text  x="1184.39" y="223.5" ></text>
</g>
<g >
<title>VE4_SSE2 (908,260 samples, 0.20%)</title><rect x="131.2" y="261" width="2.4" height="15.0" fill="rgb(221,76,18)" rx="2" ry="2" />
<text  x="134.21" y="271.5" ></text>
</g>
<g >
<title>TransformDCUV_C (922,910 samples, 0.21%)</title><rect x="480.4" y="245" width="2.4" height="15.0" fill="rgb(214,44,10)" rx="2" ry="2" />
<text  x="483.35" y="255.5" ></text>
</g>
<g >
<title>do_syscall_64 (462,656 samples, 0.10%)</title><rect x="1170.5" y="213" width="1.2" height="15.0" fill="rgb(209,20,4)" rx="2" ry="2" />
<text  x="1173.48" y="223.5" ></text>
</g>
<g >
<title>[unknown] (346,912,290 samples, 77.23%)</title><rect x="271.3" y="261" width="911.3" height="15.0" fill="rgb(210,24,5)" rx="2" ry="2" />
<text  x="274.32" y="271.5" >[unknown]</text>
</g>
<g >
<title>acct_collect (923,292 samples, 0.21%)</title><rect x="1179.0" y="149" width="2.4" height="15.0" fill="rgb(251,214,51)" rx="2" ry="2" />
<text  x="1181.97" y="159.5" ></text>
</g>
<g >
<title>YUV444ToRGB_SSE2 (5,467,599 samples, 1.22%)</title><rect x="257.0" y="261" width="14.3" height="15.0" fill="rgb(247,193,46)" rx="2" ry="2" />
<text  x="259.96" y="271.5" ></text>
</g>
<g >
<title>VP8ParseIntraModeRow (39,585,882 samples, 8.81%)</title><rect x="548.0" y="245" width="104.0" height="15.0" fill="rgb(231,121,29)" rx="2" ry="2" />
<text  x="551.01" y="255.5" >VP8ParseIntr..</text>
</g>
<g >
<title>copy_page_to_iter (462,656 samples, 0.10%)</title><rect x="1170.5" y="149" width="1.2" height="15.0" fill="rgb(209,22,5)" rx="2" ry="2" />
<text  x="1173.48" y="159.5" ></text>
</g>
<g >
<title>mas_walk (923,292 samples, 0.21%)</title><rect x="1179.0" y="117" width="2.4" height="15.0" fill="rgb(242,170,40)" rx="2" ry="2" />
<text  x="1181.97" y="127.5" ></text>
</g>
<g >
<title>HFilter16_SSE2 (5,543,030 samples, 1.23%)</title><rect x="410.1" y="245" width="14.6" height="15.0" fill="rgb(211,31,7)" rx="2" ry="2" />
<text  x="413.13" y="255.5" ></text>
</g>
<g >
<title>ext4_buffered_write_iter (1,846,043 samples, 0.41%)</title><rect x="1171.7" y="165" width="4.8" height="15.0" fill="rgb(213,40,9)" rx="2" ry="2" />
<text  x="1174.69" y="175.5" ></text>
</g>
<g >
<title>perf_event_comm (113,764 samples, 0.03%)</title><rect x="1181.4" y="133" width="0.3" height="15.0" fill="rgb(222,82,19)" rx="2" ry="2" />
<text  x="1184.39" y="143.5" ></text>
</g>
<g >
<title>get_mem_cgroup_from_mm (453,851 samples, 0.10%)</title><rect x="248.5" y="149" width="1.2" height="15.0" fill="rgb(218,61,14)" rx="2" ry="2" />
<text  x="251.49" y="159.5" ></text>
</g>
<g >
<title>VP8GetValue (1,847,879 samples, 0.41%)</title><rect x="162.7" y="261" width="4.9" height="15.0" fill="rgb(230,119,28)" rx="2" ry="2" />
<text  x="165.71" y="271.5" ></text>
</g>
<g >
<title>begin_new_exec (113,764 samples, 0.03%)</title><rect x="1181.4" y="149" width="0.3" height="15.0" fill="rgb(245,184,44)" rx="2" ry="2" />
<text  x="1184.39" y="159.5" ></text>
</g>
<g >
<title>BuildHuffmanTable (3,692,626 samples, 0.82%)</title><rect x="10.0" y="261" width="9.7" height="15.0" fill="rgb(226,101,24)" rx="2" ry="2" />
<text  x="13.00" y="271.5" ></text>
</g>
<g >
<title>perf_iterate_sb (113,764 samples, 0.03%)</title><rect x="1181.4" y="117" width="0.3" height="15.0" fill="rgb(244,179,42)" rx="2" ry="2" />
<text  x="1184.39" y="127.5" ></text>
</g>
<g >
<title>mas_find (923,292 samples, 0.21%)</title><rect x="1179.0" y="133" width="2.4" height="15.0" fill="rgb(232,126,30)" rx="2" ry="2" />
<text  x="1181.97" y="143.5" ></text>
</g>
<g >
<title>vfs_read (462,656 samples, 0.10%)</title><rect x="1170.5" y="181" width="1.2" height="15.0" fill="rgb(224,88,21)" rx="2" ry="2" />
<text  x="1173.48" y="191.5" ></text>
</g>
<g >
<title>_exit (923,292 samples, 0.21%)</title><rect x="1179.0" y="245" width="2.4" height="15.0" fill="rgb(244,182,43)" rx="2" ry="2" />
<text  x="1181.97" y="255.5" ></text>
</g>
<g >
<title>copy_user_generic_string (462,656 samples, 0.10%)</title><rect x="1170.5" y="117" width="1.2" height="15.0" fill="rgb(205,0,0)" rx="2" ry="2" />
<text  x="1173.48" y="127.5" ></text>
</g>
<g >
<title>HU4_C (1,847,517 samples, 0.41%)</title><rect x="52.5" y="261" width="4.9" height="15.0" fill="rgb(216,54,13)" rx="2" ry="2" />
<text  x="55.53" y="271.5" ></text>
</g>
<g >
<title>__mem_cgroup_charge (453,851 samples, 0.10%)</title><rect x="248.5" y="165" width="1.2" height="15.0" fill="rgb(218,60,14)" rx="2" ry="2" />
<text  x="251.49" y="175.5" ></text>
</g>
<g >
<title>DecodeImageData (1,847,447 samples, 0.41%)</title><rect x="31.8" y="261" width="4.9" height="15.0" fill="rgb(254,229,54)" rx="2" ry="2" />
<text  x="34.82" y="271.5" ></text>
</g>
<g >
<title>[unknown] (194,597,868 samples, 43.32%)</title><rect x="659.3" y="245" width="511.2" height="15.0" fill="rgb(210,24,5)" rx="2" ry="2" />
<text  x="662.28" y="255.5" >[unknown]</text>
</g>
<g >
<title>ExtractAlphaRows (923,084 samples, 0.21%)</title><rect x="36.7" y="261" width="2.4" height="15.0" fill="rgb(243,177,42)" rx="2" ry="2" />
<text  x="39.68" y="271.5" ></text>
</g>
<g >
<title>TransformAC3_C (4,556,761 samples, 1.01%)</title><rect x="74.4" y="261" width="11.9" height="15.0" fill="rgb(209,19,4)" rx="2" ry="2" />
<text  x="77.36" y="271.5" ></text>
</g>
<g >
<title>__libc_read (462,656 samples, 0.10%)</title><rect x="1170.5" y="245" width="1.2" height="15.0" fill="rgb(212,34,8)" rx="2" ry="2" />
<text  x="1173.48" y="255.5" ></text>
</g>
<g >
<title>VP8ParseIntraModeRow (5,188,170 samples, 1.15%)</title><rect x="167.6" y="261" width="13.6" height="15.0" fill="rgb(231,121,29)" rx="2" ry="2" />
<text  x="170.57" y="271.5" ></text>
</g>
<g >
<title>__memmove_avx_unaligned_erms (923,126 samples, 0.21%)</title><rect x="1176.5" y="245" width="2.5" height="15.0" fill="rgb(205,0,0)" rx="2" ry="2" />
<text  x="1179.54" y="255.5" ></text>
</g>
<g >
<title>do_syscall_64 (1,846,043 samples, 0.41%)</title><rect x="1171.7" y="213" width="4.8" height="15.0" fill="rgb(209,20,4)" rx="2" ry="2" />
<text  x="1174.69" y="223.5" ></text>
</g>
<g >
<title>ksys_read (462,656 samples, 0.10%)</title><rect x="1170.5" y="197" width="1.2" height="15.0" fill="rgb(229,113,27)" rx="2" ry="2" />
<text  x="1173.48" y="207.5" ></text>
</g>
<g >
<title>mem_cgroup_wb_stats (923,033 samples, 0.21%)</title><rect x="1171.7" y="101" width="2.4" height="15.0" fill="rgb(211,28,6)" rx="2" ry="2" />
<text  x="1174.69" y="111.5" ></text>
</g>
<g >
<title>GetCoeffsFast (2,207,496 samples, 0.49%)</title><rect x="285.5" y="245" width="5.8" height="15.0" fill="rgb(219,64,15)" rx="2" ry="2" />
<text  x="288.51" y="255.5" ></text>
</g>
<g >
<title>do_execveat_common.isra.0 (474,139 samples, 0.11%)</title><rect x="1181.4" y="197" width="1.2" height="15.0" fill="rgb(231,123,29)" rx="2" ry="2" />
<text  x="1184.39" y="207.5" ></text>
</g>
<g >
<title>handle_mm_fault (453,851 samples, 0.10%)</title><rect x="248.5" y="197" width="1.2" height="15.0" fill="rgb(234,135,32)" rx="2" ry="2" />
<text  x="251.49" y="207.5" ></text>
</g>
<g >
<title>entry_SYSCALL_64_after_hwframe (462,656 samples, 0.10%)</title><rect x="1170.5" y="229" width="1.2" height="15.0" fill="rgb(218,63,15)" rx="2" ry="2" />
<text  x="1173.48" y="239.5" ></text>
</g>
<g >
<title>__x64_sys_exit_group (923,292 samples, 0.21%)</title><rect x="1179.0" y="197" width="2.4" height="15.0" fill="rgb(214,42,10)" rx="2" ry="2" />
<text  x="1181.97" y="207.5" ></text>
</g>
<g >
<title>Transform_SSE2 (3,693,130 samples, 0.82%)</title><rect x="494.9" y="245" width="9.7" height="15.0" fill="rgb(233,129,30)" rx="2" ry="2" />
<text  x="497.91" y="255.5" ></text>
</g>
<g >
<title>_copy_to_iter (462,656 samples, 0.10%)</title><rect x="1170.5" y="133" width="1.2" height="15.0" fill="rgb(227,105,25)" rx="2" ry="2" />
<text  x="1173.48" y="143.5" ></text>
</g>
<g >
<title>__mem_cgroup_flush_stats (923,033 samples, 0.21%)</title><rect x="1171.7" y="85" width="2.4" height="15.0" fill="rgb(208,16,3)" rx="2" ry="2" />
<text  x="1174.69" y="95.5" ></text>
</g>
<g >
<title>generic_perform_write (1,846,043 samples, 0.41%)</title><rect x="1171.7" y="149" width="4.8" height="15.0" fill="rgb(236,146,35)" rx="2" ry="2" />
<text  x="1174.69" y="159.5" ></text>
</g>
<g >
<title>VP8DecodeMB (11,941,987 samples, 2.66%)</title><rect x="516.6" y="245" width="31.4" height="15.0" fill="rgb(208,18,4)" rx="2" ry="2" />
<text  x="519.64" y="255.5" >VP..</text>
</g>
<g >
<title>entry_SYSCALL_64_after_hwframe (923,292 samples, 0.21%)</title><rect x="1179.0" y="229" width="2.4" height="15.0" fill="rgb(218,63,15)" rx="2" ry="2" />
<text  x="1181.97" y="239.5" ></text>
</g>
<g >
<title>do_user_addr_fault (453,851 samples, 0.10%)</title><rect x="248.5" y="213" width="1.2" height="15.0" fill="rgb(228,108,25)" rx="2" ry="2" />
<text  x="251.49" y="223.5" ></text>
</g>
<g >
<title>VFilter8i_SSE2 (921,488 samples, 0.21%)</title><rect x="140.9" y="261" width="2.4" height="15.0" fill="rgb(246,192,46)" rx="2" ry="2" />
<text  x="143.88" y="271.5" ></text>
</g>
<g >
<title>HE8uv_C (924,278 samples, 0.21%)</title><rect x="407.7" y="245" width="2.4" height="15.0" fill="rgb(226,98,23)" rx="2" ry="2" />
<text  x="410.70" y="255.5" ></text>
</g>
<g >
<title>DoFilter6_SSE2 (4,990,728 samples, 1.11%)</title><rect x="272.4" y="245" width="13.1" height="15.0" fill="rgb(237,148,35)" rx="2" ry="2" />
<text  x="275.40" y="255.5" ></text>
</g>
<g >
<title>GetLargeValue (44,305,782 samples, 9.86%)</title><rect x="291.3" y="245" width="116.4" height="15.0" fill="rgb(243,175,42)" rx="2" ry="2" />
<text  x="294.31" y="255.5" >GetLargeValue</text>
</g>
<g >
<title>TransformDC_C (5,002,667 samples, 1.11%)</title><rect x="86.3" y="261" width="13.2" height="15.0" fill="rgb(219,65,15)" rx="2" ry="2" />
<text  x="89.33" y="271.5" ></text>
</g>
<g >
<title>UpsampleRgbLinePair_SSE2 (924,391 samples, 0.21%)</title><rect x="504.6" y="245" width="2.4" height="15.0" fill="rgb(220,70,16)" rx="2" ry="2" />
<text  x="507.61" y="255.5" ></text>
</g>
<g >
<title>bprm_execve (474,139 samples, 0.11%)</title><rect x="1181.4" y="181" width="1.2" height="15.0" fill="rgb(218,61,14)" rx="2" ry="2" />
<text  x="1184.39" y="191.5" ></text>
</g>
<g >
<title>VR4_SSE2 (2,771,382 samples, 0.62%)</title><rect x="249.7" y="261" width="7.3" height="15.0" fill="rgb(237,150,35)" rx="2" ry="2" />
<text  x="252.68" y="271.5" ></text>
</g>
<g >
<title>all (449,193,065 samples, 100%)</title><rect x="10.0" y="293" width="1180.0" height="15.0" fill="rgb(213,39,9)" rx="2" ry="2" />
<text  x="13.00" y="303.5" ></text>
</g>
<g >
<title>load_elf_binary (474,139 samples, 0.11%)</title><rect x="1181.4" y="165" width="1.2" height="15.0" fill="rgb(223,83,20)" rx="2" ry="2" />
<text  x="1184.39" y="175.5" ></text>
</g>
<g >
<title>Upsample32Pixels_SSE2 (923,762 samples, 0.21%)</title><rect x="120.5" y="261" width="2.5" height="15.0" fill="rgb(223,83,20)" rx="2" ry="2" />
<text  x="123.55" y="271.5" ></text>
</g>
<g >
<title>ExtractGreen_SSE2 (2,339,973 samples, 0.52%)</title><rect x="39.1" y="261" width="6.1" height="15.0" fill="rgb(226,96,23)" rx="2" ry="2" />
<text  x="42.10" y="271.5" ></text>
</g>
<g >
<title>HD4_C (923,100 samples, 0.21%)</title><rect x="50.1" y="261" width="2.4" height="15.0" fill="rgb(226,100,23)" rx="2" ry="2" />
<text  x="53.10" y="271.5" ></text>
</g>
<g >
<title>HFilter8i_SSE2 (2,772,065 samples, 0.62%)</title><rect x="451.3" y="245" width="7.3" height="15.0" fill="rgb(237,148,35)" rx="2" ry="2" />
<text  x="454.31" y="255.5" ></text>
</g>
<g >
<title>decode_webp_nat (449,163,356 samples, 99.99%)</title><rect x="10.0" y="277" width="1179.9" height="15.0" fill="rgb(218,61,14)" rx="2" ry="2" />
<text  x="13.00" y="287.5" >decode_webp_nat</text>
</g>
<g >
<title>balance_dirty_pages_ratelimited_flags (923,033 samples, 0.21%)</title><rect x="1171.7" y="133" width="2.4" height="15.0" fill="rgb(207,10,2)" rx="2" ry="2" />
<text  x="1174.69" y="143.5" ></text>
</g>
<g >
<title>LD4_SSE2 (924,111 samples, 0.21%)</title><rect x="57.4" y="261" width="2.4" height="15.0" fill="rgb(242,173,41)" rx="2" ry="2" />
<text  x="60.38" y="271.5" ></text>
</g>
<g >
<title>ReconstructRow (3,692,377 samples, 0.82%)</title><rect x="64.7" y="261" width="9.7" height="15.0" fill="rgb(225,93,22)" rx="2" ry="2" />
<text  x="67.66" y="271.5" ></text>
</g>
<g >
<title>ReadHuffmanCodesHelper (923,929 samples, 0.21%)</title><rect x="1165.6" y="229" width="2.5" height="15.0" fill="rgb(209,22,5)" rx="2" ry="2" />
<text  x="1168.62" y="239.5" ></text>
</g>
<g >
<title>do_exit (923,292 samples, 0.21%)</title><rect x="1179.0" y="165" width="2.4" height="15.0" fill="rgb(231,122,29)" rx="2" ry="2" />
<text  x="1181.97" y="175.5" ></text>
</g>
<g >
<title>VP8PlanarTo24b_SSE2 (924,101 samples, 0.21%)</title><rect x="652.0" y="245" width="2.4" height="15.0" fill="rgb(208,15,3)" rx="2" ry="2" />
<text  x="655.00" y="255.5" ></text>
</g>
<g >
<title>get_unmapped_area (360,375 samples, 0.08%)</title><rect x="1181.7" y="133" width="0.9" height="15.0" fill="rgb(234,134,32)" rx="2" ry="2" />
<text  x="1184.69" y="143.5" ></text>
</g>
<g >
<title>perf_iterate_ctx (113,764 samples, 0.03%)</title><rect x="1181.4" y="101" width="0.3" height="15.0" fill="rgb(205,4,0)" rx="2" ry="2" />
<text  x="1184.39" y="111.5" ></text>
</g>
<g >
<title>GetCoeffsFast (174,274,658 samples, 38.80%)</title><rect x="700.5" y="229" width="457.8" height="15.0" fill="rgb(219,64,15)" rx="2" ry="2" />
<text  x="703.54" y="239.5" >GetCoeffsFast</text>
</g>
<g >
<title>HFilter16i_SSE2 (6,440,137 samples, 1.43%)</title><rect x="424.7" y="245" width="16.9" height="15.0" fill="rgb(233,131,31)" rx="2" ry="2" />
<text  x="427.69" y="255.5" ></text>
</g>
<g >
<title>entry_SYSCALL_64_after_hwframe (474,139 samples, 0.11%)</title><rect x="1181.4" y="245" width="1.2" height="15.0" fill="rgb(218,63,15)" rx="2" ry="2" />
<text  x="1184.39" y="255.5" ></text>
</g>
<g >
<title>VP8PlanarTo24b_SSE2 (13,804,721 samples, 3.07%)</title><rect x="183.6" y="261" width="36.3" height="15.0" fill="rgb(208,15,3)" rx="2" ry="2" />
<text  x="186.63" y="271.5" >VP8..</text>
</g>
<g >
<title>__memmove_avx_unaligned_erms (2,772,664 samples, 0.62%)</title><rect x="1182.6" y="261" width="7.3" height="15.0" fill="rgb(205,0,0)" rx="2" ry="2" />
<text  x="1185.64" y="271.5" ></text>
</g>
</g>
</svg>
