<?xml version="1.0" standalone="no"?>
<!DOCTYPE svg PUBLIC "-//W3C//DTD SVG 1.1//EN" "http://www.w3.org/Graphics/SVG/1.1/DTD/svg11.dtd">
<svg version="1.1" width="1200" height="486" onload="init(evt)" viewBox="0 0 1200 486" xmlns="http://www.w3.org/2000/svg" xmlns:xlink="http://www.w3.org/1999/xlink">
<!-- Flame graph stack visualization. See https://github.com/brendangregg/FlameGraph for latest version, and http://www.brendangregg.com/flamegraphs.html for examples. -->
<!-- NOTES:  -->
<defs>
	<linearGradient id="background" y1="0" y2="1" x1="0" x2="0" >
		<stop stop-color="#eeeeee" offset="5%" />
		<stop stop-color="#eeeeb0" offset="95%" />
	</linearGradient>
</defs>
<style type="text/css">
	text { font-family:Verdana; font-size:12px; fill:rgb(0,0,0); }
	#search, #ignorecase { opacity:0.1; cursor:pointer; }
	#search:hover, #search.show, #ignorecase:hover, #ignorecase.show { opacity:1; }
	#subtitle { text-anchor:middle; font-color:rgb(160,160,160); }
	#title { text-anchor:middle; font-size:17px}
	#unzoom { cursor:pointer; }
	#frames > *:hover { stroke:black; stroke-width:0.5; cursor:pointer; }
	.hide { display:none; }
	.parent { opacity:0.5; }
</style>
<script type="text/ecmascript">
<![CDATA[
	"use strict";
	var details, searchbtn, unzoombtn, matchedtxt, svg, searching, currentSearchTerm, ignorecase, ignorecaseBtn;
	function init(evt) {
		details = document.getElementById("details").firstChild;
		searchbtn = document.getElementById("search");
		ignorecaseBtn = document.getElementById("ignorecase");
		unzoombtn = document.getElementById("unzoom");
		matchedtxt = document.getElementById("matched");
		svg = document.getElementsByTagName("svg")[0];
		searching = 0;
		currentSearchTerm = null;

		// use GET parameters to restore a flamegraphs state.
		var params = get_params();
		if (params.x && params.y)
			zoom(find_group(document.querySelector('[x="' + params.x + '"][y="' + params.y + '"]')));
                if (params.s) search(params.s);
	}

	// event listeners
	window.addEventListener("click", function(e) {
		var target = find_group(e.target);
		if (target) {
			if (target.nodeName == "a") {
				if (e.ctrlKey === false) return;
				e.preventDefault();
			}
			if (target.classList.contains("parent")) unzoom(true);
			zoom(target);
			if (!document.querySelector('.parent')) {
				// we have basically done a clearzoom so clear the url
				var params = get_params();
				if (params.x) delete params.x;
				if (params.y) delete params.y;
				history.replaceState(null, null, parse_params(params));
				unzoombtn.classList.add("hide");
				return;
			}

			// set parameters for zoom state
			var el = target.querySelector("rect");
			if (el && el.attributes && el.attributes.y && el.attributes._orig_x) {
				var params = get_params()
				params.x = el.attributes._orig_x.value;
				params.y = el.attributes.y.value;
				history.replaceState(null, null, parse_params(params));
			}
		}
		else if (e.target.id == "unzoom") clearzoom();
		else if (e.target.id == "search") search_prompt();
		else if (e.target.id == "ignorecase") toggle_ignorecase();
	}, false)

	// mouse-over for info
	// show
	window.addEventListener("mouseover", function(e) {
		var target = find_group(e.target);
		if (target) details.nodeValue = "Function: " + g_to_text(target);
	}, false)

	// clear
	window.addEventListener("mouseout", function(e) {
		var target = find_group(e.target);
		if (target) details.nodeValue = ' ';
	}, false)

	// ctrl-F for search
	// ctrl-I to toggle case-sensitive search
	window.addEventListener("keydown",function (e) {
		if (e.keyCode === 114 || (e.ctrlKey && e.keyCode === 70)) {
			e.preventDefault();
			search_prompt();
		}
		else if (e.ctrlKey && e.keyCode === 73) {
			e.preventDefault();
			toggle_ignorecase();
		}
	}, false)

	// functions
	function get_params() {
		var params = {};
		var paramsarr = window.location.search.substr(1).split('&');
		for (var i = 0; i < paramsarr.length; ++i) {
			var tmp = paramsarr[i].split("=");
			if (!tmp[0] || !tmp[1]) continue;
			params[tmp[0]]  = decodeURIComponent(tmp[1]);
		}
		return params;
	}
	function parse_params(params) {
		var uri = "?";
		for (var key in params) {
			uri += key + '=' + encodeURIComponent(params[key]) + '&';
		}
		if (uri.slice(-1) == "&")
			uri = uri.substring(0, uri.length - 1);
		if (uri == '?')
			uri = window.location.href.split('?')[0];
		return uri;
	}
	function find_child(node, selector) {
		var children = node.querySelectorAll(selector);
		if (children.length) return children[0];
	}
	function find_group(node) {
		var parent = node.parentElement;
		if (!parent) return;
		if (parent.id == "frames") return node;
		return find_group(parent);
	}
	function orig_save(e, attr, val) {
		if (e.attributes["_orig_" + attr] != undefined) return;
		if (e.attributes[attr] == undefined) return;
		if (val == undefined) val = e.attributes[attr].value;
		e.setAttribute("_orig_" + attr, val);
	}
	function orig_load(e, attr) {
		if (e.attributes["_orig_"+attr] == undefined) return;
		e.attributes[attr].value = e.attributes["_orig_" + attr].value;
		e.removeAttribute("_orig_"+attr);
	}
	function g_to_text(e) {
		var text = find_child(e, "title").firstChild.nodeValue;
		return (text)
	}
	function g_to_func(e) {
		var func = g_to_text(e);
		// if there's any manipulation we want to do to the function
		// name before it's searched, do it here before returning.
		return (func);
	}
	function update_text(e) {
		var r = find_child(e, "rect");
		var t = find_child(e, "text");
		var w = parseFloat(r.attributes.width.value) -3;
		var txt = find_child(e, "title").textContent.replace(/\([^(]*\)$/,"");
		t.attributes.x.value = parseFloat(r.attributes.x.value) + 3;

		// Smaller than this size won't fit anything
		if (w < 2 * 12 * 0.59) {
			t.textContent = "";
			return;
		}

		t.textContent = txt;
		var sl = t.getSubStringLength(0, txt.length);
		// check if only whitespace or if we can fit the entire string into width w
		if (/^ *$/.test(txt) || sl < w)
			return;

		// this isn't perfect, but gives a good starting point
		// and avoids calling getSubStringLength too often
		var start = Math.floor((w/sl) * txt.length);
		for (var x = start; x > 0; x = x-2) {
			if (t.getSubStringLength(0, x + 2) <= w) {
				t.textContent = txt.substring(0, x) + "..";
				return;
			}
		}
		t.textContent = "";
	}

	// zoom
	function zoom_reset(e) {
		if (e.attributes != undefined) {
			orig_load(e, "x");
			orig_load(e, "width");
		}
		if (e.childNodes == undefined) return;
		for (var i = 0, c = e.childNodes; i < c.length; i++) {
			zoom_reset(c[i]);
		}
	}
	function zoom_child(e, x, ratio) {
		if (e.attributes != undefined) {
			if (e.attributes.x != undefined) {
				orig_save(e, "x");
				e.attributes.x.value = (parseFloat(e.attributes.x.value) - x - 10) * ratio + 10;
				if (e.tagName == "text")
					e.attributes.x.value = find_child(e.parentNode, "rect[x]").attributes.x.value + 3;
			}
			if (e.attributes.width != undefined) {
				orig_save(e, "width");
				e.attributes.width.value = parseFloat(e.attributes.width.value) * ratio;
			}
		}

		if (e.childNodes == undefined) return;
		for (var i = 0, c = e.childNodes; i < c.length; i++) {
			zoom_child(c[i], x - 10, ratio);
		}
	}
	function zoom_parent(e) {
		if (e.attributes) {
			if (e.attributes.x != undefined) {
				orig_save(e, "x");
				e.attributes.x.value = 10;
			}
			if (e.attributes.width != undefined) {
				orig_save(e, "width");
				e.attributes.width.value = parseInt(svg.width.baseVal.value) - (10 * 2);
			}
		}
		if (e.childNodes == undefined) return;
		for (var i = 0, c = e.childNodes; i < c.length; i++) {
			zoom_parent(c[i]);
		}
	}
	function zoom(node) {
		var attr = find_child(node, "rect").attributes;
		var width = parseFloat(attr.width.value);
		var xmin = parseFloat(attr.x.value);
		var xmax = parseFloat(xmin + width);
		var ymin = parseFloat(attr.y.value);
		var ratio = (svg.width.baseVal.value - 2 * 10) / width;

		// XXX: Workaround for JavaScript float issues (fix me)
		var fudge = 0.0001;

		unzoombtn.classList.remove("hide");

		var el = document.getElementById("frames").children;
		for (var i = 0; i < el.length; i++) {
			var e = el[i];
			var a = find_child(e, "rect").attributes;
			var ex = parseFloat(a.x.value);
			var ew = parseFloat(a.width.value);
			var upstack;
			// Is it an ancestor
			if (0 == 0) {
				upstack = parseFloat(a.y.value) > ymin;
			} else {
				upstack = parseFloat(a.y.value) < ymin;
			}
			if (upstack) {
				// Direct ancestor
				if (ex <= xmin && (ex+ew+fudge) >= xmax) {
					e.classList.add("parent");
					zoom_parent(e);
					update_text(e);
				}
				// not in current path
				else
					e.classList.add("hide");
			}
			// Children maybe
			else {
				// no common path
				if (ex < xmin || ex + fudge >= xmax) {
					e.classList.add("hide");
				}
				else {
					zoom_child(e, xmin, ratio);
					update_text(e);
				}
			}
		}
		search();
	}
	function unzoom(dont_update_text) {
		unzoombtn.classList.add("hide");
		var el = document.getElementById("frames").children;
		for(var i = 0; i < el.length; i++) {
			el[i].classList.remove("parent");
			el[i].classList.remove("hide");
			zoom_reset(el[i]);
			if(!dont_update_text) update_text(el[i]);
		}
		search();
	}
	function clearzoom() {
		unzoom();

		// remove zoom state
		var params = get_params();
		if (params.x) delete params.x;
		if (params.y) delete params.y;
		history.replaceState(null, null, parse_params(params));
	}

	// search
	function toggle_ignorecase() {
		ignorecase = !ignorecase;
		if (ignorecase) {
			ignorecaseBtn.classList.add("show");
		} else {
			ignorecaseBtn.classList.remove("show");
		}
		reset_search();
		search();
	}
	function reset_search() {
		var el = document.querySelectorAll("#frames rect");
		for (var i = 0; i < el.length; i++) {
			orig_load(el[i], "fill")
		}
		var params = get_params();
		delete params.s;
		history.replaceState(null, null, parse_params(params));
	}
	function search_prompt() {
		if (!searching) {
			var term = prompt("Enter a search term (regexp " +
			    "allowed, eg: ^ext4_)"
			    + (ignorecase ? ", ignoring case" : "")
			    + "\nPress Ctrl-i to toggle case sensitivity", "");
			if (term != null) search(term);
		} else {
			reset_search();
			searching = 0;
			currentSearchTerm = null;
			searchbtn.classList.remove("show");
			searchbtn.firstChild.nodeValue = "Search"
			matchedtxt.classList.add("hide");
			matchedtxt.firstChild.nodeValue = ""
		}
	}
	function search(term) {
		if (term) currentSearchTerm = term;

		var re = new RegExp(currentSearchTerm, ignorecase ? 'i' : '');
		var el = document.getElementById("frames").children;
		var matches = new Object();
		var maxwidth = 0;
		for (var i = 0; i < el.length; i++) {
			var e = el[i];
			var func = g_to_func(e);
			var rect = find_child(e, "rect");
			if (func == null || rect == null)
				continue;

			// Save max width. Only works as we have a root frame
			var w = parseFloat(rect.attributes.width.value);
			if (w > maxwidth)
				maxwidth = w;

			if (func.match(re)) {
				// highlight
				var x = parseFloat(rect.attributes.x.value);
				orig_save(rect, "fill");
				rect.attributes.fill.value = "rgb(230,0,230)";

				// remember matches
				if (matches[x] == undefined) {
					matches[x] = w;
				} else {
					if (w > matches[x]) {
						// overwrite with parent
						matches[x] = w;
					}
				}
				searching = 1;
			}
		}
		if (!searching)
			return;
		var params = get_params();
		params.s = currentSearchTerm;
		history.replaceState(null, null, parse_params(params));

		searchbtn.classList.add("show");
		searchbtn.firstChild.nodeValue = "Reset Search";

		// calculate percent matched, excluding vertical overlap
		var count = 0;
		var lastx = -1;
		var lastw = 0;
		var keys = Array();
		for (k in matches) {
			if (matches.hasOwnProperty(k))
				keys.push(k);
		}
		// sort the matched frames by their x location
		// ascending, then width descending
		keys.sort(function(a, b){
			return a - b;
		});
		// Step through frames saving only the biggest bottom-up frames
		// thanks to the sort order. This relies on the tree property
		// where children are always smaller than their parents.
		var fudge = 0.0001;	// JavaScript floating point
		for (var k in keys) {
			var x = parseFloat(keys[k]);
			var w = matches[keys[k]];
			if (x >= lastx + lastw - fudge) {
				count += w;
				lastx = x;
				lastw = w;
			}
		}
		// display matched percent
		matchedtxt.classList.remove("hide");
		var pct = 100 * count / maxwidth;
		if (pct != 100) pct = pct.toFixed(1)
		matchedtxt.firstChild.nodeValue = "Matched: " + pct + "%";
	}
]]>
</script>
<rect x="0.0" y="0" width="1200.0" height="486.0" fill="url(#background)"  />
<text id="title" x="600.00" y="24" >Flame Graph</text>
<text id="details" x="10.00" y="469" > </text>
<text id="unzoom" x="10.00" y="24" class="hide">Reset Zoom</text>
<text id="search" x="1090.00" y="24" >Search</text>
<text id="ignorecase" x="1174.00" y="24" >ic</text>
<text id="matched" x="1090.00" y="469" > </text>
<g id="frames">
<g >
<title>iommu_dma_map_sg (923,113 samples, 0.14%)</title><rect x="1185.1" y="85" width="1.6" height="15.0" fill="rgb(223,86,20)" rx="2" ry="2" />
<text  x="1188.08" y="95.5" ></text>
</g>
<g >
<title>syscall_exit_to_user_mode (923,113 samples, 0.14%)</title><rect x="1185.1" y="341" width="1.6" height="15.0" fill="rgb(251,211,50)" rx="2" ry="2" />
<text  x="1188.08" y="351.5" ></text>
</g>
<g >
<title>__memmove_avx_unaligned_erms (1,848,130 samples, 0.27%)</title><rect x="1181.0" y="373" width="3.3" height="15.0" fill="rgb(205,0,0)" rx="2" ry="2" />
<text  x="1184.02" y="383.5" ></text>
</g>
<g >
<title>bprm_execve (478,354 samples, 0.07%)</title><rect x="1188.3" y="325" width="0.9" height="15.0" fill="rgb(218,61,14)" rx="2" ry="2" />
<text  x="1191.31" y="335.5" ></text>
</g>
<g >
<title>ReadHuffmanCode (923,278 samples, 0.14%)</title><rect x="1145.6" y="373" width="1.7" height="15.0" fill="rgb(230,116,27)" rx="2" ry="2" />
<text  x="1148.63" y="383.5" ></text>
</g>
<g >
<title>PredictorAdd5_C (5,542,936 samples, 0.82%)</title><rect x="305.5" y="405" width="9.7" height="15.0" fill="rgb(240,163,39)" rx="2" ry="2" />
<text  x="308.50" y="415.5" ></text>
</g>
<g >
<title>get_page_from_freelist (929,012 samples, 0.14%)</title><rect x="329.7" y="261" width="1.7" height="15.0" fill="rgb(252,218,52)" rx="2" ry="2" />
<text  x="332.74" y="271.5" ></text>
</g>
<g >
<title>all (672,936,476 samples, 100%)</title><rect x="10.0" y="437" width="1180.0" height="15.0" fill="rgb(213,39,9)" rx="2" ry="2" />
<text  x="13.00" y="447.5" ></text>
</g>
<g >
<title>handle_mm_fault (929,012 samples, 0.14%)</title><rect x="329.7" y="341" width="1.7" height="15.0" fill="rgb(234,135,32)" rx="2" ry="2" />
<text  x="332.74" y="351.5" ></text>
</g>
<g >
<title>insert_vm_struct (362,157 samples, 0.05%)</title><rect x="1188.5" y="261" width="0.7" height="15.0" fill="rgb(226,98,23)" rx="2" ry="2" />
<text  x="1191.52" y="271.5" ></text>
</g>
<g >
<title>dma_map_sgtable (923,113 samples, 0.14%)</title><rect x="1185.1" y="117" width="1.6" height="15.0" fill="rgb(237,150,36)" rx="2" ry="2" />
<text  x="1188.08" y="127.5" ></text>
</g>
<g >
<title>filemap_fdatawrite_wbc (923,113 samples, 0.14%)</title><rect x="1185.1" y="245" width="1.6" height="15.0" fill="rgb(210,25,6)" rx="2" ry="2" />
<text  x="1188.08" y="255.5" ></text>
</g>
<g >
<title>ext4_release_file (923,113 samples, 0.14%)</title><rect x="1185.1" y="277" width="1.6" height="15.0" fill="rgb(225,92,22)" rx="2" ry="2" />
<text  x="1188.08" y="287.5" ></text>
</g>
<g >
<title>VP8LTransformColorInverse_C (95,878,682 samples, 14.25%)</title><rect x="339.5" y="405" width="168.1" height="15.0" fill="rgb(236,145,34)" rx="2" ry="2" />
<text  x="342.47" y="415.5" >VP8LTransformColorInv..</text>
</g>
<g >
<title>ProcessRows (1,825,345 samples, 0.27%)</title><rect x="507.6" y="389" width="3.2" height="15.0" fill="rgb(207,9,2)" rx="2" ry="2" />
<text  x="510.59" y="399.5" ></text>
</g>
<g >
<title>ext4_writepages (923,113 samples, 0.14%)</title><rect x="1185.1" y="213" width="1.6" height="15.0" fill="rgb(240,165,39)" rx="2" ry="2" />
<text  x="1188.08" y="223.5" ></text>
</g>
<g >
<title>do_syscall_64 (478,354 samples, 0.07%)</title><rect x="1188.3" y="373" width="0.9" height="15.0" fill="rgb(209,20,4)" rx="2" ry="2" />
<text  x="1191.31" y="383.5" ></text>
</g>
<g >
<title>ShiftBytes (1,847,607 samples, 0.27%)</title><rect x="326.5" y="405" width="3.2" height="15.0" fill="rgb(216,52,12)" rx="2" ry="2" />
<text  x="329.50" y="415.5" ></text>
</g>
<g >
<title>__alloc_pages (929,012 samples, 0.14%)</title><rect x="329.7" y="277" width="1.7" height="15.0" fill="rgb(233,129,30)" rx="2" ry="2" />
<text  x="332.74" y="287.5" ></text>
</g>
<g >
<title>__GI___fstatat (462,412 samples, 0.07%)</title><rect x="1184.3" y="389" width="0.8" height="15.0" fill="rgb(211,31,7)" rx="2" ry="2" />
<text  x="1187.27" y="399.5" ></text>
</g>
<g >
<title>handle_mm_fault (453,157 samples, 0.07%)</title><rect x="1189.2" y="341" width="0.7" height="15.0" fill="rgb(234,135,32)" rx="2" ry="2" />
<text  x="1192.15" y="351.5" ></text>
</g>
<g >
<title>mas_wr_node_store (362,157 samples, 0.05%)</title><rect x="1188.5" y="197" width="0.7" height="15.0" fill="rgb(219,66,15)" rx="2" ry="2" />
<text  x="1191.52" y="207.5" ></text>
</g>
<g >
<title>charge_memcg (442,300 samples, 0.07%)</title><rect x="1144.9" y="261" width="0.7" height="15.0" fill="rgb(242,170,40)" rx="2" ry="2" />
<text  x="1147.86" y="271.5" ></text>
</g>
<g >
<title>__iommu_map (923,113 samples, 0.14%)</title><rect x="1185.1" y="53" width="1.6" height="15.0" fill="rgb(208,17,4)" rx="2" ry="2" />
<text  x="1188.08" y="63.5" ></text>
</g>
<g >
<title>flush_signal_handlers (116,197 samples, 0.02%)</title><rect x="1188.3" y="277" width="0.2" height="15.0" fill="rgb(253,221,53)" rx="2" ry="2" />
<text  x="1191.31" y="287.5" ></text>
</g>
<g >
<title>clear_page_rep (929,012 samples, 0.14%)</title><rect x="329.7" y="245" width="1.7" height="15.0" fill="rgb(253,221,52)" rx="2" ry="2" />
<text  x="332.74" y="255.5" ></text>
</g>
<g >
<title>__libc_write (923,227 samples, 0.14%)</title><rect x="1186.7" y="389" width="1.6" height="15.0" fill="rgb(238,154,37)" rx="2" ry="2" />
<text  x="1189.70" y="399.5" ></text>
</g>
<g >
<title>__handle_mm_fault (442,300 samples, 0.07%)</title><rect x="1144.9" y="293" width="0.7" height="15.0" fill="rgb(207,9,2)" rx="2" ry="2" />
<text  x="1147.86" y="303.5" ></text>
</g>
<g >
<title>entry_SYSCALL_64_after_hwframe (923,227 samples, 0.14%)</title><rect x="1186.7" y="373" width="1.6" height="15.0" fill="rgb(218,63,15)" rx="2" ry="2" />
<text  x="1189.70" y="383.5" ></text>
</g>
<g >
<title>VP8LConvertFromBGRA (922,593 samples, 0.14%)</title><rect x="331.4" y="405" width="1.6" height="15.0" fill="rgb(233,129,30)" rx="2" ry="2" />
<text  x="334.37" y="415.5" ></text>
</g>
<g >
<title>_copy_to_user (462,412 samples, 0.07%)</title><rect x="1184.3" y="309" width="0.8" height="15.0" fill="rgb(206,8,1)" rx="2" ry="2" />
<text  x="1187.27" y="319.5" ></text>
</g>
<g >
<title>entry_SYSCALL_64_after_hwframe (923,113 samples, 0.14%)</title><rect x="1185.1" y="373" width="1.6" height="15.0" fill="rgb(218,63,15)" rx="2" ry="2" />
<text  x="1188.08" y="383.5" ></text>
</g>
<g >
<title>decode_webp_nat (672,906,520 samples, 100.00%)</title><rect x="10.0" y="421" width="1179.9" height="15.0" fill="rgb(218,61,14)" rx="2" ry="2" />
<text  x="13.00" y="431.5" >decode_webp_nat</text>
</g>
<g >
<title>nvme_queue_rqs (923,113 samples, 0.14%)</title><rect x="1185.1" y="149" width="1.6" height="15.0" fill="rgb(250,211,50)" rx="2" ry="2" />
<text  x="1188.08" y="159.5" ></text>
</g>
<g >
<title>__handle_mm_fault (929,012 samples, 0.14%)</title><rect x="329.7" y="325" width="1.7" height="15.0" fill="rgb(207,9,2)" rx="2" ry="2" />
<text  x="332.74" y="335.5" ></text>
</g>
<g >
<title>BuildHuffmanTable (33,248,080 samples, 4.94%)</title><rect x="10.0" y="405" width="58.3" height="15.0" fill="rgb(226,101,24)" rx="2" ry="2" />
<text  x="13.00" y="415.5" >BuildH..</text>
</g>
<g >
<title>entry_SYSCALL_64_after_hwframe (462,412 samples, 0.07%)</title><rect x="1184.3" y="373" width="0.8" height="15.0" fill="rgb(218,63,15)" rx="2" ry="2" />
<text  x="1187.27" y="383.5" ></text>
</g>
<g >
<title>pagecache_get_page (923,227 samples, 0.14%)</title><rect x="1186.7" y="261" width="1.6" height="15.0" fill="rgb(253,221,53)" rx="2" ry="2" />
<text  x="1189.70" y="271.5" ></text>
</g>
<g >
<title>PredictorAdd12_C (29,171,449 samples, 4.33%)</title><rect x="97.4" y="405" width="51.2" height="15.0" fill="rgb(243,176,42)" rx="2" ry="2" />
<text  x="100.45" y="415.5" >Predi..</text>
</g>
<g >
<title>[unknown] (388,685,005 samples, 57.76%)</title><rect x="507.6" y="405" width="681.6" height="15.0" fill="rgb(210,24,5)" rx="2" ry="2" />
<text  x="510.59" y="415.5" >[unknown]</text>
</g>
<g >
<title>__alloc_pages (923,227 samples, 0.14%)</title><rect x="1186.7" y="213" width="1.6" height="15.0" fill="rgb(233,129,30)" rx="2" ry="2" />
<text  x="1189.70" y="223.5" ></text>
</g>
<g >
<title>PredictorAdd11_C (12,002,412 samples, 1.78%)</title><rect x="76.4" y="405" width="21.0" height="15.0" fill="rgb(249,206,49)" rx="2" ry="2" />
<text  x="79.40" y="415.5" ></text>
</g>
<g >
<title>clear_page_rep (453,157 samples, 0.07%)</title><rect x="1189.2" y="245" width="0.7" height="15.0" fill="rgb(253,221,52)" rx="2" ry="2" />
<text  x="1192.15" y="255.5" ></text>
</g>
<g >
<title>vma_link (362,157 samples, 0.05%)</title><rect x="1188.5" y="245" width="0.7" height="15.0" fill="rgb(229,110,26)" rx="2" ry="2" />
<text  x="1191.52" y="255.5" ></text>
</g>
<g >
<title>nvme_prep_rq.part.0 (923,113 samples, 0.14%)</title><rect x="1185.1" y="133" width="1.6" height="15.0" fill="rgb(214,42,10)" rx="2" ry="2" />
<text  x="1188.08" y="143.5" ></text>
</g>
<g >
<title>DecodeImageData (290,076,885 samples, 43.11%)</title><rect x="637.0" y="373" width="508.6" height="15.0" fill="rgb(254,229,54)" rx="2" ry="2" />
<text  x="639.98" y="383.5" >DecodeImageData</text>
</g>
<g >
<title>__fput (923,113 samples, 0.14%)</title><rect x="1185.1" y="293" width="1.6" height="15.0" fill="rgb(248,200,47)" rx="2" ry="2" />
<text  x="1188.08" y="303.5" ></text>
</g>
<g >
<title>__mem_cgroup_charge (442,300 samples, 0.07%)</title><rect x="1144.9" y="277" width="0.7" height="15.0" fill="rgb(218,60,14)" rx="2" ry="2" />
<text  x="1147.86" y="287.5" ></text>
</g>
<g >
<title>VP8LConvertBGRAToRGB_C (929,012 samples, 0.14%)</title><rect x="329.7" y="405" width="1.7" height="15.0" fill="rgb(222,78,18)" rx="2" ry="2" />
<text  x="332.74" y="415.5" ></text>
</g>
<g >
<title>vfs_write (923,227 samples, 0.14%)</title><rect x="1186.7" y="325" width="1.6" height="15.0" fill="rgb(250,209,50)" rx="2" ry="2" />
<text  x="1189.70" y="335.5" ></text>
</g>
<g >
<title>do_syscall_64 (923,227 samples, 0.14%)</title><rect x="1186.7" y="357" width="1.6" height="15.0" fill="rgb(209,20,4)" rx="2" ry="2" />
<text  x="1189.70" y="367.5" ></text>
</g>
<g >
<title>__iommu_map_sg (923,113 samples, 0.14%)</title><rect x="1185.1" y="69" width="1.6" height="15.0" fill="rgb(236,146,35)" rx="2" ry="2" />
<text  x="1188.08" y="79.5" ></text>
</g>
<g >
<title>asm_exc_page_fault (929,012 samples, 0.14%)</title><rect x="329.7" y="389" width="1.7" height="15.0" fill="rgb(225,93,22)" rx="2" ry="2" />
<text  x="332.74" y="399.5" ></text>
</g>
<g >
<title>asm_exc_page_fault (453,157 samples, 0.07%)</title><rect x="1189.2" y="389" width="0.7" height="15.0" fill="rgb(225,93,22)" rx="2" ry="2" />
<text  x="1192.15" y="399.5" ></text>
</g>
<g >
<title>task_work_run (923,113 samples, 0.14%)</title><rect x="1185.1" y="309" width="1.6" height="15.0" fill="rgb(209,22,5)" rx="2" ry="2" />
<text  x="1188.08" y="319.5" ></text>
</g>
<g >
<title>PredictorAdd13_C (56,251,498 samples, 8.36%)</title><rect x="148.6" y="405" width="98.6" height="15.0" fill="rgb(236,146,35)" rx="2" ry="2" />
<text  x="151.60" y="415.5" >PredictorAd..</text>
</g>
<g >
<title>PredictorAdd9_C (924,001 samples, 0.14%)</title><rect x="315.2" y="405" width="1.6" height="15.0" fill="rgb(214,44,10)" rx="2" ry="2" />
<text  x="318.22" y="415.5" ></text>
</g>
<g >
<title>__filemap_get_folio (923,227 samples, 0.14%)</title><rect x="1186.7" y="245" width="1.6" height="15.0" fill="rgb(231,120,28)" rx="2" ry="2" />
<text  x="1189.70" y="255.5" ></text>
</g>
<g >
<title>PredictorAdd2_C (5,539,205 samples, 0.82%)</title><rect x="287.7" y="405" width="9.7" height="15.0" fill="rgb(209,22,5)" rx="2" ry="2" />
<text  x="290.69" y="415.5" ></text>
</g>
<g >
<title>generic_perform_write (923,227 samples, 0.14%)</title><rect x="1186.7" y="293" width="1.6" height="15.0" fill="rgb(236,146,35)" rx="2" ry="2" />
<text  x="1189.70" y="303.5" ></text>
</g>
<g >
<title>__x64_sys_execve (478,354 samples, 0.07%)</title><rect x="1188.3" y="357" width="0.9" height="15.0" fill="rgb(247,193,46)" rx="2" ry="2" />
<text  x="1191.31" y="367.5" ></text>
</g>
<g >
<title>exit_to_user_mode_prepare (923,113 samples, 0.14%)</title><rect x="1185.1" y="325" width="1.6" height="15.0" fill="rgb(228,108,25)" rx="2" ry="2" />
<text  x="1188.08" y="335.5" ></text>
</g>
<g >
<title>blk_mq_flush_plug_list (923,113 samples, 0.14%)</title><rect x="1185.1" y="165" width="1.6" height="15.0" fill="rgb(215,46,11)" rx="2" ry="2" />
<text  x="1188.08" y="175.5" ></text>
</g>
<g >
<title>folio_alloc (923,227 samples, 0.14%)</title><rect x="1186.7" y="229" width="1.6" height="15.0" fill="rgb(252,217,52)" rx="2" ry="2" />
<text  x="1189.70" y="239.5" ></text>
</g>
<g >
<title>copy_user_generic_string (462,412 samples, 0.07%)</title><rect x="1184.3" y="293" width="0.8" height="15.0" fill="rgb(205,0,0)" rx="2" ry="2" />
<text  x="1187.27" y="303.5" ></text>
</g>
<g >
<title>load_elf_binary (478,354 samples, 0.07%)</title><rect x="1188.3" y="309" width="0.9" height="15.0" fill="rgb(223,83,20)" rx="2" ry="2" />
<text  x="1191.31" y="319.5" ></text>
</g>
<g >
<title>ext4_buffered_write_iter (923,227 samples, 0.14%)</title><rect x="1186.7" y="309" width="1.6" height="15.0" fill="rgb(213,40,9)" rx="2" ry="2" />
<text  x="1189.70" y="319.5" ></text>
</g>
<g >
<title>do_writepages (923,113 samples, 0.14%)</title><rect x="1185.1" y="229" width="1.6" height="15.0" fill="rgb(240,164,39)" rx="2" ry="2" />
<text  x="1188.08" y="239.5" ></text>
</g>
<g >
<title>__dma_map_sg_attrs (923,113 samples, 0.14%)</title><rect x="1185.1" y="101" width="1.6" height="15.0" fill="rgb(251,212,50)" rx="2" ry="2" />
<text  x="1188.08" y="111.5" ></text>
</g>
<g >
<title>do_user_addr_fault (929,012 samples, 0.14%)</title><rect x="329.7" y="357" width="1.7" height="15.0" fill="rgb(228,108,25)" rx="2" ry="2" />
<text  x="332.74" y="367.5" ></text>
</g>
<g >
<title>VP8LAddGreenToBlueAndRed_C (36,010,302 samples, 5.35%)</title><rect x="510.8" y="389" width="63.1" height="15.0" fill="rgb(222,82,19)" rx="2" ry="2" />
<text  x="513.79" y="399.5" >VP8LAd..</text>
</g>
<g >
<title>VP8LDoFillBitWindow (16,532,458 samples, 2.46%)</title><rect x="1152.0" y="373" width="29.0" height="15.0" fill="rgb(219,67,16)" rx="2" ry="2" />
<text  x="1155.04" y="383.5" >VP..</text>
</g>
<g >
<title>__filemap_fdatawrite_range (923,113 samples, 0.14%)</title><rect x="1185.1" y="261" width="1.6" height="15.0" fill="rgb(233,129,30)" rx="2" ry="2" />
<text  x="1188.08" y="271.5" ></text>
</g>
<g >
<title>do_user_addr_fault (442,300 samples, 0.07%)</title><rect x="1144.9" y="325" width="0.7" height="15.0" fill="rgb(228,108,25)" rx="2" ry="2" />
<text  x="1147.86" y="335.5" ></text>
</g>
<g >
<title>ShiftBytes (880,318 samples, 0.13%)</title><rect x="1150.5" y="373" width="1.5" height="15.0" fill="rgb(216,52,12)" rx="2" ry="2" />
<text  x="1153.49" y="383.5" ></text>
</g>
<g >
<title>clear_page_rep (923,227 samples, 0.14%)</title><rect x="1186.7" y="181" width="1.6" height="15.0" fill="rgb(253,221,52)" rx="2" ry="2" />
<text  x="1189.70" y="191.5" ></text>
</g>
<g >
<title>mas_store_prealloc (362,157 samples, 0.05%)</title><rect x="1188.5" y="229" width="0.7" height="15.0" fill="rgb(223,85,20)" rx="2" ry="2" />
<text  x="1191.52" y="239.5" ></text>
</g>
<g >
<title>exc_page_fault (929,012 samples, 0.14%)</title><rect x="329.7" y="373" width="1.7" height="15.0" fill="rgb(212,35,8)" rx="2" ry="2" />
<text  x="332.74" y="383.5" ></text>
</g>
<g >
<title>do_syscall_64 (923,113 samples, 0.14%)</title><rect x="1185.1" y="357" width="1.6" height="15.0" fill="rgb(209,20,4)" rx="2" ry="2" />
<text  x="1188.08" y="367.5" ></text>
</g>
<g >
<title>VP8LInverseTransform (3,694,620 samples, 0.55%)</title><rect x="333.0" y="405" width="6.5" height="15.0" fill="rgb(234,134,32)" rx="2" ry="2" />
<text  x="335.99" y="415.5" ></text>
</g>
<g >
<title>__blk_flush_plug (923,113 samples, 0.14%)</title><rect x="1185.1" y="181" width="1.6" height="15.0" fill="rgb(217,57,13)" rx="2" ry="2" />
<text  x="1188.08" y="191.5" ></text>
</g>
<g >
<title>PredictorAdd3_C (3,695,219 samples, 0.55%)</title><rect x="297.4" y="405" width="6.5" height="15.0" fill="rgb(253,222,53)" rx="2" ry="2" />
<text  x="300.40" y="415.5" ></text>
</g>
<g >
<title>do_syscall_64 (462,412 samples, 0.07%)</title><rect x="1184.3" y="357" width="0.8" height="15.0" fill="rgb(209,20,4)" rx="2" ry="2" />
<text  x="1187.27" y="367.5" ></text>
</g>
<g >
<title>map_vdso (362,157 samples, 0.05%)</title><rect x="1188.5" y="293" width="0.7" height="15.0" fill="rgb(227,103,24)" rx="2" ry="2" />
<text  x="1191.52" y="303.5" ></text>
</g>
<g >
<title>DecodeImageData (4,618,343 samples, 0.69%)</title><rect x="68.3" y="405" width="8.1" height="15.0" fill="rgb(254,229,54)" rx="2" ry="2" />
<text  x="71.30" y="415.5" ></text>
</g>
<g >
<title>pte_alloc_one (453,157 samples, 0.07%)</title><rect x="1189.2" y="293" width="0.7" height="15.0" fill="rgb(252,217,51)" rx="2" ry="2" />
<text  x="1192.15" y="303.5" ></text>
</g>
<g >
<title>exc_page_fault (453,157 samples, 0.07%)</title><rect x="1189.2" y="373" width="0.7" height="15.0" fill="rgb(212,35,8)" rx="2" ry="2" />
<text  x="1192.15" y="383.5" ></text>
</g>
<g >
<title>__do_sys_newfstatat (462,412 samples, 0.07%)</title><rect x="1184.3" y="341" width="0.8" height="15.0" fill="rgb(243,177,42)" rx="2" ry="2" />
<text  x="1187.27" y="351.5" ></text>
</g>
<g >
<title>ext4_da_write_begin (923,227 samples, 0.14%)</title><rect x="1186.7" y="277" width="1.6" height="15.0" fill="rgb(211,32,7)" rx="2" ry="2" />
<text  x="1189.70" y="287.5" ></text>
</g>
<g >
<title>ksys_write (923,227 samples, 0.14%)</title><rect x="1186.7" y="341" width="1.6" height="15.0" fill="rgb(205,4,1)" rx="2" ry="2" />
<text  x="1189.70" y="351.5" ></text>
</g>
<g >
<title>blk_finish_plug (923,113 samples, 0.14%)</title><rect x="1185.1" y="197" width="1.6" height="15.0" fill="rgb(231,119,28)" rx="2" ry="2" />
<text  x="1188.08" y="207.5" ></text>
</g>
<g >
<title>__install_special_mapping (362,157 samples, 0.05%)</title><rect x="1188.5" y="277" width="0.7" height="15.0" fill="rgb(212,35,8)" rx="2" ry="2" />
<text  x="1191.52" y="287.5" ></text>
</g>
<g >
<title>exc_page_fault (442,300 samples, 0.07%)</title><rect x="1144.9" y="341" width="0.7" height="15.0" fill="rgb(212,35,8)" rx="2" ry="2" />
<text  x="1147.86" y="351.5" ></text>
</g>
<g >
<title>do_user_addr_fault (453,157 samples, 0.07%)</title><rect x="1189.2" y="357" width="0.7" height="15.0" fill="rgb(228,108,25)" rx="2" ry="2" />
<text  x="1192.15" y="367.5" ></text>
</g>
<g >
<title>handle_mm_fault (442,300 samples, 0.07%)</title><rect x="1144.9" y="309" width="0.7" height="15.0" fill="rgb(234,135,32)" rx="2" ry="2" />
<text  x="1147.86" y="319.5" ></text>
</g>
<g >
<title>asm_exc_page_fault (442,300 samples, 0.07%)</title><rect x="1144.9" y="357" width="0.7" height="15.0" fill="rgb(225,93,22)" rx="2" ry="2" />
<text  x="1147.86" y="367.5" ></text>
</g>
<g >
<title>__close_nocancel (923,113 samples, 0.14%)</title><rect x="1185.1" y="389" width="1.6" height="15.0" fill="rgb(228,109,26)" rx="2" ry="2" />
<text  x="1188.08" y="399.5" ></text>
</g>
<g >
<title>__alloc_pages (453,157 samples, 0.07%)</title><rect x="1189.2" y="277" width="0.7" height="15.0" fill="rgb(233,129,30)" rx="2" ry="2" />
<text  x="1192.15" y="287.5" ></text>
</g>
<g >
<title>begin_new_exec (116,197 samples, 0.02%)</title><rect x="1188.3" y="293" width="0.2" height="15.0" fill="rgb(245,184,44)" rx="2" ry="2" />
<text  x="1191.31" y="303.5" ></text>
</g>
<g >
<title>ReadHuffmanCodesHelper (1,847,195 samples, 0.27%)</title><rect x="1147.3" y="373" width="3.2" height="15.0" fill="rgb(209,22,5)" rx="2" ry="2" />
<text  x="1150.25" y="383.5" ></text>
</g>
<g >
<title>__pte_alloc (453,157 samples, 0.07%)</title><rect x="1189.2" y="309" width="0.7" height="15.0" fill="rgb(218,62,15)" rx="2" ry="2" />
<text  x="1192.15" y="319.5" ></text>
</g>
<g >
<title>ReadHuffmanCode (5,509,644 samples, 0.82%)</title><rect x="316.8" y="405" width="9.7" height="15.0" fill="rgb(230,116,27)" rx="2" ry="2" />
<text  x="319.84" y="415.5" ></text>
</g>
<g >
<title>PredictorAdd4_C (922,843 samples, 0.14%)</title><rect x="303.9" y="405" width="1.6" height="15.0" fill="rgb(246,193,46)" rx="2" ry="2" />
<text  x="306.88" y="415.5" ></text>
</g>
<g >
<title>__handle_mm_fault (453,157 samples, 0.07%)</title><rect x="1189.2" y="325" width="0.7" height="15.0" fill="rgb(207,9,2)" rx="2" ry="2" />
<text  x="1192.15" y="335.5" ></text>
</g>
<g >
<title>[unknown] (312,108,264 samples, 46.38%)</title><rect x="637.0" y="389" width="547.3" height="15.0" fill="rgb(210,24,5)" rx="2" ry="2" />
<text  x="639.98" y="399.5" >[unknown]</text>
</g>
<g >
<title>sysmalloc_mmap.constprop.0 (453,157 samples, 0.07%)</title><rect x="1189.2" y="405" width="0.7" height="15.0" fill="rgb(227,101,24)" rx="2" ry="2" />
<text  x="1192.15" y="415.5" ></text>
</g>
<g >
<title>PredictorAdd1_C (23,070,214 samples, 3.43%)</title><rect x="247.2" y="405" width="40.5" height="15.0" fill="rgb(216,52,12)" rx="2" ry="2" />
<text  x="250.24" y="415.5" >Pre..</text>
</g>
<g >
<title>get_page_from_freelist (923,227 samples, 0.14%)</title><rect x="1186.7" y="197" width="1.6" height="15.0" fill="rgb(252,218,52)" rx="2" ry="2" />
<text  x="1189.70" y="207.5" ></text>
</g>
<g >
<title>__folio_alloc (929,012 samples, 0.14%)</title><rect x="329.7" y="293" width="1.7" height="15.0" fill="rgb(224,91,21)" rx="2" ry="2" />
<text  x="332.74" y="303.5" ></text>
</g>
<g >
<title>iommu_v1_map_pages (923,113 samples, 0.14%)</title><rect x="1185.1" y="37" width="1.6" height="15.0" fill="rgb(219,65,15)" rx="2" ry="2" />
<text  x="1188.08" y="47.5" ></text>
</g>
<g >
<title>entry_SYSCALL_64_after_hwframe (478,354 samples, 0.07%)</title><rect x="1188.3" y="389" width="0.9" height="15.0" fill="rgb(218,63,15)" rx="2" ry="2" />
<text  x="1191.31" y="399.5" ></text>
</g>
<g >
<title>do_execveat_common.isra.0 (478,354 samples, 0.07%)</title><rect x="1188.3" y="341" width="0.9" height="15.0" fill="rgb(231,123,29)" rx="2" ry="2" />
<text  x="1191.31" y="351.5" ></text>
</g>
<g >
<title>vma_alloc_folio (929,012 samples, 0.14%)</title><rect x="329.7" y="309" width="1.7" height="15.0" fill="rgb(245,187,44)" rx="2" ry="2" />
<text  x="332.74" y="319.5" ></text>
</g>
<g >
<title>VP8LInverseTransform (5,475,011 samples, 0.81%)</title><rect x="617.7" y="389" width="9.6" height="15.0" fill="rgb(234,134,32)" rx="2" ry="2" />
<text  x="620.67" y="399.5" ></text>
</g>
<g >
<title>VP8LTransformColorInverse_C (5,540,572 samples, 0.82%)</title><rect x="627.3" y="389" width="9.7" height="15.0" fill="rgb(236,145,34)" rx="2" ry="2" />
<text  x="630.27" y="399.5" ></text>
</g>
<g >
<title>get_page_from_freelist (453,157 samples, 0.07%)</title><rect x="1189.2" y="261" width="0.7" height="15.0" fill="rgb(252,218,52)" rx="2" ry="2" />
<text  x="1192.15" y="271.5" ></text>
</g>
<g >
<title>mas_wr_modify (362,157 samples, 0.05%)</title><rect x="1188.5" y="213" width="0.7" height="15.0" fill="rgb(221,75,18)" rx="2" ry="2" />
<text  x="1191.52" y="223.5" ></text>
</g>
<g >
<title>VP8LConvertBGRAToRGB_C (24,938,405 samples, 3.71%)</title><rect x="573.9" y="389" width="43.8" height="15.0" fill="rgb(222,78,18)" rx="2" ry="2" />
<text  x="576.94" y="399.5" >VP8L..</text>
</g>
<g >
<title>try_charge_memcg (442,300 samples, 0.07%)</title><rect x="1144.9" y="245" width="0.7" height="15.0" fill="rgb(210,27,6)" rx="2" ry="2" />
<text  x="1147.86" y="255.5" ></text>
</g>
<g >
<title>cp_new_stat (462,412 samples, 0.07%)</title><rect x="1184.3" y="325" width="0.8" height="15.0" fill="rgb(223,83,19)" rx="2" ry="2" />
<text  x="1187.27" y="335.5" ></text>
</g>
</g>
</svg>
