<?xml version="1.0" standalone="no"?>
<!DOCTYPE svg PUBLIC "-//W3C//DTD SVG 1.1//EN" "http://www.w3.org/Graphics/SVG/1.1/DTD/svg11.dtd">
<svg version="1.1" width="1200" height="438" onload="init(evt)" viewBox="0 0 1200 438" xmlns="http://www.w3.org/2000/svg" xmlns:xlink="http://www.w3.org/1999/xlink">
<!-- Flame graph stack visualization. See https://github.com/brendangregg/FlameGraph for latest version, and http://www.brendangregg.com/flamegraphs.html for examples. -->
<!-- NOTES:  -->
<defs>
	<linearGradient id="background" y1="0" y2="1" x1="0" x2="0" >
		<stop stop-color="#eeeeee" offset="5%" />
		<stop stop-color="#eeeeb0" offset="95%" />
	</linearGradient>
</defs>
<style type="text/css">
	text { font-family:Verdana; font-size:12px; fill:rgb(0,0,0); }
	#search, #ignorecase { opacity:0.1; cursor:pointer; }
	#search:hover, #search.show, #ignorecase:hover, #ignorecase.show { opacity:1; }
	#subtitle { text-anchor:middle; font-color:rgb(160,160,160); }
	#title { text-anchor:middle; font-size:17px}
	#unzoom { cursor:pointer; }
	#frames > *:hover { stroke:black; stroke-width:0.5; cursor:pointer; }
	.hide { display:none; }
	.parent { opacity:0.5; }
</style>
<script type="text/ecmascript">
<![CDATA[
	"use strict";
	var details, searchbtn, unzoombtn, matchedtxt, svg, searching, currentSearchTerm, ignorecase, ignorecaseBtn;
	function init(evt) {
		details = document.getElementById("details").firstChild;
		searchbtn = document.getElementById("search");
		ignorecaseBtn = document.getElementById("ignorecase");
		unzoombtn = document.getElementById("unzoom");
		matchedtxt = document.getElementById("matched");
		svg = document.getElementsByTagName("svg")[0];
		searching = 0;
		currentSearchTerm = null;

		// use GET parameters to restore a flamegraphs state.
		var params = get_params();
		if (params.x && params.y)
			zoom(find_group(document.querySelector('[x="' + params.x + '"][y="' + params.y + '"]')));
                if (params.s) search(params.s);
	}

	// event listeners
	window.addEventListener("click", function(e) {
		var target = find_group(e.target);
		if (target) {
			if (target.nodeName == "a") {
				if (e.ctrlKey === false) return;
				e.preventDefault();
			}
			if (target.classList.contains("parent")) unzoom(true);
			zoom(target);
			if (!document.querySelector('.parent')) {
				// we have basically done a clearzoom so clear the url
				var params = get_params();
				if (params.x) delete params.x;
				if (params.y) delete params.y;
				history.replaceState(null, null, parse_params(params));
				unzoombtn.classList.add("hide");
				return;
			}

			// set parameters for zoom state
			var el = target.querySelector("rect");
			if (el && el.attributes && el.attributes.y && el.attributes._orig_x) {
				var params = get_params()
				params.x = el.attributes._orig_x.value;
				params.y = el.attributes.y.value;
				history.replaceState(null, null, parse_params(params));
			}
		}
		else if (e.target.id == "unzoom") clearzoom();
		else if (e.target.id == "search") search_prompt();
		else if (e.target.id == "ignorecase") toggle_ignorecase();
	}, false)

	// mouse-over for info
	// show
	window.addEventListener("mouseover", function(e) {
		var target = find_group(e.target);
		if (target) details.nodeValue = "Function: " + g_to_text(target);
	}, false)

	// clear
	window.addEventListener("mouseout", function(e) {
		var target = find_group(e.target);
		if (target) details.nodeValue = ' ';
	}, false)

	// ctrl-F for search
	// ctrl-I to toggle case-sensitive search
	window.addEventListener("keydown",function (e) {
		if (e.keyCode === 114 || (e.ctrlKey && e.keyCode === 70)) {
			e.preventDefault();
			search_prompt();
		}
		else if (e.ctrlKey && e.keyCode === 73) {
			e.preventDefault();
			toggle_ignorecase();
		}
	}, false)

	// functions
	function get_params() {
		var params = {};
		var paramsarr = window.location.search.substr(1).split('&');
		for (var i = 0; i < paramsarr.length; ++i) {
			var tmp = paramsarr[i].split("=");
			if (!tmp[0] || !tmp[1]) continue;
			params[tmp[0]]  = decodeURIComponent(tmp[1]);
		}
		return params;
	}
	function parse_params(params) {
		var uri = "?";
		for (var key in params) {
			uri += key + '=' + encodeURIComponent(params[key]) + '&';
		}
		if (uri.slice(-1) == "&")
			uri = uri.substring(0, uri.length - 1);
		if (uri == '?')
			uri = window.location.href.split('?')[0];
		return uri;
	}
	function find_child(node, selector) {
		var children = node.querySelectorAll(selector);
		if (children.length) return children[0];
	}
	function find_group(node) {
		var parent = node.parentElement;
		if (!parent) return;
		if (parent.id == "frames") return node;
		return find_group(parent);
	}
	function orig_save(e, attr, val) {
		if (e.attributes["_orig_" + attr] != undefined) return;
		if (e.attributes[attr] == undefined) return;
		if (val == undefined) val = e.attributes[attr].value;
		e.setAttribute("_orig_" + attr, val);
	}
	function orig_load(e, attr) {
		if (e.attributes["_orig_"+attr] == undefined) return;
		e.attributes[attr].value = e.attributes["_orig_" + attr].value;
		e.removeAttribute("_orig_"+attr);
	}
	function g_to_text(e) {
		var text = find_child(e, "title").firstChild.nodeValue;
		return (text)
	}
	function g_to_func(e) {
		var func = g_to_text(e);
		// if there's any manipulation we want to do to the function
		// name before it's searched, do it here before returning.
		return (func);
	}
	function update_text(e) {
		var r = find_child(e, "rect");
		var t = find_child(e, "text");
		var w = parseFloat(r.attributes.width.value) -3;
		var txt = find_child(e, "title").textContent.replace(/\([^(]*\)$/,"");
		t.attributes.x.value = parseFloat(r.attributes.x.value) + 3;

		// Smaller than this size won't fit anything
		if (w < 2 * 12 * 0.59) {
			t.textContent = "";
			return;
		}

		t.textContent = txt;
		var sl = t.getSubStringLength(0, txt.length);
		// check if only whitespace or if we can fit the entire string into width w
		if (/^ *$/.test(txt) || sl < w)
			return;

		// this isn't perfect, but gives a good starting point
		// and avoids calling getSubStringLength too often
		var start = Math.floor((w/sl) * txt.length);
		for (var x = start; x > 0; x = x-2) {
			if (t.getSubStringLength(0, x + 2) <= w) {
				t.textContent = txt.substring(0, x) + "..";
				return;
			}
		}
		t.textContent = "";
	}

	// zoom
	function zoom_reset(e) {
		if (e.attributes != undefined) {
			orig_load(e, "x");
			orig_load(e, "width");
		}
		if (e.childNodes == undefined) return;
		for (var i = 0, c = e.childNodes; i < c.length; i++) {
			zoom_reset(c[i]);
		}
	}
	function zoom_child(e, x, ratio) {
		if (e.attributes != undefined) {
			if (e.attributes.x != undefined) {
				orig_save(e, "x");
				e.attributes.x.value = (parseFloat(e.attributes.x.value) - x - 10) * ratio + 10;
				if (e.tagName == "text")
					e.attributes.x.value = find_child(e.parentNode, "rect[x]").attributes.x.value + 3;
			}
			if (e.attributes.width != undefined) {
				orig_save(e, "width");
				e.attributes.width.value = parseFloat(e.attributes.width.value) * ratio;
			}
		}

		if (e.childNodes == undefined) return;
		for (var i = 0, c = e.childNodes; i < c.length; i++) {
			zoom_child(c[i], x - 10, ratio);
		}
	}
	function zoom_parent(e) {
		if (e.attributes) {
			if (e.attributes.x != undefined) {
				orig_save(e, "x");
				e.attributes.x.value = 10;
			}
			if (e.attributes.width != undefined) {
				orig_save(e, "width");
				e.attributes.width.value = parseInt(svg.width.baseVal.value) - (10 * 2);
			}
		}
		if (e.childNodes == undefined) return;
		for (var i = 0, c = e.childNodes; i < c.length; i++) {
			zoom_parent(c[i]);
		}
	}
	function zoom(node) {
		var attr = find_child(node, "rect").attributes;
		var width = parseFloat(attr.width.value);
		var xmin = parseFloat(attr.x.value);
		var xmax = parseFloat(xmin + width);
		var ymin = parseFloat(attr.y.value);
		var ratio = (svg.width.baseVal.value - 2 * 10) / width;

		// XXX: Workaround for JavaScript float issues (fix me)
		var fudge = 0.0001;

		unzoombtn.classList.remove("hide");

		var el = document.getElementById("frames").children;
		for (var i = 0; i < el.length; i++) {
			var e = el[i];
			var a = find_child(e, "rect").attributes;
			var ex = parseFloat(a.x.value);
			var ew = parseFloat(a.width.value);
			var upstack;
			// Is it an ancestor
			if (0 == 0) {
				upstack = parseFloat(a.y.value) > ymin;
			} else {
				upstack = parseFloat(a.y.value) < ymin;
			}
			if (upstack) {
				// Direct ancestor
				if (ex <= xmin && (ex+ew+fudge) >= xmax) {
					e.classList.add("parent");
					zoom_parent(e);
					update_text(e);
				}
				// not in current path
				else
					e.classList.add("hide");
			}
			// Children maybe
			else {
				// no common path
				if (ex < xmin || ex + fudge >= xmax) {
					e.classList.add("hide");
				}
				else {
					zoom_child(e, xmin, ratio);
					update_text(e);
				}
			}
		}
		search();
	}
	function unzoom(dont_update_text) {
		unzoombtn.classList.add("hide");
		var el = document.getElementById("frames").children;
		for(var i = 0; i < el.length; i++) {
			el[i].classList.remove("parent");
			el[i].classList.remove("hide");
			zoom_reset(el[i]);
			if(!dont_update_text) update_text(el[i]);
		}
		search();
	}
	function clearzoom() {
		unzoom();

		// remove zoom state
		var params = get_params();
		if (params.x) delete params.x;
		if (params.y) delete params.y;
		history.replaceState(null, null, parse_params(params));
	}

	// search
	function toggle_ignorecase() {
		ignorecase = !ignorecase;
		if (ignorecase) {
			ignorecaseBtn.classList.add("show");
		} else {
			ignorecaseBtn.classList.remove("show");
		}
		reset_search();
		search();
	}
	function reset_search() {
		var el = document.querySelectorAll("#frames rect");
		for (var i = 0; i < el.length; i++) {
			orig_load(el[i], "fill")
		}
		var params = get_params();
		delete params.s;
		history.replaceState(null, null, parse_params(params));
	}
	function search_prompt() {
		if (!searching) {
			var term = prompt("Enter a search term (regexp " +
			    "allowed, eg: ^ext4_)"
			    + (ignorecase ? ", ignoring case" : "")
			    + "\nPress Ctrl-i to toggle case sensitivity", "");
			if (term != null) search(term);
		} else {
			reset_search();
			searching = 0;
			currentSearchTerm = null;
			searchbtn.classList.remove("show");
			searchbtn.firstChild.nodeValue = "Search"
			matchedtxt.classList.add("hide");
			matchedtxt.firstChild.nodeValue = ""
		}
	}
	function search(term) {
		if (term) currentSearchTerm = term;

		var re = new RegExp(currentSearchTerm, ignorecase ? 'i' : '');
		var el = document.getElementById("frames").children;
		var matches = new Object();
		var maxwidth = 0;
		for (var i = 0; i < el.length; i++) {
			var e = el[i];
			var func = g_to_func(e);
			var rect = find_child(e, "rect");
			if (func == null || rect == null)
				continue;

			// Save max width. Only works as we have a root frame
			var w = parseFloat(rect.attributes.width.value);
			if (w > maxwidth)
				maxwidth = w;

			if (func.match(re)) {
				// highlight
				var x = parseFloat(rect.attributes.x.value);
				orig_save(rect, "fill");
				rect.attributes.fill.value = "rgb(230,0,230)";

				// remember matches
				if (matches[x] == undefined) {
					matches[x] = w;
				} else {
					if (w > matches[x]) {
						// overwrite with parent
						matches[x] = w;
					}
				}
				searching = 1;
			}
		}
		if (!searching)
			return;
		var params = get_params();
		params.s = currentSearchTerm;
		history.replaceState(null, null, parse_params(params));

		searchbtn.classList.add("show");
		searchbtn.firstChild.nodeValue = "Reset Search";

		// calculate percent matched, excluding vertical overlap
		var count = 0;
		var lastx = -1;
		var lastw = 0;
		var keys = Array();
		for (k in matches) {
			if (matches.hasOwnProperty(k))
				keys.push(k);
		}
		// sort the matched frames by their x location
		// ascending, then width descending
		keys.sort(function(a, b){
			return a - b;
		});
		// Step through frames saving only the biggest bottom-up frames
		// thanks to the sort order. This relies on the tree property
		// where children are always smaller than their parents.
		var fudge = 0.0001;	// JavaScript floating point
		for (var k in keys) {
			var x = parseFloat(keys[k]);
			var w = matches[keys[k]];
			if (x >= lastx + lastw - fudge) {
				count += w;
				lastx = x;
				lastw = w;
			}
		}
		// display matched percent
		matchedtxt.classList.remove("hide");
		var pct = 100 * count / maxwidth;
		if (pct != 100) pct = pct.toFixed(1)
		matchedtxt.firstChild.nodeValue = "Matched: " + pct + "%";
	}
]]>
</script>
<rect x="0.0" y="0" width="1200.0" height="438.0" fill="url(#background)"  />
<text id="title" x="600.00" y="24" >Flame Graph</text>
<text id="details" x="10.00" y="421" > </text>
<text id="unzoom" x="10.00" y="24" class="hide">Reset Zoom</text>
<text id="search" x="1090.00" y="24" >Search</text>
<text id="ignorecase" x="1174.00" y="24" >ic</text>
<text id="matched" x="1090.00" y="421" > </text>
<g id="frames">
<g >
<title>w2c_decode__webp__wasmsimd_LD4_C (924,095 samples, 0.09%)</title><rect x="33.0" y="261" width="1.1" height="15.0" fill="rgb(242,173,41)" rx="2" ry="2" />
<text  x="35.99" y="271.5" ></text>
</g>
<g >
<title>w2c_decode__webp__wasmsimd_GetCoeffsFast (2,771,050 samples, 0.28%)</title><rect x="22.0" y="261" width="3.3" height="15.0" fill="rgb(210,26,6)" rx="2" ry="2" />
<text  x="25.04" y="271.5" ></text>
</g>
<g >
<title>decode_webp_was (995,660,860 samples, 100.00%)</title><rect x="10.0" y="373" width="1180.0" height="15.0" fill="rgb(216,54,12)" rx="2" ry="2" />
<text  x="13.00" y="383.5" >decode_webp_was</text>
</g>
<g >
<title>exit_to_user_mode_prepare (923,547 samples, 0.09%)</title><rect x="80.0" y="277" width="1.1" height="15.0" fill="rgb(228,108,25)" rx="2" ry="2" />
<text  x="82.98" y="287.5" ></text>
</g>
<g >
<title>__fput (923,547 samples, 0.09%)</title><rect x="80.0" y="245" width="1.1" height="15.0" fill="rgb(248,200,47)" rx="2" ry="2" />
<text  x="82.98" y="255.5" ></text>
</g>
<g >
<title>balance_dirty_pages_ratelimited_flags (923,426 samples, 0.09%)</title><rect x="81.6" y="229" width="1.1" height="15.0" fill="rgb(207,10,2)" rx="2" ry="2" />
<text  x="84.62" y="239.5" ></text>
</g>
<g >
<title>ext4_map_blocks (923,547 samples, 0.09%)</title><rect x="80.0" y="149" width="1.1" height="15.0" fill="rgb(247,196,46)" rx="2" ry="2" />
<text  x="82.98" y="159.5" ></text>
</g>
<g >
<title>ext4_dirty_inode (923,443 samples, 0.09%)</title><rect x="82.7" y="197" width="1.1" height="15.0" fill="rgb(227,102,24)" rx="2" ry="2" />
<text  x="85.71" y="207.5" ></text>
</g>
<g >
<title>w2c_decode__webp__wasmsimd_DecodeImageData (12,006,017 samples, 1.21%)</title><rect x="106.2" y="357" width="14.3" height="15.0" fill="rgb(246,191,45)" rx="2" ry="2" />
<text  x="109.23" y="367.5" ></text>
</g>
<g >
<title>w2c_decode__webp__wasmsimd_UpsampleRgbLinePair_C (233,826,371 samples, 23.48%)</title><rect x="897.5" y="357" width="277.2" height="15.0" fill="rgb(220,71,16)" rx="2" ry="2" />
<text  x="900.54" y="367.5" >w2c_decode__webp__wasmsimd_UpsampleRg..</text>
</g>
<g >
<title>w2c_decode__webp__wasmsimd_GetLargeValue (41,350,775 samples, 4.15%)</title><rect x="661.5" y="357" width="49.0" height="15.0" fill="rgb(234,137,32)" rx="2" ry="2" />
<text  x="664.53" y="367.5" >w2c_..</text>
</g>
<g >
<title>do_writepages (923,547 samples, 0.09%)</title><rect x="80.0" y="181" width="1.1" height="15.0" fill="rgb(240,164,39)" rx="2" ry="2" />
<text  x="82.98" y="191.5" ></text>
</g>
<g >
<title>w2c_decode__webp__wasmsimd_VP8LDoFillBitWindow (912,116 samples, 0.09%)</title><rect x="1180.1" y="357" width="1.1" height="15.0" fill="rgb(211,29,7)" rx="2" ry="2" />
<text  x="1183.12" y="367.5" ></text>
</g>
<g >
<title>ext4_mb_use_best_found (923,547 samples, 0.09%)</title><rect x="80.0" y="69" width="1.1" height="15.0" fill="rgb(241,167,40)" rx="2" ry="2" />
<text  x="82.98" y="79.5" ></text>
</g>
<g >
<title>w2c_decode__webp__wasmsimd_DC8uvNoTop_C (923,285 samples, 0.09%)</title><rect x="17.7" y="261" width="1.1" height="15.0" fill="rgb(252,219,52)" rx="2" ry="2" />
<text  x="20.66" y="271.5" ></text>
</g>
<g >
<title>w2c_decode__webp__wasmsimd_IDecode (922,850 samples, 0.09%)</title><rect x="93.1" y="341" width="1.1" height="15.0" fill="rgb(237,147,35)" rx="2" ry="2" />
<text  x="96.10" y="351.5" ></text>
</g>
<g >
<title>w2c_decode__webp__wasmsimd_FilterLoop24_C (126,796,123 samples, 12.73%)</title><rect x="120.5" y="357" width="150.2" height="15.0" fill="rgb(234,137,32)" rx="2" ry="2" />
<text  x="123.46" y="367.5" >w2c_decode__webp__w..</text>
</g>
<g >
<title>ksys_write (1,846,869 samples, 0.19%)</title><rect x="81.6" y="293" width="2.2" height="15.0" fill="rgb(205,4,1)" rx="2" ry="2" />
<text  x="84.62" y="303.5" ></text>
</g>
<g >
<title>w2c_decode__webp__wasmsimd_ExtractAlphaRows (923,935 samples, 0.09%)</title><rect x="84.4" y="341" width="1.1" height="15.0" fill="rgb(235,139,33)" rx="2" ry="2" />
<text  x="87.38" y="351.5" ></text>
</g>
<g >
<title>ext4_ext_map_blocks (923,547 samples, 0.09%)</title><rect x="80.0" y="133" width="1.1" height="15.0" fill="rgb(206,8,2)" rx="2" ry="2" />
<text  x="82.98" y="143.5" ></text>
</g>
<g >
<title>mem_cgroup_wb_stats (923,426 samples, 0.09%)</title><rect x="81.6" y="197" width="1.1" height="15.0" fill="rgb(211,28,6)" rx="2" ry="2" />
<text  x="84.62" y="207.5" ></text>
</g>
<g >
<title>ext4_inode_csum (923,443 samples, 0.09%)</title><rect x="82.7" y="117" width="1.1" height="15.0" fill="rgb(226,99,23)" rx="2" ry="2" />
<text  x="85.71" y="127.5" ></text>
</g>
<g >
<title>__libc_write (1,846,869 samples, 0.19%)</title><rect x="81.6" y="341" width="2.2" height="15.0" fill="rgb(238,154,37)" rx="2" ry="2" />
<text  x="84.62" y="351.5" ></text>
</g>
<g >
<title>w2c_decode__webp__wasmsimd_HE8uv_C (924,120 samples, 0.09%)</title><rect x="710.5" y="357" width="1.1" height="15.0" fill="rgb(218,60,14)" rx="2" ry="2" />
<text  x="713.53" y="367.5" ></text>
</g>
<g >
<title>generic_write_end (923,443 samples, 0.09%)</title><rect x="82.7" y="229" width="1.1" height="15.0" fill="rgb(206,8,1)" rx="2" ry="2" />
<text  x="85.71" y="239.5" ></text>
</g>
<g >
<title>w2c_decode__webp__wasmsimd_VP8ParseProba (2,770,089 samples, 0.28%)</title><rect x="1185.6" y="357" width="3.3" height="15.0" fill="rgb(216,51,12)" rx="2" ry="2" />
<text  x="1188.58" y="367.5" ></text>
</g>
<g >
<title>perf_iterate_ctx (362,103 samples, 0.04%)</title><rect x="84.0" y="197" width="0.4" height="15.0" fill="rgb(205,4,0)" rx="2" ry="2" />
<text  x="86.95" y="207.5" ></text>
</g>
<g >
<title>w2c_decode__webp__wasmsimd_GetCoeffsFast (1,815,649 samples, 0.18%)</title><rect x="90.9" y="341" width="2.2" height="15.0" fill="rgb(210,26,6)" rx="2" ry="2" />
<text  x="93.95" y="351.5" ></text>
</g>
<g >
<title>vfs_write (1,846,869 samples, 0.19%)</title><rect x="81.6" y="277" width="2.2" height="15.0" fill="rgb(250,209,50)" rx="2" ry="2" />
<text  x="84.62" y="287.5" ></text>
</g>
<g >
<title>w2c_decode__webp__wasmsimd_FilterLoop26_C (924,138 samples, 0.09%)</title><rect x="20.9" y="261" width="1.1" height="15.0" fill="rgb(222,78,18)" rx="2" ry="2" />
<text  x="23.94" y="271.5" ></text>
</g>
<g >
<title>__memset_avx2_unaligned_erms (1,847,035 samples, 0.19%)</title><rect x="99.7" y="357" width="2.2" height="15.0" fill="rgb(223,84,20)" rx="2" ry="2" />
<text  x="102.67" y="367.5" ></text>
</g>
<g >
<title>do_execveat_common.isra.0 (483,118 samples, 0.05%)</title><rect x="83.8" y="293" width="0.6" height="15.0" fill="rgb(231,123,29)" rx="2" ry="2" />
<text  x="86.81" y="303.5" ></text>
</g>
<g >
<title>w2c_decode__webp__wasmsimd_IDecode (61,743,776 samples, 6.20%)</title><rect x="712.7" y="357" width="73.2" height="15.0" fill="rgb(237,147,35)" rx="2" ry="2" />
<text  x="715.72" y="367.5" >w2c_deco..</text>
</g>
<g >
<title>cgroup_rstat_flush_irqsafe (923,426 samples, 0.09%)</title><rect x="81.6" y="165" width="1.1" height="15.0" fill="rgb(227,103,24)" rx="2" ry="2" />
<text  x="84.62" y="175.5" ></text>
</g>
<g >
<title>__filemap_fdatawrite_range (923,547 samples, 0.09%)</title><rect x="80.0" y="213" width="1.1" height="15.0" fill="rgb(233,129,30)" rx="2" ry="2" />
<text  x="82.98" y="223.5" ></text>
</g>
<g >
<title>task_work_run (923,547 samples, 0.09%)</title><rect x="80.0" y="261" width="1.1" height="15.0" fill="rgb(209,22,5)" rx="2" ry="2" />
<text  x="82.98" y="271.5" ></text>
</g>
<g >
<title>__install_special_mapping (362,103 samples, 0.04%)</title><rect x="84.0" y="229" width="0.4" height="15.0" fill="rgb(212,35,8)" rx="2" ry="2" />
<text  x="86.95" y="239.5" ></text>
</g>
<g >
<title>w2c_decode__webp__wasmsimd_ReconstructRow (27,655,997 samples, 2.78%)</title><rect x="34.1" y="261" width="32.8" height="15.0" fill="rgb(217,55,13)" rx="2" ry="2" />
<text  x="37.08" y="271.5" >w2..</text>
</g>
<g >
<title>[unknown] (59,052,194 samples, 5.93%)</title><rect x="10.0" y="293" width="70.0" height="15.0" fill="rgb(210,24,5)" rx="2" ry="2" />
<text  x="13.00" y="303.5" >[unknown]</text>
</g>
<g >
<title>w2c_decode__webp__wasmsimd_HFilter8i_C (924,058 samples, 0.09%)</title><rect x="711.6" y="357" width="1.1" height="15.0" fill="rgb(237,148,35)" rx="2" ry="2" />
<text  x="714.63" y="367.5" ></text>
</g>
<g >
<title>w2c_decode__webp__wasmsimd_TransformAC3_C (7,385,139 samples, 0.74%)</title><rect x="808.9" y="357" width="8.7" height="15.0" fill="rgb(251,211,50)" rx="2" ry="2" />
<text  x="811.88" y="367.5" ></text>
</g>
<g >
<title>w2c_decode__webp__wasmsimd_FilterLoop24_C (923,000 samples, 0.09%)</title><rect x="19.8" y="261" width="1.1" height="15.0" fill="rgb(234,137,32)" rx="2" ry="2" />
<text  x="22.85" y="271.5" ></text>
</g>
<g >
<title>ext4_mb_new_blocks (923,547 samples, 0.09%)</title><rect x="80.0" y="117" width="1.1" height="15.0" fill="rgb(219,65,15)" rx="2" ry="2" />
<text  x="82.98" y="127.5" ></text>
</g>
<g >
<title>ext4_mark_iloc_dirty (923,443 samples, 0.09%)</title><rect x="82.7" y="165" width="1.1" height="15.0" fill="rgb(226,101,24)" rx="2" ry="2" />
<text  x="85.71" y="175.5" ></text>
</g>
<g >
<title>w2c_decode__webp__wasmsimd_DC4_C (6,465,119 samples, 0.65%)</title><rect x="10.0" y="261" width="7.7" height="15.0" fill="rgb(250,210,50)" rx="2" ry="2" />
<text  x="13.00" y="271.5" ></text>
</g>
<g >
<title>__mem_cgroup_flush_stats (923,426 samples, 0.09%)</title><rect x="81.6" y="181" width="1.1" height="15.0" fill="rgb(208,16,3)" rx="2" ry="2" />
<text  x="84.62" y="191.5" ></text>
</g>
<g >
<title>w2c_decode__webp__wasmsimd_VP8GetValue (4,617,049 samples, 0.46%)</title><rect x="1174.7" y="357" width="5.4" height="15.0" fill="rgb(222,81,19)" rx="2" ry="2" />
<text  x="1177.65" y="367.5" ></text>
</g>
<g >
<title>entry_SYSCALL_64_after_hwframe (1,846,869 samples, 0.19%)</title><rect x="81.6" y="325" width="2.2" height="15.0" fill="rgb(218,63,15)" rx="2" ry="2" />
<text  x="84.62" y="335.5" ></text>
</g>
<g >
<title>w2c_decode__webp__wasmsimd_VL4_C (2,766,674 samples, 0.28%)</title><rect x="76.7" y="261" width="3.3" height="15.0" fill="rgb(226,98,23)" rx="2" ry="2" />
<text  x="79.70" y="271.5" ></text>
</g>
<g >
<title>w2c_decode__webp__wasmsimd_TM4_C (6,461,856 samples, 0.65%)</title><rect x="66.9" y="261" width="7.6" height="15.0" fill="rgb(232,128,30)" rx="2" ry="2" />
<text  x="69.86" y="271.5" ></text>
</g>
<g >
<title>w2c_decode__webp__wasmsimd_HE4_C (3,695,825 samples, 0.37%)</title><rect x="26.4" y="261" width="4.4" height="15.0" fill="rgb(212,32,7)" rx="2" ry="2" />
<text  x="29.42" y="271.5" ></text>
</g>
<g >
<title>w2c_decode__webp__wasmsimd_GetCoeffsFast (243,251,068 samples, 24.43%)</title><rect x="373.3" y="357" width="288.2" height="15.0" fill="rgb(210,26,6)" rx="2" ry="2" />
<text  x="376.25" y="367.5" >w2c_decode__webp__wasmsimd_GetCoeffsFast</text>
</g>
<g >
<title>do_syscall_64 (923,547 samples, 0.09%)</title><rect x="80.0" y="309" width="1.1" height="15.0" fill="rgb(209,20,4)" rx="2" ry="2" />
<text  x="82.98" y="319.5" ></text>
</g>
<g >
<title>w2c_decode__webp__wasmsimd_TransformOne_C (67,426,943 samples, 6.77%)</title><rect x="817.6" y="357" width="79.9" height="15.0" fill="rgb(209,22,5)" rx="2" ry="2" />
<text  x="820.64" y="367.5" >w2c_decod..</text>
</g>
<g >
<title>crypto_shash_update (923,443 samples, 0.09%)</title><rect x="82.7" y="101" width="1.1" height="15.0" fill="rgb(228,110,26)" rx="2" ry="2" />
<text  x="85.71" y="111.5" ></text>
</g>
<g >
<title>mem_cgroup_css_rstat_flush (923,426 samples, 0.09%)</title><rect x="81.6" y="133" width="1.1" height="15.0" fill="rgb(253,222,53)" rx="2" ry="2" />
<text  x="84.62" y="143.5" ></text>
</g>
<g >
<title>w2c_decode__webp__wasmsimd_VFilter8_C (924,156 samples, 0.09%)</title><rect x="75.6" y="261" width="1.1" height="15.0" fill="rgb(225,92,22)" rx="2" ry="2" />
<text  x="78.61" y="271.5" ></text>
</g>
<g >
<title>ext4_mb_simple_scan_group (923,547 samples, 0.09%)</title><rect x="80.0" y="85" width="1.1" height="15.0" fill="rgb(242,170,40)" rx="2" ry="2" />
<text  x="82.98" y="95.5" ></text>
</g>
<g >
<title>generic_perform_write (1,846,869 samples, 0.19%)</title><rect x="81.6" y="245" width="2.2" height="15.0" fill="rgb(236,146,35)" rx="2" ry="2" />
<text  x="84.62" y="255.5" ></text>
</g>
<g >
<title>w2c_decode__webp__wasmsimd_ExtractGreen_C (4,618,756 samples, 0.46%)</title><rect x="85.5" y="341" width="5.4" height="15.0" fill="rgb(226,96,23)" rx="2" ry="2" />
<text  x="88.47" y="351.5" ></text>
</g>
<g >
<title>commit_creds (121,015 samples, 0.01%)</title><rect x="83.8" y="229" width="0.2" height="15.0" fill="rgb(240,161,38)" rx="2" ry="2" />
<text  x="86.81" y="239.5" ></text>
</g>
<g >
<title>cgroup_rstat_flush_locked (923,426 samples, 0.09%)</title><rect x="81.6" y="149" width="1.1" height="15.0" fill="rgb(209,19,4)" rx="2" ry="2" />
<text  x="84.62" y="159.5" ></text>
</g>
<g >
<title>w2c_decode__webp__wasmsimd_FilterLoop26_C (81,894,182 samples, 8.22%)</title><rect x="270.7" y="357" width="97.1" height="15.0" fill="rgb(222,78,18)" rx="2" ry="2" />
<text  x="273.73" y="367.5" >w2c_decode_..</text>
</g>
<g >
<title>filemap_fdatawrite_wbc (923,547 samples, 0.09%)</title><rect x="80.0" y="197" width="1.1" height="15.0" fill="rgb(210,25,6)" rx="2" ry="2" />
<text  x="82.98" y="207.5" ></text>
</g>
<g >
<title>__x64_sys_execve (483,118 samples, 0.05%)</title><rect x="83.8" y="309" width="0.6" height="15.0" fill="rgb(247,193,46)" rx="2" ry="2" />
<text  x="86.81" y="319.5" ></text>
</g>
<g >
<title>begin_new_exec (121,015 samples, 0.01%)</title><rect x="83.8" y="245" width="0.2" height="15.0" fill="rgb(245,184,44)" rx="2" ry="2" />
<text  x="86.81" y="255.5" ></text>
</g>
<g >
<title>balance_dirty_pages (923,426 samples, 0.09%)</title><rect x="81.6" y="213" width="1.1" height="15.0" fill="rgb(247,193,46)" rx="2" ry="2" />
<text  x="84.62" y="223.5" ></text>
</g>
<g >
<title>ext4_buffered_write_iter (1,846,869 samples, 0.19%)</title><rect x="81.6" y="261" width="2.2" height="15.0" fill="rgb(213,40,9)" rx="2" ry="2" />
<text  x="84.62" y="271.5" ></text>
</g>
<g >
<title>[unknown] (59,052,194 samples, 5.93%)</title><rect x="10.0" y="277" width="70.0" height="15.0" fill="rgb(210,24,5)" rx="2" ry="2" />
<text  x="13.00" y="287.5" >[unknown]</text>
</g>
<g >
<title>w2c_decode__webp__wasmsimd_ReconstructRow (11,082,143 samples, 1.11%)</title><rect x="785.9" y="357" width="13.1" height="15.0" fill="rgb(217,55,13)" rx="2" ry="2" />
<text  x="788.90" y="367.5" ></text>
</g>
<g >
<title>w2c_decode__webp__wasmsimd_TM8uv_C (923,523 samples, 0.09%)</title><rect x="807.8" y="357" width="1.1" height="15.0" fill="rgb(238,156,37)" rx="2" ry="2" />
<text  x="810.79" y="367.5" ></text>
</g>
<g >
<title>ext4_writepages (923,547 samples, 0.09%)</title><rect x="80.0" y="165" width="1.1" height="15.0" fill="rgb(240,165,39)" rx="2" ry="2" />
<text  x="82.98" y="175.5" ></text>
</g>
<g >
<title>ext4_fill_raw_inode (923,443 samples, 0.09%)</title><rect x="82.7" y="149" width="1.1" height="15.0" fill="rgb(240,165,39)" rx="2" ry="2" />
<text  x="85.71" y="159.5" ></text>
</g>
<g >
<title>ext4_release_file (923,547 samples, 0.09%)</title><rect x="80.0" y="229" width="1.1" height="15.0" fill="rgb(225,92,22)" rx="2" ry="2" />
<text  x="82.98" y="239.5" ></text>
</g>
<g >
<title>bprm_execve (483,118 samples, 0.05%)</title><rect x="83.8" y="277" width="0.6" height="15.0" fill="rgb(218,61,14)" rx="2" ry="2" />
<text  x="86.81" y="287.5" ></text>
</g>
<g >
<title>w2c_decode__webp__wasmsimd_DC8uv_C (923,032 samples, 0.09%)</title><rect x="18.8" y="261" width="1.0" height="15.0" fill="rgb(206,8,2)" rx="2" ry="2" />
<text  x="21.76" y="271.5" ></text>
</g>
<g >
<title>map_vdso (362,103 samples, 0.04%)</title><rect x="84.0" y="245" width="0.4" height="15.0" fill="rgb(227,103,24)" rx="2" ry="2" />
<text  x="86.95" y="255.5" ></text>
</g>
<g >
<title>load_elf_binary (483,118 samples, 0.05%)</title><rect x="83.8" y="261" width="0.6" height="15.0" fill="rgb(223,83,20)" rx="2" ry="2" />
<text  x="86.81" y="271.5" ></text>
</g>
<g >
<title>w2c_decode__webp__wasmsimd_VP8LReadBits (3,695,507 samples, 0.37%)</title><rect x="1181.2" y="357" width="4.4" height="15.0" fill="rgb(228,108,26)" rx="2" ry="2" />
<text  x="1184.21" y="367.5" ></text>
</g>
<g >
<title>w2c_decode__webp__wasmsimd_IDecode (1,847,521 samples, 0.19%)</title><rect x="30.8" y="261" width="2.2" height="15.0" fill="rgb(237,147,35)" rx="2" ry="2" />
<text  x="33.80" y="271.5" ></text>
</g>
<g >
<title>__memmove_avx_unaligned_erms (4,618,158 samples, 0.46%)</title><rect x="94.2" y="357" width="5.5" height="15.0" fill="rgb(205,0,0)" rx="2" ry="2" />
<text  x="97.19" y="367.5" ></text>
</g>
<g >
<title>__perf_addr_filters_adjust (362,103 samples, 0.04%)</title><rect x="84.0" y="181" width="0.4" height="15.0" fill="rgb(247,195,46)" rx="2" ry="2" />
<text  x="86.95" y="191.5" ></text>
</g>
<g >
<title>w2c_decode__webp__wasmsimd_HD4_C (923,680 samples, 0.09%)</title><rect x="25.3" y="261" width="1.1" height="15.0" fill="rgb(218,62,14)" rx="2" ry="2" />
<text  x="28.32" y="271.5" ></text>
</g>
<g >
<title>mb_mark_used (923,547 samples, 0.09%)</title><rect x="80.0" y="53" width="1.1" height="15.0" fill="rgb(243,176,42)" rx="2" ry="2" />
<text  x="82.98" y="63.5" ></text>
</g>
<g >
<title>ext4_inode_csum_set (923,443 samples, 0.09%)</title><rect x="82.7" y="133" width="1.1" height="15.0" fill="rgb(218,60,14)" rx="2" ry="2" />
<text  x="85.71" y="143.5" ></text>
</g>
<g >
<title>ext4_mb_regular_allocator (923,547 samples, 0.09%)</title><rect x="80.0" y="101" width="1.1" height="15.0" fill="rgb(243,177,42)" rx="2" ry="2" />
<text  x="82.98" y="111.5" ></text>
</g>
<g >
<title>__cxa_atexit (456,162 samples, 0.05%)</title><rect x="81.1" y="341" width="0.5" height="15.0" fill="rgb(249,206,49)" rx="2" ry="2" />
<text  x="84.08" y="351.5" ></text>
</g>
<g >
<title>entry_SYSCALL_64_after_hwframe (483,118 samples, 0.05%)</title><rect x="83.8" y="341" width="0.6" height="15.0" fill="rgb(218,63,15)" rx="2" ry="2" />
<text  x="86.81" y="351.5" ></text>
</g>
<g >
<title>syscall_exit_to_user_mode (923,547 samples, 0.09%)</title><rect x="80.0" y="293" width="1.1" height="15.0" fill="rgb(251,211,50)" rx="2" ry="2" />
<text  x="82.98" y="303.5" ></text>
</g>
<g >
<title>__close_nocancel (923,547 samples, 0.09%)</title><rect x="80.0" y="341" width="1.1" height="15.0" fill="rgb(228,109,26)" rx="2" ry="2" />
<text  x="82.98" y="351.5" ></text>
</g>
<g >
<title>__ext4_mark_inode_dirty (923,443 samples, 0.09%)</title><rect x="82.7" y="181" width="1.1" height="15.0" fill="rgb(227,104,25)" rx="2" ry="2" />
<text  x="85.71" y="191.5" ></text>
</g>
<g >
<title>entry_SYSCALL_64_after_hwframe (923,547 samples, 0.09%)</title><rect x="80.0" y="325" width="1.1" height="15.0" fill="rgb(218,63,15)" rx="2" ry="2" />
<text  x="82.98" y="335.5" ></text>
</g>
<g >
<title>[unknown] (71,043,080 samples, 7.14%)</title><rect x="10.0" y="357" width="84.2" height="15.0" fill="rgb(210,24,5)" rx="2" ry="2" />
<text  x="13.00" y="367.5" >[unknown]</text>
</g>
<g >
<title>do_syscall_64 (1,846,869 samples, 0.19%)</title><rect x="81.6" y="309" width="2.2" height="15.0" fill="rgb(209,20,4)" rx="2" ry="2" />
<text  x="84.62" y="319.5" ></text>
</g>
<g >
<title>mb_set_bits (923,547 samples, 0.09%)</title><rect x="80.0" y="37" width="1.1" height="15.0" fill="rgb(250,210,50)" rx="2" ry="2" />
<text  x="82.98" y="47.5" ></text>
</g>
<g >
<title>w2c_decode__webp__wasmsimd_BuildHuffmanTable (2,770,692 samples, 0.28%)</title><rect x="101.9" y="357" width="3.2" height="15.0" fill="rgb(218,63,15)" rx="2" ry="2" />
<text  x="104.86" y="367.5" ></text>
</g>
<g >
<title>all (995,691,992 samples, 100%)</title><rect x="10.0" y="389" width="1180.0" height="15.0" fill="rgb(213,39,9)" rx="2" ry="2" />
<text  x="13.00" y="399.5" ></text>
</g>
<g >
<title>w2c_decode__webp__wasmsimd_TransformUV_C (922,766 samples, 0.09%)</title><rect x="74.5" y="261" width="1.1" height="15.0" fill="rgb(228,108,25)" rx="2" ry="2" />
<text  x="77.52" y="271.5" ></text>
</g>
<g >
<title>w2c_decode__webp__wasmsimd_memcpy (924,236 samples, 0.09%)</title><rect x="1188.9" y="357" width="1.1" height="15.0" fill="rgb(249,206,49)" rx="2" ry="2" />
<text  x="1191.87" y="367.5" ></text>
</g>
<g >
<title>do_syscall_64 (483,118 samples, 0.05%)</title><rect x="83.8" y="325" width="0.6" height="15.0" fill="rgb(209,20,4)" rx="2" ry="2" />
<text  x="86.81" y="335.5" ></text>
</g>
<g >
<title>w2c_decode__webp__wasmsimd_DC8uv_C (924,157 samples, 0.09%)</title><rect x="105.1" y="357" width="1.1" height="15.0" fill="rgb(206,8,2)" rx="2" ry="2" />
<text  x="108.14" y="367.5" ></text>
</g>
<g >
<title>w2c_decode__webp__wasmsimd_TM16_C (7,390,827 samples, 0.74%)</title><rect x="799.0" y="357" width="8.8" height="15.0" fill="rgb(253,222,53)" rx="2" ry="2" />
<text  x="802.03" y="367.5" ></text>
</g>
<g >
<title>w2c_decode__webp__wasmsimd_FinishRow (4,613,676 samples, 0.46%)</title><rect x="367.8" y="357" width="5.5" height="15.0" fill="rgb(205,3,0)" rx="2" ry="2" />
<text  x="370.78" y="367.5" ></text>
</g>
<g >
<title>[unknown] (59,052,194 samples, 5.93%)</title><rect x="10.0" y="325" width="70.0" height="15.0" fill="rgb(210,24,5)" rx="2" ry="2" />
<text  x="13.00" y="335.5" >[unknown]</text>
</g>
<g >
<title>[unknown] (59,052,194 samples, 5.93%)</title><rect x="10.0" y="341" width="70.0" height="15.0" fill="rgb(210,24,5)" rx="2" ry="2" />
<text  x="13.00" y="351.5" >[unknown]</text>
</g>
<g >
<title>__mark_inode_dirty (923,443 samples, 0.09%)</title><rect x="82.7" y="213" width="1.1" height="15.0" fill="rgb(254,227,54)" rx="2" ry="2" />
<text  x="85.71" y="223.5" ></text>
</g>
<g >
<title>perf_event_mmap (362,103 samples, 0.04%)</title><rect x="84.0" y="213" width="0.4" height="15.0" fill="rgb(229,112,26)" rx="2" ry="2" />
<text  x="86.95" y="223.5" ></text>
</g>
<g >
<title>[unknown] (59,052,194 samples, 5.93%)</title><rect x="10.0" y="309" width="70.0" height="15.0" fill="rgb(210,24,5)" rx="2" ry="2" />
<text  x="13.00" y="319.5" >[unknown]</text>
</g>
</g>
</svg>
