<?xml version="1.0" standalone="no"?>
<!DOCTYPE svg PUBLIC "-//W3C//DTD SVG 1.1//EN" "http://www.w3.org/Graphics/SVG/1.1/DTD/svg11.dtd">
<svg version="1.1" width="1200" height="374" onload="init(evt)" viewBox="0 0 1200 374" xmlns="http://www.w3.org/2000/svg" xmlns:xlink="http://www.w3.org/1999/xlink">
<!-- Flame graph stack visualization. See https://github.com/brendangregg/FlameGraph for latest version, and http://www.brendangregg.com/flamegraphs.html for examples. -->
<!-- NOTES:  -->
<defs>
	<linearGradient id="background" y1="0" y2="1" x1="0" x2="0" >
		<stop stop-color="#eeeeee" offset="5%" />
		<stop stop-color="#eeeeb0" offset="95%" />
	</linearGradient>
</defs>
<style type="text/css">
	text { font-family:Verdana; font-size:12px; fill:rgb(0,0,0); }
	#search, #ignorecase { opacity:0.1; cursor:pointer; }
	#search:hover, #search.show, #ignorecase:hover, #ignorecase.show { opacity:1; }
	#subtitle { text-anchor:middle; font-color:rgb(160,160,160); }
	#title { text-anchor:middle; font-size:17px}
	#unzoom { cursor:pointer; }
	#frames > *:hover { stroke:black; stroke-width:0.5; cursor:pointer; }
	.hide { display:none; }
	.parent { opacity:0.5; }
</style>
<script type="text/ecmascript">
<![CDATA[
	"use strict";
	var details, searchbtn, unzoombtn, matchedtxt, svg, searching, currentSearchTerm, ignorecase, ignorecaseBtn;
	function init(evt) {
		details = document.getElementById("details").firstChild;
		searchbtn = document.getElementById("search");
		ignorecaseBtn = document.getElementById("ignorecase");
		unzoombtn = document.getElementById("unzoom");
		matchedtxt = document.getElementById("matched");
		svg = document.getElementsByTagName("svg")[0];
		searching = 0;
		currentSearchTerm = null;

		// use GET parameters to restore a flamegraphs state.
		var params = get_params();
		if (params.x && params.y)
			zoom(find_group(document.querySelector('[x="' + params.x + '"][y="' + params.y + '"]')));
                if (params.s) search(params.s);
	}

	// event listeners
	window.addEventListener("click", function(e) {
		var target = find_group(e.target);
		if (target) {
			if (target.nodeName == "a") {
				if (e.ctrlKey === false) return;
				e.preventDefault();
			}
			if (target.classList.contains("parent")) unzoom(true);
			zoom(target);
			if (!document.querySelector('.parent')) {
				// we have basically done a clearzoom so clear the url
				var params = get_params();
				if (params.x) delete params.x;
				if (params.y) delete params.y;
				history.replaceState(null, null, parse_params(params));
				unzoombtn.classList.add("hide");
				return;
			}

			// set parameters for zoom state
			var el = target.querySelector("rect");
			if (el && el.attributes && el.attributes.y && el.attributes._orig_x) {
				var params = get_params()
				params.x = el.attributes._orig_x.value;
				params.y = el.attributes.y.value;
				history.replaceState(null, null, parse_params(params));
			}
		}
		else if (e.target.id == "unzoom") clearzoom();
		else if (e.target.id == "search") search_prompt();
		else if (e.target.id == "ignorecase") toggle_ignorecase();
	}, false)

	// mouse-over for info
	// show
	window.addEventListener("mouseover", function(e) {
		var target = find_group(e.target);
		if (target) details.nodeValue = "Function: " + g_to_text(target);
	}, false)

	// clear
	window.addEventListener("mouseout", function(e) {
		var target = find_group(e.target);
		if (target) details.nodeValue = ' ';
	}, false)

	// ctrl-F for search
	// ctrl-I to toggle case-sensitive search
	window.addEventListener("keydown",function (e) {
		if (e.keyCode === 114 || (e.ctrlKey && e.keyCode === 70)) {
			e.preventDefault();
			search_prompt();
		}
		else if (e.ctrlKey && e.keyCode === 73) {
			e.preventDefault();
			toggle_ignorecase();
		}
	}, false)

	// functions
	function get_params() {
		var params = {};
		var paramsarr = window.location.search.substr(1).split('&');
		for (var i = 0; i < paramsarr.length; ++i) {
			var tmp = paramsarr[i].split("=");
			if (!tmp[0] || !tmp[1]) continue;
			params[tmp[0]]  = decodeURIComponent(tmp[1]);
		}
		return params;
	}
	function parse_params(params) {
		var uri = "?";
		for (var key in params) {
			uri += key + '=' + encodeURIComponent(params[key]) + '&';
		}
		if (uri.slice(-1) == "&")
			uri = uri.substring(0, uri.length - 1);
		if (uri == '?')
			uri = window.location.href.split('?')[0];
		return uri;
	}
	function find_child(node, selector) {
		var children = node.querySelectorAll(selector);
		if (children.length) return children[0];
	}
	function find_group(node) {
		var parent = node.parentElement;
		if (!parent) return;
		if (parent.id == "frames") return node;
		return find_group(parent);
	}
	function orig_save(e, attr, val) {
		if (e.attributes["_orig_" + attr] != undefined) return;
		if (e.attributes[attr] == undefined) return;
		if (val == undefined) val = e.attributes[attr].value;
		e.setAttribute("_orig_" + attr, val);
	}
	function orig_load(e, attr) {
		if (e.attributes["_orig_"+attr] == undefined) return;
		e.attributes[attr].value = e.attributes["_orig_" + attr].value;
		e.removeAttribute("_orig_"+attr);
	}
	function g_to_text(e) {
		var text = find_child(e, "title").firstChild.nodeValue;
		return (text)
	}
	function g_to_func(e) {
		var func = g_to_text(e);
		// if there's any manipulation we want to do to the function
		// name before it's searched, do it here before returning.
		return (func);
	}
	function update_text(e) {
		var r = find_child(e, "rect");
		var t = find_child(e, "text");
		var w = parseFloat(r.attributes.width.value) -3;
		var txt = find_child(e, "title").textContent.replace(/\([^(]*\)$/,"");
		t.attributes.x.value = parseFloat(r.attributes.x.value) + 3;

		// Smaller than this size won't fit anything
		if (w < 2 * 12 * 0.59) {
			t.textContent = "";
			return;
		}

		t.textContent = txt;
		var sl = t.getSubStringLength(0, txt.length);
		// check if only whitespace or if we can fit the entire string into width w
		if (/^ *$/.test(txt) || sl < w)
			return;

		// this isn't perfect, but gives a good starting point
		// and avoids calling getSubStringLength too often
		var start = Math.floor((w/sl) * txt.length);
		for (var x = start; x > 0; x = x-2) {
			if (t.getSubStringLength(0, x + 2) <= w) {
				t.textContent = txt.substring(0, x) + "..";
				return;
			}
		}
		t.textContent = "";
	}

	// zoom
	function zoom_reset(e) {
		if (e.attributes != undefined) {
			orig_load(e, "x");
			orig_load(e, "width");
		}
		if (e.childNodes == undefined) return;
		for (var i = 0, c = e.childNodes; i < c.length; i++) {
			zoom_reset(c[i]);
		}
	}
	function zoom_child(e, x, ratio) {
		if (e.attributes != undefined) {
			if (e.attributes.x != undefined) {
				orig_save(e, "x");
				e.attributes.x.value = (parseFloat(e.attributes.x.value) - x - 10) * ratio + 10;
				if (e.tagName == "text")
					e.attributes.x.value = find_child(e.parentNode, "rect[x]").attributes.x.value + 3;
			}
			if (e.attributes.width != undefined) {
				orig_save(e, "width");
				e.attributes.width.value = parseFloat(e.attributes.width.value) * ratio;
			}
		}

		if (e.childNodes == undefined) return;
		for (var i = 0, c = e.childNodes; i < c.length; i++) {
			zoom_child(c[i], x - 10, ratio);
		}
	}
	function zoom_parent(e) {
		if (e.attributes) {
			if (e.attributes.x != undefined) {
				orig_save(e, "x");
				e.attributes.x.value = 10;
			}
			if (e.attributes.width != undefined) {
				orig_save(e, "width");
				e.attributes.width.value = parseInt(svg.width.baseVal.value) - (10 * 2);
			}
		}
		if (e.childNodes == undefined) return;
		for (var i = 0, c = e.childNodes; i < c.length; i++) {
			zoom_parent(c[i]);
		}
	}
	function zoom(node) {
		var attr = find_child(node, "rect").attributes;
		var width = parseFloat(attr.width.value);
		var xmin = parseFloat(attr.x.value);
		var xmax = parseFloat(xmin + width);
		var ymin = parseFloat(attr.y.value);
		var ratio = (svg.width.baseVal.value - 2 * 10) / width;

		// XXX: Workaround for JavaScript float issues (fix me)
		var fudge = 0.0001;

		unzoombtn.classList.remove("hide");

		var el = document.getElementById("frames").children;
		for (var i = 0; i < el.length; i++) {
			var e = el[i];
			var a = find_child(e, "rect").attributes;
			var ex = parseFloat(a.x.value);
			var ew = parseFloat(a.width.value);
			var upstack;
			// Is it an ancestor
			if (0 == 0) {
				upstack = parseFloat(a.y.value) > ymin;
			} else {
				upstack = parseFloat(a.y.value) < ymin;
			}
			if (upstack) {
				// Direct ancestor
				if (ex <= xmin && (ex+ew+fudge) >= xmax) {
					e.classList.add("parent");
					zoom_parent(e);
					update_text(e);
				}
				// not in current path
				else
					e.classList.add("hide");
			}
			// Children maybe
			else {
				// no common path
				if (ex < xmin || ex + fudge >= xmax) {
					e.classList.add("hide");
				}
				else {
					zoom_child(e, xmin, ratio);
					update_text(e);
				}
			}
		}
		search();
	}
	function unzoom(dont_update_text) {
		unzoombtn.classList.add("hide");
		var el = document.getElementById("frames").children;
		for(var i = 0; i < el.length; i++) {
			el[i].classList.remove("parent");
			el[i].classList.remove("hide");
			zoom_reset(el[i]);
			if(!dont_update_text) update_text(el[i]);
		}
		search();
	}
	function clearzoom() {
		unzoom();

		// remove zoom state
		var params = get_params();
		if (params.x) delete params.x;
		if (params.y) delete params.y;
		history.replaceState(null, null, parse_params(params));
	}

	// search
	function toggle_ignorecase() {
		ignorecase = !ignorecase;
		if (ignorecase) {
			ignorecaseBtn.classList.add("show");
		} else {
			ignorecaseBtn.classList.remove("show");
		}
		reset_search();
		search();
	}
	function reset_search() {
		var el = document.querySelectorAll("#frames rect");
		for (var i = 0; i < el.length; i++) {
			orig_load(el[i], "fill")
		}
		var params = get_params();
		delete params.s;
		history.replaceState(null, null, parse_params(params));
	}
	function search_prompt() {
		if (!searching) {
			var term = prompt("Enter a search term (regexp " +
			    "allowed, eg: ^ext4_)"
			    + (ignorecase ? ", ignoring case" : "")
			    + "\nPress Ctrl-i to toggle case sensitivity", "");
			if (term != null) search(term);
		} else {
			reset_search();
			searching = 0;
			currentSearchTerm = null;
			searchbtn.classList.remove("show");
			searchbtn.firstChild.nodeValue = "Search"
			matchedtxt.classList.add("hide");
			matchedtxt.firstChild.nodeValue = ""
		}
	}
	function search(term) {
		if (term) currentSearchTerm = term;

		var re = new RegExp(currentSearchTerm, ignorecase ? 'i' : '');
		var el = document.getElementById("frames").children;
		var matches = new Object();
		var maxwidth = 0;
		for (var i = 0; i < el.length; i++) {
			var e = el[i];
			var func = g_to_func(e);
			var rect = find_child(e, "rect");
			if (func == null || rect == null)
				continue;

			// Save max width. Only works as we have a root frame
			var w = parseFloat(rect.attributes.width.value);
			if (w > maxwidth)
				maxwidth = w;

			if (func.match(re)) {
				// highlight
				var x = parseFloat(rect.attributes.x.value);
				orig_save(rect, "fill");
				rect.attributes.fill.value = "rgb(230,0,230)";

				// remember matches
				if (matches[x] == undefined) {
					matches[x] = w;
				} else {
					if (w > matches[x]) {
						// overwrite with parent
						matches[x] = w;
					}
				}
				searching = 1;
			}
		}
		if (!searching)
			return;
		var params = get_params();
		params.s = currentSearchTerm;
		history.replaceState(null, null, parse_params(params));

		searchbtn.classList.add("show");
		searchbtn.firstChild.nodeValue = "Reset Search";

		// calculate percent matched, excluding vertical overlap
		var count = 0;
		var lastx = -1;
		var lastw = 0;
		var keys = Array();
		for (k in matches) {
			if (matches.hasOwnProperty(k))
				keys.push(k);
		}
		// sort the matched frames by their x location
		// ascending, then width descending
		keys.sort(function(a, b){
			return a - b;
		});
		// Step through frames saving only the biggest bottom-up frames
		// thanks to the sort order. This relies on the tree property
		// where children are always smaller than their parents.
		var fudge = 0.0001;	// JavaScript floating point
		for (var k in keys) {
			var x = parseFloat(keys[k]);
			var w = matches[keys[k]];
			if (x >= lastx + lastw - fudge) {
				count += w;
				lastx = x;
				lastw = w;
			}
		}
		// display matched percent
		matchedtxt.classList.remove("hide");
		var pct = 100 * count / maxwidth;
		if (pct != 100) pct = pct.toFixed(1)
		matchedtxt.firstChild.nodeValue = "Matched: " + pct + "%";
	}
]]>
</script>
<rect x="0.0" y="0" width="1200.0" height="374.0" fill="url(#background)"  />
<text id="title" x="600.00" y="24" >Flame Graph</text>
<text id="details" x="10.00" y="357" > </text>
<text id="unzoom" x="10.00" y="24" class="hide">Reset Zoom</text>
<text id="search" x="1090.00" y="24" >Search</text>
<text id="ignorecase" x="1174.00" y="24" >ic</text>
<text id="matched" x="1090.00" y="357" > </text>
<g id="frames">
<g >
<title>w2c_decode__webp__wasmsimd_GetCoeffsAlt (4,568,502 samples, 0.83%)</title><rect x="17.7" y="197" width="9.8" height="15.0" fill="rgb(214,45,10)" rx="2" ry="2" />
<text  x="20.70" y="207.5" ></text>
</g>
<g >
<title>__handle_mm_fault (560,020 samples, 0.10%)</title><rect x="220.4" y="213" width="1.2" height="15.0" fill="rgb(207,9,2)" rx="2" ry="2" />
<text  x="223.43" y="223.5" ></text>
</g>
<g >
<title>__gettimeofday (570,754 samples, 0.10%)</title><rect x="84.8" y="277" width="1.2" height="15.0" fill="rgb(254,228,54)" rx="2" ry="2" />
<text  x="87.77" y="287.5" ></text>
</g>
<g >
<title>ext4_inode_csum_set (923,498 samples, 0.17%)</title><rect x="86.0" y="69" width="2.0" height="15.0" fill="rgb(218,60,14)" rx="2" ry="2" />
<text  x="88.99" y="79.5" ></text>
</g>
<g >
<title>w2c_decode__webp__wasmsimd_VP8ParseProba (2,768,669 samples, 0.50%)</title><rect x="1107.3" y="293" width="5.9" height="15.0" fill="rgb(216,51,12)" rx="2" ry="2" />
<text  x="1110.29" y="303.5" ></text>
</g>
<g >
<title>__memset_avx2_unaligned_erms (1,847,724 samples, 0.34%)</title><rect x="127.3" y="293" width="4.0" height="15.0" fill="rgb(223,84,20)" rx="2" ry="2" />
<text  x="130.35" y="303.5" ></text>
</g>
<g >
<title>handle_mm_fault (528,219 samples, 0.10%)</title><rect x="90.5" y="213" width="1.2" height="15.0" fill="rgb(234,135,32)" rx="2" ry="2" />
<text  x="93.55" y="223.5" ></text>
</g>
<g >
<title>memcg_check_events (560,020 samples, 0.10%)</title><rect x="220.4" y="165" width="1.2" height="15.0" fill="rgb(206,4,1)" rx="2" ry="2" />
<text  x="223.43" y="175.5" ></text>
</g>
<g >
<title>w2c_decode__webp__wasmsimd_VP8LDoFillBitWindow (922,728 samples, 0.17%)</title><rect x="1095.5" y="293" width="2.0" height="15.0" fill="rgb(211,29,7)" rx="2" ry="2" />
<text  x="1098.53" y="303.5" ></text>
</g>
<g >
<title>ksys_write (923,498 samples, 0.17%)</title><rect x="86.0" y="229" width="2.0" height="15.0" fill="rgb(205,4,1)" rx="2" ry="2" />
<text  x="88.99" y="239.5" ></text>
</g>
<g >
<title>ext4_inode_csum (923,498 samples, 0.17%)</title><rect x="86.0" y="53" width="2.0" height="15.0" fill="rgb(226,99,23)" rx="2" ry="2" />
<text  x="88.99" y="63.5" ></text>
</g>
<g >
<title>w2c_decode__webp__wasmsimd_BuildHuffmanTable (3,694,244 samples, 0.67%)</title><rect x="133.3" y="293" width="7.9" height="15.0" fill="rgb(218,63,15)" rx="2" ry="2" />
<text  x="136.30" y="303.5" ></text>
</g>
<g >
<title>__mem_cgroup_charge (751,554 samples, 0.14%)</title><rect x="1072.4" y="197" width="1.6" height="15.0" fill="rgb(218,60,14)" rx="2" ry="2" />
<text  x="1075.40" y="207.5" ></text>
</g>
<g >
<title>w2c_decode__webp__wasmsimd_EmitFancyRGB (910,219 samples, 0.17%)</title><rect x="223.6" y="293" width="2.0" height="15.0" fill="rgb(252,218,52)" rx="2" ry="2" />
<text  x="226.62" y="303.5" ></text>
</g>
<g >
<title>[unknown] (53,704,084 samples, 9.78%)</title><rect x="10.0" y="293" width="115.4" height="15.0" fill="rgb(210,24,5)" rx="2" ry="2" />
<text  x="13.00" y="303.5" >[unknown]</text>
</g>
<g >
<title>w2c_decode__webp__wasmsimd_VFilter8_SSE2 (2,770,646 samples, 0.50%)</title><rect x="1079.8" y="293" width="6.0" height="15.0" fill="rgb(216,54,13)" rx="2" ry="2" />
<text  x="1082.81" y="303.5" ></text>
</g>
<g >
<title>do_syscall_64 (923,558 samples, 0.17%)</title><rect x="131.3" y="277" width="2.0" height="15.0" fill="rgb(209,20,4)" rx="2" ry="2" />
<text  x="134.32" y="287.5" ></text>
</g>
<g >
<title>begin_new_exec (63,651 samples, 0.01%)</title><rect x="1189.9" y="181" width="0.1" height="15.0" fill="rgb(245,184,44)" rx="2" ry="2" />
<text  x="1192.86" y="191.5" ></text>
</g>
<g >
<title>w2c_decode__webp__wasmsimd_DecodeImageStream (923,442 samples, 0.17%)</title><rect x="221.6" y="293" width="2.0" height="15.0" fill="rgb(233,130,31)" rx="2" ry="2" />
<text  x="224.63" y="303.5" ></text>
</g>
<g >
<title>do_user_addr_fault (528,219 samples, 0.10%)</title><rect x="90.5" y="229" width="1.2" height="15.0" fill="rgb(228,108,25)" rx="2" ry="2" />
<text  x="93.55" y="239.5" ></text>
</g>
<g >
<title>__mark_inode_dirty (923,498 samples, 0.17%)</title><rect x="86.0" y="149" width="2.0" height="15.0" fill="rgb(254,227,54)" rx="2" ry="2" />
<text  x="88.99" y="159.5" ></text>
</g>
<g >
<title>generic_write_end (923,498 samples, 0.17%)</title><rect x="86.0" y="165" width="2.0" height="15.0" fill="rgb(206,8,1)" rx="2" ry="2" />
<text  x="88.99" y="175.5" ></text>
</g>
<g >
<title>__handle_mm_fault (528,219 samples, 0.10%)</title><rect x="90.5" y="197" width="1.2" height="15.0" fill="rgb(207,9,2)" rx="2" ry="2" />
<text  x="93.55" y="207.5" ></text>
</g>
<g >
<title>do_fault (570,754 samples, 0.10%)</title><rect x="84.8" y="165" width="1.2" height="15.0" fill="rgb(248,200,47)" rx="2" ry="2" />
<text  x="87.77" y="175.5" ></text>
</g>
<g >
<title>w2c_decode__webp__wasmsimd_VFilter16i_SSE2 (1,776,204 samples, 0.32%)</title><rect x="1076.0" y="293" width="3.8" height="15.0" fill="rgb(234,137,32)" rx="2" ry="2" />
<text  x="1079.00" y="303.5" ></text>
</g>
<g >
<title>vfs_write (923,498 samples, 0.17%)</title><rect x="86.0" y="213" width="2.0" height="15.0" fill="rgb(250,209,50)" rx="2" ry="2" />
<text  x="88.99" y="223.5" ></text>
</g>
<g >
<title>charge_memcg (923,368 samples, 0.17%)</title><rect x="88.0" y="165" width="2.0" height="15.0" fill="rgb(242,170,40)" rx="2" ry="2" />
<text  x="90.98" y="175.5" ></text>
</g>
<g >
<title>mas_preallocate (272,874 samples, 0.05%)</title><rect x="90.0" y="133" width="0.5" height="15.0" fill="rgb(206,8,2)" rx="2" ry="2" />
<text  x="92.96" y="143.5" ></text>
</g>
<g >
<title>w2c_decode__webp__wasmsimd_DC16_SSE2 (1,847,776 samples, 0.34%)</title><rect x="143.2" y="293" width="4.0" height="15.0" fill="rgb(213,37,8)" rx="2" ry="2" />
<text  x="146.22" y="303.5" ></text>
</g>
<g >
<title>ext4_dirty_inode (923,498 samples, 0.17%)</title><rect x="86.0" y="133" width="2.0" height="15.0" fill="rgb(227,102,24)" rx="2" ry="2" />
<text  x="88.99" y="143.5" ></text>
</g>
<g >
<title>exc_page_fault (923,368 samples, 0.17%)</title><rect x="88.0" y="245" width="2.0" height="15.0" fill="rgb(212,35,8)" rx="2" ry="2" />
<text  x="90.98" y="255.5" ></text>
</g>
<g >
<title>w2c_decode__webp__wasmsimd_VE8uv_SSE2 (924,278 samples, 0.17%)</title><rect x="82.8" y="197" width="2.0" height="15.0" fill="rgb(219,66,15)" rx="2" ry="2" />
<text  x="85.78" y="207.5" ></text>
</g>
<g >
<title>__handle_mm_fault (923,368 samples, 0.17%)</title><rect x="88.0" y="197" width="2.0" height="15.0" fill="rgb(207,9,2)" rx="2" ry="2" />
<text  x="90.98" y="207.5" ></text>
</g>
<g >
<title>exc_page_fault (560,020 samples, 0.10%)</title><rect x="220.4" y="261" width="1.2" height="15.0" fill="rgb(212,35,8)" rx="2" ry="2" />
<text  x="223.43" y="271.5" ></text>
</g>
<g >
<title>__vma_adjust (272,874 samples, 0.05%)</title><rect x="90.0" y="149" width="0.5" height="15.0" fill="rgb(224,87,20)" rx="2" ry="2" />
<text  x="92.96" y="159.5" ></text>
</g>
<g >
<title>do_exit (923,558 samples, 0.17%)</title><rect x="131.3" y="229" width="2.0" height="15.0" fill="rgb(231,122,29)" rx="2" ry="2" />
<text  x="134.32" y="239.5" ></text>
</g>
<g >
<title>crypto_shash_update (923,498 samples, 0.17%)</title><rect x="86.0" y="37" width="2.0" height="15.0" fill="rgb(228,110,26)" rx="2" ry="2" />
<text  x="88.99" y="47.5" ></text>
</g>
<g >
<title>w2c_decode__webp__wasmsimd_HFilter16_SSE2 (3,695,879 samples, 0.67%)</title><rect x="823.4" y="293" width="8.0" height="15.0" fill="rgb(253,224,53)" rx="2" ry="2" />
<text  x="826.42" y="303.5" ></text>
</g>
<g >
<title>w2c_decode__webp__wasmsimd_TransformAC3_C (4,615,901 samples, 0.84%)</title><rect x="1051.4" y="293" width="9.9" height="15.0" fill="rgb(251,211,50)" rx="2" ry="2" />
<text  x="1054.36" y="303.5" ></text>
</g>
<g >
<title>asm_exc_page_fault (751,554 samples, 0.14%)</title><rect x="1072.4" y="277" width="1.6" height="15.0" fill="rgb(225,93,22)" rx="2" ry="2" />
<text  x="1075.40" y="287.5" ></text>
</g>
<g >
<title>__mem_cgroup_charge (923,368 samples, 0.17%)</title><rect x="88.0" y="181" width="2.0" height="15.0" fill="rgb(218,60,14)" rx="2" ry="2" />
<text  x="90.98" y="191.5" ></text>
</g>
<g >
<title>do_user_addr_fault (570,754 samples, 0.10%)</title><rect x="84.8" y="213" width="1.2" height="15.0" fill="rgb(228,108,25)" rx="2" ry="2" />
<text  x="87.77" y="223.5" ></text>
</g>
<g >
<title>__handle_mm_fault (751,554 samples, 0.14%)</title><rect x="1072.4" y="213" width="1.6" height="15.0" fill="rgb(207,9,2)" rx="2" ry="2" />
<text  x="1075.40" y="223.5" ></text>
</g>
<g >
<title>bprm_execve (63,651 samples, 0.01%)</title><rect x="1189.9" y="213" width="0.1" height="15.0" fill="rgb(218,61,14)" rx="2" ry="2" />
<text  x="1192.86" y="223.5" ></text>
</g>
<g >
<title>w2c_decode__webp__wasmsimd_LD4_SSE2 (924,168 samples, 0.17%)</title><rect x="37.4" y="197" width="2.0" height="15.0" fill="rgb(234,135,32)" rx="2" ry="2" />
<text  x="40.44" y="207.5" ></text>
</g>
<g >
<title>do_user_addr_fault (560,020 samples, 0.10%)</title><rect x="220.4" y="245" width="1.2" height="15.0" fill="rgb(228,108,25)" rx="2" ry="2" />
<text  x="223.43" y="255.5" ></text>
</g>
<g >
<title>handle_mm_fault (560,020 samples, 0.10%)</title><rect x="220.4" y="229" width="1.2" height="15.0" fill="rgb(234,135,32)" rx="2" ry="2" />
<text  x="223.43" y="239.5" ></text>
</g>
<g >
<title>w2c_decode__webp__wasmsimd_DC8uv_SSE2 (3,693,534 samples, 0.67%)</title><rect x="147.2" y="293" width="7.9" height="15.0" fill="rgb(248,200,48)" rx="2" ry="2" />
<text  x="150.19" y="303.5" ></text>
</g>
<g >
<title>bprm_execve (272,874 samples, 0.05%)</title><rect x="90.0" y="213" width="0.5" height="15.0" fill="rgb(218,61,14)" rx="2" ry="2" />
<text  x="92.96" y="223.5" ></text>
</g>
<g >
<title>do_syscall_64 (63,651 samples, 0.01%)</title><rect x="1189.9" y="261" width="0.1" height="15.0" fill="rgb(209,20,4)" rx="2" ry="2" />
<text  x="1192.86" y="271.5" ></text>
</g>
<g >
<title>w2c_decode__webp__wasmsimd_HFilter16i_SSE2 (6,461,709 samples, 1.18%)</title><rect x="831.4" y="293" width="13.8" height="15.0" fill="rgb(225,93,22)" rx="2" ry="2" />
<text  x="834.36" y="303.5" ></text>
</g>
<g >
<title>w2c_decode__webp__wasmsimd_DC16NoLeft_SSE2 (924,195 samples, 0.17%)</title><rect x="141.2" y="293" width="2.0" height="15.0" fill="rgb(240,163,39)" rx="2" ry="2" />
<text  x="144.24" y="303.5" ></text>
</g>
<g >
<title>track_pfn_insert (570,754 samples, 0.10%)</title><rect x="84.8" y="117" width="1.2" height="15.0" fill="rgb(230,115,27)" rx="2" ry="2" />
<text  x="87.77" y="127.5" ></text>
</g>
<g >
<title>w2c_decode__webp__wasmsimd_VP8YuvToRgb32_SSE2 (34,790,619 samples, 6.33%)</title><rect x="1113.2" y="293" width="74.8" height="15.0" fill="rgb(233,129,31)" rx="2" ry="2" />
<text  x="1116.23" y="303.5" >w2c_deco..</text>
</g>
<g >
<title>w2c_decode__webp__wasmsimd_DC4_C (3,586,533 samples, 0.65%)</title><rect x="10.0" y="197" width="7.7" height="15.0" fill="rgb(250,210,50)" rx="2" ry="2" />
<text  x="13.00" y="207.5" ></text>
</g>
<g >
<title>w2c_decode__webp__wasmsimd_RD4_SSE2 (1,847,505 samples, 0.34%)</title><rect x="39.4" y="197" width="4.0" height="15.0" fill="rgb(245,187,44)" rx="2" ry="2" />
<text  x="42.43" y="207.5" ></text>
</g>
<g >
<title>find_next_iomem_res (570,754 samples, 0.10%)</title><rect x="84.8" y="53" width="1.2" height="15.0" fill="rgb(253,222,53)" rx="2" ry="2" />
<text  x="87.77" y="63.5" ></text>
</g>
<g >
<title>__x64_sys_exit_group (923,558 samples, 0.17%)</title><rect x="131.3" y="261" width="2.0" height="15.0" fill="rgb(214,42,10)" rx="2" ry="2" />
<text  x="134.32" y="271.5" ></text>
</g>
<g >
<title>handle_mm_fault (923,368 samples, 0.17%)</title><rect x="88.0" y="213" width="2.0" height="15.0" fill="rgb(234,135,32)" rx="2" ry="2" />
<text  x="90.98" y="223.5" ></text>
</g>
<g >
<title>exc_page_fault (570,754 samples, 0.10%)</title><rect x="84.8" y="229" width="1.2" height="15.0" fill="rgb(212,35,8)" rx="2" ry="2" />
<text  x="87.77" y="239.5" ></text>
</g>
<g >
<title>next_uptodate_page (528,219 samples, 0.10%)</title><rect x="90.5" y="149" width="1.2" height="15.0" fill="rgb(210,25,6)" rx="2" ry="2" />
<text  x="93.55" y="159.5" ></text>
</g>
<g >
<title>pat_pagerange_is_ram (570,754 samples, 0.10%)</title><rect x="84.8" y="85" width="1.2" height="15.0" fill="rgb(225,93,22)" rx="2" ry="2" />
<text  x="87.77" y="95.5" ></text>
</g>
<g >
<title>decode_webp_was (549,230,272 samples, 99.99%)</title><rect x="10.0" y="309" width="1179.9" height="15.0" fill="rgb(216,54,12)" rx="2" ry="2" />
<text  x="13.00" y="319.5" >decode_webp_was</text>
</g>
<g >
<title>w2c_decode__webp__wasmsimd_HFilter8i_SSE2 (4,617,278 samples, 0.84%)</title><rect x="855.2" y="293" width="9.9" height="15.0" fill="rgb(229,110,26)" rx="2" ry="2" />
<text  x="858.16" y="303.5" ></text>
</g>
<g >
<title>unmap_vmas (923,558 samples, 0.17%)</title><rect x="131.3" y="181" width="2.0" height="15.0" fill="rgb(243,176,42)" rx="2" ry="2" />
<text  x="134.32" y="191.5" ></text>
</g>
<g >
<title>vmf_insert_pfn_prot (570,754 samples, 0.10%)</title><rect x="84.8" y="133" width="1.2" height="15.0" fill="rgb(207,13,3)" rx="2" ry="2" />
<text  x="87.77" y="143.5" ></text>
</g>
<g >
<title>perf-exec (63,651 samples, 0.01%)</title><rect x="1189.9" y="309" width="0.1" height="15.0" fill="rgb(231,123,29)" rx="2" ry="2" />
<text  x="1192.86" y="319.5" ></text>
</g>
<g >
<title>w2c_decode__webp__wasmsimd_HE8uv_C (2,770,680 samples, 0.50%)</title><rect x="817.5" y="293" width="5.9" height="15.0" fill="rgb(218,60,14)" rx="2" ry="2" />
<text  x="820.46" y="303.5" ></text>
</g>
<g >
<title>[unknown] (34,805,168 samples, 6.34%)</title><rect x="10.0" y="261" width="74.8" height="15.0" fill="rgb(210,24,5)" rx="2" ry="2" />
<text  x="13.00" y="271.5" >[unknown]</text>
</g>
<g >
<title>ext4_mark_iloc_dirty (923,498 samples, 0.17%)</title><rect x="86.0" y="101" width="2.0" height="15.0" fill="rgb(226,101,24)" rx="2" ry="2" />
<text  x="88.99" y="111.5" ></text>
</g>
<g >
<title>w2c_decode__webp__wasmsimd_Transform_SSE2 (5,519,358 samples, 1.00%)</title><rect x="113.5" y="277" width="11.9" height="15.0" fill="rgb(224,91,21)" rx="2" ry="2" />
<text  x="116.51" y="287.5" ></text>
</g>
<g >
<title>[unknown] (34,805,168 samples, 6.34%)</title><rect x="10.0" y="229" width="74.8" height="15.0" fill="rgb(210,24,5)" rx="2" ry="2" />
<text  x="13.00" y="239.5" >[unknown]</text>
</g>
<g >
<title>unmap_page_range (923,558 samples, 0.17%)</title><rect x="131.3" y="165" width="2.0" height="15.0" fill="rgb(206,5,1)" rx="2" ry="2" />
<text  x="134.32" y="175.5" ></text>
</g>
<g >
<title>w2c_decode__webp__wasmsimd_TransformDC_C (891,167 samples, 0.16%)</title><rect x="70.9" y="197" width="2.0" height="15.0" fill="rgb(211,27,6)" rx="2" ry="2" />
<text  x="73.95" y="207.5" ></text>
</g>
<g >
<title>[unknown] (63,651 samples, 0.01%)</title><rect x="1189.9" y="293" width="0.1" height="15.0" fill="rgb(210,24,5)" rx="2" ry="2" />
<text  x="1192.86" y="303.5" ></text>
</g>
<g >
<title>charge_memcg (560,020 samples, 0.10%)</title><rect x="220.4" y="181" width="1.2" height="15.0" fill="rgb(242,170,40)" rx="2" ry="2" />
<text  x="223.43" y="191.5" ></text>
</g>
<g >
<title>w2c_decode__webp__wasmsimd_VE4_SSE2 (2,770,788 samples, 0.50%)</title><rect x="76.8" y="197" width="6.0" height="15.0" fill="rgb(213,38,9)" rx="2" ry="2" />
<text  x="79.83" y="207.5" ></text>
</g>
<g >
<title>w2c_decode__webp__wasmsimd_ReconstructRow (6,464,144 samples, 1.18%)</title><rect x="1037.5" y="293" width="13.9" height="15.0" fill="rgb(217,55,13)" rx="2" ry="2" />
<text  x="1040.48" y="303.5" ></text>
</g>
<g >
<title>exc_page_fault (528,219 samples, 0.10%)</title><rect x="90.5" y="245" width="1.2" height="15.0" fill="rgb(212,35,8)" rx="2" ry="2" />
<text  x="93.55" y="255.5" ></text>
</g>
<g >
<title>w2c_decode__webp__wasmsimd_HE4_C (924,125 samples, 0.17%)</title><rect x="29.5" y="197" width="2.0" height="15.0" fill="rgb(212,32,7)" rx="2" ry="2" />
<text  x="32.50" y="207.5" ></text>
</g>
<g >
<title>w2c_decode__webp__wasmsimd_GetCoeffsAlt (223,918,357 samples, 40.76%)</title><rect x="229.5" y="293" width="481.1" height="15.0" fill="rgb(214,45,10)" rx="2" ry="2" />
<text  x="232.54" y="303.5" >w2c_decode__webp__wasmsimd_GetCoeffsAlt</text>
</g>
<g >
<title>check_preemption_disabled (560,020 samples, 0.10%)</title><rect x="220.4" y="149" width="1.2" height="15.0" fill="rgb(220,73,17)" rx="2" ry="2" />
<text  x="223.43" y="159.5" ></text>
</g>
<g >
<title>__mem_cgroup_charge (560,020 samples, 0.10%)</title><rect x="220.4" y="197" width="1.2" height="15.0" fill="rgb(218,60,14)" rx="2" ry="2" />
<text  x="223.43" y="207.5" ></text>
</g>
<g >
<title>__memmove_avx_unaligned_erms (921,832 samples, 0.17%)</title><rect x="125.4" y="293" width="1.9" height="15.0" fill="rgb(205,0,0)" rx="2" ry="2" />
<text  x="128.37" y="303.5" ></text>
</g>
<g >
<title>mas_alloc_nodes (272,874 samples, 0.05%)</title><rect x="90.0" y="117" width="0.5" height="15.0" fill="rgb(215,46,11)" rx="2" ry="2" />
<text  x="92.96" y="127.5" ></text>
</g>
<g >
<title>generic_perform_write (923,498 samples, 0.17%)</title><rect x="86.0" y="181" width="2.0" height="15.0" fill="rgb(236,146,35)" rx="2" ry="2" />
<text  x="88.99" y="191.5" ></text>
</g>
<g >
<title>w2c_decode__webp__wasmsimd_Transform_SSE2 (1,846,734 samples, 0.34%)</title><rect x="72.9" y="197" width="3.9" height="15.0" fill="rgb(224,91,21)" rx="2" ry="2" />
<text  x="75.86" y="207.5" ></text>
</g>
<g >
<title>w2c_decode__webp__wasmsimd_FinishRow (1,847,269 samples, 0.34%)</title><rect x="225.6" y="293" width="3.9" height="15.0" fill="rgb(205,3,0)" rx="2" ry="2" />
<text  x="228.57" y="303.5" ></text>
</g>
<g >
<title>do_execveat_common.isra.0 (63,651 samples, 0.01%)</title><rect x="1189.9" y="229" width="0.1" height="15.0" fill="rgb(231,123,29)" rx="2" ry="2" />
<text  x="1192.86" y="239.5" ></text>
</g>
<g >
<title>__memmove_avx_unaligned_erms (923,368 samples, 0.17%)</title><rect x="88.0" y="277" width="2.0" height="15.0" fill="rgb(205,0,0)" rx="2" ry="2" />
<text  x="90.98" y="287.5" ></text>
</g>
<g >
<title>__x64_sys_execve (272,874 samples, 0.05%)</title><rect x="90.0" y="245" width="0.5" height="15.0" fill="rgb(247,193,46)" rx="2" ry="2" />
<text  x="92.96" y="255.5" ></text>
</g>
<g >
<title>w2c_decode__webp__wasmsimd_UpsampleRgbLinePair_SSE2 (5,928,128 samples, 1.08%)</title><rect x="1061.3" y="293" width="12.7" height="15.0" fill="rgb(212,33,7)" rx="2" ry="2" />
<text  x="1064.28" y="303.5" ></text>
</g>
<g >
<title>entry_SYSCALL_64_after_hwframe (923,498 samples, 0.17%)</title><rect x="86.0" y="261" width="2.0" height="15.0" fill="rgb(218,63,15)" rx="2" ry="2" />
<text  x="88.99" y="271.5" ></text>
</g>
<g >
<title>asm_exc_page_fault (570,754 samples, 0.10%)</title><rect x="84.8" y="245" width="1.2" height="15.0" fill="rgb(225,93,22)" rx="2" ry="2" />
<text  x="87.77" y="255.5" ></text>
</g>
<g >
<title>kmem_cache_alloc_bulk (272,874 samples, 0.05%)</title><rect x="90.0" y="101" width="0.5" height="15.0" fill="rgb(234,135,32)" rx="2" ry="2" />
<text  x="92.96" y="111.5" ></text>
</g>
<g >
<title>ext4_fill_raw_inode (923,498 samples, 0.17%)</title><rect x="86.0" y="85" width="2.0" height="15.0" fill="rgb(240,165,39)" rx="2" ry="2" />
<text  x="88.99" y="95.5" ></text>
</g>
<g >
<title>_compound_head (923,558 samples, 0.17%)</title><rect x="131.3" y="149" width="2.0" height="15.0" fill="rgb(225,94,22)" rx="2" ry="2" />
<text  x="134.32" y="159.5" ></text>
</g>
<g >
<title>asm_exc_page_fault (923,368 samples, 0.17%)</title><rect x="88.0" y="261" width="2.0" height="15.0" fill="rgb(225,93,22)" rx="2" ry="2" />
<text  x="90.98" y="271.5" ></text>
</g>
<g >
<title>[unknown] (34,805,168 samples, 6.34%)</title><rect x="10.0" y="213" width="74.8" height="15.0" fill="rgb(210,24,5)" rx="2" ry="2" />
<text  x="13.00" y="223.5" >[unknown]</text>
</g>
<g >
<title>perf_event_exec (63,651 samples, 0.01%)</title><rect x="1189.9" y="165" width="0.1" height="15.0" fill="rgb(218,60,14)" rx="2" ry="2" />
<text  x="1192.86" y="175.5" ></text>
</g>
<g >
<title>__handle_mm_fault (570,754 samples, 0.10%)</title><rect x="84.8" y="181" width="1.2" height="15.0" fill="rgb(207,9,2)" rx="2" ry="2" />
<text  x="87.77" y="191.5" ></text>
</g>
<g >
<title>do_syscall_64 (923,498 samples, 0.17%)</title><rect x="86.0" y="245" width="2.0" height="15.0" fill="rgb(209,20,4)" rx="2" ry="2" />
<text  x="88.99" y="255.5" ></text>
</g>
<g >
<title>exit_mmap (923,558 samples, 0.17%)</title><rect x="131.3" y="197" width="2.0" height="15.0" fill="rgb(236,143,34)" rx="2" ry="2" />
<text  x="134.32" y="207.5" ></text>
</g>
<g >
<title>__ext4_mark_inode_dirty (923,498 samples, 0.17%)</title><rect x="86.0" y="117" width="2.0" height="15.0" fill="rgb(227,104,25)" rx="2" ry="2" />
<text  x="88.99" y="127.5" ></text>
</g>
<g >
<title>w2c_decode__webp__wasmsimd_TM4_SSE2 (924,318 samples, 0.17%)</title><rect x="67.0" y="197" width="2.0" height="15.0" fill="rgb(224,90,21)" rx="2" ry="2" />
<text  x="69.98" y="207.5" ></text>
</g>
<g >
<title>do_execveat_common.isra.0 (272,874 samples, 0.05%)</title><rect x="90.0" y="229" width="0.5" height="15.0" fill="rgb(231,123,29)" rx="2" ry="2" />
<text  x="92.96" y="239.5" ></text>
</g>
<g >
<title>entry_SYSCALL_64_after_hwframe (63,651 samples, 0.01%)</title><rect x="1189.9" y="277" width="0.1" height="15.0" fill="rgb(218,63,15)" rx="2" ry="2" />
<text  x="1192.86" y="287.5" ></text>
</g>
<g >
<title>w2c_decode__webp__wasmsimd_IDecode (80,252,739 samples, 14.61%)</title><rect x="865.1" y="293" width="172.4" height="15.0" fill="rgb(237,147,35)" rx="2" ry="2" />
<text  x="868.08" y="303.5" >w2c_decode__webp__wasm..</text>
</g>
<g >
<title>asm_exc_page_fault (528,219 samples, 0.10%)</title><rect x="90.5" y="261" width="1.2" height="15.0" fill="rgb(225,93,22)" rx="2" ry="2" />
<text  x="93.55" y="271.5" ></text>
</g>
<g >
<title>__mmput (923,558 samples, 0.17%)</title><rect x="131.3" y="213" width="2.0" height="15.0" fill="rgb(249,203,48)" rx="2" ry="2" />
<text  x="134.32" y="223.5" ></text>
</g>
<g >
<title>do_user_addr_fault (751,554 samples, 0.14%)</title><rect x="1072.4" y="245" width="1.6" height="15.0" fill="rgb(228,108,25)" rx="2" ry="2" />
<text  x="1075.40" y="255.5" ></text>
</g>
<g >
<title>do_group_exit (923,558 samples, 0.17%)</title><rect x="131.3" y="245" width="2.0" height="15.0" fill="rgb(219,67,16)" rx="2" ry="2" />
<text  x="134.32" y="255.5" ></text>
</g>
<g >
<title>exc_page_fault (751,554 samples, 0.14%)</title><rect x="1072.4" y="261" width="1.6" height="15.0" fill="rgb(212,35,8)" rx="2" ry="2" />
<text  x="1075.40" y="271.5" ></text>
</g>
<g >
<title>w2c_decode__webp__wasmsimd_VFilter8i_SSE2 (1,842,233 samples, 0.34%)</title><rect x="1085.8" y="293" width="3.9" height="15.0" fill="rgb(238,154,36)" rx="2" ry="2" />
<text  x="1088.77" y="303.5" ></text>
</g>
<g >
<title>do_syscall_64 (272,874 samples, 0.05%)</title><rect x="90.0" y="261" width="0.5" height="15.0" fill="rgb(209,20,4)" rx="2" ry="2" />
<text  x="92.96" y="271.5" ></text>
</g>
<g >
<title>strchr (528,219 samples, 0.10%)</title><rect x="90.5" y="277" width="1.2" height="15.0" fill="rgb(237,147,35)" rx="2" ry="2" />
<text  x="93.55" y="287.5" ></text>
</g>
<g >
<title>__do_fault (570,754 samples, 0.10%)</title><rect x="84.8" y="149" width="1.2" height="15.0" fill="rgb(221,74,17)" rx="2" ry="2" />
<text  x="87.77" y="159.5" ></text>
</g>
<g >
<title>w2c_decode__webp__wasmsimd_HFilter8_SSE2 (4,619,254 samples, 0.84%)</title><rect x="845.2" y="293" width="10.0" height="15.0" fill="rgb(207,10,2)" rx="2" ry="2" />
<text  x="848.24" y="303.5" ></text>
</g>
<g >
<title>w2c_decode__webp__wasmsimd_VP8GetValue (2,702,320 samples, 0.49%)</title><rect x="1089.7" y="293" width="5.8" height="15.0" fill="rgb(222,81,19)" rx="2" ry="2" />
<text  x="1092.72" y="303.5" ></text>
</g>
<g >
<title>w2c_decode__webp__wasmsimd_HD4_C (923,689 samples, 0.17%)</title><rect x="27.5" y="197" width="2.0" height="15.0" fill="rgb(218,62,14)" rx="2" ry="2" />
<text  x="30.52" y="207.5" ></text>
</g>
<g >
<title>get_mem_cgroup_from_mm (751,554 samples, 0.14%)</title><rect x="1072.4" y="181" width="1.6" height="15.0" fill="rgb(218,61,14)" rx="2" ry="2" />
<text  x="1075.40" y="191.5" ></text>
</g>
<g >
<title>ext4_buffered_write_iter (923,498 samples, 0.17%)</title><rect x="86.0" y="197" width="2.0" height="15.0" fill="rgb(213,40,9)" rx="2" ry="2" />
<text  x="88.99" y="207.5" ></text>
</g>
<g >
<title>handle_mm_fault (570,754 samples, 0.10%)</title><rect x="84.8" y="197" width="1.2" height="15.0" fill="rgb(234,135,32)" rx="2" ry="2" />
<text  x="87.77" y="207.5" ></text>
</g>
<g >
<title>w2c_decode__webp__wasmsimd_ReconstructRow (10,978,203 samples, 2.00%)</title><rect x="43.4" y="197" width="23.6" height="15.0" fill="rgb(217,55,13)" rx="2" ry="2" />
<text  x="46.40" y="207.5" >w..</text>
</g>
<g >
<title>[unknown] (34,805,168 samples, 6.34%)</title><rect x="10.0" y="245" width="74.8" height="15.0" fill="rgb(210,24,5)" rx="2" ry="2" />
<text  x="13.00" y="255.5" >[unknown]</text>
</g>
<g >
<title>do_user_addr_fault (923,368 samples, 0.17%)</title><rect x="88.0" y="229" width="2.0" height="15.0" fill="rgb(228,108,25)" rx="2" ry="2" />
<text  x="90.98" y="239.5" ></text>
</g>
<g >
<title>w2c_decode__webp__wasmsimd_IDecode (5,542,601 samples, 1.01%)</title><rect x="101.6" y="277" width="11.9" height="15.0" fill="rgb(237,147,35)" rx="2" ry="2" />
<text  x="104.60" y="287.5" ></text>
</g>
<g >
<title>walk_system_ram_range (570,754 samples, 0.10%)</title><rect x="84.8" y="69" width="1.2" height="15.0" fill="rgb(206,6,1)" rx="2" ry="2" />
<text  x="87.77" y="79.5" ></text>
</g>
<g >
<title>load_elf_binary (272,874 samples, 0.05%)</title><rect x="90.0" y="197" width="0.5" height="15.0" fill="rgb(223,83,20)" rx="2" ry="2" />
<text  x="92.96" y="207.5" ></text>
</g>
<g >
<title>w2c_decode__webp__wasmsimd_GetLargeValue (49,762,210 samples, 9.06%)</title><rect x="710.6" y="293" width="106.9" height="15.0" fill="rgb(234,137,32)" rx="2" ry="2" />
<text  x="713.56" y="303.5" >w2c_decode__w..</text>
</g>
<g >
<title>w2c_decode__webp__wasmsimd_VP8LReadBits (4,550,263 samples, 0.83%)</title><rect x="1097.5" y="293" width="9.8" height="15.0" fill="rgb(228,108,26)" rx="2" ry="2" />
<text  x="1100.51" y="303.5" ></text>
</g>
<g >
<title>__x64_sys_execve (63,651 samples, 0.01%)</title><rect x="1189.9" y="245" width="0.1" height="15.0" fill="rgb(247,193,46)" rx="2" ry="2" />
<text  x="1192.86" y="255.5" ></text>
</g>
<g >
<title>setup_arg_pages (272,874 samples, 0.05%)</title><rect x="90.0" y="181" width="0.5" height="15.0" fill="rgb(222,82,19)" rx="2" ry="2" />
<text  x="92.96" y="191.5" ></text>
</g>
<g >
<title>w2c_decode__webp__wasmsimd_GetCoeffsAlt (2,771,383 samples, 0.50%)</title><rect x="95.7" y="277" width="5.9" height="15.0" fill="rgb(214,45,10)" rx="2" ry="2" />
<text  x="98.65" y="287.5" ></text>
</g>
<g >
<title>w2c_decode__webp__wasmsimd_memcpy (881,104 samples, 0.16%)</title><rect x="1188.0" y="293" width="1.9" height="15.0" fill="rgb(249,206,49)" rx="2" ry="2" />
<text  x="1190.97" y="303.5" ></text>
</g>
<g >
<title>[unknown] (34,805,168 samples, 6.34%)</title><rect x="10.0" y="277" width="74.8" height="15.0" fill="rgb(210,24,5)" rx="2" ry="2" />
<text  x="13.00" y="287.5" >[unknown]</text>
</g>
<g >
<title>all (549,293,923 samples, 100%)</title><rect x="10.0" y="325" width="1180.0" height="15.0" fill="rgb(213,39,9)" rx="2" ry="2" />
<text  x="13.00" y="335.5" ></text>
</g>
<g >
<title>__vdso_gettimeofday (570,754 samples, 0.10%)</title><rect x="84.8" y="261" width="1.2" height="15.0" fill="rgb(222,81,19)" rx="2" ry="2" />
<text  x="87.77" y="271.5" ></text>
</g>
<g >
<title>load_elf_binary (63,651 samples, 0.01%)</title><rect x="1189.9" y="197" width="0.1" height="15.0" fill="rgb(223,83,20)" rx="2" ry="2" />
<text  x="1192.86" y="207.5" ></text>
</g>
<g >
<title>filemap_map_pages (528,219 samples, 0.10%)</title><rect x="90.5" y="165" width="1.2" height="15.0" fill="rgb(229,112,27)" rx="2" ry="2" />
<text  x="93.55" y="175.5" ></text>
</g>
<g >
<title>try_charge_memcg (923,368 samples, 0.17%)</title><rect x="88.0" y="149" width="2.0" height="15.0" fill="rgb(210,27,6)" rx="2" ry="2" />
<text  x="90.98" y="159.5" ></text>
</g>
<g >
<title>do_fault (528,219 samples, 0.10%)</title><rect x="90.5" y="181" width="1.2" height="15.0" fill="rgb(248,200,47)" rx="2" ry="2" />
<text  x="93.55" y="191.5" ></text>
</g>
<g >
<title>entry_SYSCALL_64_after_hwframe (923,558 samples, 0.17%)</title><rect x="131.3" y="293" width="2.0" height="15.0" fill="rgb(218,63,15)" rx="2" ry="2" />
<text  x="134.32" y="303.5" ></text>
</g>
<g >
<title>__libc_write (923,498 samples, 0.17%)</title><rect x="86.0" y="277" width="2.0" height="15.0" fill="rgb(238,154,37)" rx="2" ry="2" />
<text  x="88.99" y="287.5" ></text>
</g>
<g >
<title>lookup_memtype (570,754 samples, 0.10%)</title><rect x="84.8" y="101" width="1.2" height="15.0" fill="rgb(229,114,27)" rx="2" ry="2" />
<text  x="87.77" y="111.5" ></text>
</g>
<g >
<title>asm_exc_page_fault (560,020 samples, 0.10%)</title><rect x="220.4" y="277" width="1.2" height="15.0" fill="rgb(225,93,22)" rx="2" ry="2" />
<text  x="223.43" y="287.5" ></text>
</g>
<g >
<title>w2c_decode__webp__wasmsimd_ExtractGreen_SSE2 (1,846,861 samples, 0.34%)</title><rect x="91.7" y="277" width="4.0" height="15.0" fill="rgb(217,58,14)" rx="2" ry="2" />
<text  x="94.68" y="287.5" ></text>
</g>
<g >
<title>w2c_decode__webp__wasmsimd_VFilter16_SSE2 (922,764 samples, 0.17%)</title><rect x="1074.0" y="293" width="2.0" height="15.0" fill="rgb(213,38,9)" rx="2" ry="2" />
<text  x="1077.02" y="303.5" ></text>
</g>
<g >
<title>w2c_decode__webp__wasmsimd_DecodeImageData (30,958,566 samples, 5.64%)</title><rect x="155.1" y="293" width="66.5" height="15.0" fill="rgb(246,191,45)" rx="2" ry="2" />
<text  x="158.13" y="303.5" >w2c_dec..</text>
</g>
<g >
<title>shift_arg_pages (272,874 samples, 0.05%)</title><rect x="90.0" y="165" width="0.5" height="15.0" fill="rgb(245,187,44)" rx="2" ry="2" />
<text  x="92.96" y="175.5" ></text>
</g>
<g >
<title>entry_SYSCALL_64_after_hwframe (272,874 samples, 0.05%)</title><rect x="90.0" y="277" width="0.5" height="15.0" fill="rgb(218,63,15)" rx="2" ry="2" />
<text  x="92.96" y="287.5" ></text>
</g>
<g >
<title>w2c_decode__webp__wasmsimd_IDecode (2,771,728 samples, 0.50%)</title><rect x="31.5" y="197" width="5.9" height="15.0" fill="rgb(237,147,35)" rx="2" ry="2" />
<text  x="34.49" y="207.5" ></text>
</g>
<g >
<title>handle_mm_fault (751,554 samples, 0.14%)</title><rect x="1072.4" y="229" width="1.6" height="15.0" fill="rgb(234,135,32)" rx="2" ry="2" />
<text  x="1075.40" y="239.5" ></text>
</g>
<g >
<title>w2c_decode__webp__wasmsimd_TransformAC3_C (923,430 samples, 0.17%)</title><rect x="69.0" y="197" width="1.9" height="15.0" fill="rgb(251,211,50)" rx="2" ry="2" />
<text  x="71.97" y="207.5" ></text>
</g>
</g>
</svg>
