<?xml version="1.0" standalone="no"?>
<!DOCTYPE svg PUBLIC "-//W3C//DTD SVG 1.1//EN" "http://www.w3.org/Graphics/SVG/1.1/DTD/svg11.dtd">
<svg version="1.1" width="1200" height="406" onload="init(evt)" viewBox="0 0 1200 406" xmlns="http://www.w3.org/2000/svg" xmlns:xlink="http://www.w3.org/1999/xlink">
<!-- Flame graph stack visualization. See https://github.com/brendangregg/FlameGraph for latest version, and http://www.brendangregg.com/flamegraphs.html for examples. -->
<!-- NOTES:  -->
<defs>
	<linearGradient id="background" y1="0" y2="1" x1="0" x2="0" >
		<stop stop-color="#eeeeee" offset="5%" />
		<stop stop-color="#eeeeb0" offset="95%" />
	</linearGradient>
</defs>
<style type="text/css">
	text { font-family:Verdana; font-size:12px; fill:rgb(0,0,0); }
	#search, #ignorecase { opacity:0.1; cursor:pointer; }
	#search:hover, #search.show, #ignorecase:hover, #ignorecase.show { opacity:1; }
	#subtitle { text-anchor:middle; font-color:rgb(160,160,160); }
	#title { text-anchor:middle; font-size:17px}
	#unzoom { cursor:pointer; }
	#frames > *:hover { stroke:black; stroke-width:0.5; cursor:pointer; }
	.hide { display:none; }
	.parent { opacity:0.5; }
</style>
<script type="text/ecmascript">
<![CDATA[
	"use strict";
	var details, searchbtn, unzoombtn, matchedtxt, svg, searching, currentSearchTerm, ignorecase, ignorecaseBtn;
	function init(evt) {
		details = document.getElementById("details").firstChild;
		searchbtn = document.getElementById("search");
		ignorecaseBtn = document.getElementById("ignorecase");
		unzoombtn = document.getElementById("unzoom");
		matchedtxt = document.getElementById("matched");
		svg = document.getElementsByTagName("svg")[0];
		searching = 0;
		currentSearchTerm = null;

		// use GET parameters to restore a flamegraphs state.
		var params = get_params();
		if (params.x && params.y)
			zoom(find_group(document.querySelector('[x="' + params.x + '"][y="' + params.y + '"]')));
                if (params.s) search(params.s);
	}

	// event listeners
	window.addEventListener("click", function(e) {
		var target = find_group(e.target);
		if (target) {
			if (target.nodeName == "a") {
				if (e.ctrlKey === false) return;
				e.preventDefault();
			}
			if (target.classList.contains("parent")) unzoom(true);
			zoom(target);
			if (!document.querySelector('.parent')) {
				// we have basically done a clearzoom so clear the url
				var params = get_params();
				if (params.x) delete params.x;
				if (params.y) delete params.y;
				history.replaceState(null, null, parse_params(params));
				unzoombtn.classList.add("hide");
				return;
			}

			// set parameters for zoom state
			var el = target.querySelector("rect");
			if (el && el.attributes && el.attributes.y && el.attributes._orig_x) {
				var params = get_params()
				params.x = el.attributes._orig_x.value;
				params.y = el.attributes.y.value;
				history.replaceState(null, null, parse_params(params));
			}
		}
		else if (e.target.id == "unzoom") clearzoom();
		else if (e.target.id == "search") search_prompt();
		else if (e.target.id == "ignorecase") toggle_ignorecase();
	}, false)

	// mouse-over for info
	// show
	window.addEventListener("mouseover", function(e) {
		var target = find_group(e.target);
		if (target) details.nodeValue = "Function: " + g_to_text(target);
	}, false)

	// clear
	window.addEventListener("mouseout", function(e) {
		var target = find_group(e.target);
		if (target) details.nodeValue = ' ';
	}, false)

	// ctrl-F for search
	// ctrl-I to toggle case-sensitive search
	window.addEventListener("keydown",function (e) {
		if (e.keyCode === 114 || (e.ctrlKey && e.keyCode === 70)) {
			e.preventDefault();
			search_prompt();
		}
		else if (e.ctrlKey && e.keyCode === 73) {
			e.preventDefault();
			toggle_ignorecase();
		}
	}, false)

	// functions
	function get_params() {
		var params = {};
		var paramsarr = window.location.search.substr(1).split('&');
		for (var i = 0; i < paramsarr.length; ++i) {
			var tmp = paramsarr[i].split("=");
			if (!tmp[0] || !tmp[1]) continue;
			params[tmp[0]]  = decodeURIComponent(tmp[1]);
		}
		return params;
	}
	function parse_params(params) {
		var uri = "?";
		for (var key in params) {
			uri += key + '=' + encodeURIComponent(params[key]) + '&';
		}
		if (uri.slice(-1) == "&")
			uri = uri.substring(0, uri.length - 1);
		if (uri == '?')
			uri = window.location.href.split('?')[0];
		return uri;
	}
	function find_child(node, selector) {
		var children = node.querySelectorAll(selector);
		if (children.length) return children[0];
	}
	function find_group(node) {
		var parent = node.parentElement;
		if (!parent) return;
		if (parent.id == "frames") return node;
		return find_group(parent);
	}
	function orig_save(e, attr, val) {
		if (e.attributes["_orig_" + attr] != undefined) return;
		if (e.attributes[attr] == undefined) return;
		if (val == undefined) val = e.attributes[attr].value;
		e.setAttribute("_orig_" + attr, val);
	}
	function orig_load(e, attr) {
		if (e.attributes["_orig_"+attr] == undefined) return;
		e.attributes[attr].value = e.attributes["_orig_" + attr].value;
		e.removeAttribute("_orig_"+attr);
	}
	function g_to_text(e) {
		var text = find_child(e, "title").firstChild.nodeValue;
		return (text)
	}
	function g_to_func(e) {
		var func = g_to_text(e);
		// if there's any manipulation we want to do to the function
		// name before it's searched, do it here before returning.
		return (func);
	}
	function update_text(e) {
		var r = find_child(e, "rect");
		var t = find_child(e, "text");
		var w = parseFloat(r.attributes.width.value) -3;
		var txt = find_child(e, "title").textContent.replace(/\([^(]*\)$/,"");
		t.attributes.x.value = parseFloat(r.attributes.x.value) + 3;

		// Smaller than this size won't fit anything
		if (w < 2 * 12 * 0.59) {
			t.textContent = "";
			return;
		}

		t.textContent = txt;
		var sl = t.getSubStringLength(0, txt.length);
		// check if only whitespace or if we can fit the entire string into width w
		if (/^ *$/.test(txt) || sl < w)
			return;

		// this isn't perfect, but gives a good starting point
		// and avoids calling getSubStringLength too often
		var start = Math.floor((w/sl) * txt.length);
		for (var x = start; x > 0; x = x-2) {
			if (t.getSubStringLength(0, x + 2) <= w) {
				t.textContent = txt.substring(0, x) + "..";
				return;
			}
		}
		t.textContent = "";
	}

	// zoom
	function zoom_reset(e) {
		if (e.attributes != undefined) {
			orig_load(e, "x");
			orig_load(e, "width");
		}
		if (e.childNodes == undefined) return;
		for (var i = 0, c = e.childNodes; i < c.length; i++) {
			zoom_reset(c[i]);
		}
	}
	function zoom_child(e, x, ratio) {
		if (e.attributes != undefined) {
			if (e.attributes.x != undefined) {
				orig_save(e, "x");
				e.attributes.x.value = (parseFloat(e.attributes.x.value) - x - 10) * ratio + 10;
				if (e.tagName == "text")
					e.attributes.x.value = find_child(e.parentNode, "rect[x]").attributes.x.value + 3;
			}
			if (e.attributes.width != undefined) {
				orig_save(e, "width");
				e.attributes.width.value = parseFloat(e.attributes.width.value) * ratio;
			}
		}

		if (e.childNodes == undefined) return;
		for (var i = 0, c = e.childNodes; i < c.length; i++) {
			zoom_child(c[i], x - 10, ratio);
		}
	}
	function zoom_parent(e) {
		if (e.attributes) {
			if (e.attributes.x != undefined) {
				orig_save(e, "x");
				e.attributes.x.value = 10;
			}
			if (e.attributes.width != undefined) {
				orig_save(e, "width");
				e.attributes.width.value = parseInt(svg.width.baseVal.value) - (10 * 2);
			}
		}
		if (e.childNodes == undefined) return;
		for (var i = 0, c = e.childNodes; i < c.length; i++) {
			zoom_parent(c[i]);
		}
	}
	function zoom(node) {
		var attr = find_child(node, "rect").attributes;
		var width = parseFloat(attr.width.value);
		var xmin = parseFloat(attr.x.value);
		var xmax = parseFloat(xmin + width);
		var ymin = parseFloat(attr.y.value);
		var ratio = (svg.width.baseVal.value - 2 * 10) / width;

		// XXX: Workaround for JavaScript float issues (fix me)
		var fudge = 0.0001;

		unzoombtn.classList.remove("hide");

		var el = document.getElementById("frames").children;
		for (var i = 0; i < el.length; i++) {
			var e = el[i];
			var a = find_child(e, "rect").attributes;
			var ex = parseFloat(a.x.value);
			var ew = parseFloat(a.width.value);
			var upstack;
			// Is it an ancestor
			if (0 == 0) {
				upstack = parseFloat(a.y.value) > ymin;
			} else {
				upstack = parseFloat(a.y.value) < ymin;
			}
			if (upstack) {
				// Direct ancestor
				if (ex <= xmin && (ex+ew+fudge) >= xmax) {
					e.classList.add("parent");
					zoom_parent(e);
					update_text(e);
				}
				// not in current path
				else
					e.classList.add("hide");
			}
			// Children maybe
			else {
				// no common path
				if (ex < xmin || ex + fudge >= xmax) {
					e.classList.add("hide");
				}
				else {
					zoom_child(e, xmin, ratio);
					update_text(e);
				}
			}
		}
		search();
	}
	function unzoom(dont_update_text) {
		unzoombtn.classList.add("hide");
		var el = document.getElementById("frames").children;
		for(var i = 0; i < el.length; i++) {
			el[i].classList.remove("parent");
			el[i].classList.remove("hide");
			zoom_reset(el[i]);
			if(!dont_update_text) update_text(el[i]);
		}
		search();
	}
	function clearzoom() {
		unzoom();

		// remove zoom state
		var params = get_params();
		if (params.x) delete params.x;
		if (params.y) delete params.y;
		history.replaceState(null, null, parse_params(params));
	}

	// search
	function toggle_ignorecase() {
		ignorecase = !ignorecase;
		if (ignorecase) {
			ignorecaseBtn.classList.add("show");
		} else {
			ignorecaseBtn.classList.remove("show");
		}
		reset_search();
		search();
	}
	function reset_search() {
		var el = document.querySelectorAll("#frames rect");
		for (var i = 0; i < el.length; i++) {
			orig_load(el[i], "fill")
		}
		var params = get_params();
		delete params.s;
		history.replaceState(null, null, parse_params(params));
	}
	function search_prompt() {
		if (!searching) {
			var term = prompt("Enter a search term (regexp " +
			    "allowed, eg: ^ext4_)"
			    + (ignorecase ? ", ignoring case" : "")
			    + "\nPress Ctrl-i to toggle case sensitivity", "");
			if (term != null) search(term);
		} else {
			reset_search();
			searching = 0;
			currentSearchTerm = null;
			searchbtn.classList.remove("show");
			searchbtn.firstChild.nodeValue = "Search"
			matchedtxt.classList.add("hide");
			matchedtxt.firstChild.nodeValue = ""
		}
	}
	function search(term) {
		if (term) currentSearchTerm = term;

		var re = new RegExp(currentSearchTerm, ignorecase ? 'i' : '');
		var el = document.getElementById("frames").children;
		var matches = new Object();
		var maxwidth = 0;
		for (var i = 0; i < el.length; i++) {
			var e = el[i];
			var func = g_to_func(e);
			var rect = find_child(e, "rect");
			if (func == null || rect == null)
				continue;

			// Save max width. Only works as we have a root frame
			var w = parseFloat(rect.attributes.width.value);
			if (w > maxwidth)
				maxwidth = w;

			if (func.match(re)) {
				// highlight
				var x = parseFloat(rect.attributes.x.value);
				orig_save(rect, "fill");
				rect.attributes.fill.value = "rgb(230,0,230)";

				// remember matches
				if (matches[x] == undefined) {
					matches[x] = w;
				} else {
					if (w > matches[x]) {
						// overwrite with parent
						matches[x] = w;
					}
				}
				searching = 1;
			}
		}
		if (!searching)
			return;
		var params = get_params();
		params.s = currentSearchTerm;
		history.replaceState(null, null, parse_params(params));

		searchbtn.classList.add("show");
		searchbtn.firstChild.nodeValue = "Reset Search";

		// calculate percent matched, excluding vertical overlap
		var count = 0;
		var lastx = -1;
		var lastw = 0;
		var keys = Array();
		for (k in matches) {
			if (matches.hasOwnProperty(k))
				keys.push(k);
		}
		// sort the matched frames by their x location
		// ascending, then width descending
		keys.sort(function(a, b){
			return a - b;
		});
		// Step through frames saving only the biggest bottom-up frames
		// thanks to the sort order. This relies on the tree property
		// where children are always smaller than their parents.
		var fudge = 0.0001;	// JavaScript floating point
		for (var k in keys) {
			var x = parseFloat(keys[k]);
			var w = matches[keys[k]];
			if (x >= lastx + lastw - fudge) {
				count += w;
				lastx = x;
				lastw = w;
			}
		}
		// display matched percent
		matchedtxt.classList.remove("hide");
		var pct = 100 * count / maxwidth;
		if (pct != 100) pct = pct.toFixed(1)
		matchedtxt.firstChild.nodeValue = "Matched: " + pct + "%";
	}
]]>
</script>
<rect x="0.0" y="0" width="1200.0" height="406.0" fill="url(#background)"  />
<text id="title" x="600.00" y="24" >Flame Graph</text>
<text id="details" x="10.00" y="389" > </text>
<text id="unzoom" x="10.00" y="24" class="hide">Reset Zoom</text>
<text id="search" x="1090.00" y="24" >Search</text>
<text id="ignorecase" x="1174.00" y="24" >ic</text>
<text id="matched" x="1090.00" y="389" > </text>
<g id="frames">
<g >
<title>do_syscall_64 (922,853 samples, 0.12%)</title><rect x="13.3" y="277" width="1.4" height="15.0" fill="rgb(209,20,4)" rx="2" ry="2" />
<text  x="16.28" y="287.5" ></text>
</g>
<g >
<title>[unknown] (120,352,402 samples, 16.16%)</title><rect x="10.0" y="325" width="190.6" height="15.0" fill="rgb(210,24,5)" rx="2" ry="2" />
<text  x="13.00" y="335.5" >[unknown]</text>
</g>
<g >
<title>ext4_da_write_begin (922,853 samples, 0.12%)</title><rect x="13.3" y="197" width="1.4" height="15.0" fill="rgb(211,32,7)" rx="2" ry="2" />
<text  x="16.28" y="207.5" ></text>
</g>
<g >
<title>error_entry (743,829 samples, 0.10%)</title><rect x="1188.7" y="309" width="1.2" height="15.0" fill="rgb(240,163,39)" rx="2" ry="2" />
<text  x="1191.72" y="319.5" ></text>
</g>
<g >
<title>folio_alloc (922,853 samples, 0.12%)</title><rect x="13.3" y="149" width="1.4" height="15.0" fill="rgb(252,217,52)" rx="2" ry="2" />
<text  x="16.28" y="159.5" ></text>
</g>
<g >
<title>w2c_decode__webp__wasmsimd_PredictorAdd11_SSE2 (136,627,373 samples, 18.34%)</title><rect x="846.5" y="325" width="216.4" height="15.0" fill="rgb(233,130,31)" rx="2" ry="2" />
<text  x="849.47" y="335.5" >w2c_decode__webp__wasmsimd_P..</text>
</g>
<g >
<title>vfs_write (922,853 samples, 0.12%)</title><rect x="13.3" y="245" width="1.4" height="15.0" fill="rgb(250,209,50)" rx="2" ry="2" />
<text  x="16.28" y="255.5" ></text>
</g>
<g >
<title>do_syscall_64 (922,555 samples, 0.12%)</title><rect x="203.6" y="309" width="1.4" height="15.0" fill="rgb(209,20,4)" rx="2" ry="2" />
<text  x="206.57" y="319.5" ></text>
</g>
<g >
<title>w2c_decode__webp__wasmsimd_PredictorAdd1_SSE2 (9,232,139 samples, 1.24%)</title><rect x="113.1" y="309" width="14.6" height="15.0" fill="rgb(249,206,49)" rx="2" ry="2" />
<text  x="116.13" y="319.5" ></text>
</g>
<g >
<title>entry_SYSCALL_64_after_hwframe (1,563,816 samples, 0.21%)</title><rect x="10.8" y="293" width="2.5" height="15.0" fill="rgb(218,63,15)" rx="2" ry="2" />
<text  x="13.81" y="303.5" ></text>
</g>
<g >
<title>entry_SYSCALL_64_after_hwframe (922,853 samples, 0.12%)</title><rect x="13.3" y="293" width="1.4" height="15.0" fill="rgb(218,63,15)" rx="2" ry="2" />
<text  x="16.28" y="303.5" ></text>
</g>
<g >
<title>expand_downwards (268,108 samples, 0.04%)</title><rect x="14.7" y="197" width="0.5" height="15.0" fill="rgb(252,218,52)" rx="2" ry="2" />
<text  x="17.75" y="207.5" ></text>
</g>
<g >
<title>free_buffer_head (924,213 samples, 0.12%)</title><rect x="10.8" y="85" width="1.5" height="15.0" fill="rgb(243,177,42)" rx="2" ry="2" />
<text  x="13.81" y="95.5" ></text>
</g>
<g >
<title>pagecache_get_page (922,853 samples, 0.12%)</title><rect x="13.3" y="181" width="1.4" height="15.0" fill="rgb(253,221,53)" rx="2" ry="2" />
<text  x="16.28" y="191.5" ></text>
</g>
<g >
<title>do_sys_openat2 (1,563,816 samples, 0.21%)</title><rect x="10.8" y="245" width="2.5" height="15.0" fill="rgb(253,221,52)" rx="2" ry="2" />
<text  x="13.81" y="255.5" ></text>
</g>
<g >
<title>mas_preallocate (268,108 samples, 0.04%)</title><rect x="14.7" y="181" width="0.5" height="15.0" fill="rgb(206,8,2)" rx="2" ry="2" />
<text  x="17.75" y="191.5" ></text>
</g>
<g >
<title>perf-exec (64,480 samples, 0.01%)</title><rect x="1189.9" y="341" width="0.1" height="15.0" fill="rgb(231,123,29)" rx="2" ry="2" />
<text  x="1192.90" y="351.5" ></text>
</g>
<g >
<title>__x64_sys_exit_group (922,555 samples, 0.12%)</title><rect x="203.6" y="293" width="1.4" height="15.0" fill="rgb(214,42,10)" rx="2" ry="2" />
<text  x="206.57" y="303.5" ></text>
</g>
<g >
<title>__libc_write (922,853 samples, 0.12%)</title><rect x="13.3" y="309" width="1.4" height="15.0" fill="rgb(238,154,37)" rx="2" ry="2" />
<text  x="16.28" y="319.5" ></text>
</g>
<g >
<title>w2c_decode__webp__wasmsimd_VP8LInverseTransform (9,084,859 samples, 1.22%)</title><rect x="186.3" y="309" width="14.3" height="15.0" fill="rgb(225,96,23)" rx="2" ry="2" />
<text  x="189.25" y="319.5" ></text>
</g>
<g >
<title>__tunables_init (509,837 samples, 0.07%)</title><rect x="10.0" y="293" width="0.8" height="15.0" fill="rgb(237,149,35)" rx="2" ry="2" />
<text  x="13.00" y="303.5" ></text>
</g>
<g >
<title>do_truncate (924,213 samples, 0.12%)</title><rect x="10.8" y="197" width="1.5" height="15.0" fill="rgb(216,53,12)" rx="2" ry="2" />
<text  x="13.81" y="207.5" ></text>
</g>
<g >
<title>__rcu_read_lock (924,213 samples, 0.12%)</title><rect x="10.8" y="37" width="1.5" height="15.0" fill="rgb(220,69,16)" rx="2" ry="2" />
<text  x="13.81" y="47.5" ></text>
</g>
<g >
<title>truncate_inode_pages_range (924,213 samples, 0.12%)</title><rect x="10.8" y="133" width="1.5" height="15.0" fill="rgb(245,187,44)" rx="2" ry="2" />
<text  x="13.81" y="143.5" ></text>
</g>
<g >
<title>sync_regs (743,829 samples, 0.10%)</title><rect x="1188.7" y="293" width="1.2" height="15.0" fill="rgb(228,106,25)" rx="2" ry="2" />
<text  x="1191.72" y="303.5" ></text>
</g>
<g >
<title>generic_perform_write (922,853 samples, 0.12%)</title><rect x="13.3" y="213" width="1.4" height="15.0" fill="rgb(236,146,35)" rx="2" ry="2" />
<text  x="16.28" y="223.5" ></text>
</g>
<g >
<title>asm_exc_page_fault (509,837 samples, 0.07%)</title><rect x="10.0" y="277" width="0.8" height="15.0" fill="rgb(225,93,22)" rx="2" ry="2" />
<text  x="13.00" y="287.5" ></text>
</g>
<g >
<title>notify_change (924,213 samples, 0.12%)</title><rect x="10.8" y="181" width="1.5" height="15.0" fill="rgb(237,150,35)" rx="2" ry="2" />
<text  x="13.81" y="191.5" ></text>
</g>
<g >
<title>truncate_pagecache (924,213 samples, 0.12%)</title><rect x="10.8" y="149" width="1.5" height="15.0" fill="rgb(231,123,29)" rx="2" ry="2" />
<text  x="13.81" y="159.5" ></text>
</g>
<g >
<title>decode_webp_was (744,866,130 samples, 99.99%)</title><rect x="10.0" y="341" width="1179.9" height="15.0" fill="rgb(216,54,12)" rx="2" ry="2" />
<text  x="13.00" y="351.5" >decode_webp_was</text>
</g>
<g >
<title>entry_SYSCALL_64_after_hwframe (64,480 samples, 0.01%)</title><rect x="1189.9" y="309" width="0.1" height="15.0" fill="rgb(218,63,15)" rx="2" ry="2" />
<text  x="1192.90" y="319.5" ></text>
</g>
<g >
<title>w2c_decode__webp__wasmsimd_ConvertBGRAToRGB_SSE2 (27,602,105 samples, 3.71%)</title><rect x="317.7" y="325" width="43.7" height="15.0" fill="rgb(230,117,28)" rx="2" ry="2" />
<text  x="320.73" y="335.5" >w2c_..</text>
</g>
<g >
<title>all (744,930,610 samples, 100%)</title><rect x="10.0" y="357" width="1180.0" height="15.0" fill="rgb(213,39,9)" rx="2" ry="2" />
<text  x="13.00" y="367.5" ></text>
</g>
<g >
<title>__memmove_avx_unaligned_erms (1,847,213 samples, 0.25%)</title><rect x="200.6" y="325" width="3.0" height="15.0" fill="rgb(205,0,0)" rx="2" ry="2" />
<text  x="203.64" y="335.5" ></text>
</g>
<g >
<title>bprm_execve (64,480 samples, 0.01%)</title><rect x="1189.9" y="245" width="0.1" height="15.0" fill="rgb(218,61,14)" rx="2" ry="2" />
<text  x="1192.90" y="255.5" ></text>
</g>
<g >
<title>w2c_decode__webp__wasmsimd_PredictorAdd13_SSE2 (41,520,340 samples, 5.57%)</title><rect x="47.4" y="309" width="65.7" height="15.0" fill="rgb(220,70,16)" rx="2" ry="2" />
<text  x="50.36" y="319.5" >w2c_dec..</text>
</g>
<g >
<title>__handle_mm_fault (509,837 samples, 0.07%)</title><rect x="10.0" y="213" width="0.8" height="15.0" fill="rgb(207,9,2)" rx="2" ry="2" />
<text  x="13.00" y="223.5" ></text>
</g>
<g >
<title>link_path_walk.part.0.constprop.0 (639,603 samples, 0.09%)</title><rect x="12.3" y="197" width="1.0" height="15.0" fill="rgb(248,199,47)" rx="2" ry="2" />
<text  x="15.27" y="207.5" ></text>
</g>
<g >
<title>task_work_run (922,555 samples, 0.12%)</title><rect x="203.6" y="245" width="1.4" height="15.0" fill="rgb(209,22,5)" rx="2" ry="2" />
<text  x="206.57" y="255.5" ></text>
</g>
<g >
<title>filemap_map_pages (509,837 samples, 0.07%)</title><rect x="10.0" y="181" width="0.8" height="15.0" fill="rgb(229,112,27)" rx="2" ry="2" />
<text  x="13.00" y="191.5" ></text>
</g>
<g >
<title>do_execveat_common.isra.0 (268,108 samples, 0.04%)</title><rect x="14.7" y="261" width="0.5" height="15.0" fill="rgb(231,123,29)" rx="2" ry="2" />
<text  x="17.75" y="271.5" ></text>
</g>
<g >
<title>__x64_sys_openat (1,563,816 samples, 0.21%)</title><rect x="10.8" y="261" width="2.5" height="15.0" fill="rgb(251,215,51)" rx="2" ry="2" />
<text  x="13.81" y="271.5" ></text>
</g>
<g >
<title>__slab_free (922,555 samples, 0.12%)</title><rect x="203.6" y="213" width="1.4" height="15.0" fill="rgb(222,78,18)" rx="2" ry="2" />
<text  x="206.57" y="223.5" ></text>
</g>
<g >
<title>clear_page_rep (922,853 samples, 0.12%)</title><rect x="13.3" y="101" width="1.4" height="15.0" fill="rgb(253,221,52)" rx="2" ry="2" />
<text  x="16.28" y="111.5" ></text>
</g>
<g >
<title>ext4_setattr (924,213 samples, 0.12%)</title><rect x="10.8" y="165" width="1.5" height="15.0" fill="rgb(230,117,28)" rx="2" ry="2" />
<text  x="13.81" y="175.5" ></text>
</g>
<g >
<title>walk_component (639,603 samples, 0.09%)</title><rect x="12.3" y="181" width="1.0" height="15.0" fill="rgb(241,167,40)" rx="2" ry="2" />
<text  x="15.27" y="191.5" ></text>
</g>
<g >
<title>mas_alloc_nodes (268,108 samples, 0.04%)</title><rect x="14.7" y="165" width="0.5" height="15.0" fill="rgb(215,46,11)" rx="2" ry="2" />
<text  x="17.75" y="175.5" ></text>
</g>
<g >
<title>truncate_cleanup_folio (924,213 samples, 0.12%)</title><rect x="10.8" y="117" width="1.5" height="15.0" fill="rgb(240,165,39)" rx="2" ry="2" />
<text  x="13.81" y="127.5" ></text>
</g>
<g >
<title>do_exit (922,555 samples, 0.12%)</title><rect x="203.6" y="261" width="1.4" height="15.0" fill="rgb(231,122,29)" rx="2" ry="2" />
<text  x="206.57" y="271.5" ></text>
</g>
<g >
<title>w2c_decode__webp__wasmsimd_BuildHuffmanTable (71,144,898 samples, 9.55%)</title><rect x="205.0" y="325" width="112.7" height="15.0" fill="rgb(218,63,15)" rx="2" ry="2" />
<text  x="208.03" y="335.5" >w2c_decode__w..</text>
</g>
<g >
<title>do_group_exit (922,555 samples, 0.12%)</title><rect x="203.6" y="277" width="1.4" height="15.0" fill="rgb(219,67,16)" rx="2" ry="2" />
<text  x="206.57" y="287.5" ></text>
</g>
<g >
<title>w2c_decode__webp__wasmsimd_VP8LDoFillBitWindow (58,186,122 samples, 7.81%)</title><rect x="1090.7" y="325" width="92.2" height="15.0" fill="rgb(211,29,7)" rx="2" ry="2" />
<text  x="1093.70" y="335.5" >w2c_decode_..</text>
</g>
<g >
<title>begin_new_exec (64,480 samples, 0.01%)</title><rect x="1189.9" y="213" width="0.1" height="15.0" fill="rgb(245,184,44)" rx="2" ry="2" />
<text  x="1192.90" y="223.5" ></text>
</g>
<g >
<title>setup_arg_pages (268,108 samples, 0.04%)</title><rect x="14.7" y="213" width="0.5" height="15.0" fill="rgb(222,82,19)" rx="2" ry="2" />
<text  x="17.75" y="223.5" ></text>
</g>
<g >
<title>lookup_fast (639,603 samples, 0.09%)</title><rect x="12.3" y="165" width="1.0" height="15.0" fill="rgb(219,68,16)" rx="2" ry="2" />
<text  x="15.27" y="175.5" ></text>
</g>
<g >
<title>w2c_decode__webp__wasmsimd_PredictorAdd7_SSE2 (6,468,291 samples, 0.87%)</title><rect x="138.0" y="309" width="10.2" height="15.0" fill="rgb(211,28,6)" rx="2" ry="2" />
<text  x="140.98" y="319.5" ></text>
</g>
<g >
<title>__alloc_pages (922,853 samples, 0.12%)</title><rect x="13.3" y="133" width="1.4" height="15.0" fill="rgb(233,129,30)" rx="2" ry="2" />
<text  x="16.28" y="143.5" ></text>
</g>
<g >
<title>entry_SYSCALL_64_after_hwframe (922,555 samples, 0.12%)</title><rect x="203.6" y="325" width="1.4" height="15.0" fill="rgb(218,63,15)" rx="2" ry="2" />
<text  x="206.57" y="335.5" ></text>
</g>
<g >
<title>__x64_sys_execve (268,108 samples, 0.04%)</title><rect x="14.7" y="277" width="0.5" height="15.0" fill="rgb(247,193,46)" rx="2" ry="2" />
<text  x="17.75" y="287.5" ></text>
</g>
<g >
<title>__fput (922,555 samples, 0.12%)</title><rect x="203.6" y="229" width="1.4" height="15.0" fill="rgb(248,200,47)" rx="2" ry="2" />
<text  x="206.57" y="239.5" ></text>
</g>
<g >
<title>ext4_buffered_write_iter (922,853 samples, 0.12%)</title><rect x="13.3" y="229" width="1.4" height="15.0" fill="rgb(213,40,9)" rx="2" ry="2" />
<text  x="16.28" y="239.5" ></text>
</g>
<g >
<title>handle_mm_fault (509,837 samples, 0.07%)</title><rect x="10.0" y="229" width="0.8" height="15.0" fill="rgb(234,135,32)" rx="2" ry="2" />
<text  x="13.00" y="239.5" ></text>
</g>
<g >
<title>kmem_cache_free (924,213 samples, 0.12%)</title><rect x="10.8" y="69" width="1.5" height="15.0" fill="rgb(254,225,53)" rx="2" ry="2" />
<text  x="13.81" y="79.5" ></text>
</g>
<g >
<title>path_openat (1,563,816 samples, 0.21%)</title><rect x="10.8" y="213" width="2.5" height="15.0" fill="rgb(249,202,48)" rx="2" ry="2" />
<text  x="13.81" y="223.5" ></text>
</g>
<g >
<title>w2c_decode__webp__wasmsimd_AddGreenToBlueAndRed_SSE2 (10,158,833 samples, 1.36%)</title><rect x="15.2" y="309" width="16.1" height="15.0" fill="rgb(231,122,29)" rx="2" ry="2" />
<text  x="18.17" y="319.5" ></text>
</g>
<g >
<title>w2c_decode__webp__wasmsimd_TransformColorInverse_SSE2 (24,002,712 samples, 3.22%)</title><rect x="148.2" y="309" width="38.1" height="15.0" fill="rgb(245,185,44)" rx="2" ry="2" />
<text  x="151.23" y="319.5" >w2c..</text>
</g>
<g >
<title>obj_cgroup_uncharge_pages (924,213 samples, 0.12%)</title><rect x="10.8" y="53" width="1.5" height="15.0" fill="rgb(230,117,28)" rx="2" ry="2" />
<text  x="13.81" y="63.5" ></text>
</g>
<g >
<title>[unknown] (509,837 samples, 0.07%)</title><rect x="10.0" y="309" width="0.8" height="15.0" fill="rgb(210,24,5)" rx="2" ry="2" />
<text  x="13.00" y="319.5" ></text>
</g>
<g >
<title>w2c_decode__webp__wasmsimd_DecodeImageStream (2,771,928 samples, 0.37%)</title><rect x="842.1" y="325" width="4.4" height="15.0" fill="rgb(233,130,31)" rx="2" ry="2" />
<text  x="845.08" y="335.5" ></text>
</g>
<g >
<title>w2c_decode__webp__wasmsimd_dlmalloc (743,829 samples, 0.10%)</title><rect x="1188.7" y="325" width="1.2" height="15.0" fill="rgb(229,110,26)" rx="2" ry="2" />
<text  x="1191.72" y="335.5" ></text>
</g>
<g >
<title>w2c_decode__webp__wasmsimd_PredictorAdd2_SSE2 (924,263 samples, 0.12%)</title><rect x="127.7" y="309" width="1.5" height="15.0" fill="rgb(243,176,42)" rx="2" ry="2" />
<text  x="130.75" y="319.5" ></text>
</g>
<g >
<title>do_filp_open (1,563,816 samples, 0.21%)</title><rect x="10.8" y="229" width="2.5" height="15.0" fill="rgb(211,28,6)" rx="2" ry="2" />
<text  x="13.81" y="239.5" ></text>
</g>
<g >
<title>entry_SYSCALL_64_after_hwframe (268,108 samples, 0.04%)</title><rect x="14.7" y="309" width="0.5" height="15.0" fill="rgb(218,63,15)" rx="2" ry="2" />
<text  x="17.75" y="319.5" ></text>
</g>
<g >
<title>load_elf_binary (268,108 samples, 0.04%)</title><rect x="14.7" y="229" width="0.5" height="15.0" fill="rgb(223,83,20)" rx="2" ry="2" />
<text  x="17.75" y="239.5" ></text>
</g>
<g >
<title>cmpxchg_double_slab.constprop.0.isra.0 (922,555 samples, 0.12%)</title><rect x="203.6" y="197" width="1.4" height="15.0" fill="rgb(211,32,7)" rx="2" ry="2" />
<text  x="206.57" y="207.5" ></text>
</g>
<g >
<title>__filemap_get_folio (922,853 samples, 0.12%)</title><rect x="13.3" y="165" width="1.4" height="15.0" fill="rgb(231,120,28)" rx="2" ry="2" />
<text  x="16.28" y="175.5" ></text>
</g>
<g >
<title>do_syscall_64 (1,563,816 samples, 0.21%)</title><rect x="10.8" y="277" width="2.5" height="15.0" fill="rgb(209,20,4)" rx="2" ry="2" />
<text  x="13.81" y="287.5" ></text>
</g>
<g >
<title>do_user_addr_fault (509,837 samples, 0.07%)</title><rect x="10.0" y="245" width="0.8" height="15.0" fill="rgb(228,108,25)" rx="2" ry="2" />
<text  x="13.00" y="255.5" ></text>
</g>
<g >
<title>__d_lookup_rcu (639,603 samples, 0.09%)</title><rect x="12.3" y="149" width="1.0" height="15.0" fill="rgb(228,109,26)" rx="2" ry="2" />
<text  x="15.27" y="159.5" ></text>
</g>
<g >
<title>do_fault (509,837 samples, 0.07%)</title><rect x="10.0" y="197" width="0.8" height="15.0" fill="rgb(248,200,47)" rx="2" ry="2" />
<text  x="13.00" y="207.5" ></text>
</g>
<g >
<title>try_to_free_buffers (924,213 samples, 0.12%)</title><rect x="10.8" y="101" width="1.5" height="15.0" fill="rgb(249,206,49)" rx="2" ry="2" />
<text  x="13.81" y="111.5" ></text>
</g>
<g >
<title>kmem_cache_alloc_bulk (268,108 samples, 0.04%)</title><rect x="14.7" y="149" width="0.5" height="15.0" fill="rgb(234,135,32)" rx="2" ry="2" />
<text  x="17.75" y="159.5" ></text>
</g>
<g >
<title>w2c_decode__webp__wasmsimd_PredictorAdd2_SSE2 (2,769,807 samples, 0.37%)</title><rect x="1064.4" y="325" width="4.3" height="15.0" fill="rgb(243,176,42)" rx="2" ry="2" />
<text  x="1067.35" y="335.5" ></text>
</g>
<g >
<title>w2c_decode__webp__wasmsimd_VP8LReadBits (3,695,111 samples, 0.50%)</title><rect x="1182.9" y="325" width="5.8" height="15.0" fill="rgb(228,108,26)" rx="2" ry="2" />
<text  x="1185.87" y="335.5" ></text>
</g>
<g >
<title>ksys_write (922,853 samples, 0.12%)</title><rect x="13.3" y="261" width="1.4" height="15.0" fill="rgb(205,4,1)" rx="2" ry="2" />
<text  x="16.28" y="271.5" ></text>
</g>
<g >
<title>bprm_execve (268,108 samples, 0.04%)</title><rect x="14.7" y="245" width="0.5" height="15.0" fill="rgb(218,61,14)" rx="2" ry="2" />
<text  x="17.75" y="255.5" ></text>
</g>
<g >
<title>w2c_decode__webp__wasmsimd_ReadHuffmanCode (13,860,653 samples, 1.86%)</title><rect x="1068.7" y="325" width="22.0" height="15.0" fill="rgb(222,79,18)" rx="2" ry="2" />
<text  x="1071.74" y="335.5" >w..</text>
</g>
<g >
<title>get_page_from_freelist (922,853 samples, 0.12%)</title><rect x="13.3" y="117" width="1.4" height="15.0" fill="rgb(252,218,52)" rx="2" ry="2" />
<text  x="16.28" y="127.5" ></text>
</g>
<g >
<title>w2c_decode__webp__wasmsimd_DecodeImageData (303,417,790 samples, 40.73%)</title><rect x="361.4" y="325" width="480.7" height="15.0" fill="rgb(246,191,45)" rx="2" ry="2" />
<text  x="364.45" y="335.5" >w2c_decode__webp__wasmsimd_DecodeImageData</text>
</g>
<g >
<title>do_syscall_64 (64,480 samples, 0.01%)</title><rect x="1189.9" y="293" width="0.1" height="15.0" fill="rgb(209,20,4)" rx="2" ry="2" />
<text  x="1192.90" y="303.5" ></text>
</g>
<g >
<title>w2c_decode__webp__wasmsimd_PredictorAdd5_SSE2 (5,537,174 samples, 0.74%)</title><rect x="129.2" y="309" width="8.8" height="15.0" fill="rgb(224,87,20)" rx="2" ry="2" />
<text  x="132.21" y="319.5" ></text>
</g>
<g >
<title>__x64_sys_execve (64,480 samples, 0.01%)</title><rect x="1189.9" y="277" width="0.1" height="15.0" fill="rgb(247,193,46)" rx="2" ry="2" />
<text  x="1192.90" y="287.5" ></text>
</g>
<g >
<title>[unknown] (64,480 samples, 0.01%)</title><rect x="1189.9" y="325" width="0.1" height="15.0" fill="rgb(210,24,5)" rx="2" ry="2" />
<text  x="1192.90" y="335.5" ></text>
</g>
<g >
<title>w2c_decode__webp__wasmsimd_PredictorAdd2_C (924,344 samples, 0.12%)</title><rect x="1062.9" y="325" width="1.5" height="15.0" fill="rgb(251,214,51)" rx="2" ry="2" />
<text  x="1065.89" y="335.5" ></text>
</g>
<g >
<title>w2c_decode__webp__wasmsimd_PredictorAdd12_SSE2 (10,159,177 samples, 1.36%)</title><rect x="31.3" y="309" width="16.1" height="15.0" fill="rgb(226,100,24)" rx="2" ry="2" />
<text  x="34.26" y="319.5" ></text>
</g>
<g >
<title>exc_page_fault (509,837 samples, 0.07%)</title><rect x="10.0" y="261" width="0.8" height="15.0" fill="rgb(212,35,8)" rx="2" ry="2" />
<text  x="13.00" y="271.5" ></text>
</g>
<g >
<title>load_elf_binary (64,480 samples, 0.01%)</title><rect x="1189.9" y="229" width="0.1" height="15.0" fill="rgb(223,83,20)" rx="2" ry="2" />
<text  x="1192.90" y="239.5" ></text>
</g>
<g >
<title>perf_event_exec (64,480 samples, 0.01%)</title><rect x="1189.9" y="197" width="0.1" height="15.0" fill="rgb(218,60,14)" rx="2" ry="2" />
<text  x="1192.90" y="207.5" ></text>
</g>
<g >
<title>do_execveat_common.isra.0 (64,480 samples, 0.01%)</title><rect x="1189.9" y="261" width="0.1" height="15.0" fill="rgb(231,123,29)" rx="2" ry="2" />
<text  x="1192.90" y="271.5" ></text>
</g>
<g >
<title>__libc_open64 (1,563,816 samples, 0.21%)</title><rect x="10.8" y="309" width="2.5" height="15.0" fill="rgb(235,140,33)" rx="2" ry="2" />
<text  x="13.81" y="319.5" ></text>
</g>
<g >
<title>next_uptodate_page (509,837 samples, 0.07%)</title><rect x="10.0" y="165" width="0.8" height="15.0" fill="rgb(210,25,6)" rx="2" ry="2" />
<text  x="13.00" y="175.5" ></text>
</g>
<g >
<title>do_syscall_64 (268,108 samples, 0.04%)</title><rect x="14.7" y="293" width="0.5" height="15.0" fill="rgb(209,20,4)" rx="2" ry="2" />
<text  x="17.75" y="303.5" ></text>
</g>
</g>
</svg>
