<?xml version="1.0" standalone="no"?>
<!DOCTYPE svg PUBLIC "-//W3C//DTD SVG 1.1//EN" "http://www.w3.org/Graphics/SVG/1.1/DTD/svg11.dtd">
<svg version="1.1" width="1200" height="342" onload="init(evt)" viewBox="0 0 1200 342" xmlns="http://www.w3.org/2000/svg" xmlns:xlink="http://www.w3.org/1999/xlink">
<!-- Flame graph stack visualization. See https://github.com/brendangregg/FlameGraph for latest version, and http://www.brendangregg.com/flamegraphs.html for examples. -->
<!-- NOTES:  -->
<defs>
	<linearGradient id="background" y1="0" y2="1" x1="0" x2="0" >
		<stop stop-color="#eeeeee" offset="5%" />
		<stop stop-color="#eeeeb0" offset="95%" />
	</linearGradient>
</defs>
<style type="text/css">
	text { font-family:Verdana; font-size:12px; fill:rgb(0,0,0); }
	#search, #ignorecase { opacity:0.1; cursor:pointer; }
	#search:hover, #search.show, #ignorecase:hover, #ignorecase.show { opacity:1; }
	#subtitle { text-anchor:middle; font-color:rgb(160,160,160); }
	#title { text-anchor:middle; font-size:17px}
	#unzoom { cursor:pointer; }
	#frames > *:hover { stroke:black; stroke-width:0.5; cursor:pointer; }
	.hide { display:none; }
	.parent { opacity:0.5; }
</style>
<script type="text/ecmascript">
<![CDATA[
	"use strict";
	var details, searchbtn, unzoombtn, matchedtxt, svg, searching, currentSearchTerm, ignorecase, ignorecaseBtn;
	function init(evt) {
		details = document.getElementById("details").firstChild;
		searchbtn = document.getElementById("search");
		ignorecaseBtn = document.getElementById("ignorecase");
		unzoombtn = document.getElementById("unzoom");
		matchedtxt = document.getElementById("matched");
		svg = document.getElementsByTagName("svg")[0];
		searching = 0;
		currentSearchTerm = null;

		// use GET parameters to restore a flamegraphs state.
		var params = get_params();
		if (params.x && params.y)
			zoom(find_group(document.querySelector('[x="' + params.x + '"][y="' + params.y + '"]')));
                if (params.s) search(params.s);
	}

	// event listeners
	window.addEventListener("click", function(e) {
		var target = find_group(e.target);
		if (target) {
			if (target.nodeName == "a") {
				if (e.ctrlKey === false) return;
				e.preventDefault();
			}
			if (target.classList.contains("parent")) unzoom(true);
			zoom(target);
			if (!document.querySelector('.parent')) {
				// we have basically done a clearzoom so clear the url
				var params = get_params();
				if (params.x) delete params.x;
				if (params.y) delete params.y;
				history.replaceState(null, null, parse_params(params));
				unzoombtn.classList.add("hide");
				return;
			}

			// set parameters for zoom state
			var el = target.querySelector("rect");
			if (el && el.attributes && el.attributes.y && el.attributes._orig_x) {
				var params = get_params()
				params.x = el.attributes._orig_x.value;
				params.y = el.attributes.y.value;
				history.replaceState(null, null, parse_params(params));
			}
		}
		else if (e.target.id == "unzoom") clearzoom();
		else if (e.target.id == "search") search_prompt();
		else if (e.target.id == "ignorecase") toggle_ignorecase();
	}, false)

	// mouse-over for info
	// show
	window.addEventListener("mouseover", function(e) {
		var target = find_group(e.target);
		if (target) details.nodeValue = "Function: " + g_to_text(target);
	}, false)

	// clear
	window.addEventListener("mouseout", function(e) {
		var target = find_group(e.target);
		if (target) details.nodeValue = ' ';
	}, false)

	// ctrl-F for search
	// ctrl-I to toggle case-sensitive search
	window.addEventListener("keydown",function (e) {
		if (e.keyCode === 114 || (e.ctrlKey && e.keyCode === 70)) {
			e.preventDefault();
			search_prompt();
		}
		else if (e.ctrlKey && e.keyCode === 73) {
			e.preventDefault();
			toggle_ignorecase();
		}
	}, false)

	// functions
	function get_params() {
		var params = {};
		var paramsarr = window.location.search.substr(1).split('&');
		for (var i = 0; i < paramsarr.length; ++i) {
			var tmp = paramsarr[i].split("=");
			if (!tmp[0] || !tmp[1]) continue;
			params[tmp[0]]  = decodeURIComponent(tmp[1]);
		}
		return params;
	}
	function parse_params(params) {
		var uri = "?";
		for (var key in params) {
			uri += key + '=' + encodeURIComponent(params[key]) + '&';
		}
		if (uri.slice(-1) == "&")
			uri = uri.substring(0, uri.length - 1);
		if (uri == '?')
			uri = window.location.href.split('?')[0];
		return uri;
	}
	function find_child(node, selector) {
		var children = node.querySelectorAll(selector);
		if (children.length) return children[0];
	}
	function find_group(node) {
		var parent = node.parentElement;
		if (!parent) return;
		if (parent.id == "frames") return node;
		return find_group(parent);
	}
	function orig_save(e, attr, val) {
		if (e.attributes["_orig_" + attr] != undefined) return;
		if (e.attributes[attr] == undefined) return;
		if (val == undefined) val = e.attributes[attr].value;
		e.setAttribute("_orig_" + attr, val);
	}
	function orig_load(e, attr) {
		if (e.attributes["_orig_"+attr] == undefined) return;
		e.attributes[attr].value = e.attributes["_orig_" + attr].value;
		e.removeAttribute("_orig_"+attr);
	}
	function g_to_text(e) {
		var text = find_child(e, "title").firstChild.nodeValue;
		return (text)
	}
	function g_to_func(e) {
		var func = g_to_text(e);
		// if there's any manipulation we want to do to the function
		// name before it's searched, do it here before returning.
		return (func);
	}
	function update_text(e) {
		var r = find_child(e, "rect");
		var t = find_child(e, "text");
		var w = parseFloat(r.attributes.width.value) -3;
		var txt = find_child(e, "title").textContent.replace(/\([^(]*\)$/,"");
		t.attributes.x.value = parseFloat(r.attributes.x.value) + 3;

		// Smaller than this size won't fit anything
		if (w < 2 * 12 * 0.59) {
			t.textContent = "";
			return;
		}

		t.textContent = txt;
		var sl = t.getSubStringLength(0, txt.length);
		// check if only whitespace or if we can fit the entire string into width w
		if (/^ *$/.test(txt) || sl < w)
			return;

		// this isn't perfect, but gives a good starting point
		// and avoids calling getSubStringLength too often
		var start = Math.floor((w/sl) * txt.length);
		for (var x = start; x > 0; x = x-2) {
			if (t.getSubStringLength(0, x + 2) <= w) {
				t.textContent = txt.substring(0, x) + "..";
				return;
			}
		}
		t.textContent = "";
	}

	// zoom
	function zoom_reset(e) {
		if (e.attributes != undefined) {
			orig_load(e, "x");
			orig_load(e, "width");
		}
		if (e.childNodes == undefined) return;
		for (var i = 0, c = e.childNodes; i < c.length; i++) {
			zoom_reset(c[i]);
		}
	}
	function zoom_child(e, x, ratio) {
		if (e.attributes != undefined) {
			if (e.attributes.x != undefined) {
				orig_save(e, "x");
				e.attributes.x.value = (parseFloat(e.attributes.x.value) - x - 10) * ratio + 10;
				if (e.tagName == "text")
					e.attributes.x.value = find_child(e.parentNode, "rect[x]").attributes.x.value + 3;
			}
			if (e.attributes.width != undefined) {
				orig_save(e, "width");
				e.attributes.width.value = parseFloat(e.attributes.width.value) * ratio;
			}
		}

		if (e.childNodes == undefined) return;
		for (var i = 0, c = e.childNodes; i < c.length; i++) {
			zoom_child(c[i], x - 10, ratio);
		}
	}
	function zoom_parent(e) {
		if (e.attributes) {
			if (e.attributes.x != undefined) {
				orig_save(e, "x");
				e.attributes.x.value = 10;
			}
			if (e.attributes.width != undefined) {
				orig_save(e, "width");
				e.attributes.width.value = parseInt(svg.width.baseVal.value) - (10 * 2);
			}
		}
		if (e.childNodes == undefined) return;
		for (var i = 0, c = e.childNodes; i < c.length; i++) {
			zoom_parent(c[i]);
		}
	}
	function zoom(node) {
		var attr = find_child(node, "rect").attributes;
		var width = parseFloat(attr.width.value);
		var xmin = parseFloat(attr.x.value);
		var xmax = parseFloat(xmin + width);
		var ymin = parseFloat(attr.y.value);
		var ratio = (svg.width.baseVal.value - 2 * 10) / width;

		// XXX: Workaround for JavaScript float issues (fix me)
		var fudge = 0.0001;

		unzoombtn.classList.remove("hide");

		var el = document.getElementById("frames").children;
		for (var i = 0; i < el.length; i++) {
			var e = el[i];
			var a = find_child(e, "rect").attributes;
			var ex = parseFloat(a.x.value);
			var ew = parseFloat(a.width.value);
			var upstack;
			// Is it an ancestor
			if (0 == 0) {
				upstack = parseFloat(a.y.value) > ymin;
			} else {
				upstack = parseFloat(a.y.value) < ymin;
			}
			if (upstack) {
				// Direct ancestor
				if (ex <= xmin && (ex+ew+fudge) >= xmax) {
					e.classList.add("parent");
					zoom_parent(e);
					update_text(e);
				}
				// not in current path
				else
					e.classList.add("hide");
			}
			// Children maybe
			else {
				// no common path
				if (ex < xmin || ex + fudge >= xmax) {
					e.classList.add("hide");
				}
				else {
					zoom_child(e, xmin, ratio);
					update_text(e);
				}
			}
		}
		search();
	}
	function unzoom(dont_update_text) {
		unzoombtn.classList.add("hide");
		var el = document.getElementById("frames").children;
		for(var i = 0; i < el.length; i++) {
			el[i].classList.remove("parent");
			el[i].classList.remove("hide");
			zoom_reset(el[i]);
			if(!dont_update_text) update_text(el[i]);
		}
		search();
	}
	function clearzoom() {
		unzoom();

		// remove zoom state
		var params = get_params();
		if (params.x) delete params.x;
		if (params.y) delete params.y;
		history.replaceState(null, null, parse_params(params));
	}

	// search
	function toggle_ignorecase() {
		ignorecase = !ignorecase;
		if (ignorecase) {
			ignorecaseBtn.classList.add("show");
		} else {
			ignorecaseBtn.classList.remove("show");
		}
		reset_search();
		search();
	}
	function reset_search() {
		var el = document.querySelectorAll("#frames rect");
		for (var i = 0; i < el.length; i++) {
			orig_load(el[i], "fill")
		}
		var params = get_params();
		delete params.s;
		history.replaceState(null, null, parse_params(params));
	}
	function search_prompt() {
		if (!searching) {
			var term = prompt("Enter a search term (regexp " +
			    "allowed, eg: ^ext4_)"
			    + (ignorecase ? ", ignoring case" : "")
			    + "\nPress Ctrl-i to toggle case sensitivity", "");
			if (term != null) search(term);
		} else {
			reset_search();
			searching = 0;
			currentSearchTerm = null;
			searchbtn.classList.remove("show");
			searchbtn.firstChild.nodeValue = "Search"
			matchedtxt.classList.add("hide");
			matchedtxt.firstChild.nodeValue = ""
		}
	}
	function search(term) {
		if (term) currentSearchTerm = term;

		var re = new RegExp(currentSearchTerm, ignorecase ? 'i' : '');
		var el = document.getElementById("frames").children;
		var matches = new Object();
		var maxwidth = 0;
		for (var i = 0; i < el.length; i++) {
			var e = el[i];
			var func = g_to_func(e);
			var rect = find_child(e, "rect");
			if (func == null || rect == null)
				continue;

			// Save max width. Only works as we have a root frame
			var w = parseFloat(rect.attributes.width.value);
			if (w > maxwidth)
				maxwidth = w;

			if (func.match(re)) {
				// highlight
				var x = parseFloat(rect.attributes.x.value);
				orig_save(rect, "fill");
				rect.attributes.fill.value = "rgb(230,0,230)";

				// remember matches
				if (matches[x] == undefined) {
					matches[x] = w;
				} else {
					if (w > matches[x]) {
						// overwrite with parent
						matches[x] = w;
					}
				}
				searching = 1;
			}
		}
		if (!searching)
			return;
		var params = get_params();
		params.s = currentSearchTerm;
		history.replaceState(null, null, parse_params(params));

		searchbtn.classList.add("show");
		searchbtn.firstChild.nodeValue = "Reset Search";

		// calculate percent matched, excluding vertical overlap
		var count = 0;
		var lastx = -1;
		var lastw = 0;
		var keys = Array();
		for (k in matches) {
			if (matches.hasOwnProperty(k))
				keys.push(k);
		}
		// sort the matched frames by their x location
		// ascending, then width descending
		keys.sort(function(a, b){
			return a - b;
		});
		// Step through frames saving only the biggest bottom-up frames
		// thanks to the sort order. This relies on the tree property
		// where children are always smaller than their parents.
		var fudge = 0.0001;	// JavaScript floating point
		for (var k in keys) {
			var x = parseFloat(keys[k]);
			var w = matches[keys[k]];
			if (x >= lastx + lastw - fudge) {
				count += w;
				lastx = x;
				lastw = w;
			}
		}
		// display matched percent
		matchedtxt.classList.remove("hide");
		var pct = 100 * count / maxwidth;
		if (pct != 100) pct = pct.toFixed(1)
		matchedtxt.firstChild.nodeValue = "Matched: " + pct + "%";
	}
]]>
</script>
<rect x="0.0" y="0" width="1200.0" height="342.0" fill="url(#background)"  />
<text id="title" x="600.00" y="24" >Flame Graph</text>
<text id="details" x="10.00" y="325" > </text>
<text id="unzoom" x="10.00" y="24" class="hide">Reset Zoom</text>
<text id="search" x="1090.00" y="24" >Search</text>
<text id="ignorecase" x="1174.00" y="24" >ic</text>
<text id="matched" x="1090.00" y="325" > </text>
<g id="frames">
<g >
<title>begin_new_exec (117,492 samples, 0.01%)</title><rect x="13.1" y="149" width="0.1" height="15.0" fill="rgb(245,184,44)" rx="2" ry="2" />
<text  x="16.08" y="159.5" ></text>
</g>
<g >
<title>__alloc_pages (923,997 samples, 0.09%)</title><rect x="1186.8" y="133" width="1.0" height="15.0" fill="rgb(233,129,30)" rx="2" ry="2" />
<text  x="1189.76" y="143.5" ></text>
</g>
<g >
<title>do_user_addr_fault (924,065 samples, 0.09%)</title><rect x="93.0" y="197" width="1.0" height="15.0" fill="rgb(228,108,25)" rx="2" ry="2" />
<text  x="95.98" y="207.5" ></text>
</g>
<g >
<title>mprotect_fixup (923,932 samples, 0.09%)</title><rect x="167.5" y="181" width="1.1" height="15.0" fill="rgb(236,144,34)" rx="2" ry="2" />
<text  x="170.51" y="191.5" ></text>
</g>
<g >
<title>unmap_region (924,238 samples, 0.09%)</title><rect x="10.5" y="101" width="1.1" height="15.0" fill="rgb(219,64,15)" rx="2" ry="2" />
<text  x="13.53" y="111.5" ></text>
</g>
<g >
<title>w2c_decode__webp__wasmsimd_DC4_C (9,236,522 samples, 0.90%)</title><rect x="13.2" y="245" width="10.7" height="15.0" fill="rgb(250,210,50)" rx="2" ry="2" />
<text  x="16.22" y="255.5" ></text>
</g>
<g >
<title>w2c_decode__webp__wasmsimd_TransformUV_C (924,016 samples, 0.09%)</title><rect x="106.8" y="245" width="1.1" height="15.0" fill="rgb(228,108,25)" rx="2" ry="2" />
<text  x="109.85" y="255.5" ></text>
</g>
<g >
<title>__memset_avx2_unaligned_erms (4,619,138 samples, 0.45%)</title><rect x="162.2" y="261" width="5.3" height="15.0" fill="rgb(223,84,20)" rx="2" ry="2" />
<text  x="165.17" y="271.5" ></text>
</g>
<g >
<title>__folio_alloc (923,575 samples, 0.09%)</title><rect x="1086.6" y="149" width="1.1" height="15.0" fill="rgb(224,91,21)" rx="2" ry="2" />
<text  x="1089.63" y="159.5" ></text>
</g>
<g >
<title>exc_page_fault (1,847,730 samples, 0.18%)</title><rect x="1085.6" y="229" width="2.1" height="15.0" fill="rgb(212,35,8)" rx="2" ry="2" />
<text  x="1088.57" y="239.5" ></text>
</g>
<g >
<title>arch_setup_additional_pages (361,189 samples, 0.04%)</title><rect x="12.7" y="149" width="0.4" height="15.0" fill="rgb(236,146,35)" rx="2" ry="2" />
<text  x="15.66" y="159.5" ></text>
</g>
<g >
<title>folio_add_lru (511,464 samples, 0.05%)</title><rect x="1182.2" y="165" width="0.6" height="15.0" fill="rgb(208,17,4)" rx="2" ry="2" />
<text  x="1185.23" y="175.5" ></text>
</g>
<g >
<title>__handle_mm_fault (2,073,812 samples, 0.20%)</title><rect x="1182.2" y="181" width="2.4" height="15.0" fill="rgb(207,9,2)" rx="2" ry="2" />
<text  x="1185.23" y="191.5" ></text>
</g>
<g >
<title>w2c_decode__webp__wasmsimd_UpsampleRgbaLinePair_SSE2 (1,847,185 samples, 0.18%)</title><rect x="155.9" y="245" width="2.1" height="15.0" fill="rgb(235,140,33)" rx="2" ry="2" />
<text  x="158.89" y="255.5" ></text>
</g>
<g >
<title>tlb_batch_pages_flush (924,238 samples, 0.09%)</title><rect x="10.5" y="69" width="1.1" height="15.0" fill="rgb(234,133,32)" rx="2" ry="2" />
<text  x="13.53" y="79.5" ></text>
</g>
<g >
<title>w2c_decode__webp__wasmsimd_DC16_SSE2 (923,973 samples, 0.09%)</title><rect x="168.6" y="261" width="1.0" height="15.0" fill="rgb(213,37,8)" rx="2" ry="2" />
<text  x="171.58" y="271.5" ></text>
</g>
<g >
<title>w2c_decode__webp__wasmsimd_VR4_SSE2 (1,847,636 samples, 0.18%)</title><rect x="160.0" y="245" width="2.2" height="15.0" fill="rgb(229,112,26)" rx="2" ry="2" />
<text  x="163.04" y="255.5" ></text>
</g>
<g >
<title>asm_exc_page_fault (2,073,812 samples, 0.20%)</title><rect x="1182.2" y="245" width="2.4" height="15.0" fill="rgb(225,93,22)" rx="2" ry="2" />
<text  x="1185.23" y="255.5" ></text>
</g>
<g >
<title>vma_alloc_folio (757,541 samples, 0.07%)</title><rect x="1183.8" y="165" width="0.8" height="15.0" fill="rgb(245,187,44)" rx="2" ry="2" />
<text  x="1186.75" y="175.5" ></text>
</g>
<g >
<title>clear_page_rep (923,575 samples, 0.09%)</title><rect x="1086.6" y="101" width="1.1" height="15.0" fill="rgb(253,221,52)" rx="2" ry="2" />
<text  x="1089.63" y="111.5" ></text>
</g>
<g >
<title>w2c_decode__webp__wasmsimd_EmitFancyRGB (924,130 samples, 0.09%)</title><rect x="179.2" y="261" width="1.1" height="15.0" fill="rgb(252,218,52)" rx="2" ry="2" />
<text  x="182.25" y="271.5" ></text>
</g>
<g >
<title>w2c_decode__webp__wasmsimd_VP8GetValue (923,732 samples, 0.09%)</title><rect x="1184.6" y="261" width="1.1" height="15.0" fill="rgb(222,81,19)" rx="2" ry="2" />
<text  x="1187.63" y="271.5" ></text>
</g>
<g >
<title>entry_SYSCALL_64_after_hwframe (923,932 samples, 0.09%)</title><rect x="167.5" y="245" width="1.1" height="15.0" fill="rgb(218,63,15)" rx="2" ry="2" />
<text  x="170.51" y="255.5" ></text>
</g>
<g >
<title>load_elf_binary (478,681 samples, 0.05%)</title><rect x="12.7" y="165" width="0.5" height="15.0" fill="rgb(223,83,20)" rx="2" ry="2" />
<text  x="15.66" y="175.5" ></text>
</g>
<g >
<title>w2c_decode__webp__wasmsimd_IDecode (12,930,503 samples, 1.27%)</title><rect x="50.3" y="245" width="14.9" height="15.0" fill="rgb(237,147,35)" rx="2" ry="2" />
<text  x="53.29" y="255.5" ></text>
</g>
<g >
<title>[unknown] (131,732,521 samples, 12.90%)</title><rect x="10.0" y="261" width="152.2" height="15.0" fill="rgb(210,24,5)" rx="2" ry="2" />
<text  x="13.00" y="271.5" >[unknown]</text>
</g>
<g >
<title>clear_page_rep (923,997 samples, 0.09%)</title><rect x="1186.8" y="101" width="1.0" height="15.0" fill="rgb(253,221,52)" rx="2" ry="2" />
<text  x="1189.76" y="111.5" ></text>
</g>
<g >
<title>handle_mm_fault (924,065 samples, 0.09%)</title><rect x="93.0" y="181" width="1.0" height="15.0" fill="rgb(234,135,32)" rx="2" ry="2" />
<text  x="95.98" y="191.5" ></text>
</g>
<g >
<title>__x64_sys_execve (478,681 samples, 0.05%)</title><rect x="12.7" y="213" width="0.5" height="15.0" fill="rgb(247,193,46)" rx="2" ry="2" />
<text  x="15.66" y="223.5" ></text>
</g>
<g >
<title>w2c_decode__webp__wasmsimd_HE4_C (923,982 samples, 0.09%)</title><rect x="48.2" y="245" width="1.0" height="15.0" fill="rgb(212,32,7)" rx="2" ry="2" />
<text  x="51.16" y="255.5" ></text>
</g>
<g >
<title>get_page_from_freelist (923,575 samples, 0.09%)</title><rect x="1086.6" y="117" width="1.1" height="15.0" fill="rgb(252,218,52)" rx="2" ry="2" />
<text  x="1089.63" y="127.5" ></text>
</g>
<g >
<title>all (1,021,493,490 samples, 100%)</title><rect x="10.0" y="293" width="1180.0" height="15.0" fill="rgb(213,39,9)" rx="2" ry="2" />
<text  x="13.00" y="303.5" ></text>
</g>
<g >
<title>do_syscall_64 (457,715 samples, 0.04%)</title><rect x="10.0" y="213" width="0.5" height="15.0" fill="rgb(209,20,4)" rx="2" ry="2" />
<text  x="13.00" y="223.5" ></text>
</g>
<g >
<title>w2c_decode__webp__wasmsimd_ReconstructRow (17,551,705 samples, 1.72%)</title><rect x="73.8" y="245" width="20.2" height="15.0" fill="rgb(217,55,13)" rx="2" ry="2" />
<text  x="76.77" y="255.5" ></text>
</g>
<g >
<title>__folio_alloc (923,997 samples, 0.09%)</title><rect x="1186.8" y="149" width="1.0" height="15.0" fill="rgb(224,91,21)" rx="2" ry="2" />
<text  x="1189.76" y="159.5" ></text>
</g>
<g >
<title>w2c_decode__webp__wasmsimd_FinishRow (923,669 samples, 0.09%)</title><rect x="180.3" y="261" width="1.1" height="15.0" fill="rgb(205,3,0)" rx="2" ry="2" />
<text  x="183.31" y="271.5" ></text>
</g>
<g >
<title>w2c_decode__webp__wasmsimd_LD4_SSE2 (4,619,992 samples, 0.45%)</title><rect x="65.2" y="245" width="5.4" height="15.0" fill="rgb(234,135,32)" rx="2" ry="2" />
<text  x="68.23" y="255.5" ></text>
</g>
<g >
<title>__vm_munmap (924,238 samples, 0.09%)</title><rect x="10.5" y="149" width="1.1" height="15.0" fill="rgb(231,121,28)" rx="2" ry="2" />
<text  x="13.53" y="159.5" ></text>
</g>
<g >
<title>__vma_adjust (923,932 samples, 0.09%)</title><rect x="167.5" y="149" width="1.1" height="15.0" fill="rgb(224,87,20)" rx="2" ry="2" />
<text  x="170.51" y="159.5" ></text>
</g>
<g >
<title>asm_exc_page_fault (924,065 samples, 0.09%)</title><rect x="93.0" y="229" width="1.0" height="15.0" fill="rgb(225,93,22)" rx="2" ry="2" />
<text  x="95.98" y="239.5" ></text>
</g>
<g >
<title>path_init (457,715 samples, 0.04%)</title><rect x="10.0" y="117" width="0.5" height="15.0" fill="rgb(212,32,7)" rx="2" ry="2" />
<text  x="13.00" y="127.5" ></text>
</g>
<g >
<title>__count_memcg_events (924,065 samples, 0.09%)</title><rect x="93.0" y="149" width="1.0" height="15.0" fill="rgb(250,211,50)" rx="2" ry="2" />
<text  x="95.98" y="159.5" ></text>
</g>
<g >
<title>w2c_decode__webp__wasmsimd_GetLargeValue (1,847,834 samples, 0.18%)</title><rect x="43.9" y="245" width="2.1" height="15.0" fill="rgb(234,137,32)" rx="2" ry="2" />
<text  x="46.89" y="255.5" ></text>
</g>
<g >
<title>w2c_decode__webp__wasmsimd_HD4_C (923,131 samples, 0.09%)</title><rect x="46.0" y="245" width="1.1" height="15.0" fill="rgb(218,62,14)" rx="2" ry="2" />
<text  x="49.03" y="255.5" ></text>
</g>
<g >
<title>w2c_decode__webp__wasmsimd_GetCoeffsAlt (17,318,021 samples, 1.70%)</title><rect x="23.9" y="245" width="20.0" height="15.0" fill="rgb(214,45,10)" rx="2" ry="2" />
<text  x="26.89" y="255.5" ></text>
</g>
<g >
<title>w2c_decode__webp__wasmsimd_RD4_SSE2 (2,771,044 samples, 0.27%)</title><rect x="70.6" y="245" width="3.2" height="15.0" fill="rgb(245,187,44)" rx="2" ry="2" />
<text  x="73.57" y="255.5" ></text>
</g>
<g >
<title>asm_exc_page_fault (1,847,898 samples, 0.18%)</title><rect x="1185.7" y="245" width="2.1" height="15.0" fill="rgb(225,93,22)" rx="2" ry="2" />
<text  x="1188.70" y="255.5" ></text>
</g>
<g >
<title>count_memcg_events.constprop.0 (924,065 samples, 0.09%)</title><rect x="93.0" y="165" width="1.0" height="15.0" fill="rgb(213,41,9)" rx="2" ry="2" />
<text  x="95.98" y="175.5" ></text>
</g>
<g >
<title>exc_page_fault (924,065 samples, 0.09%)</title><rect x="93.0" y="213" width="1.0" height="15.0" fill="rgb(212,35,8)" rx="2" ry="2" />
<text  x="95.98" y="223.5" ></text>
</g>
<g >
<title>mas_preallocate (923,932 samples, 0.09%)</title><rect x="167.5" y="133" width="1.1" height="15.0" fill="rgb(206,8,2)" rx="2" ry="2" />
<text  x="170.51" y="143.5" ></text>
</g>
<g >
<title>w2c_decode__webp__wasmsimd_VL4_SSE2 (1,747,955 samples, 0.17%)</title><rect x="158.0" y="245" width="2.0" height="15.0" fill="rgb(218,60,14)" rx="2" ry="2" />
<text  x="161.02" y="255.5" ></text>
</g>
<g >
<title>do_user_addr_fault (2,073,812 samples, 0.20%)</title><rect x="1182.2" y="213" width="2.4" height="15.0" fill="rgb(228,108,25)" rx="2" ry="2" />
<text  x="1185.23" y="223.5" ></text>
</g>
<g >
<title>__alloc_pages (923,575 samples, 0.09%)</title><rect x="1086.6" y="133" width="1.1" height="15.0" fill="rgb(233,129,30)" rx="2" ry="2" />
<text  x="1089.63" y="143.5" ></text>
</g>
<g >
<title>__x64_sys_mprotect (923,932 samples, 0.09%)</title><rect x="167.5" y="213" width="1.1" height="15.0" fill="rgb(209,21,5)" rx="2" ry="2" />
<text  x="170.51" y="223.5" ></text>
</g>
<g >
<title>vma_merge (923,932 samples, 0.09%)</title><rect x="167.5" y="165" width="1.1" height="15.0" fill="rgb(246,188,45)" rx="2" ry="2" />
<text  x="170.51" y="175.5" ></text>
</g>
<g >
<title>__x64_sys_munmap (924,238 samples, 0.09%)</title><rect x="10.5" y="165" width="1.1" height="15.0" fill="rgb(206,7,1)" rx="2" ry="2" />
<text  x="13.53" y="175.5" ></text>
</g>
<g >
<title>do_syscall_64 (478,681 samples, 0.05%)</title><rect x="12.7" y="229" width="0.5" height="15.0" fill="rgb(209,20,4)" rx="2" ry="2" />
<text  x="15.66" y="239.5" ></text>
</g>
<g >
<title>__handle_mm_fault (923,575 samples, 0.09%)</title><rect x="1086.6" y="181" width="1.1" height="15.0" fill="rgb(207,9,2)" rx="2" ry="2" />
<text  x="1089.63" y="191.5" ></text>
</g>
<g >
<title>__libc_start_call_main (924,238 samples, 0.09%)</title><rect x="10.5" y="229" width="1.1" height="15.0" fill="rgb(210,26,6)" rx="2" ry="2" />
<text  x="13.53" y="239.5" ></text>
</g>
<g >
<title>cgroup_rstat_updated (924,065 samples, 0.09%)</title><rect x="93.0" y="133" width="1.0" height="15.0" fill="rgb(244,180,43)" rx="2" ry="2" />
<text  x="95.98" y="143.5" ></text>
</g>
<g >
<title>do_mas_munmap (924,238 samples, 0.09%)</title><rect x="10.5" y="133" width="1.1" height="15.0" fill="rgb(224,90,21)" rx="2" ry="2" />
<text  x="13.53" y="143.5" ></text>
</g>
<g >
<title>__mprotect (923,932 samples, 0.09%)</title><rect x="167.5" y="261" width="1.1" height="15.0" fill="rgb(214,43,10)" rx="2" ry="2" />
<text  x="170.51" y="271.5" ></text>
</g>
<g >
<title>__alloc_pages (757,541 samples, 0.07%)</title><rect x="1183.8" y="133" width="0.8" height="15.0" fill="rgb(233,129,30)" rx="2" ry="2" />
<text  x="1186.75" y="143.5" ></text>
</g>
<g >
<title>w2c_decode__webp__wasmsimd_Transform_SSE2 (41,526,584 samples, 4.07%)</title><rect x="107.9" y="245" width="48.0" height="15.0" fill="rgb(224,91,21)" rx="2" ry="2" />
<text  x="110.92" y="255.5" >w2c_..</text>
</g>
<g >
<title>handle_mm_fault (1,847,898 samples, 0.18%)</title><rect x="1185.7" y="197" width="2.1" height="15.0" fill="rgb(234,135,32)" rx="2" ry="2" />
<text  x="1188.70" y="207.5" ></text>
</g>
<g >
<title>__do_sys_newfstatat (457,715 samples, 0.04%)</title><rect x="10.0" y="197" width="0.5" height="15.0" fill="rgb(243,177,42)" rx="2" ry="2" />
<text  x="13.00" y="207.5" ></text>
</g>
<g >
<title>path_lookupat (457,715 samples, 0.04%)</title><rect x="10.0" y="133" width="0.5" height="15.0" fill="rgb(250,208,49)" rx="2" ry="2" />
<text  x="13.00" y="143.5" ></text>
</g>
<g >
<title>__GI___fstatat (457,715 samples, 0.04%)</title><rect x="10.0" y="245" width="0.5" height="15.0" fill="rgb(211,31,7)" rx="2" ry="2" />
<text  x="13.00" y="255.5" ></text>
</g>
<g >
<title>__memset_avx2_unaligned_erms (924,031 samples, 0.09%)</title><rect x="11.6" y="245" width="1.1" height="15.0" fill="rgb(223,84,20)" rx="2" ry="2" />
<text  x="14.60" y="255.5" ></text>
</g>
<g >
<title>mntget (457,715 samples, 0.04%)</title><rect x="10.0" y="101" width="0.5" height="15.0" fill="rgb(232,125,30)" rx="2" ry="2" />
<text  x="13.00" y="111.5" ></text>
</g>
<g >
<title>do_execveat_common.isra.0 (478,681 samples, 0.05%)</title><rect x="12.7" y="197" width="0.5" height="15.0" fill="rgb(231,123,29)" rx="2" ry="2" />
<text  x="15.66" y="207.5" ></text>
</g>
<g >
<title>decode_webp_was (1,021,463,468 samples, 100.00%)</title><rect x="10.0" y="277" width="1180.0" height="15.0" fill="rgb(216,54,12)" rx="2" ry="2" />
<text  x="13.00" y="287.5" >decode_webp_was</text>
</g>
<g >
<title>handle_mm_fault (1,847,730 samples, 0.18%)</title><rect x="1085.6" y="197" width="2.1" height="15.0" fill="rgb(234,135,32)" rx="2" ry="2" />
<text  x="1088.57" y="207.5" ></text>
</g>
<g >
<title>w2c_decode__webp__wasmsimd_SimpleHFilter16_SSE2 (6,464,998 samples, 0.63%)</title><rect x="1098.3" y="261" width="7.5" height="15.0" fill="rgb(211,29,7)" rx="2" ry="2" />
<text  x="1101.34" y="271.5" ></text>
</g>
<g >
<title>get_page_from_freelist (923,997 samples, 0.09%)</title><rect x="1186.8" y="117" width="1.0" height="15.0" fill="rgb(252,218,52)" rx="2" ry="2" />
<text  x="1189.76" y="127.5" ></text>
</g>
<g >
<title>__munmap (924,238 samples, 0.09%)</title><rect x="10.5" y="213" width="1.1" height="15.0" fill="rgb(211,29,7)" rx="2" ry="2" />
<text  x="13.53" y="223.5" ></text>
</g>
<g >
<title>w2c_decode__webp__wasmsimd_HE16_SSE2 (923,891 samples, 0.09%)</title><rect x="47.1" y="245" width="1.1" height="15.0" fill="rgb(224,89,21)" rx="2" ry="2" />
<text  x="50.09" y="255.5" ></text>
</g>
<g >
<title>bprm_execve (478,681 samples, 0.05%)</title><rect x="12.7" y="181" width="0.5" height="15.0" fill="rgb(218,61,14)" rx="2" ry="2" />
<text  x="15.66" y="191.5" ></text>
</g>
<g >
<title>get_page_from_freelist (757,541 samples, 0.07%)</title><rect x="1183.8" y="117" width="0.8" height="15.0" fill="rgb(252,218,52)" rx="2" ry="2" />
<text  x="1186.75" y="127.5" ></text>
</g>
<g >
<title>w2c_decode__webp__wasmsimd_IDecode (166,651,972 samples, 16.31%)</title><rect x="895.2" y="261" width="192.5" height="15.0" fill="rgb(237,147,35)" rx="2" ry="2" />
<text  x="898.19" y="271.5" >w2c_decode__webp__wasmsim..</text>
</g>
<g >
<title>w2c_decode__webp__wasmsimd_TransformAC3_C (10,161,742 samples, 0.99%)</title><rect x="1105.8" y="261" width="11.8" height="15.0" fill="rgb(251,211,50)" rx="2" ry="2" />
<text  x="1108.81" y="271.5" ></text>
</g>
<g >
<title>do_mprotect_pkey (923,932 samples, 0.09%)</title><rect x="167.5" y="197" width="1.1" height="15.0" fill="rgb(252,218,52)" rx="2" ry="2" />
<text  x="170.51" y="207.5" ></text>
</g>
<g >
<title>entry_SYSCALL_64_after_hwframe (478,681 samples, 0.05%)</title><rect x="12.7" y="245" width="0.5" height="15.0" fill="rgb(218,63,15)" rx="2" ry="2" />
<text  x="15.66" y="255.5" ></text>
</g>
<g >
<title>w2c_decode__webp__wasmsimd_ReconstructRow (9,213,175 samples, 0.90%)</title><rect x="1087.7" y="261" width="10.6" height="15.0" fill="rgb(217,55,13)" rx="2" ry="2" />
<text  x="1090.70" y="271.5" ></text>
</g>
<g >
<title>page_add_new_anon_rmap (804,807 samples, 0.08%)</title><rect x="1182.8" y="165" width="1.0" height="15.0" fill="rgb(235,138,33)" rx="2" ry="2" />
<text  x="1185.82" y="175.5" ></text>
</g>
<g >
<title>filename_lookup (457,715 samples, 0.04%)</title><rect x="10.0" y="149" width="0.5" height="15.0" fill="rgb(216,52,12)" rx="2" ry="2" />
<text  x="13.00" y="159.5" ></text>
</g>
<g >
<title>entry_SYSCALL_64_after_hwframe (924,238 samples, 0.09%)</title><rect x="10.5" y="197" width="1.1" height="15.0" fill="rgb(218,63,15)" rx="2" ry="2" />
<text  x="13.53" y="207.5" ></text>
</g>
<g >
<title>__mod_lruvec_page_state (804,807 samples, 0.08%)</title><rect x="1182.8" y="149" width="1.0" height="15.0" fill="rgb(245,185,44)" rx="2" ry="2" />
<text  x="1185.82" y="159.5" ></text>
</g>
<g >
<title>exc_page_fault (1,847,898 samples, 0.18%)</title><rect x="1185.7" y="229" width="2.1" height="15.0" fill="rgb(212,35,8)" rx="2" ry="2" />
<text  x="1188.70" y="239.5" ></text>
</g>
<g >
<title>vfs_statx (457,715 samples, 0.04%)</title><rect x="10.0" y="165" width="0.5" height="15.0" fill="rgb(242,172,41)" rx="2" ry="2" />
<text  x="13.00" y="175.5" ></text>
</g>
<g >
<title>__mod_lruvec_state (804,807 samples, 0.08%)</title><rect x="1182.8" y="133" width="1.0" height="15.0" fill="rgb(226,100,24)" rx="2" ry="2" />
<text  x="1185.82" y="143.5" ></text>
</g>
<g >
<title>free_unref_page_list (924,238 samples, 0.09%)</title><rect x="10.5" y="37" width="1.1" height="15.0" fill="rgb(221,77,18)" rx="2" ry="2" />
<text  x="13.53" y="47.5" ></text>
</g>
<g >
<title>release_pages (924,238 samples, 0.09%)</title><rect x="10.5" y="53" width="1.1" height="15.0" fill="rgb(228,106,25)" rx="2" ry="2" />
<text  x="13.53" y="63.5" ></text>
</g>
<g >
<title>do_user_addr_fault (1,847,898 samples, 0.18%)</title><rect x="1185.7" y="213" width="2.1" height="15.0" fill="rgb(228,108,25)" rx="2" ry="2" />
<text  x="1188.70" y="223.5" ></text>
</g>
<g >
<title>exc_page_fault (2,073,812 samples, 0.20%)</title><rect x="1182.2" y="229" width="2.4" height="15.0" fill="rgb(212,35,8)" rx="2" ry="2" />
<text  x="1185.23" y="239.5" ></text>
</g>
<g >
<title>__page_set_anon_rmap (923,901 samples, 0.09%)</title><rect x="1185.7" y="165" width="1.1" height="15.0" fill="rgb(226,101,24)" rx="2" ry="2" />
<text  x="1188.70" y="175.5" ></text>
</g>
<g >
<title>__handle_mm_fault (1,847,898 samples, 0.18%)</title><rect x="1185.7" y="181" width="2.1" height="15.0" fill="rgb(207,9,2)" rx="2" ry="2" />
<text  x="1188.70" y="191.5" ></text>
</g>
<g >
<title>w2c_decode__webp__wasmsimd_memcpy (924,267 samples, 0.09%)</title><rect x="1187.8" y="261" width="1.1" height="15.0" fill="rgb(249,206,49)" rx="2" ry="2" />
<text  x="1190.83" y="271.5" ></text>
</g>
<g >
<title>w2c_decode__webp__wasmsimd_memset (924,103 samples, 0.09%)</title><rect x="1188.9" y="261" width="1.1" height="15.0" fill="rgb(249,206,49)" rx="2" ry="2" />
<text  x="1191.90" y="271.5" ></text>
</g>
<g >
<title>w2c_decode__webp__wasmsimd_TransformDCUV_C (2,771,629 samples, 0.27%)</title><rect x="96.2" y="245" width="3.2" height="15.0" fill="rgb(206,6,1)" rx="2" ry="2" />
<text  x="99.18" y="255.5" ></text>
</g>
<g >
<title>w2c_decode__webp__wasmsimd_DC8uv_SSE2 (8,311,728 samples, 0.81%)</title><rect x="169.6" y="261" width="9.6" height="15.0" fill="rgb(248,200,48)" rx="2" ry="2" />
<text  x="172.64" y="271.5" ></text>
</g>
<g >
<title>clear_page_rep (757,541 samples, 0.07%)</title><rect x="1183.8" y="101" width="0.8" height="15.0" fill="rgb(253,221,52)" rx="2" ry="2" />
<text  x="1186.75" y="111.5" ></text>
</g>
<g >
<title>vma_alloc_folio (923,575 samples, 0.09%)</title><rect x="1086.6" y="165" width="1.1" height="15.0" fill="rgb(245,187,44)" rx="2" ry="2" />
<text  x="1089.63" y="175.5" ></text>
</g>
<g >
<title>__folio_alloc (757,541 samples, 0.07%)</title><rect x="1183.8" y="149" width="0.8" height="15.0" fill="rgb(224,91,21)" rx="2" ry="2" />
<text  x="1186.75" y="159.5" ></text>
</g>
<g >
<title>do_user_addr_fault (1,847,730 samples, 0.18%)</title><rect x="1085.6" y="213" width="2.1" height="15.0" fill="rgb(228,108,25)" rx="2" ry="2" />
<text  x="1088.57" y="223.5" ></text>
</g>
<g >
<title>handle_mm_fault (2,073,812 samples, 0.20%)</title><rect x="1182.2" y="197" width="2.4" height="15.0" fill="rgb(234,135,32)" rx="2" ry="2" />
<text  x="1185.23" y="207.5" ></text>
</g>
<g >
<title>w2c_decode__webp__wasmsimd_GetLargeValue (50,795,094 samples, 4.97%)</title><rect x="836.5" y="261" width="58.7" height="15.0" fill="rgb(234,137,32)" rx="2" ry="2" />
<text  x="839.51" y="271.5" >w2c_de..</text>
</g>
<g >
<title>do_syscall_64 (924,238 samples, 0.09%)</title><rect x="10.5" y="181" width="1.1" height="15.0" fill="rgb(209,20,4)" rx="2" ry="2" />
<text  x="13.53" y="191.5" ></text>
</g>
<g >
<title>__mod_node_page_state (804,807 samples, 0.08%)</title><rect x="1182.8" y="117" width="1.0" height="15.0" fill="rgb(213,38,9)" rx="2" ry="2" />
<text  x="1185.82" y="127.5" ></text>
</g>
<g >
<title>w2c_decode__webp__wasmsimd_dlmalloc (1,847,898 samples, 0.18%)</title><rect x="1185.7" y="261" width="2.1" height="15.0" fill="rgb(229,110,26)" rx="2" ry="2" />
<text  x="1188.70" y="271.5" ></text>
</g>
<g >
<title>tlb_finish_mmu (924,238 samples, 0.09%)</title><rect x="10.5" y="85" width="1.1" height="15.0" fill="rgb(251,212,50)" rx="2" ry="2" />
<text  x="13.53" y="95.5" ></text>
</g>
<g >
<title>__do_global_dtors_aux (924,238 samples, 0.09%)</title><rect x="10.5" y="245" width="1.1" height="15.0" fill="rgb(245,185,44)" rx="2" ry="2" />
<text  x="13.53" y="255.5" ></text>
</g>
<g >
<title>w2c_decode__webp__wasmsimd_UpsampleRgbaLinePair_SSE2 (58,067,479 samples, 5.68%)</title><rect x="1117.6" y="261" width="67.0" height="15.0" fill="rgb(235,140,33)" rx="2" ry="2" />
<text  x="1120.55" y="271.5" >w2c_dec..</text>
</g>
<g >
<title>entry_SYSCALL_64_after_hwframe (457,715 samples, 0.04%)</title><rect x="10.0" y="229" width="0.5" height="15.0" fill="rgb(218,63,15)" rx="2" ry="2" />
<text  x="13.00" y="239.5" ></text>
</g>
<g >
<title>w2c_decode__webp__wasmsimd_TM4_SSE2 (1,847,037 samples, 0.18%)</title><rect x="94.0" y="245" width="2.2" height="15.0" fill="rgb(224,90,21)" rx="2" ry="2" />
<text  x="97.04" y="255.5" ></text>
</g>
<g >
<title>vfs_fstatat (457,715 samples, 0.04%)</title><rect x="10.0" y="181" width="0.5" height="15.0" fill="rgb(232,127,30)" rx="2" ry="2" />
<text  x="13.00" y="191.5" ></text>
</g>
<g >
<title>w2c_decode__webp__wasmsimd_HU4_C (923,743 samples, 0.09%)</title><rect x="49.2" y="245" width="1.1" height="15.0" fill="rgb(208,17,4)" rx="2" ry="2" />
<text  x="52.23" y="255.5" ></text>
</g>
<g >
<title>w2c_decode__webp__wasmsimd_GetCoeffsAlt (567,129,917 samples, 55.52%)</title><rect x="181.4" y="261" width="655.1" height="15.0" fill="rgb(214,45,10)" rx="2" ry="2" />
<text  x="184.38" y="271.5" >w2c_decode__webp__wasmsimd_GetCoeffsAlt</text>
</g>
<g >
<title>asm_exc_page_fault (2,771,897 samples, 0.27%)</title><rect x="1084.5" y="245" width="3.2" height="15.0" fill="rgb(225,93,22)" rx="2" ry="2" />
<text  x="1087.50" y="255.5" ></text>
</g>
<g >
<title>vma_alloc_folio (923,997 samples, 0.09%)</title><rect x="1186.8" y="165" width="1.0" height="15.0" fill="rgb(245,187,44)" rx="2" ry="2" />
<text  x="1189.76" y="175.5" ></text>
</g>
<g >
<title>do_mas_align_munmap (924,238 samples, 0.09%)</title><rect x="10.5" y="117" width="1.1" height="15.0" fill="rgb(232,126,30)" rx="2" ry="2" />
<text  x="13.53" y="127.5" ></text>
</g>
<g >
<title>w2c_decode__webp__wasmsimd_TransformDC_C (6,465,446 samples, 0.63%)</title><rect x="99.4" y="245" width="7.4" height="15.0" fill="rgb(211,27,6)" rx="2" ry="2" />
<text  x="102.38" y="255.5" ></text>
</g>
<g >
<title>do_syscall_64 (923,932 samples, 0.09%)</title><rect x="167.5" y="229" width="1.1" height="15.0" fill="rgb(209,20,4)" rx="2" ry="2" />
<text  x="170.51" y="239.5" ></text>
</g>
<g >
<title>flush_signal_handlers (117,492 samples, 0.01%)</title><rect x="13.1" y="133" width="0.1" height="15.0" fill="rgb(253,221,53)" rx="2" ry="2" />
<text  x="16.08" y="143.5" ></text>
</g>
</g>
</svg>
