<?xml version="1.0" standalone="no"?>
<!DOCTYPE svg PUBLIC "-//W3C//DTD SVG 1.1//EN" "http://www.w3.org/Graphics/SVG/1.1/DTD/svg11.dtd">
<svg version="1.1" width="1200" height="406" onload="init(evt)" viewBox="0 0 1200 406" xmlns="http://www.w3.org/2000/svg" xmlns:xlink="http://www.w3.org/1999/xlink">
<!-- Flame graph stack visualization. See https://github.com/brendangregg/FlameGraph for latest version, and http://www.brendangregg.com/flamegraphs.html for examples. -->
<!-- NOTES:  -->
<defs>
	<linearGradient id="background" y1="0" y2="1" x1="0" x2="0" >
		<stop stop-color="#eeeeee" offset="5%" />
		<stop stop-color="#eeeeb0" offset="95%" />
	</linearGradient>
</defs>
<style type="text/css">
	text { font-family:Verdana; font-size:12px; fill:rgb(0,0,0); }
	#search, #ignorecase { opacity:0.1; cursor:pointer; }
	#search:hover, #search.show, #ignorecase:hover, #ignorecase.show { opacity:1; }
	#subtitle { text-anchor:middle; font-color:rgb(160,160,160); }
	#title { text-anchor:middle; font-size:17px}
	#unzoom { cursor:pointer; }
	#frames > *:hover { stroke:black; stroke-width:0.5; cursor:pointer; }
	.hide { display:none; }
	.parent { opacity:0.5; }
</style>
<script type="text/ecmascript">
<![CDATA[
	"use strict";
	var details, searchbtn, unzoombtn, matchedtxt, svg, searching, currentSearchTerm, ignorecase, ignorecaseBtn;
	function init(evt) {
		details = document.getElementById("details").firstChild;
		searchbtn = document.getElementById("search");
		ignorecaseBtn = document.getElementById("ignorecase");
		unzoombtn = document.getElementById("unzoom");
		matchedtxt = document.getElementById("matched");
		svg = document.getElementsByTagName("svg")[0];
		searching = 0;
		currentSearchTerm = null;

		// use GET parameters to restore a flamegraphs state.
		var params = get_params();
		if (params.x && params.y)
			zoom(find_group(document.querySelector('[x="' + params.x + '"][y="' + params.y + '"]')));
                if (params.s) search(params.s);
	}

	// event listeners
	window.addEventListener("click", function(e) {
		var target = find_group(e.target);
		if (target) {
			if (target.nodeName == "a") {
				if (e.ctrlKey === false) return;
				e.preventDefault();
			}
			if (target.classList.contains("parent")) unzoom(true);
			zoom(target);
			if (!document.querySelector('.parent')) {
				// we have basically done a clearzoom so clear the url
				var params = get_params();
				if (params.x) delete params.x;
				if (params.y) delete params.y;
				history.replaceState(null, null, parse_params(params));
				unzoombtn.classList.add("hide");
				return;
			}

			// set parameters for zoom state
			var el = target.querySelector("rect");
			if (el && el.attributes && el.attributes.y && el.attributes._orig_x) {
				var params = get_params()
				params.x = el.attributes._orig_x.value;
				params.y = el.attributes.y.value;
				history.replaceState(null, null, parse_params(params));
			}
		}
		else if (e.target.id == "unzoom") clearzoom();
		else if (e.target.id == "search") search_prompt();
		else if (e.target.id == "ignorecase") toggle_ignorecase();
	}, false)

	// mouse-over for info
	// show
	window.addEventListener("mouseover", function(e) {
		var target = find_group(e.target);
		if (target) details.nodeValue = "Function: " + g_to_text(target);
	}, false)

	// clear
	window.addEventListener("mouseout", function(e) {
		var target = find_group(e.target);
		if (target) details.nodeValue = ' ';
	}, false)

	// ctrl-F for search
	// ctrl-I to toggle case-sensitive search
	window.addEventListener("keydown",function (e) {
		if (e.keyCode === 114 || (e.ctrlKey && e.keyCode === 70)) {
			e.preventDefault();
			search_prompt();
		}
		else if (e.ctrlKey && e.keyCode === 73) {
			e.preventDefault();
			toggle_ignorecase();
		}
	}, false)

	// functions
	function get_params() {
		var params = {};
		var paramsarr = window.location.search.substr(1).split('&');
		for (var i = 0; i < paramsarr.length; ++i) {
			var tmp = paramsarr[i].split("=");
			if (!tmp[0] || !tmp[1]) continue;
			params[tmp[0]]  = decodeURIComponent(tmp[1]);
		}
		return params;
	}
	function parse_params(params) {
		var uri = "?";
		for (var key in params) {
			uri += key + '=' + encodeURIComponent(params[key]) + '&';
		}
		if (uri.slice(-1) == "&")
			uri = uri.substring(0, uri.length - 1);
		if (uri == '?')
			uri = window.location.href.split('?')[0];
		return uri;
	}
	function find_child(node, selector) {
		var children = node.querySelectorAll(selector);
		if (children.length) return children[0];
	}
	function find_group(node) {
		var parent = node.parentElement;
		if (!parent) return;
		if (parent.id == "frames") return node;
		return find_group(parent);
	}
	function orig_save(e, attr, val) {
		if (e.attributes["_orig_" + attr] != undefined) return;
		if (e.attributes[attr] == undefined) return;
		if (val == undefined) val = e.attributes[attr].value;
		e.setAttribute("_orig_" + attr, val);
	}
	function orig_load(e, attr) {
		if (e.attributes["_orig_"+attr] == undefined) return;
		e.attributes[attr].value = e.attributes["_orig_" + attr].value;
		e.removeAttribute("_orig_"+attr);
	}
	function g_to_text(e) {
		var text = find_child(e, "title").firstChild.nodeValue;
		return (text)
	}
	function g_to_func(e) {
		var func = g_to_text(e);
		// if there's any manipulation we want to do to the function
		// name before it's searched, do it here before returning.
		return (func);
	}
	function update_text(e) {
		var r = find_child(e, "rect");
		var t = find_child(e, "text");
		var w = parseFloat(r.attributes.width.value) -3;
		var txt = find_child(e, "title").textContent.replace(/\([^(]*\)$/,"");
		t.attributes.x.value = parseFloat(r.attributes.x.value) + 3;

		// Smaller than this size won't fit anything
		if (w < 2 * 12 * 0.59) {
			t.textContent = "";
			return;
		}

		t.textContent = txt;
		var sl = t.getSubStringLength(0, txt.length);
		// check if only whitespace or if we can fit the entire string into width w
		if (/^ *$/.test(txt) || sl < w)
			return;

		// this isn't perfect, but gives a good starting point
		// and avoids calling getSubStringLength too often
		var start = Math.floor((w/sl) * txt.length);
		for (var x = start; x > 0; x = x-2) {
			if (t.getSubStringLength(0, x + 2) <= w) {
				t.textContent = txt.substring(0, x) + "..";
				return;
			}
		}
		t.textContent = "";
	}

	// zoom
	function zoom_reset(e) {
		if (e.attributes != undefined) {
			orig_load(e, "x");
			orig_load(e, "width");
		}
		if (e.childNodes == undefined) return;
		for (var i = 0, c = e.childNodes; i < c.length; i++) {
			zoom_reset(c[i]);
		}
	}
	function zoom_child(e, x, ratio) {
		if (e.attributes != undefined) {
			if (e.attributes.x != undefined) {
				orig_save(e, "x");
				e.attributes.x.value = (parseFloat(e.attributes.x.value) - x - 10) * ratio + 10;
				if (e.tagName == "text")
					e.attributes.x.value = find_child(e.parentNode, "rect[x]").attributes.x.value + 3;
			}
			if (e.attributes.width != undefined) {
				orig_save(e, "width");
				e.attributes.width.value = parseFloat(e.attributes.width.value) * ratio;
			}
		}

		if (e.childNodes == undefined) return;
		for (var i = 0, c = e.childNodes; i < c.length; i++) {
			zoom_child(c[i], x - 10, ratio);
		}
	}
	function zoom_parent(e) {
		if (e.attributes) {
			if (e.attributes.x != undefined) {
				orig_save(e, "x");
				e.attributes.x.value = 10;
			}
			if (e.attributes.width != undefined) {
				orig_save(e, "width");
				e.attributes.width.value = parseInt(svg.width.baseVal.value) - (10 * 2);
			}
		}
		if (e.childNodes == undefined) return;
		for (var i = 0, c = e.childNodes; i < c.length; i++) {
			zoom_parent(c[i]);
		}
	}
	function zoom(node) {
		var attr = find_child(node, "rect").attributes;
		var width = parseFloat(attr.width.value);
		var xmin = parseFloat(attr.x.value);
		var xmax = parseFloat(xmin + width);
		var ymin = parseFloat(attr.y.value);
		var ratio = (svg.width.baseVal.value - 2 * 10) / width;

		// XXX: Workaround for JavaScript float issues (fix me)
		var fudge = 0.0001;

		unzoombtn.classList.remove("hide");

		var el = document.getElementById("frames").children;
		for (var i = 0; i < el.length; i++) {
			var e = el[i];
			var a = find_child(e, "rect").attributes;
			var ex = parseFloat(a.x.value);
			var ew = parseFloat(a.width.value);
			var upstack;
			// Is it an ancestor
			if (0 == 0) {
				upstack = parseFloat(a.y.value) > ymin;
			} else {
				upstack = parseFloat(a.y.value) < ymin;
			}
			if (upstack) {
				// Direct ancestor
				if (ex <= xmin && (ex+ew+fudge) >= xmax) {
					e.classList.add("parent");
					zoom_parent(e);
					update_text(e);
				}
				// not in current path
				else
					e.classList.add("hide");
			}
			// Children maybe
			else {
				// no common path
				if (ex < xmin || ex + fudge >= xmax) {
					e.classList.add("hide");
				}
				else {
					zoom_child(e, xmin, ratio);
					update_text(e);
				}
			}
		}
		search();
	}
	function unzoom(dont_update_text) {
		unzoombtn.classList.add("hide");
		var el = document.getElementById("frames").children;
		for(var i = 0; i < el.length; i++) {
			el[i].classList.remove("parent");
			el[i].classList.remove("hide");
			zoom_reset(el[i]);
			if(!dont_update_text) update_text(el[i]);
		}
		search();
	}
	function clearzoom() {
		unzoom();

		// remove zoom state
		var params = get_params();
		if (params.x) delete params.x;
		if (params.y) delete params.y;
		history.replaceState(null, null, parse_params(params));
	}

	// search
	function toggle_ignorecase() {
		ignorecase = !ignorecase;
		if (ignorecase) {
			ignorecaseBtn.classList.add("show");
		} else {
			ignorecaseBtn.classList.remove("show");
		}
		reset_search();
		search();
	}
	function reset_search() {
		var el = document.querySelectorAll("#frames rect");
		for (var i = 0; i < el.length; i++) {
			orig_load(el[i], "fill")
		}
		var params = get_params();
		delete params.s;
		history.replaceState(null, null, parse_params(params));
	}
	function search_prompt() {
		if (!searching) {
			var term = prompt("Enter a search term (regexp " +
			    "allowed, eg: ^ext4_)"
			    + (ignorecase ? ", ignoring case" : "")
			    + "\nPress Ctrl-i to toggle case sensitivity", "");
			if (term != null) search(term);
		} else {
			reset_search();
			searching = 0;
			currentSearchTerm = null;
			searchbtn.classList.remove("show");
			searchbtn.firstChild.nodeValue = "Search"
			matchedtxt.classList.add("hide");
			matchedtxt.firstChild.nodeValue = ""
		}
	}
	function search(term) {
		if (term) currentSearchTerm = term;

		var re = new RegExp(currentSearchTerm, ignorecase ? 'i' : '');
		var el = document.getElementById("frames").children;
		var matches = new Object();
		var maxwidth = 0;
		for (var i = 0; i < el.length; i++) {
			var e = el[i];
			var func = g_to_func(e);
			var rect = find_child(e, "rect");
			if (func == null || rect == null)
				continue;

			// Save max width. Only works as we have a root frame
			var w = parseFloat(rect.attributes.width.value);
			if (w > maxwidth)
				maxwidth = w;

			if (func.match(re)) {
				// highlight
				var x = parseFloat(rect.attributes.x.value);
				orig_save(rect, "fill");
				rect.attributes.fill.value = "rgb(230,0,230)";

				// remember matches
				if (matches[x] == undefined) {
					matches[x] = w;
				} else {
					if (w > matches[x]) {
						// overwrite with parent
						matches[x] = w;
					}
				}
				searching = 1;
			}
		}
		if (!searching)
			return;
		var params = get_params();
		params.s = currentSearchTerm;
		history.replaceState(null, null, parse_params(params));

		searchbtn.classList.add("show");
		searchbtn.firstChild.nodeValue = "Reset Search";

		// calculate percent matched, excluding vertical overlap
		var count = 0;
		var lastx = -1;
		var lastw = 0;
		var keys = Array();
		for (k in matches) {
			if (matches.hasOwnProperty(k))
				keys.push(k);
		}
		// sort the matched frames by their x location
		// ascending, then width descending
		keys.sort(function(a, b){
			return a - b;
		});
		// Step through frames saving only the biggest bottom-up frames
		// thanks to the sort order. This relies on the tree property
		// where children are always smaller than their parents.
		var fudge = 0.0001;	// JavaScript floating point
		for (var k in keys) {
			var x = parseFloat(keys[k]);
			var w = matches[keys[k]];
			if (x >= lastx + lastw - fudge) {
				count += w;
				lastx = x;
				lastw = w;
			}
		}
		// display matched percent
		matchedtxt.classList.remove("hide");
		var pct = 100 * count / maxwidth;
		if (pct != 100) pct = pct.toFixed(1)
		matchedtxt.firstChild.nodeValue = "Matched: " + pct + "%";
	}
]]>
</script>
<rect x="0.0" y="0" width="1200.0" height="406.0" fill="url(#background)"  />
<text id="title" x="600.00" y="24" >Flame Graph</text>
<text id="details" x="10.00" y="389" > </text>
<text id="unzoom" x="10.00" y="24" class="hide">Reset Zoom</text>
<text id="search" x="1090.00" y="24" >Search</text>
<text id="ignorecase" x="1174.00" y="24" >ic</text>
<text id="matched" x="1090.00" y="389" > </text>
<g id="frames">
<g >
<title>perf_event_mmap (924,112 samples, 0.12%)</title><rect x="1184.2" y="245" width="1.4" height="15.0" fill="rgb(229,112,26)" rx="2" ry="2" />
<text  x="1187.23" y="255.5" ></text>
</g>
<g >
<title>__perf_event_header__init_id (105,981 samples, 0.01%)</title><rect x="1189.8" y="133" width="0.2" height="15.0" fill="rgb(242,173,41)" rx="2" ry="2" />
<text  x="1192.80" y="143.5" ></text>
</g>
<g >
<title>entry_SYSCALL_64_after_hwframe (470,781 samples, 0.06%)</title><rect x="1180.2" y="293" width="0.7" height="15.0" fill="rgb(218,63,15)" rx="2" ry="2" />
<text  x="1183.19" y="303.5" ></text>
</g>
<g >
<title>__handle_mm_fault (1,306,675 samples, 0.17%)</title><rect x="118.2" y="245" width="1.9" height="15.0" fill="rgb(207,9,2)" rx="2" ry="2" />
<text  x="121.16" y="255.5" ></text>
</g>
<g >
<title>do_user_addr_fault (2,770,968 samples, 0.35%)</title><rect x="47.3" y="277" width="4.2" height="15.0" fill="rgb(228,108,25)" rx="2" ry="2" />
<text  x="50.28" y="287.5" ></text>
</g>
<g >
<title>TransformDC_C (3,694,585 samples, 0.47%)</title><rect x="64.0" y="325" width="5.6" height="15.0" fill="rgb(219,65,15)" rx="2" ry="2" />
<text  x="66.98" y="335.5" ></text>
</g>
<g >
<title>do_user_addr_fault (359,608 samples, 0.05%)</title><rect x="1183.7" y="149" width="0.5" height="15.0" fill="rgb(228,108,25)" rx="2" ry="2" />
<text  x="1186.69" y="159.5" ></text>
</g>
<g >
<title>UpsampleRgbaLinePair_SSE2 (924,357 samples, 0.12%)</title><rect x="376.4" y="309" width="1.4" height="15.0" fill="rgb(243,178,42)" rx="2" ry="2" />
<text  x="379.42" y="319.5" ></text>
</g>
<g >
<title>[unknown] (416,725,507 samples, 53.25%)</title><rect x="551.8" y="309" width="628.4" height="15.0" fill="rgb(210,24,5)" rx="2" ry="2" />
<text  x="554.80" y="319.5" >[unknown]</text>
</g>
<g >
<title>bprm_execve (133,839 samples, 0.02%)</title><rect x="1189.8" y="245" width="0.2" height="15.0" fill="rgb(218,61,14)" rx="2" ry="2" />
<text  x="1192.80" y="255.5" ></text>
</g>
<g >
<title>__libc_open64 (470,781 samples, 0.06%)</title><rect x="1180.2" y="309" width="0.7" height="15.0" fill="rgb(235,140,33)" rx="2" ry="2" />
<text  x="1183.19" y="319.5" ></text>
</g>
<g >
<title>clear_page_rep (702,499 samples, 0.09%)</title><rect x="119.1" y="165" width="1.0" height="15.0" fill="rgb(253,221,52)" rx="2" ry="2" />
<text  x="122.08" y="175.5" ></text>
</g>
<g >
<title>load_elf_binary (359,608 samples, 0.05%)</title><rect x="1183.7" y="229" width="0.5" height="15.0" fill="rgb(223,83,20)" rx="2" ry="2" />
<text  x="1186.69" y="239.5" ></text>
</g>
<g >
<title>handle_mm_fault (2,770,968 samples, 0.35%)</title><rect x="47.3" y="261" width="4.2" height="15.0" fill="rgb(234,135,32)" rx="2" ry="2" />
<text  x="50.28" y="271.5" ></text>
</g>
<g >
<title>folio_add_lru (923,784 samples, 0.12%)</title><rect x="156.4" y="229" width="1.4" height="15.0" fill="rgb(208,17,4)" rx="2" ry="2" />
<text  x="159.36" y="239.5" ></text>
</g>
<g >
<title>asm_exc_page_fault (1,847,429 samples, 0.24%)</title><rect x="1180.9" y="293" width="2.8" height="15.0" fill="rgb(225,93,22)" rx="2" ry="2" />
<text  x="1183.90" y="303.5" ></text>
</g>
<g >
<title>__alloc_pages (923,038 samples, 0.12%)</title><rect x="1188.4" y="197" width="1.4" height="15.0" fill="rgb(233,129,30)" rx="2" ry="2" />
<text  x="1191.41" y="207.5" ></text>
</g>
<g >
<title>try_charge_memcg (923,967 samples, 0.12%)</title><rect x="47.3" y="197" width="1.4" height="15.0" fill="rgb(210,27,6)" rx="2" ry="2" />
<text  x="50.28" y="207.5" ></text>
</g>
<g >
<title>__alloc_pages (2,772,273 samples, 0.35%)</title><rect x="157.8" y="197" width="4.1" height="15.0" fill="rgb(233,129,30)" rx="2" ry="2" />
<text  x="160.76" y="207.5" ></text>
</g>
<g >
<title>[unknown] (133,839 samples, 0.02%)</title><rect x="1189.8" y="325" width="0.2" height="15.0" fill="rgb(210,24,5)" rx="2" ry="2" />
<text  x="1192.80" y="335.5" ></text>
</g>
<g >
<title>handle_mm_fault (1,847,429 samples, 0.24%)</title><rect x="1180.9" y="245" width="2.8" height="15.0" fill="rgb(234,135,32)" rx="2" ry="2" />
<text  x="1183.90" y="255.5" ></text>
</g>
<g >
<title>perf_iterate_ctx (105,981 samples, 0.01%)</title><rect x="1189.8" y="165" width="0.2" height="15.0" fill="rgb(205,4,0)" rx="2" ry="2" />
<text  x="1192.80" y="175.5" ></text>
</g>
<g >
<title>get_page_from_freelist (359,608 samples, 0.05%)</title><rect x="1183.7" y="53" width="0.5" height="15.0" fill="rgb(252,218,52)" rx="2" ry="2" />
<text  x="1186.69" y="63.5" ></text>
</g>
<g >
<title>kmem_cache_alloc (470,781 samples, 0.06%)</title><rect x="1180.2" y="213" width="0.7" height="15.0" fill="rgb(225,95,22)" rx="2" ry="2" />
<text  x="1183.19" y="223.5" ></text>
</g>
<g >
<title>asm_exc_page_fault (1,306,675 samples, 0.17%)</title><rect x="118.2" y="309" width="1.9" height="15.0" fill="rgb(225,93,22)" rx="2" ry="2" />
<text  x="121.16" y="319.5" ></text>
</g>
<g >
<title>__mem_cgroup_charge (923,967 samples, 0.12%)</title><rect x="47.3" y="229" width="1.4" height="15.0" fill="rgb(218,60,14)" rx="2" ry="2" />
<text  x="50.28" y="239.5" ></text>
</g>
<g >
<title>exit_mmap (924,141 samples, 0.12%)</title><rect x="1187.0" y="229" width="1.4" height="15.0" fill="rgb(236,143,34)" rx="2" ry="2" />
<text  x="1190.01" y="239.5" ></text>
</g>
<g >
<title>__folio_alloc (923,091 samples, 0.12%)</title><rect x="1182.3" y="197" width="1.4" height="15.0" fill="rgb(224,91,21)" rx="2" ry="2" />
<text  x="1185.29" y="207.5" ></text>
</g>
<g >
<title>Transform_SSE2 (7,388,673 samples, 0.94%)</title><rect x="365.3" y="309" width="11.1" height="15.0" fill="rgb(233,129,30)" rx="2" ry="2" />
<text  x="368.28" y="319.5" ></text>
</g>
<g >
<title>ReconstructRow (16,629,115 samples, 2.13%)</title><rect x="306.8" y="309" width="25.1" height="15.0" fill="rgb(225,93,22)" rx="2" ry="2" />
<text  x="309.78" y="319.5" >R..</text>
</g>
<g >
<title>clear_page_rep (2,772,273 samples, 0.35%)</title><rect x="157.8" y="165" width="4.1" height="15.0" fill="rgb(253,221,52)" rx="2" ry="2" />
<text  x="160.76" y="175.5" ></text>
</g>
<g >
<title>TransformAC3_C (6,463,218 samples, 0.83%)</title><rect x="54.2" y="325" width="9.8" height="15.0" fill="rgb(209,19,4)" rx="2" ry="2" />
<text  x="57.24" y="335.5" ></text>
</g>
<g >
<title>handle_mm_fault (359,608 samples, 0.05%)</title><rect x="1183.7" y="133" width="0.5" height="15.0" fill="rgb(234,135,32)" rx="2" ry="2" />
<text  x="1186.69" y="143.5" ></text>
</g>
<g >
<title>do_user_addr_fault (1,306,675 samples, 0.17%)</title><rect x="118.2" y="277" width="1.9" height="15.0" fill="rgb(228,108,25)" rx="2" ry="2" />
<text  x="121.16" y="287.5" ></text>
</g>
<g >
<title>asm_exc_page_fault (923,038 samples, 0.12%)</title><rect x="1188.4" y="309" width="1.4" height="15.0" fill="rgb(225,93,22)" rx="2" ry="2" />
<text  x="1191.41" y="319.5" ></text>
</g>
<g >
<title>do_sys_openat2 (470,781 samples, 0.06%)</title><rect x="1180.2" y="245" width="0.7" height="15.0" fill="rgb(253,221,52)" rx="2" ry="2" />
<text  x="1183.19" y="255.5" ></text>
</g>
<g >
<title>do_exit (924,141 samples, 0.12%)</title><rect x="1187.0" y="261" width="1.4" height="15.0" fill="rgb(231,122,29)" rx="2" ry="2" />
<text  x="1190.01" y="271.5" ></text>
</g>
<g >
<title>do_syscall_64 (924,112 samples, 0.12%)</title><rect x="1184.2" y="293" width="1.4" height="15.0" fill="rgb(209,20,4)" rx="2" ry="2" />
<text  x="1187.23" y="303.5" ></text>
</g>
<g >
<title>do_syscall_64 (470,781 samples, 0.06%)</title><rect x="1180.2" y="277" width="0.7" height="15.0" fill="rgb(209,20,4)" rx="2" ry="2" />
<text  x="1183.19" y="287.5" ></text>
</g>
<g >
<title>ReconstructRow (7,389,105 samples, 0.94%)</title><rect x="40.3" y="325" width="11.2" height="15.0" fill="rgb(225,93,22)" rx="2" ry="2" />
<text  x="43.31" y="335.5" ></text>
</g>
<g >
<title>do_user_addr_fault (3,696,057 samples, 0.47%)</title><rect x="156.4" y="277" width="5.5" height="15.0" fill="rgb(228,108,25)" rx="2" ry="2" />
<text  x="159.36" y="287.5" ></text>
</g>
<g >
<title>TransformDCUV_C (3,694,961 samples, 0.47%)</title><rect x="338.8" y="309" width="5.6" height="15.0" fill="rgb(214,44,10)" rx="2" ry="2" />
<text  x="341.82" y="319.5" ></text>
</g>
<g >
<title>do_user_addr_fault (923,038 samples, 0.12%)</title><rect x="1188.4" y="277" width="1.4" height="15.0" fill="rgb(228,108,25)" rx="2" ry="2" />
<text  x="1191.41" y="287.5" ></text>
</g>
<g >
<title>__task_pid_nr_ns (105,981 samples, 0.01%)</title><rect x="1189.8" y="117" width="0.2" height="15.0" fill="rgb(236,146,34)" rx="2" ry="2" />
<text  x="1192.80" y="127.5" ></text>
</g>
<g >
<title>HD4_C (924,341 samples, 0.12%)</title><rect x="32.0" y="325" width="1.4" height="15.0" fill="rgb(226,100,23)" rx="2" ry="2" />
<text  x="35.00" y="335.5" ></text>
</g>
<g >
<title>Upsample32Pixels_SSE2 (923,547 samples, 0.12%)</title><rect x="103.0" y="325" width="1.4" height="15.0" fill="rgb(223,83,20)" rx="2" ry="2" />
<text  x="105.99" y="335.5" ></text>
</g>
<g >
<title>getname_flags.part.0 (470,781 samples, 0.06%)</title><rect x="1180.2" y="229" width="0.7" height="15.0" fill="rgb(207,10,2)" rx="2" ry="2" />
<text  x="1183.19" y="239.5" ></text>
</g>
<g >
<title>exc_page_fault (923,038 samples, 0.12%)</title><rect x="1188.4" y="293" width="1.4" height="15.0" fill="rgb(212,35,8)" rx="2" ry="2" />
<text  x="1191.41" y="303.5" ></text>
</g>
<g >
<title>exc_page_fault (1,847,429 samples, 0.24%)</title><rect x="1180.9" y="277" width="2.8" height="15.0" fill="rgb(212,35,8)" rx="2" ry="2" />
<text  x="1183.90" y="287.5" ></text>
</g>
<g >
<title>GetLargeValue (3,694,666 samples, 0.47%)</title><rect x="1174.6" y="293" width="5.6" height="15.0" fill="rgb(243,175,42)" rx="2" ry="2" />
<text  x="1177.62" y="303.5" ></text>
</g>
<g >
<title>__alloc_pages (359,608 samples, 0.05%)</title><rect x="1183.7" y="69" width="0.5" height="15.0" fill="rgb(233,129,30)" rx="2" ry="2" />
<text  x="1186.69" y="79.5" ></text>
</g>
<g >
<title>EmitFancyRGB (924,317 samples, 0.12%)</title><rect x="219.0" y="309" width="1.4" height="15.0" fill="rgb(210,26,6)" rx="2" ry="2" />
<text  x="222.02" y="319.5" ></text>
</g>
<g >
<title>_int_malloc (1,847,429 samples, 0.24%)</title><rect x="1180.9" y="309" width="2.8" height="15.0" fill="rgb(215,47,11)" rx="2" ry="2" />
<text  x="1183.90" y="319.5" ></text>
</g>
<g >
<title>__mmput (924,141 samples, 0.12%)</title><rect x="1187.0" y="245" width="1.4" height="15.0" fill="rgb(249,203,48)" rx="2" ry="2" />
<text  x="1190.01" y="255.5" ></text>
</g>
<g >
<title>__handle_mm_fault (3,696,057 samples, 0.47%)</title><rect x="156.4" y="245" width="5.5" height="15.0" fill="rgb(207,9,2)" rx="2" ry="2" />
<text  x="159.36" y="255.5" ></text>
</g>
<g >
<title>padzero (359,608 samples, 0.05%)</title><rect x="1183.7" y="213" width="0.5" height="15.0" fill="rgb(223,84,20)" rx="2" ry="2" />
<text  x="1186.69" y="223.5" ></text>
</g>
<g >
<title>charge_memcg (923,967 samples, 0.12%)</title><rect x="47.3" y="213" width="1.4" height="15.0" fill="rgb(242,170,40)" rx="2" ry="2" />
<text  x="50.28" y="223.5" ></text>
</g>
<g >
<title>VP8ParseIntraModeRow (16,628,955 samples, 2.13%)</title><rect x="138.3" y="325" width="25.0" height="15.0" fill="rgb(231,121,29)" rx="2" ry="2" />
<text  x="141.25" y="335.5" >V..</text>
</g>
<g >
<title>UpsampleRgbaLinePair_SSE2 (10,448,902 samples, 1.34%)</title><rect x="104.4" y="325" width="15.7" height="15.0" fill="rgb(243,178,42)" rx="2" ry="2" />
<text  x="107.38" y="335.5" ></text>
</g>
<g >
<title>HE8uv_C (923,129 samples, 0.12%)</title><rect x="305.4" y="309" width="1.4" height="15.0" fill="rgb(226,98,23)" rx="2" ry="2" />
<text  x="308.39" y="319.5" ></text>
</g>
<g >
<title>__pud_alloc (359,608 samples, 0.05%)</title><rect x="1183.7" y="101" width="0.5" height="15.0" fill="rgb(218,62,15)" rx="2" ry="2" />
<text  x="1186.69" y="111.5" ></text>
</g>
<g >
<title>LD4_SSE2 (924,044 samples, 0.12%)</title><rect x="37.5" y="325" width="1.4" height="15.0" fill="rgb(242,173,41)" rx="2" ry="2" />
<text  x="40.53" y="335.5" ></text>
</g>
<g >
<title>__handle_mm_fault (923,038 samples, 0.12%)</title><rect x="1188.4" y="245" width="1.4" height="15.0" fill="rgb(207,9,2)" rx="2" ry="2" />
<text  x="1191.41" y="255.5" ></text>
</g>
<g >
<title>get_page_from_freelist (923,091 samples, 0.12%)</title><rect x="1182.3" y="165" width="1.4" height="15.0" fill="rgb(252,218,52)" rx="2" ry="2" />
<text  x="1185.29" y="175.5" ></text>
</g>
<g >
<title>entry_SYSCALL_64_after_hwframe (133,839 samples, 0.02%)</title><rect x="1189.8" y="309" width="0.2" height="15.0" fill="rgb(218,63,15)" rx="2" ry="2" />
<text  x="1192.80" y="319.5" ></text>
</g>
<g >
<title>__folio_alloc (1,306,675 samples, 0.17%)</title><rect x="118.2" y="213" width="1.9" height="15.0" fill="rgb(224,91,21)" rx="2" ry="2" />
<text  x="121.16" y="223.5" ></text>
</g>
<g >
<title>do_user_addr_fault (1,847,429 samples, 0.24%)</title><rect x="1180.9" y="261" width="2.8" height="15.0" fill="rgb(228,108,25)" rx="2" ry="2" />
<text  x="1183.90" y="271.5" ></text>
</g>
<g >
<title>_compound_head (924,141 samples, 0.12%)</title><rect x="1187.0" y="181" width="1.4" height="15.0" fill="rgb(225,94,22)" rx="2" ry="2" />
<text  x="1190.01" y="191.5" ></text>
</g>
<g >
<title>_raw_spin_unlock_irqrestore (923,784 samples, 0.12%)</title><rect x="156.4" y="197" width="1.4" height="15.0" fill="rgb(228,106,25)" rx="2" ry="2" />
<text  x="159.36" y="207.5" ></text>
</g>
<g >
<title>__handle_mm_fault (359,608 samples, 0.05%)</title><rect x="1183.7" y="117" width="0.5" height="15.0" fill="rgb(207,9,2)" rx="2" ry="2" />
<text  x="1186.69" y="127.5" ></text>
</g>
<g >
<title>error_entry (922,995 samples, 0.12%)</title><rect x="161.9" y="309" width="1.4" height="15.0" fill="rgb(240,163,39)" rx="2" ry="2" />
<text  x="164.94" y="319.5" ></text>
</g>
<g >
<title>exc_page_fault (3,696,057 samples, 0.47%)</title><rect x="156.4" y="293" width="5.5" height="15.0" fill="rgb(212,35,8)" rx="2" ry="2" />
<text  x="159.36" y="303.5" ></text>
</g>
<g >
<title>__folio_alloc (1,847,001 samples, 0.24%)</title><rect x="48.7" y="213" width="2.8" height="15.0" fill="rgb(224,91,21)" rx="2" ry="2" />
<text  x="51.67" y="223.5" ></text>
</g>
<g >
<title>handle_mm_fault (923,038 samples, 0.12%)</title><rect x="1188.4" y="261" width="1.4" height="15.0" fill="rgb(234,135,32)" rx="2" ry="2" />
<text  x="1191.41" y="271.5" ></text>
</g>
<g >
<title>get_zeroed_page (359,608 samples, 0.05%)</title><rect x="1183.7" y="85" width="0.5" height="15.0" fill="rgb(208,16,3)" rx="2" ry="2" />
<text  x="1186.69" y="95.5" ></text>
</g>
<g >
<title>DC4_C (5,542,842 samples, 0.71%)</title><rect x="10.0" y="325" width="8.4" height="15.0" fill="rgb(209,18,4)" rx="2" ry="2" />
<text  x="13.00" y="335.5" ></text>
</g>
<g >
<title>SimpleHFilter16_SSE2 (3,692,963 samples, 0.47%)</title><rect x="331.9" y="309" width="5.5" height="15.0" fill="rgb(219,67,16)" rx="2" ry="2" />
<text  x="334.86" y="319.5" ></text>
</g>
<g >
<title>decode_webp_nat (782,404,523 samples, 99.98%)</title><rect x="10.0" y="341" width="1179.8" height="15.0" fill="rgb(218,61,14)" rx="2" ry="2" />
<text  x="13.00" y="351.5" >decode_webp_nat</text>
</g>
<g >
<title>__memset_avx2_unaligned_erms (922,777 samples, 0.12%)</title><rect x="1185.6" y="325" width="1.4" height="15.0" fill="rgb(223,84,20)" rx="2" ry="2" />
<text  x="1188.62" y="335.5" ></text>
</g>
<g >
<title>check_preemption_disabled (923,967 samples, 0.12%)</title><rect x="47.3" y="181" width="1.4" height="15.0" fill="rgb(220,73,17)" rx="2" ry="2" />
<text  x="50.28" y="191.5" ></text>
</g>
<g >
<title>asm_exc_page_fault (3,696,057 samples, 0.47%)</title><rect x="156.4" y="309" width="5.5" height="15.0" fill="rgb(225,93,22)" rx="2" ry="2" />
<text  x="159.36" y="319.5" ></text>
</g>
<g >
<title>get_page_from_freelist (1,847,001 samples, 0.24%)</title><rect x="48.7" y="181" width="2.8" height="15.0" fill="rgb(252,218,52)" rx="2" ry="2" />
<text  x="51.67" y="191.5" ></text>
</g>
<g >
<title>handle_mm_fault (1,306,675 samples, 0.17%)</title><rect x="118.2" y="261" width="1.9" height="15.0" fill="rgb(234,135,32)" rx="2" ry="2" />
<text  x="121.16" y="271.5" ></text>
</g>
<g >
<title>sync_regs (922,995 samples, 0.12%)</title><rect x="161.9" y="293" width="1.4" height="15.0" fill="rgb(228,106,25)" rx="2" ry="2" />
<text  x="164.94" y="303.5" ></text>
</g>
<g >
<title>perf_event_comm (105,981 samples, 0.01%)</title><rect x="1189.8" y="197" width="0.2" height="15.0" fill="rgb(222,82,19)" rx="2" ry="2" />
<text  x="1192.80" y="207.5" ></text>
</g>
<g >
<title>VP8ParseIntraModeRow (89,048,699 samples, 11.38%)</title><rect x="417.5" y="309" width="134.3" height="15.0" fill="rgb(231,121,29)" rx="2" ry="2" />
<text  x="420.53" y="319.5" >VP8ParseIntraMod..</text>
</g>
<g >
<title>FinishRow (922,956 samples, 0.12%)</title><rect x="220.4" y="309" width="1.4" height="15.0" fill="rgb(213,41,9)" rx="2" ry="2" />
<text  x="223.42" y="319.5" ></text>
</g>
<g >
<title>do_group_exit (924,141 samples, 0.12%)</title><rect x="1187.0" y="277" width="1.4" height="15.0" fill="rgb(219,67,16)" rx="2" ry="2" />
<text  x="1190.01" y="287.5" ></text>
</g>
<g >
<title>do_execveat_common.isra.0 (133,839 samples, 0.02%)</title><rect x="1189.8" y="261" width="0.2" height="15.0" fill="rgb(231,123,29)" rx="2" ry="2" />
<text  x="1192.80" y="271.5" ></text>
</g>
<g >
<title>__do_sys_brk (924,112 samples, 0.12%)</title><rect x="1184.2" y="277" width="1.4" height="15.0" fill="rgb(217,58,13)" rx="2" ry="2" />
<text  x="1187.23" y="287.5" ></text>
</g>
<g >
<title>VP8DecodeMB (26,333,309 samples, 3.37%)</title><rect x="377.8" y="309" width="39.7" height="15.0" fill="rgb(208,18,4)" rx="2" ry="2" />
<text  x="380.82" y="319.5" >VP8..</text>
</g>
<g >
<title>unmap_page_range (924,141 samples, 0.12%)</title><rect x="1187.0" y="197" width="1.4" height="15.0" fill="rgb(206,5,1)" rx="2" ry="2" />
<text  x="1190.01" y="207.5" ></text>
</g>
<g >
<title>__x64_sys_openat (470,781 samples, 0.06%)</title><rect x="1180.2" y="261" width="0.7" height="15.0" fill="rgb(251,215,51)" rx="2" ry="2" />
<text  x="1183.19" y="271.5" ></text>
</g>
<g >
<title>__x64_sys_execve (133,839 samples, 0.02%)</title><rect x="1189.8" y="277" width="0.2" height="15.0" fill="rgb(247,193,46)" rx="2" ry="2" />
<text  x="1192.80" y="287.5" ></text>
</g>
<g >
<title>GetCoeffsFast (413,030,841 samples, 52.78%)</title><rect x="551.8" y="293" width="622.8" height="15.0" fill="rgb(219,64,15)" rx="2" ry="2" />
<text  x="554.80" y="303.5" >GetCoeffsFast</text>
</g>
<g >
<title>vma_alloc_folio (1,847,001 samples, 0.24%)</title><rect x="48.7" y="229" width="2.8" height="15.0" fill="rgb(245,187,44)" rx="2" ry="2" />
<text  x="51.67" y="239.5" ></text>
</g>
<g >
<title>exc_page_fault (2,770,968 samples, 0.35%)</title><rect x="47.3" y="293" width="4.2" height="15.0" fill="rgb(212,35,8)" rx="2" ry="2" />
<text  x="50.28" y="303.5" ></text>
</g>
<g >
<title>vma_alloc_folio (923,038 samples, 0.12%)</title><rect x="1188.4" y="229" width="1.4" height="15.0" fill="rgb(245,187,44)" rx="2" ry="2" />
<text  x="1191.41" y="239.5" ></text>
</g>
<g >
<title>clear_page_rep (923,091 samples, 0.12%)</title><rect x="1182.3" y="149" width="1.4" height="15.0" fill="rgb(253,221,52)" rx="2" ry="2" />
<text  x="1185.29" y="159.5" ></text>
</g>
<g >
<title>perf-exec (133,839 samples, 0.02%)</title><rect x="1189.8" y="341" width="0.2" height="15.0" fill="rgb(231,123,29)" rx="2" ry="2" />
<text  x="1192.80" y="351.5" ></text>
</g>
<g >
<title>begin_new_exec (133,839 samples, 0.02%)</title><rect x="1189.8" y="213" width="0.2" height="15.0" fill="rgb(245,184,44)" rx="2" ry="2" />
<text  x="1192.80" y="223.5" ></text>
</g>
<g >
<title>clear_user_rep_good (359,608 samples, 0.05%)</title><rect x="1183.7" y="197" width="0.5" height="15.0" fill="rgb(224,89,21)" rx="2" ry="2" />
<text  x="1186.69" y="207.5" ></text>
</g>
<g >
<title>TransformWHT_C (923,961 samples, 0.12%)</title><rect x="363.9" y="309" width="1.4" height="15.0" fill="rgb(221,76,18)" rx="2" ry="2" />
<text  x="366.89" y="319.5" ></text>
</g>
<g >
<title>VP8DecodeMB (12,014,703 samples, 1.54%)</title><rect x="120.1" y="325" width="18.2" height="15.0" fill="rgb(208,18,4)" rx="2" ry="2" />
<text  x="123.14" y="335.5" ></text>
</g>
<g >
<title>__handle_mm_fault (2,770,968 samples, 0.35%)</title><rect x="47.3" y="245" width="4.2" height="15.0" fill="rgb(207,9,2)" rx="2" ry="2" />
<text  x="50.28" y="255.5" ></text>
</g>
<g >
<title>__alloc_pages (923,091 samples, 0.12%)</title><rect x="1182.3" y="181" width="1.4" height="15.0" fill="rgb(233,129,30)" rx="2" ry="2" />
<text  x="1185.29" y="191.5" ></text>
</g>
<g >
<title>vma_alloc_folio (923,091 samples, 0.12%)</title><rect x="1182.3" y="213" width="1.4" height="15.0" fill="rgb(245,187,44)" rx="2" ry="2" />
<text  x="1185.29" y="223.5" ></text>
</g>
<g >
<title>VP8YuvToRgba32_SSE2 (36,935,119 samples, 4.72%)</title><rect x="163.3" y="325" width="55.7" height="15.0" fill="rgb(214,45,10)" rx="2" ry="2" />
<text  x="166.33" y="335.5" >VP8Yu..</text>
</g>
<g >
<title>__folio_alloc (2,772,273 samples, 0.35%)</title><rect x="157.8" y="213" width="4.1" height="15.0" fill="rgb(224,91,21)" rx="2" ry="2" />
<text  x="160.76" y="223.5" ></text>
</g>
<g >
<title>__alloc_pages (1,847,001 samples, 0.24%)</title><rect x="48.7" y="197" width="2.8" height="15.0" fill="rgb(233,129,30)" rx="2" ry="2" />
<text  x="51.67" y="207.5" ></text>
</g>
<g >
<title>__list_del_entry_valid (604,176 samples, 0.08%)</title><rect x="118.2" y="165" width="0.9" height="15.0" fill="rgb(239,158,37)" rx="2" ry="2" />
<text  x="121.16" y="175.5" ></text>
</g>
<g >
<title>__folio_alloc (923,038 samples, 0.12%)</title><rect x="1188.4" y="213" width="1.4" height="15.0" fill="rgb(224,91,21)" rx="2" ry="2" />
<text  x="1191.41" y="223.5" ></text>
</g>
<g >
<title>asm_exc_page_fault (2,770,968 samples, 0.35%)</title><rect x="47.3" y="309" width="4.2" height="15.0" fill="rgb(225,93,22)" rx="2" ry="2" />
<text  x="50.28" y="319.5" ></text>
</g>
<g >
<title>entry_SYSCALL_64_after_hwframe (924,112 samples, 0.12%)</title><rect x="1184.2" y="309" width="1.4" height="15.0" fill="rgb(218,63,15)" rx="2" ry="2" />
<text  x="1187.23" y="319.5" ></text>
</g>
<g >
<title>asm_exc_page_fault (359,608 samples, 0.05%)</title><rect x="1183.7" y="181" width="0.5" height="15.0" fill="rgb(225,93,22)" rx="2" ry="2" />
<text  x="1186.69" y="191.5" ></text>
</g>
<g >
<title>__alloc_pages (1,306,675 samples, 0.17%)</title><rect x="118.2" y="197" width="1.9" height="15.0" fill="rgb(233,129,30)" rx="2" ry="2" />
<text  x="121.16" y="207.5" ></text>
</g>
<g >
<title>perf_iterate_sb (105,981 samples, 0.01%)</title><rect x="1189.8" y="181" width="0.2" height="15.0" fill="rgb(244,179,42)" rx="2" ry="2" />
<text  x="1192.80" y="191.5" ></text>
</g>
<g >
<title>HE4_C (1,819,703 samples, 0.23%)</title><rect x="33.4" y="325" width="2.7" height="15.0" fill="rgb(220,70,16)" rx="2" ry="2" />
<text  x="36.39" y="335.5" ></text>
</g>
<g >
<title>all (782,538,362 samples, 100%)</title><rect x="10.0" y="357" width="1180.0" height="15.0" fill="rgb(213,39,9)" rx="2" ry="2" />
<text  x="13.00" y="367.5" ></text>
</g>
<g >
<title>folio_batch_move_lru (923,784 samples, 0.12%)</title><rect x="156.4" y="213" width="1.4" height="15.0" fill="rgb(207,10,2)" rx="2" ry="2" />
<text  x="159.36" y="223.5" ></text>
</g>
<g >
<title>get_page_from_freelist (2,772,273 samples, 0.35%)</title><rect x="157.8" y="181" width="4.1" height="15.0" fill="rgb(252,218,52)" rx="2" ry="2" />
<text  x="160.76" y="191.5" ></text>
</g>
<g >
<title>do_syscall_64 (924,141 samples, 0.12%)</title><rect x="1187.0" y="309" width="1.4" height="15.0" fill="rgb(209,20,4)" rx="2" ry="2" />
<text  x="1190.01" y="319.5" ></text>
</g>
<g >
<title>Transform_SSE2 (22,170,033 samples, 2.83%)</title><rect x="69.6" y="325" width="33.4" height="15.0" fill="rgb(233,129,30)" rx="2" ry="2" />
<text  x="72.56" y="335.5" >Tr..</text>
</g>
<g >
<title>do_syscall_64 (359,608 samples, 0.05%)</title><rect x="1183.7" y="293" width="0.5" height="15.0" fill="rgb(209,20,4)" rx="2" ry="2" />
<text  x="1186.69" y="303.5" ></text>
</g>
<g >
<title>handle_mm_fault (3,696,057 samples, 0.47%)</title><rect x="156.4" y="261" width="5.5" height="15.0" fill="rgb(234,135,32)" rx="2" ry="2" />
<text  x="159.36" y="271.5" ></text>
</g>
<g >
<title>__handle_mm_fault (1,847,429 samples, 0.24%)</title><rect x="1180.9" y="229" width="2.8" height="15.0" fill="rgb(207,9,2)" rx="2" ry="2" />
<text  x="1183.90" y="239.5" ></text>
</g>
<g >
<title>SimpleVFilter16_SSE2 (924,230 samples, 0.12%)</title><rect x="337.4" y="309" width="1.4" height="15.0" fill="rgb(229,111,26)" rx="2" ry="2" />
<text  x="340.42" y="319.5" ></text>
</g>
<g >
<title>entry_SYSCALL_64_after_hwframe (924,141 samples, 0.12%)</title><rect x="1187.0" y="325" width="1.4" height="15.0" fill="rgb(218,63,15)" rx="2" ry="2" />
<text  x="1190.01" y="335.5" ></text>
</g>
<g >
<title>get_page_from_freelist (923,038 samples, 0.12%)</title><rect x="1188.4" y="181" width="1.4" height="15.0" fill="rgb(252,218,52)" rx="2" ry="2" />
<text  x="1191.41" y="191.5" ></text>
</g>
<g >
<title>__x64_sys_execve (359,608 samples, 0.05%)</title><rect x="1183.7" y="277" width="0.5" height="15.0" fill="rgb(247,193,46)" rx="2" ry="2" />
<text  x="1186.69" y="287.5" ></text>
</g>
<g >
<title>do_syscall_64 (133,839 samples, 0.02%)</title><rect x="1189.8" y="293" width="0.2" height="15.0" fill="rgb(209,20,4)" rx="2" ry="2" />
<text  x="1192.80" y="303.5" ></text>
</g>
<g >
<title>[unknown] (640,093,615 samples, 81.80%)</title><rect x="219.0" y="325" width="965.2" height="15.0" fill="rgb(210,24,5)" rx="2" ry="2" />
<text  x="222.02" y="335.5" >[unknown]</text>
</g>
<g >
<title>exc_page_fault (359,608 samples, 0.05%)</title><rect x="1183.7" y="165" width="0.5" height="15.0" fill="rgb(212,35,8)" rx="2" ry="2" />
<text  x="1186.69" y="175.5" ></text>
</g>
<g >
<title>do_brk_flags (924,112 samples, 0.12%)</title><rect x="1184.2" y="261" width="1.4" height="15.0" fill="rgb(220,73,17)" rx="2" ry="2" />
<text  x="1187.23" y="271.5" ></text>
</g>
<g >
<title>GetCoeffsFast (9,044,374 samples, 1.16%)</title><rect x="18.4" y="325" width="13.6" height="15.0" fill="rgb(219,64,15)" rx="2" ry="2" />
<text  x="21.36" y="335.5" ></text>
</g>
<g >
<title>unmap_vmas (924,141 samples, 0.12%)</title><rect x="1187.0" y="213" width="1.4" height="15.0" fill="rgb(243,176,42)" rx="2" ry="2" />
<text  x="1190.01" y="223.5" ></text>
</g>
<g >
<title>HU4_C (922,682 samples, 0.12%)</title><rect x="36.1" y="325" width="1.4" height="15.0" fill="rgb(216,54,13)" rx="2" ry="2" />
<text  x="39.13" y="335.5" ></text>
</g>
<g >
<title>clear_page_rep (359,608 samples, 0.05%)</title><rect x="1183.7" y="37" width="0.5" height="15.0" fill="rgb(253,221,52)" rx="2" ry="2" />
<text  x="1186.69" y="47.5" ></text>
</g>
<g >
<title>GetLargeValue (50,808,505 samples, 6.49%)</title><rect x="228.8" y="309" width="76.6" height="15.0" fill="rgb(243,175,42)" rx="2" ry="2" />
<text  x="231.77" y="319.5" >GetLarge..</text>
</g>
<g >
<title>perf_event_comm_output (105,981 samples, 0.01%)</title><rect x="1189.8" y="149" width="0.2" height="15.0" fill="rgb(208,15,3)" rx="2" ry="2" />
<text  x="1192.80" y="159.5" ></text>
</g>
<g >
<title>entry_SYSCALL_64_after_hwframe (359,608 samples, 0.05%)</title><rect x="1183.7" y="309" width="0.5" height="15.0" fill="rgb(218,63,15)" rx="2" ry="2" />
<text  x="1186.69" y="319.5" ></text>
</g>
<g >
<title>get_page_from_freelist (1,306,675 samples, 0.17%)</title><rect x="118.2" y="181" width="1.9" height="15.0" fill="rgb(252,218,52)" rx="2" ry="2" />
<text  x="121.16" y="191.5" ></text>
</g>
<g >
<title>perf_iterate_ctx (924,112 samples, 0.12%)</title><rect x="1184.2" y="213" width="1.4" height="15.0" fill="rgb(205,4,0)" rx="2" ry="2" />
<text  x="1187.23" y="223.5" ></text>
</g>
<g >
<title>TM4_SSE2 (1,847,126 samples, 0.24%)</title><rect x="51.5" y="325" width="2.7" height="15.0" fill="rgb(232,128,30)" rx="2" ry="2" />
<text  x="54.45" y="335.5" ></text>
</g>
<g >
<title>bprm_execve (359,608 samples, 0.05%)</title><rect x="1183.7" y="245" width="0.5" height="15.0" fill="rgb(218,61,14)" rx="2" ry="2" />
<text  x="1186.69" y="255.5" ></text>
</g>
<g >
<title>GetCoeffsFast (4,619,535 samples, 0.59%)</title><rect x="221.8" y="309" width="7.0" height="15.0" fill="rgb(219,64,15)" rx="2" ry="2" />
<text  x="224.81" y="319.5" ></text>
</g>
<g >
<title>RD4_SSE2 (923,561 samples, 0.12%)</title><rect x="38.9" y="325" width="1.4" height="15.0" fill="rgb(253,224,53)" rx="2" ry="2" />
<text  x="41.92" y="335.5" ></text>
</g>
<g >
<title>vma_alloc_folio (1,306,675 samples, 0.17%)</title><rect x="118.2" y="229" width="1.9" height="15.0" fill="rgb(245,187,44)" rx="2" ry="2" />
<text  x="121.16" y="239.5" ></text>
</g>
<g >
<title>perf_iterate_sb (924,112 samples, 0.12%)</title><rect x="1184.2" y="229" width="1.4" height="15.0" fill="rgb(244,179,42)" rx="2" ry="2" />
<text  x="1187.23" y="239.5" ></text>
</g>
<g >
<title>TransformDC_C (12,931,580 samples, 1.65%)</title><rect x="344.4" y="309" width="19.5" height="15.0" fill="rgb(219,65,15)" rx="2" ry="2" />
<text  x="347.39" y="319.5" ></text>
</g>
<g >
<title>exc_page_fault (1,306,675 samples, 0.17%)</title><rect x="118.2" y="293" width="1.9" height="15.0" fill="rgb(212,35,8)" rx="2" ry="2" />
<text  x="121.16" y="303.5" ></text>
</g>
<g >
<title>sysmalloc (923,038 samples, 0.12%)</title><rect x="1188.4" y="325" width="1.4" height="15.0" fill="rgb(213,38,9)" rx="2" ry="2" />
<text  x="1191.41" y="335.5" ></text>
</g>
<g >
<title>load_elf_binary (133,839 samples, 0.02%)</title><rect x="1189.8" y="229" width="0.2" height="15.0" fill="rgb(223,83,20)" rx="2" ry="2" />
<text  x="1192.80" y="239.5" ></text>
</g>
<g >
<title>__x64_sys_exit_group (924,141 samples, 0.12%)</title><rect x="1187.0" y="293" width="1.4" height="15.0" fill="rgb(214,42,10)" rx="2" ry="2" />
<text  x="1190.01" y="303.5" ></text>
</g>
<g >
<title>do_execveat_common.isra.0 (359,608 samples, 0.05%)</title><rect x="1183.7" y="261" width="0.5" height="15.0" fill="rgb(231,123,29)" rx="2" ry="2" />
<text  x="1186.69" y="271.5" ></text>
</g>
<g >
<title>clear_page_rep (1,847,001 samples, 0.24%)</title><rect x="48.7" y="165" width="2.8" height="15.0" fill="rgb(253,221,52)" rx="2" ry="2" />
<text  x="51.67" y="175.5" ></text>
</g>
<g >
<title>__brk (924,112 samples, 0.12%)</title><rect x="1184.2" y="325" width="1.4" height="15.0" fill="rgb(225,94,22)" rx="2" ry="2" />
<text  x="1187.23" y="335.5" ></text>
</g>
<g >
<title>vma_alloc_folio (2,772,273 samples, 0.35%)</title><rect x="157.8" y="229" width="4.1" height="15.0" fill="rgb(245,187,44)" rx="2" ry="2" />
<text  x="160.76" y="239.5" ></text>
</g>
<g >
<title>clear_page_rep (923,038 samples, 0.12%)</title><rect x="1188.4" y="165" width="1.4" height="15.0" fill="rgb(253,221,52)" rx="2" ry="2" />
<text  x="1191.41" y="175.5" ></text>
</g>
</g>
</svg>
