<?xml version="1.0" standalone="no"?>
<!DOCTYPE svg PUBLIC "-//W3C//DTD SVG 1.1//EN" "http://www.w3.org/Graphics/SVG/1.1/DTD/svg11.dtd">
<svg version="1.1" width="1200" height="310" onload="init(evt)" viewBox="0 0 1200 310" xmlns="http://www.w3.org/2000/svg" xmlns:xlink="http://www.w3.org/1999/xlink">
<!-- Flame graph stack visualization. See https://github.com/brendangregg/FlameGraph for latest version, and http://www.brendangregg.com/flamegraphs.html for examples. -->
<!-- NOTES:  -->
<defs>
	<linearGradient id="background" y1="0" y2="1" x1="0" x2="0" >
		<stop stop-color="#eeeeee" offset="5%" />
		<stop stop-color="#eeeeb0" offset="95%" />
	</linearGradient>
</defs>
<style type="text/css">
	text { font-family:Verdana; font-size:12px; fill:rgb(0,0,0); }
	#search, #ignorecase { opacity:0.1; cursor:pointer; }
	#search:hover, #search.show, #ignorecase:hover, #ignorecase.show { opacity:1; }
	#subtitle { text-anchor:middle; font-color:rgb(160,160,160); }
	#title { text-anchor:middle; font-size:17px}
	#unzoom { cursor:pointer; }
	#frames > *:hover { stroke:black; stroke-width:0.5; cursor:pointer; }
	.hide { display:none; }
	.parent { opacity:0.5; }
</style>
<script type="text/ecmascript">
<![CDATA[
	"use strict";
	var details, searchbtn, unzoombtn, matchedtxt, svg, searching, currentSearchTerm, ignorecase, ignorecaseBtn;
	function init(evt) {
		details = document.getElementById("details").firstChild;
		searchbtn = document.getElementById("search");
		ignorecaseBtn = document.getElementById("ignorecase");
		unzoombtn = document.getElementById("unzoom");
		matchedtxt = document.getElementById("matched");
		svg = document.getElementsByTagName("svg")[0];
		searching = 0;
		currentSearchTerm = null;

		// use GET parameters to restore a flamegraphs state.
		var params = get_params();
		if (params.x && params.y)
			zoom(find_group(document.querySelector('[x="' + params.x + '"][y="' + params.y + '"]')));
                if (params.s) search(params.s);
	}

	// event listeners
	window.addEventListener("click", function(e) {
		var target = find_group(e.target);
		if (target) {
			if (target.nodeName == "a") {
				if (e.ctrlKey === false) return;
				e.preventDefault();
			}
			if (target.classList.contains("parent")) unzoom(true);
			zoom(target);
			if (!document.querySelector('.parent')) {
				// we have basically done a clearzoom so clear the url
				var params = get_params();
				if (params.x) delete params.x;
				if (params.y) delete params.y;
				history.replaceState(null, null, parse_params(params));
				unzoombtn.classList.add("hide");
				return;
			}

			// set parameters for zoom state
			var el = target.querySelector("rect");
			if (el && el.attributes && el.attributes.y && el.attributes._orig_x) {
				var params = get_params()
				params.x = el.attributes._orig_x.value;
				params.y = el.attributes.y.value;
				history.replaceState(null, null, parse_params(params));
			}
		}
		else if (e.target.id == "unzoom") clearzoom();
		else if (e.target.id == "search") search_prompt();
		else if (e.target.id == "ignorecase") toggle_ignorecase();
	}, false)

	// mouse-over for info
	// show
	window.addEventListener("mouseover", function(e) {
		var target = find_group(e.target);
		if (target) details.nodeValue = "Function: " + g_to_text(target);
	}, false)

	// clear
	window.addEventListener("mouseout", function(e) {
		var target = find_group(e.target);
		if (target) details.nodeValue = ' ';
	}, false)

	// ctrl-F for search
	// ctrl-I to toggle case-sensitive search
	window.addEventListener("keydown",function (e) {
		if (e.keyCode === 114 || (e.ctrlKey && e.keyCode === 70)) {
			e.preventDefault();
			search_prompt();
		}
		else if (e.ctrlKey && e.keyCode === 73) {
			e.preventDefault();
			toggle_ignorecase();
		}
	}, false)

	// functions
	function get_params() {
		var params = {};
		var paramsarr = window.location.search.substr(1).split('&');
		for (var i = 0; i < paramsarr.length; ++i) {
			var tmp = paramsarr[i].split("=");
			if (!tmp[0] || !tmp[1]) continue;
			params[tmp[0]]  = decodeURIComponent(tmp[1]);
		}
		return params;
	}
	function parse_params(params) {
		var uri = "?";
		for (var key in params) {
			uri += key + '=' + encodeURIComponent(params[key]) + '&';
		}
		if (uri.slice(-1) == "&")
			uri = uri.substring(0, uri.length - 1);
		if (uri == '?')
			uri = window.location.href.split('?')[0];
		return uri;
	}
	function find_child(node, selector) {
		var children = node.querySelectorAll(selector);
		if (children.length) return children[0];
	}
	function find_group(node) {
		var parent = node.parentElement;
		if (!parent) return;
		if (parent.id == "frames") return node;
		return find_group(parent);
	}
	function orig_save(e, attr, val) {
		if (e.attributes["_orig_" + attr] != undefined) return;
		if (e.attributes[attr] == undefined) return;
		if (val == undefined) val = e.attributes[attr].value;
		e.setAttribute("_orig_" + attr, val);
	}
	function orig_load(e, attr) {
		if (e.attributes["_orig_"+attr] == undefined) return;
		e.attributes[attr].value = e.attributes["_orig_" + attr].value;
		e.removeAttribute("_orig_"+attr);
	}
	function g_to_text(e) {
		var text = find_child(e, "title").firstChild.nodeValue;
		return (text)
	}
	function g_to_func(e) {
		var func = g_to_text(e);
		// if there's any manipulation we want to do to the function
		// name before it's searched, do it here before returning.
		return (func);
	}
	function update_text(e) {
		var r = find_child(e, "rect");
		var t = find_child(e, "text");
		var w = parseFloat(r.attributes.width.value) -3;
		var txt = find_child(e, "title").textContent.replace(/\([^(]*\)$/,"");
		t.attributes.x.value = parseFloat(r.attributes.x.value) + 3;

		// Smaller than this size won't fit anything
		if (w < 2 * 12 * 0.59) {
			t.textContent = "";
			return;
		}

		t.textContent = txt;
		var sl = t.getSubStringLength(0, txt.length);
		// check if only whitespace or if we can fit the entire string into width w
		if (/^ *$/.test(txt) || sl < w)
			return;

		// this isn't perfect, but gives a good starting point
		// and avoids calling getSubStringLength too often
		var start = Math.floor((w/sl) * txt.length);
		for (var x = start; x > 0; x = x-2) {
			if (t.getSubStringLength(0, x + 2) <= w) {
				t.textContent = txt.substring(0, x) + "..";
				return;
			}
		}
		t.textContent = "";
	}

	// zoom
	function zoom_reset(e) {
		if (e.attributes != undefined) {
			orig_load(e, "x");
			orig_load(e, "width");
		}
		if (e.childNodes == undefined) return;
		for (var i = 0, c = e.childNodes; i < c.length; i++) {
			zoom_reset(c[i]);
		}
	}
	function zoom_child(e, x, ratio) {
		if (e.attributes != undefined) {
			if (e.attributes.x != undefined) {
				orig_save(e, "x");
				e.attributes.x.value = (parseFloat(e.attributes.x.value) - x - 10) * ratio + 10;
				if (e.tagName == "text")
					e.attributes.x.value = find_child(e.parentNode, "rect[x]").attributes.x.value + 3;
			}
			if (e.attributes.width != undefined) {
				orig_save(e, "width");
				e.attributes.width.value = parseFloat(e.attributes.width.value) * ratio;
			}
		}

		if (e.childNodes == undefined) return;
		for (var i = 0, c = e.childNodes; i < c.length; i++) {
			zoom_child(c[i], x - 10, ratio);
		}
	}
	function zoom_parent(e) {
		if (e.attributes) {
			if (e.attributes.x != undefined) {
				orig_save(e, "x");
				e.attributes.x.value = 10;
			}
			if (e.attributes.width != undefined) {
				orig_save(e, "width");
				e.attributes.width.value = parseInt(svg.width.baseVal.value) - (10 * 2);
			}
		}
		if (e.childNodes == undefined) return;
		for (var i = 0, c = e.childNodes; i < c.length; i++) {
			zoom_parent(c[i]);
		}
	}
	function zoom(node) {
		var attr = find_child(node, "rect").attributes;
		var width = parseFloat(attr.width.value);
		var xmin = parseFloat(attr.x.value);
		var xmax = parseFloat(xmin + width);
		var ymin = parseFloat(attr.y.value);
		var ratio = (svg.width.baseVal.value - 2 * 10) / width;

		// XXX: Workaround for JavaScript float issues (fix me)
		var fudge = 0.0001;

		unzoombtn.classList.remove("hide");

		var el = document.getElementById("frames").children;
		for (var i = 0; i < el.length; i++) {
			var e = el[i];
			var a = find_child(e, "rect").attributes;
			var ex = parseFloat(a.x.value);
			var ew = parseFloat(a.width.value);
			var upstack;
			// Is it an ancestor
			if (0 == 0) {
				upstack = parseFloat(a.y.value) > ymin;
			} else {
				upstack = parseFloat(a.y.value) < ymin;
			}
			if (upstack) {
				// Direct ancestor
				if (ex <= xmin && (ex+ew+fudge) >= xmax) {
					e.classList.add("parent");
					zoom_parent(e);
					update_text(e);
				}
				// not in current path
				else
					e.classList.add("hide");
			}
			// Children maybe
			else {
				// no common path
				if (ex < xmin || ex + fudge >= xmax) {
					e.classList.add("hide");
				}
				else {
					zoom_child(e, xmin, ratio);
					update_text(e);
				}
			}
		}
		search();
	}
	function unzoom(dont_update_text) {
		unzoombtn.classList.add("hide");
		var el = document.getElementById("frames").children;
		for(var i = 0; i < el.length; i++) {
			el[i].classList.remove("parent");
			el[i].classList.remove("hide");
			zoom_reset(el[i]);
			if(!dont_update_text) update_text(el[i]);
		}
		search();
	}
	function clearzoom() {
		unzoom();

		// remove zoom state
		var params = get_params();
		if (params.x) delete params.x;
		if (params.y) delete params.y;
		history.replaceState(null, null, parse_params(params));
	}

	// search
	function toggle_ignorecase() {
		ignorecase = !ignorecase;
		if (ignorecase) {
			ignorecaseBtn.classList.add("show");
		} else {
			ignorecaseBtn.classList.remove("show");
		}
		reset_search();
		search();
	}
	function reset_search() {
		var el = document.querySelectorAll("#frames rect");
		for (var i = 0; i < el.length; i++) {
			orig_load(el[i], "fill")
		}
		var params = get_params();
		delete params.s;
		history.replaceState(null, null, parse_params(params));
	}
	function search_prompt() {
		if (!searching) {
			var term = prompt("Enter a search term (regexp " +
			    "allowed, eg: ^ext4_)"
			    + (ignorecase ? ", ignoring case" : "")
			    + "\nPress Ctrl-i to toggle case sensitivity", "");
			if (term != null) search(term);
		} else {
			reset_search();
			searching = 0;
			currentSearchTerm = null;
			searchbtn.classList.remove("show");
			searchbtn.firstChild.nodeValue = "Search"
			matchedtxt.classList.add("hide");
			matchedtxt.firstChild.nodeValue = ""
		}
	}
	function search(term) {
		if (term) currentSearchTerm = term;

		var re = new RegExp(currentSearchTerm, ignorecase ? 'i' : '');
		var el = document.getElementById("frames").children;
		var matches = new Object();
		var maxwidth = 0;
		for (var i = 0; i < el.length; i++) {
			var e = el[i];
			var func = g_to_func(e);
			var rect = find_child(e, "rect");
			if (func == null || rect == null)
				continue;

			// Save max width. Only works as we have a root frame
			var w = parseFloat(rect.attributes.width.value);
			if (w > maxwidth)
				maxwidth = w;

			if (func.match(re)) {
				// highlight
				var x = parseFloat(rect.attributes.x.value);
				orig_save(rect, "fill");
				rect.attributes.fill.value = "rgb(230,0,230)";

				// remember matches
				if (matches[x] == undefined) {
					matches[x] = w;
				} else {
					if (w > matches[x]) {
						// overwrite with parent
						matches[x] = w;
					}
				}
				searching = 1;
			}
		}
		if (!searching)
			return;
		var params = get_params();
		params.s = currentSearchTerm;
		history.replaceState(null, null, parse_params(params));

		searchbtn.classList.add("show");
		searchbtn.firstChild.nodeValue = "Reset Search";

		// calculate percent matched, excluding vertical overlap
		var count = 0;
		var lastx = -1;
		var lastw = 0;
		var keys = Array();
		for (k in matches) {
			if (matches.hasOwnProperty(k))
				keys.push(k);
		}
		// sort the matched frames by their x location
		// ascending, then width descending
		keys.sort(function(a, b){
			return a - b;
		});
		// Step through frames saving only the biggest bottom-up frames
		// thanks to the sort order. This relies on the tree property
		// where children are always smaller than their parents.
		var fudge = 0.0001;	// JavaScript floating point
		for (var k in keys) {
			var x = parseFloat(keys[k]);
			var w = matches[keys[k]];
			if (x >= lastx + lastw - fudge) {
				count += w;
				lastx = x;
				lastw = w;
			}
		}
		// display matched percent
		matchedtxt.classList.remove("hide");
		var pct = 100 * count / maxwidth;
		if (pct != 100) pct = pct.toFixed(1)
		matchedtxt.firstChild.nodeValue = "Matched: " + pct + "%";
	}
]]>
</script>
<rect x="0.0" y="0" width="1200.0" height="310.0" fill="url(#background)"  />
<text id="title" x="600.00" y="24" >Flame Graph</text>
<text id="details" x="10.00" y="293" > </text>
<text id="unzoom" x="10.00" y="24" class="hide">Reset Zoom</text>
<text id="search" x="1090.00" y="24" >Search</text>
<text id="ignorecase" x="1174.00" y="24" >ic</text>
<text id="matched" x="1090.00" y="293" > </text>
<g id="frames">
<g >
<title>do_execveat_common.isra.0 (476,815 samples, 0.04%)</title><rect x="1186.7" y="165" width="0.5" height="15.0" fill="rgb(231,123,29)" rx="2" ry="2" />
<text  x="1189.67" y="175.5" ></text>
</g>
<g >
<title>decode_webp_nat (1,162,124,117 samples, 100.00%)</title><rect x="10.0" y="245" width="1180.0" height="15.0" fill="rgb(218,61,14)" rx="2" ry="2" />
<text  x="13.00" y="255.5" >decode_webp_nat</text>
</g>
<g >
<title>TransformDC_C (12,933,261 samples, 1.11%)</title><rect x="495.0" y="213" width="13.1" height="15.0" fill="rgb(219,65,15)" rx="2" ry="2" />
<text  x="497.98" y="223.5" ></text>
</g>
<g >
<title>VP8ParseIntraModeRow (92,224,466 samples, 7.94%)</title><rect x="654.2" y="213" width="93.7" height="15.0" fill="rgb(231,121,29)" rx="2" ry="2" />
<text  x="657.22" y="223.5" >VP8ParseInt..</text>
</g>
<g >
<title>TransformTwo_C (924,372 samples, 0.08%)</title><rect x="625.0" y="213" width="0.9" height="15.0" fill="rgb(212,36,8)" rx="2" ry="2" />
<text  x="627.97" y="223.5" ></text>
</g>
<g >
<title>VP8ParseProba (924,219 samples, 0.08%)</title><rect x="400.5" y="229" width="0.9" height="15.0" fill="rgb(224,88,21)" rx="2" ry="2" />
<text  x="403.47" y="239.5" ></text>
</g>
<g >
<title>entry_SYSCALL_64_after_hwframe (923,827 samples, 0.08%)</title><rect x="1187.2" y="213" width="0.9" height="15.0" fill="rgb(218,63,15)" rx="2" ry="2" />
<text  x="1190.16" y="223.5" ></text>
</g>
<g >
<title>VP8DecodeMB (14,702,201 samples, 1.27%)</title><rect x="373.4" y="229" width="14.9" height="15.0" fill="rgb(208,18,4)" rx="2" ry="2" />
<text  x="376.35" y="239.5" ></text>
</g>
<g >
<title>TM4_C (3,695,344 samples, 0.32%)</title><rect x="55.5" y="229" width="3.7" height="15.0" fill="rgb(241,165,39)" rx="2" ry="2" />
<text  x="58.46" y="239.5" ></text>
</g>
<g >
<title>free_pcppages_bulk (923,842 samples, 0.08%)</title><rect x="1188.1" y="53" width="0.9" height="15.0" fill="rgb(210,26,6)" rx="2" ry="2" />
<text  x="1191.09" y="63.5" ></text>
</g>
<g >
<title>__folio_alloc (1,847,022 samples, 0.16%)</title><rect x="398.6" y="117" width="1.9" height="15.0" fill="rgb(224,91,21)" rx="2" ry="2" />
<text  x="401.59" y="127.5" ></text>
</g>
<g >
<title>load_elf_binary (476,815 samples, 0.04%)</title><rect x="1186.7" y="133" width="0.5" height="15.0" fill="rgb(223,83,20)" rx="2" ry="2" />
<text  x="1189.67" y="143.5" ></text>
</g>
<g >
<title>get_mem_cgroup_from_mm (924,168 samples, 0.08%)</title><rect x="1185.7" y="101" width="1.0" height="15.0" fill="rgb(218,61,14)" rx="2" ry="2" />
<text  x="1188.73" y="111.5" ></text>
</g>
<g >
<title>__handle_mm_fault (2,770,790 samples, 0.24%)</title><rect x="397.7" y="149" width="2.8" height="15.0" fill="rgb(207,9,2)" rx="2" ry="2" />
<text  x="400.66" y="159.5" ></text>
</g>
<g >
<title>clear_user_rep_good (360,676 samples, 0.03%)</title><rect x="1186.8" y="101" width="0.4" height="15.0" fill="rgb(224,89,21)" rx="2" ry="2" />
<text  x="1189.79" y="111.5" ></text>
</g>
<g >
<title>__handle_mm_fault (924,258 samples, 0.08%)</title><rect x="40.9" y="149" width="1.0" height="15.0" fill="rgb(207,9,2)" rx="2" ry="2" />
<text  x="43.95" y="159.5" ></text>
</g>
<g >
<title>GetCoeffsFast (426,162,587 samples, 36.67%)</title><rect x="747.9" y="197" width="432.7" height="15.0" fill="rgb(219,64,15)" rx="2" ry="2" />
<text  x="750.87" y="207.5" >GetCoeffsFast</text>
</g>
<g >
<title>all (1,162,154,021 samples, 100%)</title><rect x="10.0" y="261" width="1180.0" height="15.0" fill="rgb(213,39,9)" rx="2" ry="2" />
<text  x="13.00" y="271.5" ></text>
</g>
<g >
<title>LD4_C (1,847,291 samples, 0.16%)</title><rect x="31.6" y="229" width="1.8" height="15.0" fill="rgb(250,211,50)" rx="2" ry="2" />
<text  x="34.57" y="239.5" ></text>
</g>
<g >
<title>__libc_start_main_impl (460,801 samples, 0.04%)</title><rect x="1183.4" y="197" width="0.5" height="15.0" fill="rgb(218,63,15)" rx="2" ry="2" />
<text  x="1186.39" y="207.5" ></text>
</g>
<g >
<title>UpsampleRgbaLinePair_C (295,090,549 samples, 25.39%)</title><rect x="71.9" y="229" width="299.6" height="15.0" fill="rgb(252,216,51)" rx="2" ry="2" />
<text  x="74.85" y="239.5" >UpsampleRgbaLinePair_C</text>
</g>
<g >
<title>UpsampleRgbaLinePair_C (3,694,043 samples, 0.32%)</title><rect x="626.8" y="213" width="3.8" height="15.0" fill="rgb(252,216,51)" rx="2" ry="2" />
<text  x="629.85" y="223.5" ></text>
</g>
<g >
<title>__do_global_dtors_aux (460,801 samples, 0.04%)</title><rect x="1183.4" y="213" width="0.5" height="15.0" fill="rgb(245,185,44)" rx="2" ry="2" />
<text  x="1186.39" y="223.5" ></text>
</g>
<g >
<title>SimpleVFilter16i_C (923,688 samples, 0.08%)</title><rect x="54.5" y="229" width="1.0" height="15.0" fill="rgb(209,19,4)" rx="2" ry="2" />
<text  x="57.52" y="239.5" ></text>
</g>
<g >
<title>__list_del_entry_valid (923,842 samples, 0.08%)</title><rect x="1188.1" y="37" width="0.9" height="15.0" fill="rgb(239,158,37)" rx="2" ry="2" />
<text  x="1191.09" y="47.5" ></text>
</g>
<g >
<title>do_syscall_64 (476,815 samples, 0.04%)</title><rect x="1186.7" y="197" width="0.5" height="15.0" fill="rgb(209,20,4)" rx="2" ry="2" />
<text  x="1189.67" y="207.5" ></text>
</g>
<g >
<title>VE8uv_C (829,422 samples, 0.07%)</title><rect x="630.6" y="213" width="0.8" height="15.0" fill="rgb(235,142,34)" rx="2" ry="2" />
<text  x="633.60" y="223.5" ></text>
</g>
<g >
<title>[unknown] (428,938,564 samples, 36.91%)</title><rect x="747.9" y="213" width="435.5" height="15.0" fill="rgb(210,24,5)" rx="2" ry="2" />
<text  x="750.87" y="223.5" >[unknown]</text>
</g>
<g >
<title>__mem_cgroup_charge (924,168 samples, 0.08%)</title><rect x="1185.7" y="117" width="1.0" height="15.0" fill="rgb(218,60,14)" rx="2" ry="2" />
<text  x="1188.73" y="127.5" ></text>
</g>
<g >
<title>asm_exc_page_fault (924,258 samples, 0.08%)</title><rect x="40.9" y="213" width="1.0" height="15.0" fill="rgb(225,93,22)" rx="2" ry="2" />
<text  x="43.95" y="223.5" ></text>
</g>
<g >
<title>perf_iterate_ctx (923,827 samples, 0.08%)</title><rect x="1187.2" y="117" width="0.9" height="15.0" fill="rgb(205,4,0)" rx="2" ry="2" />
<text  x="1190.16" y="127.5" ></text>
</g>
<g >
<title>__x64_sys_exit_group (1,847,757 samples, 0.16%)</title><rect x="1188.1" y="197" width="1.9" height="15.0" fill="rgb(214,42,10)" rx="2" ry="2" />
<text  x="1191.09" y="207.5" ></text>
</g>
<g >
<title>VP8InitBitReader (925,447 samples, 0.08%)</title><rect x="389.2" y="229" width="1.0" height="15.0" fill="rgb(222,78,18)" rx="2" ry="2" />
<text  x="392.21" y="239.5" ></text>
</g>
<g >
<title>do_syscall_64 (1,847,757 samples, 0.16%)</title><rect x="1188.1" y="213" width="1.9" height="15.0" fill="rgb(209,20,4)" rx="2" ry="2" />
<text  x="1191.09" y="223.5" ></text>
</g>
<g >
<title>handle_mm_fault (924,168 samples, 0.08%)</title><rect x="1185.7" y="149" width="1.0" height="15.0" fill="rgb(234,135,32)" rx="2" ry="2" />
<text  x="1188.73" y="159.5" ></text>
</g>
<g >
<title>entry_SYSCALL_64_after_hwframe (476,815 samples, 0.04%)</title><rect x="1186.7" y="213" width="0.5" height="15.0" fill="rgb(218,63,15)" rx="2" ry="2" />
<text  x="1189.67" y="223.5" ></text>
</g>
<g >
<title>do_user_addr_fault (2,770,790 samples, 0.24%)</title><rect x="397.7" y="181" width="2.8" height="15.0" fill="rgb(228,108,25)" rx="2" ry="2" />
<text  x="400.66" y="191.5" ></text>
</g>
<g >
<title>do_user_addr_fault (924,168 samples, 0.08%)</title><rect x="1185.7" y="165" width="1.0" height="15.0" fill="rgb(228,108,25)" rx="2" ry="2" />
<text  x="1188.73" y="175.5" ></text>
</g>
<g >
<title>HE4_C (1,847,430 samples, 0.16%)</title><rect x="25.9" y="229" width="1.9" height="15.0" fill="rgb(220,70,16)" rx="2" ry="2" />
<text  x="28.94" y="239.5" ></text>
</g>
<g >
<title>GetLargeValue (52,488,937 samples, 4.52%)</title><rect x="411.7" y="213" width="53.3" height="15.0" fill="rgb(243,175,42)" rx="2" ry="2" />
<text  x="414.67" y="223.5" >GetLa..</text>
</g>
<g >
<title>bprm_execve (476,815 samples, 0.04%)</title><rect x="1186.7" y="149" width="0.5" height="15.0" fill="rgb(218,61,14)" rx="2" ry="2" />
<text  x="1189.67" y="159.5" ></text>
</g>
<g >
<title>release_pages (923,842 samples, 0.08%)</title><rect x="1188.1" y="85" width="0.9" height="15.0" fill="rgb(228,106,25)" rx="2" ry="2" />
<text  x="1191.09" y="95.5" ></text>
</g>
<g >
<title>_int_malloc (1,846,685 samples, 0.16%)</title><rect x="1184.8" y="213" width="1.9" height="15.0" fill="rgb(215,47,11)" rx="2" ry="2" />
<text  x="1187.80" y="223.5" ></text>
</g>
<g >
<title>_compound_head (923,768 samples, 0.08%)</title><rect x="397.7" y="133" width="0.9" height="15.0" fill="rgb(225,94,22)" rx="2" ry="2" />
<text  x="400.66" y="143.5" ></text>
</g>
<g >
<title>begin_new_exec (116,139 samples, 0.01%)</title><rect x="1186.7" y="117" width="0.1" height="15.0" fill="rgb(245,184,44)" rx="2" ry="2" />
<text  x="1189.67" y="127.5" ></text>
</g>
<g >
<title>tlb_finish_mmu (923,842 samples, 0.08%)</title><rect x="1188.1" y="117" width="0.9" height="15.0" fill="rgb(251,212,50)" rx="2" ry="2" />
<text  x="1191.09" y="127.5" ></text>
</g>
<g >
<title>perf_iterate_sb (923,827 samples, 0.08%)</title><rect x="1187.2" y="133" width="0.9" height="15.0" fill="rgb(244,179,42)" rx="2" ry="2" />
<text  x="1190.16" y="143.5" ></text>
</g>
<g >
<title>__memmove_avx_unaligned_erms (923,789 samples, 0.08%)</title><rect x="1183.9" y="213" width="0.9" height="15.0" fill="rgb(205,0,0)" rx="2" ry="2" />
<text  x="1186.86" y="223.5" ></text>
</g>
<g >
<title>SimpleVFilter16_C (11,521,152 samples, 0.99%)</title><rect x="42.8" y="229" width="11.7" height="15.0" fill="rgb(237,149,35)" rx="2" ry="2" />
<text  x="45.83" y="239.5" ></text>
</g>
<g >
<title>IDecode (920,837 samples, 0.08%)</title><rect x="465.9" y="213" width="0.9" height="15.0" fill="rgb(245,185,44)" rx="2" ry="2" />
<text  x="468.90" y="223.5" ></text>
</g>
<g >
<title>page_remove_rmap (923,915 samples, 0.08%)</title><rect x="1189.0" y="85" width="1.0" height="15.0" fill="rgb(252,219,52)" rx="2" ry="2" />
<text  x="1192.03" y="95.5" ></text>
</g>
<g >
<title>VP8GetValue (922,655 samples, 0.08%)</title><rect x="388.3" y="229" width="0.9" height="15.0" fill="rgb(230,119,28)" rx="2" ry="2" />
<text  x="391.28" y="239.5" ></text>
</g>
<g >
<title>GetCoeffsFast (2,713,817 samples, 0.23%)</title><rect x="408.9" y="213" width="2.8" height="15.0" fill="rgb(219,64,15)" rx="2" ry="2" />
<text  x="411.91" y="223.5" ></text>
</g>
<g >
<title>__alloc_pages (1,847,022 samples, 0.16%)</title><rect x="398.6" y="101" width="1.9" height="15.0" fill="rgb(233,129,30)" rx="2" ry="2" />
<text  x="401.59" y="111.5" ></text>
</g>
<g >
<title>RD4_C (2,771,901 samples, 0.24%)</title><rect x="33.4" y="229" width="2.9" height="15.0" fill="rgb(212,32,7)" rx="2" ry="2" />
<text  x="36.45" y="239.5" ></text>
</g>
<g >
<title>VP8ParseIntraModeRow (10,159,756 samples, 0.87%)</title><rect x="390.2" y="229" width="10.3" height="15.0" fill="rgb(231,121,29)" rx="2" ry="2" />
<text  x="393.15" y="239.5" ></text>
</g>
<g >
<title>handle_mm_fault (360,676 samples, 0.03%)</title><rect x="1186.8" y="37" width="0.4" height="15.0" fill="rgb(234,135,32)" rx="2" ry="2" />
<text  x="1189.79" y="47.5" ></text>
</g>
<g >
<title>do_user_addr_fault (360,676 samples, 0.03%)</title><rect x="1186.8" y="53" width="0.4" height="15.0" fill="rgb(228,108,25)" rx="2" ry="2" />
<text  x="1189.79" y="63.5" ></text>
</g>
<g >
<title>GetLargeValue (2,775,977 samples, 0.24%)</title><rect x="1180.6" y="197" width="2.8" height="15.0" fill="rgb(243,175,42)" rx="2" ry="2" />
<text  x="1183.57" y="207.5" ></text>
</g>
<g >
<title>__x64_sys_execve (476,815 samples, 0.04%)</title><rect x="1186.7" y="181" width="0.5" height="15.0" fill="rgb(247,193,46)" rx="2" ry="2" />
<text  x="1189.67" y="191.5" ></text>
</g>
<g >
<title>tlb_batch_pages_flush (923,842 samples, 0.08%)</title><rect x="1188.1" y="101" width="0.9" height="15.0" fill="rgb(234,133,32)" rx="2" ry="2" />
<text  x="1191.09" y="111.5" ></text>
</g>
<g >
<title>SimpleHFilter16_C (10,162,080 samples, 0.87%)</title><rect x="480.0" y="213" width="10.3" height="15.0" fill="rgb(227,105,25)" rx="2" ry="2" />
<text  x="482.97" y="223.5" ></text>
</g>
<g >
<title>DC8uv_C (2,772,434 samples, 0.24%)</title><rect x="406.1" y="213" width="2.8" height="15.0" fill="rgb(215,46,11)" rx="2" ry="2" />
<text  x="409.10" y="223.5" ></text>
</g>
<g >
<title>TransformAC3_C (1,847,378 samples, 0.16%)</title><rect x="492.2" y="213" width="1.8" height="15.0" fill="rgb(209,19,4)" rx="2" ry="2" />
<text  x="495.16" y="223.5" ></text>
</g>
<g >
<title>HE8uv_C (923,711 samples, 0.08%)</title><rect x="465.0" y="213" width="0.9" height="15.0" fill="rgb(226,98,23)" rx="2" ry="2" />
<text  x="467.96" y="223.5" ></text>
</g>
<g >
<title>__mmput (1,847,757 samples, 0.16%)</title><rect x="1188.1" y="149" width="1.9" height="15.0" fill="rgb(249,203,48)" rx="2" ry="2" />
<text  x="1191.09" y="159.5" ></text>
</g>
<g >
<title>handle_mm_fault (2,770,790 samples, 0.24%)</title><rect x="397.7" y="165" width="2.8" height="15.0" fill="rgb(234,135,32)" rx="2" ry="2" />
<text  x="400.66" y="175.5" ></text>
</g>
<g >
<title>VE4_C (1,848,125 samples, 0.16%)</title><rect x="371.5" y="229" width="1.9" height="15.0" fill="rgb(229,114,27)" rx="2" ry="2" />
<text  x="374.47" y="239.5" ></text>
</g>
<g >
<title>clear_page_rep (924,074 samples, 0.08%)</title><rect x="398.6" y="69" width="0.9" height="15.0" fill="rgb(253,221,52)" rx="2" ry="2" />
<text  x="401.59" y="79.5" ></text>
</g>
<g >
<title>do_exit (1,847,757 samples, 0.16%)</title><rect x="1188.1" y="165" width="1.9" height="15.0" fill="rgb(231,122,29)" rx="2" ry="2" />
<text  x="1191.09" y="175.5" ></text>
</g>
<g >
<title>do_syscall_64 (923,827 samples, 0.08%)</title><rect x="1187.2" y="197" width="0.9" height="15.0" fill="rgb(209,20,4)" rx="2" ry="2" />
<text  x="1190.16" y="207.5" ></text>
</g>
<g >
<title>TransformWHT_C (924,362 samples, 0.08%)</title><rect x="625.9" y="213" width="0.9" height="15.0" fill="rgb(221,76,18)" rx="2" ry="2" />
<text  x="628.91" y="223.5" ></text>
</g>
<g >
<title>TM16_C (1,848,090 samples, 0.16%)</title><rect x="490.3" y="213" width="1.9" height="15.0" fill="rgb(211,30,7)" rx="2" ry="2" />
<text  x="493.29" y="223.5" ></text>
</g>
<g >
<title>asm_exc_page_fault (924,168 samples, 0.08%)</title><rect x="1185.7" y="197" width="1.0" height="15.0" fill="rgb(225,93,22)" rx="2" ry="2" />
<text  x="1188.73" y="207.5" ></text>
</g>
<g >
<title>__alloc_pages (924,258 samples, 0.08%)</title><rect x="40.9" y="101" width="1.0" height="15.0" fill="rgb(233,129,30)" rx="2" ry="2" />
<text  x="43.95" y="111.5" ></text>
</g>
<g >
<title>__register_frame_info (460,801 samples, 0.04%)</title><rect x="1183.4" y="181" width="0.5" height="15.0" fill="rgb(251,215,51)" rx="2" ry="2" />
<text  x="1186.39" y="191.5" ></text>
</g>
<g >
<title>__handle_mm_fault (924,168 samples, 0.08%)</title><rect x="1185.7" y="133" width="1.0" height="15.0" fill="rgb(207,9,2)" rx="2" ry="2" />
<text  x="1188.73" y="143.5" ></text>
</g>
<g >
<title>flush_signal_handlers (116,139 samples, 0.01%)</title><rect x="1186.7" y="101" width="0.1" height="15.0" fill="rgb(253,221,53)" rx="2" ry="2" />
<text  x="1189.67" y="111.5" ></text>
</g>
<g >
<title>do_user_addr_fault (924,258 samples, 0.08%)</title><rect x="40.9" y="181" width="1.0" height="15.0" fill="rgb(228,108,25)" rx="2" ry="2" />
<text  x="43.95" y="191.5" ></text>
</g>
<g >
<title>VR4_C (3,694,580 samples, 0.32%)</title><rect x="401.4" y="229" width="3.8" height="15.0" fill="rgb(245,187,44)" rx="2" ry="2" />
<text  x="404.41" y="239.5" ></text>
</g>
<g >
<title>exc_page_fault (924,168 samples, 0.08%)</title><rect x="1185.7" y="181" width="1.0" height="15.0" fill="rgb(212,35,8)" rx="2" ry="2" />
<text  x="1188.73" y="191.5" ></text>
</g>
<g >
<title>HD4_C (2,771,160 samples, 0.24%)</title><rect x="23.1" y="229" width="2.8" height="15.0" fill="rgb(226,100,23)" rx="2" ry="2" />
<text  x="26.13" y="239.5" ></text>
</g>
<g >
<title>__do_sys_brk (923,827 samples, 0.08%)</title><rect x="1187.2" y="181" width="0.9" height="15.0" fill="rgb(217,58,13)" rx="2" ry="2" />
<text  x="1190.16" y="191.5" ></text>
</g>
<g >
<title>exc_page_fault (924,258 samples, 0.08%)</title><rect x="40.9" y="197" width="1.0" height="15.0" fill="rgb(212,35,8)" rx="2" ry="2" />
<text  x="43.95" y="207.5" ></text>
</g>
<g >
<title>VP8DecodeMB (22,438,056 samples, 1.93%)</title><rect x="631.4" y="213" width="22.8" height="15.0" fill="rgb(208,18,4)" rx="2" ry="2" />
<text  x="634.44" y="223.5" >V..</text>
</g>
<g >
<title>vma_alloc_folio (924,258 samples, 0.08%)</title><rect x="40.9" y="133" width="1.0" height="15.0" fill="rgb(245,187,44)" rx="2" ry="2" />
<text  x="43.95" y="143.5" ></text>
</g>
<g >
<title>[unknown] (770,168,753 samples, 66.27%)</title><rect x="405.2" y="229" width="782.0" height="15.0" fill="rgb(210,24,5)" rx="2" ry="2" />
<text  x="408.16" y="239.5" >[unknown]</text>
</g>
<g >
<title>vma_alloc_folio (1,847,022 samples, 0.16%)</title><rect x="398.6" y="133" width="1.9" height="15.0" fill="rgb(245,187,44)" rx="2" ry="2" />
<text  x="401.59" y="143.5" ></text>
</g>
<g >
<title>TransformOne_C (115,096,245 samples, 9.90%)</title><rect x="508.1" y="213" width="116.9" height="15.0" fill="rgb(218,59,14)" rx="2" ry="2" />
<text  x="511.11" y="223.5" >TransformOne_C</text>
</g>
<g >
<title>__folio_alloc (924,258 samples, 0.08%)</title><rect x="40.9" y="117" width="1.0" height="15.0" fill="rgb(224,91,21)" rx="2" ry="2" />
<text  x="43.95" y="127.5" ></text>
</g>
<g >
<title>exc_page_fault (2,770,790 samples, 0.24%)</title><rect x="397.7" y="197" width="2.8" height="15.0" fill="rgb(212,35,8)" rx="2" ry="2" />
<text  x="400.66" y="207.5" ></text>
</g>
<g >
<title>ReconstructRow (12,932,572 samples, 1.11%)</title><rect x="466.8" y="213" width="13.2" height="15.0" fill="rgb(225,93,22)" rx="2" ry="2" />
<text  x="469.84" y="223.5" ></text>
</g>
<g >
<title>TransformDCUV_C (924,358 samples, 0.08%)</title><rect x="494.0" y="213" width="1.0" height="15.0" fill="rgb(214,44,10)" rx="2" ry="2" />
<text  x="497.04" y="223.5" ></text>
</g>
<g >
<title>ReconstructRow (5,541,829 samples, 0.48%)</title><rect x="36.3" y="229" width="5.6" height="15.0" fill="rgb(225,93,22)" rx="2" ry="2" />
<text  x="39.26" y="239.5" ></text>
</g>
<g >
<title>__list_del_entry_valid (922,948 samples, 0.08%)</title><rect x="399.5" y="53" width="1.0" height="15.0" fill="rgb(239,158,37)" rx="2" ry="2" />
<text  x="402.53" y="63.5" ></text>
</g>
<g >
<title>unmap_page_range (923,915 samples, 0.08%)</title><rect x="1189.0" y="101" width="1.0" height="15.0" fill="rgb(206,5,1)" rx="2" ry="2" />
<text  x="1192.03" y="111.5" ></text>
</g>
<g >
<title>entry_SYSCALL_64_after_hwframe (1,847,757 samples, 0.16%)</title><rect x="1188.1" y="229" width="1.9" height="15.0" fill="rgb(218,63,15)" rx="2" ry="2" />
<text  x="1191.09" y="239.5" ></text>
</g>
<g >
<title>free_unref_page_list (923,842 samples, 0.08%)</title><rect x="1188.1" y="69" width="0.9" height="15.0" fill="rgb(221,77,18)" rx="2" ry="2" />
<text  x="1191.09" y="79.5" ></text>
</g>
<g >
<title>asm_exc_page_fault (2,770,790 samples, 0.24%)</title><rect x="397.7" y="213" width="2.8" height="15.0" fill="rgb(225,93,22)" rx="2" ry="2" />
<text  x="400.66" y="223.5" ></text>
</g>
<g >
<title>exc_page_fault (360,676 samples, 0.03%)</title><rect x="1186.8" y="69" width="0.4" height="15.0" fill="rgb(212,35,8)" rx="2" ry="2" />
<text  x="1189.79" y="79.5" ></text>
</g>
<g >
<title>HU4_C (3,694,131 samples, 0.32%)</title><rect x="27.8" y="229" width="3.8" height="15.0" fill="rgb(216,54,13)" rx="2" ry="2" />
<text  x="30.82" y="239.5" ></text>
</g>
<g >
<title>DC4_C (8,312,832 samples, 0.72%)</title><rect x="10.0" y="229" width="8.4" height="15.0" fill="rgb(209,18,4)" rx="2" ry="2" />
<text  x="13.00" y="239.5" ></text>
</g>
<g >
<title>rmqueue_bulk (922,948 samples, 0.08%)</title><rect x="399.5" y="69" width="1.0" height="15.0" fill="rgb(235,138,33)" rx="2" ry="2" />
<text  x="402.53" y="79.5" ></text>
</g>
<g >
<title>__brk (923,827 samples, 0.08%)</title><rect x="1187.2" y="229" width="0.9" height="15.0" fill="rgb(225,94,22)" rx="2" ry="2" />
<text  x="1190.16" y="239.5" ></text>
</g>
<g >
<title>DC16_C (923,658 samples, 0.08%)</title><rect x="405.2" y="213" width="0.9" height="15.0" fill="rgb(229,113,27)" rx="2" ry="2" />
<text  x="408.16" y="223.5" ></text>
</g>
<g >
<title>do_brk_flags (923,827 samples, 0.08%)</title><rect x="1187.2" y="165" width="0.9" height="15.0" fill="rgb(220,73,17)" rx="2" ry="2" />
<text  x="1190.16" y="175.5" ></text>
</g>
<g >
<title>get_page_from_freelist (1,847,022 samples, 0.16%)</title><rect x="398.6" y="85" width="1.9" height="15.0" fill="rgb(252,218,52)" rx="2" ry="2" />
<text  x="401.59" y="95.5" ></text>
</g>
<g >
<title>rmqueue_bulk (924,258 samples, 0.08%)</title><rect x="40.9" y="69" width="1.0" height="15.0" fill="rgb(235,138,33)" rx="2" ry="2" />
<text  x="43.95" y="79.5" ></text>
</g>
<g >
<title>get_page_from_freelist (924,258 samples, 0.08%)</title><rect x="40.9" y="85" width="1.0" height="15.0" fill="rgb(252,218,52)" rx="2" ry="2" />
<text  x="43.95" y="95.5" ></text>
</g>
<g >
<title>TransformDC_C (3,695,495 samples, 0.32%)</title><rect x="66.2" y="229" width="3.8" height="15.0" fill="rgb(219,65,15)" rx="2" ry="2" />
<text  x="69.22" y="239.5" ></text>
</g>
<g >
<title>TransformAC3_C (6,903,341 samples, 0.59%)</title><rect x="59.2" y="229" width="7.0" height="15.0" fill="rgb(209,19,4)" rx="2" ry="2" />
<text  x="62.21" y="239.5" ></text>
</g>
<g >
<title>SimpleHFilter16i_C (924,287 samples, 0.08%)</title><rect x="41.9" y="229" width="0.9" height="15.0" fill="rgb(249,205,49)" rx="2" ry="2" />
<text  x="44.89" y="239.5" ></text>
</g>
<g >
<title>do_group_exit (1,847,757 samples, 0.16%)</title><rect x="1188.1" y="181" width="1.9" height="15.0" fill="rgb(219,67,16)" rx="2" ry="2" />
<text  x="1191.09" y="191.5" ></text>
</g>
<g >
<title>padzero (360,676 samples, 0.03%)</title><rect x="1186.8" y="117" width="0.4" height="15.0" fill="rgb(223,84,20)" rx="2" ry="2" />
<text  x="1189.79" y="127.5" ></text>
</g>
<g >
<title>perf_event_mmap (923,827 samples, 0.08%)</title><rect x="1187.2" y="149" width="0.9" height="15.0" fill="rgb(229,112,26)" rx="2" ry="2" />
<text  x="1190.16" y="159.5" ></text>
</g>
<g >
<title>TransformTwo_C (1,847,454 samples, 0.16%)</title><rect x="70.0" y="229" width="1.9" height="15.0" fill="rgb(212,36,8)" rx="2" ry="2" />
<text  x="72.98" y="239.5" ></text>
</g>
<g >
<title>GetCoeffsFast (4,618,913 samples, 0.40%)</title><rect x="18.4" y="229" width="4.7" height="15.0" fill="rgb(219,64,15)" rx="2" ry="2" />
<text  x="21.44" y="239.5" ></text>
</g>
<g >
<title>__irqentry_text_end (460,801 samples, 0.04%)</title><rect x="1183.4" y="165" width="0.5" height="15.0" fill="rgb(248,199,47)" rx="2" ry="2" />
<text  x="1186.39" y="175.5" ></text>
</g>
<g >
<title>unmap_vmas (923,915 samples, 0.08%)</title><rect x="1189.0" y="117" width="1.0" height="15.0" fill="rgb(243,176,42)" rx="2" ry="2" />
<text  x="1192.03" y="127.5" ></text>
</g>
<g >
<title>asm_exc_page_fault (360,676 samples, 0.03%)</title><rect x="1186.8" y="85" width="0.4" height="15.0" fill="rgb(225,93,22)" rx="2" ry="2" />
<text  x="1189.79" y="95.5" ></text>
</g>
<g >
<title>exit_mmap (1,847,757 samples, 0.16%)</title><rect x="1188.1" y="133" width="1.9" height="15.0" fill="rgb(236,143,34)" rx="2" ry="2" />
<text  x="1191.09" y="143.5" ></text>
</g>
<g >
<title>handle_mm_fault (924,258 samples, 0.08%)</title><rect x="40.9" y="165" width="1.0" height="15.0" fill="rgb(234,135,32)" rx="2" ry="2" />
<text  x="43.95" y="175.5" ></text>
</g>
</g>
</svg>
