<?xml version="1.0" standalone="no"?>
<!DOCTYPE svg PUBLIC "-//W3C//DTD SVG 1.1//EN" "http://www.w3.org/Graphics/SVG/1.1/DTD/svg11.dtd">
<svg version="1.1" width="1200" height="342" onload="init(evt)" viewBox="0 0 1200 342" xmlns="http://www.w3.org/2000/svg" xmlns:xlink="http://www.w3.org/1999/xlink">
<!-- Flame graph stack visualization. See https://github.com/brendangregg/FlameGraph for latest version, and http://www.brendangregg.com/flamegraphs.html for examples. -->
<!-- NOTES:  -->
<defs>
	<linearGradient id="background" y1="0" y2="1" x1="0" x2="0" >
		<stop stop-color="#eeeeee" offset="5%" />
		<stop stop-color="#eeeeb0" offset="95%" />
	</linearGradient>
</defs>
<style type="text/css">
	text { font-family:Verdana; font-size:12px; fill:rgb(0,0,0); }
	#search, #ignorecase { opacity:0.1; cursor:pointer; }
	#search:hover, #search.show, #ignorecase:hover, #ignorecase.show { opacity:1; }
	#subtitle { text-anchor:middle; font-color:rgb(160,160,160); }
	#title { text-anchor:middle; font-size:17px}
	#unzoom { cursor:pointer; }
	#frames > *:hover { stroke:black; stroke-width:0.5; cursor:pointer; }
	.hide { display:none; }
	.parent { opacity:0.5; }
</style>
<script type="text/ecmascript">
<![CDATA[
	"use strict";
	var details, searchbtn, unzoombtn, matchedtxt, svg, searching, currentSearchTerm, ignorecase, ignorecaseBtn;
	function init(evt) {
		details = document.getElementById("details").firstChild;
		searchbtn = document.getElementById("search");
		ignorecaseBtn = document.getElementById("ignorecase");
		unzoombtn = document.getElementById("unzoom");
		matchedtxt = document.getElementById("matched");
		svg = document.getElementsByTagName("svg")[0];
		searching = 0;
		currentSearchTerm = null;

		// use GET parameters to restore a flamegraphs state.
		var params = get_params();
		if (params.x && params.y)
			zoom(find_group(document.querySelector('[x="' + params.x + '"][y="' + params.y + '"]')));
                if (params.s) search(params.s);
	}

	// event listeners
	window.addEventListener("click", function(e) {
		var target = find_group(e.target);
		if (target) {
			if (target.nodeName == "a") {
				if (e.ctrlKey === false) return;
				e.preventDefault();
			}
			if (target.classList.contains("parent")) unzoom(true);
			zoom(target);
			if (!document.querySelector('.parent')) {
				// we have basically done a clearzoom so clear the url
				var params = get_params();
				if (params.x) delete params.x;
				if (params.y) delete params.y;
				history.replaceState(null, null, parse_params(params));
				unzoombtn.classList.add("hide");
				return;
			}

			// set parameters for zoom state
			var el = target.querySelector("rect");
			if (el && el.attributes && el.attributes.y && el.attributes._orig_x) {
				var params = get_params()
				params.x = el.attributes._orig_x.value;
				params.y = el.attributes.y.value;
				history.replaceState(null, null, parse_params(params));
			}
		}
		else if (e.target.id == "unzoom") clearzoom();
		else if (e.target.id == "search") search_prompt();
		else if (e.target.id == "ignorecase") toggle_ignorecase();
	}, false)

	// mouse-over for info
	// show
	window.addEventListener("mouseover", function(e) {
		var target = find_group(e.target);
		if (target) details.nodeValue = "Function: " + g_to_text(target);
	}, false)

	// clear
	window.addEventListener("mouseout", function(e) {
		var target = find_group(e.target);
		if (target) details.nodeValue = ' ';
	}, false)

	// ctrl-F for search
	// ctrl-I to toggle case-sensitive search
	window.addEventListener("keydown",function (e) {
		if (e.keyCode === 114 || (e.ctrlKey && e.keyCode === 70)) {
			e.preventDefault();
			search_prompt();
		}
		else if (e.ctrlKey && e.keyCode === 73) {
			e.preventDefault();
			toggle_ignorecase();
		}
	}, false)

	// functions
	function get_params() {
		var params = {};
		var paramsarr = window.location.search.substr(1).split('&');
		for (var i = 0; i < paramsarr.length; ++i) {
			var tmp = paramsarr[i].split("=");
			if (!tmp[0] || !tmp[1]) continue;
			params[tmp[0]]  = decodeURIComponent(tmp[1]);
		}
		return params;
	}
	function parse_params(params) {
		var uri = "?";
		for (var key in params) {
			uri += key + '=' + encodeURIComponent(params[key]) + '&';
		}
		if (uri.slice(-1) == "&")
			uri = uri.substring(0, uri.length - 1);
		if (uri == '?')
			uri = window.location.href.split('?')[0];
		return uri;
	}
	function find_child(node, selector) {
		var children = node.querySelectorAll(selector);
		if (children.length) return children[0];
	}
	function find_group(node) {
		var parent = node.parentElement;
		if (!parent) return;
		if (parent.id == "frames") return node;
		return find_group(parent);
	}
	function orig_save(e, attr, val) {
		if (e.attributes["_orig_" + attr] != undefined) return;
		if (e.attributes[attr] == undefined) return;
		if (val == undefined) val = e.attributes[attr].value;
		e.setAttribute("_orig_" + attr, val);
	}
	function orig_load(e, attr) {
		if (e.attributes["_orig_"+attr] == undefined) return;
		e.attributes[attr].value = e.attributes["_orig_" + attr].value;
		e.removeAttribute("_orig_"+attr);
	}
	function g_to_text(e) {
		var text = find_child(e, "title").firstChild.nodeValue;
		return (text)
	}
	function g_to_func(e) {
		var func = g_to_text(e);
		// if there's any manipulation we want to do to the function
		// name before it's searched, do it here before returning.
		return (func);
	}
	function update_text(e) {
		var r = find_child(e, "rect");
		var t = find_child(e, "text");
		var w = parseFloat(r.attributes.width.value) -3;
		var txt = find_child(e, "title").textContent.replace(/\([^(]*\)$/,"");
		t.attributes.x.value = parseFloat(r.attributes.x.value) + 3;

		// Smaller than this size won't fit anything
		if (w < 2 * 12 * 0.59) {
			t.textContent = "";
			return;
		}

		t.textContent = txt;
		var sl = t.getSubStringLength(0, txt.length);
		// check if only whitespace or if we can fit the entire string into width w
		if (/^ *$/.test(txt) || sl < w)
			return;

		// this isn't perfect, but gives a good starting point
		// and avoids calling getSubStringLength too often
		var start = Math.floor((w/sl) * txt.length);
		for (var x = start; x > 0; x = x-2) {
			if (t.getSubStringLength(0, x + 2) <= w) {
				t.textContent = txt.substring(0, x) + "..";
				return;
			}
		}
		t.textContent = "";
	}

	// zoom
	function zoom_reset(e) {
		if (e.attributes != undefined) {
			orig_load(e, "x");
			orig_load(e, "width");
		}
		if (e.childNodes == undefined) return;
		for (var i = 0, c = e.childNodes; i < c.length; i++) {
			zoom_reset(c[i]);
		}
	}
	function zoom_child(e, x, ratio) {
		if (e.attributes != undefined) {
			if (e.attributes.x != undefined) {
				orig_save(e, "x");
				e.attributes.x.value = (parseFloat(e.attributes.x.value) - x - 10) * ratio + 10;
				if (e.tagName == "text")
					e.attributes.x.value = find_child(e.parentNode, "rect[x]").attributes.x.value + 3;
			}
			if (e.attributes.width != undefined) {
				orig_save(e, "width");
				e.attributes.width.value = parseFloat(e.attributes.width.value) * ratio;
			}
		}

		if (e.childNodes == undefined) return;
		for (var i = 0, c = e.childNodes; i < c.length; i++) {
			zoom_child(c[i], x - 10, ratio);
		}
	}
	function zoom_parent(e) {
		if (e.attributes) {
			if (e.attributes.x != undefined) {
				orig_save(e, "x");
				e.attributes.x.value = 10;
			}
			if (e.attributes.width != undefined) {
				orig_save(e, "width");
				e.attributes.width.value = parseInt(svg.width.baseVal.value) - (10 * 2);
			}
		}
		if (e.childNodes == undefined) return;
		for (var i = 0, c = e.childNodes; i < c.length; i++) {
			zoom_parent(c[i]);
		}
	}
	function zoom(node) {
		var attr = find_child(node, "rect").attributes;
		var width = parseFloat(attr.width.value);
		var xmin = parseFloat(attr.x.value);
		var xmax = parseFloat(xmin + width);
		var ymin = parseFloat(attr.y.value);
		var ratio = (svg.width.baseVal.value - 2 * 10) / width;

		// XXX: Workaround for JavaScript float issues (fix me)
		var fudge = 0.0001;

		unzoombtn.classList.remove("hide");

		var el = document.getElementById("frames").children;
		for (var i = 0; i < el.length; i++) {
			var e = el[i];
			var a = find_child(e, "rect").attributes;
			var ex = parseFloat(a.x.value);
			var ew = parseFloat(a.width.value);
			var upstack;
			// Is it an ancestor
			if (0 == 0) {
				upstack = parseFloat(a.y.value) > ymin;
			} else {
				upstack = parseFloat(a.y.value) < ymin;
			}
			if (upstack) {
				// Direct ancestor
				if (ex <= xmin && (ex+ew+fudge) >= xmax) {
					e.classList.add("parent");
					zoom_parent(e);
					update_text(e);
				}
				// not in current path
				else
					e.classList.add("hide");
			}
			// Children maybe
			else {
				// no common path
				if (ex < xmin || ex + fudge >= xmax) {
					e.classList.add("hide");
				}
				else {
					zoom_child(e, xmin, ratio);
					update_text(e);
				}
			}
		}
		search();
	}
	function unzoom(dont_update_text) {
		unzoombtn.classList.add("hide");
		var el = document.getElementById("frames").children;
		for(var i = 0; i < el.length; i++) {
			el[i].classList.remove("parent");
			el[i].classList.remove("hide");
			zoom_reset(el[i]);
			if(!dont_update_text) update_text(el[i]);
		}
		search();
	}
	function clearzoom() {
		unzoom();

		// remove zoom state
		var params = get_params();
		if (params.x) delete params.x;
		if (params.y) delete params.y;
		history.replaceState(null, null, parse_params(params));
	}

	// search
	function toggle_ignorecase() {
		ignorecase = !ignorecase;
		if (ignorecase) {
			ignorecaseBtn.classList.add("show");
		} else {
			ignorecaseBtn.classList.remove("show");
		}
		reset_search();
		search();
	}
	function reset_search() {
		var el = document.querySelectorAll("#frames rect");
		for (var i = 0; i < el.length; i++) {
			orig_load(el[i], "fill")
		}
		var params = get_params();
		delete params.s;
		history.replaceState(null, null, parse_params(params));
	}
	function search_prompt() {
		if (!searching) {
			var term = prompt("Enter a search term (regexp " +
			    "allowed, eg: ^ext4_)"
			    + (ignorecase ? ", ignoring case" : "")
			    + "\nPress Ctrl-i to toggle case sensitivity", "");
			if (term != null) search(term);
		} else {
			reset_search();
			searching = 0;
			currentSearchTerm = null;
			searchbtn.classList.remove("show");
			searchbtn.firstChild.nodeValue = "Search"
			matchedtxt.classList.add("hide");
			matchedtxt.firstChild.nodeValue = ""
		}
	}
	function search(term) {
		if (term) currentSearchTerm = term;

		var re = new RegExp(currentSearchTerm, ignorecase ? 'i' : '');
		var el = document.getElementById("frames").children;
		var matches = new Object();
		var maxwidth = 0;
		for (var i = 0; i < el.length; i++) {
			var e = el[i];
			var func = g_to_func(e);
			var rect = find_child(e, "rect");
			if (func == null || rect == null)
				continue;

			// Save max width. Only works as we have a root frame
			var w = parseFloat(rect.attributes.width.value);
			if (w > maxwidth)
				maxwidth = w;

			if (func.match(re)) {
				// highlight
				var x = parseFloat(rect.attributes.x.value);
				orig_save(rect, "fill");
				rect.attributes.fill.value = "rgb(230,0,230)";

				// remember matches
				if (matches[x] == undefined) {
					matches[x] = w;
				} else {
					if (w > matches[x]) {
						// overwrite with parent
						matches[x] = w;
					}
				}
				searching = 1;
			}
		}
		if (!searching)
			return;
		var params = get_params();
		params.s = currentSearchTerm;
		history.replaceState(null, null, parse_params(params));

		searchbtn.classList.add("show");
		searchbtn.firstChild.nodeValue = "Reset Search";

		// calculate percent matched, excluding vertical overlap
		var count = 0;
		var lastx = -1;
		var lastw = 0;
		var keys = Array();
		for (k in matches) {
			if (matches.hasOwnProperty(k))
				keys.push(k);
		}
		// sort the matched frames by their x location
		// ascending, then width descending
		keys.sort(function(a, b){
			return a - b;
		});
		// Step through frames saving only the biggest bottom-up frames
		// thanks to the sort order. This relies on the tree property
		// where children are always smaller than their parents.
		var fudge = 0.0001;	// JavaScript floating point
		for (var k in keys) {
			var x = parseFloat(keys[k]);
			var w = matches[keys[k]];
			if (x >= lastx + lastw - fudge) {
				count += w;
				lastx = x;
				lastw = w;
			}
		}
		// display matched percent
		matchedtxt.classList.remove("hide");
		var pct = 100 * count / maxwidth;
		if (pct != 100) pct = pct.toFixed(1)
		matchedtxt.firstChild.nodeValue = "Matched: " + pct + "%";
	}
]]>
</script>
<rect x="0.0" y="0" width="1200.0" height="342.0" fill="url(#background)"  />
<text id="title" x="600.00" y="24" >Flame Graph</text>
<text id="details" x="10.00" y="325" > </text>
<text id="unzoom" x="10.00" y="24" class="hide">Reset Zoom</text>
<text id="search" x="1090.00" y="24" >Search</text>
<text id="ignorecase" x="1174.00" y="24" >ic</text>
<text id="matched" x="1090.00" y="325" > </text>
<g id="frames">
<g >
<title>w2c_decode__webp__wasmsimd_TM8uv_C (923,872 samples, 0.06%)</title><rect x="759.9" y="261" width="0.7" height="15.0" fill="rgb(238,156,37)" rx="2" ry="2" />
<text  x="762.87" y="271.5" ></text>
</g>
<g >
<title>w2c_decode__webp__wasmsimd_TM16_C (923,066 samples, 0.06%)</title><rect x="90.5" y="245" width="0.8" height="15.0" fill="rgb(253,222,53)" rx="2" ry="2" />
<text  x="93.54" y="255.5" ></text>
</g>
<g >
<title>decode_webp_was (1,486,803,177 samples, 100.00%)</title><rect x="10.0" y="277" width="1180.0" height="15.0" fill="rgb(216,54,12)" rx="2" ry="2" />
<text  x="13.00" y="287.5" >decode_webp_was</text>
</g>
<g >
<title>__output_copy (363,205 samples, 0.02%)</title><rect x="11.2" y="37" width="0.3" height="15.0" fill="rgb(209,22,5)" rx="2" ry="2" />
<text  x="14.19" y="47.5" ></text>
</g>
<g >
<title>__alloc_pages (380,082 samples, 0.03%)</title><rect x="1187.5" y="133" width="0.3" height="15.0" fill="rgb(233,129,30)" rx="2" ry="2" />
<text  x="1190.47" y="143.5" ></text>
</g>
<g >
<title>entry_SYSCALL_64_after_hwframe (923,164 samples, 0.06%)</title><rect x="110.3" y="245" width="0.7" height="15.0" fill="rgb(218,63,15)" rx="2" ry="2" />
<text  x="113.30" y="255.5" ></text>
</g>
<g >
<title>w2c_decode__webp__wasmsimd_TransformDCUV_C (1,847,479 samples, 0.12%)</title><rect x="92.0" y="245" width="1.5" height="15.0" fill="rgb(206,6,1)" rx="2" ry="2" />
<text  x="95.01" y="255.5" ></text>
</g>
<g >
<title>__handle_mm_fault (2,770,917 samples, 0.19%)</title><rect x="730.7" y="181" width="2.2" height="15.0" fill="rgb(207,9,2)" rx="2" ry="2" />
<text  x="733.66" y="191.5" ></text>
</g>
<g >
<title>w2c_decode__webp__wasmsimd_ReconstructRow (16,163,705 samples, 1.09%)</title><rect x="720.0" y="261" width="12.9" height="15.0" fill="rgb(217,55,13)" rx="2" ry="2" />
<text  x="723.04" y="271.5" ></text>
</g>
<g >
<title>sync_regs (923,290 samples, 0.06%)</title><rect x="43.0" y="213" width="0.7" height="15.0" fill="rgb(228,106,25)" rx="2" ry="2" />
<text  x="45.98" y="223.5" ></text>
</g>
<g >
<title>w2c_decode__webp__wasmsimd_VE8uv_C (1,848,349 samples, 0.12%)</title><rect x="102.2" y="245" width="1.5" height="15.0" fill="rgb(227,104,24)" rx="2" ry="2" />
<text  x="105.24" y="255.5" ></text>
</g>
<g >
<title>clear_page_rep (380,082 samples, 0.03%)</title><rect x="1187.5" y="101" width="0.3" height="15.0" fill="rgb(253,221,52)" rx="2" ry="2" />
<text  x="1190.47" y="111.5" ></text>
</g>
<g >
<title>asm_exc_page_fault (1,223,416 samples, 0.08%)</title><rect x="1186.8" y="245" width="1.0" height="15.0" fill="rgb(225,93,22)" rx="2" ry="2" />
<text  x="1189.81" y="255.5" ></text>
</g>
<g >
<title>clear_page_rep (2,770,696 samples, 0.19%)</title><rect x="717.8" y="101" width="2.2" height="15.0" fill="rgb(253,221,52)" rx="2" ry="2" />
<text  x="720.84" y="111.5" ></text>
</g>
<g >
<title>vma_alloc_folio (1,847,276 samples, 0.12%)</title><rect x="731.4" y="165" width="1.5" height="15.0" fill="rgb(245,187,44)" rx="2" ry="2" />
<text  x="734.40" y="175.5" ></text>
</g>
<g >
<title>w2c_decode__webp__wasmsimd_UpsampleRgbaLinePair_C (924,281 samples, 0.06%)</title><rect x="100.0" y="245" width="0.8" height="15.0" fill="rgb(243,178,42)" rx="2" ry="2" />
<text  x="103.04" y="255.5" ></text>
</g>
<g >
<title>w2c_decode__webp__wasmsimd_VP8ParseProba (923,078 samples, 0.06%)</title><rect x="1189.2" y="261" width="0.8" height="15.0" fill="rgb(216,51,12)" rx="2" ry="2" />
<text  x="1192.24" y="271.5" ></text>
</g>
<g >
<title>error_entry (923,290 samples, 0.06%)</title><rect x="43.0" y="229" width="0.7" height="15.0" fill="rgb(240,163,39)" rx="2" ry="2" />
<text  x="45.98" y="239.5" ></text>
</g>
<g >
<title>get_page_from_freelist (380,082 samples, 0.03%)</title><rect x="1187.5" y="117" width="0.3" height="15.0" fill="rgb(252,218,52)" rx="2" ry="2" />
<text  x="1190.47" y="127.5" ></text>
</g>
<g >
<title>w2c_decode__webp__wasmsimd_GetCoeffsFast (570,286,305 samples, 38.36%)</title><rect x="114.0" y="261" width="452.6" height="15.0" fill="rgb(210,26,6)" rx="2" ry="2" />
<text  x="116.97" y="271.5" >w2c_decode__webp__wasmsimd_GetCoeffsFast</text>
</g>
<g >
<title>__memset_avx2_unaligned_erms (1,847,556 samples, 0.12%)</title><rect x="108.8" y="261" width="1.5" height="15.0" fill="rgb(223,84,20)" rx="2" ry="2" />
<text  x="111.84" y="271.5" ></text>
</g>
<g >
<title>entry_SYSCALL_64_after_hwframe (455,299 samples, 0.03%)</title><rect x="10.7" y="229" width="0.4" height="15.0" fill="rgb(218,63,15)" rx="2" ry="2" />
<text  x="13.73" y="239.5" ></text>
</g>
<g >
<title>security_file_mprotect (923,164 samples, 0.06%)</title><rect x="110.3" y="181" width="0.7" height="15.0" fill="rgb(240,164,39)" rx="2" ry="2" />
<text  x="113.30" y="191.5" ></text>
</g>
<g >
<title>entry_SYSCALL_64_after_hwframe (924,016 samples, 0.06%)</title><rect x="10.0" y="197" width="0.7" height="15.0" fill="rgb(218,63,15)" rx="2" ry="2" />
<text  x="13.00" y="207.5" ></text>
</g>
<g >
<title>__alloc_pages (923,473 samples, 0.06%)</title><rect x="109.6" y="133" width="0.7" height="15.0" fill="rgb(233,129,30)" rx="2" ry="2" />
<text  x="112.57" y="143.5" ></text>
</g>
<g >
<title>__x64_sys_mprotect (923,164 samples, 0.06%)</title><rect x="110.3" y="213" width="0.7" height="15.0" fill="rgb(209,21,5)" rx="2" ry="2" />
<text  x="113.30" y="223.5" ></text>
</g>
<g >
<title>w2c_decode__webp__wasmsimd_VE4_C (924,243 samples, 0.06%)</title><rect x="1187.8" y="261" width="0.7" height="15.0" fill="rgb(221,76,18)" rx="2" ry="2" />
<text  x="1190.78" y="271.5" ></text>
</g>
<g >
<title>vma_alloc_folio (380,082 samples, 0.03%)</title><rect x="1187.5" y="165" width="0.3" height="15.0" fill="rgb(245,187,44)" rx="2" ry="2" />
<text  x="1190.47" y="175.5" ></text>
</g>
<g >
<title>release_pages (924,016 samples, 0.06%)</title><rect x="10.0" y="53" width="0.7" height="15.0" fill="rgb(228,106,25)" rx="2" ry="2" />
<text  x="13.00" y="63.5" ></text>
</g>
<g >
<title>__vm_munmap (924,016 samples, 0.06%)</title><rect x="10.0" y="149" width="0.7" height="15.0" fill="rgb(231,121,28)" rx="2" ry="2" />
<text  x="13.00" y="159.5" ></text>
</g>
<g >
<title>__folio_alloc (923,473 samples, 0.06%)</title><rect x="109.6" y="149" width="0.7" height="15.0" fill="rgb(224,91,21)" rx="2" ry="2" />
<text  x="112.57" y="159.5" ></text>
</g>
<g >
<title>bprm_execve (485,401 samples, 0.03%)</title><rect x="11.1" y="181" width="0.4" height="15.0" fill="rgb(218,61,14)" rx="2" ry="2" />
<text  x="14.09" y="191.5" ></text>
</g>
<g >
<title>w2c_decode__webp__wasmsimd_DC8uvNoLeft_C (923,199 samples, 0.06%)</title><rect x="111.0" y="261" width="0.8" height="15.0" fill="rgb(234,134,32)" rx="2" ry="2" />
<text  x="114.03" y="271.5" ></text>
</g>
<g >
<title>w2c_decode__webp__wasmsimd_HE4_C (3,669,117 samples, 0.25%)</title><rect x="32.0" y="245" width="2.9" height="15.0" fill="rgb(212,32,7)" rx="2" ry="2" />
<text  x="35.00" y="255.5" ></text>
</g>
<g >
<title>exc_page_fault (4,617,412 samples, 0.31%)</title><rect x="716.4" y="229" width="3.6" height="15.0" fill="rgb(212,35,8)" rx="2" ry="2" />
<text  x="719.37" y="239.5" ></text>
</g>
<g >
<title>do_user_addr_fault (2,770,917 samples, 0.19%)</title><rect x="730.7" y="213" width="2.2" height="15.0" fill="rgb(228,108,25)" rx="2" ry="2" />
<text  x="733.66" y="223.5" ></text>
</g>
<g >
<title>w2c_decode__webp__wasmsimd_HU4_C (2,772,218 samples, 0.19%)</title><rect x="35.6" y="245" width="2.2" height="15.0" fill="rgb(208,17,4)" rx="2" ry="2" />
<text  x="38.65" y="255.5" ></text>
</g>
<g >
<title>__do_global_dtors_aux (924,016 samples, 0.06%)</title><rect x="10.0" y="245" width="0.7" height="15.0" fill="rgb(245,185,44)" rx="2" ry="2" />
<text  x="13.00" y="255.5" ></text>
</g>
<g >
<title>perf_output_copy (363,205 samples, 0.02%)</title><rect x="11.2" y="53" width="0.3" height="15.0" fill="rgb(252,217,52)" rx="2" ry="2" />
<text  x="14.19" y="63.5" ></text>
</g>
<g >
<title>handle_mm_fault (2,770,917 samples, 0.19%)</title><rect x="730.7" y="197" width="2.2" height="15.0" fill="rgb(234,135,32)" rx="2" ry="2" />
<text  x="733.66" y="207.5" ></text>
</g>
<g >
<title>w2c_decode__webp__wasmsimd_VR4_C (2,771,091 samples, 0.19%)</title><rect x="105.9" y="245" width="2.2" height="15.0" fill="rgb(237,150,35)" rx="2" ry="2" />
<text  x="108.90" y="255.5" ></text>
</g>
<g >
<title>w2c_decode__webp__wasmsimd_HD4_C (2,771,115 samples, 0.19%)</title><rect x="29.8" y="245" width="2.2" height="15.0" fill="rgb(218,62,14)" rx="2" ry="2" />
<text  x="32.81" y="255.5" ></text>
</g>
<g >
<title>w2c_decode__webp__wasmsimd_VL4_C (2,771,407 samples, 0.19%)</title><rect x="103.7" y="245" width="2.2" height="15.0" fill="rgb(226,98,23)" rx="2" ry="2" />
<text  x="106.70" y="255.5" ></text>
</g>
<g >
<title>__memmove_avx_unaligned_erms (923,258 samples, 0.06%)</title><rect x="108.1" y="261" width="0.7" height="15.0" fill="rgb(205,0,0)" rx="2" ry="2" />
<text  x="111.10" y="271.5" ></text>
</g>
<g >
<title>__mprotect (923,164 samples, 0.06%)</title><rect x="110.3" y="261" width="0.7" height="15.0" fill="rgb(214,43,10)" rx="2" ry="2" />
<text  x="113.30" y="271.5" ></text>
</g>
<g >
<title>exc_page_fault (1,223,416 samples, 0.08%)</title><rect x="1186.8" y="229" width="1.0" height="15.0" fill="rgb(212,35,8)" rx="2" ry="2" />
<text  x="1189.81" y="239.5" ></text>
</g>
<g >
<title>w2c_decode__webp__wasmsimd_SimpleVFilter16i_C (8,312,649 samples, 0.56%)</title><rect x="752.5" y="261" width="6.6" height="15.0" fill="rgb(251,211,50)" rx="2" ry="2" />
<text  x="755.54" y="271.5" ></text>
</g>
<g >
<title>exc_page_fault (2,770,917 samples, 0.19%)</title><rect x="730.7" y="229" width="2.2" height="15.0" fill="rgb(212,35,8)" rx="2" ry="2" />
<text  x="733.66" y="239.5" ></text>
</g>
<g >
<title>__x64_sys_execve (485,401 samples, 0.03%)</title><rect x="11.1" y="213" width="0.4" height="15.0" fill="rgb(247,193,46)" rx="2" ry="2" />
<text  x="14.09" y="223.5" ></text>
</g>
<g >
<title>w2c_decode__webp__wasmsimd_VE8uv_C (923,160 samples, 0.06%)</title><rect x="1188.5" y="261" width="0.7" height="15.0" fill="rgb(227,104,24)" rx="2" ry="2" />
<text  x="1191.51" y="271.5" ></text>
</g>
<g >
<title>perf_iterate_sb (363,205 samples, 0.02%)</title><rect x="11.2" y="101" width="0.3" height="15.0" fill="rgb(244,179,42)" rx="2" ry="2" />
<text  x="14.19" y="111.5" ></text>
</g>
<g >
<title>clear_page_rep (1,847,276 samples, 0.12%)</title><rect x="731.4" y="101" width="1.5" height="15.0" fill="rgb(253,221,52)" rx="2" ry="2" />
<text  x="734.40" y="111.5" ></text>
</g>
<g >
<title>do_mprotect_pkey (923,164 samples, 0.06%)</title><rect x="110.3" y="197" width="0.7" height="15.0" fill="rgb(252,218,52)" rx="2" ry="2" />
<text  x="113.30" y="207.5" ></text>
</g>
<g >
<title>tlb_finish_mmu (924,016 samples, 0.06%)</title><rect x="10.0" y="85" width="0.7" height="15.0" fill="rgb(251,212,50)" rx="2" ry="2" />
<text  x="13.00" y="95.5" ></text>
</g>
<g >
<title>folio_add_lru (923,617 samples, 0.06%)</title><rect x="716.4" y="165" width="0.7" height="15.0" fill="rgb(208,17,4)" rx="2" ry="2" />
<text  x="719.37" y="175.5" ></text>
</g>
<g >
<title>w2c_decode__webp__wasmsimd_TransformAC3_C (6,462,147 samples, 0.43%)</title><rect x="760.6" y="261" width="5.1" height="15.0" fill="rgb(251,211,50)" rx="2" ry="2" />
<text  x="763.61" y="271.5" ></text>
</g>
<g >
<title>w2c_decode__webp__wasmsimd_TM16_C (923,794 samples, 0.06%)</title><rect x="759.1" y="261" width="0.8" height="15.0" fill="rgb(253,222,53)" rx="2" ry="2" />
<text  x="762.14" y="271.5" ></text>
</g>
<g >
<title>w2c_decode__webp__wasmsimd_TransformOne_C (924,308 samples, 0.06%)</title><rect x="97.1" y="245" width="0.7" height="15.0" fill="rgb(209,22,5)" rx="2" ry="2" />
<text  x="100.10" y="255.5" ></text>
</g>
<g >
<title>w2c_decode__webp__wasmsimd_VE4_C (1,847,403 samples, 0.12%)</title><rect x="100.8" y="245" width="1.4" height="15.0" fill="rgb(221,76,18)" rx="2" ry="2" />
<text  x="103.77" y="255.5" ></text>
</g>
<g >
<title>exc_page_fault (923,473 samples, 0.06%)</title><rect x="109.6" y="229" width="0.7" height="15.0" fill="rgb(212,35,8)" rx="2" ry="2" />
<text  x="112.57" y="239.5" ></text>
</g>
<g >
<title>w2c_decode__webp__wasmsimd_TransformWHT_C (1,847,343 samples, 0.12%)</title><rect x="853.5" y="261" width="1.5" height="15.0" fill="rgb(213,38,9)" rx="2" ry="2" />
<text  x="856.50" y="271.5" ></text>
</g>
<g >
<title>perf_event_mmap_output (363,205 samples, 0.02%)</title><rect x="11.2" y="69" width="0.3" height="15.0" fill="rgb(214,45,10)" rx="2" ry="2" />
<text  x="14.19" y="79.5" ></text>
</g>
<g >
<title>load_elf_binary (485,401 samples, 0.03%)</title><rect x="11.1" y="165" width="0.4" height="15.0" fill="rgb(223,83,20)" rx="2" ry="2" />
<text  x="14.09" y="175.5" ></text>
</g>
<g >
<title>__install_special_mapping (363,205 samples, 0.02%)</title><rect x="11.2" y="133" width="0.3" height="15.0" fill="rgb(212,35,8)" rx="2" ry="2" />
<text  x="14.19" y="143.5" ></text>
</g>
<g >
<title>__list_del_entry_valid (923,473 samples, 0.06%)</title><rect x="109.6" y="85" width="0.7" height="15.0" fill="rgb(239,158,37)" rx="2" ry="2" />
<text  x="112.57" y="95.5" ></text>
</g>
<g >
<title>perf_iterate_ctx (363,205 samples, 0.02%)</title><rect x="11.2" y="85" width="0.3" height="15.0" fill="rgb(205,4,0)" rx="2" ry="2" />
<text  x="14.19" y="95.5" ></text>
</g>
<g >
<title>unmap_region (924,016 samples, 0.06%)</title><rect x="10.0" y="101" width="0.7" height="15.0" fill="rgb(219,64,15)" rx="2" ry="2" />
<text  x="13.00" y="111.5" ></text>
</g>
<g >
<title>w2c_decode__webp__wasmsimd_IDecode (7,389,509 samples, 0.50%)</title><rect x="37.8" y="245" width="5.9" height="15.0" fill="rgb(237,147,35)" rx="2" ry="2" />
<text  x="40.85" y="255.5" ></text>
</g>
<g >
<title>w2c_decode__webp__wasmsimd_SimpleHFilter16i_C (10,107,508 samples, 0.68%)</title><rect x="738.7" y="261" width="8.0" height="15.0" fill="rgb(241,167,40)" rx="2" ry="2" />
<text  x="741.65" y="271.5" ></text>
</g>
<g >
<title>free_unref_page_list (924,016 samples, 0.06%)</title><rect x="10.0" y="37" width="0.7" height="15.0" fill="rgb(221,77,18)" rx="2" ry="2" />
<text  x="13.00" y="47.5" ></text>
</g>
<g >
<title>do_user_addr_fault (1,223,416 samples, 0.08%)</title><rect x="1186.8" y="213" width="1.0" height="15.0" fill="rgb(228,108,25)" rx="2" ry="2" />
<text  x="1189.81" y="223.5" ></text>
</g>
<g >
<title>w2c_decode__webp__wasmsimd_TransformUV_C (923,864 samples, 0.06%)</title><rect x="99.3" y="245" width="0.7" height="15.0" fill="rgb(228,108,25)" rx="2" ry="2" />
<text  x="102.30" y="255.5" ></text>
</g>
<g >
<title>__alloc_pages (1,847,276 samples, 0.12%)</title><rect x="731.4" y="133" width="1.5" height="15.0" fill="rgb(233,129,30)" rx="2" ry="2" />
<text  x="734.40" y="143.5" ></text>
</g>
<g >
<title>w2c_decode__webp__wasmsimd_DC4_C (11,083,567 samples, 0.75%)</title><rect x="11.5" y="245" width="8.8" height="15.0" fill="rgb(250,210,50)" rx="2" ry="2" />
<text  x="14.48" y="255.5" ></text>
</g>
<g >
<title>__folio_alloc (1,847,276 samples, 0.12%)</title><rect x="731.4" y="149" width="1.5" height="15.0" fill="rgb(224,91,21)" rx="2" ry="2" />
<text  x="734.40" y="159.5" ></text>
</g>
<g >
<title>w2c_decode__webp__wasmsimd_GetLargeValue (4,618,621 samples, 0.31%)</title><rect x="26.1" y="245" width="3.7" height="15.0" fill="rgb(234,137,32)" rx="2" ry="2" />
<text  x="29.14" y="255.5" ></text>
</g>
<g >
<title>w2c_decode__webp__wasmsimd_GetCoeffsFast (7,388,638 samples, 0.50%)</title><rect x="20.3" y="245" width="5.8" height="15.0" fill="rgb(210,26,6)" rx="2" ry="2" />
<text  x="23.28" y="255.5" ></text>
</g>
<g >
<title>get_page_from_freelist (923,473 samples, 0.06%)</title><rect x="109.6" y="117" width="0.7" height="15.0" fill="rgb(252,218,52)" rx="2" ry="2" />
<text  x="112.57" y="127.5" ></text>
</g>
<g >
<title>entry_SYSCALL_64_after_hwframe (485,401 samples, 0.03%)</title><rect x="11.1" y="245" width="0.4" height="15.0" fill="rgb(218,63,15)" rx="2" ry="2" />
<text  x="14.09" y="255.5" ></text>
</g>
<g >
<title>w2c_decode__webp__wasmsimd_RD4_C (1,848,543 samples, 0.12%)</title><rect x="45.9" y="245" width="1.5" height="15.0" fill="rgb(253,225,53)" rx="2" ry="2" />
<text  x="48.91" y="255.5" ></text>
</g>
<g >
<title>w2c_decode__webp__wasmsimd_TM8uv_C (924,337 samples, 0.06%)</title><rect x="91.3" y="245" width="0.7" height="15.0" fill="rgb(238,156,37)" rx="2" ry="2" />
<text  x="94.27" y="255.5" ></text>
</g>
<g >
<title>w2c_decode__webp__wasmsimd_IDecode (141,706,139 samples, 9.53%)</title><rect x="607.6" y="261" width="112.4" height="15.0" fill="rgb(237,147,35)" rx="2" ry="2" />
<text  x="610.57" y="271.5" >w2c_decode__w..</text>
</g>
<g >
<title>w2c_decode__webp__wasmsimd_GetLargeValue (51,672,008 samples, 3.48%)</title><rect x="566.6" y="261" width="41.0" height="15.0" fill="rgb(234,137,32)" rx="2" ry="2" />
<text  x="569.56" y="271.5" >w2c..</text>
</g>
<g >
<title>__alloc_pages (3,693,795 samples, 0.25%)</title><rect x="717.1" y="133" width="2.9" height="15.0" fill="rgb(233,129,30)" rx="2" ry="2" />
<text  x="720.10" y="143.5" ></text>
</g>
<g >
<title>w2c_decode__webp__wasmsimd_TransformOne_C (109,666,570 samples, 7.38%)</title><rect x="765.7" y="261" width="87.1" height="15.0" fill="rgb(209,22,5)" rx="2" ry="2" />
<text  x="768.73" y="271.5" >w2c_decode..</text>
</g>
<g >
<title>perf_event_mmap (363,205 samples, 0.02%)</title><rect x="11.2" y="117" width="0.3" height="15.0" fill="rgb(229,112,26)" rx="2" ry="2" />
<text  x="14.19" y="127.5" ></text>
</g>
<g >
<title>__handle_mm_fault (4,617,412 samples, 0.31%)</title><rect x="716.4" y="181" width="3.6" height="15.0" fill="rgb(207,9,2)" rx="2" ry="2" />
<text  x="719.37" y="191.5" ></text>
</g>
<g >
<title>__x64_sys_openat (455,299 samples, 0.03%)</title><rect x="10.7" y="197" width="0.4" height="15.0" fill="rgb(251,215,51)" rx="2" ry="2" />
<text  x="13.73" y="207.5" ></text>
</g>
<g >
<title>do_mas_align_munmap (924,016 samples, 0.06%)</title><rect x="10.0" y="117" width="0.7" height="15.0" fill="rgb(232,126,30)" rx="2" ry="2" />
<text  x="13.00" y="127.5" ></text>
</g>
<g >
<title>__munmap (924,016 samples, 0.06%)</title><rect x="10.0" y="213" width="0.7" height="15.0" fill="rgb(211,29,7)" rx="2" ry="2" />
<text  x="13.00" y="223.5" ></text>
</g>
<g >
<title>__handle_mm_fault (380,082 samples, 0.03%)</title><rect x="1187.5" y="181" width="0.3" height="15.0" fill="rgb(207,9,2)" rx="2" ry="2" />
<text  x="1190.47" y="191.5" ></text>
</g>
<g >
<title>get_page_from_freelist (1,847,276 samples, 0.12%)</title><rect x="731.4" y="117" width="1.5" height="15.0" fill="rgb(252,218,52)" rx="2" ry="2" />
<text  x="734.40" y="127.5" ></text>
</g>
<g >
<title>handle_mm_fault (923,473 samples, 0.06%)</title><rect x="109.6" y="197" width="0.7" height="15.0" fill="rgb(234,135,32)" rx="2" ry="2" />
<text  x="112.57" y="207.5" ></text>
</g>
<g >
<title>w2c_decode__webp__wasmsimd_UpsampleRgbaLinePair_C (419,349,021 samples, 28.20%)</title><rect x="855.0" y="261" width="332.8" height="15.0" fill="rgb(243,178,42)" rx="2" ry="2" />
<text  x="857.97" y="271.5" >w2c_decode__webp__wasmsimd_UpsampleRgbaLinePa..</text>
</g>
<g >
<title>__libc_open64 (455,299 samples, 0.03%)</title><rect x="10.7" y="245" width="0.4" height="15.0" fill="rgb(235,140,33)" rx="2" ry="2" />
<text  x="13.73" y="255.5" ></text>
</g>
<g >
<title>w2c_decode__webp__wasmsimd_SimpleVFilter16_C (7,392,214 samples, 0.50%)</title><rect x="746.7" y="261" width="5.8" height="15.0" fill="rgb(229,111,26)" rx="2" ry="2" />
<text  x="749.67" y="271.5" ></text>
</g>
<g >
<title>w2c_decode__webp__wasmsimd_TransformTwo_C (1,848,010 samples, 0.12%)</title><rect x="97.8" y="245" width="1.5" height="15.0" fill="rgb(254,228,54)" rx="2" ry="2" />
<text  x="100.84" y="255.5" ></text>
</g>
<g >
<title>w2c_decode__webp__wasmsimd_TransformTwo_C (923,140 samples, 0.06%)</title><rect x="852.8" y="261" width="0.7" height="15.0" fill="rgb(254,228,54)" rx="2" ry="2" />
<text  x="855.77" y="271.5" ></text>
</g>
<g >
<title>w2c_decode__webp__wasmsimd_LD4_C (2,771,351 samples, 0.19%)</title><rect x="43.7" y="245" width="2.2" height="15.0" fill="rgb(242,173,41)" rx="2" ry="2" />
<text  x="46.71" y="255.5" ></text>
</g>
<g >
<title>do_syscall_64 (485,401 samples, 0.03%)</title><rect x="11.1" y="229" width="0.4" height="15.0" fill="rgb(209,20,4)" rx="2" ry="2" />
<text  x="14.09" y="239.5" ></text>
</g>
<g >
<title>all (1,486,834,424 samples, 100%)</title><rect x="10.0" y="293" width="1180.0" height="15.0" fill="rgb(213,39,9)" rx="2" ry="2" />
<text  x="13.00" y="303.5" ></text>
</g>
<g >
<title>__list_del_entry_valid (923,099 samples, 0.06%)</title><rect x="717.1" y="101" width="0.7" height="15.0" fill="rgb(239,158,37)" rx="2" ry="2" />
<text  x="720.10" y="111.5" ></text>
</g>
<g >
<title>do_user_addr_fault (923,473 samples, 0.06%)</title><rect x="109.6" y="213" width="0.7" height="15.0" fill="rgb(228,108,25)" rx="2" ry="2" />
<text  x="112.57" y="223.5" ></text>
</g>
<g >
<title>do_sys_openat2 (455,299 samples, 0.03%)</title><rect x="10.7" y="181" width="0.4" height="15.0" fill="rgb(253,221,52)" rx="2" ry="2" />
<text  x="13.73" y="191.5" ></text>
</g>
<g >
<title>asm_exc_page_fault (2,770,917 samples, 0.19%)</title><rect x="730.7" y="245" width="2.2" height="15.0" fill="rgb(225,93,22)" rx="2" ry="2" />
<text  x="733.66" y="255.5" ></text>
</g>
<g >
<title>w2c_decode__webp__wasmsimd_HE8uv_C (920,818 samples, 0.06%)</title><rect x="34.9" y="245" width="0.7" height="15.0" fill="rgb(218,60,14)" rx="2" ry="2" />
<text  x="37.92" y="255.5" ></text>
</g>
<g >
<title>w2c_decode__webp__wasmsimd_ReconstructRow (54,384,819 samples, 3.66%)</title><rect x="47.4" y="245" width="43.1" height="15.0" fill="rgb(217,55,13)" rx="2" ry="2" />
<text  x="50.38" y="255.5" >w2c_..</text>
</g>
<g >
<title>w2c_decode__webp__wasmsimd_TransformDC_C (4,575,551 samples, 0.31%)</title><rect x="93.5" y="245" width="3.6" height="15.0" fill="rgb(211,27,6)" rx="2" ry="2" />
<text  x="96.47" y="255.5" ></text>
</g>
<g >
<title>do_syscall_64 (455,299 samples, 0.03%)</title><rect x="10.7" y="213" width="0.4" height="15.0" fill="rgb(209,20,4)" rx="2" ry="2" />
<text  x="13.73" y="223.5" ></text>
</g>
<g >
<title>asm_exc_page_fault (923,473 samples, 0.06%)</title><rect x="109.6" y="245" width="0.7" height="15.0" fill="rgb(225,93,22)" rx="2" ry="2" />
<text  x="112.57" y="255.5" ></text>
</g>
<g >
<title>w2c_decode__webp__wasmsimd_DC8uv_C (2,771,589 samples, 0.19%)</title><rect x="111.8" y="261" width="2.2" height="15.0" fill="rgb(206,8,2)" rx="2" ry="2" />
<text  x="114.77" y="271.5" ></text>
</g>
<g >
<title>w2c_decode__webp__wasmsimd_SimpleHFilter16_C (7,295,337 samples, 0.49%)</title><rect x="732.9" y="261" width="5.8" height="15.0" fill="rgb(219,67,16)" rx="2" ry="2" />
<text  x="735.86" y="271.5" ></text>
</g>
<g >
<title>[unknown] (123,612,178 samples, 8.31%)</title><rect x="10.0" y="261" width="98.1" height="15.0" fill="rgb(210,24,5)" rx="2" ry="2" />
<text  x="13.00" y="271.5" >[unknown]</text>
</g>
<g >
<title>asm_exc_page_fault (4,617,412 samples, 0.31%)</title><rect x="716.4" y="245" width="3.6" height="15.0" fill="rgb(225,93,22)" rx="2" ry="2" />
<text  x="719.37" y="255.5" ></text>
</g>
<g >
<title>handle_mm_fault (1,223,416 samples, 0.08%)</title><rect x="1186.8" y="197" width="1.0" height="15.0" fill="rgb(234,135,32)" rx="2" ry="2" />
<text  x="1189.81" y="207.5" ></text>
</g>
<g >
<title>do_syscall_64 (923,164 samples, 0.06%)</title><rect x="110.3" y="229" width="0.7" height="15.0" fill="rgb(209,20,4)" rx="2" ry="2" />
<text  x="113.30" y="239.5" ></text>
</g>
<g >
<title>bpf_lsm_file_mprotect (923,164 samples, 0.06%)</title><rect x="110.3" y="165" width="0.7" height="15.0" fill="rgb(253,221,53)" rx="2" ry="2" />
<text  x="113.30" y="175.5" ></text>
</g>
<g >
<title>__libc_start_call_main (924,016 samples, 0.06%)</title><rect x="10.0" y="229" width="0.7" height="15.0" fill="rgb(210,26,6)" rx="2" ry="2" />
<text  x="13.00" y="239.5" ></text>
</g>
<g >
<title>map_vdso (363,205 samples, 0.02%)</title><rect x="11.2" y="149" width="0.3" height="15.0" fill="rgb(227,103,24)" rx="2" ry="2" />
<text  x="14.19" y="159.5" ></text>
</g>
<g >
<title>do_user_addr_fault (4,617,412 samples, 0.31%)</title><rect x="716.4" y="213" width="3.6" height="15.0" fill="rgb(228,108,25)" rx="2" ry="2" />
<text  x="719.37" y="223.5" ></text>
</g>
<g >
<title>do_syscall_64 (924,016 samples, 0.06%)</title><rect x="10.0" y="181" width="0.7" height="15.0" fill="rgb(209,20,4)" rx="2" ry="2" />
<text  x="13.00" y="191.5" ></text>
</g>
<g >
<title>do_execveat_common.isra.0 (485,401 samples, 0.03%)</title><rect x="11.1" y="197" width="0.4" height="15.0" fill="rgb(231,123,29)" rx="2" ry="2" />
<text  x="14.09" y="207.5" ></text>
</g>
<g >
<title>get_page_from_freelist (3,693,795 samples, 0.25%)</title><rect x="717.1" y="117" width="2.9" height="15.0" fill="rgb(252,218,52)" rx="2" ry="2" />
<text  x="720.10" y="127.5" ></text>
</g>
<g >
<title>__folio_alloc (380,082 samples, 0.03%)</title><rect x="1187.5" y="149" width="0.3" height="15.0" fill="rgb(224,91,21)" rx="2" ry="2" />
<text  x="1190.47" y="159.5" ></text>
</g>
<g >
<title>rmqueue_bulk (923,473 samples, 0.06%)</title><rect x="109.6" y="101" width="0.7" height="15.0" fill="rgb(235,138,33)" rx="2" ry="2" />
<text  x="112.57" y="111.5" ></text>
</g>
<g >
<title>check_preemption_disabled (923,617 samples, 0.06%)</title><rect x="716.4" y="149" width="0.7" height="15.0" fill="rgb(220,73,17)" rx="2" ry="2" />
<text  x="719.37" y="159.5" ></text>
</g>
<g >
<title>vma_alloc_folio (923,473 samples, 0.06%)</title><rect x="109.6" y="165" width="0.7" height="15.0" fill="rgb(245,187,44)" rx="2" ry="2" />
<text  x="112.57" y="175.5" ></text>
</g>
<g >
<title>__x64_sys_munmap (924,016 samples, 0.06%)</title><rect x="10.0" y="165" width="0.7" height="15.0" fill="rgb(206,7,1)" rx="2" ry="2" />
<text  x="13.00" y="175.5" ></text>
</g>
<g >
<title>vma_alloc_folio (3,693,795 samples, 0.25%)</title><rect x="717.1" y="165" width="2.9" height="15.0" fill="rgb(245,187,44)" rx="2" ry="2" />
<text  x="720.10" y="175.5" ></text>
</g>
<g >
<title>do_mas_munmap (924,016 samples, 0.06%)</title><rect x="10.0" y="133" width="0.7" height="15.0" fill="rgb(224,90,21)" rx="2" ry="2" />
<text  x="13.00" y="143.5" ></text>
</g>
<g >
<title>__folio_alloc (3,693,795 samples, 0.25%)</title><rect x="717.1" y="149" width="2.9" height="15.0" fill="rgb(224,91,21)" rx="2" ry="2" />
<text  x="720.10" y="159.5" ></text>
</g>
<g >
<title>tlb_batch_pages_flush (924,016 samples, 0.06%)</title><rect x="10.0" y="69" width="0.7" height="15.0" fill="rgb(234,133,32)" rx="2" ry="2" />
<text  x="13.00" y="79.5" ></text>
</g>
<g >
<title>handle_mm_fault (4,617,412 samples, 0.31%)</title><rect x="716.4" y="197" width="3.6" height="15.0" fill="rgb(234,135,32)" rx="2" ry="2" />
<text  x="719.37" y="207.5" ></text>
</g>
<g >
<title>__handle_mm_fault (923,473 samples, 0.06%)</title><rect x="109.6" y="181" width="0.7" height="15.0" fill="rgb(207,9,2)" rx="2" ry="2" />
<text  x="112.57" y="191.5" ></text>
</g>
</g>
</svg>
