<?xml version="1.0" standalone="no"?>
<!DOCTYPE svg PUBLIC "-//W3C//DTD SVG 1.1//EN" "http://www.w3.org/Graphics/SVG/1.1/DTD/svg11.dtd">
<svg version="1.1" width="1200" height="326" onload="init(evt)" viewBox="0 0 1200 326" xmlns="http://www.w3.org/2000/svg" xmlns:xlink="http://www.w3.org/1999/xlink">
<!-- Flame graph stack visualization. See https://github.com/brendangregg/FlameGraph for latest version, and http://www.brendangregg.com/flamegraphs.html for examples. -->
<!-- NOTES:  -->
<defs>
	<linearGradient id="background" y1="0" y2="1" x1="0" x2="0" >
		<stop stop-color="#eeeeee" offset="5%" />
		<stop stop-color="#eeeeb0" offset="95%" />
	</linearGradient>
</defs>
<style type="text/css">
	text { font-family:Verdana; font-size:12px; fill:rgb(0,0,0); }
	#search, #ignorecase { opacity:0.1; cursor:pointer; }
	#search:hover, #search.show, #ignorecase:hover, #ignorecase.show { opacity:1; }
	#subtitle { text-anchor:middle; font-color:rgb(160,160,160); }
	#title { text-anchor:middle; font-size:17px}
	#unzoom { cursor:pointer; }
	#frames > *:hover { stroke:black; stroke-width:0.5; cursor:pointer; }
	.hide { display:none; }
	.parent { opacity:0.5; }
</style>
<script type="text/ecmascript">
<![CDATA[
	"use strict";
	var details, searchbtn, unzoombtn, matchedtxt, svg, searching, currentSearchTerm, ignorecase, ignorecaseBtn;
	function init(evt) {
		details = document.getElementById("details").firstChild;
		searchbtn = document.getElementById("search");
		ignorecaseBtn = document.getElementById("ignorecase");
		unzoombtn = document.getElementById("unzoom");
		matchedtxt = document.getElementById("matched");
		svg = document.getElementsByTagName("svg")[0];
		searching = 0;
		currentSearchTerm = null;

		// use GET parameters to restore a flamegraphs state.
		var params = get_params();
		if (params.x && params.y)
			zoom(find_group(document.querySelector('[x="' + params.x + '"][y="' + params.y + '"]')));
                if (params.s) search(params.s);
	}

	// event listeners
	window.addEventListener("click", function(e) {
		var target = find_group(e.target);
		if (target) {
			if (target.nodeName == "a") {
				if (e.ctrlKey === false) return;
				e.preventDefault();
			}
			if (target.classList.contains("parent")) unzoom(true);
			zoom(target);
			if (!document.querySelector('.parent')) {
				// we have basically done a clearzoom so clear the url
				var params = get_params();
				if (params.x) delete params.x;
				if (params.y) delete params.y;
				history.replaceState(null, null, parse_params(params));
				unzoombtn.classList.add("hide");
				return;
			}

			// set parameters for zoom state
			var el = target.querySelector("rect");
			if (el && el.attributes && el.attributes.y && el.attributes._orig_x) {
				var params = get_params()
				params.x = el.attributes._orig_x.value;
				params.y = el.attributes.y.value;
				history.replaceState(null, null, parse_params(params));
			}
		}
		else if (e.target.id == "unzoom") clearzoom();
		else if (e.target.id == "search") search_prompt();
		else if (e.target.id == "ignorecase") toggle_ignorecase();
	}, false)

	// mouse-over for info
	// show
	window.addEventListener("mouseover", function(e) {
		var target = find_group(e.target);
		if (target) details.nodeValue = "Function: " + g_to_text(target);
	}, false)

	// clear
	window.addEventListener("mouseout", function(e) {
		var target = find_group(e.target);
		if (target) details.nodeValue = ' ';
	}, false)

	// ctrl-F for search
	// ctrl-I to toggle case-sensitive search
	window.addEventListener("keydown",function (e) {
		if (e.keyCode === 114 || (e.ctrlKey && e.keyCode === 70)) {
			e.preventDefault();
			search_prompt();
		}
		else if (e.ctrlKey && e.keyCode === 73) {
			e.preventDefault();
			toggle_ignorecase();
		}
	}, false)

	// functions
	function get_params() {
		var params = {};
		var paramsarr = window.location.search.substr(1).split('&');
		for (var i = 0; i < paramsarr.length; ++i) {
			var tmp = paramsarr[i].split("=");
			if (!tmp[0] || !tmp[1]) continue;
			params[tmp[0]]  = decodeURIComponent(tmp[1]);
		}
		return params;
	}
	function parse_params(params) {
		var uri = "?";
		for (var key in params) {
			uri += key + '=' + encodeURIComponent(params[key]) + '&';
		}
		if (uri.slice(-1) == "&")
			uri = uri.substring(0, uri.length - 1);
		if (uri == '?')
			uri = window.location.href.split('?')[0];
		return uri;
	}
	function find_child(node, selector) {
		var children = node.querySelectorAll(selector);
		if (children.length) return children[0];
	}
	function find_group(node) {
		var parent = node.parentElement;
		if (!parent) return;
		if (parent.id == "frames") return node;
		return find_group(parent);
	}
	function orig_save(e, attr, val) {
		if (e.attributes["_orig_" + attr] != undefined) return;
		if (e.attributes[attr] == undefined) return;
		if (val == undefined) val = e.attributes[attr].value;
		e.setAttribute("_orig_" + attr, val);
	}
	function orig_load(e, attr) {
		if (e.attributes["_orig_"+attr] == undefined) return;
		e.attributes[attr].value = e.attributes["_orig_" + attr].value;
		e.removeAttribute("_orig_"+attr);
	}
	function g_to_text(e) {
		var text = find_child(e, "title").firstChild.nodeValue;
		return (text)
	}
	function g_to_func(e) {
		var func = g_to_text(e);
		// if there's any manipulation we want to do to the function
		// name before it's searched, do it here before returning.
		return (func);
	}
	function update_text(e) {
		var r = find_child(e, "rect");
		var t = find_child(e, "text");
		var w = parseFloat(r.attributes.width.value) -3;
		var txt = find_child(e, "title").textContent.replace(/\([^(]*\)$/,"");
		t.attributes.x.value = parseFloat(r.attributes.x.value) + 3;

		// Smaller than this size won't fit anything
		if (w < 2 * 12 * 0.59) {
			t.textContent = "";
			return;
		}

		t.textContent = txt;
		var sl = t.getSubStringLength(0, txt.length);
		// check if only whitespace or if we can fit the entire string into width w
		if (/^ *$/.test(txt) || sl < w)
			return;

		// this isn't perfect, but gives a good starting point
		// and avoids calling getSubStringLength too often
		var start = Math.floor((w/sl) * txt.length);
		for (var x = start; x > 0; x = x-2) {
			if (t.getSubStringLength(0, x + 2) <= w) {
				t.textContent = txt.substring(0, x) + "..";
				return;
			}
		}
		t.textContent = "";
	}

	// zoom
	function zoom_reset(e) {
		if (e.attributes != undefined) {
			orig_load(e, "x");
			orig_load(e, "width");
		}
		if (e.childNodes == undefined) return;
		for (var i = 0, c = e.childNodes; i < c.length; i++) {
			zoom_reset(c[i]);
		}
	}
	function zoom_child(e, x, ratio) {
		if (e.attributes != undefined) {
			if (e.attributes.x != undefined) {
				orig_save(e, "x");
				e.attributes.x.value = (parseFloat(e.attributes.x.value) - x - 10) * ratio + 10;
				if (e.tagName == "text")
					e.attributes.x.value = find_child(e.parentNode, "rect[x]").attributes.x.value + 3;
			}
			if (e.attributes.width != undefined) {
				orig_save(e, "width");
				e.attributes.width.value = parseFloat(e.attributes.width.value) * ratio;
			}
		}

		if (e.childNodes == undefined) return;
		for (var i = 0, c = e.childNodes; i < c.length; i++) {
			zoom_child(c[i], x - 10, ratio);
		}
	}
	function zoom_parent(e) {
		if (e.attributes) {
			if (e.attributes.x != undefined) {
				orig_save(e, "x");
				e.attributes.x.value = 10;
			}
			if (e.attributes.width != undefined) {
				orig_save(e, "width");
				e.attributes.width.value = parseInt(svg.width.baseVal.value) - (10 * 2);
			}
		}
		if (e.childNodes == undefined) return;
		for (var i = 0, c = e.childNodes; i < c.length; i++) {
			zoom_parent(c[i]);
		}
	}
	function zoom(node) {
		var attr = find_child(node, "rect").attributes;
		var width = parseFloat(attr.width.value);
		var xmin = parseFloat(attr.x.value);
		var xmax = parseFloat(xmin + width);
		var ymin = parseFloat(attr.y.value);
		var ratio = (svg.width.baseVal.value - 2 * 10) / width;

		// XXX: Workaround for JavaScript float issues (fix me)
		var fudge = 0.0001;

		unzoombtn.classList.remove("hide");

		var el = document.getElementById("frames").children;
		for (var i = 0; i < el.length; i++) {
			var e = el[i];
			var a = find_child(e, "rect").attributes;
			var ex = parseFloat(a.x.value);
			var ew = parseFloat(a.width.value);
			var upstack;
			// Is it an ancestor
			if (0 == 0) {
				upstack = parseFloat(a.y.value) > ymin;
			} else {
				upstack = parseFloat(a.y.value) < ymin;
			}
			if (upstack) {
				// Direct ancestor
				if (ex <= xmin && (ex+ew+fudge) >= xmax) {
					e.classList.add("parent");
					zoom_parent(e);
					update_text(e);
				}
				// not in current path
				else
					e.classList.add("hide");
			}
			// Children maybe
			else {
				// no common path
				if (ex < xmin || ex + fudge >= xmax) {
					e.classList.add("hide");
				}
				else {
					zoom_child(e, xmin, ratio);
					update_text(e);
				}
			}
		}
		search();
	}
	function unzoom(dont_update_text) {
		unzoombtn.classList.add("hide");
		var el = document.getElementById("frames").children;
		for(var i = 0; i < el.length; i++) {
			el[i].classList.remove("parent");
			el[i].classList.remove("hide");
			zoom_reset(el[i]);
			if(!dont_update_text) update_text(el[i]);
		}
		search();
	}
	function clearzoom() {
		unzoom();

		// remove zoom state
		var params = get_params();
		if (params.x) delete params.x;
		if (params.y) delete params.y;
		history.replaceState(null, null, parse_params(params));
	}

	// search
	function toggle_ignorecase() {
		ignorecase = !ignorecase;
		if (ignorecase) {
			ignorecaseBtn.classList.add("show");
		} else {
			ignorecaseBtn.classList.remove("show");
		}
		reset_search();
		search();
	}
	function reset_search() {
		var el = document.querySelectorAll("#frames rect");
		for (var i = 0; i < el.length; i++) {
			orig_load(el[i], "fill")
		}
		var params = get_params();
		delete params.s;
		history.replaceState(null, null, parse_params(params));
	}
	function search_prompt() {
		if (!searching) {
			var term = prompt("Enter a search term (regexp " +
			    "allowed, eg: ^ext4_)"
			    + (ignorecase ? ", ignoring case" : "")
			    + "\nPress Ctrl-i to toggle case sensitivity", "");
			if (term != null) search(term);
		} else {
			reset_search();
			searching = 0;
			currentSearchTerm = null;
			searchbtn.classList.remove("show");
			searchbtn.firstChild.nodeValue = "Search"
			matchedtxt.classList.add("hide");
			matchedtxt.firstChild.nodeValue = ""
		}
	}
	function search(term) {
		if (term) currentSearchTerm = term;

		var re = new RegExp(currentSearchTerm, ignorecase ? 'i' : '');
		var el = document.getElementById("frames").children;
		var matches = new Object();
		var maxwidth = 0;
		for (var i = 0; i < el.length; i++) {
			var e = el[i];
			var func = g_to_func(e);
			var rect = find_child(e, "rect");
			if (func == null || rect == null)
				continue;

			// Save max width. Only works as we have a root frame
			var w = parseFloat(rect.attributes.width.value);
			if (w > maxwidth)
				maxwidth = w;

			if (func.match(re)) {
				// highlight
				var x = parseFloat(rect.attributes.x.value);
				orig_save(rect, "fill");
				rect.attributes.fill.value = "rgb(230,0,230)";

				// remember matches
				if (matches[x] == undefined) {
					matches[x] = w;
				} else {
					if (w > matches[x]) {
						// overwrite with parent
						matches[x] = w;
					}
				}
				searching = 1;
			}
		}
		if (!searching)
			return;
		var params = get_params();
		params.s = currentSearchTerm;
		history.replaceState(null, null, parse_params(params));

		searchbtn.classList.add("show");
		searchbtn.firstChild.nodeValue = "Reset Search";

		// calculate percent matched, excluding vertical overlap
		var count = 0;
		var lastx = -1;
		var lastw = 0;
		var keys = Array();
		for (k in matches) {
			if (matches.hasOwnProperty(k))
				keys.push(k);
		}
		// sort the matched frames by their x location
		// ascending, then width descending
		keys.sort(function(a, b){
			return a - b;
		});
		// Step through frames saving only the biggest bottom-up frames
		// thanks to the sort order. This relies on the tree property
		// where children are always smaller than their parents.
		var fudge = 0.0001;	// JavaScript floating point
		for (var k in keys) {
			var x = parseFloat(keys[k]);
			var w = matches[keys[k]];
			if (x >= lastx + lastw - fudge) {
				count += w;
				lastx = x;
				lastw = w;
			}
		}
		// display matched percent
		matchedtxt.classList.remove("hide");
		var pct = 100 * count / maxwidth;
		if (pct != 100) pct = pct.toFixed(1)
		matchedtxt.firstChild.nodeValue = "Matched: " + pct + "%";
	}
]]>
</script>
<rect x="0.0" y="0" width="1200.0" height="326.0" fill="url(#background)"  />
<text id="title" x="600.00" y="24" >Flame Graph</text>
<text id="details" x="10.00" y="309" > </text>
<text id="unzoom" x="10.00" y="24" class="hide">Reset Zoom</text>
<text id="search" x="1090.00" y="24" >Search</text>
<text id="ignorecase" x="1174.00" y="24" >ic</text>
<text id="matched" x="1090.00" y="309" > </text>
<g id="frames">
<g >
<title>lock_mm_and_find_vma (924,341 samples, 0.11%)</title><rect x="1163.2" y="149" width="1.2" height="15.0" fill="rgb(235,138,33)" rx="2" ry="2" />
<text  x="1166.16" y="159.5" ></text>
</g>
<g >
<title>__memmove_avx_unaligned_erms (18,575,646 samples, 2.19%)</title><rect x="1139.9" y="213" width="25.8" height="15.0" fill="rgb(205,0,0)" rx="2" ry="2" />
<text  x="1142.85" y="223.5" >_..</text>
</g>
<g >
<title>__mmput (8,322,289 samples, 0.98%)</title><rect x="1177.1" y="165" width="11.6" height="15.0" fill="rgb(249,203,48)" rx="2" ry="2" />
<text  x="1180.08" y="175.5" ></text>
</g>
<g >
<title>VP8DecodeMB (4,618,229 samples, 0.55%)</title><rect x="525.1" y="245" width="6.4" height="15.0" fill="rgb(208,18,4)" rx="2" ry="2" />
<text  x="528.11" y="255.5" ></text>
</g>
<g >
<title>[unknown] (447,319,253 samples, 52.80%)</title><rect x="545.2" y="245" width="623.1" height="15.0" fill="rgb(210,24,5)" rx="2" ry="2" />
<text  x="548.23" y="255.5" >[unknown]</text>
</g>
<g >
<title>_raw_spin_trylock (924,272 samples, 0.11%)</title><rect x="852.2" y="53" width="1.3" height="15.0" fill="rgb(222,80,19)" rx="2" ry="2" />
<text  x="855.23" y="63.5" ></text>
</g>
<g >
<title>handle_mm_fault (12,106,849 samples, 1.43%)</title><rect x="1146.3" y="149" width="16.9" height="15.0" fill="rgb(234,135,32)" rx="2" ry="2" />
<text  x="1149.29" y="159.5" ></text>
</g>
<g >
<title>TransformDCUV_C (924,052 samples, 0.11%)</title><rect x="664.5" y="229" width="1.2" height="15.0" fill="rgb(214,44,10)" rx="2" ry="2" />
<text  x="667.46" y="239.5" ></text>
</g>
<g >
<title>vfs_statx (454,894 samples, 0.05%)</title><rect x="1165.7" y="149" width="0.7" height="15.0" fill="rgb(242,172,41)" rx="2" ry="2" />
<text  x="1168.73" y="159.5" ></text>
</g>
<g >
<title>HFilter8i_C (5,462,710 samples, 0.64%)</title><rect x="634.0" y="229" width="7.6" height="15.0" fill="rgb(245,186,44)" rx="2" ry="2" />
<text  x="636.99" y="239.5" ></text>
</g>
<g >
<title>entry_SYSCALL_64_after_hwframe (454,894 samples, 0.05%)</title><rect x="1165.7" y="213" width="0.7" height="15.0" fill="rgb(218,63,15)" rx="2" ry="2" />
<text  x="1168.73" y="223.5" ></text>
</g>
<g >
<title>vma_alloc_folio (3,694,840 samples, 0.44%)</title><rect x="852.2" y="117" width="5.2" height="15.0" fill="rgb(245,187,44)" rx="2" ry="2" />
<text  x="855.23" y="127.5" ></text>
</g>
<g >
<title>LD4_C (922,996 samples, 0.11%)</title><rect x="227.2" y="245" width="1.3" height="15.0" fill="rgb(250,211,50)" rx="2" ry="2" />
<text  x="230.25" y="255.5" ></text>
</g>
<g >
<title>FilterLoop26_C (45,644,586 samples, 5.39%)</title><rect x="105.9" y="245" width="63.5" height="15.0" fill="rgb(230,116,27)" rx="2" ry="2" />
<text  x="108.85" y="255.5" >Filter..</text>
</g>
<g >
<title>asm_exc_page_fault (432,967 samples, 0.05%)</title><rect x="747.0" y="213" width="0.6" height="15.0" fill="rgb(225,93,22)" rx="2" ry="2" />
<text  x="750.00" y="223.5" ></text>
</g>
<g >
<title>GetCoeffsFast (3,695,782 samples, 0.44%)</title><rect x="170.7" y="245" width="5.2" height="15.0" fill="rgb(219,64,15)" rx="2" ry="2" />
<text  x="173.72" y="255.5" ></text>
</g>
<g >
<title>HFilter16_C (23,092,458 samples, 2.73%)</title><rect x="601.8" y="229" width="32.2" height="15.0" fill="rgb(220,69,16)" rx="2" ry="2" />
<text  x="604.82" y="239.5" >HF..</text>
</g>
<g >
<title>IDecode (1,847,987 samples, 0.22%)</title><rect x="641.6" y="229" width="2.6" height="15.0" fill="rgb(245,185,44)" rx="2" ry="2" />
<text  x="644.60" y="239.5" ></text>
</g>
<g >
<title>HFilter16i_C (29,489,907 samples, 3.48%)</title><rect x="184.9" y="245" width="41.1" height="15.0" fill="rgb(241,169,40)" rx="2" ry="2" />
<text  x="187.88" y="255.5" >HFi..</text>
</g>
<g >
<title>mem_cgroup_update_lru_size (924,305 samples, 0.11%)</title><rect x="1183.5" y="85" width="1.3" height="15.0" fill="rgb(205,0,0)" rx="2" ry="2" />
<text  x="1186.52" y="95.5" ></text>
</g>
<g >
<title>__mod_memcg_lruvec_state (926,449 samples, 0.11%)</title><rect x="1177.1" y="85" width="1.3" height="15.0" fill="rgb(247,195,46)" rx="2" ry="2" />
<text  x="1180.08" y="95.5" ></text>
</g>
<g >
<title>page_add_new_anon_rmap (923,291 samples, 0.11%)</title><rect x="1151.4" y="117" width="1.3" height="15.0" fill="rgb(235,138,33)" rx="2" ry="2" />
<text  x="1154.44" y="127.5" ></text>
</g>
<g >
<title>check_preemption_disabled (926,449 samples, 0.11%)</title><rect x="1177.1" y="69" width="1.3" height="15.0" fill="rgb(220,73,17)" rx="2" ry="2" />
<text  x="1180.08" y="79.5" ></text>
</g>
<g >
<title>__mem_cgroup_charge (1,845,843 samples, 0.22%)</title><rect x="1148.9" y="117" width="2.5" height="15.0" fill="rgb(218,60,14)" rx="2" ry="2" />
<text  x="1151.87" y="127.5" ></text>
</g>
<g >
<title>TransformTwo_C (924,399 samples, 0.11%)</title><rect x="257.3" y="245" width="1.3" height="15.0" fill="rgb(212,36,8)" rx="2" ry="2" />
<text  x="260.33" y="255.5" ></text>
</g>
<g >
<title>ReconstructRow (5,543,841 samples, 0.65%)</title><rect x="229.8" y="245" width="7.7" height="15.0" fill="rgb(225,93,22)" rx="2" ry="2" />
<text  x="232.82" y="255.5" ></text>
</g>
<g >
<title>do_user_addr_fault (13,031,190 samples, 1.54%)</title><rect x="1146.3" y="165" width="18.1" height="15.0" fill="rgb(228,108,25)" rx="2" ry="2" />
<text  x="1149.29" y="175.5" ></text>
</g>
<g >
<title>FilterLoop26_C (924,317 samples, 0.11%)</title><rect x="547.8" y="229" width="1.3" height="15.0" fill="rgb(230,116,27)" rx="2" ry="2" />
<text  x="550.81" y="239.5" ></text>
</g>
<g >
<title>do_exit (8,322,289 samples, 0.98%)</title><rect x="1177.1" y="181" width="11.6" height="15.0" fill="rgb(231,122,29)" rx="2" ry="2" />
<text  x="1180.08" y="191.5" ></text>
</g>
<g >
<title>__count_memcg_events (1,845,843 samples, 0.22%)</title><rect x="1148.9" y="69" width="2.5" height="15.0" fill="rgb(250,211,50)" rx="2" ry="2" />
<text  x="1151.87" y="79.5" ></text>
</g>
<g >
<title>VL4_C (2,770,122 samples, 0.33%)</title><rect x="521.2" y="245" width="3.9" height="15.0" fill="rgb(234,136,32)" rx="2" ry="2" />
<text  x="524.25" y="255.5" ></text>
</g>
<g >
<title>__memmove_avx_unaligned_erms (923,168 samples, 0.11%)</title><rect x="1166.4" y="229" width="1.2" height="15.0" fill="rgb(205,0,0)" rx="2" ry="2" />
<text  x="1169.36" y="239.5" ></text>
</g>
<g >
<title>GetCoeffsFast (193,185,784 samples, 22.80%)</title><rect x="860.0" y="213" width="269.1" height="15.0" fill="rgb(219,64,15)" rx="2" ry="2" />
<text  x="862.95" y="223.5" >GetCoeffsFast</text>
</g>
<g >
<title>sysmalloc (923,519 samples, 0.11%)</title><rect x="1188.7" y="245" width="1.3" height="15.0" fill="rgb(213,38,9)" rx="2" ry="2" />
<text  x="1191.67" y="255.5" ></text>
</g>
<g >
<title>get_page_from_freelist (3,694,840 samples, 0.44%)</title><rect x="852.2" y="69" width="5.2" height="15.0" fill="rgb(252,218,52)" rx="2" ry="2" />
<text  x="855.23" y="79.5" ></text>
</g>
<g >
<title>GetCoeffsFast (4,619,413 samples, 0.55%)</title><rect x="549.1" y="229" width="6.4" height="15.0" fill="rgb(219,64,15)" rx="2" ry="2" />
<text  x="552.10" y="239.5" ></text>
</g>
<g >
<title>down_read_trylock (924,341 samples, 0.11%)</title><rect x="1163.2" y="133" width="1.2" height="15.0" fill="rgb(219,66,15)" rx="2" ry="2" />
<text  x="1166.16" y="143.5" ></text>
</g>
<g >
<title>handle_mm_fault (2,585,711 samples, 0.31%)</title><rect x="1172.2" y="181" width="3.6" height="15.0" fill="rgb(234,135,32)" rx="2" ry="2" />
<text  x="1175.19" y="191.5" ></text>
</g>
<g >
<title>TransformDC_C (1,846,834 samples, 0.22%)</title><rect x="665.7" y="229" width="2.6" height="15.0" fill="rgb(219,65,15)" rx="2" ry="2" />
<text  x="668.75" y="239.5" ></text>
</g>
<g >
<title>map_vdso (363,530 samples, 0.04%)</title><rect x="1167.8" y="133" width="0.5" height="15.0" fill="rgb(227,103,24)" rx="2" ry="2" />
<text  x="1170.82" y="143.5" ></text>
</g>
<g >
<title>TransformOne_C (54,636,463 samples, 6.45%)</title><rect x="668.3" y="229" width="76.1" height="15.0" fill="rgb(218,59,14)" rx="2" ry="2" />
<text  x="671.32" y="239.5" >Transfor..</text>
</g>
<g >
<title>__folio_alloc (3,694,840 samples, 0.44%)</title><rect x="852.2" y="101" width="5.2" height="15.0" fill="rgb(224,91,21)" rx="2" ry="2" />
<text  x="855.23" y="111.5" ></text>
</g>
<g >
<title>up_read (923,028 samples, 0.11%)</title><rect x="858.7" y="149" width="1.3" height="15.0" fill="rgb(209,18,4)" rx="2" ry="2" />
<text  x="861.67" y="159.5" ></text>
</g>
<g >
<title>security_bprm_committed_creds (123,918 samples, 0.01%)</title><rect x="1167.6" y="117" width="0.2" height="15.0" fill="rgb(231,121,29)" rx="2" ry="2" />
<text  x="1170.65" y="127.5" ></text>
</g>
<g >
<title>vma_alloc_folio (6,565,997 samples, 0.78%)</title><rect x="1152.7" y="117" width="9.2" height="15.0" fill="rgb(245,187,44)" rx="2" ry="2" />
<text  x="1155.72" y="127.5" ></text>
</g>
<g >
<title>UpsampleRgbaLinePair_C (1,356,330 samples, 0.16%)</title><rect x="745.7" y="229" width="1.9" height="15.0" fill="rgb(252,216,51)" rx="2" ry="2" />
<text  x="748.71" y="239.5" ></text>
</g>
<g >
<title>__list_del_entry_valid (1,945,942 samples, 0.23%)</title><rect x="1159.2" y="37" width="2.7" height="15.0" fill="rgb(239,158,37)" rx="2" ry="2" />
<text  x="1162.16" y="47.5" ></text>
</g>
<g >
<title>ExtractGreen_C (11,085,289 samples, 1.31%)</title><rect x="72.4" y="245" width="15.4" height="15.0" fill="rgb(234,134,32)" rx="2" ry="2" />
<text  x="75.41" y="255.5" ></text>
</g>
<g >
<title>VP8ParseIntraModeRow (31,329,885 samples, 3.70%)</title><rect x="777.8" y="229" width="43.6" height="15.0" fill="rgb(231,121,29)" rx="2" ry="2" />
<text  x="780.76" y="239.5" >VP8P..</text>
</g>
<g >
<title>VP8GetHeaders (923,007 samples, 0.11%)</title><rect x="531.5" y="245" width="1.3" height="15.0" fill="rgb(247,193,46)" rx="2" ry="2" />
<text  x="534.54" y="255.5" ></text>
</g>
<g >
<title>VP8DecodeMB (20,725,179 samples, 2.45%)</title><rect x="748.9" y="229" width="28.9" height="15.0" fill="rgb(208,18,4)" rx="2" ry="2" />
<text  x="751.89" y="239.5" >VP..</text>
</g>
<g >
<title>vfs_fstatat (454,894 samples, 0.05%)</title><rect x="1165.7" y="165" width="0.7" height="15.0" fill="rgb(232,127,30)" rx="2" ry="2" />
<text  x="1168.73" y="175.5" ></text>
</g>
<g >
<title>release_pages (5,549,765 samples, 0.66%)</title><rect x="1177.1" y="101" width="7.7" height="15.0" fill="rgb(228,106,25)" rx="2" ry="2" />
<text  x="1180.08" y="111.5" ></text>
</g>
<g >
<title>load_elf_binary (487,448 samples, 0.06%)</title><rect x="1167.6" y="149" width="0.7" height="15.0" fill="rgb(223,83,20)" rx="2" ry="2" />
<text  x="1170.65" y="159.5" ></text>
</g>
<g >
<title>VFilter16i_C (28,413,340 samples, 3.35%)</title><rect x="481.7" y="245" width="39.5" height="15.0" fill="rgb(251,213,51)" rx="2" ry="2" />
<text  x="484.67" y="255.5" >VFi..</text>
</g>
<g >
<title>clear_page_rep (2,770,568 samples, 0.33%)</title><rect x="853.5" y="53" width="3.9" height="15.0" fill="rgb(253,221,52)" rx="2" ry="2" />
<text  x="856.52" y="63.5" ></text>
</g>
<g >
<title>BuildHuffmanTable (4,617,955 samples, 0.55%)</title><rect x="10.0" y="245" width="6.4" height="15.0" fill="rgb(226,101,24)" rx="2" ry="2" />
<text  x="13.00" y="255.5" ></text>
</g>
<g >
<title>EmitFancyRGB (924,202 samples, 0.11%)</title><rect x="546.5" y="229" width="1.3" height="15.0" fill="rgb(210,26,6)" rx="2" ry="2" />
<text  x="549.52" y="239.5" ></text>
</g>
<g >
<title>get_page_from_freelist (6,565,997 samples, 0.78%)</title><rect x="1152.7" y="69" width="9.2" height="15.0" fill="rgb(252,218,52)" rx="2" ry="2" />
<text  x="1155.72" y="79.5" ></text>
</g>
<g >
<title>mem_cgroup_from_task (923,835 samples, 0.11%)</title><rect x="1161.9" y="133" width="1.3" height="15.0" fill="rgb(247,195,46)" rx="2" ry="2" />
<text  x="1164.87" y="143.5" ></text>
</g>
<g >
<title>TransformDC_C (2,208,413 samples, 0.26%)</title><rect x="254.3" y="245" width="3.0" height="15.0" fill="rgb(219,65,15)" rx="2" ry="2" />
<text  x="257.25" y="255.5" ></text>
</g>
<g >
<title>exc_page_fault (923,519 samples, 0.11%)</title><rect x="1188.7" y="213" width="1.3" height="15.0" fill="rgb(212,35,8)" rx="2" ry="2" />
<text  x="1191.67" y="223.5" ></text>
</g>
<g >
<title>TransformAC3_C (7,390,404 samples, 0.87%)</title><rect x="244.0" y="245" width="10.3" height="15.0" fill="rgb(209,19,4)" rx="2" ry="2" />
<text  x="246.96" y="255.5" ></text>
</g>
<g >
<title>check_preemption_disabled (923,026 samples, 0.11%)</title><rect x="1174.5" y="85" width="1.3" height="15.0" fill="rgb(220,73,17)" rx="2" ry="2" />
<text  x="1177.50" y="95.5" ></text>
</g>
<g >
<title>__handle_mm_fault (2,585,711 samples, 0.31%)</title><rect x="1172.2" y="165" width="3.6" height="15.0" fill="rgb(207,9,2)" rx="2" ry="2" />
<text  x="1175.19" y="175.5" ></text>
</g>
<g >
<title>VE8uv_C (923,468 samples, 0.11%)</title><rect x="747.6" y="229" width="1.3" height="15.0" fill="rgb(235,142,34)" rx="2" ry="2" />
<text  x="750.60" y="239.5" ></text>
</g>
<g >
<title>__mem_cgroup_charge (924,154 samples, 0.11%)</title><rect x="849.7" y="117" width="1.2" height="15.0" fill="rgb(218,60,14)" rx="2" ry="2" />
<text  x="852.66" y="127.5" ></text>
</g>
<g >
<title>FinishRow (924,452 samples, 0.11%)</title><rect x="169.4" y="245" width="1.3" height="15.0" fill="rgb(213,41,9)" rx="2" ry="2" />
<text  x="172.44" y="255.5" ></text>
</g>
<g >
<title>strlen (363,530 samples, 0.04%)</title><rect x="1167.8" y="85" width="0.5" height="15.0" fill="rgb(224,88,21)" rx="2" ry="2" />
<text  x="1170.82" y="95.5" ></text>
</g>
<g >
<title>__folio_alloc (6,565,997 samples, 0.78%)</title><rect x="1152.7" y="101" width="9.2" height="15.0" fill="rgb(224,91,21)" rx="2" ry="2" />
<text  x="1155.72" y="111.5" ></text>
</g>
<g >
<title>irqentry_exit_to_user_mode (923,759 samples, 0.11%)</title><rect x="1164.4" y="181" width="1.3" height="15.0" fill="rgb(254,229,54)" rx="2" ry="2" />
<text  x="1167.44" y="191.5" ></text>
</g>
<g >
<title>fpregs_assert_state_consistent (924,015 samples, 0.11%)</title><rect x="1175.8" y="181" width="1.3" height="15.0" fill="rgb(228,109,26)" rx="2" ry="2" />
<text  x="1178.79" y="191.5" ></text>
</g>
<g >
<title>__mod_lruvec_page_state (923,989 samples, 0.11%)</title><rect x="850.9" y="101" width="1.3" height="15.0" fill="rgb(245,185,44)" rx="2" ry="2" />
<text  x="853.95" y="111.5" ></text>
</g>
<g >
<title>decode_webp_nat (847,091,029 samples, 100.00%)</title><rect x="10.0" y="261" width="1180.0" height="15.0" fill="rgb(218,61,14)" rx="2" ry="2" />
<text  x="13.00" y="271.5" >decode_webp_nat</text>
</g>
<g >
<title>DecodeImageData (27,678,039 samples, 3.27%)</title><rect x="821.4" y="213" width="38.6" height="15.0" fill="rgb(254,229,54)" rx="2" ry="2" />
<text  x="824.40" y="223.5" >Dec..</text>
</g>
<g >
<title>__do_sys_newfstatat (454,894 samples, 0.05%)</title><rect x="1165.7" y="181" width="0.7" height="15.0" fill="rgb(243,177,42)" rx="2" ry="2" />
<text  x="1168.73" y="191.5" ></text>
</g>
<g >
<title>__alloc_pages (3,694,840 samples, 0.44%)</title><rect x="852.2" y="85" width="5.2" height="15.0" fill="rgb(233,129,30)" rx="2" ry="2" />
<text  x="855.23" y="95.5" ></text>
</g>
<g >
<title>perf_event_mmap (363,530 samples, 0.04%)</title><rect x="1167.8" y="101" width="0.5" height="15.0" fill="rgb(229,112,26)" rx="2" ry="2" />
<text  x="1170.82" y="111.5" ></text>
</g>
<g >
<title>do_execveat_common.isra.0 (487,448 samples, 0.06%)</title><rect x="1167.6" y="181" width="0.7" height="15.0" fill="rgb(231,123,29)" rx="2" ry="2" />
<text  x="1170.65" y="191.5" ></text>
</g>
<g >
<title>__mod_lruvec_page_state (923,291 samples, 0.11%)</title><rect x="1151.4" y="101" width="1.3" height="15.0" fill="rgb(245,185,44)" rx="2" ry="2" />
<text  x="1154.44" y="111.5" ></text>
</g>
<g >
<title>do_syscall_64 (454,894 samples, 0.05%)</title><rect x="1165.7" y="197" width="0.7" height="15.0" fill="rgb(209,20,4)" rx="2" ry="2" />
<text  x="1168.73" y="207.5" ></text>
</g>
<g >
<title>DispatchAlpha_C (37,410,242 samples, 4.42%)</title><rect x="20.3" y="245" width="52.1" height="15.0" fill="rgb(206,5,1)" rx="2" ry="2" />
<text  x="23.29" y="255.5" >Dispa..</text>
</g>
<g >
<title>__mod_node_page_state (923,989 samples, 0.11%)</title><rect x="850.9" y="69" width="1.3" height="15.0" fill="rgb(213,38,9)" rx="2" ry="2" />
<text  x="853.95" y="79.5" ></text>
</g>
<g >
<title>GetLargeValue (32,311,110 samples, 3.81%)</title><rect x="555.5" y="229" width="45.0" height="15.0" fill="rgb(243,175,42)" rx="2" ry="2" />
<text  x="558.53" y="239.5" >GetL..</text>
</g>
<g >
<title>GetLargeValue (4,060,988 samples, 0.48%)</title><rect x="1129.1" y="213" width="5.6" height="15.0" fill="rgb(243,175,42)" rx="2" ry="2" />
<text  x="1132.05" y="223.5" ></text>
</g>
<g >
<title>TM4_C (4,604,981 samples, 0.54%)</title><rect x="237.5" y="245" width="6.5" height="15.0" fill="rgb(241,165,39)" rx="2" ry="2" />
<text  x="240.55" y="255.5" ></text>
</g>
<g >
<title>do_user_addr_fault (923,519 samples, 0.11%)</title><rect x="1188.7" y="197" width="1.3" height="15.0" fill="rgb(228,108,25)" rx="2" ry="2" />
<text  x="1191.67" y="207.5" ></text>
</g>
<g >
<title>rmqueue_bulk (1,945,942 samples, 0.23%)</title><rect x="1159.2" y="53" width="2.7" height="15.0" fill="rgb(235,138,33)" rx="2" ry="2" />
<text  x="1162.16" y="63.5" ></text>
</g>
<g >
<title>exc_page_fault (13,031,190 samples, 1.54%)</title><rect x="1146.3" y="181" width="18.1" height="15.0" fill="rgb(212,35,8)" rx="2" ry="2" />
<text  x="1149.29" y="191.5" ></text>
</g>
<g >
<title>exc_page_fault (7,389,066 samples, 0.87%)</title><rect x="849.7" y="181" width="10.3" height="15.0" fill="rgb(212,35,8)" rx="2" ry="2" />
<text  x="852.66" y="191.5" ></text>
</g>
<g >
<title>unmap_vmas (2,772,524 samples, 0.33%)</title><rect x="1184.8" y="133" width="3.9" height="15.0" fill="rgb(243,176,42)" rx="2" ry="2" />
<text  x="1187.81" y="143.5" ></text>
</g>
<g >
<title>entry_SYSCALL_64_after_hwframe (8,322,289 samples, 0.98%)</title><rect x="1177.1" y="245" width="11.6" height="15.0" fill="rgb(218,63,15)" rx="2" ry="2" />
<text  x="1180.08" y="255.5" ></text>
</g>
<g >
<title>check_preemption_disabled (923,989 samples, 0.11%)</title><rect x="850.9" y="53" width="1.3" height="15.0" fill="rgb(220,73,17)" rx="2" ry="2" />
<text  x="853.95" y="63.5" ></text>
</g>
<g >
<title>ext4_file_getattr (454,894 samples, 0.05%)</title><rect x="1165.7" y="133" width="0.7" height="15.0" fill="rgb(207,9,2)" rx="2" ry="2" />
<text  x="1168.73" y="143.5" ></text>
</g>
<g >
<title>ShiftBytes (924,172 samples, 0.11%)</title><rect x="1136.0" y="213" width="1.3" height="15.0" fill="rgb(216,52,12)" rx="2" ry="2" />
<text  x="1138.99" y="223.5" ></text>
</g>
<g >
<title>[unknown] (247,196,116 samples, 29.18%)</title><rect x="821.4" y="229" width="344.3" height="15.0" fill="rgb(210,24,5)" rx="2" ry="2" />
<text  x="824.40" y="239.5" >[unknown]</text>
</g>
<g >
<title>page_add_new_anon_rmap (923,026 samples, 0.11%)</title><rect x="1174.5" y="149" width="1.3" height="15.0" fill="rgb(235,138,33)" rx="2" ry="2" />
<text  x="1177.50" y="159.5" ></text>
</g>
<g >
<title>free_unref_page_list (3,699,011 samples, 0.44%)</title><rect x="1178.4" y="85" width="5.1" height="15.0" fill="rgb(221,77,18)" rx="2" ry="2" />
<text  x="1181.37" y="95.5" ></text>
</g>
<g >
<title>HE4_C (5,546,521 samples, 0.65%)</title><rect x="177.2" y="245" width="7.7" height="15.0" fill="rgb(220,70,16)" rx="2" ry="2" />
<text  x="180.16" y="255.5" ></text>
</g>
<g >
<title>exit_to_user_mode_prepare (923,759 samples, 0.11%)</title><rect x="1164.4" y="165" width="1.3" height="15.0" fill="rgb(228,108,25)" rx="2" ry="2" />
<text  x="1167.44" y="175.5" ></text>
</g>
<g >
<title>VR4_C (923,687 samples, 0.11%)</title><rect x="543.9" y="245" width="1.3" height="15.0" fill="rgb(245,187,44)" rx="2" ry="2" />
<text  x="546.95" y="255.5" ></text>
</g>
<g >
<title>tlb_batch_pages_flush (5,549,765 samples, 0.66%)</title><rect x="1177.1" y="117" width="7.7" height="15.0" fill="rgb(234,133,32)" rx="2" ry="2" />
<text  x="1180.08" y="127.5" ></text>
</g>
<g >
<title>HD4_C (924,000 samples, 0.11%)</title><rect x="175.9" y="245" width="1.3" height="15.0" fill="rgb(226,100,23)" rx="2" ry="2" />
<text  x="178.87" y="255.5" ></text>
</g>
<g >
<title>unmap_page_range (2,772,524 samples, 0.33%)</title><rect x="1184.8" y="117" width="3.9" height="15.0" fill="rgb(206,5,1)" rx="2" ry="2" />
<text  x="1187.81" y="127.5" ></text>
</g>
<g >
<title>__memmove_avx_unaligned_erms (6,280,757 samples, 0.74%)</title><rect x="1168.3" y="245" width="8.8" height="15.0" fill="rgb(205,0,0)" rx="2" ry="2" />
<text  x="1171.33" y="255.5" ></text>
</g>
<g >
<title>__x64_sys_execve (487,448 samples, 0.06%)</title><rect x="1167.6" y="197" width="0.7" height="15.0" fill="rgb(247,193,46)" rx="2" ry="2" />
<text  x="1170.65" y="207.5" ></text>
</g>
<g >
<title>asm_exc_page_fault (3,509,726 samples, 0.41%)</title><rect x="1172.2" y="229" width="4.9" height="15.0" fill="rgb(225,93,22)" rx="2" ry="2" />
<text  x="1175.19" y="239.5" ></text>
</g>
<g >
<title>do_syscall_64 (487,448 samples, 0.06%)</title><rect x="1167.6" y="213" width="0.7" height="15.0" fill="rgb(209,20,4)" rx="2" ry="2" />
<text  x="1170.65" y="223.5" ></text>
</g>
<g >
<title>HFilter8_C (924,345 samples, 0.11%)</title><rect x="226.0" y="245" width="1.2" height="15.0" fill="rgb(223,86,20)" rx="2" ry="2" />
<text  x="228.96" y="255.5" ></text>
</g>
<g >
<title>_compound_head (2,772,524 samples, 0.33%)</title><rect x="1184.8" y="101" width="3.9" height="15.0" fill="rgb(225,94,22)" rx="2" ry="2" />
<text  x="1187.81" y="111.5" ></text>
</g>
<g >
<title>exc_page_fault (2,585,711 samples, 0.31%)</title><rect x="1172.2" y="213" width="3.6" height="15.0" fill="rgb(212,35,8)" rx="2" ry="2" />
<text  x="1175.19" y="223.5" ></text>
</g>
<g >
<title>VP8ParseProba (2,771,683 samples, 0.33%)</title><rect x="540.1" y="245" width="3.8" height="15.0" fill="rgb(224,88,21)" rx="2" ry="2" />
<text  x="543.09" y="255.5" ></text>
</g>
<g >
<title>VP8LDoFillBitWindow (923,338 samples, 0.11%)</title><rect x="1137.3" y="213" width="1.3" height="15.0" fill="rgb(219,67,16)" rx="2" ry="2" />
<text  x="1140.28" y="223.5" ></text>
</g>
<g >
<title>__handle_mm_fault (10,258,737 samples, 1.21%)</title><rect x="1147.6" y="133" width="14.3" height="15.0" fill="rgb(207,9,2)" rx="2" ry="2" />
<text  x="1150.58" y="143.5" ></text>
</g>
<g >
<title>free_pcppages_bulk (2,774,288 samples, 0.33%)</title><rect x="1179.7" y="69" width="3.8" height="15.0" fill="rgb(210,26,6)" rx="2" ry="2" />
<text  x="1182.66" y="79.5" ></text>
</g>
<g >
<title>__x64_sys_exit_group (8,322,289 samples, 0.98%)</title><rect x="1177.1" y="213" width="11.6" height="15.0" fill="rgb(214,42,10)" rx="2" ry="2" />
<text  x="1180.08" y="223.5" ></text>
</g>
<g >
<title>exit_mmap (8,322,289 samples, 0.98%)</title><rect x="1177.1" y="149" width="11.6" height="15.0" fill="rgb(236,143,34)" rx="2" ry="2" />
<text  x="1180.08" y="159.5" ></text>
</g>
<g >
<title>FilterLoop24_C (12,927,982 samples, 1.53%)</title><rect x="87.8" y="245" width="18.1" height="15.0" fill="rgb(243,175,42)" rx="2" ry="2" />
<text  x="90.85" y="255.5" ></text>
</g>
<g >
<title>__mod_node_page_state (923,026 samples, 0.11%)</title><rect x="1174.5" y="101" width="1.3" height="15.0" fill="rgb(213,38,9)" rx="2" ry="2" />
<text  x="1177.50" y="111.5" ></text>
</g>
<g >
<title>check_preemption_disabled (923,055 samples, 0.11%)</title><rect x="857.4" y="101" width="1.3" height="15.0" fill="rgb(220,73,17)" rx="2" ry="2" />
<text  x="860.38" y="111.5" ></text>
</g>
<g >
<title>__GI___fstatat (454,894 samples, 0.05%)</title><rect x="1165.7" y="229" width="0.7" height="15.0" fill="rgb(211,31,7)" rx="2" ry="2" />
<text  x="1168.73" y="239.5" ></text>
</g>
<g >
<title>exit_to_user_mode_prepare (432,967 samples, 0.05%)</title><rect x="747.0" y="181" width="0.6" height="15.0" fill="rgb(228,108,25)" rx="2" ry="2" />
<text  x="750.00" y="191.5" ></text>
</g>
<g >
<title>do_group_exit (8,322,289 samples, 0.98%)</title><rect x="1177.1" y="197" width="11.6" height="15.0" fill="rgb(219,67,16)" rx="2" ry="2" />
<text  x="1180.08" y="207.5" ></text>
</g>
<g >
<title>__handle_mm_fault (5,542,983 samples, 0.65%)</title><rect x="849.7" y="133" width="7.7" height="15.0" fill="rgb(207,9,2)" rx="2" ry="2" />
<text  x="852.66" y="143.5" ></text>
</g>
<g >
<title>TransformTwo_C (923,990 samples, 0.11%)</title><rect x="744.4" y="229" width="1.3" height="15.0" fill="rgb(212,36,8)" rx="2" ry="2" />
<text  x="747.42" y="239.5" ></text>
</g>
<g >
<title>do_syscall_64 (8,322,289 samples, 0.98%)</title><rect x="1177.1" y="229" width="11.6" height="15.0" fill="rgb(209,20,4)" rx="2" ry="2" />
<text  x="1180.08" y="239.5" ></text>
</g>
<g >
<title>irqentry_exit_to_user_mode (924,015 samples, 0.11%)</title><rect x="1175.8" y="213" width="1.3" height="15.0" fill="rgb(254,229,54)" rx="2" ry="2" />
<text  x="1178.79" y="223.5" ></text>
</g>
<g >
<title>VP8ParseIntraModeRow (4,287,569 samples, 0.51%)</title><rect x="534.1" y="245" width="6.0" height="15.0" fill="rgb(231,121,29)" rx="2" ry="2" />
<text  x="537.11" y="255.5" ></text>
</g>
<g >
<title>entry_SYSCALL_64_after_hwframe (487,448 samples, 0.06%)</title><rect x="1167.6" y="229" width="0.7" height="15.0" fill="rgb(218,63,15)" rx="2" ry="2" />
<text  x="1170.65" y="239.5" ></text>
</g>
<g >
<title>check_preemption_disabled (924,015 samples, 0.11%)</title><rect x="1175.8" y="165" width="1.3" height="15.0" fill="rgb(220,73,17)" rx="2" ry="2" />
<text  x="1178.79" y="175.5" ></text>
</g>
<g >
<title>apparmor_bprm_committed_creds (123,918 samples, 0.01%)</title><rect x="1167.6" y="101" width="0.2" height="15.0" fill="rgb(223,85,20)" rx="2" ry="2" />
<text  x="1170.65" y="111.5" ></text>
</g>
<g >
<title>clear_page_rep (4,620,055 samples, 0.55%)</title><rect x="1152.7" y="53" width="6.5" height="15.0" fill="rgb(253,221,52)" rx="2" ry="2" />
<text  x="1155.72" y="63.5" ></text>
</g>
<g >
<title>check_preemption_disabled (1,845,843 samples, 0.22%)</title><rect x="1148.9" y="53" width="2.5" height="15.0" fill="rgb(220,73,17)" rx="2" ry="2" />
<text  x="1151.87" y="63.5" ></text>
</g>
<g >
<title>__alloc_pages (6,565,997 samples, 0.78%)</title><rect x="1152.7" y="85" width="9.2" height="15.0" fill="rgb(233,129,30)" rx="2" ry="2" />
<text  x="1155.72" y="95.5" ></text>
</g>
<g >
<title>ReconstructRow (10,866,145 samples, 1.28%)</title><rect x="644.2" y="229" width="15.1" height="15.0" fill="rgb(225,93,22)" rx="2" ry="2" />
<text  x="647.18" y="239.5" ></text>
</g>
<g >
<title>__free_one_page (2,774,288 samples, 0.33%)</title><rect x="1179.7" y="53" width="3.8" height="15.0" fill="rgb(210,25,6)" rx="2" ry="2" />
<text  x="1182.66" y="63.5" ></text>
</g>
<g >
<title>DC4_C (2,772,741 samples, 0.33%)</title><rect x="16.4" y="245" width="3.9" height="15.0" fill="rgb(209,18,4)" rx="2" ry="2" />
<text  x="19.43" y="255.5" ></text>
</g>
<g >
<title>all (847,122,682 samples, 100%)</title><rect x="10.0" y="277" width="1180.0" height="15.0" fill="rgb(213,39,9)" rx="2" ry="2" />
<text  x="13.00" y="287.5" ></text>
</g>
<g >
<title>HE8uv_C (922,988 samples, 0.11%)</title><rect x="600.5" y="229" width="1.3" height="15.0" fill="rgb(226,98,23)" rx="2" ry="2" />
<text  x="603.54" y="239.5" ></text>
</g>
<g >
<title>mem_cgroup_charge_statistics (1,845,843 samples, 0.22%)</title><rect x="1148.9" y="85" width="2.5" height="15.0" fill="rgb(232,126,30)" rx="2" ry="2" />
<text  x="1151.87" y="95.5" ></text>
</g>
<g >
<title>UpsampleRgbaLinePair_C (160,130,068 samples, 18.90%)</title><rect x="258.6" y="245" width="223.1" height="15.0" fill="rgb(252,216,51)" rx="2" ry="2" />
<text  x="261.62" y="255.5" >UpsampleRgbaLinePair_C</text>
</g>
<g >
<title>__memmove_avx_unaligned (924,024 samples, 0.11%)</title><rect x="1138.6" y="213" width="1.3" height="15.0" fill="rgb(254,228,54)" rx="2" ry="2" />
<text  x="1141.57" y="223.5" ></text>
</g>
<g >
<title>VP8GetValue (924,505 samples, 0.11%)</title><rect x="532.8" y="245" width="1.3" height="15.0" fill="rgb(230,119,28)" rx="2" ry="2" />
<text  x="535.83" y="255.5" ></text>
</g>
<g >
<title>asm_exc_page_fault (10,159,097 samples, 1.20%)</title><rect x="845.8" y="197" width="14.2" height="15.0" fill="rgb(225,93,22)" rx="2" ry="2" />
<text  x="848.80" y="207.5" ></text>
</g>
<g >
<title>__install_special_mapping (363,530 samples, 0.04%)</title><rect x="1167.8" y="117" width="0.5" height="15.0" fill="rgb(212,35,8)" rx="2" ry="2" />
<text  x="1170.82" y="127.5" ></text>
</g>
<g >
<title>ReadHuffmanCodesHelper (924,125 samples, 0.11%)</title><rect x="1134.7" y="213" width="1.3" height="15.0" fill="rgb(209,22,5)" rx="2" ry="2" />
<text  x="1137.71" y="223.5" ></text>
</g>
<g >
<title>charge_memcg (924,154 samples, 0.11%)</title><rect x="849.7" y="101" width="1.2" height="15.0" fill="rgb(242,170,40)" rx="2" ry="2" />
<text  x="852.66" y="111.5" ></text>
</g>
<g >
<title>page_add_new_anon_rmap (923,989 samples, 0.11%)</title><rect x="850.9" y="117" width="1.3" height="15.0" fill="rgb(235,138,33)" rx="2" ry="2" />
<text  x="853.95" y="127.5" ></text>
</g>
<g >
<title>tlb_finish_mmu (5,549,765 samples, 0.66%)</title><rect x="1177.1" y="133" width="7.7" height="15.0" fill="rgb(251,212,50)" rx="2" ry="2" />
<text  x="1180.08" y="143.5" ></text>
</g>
<g >
<title>asm_exc_page_fault (15,803,469 samples, 1.87%)</title><rect x="1143.7" y="197" width="22.0" height="15.0" fill="rgb(225,93,22)" rx="2" ry="2" />
<text  x="1146.72" y="207.5" >a..</text>
</g>
<g >
<title>asm_exc_page_fault (923,519 samples, 0.11%)</title><rect x="1188.7" y="229" width="1.3" height="15.0" fill="rgb(225,93,22)" rx="2" ry="2" />
<text  x="1191.67" y="239.5" ></text>
</g>
<g >
<title>ext4_getattr (454,894 samples, 0.05%)</title><rect x="1165.7" y="117" width="0.7" height="15.0" fill="rgb(208,14,3)" rx="2" ry="2" />
<text  x="1168.73" y="127.5" ></text>
</g>
<g >
<title>begin_new_exec (123,918 samples, 0.01%)</title><rect x="1167.6" y="133" width="0.2" height="15.0" fill="rgb(245,184,44)" rx="2" ry="2" />
<text  x="1170.65" y="143.5" ></text>
</g>
<g >
<title>__mod_lruvec_page_state (923,026 samples, 0.11%)</title><rect x="1174.5" y="133" width="1.3" height="15.0" fill="rgb(245,185,44)" rx="2" ry="2" />
<text  x="1177.50" y="143.5" ></text>
</g>
<g >
<title>exit_to_user_mode_prepare (924,015 samples, 0.11%)</title><rect x="1175.8" y="197" width="1.3" height="15.0" fill="rgb(228,108,25)" rx="2" ry="2" />
<text  x="1178.79" y="207.5" ></text>
</g>
<g >
<title>do_user_addr_fault (2,585,711 samples, 0.31%)</title><rect x="1172.2" y="197" width="3.6" height="15.0" fill="rgb(228,108,25)" rx="2" ry="2" />
<text  x="1175.19" y="207.5" ></text>
</g>
<g >
<title>__count_memcg_events (923,055 samples, 0.11%)</title><rect x="857.4" y="117" width="1.3" height="15.0" fill="rgb(250,211,50)" rx="2" ry="2" />
<text  x="860.38" y="127.5" ></text>
</g>
<g >
<title>DC16_C (924,254 samples, 0.11%)</title><rect x="545.2" y="229" width="1.3" height="15.0" fill="rgb(229,113,27)" rx="2" ry="2" />
<text  x="548.23" y="239.5" ></text>
</g>
<g >
<title>handle_mm_fault (923,519 samples, 0.11%)</title><rect x="1188.7" y="181" width="1.3" height="15.0" fill="rgb(234,135,32)" rx="2" ry="2" />
<text  x="1191.67" y="191.5" ></text>
</g>
<g >
<title>do_user_addr_fault (7,389,066 samples, 0.87%)</title><rect x="849.7" y="165" width="10.3" height="15.0" fill="rgb(228,108,25)" rx="2" ry="2" />
<text  x="852.66" y="175.5" ></text>
</g>
<g >
<title>irqentry_exit_to_user_mode (432,967 samples, 0.05%)</title><rect x="747.0" y="197" width="0.6" height="15.0" fill="rgb(254,229,54)" rx="2" ry="2" />
<text  x="750.00" y="207.5" ></text>
</g>
<g >
<title>bprm_execve (487,448 samples, 0.06%)</title><rect x="1167.6" y="165" width="0.7" height="15.0" fill="rgb(218,61,14)" rx="2" ry="2" />
<text  x="1170.65" y="175.5" ></text>
</g>
<g >
<title>__mod_lruvec_state (923,026 samples, 0.11%)</title><rect x="1174.5" y="117" width="1.3" height="15.0" fill="rgb(226,100,24)" rx="2" ry="2" />
<text  x="1177.50" y="127.5" ></text>
</g>
<g >
<title>TM16_C (3,695,842 samples, 0.44%)</title><rect x="659.3" y="229" width="5.2" height="15.0" fill="rgb(211,30,7)" rx="2" ry="2" />
<text  x="662.31" y="239.5" ></text>
</g>
<g >
<title>ReadHuffmanCode (924,165 samples, 0.11%)</title><rect x="228.5" y="245" width="1.3" height="15.0" fill="rgb(230,116,27)" rx="2" ry="2" />
<text  x="231.54" y="255.5" ></text>
</g>
<g >
<title>charge_memcg (1,845,843 samples, 0.22%)</title><rect x="1148.9" y="101" width="2.5" height="15.0" fill="rgb(242,170,40)" rx="2" ry="2" />
<text  x="1151.87" y="111.5" ></text>
</g>
<g >
<title>handle_mm_fault (6,466,038 samples, 0.76%)</title><rect x="849.7" y="149" width="9.0" height="15.0" fill="rgb(234,135,32)" rx="2" ry="2" />
<text  x="852.66" y="159.5" ></text>
</g>
<g >
<title>__mod_lruvec_state (923,989 samples, 0.11%)</title><rect x="850.9" y="85" width="1.3" height="15.0" fill="rgb(226,100,24)" rx="2" ry="2" />
<text  x="853.95" y="95.5" ></text>
</g>
<g >
<title>count_memcg_events.constprop.0 (923,055 samples, 0.11%)</title><rect x="857.4" y="133" width="1.3" height="15.0" fill="rgb(213,41,9)" rx="2" ry="2" />
<text  x="860.38" y="143.5" ></text>
</g>
</g>
</svg>
