<?xml version="1.0" standalone="no"?>
<!DOCTYPE svg PUBLIC "-//W3C//DTD SVG 1.1//EN" "http://www.w3.org/Graphics/SVG/1.1/DTD/svg11.dtd">
<svg version="1.1" width="1200" height="454" onload="init(evt)" viewBox="0 0 1200 454" xmlns="http://www.w3.org/2000/svg" xmlns:xlink="http://www.w3.org/1999/xlink">
<!-- Flame graph stack visualization. See https://github.com/brendangregg/FlameGraph for latest version, and http://www.brendangregg.com/flamegraphs.html for examples. -->
<!-- NOTES:  -->
<defs>
	<linearGradient id="background" y1="0" y2="1" x1="0" x2="0" >
		<stop stop-color="#eeeeee" offset="5%" />
		<stop stop-color="#eeeeb0" offset="95%" />
	</linearGradient>
</defs>
<style type="text/css">
	text { font-family:Verdana; font-size:12px; fill:rgb(0,0,0); }
	#search, #ignorecase { opacity:0.1; cursor:pointer; }
	#search:hover, #search.show, #ignorecase:hover, #ignorecase.show { opacity:1; }
	#subtitle { text-anchor:middle; font-color:rgb(160,160,160); }
	#title { text-anchor:middle; font-size:17px}
	#unzoom { cursor:pointer; }
	#frames > *:hover { stroke:black; stroke-width:0.5; cursor:pointer; }
	.hide { display:none; }
	.parent { opacity:0.5; }
</style>
<script type="text/ecmascript">
<![CDATA[
	"use strict";
	var details, searchbtn, unzoombtn, matchedtxt, svg, searching, currentSearchTerm, ignorecase, ignorecaseBtn;
	function init(evt) {
		details = document.getElementById("details").firstChild;
		searchbtn = document.getElementById("search");
		ignorecaseBtn = document.getElementById("ignorecase");
		unzoombtn = document.getElementById("unzoom");
		matchedtxt = document.getElementById("matched");
		svg = document.getElementsByTagName("svg")[0];
		searching = 0;
		currentSearchTerm = null;

		// use GET parameters to restore a flamegraphs state.
		var params = get_params();
		if (params.x && params.y)
			zoom(find_group(document.querySelector('[x="' + params.x + '"][y="' + params.y + '"]')));
                if (params.s) search(params.s);
	}

	// event listeners
	window.addEventListener("click", function(e) {
		var target = find_group(e.target);
		if (target) {
			if (target.nodeName == "a") {
				if (e.ctrlKey === false) return;
				e.preventDefault();
			}
			if (target.classList.contains("parent")) unzoom(true);
			zoom(target);
			if (!document.querySelector('.parent')) {
				// we have basically done a clearzoom so clear the url
				var params = get_params();
				if (params.x) delete params.x;
				if (params.y) delete params.y;
				history.replaceState(null, null, parse_params(params));
				unzoombtn.classList.add("hide");
				return;
			}

			// set parameters for zoom state
			var el = target.querySelector("rect");
			if (el && el.attributes && el.attributes.y && el.attributes._orig_x) {
				var params = get_params()
				params.x = el.attributes._orig_x.value;
				params.y = el.attributes.y.value;
				history.replaceState(null, null, parse_params(params));
			}
		}
		else if (e.target.id == "unzoom") clearzoom();
		else if (e.target.id == "search") search_prompt();
		else if (e.target.id == "ignorecase") toggle_ignorecase();
	}, false)

	// mouse-over for info
	// show
	window.addEventListener("mouseover", function(e) {
		var target = find_group(e.target);
		if (target) details.nodeValue = "Function: " + g_to_text(target);
	}, false)

	// clear
	window.addEventListener("mouseout", function(e) {
		var target = find_group(e.target);
		if (target) details.nodeValue = ' ';
	}, false)

	// ctrl-F for search
	// ctrl-I to toggle case-sensitive search
	window.addEventListener("keydown",function (e) {
		if (e.keyCode === 114 || (e.ctrlKey && e.keyCode === 70)) {
			e.preventDefault();
			search_prompt();
		}
		else if (e.ctrlKey && e.keyCode === 73) {
			e.preventDefault();
			toggle_ignorecase();
		}
	}, false)

	// functions
	function get_params() {
		var params = {};
		var paramsarr = window.location.search.substr(1).split('&');
		for (var i = 0; i < paramsarr.length; ++i) {
			var tmp = paramsarr[i].split("=");
			if (!tmp[0] || !tmp[1]) continue;
			params[tmp[0]]  = decodeURIComponent(tmp[1]);
		}
		return params;
	}
	function parse_params(params) {
		var uri = "?";
		for (var key in params) {
			uri += key + '=' + encodeURIComponent(params[key]) + '&';
		}
		if (uri.slice(-1) == "&")
			uri = uri.substring(0, uri.length - 1);
		if (uri == '?')
			uri = window.location.href.split('?')[0];
		return uri;
	}
	function find_child(node, selector) {
		var children = node.querySelectorAll(selector);
		if (children.length) return children[0];
	}
	function find_group(node) {
		var parent = node.parentElement;
		if (!parent) return;
		if (parent.id == "frames") return node;
		return find_group(parent);
	}
	function orig_save(e, attr, val) {
		if (e.attributes["_orig_" + attr] != undefined) return;
		if (e.attributes[attr] == undefined) return;
		if (val == undefined) val = e.attributes[attr].value;
		e.setAttribute("_orig_" + attr, val);
	}
	function orig_load(e, attr) {
		if (e.attributes["_orig_"+attr] == undefined) return;
		e.attributes[attr].value = e.attributes["_orig_" + attr].value;
		e.removeAttribute("_orig_"+attr);
	}
	function g_to_text(e) {
		var text = find_child(e, "title").firstChild.nodeValue;
		return (text)
	}
	function g_to_func(e) {
		var func = g_to_text(e);
		// if there's any manipulation we want to do to the function
		// name before it's searched, do it here before returning.
		return (func);
	}
	function update_text(e) {
		var r = find_child(e, "rect");
		var t = find_child(e, "text");
		var w = parseFloat(r.attributes.width.value) -3;
		var txt = find_child(e, "title").textContent.replace(/\([^(]*\)$/,"");
		t.attributes.x.value = parseFloat(r.attributes.x.value) + 3;

		// Smaller than this size won't fit anything
		if (w < 2 * 12 * 0.59) {
			t.textContent = "";
			return;
		}

		t.textContent = txt;
		var sl = t.getSubStringLength(0, txt.length);
		// check if only whitespace or if we can fit the entire string into width w
		if (/^ *$/.test(txt) || sl < w)
			return;

		// this isn't perfect, but gives a good starting point
		// and avoids calling getSubStringLength too often
		var start = Math.floor((w/sl) * txt.length);
		for (var x = start; x > 0; x = x-2) {
			if (t.getSubStringLength(0, x + 2) <= w) {
				t.textContent = txt.substring(0, x) + "..";
				return;
			}
		}
		t.textContent = "";
	}

	// zoom
	function zoom_reset(e) {
		if (e.attributes != undefined) {
			orig_load(e, "x");
			orig_load(e, "width");
		}
		if (e.childNodes == undefined) return;
		for (var i = 0, c = e.childNodes; i < c.length; i++) {
			zoom_reset(c[i]);
		}
	}
	function zoom_child(e, x, ratio) {
		if (e.attributes != undefined) {
			if (e.attributes.x != undefined) {
				orig_save(e, "x");
				e.attributes.x.value = (parseFloat(e.attributes.x.value) - x - 10) * ratio + 10;
				if (e.tagName == "text")
					e.attributes.x.value = find_child(e.parentNode, "rect[x]").attributes.x.value + 3;
			}
			if (e.attributes.width != undefined) {
				orig_save(e, "width");
				e.attributes.width.value = parseFloat(e.attributes.width.value) * ratio;
			}
		}

		if (e.childNodes == undefined) return;
		for (var i = 0, c = e.childNodes; i < c.length; i++) {
			zoom_child(c[i], x - 10, ratio);
		}
	}
	function zoom_parent(e) {
		if (e.attributes) {
			if (e.attributes.x != undefined) {
				orig_save(e, "x");
				e.attributes.x.value = 10;
			}
			if (e.attributes.width != undefined) {
				orig_save(e, "width");
				e.attributes.width.value = parseInt(svg.width.baseVal.value) - (10 * 2);
			}
		}
		if (e.childNodes == undefined) return;
		for (var i = 0, c = e.childNodes; i < c.length; i++) {
			zoom_parent(c[i]);
		}
	}
	function zoom(node) {
		var attr = find_child(node, "rect").attributes;
		var width = parseFloat(attr.width.value);
		var xmin = parseFloat(attr.x.value);
		var xmax = parseFloat(xmin + width);
		var ymin = parseFloat(attr.y.value);
		var ratio = (svg.width.baseVal.value - 2 * 10) / width;

		// XXX: Workaround for JavaScript float issues (fix me)
		var fudge = 0.0001;

		unzoombtn.classList.remove("hide");

		var el = document.getElementById("frames").children;
		for (var i = 0; i < el.length; i++) {
			var e = el[i];
			var a = find_child(e, "rect").attributes;
			var ex = parseFloat(a.x.value);
			var ew = parseFloat(a.width.value);
			var upstack;
			// Is it an ancestor
			if (0 == 0) {
				upstack = parseFloat(a.y.value) > ymin;
			} else {
				upstack = parseFloat(a.y.value) < ymin;
			}
			if (upstack) {
				// Direct ancestor
				if (ex <= xmin && (ex+ew+fudge) >= xmax) {
					e.classList.add("parent");
					zoom_parent(e);
					update_text(e);
				}
				// not in current path
				else
					e.classList.add("hide");
			}
			// Children maybe
			else {
				// no common path
				if (ex < xmin || ex + fudge >= xmax) {
					e.classList.add("hide");
				}
				else {
					zoom_child(e, xmin, ratio);
					update_text(e);
				}
			}
		}
		search();
	}
	function unzoom(dont_update_text) {
		unzoombtn.classList.add("hide");
		var el = document.getElementById("frames").children;
		for(var i = 0; i < el.length; i++) {
			el[i].classList.remove("parent");
			el[i].classList.remove("hide");
			zoom_reset(el[i]);
			if(!dont_update_text) update_text(el[i]);
		}
		search();
	}
	function clearzoom() {
		unzoom();

		// remove zoom state
		var params = get_params();
		if (params.x) delete params.x;
		if (params.y) delete params.y;
		history.replaceState(null, null, parse_params(params));
	}

	// search
	function toggle_ignorecase() {
		ignorecase = !ignorecase;
		if (ignorecase) {
			ignorecaseBtn.classList.add("show");
		} else {
			ignorecaseBtn.classList.remove("show");
		}
		reset_search();
		search();
	}
	function reset_search() {
		var el = document.querySelectorAll("#frames rect");
		for (var i = 0; i < el.length; i++) {
			orig_load(el[i], "fill")
		}
		var params = get_params();
		delete params.s;
		history.replaceState(null, null, parse_params(params));
	}
	function search_prompt() {
		if (!searching) {
			var term = prompt("Enter a search term (regexp " +
			    "allowed, eg: ^ext4_)"
			    + (ignorecase ? ", ignoring case" : "")
			    + "\nPress Ctrl-i to toggle case sensitivity", "");
			if (term != null) search(term);
		} else {
			reset_search();
			searching = 0;
			currentSearchTerm = null;
			searchbtn.classList.remove("show");
			searchbtn.firstChild.nodeValue = "Search"
			matchedtxt.classList.add("hide");
			matchedtxt.firstChild.nodeValue = ""
		}
	}
	function search(term) {
		if (term) currentSearchTerm = term;

		var re = new RegExp(currentSearchTerm, ignorecase ? 'i' : '');
		var el = document.getElementById("frames").children;
		var matches = new Object();
		var maxwidth = 0;
		for (var i = 0; i < el.length; i++) {
			var e = el[i];
			var func = g_to_func(e);
			var rect = find_child(e, "rect");
			if (func == null || rect == null)
				continue;

			// Save max width. Only works as we have a root frame
			var w = parseFloat(rect.attributes.width.value);
			if (w > maxwidth)
				maxwidth = w;

			if (func.match(re)) {
				// highlight
				var x = parseFloat(rect.attributes.x.value);
				orig_save(rect, "fill");
				rect.attributes.fill.value = "rgb(230,0,230)";

				// remember matches
				if (matches[x] == undefined) {
					matches[x] = w;
				} else {
					if (w > matches[x]) {
						// overwrite with parent
						matches[x] = w;
					}
				}
				searching = 1;
			}
		}
		if (!searching)
			return;
		var params = get_params();
		params.s = currentSearchTerm;
		history.replaceState(null, null, parse_params(params));

		searchbtn.classList.add("show");
		searchbtn.firstChild.nodeValue = "Reset Search";

		// calculate percent matched, excluding vertical overlap
		var count = 0;
		var lastx = -1;
		var lastw = 0;
		var keys = Array();
		for (k in matches) {
			if (matches.hasOwnProperty(k))
				keys.push(k);
		}
		// sort the matched frames by their x location
		// ascending, then width descending
		keys.sort(function(a, b){
			return a - b;
		});
		// Step through frames saving only the biggest bottom-up frames
		// thanks to the sort order. This relies on the tree property
		// where children are always smaller than their parents.
		var fudge = 0.0001;	// JavaScript floating point
		for (var k in keys) {
			var x = parseFloat(keys[k]);
			var w = matches[keys[k]];
			if (x >= lastx + lastw - fudge) {
				count += w;
				lastx = x;
				lastw = w;
			}
		}
		// display matched percent
		matchedtxt.classList.remove("hide");
		var pct = 100 * count / maxwidth;
		if (pct != 100) pct = pct.toFixed(1)
		matchedtxt.firstChild.nodeValue = "Matched: " + pct + "%";
	}
]]>
</script>
<rect x="0.0" y="0" width="1200.0" height="454.0" fill="url(#background)"  />
<text id="title" x="600.00" y="24" >Flame Graph</text>
<text id="details" x="10.00" y="437" > </text>
<text id="unzoom" x="10.00" y="24" class="hide">Reset Zoom</text>
<text id="search" x="1090.00" y="24" >Search</text>
<text id="ignorecase" x="1174.00" y="24" >ic</text>
<text id="matched" x="1090.00" y="437" > </text>
<g id="frames">
<g >
<title>blk_add_rq_to_plug (923,749 samples, 0.08%)</title><rect x="1184.2" y="117" width="1.0" height="15.0" fill="rgb(243,175,41)" rx="2" ry="2" />
<text  x="1187.24" y="127.5" ></text>
</g>
<g >
<title>begin_new_exec (119,635 samples, 0.01%)</title><rect x="1188.5" y="261" width="0.1" height="15.0" fill="rgb(245,184,44)" rx="2" ry="2" />
<text  x="1191.52" y="271.5" ></text>
</g>
<g >
<title>__filemap_fdatawrite_range (923,749 samples, 0.08%)</title><rect x="1184.2" y="229" width="1.0" height="15.0" fill="rgb(233,129,30)" rx="2" ry="2" />
<text  x="1187.24" y="239.5" ></text>
</g>
<g >
<title>VP8GetValue (1,848,555 samples, 0.16%)</title><rect x="387.5" y="373" width="1.9" height="15.0" fill="rgb(230,119,28)" rx="2" ry="2" />
<text  x="390.48" y="383.5" ></text>
</g>
<g >
<title>path_openat (923,401 samples, 0.08%)</title><rect x="1185.7" y="261" width="0.9" height="15.0" fill="rgb(249,202,48)" rx="2" ry="2" />
<text  x="1188.66" y="271.5" ></text>
</g>
<g >
<title>HU4_C (4,619,877 samples, 0.40%)</title><rect x="31.0" y="373" width="4.7" height="15.0" fill="rgb(216,54,13)" rx="2" ry="2" />
<text  x="33.97" y="383.5" ></text>
</g>
<g >
<title>do_syscall_64 (1,846,993 samples, 0.16%)</title><rect x="1186.6" y="325" width="1.9" height="15.0" fill="rgb(209,20,4)" rx="2" ry="2" />
<text  x="1189.61" y="335.5" ></text>
</g>
<g >
<title>HE8uv_C (923,605 samples, 0.08%)</title><rect x="452.0" y="357" width="1.0" height="15.0" fill="rgb(226,98,23)" rx="2" ry="2" />
<text  x="455.03" y="367.5" ></text>
</g>
<g >
<title>__libc_write (1,846,993 samples, 0.16%)</title><rect x="1186.6" y="357" width="1.9" height="15.0" fill="rgb(238,154,37)" rx="2" ry="2" />
<text  x="1189.61" y="367.5" ></text>
</g>
<g >
<title>ext4_release_file (923,749 samples, 0.08%)</title><rect x="1184.2" y="245" width="1.0" height="15.0" fill="rgb(225,92,22)" rx="2" ry="2" />
<text  x="1187.24" y="255.5" ></text>
</g>
<g >
<title>LD4_C (1,847,622 samples, 0.16%)</title><rect x="35.7" y="373" width="1.9" height="15.0" fill="rgb(250,211,50)" rx="2" ry="2" />
<text  x="38.74" y="383.5" ></text>
</g>
<g >
<title>map_vdso_randomized (359,007 samples, 0.03%)</title><rect x="1188.6" y="261" width="0.4" height="15.0" fill="rgb(208,14,3)" rx="2" ry="2" />
<text  x="1191.64" y="271.5" ></text>
</g>
<g >
<title>submit_bio_noacct_nocheck (923,749 samples, 0.08%)</title><rect x="1184.2" y="149" width="1.0" height="15.0" fill="rgb(225,95,22)" rx="2" ry="2" />
<text  x="1187.24" y="159.5" ></text>
</g>
<g >
<title>next_uptodate_page (453,793 samples, 0.04%)</title><rect x="1185.2" y="197" width="0.5" height="15.0" fill="rgb(210,25,6)" rx="2" ry="2" />
<text  x="1188.19" y="207.5" ></text>
</g>
<g >
<title>VR4_C (1,742,228 samples, 0.15%)</title><rect x="394.2" y="373" width="1.8" height="15.0" fill="rgb(245,187,44)" rx="2" ry="2" />
<text  x="397.16" y="383.5" ></text>
</g>
<g >
<title>TransformDC_C (5,540,752 samples, 0.48%)</title><rect x="66.2" y="373" width="5.7" height="15.0" fill="rgb(219,65,15)" rx="2" ry="2" />
<text  x="69.21" y="383.5" ></text>
</g>
<g >
<title>bprm_execve (478,642 samples, 0.04%)</title><rect x="1188.5" y="293" width="0.5" height="15.0" fill="rgb(218,61,14)" rx="2" ry="2" />
<text  x="1191.52" y="303.5" ></text>
</g>
<g >
<title>balance_dirty_pages (923,443 samples, 0.08%)</title><rect x="1186.6" y="229" width="1.0" height="15.0" fill="rgb(247,193,46)" rx="2" ry="2" />
<text  x="1189.61" y="239.5" ></text>
</g>
<g >
<title>__ext4_mark_inode_dirty (923,550 samples, 0.08%)</title><rect x="1187.6" y="197" width="0.9" height="15.0" fill="rgb(227,104,25)" rx="2" ry="2" />
<text  x="1190.57" y="207.5" ></text>
</g>
<g >
<title>do_user_addr_fault (453,793 samples, 0.04%)</title><rect x="1185.2" y="277" width="0.5" height="15.0" fill="rgb(228,108,25)" rx="2" ry="2" />
<text  x="1188.19" y="287.5" ></text>
</g>
<g >
<title>HD4_C (3,696,798 samples, 0.32%)</title><rect x="25.2" y="373" width="3.9" height="15.0" fill="rgb(226,100,23)" rx="2" ry="2" />
<text  x="28.24" y="383.5" ></text>
</g>
<g >
<title>TM16_C (1,846,331 samples, 0.16%)</title><rect x="485.4" y="357" width="1.9" height="15.0" fill="rgb(211,30,7)" rx="2" ry="2" />
<text  x="488.40" y="367.5" ></text>
</g>
<g >
<title>TransformTwo_C (3,685,986 samples, 0.32%)</title><rect x="71.9" y="373" width="3.8" height="15.0" fill="rgb(212,36,8)" rx="2" ry="2" />
<text  x="74.93" y="383.5" ></text>
</g>
<g >
<title>entry_SYSCALL_64_after_hwframe (923,749 samples, 0.08%)</title><rect x="1184.2" y="341" width="1.0" height="15.0" fill="rgb(218,63,15)" rx="2" ry="2" />
<text  x="1187.24" y="351.5" ></text>
</g>
<g >
<title>entry_SYSCALL_64_after_hwframe (1,846,993 samples, 0.16%)</title><rect x="1186.6" y="341" width="1.9" height="15.0" fill="rgb(218,63,15)" rx="2" ry="2" />
<text  x="1189.61" y="351.5" ></text>
</g>
<g >
<title>do_syscall_64 (923,749 samples, 0.08%)</title><rect x="1184.2" y="325" width="1.0" height="15.0" fill="rgb(209,20,4)" rx="2" ry="2" />
<text  x="1187.24" y="335.5" ></text>
</g>
<g >
<title>do_writepages (923,749 samples, 0.08%)</title><rect x="1184.2" y="197" width="1.0" height="15.0" fill="rgb(240,164,39)" rx="2" ry="2" />
<text  x="1187.24" y="207.5" ></text>
</g>
<g >
<title>RD4_C (1,825,256 samples, 0.16%)</title><rect x="37.6" y="373" width="1.9" height="15.0" fill="rgb(212,32,7)" rx="2" ry="2" />
<text  x="40.64" y="383.5" ></text>
</g>
<g >
<title>__x64_sys_execve (478,642 samples, 0.04%)</title><rect x="1188.5" y="325" width="0.5" height="15.0" fill="rgb(247,193,46)" rx="2" ry="2" />
<text  x="1191.52" y="335.5" ></text>
</g>
<g >
<title>__x64_sys_openat (923,401 samples, 0.08%)</title><rect x="1185.7" y="309" width="0.9" height="15.0" fill="rgb(251,215,51)" rx="2" ry="2" />
<text  x="1188.66" y="319.5" ></text>
</g>
<g >
<title>GetLargeValue (44,273,078 samples, 3.87%)</title><rect x="405.4" y="357" width="45.7" height="15.0" fill="rgb(243,175,42)" rx="2" ry="2" />
<text  x="408.38" y="367.5" >GetL..</text>
</g>
<g >
<title>VP8DecodeMB (16,602,243 samples, 1.45%)</title><rect x="370.3" y="373" width="17.2" height="15.0" fill="rgb(208,18,4)" rx="2" ry="2" />
<text  x="373.35" y="383.5" ></text>
</g>
<g >
<title>task_work_run (923,749 samples, 0.08%)</title><rect x="1184.2" y="277" width="1.0" height="15.0" fill="rgb(209,22,5)" rx="2" ry="2" />
<text  x="1187.24" y="287.5" ></text>
</g>
<g >
<title>ext4_buffered_write_iter (1,846,993 samples, 0.16%)</title><rect x="1186.6" y="277" width="1.9" height="15.0" fill="rgb(213,40,9)" rx="2" ry="2" />
<text  x="1189.61" y="287.5" ></text>
</g>
<g >
<title>errseq_check (923,550 samples, 0.08%)</title><rect x="1187.6" y="149" width="0.9" height="15.0" fill="rgb(254,228,54)" rx="2" ry="2" />
<text  x="1190.57" y="159.5" ></text>
</g>
<g >
<title>do_sys_openat2 (923,401 samples, 0.08%)</title><rect x="1185.7" y="293" width="0.9" height="15.0" fill="rgb(253,221,52)" rx="2" ry="2" />
<text  x="1188.66" y="303.5" ></text>
</g>
<g >
<title>do_syscall_64 (478,642 samples, 0.04%)</title><rect x="1188.5" y="341" width="0.5" height="15.0" fill="rgb(209,20,4)" rx="2" ry="2" />
<text  x="1191.52" y="351.5" ></text>
</g>
<g >
<title>asm_exc_page_fault (453,793 samples, 0.04%)</title><rect x="1185.2" y="309" width="0.5" height="15.0" fill="rgb(225,93,22)" rx="2" ry="2" />
<text  x="1188.19" y="319.5" ></text>
</g>
<g >
<title>TransformTwo_C (923,917 samples, 0.08%)</title><rect x="631.9" y="357" width="0.9" height="15.0" fill="rgb(212,36,8)" rx="2" ry="2" />
<text  x="634.86" y="367.5" ></text>
</g>
<g >
<title>complete_walk (923,401 samples, 0.08%)</title><rect x="1185.7" y="245" width="0.9" height="15.0" fill="rgb(229,112,26)" rx="2" ry="2" />
<text  x="1188.66" y="255.5" ></text>
</g>
<g >
<title>SimpleHFilter16_C (13,854,556 samples, 1.21%)</title><rect x="471.1" y="357" width="14.3" height="15.0" fill="rgb(227,105,25)" rx="2" ry="2" />
<text  x="474.10" y="367.5" ></text>
</g>
<g >
<title>[unknown] (768,433,976 samples, 67.21%)</title><rect x="396.0" y="373" width="793.0" height="15.0" fill="rgb(210,24,5)" rx="2" ry="2" />
<text  x="398.95" y="383.5" >[unknown]</text>
</g>
<g >
<title>__libc_open64 (923,401 samples, 0.08%)</title><rect x="1185.7" y="357" width="0.9" height="15.0" fill="rgb(235,140,33)" rx="2" ry="2" />
<text  x="1188.66" y="367.5" ></text>
</g>
<g >
<title>GetLargeValue (923,416 samples, 0.08%)</title><rect x="1183.3" y="341" width="0.9" height="15.0" fill="rgb(243,175,42)" rx="2" ry="2" />
<text  x="1186.29" y="351.5" ></text>
</g>
<g >
<title>DC8uvNoTop_C (924,219 samples, 0.08%)</title><rect x="396.9" y="357" width="1.0" height="15.0" fill="rgb(211,27,6)" rx="2" ry="2" />
<text  x="399.91" y="367.5" ></text>
</g>
<g >
<title>ext4_dirty_inode (923,550 samples, 0.08%)</title><rect x="1187.6" y="213" width="0.9" height="15.0" fill="rgb(227,102,24)" rx="2" ry="2" />
<text  x="1190.57" y="223.5" ></text>
</g>
<g >
<title>GetCoeffsFast (3,696,763 samples, 0.32%)</title><rect x="21.4" y="373" width="3.8" height="15.0" fill="rgb(219,64,15)" rx="2" ry="2" />
<text  x="24.43" y="383.5" ></text>
</g>
<g >
<title>__libc_start_main_impl (453,793 samples, 0.04%)</title><rect x="1185.2" y="341" width="0.5" height="15.0" fill="rgb(218,63,15)" rx="2" ry="2" />
<text  x="1188.19" y="351.5" ></text>
</g>
<g >
<title>TransformDCUV_C (1,764,706 samples, 0.15%)</title><rect x="490.7" y="357" width="1.8" height="15.0" fill="rgb(214,44,10)" rx="2" ry="2" />
<text  x="493.67" y="367.5" ></text>
</g>
<g >
<title>__handle_mm_fault (453,793 samples, 0.04%)</title><rect x="1185.2" y="245" width="0.5" height="15.0" fill="rgb(207,9,2)" rx="2" ry="2" />
<text  x="1188.19" y="255.5" ></text>
</g>
<g >
<title>DC16NoTop_C (924,274 samples, 0.08%)</title><rect x="396.0" y="357" width="0.9" height="15.0" fill="rgb(225,94,22)" rx="2" ry="2" />
<text  x="398.95" y="367.5" ></text>
</g>
<g >
<title>decode_webp_nat (1,143,327,241 samples, 100.00%)</title><rect x="10.0" y="389" width="1180.0" height="15.0" fill="rgb(218,61,14)" rx="2" ry="2" />
<text  x="13.00" y="399.5" >decode_webp_nat</text>
</g>
<g >
<title>SimpleVFilter16_C (9,235,952 samples, 0.81%)</title><rect x="51.9" y="373" width="9.5" height="15.0" fill="rgb(237,149,35)" rx="2" ry="2" />
<text  x="54.92" y="383.5" ></text>
</g>
<g >
<title>commit_creds (119,635 samples, 0.01%)</title><rect x="1188.5" y="245" width="0.1" height="15.0" fill="rgb(240,161,38)" rx="2" ry="2" />
<text  x="1191.52" y="255.5" ></text>
</g>
<g >
<title>filemap_map_pages (453,793 samples, 0.04%)</title><rect x="1185.2" y="213" width="0.5" height="15.0" fill="rgb(229,112,27)" rx="2" ry="2" />
<text  x="1188.19" y="223.5" ></text>
</g>
<g >
<title>__mark_inode_dirty (923,550 samples, 0.08%)</title><rect x="1187.6" y="229" width="0.9" height="15.0" fill="rgb(254,227,54)" rx="2" ry="2" />
<text  x="1190.57" y="239.5" ></text>
</g>
<g >
<title>__mem_cgroup_flush_stats (923,443 samples, 0.08%)</title><rect x="1186.6" y="197" width="1.0" height="15.0" fill="rgb(208,16,3)" rx="2" ry="2" />
<text  x="1189.61" y="207.5" ></text>
</g>
<g >
<title>balance_dirty_pages_ratelimited_flags (923,443 samples, 0.08%)</title><rect x="1186.6" y="245" width="1.0" height="15.0" fill="rgb(207,10,2)" rx="2" ry="2" />
<text  x="1189.61" y="255.5" ></text>
</g>
<g >
<title>DC4_C (11,074,641 samples, 0.97%)</title><rect x="10.0" y="373" width="11.4" height="15.0" fill="rgb(209,18,4)" rx="2" ry="2" />
<text  x="13.00" y="383.5" ></text>
</g>
<g >
<title>ReconstructRow (17,553,246 samples, 1.54%)</title><rect x="453.0" y="357" width="18.1" height="15.0" fill="rgb(225,93,22)" rx="2" ry="2" />
<text  x="455.98" y="367.5" ></text>
</g>
<g >
<title>VP8ParseIntraModeRow (91,385,770 samples, 7.99%)</title><rect x="652.8" y="357" width="94.3" height="15.0" fill="rgb(231,121,29)" rx="2" ry="2" />
<text  x="655.83" y="367.5" >VP8ParseInt..</text>
</g>
<g >
<title>syscall_exit_to_user_mode (923,749 samples, 0.08%)</title><rect x="1184.2" y="309" width="1.0" height="15.0" fill="rgb(251,211,50)" rx="2" ry="2" />
<text  x="1187.24" y="319.5" ></text>
</g>
<g >
<title>__close_nocancel (923,749 samples, 0.08%)</title><rect x="1184.2" y="357" width="1.0" height="15.0" fill="rgb(228,109,26)" rx="2" ry="2" />
<text  x="1187.24" y="367.5" ></text>
</g>
<g >
<title>TransformAC3_C (1,846,350 samples, 0.16%)</title><rect x="64.3" y="373" width="1.9" height="15.0" fill="rgb(209,19,4)" rx="2" ry="2" />
<text  x="67.31" y="383.5" ></text>
</g>
<g >
<title>do_syscall_64 (923,401 samples, 0.08%)</title><rect x="1185.7" y="325" width="0.9" height="15.0" fill="rgb(209,20,4)" rx="2" ry="2" />
<text  x="1188.66" y="335.5" ></text>
</g>
<g >
<title>do_filp_open (923,401 samples, 0.08%)</title><rect x="1185.7" y="277" width="0.9" height="15.0" fill="rgb(211,28,6)" rx="2" ry="2" />
<text  x="1188.66" y="287.5" ></text>
</g>
<g >
<title>ext4_reserve_inode_write (923,550 samples, 0.08%)</title><rect x="1187.6" y="181" width="0.9" height="15.0" fill="rgb(234,136,32)" rx="2" ry="2" />
<text  x="1190.57" y="191.5" ></text>
</g>
<g >
<title>nvme_queue_rqs (923,749 samples, 0.08%)</title><rect x="1184.2" y="85" width="1.0" height="15.0" fill="rgb(250,211,50)" rx="2" ry="2" />
<text  x="1187.24" y="95.5" ></text>
</g>
<g >
<title>VE8uv_C (922,801 samples, 0.08%)</title><rect x="633.8" y="357" width="0.9" height="15.0" fill="rgb(235,142,34)" rx="2" ry="2" />
<text  x="636.77" y="367.5" ></text>
</g>
<g >
<title>ext4_io_submit (923,749 samples, 0.08%)</title><rect x="1184.2" y="165" width="1.0" height="15.0" fill="rgb(214,43,10)" rx="2" ry="2" />
<text  x="1187.24" y="175.5" ></text>
</g>
<g >
<title>ksys_write (1,846,993 samples, 0.16%)</title><rect x="1186.6" y="309" width="1.9" height="15.0" fill="rgb(205,4,1)" rx="2" ry="2" />
<text  x="1189.61" y="319.5" ></text>
</g>
<g >
<title>dma_map_sgtable (923,749 samples, 0.08%)</title><rect x="1184.2" y="53" width="1.0" height="15.0" fill="rgb(237,150,36)" rx="2" ry="2" />
<text  x="1187.24" y="63.5" ></text>
</g>
<g >
<title>TransformWHT_C (923,395 samples, 0.08%)</title><rect x="632.8" y="357" width="1.0" height="15.0" fill="rgb(221,76,18)" rx="2" ry="2" />
<text  x="635.81" y="367.5" ></text>
</g>
<g >
<title>VP8DecodeMB (17,546,075 samples, 1.53%)</title><rect x="634.7" y="357" width="18.1" height="15.0" fill="rgb(208,18,4)" rx="2" ry="2" />
<text  x="637.72" y="367.5" ></text>
</g>
<g >
<title>ext4_writepages (923,749 samples, 0.08%)</title><rect x="1184.2" y="181" width="1.0" height="15.0" fill="rgb(240,165,39)" rx="2" ry="2" />
<text  x="1187.24" y="191.5" ></text>
</g>
<g >
<title>TransformDC_C (17,505,019 samples, 1.53%)</title><rect x="492.5" y="357" width="18.1" height="15.0" fill="rgb(219,65,15)" rx="2" ry="2" />
<text  x="495.49" y="367.5" ></text>
</g>
<g >
<title>filemap_fdatawrite_wbc (923,749 samples, 0.08%)</title><rect x="1184.2" y="213" width="1.0" height="15.0" fill="rgb(210,25,6)" rx="2" ry="2" />
<text  x="1187.24" y="223.5" ></text>
</g>
<g >
<title>cgroup_rstat_flush_locked (923,443 samples, 0.08%)</title><rect x="1186.6" y="165" width="1.0" height="15.0" fill="rgb(209,19,4)" rx="2" ry="2" />
<text  x="1189.61" y="175.5" ></text>
</g>
<g >
<title>HE16_C (924,148 samples, 0.08%)</title><rect x="451.1" y="357" width="0.9" height="15.0" fill="rgb(240,164,39)" rx="2" ry="2" />
<text  x="454.08" y="367.5" ></text>
</g>
<g >
<title>vfs_write (1,846,993 samples, 0.16%)</title><rect x="1186.6" y="293" width="1.9" height="15.0" fill="rgb(250,209,50)" rx="2" ry="2" />
<text  x="1189.61" y="303.5" ></text>
</g>
<g >
<title>__do_global_dtors_aux (453,793 samples, 0.04%)</title><rect x="1185.2" y="357" width="0.5" height="15.0" fill="rgb(245,185,44)" rx="2" ry="2" />
<text  x="1188.19" y="367.5" ></text>
</g>
<g >
<title>blk_mq_flush_plug_list (923,749 samples, 0.08%)</title><rect x="1184.2" y="101" width="1.0" height="15.0" fill="rgb(215,46,11)" rx="2" ry="2" />
<text  x="1187.24" y="111.5" ></text>
</g>
<g >
<title>TM8uv_C (1,846,711 samples, 0.16%)</title><rect x="487.3" y="357" width="1.9" height="15.0" fill="rgb(247,193,46)" rx="2" ry="2" />
<text  x="490.30" y="367.5" ></text>
</g>
<g >
<title>__dma_map_sg_attrs (923,749 samples, 0.08%)</title><rect x="1184.2" y="37" width="1.0" height="15.0" fill="rgb(251,212,50)" rx="2" ry="2" />
<text  x="1187.24" y="47.5" ></text>
</g>
<g >
<title>ReconstructRow (11,080,807 samples, 0.97%)</title><rect x="39.5" y="373" width="11.5" height="15.0" fill="rgb(225,93,22)" rx="2" ry="2" />
<text  x="42.53" y="383.5" ></text>
</g>
<g >
<title>GetCoeffsFast (422,600,090 samples, 36.96%)</title><rect x="747.1" y="341" width="436.2" height="15.0" fill="rgb(219,64,15)" rx="2" ry="2" />
<text  x="750.14" y="351.5" >GetCoeffsFast</text>
</g>
<g >
<title>handle_mm_fault (453,793 samples, 0.04%)</title><rect x="1185.2" y="261" width="0.5" height="15.0" fill="rgb(234,135,32)" rx="2" ry="2" />
<text  x="1188.19" y="271.5" ></text>
</g>
<g >
<title>exit_to_user_mode_prepare (923,749 samples, 0.08%)</title><rect x="1184.2" y="293" width="1.0" height="15.0" fill="rgb(228,108,25)" rx="2" ry="2" />
<text  x="1187.24" y="303.5" ></text>
</g>
<g >
<title>generic_write_end (923,550 samples, 0.08%)</title><rect x="1187.6" y="245" width="0.9" height="15.0" fill="rgb(206,8,1)" rx="2" ry="2" />
<text  x="1190.57" y="255.5" ></text>
</g>
<g >
<title>TransformAC3_C (1,412,473 samples, 0.12%)</title><rect x="489.2" y="357" width="1.5" height="15.0" fill="rgb(209,19,4)" rx="2" ry="2" />
<text  x="492.21" y="367.5" ></text>
</g>
<g >
<title>SimpleHFilter16i_C (924,049 samples, 0.08%)</title><rect x="51.0" y="373" width="0.9" height="15.0" fill="rgb(249,205,49)" rx="2" ry="2" />
<text  x="53.96" y="383.5" ></text>
</g>
<g >
<title>VL4_C (3,694,503 samples, 0.32%)</title><rect x="366.5" y="373" width="3.8" height="15.0" fill="rgb(234,136,32)" rx="2" ry="2" />
<text  x="369.54" y="383.5" ></text>
</g>
<g >
<title>UpsampleRgbLinePair_C (281,769,749 samples, 24.64%)</title><rect x="75.7" y="373" width="290.8" height="15.0" fill="rgb(228,108,26)" rx="2" ry="2" />
<text  x="78.74" y="383.5" >UpsampleRgbLinePair_C</text>
</g>
<g >
<title>TM4_C (2,771,797 samples, 0.24%)</title><rect x="61.4" y="373" width="2.9" height="15.0" fill="rgb(241,165,39)" rx="2" ry="2" />
<text  x="64.45" y="383.5" ></text>
</g>
<g >
<title>do_fault (453,793 samples, 0.04%)</title><rect x="1185.2" y="229" width="0.5" height="15.0" fill="rgb(248,200,47)" rx="2" ry="2" />
<text  x="1188.19" y="239.5" ></text>
</g>
<g >
<title>VP8ParseIntraModeRow (4,617,327 samples, 0.40%)</title><rect x="389.4" y="373" width="4.8" height="15.0" fill="rgb(231,121,29)" rx="2" ry="2" />
<text  x="392.39" y="383.5" ></text>
</g>
<g >
<title>mem_cgroup_wb_stats (923,443 samples, 0.08%)</title><rect x="1186.6" y="213" width="1.0" height="15.0" fill="rgb(211,28,6)" rx="2" ry="2" />
<text  x="1189.61" y="223.5" ></text>
</g>
<g >
<title>HE4_C (1,847,972 samples, 0.16%)</title><rect x="29.1" y="373" width="1.9" height="15.0" fill="rgb(220,70,16)" rx="2" ry="2" />
<text  x="32.06" y="383.5" ></text>
</g>
<g >
<title>entry_SYSCALL_64_after_hwframe (478,642 samples, 0.04%)</title><rect x="1188.5" y="357" width="0.5" height="15.0" fill="rgb(218,63,15)" rx="2" ry="2" />
<text  x="1191.52" y="367.5" ></text>
</g>
<g >
<title>entry_SYSCALL_64_after_hwframe (923,401 samples, 0.08%)</title><rect x="1185.7" y="341" width="0.9" height="15.0" fill="rgb(218,63,15)" rx="2" ry="2" />
<text  x="1188.66" y="351.5" ></text>
</g>
<g >
<title>do_execveat_common.isra.0 (478,642 samples, 0.04%)</title><rect x="1188.5" y="309" width="0.5" height="15.0" fill="rgb(231,123,29)" rx="2" ry="2" />
<text  x="1191.52" y="319.5" ></text>
</g>
<g >
<title>FinishRow (1,747,890 samples, 0.15%)</title><rect x="399.8" y="357" width="1.8" height="15.0" fill="rgb(213,41,9)" rx="2" ry="2" />
<text  x="402.77" y="367.5" ></text>
</g>
<g >
<title>load_elf_binary (478,642 samples, 0.04%)</title><rect x="1188.5" y="277" width="0.5" height="15.0" fill="rgb(223,83,20)" rx="2" ry="2" />
<text  x="1191.52" y="287.5" ></text>
</g>
<g >
<title>TransformOne_C (117,541,037 samples, 10.28%)</title><rect x="510.6" y="357" width="121.3" height="15.0" fill="rgb(218,59,14)" rx="2" ry="2" />
<text  x="513.55" y="367.5" >TransformOne_C</text>
</g>
<g >
<title>__ext4_journal_get_write_access (923,550 samples, 0.08%)</title><rect x="1187.6" y="165" width="0.9" height="15.0" fill="rgb(243,176,42)" rx="2" ry="2" />
<text  x="1190.57" y="175.5" ></text>
</g>
<g >
<title>exc_page_fault (453,793 samples, 0.04%)</title><rect x="1185.2" y="293" width="0.5" height="15.0" fill="rgb(212,35,8)" rx="2" ry="2" />
<text  x="1188.19" y="303.5" ></text>
</g>
<g >
<title>[unknown] (423,523,506 samples, 37.04%)</title><rect x="747.1" y="357" width="437.1" height="15.0" fill="rgb(210,24,5)" rx="2" ry="2" />
<text  x="750.14" y="367.5" >[unknown]</text>
</g>
<g >
<title>nvme_prep_rq.part.0 (923,749 samples, 0.08%)</title><rect x="1184.2" y="69" width="1.0" height="15.0" fill="rgb(214,42,10)" rx="2" ry="2" />
<text  x="1187.24" y="79.5" ></text>
</g>
<g >
<title>blk_mq_submit_bio (923,749 samples, 0.08%)</title><rect x="1184.2" y="133" width="1.0" height="15.0" fill="rgb(224,89,21)" rx="2" ry="2" />
<text  x="1187.24" y="143.5" ></text>
</g>
<g >
<title>generic_perform_write (1,846,993 samples, 0.16%)</title><rect x="1186.6" y="261" width="1.9" height="15.0" fill="rgb(236,146,35)" rx="2" ry="2" />
<text  x="1189.61" y="271.5" ></text>
</g>
<g >
<title>mem_cgroup_css_rstat_flush (923,443 samples, 0.08%)</title><rect x="1186.6" y="149" width="1.0" height="15.0" fill="rgb(253,222,53)" rx="2" ry="2" />
<text  x="1189.61" y="159.5" ></text>
</g>
<g >
<title>all (1,143,358,545 samples, 100%)</title><rect x="10.0" y="405" width="1180.0" height="15.0" fill="rgb(213,39,9)" rx="2" ry="2" />
<text  x="13.00" y="415.5" ></text>
</g>
<g >
<title>GetCoeffsFast (3,693,320 samples, 0.32%)</title><rect x="401.6" y="357" width="3.8" height="15.0" fill="rgb(219,64,15)" rx="2" ry="2" />
<text  x="404.57" y="367.5" ></text>
</g>
<g >
<title>__memmove_avx_unaligned_erms (924,038 samples, 0.08%)</title><rect x="1189.0" y="373" width="1.0" height="15.0" fill="rgb(205,0,0)" rx="2" ry="2" />
<text  x="1192.01" y="383.5" ></text>
</g>
<g >
<title>DC8uv_C (1,847,321 samples, 0.16%)</title><rect x="397.9" y="357" width="1.9" height="15.0" fill="rgb(215,46,11)" rx="2" ry="2" />
<text  x="400.86" y="367.5" ></text>
</g>
<g >
<title>cgroup_rstat_flush_irqsafe (923,443 samples, 0.08%)</title><rect x="1186.6" y="181" width="1.0" height="15.0" fill="rgb(227,103,24)" rx="2" ry="2" />
<text  x="1189.61" y="191.5" ></text>
</g>
<g >
<title>__fput (923,749 samples, 0.08%)</title><rect x="1184.2" y="261" width="1.0" height="15.0" fill="rgb(248,200,47)" rx="2" ry="2" />
<text  x="1187.24" y="271.5" ></text>
</g>
<g >
<title>__register_frame_info (453,793 samples, 0.04%)</title><rect x="1185.2" y="325" width="0.5" height="15.0" fill="rgb(251,215,51)" rx="2" ry="2" />
<text  x="1188.19" y="335.5" ></text>
</g>
</g>
</svg>
