<?xml version="1.0" standalone="no"?>
<!DOCTYPE svg PUBLIC "-//W3C//DTD SVG 1.1//EN" "http://www.w3.org/Graphics/SVG/1.1/DTD/svg11.dtd">
<svg version="1.1" width="1200" height="326" onload="init(evt)" viewBox="0 0 1200 326" xmlns="http://www.w3.org/2000/svg" xmlns:xlink="http://www.w3.org/1999/xlink">
<!-- Flame graph stack visualization. See https://github.com/brendangregg/FlameGraph for latest version, and http://www.brendangregg.com/flamegraphs.html for examples. -->
<!-- NOTES:  -->
<defs>
	<linearGradient id="background" y1="0" y2="1" x1="0" x2="0" >
		<stop stop-color="#eeeeee" offset="5%" />
		<stop stop-color="#eeeeb0" offset="95%" />
	</linearGradient>
</defs>
<style type="text/css">
	text { font-family:Verdana; font-size:12px; fill:rgb(0,0,0); }
	#search, #ignorecase { opacity:0.1; cursor:pointer; }
	#search:hover, #search.show, #ignorecase:hover, #ignorecase.show { opacity:1; }
	#subtitle { text-anchor:middle; font-color:rgb(160,160,160); }
	#title { text-anchor:middle; font-size:17px}
	#unzoom { cursor:pointer; }
	#frames > *:hover { stroke:black; stroke-width:0.5; cursor:pointer; }
	.hide { display:none; }
	.parent { opacity:0.5; }
</style>
<script type="text/ecmascript">
<![CDATA[
	"use strict";
	var details, searchbtn, unzoombtn, matchedtxt, svg, searching, currentSearchTerm, ignorecase, ignorecaseBtn;
	function init(evt) {
		details = document.getElementById("details").firstChild;
		searchbtn = document.getElementById("search");
		ignorecaseBtn = document.getElementById("ignorecase");
		unzoombtn = document.getElementById("unzoom");
		matchedtxt = document.getElementById("matched");
		svg = document.getElementsByTagName("svg")[0];
		searching = 0;
		currentSearchTerm = null;

		// use GET parameters to restore a flamegraphs state.
		var params = get_params();
		if (params.x && params.y)
			zoom(find_group(document.querySelector('[x="' + params.x + '"][y="' + params.y + '"]')));
                if (params.s) search(params.s);
	}

	// event listeners
	window.addEventListener("click", function(e) {
		var target = find_group(e.target);
		if (target) {
			if (target.nodeName == "a") {
				if (e.ctrlKey === false) return;
				e.preventDefault();
			}
			if (target.classList.contains("parent")) unzoom(true);
			zoom(target);
			if (!document.querySelector('.parent')) {
				// we have basically done a clearzoom so clear the url
				var params = get_params();
				if (params.x) delete params.x;
				if (params.y) delete params.y;
				history.replaceState(null, null, parse_params(params));
				unzoombtn.classList.add("hide");
				return;
			}

			// set parameters for zoom state
			var el = target.querySelector("rect");
			if (el && el.attributes && el.attributes.y && el.attributes._orig_x) {
				var params = get_params()
				params.x = el.attributes._orig_x.value;
				params.y = el.attributes.y.value;
				history.replaceState(null, null, parse_params(params));
			}
		}
		else if (e.target.id == "unzoom") clearzoom();
		else if (e.target.id == "search") search_prompt();
		else if (e.target.id == "ignorecase") toggle_ignorecase();
	}, false)

	// mouse-over for info
	// show
	window.addEventListener("mouseover", function(e) {
		var target = find_group(e.target);
		if (target) details.nodeValue = "Function: " + g_to_text(target);
	}, false)

	// clear
	window.addEventListener("mouseout", function(e) {
		var target = find_group(e.target);
		if (target) details.nodeValue = ' ';
	}, false)

	// ctrl-F for search
	// ctrl-I to toggle case-sensitive search
	window.addEventListener("keydown",function (e) {
		if (e.keyCode === 114 || (e.ctrlKey && e.keyCode === 70)) {
			e.preventDefault();
			search_prompt();
		}
		else if (e.ctrlKey && e.keyCode === 73) {
			e.preventDefault();
			toggle_ignorecase();
		}
	}, false)

	// functions
	function get_params() {
		var params = {};
		var paramsarr = window.location.search.substr(1).split('&');
		for (var i = 0; i < paramsarr.length; ++i) {
			var tmp = paramsarr[i].split("=");
			if (!tmp[0] || !tmp[1]) continue;
			params[tmp[0]]  = decodeURIComponent(tmp[1]);
		}
		return params;
	}
	function parse_params(params) {
		var uri = "?";
		for (var key in params) {
			uri += key + '=' + encodeURIComponent(params[key]) + '&';
		}
		if (uri.slice(-1) == "&")
			uri = uri.substring(0, uri.length - 1);
		if (uri == '?')
			uri = window.location.href.split('?')[0];
		return uri;
	}
	function find_child(node, selector) {
		var children = node.querySelectorAll(selector);
		if (children.length) return children[0];
	}
	function find_group(node) {
		var parent = node.parentElement;
		if (!parent) return;
		if (parent.id == "frames") return node;
		return find_group(parent);
	}
	function orig_save(e, attr, val) {
		if (e.attributes["_orig_" + attr] != undefined) return;
		if (e.attributes[attr] == undefined) return;
		if (val == undefined) val = e.attributes[attr].value;
		e.setAttribute("_orig_" + attr, val);
	}
	function orig_load(e, attr) {
		if (e.attributes["_orig_"+attr] == undefined) return;
		e.attributes[attr].value = e.attributes["_orig_" + attr].value;
		e.removeAttribute("_orig_"+attr);
	}
	function g_to_text(e) {
		var text = find_child(e, "title").firstChild.nodeValue;
		return (text)
	}
	function g_to_func(e) {
		var func = g_to_text(e);
		// if there's any manipulation we want to do to the function
		// name before it's searched, do it here before returning.
		return (func);
	}
	function update_text(e) {
		var r = find_child(e, "rect");
		var t = find_child(e, "text");
		var w = parseFloat(r.attributes.width.value) -3;
		var txt = find_child(e, "title").textContent.replace(/\([^(]*\)$/,"");
		t.attributes.x.value = parseFloat(r.attributes.x.value) + 3;

		// Smaller than this size won't fit anything
		if (w < 2 * 12 * 0.59) {
			t.textContent = "";
			return;
		}

		t.textContent = txt;
		var sl = t.getSubStringLength(0, txt.length);
		// check if only whitespace or if we can fit the entire string into width w
		if (/^ *$/.test(txt) || sl < w)
			return;

		// this isn't perfect, but gives a good starting point
		// and avoids calling getSubStringLength too often
		var start = Math.floor((w/sl) * txt.length);
		for (var x = start; x > 0; x = x-2) {
			if (t.getSubStringLength(0, x + 2) <= w) {
				t.textContent = txt.substring(0, x) + "..";
				return;
			}
		}
		t.textContent = "";
	}

	// zoom
	function zoom_reset(e) {
		if (e.attributes != undefined) {
			orig_load(e, "x");
			orig_load(e, "width");
		}
		if (e.childNodes == undefined) return;
		for (var i = 0, c = e.childNodes; i < c.length; i++) {
			zoom_reset(c[i]);
		}
	}
	function zoom_child(e, x, ratio) {
		if (e.attributes != undefined) {
			if (e.attributes.x != undefined) {
				orig_save(e, "x");
				e.attributes.x.value = (parseFloat(e.attributes.x.value) - x - 10) * ratio + 10;
				if (e.tagName == "text")
					e.attributes.x.value = find_child(e.parentNode, "rect[x]").attributes.x.value + 3;
			}
			if (e.attributes.width != undefined) {
				orig_save(e, "width");
				e.attributes.width.value = parseFloat(e.attributes.width.value) * ratio;
			}
		}

		if (e.childNodes == undefined) return;
		for (var i = 0, c = e.childNodes; i < c.length; i++) {
			zoom_child(c[i], x - 10, ratio);
		}
	}
	function zoom_parent(e) {
		if (e.attributes) {
			if (e.attributes.x != undefined) {
				orig_save(e, "x");
				e.attributes.x.value = 10;
			}
			if (e.attributes.width != undefined) {
				orig_save(e, "width");
				e.attributes.width.value = parseInt(svg.width.baseVal.value) - (10 * 2);
			}
		}
		if (e.childNodes == undefined) return;
		for (var i = 0, c = e.childNodes; i < c.length; i++) {
			zoom_parent(c[i]);
		}
	}
	function zoom(node) {
		var attr = find_child(node, "rect").attributes;
		var width = parseFloat(attr.width.value);
		var xmin = parseFloat(attr.x.value);
		var xmax = parseFloat(xmin + width);
		var ymin = parseFloat(attr.y.value);
		var ratio = (svg.width.baseVal.value - 2 * 10) / width;

		// XXX: Workaround for JavaScript float issues (fix me)
		var fudge = 0.0001;

		unzoombtn.classList.remove("hide");

		var el = document.getElementById("frames").children;
		for (var i = 0; i < el.length; i++) {
			var e = el[i];
			var a = find_child(e, "rect").attributes;
			var ex = parseFloat(a.x.value);
			var ew = parseFloat(a.width.value);
			var upstack;
			// Is it an ancestor
			if (0 == 0) {
				upstack = parseFloat(a.y.value) > ymin;
			} else {
				upstack = parseFloat(a.y.value) < ymin;
			}
			if (upstack) {
				// Direct ancestor
				if (ex <= xmin && (ex+ew+fudge) >= xmax) {
					e.classList.add("parent");
					zoom_parent(e);
					update_text(e);
				}
				// not in current path
				else
					e.classList.add("hide");
			}
			// Children maybe
			else {
				// no common path
				if (ex < xmin || ex + fudge >= xmax) {
					e.classList.add("hide");
				}
				else {
					zoom_child(e, xmin, ratio);
					update_text(e);
				}
			}
		}
		search();
	}
	function unzoom(dont_update_text) {
		unzoombtn.classList.add("hide");
		var el = document.getElementById("frames").children;
		for(var i = 0; i < el.length; i++) {
			el[i].classList.remove("parent");
			el[i].classList.remove("hide");
			zoom_reset(el[i]);
			if(!dont_update_text) update_text(el[i]);
		}
		search();
	}
	function clearzoom() {
		unzoom();

		// remove zoom state
		var params = get_params();
		if (params.x) delete params.x;
		if (params.y) delete params.y;
		history.replaceState(null, null, parse_params(params));
	}

	// search
	function toggle_ignorecase() {
		ignorecase = !ignorecase;
		if (ignorecase) {
			ignorecaseBtn.classList.add("show");
		} else {
			ignorecaseBtn.classList.remove("show");
		}
		reset_search();
		search();
	}
	function reset_search() {
		var el = document.querySelectorAll("#frames rect");
		for (var i = 0; i < el.length; i++) {
			orig_load(el[i], "fill")
		}
		var params = get_params();
		delete params.s;
		history.replaceState(null, null, parse_params(params));
	}
	function search_prompt() {
		if (!searching) {
			var term = prompt("Enter a search term (regexp " +
			    "allowed, eg: ^ext4_)"
			    + (ignorecase ? ", ignoring case" : "")
			    + "\nPress Ctrl-i to toggle case sensitivity", "");
			if (term != null) search(term);
		} else {
			reset_search();
			searching = 0;
			currentSearchTerm = null;
			searchbtn.classList.remove("show");
			searchbtn.firstChild.nodeValue = "Search"
			matchedtxt.classList.add("hide");
			matchedtxt.firstChild.nodeValue = ""
		}
	}
	function search(term) {
		if (term) currentSearchTerm = term;

		var re = new RegExp(currentSearchTerm, ignorecase ? 'i' : '');
		var el = document.getElementById("frames").children;
		var matches = new Object();
		var maxwidth = 0;
		for (var i = 0; i < el.length; i++) {
			var e = el[i];
			var func = g_to_func(e);
			var rect = find_child(e, "rect");
			if (func == null || rect == null)
				continue;

			// Save max width. Only works as we have a root frame
			var w = parseFloat(rect.attributes.width.value);
			if (w > maxwidth)
				maxwidth = w;

			if (func.match(re)) {
				// highlight
				var x = parseFloat(rect.attributes.x.value);
				orig_save(rect, "fill");
				rect.attributes.fill.value = "rgb(230,0,230)";

				// remember matches
				if (matches[x] == undefined) {
					matches[x] = w;
				} else {
					if (w > matches[x]) {
						// overwrite with parent
						matches[x] = w;
					}
				}
				searching = 1;
			}
		}
		if (!searching)
			return;
		var params = get_params();
		params.s = currentSearchTerm;
		history.replaceState(null, null, parse_params(params));

		searchbtn.classList.add("show");
		searchbtn.firstChild.nodeValue = "Reset Search";

		// calculate percent matched, excluding vertical overlap
		var count = 0;
		var lastx = -1;
		var lastw = 0;
		var keys = Array();
		for (k in matches) {
			if (matches.hasOwnProperty(k))
				keys.push(k);
		}
		// sort the matched frames by their x location
		// ascending, then width descending
		keys.sort(function(a, b){
			return a - b;
		});
		// Step through frames saving only the biggest bottom-up frames
		// thanks to the sort order. This relies on the tree property
		// where children are always smaller than their parents.
		var fudge = 0.0001;	// JavaScript floating point
		for (var k in keys) {
			var x = parseFloat(keys[k]);
			var w = matches[keys[k]];
			if (x >= lastx + lastw - fudge) {
				count += w;
				lastx = x;
				lastw = w;
			}
		}
		// display matched percent
		matchedtxt.classList.remove("hide");
		var pct = 100 * count / maxwidth;
		if (pct != 100) pct = pct.toFixed(1)
		matchedtxt.firstChild.nodeValue = "Matched: " + pct + "%";
	}
]]>
</script>
<rect x="0.0" y="0" width="1200.0" height="326.0" fill="url(#background)"  />
<text id="title" x="600.00" y="24" >Flame Graph</text>
<text id="details" x="10.00" y="309" > </text>
<text id="unzoom" x="10.00" y="24" class="hide">Reset Zoom</text>
<text id="search" x="1090.00" y="24" >Search</text>
<text id="ignorecase" x="1174.00" y="24" >ic</text>
<text id="matched" x="1090.00" y="309" > </text>
<g id="frames">
<g >
<title>unmap_vmas (877,343 samples, 0.06%)</title><rect x="106.9" y="133" width="0.7" height="15.0" fill="rgb(243,176,42)" rx="2" ry="2" />
<text  x="109.89" y="143.5" ></text>
</g>
<g >
<title>w2c_decode__webp__wasmsimd_dlmalloc (407,127 samples, 0.03%)</title><rect x="1189.6" y="245" width="0.4" height="15.0" fill="rgb(229,110,26)" rx="2" ry="2" />
<text  x="1192.64" y="255.5" ></text>
</g>
<g >
<title>w2c_decode__webp__wasmsimd_IDecode (4,618,442 samples, 0.32%)</title><rect x="28.8" y="149" width="3.7" height="15.0" fill="rgb(237,147,35)" rx="2" ry="2" />
<text  x="31.78" y="159.5" ></text>
</g>
<g >
<title>perf_iterate_ctx (363,847 samples, 0.03%)</title><rect x="90.1" y="85" width="0.2" height="15.0" fill="rgb(205,4,0)" rx="2" ry="2" />
<text  x="93.05" y="95.5" ></text>
</g>
<g >
<title>[unknown] (114,453,387 samples, 7.89%)</title><rect x="10.0" y="245" width="93.1" height="15.0" fill="rgb(210,24,5)" rx="2" ry="2" />
<text  x="13.00" y="255.5" >[unknown]</text>
</g>
<g >
<title>__mark_inode_dirty (877,259 samples, 0.06%)</title><rect x="88.5" y="101" width="0.7" height="15.0" fill="rgb(254,227,54)" rx="2" ry="2" />
<text  x="91.49" y="111.5" ></text>
</g>
<g >
<title>w2c_decode__webp__wasmsimd_VP8ParseProba (1,846,309 samples, 0.13%)</title><rect x="1188.1" y="245" width="1.5" height="15.0" fill="rgb(216,51,12)" rx="2" ry="2" />
<text  x="1191.14" y="255.5" ></text>
</g>
<g >
<title>[unknown] (95,081,778 samples, 6.56%)</title><rect x="10.0" y="213" width="77.4" height="15.0" fill="rgb(210,24,5)" rx="2" ry="2" />
<text  x="13.00" y="223.5" >[unknown]</text>
</g>
<g >
<title>__memmove_avx_unaligned_erms (924,036 samples, 0.06%)</title><rect x="103.1" y="245" width="0.8" height="15.0" fill="rgb(205,0,0)" rx="2" ry="2" />
<text  x="106.13" y="255.5" ></text>
</g>
<g >
<title>w2c_decode__webp__wasmsimd_GetCoeffsFast (5,544,437 samples, 0.38%)</title><rect x="90.3" y="229" width="4.6" height="15.0" fill="rgb(210,26,6)" rx="2" ry="2" />
<text  x="93.35" y="239.5" ></text>
</g>
<g >
<title>w2c_decode__webp__wasmsimd_DC8uv_C (924,154 samples, 0.06%)</title><rect x="19.8" y="149" width="0.7" height="15.0" fill="rgb(206,8,2)" rx="2" ry="2" />
<text  x="22.76" y="159.5" ></text>
</g>
<g >
<title>decode_webp_was (1,450,200,978 samples, 100.00%)</title><rect x="10.0" y="261" width="1180.0" height="15.0" fill="rgb(216,54,12)" rx="2" ry="2" />
<text  x="13.00" y="271.5" >decode_webp_was</text>
</g>
<g >
<title>check_preemption_disabled (389,580 samples, 0.03%)</title><rect x="1187.1" y="133" width="0.3" height="15.0" fill="rgb(220,73,17)" rx="2" ry="2" />
<text  x="1190.07" y="143.5" ></text>
</g>
<g >
<title>vma_alloc_folio (923,070 samples, 0.06%)</title><rect x="89.2" y="133" width="0.8" height="15.0" fill="rgb(245,187,44)" rx="2" ry="2" />
<text  x="92.20" y="143.5" ></text>
</g>
<g >
<title>w2c_decode__webp__wasmsimd_HE8uv_C (924,214 samples, 0.06%)</title><rect x="609.5" y="245" width="0.7" height="15.0" fill="rgb(218,60,14)" rx="2" ry="2" />
<text  x="612.46" y="255.5" ></text>
</g>
<g >
<title>do_group_exit (877,343 samples, 0.06%)</title><rect x="106.9" y="197" width="0.7" height="15.0" fill="rgb(219,67,16)" rx="2" ry="2" />
<text  x="109.89" y="207.5" ></text>
</g>
<g >
<title>__ext4_handle_dirty_metadata (877,259 samples, 0.06%)</title><rect x="88.5" y="37" width="0.7" height="15.0" fill="rgb(254,226,54)" rx="2" ry="2" />
<text  x="91.49" y="47.5" ></text>
</g>
<g >
<title>__install_special_mapping (363,847 samples, 0.03%)</title><rect x="90.1" y="117" width="0.2" height="15.0" fill="rgb(212,35,8)" rx="2" ry="2" />
<text  x="93.05" y="127.5" ></text>
</g>
<g >
<title>asm_exc_page_fault (1,784,172 samples, 0.12%)</title><rect x="1185.9" y="229" width="1.5" height="15.0" fill="rgb(225,93,22)" rx="2" ry="2" />
<text  x="1188.94" y="239.5" ></text>
</g>
<g >
<title>__register_frame_info (455,954 samples, 0.03%)</title><rect x="87.4" y="197" width="0.3" height="15.0" fill="rgb(251,215,51)" rx="2" ry="2" />
<text  x="90.36" y="207.5" ></text>
</g>
<g >
<title>w2c_decode__webp__wasmsimd_TM8uv_C (2,771,041 samples, 0.19%)</title><rect x="784.9" y="245" width="2.2" height="15.0" fill="rgb(238,156,37)" rx="2" ry="2" />
<text  x="787.86" y="255.5" ></text>
</g>
<g >
<title>generic_write_end (877,259 samples, 0.06%)</title><rect x="88.5" y="117" width="0.7" height="15.0" fill="rgb(206,8,1)" rx="2" ry="2" />
<text  x="91.49" y="127.5" ></text>
</g>
<g >
<title>w2c_decode__webp__wasmsimd_UpsampleRgbLinePair_C (377,505,595 samples, 26.03%)</title><rect x="880.2" y="245" width="307.2" height="15.0" fill="rgb(220,71,16)" rx="2" ry="2" />
<text  x="883.23" y="255.5" >w2c_decode__webp__wasmsimd_UpsampleRgbLin..</text>
</g>
<g >
<title>ext4_mark_iloc_dirty (877,259 samples, 0.06%)</title><rect x="88.5" y="53" width="0.7" height="15.0" fill="rgb(226,101,24)" rx="2" ry="2" />
<text  x="91.49" y="63.5" ></text>
</g>
<g >
<title>fsnotify (922,970 samples, 0.06%)</title><rect x="87.7" y="69" width="0.8" height="15.0" fill="rgb(215,50,12)" rx="2" ry="2" />
<text  x="90.74" y="79.5" ></text>
</g>
<g >
<title>entry_SYSCALL_64_after_hwframe (922,970 samples, 0.06%)</title><rect x="87.7" y="213" width="0.8" height="15.0" fill="rgb(218,63,15)" rx="2" ry="2" />
<text  x="90.74" y="223.5" ></text>
</g>
<g >
<title>w2c_decode__webp__wasmsimd_GetCoeffsFast (547,516,370 samples, 37.75%)</title><rect x="110.6" y="245" width="445.5" height="15.0" fill="rgb(210,26,6)" rx="2" ry="2" />
<text  x="113.61" y="255.5" >w2c_decode__webp__wasmsimd_GetCoeffsFast</text>
</g>
<g >
<title>w2c_decode__webp__wasmsimd_RD4_C (1,846,390 samples, 0.13%)</title><rect x="36.3" y="149" width="1.5" height="15.0" fill="rgb(253,225,53)" rx="2" ry="2" />
<text  x="39.29" y="159.5" ></text>
</g>
<g >
<title>vfs_write (877,259 samples, 0.06%)</title><rect x="88.5" y="165" width="0.7" height="15.0" fill="rgb(250,209,50)" rx="2" ry="2" />
<text  x="91.49" y="175.5" ></text>
</g>
<g >
<title>w2c_decode__webp__wasmsimd_IDecode (162,921,933 samples, 11.23%)</title><rect x="610.2" y="245" width="132.6" height="15.0" fill="rgb(237,147,35)" rx="2" ry="2" />
<text  x="613.21" y="255.5" >w2c_decode__webp..</text>
</g>
<g >
<title>do_syscall_64 (877,259 samples, 0.06%)</title><rect x="88.5" y="197" width="0.7" height="15.0" fill="rgb(209,20,4)" rx="2" ry="2" />
<text  x="91.49" y="207.5" ></text>
</g>
<g >
<title>__count_memcg_events (389,580 samples, 0.03%)</title><rect x="1187.1" y="149" width="0.3" height="15.0" fill="rgb(250,211,50)" rx="2" ry="2" />
<text  x="1190.07" y="159.5" ></text>
</g>
<g >
<title>[unknown] (95,081,778 samples, 6.56%)</title><rect x="10.0" y="165" width="77.4" height="15.0" fill="rgb(210,24,5)" rx="2" ry="2" />
<text  x="13.00" y="175.5" >[unknown]</text>
</g>
<g >
<title>__handle_mm_fault (1,394,592 samples, 0.10%)</title><rect x="1185.9" y="165" width="1.2" height="15.0" fill="rgb(207,9,2)" rx="2" ry="2" />
<text  x="1188.94" y="175.5" ></text>
</g>
<g >
<title>charge_memcg (407,127 samples, 0.03%)</title><rect x="1189.6" y="133" width="0.4" height="15.0" fill="rgb(242,170,40)" rx="2" ry="2" />
<text  x="1192.64" y="143.5" ></text>
</g>
<g >
<title>w2c_decode__webp__wasmsimd_TM16_C (5,536,405 samples, 0.38%)</title><rect x="780.4" y="245" width="4.5" height="15.0" fill="rgb(253,222,53)" rx="2" ry="2" />
<text  x="783.35" y="255.5" ></text>
</g>
<g >
<title>__mem_cgroup_charge (791,056 samples, 0.05%)</title><rect x="1186.4" y="149" width="0.7" height="15.0" fill="rgb(218,60,14)" rx="2" ry="2" />
<text  x="1189.43" y="159.5" ></text>
</g>
<g >
<title>security_bprm_committed_creds (123,279 samples, 0.01%)</title><rect x="90.0" y="117" width="0.1" height="15.0" fill="rgb(231,121,29)" rx="2" ry="2" />
<text  x="92.95" y="127.5" ></text>
</g>
<g >
<title>handle_mm_fault (407,127 samples, 0.03%)</title><rect x="1189.6" y="181" width="0.4" height="15.0" fill="rgb(234,135,32)" rx="2" ry="2" />
<text  x="1192.64" y="191.5" ></text>
</g>
<g >
<title>exc_page_fault (923,070 samples, 0.06%)</title><rect x="89.2" y="197" width="0.8" height="15.0" fill="rgb(212,35,8)" rx="2" ry="2" />
<text  x="92.20" y="207.5" ></text>
</g>
<g >
<title>charge_memcg (791,056 samples, 0.05%)</title><rect x="1186.4" y="133" width="0.7" height="15.0" fill="rgb(242,170,40)" rx="2" ry="2" />
<text  x="1189.43" y="143.5" ></text>
</g>
<g >
<title>do_sys_openat2 (922,970 samples, 0.06%)</title><rect x="87.7" y="165" width="0.8" height="15.0" fill="rgb(253,221,52)" rx="2" ry="2" />
<text  x="90.74" y="175.5" ></text>
</g>
<g >
<title>do_user_addr_fault (1,784,172 samples, 0.12%)</title><rect x="1185.9" y="197" width="1.5" height="15.0" fill="rgb(228,108,25)" rx="2" ry="2" />
<text  x="1188.94" y="207.5" ></text>
</g>
<g >
<title>do_filp_open (922,970 samples, 0.06%)</title><rect x="87.7" y="149" width="0.8" height="15.0" fill="rgb(211,28,6)" rx="2" ry="2" />
<text  x="90.74" y="159.5" ></text>
</g>
<g >
<title>entry_SYSCALL_64_after_hwframe (487,126 samples, 0.03%)</title><rect x="90.0" y="229" width="0.3" height="15.0" fill="rgb(218,63,15)" rx="2" ry="2" />
<text  x="92.95" y="239.5" ></text>
</g>
<g >
<title>__x64_sys_execve (487,126 samples, 0.03%)</title><rect x="90.0" y="197" width="0.3" height="15.0" fill="rgb(247,193,46)" rx="2" ry="2" />
<text  x="92.95" y="207.5" ></text>
</g>
<g >
<title>mem_cgroup_charge_statistics (791,056 samples, 0.05%)</title><rect x="1186.4" y="117" width="0.7" height="15.0" fill="rgb(232,126,30)" rx="2" ry="2" />
<text  x="1189.43" y="127.5" ></text>
</g>
<g >
<title>_compound_head (877,343 samples, 0.06%)</title><rect x="106.9" y="101" width="0.7" height="15.0" fill="rgb(225,94,22)" rx="2" ry="2" />
<text  x="109.89" y="111.5" ></text>
</g>
<g >
<title>do_syscall_64 (922,970 samples, 0.06%)</title><rect x="87.7" y="197" width="0.8" height="15.0" fill="rgb(209,20,4)" rx="2" ry="2" />
<text  x="90.74" y="207.5" ></text>
</g>
<g >
<title>ext4_buffered_write_iter (877,259 samples, 0.06%)</title><rect x="88.5" y="149" width="0.7" height="15.0" fill="rgb(213,40,9)" rx="2" ry="2" />
<text  x="91.49" y="159.5" ></text>
</g>
<g >
<title>w2c_decode__webp__wasmsimd_DC4_C (11,069,351 samples, 0.76%)</title><rect x="10.8" y="149" width="9.0" height="15.0" fill="rgb(250,210,50)" rx="2" ry="2" />
<text  x="13.75" y="159.5" ></text>
</g>
<g >
<title>w2c_decode__webp__wasmsimd_VE4_C (923,055 samples, 0.06%)</title><rect x="83.6" y="149" width="0.8" height="15.0" fill="rgb(221,76,18)" rx="2" ry="2" />
<text  x="86.61" y="159.5" ></text>
</g>
<g >
<title>handle_mm_fault (923,070 samples, 0.06%)</title><rect x="89.2" y="165" width="0.8" height="15.0" fill="rgb(234,135,32)" rx="2" ry="2" />
<text  x="92.20" y="175.5" ></text>
</g>
<g >
<title>exc_page_fault (407,127 samples, 0.03%)</title><rect x="1189.6" y="213" width="0.4" height="15.0" fill="rgb(212,35,8)" rx="2" ry="2" />
<text  x="1192.64" y="223.5" ></text>
</g>
<g >
<title>ksys_write (877,259 samples, 0.06%)</title><rect x="88.5" y="181" width="0.7" height="15.0" fill="rgb(205,4,1)" rx="2" ry="2" />
<text  x="91.49" y="191.5" ></text>
</g>
<g >
<title>handle_mm_fault (1,784,172 samples, 0.12%)</title><rect x="1185.9" y="181" width="1.5" height="15.0" fill="rgb(234,135,32)" rx="2" ry="2" />
<text  x="1188.94" y="191.5" ></text>
</g>
<g >
<title>w2c_decode__webp__wasmsimd_TransformTwo_C (923,072 samples, 0.06%)</title><rect x="102.4" y="229" width="0.7" height="15.0" fill="rgb(254,228,54)" rx="2" ry="2" />
<text  x="105.38" y="239.5" ></text>
</g>
<g >
<title>__do_global_dtors_aux (455,954 samples, 0.03%)</title><rect x="87.4" y="229" width="0.3" height="15.0" fill="rgb(245,185,44)" rx="2" ry="2" />
<text  x="90.36" y="239.5" ></text>
</g>
<g >
<title>notify_change (922,970 samples, 0.06%)</title><rect x="87.7" y="101" width="0.8" height="15.0" fill="rgb(237,150,35)" rx="2" ry="2" />
<text  x="90.74" y="111.5" ></text>
</g>
<g >
<title>w2c_decode__webp__wasmsimd_VR4_C (2,770,626 samples, 0.19%)</title><rect x="85.1" y="149" width="2.3" height="15.0" fill="rgb(237,150,35)" rx="2" ry="2" />
<text  x="88.11" y="159.5" ></text>
</g>
<g >
<title>asm_exc_page_fault (407,127 samples, 0.03%)</title><rect x="1189.6" y="229" width="0.4" height="15.0" fill="rgb(225,93,22)" rx="2" ry="2" />
<text  x="1192.64" y="239.5" ></text>
</g>
<g >
<title>w2c_decode__webp__wasmsimd_TransformTwo_C (924,254 samples, 0.06%)</title><rect x="878.7" y="245" width="0.8" height="15.0" fill="rgb(254,228,54)" rx="2" ry="2" />
<text  x="881.72" y="255.5" ></text>
</g>
<g >
<title>w2c_decode__webp__wasmsimd_TransformDCUV_C (923,619 samples, 0.06%)</title><rect x="80.6" y="149" width="0.8" height="15.0" fill="rgb(206,6,1)" rx="2" ry="2" />
<text  x="83.60" y="159.5" ></text>
</g>
<g >
<title>generic_perform_write (877,259 samples, 0.06%)</title><rect x="88.5" y="133" width="0.7" height="15.0" fill="rgb(236,146,35)" rx="2" ry="2" />
<text  x="91.49" y="143.5" ></text>
</g>
<g >
<title>w2c_decode__webp__wasmsimd_VP8GetValue (923,793 samples, 0.06%)</title><rect x="1187.4" y="245" width="0.7" height="15.0" fill="rgb(222,81,19)" rx="2" ry="2" />
<text  x="1190.39" y="255.5" ></text>
</g>
<g >
<title>exc_page_fault (1,784,172 samples, 0.12%)</title><rect x="1185.9" y="213" width="1.5" height="15.0" fill="rgb(212,35,8)" rx="2" ry="2" />
<text  x="1188.94" y="223.5" ></text>
</g>
<g >
<title>clear_page_rep (923,070 samples, 0.06%)</title><rect x="89.2" y="69" width="0.8" height="15.0" fill="rgb(253,221,52)" rx="2" ry="2" />
<text  x="92.20" y="79.5" ></text>
</g>
<g >
<title>w2c_decode__webp__wasmsimd_SimpleHFilter16i_C (17,553,059 samples, 1.21%)</title><rect x="759.3" y="245" width="14.3" height="15.0" fill="rgb(241,167,40)" rx="2" ry="2" />
<text  x="762.31" y="255.5" ></text>
</g>
<g >
<title>w2c_decode__webp__wasmsimd_TransformDC_C (2,772,526 samples, 0.19%)</title><rect x="81.4" y="149" width="2.2" height="15.0" fill="rgb(211,27,6)" rx="2" ry="2" />
<text  x="84.35" y="159.5" ></text>
</g>
<g >
<title>do_execveat_common.isra.0 (487,126 samples, 0.03%)</title><rect x="90.0" y="181" width="0.3" height="15.0" fill="rgb(231,123,29)" rx="2" ry="2" />
<text  x="92.95" y="191.5" ></text>
</g>
<g >
<title>unmap_page_range (877,343 samples, 0.06%)</title><rect x="106.9" y="117" width="0.7" height="15.0" fill="rgb(206,5,1)" rx="2" ry="2" />
<text  x="109.89" y="127.5" ></text>
</g>
<g >
<title>w2c_decode__webp__wasmsimd_FinishRow (2,772,280 samples, 0.19%)</title><rect x="108.4" y="245" width="2.2" height="15.0" fill="rgb(205,3,0)" rx="2" ry="2" />
<text  x="111.35" y="255.5" ></text>
</g>
<g >
<title>begin_new_exec (123,279 samples, 0.01%)</title><rect x="90.0" y="133" width="0.1" height="15.0" fill="rgb(245,184,44)" rx="2" ry="2" />
<text  x="92.95" y="143.5" ></text>
</g>
<g >
<title>w2c_decode__webp__wasmsimd_GetCoeffsFast (2,772,222 samples, 0.19%)</title><rect x="20.5" y="149" width="2.3" height="15.0" fill="rgb(210,26,6)" rx="2" ry="2" />
<text  x="23.51" y="159.5" ></text>
</g>
<g >
<title>w2c_decode__webp__wasmsimd_HE4_C (2,771,499 samples, 0.19%)</title><rect x="24.3" y="149" width="2.2" height="15.0" fill="rgb(212,32,7)" rx="2" ry="2" />
<text  x="27.27" y="159.5" ></text>
</g>
<g >
<title>__handle_mm_fault (407,127 samples, 0.03%)</title><rect x="1189.6" y="165" width="0.4" height="15.0" fill="rgb(207,9,2)" rx="2" ry="2" />
<text  x="1192.64" y="175.5" ></text>
</g>
<g >
<title>do_syscall_64 (877,343 samples, 0.06%)</title><rect x="106.9" y="229" width="0.7" height="15.0" fill="rgb(209,20,4)" rx="2" ry="2" />
<text  x="109.89" y="239.5" ></text>
</g>
<g >
<title>ext4_dirty_inode (877,259 samples, 0.06%)</title><rect x="88.5" y="85" width="0.7" height="15.0" fill="rgb(227,102,24)" rx="2" ry="2" />
<text  x="91.49" y="95.5" ></text>
</g>
<g >
<title>__perf_addr_filters_adjust (363,847 samples, 0.03%)</title><rect x="90.1" y="69" width="0.2" height="15.0" fill="rgb(247,195,46)" rx="2" ry="2" />
<text  x="93.05" y="79.5" ></text>
</g>
<g >
<title>__memmove_avx_unaligned_erms (923,070 samples, 0.06%)</title><rect x="89.2" y="229" width="0.8" height="15.0" fill="rgb(205,0,0)" rx="2" ry="2" />
<text  x="92.20" y="239.5" ></text>
</g>
<g >
<title>[unknown] (95,081,778 samples, 6.56%)</title><rect x="10.0" y="197" width="77.4" height="15.0" fill="rgb(210,24,5)" rx="2" ry="2" />
<text  x="13.00" y="207.5" >[unknown]</text>
</g>
<g >
<title>w2c_decode__webp__wasmsimd_TransformAC3_C (923,272 samples, 0.06%)</title><rect x="79.8" y="149" width="0.8" height="15.0" fill="rgb(251,211,50)" rx="2" ry="2" />
<text  x="82.85" y="159.5" ></text>
</g>
<g >
<title>w2c_decode__webp__wasmsimd_GetLargeValue (65,576,394 samples, 4.52%)</title><rect x="556.1" y="245" width="53.4" height="15.0" fill="rgb(234,137,32)" rx="2" ry="2" />
<text  x="559.10" y="255.5" >w2c_d..</text>
</g>
<g >
<title>map_vdso (363,847 samples, 0.03%)</title><rect x="90.1" y="133" width="0.2" height="15.0" fill="rgb(227,103,24)" rx="2" ry="2" />
<text  x="93.05" y="143.5" ></text>
</g>
<g >
<title>__mmput (877,343 samples, 0.06%)</title><rect x="106.9" y="165" width="0.7" height="15.0" fill="rgb(249,203,48)" rx="2" ry="2" />
<text  x="109.89" y="175.5" ></text>
</g>
<g >
<title>do_truncate (922,970 samples, 0.06%)</title><rect x="87.7" y="117" width="0.8" height="15.0" fill="rgb(216,53,12)" rx="2" ry="2" />
<text  x="90.74" y="127.5" ></text>
</g>
<g >
<title>do_user_addr_fault (407,127 samples, 0.03%)</title><rect x="1189.6" y="197" width="0.4" height="15.0" fill="rgb(228,108,25)" rx="2" ry="2" />
<text  x="1192.64" y="207.5" ></text>
</g>
<g >
<title>w2c_decode__webp__wasmsimd_DC16NoTop_C (921,811 samples, 0.06%)</title><rect x="10.0" y="149" width="0.8" height="15.0" fill="rgb(217,56,13)" rx="2" ry="2" />
<text  x="13.00" y="159.5" ></text>
</g>
<g >
<title>w2c_decode__webp__wasmsimd_IDecode (3,695,326 samples, 0.25%)</title><rect x="94.9" y="229" width="3.0" height="15.0" fill="rgb(237,147,35)" rx="2" ry="2" />
<text  x="97.86" y="239.5" ></text>
</g>
<g >
<title>w2c_decode__webp__wasmsimd_LD4_C (4,617,149 samples, 0.32%)</title><rect x="32.5" y="149" width="3.8" height="15.0" fill="rgb(242,173,41)" rx="2" ry="2" />
<text  x="35.53" y="159.5" ></text>
</g>
<g >
<title>__fsnotify_parent (922,970 samples, 0.06%)</title><rect x="87.7" y="85" width="0.8" height="15.0" fill="rgb(225,96,23)" rx="2" ry="2" />
<text  x="90.74" y="95.5" ></text>
</g>
<g >
<title>w2c_decode__webp__wasmsimd_SimpleVFilter16i_C (7,391,142 samples, 0.51%)</title><rect x="774.3" y="245" width="6.1" height="15.0" fill="rgb(251,211,50)" rx="2" ry="2" />
<text  x="777.34" y="255.5" ></text>
</g>
<g >
<title>asm_exc_page_fault (923,070 samples, 0.06%)</title><rect x="89.2" y="213" width="0.8" height="15.0" fill="rgb(225,93,22)" rx="2" ry="2" />
<text  x="92.20" y="223.5" ></text>
</g>
<g >
<title>apparmor_bprm_committed_creds (123,279 samples, 0.01%)</title><rect x="90.0" y="101" width="0.1" height="15.0" fill="rgb(223,85,20)" rx="2" ry="2" />
<text  x="92.95" y="111.5" ></text>
</g>
<g >
<title>w2c_decode__webp__wasmsimd_TransformWHT_C (923,769 samples, 0.06%)</title><rect x="879.5" y="245" width="0.7" height="15.0" fill="rgb(213,38,9)" rx="2" ry="2" />
<text  x="882.48" y="255.5" ></text>
</g>
<g >
<title>w2c_decode__webp__wasmsimd_TM4_C (4,618,618 samples, 0.32%)</title><rect x="76.1" y="149" width="3.7" height="15.0" fill="rgb(232,128,30)" rx="2" ry="2" />
<text  x="79.09" y="159.5" ></text>
</g>
<g >
<title>w2c_decode__webp__wasmsimd_HD4_C (1,846,653 samples, 0.13%)</title><rect x="22.8" y="149" width="1.5" height="15.0" fill="rgb(218,62,14)" rx="2" ry="2" />
<text  x="25.76" y="159.5" ></text>
</g>
<g >
<title>__libc_open64 (922,970 samples, 0.06%)</title><rect x="87.7" y="229" width="0.8" height="15.0" fill="rgb(235,140,33)" rx="2" ry="2" />
<text  x="90.74" y="239.5" ></text>
</g>
<g >
<title>entry_SYSCALL_64_after_hwframe (877,259 samples, 0.06%)</title><rect x="88.5" y="213" width="0.7" height="15.0" fill="rgb(218,63,15)" rx="2" ry="2" />
<text  x="91.49" y="223.5" ></text>
</g>
<g >
<title>w2c_decode__webp__wasmsimd_SimpleVFilter16_C (922,939 samples, 0.06%)</title><rect x="773.6" y="245" width="0.7" height="15.0" fill="rgb(229,111,26)" rx="2" ry="2" />
<text  x="776.59" y="255.5" ></text>
</g>
<g >
<title>w2c_decode__webp__wasmsimd_TransformOne_C (107,045,468 samples, 7.38%)</title><rect x="791.6" y="245" width="87.1" height="15.0" fill="rgb(209,22,5)" rx="2" ry="2" />
<text  x="794.62" y="255.5" >w2c_decode..</text>
</g>
<g >
<title>get_page_from_freelist (923,070 samples, 0.06%)</title><rect x="89.2" y="85" width="0.8" height="15.0" fill="rgb(252,218,52)" rx="2" ry="2" />
<text  x="92.20" y="95.5" ></text>
</g>
<g >
<title>do_syscall_64 (487,126 samples, 0.03%)</title><rect x="90.0" y="213" width="0.3" height="15.0" fill="rgb(209,20,4)" rx="2" ry="2" />
<text  x="92.95" y="223.5" ></text>
</g>
<g >
<title>exit_mmap (877,343 samples, 0.06%)</title><rect x="106.9" y="149" width="0.7" height="15.0" fill="rgb(236,143,34)" rx="2" ry="2" />
<text  x="109.89" y="159.5" ></text>
</g>
<g >
<title>w2c_decode__webp__wasmsimd_ReconstructRow (3,695,117 samples, 0.25%)</title><rect x="97.9" y="229" width="3.0" height="15.0" fill="rgb(217,55,13)" rx="2" ry="2" />
<text  x="100.87" y="239.5" ></text>
</g>
<g >
<title>__memset_avx2_unaligned_erms (3,695,835 samples, 0.25%)</title><rect x="103.9" y="245" width="3.0" height="15.0" fill="rgb(223,84,20)" rx="2" ry="2" />
<text  x="106.88" y="255.5" ></text>
</g>
<g >
<title>count_memcg_events.constprop.0 (389,580 samples, 0.03%)</title><rect x="1187.1" y="165" width="0.3" height="15.0" fill="rgb(213,41,9)" rx="2" ry="2" />
<text  x="1190.07" y="175.5" ></text>
</g>
<g >
<title>__mem_cgroup_charge (407,127 samples, 0.03%)</title><rect x="1189.6" y="149" width="0.4" height="15.0" fill="rgb(218,60,14)" rx="2" ry="2" />
<text  x="1192.64" y="159.5" ></text>
</g>
<g >
<title>w2c_decode__webp__wasmsimd_TransformAC3_C (5,544,695 samples, 0.38%)</title><rect x="787.1" y="245" width="4.5" height="15.0" fill="rgb(251,211,50)" rx="2" ry="2" />
<text  x="790.11" y="255.5" ></text>
</g>
<g >
<title>__x64_sys_exit_group (877,343 samples, 0.06%)</title><rect x="106.9" y="213" width="0.7" height="15.0" fill="rgb(214,42,10)" rx="2" ry="2" />
<text  x="109.89" y="223.5" ></text>
</g>
<g >
<title>entry_SYSCALL_64_after_hwframe (877,343 samples, 0.06%)</title><rect x="106.9" y="245" width="0.7" height="15.0" fill="rgb(218,63,15)" rx="2" ry="2" />
<text  x="109.89" y="255.5" ></text>
</g>
<g >
<title>memcg_check_events (407,127 samples, 0.03%)</title><rect x="1189.6" y="117" width="0.4" height="15.0" fill="rgb(206,4,1)" rx="2" ry="2" />
<text  x="1192.64" y="127.5" ></text>
</g>
<g >
<title>load_elf_binary (487,126 samples, 0.03%)</title><rect x="90.0" y="149" width="0.3" height="15.0" fill="rgb(223,83,20)" rx="2" ry="2" />
<text  x="92.95" y="159.5" ></text>
</g>
<g >
<title>do_user_addr_fault (923,070 samples, 0.06%)</title><rect x="89.2" y="181" width="0.8" height="15.0" fill="rgb(228,108,25)" rx="2" ry="2" />
<text  x="92.20" y="191.5" ></text>
</g>
<g >
<title>perf_event_mmap (363,847 samples, 0.03%)</title><rect x="90.1" y="101" width="0.2" height="15.0" fill="rgb(229,112,26)" rx="2" ry="2" />
<text  x="93.05" y="111.5" ></text>
</g>
<g >
<title>w2c_decode__webp__wasmsimd_ReconstructRow (47,067,943 samples, 3.25%)</title><rect x="37.8" y="149" width="38.3" height="15.0" fill="rgb(217,55,13)" rx="2" ry="2" />
<text  x="40.79" y="159.5" >w2c..</text>
</g>
<g >
<title>w2c_decode__webp__wasmsimd_HU4_C (2,771,042 samples, 0.19%)</title><rect x="26.5" y="149" width="2.3" height="15.0" fill="rgb(208,17,4)" rx="2" ry="2" />
<text  x="29.52" y="159.5" ></text>
</g>
<g >
<title>__x64_sys_openat (922,970 samples, 0.06%)</title><rect x="87.7" y="181" width="0.8" height="15.0" fill="rgb(251,215,51)" rx="2" ry="2" />
<text  x="90.74" y="191.5" ></text>
</g>
<g >
<title>w2c_decode__webp__wasmsimd_ReconstructRow (14,776,976 samples, 1.02%)</title><rect x="742.8" y="245" width="12.0" height="15.0" fill="rgb(217,55,13)" rx="2" ry="2" />
<text  x="745.77" y="255.5" ></text>
</g>
<g >
<title>bprm_execve (487,126 samples, 0.03%)</title><rect x="90.0" y="165" width="0.3" height="15.0" fill="rgb(218,61,14)" rx="2" ry="2" />
<text  x="92.95" y="175.5" ></text>
</g>
<g >
<title>[unknown] (95,081,778 samples, 6.56%)</title><rect x="10.0" y="229" width="77.4" height="15.0" fill="rgb(210,24,5)" rx="2" ry="2" />
<text  x="13.00" y="239.5" >[unknown]</text>
</g>
<g >
<title>__libc_start_main_impl (455,954 samples, 0.03%)</title><rect x="87.4" y="213" width="0.3" height="15.0" fill="rgb(218,63,15)" rx="2" ry="2" />
<text  x="90.36" y="223.5" ></text>
</g>
<g >
<title>w2c_decode__webp__wasmsimd_DC8uv_C (923,463 samples, 0.06%)</title><rect x="107.6" y="245" width="0.8" height="15.0" fill="rgb(206,8,2)" rx="2" ry="2" />
<text  x="110.60" y="255.5" ></text>
</g>
<g >
<title>__libc_write (877,259 samples, 0.06%)</title><rect x="88.5" y="229" width="0.7" height="15.0" fill="rgb(238,154,37)" rx="2" ry="2" />
<text  x="91.49" y="239.5" ></text>
</g>
<g >
<title>__ext4_mark_inode_dirty (877,259 samples, 0.06%)</title><rect x="88.5" y="69" width="0.7" height="15.0" fill="rgb(227,104,25)" rx="2" ry="2" />
<text  x="91.49" y="79.5" ></text>
</g>
<g >
<title>all (1,450,232,411 samples, 100%)</title><rect x="10.0" y="277" width="1180.0" height="15.0" fill="rgb(213,39,9)" rx="2" ry="2" />
<text  x="13.00" y="287.5" ></text>
</g>
<g >
<title>w2c_decode__webp__wasmsimd_SimpleHFilter16_C (5,543,151 samples, 0.38%)</title><rect x="754.8" y="245" width="4.5" height="15.0" fill="rgb(219,67,16)" rx="2" ry="2" />
<text  x="757.80" y="255.5" ></text>
</g>
<g >
<title>__folio_alloc (923,070 samples, 0.06%)</title><rect x="89.2" y="117" width="0.8" height="15.0" fill="rgb(224,91,21)" rx="2" ry="2" />
<text  x="92.20" y="127.5" ></text>
</g>
<g >
<title>__handle_mm_fault (923,070 samples, 0.06%)</title><rect x="89.2" y="149" width="0.8" height="15.0" fill="rgb(207,9,2)" rx="2" ry="2" />
<text  x="92.20" y="159.5" ></text>
</g>
<g >
<title>__alloc_pages (923,070 samples, 0.06%)</title><rect x="89.2" y="101" width="0.8" height="15.0" fill="rgb(233,129,30)" rx="2" ry="2" />
<text  x="92.20" y="111.5" ></text>
</g>
<g >
<title>w2c_decode__webp__wasmsimd_TransformOne_C (1,847,278 samples, 0.13%)</title><rect x="100.9" y="229" width="1.5" height="15.0" fill="rgb(209,22,5)" rx="2" ry="2" />
<text  x="103.87" y="239.5" ></text>
</g>
<g >
<title>w2c_decode__webp__wasmsimd_VL4_C (923,406 samples, 0.06%)</title><rect x="84.4" y="149" width="0.7" height="15.0" fill="rgb(226,98,23)" rx="2" ry="2" />
<text  x="87.36" y="159.5" ></text>
</g>
<g >
<title>path_openat (922,970 samples, 0.06%)</title><rect x="87.7" y="133" width="0.8" height="15.0" fill="rgb(249,202,48)" rx="2" ry="2" />
<text  x="90.74" y="143.5" ></text>
</g>
<g >
<title>[unknown] (95,081,778 samples, 6.56%)</title><rect x="10.0" y="181" width="77.4" height="15.0" fill="rgb(210,24,5)" rx="2" ry="2" />
<text  x="13.00" y="191.5" >[unknown]</text>
</g>
<g >
<title>do_exit (877,343 samples, 0.06%)</title><rect x="106.9" y="181" width="0.7" height="15.0" fill="rgb(231,122,29)" rx="2" ry="2" />
<text  x="109.89" y="191.5" ></text>
</g>
</g>
</svg>
