<?xml version="1.0" standalone="no"?>
<!DOCTYPE svg PUBLIC "-//W3C//DTD SVG 1.1//EN" "http://www.w3.org/Graphics/SVG/1.1/DTD/svg11.dtd">
<svg version="1.1" width="1200" height="454" onload="init(evt)" viewBox="0 0 1200 454" xmlns="http://www.w3.org/2000/svg" xmlns:xlink="http://www.w3.org/1999/xlink">
<!-- Flame graph stack visualization. See https://github.com/brendangregg/FlameGraph for latest version, and http://www.brendangregg.com/flamegraphs.html for examples. -->
<!-- NOTES:  -->
<defs>
	<linearGradient id="background" y1="0" y2="1" x1="0" x2="0" >
		<stop stop-color="#eeeeee" offset="5%" />
		<stop stop-color="#eeeeb0" offset="95%" />
	</linearGradient>
</defs>
<style type="text/css">
	text { font-family:Verdana; font-size:12px; fill:rgb(0,0,0); }
	#search, #ignorecase { opacity:0.1; cursor:pointer; }
	#search:hover, #search.show, #ignorecase:hover, #ignorecase.show { opacity:1; }
	#subtitle { text-anchor:middle; font-color:rgb(160,160,160); }
	#title { text-anchor:middle; font-size:17px}
	#unzoom { cursor:pointer; }
	#frames > *:hover { stroke:black; stroke-width:0.5; cursor:pointer; }
	.hide { display:none; }
	.parent { opacity:0.5; }
</style>
<script type="text/ecmascript">
<![CDATA[
	"use strict";
	var details, searchbtn, unzoombtn, matchedtxt, svg, searching, currentSearchTerm, ignorecase, ignorecaseBtn;
	function init(evt) {
		details = document.getElementById("details").firstChild;
		searchbtn = document.getElementById("search");
		ignorecaseBtn = document.getElementById("ignorecase");
		unzoombtn = document.getElementById("unzoom");
		matchedtxt = document.getElementById("matched");
		svg = document.getElementsByTagName("svg")[0];
		searching = 0;
		currentSearchTerm = null;

		// use GET parameters to restore a flamegraphs state.
		var params = get_params();
		if (params.x && params.y)
			zoom(find_group(document.querySelector('[x="' + params.x + '"][y="' + params.y + '"]')));
                if (params.s) search(params.s);
	}

	// event listeners
	window.addEventListener("click", function(e) {
		var target = find_group(e.target);
		if (target) {
			if (target.nodeName == "a") {
				if (e.ctrlKey === false) return;
				e.preventDefault();
			}
			if (target.classList.contains("parent")) unzoom(true);
			zoom(target);
			if (!document.querySelector('.parent')) {
				// we have basically done a clearzoom so clear the url
				var params = get_params();
				if (params.x) delete params.x;
				if (params.y) delete params.y;
				history.replaceState(null, null, parse_params(params));
				unzoombtn.classList.add("hide");
				return;
			}

			// set parameters for zoom state
			var el = target.querySelector("rect");
			if (el && el.attributes && el.attributes.y && el.attributes._orig_x) {
				var params = get_params()
				params.x = el.attributes._orig_x.value;
				params.y = el.attributes.y.value;
				history.replaceState(null, null, parse_params(params));
			}
		}
		else if (e.target.id == "unzoom") clearzoom();
		else if (e.target.id == "search") search_prompt();
		else if (e.target.id == "ignorecase") toggle_ignorecase();
	}, false)

	// mouse-over for info
	// show
	window.addEventListener("mouseover", function(e) {
		var target = find_group(e.target);
		if (target) details.nodeValue = "Function: " + g_to_text(target);
	}, false)

	// clear
	window.addEventListener("mouseout", function(e) {
		var target = find_group(e.target);
		if (target) details.nodeValue = ' ';
	}, false)

	// ctrl-F for search
	// ctrl-I to toggle case-sensitive search
	window.addEventListener("keydown",function (e) {
		if (e.keyCode === 114 || (e.ctrlKey && e.keyCode === 70)) {
			e.preventDefault();
			search_prompt();
		}
		else if (e.ctrlKey && e.keyCode === 73) {
			e.preventDefault();
			toggle_ignorecase();
		}
	}, false)

	// functions
	function get_params() {
		var params = {};
		var paramsarr = window.location.search.substr(1).split('&');
		for (var i = 0; i < paramsarr.length; ++i) {
			var tmp = paramsarr[i].split("=");
			if (!tmp[0] || !tmp[1]) continue;
			params[tmp[0]]  = decodeURIComponent(tmp[1]);
		}
		return params;
	}
	function parse_params(params) {
		var uri = "?";
		for (var key in params) {
			uri += key + '=' + encodeURIComponent(params[key]) + '&';
		}
		if (uri.slice(-1) == "&")
			uri = uri.substring(0, uri.length - 1);
		if (uri == '?')
			uri = window.location.href.split('?')[0];
		return uri;
	}
	function find_child(node, selector) {
		var children = node.querySelectorAll(selector);
		if (children.length) return children[0];
	}
	function find_group(node) {
		var parent = node.parentElement;
		if (!parent) return;
		if (parent.id == "frames") return node;
		return find_group(parent);
	}
	function orig_save(e, attr, val) {
		if (e.attributes["_orig_" + attr] != undefined) return;
		if (e.attributes[attr] == undefined) return;
		if (val == undefined) val = e.attributes[attr].value;
		e.setAttribute("_orig_" + attr, val);
	}
	function orig_load(e, attr) {
		if (e.attributes["_orig_"+attr] == undefined) return;
		e.attributes[attr].value = e.attributes["_orig_" + attr].value;
		e.removeAttribute("_orig_"+attr);
	}
	function g_to_text(e) {
		var text = find_child(e, "title").firstChild.nodeValue;
		return (text)
	}
	function g_to_func(e) {
		var func = g_to_text(e);
		// if there's any manipulation we want to do to the function
		// name before it's searched, do it here before returning.
		return (func);
	}
	function update_text(e) {
		var r = find_child(e, "rect");
		var t = find_child(e, "text");
		var w = parseFloat(r.attributes.width.value) -3;
		var txt = find_child(e, "title").textContent.replace(/\([^(]*\)$/,"");
		t.attributes.x.value = parseFloat(r.attributes.x.value) + 3;

		// Smaller than this size won't fit anything
		if (w < 2 * 12 * 0.59) {
			t.textContent = "";
			return;
		}

		t.textContent = txt;
		var sl = t.getSubStringLength(0, txt.length);
		// check if only whitespace or if we can fit the entire string into width w
		if (/^ *$/.test(txt) || sl < w)
			return;

		// this isn't perfect, but gives a good starting point
		// and avoids calling getSubStringLength too often
		var start = Math.floor((w/sl) * txt.length);
		for (var x = start; x > 0; x = x-2) {
			if (t.getSubStringLength(0, x + 2) <= w) {
				t.textContent = txt.substring(0, x) + "..";
				return;
			}
		}
		t.textContent = "";
	}

	// zoom
	function zoom_reset(e) {
		if (e.attributes != undefined) {
			orig_load(e, "x");
			orig_load(e, "width");
		}
		if (e.childNodes == undefined) return;
		for (var i = 0, c = e.childNodes; i < c.length; i++) {
			zoom_reset(c[i]);
		}
	}
	function zoom_child(e, x, ratio) {
		if (e.attributes != undefined) {
			if (e.attributes.x != undefined) {
				orig_save(e, "x");
				e.attributes.x.value = (parseFloat(e.attributes.x.value) - x - 10) * ratio + 10;
				if (e.tagName == "text")
					e.attributes.x.value = find_child(e.parentNode, "rect[x]").attributes.x.value + 3;
			}
			if (e.attributes.width != undefined) {
				orig_save(e, "width");
				e.attributes.width.value = parseFloat(e.attributes.width.value) * ratio;
			}
		}

		if (e.childNodes == undefined) return;
		for (var i = 0, c = e.childNodes; i < c.length; i++) {
			zoom_child(c[i], x - 10, ratio);
		}
	}
	function zoom_parent(e) {
		if (e.attributes) {
			if (e.attributes.x != undefined) {
				orig_save(e, "x");
				e.attributes.x.value = 10;
			}
			if (e.attributes.width != undefined) {
				orig_save(e, "width");
				e.attributes.width.value = parseInt(svg.width.baseVal.value) - (10 * 2);
			}
		}
		if (e.childNodes == undefined) return;
		for (var i = 0, c = e.childNodes; i < c.length; i++) {
			zoom_parent(c[i]);
		}
	}
	function zoom(node) {
		var attr = find_child(node, "rect").attributes;
		var width = parseFloat(attr.width.value);
		var xmin = parseFloat(attr.x.value);
		var xmax = parseFloat(xmin + width);
		var ymin = parseFloat(attr.y.value);
		var ratio = (svg.width.baseVal.value - 2 * 10) / width;

		// XXX: Workaround for JavaScript float issues (fix me)
		var fudge = 0.0001;

		unzoombtn.classList.remove("hide");

		var el = document.getElementById("frames").children;
		for (var i = 0; i < el.length; i++) {
			var e = el[i];
			var a = find_child(e, "rect").attributes;
			var ex = parseFloat(a.x.value);
			var ew = parseFloat(a.width.value);
			var upstack;
			// Is it an ancestor
			if (0 == 0) {
				upstack = parseFloat(a.y.value) > ymin;
			} else {
				upstack = parseFloat(a.y.value) < ymin;
			}
			if (upstack) {
				// Direct ancestor
				if (ex <= xmin && (ex+ew+fudge) >= xmax) {
					e.classList.add("parent");
					zoom_parent(e);
					update_text(e);
				}
				// not in current path
				else
					e.classList.add("hide");
			}
			// Children maybe
			else {
				// no common path
				if (ex < xmin || ex + fudge >= xmax) {
					e.classList.add("hide");
				}
				else {
					zoom_child(e, xmin, ratio);
					update_text(e);
				}
			}
		}
		search();
	}
	function unzoom(dont_update_text) {
		unzoombtn.classList.add("hide");
		var el = document.getElementById("frames").children;
		for(var i = 0; i < el.length; i++) {
			el[i].classList.remove("parent");
			el[i].classList.remove("hide");
			zoom_reset(el[i]);
			if(!dont_update_text) update_text(el[i]);
		}
		search();
	}
	function clearzoom() {
		unzoom();

		// remove zoom state
		var params = get_params();
		if (params.x) delete params.x;
		if (params.y) delete params.y;
		history.replaceState(null, null, parse_params(params));
	}

	// search
	function toggle_ignorecase() {
		ignorecase = !ignorecase;
		if (ignorecase) {
			ignorecaseBtn.classList.add("show");
		} else {
			ignorecaseBtn.classList.remove("show");
		}
		reset_search();
		search();
	}
	function reset_search() {
		var el = document.querySelectorAll("#frames rect");
		for (var i = 0; i < el.length; i++) {
			orig_load(el[i], "fill")
		}
		var params = get_params();
		delete params.s;
		history.replaceState(null, null, parse_params(params));
	}
	function search_prompt() {
		if (!searching) {
			var term = prompt("Enter a search term (regexp " +
			    "allowed, eg: ^ext4_)"
			    + (ignorecase ? ", ignoring case" : "")
			    + "\nPress Ctrl-i to toggle case sensitivity", "");
			if (term != null) search(term);
		} else {
			reset_search();
			searching = 0;
			currentSearchTerm = null;
			searchbtn.classList.remove("show");
			searchbtn.firstChild.nodeValue = "Search"
			matchedtxt.classList.add("hide");
			matchedtxt.firstChild.nodeValue = ""
		}
	}
	function search(term) {
		if (term) currentSearchTerm = term;

		var re = new RegExp(currentSearchTerm, ignorecase ? 'i' : '');
		var el = document.getElementById("frames").children;
		var matches = new Object();
		var maxwidth = 0;
		for (var i = 0; i < el.length; i++) {
			var e = el[i];
			var func = g_to_func(e);
			var rect = find_child(e, "rect");
			if (func == null || rect == null)
				continue;

			// Save max width. Only works as we have a root frame
			var w = parseFloat(rect.attributes.width.value);
			if (w > maxwidth)
				maxwidth = w;

			if (func.match(re)) {
				// highlight
				var x = parseFloat(rect.attributes.x.value);
				orig_save(rect, "fill");
				rect.attributes.fill.value = "rgb(230,0,230)";

				// remember matches
				if (matches[x] == undefined) {
					matches[x] = w;
				} else {
					if (w > matches[x]) {
						// overwrite with parent
						matches[x] = w;
					}
				}
				searching = 1;
			}
		}
		if (!searching)
			return;
		var params = get_params();
		params.s = currentSearchTerm;
		history.replaceState(null, null, parse_params(params));

		searchbtn.classList.add("show");
		searchbtn.firstChild.nodeValue = "Reset Search";

		// calculate percent matched, excluding vertical overlap
		var count = 0;
		var lastx = -1;
		var lastw = 0;
		var keys = Array();
		for (k in matches) {
			if (matches.hasOwnProperty(k))
				keys.push(k);
		}
		// sort the matched frames by their x location
		// ascending, then width descending
		keys.sort(function(a, b){
			return a - b;
		});
		// Step through frames saving only the biggest bottom-up frames
		// thanks to the sort order. This relies on the tree property
		// where children are always smaller than their parents.
		var fudge = 0.0001;	// JavaScript floating point
		for (var k in keys) {
			var x = parseFloat(keys[k]);
			var w = matches[keys[k]];
			if (x >= lastx + lastw - fudge) {
				count += w;
				lastx = x;
				lastw = w;
			}
		}
		// display matched percent
		matchedtxt.classList.remove("hide");
		var pct = 100 * count / maxwidth;
		if (pct != 100) pct = pct.toFixed(1)
		matchedtxt.firstChild.nodeValue = "Matched: " + pct + "%";
	}
]]>
</script>
<rect x="0.0" y="0" width="1200.0" height="454.0" fill="url(#background)"  />
<text id="title" x="600.00" y="24" >Flame Graph</text>
<text id="details" x="10.00" y="437" > </text>
<text id="unzoom" x="10.00" y="24" class="hide">Reset Zoom</text>
<text id="search" x="1090.00" y="24" >Search</text>
<text id="ignorecase" x="1174.00" y="24" >ic</text>
<text id="matched" x="1090.00" y="437" > </text>
<g id="frames">
<g >
<title>VP8PlanarTo24b_SSE2 (21,246,743 samples, 2.60%)</title><rect x="162.4" y="373" width="30.8" height="15.0" fill="rgb(208,15,3)" rx="2" ry="2" />
<text  x="165.45" y="383.5" >VP..</text>
</g>
<g >
<title>do_syscall_64 (923,035 samples, 0.11%)</title><rect x="1182.2" y="325" width="1.4" height="15.0" fill="rgb(209,20,4)" rx="2" ry="2" />
<text  x="1185.25" y="335.5" ></text>
</g>
<g >
<title>truncate_inode_pages_range (922,808 samples, 0.11%)</title><rect x="1180.9" y="181" width="1.3" height="15.0" fill="rgb(245,187,44)" rx="2" ry="2" />
<text  x="1183.92" y="191.5" ></text>
</g>
<g >
<title>entry_SYSCALL_64_after_hwframe (922,808 samples, 0.11%)</title><rect x="1180.9" y="341" width="1.3" height="15.0" fill="rgb(218,63,15)" rx="2" ry="2" />
<text  x="1183.92" y="351.5" ></text>
</g>
<g >
<title>do_syscall_64 (314,678 samples, 0.04%)</title><rect x="1186.7" y="341" width="0.4" height="15.0" fill="rgb(209,20,4)" rx="2" ry="2" />
<text  x="1189.67" y="351.5" ></text>
</g>
<g >
<title>ReconstructRow (14,772,267 samples, 1.81%)</title><rect x="302.1" y="357" width="21.3" height="15.0" fill="rgb(225,93,22)" rx="2" ry="2" />
<text  x="305.07" y="367.5" >R..</text>
</g>
<g >
<title>pagecache_get_page (923,035 samples, 0.11%)</title><rect x="1182.2" y="229" width="1.4" height="15.0" fill="rgb(253,221,53)" rx="2" ry="2" />
<text  x="1185.25" y="239.5" ></text>
</g>
<g >
<title>VP8GetValue (924,056 samples, 0.11%)</title><rect x="150.4" y="373" width="1.4" height="15.0" fill="rgb(230,119,28)" rx="2" ry="2" />
<text  x="153.43" y="383.5" ></text>
</g>
<g >
<title>get_page_from_freelist (923,035 samples, 0.11%)</title><rect x="1182.2" y="165" width="1.4" height="15.0" fill="rgb(252,218,52)" rx="2" ry="2" />
<text  x="1185.25" y="175.5" ></text>
</g>
<g >
<title>FinishRow (923,484 samples, 0.11%)</title><rect x="229.1" y="357" width="1.4" height="15.0" fill="rgb(213,41,9)" rx="2" ry="2" />
<text  x="232.12" y="367.5" ></text>
</g>
<g >
<title>HE8uv_C (924,171 samples, 0.11%)</title><rect x="300.7" y="357" width="1.4" height="15.0" fill="rgb(226,98,23)" rx="2" ry="2" />
<text  x="303.74" y="367.5" ></text>
</g>
<g >
<title>entry_SYSCALL_64_after_hwframe (923,220 samples, 0.11%)</title><rect x="1188.5" y="373" width="1.3" height="15.0" fill="rgb(218,63,15)" rx="2" ry="2" />
<text  x="1191.46" y="383.5" ></text>
</g>
<g >
<title>DC8uv_SSE2 (2,771,290 samples, 0.34%)</title><rect x="225.1" y="357" width="4.0" height="15.0" fill="rgb(206,8,2)" rx="2" ry="2" />
<text  x="228.11" y="367.5" ></text>
</g>
<g >
<title>handle_mm_fault (922,752 samples, 0.11%)</title><rect x="1187.1" y="309" width="1.4" height="15.0" fill="rgb(234,135,32)" rx="2" ry="2" />
<text  x="1190.13" y="319.5" ></text>
</g>
<g >
<title>__x64_sys_exit_group (923,220 samples, 0.11%)</title><rect x="1188.5" y="341" width="1.3" height="15.0" fill="rgb(214,42,10)" rx="2" ry="2" />
<text  x="1191.46" y="351.5" ></text>
</g>
<g >
<title>perf_event_task_tick (112,699 samples, 0.01%)</title><rect x="1189.8" y="85" width="0.2" height="15.0" fill="rgb(205,3,0)" rx="2" ry="2" />
<text  x="1192.84" y="95.5" ></text>
</g>
<g >
<title>RD4_SSE2 (1,848,170 samples, 0.23%)</title><rect x="46.1" y="373" width="2.6" height="15.0" fill="rgb(253,224,53)" rx="2" ry="2" />
<text  x="49.07" y="383.5" ></text>
</g>
<g >
<title>[unknown] (142,399 samples, 0.02%)</title><rect x="1189.8" y="373" width="0.2" height="15.0" fill="rgb(210,24,5)" rx="2" ry="2" />
<text  x="1192.79" y="383.5" ></text>
</g>
<g >
<title>begin_new_exec (142,399 samples, 0.02%)</title><rect x="1189.8" y="261" width="0.2" height="15.0" fill="rgb(245,184,44)" rx="2" ry="2" />
<text  x="1192.79" y="271.5" ></text>
</g>
<g >
<title>x86_pmu_disable_all (112,699 samples, 0.01%)</title><rect x="1189.8" y="53" width="0.2" height="15.0" fill="rgb(254,227,54)" rx="2" ry="2" />
<text  x="1192.84" y="63.5" ></text>
</g>
<g >
<title>load_elf_binary (314,678 samples, 0.04%)</title><rect x="1186.7" y="277" width="0.4" height="15.0" fill="rgb(223,83,20)" rx="2" ry="2" />
<text  x="1189.67" y="287.5" ></text>
</g>
<g >
<title>do_syscall_64 (922,808 samples, 0.11%)</title><rect x="1180.9" y="325" width="1.3" height="15.0" fill="rgb(209,20,4)" rx="2" ry="2" />
<text  x="1183.92" y="335.5" ></text>
</g>
<g >
<title>__mmput (923,220 samples, 0.11%)</title><rect x="1188.5" y="293" width="1.3" height="15.0" fill="rgb(249,203,48)" rx="2" ry="2" />
<text  x="1191.46" y="303.5" ></text>
</g>
<g >
<title>__libc_write (923,035 samples, 0.11%)</title><rect x="1182.2" y="357" width="1.4" height="15.0" fill="rgb(238,154,37)" rx="2" ry="2" />
<text  x="1185.25" y="367.5" ></text>
</g>
<g >
<title>do_execveat_common.isra.0 (314,678 samples, 0.04%)</title><rect x="1186.7" y="309" width="0.4" height="15.0" fill="rgb(231,123,29)" rx="2" ry="2" />
<text  x="1189.67" y="319.5" ></text>
</g>
<g >
<title>amd_pmu_addr_offset (112,699 samples, 0.01%)</title><rect x="1189.8" y="37" width="0.2" height="15.0" fill="rgb(227,104,25)" rx="2" ry="2" />
<text  x="1192.84" y="47.5" ></text>
</g>
<g >
<title>update_process_times (112,699 samples, 0.01%)</title><rect x="1189.8" y="117" width="0.2" height="15.0" fill="rgb(250,209,50)" rx="2" ry="2" />
<text  x="1192.84" y="127.5" ></text>
</g>
<g >
<title>generic_perform_write (923,035 samples, 0.11%)</title><rect x="1182.2" y="261" width="1.4" height="15.0" fill="rgb(236,146,35)" rx="2" ry="2" />
<text  x="1185.25" y="271.5" ></text>
</g>
<g >
<title>__mem_cgroup_charge (922,752 samples, 0.11%)</title><rect x="1187.1" y="277" width="1.4" height="15.0" fill="rgb(218,60,14)" rx="2" ry="2" />
<text  x="1190.13" y="287.5" ></text>
</g>
<g >
<title>vfs_write (923,035 samples, 0.11%)</title><rect x="1182.2" y="293" width="1.4" height="15.0" fill="rgb(250,209,50)" rx="2" ry="2" />
<text  x="1185.25" y="303.5" ></text>
</g>
<g >
<title>perf_iterate_sb (314,678 samples, 0.04%)</title><rect x="1186.7" y="181" width="0.4" height="15.0" fill="rgb(244,179,42)" rx="2" ry="2" />
<text  x="1189.67" y="191.5" ></text>
</g>
<g >
<title>bprm_execve (314,678 samples, 0.04%)</title><rect x="1186.7" y="293" width="0.4" height="15.0" fill="rgb(218,61,14)" rx="2" ry="2" />
<text  x="1189.67" y="303.5" ></text>
</g>
<g >
<title>[unknown] (665,354,734 samples, 81.53%)</title><rect x="225.1" y="373" width="962.0" height="15.0" fill="rgb(210,24,5)" rx="2" ry="2" />
<text  x="228.11" y="383.5" >[unknown]</text>
</g>
<g >
<title>bprm_execve (142,399 samples, 0.02%)</title><rect x="1189.8" y="293" width="0.2" height="15.0" fill="rgb(218,61,14)" rx="2" ry="2" />
<text  x="1192.79" y="303.5" ></text>
</g>
<g >
<title>asm_exc_page_fault (922,752 samples, 0.11%)</title><rect x="1187.1" y="357" width="1.4" height="15.0" fill="rgb(225,93,22)" rx="2" ry="2" />
<text  x="1190.13" y="367.5" ></text>
</g>
<g >
<title>TransformAC3_C (4,620,484 samples, 0.57%)</title><rect x="63.4" y="373" width="6.7" height="15.0" fill="rgb(209,19,4)" rx="2" ry="2" />
<text  x="66.42" y="383.5" ></text>
</g>
<g >
<title>GetLargeValue (2,770,421 samples, 0.34%)</title><rect x="1176.9" y="341" width="4.0" height="15.0" fill="rgb(243,175,42)" rx="2" ry="2" />
<text  x="1179.91" y="351.5" ></text>
</g>
<g >
<title>__alloc_pages (923,035 samples, 0.11%)</title><rect x="1182.2" y="181" width="1.4" height="15.0" fill="rgb(233,129,30)" rx="2" ry="2" />
<text  x="1185.25" y="191.5" ></text>
</g>
<g >
<title>ReconstructRow (7,383,259 samples, 0.90%)</title><rect x="48.7" y="373" width="10.7" height="15.0" fill="rgb(225,93,22)" rx="2" ry="2" />
<text  x="51.74" y="383.5" ></text>
</g>
<g >
<title>Transform_SSE2 (8,944,649 samples, 1.10%)</title><rect x="354.1" y="357" width="12.9" height="15.0" fill="rgb(233,129,30)" rx="2" ry="2" />
<text  x="357.10" y="367.5" ></text>
</g>
<g >
<title>folio_alloc (923,035 samples, 0.11%)</title><rect x="1182.2" y="197" width="1.4" height="15.0" fill="rgb(252,217,52)" rx="2" ry="2" />
<text  x="1185.25" y="207.5" ></text>
</g>
<g >
<title>SimpleHFilter16_SSE2 (924,236 samples, 0.11%)</title><rect x="59.4" y="373" width="1.3" height="15.0" fill="rgb(219,67,16)" rx="2" ry="2" />
<text  x="62.41" y="383.5" ></text>
</g>
<g >
<title>__libc_open64 (922,808 samples, 0.11%)</title><rect x="1180.9" y="357" width="1.3" height="15.0" fill="rgb(235,140,33)" rx="2" ry="2" />
<text  x="1183.92" y="367.5" ></text>
</g>
<g >
<title>HU4_C (924,241 samples, 0.11%)</title><rect x="44.7" y="373" width="1.4" height="15.0" fill="rgb(216,54,13)" rx="2" ry="2" />
<text  x="47.73" y="383.5" ></text>
</g>
<g >
<title>TM4_SSE2 (1,848,521 samples, 0.23%)</title><rect x="60.7" y="373" width="2.7" height="15.0" fill="rgb(232,128,30)" rx="2" ry="2" />
<text  x="63.75" y="383.5" ></text>
</g>
<g >
<title>GetCoeffsFast (4,619,656 samples, 0.57%)</title><rect x="27.4" y="373" width="6.6" height="15.0" fill="rgb(219,64,15)" rx="2" ry="2" />
<text  x="30.37" y="383.5" ></text>
</g>
<g >
<title>do_exit (923,220 samples, 0.11%)</title><rect x="1188.5" y="309" width="1.3" height="15.0" fill="rgb(231,122,29)" rx="2" ry="2" />
<text  x="1191.46" y="319.5" ></text>
</g>
<g >
<title>scheduler_tick (112,699 samples, 0.01%)</title><rect x="1189.8" y="101" width="0.2" height="15.0" fill="rgb(246,190,45)" rx="2" ry="2" />
<text  x="1192.84" y="111.5" ></text>
</g>
<g >
<title>__pagevec_release (922,808 samples, 0.11%)</title><rect x="1180.9" y="165" width="1.3" height="15.0" fill="rgb(239,158,37)" rx="2" ry="2" />
<text  x="1183.92" y="175.5" ></text>
</g>
<g >
<title>tick_sched_timer (112,699 samples, 0.01%)</title><rect x="1189.8" y="149" width="0.2" height="15.0" fill="rgb(254,227,54)" rx="2" ry="2" />
<text  x="1192.84" y="159.5" ></text>
</g>
<g >
<title>TransformUV_C (924,284 samples, 0.11%)</title><rect x="351.4" y="357" width="1.4" height="15.0" fill="rgb(236,146,34)" rx="2" ry="2" />
<text  x="354.43" y="367.5" ></text>
</g>
<g >
<title>TransformWHT_C (924,227 samples, 0.11%)</title><rect x="352.8" y="357" width="1.3" height="15.0" fill="rgb(221,76,18)" rx="2" ry="2" />
<text  x="355.76" y="367.5" ></text>
</g>
<g >
<title>do_sys_openat2 (922,808 samples, 0.11%)</title><rect x="1180.9" y="293" width="1.3" height="15.0" fill="rgb(253,221,52)" rx="2" ry="2" />
<text  x="1183.92" y="303.5" ></text>
</g>
<g >
<title>do_filp_open (922,808 samples, 0.11%)</title><rect x="1180.9" y="277" width="1.3" height="15.0" fill="rgb(211,28,6)" rx="2" ry="2" />
<text  x="1183.92" y="287.5" ></text>
</g>
<g >
<title>asm_sysvec_apic_timer_interrupt (112,699 samples, 0.01%)</title><rect x="1189.8" y="229" width="0.2" height="15.0" fill="rgb(232,127,30)" rx="2" ry="2" />
<text  x="1192.84" y="239.5" ></text>
</g>
<g >
<title>VE8uv_SSE2 (924,125 samples, 0.11%)</title><rect x="371.0" y="357" width="1.4" height="15.0" fill="rgb(227,104,24)" rx="2" ry="2" />
<text  x="374.04" y="367.5" ></text>
</g>
<g >
<title>decode_webp_nat (815,978,606 samples, 99.98%)</title><rect x="10.0" y="389" width="1179.8" height="15.0" fill="rgb(218,61,14)" rx="2" ry="2" />
<text  x="13.00" y="399.5" >decode_webp_nat</text>
</g>
<g >
<title>do_group_exit (923,220 samples, 0.11%)</title><rect x="1188.5" y="325" width="1.3" height="15.0" fill="rgb(219,67,16)" rx="2" ry="2" />
<text  x="1191.46" y="335.5" ></text>
</g>
<g >
<title>GetCoeffsFast (924,262 samples, 0.11%)</title><rect x="230.5" y="357" width="1.3" height="15.0" fill="rgb(219,64,15)" rx="2" ry="2" />
<text  x="233.45" y="367.5" ></text>
</g>
<g >
<title>release_pages (922,808 samples, 0.11%)</title><rect x="1180.9" y="149" width="1.3" height="15.0" fill="rgb(228,106,25)" rx="2" ry="2" />
<text  x="1183.92" y="159.5" ></text>
</g>
<g >
<title>VE4_SSE2 (923,148 samples, 0.11%)</title><rect x="133.6" y="373" width="1.4" height="15.0" fill="rgb(221,76,18)" rx="2" ry="2" />
<text  x="136.64" y="383.5" ></text>
</g>
<g >
<title>perf-exec (142,399 samples, 0.02%)</title><rect x="1189.8" y="389" width="0.2" height="15.0" fill="rgb(231,123,29)" rx="2" ry="2" />
<text  x="1192.79" y="399.5" ></text>
</g>
<g >
<title>__sysvec_apic_timer_interrupt (112,699 samples, 0.01%)</title><rect x="1189.8" y="197" width="0.2" height="15.0" fill="rgb(242,173,41)" rx="2" ry="2" />
<text  x="1192.84" y="207.5" ></text>
</g>
<g >
<title>__handle_mm_fault (922,752 samples, 0.11%)</title><rect x="1187.1" y="293" width="1.4" height="15.0" fill="rgb(207,9,2)" rx="2" ry="2" />
<text  x="1190.13" y="303.5" ></text>
</g>
<g >
<title>do_mmap (314,678 samples, 0.04%)</title><rect x="1186.7" y="229" width="0.4" height="15.0" fill="rgb(228,107,25)" rx="2" ry="2" />
<text  x="1189.67" y="239.5" ></text>
</g>
<g >
<title>do_syscall_64 (923,220 samples, 0.11%)</title><rect x="1188.5" y="357" width="1.3" height="15.0" fill="rgb(209,20,4)" rx="2" ry="2" />
<text  x="1191.46" y="367.5" ></text>
</g>
<g >
<title>GetLargeValue (46,762,146 samples, 5.73%)</title><rect x="231.8" y="357" width="67.6" height="15.0" fill="rgb(243,175,42)" rx="2" ry="2" />
<text  x="234.79" y="367.5" >GetLarg..</text>
</g>
<g >
<title>VP8PlanarTo24b_SSE2 (1,848,459 samples, 0.23%)</title><rect x="559.4" y="357" width="2.7" height="15.0" fill="rgb(208,15,3)" rx="2" ry="2" />
<text  x="562.42" y="367.5" ></text>
</g>
<g >
<title>load_elf_binary (142,399 samples, 0.02%)</title><rect x="1189.8" y="277" width="0.2" height="15.0" fill="rgb(223,83,20)" rx="2" ry="2" />
<text  x="1192.79" y="287.5" ></text>
</g>
<g >
<title>SimpleHFilter16_SSE2 (2,772,234 samples, 0.34%)</title><rect x="323.4" y="357" width="4.0" height="15.0" fill="rgb(219,67,16)" rx="2" ry="2" />
<text  x="326.43" y="367.5" ></text>
</g>
<g >
<title>unmap_vmas (923,220 samples, 0.11%)</title><rect x="1188.5" y="261" width="1.3" height="15.0" fill="rgb(243,176,42)" rx="2" ry="2" />
<text  x="1191.46" y="271.5" ></text>
</g>
<g >
<title>__x64_sys_execve (314,678 samples, 0.04%)</title><rect x="1186.7" y="325" width="0.4" height="15.0" fill="rgb(247,193,46)" rx="2" ry="2" />
<text  x="1189.67" y="335.5" ></text>
</g>
<g >
<title>clear_page_rep (923,035 samples, 0.11%)</title><rect x="1182.2" y="149" width="1.4" height="15.0" fill="rgb(253,221,52)" rx="2" ry="2" />
<text  x="1185.25" y="159.5" ></text>
</g>
<g >
<title>perf_event_exec (142,399 samples, 0.02%)</title><rect x="1189.8" y="245" width="0.2" height="15.0" fill="rgb(218,60,14)" rx="2" ry="2" />
<text  x="1192.79" y="255.5" ></text>
</g>
<g >
<title>VE16_SSE2 (923,458 samples, 0.11%)</title><rect x="369.7" y="357" width="1.3" height="15.0" fill="rgb(242,170,40)" rx="2" ry="2" />
<text  x="372.70" y="367.5" ></text>
</g>
<g >
<title>YUV444ToRGB_SSE2 (923,736 samples, 0.11%)</title><rect x="562.1" y="357" width="1.3" height="15.0" fill="rgb(247,193,46)" rx="2" ry="2" />
<text  x="565.09" y="367.5" ></text>
</g>
<g >
<title>TransformDCUV_C (2,771,914 samples, 0.34%)</title><rect x="328.8" y="357" width="4.0" height="15.0" fill="rgb(214,44,10)" rx="2" ry="2" />
<text  x="331.78" y="367.5" ></text>
</g>
<g >
<title>__memmove_avx_unaligned_erms (922,752 samples, 0.11%)</title><rect x="1187.1" y="373" width="1.4" height="15.0" fill="rgb(205,0,0)" rx="2" ry="2" />
<text  x="1190.13" y="383.5" ></text>
</g>
<g >
<title>HE16_SSE2 (923,296 samples, 0.11%)</title><rect x="299.4" y="357" width="1.3" height="15.0" fill="rgb(232,126,30)" rx="2" ry="2" />
<text  x="302.40" y="367.5" ></text>
</g>
<g >
<title>path_openat (922,808 samples, 0.11%)</title><rect x="1180.9" y="261" width="1.3" height="15.0" fill="rgb(249,202,48)" rx="2" ry="2" />
<text  x="1183.92" y="271.5" ></text>
</g>
<g >
<title>exit_mmap (923,220 samples, 0.11%)</title><rect x="1188.5" y="277" width="1.3" height="15.0" fill="rgb(236,143,34)" rx="2" ry="2" />
<text  x="1191.46" y="287.5" ></text>
</g>
<g >
<title>GetCoeffsFast (424,300,822 samples, 51.99%)</title><rect x="563.4" y="341" width="613.5" height="15.0" fill="rgb(219,64,15)" rx="2" ry="2" />
<text  x="566.43" y="351.5" >GetCoeffsFast</text>
</g>
<g >
<title>charge_memcg (922,752 samples, 0.11%)</title><rect x="1187.1" y="261" width="1.4" height="15.0" fill="rgb(242,170,40)" rx="2" ry="2" />
<text  x="1190.13" y="271.5" ></text>
</g>
<g >
<title>VP8ParseIntraModeRow (5,542,138 samples, 0.68%)</title><rect x="151.8" y="373" width="8.0" height="15.0" fill="rgb(231,121,29)" rx="2" ry="2" />
<text  x="154.76" y="383.5" ></text>
</g>
<g >
<title>page_counter_uncharge (922,808 samples, 0.11%)</title><rect x="1180.9" y="101" width="1.3" height="15.0" fill="rgb(248,199,47)" rx="2" ry="2" />
<text  x="1183.92" y="111.5" ></text>
</g>
<g >
<title>VP8DecodeMB (10,690,546 samples, 1.31%)</title><rect x="135.0" y="373" width="15.4" height="15.0" fill="rgb(208,18,4)" rx="2" ry="2" />
<text  x="137.97" y="383.5" ></text>
</g>
<g >
<title>entry_SYSCALL_64_after_hwframe (923,035 samples, 0.11%)</title><rect x="1182.2" y="341" width="1.4" height="15.0" fill="rgb(218,63,15)" rx="2" ry="2" />
<text  x="1185.25" y="351.5" ></text>
</g>
<g >
<title>try_charge_memcg (922,752 samples, 0.11%)</title><rect x="1187.1" y="245" width="1.4" height="15.0" fill="rgb(210,27,6)" rx="2" ry="2" />
<text  x="1190.13" y="255.5" ></text>
</g>
<g >
<title>TransformDC_C (12,893,273 samples, 1.58%)</title><rect x="332.8" y="357" width="18.6" height="15.0" fill="rgb(219,65,15)" rx="2" ry="2" />
<text  x="335.78" y="367.5" ></text>
</g>
<g >
<title>entry_SYSCALL_64_after_hwframe (314,678 samples, 0.04%)</title><rect x="1186.7" y="357" width="0.4" height="15.0" fill="rgb(218,63,15)" rx="2" ry="2" />
<text  x="1189.67" y="367.5" ></text>
</g>
<g >
<title>ext4_setattr (922,808 samples, 0.11%)</title><rect x="1180.9" y="213" width="1.3" height="15.0" fill="rgb(230,117,28)" rx="2" ry="2" />
<text  x="1183.92" y="223.5" ></text>
</g>
<g >
<title>perf_event_mmap_output (314,678 samples, 0.04%)</title><rect x="1186.7" y="149" width="0.4" height="15.0" fill="rgb(214,45,10)" rx="2" ry="2" />
<text  x="1189.67" y="159.5" ></text>
</g>
<g >
<title>vm_mmap_pgoff (314,678 samples, 0.04%)</title><rect x="1186.7" y="245" width="0.4" height="15.0" fill="rgb(237,150,35)" rx="2" ry="2" />
<text  x="1189.67" y="255.5" ></text>
</g>
<g >
<title>YUV444ToRGB_SSE2 (5,464,006 samples, 0.67%)</title><rect x="217.2" y="373" width="7.9" height="15.0" fill="rgb(247,193,46)" rx="2" ry="2" />
<text  x="220.21" y="383.5" ></text>
</g>
<g >
<title>__mem_cgroup_uncharge_list (922,808 samples, 0.11%)</title><rect x="1180.9" y="133" width="1.3" height="15.0" fill="rgb(219,68,16)" rx="2" ry="2" />
<text  x="1183.92" y="143.5" ></text>
</g>
<g >
<title>__filemap_get_folio (923,035 samples, 0.11%)</title><rect x="1182.2" y="213" width="1.4" height="15.0" fill="rgb(231,120,28)" rx="2" ry="2" />
<text  x="1185.25" y="223.5" ></text>
</g>
<g >
<title>page_counter_try_charge (922,752 samples, 0.11%)</title><rect x="1187.1" y="229" width="1.4" height="15.0" fill="rgb(233,132,31)" rx="2" ry="2" />
<text  x="1190.13" y="239.5" ></text>
</g>
<g >
<title>truncate_pagecache (922,808 samples, 0.11%)</title><rect x="1180.9" y="197" width="1.3" height="15.0" fill="rgb(231,123,29)" rx="2" ry="2" />
<text  x="1183.92" y="207.5" ></text>
</g>
<g >
<title>do_execveat_common.isra.0 (142,399 samples, 0.02%)</title><rect x="1189.8" y="309" width="0.2" height="15.0" fill="rgb(231,123,29)" rx="2" ry="2" />
<text  x="1192.79" y="319.5" ></text>
</g>
<g >
<title>tick_sched_handle (112,699 samples, 0.01%)</title><rect x="1189.8" y="133" width="0.2" height="15.0" fill="rgb(219,68,16)" rx="2" ry="2" />
<text  x="1192.84" y="143.5" ></text>
</g>
<g >
<title>_int_malloc (813,482 samples, 0.10%)</title><rect x="1185.5" y="357" width="1.2" height="15.0" fill="rgb(215,47,11)" rx="2" ry="2" />
<text  x="1188.49" y="367.5" ></text>
</g>
<g >
<title>hrtimer_interrupt (112,699 samples, 0.01%)</title><rect x="1189.8" y="181" width="0.2" height="15.0" fill="rgb(228,109,26)" rx="2" ry="2" />
<text  x="1192.84" y="191.5" ></text>
</g>
<g >
<title>HE4_C (3,694,036 samples, 0.45%)</title><rect x="39.4" y="373" width="5.3" height="15.0" fill="rgb(220,70,16)" rx="2" ry="2" />
<text  x="42.39" y="383.5" ></text>
</g>
<g >
<title>Transform_SSE2 (24,542,072 samples, 3.01%)</title><rect x="82.1" y="373" width="35.5" height="15.0" fill="rgb(233,129,30)" rx="2" ry="2" />
<text  x="85.12" y="383.5" >Tra..</text>
</g>
<g >
<title>HD4_C (3,695,205 samples, 0.45%)</title><rect x="34.0" y="373" width="5.4" height="15.0" fill="rgb(226,100,23)" rx="2" ry="2" />
<text  x="37.05" y="383.5" ></text>
</g>
<g >
<title>VR4_SSE2 (1,848,185 samples, 0.23%)</title><rect x="214.5" y="373" width="2.7" height="15.0" fill="rgb(237,150,35)" rx="2" ry="2" />
<text  x="217.54" y="383.5" ></text>
</g>
<g >
<title>UpsampleRgbLinePair_SSE2 (1,847,293 samples, 0.23%)</title><rect x="367.0" y="357" width="2.7" height="15.0" fill="rgb(220,70,16)" rx="2" ry="2" />
<text  x="370.03" y="367.5" ></text>
</g>
<g >
<title>do_truncate (922,808 samples, 0.11%)</title><rect x="1180.9" y="245" width="1.3" height="15.0" fill="rgb(216,53,12)" rx="2" ry="2" />
<text  x="1183.92" y="255.5" ></text>
</g>
<g >
<title>exc_page_fault (922,752 samples, 0.11%)</title><rect x="1187.1" y="341" width="1.4" height="15.0" fill="rgb(212,35,8)" rx="2" ry="2" />
<text  x="1190.13" y="351.5" ></text>
</g>
<g >
<title>sysvec_apic_timer_interrupt (112,699 samples, 0.01%)</title><rect x="1189.8" y="213" width="0.2" height="15.0" fill="rgb(220,69,16)" rx="2" ry="2" />
<text  x="1192.84" y="223.5" ></text>
</g>
<g >
<title>VP8ParseProba (1,848,078 samples, 0.23%)</title><rect x="159.8" y="373" width="2.6" height="15.0" fill="rgb(224,88,21)" rx="2" ry="2" />
<text  x="162.78" y="383.5" ></text>
</g>
<g >
<title>__memmove_avx_unaligned_erms (923,090 samples, 0.11%)</title><rect x="1183.6" y="357" width="1.3" height="15.0" fill="rgb(205,0,0)" rx="2" ry="2" />
<text  x="1186.58" y="367.5" ></text>
</g>
<g >
<title>entry_SYSCALL_64_after_hwframe (142,399 samples, 0.02%)</title><rect x="1189.8" y="357" width="0.2" height="15.0" fill="rgb(218,63,15)" rx="2" ry="2" />
<text  x="1192.79" y="367.5" ></text>
</g>
<g >
<title>TM16_SSE2 (923,611 samples, 0.11%)</title><rect x="327.4" y="357" width="1.4" height="15.0" fill="rgb(253,222,53)" rx="2" ry="2" />
<text  x="330.44" y="367.5" ></text>
</g>
<g >
<title>VP8ParseIntraModeRow (104,952,596 samples, 12.86%)</title><rect x="407.7" y="357" width="151.7" height="15.0" fill="rgb(231,121,29)" rx="2" ry="2" />
<text  x="410.67" y="367.5" >VP8ParseIntraModeRow</text>
</g>
<g >
<title>unmap_page_range (923,220 samples, 0.11%)</title><rect x="1188.5" y="245" width="1.3" height="15.0" fill="rgb(206,5,1)" rx="2" ry="2" />
<text  x="1191.46" y="255.5" ></text>
</g>
<g >
<title>amd_pmu_disable_all (112,699 samples, 0.01%)</title><rect x="1189.8" y="69" width="0.2" height="15.0" fill="rgb(213,38,9)" rx="2" ry="2" />
<text  x="1192.84" y="79.5" ></text>
</g>
<g >
<title>__entry_text_start (397,928 samples, 0.05%)</title><rect x="1184.9" y="341" width="0.6" height="15.0" fill="rgb(247,194,46)" rx="2" ry="2" />
<text  x="1187.92" y="351.5" ></text>
</g>
<g >
<title>notify_change (922,808 samples, 0.11%)</title><rect x="1180.9" y="229" width="1.3" height="15.0" fill="rgb(237,150,35)" rx="2" ry="2" />
<text  x="1183.92" y="239.5" ></text>
</g>
<g >
<title>UpsampleRgbLinePair_SSE2 (11,085,781 samples, 1.36%)</title><rect x="117.6" y="373" width="16.0" height="15.0" fill="rgb(220,70,16)" rx="2" ry="2" />
<text  x="120.61" y="383.5" ></text>
</g>
<g >
<title>do_user_addr_fault (922,752 samples, 0.11%)</title><rect x="1187.1" y="325" width="1.4" height="15.0" fill="rgb(228,108,25)" rx="2" ry="2" />
<text  x="1190.13" y="335.5" ></text>
</g>
<g >
<title>__x64_sys_openat (922,808 samples, 0.11%)</title><rect x="1180.9" y="309" width="1.3" height="15.0" fill="rgb(251,215,51)" rx="2" ry="2" />
<text  x="1183.92" y="319.5" ></text>
</g>
<g >
<title>ext4_da_write_begin (923,035 samples, 0.11%)</title><rect x="1182.2" y="245" width="1.4" height="15.0" fill="rgb(211,32,7)" rx="2" ry="2" />
<text  x="1185.25" y="255.5" ></text>
</g>
<g >
<title>__x64_sys_execve (142,399 samples, 0.02%)</title><rect x="1189.8" y="325" width="0.2" height="15.0" fill="rgb(247,193,46)" rx="2" ry="2" />
<text  x="1192.79" y="335.5" ></text>
</g>
<g >
<title>__hrtimer_run_queues (112,699 samples, 0.01%)</title><rect x="1189.8" y="165" width="0.2" height="15.0" fill="rgb(237,150,35)" rx="2" ry="2" />
<text  x="1192.84" y="175.5" ></text>
</g>
<g >
<title>all (816,121,005 samples, 100%)</title><rect x="10.0" y="405" width="1180.0" height="15.0" fill="rgb(213,39,9)" rx="2" ry="2" />
<text  x="13.00" y="415.5" ></text>
</g>
<g >
<title>ext4_buffered_write_iter (923,035 samples, 0.11%)</title><rect x="1182.2" y="277" width="1.4" height="15.0" fill="rgb(213,40,9)" rx="2" ry="2" />
<text  x="1185.25" y="287.5" ></text>
</g>
<g >
<title>TransformDC_C (8,314,145 samples, 1.02%)</title><rect x="70.1" y="373" width="12.0" height="15.0" fill="rgb(219,65,15)" rx="2" ry="2" />
<text  x="73.10" y="383.5" ></text>
</g>
<g >
<title>mmap_region (314,678 samples, 0.04%)</title><rect x="1186.7" y="213" width="0.4" height="15.0" fill="rgb(231,121,28)" rx="2" ry="2" />
<text  x="1189.67" y="223.5" ></text>
</g>
<g >
<title>ksys_write (923,035 samples, 0.11%)</title><rect x="1182.2" y="309" width="1.4" height="15.0" fill="rgb(205,4,1)" rx="2" ry="2" />
<text  x="1185.25" y="319.5" ></text>
</g>
<g >
<title>VP8DecodeMB (24,413,695 samples, 2.99%)</title><rect x="372.4" y="357" width="35.3" height="15.0" fill="rgb(208,18,4)" rx="2" ry="2" />
<text  x="375.37" y="367.5" >VP..</text>
</g>
<g >
<title>perf_event_mmap (314,678 samples, 0.04%)</title><rect x="1186.7" y="197" width="0.4" height="15.0" fill="rgb(229,112,26)" rx="2" ry="2" />
<text  x="1189.67" y="207.5" ></text>
</g>
<g >
<title>do_syscall_64 (142,399 samples, 0.02%)</title><rect x="1189.8" y="341" width="0.2" height="15.0" fill="rgb(209,20,4)" rx="2" ry="2" />
<text  x="1192.79" y="351.5" ></text>
</g>
<g >
<title>_dl_get_origin (397,928 samples, 0.05%)</title><rect x="1184.9" y="357" width="0.6" height="15.0" fill="rgb(225,94,22)" rx="2" ry="2" />
<text  x="1187.92" y="367.5" ></text>
</g>
<g >
<title>uncharge_batch (922,808 samples, 0.11%)</title><rect x="1180.9" y="117" width="1.3" height="15.0" fill="rgb(220,72,17)" rx="2" ry="2" />
<text  x="1183.92" y="127.5" ></text>
</g>
<g >
<title>perf_iterate_ctx (314,678 samples, 0.04%)</title><rect x="1186.7" y="165" width="0.4" height="15.0" fill="rgb(205,4,0)" rx="2" ry="2" />
<text  x="1189.67" y="175.5" ></text>
</g>
<g >
<title>elf_map (314,678 samples, 0.04%)</title><rect x="1186.7" y="261" width="0.4" height="15.0" fill="rgb(236,145,34)" rx="2" ry="2" />
<text  x="1189.67" y="271.5" ></text>
</g>
<g >
<title>VP8YuvToRgb32_SSE2 (14,780,625 samples, 1.81%)</title><rect x="193.2" y="373" width="21.3" height="15.0" fill="rgb(241,167,40)" rx="2" ry="2" />
<text  x="196.17" y="383.5" >V..</text>
</g>
<g >
<title>DC4_C (12,010,569 samples, 1.47%)</title><rect x="10.0" y="373" width="17.4" height="15.0" fill="rgb(209,18,4)" rx="2" ry="2" />
<text  x="13.00" y="383.5" ></text>
</g>
<g >
<title>[unknown] (427,071,243 samples, 52.33%)</title><rect x="563.4" y="357" width="617.5" height="15.0" fill="rgb(210,24,5)" rx="2" ry="2" />
<text  x="566.43" y="367.5" >[unknown]</text>
</g>
</g>
</svg>
