<?xml version="1.0" standalone="no"?>
<!DOCTYPE svg PUBLIC "-//W3C//DTD SVG 1.1//EN" "http://www.w3.org/Graphics/SVG/1.1/DTD/svg11.dtd">
<svg version="1.1" width="1200" height="518" onload="init(evt)" viewBox="0 0 1200 518" xmlns="http://www.w3.org/2000/svg" xmlns:xlink="http://www.w3.org/1999/xlink">
<!-- Flame graph stack visualization. See https://github.com/brendangregg/FlameGraph for latest version, and http://www.brendangregg.com/flamegraphs.html for examples. -->
<!-- NOTES:  -->
<defs>
	<linearGradient id="background" y1="0" y2="1" x1="0" x2="0" >
		<stop stop-color="#eeeeee" offset="5%" />
		<stop stop-color="#eeeeb0" offset="95%" />
	</linearGradient>
</defs>
<style type="text/css">
	text { font-family:Verdana; font-size:12px; fill:rgb(0,0,0); }
	#search, #ignorecase { opacity:0.1; cursor:pointer; }
	#search:hover, #search.show, #ignorecase:hover, #ignorecase.show { opacity:1; }
	#subtitle { text-anchor:middle; font-color:rgb(160,160,160); }
	#title { text-anchor:middle; font-size:17px}
	#unzoom { cursor:pointer; }
	#frames > *:hover { stroke:black; stroke-width:0.5; cursor:pointer; }
	.hide { display:none; }
	.parent { opacity:0.5; }
</style>
<script type="text/ecmascript">
<![CDATA[
	"use strict";
	var details, searchbtn, unzoombtn, matchedtxt, svg, searching, currentSearchTerm, ignorecase, ignorecaseBtn;
	function init(evt) {
		details = document.getElementById("details").firstChild;
		searchbtn = document.getElementById("search");
		ignorecaseBtn = document.getElementById("ignorecase");
		unzoombtn = document.getElementById("unzoom");
		matchedtxt = document.getElementById("matched");
		svg = document.getElementsByTagName("svg")[0];
		searching = 0;
		currentSearchTerm = null;

		// use GET parameters to restore a flamegraphs state.
		var params = get_params();
		if (params.x && params.y)
			zoom(find_group(document.querySelector('[x="' + params.x + '"][y="' + params.y + '"]')));
                if (params.s) search(params.s);
	}

	// event listeners
	window.addEventListener("click", function(e) {
		var target = find_group(e.target);
		if (target) {
			if (target.nodeName == "a") {
				if (e.ctrlKey === false) return;
				e.preventDefault();
			}
			if (target.classList.contains("parent")) unzoom(true);
			zoom(target);
			if (!document.querySelector('.parent')) {
				// we have basically done a clearzoom so clear the url
				var params = get_params();
				if (params.x) delete params.x;
				if (params.y) delete params.y;
				history.replaceState(null, null, parse_params(params));
				unzoombtn.classList.add("hide");
				return;
			}

			// set parameters for zoom state
			var el = target.querySelector("rect");
			if (el && el.attributes && el.attributes.y && el.attributes._orig_x) {
				var params = get_params()
				params.x = el.attributes._orig_x.value;
				params.y = el.attributes.y.value;
				history.replaceState(null, null, parse_params(params));
			}
		}
		else if (e.target.id == "unzoom") clearzoom();
		else if (e.target.id == "search") search_prompt();
		else if (e.target.id == "ignorecase") toggle_ignorecase();
	}, false)

	// mouse-over for info
	// show
	window.addEventListener("mouseover", function(e) {
		var target = find_group(e.target);
		if (target) details.nodeValue = "Function: " + g_to_text(target);
	}, false)

	// clear
	window.addEventListener("mouseout", function(e) {
		var target = find_group(e.target);
		if (target) details.nodeValue = ' ';
	}, false)

	// ctrl-F for search
	// ctrl-I to toggle case-sensitive search
	window.addEventListener("keydown",function (e) {
		if (e.keyCode === 114 || (e.ctrlKey && e.keyCode === 70)) {
			e.preventDefault();
			search_prompt();
		}
		else if (e.ctrlKey && e.keyCode === 73) {
			e.preventDefault();
			toggle_ignorecase();
		}
	}, false)

	// functions
	function get_params() {
		var params = {};
		var paramsarr = window.location.search.substr(1).split('&');
		for (var i = 0; i < paramsarr.length; ++i) {
			var tmp = paramsarr[i].split("=");
			if (!tmp[0] || !tmp[1]) continue;
			params[tmp[0]]  = decodeURIComponent(tmp[1]);
		}
		return params;
	}
	function parse_params(params) {
		var uri = "?";
		for (var key in params) {
			uri += key + '=' + encodeURIComponent(params[key]) + '&';
		}
		if (uri.slice(-1) == "&")
			uri = uri.substring(0, uri.length - 1);
		if (uri == '?')
			uri = window.location.href.split('?')[0];
		return uri;
	}
	function find_child(node, selector) {
		var children = node.querySelectorAll(selector);
		if (children.length) return children[0];
	}
	function find_group(node) {
		var parent = node.parentElement;
		if (!parent) return;
		if (parent.id == "frames") return node;
		return find_group(parent);
	}
	function orig_save(e, attr, val) {
		if (e.attributes["_orig_" + attr] != undefined) return;
		if (e.attributes[attr] == undefined) return;
		if (val == undefined) val = e.attributes[attr].value;
		e.setAttribute("_orig_" + attr, val);
	}
	function orig_load(e, attr) {
		if (e.attributes["_orig_"+attr] == undefined) return;
		e.attributes[attr].value = e.attributes["_orig_" + attr].value;
		e.removeAttribute("_orig_"+attr);
	}
	function g_to_text(e) {
		var text = find_child(e, "title").firstChild.nodeValue;
		return (text)
	}
	function g_to_func(e) {
		var func = g_to_text(e);
		// if there's any manipulation we want to do to the function
		// name before it's searched, do it here before returning.
		return (func);
	}
	function update_text(e) {
		var r = find_child(e, "rect");
		var t = find_child(e, "text");
		var w = parseFloat(r.attributes.width.value) -3;
		var txt = find_child(e, "title").textContent.replace(/\([^(]*\)$/,"");
		t.attributes.x.value = parseFloat(r.attributes.x.value) + 3;

		// Smaller than this size won't fit anything
		if (w < 2 * 12 * 0.59) {
			t.textContent = "";
			return;
		}

		t.textContent = txt;
		var sl = t.getSubStringLength(0, txt.length);
		// check if only whitespace or if we can fit the entire string into width w
		if (/^ *$/.test(txt) || sl < w)
			return;

		// this isn't perfect, but gives a good starting point
		// and avoids calling getSubStringLength too often
		var start = Math.floor((w/sl) * txt.length);
		for (var x = start; x > 0; x = x-2) {
			if (t.getSubStringLength(0, x + 2) <= w) {
				t.textContent = txt.substring(0, x) + "..";
				return;
			}
		}
		t.textContent = "";
	}

	// zoom
	function zoom_reset(e) {
		if (e.attributes != undefined) {
			orig_load(e, "x");
			orig_load(e, "width");
		}
		if (e.childNodes == undefined) return;
		for (var i = 0, c = e.childNodes; i < c.length; i++) {
			zoom_reset(c[i]);
		}
	}
	function zoom_child(e, x, ratio) {
		if (e.attributes != undefined) {
			if (e.attributes.x != undefined) {
				orig_save(e, "x");
				e.attributes.x.value = (parseFloat(e.attributes.x.value) - x - 10) * ratio + 10;
				if (e.tagName == "text")
					e.attributes.x.value = find_child(e.parentNode, "rect[x]").attributes.x.value + 3;
			}
			if (e.attributes.width != undefined) {
				orig_save(e, "width");
				e.attributes.width.value = parseFloat(e.attributes.width.value) * ratio;
			}
		}

		if (e.childNodes == undefined) return;
		for (var i = 0, c = e.childNodes; i < c.length; i++) {
			zoom_child(c[i], x - 10, ratio);
		}
	}
	function zoom_parent(e) {
		if (e.attributes) {
			if (e.attributes.x != undefined) {
				orig_save(e, "x");
				e.attributes.x.value = 10;
			}
			if (e.attributes.width != undefined) {
				orig_save(e, "width");
				e.attributes.width.value = parseInt(svg.width.baseVal.value) - (10 * 2);
			}
		}
		if (e.childNodes == undefined) return;
		for (var i = 0, c = e.childNodes; i < c.length; i++) {
			zoom_parent(c[i]);
		}
	}
	function zoom(node) {
		var attr = find_child(node, "rect").attributes;
		var width = parseFloat(attr.width.value);
		var xmin = parseFloat(attr.x.value);
		var xmax = parseFloat(xmin + width);
		var ymin = parseFloat(attr.y.value);
		var ratio = (svg.width.baseVal.value - 2 * 10) / width;

		// XXX: Workaround for JavaScript float issues (fix me)
		var fudge = 0.0001;

		unzoombtn.classList.remove("hide");

		var el = document.getElementById("frames").children;
		for (var i = 0; i < el.length; i++) {
			var e = el[i];
			var a = find_child(e, "rect").attributes;
			var ex = parseFloat(a.x.value);
			var ew = parseFloat(a.width.value);
			var upstack;
			// Is it an ancestor
			if (0 == 0) {
				upstack = parseFloat(a.y.value) > ymin;
			} else {
				upstack = parseFloat(a.y.value) < ymin;
			}
			if (upstack) {
				// Direct ancestor
				if (ex <= xmin && (ex+ew+fudge) >= xmax) {
					e.classList.add("parent");
					zoom_parent(e);
					update_text(e);
				}
				// not in current path
				else
					e.classList.add("hide");
			}
			// Children maybe
			else {
				// no common path
				if (ex < xmin || ex + fudge >= xmax) {
					e.classList.add("hide");
				}
				else {
					zoom_child(e, xmin, ratio);
					update_text(e);
				}
			}
		}
		search();
	}
	function unzoom(dont_update_text) {
		unzoombtn.classList.add("hide");
		var el = document.getElementById("frames").children;
		for(var i = 0; i < el.length; i++) {
			el[i].classList.remove("parent");
			el[i].classList.remove("hide");
			zoom_reset(el[i]);
			if(!dont_update_text) update_text(el[i]);
		}
		search();
	}
	function clearzoom() {
		unzoom();

		// remove zoom state
		var params = get_params();
		if (params.x) delete params.x;
		if (params.y) delete params.y;
		history.replaceState(null, null, parse_params(params));
	}

	// search
	function toggle_ignorecase() {
		ignorecase = !ignorecase;
		if (ignorecase) {
			ignorecaseBtn.classList.add("show");
		} else {
			ignorecaseBtn.classList.remove("show");
		}
		reset_search();
		search();
	}
	function reset_search() {
		var el = document.querySelectorAll("#frames rect");
		for (var i = 0; i < el.length; i++) {
			orig_load(el[i], "fill")
		}
		var params = get_params();
		delete params.s;
		history.replaceState(null, null, parse_params(params));
	}
	function search_prompt() {
		if (!searching) {
			var term = prompt("Enter a search term (regexp " +
			    "allowed, eg: ^ext4_)"
			    + (ignorecase ? ", ignoring case" : "")
			    + "\nPress Ctrl-i to toggle case sensitivity", "");
			if (term != null) search(term);
		} else {
			reset_search();
			searching = 0;
			currentSearchTerm = null;
			searchbtn.classList.remove("show");
			searchbtn.firstChild.nodeValue = "Search"
			matchedtxt.classList.add("hide");
			matchedtxt.firstChild.nodeValue = ""
		}
	}
	function search(term) {
		if (term) currentSearchTerm = term;

		var re = new RegExp(currentSearchTerm, ignorecase ? 'i' : '');
		var el = document.getElementById("frames").children;
		var matches = new Object();
		var maxwidth = 0;
		for (var i = 0; i < el.length; i++) {
			var e = el[i];
			var func = g_to_func(e);
			var rect = find_child(e, "rect");
			if (func == null || rect == null)
				continue;

			// Save max width. Only works as we have a root frame
			var w = parseFloat(rect.attributes.width.value);
			if (w > maxwidth)
				maxwidth = w;

			if (func.match(re)) {
				// highlight
				var x = parseFloat(rect.attributes.x.value);
				orig_save(rect, "fill");
				rect.attributes.fill.value = "rgb(230,0,230)";

				// remember matches
				if (matches[x] == undefined) {
					matches[x] = w;
				} else {
					if (w > matches[x]) {
						// overwrite with parent
						matches[x] = w;
					}
				}
				searching = 1;
			}
		}
		if (!searching)
			return;
		var params = get_params();
		params.s = currentSearchTerm;
		history.replaceState(null, null, parse_params(params));

		searchbtn.classList.add("show");
		searchbtn.firstChild.nodeValue = "Reset Search";

		// calculate percent matched, excluding vertical overlap
		var count = 0;
		var lastx = -1;
		var lastw = 0;
		var keys = Array();
		for (k in matches) {
			if (matches.hasOwnProperty(k))
				keys.push(k);
		}
		// sort the matched frames by their x location
		// ascending, then width descending
		keys.sort(function(a, b){
			return a - b;
		});
		// Step through frames saving only the biggest bottom-up frames
		// thanks to the sort order. This relies on the tree property
		// where children are always smaller than their parents.
		var fudge = 0.0001;	// JavaScript floating point
		for (var k in keys) {
			var x = parseFloat(keys[k]);
			var w = matches[keys[k]];
			if (x >= lastx + lastw - fudge) {
				count += w;
				lastx = x;
				lastw = w;
			}
		}
		// display matched percent
		matchedtxt.classList.remove("hide");
		var pct = 100 * count / maxwidth;
		if (pct != 100) pct = pct.toFixed(1)
		matchedtxt.firstChild.nodeValue = "Matched: " + pct + "%";
	}
]]>
</script>
<rect x="0.0" y="0" width="1200.0" height="518.0" fill="url(#background)"  />
<text id="title" x="600.00" y="24" >Flame Graph</text>
<text id="details" x="10.00" y="501" > </text>
<text id="unzoom" x="10.00" y="24" class="hide">Reset Zoom</text>
<text id="search" x="1090.00" y="24" >Search</text>
<text id="ignorecase" x="1174.00" y="24" >ic</text>
<text id="matched" x="1090.00" y="501" > </text>
<g id="frames">
<g >
<title>w2c_decode__webp__wasm_TransformUV_C (1,847,011 samples, 0.13%)</title><rect x="48.2" y="421" width="1.5" height="15.0" fill="rgb(249,206,49)" rx="2" ry="2" />
<text  x="51.22" y="431.5" ></text>
</g>
<g >
<title>w2c_decode__webp__wasm_IDecode (153,587,932 samples, 10.46%)</title><rect x="559.7" y="437" width="123.4" height="15.0" fill="rgb(208,15,3)" rx="2" ry="2" />
<text  x="562.72" y="447.5" >w2c_decode__web..</text>
</g>
<g >
<title>__close_nocancel (924,748 samples, 0.06%)</title><rect x="28.6" y="421" width="0.7" height="15.0" fill="rgb(228,109,26)" rx="2" ry="2" />
<text  x="31.56" y="431.5" ></text>
</g>
<g >
<title>__x64_sys_execve (470,517 samples, 0.03%)</title><rect x="30.0" y="389" width="0.4" height="15.0" fill="rgb(247,193,46)" rx="2" ry="2" />
<text  x="33.03" y="399.5" ></text>
</g>
<g >
<title>w2c_decode__webp__wasm_GetCoeffsFast (1,847,802 samples, 0.13%)</title><rect x="11.5" y="341" width="1.5" height="15.0" fill="rgb(232,124,29)" rx="2" ry="2" />
<text  x="14.48" y="351.5" ></text>
</g>
<g >
<title>w2c_decode__webp__wasm_VL4_C (2,770,861 samples, 0.19%)</title><rect x="1180.7" y="437" width="2.3" height="15.0" fill="rgb(247,196,46)" rx="2" ry="2" />
<text  x="1183.74" y="447.5" ></text>
</g>
<g >
<title>[unknown] (23,095,025 samples, 1.57%)</title><rect x="10.0" y="405" width="18.6" height="15.0" fill="rgb(210,24,5)" rx="2" ry="2" />
<text  x="13.00" y="415.5" ></text>
</g>
<g >
<title>do_writepages (924,748 samples, 0.06%)</title><rect x="28.6" y="261" width="0.7" height="15.0" fill="rgb(240,164,39)" rx="2" ry="2" />
<text  x="31.56" y="271.5" ></text>
</g>
<g >
<title>__handle_mm_fault (408,621 samples, 0.03%)</title><rect x="53.4" y="357" width="0.3" height="15.0" fill="rgb(207,9,2)" rx="2" ry="2" />
<text  x="56.42" y="367.5" ></text>
</g>
<g >
<title>pagecache_get_page (916,002 samples, 0.06%)</title><rect x="29.3" y="293" width="0.7" height="15.0" fill="rgb(253,221,53)" rx="2" ry="2" />
<text  x="32.30" y="303.5" ></text>
</g>
<g >
<title>w2c_decode__webp__wasm_IDecode (5,541,286 samples, 0.38%)</title><rect x="38.6" y="421" width="4.4" height="15.0" fill="rgb(208,15,3)" rx="2" ry="2" />
<text  x="41.58" y="431.5" ></text>
</g>
<g >
<title>ksys_write (916,002 samples, 0.06%)</title><rect x="29.3" y="373" width="0.7" height="15.0" fill="rgb(205,4,1)" rx="2" ry="2" />
<text  x="32.30" y="383.5" ></text>
</g>
<g >
<title>w2c_decode__webp__wasm_SimpleHFilter16i_C (11,085,425 samples, 0.75%)</title><rect x="740.9" y="437" width="9.0" height="15.0" fill="rgb(212,35,8)" rx="2" ry="2" />
<text  x="743.95" y="447.5" ></text>
</g>
<g >
<title>asm_exc_page_fault (408,621 samples, 0.03%)</title><rect x="53.4" y="421" width="0.3" height="15.0" fill="rgb(225,93,22)" rx="2" ry="2" />
<text  x="56.42" y="431.5" ></text>
</g>
<g >
<title>check_preemption_disabled (481,134 samples, 0.03%)</title><rect x="1177.4" y="277" width="0.4" height="15.0" fill="rgb(220,73,17)" rx="2" ry="2" />
<text  x="1180.39" y="287.5" ></text>
</g>
<g >
<title>w2c_decode__webp__wasm_TransformOne_C (91,374,729 samples, 6.22%)</title><rect x="788.4" y="437" width="73.5" height="15.0" fill="rgb(231,120,28)" rx="2" ry="2" />
<text  x="791.44" y="447.5" >w2c_deco..</text>
</g>
<g >
<title>__filemap_get_folio (916,002 samples, 0.06%)</title><rect x="29.3" y="277" width="0.7" height="15.0" fill="rgb(231,120,28)" rx="2" ry="2" />
<text  x="32.30" y="287.5" ></text>
</g>
<g >
<title>w2c_decode__webp__wasm_IDecode (5,543,505 samples, 0.38%)</title><rect x="13.7" y="341" width="4.5" height="15.0" fill="rgb(208,15,3)" rx="2" ry="2" />
<text  x="16.71" y="351.5" ></text>
</g>
<g >
<title>w2c_decode__webp__wasm_HE4_C (923,072 samples, 0.06%)</title><rect x="553.8" y="437" width="0.7" height="15.0" fill="rgb(233,130,31)" rx="2" ry="2" />
<text  x="556.78" y="447.5" ></text>
</g>
<g >
<title>__handle_mm_fault (481,134 samples, 0.03%)</title><rect x="1177.4" y="357" width="0.4" height="15.0" fill="rgb(207,9,2)" rx="2" ry="2" />
<text  x="1180.39" y="367.5" ></text>
</g>
<g >
<title>charge_memcg (916,002 samples, 0.06%)</title><rect x="29.3" y="213" width="0.7" height="15.0" fill="rgb(242,170,40)" rx="2" ry="2" />
<text  x="32.30" y="223.5" ></text>
</g>
<g >
<title>w2c_decode__webp__wasm_TransformDCUV_C (3,693,938 samples, 0.25%)</title><rect x="20.4" y="341" width="3.0" height="15.0" fill="rgb(227,104,25)" rx="2" ry="2" />
<text  x="23.39" y="351.5" ></text>
</g>
<g >
<title>__memset_avx2_unaligned_erms (1,848,153 samples, 0.13%)</title><rect x="51.9" y="437" width="1.5" height="15.0" fill="rgb(223,84,20)" rx="2" ry="2" />
<text  x="54.93" y="447.5" ></text>
</g>
<g >
<title>w2c_decode__webp__wasm_ReconstructRow (4,618,576 samples, 0.31%)</title><rect x="43.0" y="421" width="3.7" height="15.0" fill="rgb(238,153,36)" rx="2" ry="2" />
<text  x="46.03" y="431.5" ></text>
</g>
<g >
<title>w2c_decode__webp__wasm_TM4_C (2,770,382 samples, 0.19%)</title><rect x="764.0" y="437" width="2.2" height="15.0" fill="rgb(254,226,54)" rx="2" ry="2" />
<text  x="766.95" y="447.5" ></text>
</g>
<g >
<title>__handle_mm_fault (358,355 samples, 0.02%)</title><rect x="30.1" y="229" width="0.3" height="15.0" fill="rgb(207,9,2)" rx="2" ry="2" />
<text  x="33.12" y="239.5" ></text>
</g>
<g >
<title>w2c_decode__webp__wasm_TransformUV_C (1,847,318 samples, 0.13%)</title><rect x="27.1" y="341" width="1.5" height="15.0" fill="rgb(249,206,49)" rx="2" ry="2" />
<text  x="30.07" y="351.5" ></text>
</g>
<g >
<title>do_user_addr_fault (358,355 samples, 0.02%)</title><rect x="30.1" y="261" width="0.3" height="15.0" fill="rgb(228,108,25)" rx="2" ry="2" />
<text  x="33.12" y="271.5" ></text>
</g>
<g >
<title>filemap_add_folio (916,002 samples, 0.06%)</title><rect x="29.3" y="261" width="0.7" height="15.0" fill="rgb(207,9,2)" rx="2" ry="2" />
<text  x="32.30" y="271.5" ></text>
</g>
<g >
<title>decode_webp_was (1,468,684,911 samples, 100.00%)</title><rect x="10.0" y="453" width="1180.0" height="15.0" fill="rgb(216,54,12)" rx="2" ry="2" />
<text  x="13.00" y="463.5" >decode_webp_was</text>
</g>
<g >
<title>pfn_pte (358,355 samples, 0.02%)</title><rect x="30.1" y="165" width="0.3" height="15.0" fill="rgb(231,122,29)" rx="2" ry="2" />
<text  x="33.12" y="175.5" ></text>
</g>
<g >
<title>__strlen_avx2 (408,621 samples, 0.03%)</title><rect x="53.4" y="437" width="0.3" height="15.0" fill="rgb(246,188,45)" rx="2" ry="2" />
<text  x="56.42" y="447.5" ></text>
</g>
<g >
<title>generic_perform_write (916,002 samples, 0.06%)</title><rect x="29.3" y="325" width="0.7" height="15.0" fill="rgb(236,146,35)" rx="2" ry="2" />
<text  x="32.30" y="335.5" ></text>
</g>
<g >
<title>w2c_decode__webp__wasm_GetLargeValue (62,454,743 samples, 4.25%)</title><rect x="502.9" y="437" width="50.1" height="15.0" fill="rgb(206,5,1)" rx="2" ry="2" />
<text  x="505.86" y="447.5" >w2c_d..</text>
</g>
<g >
<title>entry_SYSCALL_64_after_hwframe (470,517 samples, 0.03%)</title><rect x="30.0" y="421" width="0.4" height="15.0" fill="rgb(218,63,15)" rx="2" ry="2" />
<text  x="33.03" y="431.5" ></text>
</g>
<g >
<title>__count_memcg_events (916,002 samples, 0.06%)</title><rect x="29.3" y="181" width="0.7" height="15.0" fill="rgb(250,211,50)" rx="2" ry="2" />
<text  x="32.30" y="191.5" ></text>
</g>
<g >
<title>w2c_decode__webp__wasm_SimpleVFilter16_C (5,544,130 samples, 0.38%)</title><rect x="749.9" y="437" width="4.4" height="15.0" fill="rgb(250,209,50)" rx="2" ry="2" />
<text  x="752.85" y="447.5" ></text>
</g>
<g >
<title>do_execveat_common.isra.0 (470,517 samples, 0.03%)</title><rect x="30.0" y="373" width="0.4" height="15.0" fill="rgb(231,123,29)" rx="2" ry="2" />
<text  x="33.03" y="383.5" ></text>
</g>
<g >
<title>do_set_pte (358,355 samples, 0.02%)</title><rect x="30.1" y="181" width="0.3" height="15.0" fill="rgb(253,221,52)" rx="2" ry="2" />
<text  x="33.12" y="191.5" ></text>
</g>
<g >
<title>blk_add_rq_to_plug (924,748 samples, 0.06%)</title><rect x="28.6" y="181" width="0.7" height="15.0" fill="rgb(243,175,41)" rx="2" ry="2" />
<text  x="31.56" y="191.5" ></text>
</g>
<g >
<title>submit_bio_noacct_nocheck (924,748 samples, 0.06%)</title><rect x="28.6" y="213" width="0.7" height="15.0" fill="rgb(225,95,22)" rx="2" ry="2" />
<text  x="31.56" y="223.5" ></text>
</g>
<g >
<title>w2c_decode__webp__wasm_DC8uvNoLeft_C (923,561 samples, 0.06%)</title><rect x="10.0" y="341" width="0.7" height="15.0" fill="rgb(205,2,0)" rx="2" ry="2" />
<text  x="13.00" y="351.5" ></text>
</g>
<g >
<title>blk_mq_flush_plug_list (924,748 samples, 0.06%)</title><rect x="28.6" y="165" width="0.7" height="15.0" fill="rgb(215,46,11)" rx="2" ry="2" />
<text  x="31.56" y="175.5" ></text>
</g>
<g >
<title>filemap_fdatawrite_wbc (924,748 samples, 0.06%)</title><rect x="28.6" y="277" width="0.7" height="15.0" fill="rgb(210,25,6)" rx="2" ry="2" />
<text  x="31.56" y="287.5" ></text>
</g>
<g >
<title>amd_iommu_map_pages (924,748 samples, 0.06%)</title><rect x="28.6" y="37" width="0.7" height="15.0" fill="rgb(221,74,17)" rx="2" ry="2" />
<text  x="31.56" y="47.5" ></text>
</g>
<g >
<title>do_user_addr_fault (481,134 samples, 0.03%)</title><rect x="1177.4" y="389" width="0.4" height="15.0" fill="rgb(228,108,25)" rx="2" ry="2" />
<text  x="1180.39" y="399.5" ></text>
</g>
<g >
<title>all (1,468,713,899 samples, 100%)</title><rect x="10.0" y="469" width="1180.0" height="15.0" fill="rgb(213,39,9)" rx="2" ry="2" />
<text  x="13.00" y="479.5" ></text>
</g>
<g >
<title>__memset_avx2_unaligned (1,846,687 samples, 0.13%)</title><rect x="50.4" y="437" width="1.5" height="15.0" fill="rgb(222,82,19)" rx="2" ry="2" />
<text  x="53.45" y="447.5" ></text>
</g>
<g >
<title>do_fault (358,355 samples, 0.02%)</title><rect x="30.1" y="213" width="0.3" height="15.0" fill="rgb(248,200,47)" rx="2" ry="2" />
<text  x="33.12" y="223.5" ></text>
</g>
<g >
<title>w2c_decode__webp__wasm_GetCoeffsFast (546,066,938 samples, 37.18%)</title><rect x="64.1" y="437" width="438.8" height="15.0" fill="rgb(232,124,29)" rx="2" ry="2" />
<text  x="67.14" y="447.5" >w2c_decode__webp__wasm_GetCoeffsFast</text>
</g>
<g >
<title>do_syscall_64 (924,748 samples, 0.06%)</title><rect x="28.6" y="389" width="0.7" height="15.0" fill="rgb(209,20,4)" rx="2" ry="2" />
<text  x="31.56" y="399.5" ></text>
</g>
<g >
<title>asm_exc_page_fault (481,134 samples, 0.03%)</title><rect x="1177.4" y="421" width="0.4" height="15.0" fill="rgb(225,93,22)" rx="2" ry="2" />
<text  x="1180.39" y="431.5" ></text>
</g>
<g >
<title>ext4_release_file (924,748 samples, 0.06%)</title><rect x="28.6" y="309" width="0.7" height="15.0" fill="rgb(225,92,22)" rx="2" ry="2" />
<text  x="31.56" y="319.5" ></text>
</g>
<g >
<title>do_fault (408,621 samples, 0.03%)</title><rect x="53.4" y="341" width="0.3" height="15.0" fill="rgb(248,200,47)" rx="2" ry="2" />
<text  x="56.42" y="351.5" ></text>
</g>
<g >
<title>ext4_io_submit (924,748 samples, 0.06%)</title><rect x="28.6" y="229" width="0.7" height="15.0" fill="rgb(214,43,10)" rx="2" ry="2" />
<text  x="31.56" y="239.5" ></text>
</g>
<g >
<title>w2c_decode__webp__wasm_RD4_C (923,049 samples, 0.06%)</title><rect x="686.1" y="437" width="0.7" height="15.0" fill="rgb(225,92,22)" rx="2" ry="2" />
<text  x="689.08" y="447.5" ></text>
</g>
<g >
<title>w2c_decode__webp__wasm_UpsampleRgbLinePair_C (392,296,528 samples, 26.71%)</title><rect x="862.6" y="437" width="315.2" height="15.0" fill="rgb(241,168,40)" rx="2" ry="2" />
<text  x="865.59" y="447.5" >w2c_decode__webp__wasm_UpsampleRgbLinePair_C</text>
</g>
<g >
<title>folio_batch_move_lru (481,134 samples, 0.03%)</title><rect x="1177.4" y="325" width="0.4" height="15.0" fill="rgb(207,10,2)" rx="2" ry="2" />
<text  x="1180.39" y="335.5" ></text>
</g>
<g >
<title>mem_cgroup_charge_statistics (916,002 samples, 0.06%)</title><rect x="29.3" y="197" width="0.7" height="15.0" fill="rgb(232,126,30)" rx="2" ry="2" />
<text  x="32.30" y="207.5" ></text>
</g>
<g >
<title>dma_map_sgtable (924,748 samples, 0.06%)</title><rect x="28.6" y="117" width="0.7" height="15.0" fill="rgb(237,150,36)" rx="2" ry="2" />
<text  x="31.56" y="127.5" ></text>
</g>
<g >
<title>malloc (923,610 samples, 0.06%)</title><rect x="53.7" y="437" width="0.8" height="15.0" fill="rgb(230,119,28)" rx="2" ry="2" />
<text  x="56.75" y="447.5" ></text>
</g>
<g >
<title>w2c_decode__webp__wasm_SimpleVFilter16i_C (9,236,448 samples, 0.63%)</title><rect x="754.3" y="437" width="7.4" height="15.0" fill="rgb(222,79,19)" rx="2" ry="2" />
<text  x="757.31" y="447.5" ></text>
</g>
<g >
<title>w2c_decode__webp__wasm_ReconstructRow (62,745,801 samples, 4.27%)</title><rect x="686.8" y="437" width="50.4" height="15.0" fill="rgb(238,153,36)" rx="2" ry="2" />
<text  x="689.82" y="447.5" >w2c_d..</text>
</g>
<g >
<title>do_syscall_64 (916,002 samples, 0.06%)</title><rect x="29.3" y="389" width="0.7" height="15.0" fill="rgb(209,20,4)" rx="2" ry="2" />
<text  x="32.30" y="399.5" ></text>
</g>
<g >
<title>w2c_decode__webp__wasm_DC16_C (1,847,159 samples, 0.13%)</title><rect x="54.5" y="437" width="1.5" height="15.0" fill="rgb(242,173,41)" rx="2" ry="2" />
<text  x="57.49" y="447.5" ></text>
</g>
<g >
<title>padzero (358,355 samples, 0.02%)</title><rect x="30.1" y="325" width="0.3" height="15.0" fill="rgb(223,84,20)" rx="2" ry="2" />
<text  x="33.12" y="335.5" ></text>
</g>
<g >
<title>__mem_cgroup_charge (916,002 samples, 0.06%)</title><rect x="29.3" y="229" width="0.7" height="15.0" fill="rgb(218,60,14)" rx="2" ry="2" />
<text  x="32.30" y="239.5" ></text>
</g>
<g >
<title>w2c_decode__webp__wasm_TransformDC_C (4,620,153 samples, 0.31%)</title><rect x="23.4" y="341" width="3.7" height="15.0" fill="rgb(232,125,30)" rx="2" ry="2" />
<text  x="26.36" y="351.5" ></text>
</g>
<g >
<title>w2c_decode__webp__wasm_TM16_C (2,771,933 samples, 0.19%)</title><rect x="761.7" y="437" width="2.3" height="15.0" fill="rgb(224,90,21)" rx="2" ry="2" />
<text  x="764.73" y="447.5" ></text>
</g>
<g >
<title>task_work_run (924,748 samples, 0.06%)</title><rect x="28.6" y="341" width="0.7" height="15.0" fill="rgb(209,22,5)" rx="2" ry="2" />
<text  x="31.56" y="351.5" ></text>
</g>
<g >
<title>do_user_addr_fault (408,621 samples, 0.03%)</title><rect x="53.4" y="389" width="0.3" height="15.0" fill="rgb(228,108,25)" rx="2" ry="2" />
<text  x="56.42" y="399.5" ></text>
</g>
<g >
<title>exc_page_fault (408,621 samples, 0.03%)</title><rect x="53.4" y="405" width="0.3" height="15.0" fill="rgb(212,35,8)" rx="2" ry="2" />
<text  x="56.42" y="415.5" ></text>
</g>
<g >
<title>filemap_map_pages (408,621 samples, 0.03%)</title><rect x="53.4" y="325" width="0.3" height="15.0" fill="rgb(229,112,27)" rx="2" ry="2" />
<text  x="56.42" y="335.5" ></text>
</g>
<g >
<title>[unknown] (23,095,025 samples, 1.57%)</title><rect x="10.0" y="373" width="18.6" height="15.0" fill="rgb(210,24,5)" rx="2" ry="2" />
<text  x="13.00" y="383.5" ></text>
</g>
<g >
<title>__memmove_avx_unaligned_erms (923,890 samples, 0.06%)</title><rect x="49.7" y="437" width="0.7" height="15.0" fill="rgb(205,0,0)" rx="2" ry="2" />
<text  x="52.71" y="447.5" ></text>
</g>
<g >
<title>nvme_prep_rq.part.0 (924,748 samples, 0.06%)</title><rect x="28.6" y="133" width="0.7" height="15.0" fill="rgb(214,42,10)" rx="2" ry="2" />
<text  x="31.56" y="143.5" ></text>
</g>
<g >
<title>w2c_decode__webp__wasm_LD4_C (3,694,358 samples, 0.25%)</title><rect x="683.1" y="437" width="3.0" height="15.0" fill="rgb(213,41,9)" rx="2" ry="2" />
<text  x="686.11" y="447.5" ></text>
</g>
<g >
<title>w2c_decode__webp__wasm_GetCoeffsFast (10,162,369 samples, 0.69%)</title><rect x="30.4" y="421" width="8.2" height="15.0" fill="rgb(232,124,29)" rx="2" ry="2" />
<text  x="33.41" y="431.5" ></text>
</g>
<g >
<title>vfs_write (916,002 samples, 0.06%)</title><rect x="29.3" y="357" width="0.7" height="15.0" fill="rgb(250,209,50)" rx="2" ry="2" />
<text  x="32.30" y="367.5" ></text>
</g>
<g >
<title>__iommu_map_sg (924,748 samples, 0.06%)</title><rect x="28.6" y="69" width="0.7" height="15.0" fill="rgb(236,146,35)" rx="2" ry="2" />
<text  x="31.56" y="79.5" ></text>
</g>
<g >
<title>exc_page_fault (481,134 samples, 0.03%)</title><rect x="1177.4" y="405" width="0.4" height="15.0" fill="rgb(212,35,8)" rx="2" ry="2" />
<text  x="1180.39" y="415.5" ></text>
</g>
<g >
<title>load_elf_binary (470,517 samples, 0.03%)</title><rect x="30.0" y="341" width="0.4" height="15.0" fill="rgb(223,83,20)" rx="2" ry="2" />
<text  x="33.03" y="351.5" ></text>
</g>
<g >
<title>w2c_decode__webp__wasm_HE8uv_C (924,051 samples, 0.06%)</title><rect x="13.0" y="341" width="0.7" height="15.0" fill="rgb(239,158,37)" rx="2" ry="2" />
<text  x="15.97" y="351.5" ></text>
</g>
<g >
<title>__mod_zone_page_state (481,134 samples, 0.03%)</title><rect x="1177.4" y="293" width="0.4" height="15.0" fill="rgb(221,74,17)" rx="2" ry="2" />
<text  x="1180.39" y="303.5" ></text>
</g>
<g >
<title>syscall_exit_to_user_mode (924,748 samples, 0.06%)</title><rect x="28.6" y="373" width="0.7" height="15.0" fill="rgb(251,211,50)" rx="2" ry="2" />
<text  x="31.56" y="383.5" ></text>
</g>
<g >
<title>w2c_decode__webp__wasm_HU4_C (4,619,400 samples, 0.31%)</title><rect x="556.0" y="437" width="3.7" height="15.0" fill="rgb(229,114,27)" rx="2" ry="2" />
<text  x="559.01" y="447.5" ></text>
</g>
<g >
<title>w2c_decode__webp__wasm_VE4_C (3,693,422 samples, 0.25%)</title><rect x="1177.8" y="437" width="2.9" height="15.0" fill="rgb(242,174,41)" rx="2" ry="2" />
<text  x="1180.77" y="447.5" ></text>
</g>
<g >
<title>clear_user_rep_good (358,355 samples, 0.02%)</title><rect x="30.1" y="309" width="0.3" height="15.0" fill="rgb(224,89,21)" rx="2" ry="2" />
<text  x="33.12" y="319.5" ></text>
</g>
<g >
<title>exit_to_user_mode_prepare (924,748 samples, 0.06%)</title><rect x="28.6" y="357" width="0.7" height="15.0" fill="rgb(228,108,25)" rx="2" ry="2" />
<text  x="31.56" y="367.5" ></text>
</g>
<g >
<title>[unknown] (23,095,025 samples, 1.57%)</title><rect x="10.0" y="357" width="18.6" height="15.0" fill="rgb(210,24,5)" rx="2" ry="2" />
<text  x="13.00" y="367.5" ></text>
</g>
<g >
<title>w2c_decode__webp__wasm_ReconstructRow (2,771,613 samples, 0.19%)</title><rect x="18.2" y="341" width="2.2" height="15.0" fill="rgb(238,153,36)" rx="2" ry="2" />
<text  x="21.16" y="351.5" ></text>
</g>
<g >
<title>__filemap_fdatawrite_range (924,748 samples, 0.06%)</title><rect x="28.6" y="293" width="0.7" height="15.0" fill="rgb(233,129,30)" rx="2" ry="2" />
<text  x="31.56" y="303.5" ></text>
</g>
<g >
<title>ext4_buffered_write_iter (916,002 samples, 0.06%)</title><rect x="29.3" y="341" width="0.7" height="15.0" fill="rgb(213,40,9)" rx="2" ry="2" />
<text  x="32.30" y="351.5" ></text>
</g>
<g >
<title>nvme_queue_rqs (924,748 samples, 0.06%)</title><rect x="28.6" y="149" width="0.7" height="15.0" fill="rgb(250,211,50)" rx="2" ry="2" />
<text  x="31.56" y="159.5" ></text>
</g>
<g >
<title>w2c_decode__webp__wasm_TransformOne_C (1,847,476 samples, 0.13%)</title><rect x="46.7" y="421" width="1.5" height="15.0" fill="rgb(231,120,28)" rx="2" ry="2" />
<text  x="49.74" y="431.5" ></text>
</g>
<g >
<title>do_syscall_64 (470,517 samples, 0.03%)</title><rect x="30.0" y="405" width="0.4" height="15.0" fill="rgb(209,20,4)" rx="2" ry="2" />
<text  x="33.03" y="415.5" ></text>
</g>
<g >
<title>asm_exc_page_fault (358,355 samples, 0.02%)</title><rect x="30.1" y="293" width="0.3" height="15.0" fill="rgb(225,93,22)" rx="2" ry="2" />
<text  x="33.12" y="303.5" ></text>
</g>
<g >
<title>w2c_decode__webp__wasm_VP8GetValue (4,105,354 samples, 0.28%)</title><rect x="1183.0" y="437" width="3.3" height="15.0" fill="rgb(243,179,42)" rx="2" ry="2" />
<text  x="1185.97" y="447.5" ></text>
</g>
<g >
<title>w2c_decode__webp__wasm_HD4_C (923,842 samples, 0.06%)</title><rect x="553.0" y="437" width="0.8" height="15.0" fill="rgb(239,160,38)" rx="2" ry="2" />
<text  x="556.04" y="447.5" ></text>
</g>
<g >
<title>handle_mm_fault (358,355 samples, 0.02%)</title><rect x="30.1" y="245" width="0.3" height="15.0" fill="rgb(234,135,32)" rx="2" ry="2" />
<text  x="33.12" y="255.5" ></text>
</g>
<g >
<title>w2c_decode__webp__wasm_VR4_C (1,847,982 samples, 0.13%)</title><rect x="1188.5" y="437" width="1.5" height="15.0" fill="rgb(208,18,4)" rx="2" ry="2" />
<text  x="1191.49" y="447.5" ></text>
</g>
<g >
<title>w2c_decode__webp__wasm_TransformDC_C (16,625,109 samples, 1.13%)</title><rect x="775.1" y="437" width="13.3" height="15.0" fill="rgb(232,125,30)" rx="2" ry="2" />
<text  x="778.08" y="447.5" ></text>
</g>
<g >
<title>__iommu_map (924,748 samples, 0.06%)</title><rect x="28.6" y="53" width="0.7" height="15.0" fill="rgb(208,17,4)" rx="2" ry="2" />
<text  x="31.56" y="63.5" ></text>
</g>
<g >
<title>iommu_dma_map_sg (924,748 samples, 0.06%)</title><rect x="28.6" y="85" width="0.7" height="15.0" fill="rgb(223,86,20)" rx="2" ry="2" />
<text  x="31.56" y="95.5" ></text>
</g>
<g >
<title>__filemap_add_folio (916,002 samples, 0.06%)</title><rect x="29.3" y="245" width="0.7" height="15.0" fill="rgb(229,113,27)" rx="2" ry="2" />
<text  x="32.30" y="255.5" ></text>
</g>
<g >
<title>w2c_decode__webp__wasm_DC8uv_C (923,084 samples, 0.06%)</title><rect x="10.7" y="341" width="0.8" height="15.0" fill="rgb(228,106,25)" rx="2" ry="2" />
<text  x="13.74" y="351.5" ></text>
</g>
<g >
<title>ext4_writepages (924,748 samples, 0.06%)</title><rect x="28.6" y="245" width="0.7" height="15.0" fill="rgb(240,165,39)" rx="2" ry="2" />
<text  x="31.56" y="255.5" ></text>
</g>
<g >
<title>__fput (924,748 samples, 0.06%)</title><rect x="28.6" y="325" width="0.7" height="15.0" fill="rgb(248,200,47)" rx="2" ry="2" />
<text  x="31.56" y="335.5" ></text>
</g>
<g >
<title>w2c_decode__webp__wasm_TransformTwo_C (922,668 samples, 0.06%)</title><rect x="861.9" y="437" width="0.7" height="15.0" fill="rgb(226,96,23)" rx="2" ry="2" />
<text  x="864.85" y="447.5" ></text>
</g>
<g >
<title>w2c_decode__webp__wasm_VP8ParseProba (2,770,636 samples, 0.19%)</title><rect x="1186.3" y="437" width="2.2" height="15.0" fill="rgb(237,149,35)" rx="2" ry="2" />
<text  x="1189.27" y="447.5" ></text>
</g>
<g >
<title>entry_SYSCALL_64_after_hwframe (924,748 samples, 0.06%)</title><rect x="28.6" y="405" width="0.7" height="15.0" fill="rgb(218,63,15)" rx="2" ry="2" />
<text  x="31.56" y="415.5" ></text>
</g>
<g >
<title>lru_add_fn (481,134 samples, 0.03%)</title><rect x="1177.4" y="309" width="0.4" height="15.0" fill="rgb(208,14,3)" rx="2" ry="2" />
<text  x="1180.39" y="319.5" ></text>
</g>
<g >
<title>__libc_write (916,002 samples, 0.06%)</title><rect x="29.3" y="421" width="0.7" height="15.0" fill="rgb(238,154,37)" rx="2" ry="2" />
<text  x="32.30" y="431.5" ></text>
</g>
<g >
<title>ext4_da_write_begin (916,002 samples, 0.06%)</title><rect x="29.3" y="309" width="0.7" height="15.0" fill="rgb(211,32,7)" rx="2" ry="2" />
<text  x="32.30" y="319.5" ></text>
</g>
<g >
<title>exc_page_fault (358,355 samples, 0.02%)</title><rect x="30.1" y="277" width="0.3" height="15.0" fill="rgb(212,35,8)" rx="2" ry="2" />
<text  x="33.12" y="287.5" ></text>
</g>
<g >
<title>w2c_decode__webp__wasm_SimpleHFilter16_C (4,619,044 samples, 0.31%)</title><rect x="737.2" y="437" width="3.7" height="15.0" fill="rgb(241,165,39)" rx="2" ry="2" />
<text  x="740.24" y="447.5" ></text>
</g>
<g >
<title>folio_add_lru (481,134 samples, 0.03%)</title><rect x="1177.4" y="341" width="0.4" height="15.0" fill="rgb(208,17,4)" rx="2" ry="2" />
<text  x="1180.39" y="351.5" ></text>
</g>
<g >
<title>w2c_decode__webp__wasm_DC4_C (7,391,652 samples, 0.50%)</title><rect x="56.0" y="437" width="5.9" height="15.0" fill="rgb(222,78,18)" rx="2" ry="2" />
<text  x="58.97" y="447.5" ></text>
</g>
<g >
<title>[unknown] (23,095,025 samples, 1.57%)</title><rect x="10.0" y="421" width="18.6" height="15.0" fill="rgb(210,24,5)" rx="2" ry="2" />
<text  x="13.00" y="431.5" ></text>
</g>
<g >
<title>blk_mq_submit_bio (924,748 samples, 0.06%)</title><rect x="28.6" y="197" width="0.7" height="15.0" fill="rgb(224,89,21)" rx="2" ry="2" />
<text  x="31.56" y="207.5" ></text>
</g>
<g >
<title>[unknown] (49,423,010 samples, 3.37%)</title><rect x="10.0" y="437" width="39.7" height="15.0" fill="rgb(210,24,5)" rx="2" ry="2" />
<text  x="13.00" y="447.5" >[un..</text>
</g>
<g >
<title>w2c_decode__webp__wasm_DC8uv_C (2,770,882 samples, 0.19%)</title><rect x="61.9" y="437" width="2.2" height="15.0" fill="rgb(228,106,25)" rx="2" ry="2" />
<text  x="64.91" y="447.5" ></text>
</g>
<g >
<title>__dma_map_sg_attrs (924,748 samples, 0.06%)</title><rect x="28.6" y="101" width="0.7" height="15.0" fill="rgb(251,212,50)" rx="2" ry="2" />
<text  x="31.56" y="111.5" ></text>
</g>
<g >
<title>finish_fault (358,355 samples, 0.02%)</title><rect x="30.1" y="197" width="0.3" height="15.0" fill="rgb(220,72,17)" rx="2" ry="2" />
<text  x="33.12" y="207.5" ></text>
</g>
<g >
<title>handle_mm_fault (408,621 samples, 0.03%)</title><rect x="53.4" y="373" width="0.3" height="15.0" fill="rgb(234,135,32)" rx="2" ry="2" />
<text  x="56.42" y="383.5" ></text>
</g>
<g >
<title>entry_SYSCALL_64_after_hwframe (916,002 samples, 0.06%)</title><rect x="29.3" y="405" width="0.7" height="15.0" fill="rgb(218,63,15)" rx="2" ry="2" />
<text  x="32.30" y="415.5" ></text>
</g>
<g >
<title>[unknown] (23,095,025 samples, 1.57%)</title><rect x="10.0" y="389" width="18.6" height="15.0" fill="rgb(210,24,5)" rx="2" ry="2" />
<text  x="13.00" y="399.5" ></text>
</g>
<g >
<title>bprm_execve (470,517 samples, 0.03%)</title><rect x="30.0" y="357" width="0.4" height="15.0" fill="rgb(218,61,14)" rx="2" ry="2" />
<text  x="33.03" y="367.5" ></text>
</g>
<g >
<title>w2c_decode__webp__wasm_HE8uv_C (1,846,979 samples, 0.13%)</title><rect x="554.5" y="437" width="1.5" height="15.0" fill="rgb(239,158,37)" rx="2" ry="2" />
<text  x="557.52" y="447.5" ></text>
</g>
<g >
<title>handle_mm_fault (481,134 samples, 0.03%)</title><rect x="1177.4" y="373" width="0.4" height="15.0" fill="rgb(234,135,32)" rx="2" ry="2" />
<text  x="1180.39" y="383.5" ></text>
</g>
<g >
<title>w2c_decode__webp__wasm_TransformAC3_C (11,080,482 samples, 0.75%)</title><rect x="766.2" y="437" width="8.9" height="15.0" fill="rgb(222,79,19)" rx="2" ry="2" />
<text  x="769.18" y="447.5" ></text>
</g>
</g>
</svg>
