<?xml version="1.0" standalone="no"?>
<!DOCTYPE svg PUBLIC "-//W3C//DTD SVG 1.1//EN" "http://www.w3.org/Graphics/SVG/1.1/DTD/svg11.dtd">
<svg version="1.1" width="1200" height="358" onload="init(evt)" viewBox="0 0 1200 358" xmlns="http://www.w3.org/2000/svg" xmlns:xlink="http://www.w3.org/1999/xlink">
<!-- Flame graph stack visualization. See https://github.com/brendangregg/FlameGraph for latest version, and http://www.brendangregg.com/flamegraphs.html for examples. -->
<!-- NOTES:  -->
<defs>
	<linearGradient id="background" y1="0" y2="1" x1="0" x2="0" >
		<stop stop-color="#eeeeee" offset="5%" />
		<stop stop-color="#eeeeb0" offset="95%" />
	</linearGradient>
</defs>
<style type="text/css">
	text { font-family:Verdana; font-size:12px; fill:rgb(0,0,0); }
	#search, #ignorecase { opacity:0.1; cursor:pointer; }
	#search:hover, #search.show, #ignorecase:hover, #ignorecase.show { opacity:1; }
	#subtitle { text-anchor:middle; font-color:rgb(160,160,160); }
	#title { text-anchor:middle; font-size:17px}
	#unzoom { cursor:pointer; }
	#frames > *:hover { stroke:black; stroke-width:0.5; cursor:pointer; }
	.hide { display:none; }
	.parent { opacity:0.5; }
</style>
<script type="text/ecmascript">
<![CDATA[
	"use strict";
	var details, searchbtn, unzoombtn, matchedtxt, svg, searching, currentSearchTerm, ignorecase, ignorecaseBtn;
	function init(evt) {
		details = document.getElementById("details").firstChild;
		searchbtn = document.getElementById("search");
		ignorecaseBtn = document.getElementById("ignorecase");
		unzoombtn = document.getElementById("unzoom");
		matchedtxt = document.getElementById("matched");
		svg = document.getElementsByTagName("svg")[0];
		searching = 0;
		currentSearchTerm = null;

		// use GET parameters to restore a flamegraphs state.
		var params = get_params();
		if (params.x && params.y)
			zoom(find_group(document.querySelector('[x="' + params.x + '"][y="' + params.y + '"]')));
                if (params.s) search(params.s);
	}

	// event listeners
	window.addEventListener("click", function(e) {
		var target = find_group(e.target);
		if (target) {
			if (target.nodeName == "a") {
				if (e.ctrlKey === false) return;
				e.preventDefault();
			}
			if (target.classList.contains("parent")) unzoom(true);
			zoom(target);
			if (!document.querySelector('.parent')) {
				// we have basically done a clearzoom so clear the url
				var params = get_params();
				if (params.x) delete params.x;
				if (params.y) delete params.y;
				history.replaceState(null, null, parse_params(params));
				unzoombtn.classList.add("hide");
				return;
			}

			// set parameters for zoom state
			var el = target.querySelector("rect");
			if (el && el.attributes && el.attributes.y && el.attributes._orig_x) {
				var params = get_params()
				params.x = el.attributes._orig_x.value;
				params.y = el.attributes.y.value;
				history.replaceState(null, null, parse_params(params));
			}
		}
		else if (e.target.id == "unzoom") clearzoom();
		else if (e.target.id == "search") search_prompt();
		else if (e.target.id == "ignorecase") toggle_ignorecase();
	}, false)

	// mouse-over for info
	// show
	window.addEventListener("mouseover", function(e) {
		var target = find_group(e.target);
		if (target) details.nodeValue = "Function: " + g_to_text(target);
	}, false)

	// clear
	window.addEventListener("mouseout", function(e) {
		var target = find_group(e.target);
		if (target) details.nodeValue = ' ';
	}, false)

	// ctrl-F for search
	// ctrl-I to toggle case-sensitive search
	window.addEventListener("keydown",function (e) {
		if (e.keyCode === 114 || (e.ctrlKey && e.keyCode === 70)) {
			e.preventDefault();
			search_prompt();
		}
		else if (e.ctrlKey && e.keyCode === 73) {
			e.preventDefault();
			toggle_ignorecase();
		}
	}, false)

	// functions
	function get_params() {
		var params = {};
		var paramsarr = window.location.search.substr(1).split('&');
		for (var i = 0; i < paramsarr.length; ++i) {
			var tmp = paramsarr[i].split("=");
			if (!tmp[0] || !tmp[1]) continue;
			params[tmp[0]]  = decodeURIComponent(tmp[1]);
		}
		return params;
	}
	function parse_params(params) {
		var uri = "?";
		for (var key in params) {
			uri += key + '=' + encodeURIComponent(params[key]) + '&';
		}
		if (uri.slice(-1) == "&")
			uri = uri.substring(0, uri.length - 1);
		if (uri == '?')
			uri = window.location.href.split('?')[0];
		return uri;
	}
	function find_child(node, selector) {
		var children = node.querySelectorAll(selector);
		if (children.length) return children[0];
	}
	function find_group(node) {
		var parent = node.parentElement;
		if (!parent) return;
		if (parent.id == "frames") return node;
		return find_group(parent);
	}
	function orig_save(e, attr, val) {
		if (e.attributes["_orig_" + attr] != undefined) return;
		if (e.attributes[attr] == undefined) return;
		if (val == undefined) val = e.attributes[attr].value;
		e.setAttribute("_orig_" + attr, val);
	}
	function orig_load(e, attr) {
		if (e.attributes["_orig_"+attr] == undefined) return;
		e.attributes[attr].value = e.attributes["_orig_" + attr].value;
		e.removeAttribute("_orig_"+attr);
	}
	function g_to_text(e) {
		var text = find_child(e, "title").firstChild.nodeValue;
		return (text)
	}
	function g_to_func(e) {
		var func = g_to_text(e);
		// if there's any manipulation we want to do to the function
		// name before it's searched, do it here before returning.
		return (func);
	}
	function update_text(e) {
		var r = find_child(e, "rect");
		var t = find_child(e, "text");
		var w = parseFloat(r.attributes.width.value) -3;
		var txt = find_child(e, "title").textContent.replace(/\([^(]*\)$/,"");
		t.attributes.x.value = parseFloat(r.attributes.x.value) + 3;

		// Smaller than this size won't fit anything
		if (w < 2 * 12 * 0.59) {
			t.textContent = "";
			return;
		}

		t.textContent = txt;
		var sl = t.getSubStringLength(0, txt.length);
		// check if only whitespace or if we can fit the entire string into width w
		if (/^ *$/.test(txt) || sl < w)
			return;

		// this isn't perfect, but gives a good starting point
		// and avoids calling getSubStringLength too often
		var start = Math.floor((w/sl) * txt.length);
		for (var x = start; x > 0; x = x-2) {
			if (t.getSubStringLength(0, x + 2) <= w) {
				t.textContent = txt.substring(0, x) + "..";
				return;
			}
		}
		t.textContent = "";
	}

	// zoom
	function zoom_reset(e) {
		if (e.attributes != undefined) {
			orig_load(e, "x");
			orig_load(e, "width");
		}
		if (e.childNodes == undefined) return;
		for (var i = 0, c = e.childNodes; i < c.length; i++) {
			zoom_reset(c[i]);
		}
	}
	function zoom_child(e, x, ratio) {
		if (e.attributes != undefined) {
			if (e.attributes.x != undefined) {
				orig_save(e, "x");
				e.attributes.x.value = (parseFloat(e.attributes.x.value) - x - 10) * ratio + 10;
				if (e.tagName == "text")
					e.attributes.x.value = find_child(e.parentNode, "rect[x]").attributes.x.value + 3;
			}
			if (e.attributes.width != undefined) {
				orig_save(e, "width");
				e.attributes.width.value = parseFloat(e.attributes.width.value) * ratio;
			}
		}

		if (e.childNodes == undefined) return;
		for (var i = 0, c = e.childNodes; i < c.length; i++) {
			zoom_child(c[i], x - 10, ratio);
		}
	}
	function zoom_parent(e) {
		if (e.attributes) {
			if (e.attributes.x != undefined) {
				orig_save(e, "x");
				e.attributes.x.value = 10;
			}
			if (e.attributes.width != undefined) {
				orig_save(e, "width");
				e.attributes.width.value = parseInt(svg.width.baseVal.value) - (10 * 2);
			}
		}
		if (e.childNodes == undefined) return;
		for (var i = 0, c = e.childNodes; i < c.length; i++) {
			zoom_parent(c[i]);
		}
	}
	function zoom(node) {
		var attr = find_child(node, "rect").attributes;
		var width = parseFloat(attr.width.value);
		var xmin = parseFloat(attr.x.value);
		var xmax = parseFloat(xmin + width);
		var ymin = parseFloat(attr.y.value);
		var ratio = (svg.width.baseVal.value - 2 * 10) / width;

		// XXX: Workaround for JavaScript float issues (fix me)
		var fudge = 0.0001;

		unzoombtn.classList.remove("hide");

		var el = document.getElementById("frames").children;
		for (var i = 0; i < el.length; i++) {
			var e = el[i];
			var a = find_child(e, "rect").attributes;
			var ex = parseFloat(a.x.value);
			var ew = parseFloat(a.width.value);
			var upstack;
			// Is it an ancestor
			if (0 == 0) {
				upstack = parseFloat(a.y.value) > ymin;
			} else {
				upstack = parseFloat(a.y.value) < ymin;
			}
			if (upstack) {
				// Direct ancestor
				if (ex <= xmin && (ex+ew+fudge) >= xmax) {
					e.classList.add("parent");
					zoom_parent(e);
					update_text(e);
				}
				// not in current path
				else
					e.classList.add("hide");
			}
			// Children maybe
			else {
				// no common path
				if (ex < xmin || ex + fudge >= xmax) {
					e.classList.add("hide");
				}
				else {
					zoom_child(e, xmin, ratio);
					update_text(e);
				}
			}
		}
		search();
	}
	function unzoom(dont_update_text) {
		unzoombtn.classList.add("hide");
		var el = document.getElementById("frames").children;
		for(var i = 0; i < el.length; i++) {
			el[i].classList.remove("parent");
			el[i].classList.remove("hide");
			zoom_reset(el[i]);
			if(!dont_update_text) update_text(el[i]);
		}
		search();
	}
	function clearzoom() {
		unzoom();

		// remove zoom state
		var params = get_params();
		if (params.x) delete params.x;
		if (params.y) delete params.y;
		history.replaceState(null, null, parse_params(params));
	}

	// search
	function toggle_ignorecase() {
		ignorecase = !ignorecase;
		if (ignorecase) {
			ignorecaseBtn.classList.add("show");
		} else {
			ignorecaseBtn.classList.remove("show");
		}
		reset_search();
		search();
	}
	function reset_search() {
		var el = document.querySelectorAll("#frames rect");
		for (var i = 0; i < el.length; i++) {
			orig_load(el[i], "fill")
		}
		var params = get_params();
		delete params.s;
		history.replaceState(null, null, parse_params(params));
	}
	function search_prompt() {
		if (!searching) {
			var term = prompt("Enter a search term (regexp " +
			    "allowed, eg: ^ext4_)"
			    + (ignorecase ? ", ignoring case" : "")
			    + "\nPress Ctrl-i to toggle case sensitivity", "");
			if (term != null) search(term);
		} else {
			reset_search();
			searching = 0;
			currentSearchTerm = null;
			searchbtn.classList.remove("show");
			searchbtn.firstChild.nodeValue = "Search"
			matchedtxt.classList.add("hide");
			matchedtxt.firstChild.nodeValue = ""
		}
	}
	function search(term) {
		if (term) currentSearchTerm = term;

		var re = new RegExp(currentSearchTerm, ignorecase ? 'i' : '');
		var el = document.getElementById("frames").children;
		var matches = new Object();
		var maxwidth = 0;
		for (var i = 0; i < el.length; i++) {
			var e = el[i];
			var func = g_to_func(e);
			var rect = find_child(e, "rect");
			if (func == null || rect == null)
				continue;

			// Save max width. Only works as we have a root frame
			var w = parseFloat(rect.attributes.width.value);
			if (w > maxwidth)
				maxwidth = w;

			if (func.match(re)) {
				// highlight
				var x = parseFloat(rect.attributes.x.value);
				orig_save(rect, "fill");
				rect.attributes.fill.value = "rgb(230,0,230)";

				// remember matches
				if (matches[x] == undefined) {
					matches[x] = w;
				} else {
					if (w > matches[x]) {
						// overwrite with parent
						matches[x] = w;
					}
				}
				searching = 1;
			}
		}
		if (!searching)
			return;
		var params = get_params();
		params.s = currentSearchTerm;
		history.replaceState(null, null, parse_params(params));

		searchbtn.classList.add("show");
		searchbtn.firstChild.nodeValue = "Reset Search";

		// calculate percent matched, excluding vertical overlap
		var count = 0;
		var lastx = -1;
		var lastw = 0;
		var keys = Array();
		for (k in matches) {
			if (matches.hasOwnProperty(k))
				keys.push(k);
		}
		// sort the matched frames by their x location
		// ascending, then width descending
		keys.sort(function(a, b){
			return a - b;
		});
		// Step through frames saving only the biggest bottom-up frames
		// thanks to the sort order. This relies on the tree property
		// where children are always smaller than their parents.
		var fudge = 0.0001;	// JavaScript floating point
		for (var k in keys) {
			var x = parseFloat(keys[k]);
			var w = matches[keys[k]];
			if (x >= lastx + lastw - fudge) {
				count += w;
				lastx = x;
				lastw = w;
			}
		}
		// display matched percent
		matchedtxt.classList.remove("hide");
		var pct = 100 * count / maxwidth;
		if (pct != 100) pct = pct.toFixed(1)
		matchedtxt.firstChild.nodeValue = "Matched: " + pct + "%";
	}
]]>
</script>
<rect x="0.0" y="0" width="1200.0" height="358.0" fill="url(#background)"  />
<text id="title" x="600.00" y="24" >Flame Graph</text>
<text id="details" x="10.00" y="341" > </text>
<text id="unzoom" x="10.00" y="24" class="hide">Reset Zoom</text>
<text id="search" x="1090.00" y="24" >Search</text>
<text id="ignorecase" x="1174.00" y="24" >ic</text>
<text id="matched" x="1090.00" y="341" > </text>
<g id="frames">
<g >
<title>w2c_decode__webp__wasmsimd_HE4_C (2,772,595 samples, 0.27%)</title><rect x="33.2" y="181" width="3.2" height="15.0" fill="rgb(212,32,7)" rx="2" ry="2" />
<text  x="36.22" y="191.5" ></text>
</g>
<g >
<title>w2c_decode__webp__wasmsimd_dlmalloc (459,939 samples, 0.05%)</title><rect x="1187.3" y="277" width="0.5" height="15.0" fill="rgb(229,110,26)" rx="2" ry="2" />
<text  x="1190.28" y="287.5" ></text>
</g>
<g >
<title>mem_cgroup_wb_stats (924,012 samples, 0.09%)</title><rect x="114.1" y="117" width="1.1" height="15.0" fill="rgb(211,28,6)" rx="2" ry="2" />
<text  x="117.11" y="127.5" ></text>
</g>
<g >
<title>mem_cgroup_css_rstat_flush (924,012 samples, 0.09%)</title><rect x="114.1" y="53" width="1.1" height="15.0" fill="rgb(253,222,53)" rx="2" ry="2" />
<text  x="117.11" y="63.5" ></text>
</g>
<g >
<title>[unknown] (89,102,463 samples, 8.78%)</title><rect x="10.0" y="229" width="103.6" height="15.0" fill="rgb(210,24,5)" rx="2" ry="2" />
<text  x="13.00" y="239.5" >[unknown]</text>
</g>
<g >
<title>__rcu_read_unlock (457,953 samples, 0.05%)</title><rect x="113.6" y="85" width="0.5" height="15.0" fill="rgb(253,224,53)" rx="2" ry="2" />
<text  x="116.58" y="95.5" ></text>
</g>
<g >
<title>w2c_decode__webp__wasmsimd_LD4_SSE2 (924,101 samples, 0.09%)</title><rect x="44.5" y="181" width="1.1" height="15.0" fill="rgb(234,135,32)" rx="2" ry="2" />
<text  x="47.53" y="191.5" ></text>
</g>
<g >
<title>w2c_decode__webp__wasmsimd_Transform_SSE2 (3,695,101 samples, 0.36%)</title><rect x="106.1" y="181" width="4.3" height="15.0" fill="rgb(224,91,21)" rx="2" ry="2" />
<text  x="109.06" y="191.5" ></text>
</g>
<g >
<title>[unknown] (89,102,463 samples, 8.78%)</title><rect x="10.0" y="213" width="103.6" height="15.0" fill="rgb(210,24,5)" rx="2" ry="2" />
<text  x="13.00" y="223.5" >[unknown]</text>
</g>
<g >
<title>w2c_decode__webp__wasmsimd_GetCoeffsAlt (524,556,468 samples, 51.68%)</title><rect x="215.7" y="277" width="609.8" height="15.0" fill="rgb(214,45,10)" rx="2" ry="2" />
<text  x="218.74" y="287.5" >w2c_decode__webp__wasmsimd_GetCoeffsAlt</text>
</g>
<g >
<title>w2c_decode__webp__wasmsimd_TM4_SSE2 (919,729 samples, 0.09%)</title><rect x="86.8" y="181" width="1.0" height="15.0" fill="rgb(224,90,21)" rx="2" ry="2" />
<text  x="89.76" y="191.5" ></text>
</g>
<g >
<title>w2c_decode__webp__wasmsimd_TransformDC_C (6,452,802 samples, 0.64%)</title><rect x="96.4" y="181" width="7.5" height="15.0" fill="rgb(211,27,6)" rx="2" ry="2" />
<text  x="99.41" y="191.5" ></text>
</g>
<g >
<title>w2c_decode__webp__wasmsimd_HU4_C (1,420,957 samples, 0.14%)</title><rect x="38.6" y="181" width="1.6" height="15.0" fill="rgb(208,17,4)" rx="2" ry="2" />
<text  x="41.59" y="191.5" ></text>
</g>
<g >
<title>clear_page_rep (924,103 samples, 0.09%)</title><rect x="116.3" y="101" width="1.0" height="15.0" fill="rgb(253,221,52)" rx="2" ry="2" />
<text  x="119.26" y="111.5" ></text>
</g>
<g >
<title>bprm_execve (481,360 samples, 0.05%)</title><rect x="117.3" y="197" width="0.6" height="15.0" fill="rgb(218,61,14)" rx="2" ry="2" />
<text  x="120.33" y="207.5" ></text>
</g>
<g >
<title>__memmove_avx_unaligned_erms (924,103 samples, 0.09%)</title><rect x="116.3" y="261" width="1.0" height="15.0" fill="rgb(205,0,0)" rx="2" ry="2" />
<text  x="119.26" y="271.5" ></text>
</g>
<g >
<title>do_syscall_64 (481,360 samples, 0.05%)</title><rect x="117.3" y="245" width="0.6" height="15.0" fill="rgb(209,20,4)" rx="2" ry="2" />
<text  x="120.33" y="255.5" ></text>
</g>
<g >
<title>w2c_decode__webp__wasmsimd_TransformDCUV_C (6,467,561 samples, 0.64%)</title><rect x="88.9" y="181" width="7.5" height="15.0" fill="rgb(206,6,1)" rx="2" ry="2" />
<text  x="91.89" y="191.5" ></text>
</g>
<g >
<title>balance_dirty_pages (924,012 samples, 0.09%)</title><rect x="114.1" y="133" width="1.1" height="15.0" fill="rgb(247,193,46)" rx="2" ry="2" />
<text  x="117.11" y="143.5" ></text>
</g>
<g >
<title>w2c_decode__webp__wasmsimd_ReconstructRow (3,694,432 samples, 0.36%)</title><rect x="129.7" y="261" width="4.3" height="15.0" fill="rgb(217,55,13)" rx="2" ry="2" />
<text  x="132.70" y="271.5" ></text>
</g>
<g >
<title>__folio_alloc (924,103 samples, 0.09%)</title><rect x="116.3" y="149" width="1.0" height="15.0" fill="rgb(224,91,21)" rx="2" ry="2" />
<text  x="119.26" y="159.5" ></text>
</g>
<g >
<title>[unknown] (162,223,063 samples, 15.98%)</title><rect x="10.0" y="277" width="188.6" height="15.0" fill="rgb(210,24,5)" rx="2" ry="2" />
<text  x="13.00" y="287.5" >[unknown]</text>
</g>
<g >
<title>w2c_decode__webp__wasmsimd_ReconstructRow (31,743,455 samples, 3.13%)</title><rect x="49.9" y="181" width="36.9" height="15.0" fill="rgb(217,55,13)" rx="2" ry="2" />
<text  x="52.86" y="191.5" >w2c..</text>
</g>
<g >
<title>__memmove_avx_unaligned_erms (924,724 samples, 0.09%)</title><rect x="199.7" y="277" width="1.0" height="15.0" fill="rgb(205,0,0)" rx="2" ry="2" />
<text  x="202.65" y="287.5" ></text>
</g>
<g >
<title>w2c_decode__webp__wasmsimd_HD4_C (4,266,620 samples, 0.42%)</title><rect x="28.3" y="181" width="4.9" height="15.0" fill="rgb(218,62,14)" rx="2" ry="2" />
<text  x="31.26" y="191.5" ></text>
</g>
<g >
<title>w2c_decode__webp__wasmsimd_TransformAC3_C (5,946,443 samples, 0.59%)</title><rect x="1083.5" y="277" width="6.9" height="15.0" fill="rgb(251,211,50)" rx="2" ry="2" />
<text  x="1086.52" y="287.5" ></text>
</g>
<g >
<title>asm_exc_page_fault (924,103 samples, 0.09%)</title><rect x="116.3" y="245" width="1.0" height="15.0" fill="rgb(225,93,22)" rx="2" ry="2" />
<text  x="119.26" y="255.5" ></text>
</g>
<g >
<title>ext4_da_write_begin (924,026 samples, 0.09%)</title><rect x="115.2" y="149" width="1.1" height="15.0" fill="rgb(211,32,7)" rx="2" ry="2" />
<text  x="118.19" y="159.5" ></text>
</g>
<g >
<title>__memmove_avx_unaligned (923,838 samples, 0.09%)</title><rect x="198.6" y="277" width="1.1" height="15.0" fill="rgb(254,228,54)" rx="2" ry="2" />
<text  x="201.58" y="287.5" ></text>
</g>
<g >
<title>vfs_write (1,848,038 samples, 0.18%)</title><rect x="114.1" y="197" width="2.2" height="15.0" fill="rgb(250,209,50)" rx="2" ry="2" />
<text  x="117.11" y="207.5" ></text>
</g>
<g >
<title>exc_page_fault (361,965 samples, 0.04%)</title><rect x="117.5" y="117" width="0.4" height="15.0" fill="rgb(212,35,8)" rx="2" ry="2" />
<text  x="120.47" y="127.5" ></text>
</g>
<g >
<title>get_page_from_freelist (924,103 samples, 0.09%)</title><rect x="116.3" y="117" width="1.0" height="15.0" fill="rgb(252,218,52)" rx="2" ry="2" />
<text  x="119.26" y="127.5" ></text>
</g>
<g >
<title>__filemap_get_folio (924,026 samples, 0.09%)</title><rect x="115.2" y="117" width="1.1" height="15.0" fill="rgb(231,120,28)" rx="2" ry="2" />
<text  x="118.19" y="127.5" ></text>
</g>
<g >
<title>w2c_decode__webp__wasmsimd_IDecode (3,693,049 samples, 0.36%)</title><rect x="40.2" y="181" width="4.3" height="15.0" fill="rgb(237,147,35)" rx="2" ry="2" />
<text  x="43.24" y="191.5" ></text>
</g>
<g >
<title>filemap_map_pages (457,953 samples, 0.05%)</title><rect x="113.6" y="133" width="0.5" height="15.0" fill="rgb(229,112,27)" rx="2" ry="2" />
<text  x="116.58" y="143.5" ></text>
</g>
<g >
<title>generic_perform_write (1,848,038 samples, 0.18%)</title><rect x="114.1" y="165" width="2.2" height="15.0" fill="rgb(236,146,35)" rx="2" ry="2" />
<text  x="117.11" y="175.5" ></text>
</g>
<g >
<title>__alloc_pages (924,103 samples, 0.09%)</title><rect x="116.3" y="133" width="1.0" height="15.0" fill="rgb(233,129,30)" rx="2" ry="2" />
<text  x="119.26" y="143.5" ></text>
</g>
<g >
<title>w2c_decode__webp__wasmsimd_GetLargeValue (60,701,793 samples, 5.98%)</title><rect x="825.5" y="277" width="70.6" height="15.0" fill="rgb(234,137,32)" rx="2" ry="2" />
<text  x="828.53" y="287.5" >w2c_dec..</text>
</g>
<g >
<title>pagecache_get_page (924,026 samples, 0.09%)</title><rect x="115.2" y="133" width="1.1" height="15.0" fill="rgb(253,221,53)" rx="2" ry="2" />
<text  x="118.19" y="143.5" ></text>
</g>
<g >
<title>do_user_addr_fault (924,103 samples, 0.09%)</title><rect x="116.3" y="213" width="1.0" height="15.0" fill="rgb(228,108,25)" rx="2" ry="2" />
<text  x="119.26" y="223.5" ></text>
</g>
<g >
<title>w2c_decode__webp__wasmsimd_VP8GetValue (1,847,500 samples, 0.18%)</title><rect x="1116.9" y="277" width="2.2" height="15.0" fill="rgb(222,81,19)" rx="2" ry="2" />
<text  x="1119.92" y="287.5" ></text>
</g>
<g >
<title>__mem_cgroup_flush_stats (924,012 samples, 0.09%)</title><rect x="114.1" y="101" width="1.1" height="15.0" fill="rgb(208,16,3)" rx="2" ry="2" />
<text  x="117.11" y="111.5" ></text>
</g>
<g >
<title>w2c_decode__webp__wasmsimd_GetCoeffsAlt (4,617,538 samples, 0.45%)</title><rect x="117.9" y="261" width="5.4" height="15.0" fill="rgb(214,45,10)" rx="2" ry="2" />
<text  x="120.89" y="271.5" ></text>
</g>
<g >
<title>[unknown] (89,560,416 samples, 8.82%)</title><rect x="10.0" y="261" width="104.1" height="15.0" fill="rgb(210,24,5)" rx="2" ry="2" />
<text  x="13.00" y="271.5" >[unknown]</text>
</g>
<g >
<title>do_syscall_64 (1,848,038 samples, 0.18%)</title><rect x="114.1" y="229" width="2.2" height="15.0" fill="rgb(209,20,4)" rx="2" ry="2" />
<text  x="117.11" y="239.5" ></text>
</g>
<g >
<title>w2c_decode__webp__wasmsimd_HE8uv_C (1,847,993 samples, 0.18%)</title><rect x="36.4" y="181" width="2.2" height="15.0" fill="rgb(218,60,14)" rx="2" ry="2" />
<text  x="39.44" y="191.5" ></text>
</g>
<g >
<title>load_elf_binary (481,360 samples, 0.05%)</title><rect x="117.3" y="181" width="0.6" height="15.0" fill="rgb(223,83,20)" rx="2" ry="2" />
<text  x="120.33" y="191.5" ></text>
</g>
<g >
<title>w2c_decode__webp__wasmsimd_GetCoeffsAlt (7,389,530 samples, 0.73%)</title><rect x="19.7" y="181" width="8.6" height="15.0" fill="rgb(214,45,10)" rx="2" ry="2" />
<text  x="22.67" y="191.5" ></text>
</g>
<g >
<title>padzero (361,965 samples, 0.04%)</title><rect x="117.5" y="165" width="0.4" height="15.0" fill="rgb(223,84,20)" rx="2" ry="2" />
<text  x="120.47" y="175.5" ></text>
</g>
<g >
<title>w2c_decode__webp__wasmsimd_TransformWHT_C (924,141 samples, 0.09%)</title><rect x="1090.4" y="277" width="1.1" height="15.0" fill="rgb(213,38,9)" rx="2" ry="2" />
<text  x="1093.43" y="287.5" ></text>
</g>
<g >
<title>ext4_buffered_write_iter (1,848,038 samples, 0.18%)</title><rect x="114.1" y="181" width="2.2" height="15.0" fill="rgb(213,40,9)" rx="2" ry="2" />
<text  x="117.11" y="191.5" ></text>
</g>
<g >
<title>w2c_decode__webp__wasmsimd_UpsampleRgbLinePair_SSE2 (21,860,741 samples, 2.15%)</title><rect x="1091.5" y="277" width="25.4" height="15.0" fill="rgb(212,33,7)" rx="2" ry="2" />
<text  x="1094.50" y="287.5" >w..</text>
</g>
<g >
<title>asm_exc_page_fault (361,965 samples, 0.04%)</title><rect x="117.5" y="133" width="0.4" height="15.0" fill="rgb(225,93,22)" rx="2" ry="2" />
<text  x="120.47" y="143.5" ></text>
</g>
<g >
<title>w2c_decode__webp__wasmsimd_TransformUV_C (1,847,900 samples, 0.18%)</title><rect x="103.9" y="181" width="2.2" height="15.0" fill="rgb(228,108,25)" rx="2" ry="2" />
<text  x="106.91" y="191.5" ></text>
</g>
<g >
<title>w2c_decode__webp__wasmsimd_VL4_SSE2 (923,874 samples, 0.09%)</title><rect x="111.4" y="181" width="1.1" height="15.0" fill="rgb(218,60,14)" rx="2" ry="2" />
<text  x="114.43" y="191.5" ></text>
</g>
<g >
<title>__handle_mm_fault (924,103 samples, 0.09%)</title><rect x="116.3" y="181" width="1.0" height="15.0" fill="rgb(207,9,2)" rx="2" ry="2" />
<text  x="119.26" y="191.5" ></text>
</g>
<g >
<title>ksys_write (1,848,038 samples, 0.18%)</title><rect x="114.1" y="213" width="2.2" height="15.0" fill="rgb(205,4,1)" rx="2" ry="2" />
<text  x="117.11" y="223.5" ></text>
</g>
<g >
<title>do_user_addr_fault (457,953 samples, 0.05%)</title><rect x="113.6" y="197" width="0.5" height="15.0" fill="rgb(228,108,25)" rx="2" ry="2" />
<text  x="116.58" y="207.5" ></text>
</g>
<g >
<title>do_set_pte (457,953 samples, 0.05%)</title><rect x="113.6" y="117" width="0.5" height="15.0" fill="rgb(253,221,52)" rx="2" ry="2" />
<text  x="116.58" y="127.5" ></text>
</g>
<g >
<title>balance_dirty_pages_ratelimited_flags (924,012 samples, 0.09%)</title><rect x="114.1" y="149" width="1.1" height="15.0" fill="rgb(207,10,2)" rx="2" ry="2" />
<text  x="117.11" y="159.5" ></text>
</g>
<g >
<title>get_page_from_freelist (924,026 samples, 0.09%)</title><rect x="115.2" y="69" width="1.1" height="15.0" fill="rgb(252,218,52)" rx="2" ry="2" />
<text  x="118.19" y="79.5" ></text>
</g>
<g >
<title>__cgroup_throttle_swaprate (361,965 samples, 0.04%)</title><rect x="117.5" y="37" width="0.4" height="15.0" fill="rgb(221,73,17)" rx="2" ry="2" />
<text  x="120.47" y="47.5" ></text>
</g>
<g >
<title>__libc_write (1,848,038 samples, 0.18%)</title><rect x="114.1" y="261" width="2.2" height="15.0" fill="rgb(238,154,37)" rx="2" ry="2" />
<text  x="117.11" y="271.5" ></text>
</g>
<g >
<title>_dl_lookup_symbol_x (457,953 samples, 0.05%)</title><rect x="113.6" y="245" width="0.5" height="15.0" fill="rgb(211,28,6)" rx="2" ry="2" />
<text  x="116.58" y="255.5" ></text>
</g>
<g >
<title>w2c_decode__webp__wasmsimd_DC4_C (8,314,677 samples, 0.82%)</title><rect x="10.0" y="181" width="9.7" height="15.0" fill="rgb(250,210,50)" rx="2" ry="2" />
<text  x="13.00" y="191.5" ></text>
</g>
<g >
<title>__memset_avx2_unaligned_erms (923,949 samples, 0.09%)</title><rect x="200.7" y="277" width="1.1" height="15.0" fill="rgb(223,84,20)" rx="2" ry="2" />
<text  x="203.73" y="287.5" ></text>
</g>
<g >
<title>w2c_decode__webp__wasmsimd_SimpleHFilter16_SSE2 (4,605,549 samples, 0.45%)</title><rect x="1077.1" y="277" width="5.3" height="15.0" fill="rgb(211,29,7)" rx="2" ry="2" />
<text  x="1080.09" y="287.5" ></text>
</g>
<g >
<title>w2c_decode__webp__wasmsimd_DC8uv_SSE2 (10,141,560 samples, 1.00%)</title><rect x="202.9" y="277" width="11.8" height="15.0" fill="rgb(248,200,48)" rx="2" ry="2" />
<text  x="205.88" y="287.5" ></text>
</g>
<g >
<title>do_user_addr_fault (459,939 samples, 0.05%)</title><rect x="1187.3" y="229" width="0.5" height="15.0" fill="rgb(228,108,25)" rx="2" ry="2" />
<text  x="1190.28" y="239.5" ></text>
</g>
<g >
<title>exc_page_fault (457,953 samples, 0.05%)</title><rect x="113.6" y="213" width="0.5" height="15.0" fill="rgb(212,35,8)" rx="2" ry="2" />
<text  x="116.58" y="223.5" ></text>
</g>
<g >
<title>w2c_decode__webp__wasmsimd_VR4_SSE2 (923,878 samples, 0.09%)</title><rect x="112.5" y="181" width="1.1" height="15.0" fill="rgb(229,112,26)" rx="2" ry="2" />
<text  x="115.51" y="191.5" ></text>
</g>
<g >
<title>all (1,015,076,289 samples, 100%)</title><rect x="10.0" y="309" width="1180.0" height="15.0" fill="rgb(213,39,9)" rx="2" ry="2" />
<text  x="13.00" y="319.5" ></text>
</g>
<g >
<title>w2c_decode__webp__wasmsimd_IDecode (149,247,681 samples, 14.70%)</title><rect x="896.1" y="277" width="173.5" height="15.0" fill="rgb(237,147,35)" rx="2" ry="2" />
<text  x="899.09" y="287.5" >w2c_decode__webp__wasm..</text>
</g>
<g >
<title>do_user_addr_fault (361,965 samples, 0.04%)</title><rect x="117.5" y="101" width="0.4" height="15.0" fill="rgb(228,108,25)" rx="2" ry="2" />
<text  x="120.47" y="111.5" ></text>
</g>
<g >
<title>exc_page_fault (459,939 samples, 0.05%)</title><rect x="1187.3" y="245" width="0.5" height="15.0" fill="rgb(212,35,8)" rx="2" ry="2" />
<text  x="1190.28" y="255.5" ></text>
</g>
<g >
<title>w2c_decode__webp__wasmsimd_EmitFancyRGB (926,125 samples, 0.09%)</title><rect x="214.7" y="277" width="1.0" height="15.0" fill="rgb(252,218,52)" rx="2" ry="2" />
<text  x="217.67" y="287.5" ></text>
</g>
<g >
<title>w2c_decode__webp__wasmsimd_TransformUV_C (1,845,679 samples, 0.18%)</title><rect x="134.0" y="261" width="2.1" height="15.0" fill="rgb(228,108,25)" rx="2" ry="2" />
<text  x="137.00" y="271.5" ></text>
</g>
<g >
<title>do_execveat_common.isra.0 (481,360 samples, 0.05%)</title><rect x="117.3" y="213" width="0.6" height="15.0" fill="rgb(231,123,29)" rx="2" ry="2" />
<text  x="120.33" y="223.5" ></text>
</g>
<g >
<title>do_fault (361,965 samples, 0.04%)</title><rect x="117.5" y="53" width="0.4" height="15.0" fill="rgb(248,200,47)" rx="2" ry="2" />
<text  x="120.47" y="63.5" ></text>
</g>
<g >
<title>w2c_decode__webp__wasmsimd_SimpleVFilter16_SSE2 (923,197 samples, 0.09%)</title><rect x="1082.4" y="277" width="1.1" height="15.0" fill="rgb(221,73,17)" rx="2" ry="2" />
<text  x="1085.44" y="287.5" ></text>
</g>
<g >
<title>w2c_decode__webp__wasmsimd_memset (923,645 samples, 0.09%)</title><rect x="1188.9" y="277" width="1.1" height="15.0" fill="rgb(249,206,49)" rx="2" ry="2" />
<text  x="1191.89" y="287.5" ></text>
</g>
<g >
<title>w2c_decode__webp__wasmsimd_TransformAC3_C (913,999 samples, 0.09%)</title><rect x="87.8" y="181" width="1.1" height="15.0" fill="rgb(251,211,50)" rx="2" ry="2" />
<text  x="90.83" y="191.5" ></text>
</g>
<g >
<title>begin_new_exec (119,395 samples, 0.01%)</title><rect x="117.3" y="165" width="0.2" height="15.0" fill="rgb(245,184,44)" rx="2" ry="2" />
<text  x="120.33" y="175.5" ></text>
</g>
<g >
<title>cgroup_rstat_flush_locked (924,012 samples, 0.09%)</title><rect x="114.1" y="69" width="1.1" height="15.0" fill="rgb(209,19,4)" rx="2" ry="2" />
<text  x="117.11" y="79.5" ></text>
</g>
<g >
<title>set_cred_ucounts (119,395 samples, 0.01%)</title><rect x="117.3" y="149" width="0.2" height="15.0" fill="rgb(246,188,45)" rx="2" ry="2" />
<text  x="120.33" y="159.5" ></text>
</g>
<g >
<title>__alloc_pages (924,026 samples, 0.09%)</title><rect x="115.2" y="85" width="1.1" height="15.0" fill="rgb(233,129,30)" rx="2" ry="2" />
<text  x="118.19" y="95.5" ></text>
</g>
<g >
<title>w2c_decode__webp__wasmsimd_IDecode (5,541,643 samples, 0.55%)</title><rect x="123.3" y="261" width="6.4" height="15.0" fill="rgb(237,147,35)" rx="2" ry="2" />
<text  x="126.26" y="271.5" ></text>
</g>
<g >
<title>handle_mm_fault (457,953 samples, 0.05%)</title><rect x="113.6" y="181" width="0.5" height="15.0" fill="rgb(234,135,32)" rx="2" ry="2" />
<text  x="116.58" y="191.5" ></text>
</g>
<g >
<title>do_fault (457,953 samples, 0.05%)</title><rect x="113.6" y="149" width="0.5" height="15.0" fill="rgb(248,200,47)" rx="2" ry="2" />
<text  x="116.58" y="159.5" ></text>
</g>
<g >
<title>__handle_mm_fault (457,953 samples, 0.05%)</title><rect x="113.6" y="165" width="0.5" height="15.0" fill="rgb(207,9,2)" rx="2" ry="2" />
<text  x="116.58" y="175.5" ></text>
</g>
<g >
<title>w2c_decode__webp__wasmsimd_memcpy (923,796 samples, 0.09%)</title><rect x="1187.8" y="277" width="1.1" height="15.0" fill="rgb(249,206,49)" rx="2" ry="2" />
<text  x="1190.82" y="287.5" ></text>
</g>
<g >
<title>__x64_sys_execve (481,360 samples, 0.05%)</title><rect x="117.3" y="229" width="0.6" height="15.0" fill="rgb(247,193,46)" rx="2" ry="2" />
<text  x="120.33" y="239.5" ></text>
</g>
<g >
<title>w2c_decode__webp__wasmsimd_VE4_SSE2 (923,203 samples, 0.09%)</title><rect x="110.4" y="181" width="1.0" height="15.0" fill="rgb(213,38,9)" rx="2" ry="2" />
<text  x="113.36" y="191.5" ></text>
</g>
<g >
<title>w2c_decode__webp__wasmsimd_Transform_SSE2 (53,709,854 samples, 5.29%)</title><rect x="136.1" y="261" width="62.5" height="15.0" fill="rgb(224,91,21)" rx="2" ry="2" />
<text  x="139.14" y="271.5" >w2c_de..</text>
</g>
<g >
<title>[unknown] (89,102,463 samples, 8.78%)</title><rect x="10.0" y="197" width="103.6" height="15.0" fill="rgb(210,24,5)" rx="2" ry="2" />
<text  x="13.00" y="207.5" >[unknown]</text>
</g>
<g >
<title>folio_alloc (924,026 samples, 0.09%)</title><rect x="115.2" y="101" width="1.1" height="15.0" fill="rgb(252,217,52)" rx="2" ry="2" />
<text  x="118.19" y="111.5" ></text>
</g>
<g >
<title>w2c_decode__webp__wasmsimd_VP8ParseProba (923,000 samples, 0.09%)</title><rect x="1119.1" y="277" width="1.0" height="15.0" fill="rgb(216,51,12)" rx="2" ry="2" />
<text  x="1122.06" y="287.5" ></text>
</g>
<g >
<title>decode_webp_was (1,015,045,708 samples, 100.00%)</title><rect x="10.0" y="293" width="1180.0" height="15.0" fill="rgb(216,54,12)" rx="2" ry="2" />
<text  x="13.00" y="303.5" >decode_webp_was</text>
</g>
<g >
<title>clear_page_rep (924,026 samples, 0.09%)</title><rect x="115.2" y="53" width="1.1" height="15.0" fill="rgb(253,221,52)" rx="2" ry="2" />
<text  x="118.19" y="63.5" ></text>
</g>
<g >
<title>w2c_decode__webp__wasmsimd_ReconstructRow (6,452,923 samples, 0.64%)</title><rect x="1069.6" y="277" width="7.5" height="15.0" fill="rgb(217,55,13)" rx="2" ry="2" />
<text  x="1072.59" y="287.5" ></text>
</g>
<g >
<title>asm_exc_page_fault (459,939 samples, 0.05%)</title><rect x="1187.3" y="261" width="0.5" height="15.0" fill="rgb(225,93,22)" rx="2" ry="2" />
<text  x="1190.28" y="271.5" ></text>
</g>
<g >
<title>entry_SYSCALL_64_after_hwframe (1,848,038 samples, 0.18%)</title><rect x="114.1" y="245" width="2.2" height="15.0" fill="rgb(218,63,15)" rx="2" ry="2" />
<text  x="117.11" y="255.5" ></text>
</g>
<g >
<title>w2c_decode__webp__wasmsimd_VP8YuvToRgb32_SSE2 (57,761,398 samples, 5.69%)</title><rect x="1120.1" y="277" width="67.2" height="15.0" fill="rgb(233,129,31)" rx="2" ry="2" />
<text  x="1123.14" y="287.5" >w2c_dec..</text>
</g>
<g >
<title>vma_alloc_folio (924,103 samples, 0.09%)</title><rect x="116.3" y="165" width="1.0" height="15.0" fill="rgb(245,187,44)" rx="2" ry="2" />
<text  x="119.26" y="175.5" ></text>
</g>
<g >
<title>asm_exc_page_fault (457,953 samples, 0.05%)</title><rect x="113.6" y="229" width="0.5" height="15.0" fill="rgb(225,93,22)" rx="2" ry="2" />
<text  x="116.58" y="239.5" ></text>
</g>
<g >
<title>__handle_mm_fault (361,965 samples, 0.04%)</title><rect x="117.5" y="69" width="0.4" height="15.0" fill="rgb(207,9,2)" rx="2" ry="2" />
<text  x="120.47" y="79.5" ></text>
</g>
<g >
<title>handle_mm_fault (459,939 samples, 0.05%)</title><rect x="1187.3" y="213" width="0.5" height="15.0" fill="rgb(234,135,32)" rx="2" ry="2" />
<text  x="1190.28" y="223.5" ></text>
</g>
<g >
<title>clear_user_rep_good (361,965 samples, 0.04%)</title><rect x="117.5" y="149" width="0.4" height="15.0" fill="rgb(224,89,21)" rx="2" ry="2" />
<text  x="120.47" y="159.5" ></text>
</g>
<g >
<title>_init (924,235 samples, 0.09%)</title><rect x="201.8" y="277" width="1.1" height="15.0" fill="rgb(233,130,31)" rx="2" ry="2" />
<text  x="204.80" y="287.5" ></text>
</g>
<g >
<title>[unknown] (89,102,463 samples, 8.78%)</title><rect x="10.0" y="245" width="103.6" height="15.0" fill="rgb(210,24,5)" rx="2" ry="2" />
<text  x="13.00" y="255.5" >[unknown]</text>
</g>
<g >
<title>page_add_file_rmap (457,953 samples, 0.05%)</title><rect x="113.6" y="101" width="0.5" height="15.0" fill="rgb(207,13,3)" rx="2" ry="2" />
<text  x="116.58" y="111.5" ></text>
</g>
<g >
<title>exc_page_fault (924,103 samples, 0.09%)</title><rect x="116.3" y="229" width="1.0" height="15.0" fill="rgb(212,35,8)" rx="2" ry="2" />
<text  x="119.26" y="239.5" ></text>
</g>
<g >
<title>w2c_decode__webp__wasmsimd_RD4_SSE2 (3,661,439 samples, 0.36%)</title><rect x="45.6" y="181" width="4.3" height="15.0" fill="rgb(245,187,44)" rx="2" ry="2" />
<text  x="48.61" y="191.5" ></text>
</g>
<g >
<title>handle_mm_fault (924,103 samples, 0.09%)</title><rect x="116.3" y="197" width="1.0" height="15.0" fill="rgb(234,135,32)" rx="2" ry="2" />
<text  x="119.26" y="207.5" ></text>
</g>
<g >
<title>entry_SYSCALL_64_after_hwframe (481,360 samples, 0.05%)</title><rect x="117.3" y="261" width="0.6" height="15.0" fill="rgb(218,63,15)" rx="2" ry="2" />
<text  x="120.33" y="271.5" ></text>
</g>
<g >
<title>handle_mm_fault (361,965 samples, 0.04%)</title><rect x="117.5" y="85" width="0.4" height="15.0" fill="rgb(234,135,32)" rx="2" ry="2" />
<text  x="120.47" y="95.5" ></text>
</g>
<g >
<title>cgroup_rstat_flush_irqsafe (924,012 samples, 0.09%)</title><rect x="114.1" y="85" width="1.1" height="15.0" fill="rgb(227,103,24)" rx="2" ry="2" />
<text  x="117.11" y="95.5" ></text>
</g>
</g>
</svg>
