<?xml version="1.0" standalone="no"?>
<!DOCTYPE svg PUBLIC "-//W3C//DTD SVG 1.1//EN" "http://www.w3.org/Graphics/SVG/1.1/DTD/svg11.dtd">
<svg version="1.1" width="1200" height="390" onload="init(evt)" viewBox="0 0 1200 390" xmlns="http://www.w3.org/2000/svg" xmlns:xlink="http://www.w3.org/1999/xlink">
<!-- Flame graph stack visualization. See https://github.com/brendangregg/FlameGraph for latest version, and http://www.brendangregg.com/flamegraphs.html for examples. -->
<!-- NOTES:  -->
<defs>
	<linearGradient id="background" y1="0" y2="1" x1="0" x2="0" >
		<stop stop-color="#eeeeee" offset="5%" />
		<stop stop-color="#eeeeb0" offset="95%" />
	</linearGradient>
</defs>
<style type="text/css">
	text { font-family:Verdana; font-size:12px; fill:rgb(0,0,0); }
	#search, #ignorecase { opacity:0.1; cursor:pointer; }
	#search:hover, #search.show, #ignorecase:hover, #ignorecase.show { opacity:1; }
	#subtitle { text-anchor:middle; font-color:rgb(160,160,160); }
	#title { text-anchor:middle; font-size:17px}
	#unzoom { cursor:pointer; }
	#frames > *:hover { stroke:black; stroke-width:0.5; cursor:pointer; }
	.hide { display:none; }
	.parent { opacity:0.5; }
</style>
<script type="text/ecmascript">
<![CDATA[
	"use strict";
	var details, searchbtn, unzoombtn, matchedtxt, svg, searching, currentSearchTerm, ignorecase, ignorecaseBtn;
	function init(evt) {
		details = document.getElementById("details").firstChild;
		searchbtn = document.getElementById("search");
		ignorecaseBtn = document.getElementById("ignorecase");
		unzoombtn = document.getElementById("unzoom");
		matchedtxt = document.getElementById("matched");
		svg = document.getElementsByTagName("svg")[0];
		searching = 0;
		currentSearchTerm = null;

		// use GET parameters to restore a flamegraphs state.
		var params = get_params();
		if (params.x && params.y)
			zoom(find_group(document.querySelector('[x="' + params.x + '"][y="' + params.y + '"]')));
                if (params.s) search(params.s);
	}

	// event listeners
	window.addEventListener("click", function(e) {
		var target = find_group(e.target);
		if (target) {
			if (target.nodeName == "a") {
				if (e.ctrlKey === false) return;
				e.preventDefault();
			}
			if (target.classList.contains("parent")) unzoom(true);
			zoom(target);
			if (!document.querySelector('.parent')) {
				// we have basically done a clearzoom so clear the url
				var params = get_params();
				if (params.x) delete params.x;
				if (params.y) delete params.y;
				history.replaceState(null, null, parse_params(params));
				unzoombtn.classList.add("hide");
				return;
			}

			// set parameters for zoom state
			var el = target.querySelector("rect");
			if (el && el.attributes && el.attributes.y && el.attributes._orig_x) {
				var params = get_params()
				params.x = el.attributes._orig_x.value;
				params.y = el.attributes.y.value;
				history.replaceState(null, null, parse_params(params));
			}
		}
		else if (e.target.id == "unzoom") clearzoom();
		else if (e.target.id == "search") search_prompt();
		else if (e.target.id == "ignorecase") toggle_ignorecase();
	}, false)

	// mouse-over for info
	// show
	window.addEventListener("mouseover", function(e) {
		var target = find_group(e.target);
		if (target) details.nodeValue = "Function: " + g_to_text(target);
	}, false)

	// clear
	window.addEventListener("mouseout", function(e) {
		var target = find_group(e.target);
		if (target) details.nodeValue = ' ';
	}, false)

	// ctrl-F for search
	// ctrl-I to toggle case-sensitive search
	window.addEventListener("keydown",function (e) {
		if (e.keyCode === 114 || (e.ctrlKey && e.keyCode === 70)) {
			e.preventDefault();
			search_prompt();
		}
		else if (e.ctrlKey && e.keyCode === 73) {
			e.preventDefault();
			toggle_ignorecase();
		}
	}, false)

	// functions
	function get_params() {
		var params = {};
		var paramsarr = window.location.search.substr(1).split('&');
		for (var i = 0; i < paramsarr.length; ++i) {
			var tmp = paramsarr[i].split("=");
			if (!tmp[0] || !tmp[1]) continue;
			params[tmp[0]]  = decodeURIComponent(tmp[1]);
		}
		return params;
	}
	function parse_params(params) {
		var uri = "?";
		for (var key in params) {
			uri += key + '=' + encodeURIComponent(params[key]) + '&';
		}
		if (uri.slice(-1) == "&")
			uri = uri.substring(0, uri.length - 1);
		if (uri == '?')
			uri = window.location.href.split('?')[0];
		return uri;
	}
	function find_child(node, selector) {
		var children = node.querySelectorAll(selector);
		if (children.length) return children[0];
	}
	function find_group(node) {
		var parent = node.parentElement;
		if (!parent) return;
		if (parent.id == "frames") return node;
		return find_group(parent);
	}
	function orig_save(e, attr, val) {
		if (e.attributes["_orig_" + attr] != undefined) return;
		if (e.attributes[attr] == undefined) return;
		if (val == undefined) val = e.attributes[attr].value;
		e.setAttribute("_orig_" + attr, val);
	}
	function orig_load(e, attr) {
		if (e.attributes["_orig_"+attr] == undefined) return;
		e.attributes[attr].value = e.attributes["_orig_" + attr].value;
		e.removeAttribute("_orig_"+attr);
	}
	function g_to_text(e) {
		var text = find_child(e, "title").firstChild.nodeValue;
		return (text)
	}
	function g_to_func(e) {
		var func = g_to_text(e);
		// if there's any manipulation we want to do to the function
		// name before it's searched, do it here before returning.
		return (func);
	}
	function update_text(e) {
		var r = find_child(e, "rect");
		var t = find_child(e, "text");
		var w = parseFloat(r.attributes.width.value) -3;
		var txt = find_child(e, "title").textContent.replace(/\([^(]*\)$/,"");
		t.attributes.x.value = parseFloat(r.attributes.x.value) + 3;

		// Smaller than this size won't fit anything
		if (w < 2 * 12 * 0.59) {
			t.textContent = "";
			return;
		}

		t.textContent = txt;
		var sl = t.getSubStringLength(0, txt.length);
		// check if only whitespace or if we can fit the entire string into width w
		if (/^ *$/.test(txt) || sl < w)
			return;

		// this isn't perfect, but gives a good starting point
		// and avoids calling getSubStringLength too often
		var start = Math.floor((w/sl) * txt.length);
		for (var x = start; x > 0; x = x-2) {
			if (t.getSubStringLength(0, x + 2) <= w) {
				t.textContent = txt.substring(0, x) + "..";
				return;
			}
		}
		t.textContent = "";
	}

	// zoom
	function zoom_reset(e) {
		if (e.attributes != undefined) {
			orig_load(e, "x");
			orig_load(e, "width");
		}
		if (e.childNodes == undefined) return;
		for (var i = 0, c = e.childNodes; i < c.length; i++) {
			zoom_reset(c[i]);
		}
	}
	function zoom_child(e, x, ratio) {
		if (e.attributes != undefined) {
			if (e.attributes.x != undefined) {
				orig_save(e, "x");
				e.attributes.x.value = (parseFloat(e.attributes.x.value) - x - 10) * ratio + 10;
				if (e.tagName == "text")
					e.attributes.x.value = find_child(e.parentNode, "rect[x]").attributes.x.value + 3;
			}
			if (e.attributes.width != undefined) {
				orig_save(e, "width");
				e.attributes.width.value = parseFloat(e.attributes.width.value) * ratio;
			}
		}

		if (e.childNodes == undefined) return;
		for (var i = 0, c = e.childNodes; i < c.length; i++) {
			zoom_child(c[i], x - 10, ratio);
		}
	}
	function zoom_parent(e) {
		if (e.attributes) {
			if (e.attributes.x != undefined) {
				orig_save(e, "x");
				e.attributes.x.value = 10;
			}
			if (e.attributes.width != undefined) {
				orig_save(e, "width");
				e.attributes.width.value = parseInt(svg.width.baseVal.value) - (10 * 2);
			}
		}
		if (e.childNodes == undefined) return;
		for (var i = 0, c = e.childNodes; i < c.length; i++) {
			zoom_parent(c[i]);
		}
	}
	function zoom(node) {
		var attr = find_child(node, "rect").attributes;
		var width = parseFloat(attr.width.value);
		var xmin = parseFloat(attr.x.value);
		var xmax = parseFloat(xmin + width);
		var ymin = parseFloat(attr.y.value);
		var ratio = (svg.width.baseVal.value - 2 * 10) / width;

		// XXX: Workaround for JavaScript float issues (fix me)
		var fudge = 0.0001;

		unzoombtn.classList.remove("hide");

		var el = document.getElementById("frames").children;
		for (var i = 0; i < el.length; i++) {
			var e = el[i];
			var a = find_child(e, "rect").attributes;
			var ex = parseFloat(a.x.value);
			var ew = parseFloat(a.width.value);
			var upstack;
			// Is it an ancestor
			if (0 == 0) {
				upstack = parseFloat(a.y.value) > ymin;
			} else {
				upstack = parseFloat(a.y.value) < ymin;
			}
			if (upstack) {
				// Direct ancestor
				if (ex <= xmin && (ex+ew+fudge) >= xmax) {
					e.classList.add("parent");
					zoom_parent(e);
					update_text(e);
				}
				// not in current path
				else
					e.classList.add("hide");
			}
			// Children maybe
			else {
				// no common path
				if (ex < xmin || ex + fudge >= xmax) {
					e.classList.add("hide");
				}
				else {
					zoom_child(e, xmin, ratio);
					update_text(e);
				}
			}
		}
		search();
	}
	function unzoom(dont_update_text) {
		unzoombtn.classList.add("hide");
		var el = document.getElementById("frames").children;
		for(var i = 0; i < el.length; i++) {
			el[i].classList.remove("parent");
			el[i].classList.remove("hide");
			zoom_reset(el[i]);
			if(!dont_update_text) update_text(el[i]);
		}
		search();
	}
	function clearzoom() {
		unzoom();

		// remove zoom state
		var params = get_params();
		if (params.x) delete params.x;
		if (params.y) delete params.y;
		history.replaceState(null, null, parse_params(params));
	}

	// search
	function toggle_ignorecase() {
		ignorecase = !ignorecase;
		if (ignorecase) {
			ignorecaseBtn.classList.add("show");
		} else {
			ignorecaseBtn.classList.remove("show");
		}
		reset_search();
		search();
	}
	function reset_search() {
		var el = document.querySelectorAll("#frames rect");
		for (var i = 0; i < el.length; i++) {
			orig_load(el[i], "fill")
		}
		var params = get_params();
		delete params.s;
		history.replaceState(null, null, parse_params(params));
	}
	function search_prompt() {
		if (!searching) {
			var term = prompt("Enter a search term (regexp " +
			    "allowed, eg: ^ext4_)"
			    + (ignorecase ? ", ignoring case" : "")
			    + "\nPress Ctrl-i to toggle case sensitivity", "");
			if (term != null) search(term);
		} else {
			reset_search();
			searching = 0;
			currentSearchTerm = null;
			searchbtn.classList.remove("show");
			searchbtn.firstChild.nodeValue = "Search"
			matchedtxt.classList.add("hide");
			matchedtxt.firstChild.nodeValue = ""
		}
	}
	function search(term) {
		if (term) currentSearchTerm = term;

		var re = new RegExp(currentSearchTerm, ignorecase ? 'i' : '');
		var el = document.getElementById("frames").children;
		var matches = new Object();
		var maxwidth = 0;
		for (var i = 0; i < el.length; i++) {
			var e = el[i];
			var func = g_to_func(e);
			var rect = find_child(e, "rect");
			if (func == null || rect == null)
				continue;

			// Save max width. Only works as we have a root frame
			var w = parseFloat(rect.attributes.width.value);
			if (w > maxwidth)
				maxwidth = w;

			if (func.match(re)) {
				// highlight
				var x = parseFloat(rect.attributes.x.value);
				orig_save(rect, "fill");
				rect.attributes.fill.value = "rgb(230,0,230)";

				// remember matches
				if (matches[x] == undefined) {
					matches[x] = w;
				} else {
					if (w > matches[x]) {
						// overwrite with parent
						matches[x] = w;
					}
				}
				searching = 1;
			}
		}
		if (!searching)
			return;
		var params = get_params();
		params.s = currentSearchTerm;
		history.replaceState(null, null, parse_params(params));

		searchbtn.classList.add("show");
		searchbtn.firstChild.nodeValue = "Reset Search";

		// calculate percent matched, excluding vertical overlap
		var count = 0;
		var lastx = -1;
		var lastw = 0;
		var keys = Array();
		for (k in matches) {
			if (matches.hasOwnProperty(k))
				keys.push(k);
		}
		// sort the matched frames by their x location
		// ascending, then width descending
		keys.sort(function(a, b){
			return a - b;
		});
		// Step through frames saving only the biggest bottom-up frames
		// thanks to the sort order. This relies on the tree property
		// where children are always smaller than their parents.
		var fudge = 0.0001;	// JavaScript floating point
		for (var k in keys) {
			var x = parseFloat(keys[k]);
			var w = matches[keys[k]];
			if (x >= lastx + lastw - fudge) {
				count += w;
				lastx = x;
				lastw = w;
			}
		}
		// display matched percent
		matchedtxt.classList.remove("hide");
		var pct = 100 * count / maxwidth;
		if (pct != 100) pct = pct.toFixed(1)
		matchedtxt.firstChild.nodeValue = "Matched: " + pct + "%";
	}
]]>
</script>
<rect x="0.0" y="0" width="1200.0" height="390.0" fill="url(#background)"  />
<text id="title" x="600.00" y="24" >Flame Graph</text>
<text id="details" x="10.00" y="373" > </text>
<text id="unzoom" x="10.00" y="24" class="hide">Reset Zoom</text>
<text id="search" x="1090.00" y="24" >Search</text>
<text id="ignorecase" x="1174.00" y="24" >ic</text>
<text id="matched" x="1090.00" y="373" > </text>
<g id="frames">
<g >
<title>do_syscall_64 (485,882 samples, 0.07%)</title><rect x="1189.1" y="277" width="0.8" height="15.0" fill="rgb(209,20,4)" rx="2" ry="2" />
<text  x="1192.10" y="287.5" ></text>
</g>
<g >
<title>check_preemption_disabled (769,080 samples, 0.11%)</title><rect x="1135.7" y="165" width="1.4" height="15.0" fill="rgb(220,73,17)" rx="2" ry="2" />
<text  x="1138.71" y="175.5" ></text>
</g>
<g >
<title>memcpy (362,918 samples, 0.05%)</title><rect x="1189.3" y="69" width="0.6" height="15.0" fill="rgb(208,14,3)" rx="2" ry="2" />
<text  x="1192.31" y="79.5" ></text>
</g>
<g >
<title>PredictorAdd11_C (15,671,519 samples, 2.32%)</title><rect x="70.0" y="309" width="27.4" height="15.0" fill="rgb(249,206,49)" rx="2" ry="2" />
<text  x="72.97" y="319.5" >P..</text>
</g>
<g >
<title>[unknown] (312,989,821 samples, 46.36%)</title><rect x="631.8" y="293" width="547.0" height="15.0" fill="rgb(210,24,5)" rx="2" ry="2" />
<text  x="634.77" y="303.5" >[unknown]</text>
</g>
<g >
<title>VP8LInverseTransform (4,571,864 samples, 0.68%)</title><rect x="607.7" y="293" width="7.9" height="15.0" fill="rgb(234,134,32)" rx="2" ry="2" />
<text  x="610.65" y="303.5" ></text>
</g>
<g >
<title>security_file_permission (454,939 samples, 0.07%)</title><rect x="1183.5" y="213" width="0.8" height="15.0" fill="rgb(225,96,23)" rx="2" ry="2" />
<text  x="1186.48" y="223.5" ></text>
</g>
<g >
<title>__folio_alloc (543,605 samples, 0.08%)</title><rect x="338.3" y="197" width="1.0" height="15.0" fill="rgb(224,91,21)" rx="2" ry="2" />
<text  x="341.31" y="207.5" ></text>
</g>
<g >
<title>do_syscall_64 (878,381 samples, 0.13%)</title><rect x="1178.8" y="261" width="1.5" height="15.0" fill="rgb(209,20,4)" rx="2" ry="2" />
<text  x="1181.79" y="271.5" ></text>
</g>
<g >
<title>all (675,164,344 samples, 100%)</title><rect x="10.0" y="341" width="1180.0" height="15.0" fill="rgb(213,39,9)" rx="2" ry="2" />
<text  x="13.00" y="351.5" ></text>
</g>
<g >
<title>perf_event_mmap (362,918 samples, 0.05%)</title><rect x="1189.3" y="165" width="0.6" height="15.0" fill="rgb(229,112,26)" rx="2" ry="2" />
<text  x="1192.31" y="175.5" ></text>
</g>
<g >
<title>ShiftBytes (2,688,101 samples, 0.40%)</title><rect x="1143.4" y="277" width="4.7" height="15.0" fill="rgb(216,52,12)" rx="2" ry="2" />
<text  x="1146.44" y="287.5" ></text>
</g>
<g >
<title>task_work_run (878,381 samples, 0.13%)</title><rect x="1178.8" y="213" width="1.5" height="15.0" fill="rgb(209,22,5)" rx="2" ry="2" />
<text  x="1181.79" y="223.5" ></text>
</g>
<g >
<title>vfs_write (2,257,339 samples, 0.33%)</title><rect x="1180.3" y="229" width="4.0" height="15.0" fill="rgb(250,209,50)" rx="2" ry="2" />
<text  x="1183.33" y="239.5" ></text>
</g>
<g >
<title>perf_iterate_sb (362,918 samples, 0.05%)</title><rect x="1189.3" y="149" width="0.6" height="15.0" fill="rgb(244,179,42)" rx="2" ry="2" />
<text  x="1192.31" y="159.5" ></text>
</g>
<g >
<title>ReadHuffmanCode (924,210 samples, 0.14%)</title><rect x="511.2" y="293" width="1.6" height="15.0" fill="rgb(230,116,27)" rx="2" ry="2" />
<text  x="514.15" y="303.5" ></text>
</g>
<g >
<title>do_syscall_64 (2,257,339 samples, 0.33%)</title><rect x="1180.3" y="261" width="4.0" height="15.0" fill="rgb(209,20,4)" rx="2" ry="2" />
<text  x="1183.33" y="271.5" ></text>
</g>
<g >
<title>DecodeImageData (1,846,278 samples, 0.27%)</title><rect x="66.7" y="309" width="3.3" height="15.0" fill="rgb(254,229,54)" rx="2" ry="2" />
<text  x="69.74" y="319.5" ></text>
</g>
<g >
<title>get_page_from_freelist (543,605 samples, 0.08%)</title><rect x="338.3" y="165" width="1.0" height="15.0" fill="rgb(252,218,52)" rx="2" ry="2" />
<text  x="341.31" y="175.5" ></text>
</g>
<g >
<title>VP8LConvertBGRAToRGB_C (23,788,345 samples, 3.52%)</title><rect x="566.1" y="293" width="41.6" height="15.0" fill="rgb(222,78,18)" rx="2" ry="2" />
<text  x="569.08" y="303.5" >VP8..</text>
</g>
<g >
<title>VP8LConvertBGRAToRGB_C (543,605 samples, 0.08%)</title><rect x="338.3" y="309" width="1.0" height="15.0" fill="rgb(222,78,18)" rx="2" ry="2" />
<text  x="341.31" y="319.5" ></text>
</g>
<g >
<title>_int_malloc (2,758,759 samples, 0.41%)</title><rect x="1184.3" y="293" width="4.8" height="15.0" fill="rgb(215,47,11)" rx="2" ry="2" />
<text  x="1187.27" y="303.5" ></text>
</g>
<g >
<title>perf_event_mmap_output (362,918 samples, 0.05%)</title><rect x="1189.3" y="117" width="0.6" height="15.0" fill="rgb(214,45,10)" rx="2" ry="2" />
<text  x="1192.31" y="127.5" ></text>
</g>
<g >
<title>asm_exc_page_fault (543,605 samples, 0.08%)</title><rect x="338.3" y="293" width="1.0" height="15.0" fill="rgb(225,93,22)" rx="2" ry="2" />
<text  x="341.31" y="303.5" ></text>
</g>
<g >
<title>generic_perform_write (1,802,400 samples, 0.27%)</title><rect x="1180.3" y="197" width="3.2" height="15.0" fill="rgb(236,146,35)" rx="2" ry="2" />
<text  x="1183.33" y="207.5" ></text>
</g>
<g >
<title>ext4_da_write_begin (924,059 samples, 0.14%)</title><rect x="1181.9" y="181" width="1.6" height="15.0" fill="rgb(211,32,7)" rx="2" ry="2" />
<text  x="1184.86" y="191.5" ></text>
</g>
<g >
<title>ext4_release_file (878,381 samples, 0.13%)</title><rect x="1178.8" y="181" width="1.5" height="15.0" fill="rgb(225,92,22)" rx="2" ry="2" />
<text  x="1181.79" y="191.5" ></text>
</g>
<g >
<title>dm_submit_bio (878,381 samples, 0.13%)</title><rect x="1178.8" y="53" width="1.5" height="15.0" fill="rgb(244,179,43)" rx="2" ry="2" />
<text  x="1181.79" y="63.5" ></text>
</g>
<g >
<title>VP8LReadBits (1,846,158 samples, 0.27%)</title><rect x="615.6" y="293" width="3.3" height="15.0" fill="rgb(236,146,35)" rx="2" ry="2" />
<text  x="618.64" y="303.5" ></text>
</g>
<g >
<title>PredictorAdd3_C (2,768,679 samples, 0.41%)</title><rect x="309.3" y="309" width="4.8" height="15.0" fill="rgb(253,222,53)" rx="2" ry="2" />
<text  x="312.25" y="319.5" ></text>
</g>
<g >
<title>PredictorAdd2_C (3,694,763 samples, 0.55%)</title><rect x="302.8" y="309" width="6.5" height="15.0" fill="rgb(209,22,5)" rx="2" ry="2" />
<text  x="305.80" y="319.5" ></text>
</g>
<g >
<title>cgroup_rstat_flush_irqsafe (878,341 samples, 0.13%)</title><rect x="1180.3" y="117" width="1.6" height="15.0" fill="rgb(227,103,24)" rx="2" ry="2" />
<text  x="1183.33" y="127.5" ></text>
</g>
<g >
<title>pagecache_get_page (924,059 samples, 0.14%)</title><rect x="1181.9" y="165" width="1.6" height="15.0" fill="rgb(253,221,53)" rx="2" ry="2" />
<text  x="1184.86" y="175.5" ></text>
</g>
<g >
<title>get_page_from_freelist (924,059 samples, 0.14%)</title><rect x="1181.9" y="101" width="1.6" height="15.0" fill="rgb(252,218,52)" rx="2" ry="2" />
<text  x="1184.86" y="111.5" ></text>
</g>
<g >
<title>__output_copy (362,918 samples, 0.05%)</title><rect x="1189.3" y="85" width="0.6" height="15.0" fill="rgb(209,22,5)" rx="2" ry="2" />
<text  x="1192.31" y="95.5" ></text>
</g>
<g >
<title>balance_dirty_pages_ratelimited_flags (878,341 samples, 0.13%)</title><rect x="1180.3" y="181" width="1.6" height="15.0" fill="rgb(207,10,2)" rx="2" ry="2" />
<text  x="1183.33" y="191.5" ></text>
</g>
<g >
<title>__libc_write (2,257,339 samples, 0.33%)</title><rect x="1180.3" y="293" width="4.0" height="15.0" fill="rgb(238,154,37)" rx="2" ry="2" />
<text  x="1183.33" y="303.5" ></text>
</g>
<g >
<title>VP8LTransformColorInverse_C (7,384,355 samples, 1.09%)</title><rect x="618.9" y="293" width="12.9" height="15.0" fill="rgb(236,145,34)" rx="2" ry="2" />
<text  x="621.87" y="303.5" ></text>
</g>
<g >
<title>ksys_write (2,257,339 samples, 0.33%)</title><rect x="1180.3" y="245" width="4.0" height="15.0" fill="rgb(205,4,1)" rx="2" ry="2" />
<text  x="1183.33" y="255.5" ></text>
</g>
<g >
<title>perf_iterate_ctx (362,918 samples, 0.05%)</title><rect x="1189.3" y="133" width="0.6" height="15.0" fill="rgb(205,4,0)" rx="2" ry="2" />
<text  x="1192.31" y="143.5" ></text>
</g>
<g >
<title>__alloc_pages (543,605 samples, 0.08%)</title><rect x="338.3" y="181" width="1.0" height="15.0" fill="rgb(233,129,30)" rx="2" ry="2" />
<text  x="341.31" y="191.5" ></text>
</g>
<g >
<title>BuildHuffmanTable (32,464,673 samples, 4.81%)</title><rect x="10.0" y="309" width="56.7" height="15.0" fill="rgb(226,101,24)" rx="2" ry="2" />
<text  x="13.00" y="319.5" >BuildH..</text>
</g>
<g >
<title>[unknown] (389,310,120 samples, 57.66%)</title><rect x="509.5" y="309" width="680.4" height="15.0" fill="rgb(210,24,5)" rx="2" ry="2" />
<text  x="512.54" y="319.5" >[unknown]</text>
</g>
<g >
<title>ext4_buffered_write_iter (1,802,400 samples, 0.27%)</title><rect x="1180.3" y="213" width="3.2" height="15.0" fill="rgb(213,40,9)" rx="2" ry="2" />
<text  x="1183.33" y="223.5" ></text>
</g>
<g >
<title>balance_dirty_pages (878,341 samples, 0.13%)</title><rect x="1180.3" y="165" width="1.6" height="15.0" fill="rgb(247,193,46)" rx="2" ry="2" />
<text  x="1183.33" y="175.5" ></text>
</g>
<g >
<title>PredictorAdd7_C (7,390,667 samples, 1.09%)</title><rect x="320.5" y="309" width="13.0" height="15.0" fill="rgb(227,103,24)" rx="2" ry="2" />
<text  x="323.55" y="319.5" ></text>
</g>
<g >
<title>ext4_io_submit (878,381 samples, 0.13%)</title><rect x="1178.8" y="101" width="1.5" height="15.0" fill="rgb(214,43,10)" rx="2" ry="2" />
<text  x="1181.79" y="111.5" ></text>
</g>
<g >
<title>bprm_execve (485,882 samples, 0.07%)</title><rect x="1189.1" y="229" width="0.8" height="15.0" fill="rgb(218,61,14)" rx="2" ry="2" />
<text  x="1192.10" y="239.5" ></text>
</g>
<g >
<title>__install_special_mapping (362,918 samples, 0.05%)</title><rect x="1189.3" y="181" width="0.6" height="15.0" fill="rgb(212,35,8)" rx="2" ry="2" />
<text  x="1192.31" y="191.5" ></text>
</g>
<g >
<title>__submit_bio (878,381 samples, 0.13%)</title><rect x="1178.8" y="69" width="1.5" height="15.0" fill="rgb(230,117,28)" rx="2" ry="2" />
<text  x="1181.79" y="79.5" ></text>
</g>
<g >
<title>ReadHuffmanCode (1,847,850 samples, 0.27%)</title><rect x="333.5" y="309" width="3.2" height="15.0" fill="rgb(230,116,27)" rx="2" ry="2" />
<text  x="336.47" y="319.5" ></text>
</g>
<g >
<title>ext4_writepages (878,381 samples, 0.13%)</title><rect x="1178.8" y="117" width="1.5" height="15.0" fill="rgb(240,165,39)" rx="2" ry="2" />
<text  x="1181.79" y="127.5" ></text>
</g>
<g >
<title>ProcessRows (923,725 samples, 0.14%)</title><rect x="509.5" y="293" width="1.7" height="15.0" fill="rgb(207,9,2)" rx="2" ry="2" />
<text  x="512.54" y="303.5" ></text>
</g>
<g >
<title>handle_mm_fault (769,080 samples, 0.11%)</title><rect x="1135.7" y="213" width="1.4" height="15.0" fill="rgb(234,135,32)" rx="2" ry="2" />
<text  x="1138.71" y="223.5" ></text>
</g>
<g >
<title>submit_bio_noacct (878,381 samples, 0.13%)</title><rect x="1178.8" y="37" width="1.5" height="15.0" fill="rgb(211,30,7)" rx="2" ry="2" />
<text  x="1181.79" y="47.5" ></text>
</g>
<g >
<title>do_user_addr_fault (769,080 samples, 0.11%)</title><rect x="1135.7" y="229" width="1.4" height="15.0" fill="rgb(228,108,25)" rx="2" ry="2" />
<text  x="1138.71" y="239.5" ></text>
</g>
<g >
<title>entry_SYSCALL_64_after_hwframe (485,882 samples, 0.07%)</title><rect x="1189.1" y="293" width="0.8" height="15.0" fill="rgb(218,63,15)" rx="2" ry="2" />
<text  x="1192.10" y="303.5" ></text>
</g>
<g >
<title>folio_alloc (924,059 samples, 0.14%)</title><rect x="1181.9" y="133" width="1.6" height="15.0" fill="rgb(252,217,52)" rx="2" ry="2" />
<text  x="1184.86" y="143.5" ></text>
</g>
<g >
<title>vma_alloc_folio (543,605 samples, 0.08%)</title><rect x="338.3" y="213" width="1.0" height="15.0" fill="rgb(245,187,44)" rx="2" ry="2" />
<text  x="341.31" y="223.5" ></text>
</g>
<g >
<title>VP8LAddGreenToBlueAndRed_C (30,501,281 samples, 4.52%)</title><rect x="512.8" y="293" width="53.3" height="15.0" fill="rgb(222,82,19)" rx="2" ry="2" />
<text  x="515.77" y="303.5" >VP8LA..</text>
</g>
<g >
<title>ShiftBytes (923,696 samples, 0.14%)</title><rect x="336.7" y="309" width="1.6" height="15.0" fill="rgb(216,52,12)" rx="2" ry="2" />
<text  x="339.70" y="319.5" ></text>
</g>
<g >
<title>mem_cgroup_wb_stats (878,341 samples, 0.13%)</title><rect x="1180.3" y="149" width="1.6" height="15.0" fill="rgb(211,28,6)" rx="2" ry="2" />
<text  x="1183.33" y="159.5" ></text>
</g>
<g >
<title>exit_to_user_mode_prepare (878,381 samples, 0.13%)</title><rect x="1178.8" y="229" width="1.5" height="15.0" fill="rgb(228,108,25)" rx="2" ry="2" />
<text  x="1181.79" y="239.5" ></text>
</g>
<g >
<title>exc_page_fault (769,080 samples, 0.11%)</title><rect x="1135.7" y="245" width="1.4" height="15.0" fill="rgb(212,35,8)" rx="2" ry="2" />
<text  x="1138.71" y="255.5" ></text>
</g>
<g >
<title>syscall_exit_to_user_mode (878,381 samples, 0.13%)</title><rect x="1178.8" y="245" width="1.5" height="15.0" fill="rgb(251,211,50)" rx="2" ry="2" />
<text  x="1181.79" y="255.5" ></text>
</g>
<g >
<title>submit_bio_noacct_nocheck (878,381 samples, 0.13%)</title><rect x="1178.8" y="85" width="1.5" height="15.0" fill="rgb(225,95,22)" rx="2" ry="2" />
<text  x="1181.79" y="95.5" ></text>
</g>
<g >
<title>__filemap_get_folio (924,059 samples, 0.14%)</title><rect x="1181.9" y="149" width="1.6" height="15.0" fill="rgb(231,120,28)" rx="2" ry="2" />
<text  x="1184.86" y="159.5" ></text>
</g>
<g >
<title>__x64_sys_execve (485,882 samples, 0.07%)</title><rect x="1189.1" y="261" width="0.8" height="15.0" fill="rgb(247,193,46)" rx="2" ry="2" />
<text  x="1192.10" y="271.5" ></text>
</g>
<g >
<title>ReadHuffmanCodesHelper (3,657,818 samples, 0.54%)</title><rect x="1137.1" y="277" width="6.3" height="15.0" fill="rgb(209,22,5)" rx="2" ry="2" />
<text  x="1140.05" y="287.5" ></text>
</g>
<g >
<title>asm_exc_page_fault (769,080 samples, 0.11%)</title><rect x="1135.7" y="261" width="1.4" height="15.0" fill="rgb(225,93,22)" rx="2" ry="2" />
<text  x="1138.71" y="271.5" ></text>
</g>
<g >
<title>VP8LInverseTransform (9,224,725 samples, 1.37%)</title><rect x="339.3" y="309" width="16.1" height="15.0" fill="rgb(234,134,32)" rx="2" ry="2" />
<text  x="342.26" y="319.5" ></text>
</g>
<g >
<title>__count_memcg_events (769,080 samples, 0.11%)</title><rect x="1135.7" y="181" width="1.4" height="15.0" fill="rgb(250,211,50)" rx="2" ry="2" />
<text  x="1138.71" y="191.5" ></text>
</g>
<g >
<title>__handle_mm_fault (543,605 samples, 0.08%)</title><rect x="338.3" y="229" width="1.0" height="15.0" fill="rgb(207,9,2)" rx="2" ry="2" />
<text  x="341.31" y="239.5" ></text>
</g>
<g >
<title>__close_nocancel (878,381 samples, 0.13%)</title><rect x="1178.8" y="293" width="1.5" height="15.0" fill="rgb(228,109,26)" rx="2" ry="2" />
<text  x="1181.79" y="303.5" ></text>
</g>
<g >
<title>PredictorAdd12_C (25,858,094 samples, 3.83%)</title><rect x="97.4" y="309" width="45.1" height="15.0" fill="rgb(243,176,42)" rx="2" ry="2" />
<text  x="100.36" y="319.5" >Pred..</text>
</g>
<g >
<title>__alloc_pages (924,059 samples, 0.14%)</title><rect x="1181.9" y="117" width="1.6" height="15.0" fill="rgb(233,129,30)" rx="2" ry="2" />
<text  x="1184.86" y="127.5" ></text>
</g>
<g >
<title>PredictorAdd1_C (29,370,670 samples, 4.35%)</title><rect x="251.5" y="309" width="51.3" height="15.0" fill="rgb(216,52,12)" rx="2" ry="2" />
<text  x="254.46" y="319.5" >Predi..</text>
</g>
<g >
<title>__fput (878,381 samples, 0.13%)</title><rect x="1178.8" y="197" width="1.5" height="15.0" fill="rgb(248,200,47)" rx="2" ry="2" />
<text  x="1181.79" y="207.5" ></text>
</g>
<g >
<title>do_execveat_common.isra.0 (485,882 samples, 0.07%)</title><rect x="1189.1" y="245" width="0.8" height="15.0" fill="rgb(231,123,29)" rx="2" ry="2" />
<text  x="1192.10" y="255.5" ></text>
</g>
<g >
<title>cgroup_rstat_flush_locked (878,341 samples, 0.13%)</title><rect x="1180.3" y="101" width="1.6" height="15.0" fill="rgb(209,19,4)" rx="2" ry="2" />
<text  x="1183.33" y="111.5" ></text>
</g>
<g >
<title>DecodeImageData (289,105,579 samples, 42.82%)</title><rect x="631.8" y="277" width="505.3" height="15.0" fill="rgb(254,229,54)" rx="2" ry="2" />
<text  x="634.77" y="287.5" >DecodeImageData</text>
</g>
<g >
<title>exc_page_fault (543,605 samples, 0.08%)</title><rect x="338.3" y="277" width="1.0" height="15.0" fill="rgb(212,35,8)" rx="2" ry="2" />
<text  x="341.31" y="287.5" ></text>
</g>
<g >
<title>handle_mm_fault (543,605 samples, 0.08%)</title><rect x="338.3" y="245" width="1.0" height="15.0" fill="rgb(234,135,32)" rx="2" ry="2" />
<text  x="341.31" y="255.5" ></text>
</g>
<g >
<title>clear_page_rep (543,605 samples, 0.08%)</title><rect x="338.3" y="149" width="1.0" height="15.0" fill="rgb(253,221,52)" rx="2" ry="2" />
<text  x="341.31" y="159.5" ></text>
</g>
<g >
<title>do_writepages (878,381 samples, 0.13%)</title><rect x="1178.8" y="133" width="1.5" height="15.0" fill="rgb(240,164,39)" rx="2" ry="2" />
<text  x="1181.79" y="143.5" ></text>
</g>
<g >
<title>__mem_cgroup_flush_stats (878,341 samples, 0.13%)</title><rect x="1180.3" y="133" width="1.6" height="15.0" fill="rgb(208,16,3)" rx="2" ry="2" />
<text  x="1183.33" y="143.5" ></text>
</g>
<g >
<title>count_memcg_events.constprop.0 (769,080 samples, 0.11%)</title><rect x="1135.7" y="197" width="1.4" height="15.0" fill="rgb(213,41,9)" rx="2" ry="2" />
<text  x="1138.71" y="207.5" ></text>
</g>
<g >
<title>__filemap_fdatawrite_range (878,381 samples, 0.13%)</title><rect x="1178.8" y="165" width="1.5" height="15.0" fill="rgb(233,129,30)" rx="2" ry="2" />
<text  x="1181.79" y="175.5" ></text>
</g>
<g >
<title>entry_SYSCALL_64_after_hwframe (2,257,339 samples, 0.33%)</title><rect x="1180.3" y="277" width="4.0" height="15.0" fill="rgb(218,63,15)" rx="2" ry="2" />
<text  x="1183.33" y="287.5" ></text>
</g>
<g >
<title>decode_webp_nat (675,132,901 samples, 100.00%)</title><rect x="10.0" y="325" width="1179.9" height="15.0" fill="rgb(218,61,14)" rx="2" ry="2" />
<text  x="13.00" y="335.5" >decode_webp_nat</text>
</g>
<g >
<title>do_user_addr_fault (543,605 samples, 0.08%)</title><rect x="338.3" y="261" width="1.0" height="15.0" fill="rgb(228,108,25)" rx="2" ry="2" />
<text  x="341.31" y="271.5" ></text>
</g>
<g >
<title>entry_SYSCALL_64_after_hwframe (878,381 samples, 0.13%)</title><rect x="1178.8" y="277" width="1.5" height="15.0" fill="rgb(218,63,15)" rx="2" ry="2" />
<text  x="1181.79" y="287.5" ></text>
</g>
<g >
<title>load_elf_binary (485,882 samples, 0.07%)</title><rect x="1189.1" y="213" width="0.8" height="15.0" fill="rgb(223,83,20)" rx="2" ry="2" />
<text  x="1192.10" y="223.5" ></text>
</g>
<g >
<title>VP8LDoFillBitWindow (16,614,544 samples, 2.46%)</title><rect x="1148.1" y="277" width="29.1" height="15.0" fill="rgb(219,67,16)" rx="2" ry="2" />
<text  x="1151.14" y="287.5" >VP..</text>
</g>
<g >
<title>VP8LTransformColorInverse_C (88,204,119 samples, 13.06%)</title><rect x="355.4" y="309" width="154.1" height="15.0" fill="rgb(236,145,34)" rx="2" ry="2" />
<text  x="358.38" y="319.5" >VP8LTransformColorI..</text>
</g>
<g >
<title>map_vdso (362,918 samples, 0.05%)</title><rect x="1189.3" y="197" width="0.6" height="15.0" fill="rgb(227,103,24)" rx="2" ry="2" />
<text  x="1192.31" y="207.5" ></text>
</g>
<g >
<title>clear_page_rep (924,059 samples, 0.14%)</title><rect x="1181.9" y="85" width="1.6" height="15.0" fill="rgb(253,221,52)" rx="2" ry="2" />
<text  x="1184.86" y="95.5" ></text>
</g>
<g >
<title>filemap_fdatawrite_wbc (878,381 samples, 0.13%)</title><rect x="1178.8" y="149" width="1.5" height="15.0" fill="rgb(210,25,6)" rx="2" ry="2" />
<text  x="1181.79" y="159.5" ></text>
</g>
<g >
<title>PredictorAdd13_C (62,318,291 samples, 9.23%)</title><rect x="142.5" y="309" width="109.0" height="15.0" fill="rgb(236,146,35)" rx="2" ry="2" />
<text  x="145.55" y="319.5" >PredictorAdd1..</text>
</g>
<g >
<title>perf_output_copy (362,918 samples, 0.05%)</title><rect x="1189.3" y="101" width="0.6" height="15.0" fill="rgb(252,217,52)" rx="2" ry="2" />
<text  x="1192.31" y="111.5" ></text>
</g>
<g >
<title>__memmove_avx_unaligned (923,779 samples, 0.14%)</title><rect x="1177.2" y="277" width="1.6" height="15.0" fill="rgb(254,228,54)" rx="2" ry="2" />
<text  x="1180.18" y="287.5" ></text>
</g>
<g >
<title>begin_new_exec (122,964 samples, 0.02%)</title><rect x="1189.1" y="197" width="0.2" height="15.0" fill="rgb(245,184,44)" rx="2" ry="2" />
<text  x="1192.10" y="207.5" ></text>
</g>
<g >
<title>PredictorAdd5_C (3,695,152 samples, 0.55%)</title><rect x="314.1" y="309" width="6.4" height="15.0" fill="rgb(240,163,39)" rx="2" ry="2" />
<text  x="317.09" y="319.5" ></text>
</g>
<g >
<title>commit_creds (122,964 samples, 0.02%)</title><rect x="1189.1" y="181" width="0.2" height="15.0" fill="rgb(240,161,38)" rx="2" ry="2" />
<text  x="1192.10" y="191.5" ></text>
</g>
</g>
</svg>
