<?xml version="1.0" standalone="no"?>
<!DOCTYPE svg PUBLIC "-//W3C//DTD SVG 1.1//EN" "http://www.w3.org/Graphics/SVG/1.1/DTD/svg11.dtd">
<svg version="1.1" width="1200" height="486" onload="init(evt)" viewBox="0 0 1200 486" xmlns="http://www.w3.org/2000/svg" xmlns:xlink="http://www.w3.org/1999/xlink">
<!-- Flame graph stack visualization. See https://github.com/brendangregg/FlameGraph for latest version, and http://www.brendangregg.com/flamegraphs.html for examples. -->
<!-- NOTES:  -->
<defs>
	<linearGradient id="background" y1="0" y2="1" x1="0" x2="0" >
		<stop stop-color="#eeeeee" offset="5%" />
		<stop stop-color="#eeeeb0" offset="95%" />
	</linearGradient>
</defs>
<style type="text/css">
	text { font-family:Verdana; font-size:12px; fill:rgb(0,0,0); }
	#search, #ignorecase { opacity:0.1; cursor:pointer; }
	#search:hover, #search.show, #ignorecase:hover, #ignorecase.show { opacity:1; }
	#subtitle { text-anchor:middle; font-color:rgb(160,160,160); }
	#title { text-anchor:middle; font-size:17px}
	#unzoom { cursor:pointer; }
	#frames > *:hover { stroke:black; stroke-width:0.5; cursor:pointer; }
	.hide { display:none; }
	.parent { opacity:0.5; }
</style>
<script type="text/ecmascript">
<![CDATA[
	"use strict";
	var details, searchbtn, unzoombtn, matchedtxt, svg, searching, currentSearchTerm, ignorecase, ignorecaseBtn;
	function init(evt) {
		details = document.getElementById("details").firstChild;
		searchbtn = document.getElementById("search");
		ignorecaseBtn = document.getElementById("ignorecase");
		unzoombtn = document.getElementById("unzoom");
		matchedtxt = document.getElementById("matched");
		svg = document.getElementsByTagName("svg")[0];
		searching = 0;
		currentSearchTerm = null;

		// use GET parameters to restore a flamegraphs state.
		var params = get_params();
		if (params.x && params.y)
			zoom(find_group(document.querySelector('[x="' + params.x + '"][y="' + params.y + '"]')));
                if (params.s) search(params.s);
	}

	// event listeners
	window.addEventListener("click", function(e) {
		var target = find_group(e.target);
		if (target) {
			if (target.nodeName == "a") {
				if (e.ctrlKey === false) return;
				e.preventDefault();
			}
			if (target.classList.contains("parent")) unzoom(true);
			zoom(target);
			if (!document.querySelector('.parent')) {
				// we have basically done a clearzoom so clear the url
				var params = get_params();
				if (params.x) delete params.x;
				if (params.y) delete params.y;
				history.replaceState(null, null, parse_params(params));
				unzoombtn.classList.add("hide");
				return;
			}

			// set parameters for zoom state
			var el = target.querySelector("rect");
			if (el && el.attributes && el.attributes.y && el.attributes._orig_x) {
				var params = get_params()
				params.x = el.attributes._orig_x.value;
				params.y = el.attributes.y.value;
				history.replaceState(null, null, parse_params(params));
			}
		}
		else if (e.target.id == "unzoom") clearzoom();
		else if (e.target.id == "search") search_prompt();
		else if (e.target.id == "ignorecase") toggle_ignorecase();
	}, false)

	// mouse-over for info
	// show
	window.addEventListener("mouseover", function(e) {
		var target = find_group(e.target);
		if (target) details.nodeValue = "Function: " + g_to_text(target);
	}, false)

	// clear
	window.addEventListener("mouseout", function(e) {
		var target = find_group(e.target);
		if (target) details.nodeValue = ' ';
	}, false)

	// ctrl-F for search
	// ctrl-I to toggle case-sensitive search
	window.addEventListener("keydown",function (e) {
		if (e.keyCode === 114 || (e.ctrlKey && e.keyCode === 70)) {
			e.preventDefault();
			search_prompt();
		}
		else if (e.ctrlKey && e.keyCode === 73) {
			e.preventDefault();
			toggle_ignorecase();
		}
	}, false)

	// functions
	function get_params() {
		var params = {};
		var paramsarr = window.location.search.substr(1).split('&');
		for (var i = 0; i < paramsarr.length; ++i) {
			var tmp = paramsarr[i].split("=");
			if (!tmp[0] || !tmp[1]) continue;
			params[tmp[0]]  = decodeURIComponent(tmp[1]);
		}
		return params;
	}
	function parse_params(params) {
		var uri = "?";
		for (var key in params) {
			uri += key + '=' + encodeURIComponent(params[key]) + '&';
		}
		if (uri.slice(-1) == "&")
			uri = uri.substring(0, uri.length - 1);
		if (uri == '?')
			uri = window.location.href.split('?')[0];
		return uri;
	}
	function find_child(node, selector) {
		var children = node.querySelectorAll(selector);
		if (children.length) return children[0];
	}
	function find_group(node) {
		var parent = node.parentElement;
		if (!parent) return;
		if (parent.id == "frames") return node;
		return find_group(parent);
	}
	function orig_save(e, attr, val) {
		if (e.attributes["_orig_" + attr] != undefined) return;
		if (e.attributes[attr] == undefined) return;
		if (val == undefined) val = e.attributes[attr].value;
		e.setAttribute("_orig_" + attr, val);
	}
	function orig_load(e, attr) {
		if (e.attributes["_orig_"+attr] == undefined) return;
		e.attributes[attr].value = e.attributes["_orig_" + attr].value;
		e.removeAttribute("_orig_"+attr);
	}
	function g_to_text(e) {
		var text = find_child(e, "title").firstChild.nodeValue;
		return (text)
	}
	function g_to_func(e) {
		var func = g_to_text(e);
		// if there's any manipulation we want to do to the function
		// name before it's searched, do it here before returning.
		return (func);
	}
	function update_text(e) {
		var r = find_child(e, "rect");
		var t = find_child(e, "text");
		var w = parseFloat(r.attributes.width.value) -3;
		var txt = find_child(e, "title").textContent.replace(/\([^(]*\)$/,"");
		t.attributes.x.value = parseFloat(r.attributes.x.value) + 3;

		// Smaller than this size won't fit anything
		if (w < 2 * 12 * 0.59) {
			t.textContent = "";
			return;
		}

		t.textContent = txt;
		var sl = t.getSubStringLength(0, txt.length);
		// check if only whitespace or if we can fit the entire string into width w
		if (/^ *$/.test(txt) || sl < w)
			return;

		// this isn't perfect, but gives a good starting point
		// and avoids calling getSubStringLength too often
		var start = Math.floor((w/sl) * txt.length);
		for (var x = start; x > 0; x = x-2) {
			if (t.getSubStringLength(0, x + 2) <= w) {
				t.textContent = txt.substring(0, x) + "..";
				return;
			}
		}
		t.textContent = "";
	}

	// zoom
	function zoom_reset(e) {
		if (e.attributes != undefined) {
			orig_load(e, "x");
			orig_load(e, "width");
		}
		if (e.childNodes == undefined) return;
		for (var i = 0, c = e.childNodes; i < c.length; i++) {
			zoom_reset(c[i]);
		}
	}
	function zoom_child(e, x, ratio) {
		if (e.attributes != undefined) {
			if (e.attributes.x != undefined) {
				orig_save(e, "x");
				e.attributes.x.value = (parseFloat(e.attributes.x.value) - x - 10) * ratio + 10;
				if (e.tagName == "text")
					e.attributes.x.value = find_child(e.parentNode, "rect[x]").attributes.x.value + 3;
			}
			if (e.attributes.width != undefined) {
				orig_save(e, "width");
				e.attributes.width.value = parseFloat(e.attributes.width.value) * ratio;
			}
		}

		if (e.childNodes == undefined) return;
		for (var i = 0, c = e.childNodes; i < c.length; i++) {
			zoom_child(c[i], x - 10, ratio);
		}
	}
	function zoom_parent(e) {
		if (e.attributes) {
			if (e.attributes.x != undefined) {
				orig_save(e, "x");
				e.attributes.x.value = 10;
			}
			if (e.attributes.width != undefined) {
				orig_save(e, "width");
				e.attributes.width.value = parseInt(svg.width.baseVal.value) - (10 * 2);
			}
		}
		if (e.childNodes == undefined) return;
		for (var i = 0, c = e.childNodes; i < c.length; i++) {
			zoom_parent(c[i]);
		}
	}
	function zoom(node) {
		var attr = find_child(node, "rect").attributes;
		var width = parseFloat(attr.width.value);
		var xmin = parseFloat(attr.x.value);
		var xmax = parseFloat(xmin + width);
		var ymin = parseFloat(attr.y.value);
		var ratio = (svg.width.baseVal.value - 2 * 10) / width;

		// XXX: Workaround for JavaScript float issues (fix me)
		var fudge = 0.0001;

		unzoombtn.classList.remove("hide");

		var el = document.getElementById("frames").children;
		for (var i = 0; i < el.length; i++) {
			var e = el[i];
			var a = find_child(e, "rect").attributes;
			var ex = parseFloat(a.x.value);
			var ew = parseFloat(a.width.value);
			var upstack;
			// Is it an ancestor
			if (0 == 0) {
				upstack = parseFloat(a.y.value) > ymin;
			} else {
				upstack = parseFloat(a.y.value) < ymin;
			}
			if (upstack) {
				// Direct ancestor
				if (ex <= xmin && (ex+ew+fudge) >= xmax) {
					e.classList.add("parent");
					zoom_parent(e);
					update_text(e);
				}
				// not in current path
				else
					e.classList.add("hide");
			}
			// Children maybe
			else {
				// no common path
				if (ex < xmin || ex + fudge >= xmax) {
					e.classList.add("hide");
				}
				else {
					zoom_child(e, xmin, ratio);
					update_text(e);
				}
			}
		}
		search();
	}
	function unzoom(dont_update_text) {
		unzoombtn.classList.add("hide");
		var el = document.getElementById("frames").children;
		for(var i = 0; i < el.length; i++) {
			el[i].classList.remove("parent");
			el[i].classList.remove("hide");
			zoom_reset(el[i]);
			if(!dont_update_text) update_text(el[i]);
		}
		search();
	}
	function clearzoom() {
		unzoom();

		// remove zoom state
		var params = get_params();
		if (params.x) delete params.x;
		if (params.y) delete params.y;
		history.replaceState(null, null, parse_params(params));
	}

	// search
	function toggle_ignorecase() {
		ignorecase = !ignorecase;
		if (ignorecase) {
			ignorecaseBtn.classList.add("show");
		} else {
			ignorecaseBtn.classList.remove("show");
		}
		reset_search();
		search();
	}
	function reset_search() {
		var el = document.querySelectorAll("#frames rect");
		for (var i = 0; i < el.length; i++) {
			orig_load(el[i], "fill")
		}
		var params = get_params();
		delete params.s;
		history.replaceState(null, null, parse_params(params));
	}
	function search_prompt() {
		if (!searching) {
			var term = prompt("Enter a search term (regexp " +
			    "allowed, eg: ^ext4_)"
			    + (ignorecase ? ", ignoring case" : "")
			    + "\nPress Ctrl-i to toggle case sensitivity", "");
			if (term != null) search(term);
		} else {
			reset_search();
			searching = 0;
			currentSearchTerm = null;
			searchbtn.classList.remove("show");
			searchbtn.firstChild.nodeValue = "Search"
			matchedtxt.classList.add("hide");
			matchedtxt.firstChild.nodeValue = ""
		}
	}
	function search(term) {
		if (term) currentSearchTerm = term;

		var re = new RegExp(currentSearchTerm, ignorecase ? 'i' : '');
		var el = document.getElementById("frames").children;
		var matches = new Object();
		var maxwidth = 0;
		for (var i = 0; i < el.length; i++) {
			var e = el[i];
			var func = g_to_func(e);
			var rect = find_child(e, "rect");
			if (func == null || rect == null)
				continue;

			// Save max width. Only works as we have a root frame
			var w = parseFloat(rect.attributes.width.value);
			if (w > maxwidth)
				maxwidth = w;

			if (func.match(re)) {
				// highlight
				var x = parseFloat(rect.attributes.x.value);
				orig_save(rect, "fill");
				rect.attributes.fill.value = "rgb(230,0,230)";

				// remember matches
				if (matches[x] == undefined) {
					matches[x] = w;
				} else {
					if (w > matches[x]) {
						// overwrite with parent
						matches[x] = w;
					}
				}
				searching = 1;
			}
		}
		if (!searching)
			return;
		var params = get_params();
		params.s = currentSearchTerm;
		history.replaceState(null, null, parse_params(params));

		searchbtn.classList.add("show");
		searchbtn.firstChild.nodeValue = "Reset Search";

		// calculate percent matched, excluding vertical overlap
		var count = 0;
		var lastx = -1;
		var lastw = 0;
		var keys = Array();
		for (k in matches) {
			if (matches.hasOwnProperty(k))
				keys.push(k);
		}
		// sort the matched frames by their x location
		// ascending, then width descending
		keys.sort(function(a, b){
			return a - b;
		});
		// Step through frames saving only the biggest bottom-up frames
		// thanks to the sort order. This relies on the tree property
		// where children are always smaller than their parents.
		var fudge = 0.0001;	// JavaScript floating point
		for (var k in keys) {
			var x = parseFloat(keys[k]);
			var w = matches[keys[k]];
			if (x >= lastx + lastw - fudge) {
				count += w;
				lastx = x;
				lastw = w;
			}
		}
		// display matched percent
		matchedtxt.classList.remove("hide");
		var pct = 100 * count / maxwidth;
		if (pct != 100) pct = pct.toFixed(1)
		matchedtxt.firstChild.nodeValue = "Matched: " + pct + "%";
	}
]]>
</script>
<rect x="0.0" y="0" width="1200.0" height="486.0" fill="url(#background)"  />
<text id="title" x="600.00" y="24" >Flame Graph</text>
<text id="details" x="10.00" y="469" > </text>
<text id="unzoom" x="10.00" y="24" class="hide">Reset Zoom</text>
<text id="search" x="1090.00" y="24" >Search</text>
<text id="ignorecase" x="1174.00" y="24" >ic</text>
<text id="matched" x="1090.00" y="469" > </text>
<g id="frames">
<g >
<title>VP8DecodeMB (9,183,321 samples, 2.03%)</title><rect x="156.9" y="405" width="24.0" height="15.0" fill="rgb(208,18,4)" rx="2" ry="2" />
<text  x="159.91" y="415.5" >V..</text>
</g>
<g >
<title>GetLargeValue (30,228,564 samples, 6.69%)</title><rect x="312.3" y="389" width="79.0" height="15.0" fill="rgb(243,175,42)" rx="2" ry="2" />
<text  x="315.34" y="399.5" >GetLargeV..</text>
</g>
<g >
<title>[unknown] (339,950,427 samples, 75.25%)</title><rect x="293.0" y="405" width="888.0" height="15.0" fill="rgb(210,24,5)" rx="2" ry="2" />
<text  x="296.05" y="415.5" >[unknown]</text>
</g>
<g >
<title>[unknown] (211,142,804 samples, 46.74%)</title><rect x="621.4" y="389" width="551.5" height="15.0" fill="rgb(210,24,5)" rx="2" ry="2" />
<text  x="624.40" y="399.5" >[unknown]</text>
</g>
<g >
<title>__folio_alloc (730,076 samples, 0.16%)</title><rect x="264.9" y="293" width="1.9" height="15.0" fill="rgb(224,91,21)" rx="2" ry="2" />
<text  x="267.90" y="303.5" ></text>
</g>
<g >
<title>VFilter8_SSE2 (923,154 samples, 0.20%)</title><rect x="468.2" y="389" width="2.4" height="15.0" fill="rgb(225,92,22)" rx="2" ry="2" />
<text  x="471.22" y="399.5" ></text>
</g>
<g >
<title>__libc_write (923,288 samples, 0.20%)</title><rect x="1175.3" y="389" width="2.4" height="15.0" fill="rgb(238,154,37)" rx="2" ry="2" />
<text  x="1178.30" y="399.5" ></text>
</g>
<g >
<title>bprm_execve (324,900 samples, 0.07%)</title><rect x="1180.1" y="325" width="0.9" height="15.0" fill="rgb(218,61,14)" rx="2" ry="2" />
<text  x="1183.12" y="335.5" ></text>
</g>
<g >
<title>WebPIDecode (923,155 samples, 0.20%)</title><rect x="1163.2" y="373" width="2.5" height="15.0" fill="rgb(230,119,28)" rx="2" ry="2" />
<text  x="1166.25" y="383.5" ></text>
</g>
<g >
<title>nvme_prep_rq.part.0 (923,266 samples, 0.20%)</title><rect x="1172.9" y="133" width="2.4" height="15.0" fill="rgb(214,42,10)" rx="2" ry="2" />
<text  x="1175.88" y="143.5" ></text>
</g>
<g >
<title>cgroup_rstat_flush_locked (923,288 samples, 0.20%)</title><rect x="1175.3" y="197" width="2.4" height="15.0" fill="rgb(209,19,4)" rx="2" ry="2" />
<text  x="1178.30" y="207.5" ></text>
</g>
<g >
<title>HFilter16i_SSE2 (5,542,100 samples, 1.23%)</title><rect x="398.3" y="389" width="14.5" height="15.0" fill="rgb(233,131,31)" rx="2" ry="2" />
<text  x="401.30" y="399.5" ></text>
</g>
<g >
<title>blk_finish_plug (923,266 samples, 0.20%)</title><rect x="1172.9" y="197" width="2.4" height="15.0" fill="rgb(231,119,28)" rx="2" ry="2" />
<text  x="1175.88" y="207.5" ></text>
</g>
<g >
<title>entry_SYSCALL_64_after_hwframe (324,900 samples, 0.07%)</title><rect x="1180.1" y="389" width="0.9" height="15.0" fill="rgb(218,63,15)" rx="2" ry="2" />
<text  x="1183.12" y="399.5" ></text>
</g>
<g >
<title>DoFilter6_SSE2 (4,617,501 samples, 1.02%)</title><rect x="295.5" y="389" width="12.0" height="15.0" fill="rgb(237,148,35)" rx="2" ry="2" />
<text  x="298.46" y="399.5" ></text>
</g>
<g >
<title>mem_cgroup_css_rstat_flush (923,288 samples, 0.20%)</title><rect x="1175.3" y="181" width="2.4" height="15.0" fill="rgb(253,222,53)" rx="2" ry="2" />
<text  x="1178.30" y="191.5" ></text>
</g>
<g >
<title>VP8DecodeMB (7,260,063 samples, 1.61%)</title><rect x="470.6" y="389" width="19.0" height="15.0" fill="rgb(208,18,4)" rx="2" ry="2" />
<text  x="473.63" y="399.5" ></text>
</g>
<g >
<title>iommu_v1_map_pages (923,266 samples, 0.20%)</title><rect x="1172.9" y="37" width="2.4" height="15.0" fill="rgb(219,65,15)" rx="2" ry="2" />
<text  x="1175.88" y="47.5" ></text>
</g>
<g >
<title>__x64_sys_readlink (645,095 samples, 0.14%)</title><rect x="1188.1" y="357" width="1.7" height="15.0" fill="rgb(242,171,40)" rx="2" ry="2" />
<text  x="1191.13" y="367.5" ></text>
</g>
<g >
<title>HFilter8_SSE2 (2,772,522 samples, 0.61%)</title><rect x="412.8" y="389" width="7.2" height="15.0" fill="rgb(215,48,11)" rx="2" ry="2" />
<text  x="415.77" y="399.5" ></text>
</g>
<g >
<title>cgroup_rstat_flush_irqsafe (923,288 samples, 0.20%)</title><rect x="1175.3" y="213" width="2.4" height="15.0" fill="rgb(227,103,24)" rx="2" ry="2" />
<text  x="1178.30" y="223.5" ></text>
</g>
<g >
<title>ktime_get_update_offsets_now (730,076 samples, 0.16%)</title><rect x="264.9" y="165" width="1.9" height="15.0" fill="rgb(243,178,42)" rx="2" ry="2" />
<text  x="267.90" y="175.5" ></text>
</g>
<g >
<title>load_elf_binary (69,747 samples, 0.02%)</title><rect x="1189.8" y="309" width="0.2" height="15.0" fill="rgb(223,83,20)" rx="2" ry="2" />
<text  x="1192.82" y="319.5" ></text>
</g>
<g >
<title>VP8PlanarTo24b_SSE2 (2,771,345 samples, 0.61%)</title><rect x="609.4" y="389" width="7.2" height="15.0" fill="rgb(208,15,3)" rx="2" ry="2" />
<text  x="612.36" y="399.5" ></text>
</g>
<g >
<title>handle_mm_fault (645,095 samples, 0.14%)</title><rect x="1188.1" y="229" width="1.7" height="15.0" fill="rgb(234,135,32)" rx="2" ry="2" />
<text  x="1191.13" y="239.5" ></text>
</g>
<g >
<title>kmem_cache_alloc_bulk (324,900 samples, 0.07%)</title><rect x="1180.1" y="213" width="0.9" height="15.0" fill="rgb(234,135,32)" rx="2" ry="2" />
<text  x="1183.12" y="223.5" ></text>
</g>
<g >
<title>__handle_mm_fault (645,095 samples, 0.14%)</title><rect x="1188.1" y="213" width="1.7" height="15.0" fill="rgb(207,9,2)" rx="2" ry="2" />
<text  x="1191.13" y="223.5" ></text>
</g>
<g >
<title>do_syscall_64 (645,095 samples, 0.14%)</title><rect x="1188.1" y="373" width="1.7" height="15.0" fill="rgb(209,20,4)" rx="2" ry="2" />
<text  x="1191.13" y="383.5" ></text>
</g>
<g >
<title>VP8YuvToRgb32_SSE2 (914,354 samples, 0.20%)</title><rect x="616.6" y="389" width="2.4" height="15.0" fill="rgb(241,167,40)" rx="2" ry="2" />
<text  x="619.60" y="399.5" ></text>
</g>
<g >
<title>generic_perform_write (923,288 samples, 0.20%)</title><rect x="1175.3" y="293" width="2.4" height="15.0" fill="rgb(236,146,35)" rx="2" ry="2" />
<text  x="1178.30" y="303.5" ></text>
</g>
<g >
<title>VP8ParseIntraModeRow (4,618,619 samples, 1.02%)</title><rect x="183.3" y="405" width="12.1" height="15.0" fill="rgb(231,121,29)" rx="2" ry="2" />
<text  x="186.31" y="415.5" ></text>
</g>
<g >
<title>UpsampleRgbLinePair_SSE2 (4,619,324 samples, 1.02%)</title><rect x="137.6" y="405" width="12.1" height="15.0" fill="rgb(220,70,16)" rx="2" ry="2" />
<text  x="140.61" y="415.5" ></text>
</g>
<g >
<title>do_execveat_common.isra.0 (324,900 samples, 0.07%)</title><rect x="1180.1" y="341" width="0.9" height="15.0" fill="rgb(231,123,29)" rx="2" ry="2" />
<text  x="1183.12" y="351.5" ></text>
</g>
<g >
<title>entry_SYSCALL_64_after_hwframe (69,747 samples, 0.02%)</title><rect x="1189.8" y="389" width="0.2" height="15.0" fill="rgb(218,63,15)" rx="2" ry="2" />
<text  x="1192.82" y="399.5" ></text>
</g>
<g >
<title>UpsampleRgbLinePair_SSE2 (1,832,025 samples, 0.41%)</title><rect x="458.6" y="389" width="4.8" height="15.0" fill="rgb(220,70,16)" rx="2" ry="2" />
<text  x="461.61" y="399.5" ></text>
</g>
<g >
<title>ReconstructRow (2,770,877 samples, 0.61%)</title><rect x="79.8" y="405" width="7.2" height="15.0" fill="rgb(225,93,22)" rx="2" ry="2" />
<text  x="82.76" y="415.5" ></text>
</g>
<g >
<title>balance_dirty_pages (923,288 samples, 0.20%)</title><rect x="1175.3" y="261" width="2.4" height="15.0" fill="rgb(247,193,46)" rx="2" ry="2" />
<text  x="1178.30" y="271.5" ></text>
</g>
<g >
<title>mas_preallocate (324,900 samples, 0.07%)</title><rect x="1180.1" y="245" width="0.9" height="15.0" fill="rgb(206,8,2)" rx="2" ry="2" />
<text  x="1183.12" y="255.5" ></text>
</g>
<g >
<title>VP8ParseIntraModeRow (45,853,472 samples, 10.15%)</title><rect x="489.6" y="389" width="119.8" height="15.0" fill="rgb(231,121,29)" rx="2" ry="2" />
<text  x="492.59" y="399.5" >VP8ParseIntraM..</text>
</g>
<g >
<title>perf_event_exec (69,747 samples, 0.02%)</title><rect x="1189.8" y="277" width="0.2" height="15.0" fill="rgb(218,60,14)" rx="2" ry="2" />
<text  x="1192.82" y="287.5" ></text>
</g>
<g >
<title>ksys_write (923,288 samples, 0.20%)</title><rect x="1175.3" y="341" width="2.4" height="15.0" fill="rgb(205,4,1)" rx="2" ry="2" />
<text  x="1178.30" y="351.5" ></text>
</g>
<g >
<title>do_user_addr_fault (645,095 samples, 0.14%)</title><rect x="1188.1" y="245" width="1.7" height="15.0" fill="rgb(228,108,25)" rx="2" ry="2" />
<text  x="1191.13" y="255.5" ></text>
</g>
<g >
<title>sysvec_apic_timer_interrupt (730,076 samples, 0.16%)</title><rect x="264.9" y="213" width="1.9" height="15.0" fill="rgb(220,69,16)" rx="2" ry="2" />
<text  x="267.90" y="223.5" ></text>
</g>
<g >
<title>balance_dirty_pages_ratelimited_flags (923,288 samples, 0.20%)</title><rect x="1175.3" y="277" width="2.4" height="15.0" fill="rgb(207,10,2)" rx="2" ry="2" />
<text  x="1178.30" y="287.5" ></text>
</g>
<g >
<title>__iommu_map (923,266 samples, 0.20%)</title><rect x="1172.9" y="53" width="2.4" height="15.0" fill="rgb(208,17,4)" rx="2" ry="2" />
<text  x="1175.88" y="63.5" ></text>
</g>
<g >
<title>__x64_sys_execve (69,747 samples, 0.02%)</title><rect x="1189.8" y="357" width="0.2" height="15.0" fill="rgb(247,193,46)" rx="2" ry="2" />
<text  x="1192.82" y="367.5" ></text>
</g>
<g >
<title>syscall_exit_to_user_mode (923,266 samples, 0.20%)</title><rect x="1172.9" y="341" width="2.4" height="15.0" fill="rgb(251,211,50)" rx="2" ry="2" />
<text  x="1175.88" y="351.5" ></text>
</g>
<g >
<title>setup_arg_pages (324,900 samples, 0.07%)</title><rect x="1180.1" y="293" width="0.9" height="15.0" fill="rgb(222,82,19)" rx="2" ry="2" />
<text  x="1183.12" y="303.5" ></text>
</g>
<g >
<title>entry_SYSCALL_64_after_hwframe (923,288 samples, 0.20%)</title><rect x="1175.3" y="373" width="2.4" height="15.0" fill="rgb(218,63,15)" rx="2" ry="2" />
<text  x="1178.30" y="383.5" ></text>
</g>
<g >
<title>BuildHuffmanTable (2,771,938 samples, 0.61%)</title><rect x="10.0" y="405" width="7.2" height="15.0" fill="rgb(226,101,24)" rx="2" ry="2" />
<text  x="13.00" y="415.5" ></text>
</g>
<g >
<title>FinishRow (924,116 samples, 0.20%)</title><rect x="48.6" y="405" width="2.4" height="15.0" fill="rgb(213,41,9)" rx="2" ry="2" />
<text  x="51.58" y="415.5" ></text>
</g>
<g >
<title>perf-exec (69,747 samples, 0.02%)</title><rect x="1189.8" y="421" width="0.2" height="15.0" fill="rgb(231,123,29)" rx="2" ry="2" />
<text  x="1192.82" y="431.5" ></text>
</g>
<g >
<title>asm_exc_page_fault (730,076 samples, 0.16%)</title><rect x="264.9" y="389" width="1.9" height="15.0" fill="rgb(225,93,22)" rx="2" ry="2" />
<text  x="267.90" y="399.5" ></text>
</g>
<g >
<title>hrtimer_interrupt (730,076 samples, 0.16%)</title><rect x="264.9" y="181" width="1.9" height="15.0" fill="rgb(228,109,26)" rx="2" ry="2" />
<text  x="267.90" y="191.5" ></text>
</g>
<g >
<title>_dl_get_origin (645,095 samples, 0.14%)</title><rect x="1188.1" y="405" width="1.7" height="15.0" fill="rgb(225,94,22)" rx="2" ry="2" />
<text  x="1191.13" y="415.5" ></text>
</g>
<g >
<title>HFilter16_SSE2 (1,756,338 samples, 0.39%)</title><rect x="393.7" y="389" width="4.6" height="15.0" fill="rgb(211,31,7)" rx="2" ry="2" />
<text  x="396.71" y="399.5" ></text>
</g>
<g >
<title>handle_mm_fault (730,076 samples, 0.16%)</title><rect x="264.9" y="341" width="1.9" height="15.0" fill="rgb(234,135,32)" rx="2" ry="2" />
<text  x="267.90" y="351.5" ></text>
</g>
<g >
<title>HE8uv_C (923,595 samples, 0.20%)</title><rect x="391.3" y="389" width="2.4" height="15.0" fill="rgb(226,98,23)" rx="2" ry="2" />
<text  x="394.30" y="399.5" ></text>
</g>
<g >
<title>do_execveat_common.isra.0 (69,747 samples, 0.02%)</title><rect x="1189.8" y="341" width="0.2" height="15.0" fill="rgb(231,123,29)" rx="2" ry="2" />
<text  x="1192.82" y="351.5" ></text>
</g>
<g >
<title>begin_new_exec (69,747 samples, 0.02%)</title><rect x="1189.8" y="293" width="0.2" height="15.0" fill="rgb(245,184,44)" rx="2" ry="2" />
<text  x="1192.82" y="303.5" ></text>
</g>
<g >
<title>__fput (923,266 samples, 0.20%)</title><rect x="1172.9" y="293" width="2.4" height="15.0" fill="rgb(248,200,47)" rx="2" ry="2" />
<text  x="1175.88" y="303.5" ></text>
</g>
<g >
<title>__sysvec_apic_timer_interrupt (730,076 samples, 0.16%)</title><rect x="264.9" y="197" width="1.9" height="15.0" fill="rgb(242,173,41)" rx="2" ry="2" />
<text  x="267.90" y="207.5" ></text>
</g>
<g >
<title>__close_nocancel (923,266 samples, 0.20%)</title><rect x="1172.9" y="389" width="2.4" height="15.0" fill="rgb(228,109,26)" rx="2" ry="2" />
<text  x="1175.88" y="399.5" ></text>
</g>
<g >
<title>do_syscall_64 (923,288 samples, 0.20%)</title><rect x="1175.3" y="357" width="2.4" height="15.0" fill="rgb(209,20,4)" rx="2" ry="2" />
<text  x="1178.30" y="367.5" ></text>
</g>
<g >
<title>__memmove_avx_unaligned (924,276 samples, 0.20%)</title><rect x="1177.7" y="389" width="2.4" height="15.0" fill="rgb(254,228,54)" rx="2" ry="2" />
<text  x="1180.71" y="399.5" ></text>
</g>
<g >
<title>VP8LReadBits (923,702 samples, 0.20%)</title><rect x="1160.8" y="373" width="2.4" height="15.0" fill="rgb(236,146,35)" rx="2" ry="2" />
<text  x="1163.83" y="383.5" ></text>
</g>
<g >
<title>TransformDC_C (921,228 samples, 0.20%)</title><rect x="434.5" y="389" width="2.4" height="15.0" fill="rgb(219,65,15)" rx="2" ry="2" />
<text  x="437.48" y="399.5" ></text>
</g>
<g >
<title>__blk_flush_plug (923,266 samples, 0.20%)</title><rect x="1172.9" y="181" width="2.4" height="15.0" fill="rgb(217,57,13)" rx="2" ry="2" />
<text  x="1175.88" y="191.5" ></text>
</g>
<g >
<title>do_fault (645,095 samples, 0.14%)</title><rect x="1188.1" y="197" width="1.7" height="15.0" fill="rgb(248,200,47)" rx="2" ry="2" />
<text  x="1191.13" y="207.5" ></text>
</g>
<g >
<title>__alloc_pages (730,076 samples, 0.16%)</title><rect x="264.9" y="277" width="1.9" height="15.0" fill="rgb(233,129,30)" rx="2" ry="2" />
<text  x="267.90" y="287.5" ></text>
</g>
<g >
<title>__vma_adjust (324,900 samples, 0.07%)</title><rect x="1180.1" y="261" width="0.9" height="15.0" fill="rgb(224,87,20)" rx="2" ry="2" />
<text  x="1183.12" y="271.5" ></text>
</g>
<g >
<title>VFilter16i_SSE2 (2,770,715 samples, 0.61%)</title><rect x="149.7" y="405" width="7.2" height="15.0" fill="rgb(243,175,42)" rx="2" ry="2" />
<text  x="152.67" y="415.5" ></text>
</g>
<g >
<title>[unknown] (69,747 samples, 0.02%)</title><rect x="1189.8" y="405" width="0.2" height="15.0" fill="rgb(210,24,5)" rx="2" ry="2" />
<text  x="1192.82" y="415.5" ></text>
</g>
<g >
<title>do_syscall_64 (324,900 samples, 0.07%)</title><rect x="1180.1" y="373" width="0.9" height="15.0" fill="rgb(209,20,4)" rx="2" ry="2" />
<text  x="1183.12" y="383.5" ></text>
</g>
<g >
<title>blk_mq_flush_plug_list (923,266 samples, 0.20%)</title><rect x="1172.9" y="165" width="2.4" height="15.0" fill="rgb(215,46,11)" rx="2" ry="2" />
<text  x="1175.88" y="175.5" ></text>
</g>
<g >
<title>exc_page_fault (645,095 samples, 0.14%)</title><rect x="1188.1" y="261" width="1.7" height="15.0" fill="rgb(212,35,8)" rx="2" ry="2" />
<text  x="1191.13" y="271.5" ></text>
</g>
<g >
<title>HD4_C (4,618,533 samples, 1.02%)</title><rect x="60.5" y="405" width="12.0" height="15.0" fill="rgb(226,100,23)" rx="2" ry="2" />
<text  x="63.45" y="415.5" ></text>
</g>
<g >
<title>VP8ParseProba (2,618,820 samples, 0.58%)</title><rect x="195.4" y="405" width="6.8" height="15.0" fill="rgb(224,88,21)" rx="2" ry="2" />
<text  x="198.37" y="415.5" ></text>
</g>
<g >
<title>VR4_SSE2 (1,846,655 samples, 0.41%)</title><rect x="266.8" y="405" width="4.8" height="15.0" fill="rgb(237,150,35)" rx="2" ry="2" />
<text  x="269.81" y="415.5" ></text>
</g>
<g >
<title>next_uptodate_page (645,095 samples, 0.14%)</title><rect x="1188.1" y="165" width="1.7" height="15.0" fill="rgb(210,25,6)" rx="2" ry="2" />
<text  x="1191.13" y="175.5" ></text>
</g>
<g >
<title>__mem_cgroup_flush_stats (923,288 samples, 0.20%)</title><rect x="1175.3" y="229" width="2.4" height="15.0" fill="rgb(208,16,3)" rx="2" ry="2" />
<text  x="1178.30" y="239.5" ></text>
</g>
<g >
<title>__x64_sys_execve (324,900 samples, 0.07%)</title><rect x="1180.1" y="357" width="0.9" height="15.0" fill="rgb(247,193,46)" rx="2" ry="2" />
<text  x="1183.12" y="367.5" ></text>
</g>
<g >
<title>read_tsc (730,076 samples, 0.16%)</title><rect x="264.9" y="149" width="1.9" height="15.0" fill="rgb(206,7,1)" rx="2" ry="2" />
<text  x="267.90" y="159.5" ></text>
</g>
<g >
<title>do_readlinkat (645,095 samples, 0.14%)</title><rect x="1188.1" y="341" width="1.7" height="15.0" fill="rgb(221,76,18)" rx="2" ry="2" />
<text  x="1191.13" y="351.5" ></text>
</g>
<g >
<title>VP8LDoFillBitWindow (2,771,630 samples, 0.61%)</title><rect x="1153.6" y="373" width="7.2" height="15.0" fill="rgb(219,67,16)" rx="2" ry="2" />
<text  x="1156.60" y="383.5" ></text>
</g>
<g >
<title>user_path_at_empty (645,095 samples, 0.14%)</title><rect x="1188.1" y="325" width="1.7" height="15.0" fill="rgb(226,99,23)" rx="2" ry="2" />
<text  x="1191.13" y="335.5" ></text>
</g>
<g >
<title>YUV444ToRGB_SSE2 (923,047 samples, 0.20%)</title><rect x="619.0" y="389" width="2.4" height="15.0" fill="rgb(247,193,46)" rx="2" ry="2" />
<text  x="621.99" y="399.5" ></text>
</g>
<g >
<title>VFilter16_SSE2 (1,848,487 samples, 0.41%)</title><rect x="463.4" y="389" width="4.8" height="15.0" fill="rgb(221,75,18)" rx="2" ry="2" />
<text  x="466.39" y="399.5" ></text>
</g>
<g >
<title>nvme_queue_rqs (923,266 samples, 0.20%)</title><rect x="1172.9" y="149" width="2.4" height="15.0" fill="rgb(250,211,50)" rx="2" ry="2" />
<text  x="1175.88" y="159.5" ></text>
</g>
<g >
<title>ReconstructRow (3,693,381 samples, 0.82%)</title><rect x="422.4" y="389" width="9.7" height="15.0" fill="rgb(225,93,22)" rx="2" ry="2" />
<text  x="425.43" y="399.5" ></text>
</g>
<g >
<title>strncpy_from_user (645,095 samples, 0.14%)</title><rect x="1188.1" y="293" width="1.7" height="15.0" fill="rgb(248,198,47)" rx="2" ry="2" />
<text  x="1191.13" y="303.5" ></text>
</g>
<g >
<title>GetLargeValue (924,095 samples, 0.20%)</title><rect x="1148.8" y="373" width="2.4" height="15.0" fill="rgb(243,175,42)" rx="2" ry="2" />
<text  x="1151.77" y="383.5" ></text>
</g>
<g >
<title>memset (324,900 samples, 0.07%)</title><rect x="1180.1" y="197" width="0.9" height="15.0" fill="rgb(208,14,3)" rx="2" ry="2" />
<text  x="1183.12" y="207.5" ></text>
</g>
<g >
<title>VP8PlanarTo24b_SSE2 (13,842,107 samples, 3.06%)</title><rect x="202.2" y="405" width="36.2" height="15.0" fill="rgb(208,15,3)" rx="2" ry="2" />
<text  x="205.21" y="415.5" >VP8..</text>
</g>
<g >
<title>get_page_from_freelist (730,076 samples, 0.16%)</title><rect x="264.9" y="261" width="1.9" height="15.0" fill="rgb(252,218,52)" rx="2" ry="2" />
<text  x="267.90" y="271.5" ></text>
</g>
<g >
<title>Transform_SSE2 (5,541,834 samples, 1.23%)</title><rect x="120.8" y="405" width="14.5" height="15.0" fill="rgb(233,129,30)" rx="2" ry="2" />
<text  x="123.78" y="415.5" ></text>
</g>
<g >
<title>TransformDC_C (1,846,588 samples, 0.41%)</title><rect x="116.0" y="405" width="4.8" height="15.0" fill="rgb(219,65,15)" rx="2" ry="2" />
<text  x="118.95" y="415.5" ></text>
</g>
<g >
<title>shift_arg_pages (324,900 samples, 0.07%)</title><rect x="1180.1" y="277" width="0.9" height="15.0" fill="rgb(245,187,44)" rx="2" ry="2" />
<text  x="1183.12" y="287.5" ></text>
</g>
<g >
<title>LD4_SSE2 (924,275 samples, 0.20%)</title><rect x="74.9" y="405" width="2.4" height="15.0" fill="rgb(242,173,41)" rx="2" ry="2" />
<text  x="77.93" y="415.5" ></text>
</g>
<g >
<title>GetCoeffsFast (923,833 samples, 0.20%)</title><rect x="309.9" y="389" width="2.4" height="15.0" fill="rgb(219,64,15)" rx="2" ry="2" />
<text  x="312.93" y="399.5" ></text>
</g>
<g >
<title>asm_sysvec_apic_timer_interrupt (730,076 samples, 0.16%)</title><rect x="264.9" y="229" width="1.9" height="15.0" fill="rgb(232,127,30)" rx="2" ry="2" />
<text  x="267.90" y="239.5" ></text>
</g>
<g >
<title>TransformAC3_C (8,313,654 samples, 1.84%)</title><rect x="94.2" y="405" width="21.8" height="15.0" fill="rgb(209,19,4)" rx="2" ry="2" />
<text  x="97.24" y="415.5" >T..</text>
</g>
<g >
<title>mem_cgroup_wb_stats (923,288 samples, 0.20%)</title><rect x="1175.3" y="245" width="2.4" height="15.0" fill="rgb(211,28,6)" rx="2" ry="2" />
<text  x="1178.30" y="255.5" ></text>
</g>
<g >
<title>exc_page_fault (730,076 samples, 0.16%)</title><rect x="264.9" y="373" width="1.9" height="15.0" fill="rgb(212,35,8)" rx="2" ry="2" />
<text  x="267.90" y="383.5" ></text>
</g>
<g >
<title>VP8GetValue (924,090 samples, 0.20%)</title><rect x="180.9" y="405" width="2.4" height="15.0" fill="rgb(230,119,28)" rx="2" ry="2" />
<text  x="183.90" y="415.5" ></text>
</g>
<g >
<title>Transform_SSE2 (8,314,522 samples, 1.84%)</title><rect x="436.9" y="389" width="21.7" height="15.0" fill="rgb(233,129,30)" rx="2" ry="2" />
<text  x="439.89" y="399.5" >T..</text>
</g>
<g >
<title>entry_SYSCALL_64_after_hwframe (923,266 samples, 0.20%)</title><rect x="1172.9" y="373" width="2.4" height="15.0" fill="rgb(218,63,15)" rx="2" ry="2" />
<text  x="1175.88" y="383.5" ></text>
</g>
<g >
<title>filemap_map_pages (645,095 samples, 0.14%)</title><rect x="1188.1" y="181" width="1.7" height="15.0" fill="rgb(229,112,27)" rx="2" ry="2" />
<text  x="1191.13" y="191.5" ></text>
</g>
<g >
<title>asm_exc_page_fault (645,095 samples, 0.14%)</title><rect x="1188.1" y="277" width="1.7" height="15.0" fill="rgb(225,93,22)" rx="2" ry="2" />
<text  x="1191.13" y="287.5" ></text>
</g>
<g >
<title>iommu_dma_map_sg (923,266 samples, 0.20%)</title><rect x="1172.9" y="85" width="2.4" height="15.0" fill="rgb(223,86,20)" rx="2" ry="2" />
<text  x="1175.88" y="95.5" ></text>
</g>
<g >
<title>dma_map_sgtable (923,266 samples, 0.20%)</title><rect x="1172.9" y="117" width="2.4" height="15.0" fill="rgb(237,150,36)" rx="2" ry="2" />
<text  x="1175.88" y="127.5" ></text>
</g>
<g >
<title>filemap_fdatawrite_wbc (923,266 samples, 0.20%)</title><rect x="1172.9" y="245" width="2.4" height="15.0" fill="rgb(210,25,6)" rx="2" ry="2" />
<text  x="1175.88" y="255.5" ></text>
</g>
<g >
<title>clear_page_rep (730,076 samples, 0.16%)</title><rect x="264.9" y="245" width="1.9" height="15.0" fill="rgb(253,221,52)" rx="2" ry="2" />
<text  x="267.90" y="255.5" ></text>
</g>
<g >
<title>HU4_C (924,321 samples, 0.20%)</title><rect x="72.5" y="405" width="2.4" height="15.0" fill="rgb(216,54,13)" rx="2" ry="2" />
<text  x="75.52" y="415.5" ></text>
</g>
<g >
<title>__memmove_avx_unaligned_erms (2,742,499 samples, 0.61%)</title><rect x="1181.0" y="405" width="7.1" height="15.0" fill="rgb(205,0,0)" rx="2" ry="2" />
<text  x="1183.97" y="415.5" ></text>
</g>
<g >
<title>entry_SYSCALL_64_after_hwframe (645,095 samples, 0.14%)</title><rect x="1188.1" y="389" width="1.7" height="15.0" fill="rgb(218,63,15)" rx="2" ry="2" />
<text  x="1191.13" y="399.5" ></text>
</g>
<g >
<title>GetCoeffsFast (3,623,150 samples, 0.80%)</title><rect x="51.0" y="405" width="9.5" height="15.0" fill="rgb(219,64,15)" rx="2" ry="2" />
<text  x="53.99" y="415.5" ></text>
</g>
<g >
<title>load_elf_binary (324,900 samples, 0.07%)</title><rect x="1180.1" y="309" width="0.9" height="15.0" fill="rgb(223,83,20)" rx="2" ry="2" />
<text  x="1183.12" y="319.5" ></text>
</g>
<g >
<title>decode_webp_nat (451,706,401 samples, 99.98%)</title><rect x="10.0" y="421" width="1179.8" height="15.0" fill="rgb(218,61,14)" rx="2" ry="2" />
<text  x="13.00" y="431.5" >decode_webp_nat</text>
</g>
<g >
<title>TM16_SSE2 (922,988 samples, 0.20%)</title><rect x="432.1" y="389" width="2.4" height="15.0" fill="rgb(253,222,53)" rx="2" ry="2" />
<text  x="435.07" y="399.5" ></text>
</g>
<g >
<title>do_syscall_64 (69,747 samples, 0.02%)</title><rect x="1189.8" y="373" width="0.2" height="15.0" fill="rgb(209,20,4)" rx="2" ry="2" />
<text  x="1192.82" y="383.5" ></text>
</g>
<g >
<title>ParseHeadersInternal (924,317 samples, 0.20%)</title><rect x="77.3" y="405" width="2.5" height="15.0" fill="rgb(211,28,6)" rx="2" ry="2" />
<text  x="80.35" y="415.5" ></text>
</g>
<g >
<title>ReadHuffmanCodesHelper (923,275 samples, 0.20%)</title><rect x="1151.2" y="373" width="2.4" height="15.0" fill="rgb(209,22,5)" rx="2" ry="2" />
<text  x="1154.18" y="383.5" ></text>
</g>
<g >
<title>GetCoeffsFast (178,824,079 samples, 39.58%)</title><rect x="681.7" y="373" width="467.1" height="15.0" fill="rgb(219,64,15)" rx="2" ry="2" />
<text  x="684.70" y="383.5" >GetCoeffsFast</text>
</g>
<g >
<title>DC8uvNoTop_SSE2 (922,966 samples, 0.20%)</title><rect x="293.0" y="389" width="2.5" height="15.0" fill="rgb(252,219,52)" rx="2" ry="2" />
<text  x="296.05" y="399.5" ></text>
</g>
<g >
<title>ext4_writepages (923,266 samples, 0.20%)</title><rect x="1172.9" y="213" width="2.4" height="15.0" fill="rgb(240,165,39)" rx="2" ry="2" />
<text  x="1175.88" y="223.5" ></text>
</g>
<g >
<title>bprm_execve (69,747 samples, 0.02%)</title><rect x="1189.8" y="325" width="0.2" height="15.0" fill="rgb(218,61,14)" rx="2" ry="2" />
<text  x="1192.82" y="335.5" ></text>
</g>
<g >
<title>ExtractGreen_SSE2 (2,772,357 samples, 0.61%)</title><rect x="41.3" y="405" width="7.3" height="15.0" fill="rgb(226,96,23)" rx="2" ry="2" />
<text  x="44.34" y="415.5" ></text>
</g>
<g >
<title>IDecode (924,248 samples, 0.20%)</title><rect x="420.0" y="389" width="2.4" height="15.0" fill="rgb(245,185,44)" rx="2" ry="2" />
<text  x="423.01" y="399.5" ></text>
</g>
<g >
<title>exit_to_user_mode_prepare (923,266 samples, 0.20%)</title><rect x="1172.9" y="325" width="2.4" height="15.0" fill="rgb(228,108,25)" rx="2" ry="2" />
<text  x="1175.88" y="335.5" ></text>
</g>
<g >
<title>do_syscall_64 (923,266 samples, 0.20%)</title><rect x="1172.9" y="357" width="2.4" height="15.0" fill="rgb(209,20,4)" rx="2" ry="2" />
<text  x="1175.88" y="367.5" ></text>
</g>
<g >
<title>TM4_SSE2 (2,772,168 samples, 0.61%)</title><rect x="87.0" y="405" width="7.2" height="15.0" fill="rgb(232,128,30)" rx="2" ry="2" />
<text  x="90.00" y="415.5" ></text>
</g>
<g >
<title>__iommu_map_sg (923,266 samples, 0.20%)</title><rect x="1172.9" y="69" width="2.4" height="15.0" fill="rgb(236,146,35)" rx="2" ry="2" />
<text  x="1175.88" y="79.5" ></text>
</g>
<g >
<title>DecodeImageData (23,086,380 samples, 5.11%)</title><rect x="621.4" y="373" width="60.3" height="15.0" fill="rgb(254,229,54)" rx="2" ry="2" />
<text  x="624.40" y="383.5" >Decode..</text>
</g>
<g >
<title>ext4_release_file (923,266 samples, 0.20%)</title><rect x="1172.9" y="277" width="2.4" height="15.0" fill="rgb(225,92,22)" rx="2" ry="2" />
<text  x="1175.88" y="287.5" ></text>
</g>
<g >
<title>Upsample32Pixels_SSE2 (902,433 samples, 0.20%)</title><rect x="135.3" y="405" width="2.3" height="15.0" fill="rgb(223,83,20)" rx="2" ry="2" />
<text  x="138.25" y="415.5" ></text>
</g>
<g >
<title>mas_alloc_nodes (324,900 samples, 0.07%)</title><rect x="1180.1" y="229" width="0.9" height="15.0" fill="rgb(215,46,11)" rx="2" ry="2" />
<text  x="1183.12" y="239.5" ></text>
</g>
<g >
<title>do_user_addr_fault (730,076 samples, 0.16%)</title><rect x="264.9" y="357" width="1.9" height="15.0" fill="rgb(228,108,25)" rx="2" ry="2" />
<text  x="267.90" y="367.5" ></text>
</g>
<g >
<title>vma_alloc_folio (730,076 samples, 0.16%)</title><rect x="264.9" y="309" width="1.9" height="15.0" fill="rgb(245,187,44)" rx="2" ry="2" />
<text  x="267.90" y="319.5" ></text>
</g>
<g >
<title>__memmove_avx_unaligned_erms (2,766,488 samples, 0.61%)</title><rect x="1165.7" y="373" width="7.2" height="15.0" fill="rgb(205,0,0)" rx="2" ry="2" />
<text  x="1168.66" y="383.5" ></text>
</g>
<g >
<title>VP8YuvToRgb32_SSE2 (10,888,280 samples, 2.41%)</title><rect x="238.4" y="405" width="28.4" height="15.0" fill="rgb(241,167,40)" rx="2" ry="2" />
<text  x="241.37" y="415.5" >VP..</text>
</g>
<g >
<title>vfs_write (923,288 samples, 0.20%)</title><rect x="1175.3" y="325" width="2.4" height="15.0" fill="rgb(250,209,50)" rx="2" ry="2" />
<text  x="1178.30" y="335.5" ></text>
</g>
<g >
<title>__handle_mm_fault (730,076 samples, 0.16%)</title><rect x="264.9" y="325" width="1.9" height="15.0" fill="rgb(207,9,2)" rx="2" ry="2" />
<text  x="267.90" y="335.5" ></text>
</g>
<g >
<title>YUV444ToRGB_SSE2 (8,200,282 samples, 1.82%)</title><rect x="271.6" y="405" width="21.4" height="15.0" fill="rgb(247,193,46)" rx="2" ry="2" />
<text  x="274.63" y="415.5" >Y..</text>
</g>
<g >
<title>__filemap_fdatawrite_range (923,266 samples, 0.20%)</title><rect x="1172.9" y="261" width="2.4" height="15.0" fill="rgb(233,129,30)" rx="2" ry="2" />
<text  x="1175.88" y="271.5" ></text>
</g>
<g >
<title>do_writepages (923,266 samples, 0.20%)</title><rect x="1172.9" y="229" width="2.4" height="15.0" fill="rgb(240,164,39)" rx="2" ry="2" />
<text  x="1175.88" y="239.5" ></text>
</g>
<g >
<title>ext4_buffered_write_iter (923,288 samples, 0.20%)</title><rect x="1175.3" y="309" width="2.4" height="15.0" fill="rgb(213,40,9)" rx="2" ry="2" />
<text  x="1178.30" y="319.5" ></text>
</g>
<g >
<title>DC4_C (9,225,606 samples, 2.04%)</title><rect x="17.2" y="405" width="24.1" height="15.0" fill="rgb(209,18,4)" rx="2" ry="2" />
<text  x="20.24" y="415.5" >D..</text>
</g>
<g >
<title>all (451,776,148 samples, 100%)</title><rect x="10.0" y="437" width="1180.0" height="15.0" fill="rgb(213,39,9)" rx="2" ry="2" />
<text  x="13.00" y="447.5" ></text>
</g>
<g >
<title>getname_flags.part.0 (645,095 samples, 0.14%)</title><rect x="1188.1" y="309" width="1.7" height="15.0" fill="rgb(207,10,2)" rx="2" ry="2" />
<text  x="1191.13" y="319.5" ></text>
</g>
<g >
<title>__dma_map_sg_attrs (923,266 samples, 0.20%)</title><rect x="1172.9" y="101" width="2.4" height="15.0" fill="rgb(251,212,50)" rx="2" ry="2" />
<text  x="1175.88" y="111.5" ></text>
</g>
<g >
<title>FinishRow (922,160 samples, 0.20%)</title><rect x="307.5" y="389" width="2.4" height="15.0" fill="rgb(213,41,9)" rx="2" ry="2" />
<text  x="310.52" y="399.5" ></text>
</g>
<g >
<title>task_work_run (923,266 samples, 0.20%)</title><rect x="1172.9" y="309" width="2.4" height="15.0" fill="rgb(209,22,5)" rx="2" ry="2" />
<text  x="1175.88" y="319.5" ></text>
</g>
</g>
</svg>
