<?xml version="1.0" standalone="no"?>
<!DOCTYPE svg PUBLIC "-//W3C//DTD SVG 1.1//EN" "http://www.w3.org/Graphics/SVG/1.1/DTD/svg11.dtd">
<svg version="1.1" width="1200" height="390" onload="init(evt)" viewBox="0 0 1200 390" xmlns="http://www.w3.org/2000/svg" xmlns:xlink="http://www.w3.org/1999/xlink">
<!-- Flame graph stack visualization. See https://github.com/brendangregg/FlameGraph for latest version, and http://www.brendangregg.com/flamegraphs.html for examples. -->
<!-- NOTES:  -->
<defs>
	<linearGradient id="background" y1="0" y2="1" x1="0" x2="0" >
		<stop stop-color="#eeeeee" offset="5%" />
		<stop stop-color="#eeeeb0" offset="95%" />
	</linearGradient>
</defs>
<style type="text/css">
	text { font-family:Verdana; font-size:12px; fill:rgb(0,0,0); }
	#search, #ignorecase { opacity:0.1; cursor:pointer; }
	#search:hover, #search.show, #ignorecase:hover, #ignorecase.show { opacity:1; }
	#subtitle { text-anchor:middle; font-color:rgb(160,160,160); }
	#title { text-anchor:middle; font-size:17px}
	#unzoom { cursor:pointer; }
	#frames > *:hover { stroke:black; stroke-width:0.5; cursor:pointer; }
	.hide { display:none; }
	.parent { opacity:0.5; }
</style>
<script type="text/ecmascript">
<![CDATA[
	"use strict";
	var details, searchbtn, unzoombtn, matchedtxt, svg, searching, currentSearchTerm, ignorecase, ignorecaseBtn;
	function init(evt) {
		details = document.getElementById("details").firstChild;
		searchbtn = document.getElementById("search");
		ignorecaseBtn = document.getElementById("ignorecase");
		unzoombtn = document.getElementById("unzoom");
		matchedtxt = document.getElementById("matched");
		svg = document.getElementsByTagName("svg")[0];
		searching = 0;
		currentSearchTerm = null;

		// use GET parameters to restore a flamegraphs state.
		var params = get_params();
		if (params.x && params.y)
			zoom(find_group(document.querySelector('[x="' + params.x + '"][y="' + params.y + '"]')));
                if (params.s) search(params.s);
	}

	// event listeners
	window.addEventListener("click", function(e) {
		var target = find_group(e.target);
		if (target) {
			if (target.nodeName == "a") {
				if (e.ctrlKey === false) return;
				e.preventDefault();
			}
			if (target.classList.contains("parent")) unzoom(true);
			zoom(target);
			if (!document.querySelector('.parent')) {
				// we have basically done a clearzoom so clear the url
				var params = get_params();
				if (params.x) delete params.x;
				if (params.y) delete params.y;
				history.replaceState(null, null, parse_params(params));
				unzoombtn.classList.add("hide");
				return;
			}

			// set parameters for zoom state
			var el = target.querySelector("rect");
			if (el && el.attributes && el.attributes.y && el.attributes._orig_x) {
				var params = get_params()
				params.x = el.attributes._orig_x.value;
				params.y = el.attributes.y.value;
				history.replaceState(null, null, parse_params(params));
			}
		}
		else if (e.target.id == "unzoom") clearzoom();
		else if (e.target.id == "search") search_prompt();
		else if (e.target.id == "ignorecase") toggle_ignorecase();
	}, false)

	// mouse-over for info
	// show
	window.addEventListener("mouseover", function(e) {
		var target = find_group(e.target);
		if (target) details.nodeValue = "Function: " + g_to_text(target);
	}, false)

	// clear
	window.addEventListener("mouseout", function(e) {
		var target = find_group(e.target);
		if (target) details.nodeValue = ' ';
	}, false)

	// ctrl-F for search
	// ctrl-I to toggle case-sensitive search
	window.addEventListener("keydown",function (e) {
		if (e.keyCode === 114 || (e.ctrlKey && e.keyCode === 70)) {
			e.preventDefault();
			search_prompt();
		}
		else if (e.ctrlKey && e.keyCode === 73) {
			e.preventDefault();
			toggle_ignorecase();
		}
	}, false)

	// functions
	function get_params() {
		var params = {};
		var paramsarr = window.location.search.substr(1).split('&');
		for (var i = 0; i < paramsarr.length; ++i) {
			var tmp = paramsarr[i].split("=");
			if (!tmp[0] || !tmp[1]) continue;
			params[tmp[0]]  = decodeURIComponent(tmp[1]);
		}
		return params;
	}
	function parse_params(params) {
		var uri = "?";
		for (var key in params) {
			uri += key + '=' + encodeURIComponent(params[key]) + '&';
		}
		if (uri.slice(-1) == "&")
			uri = uri.substring(0, uri.length - 1);
		if (uri == '?')
			uri = window.location.href.split('?')[0];
		return uri;
	}
	function find_child(node, selector) {
		var children = node.querySelectorAll(selector);
		if (children.length) return children[0];
	}
	function find_group(node) {
		var parent = node.parentElement;
		if (!parent) return;
		if (parent.id == "frames") return node;
		return find_group(parent);
	}
	function orig_save(e, attr, val) {
		if (e.attributes["_orig_" + attr] != undefined) return;
		if (e.attributes[attr] == undefined) return;
		if (val == undefined) val = e.attributes[attr].value;
		e.setAttribute("_orig_" + attr, val);
	}
	function orig_load(e, attr) {
		if (e.attributes["_orig_"+attr] == undefined) return;
		e.attributes[attr].value = e.attributes["_orig_" + attr].value;
		e.removeAttribute("_orig_"+attr);
	}
	function g_to_text(e) {
		var text = find_child(e, "title").firstChild.nodeValue;
		return (text)
	}
	function g_to_func(e) {
		var func = g_to_text(e);
		// if there's any manipulation we want to do to the function
		// name before it's searched, do it here before returning.
		return (func);
	}
	function update_text(e) {
		var r = find_child(e, "rect");
		var t = find_child(e, "text");
		var w = parseFloat(r.attributes.width.value) -3;
		var txt = find_child(e, "title").textContent.replace(/\([^(]*\)$/,"");
		t.attributes.x.value = parseFloat(r.attributes.x.value) + 3;

		// Smaller than this size won't fit anything
		if (w < 2 * 12 * 0.59) {
			t.textContent = "";
			return;
		}

		t.textContent = txt;
		var sl = t.getSubStringLength(0, txt.length);
		// check if only whitespace or if we can fit the entire string into width w
		if (/^ *$/.test(txt) || sl < w)
			return;

		// this isn't perfect, but gives a good starting point
		// and avoids calling getSubStringLength too often
		var start = Math.floor((w/sl) * txt.length);
		for (var x = start; x > 0; x = x-2) {
			if (t.getSubStringLength(0, x + 2) <= w) {
				t.textContent = txt.substring(0, x) + "..";
				return;
			}
		}
		t.textContent = "";
	}

	// zoom
	function zoom_reset(e) {
		if (e.attributes != undefined) {
			orig_load(e, "x");
			orig_load(e, "width");
		}
		if (e.childNodes == undefined) return;
		for (var i = 0, c = e.childNodes; i < c.length; i++) {
			zoom_reset(c[i]);
		}
	}
	function zoom_child(e, x, ratio) {
		if (e.attributes != undefined) {
			if (e.attributes.x != undefined) {
				orig_save(e, "x");
				e.attributes.x.value = (parseFloat(e.attributes.x.value) - x - 10) * ratio + 10;
				if (e.tagName == "text")
					e.attributes.x.value = find_child(e.parentNode, "rect[x]").attributes.x.value + 3;
			}
			if (e.attributes.width != undefined) {
				orig_save(e, "width");
				e.attributes.width.value = parseFloat(e.attributes.width.value) * ratio;
			}
		}

		if (e.childNodes == undefined) return;
		for (var i = 0, c = e.childNodes; i < c.length; i++) {
			zoom_child(c[i], x - 10, ratio);
		}
	}
	function zoom_parent(e) {
		if (e.attributes) {
			if (e.attributes.x != undefined) {
				orig_save(e, "x");
				e.attributes.x.value = 10;
			}
			if (e.attributes.width != undefined) {
				orig_save(e, "width");
				e.attributes.width.value = parseInt(svg.width.baseVal.value) - (10 * 2);
			}
		}
		if (e.childNodes == undefined) return;
		for (var i = 0, c = e.childNodes; i < c.length; i++) {
			zoom_parent(c[i]);
		}
	}
	function zoom(node) {
		var attr = find_child(node, "rect").attributes;
		var width = parseFloat(attr.width.value);
		var xmin = parseFloat(attr.x.value);
		var xmax = parseFloat(xmin + width);
		var ymin = parseFloat(attr.y.value);
		var ratio = (svg.width.baseVal.value - 2 * 10) / width;

		// XXX: Workaround for JavaScript float issues (fix me)
		var fudge = 0.0001;

		unzoombtn.classList.remove("hide");

		var el = document.getElementById("frames").children;
		for (var i = 0; i < el.length; i++) {
			var e = el[i];
			var a = find_child(e, "rect").attributes;
			var ex = parseFloat(a.x.value);
			var ew = parseFloat(a.width.value);
			var upstack;
			// Is it an ancestor
			if (0 == 0) {
				upstack = parseFloat(a.y.value) > ymin;
			} else {
				upstack = parseFloat(a.y.value) < ymin;
			}
			if (upstack) {
				// Direct ancestor
				if (ex <= xmin && (ex+ew+fudge) >= xmax) {
					e.classList.add("parent");
					zoom_parent(e);
					update_text(e);
				}
				// not in current path
				else
					e.classList.add("hide");
			}
			// Children maybe
			else {
				// no common path
				if (ex < xmin || ex + fudge >= xmax) {
					e.classList.add("hide");
				}
				else {
					zoom_child(e, xmin, ratio);
					update_text(e);
				}
			}
		}
		search();
	}
	function unzoom(dont_update_text) {
		unzoombtn.classList.add("hide");
		var el = document.getElementById("frames").children;
		for(var i = 0; i < el.length; i++) {
			el[i].classList.remove("parent");
			el[i].classList.remove("hide");
			zoom_reset(el[i]);
			if(!dont_update_text) update_text(el[i]);
		}
		search();
	}
	function clearzoom() {
		unzoom();

		// remove zoom state
		var params = get_params();
		if (params.x) delete params.x;
		if (params.y) delete params.y;
		history.replaceState(null, null, parse_params(params));
	}

	// search
	function toggle_ignorecase() {
		ignorecase = !ignorecase;
		if (ignorecase) {
			ignorecaseBtn.classList.add("show");
		} else {
			ignorecaseBtn.classList.remove("show");
		}
		reset_search();
		search();
	}
	function reset_search() {
		var el = document.querySelectorAll("#frames rect");
		for (var i = 0; i < el.length; i++) {
			orig_load(el[i], "fill")
		}
		var params = get_params();
		delete params.s;
		history.replaceState(null, null, parse_params(params));
	}
	function search_prompt() {
		if (!searching) {
			var term = prompt("Enter a search term (regexp " +
			    "allowed, eg: ^ext4_)"
			    + (ignorecase ? ", ignoring case" : "")
			    + "\nPress Ctrl-i to toggle case sensitivity", "");
			if (term != null) search(term);
		} else {
			reset_search();
			searching = 0;
			currentSearchTerm = null;
			searchbtn.classList.remove("show");
			searchbtn.firstChild.nodeValue = "Search"
			matchedtxt.classList.add("hide");
			matchedtxt.firstChild.nodeValue = ""
		}
	}
	function search(term) {
		if (term) currentSearchTerm = term;

		var re = new RegExp(currentSearchTerm, ignorecase ? 'i' : '');
		var el = document.getElementById("frames").children;
		var matches = new Object();
		var maxwidth = 0;
		for (var i = 0; i < el.length; i++) {
			var e = el[i];
			var func = g_to_func(e);
			var rect = find_child(e, "rect");
			if (func == null || rect == null)
				continue;

			// Save max width. Only works as we have a root frame
			var w = parseFloat(rect.attributes.width.value);
			if (w > maxwidth)
				maxwidth = w;

			if (func.match(re)) {
				// highlight
				var x = parseFloat(rect.attributes.x.value);
				orig_save(rect, "fill");
				rect.attributes.fill.value = "rgb(230,0,230)";

				// remember matches
				if (matches[x] == undefined) {
					matches[x] = w;
				} else {
					if (w > matches[x]) {
						// overwrite with parent
						matches[x] = w;
					}
				}
				searching = 1;
			}
		}
		if (!searching)
			return;
		var params = get_params();
		params.s = currentSearchTerm;
		history.replaceState(null, null, parse_params(params));

		searchbtn.classList.add("show");
		searchbtn.firstChild.nodeValue = "Reset Search";

		// calculate percent matched, excluding vertical overlap
		var count = 0;
		var lastx = -1;
		var lastw = 0;
		var keys = Array();
		for (k in matches) {
			if (matches.hasOwnProperty(k))
				keys.push(k);
		}
		// sort the matched frames by their x location
		// ascending, then width descending
		keys.sort(function(a, b){
			return a - b;
		});
		// Step through frames saving only the biggest bottom-up frames
		// thanks to the sort order. This relies on the tree property
		// where children are always smaller than their parents.
		var fudge = 0.0001;	// JavaScript floating point
		for (var k in keys) {
			var x = parseFloat(keys[k]);
			var w = matches[keys[k]];
			if (x >= lastx + lastw - fudge) {
				count += w;
				lastx = x;
				lastw = w;
			}
		}
		// display matched percent
		matchedtxt.classList.remove("hide");
		var pct = 100 * count / maxwidth;
		if (pct != 100) pct = pct.toFixed(1)
		matchedtxt.firstChild.nodeValue = "Matched: " + pct + "%";
	}
]]>
</script>
<rect x="0.0" y="0" width="1200.0" height="390.0" fill="url(#background)"  />
<text id="title" x="600.00" y="24" >Flame Graph</text>
<text id="details" x="10.00" y="373" > </text>
<text id="unzoom" x="10.00" y="24" class="hide">Reset Zoom</text>
<text id="search" x="1090.00" y="24" >Search</text>
<text id="ignorecase" x="1174.00" y="24" >ic</text>
<text id="matched" x="1090.00" y="373" > </text>
<g id="frames">
<g >
<title>bprm_execve (474,897 samples, 0.05%)</title><rect x="75.6" y="229" width="0.6" height="15.0" fill="rgb(218,61,14)" rx="2" ry="2" />
<text  x="78.59" y="239.5" ></text>
</g>
<g >
<title>finish_fault (358,600 samples, 0.04%)</title><rect x="75.7" y="69" width="0.5" height="15.0" fill="rgb(220,72,17)" rx="2" ry="2" />
<text  x="78.73" y="79.5" ></text>
</g>
<g >
<title>w2c_decode__webp__wasmsimd_VE4_C (2,770,859 samples, 0.28%)</title><rect x="64.1" y="213" width="3.3" height="15.0" fill="rgb(221,76,18)" rx="2" ry="2" />
<text  x="67.09" y="223.5" ></text>
</g>
<g >
<title>w2c_decode__webp__wasmsimd_GetCoeffsFast (2,770,333 samples, 0.28%)</title><rect x="21.0" y="213" width="3.2" height="15.0" fill="rgb(210,26,6)" rx="2" ry="2" />
<text  x="23.96" y="223.5" ></text>
</g>
<g >
<title>syscall_exit_to_user_mode (923,234 samples, 0.09%)</title><rect x="72.9" y="245" width="1.1" height="15.0" fill="rgb(251,211,50)" rx="2" ry="2" />
<text  x="75.86" y="255.5" ></text>
</g>
<g >
<title>exit_to_user_mode_prepare (923,234 samples, 0.09%)</title><rect x="72.9" y="229" width="1.1" height="15.0" fill="rgb(228,108,25)" rx="2" ry="2" />
<text  x="75.86" y="239.5" ></text>
</g>
<g >
<title>exc_page_fault (611,753 samples, 0.06%)</title><rect x="80.5" y="261" width="0.8" height="15.0" fill="rgb(212,35,8)" rx="2" ry="2" />
<text  x="83.53" y="271.5" ></text>
</g>
<g >
<title>task_work_run (923,234 samples, 0.09%)</title><rect x="72.9" y="213" width="1.1" height="15.0" fill="rgb(209,22,5)" rx="2" ry="2" />
<text  x="75.86" y="223.5" ></text>
</g>
<g >
<title>do_user_addr_fault (457,630 samples, 0.05%)</title><rect x="74.0" y="213" width="0.5" height="15.0" fill="rgb(228,108,25)" rx="2" ry="2" />
<text  x="76.95" y="223.5" ></text>
</g>
<g >
<title>w2c_decode__webp__wasmsimd_UpsampleRgbLinePair_C (236,970,627 samples, 23.82%)</title><rect x="899.0" y="309" width="281.1" height="15.0" fill="rgb(220,71,16)" rx="2" ry="2" />
<text  x="902.05" y="319.5" >w2c_decode__webp__wasmsimd_UpsampleRg..</text>
</g>
<g >
<title>w2c_decode__webp__wasmsimd_VP8GetValue (1,846,638 samples, 0.19%)</title><rect x="1181.2" y="309" width="2.2" height="15.0" fill="rgb(222,81,19)" rx="2" ry="2" />
<text  x="1184.20" y="319.5" ></text>
</g>
<g >
<title>__fput (923,234 samples, 0.09%)</title><rect x="72.9" y="197" width="1.1" height="15.0" fill="rgb(248,200,47)" rx="2" ry="2" />
<text  x="75.86" y="207.5" ></text>
</g>
<g >
<title>__page_set_anon_rmap (358,600 samples, 0.04%)</title><rect x="75.7" y="37" width="0.5" height="15.0" fill="rgb(226,101,24)" rx="2" ry="2" />
<text  x="78.73" y="47.5" ></text>
</g>
<g >
<title>__handle_mm_fault (358,600 samples, 0.04%)</title><rect x="75.7" y="101" width="0.5" height="15.0" fill="rgb(207,9,2)" rx="2" ry="2" />
<text  x="78.73" y="111.5" ></text>
</g>
<g >
<title>w2c_decode__webp__wasmsimd_TransformOne_C (48,351,340 samples, 4.86%)</title><rect x="839.5" y="309" width="57.4" height="15.0" fill="rgb(209,22,5)" rx="2" ry="2" />
<text  x="842.51" y="319.5" >w2c_de..</text>
</g>
<g >
<title>__alloc_pages (611,753 samples, 0.06%)</title><rect x="80.5" y="165" width="0.8" height="15.0" fill="rgb(233,129,30)" rx="2" ry="2" />
<text  x="83.53" y="175.5" ></text>
</g>
<g >
<title>w2c_decode__webp__wasmsimd_FinishRow (3,693,944 samples, 0.37%)</title><rect x="382.7" y="309" width="4.4" height="15.0" fill="rgb(205,3,0)" rx="2" ry="2" />
<text  x="385.68" y="319.5" ></text>
</g>
<g >
<title>w2c_decode__webp__wasmsimd_TransformTwo_C (1,847,394 samples, 0.19%)</title><rect x="92.2" y="293" width="2.2" height="15.0" fill="rgb(254,228,54)" rx="2" ry="2" />
<text  x="95.22" y="303.5" ></text>
</g>
<g >
<title>clear_user_rep_good (358,600 samples, 0.04%)</title><rect x="75.7" y="181" width="0.5" height="15.0" fill="rgb(224,89,21)" rx="2" ry="2" />
<text  x="78.73" y="191.5" ></text>
</g>
<g >
<title>w2c_decode__webp__wasmsimd_DC4_C (5,543,629 samples, 0.56%)</title><rect x="10.0" y="213" width="6.6" height="15.0" fill="rgb(250,210,50)" rx="2" ry="2" />
<text  x="13.00" y="223.5" ></text>
</g>
<g >
<title>exc_page_fault (457,630 samples, 0.05%)</title><rect x="74.0" y="229" width="0.5" height="15.0" fill="rgb(212,35,8)" rx="2" ry="2" />
<text  x="76.95" y="239.5" ></text>
</g>
<g >
<title>w2c_decode__webp__wasmsimd_IDecode (58,196,262 samples, 5.85%)</title><rect x="744.2" y="309" width="69.0" height="15.0" fill="rgb(237,147,35)" rx="2" ry="2" />
<text  x="747.20" y="319.5" >w2c_dec..</text>
</g>
<g >
<title>w2c_decode__webp__wasmsimd_VR4_C (923,296 samples, 0.09%)</title><rect x="71.8" y="213" width="1.1" height="15.0" fill="rgb(237,150,35)" rx="2" ry="2" />
<text  x="74.76" y="223.5" ></text>
</g>
<g >
<title>get_page_from_freelist (611,753 samples, 0.06%)</title><rect x="80.5" y="149" width="0.8" height="15.0" fill="rgb(252,218,52)" rx="2" ry="2" />
<text  x="83.53" y="159.5" ></text>
</g>
<g >
<title>w2c_decode__webp__wasmsimd_LD4_C (1,846,592 samples, 0.19%)</title><rect x="31.3" y="213" width="2.2" height="15.0" fill="rgb(242,173,41)" rx="2" ry="2" />
<text  x="34.29" y="223.5" ></text>
</g>
<g >
<title>w2c_decode__webp__wasmsimd_TransformWHT_C (923,918 samples, 0.09%)</title><rect x="94.4" y="293" width="1.1" height="15.0" fill="rgb(213,38,9)" rx="2" ry="2" />
<text  x="97.41" y="303.5" ></text>
</g>
<g >
<title>w2c_decode__webp__wasmsimd_HD4_C (924,267 samples, 0.09%)</title><rect x="24.2" y="213" width="1.1" height="15.0" fill="rgb(218,62,14)" rx="2" ry="2" />
<text  x="27.24" y="223.5" ></text>
</g>
<g >
<title>__dquot_alloc_space (923,260 samples, 0.09%)</title><rect x="74.5" y="117" width="1.1" height="15.0" fill="rgb(247,193,46)" rx="2" ry="2" />
<text  x="77.49" y="127.5" ></text>
</g>
<g >
<title>ext4_da_reserve_space (923,260 samples, 0.09%)</title><rect x="74.5" y="133" width="1.1" height="15.0" fill="rgb(216,53,12)" rx="2" ry="2" />
<text  x="77.49" y="143.5" ></text>
</g>
<g >
<title>w2c_decode__webp__wasmsimd_TransformTwo_C (1,847,465 samples, 0.19%)</title><rect x="896.9" y="309" width="2.1" height="15.0" fill="rgb(254,228,54)" rx="2" ry="2" />
<text  x="899.86" y="319.5" ></text>
</g>
<g >
<title>exc_page_fault (358,600 samples, 0.04%)</title><rect x="75.7" y="149" width="0.5" height="15.0" fill="rgb(212,35,8)" rx="2" ry="2" />
<text  x="78.73" y="159.5" ></text>
</g>
<g >
<title>w2c_decode__webp__wasmsimd_FilterLoop26_C (95,166,355 samples, 9.57%)</title><rect x="269.8" y="309" width="112.9" height="15.0" fill="rgb(222,78,18)" rx="2" ry="2" />
<text  x="272.81" y="319.5" >w2c_decode__w..</text>
</g>
<g >
<title>w2c_decode__webp__wasmsimd_GetLargeValue (49,840,766 samples, 5.01%)</title><rect x="685.1" y="309" width="59.1" height="15.0" fill="rgb(234,137,32)" rx="2" ry="2" />
<text  x="688.09" y="319.5" >w2c_de..</text>
</g>
<g >
<title>do_syscall_64 (474,897 samples, 0.05%)</title><rect x="75.6" y="277" width="0.6" height="15.0" fill="rgb(209,20,4)" rx="2" ry="2" />
<text  x="78.59" y="287.5" ></text>
</g>
<g >
<title>w2c_decode__webp__wasmsimd_DecodeImageData (19,397,481 samples, 1.95%)</title><rect x="106.2" y="309" width="23.0" height="15.0" fill="rgb(246,191,45)" rx="2" ry="2" />
<text  x="109.19" y="319.5" >w..</text>
</g>
<g >
<title>filemap_fdatawrite_wbc (923,234 samples, 0.09%)</title><rect x="72.9" y="149" width="1.1" height="15.0" fill="rgb(210,25,6)" rx="2" ry="2" />
<text  x="75.86" y="159.5" ></text>
</g>
<g >
<title>[unknown] (52,996,043 samples, 5.33%)</title><rect x="10.0" y="277" width="62.9" height="15.0" fill="rgb(210,24,5)" rx="2" ry="2" />
<text  x="13.00" y="287.5" >[unkno..</text>
</g>
<g >
<title>__register_frame_info (457,630 samples, 0.05%)</title><rect x="74.0" y="261" width="0.5" height="15.0" fill="rgb(251,215,51)" rx="2" ry="2" />
<text  x="76.95" y="271.5" ></text>
</g>
<g >
<title>next_uptodate_page (457,630 samples, 0.05%)</title><rect x="74.0" y="133" width="0.5" height="15.0" fill="rgb(210,25,6)" rx="2" ry="2" />
<text  x="76.95" y="143.5" ></text>
</g>
<g >
<title>asm_exc_page_fault (358,600 samples, 0.04%)</title><rect x="75.7" y="165" width="0.5" height="15.0" fill="rgb(225,93,22)" rx="2" ry="2" />
<text  x="78.73" y="175.5" ></text>
</g>
<g >
<title>w2c_decode__webp__wasmsimd_TM8uv_C (923,261 samples, 0.09%)</title><rect x="835.1" y="309" width="1.1" height="15.0" fill="rgb(238,156,37)" rx="2" ry="2" />
<text  x="838.13" y="319.5" ></text>
</g>
<g >
<title>__handle_mm_fault (611,753 samples, 0.06%)</title><rect x="80.5" y="213" width="0.8" height="15.0" fill="rgb(207,9,2)" rx="2" ry="2" />
<text  x="83.53" y="223.5" ></text>
</g>
<g >
<title>all (994,912,513 samples, 100%)</title><rect x="10.0" y="341" width="1180.0" height="15.0" fill="rgb(213,39,9)" rx="2" ry="2" />
<text  x="13.00" y="351.5" ></text>
</g>
<g >
<title>ext4_release_file (923,234 samples, 0.09%)</title><rect x="72.9" y="181" width="1.1" height="15.0" fill="rgb(225,92,22)" rx="2" ry="2" />
<text  x="75.86" y="191.5" ></text>
</g>
<g >
<title>w2c_decode__webp__wasmsimd_ExtractGreen_C (4,307,095 samples, 0.43%)</title><rect x="76.2" y="293" width="5.1" height="15.0" fill="rgb(226,96,23)" rx="2" ry="2" />
<text  x="79.15" y="303.5" ></text>
</g>
<g >
<title>vfs_write (923,260 samples, 0.09%)</title><rect x="74.5" y="229" width="1.1" height="15.0" fill="rgb(250,209,50)" rx="2" ry="2" />
<text  x="77.49" y="239.5" ></text>
</g>
<g >
<title>entry_SYSCALL_64_after_hwframe (923,234 samples, 0.09%)</title><rect x="72.9" y="277" width="1.1" height="15.0" fill="rgb(218,63,15)" rx="2" ry="2" />
<text  x="75.86" y="287.5" ></text>
</g>
<g >
<title>__libc_write (923,260 samples, 0.09%)</title><rect x="74.5" y="293" width="1.1" height="15.0" fill="rgb(238,154,37)" rx="2" ry="2" />
<text  x="77.49" y="303.5" ></text>
</g>
<g >
<title>handle_mm_fault (457,630 samples, 0.05%)</title><rect x="74.0" y="197" width="0.5" height="15.0" fill="rgb(234,135,32)" rx="2" ry="2" />
<text  x="76.95" y="207.5" ></text>
</g>
<g >
<title>[unknown] (52,996,043 samples, 5.33%)</title><rect x="10.0" y="293" width="62.9" height="15.0" fill="rgb(210,24,5)" rx="2" ry="2" />
<text  x="13.00" y="303.5" >[unkno..</text>
</g>
<g >
<title>clear_page_rep (611,753 samples, 0.06%)</title><rect x="80.5" y="133" width="0.8" height="15.0" fill="rgb(253,221,52)" rx="2" ry="2" />
<text  x="83.53" y="143.5" ></text>
</g>
<g >
<title>__handle_mm_fault (457,630 samples, 0.05%)</title><rect x="74.0" y="181" width="0.5" height="15.0" fill="rgb(207,9,2)" rx="2" ry="2" />
<text  x="76.95" y="191.5" ></text>
</g>
<g >
<title>w2c_decode__webp__wasmsimd_VL4_C (2,769,399 samples, 0.28%)</title><rect x="67.4" y="213" width="3.3" height="15.0" fill="rgb(226,98,23)" rx="2" ry="2" />
<text  x="70.38" y="223.5" ></text>
</g>
<g >
<title>w2c_decode__webp__wasmsimd_FilterLoop24_C (118,556,064 samples, 11.92%)</title><rect x="129.2" y="309" width="140.6" height="15.0" fill="rgb(234,137,32)" rx="2" ry="2" />
<text  x="132.19" y="319.5" >w2c_decode__webp_..</text>
</g>
<g >
<title>w2c_decode__webp__wasmsimd_TransformDC_C (2,769,679 samples, 0.28%)</title><rect x="58.6" y="213" width="3.3" height="15.0" fill="rgb(211,27,6)" rx="2" ry="2" />
<text  x="61.62" y="223.5" ></text>
</g>
<g >
<title>do_execveat_common.isra.0 (474,897 samples, 0.05%)</title><rect x="75.6" y="245" width="0.6" height="15.0" fill="rgb(231,123,29)" rx="2" ry="2" />
<text  x="78.59" y="255.5" ></text>
</g>
<g >
<title>asm_exc_page_fault (611,753 samples, 0.06%)</title><rect x="80.5" y="277" width="0.8" height="15.0" fill="rgb(225,93,22)" rx="2" ry="2" />
<text  x="83.53" y="287.5" ></text>
</g>
<g >
<title>w2c_decode__webp__wasmsimd_HE4_C (1,845,902 samples, 0.19%)</title><rect x="25.3" y="213" width="2.2" height="15.0" fill="rgb(212,32,7)" rx="2" ry="2" />
<text  x="28.34" y="223.5" ></text>
</g>
<g >
<title>__close_nocancel (923,234 samples, 0.09%)</title><rect x="72.9" y="293" width="1.1" height="15.0" fill="rgb(228,109,26)" rx="2" ry="2" />
<text  x="75.86" y="303.5" ></text>
</g>
<g >
<title>do_user_addr_fault (611,753 samples, 0.06%)</title><rect x="80.5" y="245" width="0.8" height="15.0" fill="rgb(228,108,25)" rx="2" ry="2" />
<text  x="83.53" y="255.5" ></text>
</g>
<g >
<title>ext4_block_write_begin (923,260 samples, 0.09%)</title><rect x="74.5" y="165" width="1.1" height="15.0" fill="rgb(206,4,1)" rx="2" ry="2" />
<text  x="77.49" y="175.5" ></text>
</g>
<g >
<title>entry_SYSCALL_64_after_hwframe (923,260 samples, 0.09%)</title><rect x="74.5" y="277" width="1.1" height="15.0" fill="rgb(218,63,15)" rx="2" ry="2" />
<text  x="77.49" y="287.5" ></text>
</g>
<g >
<title>asm_exc_page_fault (457,630 samples, 0.05%)</title><rect x="74.0" y="245" width="0.5" height="15.0" fill="rgb(225,93,22)" rx="2" ry="2" />
<text  x="76.95" y="255.5" ></text>
</g>
<g >
<title>entry_SYSCALL_64_after_hwframe (474,897 samples, 0.05%)</title><rect x="75.6" y="293" width="0.6" height="15.0" fill="rgb(218,63,15)" rx="2" ry="2" />
<text  x="78.59" y="303.5" ></text>
</g>
<g >
<title>w2c_decode__webp__wasmsimd_RD4_C (1,848,557 samples, 0.19%)</title><rect x="33.5" y="213" width="2.2" height="15.0" fill="rgb(253,225,53)" rx="2" ry="2" />
<text  x="36.48" y="223.5" ></text>
</g>
<g >
<title>w2c_decode__webp__wasmsimd_DC8uv_C (924,303 samples, 0.09%)</title><rect x="105.1" y="309" width="1.1" height="15.0" fill="rgb(206,8,2)" rx="2" ry="2" />
<text  x="108.09" y="319.5" ></text>
</g>
<g >
<title>w2c_decode__webp__wasmsimd_GetCoeffsFast (1,848,599 samples, 0.19%)</title><rect x="81.3" y="293" width="2.2" height="15.0" fill="rgb(210,26,6)" rx="2" ry="2" />
<text  x="84.26" y="303.5" ></text>
</g>
<g >
<title>w2c_decode__webp__wasmsimd_ReconstructRow (15,649,581 samples, 1.57%)</title><rect x="35.7" y="213" width="18.5" height="15.0" fill="rgb(217,55,13)" rx="2" ry="2" />
<text  x="38.67" y="223.5" ></text>
</g>
<g >
<title>w2c_decode__webp__wasmsimd_TransformOne_C (924,217 samples, 0.09%)</title><rect x="91.1" y="293" width="1.1" height="15.0" fill="rgb(209,22,5)" rx="2" ry="2" />
<text  x="94.12" y="303.5" ></text>
</g>
<g >
<title>w2c_decode__webp__wasmsimd_FilterLoop24_C (924,254 samples, 0.09%)</title><rect x="16.6" y="213" width="1.1" height="15.0" fill="rgb(234,137,32)" rx="2" ry="2" />
<text  x="19.57" y="223.5" ></text>
</g>
<g >
<title>do_set_pte (358,600 samples, 0.04%)</title><rect x="75.7" y="53" width="0.5" height="15.0" fill="rgb(253,221,52)" rx="2" ry="2" />
<text  x="78.73" y="63.5" ></text>
</g>
<g >
<title>filemap_map_pages (457,630 samples, 0.05%)</title><rect x="74.0" y="149" width="0.5" height="15.0" fill="rgb(229,112,27)" rx="2" ry="2" />
<text  x="76.95" y="159.5" ></text>
</g>
<g >
<title>mpage_submit_page (923,234 samples, 0.09%)</title><rect x="72.9" y="101" width="1.1" height="15.0" fill="rgb(232,127,30)" rx="2" ry="2" />
<text  x="75.86" y="111.5" ></text>
</g>
<g >
<title>do_writepages (923,234 samples, 0.09%)</title><rect x="72.9" y="133" width="1.1" height="15.0" fill="rgb(240,164,39)" rx="2" ry="2" />
<text  x="75.86" y="143.5" ></text>
</g>
<g >
<title>w2c_decode__webp__wasmsimd_VP8LReadBits (3,695,330 samples, 0.37%)</title><rect x="1184.5" y="309" width="4.4" height="15.0" fill="rgb(228,108,26)" rx="2" ry="2" />
<text  x="1187.49" y="319.5" ></text>
</g>
<g >
<title>ext4_buffered_write_iter (923,260 samples, 0.09%)</title><rect x="74.5" y="213" width="1.1" height="15.0" fill="rgb(213,40,9)" rx="2" ry="2" />
<text  x="77.49" y="223.5" ></text>
</g>
<g >
<title>__do_global_dtors_aux (457,630 samples, 0.05%)</title><rect x="74.0" y="293" width="0.5" height="15.0" fill="rgb(245,185,44)" rx="2" ry="2" />
<text  x="76.95" y="303.5" ></text>
</g>
<g >
<title>[unknown] (52,996,043 samples, 5.33%)</title><rect x="10.0" y="229" width="62.9" height="15.0" fill="rgb(210,24,5)" rx="2" ry="2" />
<text  x="13.00" y="239.5" >[unkno..</text>
</g>
<g >
<title>w2c_decode__webp__wasmsimd_HU4_C (2,770,871 samples, 0.28%)</title><rect x="27.5" y="213" width="3.3" height="15.0" fill="rgb(208,17,4)" rx="2" ry="2" />
<text  x="30.53" y="223.5" ></text>
</g>
<g >
<title>vma_alloc_folio (611,753 samples, 0.06%)</title><rect x="80.5" y="197" width="0.8" height="15.0" fill="rgb(245,187,44)" rx="2" ry="2" />
<text  x="83.53" y="207.5" ></text>
</g>
<g >
<title>__x64_sys_execve (474,897 samples, 0.05%)</title><rect x="75.6" y="261" width="0.6" height="15.0" fill="rgb(247,193,46)" rx="2" ry="2" />
<text  x="78.59" y="271.5" ></text>
</g>
<g >
<title>w2c_decode__webp__wasmsimd_FilterLoop26_C (2,771,344 samples, 0.28%)</title><rect x="17.7" y="213" width="3.3" height="15.0" fill="rgb(222,78,18)" rx="2" ry="2" />
<text  x="20.67" y="223.5" ></text>
</g>
<g >
<title>w2c_decode__webp__wasmsimd_ReconstructRow (6,467,127 samples, 0.65%)</title><rect x="83.5" y="293" width="7.6" height="15.0" fill="rgb(217,55,13)" rx="2" ry="2" />
<text  x="86.45" y="303.5" ></text>
</g>
<g >
<title>w2c_decode__webp__wasmsimd_TM4_C (3,695,887 samples, 0.37%)</title><rect x="54.2" y="213" width="4.4" height="15.0" fill="rgb(232,128,30)" rx="2" ry="2" />
<text  x="57.23" y="223.5" ></text>
</g>
<g >
<title>[unknown] (72,093,414 samples, 7.25%)</title><rect x="10.0" y="309" width="85.5" height="15.0" fill="rgb(210,24,5)" rx="2" ry="2" />
<text  x="13.00" y="319.5" >[unknown]</text>
</g>
<g >
<title>do_syscall_64 (923,234 samples, 0.09%)</title><rect x="72.9" y="261" width="1.1" height="15.0" fill="rgb(209,20,4)" rx="2" ry="2" />
<text  x="75.86" y="271.5" ></text>
</g>
<g >
<title>folio_clear_dirty_for_io (923,234 samples, 0.09%)</title><rect x="72.9" y="85" width="1.1" height="15.0" fill="rgb(237,150,36)" rx="2" ry="2" />
<text  x="75.86" y="95.5" ></text>
</g>
<g >
<title>__libc_start_main_impl (457,630 samples, 0.05%)</title><rect x="74.0" y="277" width="0.5" height="15.0" fill="rgb(218,63,15)" rx="2" ry="2" />
<text  x="76.95" y="287.5" ></text>
</g>
<g >
<title>do_user_addr_fault (358,600 samples, 0.04%)</title><rect x="75.7" y="133" width="0.5" height="15.0" fill="rgb(228,108,25)" rx="2" ry="2" />
<text  x="78.73" y="143.5" ></text>
</g>
<g >
<title>w2c_decode__webp__wasmsimd_TransformUV_C (1,848,296 samples, 0.19%)</title><rect x="61.9" y="213" width="2.2" height="15.0" fill="rgb(228,108,25)" rx="2" ry="2" />
<text  x="64.90" y="223.5" ></text>
</g>
<g >
<title>decode_webp_was (994,882,067 samples, 100.00%)</title><rect x="10.0" y="325" width="1180.0" height="15.0" fill="rgb(216,54,12)" rx="2" ry="2" />
<text  x="13.00" y="335.5" >decode_webp_was</text>
</g>
<g >
<title>w2c_decode__webp__wasmsimd_GetCoeffsFast (251,281,315 samples, 25.26%)</title><rect x="387.1" y="309" width="298.0" height="15.0" fill="rgb(210,26,6)" rx="2" ry="2" />
<text  x="390.06" y="319.5" >w2c_decode__webp__wasmsimd_GetCoeffsFast</text>
</g>
<g >
<title>w2c_decode__webp__wasmsimd_TM16_C (7,390,588 samples, 0.74%)</title><rect x="826.4" y="309" width="8.7" height="15.0" fill="rgb(253,222,53)" rx="2" ry="2" />
<text  x="829.37" y="319.5" ></text>
</g>
<g >
<title>load_elf_binary (474,897 samples, 0.05%)</title><rect x="75.6" y="213" width="0.6" height="15.0" fill="rgb(223,83,20)" rx="2" ry="2" />
<text  x="78.59" y="223.5" ></text>
</g>
<g >
<title>ext4_writepages (923,234 samples, 0.09%)</title><rect x="72.9" y="117" width="1.1" height="15.0" fill="rgb(240,165,39)" rx="2" ry="2" />
<text  x="75.86" y="127.5" ></text>
</g>
<g >
<title>w2c_decode__webp__wasmsimd_VE4_C (924,185 samples, 0.09%)</title><rect x="1180.1" y="309" width="1.1" height="15.0" fill="rgb(221,76,18)" rx="2" ry="2" />
<text  x="1183.10" y="319.5" ></text>
</g>
<g >
<title>do_fault (457,630 samples, 0.05%)</title><rect x="74.0" y="165" width="0.5" height="15.0" fill="rgb(248,200,47)" rx="2" ry="2" />
<text  x="76.95" y="175.5" ></text>
</g>
<g >
<title>__memmove_avx_unaligned_erms (6,236,167 samples, 0.63%)</title><rect x="95.5" y="309" width="7.4" height="15.0" fill="rgb(205,0,0)" rx="2" ry="2" />
<text  x="98.51" y="319.5" ></text>
</g>
<g >
<title>__memset_avx2_unaligned_erms (1,847,232 samples, 0.19%)</title><rect x="102.9" y="309" width="2.2" height="15.0" fill="rgb(223,84,20)" rx="2" ry="2" />
<text  x="105.90" y="319.5" ></text>
</g>
<g >
<title>do_syscall_64 (923,260 samples, 0.09%)</title><rect x="74.5" y="261" width="1.1" height="15.0" fill="rgb(209,20,4)" rx="2" ry="2" />
<text  x="77.49" y="271.5" ></text>
</g>
<g >
<title>__folio_alloc (611,753 samples, 0.06%)</title><rect x="80.5" y="181" width="0.8" height="15.0" fill="rgb(224,91,21)" rx="2" ry="2" />
<text  x="83.53" y="191.5" ></text>
</g>
<g >
<title>flush_signal_handlers (116,297 samples, 0.01%)</title><rect x="75.6" y="181" width="0.1" height="15.0" fill="rgb(253,221,53)" rx="2" ry="2" />
<text  x="78.59" y="191.5" ></text>
</g>
<g >
<title>begin_new_exec (116,297 samples, 0.01%)</title><rect x="75.6" y="197" width="0.1" height="15.0" fill="rgb(245,184,44)" rx="2" ry="2" />
<text  x="78.59" y="207.5" ></text>
</g>
<g >
<title>w2c_decode__webp__wasmsimd_TransformAC3_C (2,770,459 samples, 0.28%)</title><rect x="836.2" y="309" width="3.3" height="15.0" fill="rgb(251,211,50)" rx="2" ry="2" />
<text  x="839.23" y="319.5" ></text>
</g>
<g >
<title>do_fault (358,600 samples, 0.04%)</title><rect x="75.7" y="85" width="0.5" height="15.0" fill="rgb(248,200,47)" rx="2" ry="2" />
<text  x="78.73" y="95.5" ></text>
</g>
<g >
<title>[unknown] (52,996,043 samples, 5.33%)</title><rect x="10.0" y="245" width="62.9" height="15.0" fill="rgb(210,24,5)" rx="2" ry="2" />
<text  x="13.00" y="255.5" >[unkno..</text>
</g>
<g >
<title>mod_zone_page_state (923,234 samples, 0.09%)</title><rect x="72.9" y="69" width="1.1" height="15.0" fill="rgb(248,200,47)" rx="2" ry="2" />
<text  x="75.86" y="79.5" ></text>
</g>
<g >
<title>handle_mm_fault (358,600 samples, 0.04%)</title><rect x="75.7" y="117" width="0.5" height="15.0" fill="rgb(234,135,32)" rx="2" ry="2" />
<text  x="78.73" y="127.5" ></text>
</g>
<g >
<title>ksys_write (923,260 samples, 0.09%)</title><rect x="74.5" y="245" width="1.1" height="15.0" fill="rgb(205,4,1)" rx="2" ry="2" />
<text  x="77.49" y="255.5" ></text>
</g>
<g >
<title>handle_mm_fault (611,753 samples, 0.06%)</title><rect x="80.5" y="229" width="0.8" height="15.0" fill="rgb(234,135,32)" rx="2" ry="2" />
<text  x="83.53" y="239.5" ></text>
</g>
<g >
<title>ext4_da_write_begin (923,260 samples, 0.09%)</title><rect x="74.5" y="181" width="1.1" height="15.0" fill="rgb(211,32,7)" rx="2" ry="2" />
<text  x="77.49" y="191.5" ></text>
</g>
<g >
<title>generic_perform_write (923,260 samples, 0.09%)</title><rect x="74.5" y="197" width="1.1" height="15.0" fill="rgb(236,146,35)" rx="2" ry="2" />
<text  x="77.49" y="207.5" ></text>
</g>
<g >
<title>w2c_decode__webp__wasmsimd_IDecode (399,476 samples, 0.04%)</title><rect x="30.8" y="213" width="0.5" height="15.0" fill="rgb(237,147,35)" rx="2" ry="2" />
<text  x="33.82" y="223.5" ></text>
</g>
<g >
<title>padzero (358,600 samples, 0.04%)</title><rect x="75.7" y="197" width="0.5" height="15.0" fill="rgb(223,84,20)" rx="2" ry="2" />
<text  x="78.73" y="207.5" ></text>
</g>
<g >
<title>ext4_da_get_block_prep (923,260 samples, 0.09%)</title><rect x="74.5" y="149" width="1.1" height="15.0" fill="rgb(241,168,40)" rx="2" ry="2" />
<text  x="77.49" y="159.5" ></text>
</g>
<g >
<title>w2c_decode__webp__wasmsimd_ReconstructRow (11,081,806 samples, 1.11%)</title><rect x="813.2" y="309" width="13.2" height="15.0" fill="rgb(217,55,13)" rx="2" ry="2" />
<text  x="816.22" y="319.5" ></text>
</g>
<g >
<title>w2c_decode__webp__wasmsimd_VP8ParseProba (923,043 samples, 0.09%)</title><rect x="1188.9" y="309" width="1.1" height="15.0" fill="rgb(216,51,12)" rx="2" ry="2" />
<text  x="1191.87" y="319.5" ></text>
</g>
<g >
<title>__filemap_fdatawrite_range (923,234 samples, 0.09%)</title><rect x="72.9" y="165" width="1.1" height="15.0" fill="rgb(233,129,30)" rx="2" ry="2" />
<text  x="75.86" y="175.5" ></text>
</g>
<g >
<title>w2c_decode__webp__wasmsimd_VP8GetValue (923,821 samples, 0.09%)</title><rect x="70.7" y="213" width="1.1" height="15.0" fill="rgb(222,81,19)" rx="2" ry="2" />
<text  x="73.66" y="223.5" ></text>
</g>
<g >
<title>[unknown] (52,996,043 samples, 5.33%)</title><rect x="10.0" y="261" width="62.9" height="15.0" fill="rgb(210,24,5)" rx="2" ry="2" />
<text  x="13.00" y="271.5" >[unkno..</text>
</g>
<g >
<title>w2c_decode__webp__wasmsimd_VP8LDoFillBitWindow (924,022 samples, 0.09%)</title><rect x="1183.4" y="309" width="1.1" height="15.0" fill="rgb(211,29,7)" rx="2" ry="2" />
<text  x="1186.39" y="319.5" ></text>
</g>
</g>
</svg>
