<?xml version="1.0" standalone="no"?>
<!DOCTYPE svg PUBLIC "-//W3C//DTD SVG 1.1//EN" "http://www.w3.org/Graphics/SVG/1.1/DTD/svg11.dtd">
<svg version="1.1" width="1200" height="342" onload="init(evt)" viewBox="0 0 1200 342" xmlns="http://www.w3.org/2000/svg" xmlns:xlink="http://www.w3.org/1999/xlink">
<!-- Flame graph stack visualization. See https://github.com/brendangregg/FlameGraph for latest version, and http://www.brendangregg.com/flamegraphs.html for examples. -->
<!-- NOTES:  -->
<defs>
	<linearGradient id="background" y1="0" y2="1" x1="0" x2="0" >
		<stop stop-color="#eeeeee" offset="5%" />
		<stop stop-color="#eeeeb0" offset="95%" />
	</linearGradient>
</defs>
<style type="text/css">
	text { font-family:Verdana; font-size:12px; fill:rgb(0,0,0); }
	#search, #ignorecase { opacity:0.1; cursor:pointer; }
	#search:hover, #search.show, #ignorecase:hover, #ignorecase.show { opacity:1; }
	#subtitle { text-anchor:middle; font-color:rgb(160,160,160); }
	#title { text-anchor:middle; font-size:17px}
	#unzoom { cursor:pointer; }
	#frames > *:hover { stroke:black; stroke-width:0.5; cursor:pointer; }
	.hide { display:none; }
	.parent { opacity:0.5; }
</style>
<script type="text/ecmascript">
<![CDATA[
	"use strict";
	var details, searchbtn, unzoombtn, matchedtxt, svg, searching, currentSearchTerm, ignorecase, ignorecaseBtn;
	function init(evt) {
		details = document.getElementById("details").firstChild;
		searchbtn = document.getElementById("search");
		ignorecaseBtn = document.getElementById("ignorecase");
		unzoombtn = document.getElementById("unzoom");
		matchedtxt = document.getElementById("matched");
		svg = document.getElementsByTagName("svg")[0];
		searching = 0;
		currentSearchTerm = null;

		// use GET parameters to restore a flamegraphs state.
		var params = get_params();
		if (params.x && params.y)
			zoom(find_group(document.querySelector('[x="' + params.x + '"][y="' + params.y + '"]')));
                if (params.s) search(params.s);
	}

	// event listeners
	window.addEventListener("click", function(e) {
		var target = find_group(e.target);
		if (target) {
			if (target.nodeName == "a") {
				if (e.ctrlKey === false) return;
				e.preventDefault();
			}
			if (target.classList.contains("parent")) unzoom(true);
			zoom(target);
			if (!document.querySelector('.parent')) {
				// we have basically done a clearzoom so clear the url
				var params = get_params();
				if (params.x) delete params.x;
				if (params.y) delete params.y;
				history.replaceState(null, null, parse_params(params));
				unzoombtn.classList.add("hide");
				return;
			}

			// set parameters for zoom state
			var el = target.querySelector("rect");
			if (el && el.attributes && el.attributes.y && el.attributes._orig_x) {
				var params = get_params()
				params.x = el.attributes._orig_x.value;
				params.y = el.attributes.y.value;
				history.replaceState(null, null, parse_params(params));
			}
		}
		else if (e.target.id == "unzoom") clearzoom();
		else if (e.target.id == "search") search_prompt();
		else if (e.target.id == "ignorecase") toggle_ignorecase();
	}, false)

	// mouse-over for info
	// show
	window.addEventListener("mouseover", function(e) {
		var target = find_group(e.target);
		if (target) details.nodeValue = "Function: " + g_to_text(target);
	}, false)

	// clear
	window.addEventListener("mouseout", function(e) {
		var target = find_group(e.target);
		if (target) details.nodeValue = ' ';
	}, false)

	// ctrl-F for search
	// ctrl-I to toggle case-sensitive search
	window.addEventListener("keydown",function (e) {
		if (e.keyCode === 114 || (e.ctrlKey && e.keyCode === 70)) {
			e.preventDefault();
			search_prompt();
		}
		else if (e.ctrlKey && e.keyCode === 73) {
			e.preventDefault();
			toggle_ignorecase();
		}
	}, false)

	// functions
	function get_params() {
		var params = {};
		var paramsarr = window.location.search.substr(1).split('&');
		for (var i = 0; i < paramsarr.length; ++i) {
			var tmp = paramsarr[i].split("=");
			if (!tmp[0] || !tmp[1]) continue;
			params[tmp[0]]  = decodeURIComponent(tmp[1]);
		}
		return params;
	}
	function parse_params(params) {
		var uri = "?";
		for (var key in params) {
			uri += key + '=' + encodeURIComponent(params[key]) + '&';
		}
		if (uri.slice(-1) == "&")
			uri = uri.substring(0, uri.length - 1);
		if (uri == '?')
			uri = window.location.href.split('?')[0];
		return uri;
	}
	function find_child(node, selector) {
		var children = node.querySelectorAll(selector);
		if (children.length) return children[0];
	}
	function find_group(node) {
		var parent = node.parentElement;
		if (!parent) return;
		if (parent.id == "frames") return node;
		return find_group(parent);
	}
	function orig_save(e, attr, val) {
		if (e.attributes["_orig_" + attr] != undefined) return;
		if (e.attributes[attr] == undefined) return;
		if (val == undefined) val = e.attributes[attr].value;
		e.setAttribute("_orig_" + attr, val);
	}
	function orig_load(e, attr) {
		if (e.attributes["_orig_"+attr] == undefined) return;
		e.attributes[attr].value = e.attributes["_orig_" + attr].value;
		e.removeAttribute("_orig_"+attr);
	}
	function g_to_text(e) {
		var text = find_child(e, "title").firstChild.nodeValue;
		return (text)
	}
	function g_to_func(e) {
		var func = g_to_text(e);
		// if there's any manipulation we want to do to the function
		// name before it's searched, do it here before returning.
		return (func);
	}
	function update_text(e) {
		var r = find_child(e, "rect");
		var t = find_child(e, "text");
		var w = parseFloat(r.attributes.width.value) -3;
		var txt = find_child(e, "title").textContent.replace(/\([^(]*\)$/,"");
		t.attributes.x.value = parseFloat(r.attributes.x.value) + 3;

		// Smaller than this size won't fit anything
		if (w < 2 * 12 * 0.59) {
			t.textContent = "";
			return;
		}

		t.textContent = txt;
		var sl = t.getSubStringLength(0, txt.length);
		// check if only whitespace or if we can fit the entire string into width w
		if (/^ *$/.test(txt) || sl < w)
			return;

		// this isn't perfect, but gives a good starting point
		// and avoids calling getSubStringLength too often
		var start = Math.floor((w/sl) * txt.length);
		for (var x = start; x > 0; x = x-2) {
			if (t.getSubStringLength(0, x + 2) <= w) {
				t.textContent = txt.substring(0, x) + "..";
				return;
			}
		}
		t.textContent = "";
	}

	// zoom
	function zoom_reset(e) {
		if (e.attributes != undefined) {
			orig_load(e, "x");
			orig_load(e, "width");
		}
		if (e.childNodes == undefined) return;
		for (var i = 0, c = e.childNodes; i < c.length; i++) {
			zoom_reset(c[i]);
		}
	}
	function zoom_child(e, x, ratio) {
		if (e.attributes != undefined) {
			if (e.attributes.x != undefined) {
				orig_save(e, "x");
				e.attributes.x.value = (parseFloat(e.attributes.x.value) - x - 10) * ratio + 10;
				if (e.tagName == "text")
					e.attributes.x.value = find_child(e.parentNode, "rect[x]").attributes.x.value + 3;
			}
			if (e.attributes.width != undefined) {
				orig_save(e, "width");
				e.attributes.width.value = parseFloat(e.attributes.width.value) * ratio;
			}
		}

		if (e.childNodes == undefined) return;
		for (var i = 0, c = e.childNodes; i < c.length; i++) {
			zoom_child(c[i], x - 10, ratio);
		}
	}
	function zoom_parent(e) {
		if (e.attributes) {
			if (e.attributes.x != undefined) {
				orig_save(e, "x");
				e.attributes.x.value = 10;
			}
			if (e.attributes.width != undefined) {
				orig_save(e, "width");
				e.attributes.width.value = parseInt(svg.width.baseVal.value) - (10 * 2);
			}
		}
		if (e.childNodes == undefined) return;
		for (var i = 0, c = e.childNodes; i < c.length; i++) {
			zoom_parent(c[i]);
		}
	}
	function zoom(node) {
		var attr = find_child(node, "rect").attributes;
		var width = parseFloat(attr.width.value);
		var xmin = parseFloat(attr.x.value);
		var xmax = parseFloat(xmin + width);
		var ymin = parseFloat(attr.y.value);
		var ratio = (svg.width.baseVal.value - 2 * 10) / width;

		// XXX: Workaround for JavaScript float issues (fix me)
		var fudge = 0.0001;

		unzoombtn.classList.remove("hide");

		var el = document.getElementById("frames").children;
		for (var i = 0; i < el.length; i++) {
			var e = el[i];
			var a = find_child(e, "rect").attributes;
			var ex = parseFloat(a.x.value);
			var ew = parseFloat(a.width.value);
			var upstack;
			// Is it an ancestor
			if (0 == 0) {
				upstack = parseFloat(a.y.value) > ymin;
			} else {
				upstack = parseFloat(a.y.value) < ymin;
			}
			if (upstack) {
				// Direct ancestor
				if (ex <= xmin && (ex+ew+fudge) >= xmax) {
					e.classList.add("parent");
					zoom_parent(e);
					update_text(e);
				}
				// not in current path
				else
					e.classList.add("hide");
			}
			// Children maybe
			else {
				// no common path
				if (ex < xmin || ex + fudge >= xmax) {
					e.classList.add("hide");
				}
				else {
					zoom_child(e, xmin, ratio);
					update_text(e);
				}
			}
		}
		search();
	}
	function unzoom(dont_update_text) {
		unzoombtn.classList.add("hide");
		var el = document.getElementById("frames").children;
		for(var i = 0; i < el.length; i++) {
			el[i].classList.remove("parent");
			el[i].classList.remove("hide");
			zoom_reset(el[i]);
			if(!dont_update_text) update_text(el[i]);
		}
		search();
	}
	function clearzoom() {
		unzoom();

		// remove zoom state
		var params = get_params();
		if (params.x) delete params.x;
		if (params.y) delete params.y;
		history.replaceState(null, null, parse_params(params));
	}

	// search
	function toggle_ignorecase() {
		ignorecase = !ignorecase;
		if (ignorecase) {
			ignorecaseBtn.classList.add("show");
		} else {
			ignorecaseBtn.classList.remove("show");
		}
		reset_search();
		search();
	}
	function reset_search() {
		var el = document.querySelectorAll("#frames rect");
		for (var i = 0; i < el.length; i++) {
			orig_load(el[i], "fill")
		}
		var params = get_params();
		delete params.s;
		history.replaceState(null, null, parse_params(params));
	}
	function search_prompt() {
		if (!searching) {
			var term = prompt("Enter a search term (regexp " +
			    "allowed, eg: ^ext4_)"
			    + (ignorecase ? ", ignoring case" : "")
			    + "\nPress Ctrl-i to toggle case sensitivity", "");
			if (term != null) search(term);
		} else {
			reset_search();
			searching = 0;
			currentSearchTerm = null;
			searchbtn.classList.remove("show");
			searchbtn.firstChild.nodeValue = "Search"
			matchedtxt.classList.add("hide");
			matchedtxt.firstChild.nodeValue = ""
		}
	}
	function search(term) {
		if (term) currentSearchTerm = term;

		var re = new RegExp(currentSearchTerm, ignorecase ? 'i' : '');
		var el = document.getElementById("frames").children;
		var matches = new Object();
		var maxwidth = 0;
		for (var i = 0; i < el.length; i++) {
			var e = el[i];
			var func = g_to_func(e);
			var rect = find_child(e, "rect");
			if (func == null || rect == null)
				continue;

			// Save max width. Only works as we have a root frame
			var w = parseFloat(rect.attributes.width.value);
			if (w > maxwidth)
				maxwidth = w;

			if (func.match(re)) {
				// highlight
				var x = parseFloat(rect.attributes.x.value);
				orig_save(rect, "fill");
				rect.attributes.fill.value = "rgb(230,0,230)";

				// remember matches
				if (matches[x] == undefined) {
					matches[x] = w;
				} else {
					if (w > matches[x]) {
						// overwrite with parent
						matches[x] = w;
					}
				}
				searching = 1;
			}
		}
		if (!searching)
			return;
		var params = get_params();
		params.s = currentSearchTerm;
		history.replaceState(null, null, parse_params(params));

		searchbtn.classList.add("show");
		searchbtn.firstChild.nodeValue = "Reset Search";

		// calculate percent matched, excluding vertical overlap
		var count = 0;
		var lastx = -1;
		var lastw = 0;
		var keys = Array();
		for (k in matches) {
			if (matches.hasOwnProperty(k))
				keys.push(k);
		}
		// sort the matched frames by their x location
		// ascending, then width descending
		keys.sort(function(a, b){
			return a - b;
		});
		// Step through frames saving only the biggest bottom-up frames
		// thanks to the sort order. This relies on the tree property
		// where children are always smaller than their parents.
		var fudge = 0.0001;	// JavaScript floating point
		for (var k in keys) {
			var x = parseFloat(keys[k]);
			var w = matches[keys[k]];
			if (x >= lastx + lastw - fudge) {
				count += w;
				lastx = x;
				lastw = w;
			}
		}
		// display matched percent
		matchedtxt.classList.remove("hide");
		var pct = 100 * count / maxwidth;
		if (pct != 100) pct = pct.toFixed(1)
		matchedtxt.firstChild.nodeValue = "Matched: " + pct + "%";
	}
]]>
</script>
<rect x="0.0" y="0" width="1200.0" height="342.0" fill="url(#background)"  />
<text id="title" x="600.00" y="24" >Flame Graph</text>
<text id="details" x="10.00" y="325" > </text>
<text id="unzoom" x="10.00" y="24" class="hide">Reset Zoom</text>
<text id="search" x="1090.00" y="24" >Search</text>
<text id="ignorecase" x="1174.00" y="24" >ic</text>
<text id="matched" x="1090.00" y="325" > </text>
<g id="frames">
<g >
<title>vfs_write (1,847,589 samples, 0.21%)</title><rect x="11.8" y="181" width="2.5" height="15.0" fill="rgb(250,209,50)" rx="2" ry="2" />
<text  x="14.81" y="191.5" ></text>
</g>
<g >
<title>mprotect_fixup (162,792 samples, 0.02%)</title><rect x="14.3" y="133" width="0.2" height="15.0" fill="rgb(236,144,34)" rx="2" ry="2" />
<text  x="17.27" y="143.5" ></text>
</g>
<g >
<title>do_syscall_64 (378,511 samples, 0.04%)</title><rect x="252.8" y="229" width="0.5" height="15.0" fill="rgb(209,20,4)" rx="2" ry="2" />
<text  x="255.82" y="239.5" ></text>
</g>
<g >
<title>do_user_addr_fault (765,659 samples, 0.09%)</title><rect x="747.5" y="213" width="1.0" height="15.0" fill="rgb(228,108,25)" rx="2" ry="2" />
<text  x="750.52" y="223.5" ></text>
</g>
<g >
<title>do_filp_open (1,363,370 samples, 0.15%)</title><rect x="10.0" y="165" width="1.8" height="15.0" fill="rgb(211,28,6)" rx="2" ry="2" />
<text  x="13.00" y="175.5" ></text>
</g>
<g >
<title>__libc_write (1,847,589 samples, 0.21%)</title><rect x="11.8" y="245" width="2.5" height="15.0" fill="rgb(238,154,37)" rx="2" ry="2" />
<text  x="14.81" y="255.5" ></text>
</g>
<g >
<title>load_elf_binary (162,792 samples, 0.02%)</title><rect x="14.3" y="165" width="0.2" height="15.0" fill="rgb(223,83,20)" rx="2" ry="2" />
<text  x="17.27" y="175.5" ></text>
</g>
<g >
<title>syscall_exit_to_user_mode (378,511 samples, 0.04%)</title><rect x="252.8" y="213" width="0.5" height="15.0" fill="rgb(251,211,50)" rx="2" ry="2" />
<text  x="255.82" y="223.5" ></text>
</g>
<g >
<title>perf_iterate_ctx (162,792 samples, 0.02%)</title><rect x="14.3" y="85" width="0.2" height="15.0" fill="rgb(205,4,0)" rx="2" ry="2" />
<text  x="17.27" y="95.5" ></text>
</g>
<g >
<title>exc_page_fault (765,659 samples, 0.09%)</title><rect x="747.5" y="229" width="1.0" height="15.0" fill="rgb(212,35,8)" rx="2" ry="2" />
<text  x="750.52" y="239.5" ></text>
</g>
<g >
<title>[unknown] (181,692,453 samples, 20.47%)</title><rect x="10.0" y="261" width="241.6" height="15.0" fill="rgb(210,24,5)" rx="2" ry="2" />
<text  x="13.00" y="271.5" >[unknown]</text>
</g>
<g >
<title>do_user_addr_fault (700,468 samples, 0.08%)</title><rect x="962.3" y="213" width="1.0" height="15.0" fill="rgb(228,108,25)" rx="2" ry="2" />
<text  x="965.33" y="223.5" ></text>
</g>
<g >
<title>w2c_decode__webp__wasm_PredictorAdd7_C (7,918,960 samples, 0.89%)</title><rect x="168.3" y="245" width="10.6" height="15.0" fill="rgb(240,164,39)" rx="2" ry="2" />
<text  x="171.32" y="255.5" ></text>
</g>
<g >
<title>setup_arg_pages (162,792 samples, 0.02%)</title><rect x="14.3" y="149" width="0.2" height="15.0" fill="rgb(222,82,19)" rx="2" ry="2" />
<text  x="17.27" y="159.5" ></text>
</g>
<g >
<title>_start (378,511 samples, 0.04%)</title><rect x="252.8" y="261" width="0.5" height="15.0" fill="rgb(245,185,44)" rx="2" ry="2" />
<text  x="255.82" y="271.5" ></text>
</g>
<g >
<title>bprm_execve (162,792 samples, 0.02%)</title><rect x="14.3" y="181" width="0.2" height="15.0" fill="rgb(218,61,14)" rx="2" ry="2" />
<text  x="17.27" y="191.5" ></text>
</g>
<g >
<title>__folio_alloc (700,468 samples, 0.08%)</title><rect x="962.3" y="149" width="1.0" height="15.0" fill="rgb(224,91,21)" rx="2" ry="2" />
<text  x="965.33" y="159.5" ></text>
</g>
<g >
<title>__mod_lruvec_page_state (765,659 samples, 0.09%)</title><rect x="747.5" y="149" width="1.0" height="15.0" fill="rgb(245,185,44)" rx="2" ry="2" />
<text  x="750.52" y="159.5" ></text>
</g>
<g >
<title>w2c_decode__webp__wasm_VP8LAddGreenToBlueAndRed_C (41,047,480 samples, 4.63%)</title><rect x="831.9" y="261" width="54.5" height="15.0" fill="rgb(236,142,34)" rx="2" ry="2" />
<text  x="834.87" y="271.5" >w2c_d..</text>
</g>
<g >
<title>w2c_decode__webp__wasm_DecodeImageStream (923,788 samples, 0.10%)</title><rect x="748.5" y="261" width="1.3" height="15.0" fill="rgb(254,228,54)" rx="2" ry="2" />
<text  x="751.54" y="271.5" ></text>
</g>
<g >
<title>w2c_decode__webp__wasm_PredictorAdd2_C (3,694,468 samples, 0.42%)</title><rect x="148.8" y="245" width="4.9" height="15.0" fill="rgb(222,82,19)" rx="2" ry="2" />
<text  x="151.80" y="255.5" ></text>
</g>
<g >
<title>w2c_decode__webp__wasm_DecodeImageData (332,391,495 samples, 37.45%)</title><rect x="306.6" y="261" width="441.9" height="15.0" fill="rgb(217,59,14)" rx="2" ry="2" />
<text  x="309.58" y="271.5" >w2c_decode__webp__wasm_DecodeImageData</text>
</g>
<g >
<title>clear_page_rep (700,468 samples, 0.08%)</title><rect x="962.3" y="101" width="1.0" height="15.0" fill="rgb(253,221,52)" rx="2" ry="2" />
<text  x="965.33" y="111.5" ></text>
</g>
<g >
<title>handle_mm_fault (700,468 samples, 0.08%)</title><rect x="962.3" y="197" width="1.0" height="15.0" fill="rgb(234,135,32)" rx="2" ry="2" />
<text  x="965.33" y="207.5" ></text>
</g>
<g >
<title>perf_event_mmap (162,792 samples, 0.02%)</title><rect x="14.3" y="117" width="0.2" height="15.0" fill="rgb(229,112,26)" rx="2" ry="2" />
<text  x="17.27" y="127.5" ></text>
</g>
<g >
<title>get_page_from_freelist (700,468 samples, 0.08%)</title><rect x="962.3" y="117" width="1.0" height="15.0" fill="rgb(252,218,52)" rx="2" ry="2" />
<text  x="965.33" y="127.5" ></text>
</g>
<g >
<title>w2c_decode__webp__wasm_PredictorAdd9_C (924,002 samples, 0.10%)</title><rect x="180.1" y="245" width="1.2" height="15.0" fill="rgb(227,104,25)" rx="2" ry="2" />
<text  x="183.08" y="255.5" ></text>
</g>
<g >
<title>w2c_decode__webp__wasm_dlmalloc (438,992 samples, 0.05%)</title><rect x="1189.4" y="261" width="0.5" height="15.0" fill="rgb(250,208,49)" rx="2" ry="2" />
<text  x="1192.36" y="271.5" ></text>
</g>
<g >
<title>exit_to_user_mode_prepare (378,511 samples, 0.04%)</title><rect x="252.8" y="197" width="0.5" height="15.0" fill="rgb(228,108,25)" rx="2" ry="2" />
<text  x="255.82" y="207.5" ></text>
</g>
<g >
<title>w2c_decode__webp__wasm_VP8LTransformColorInverse_C (22,168,364 samples, 2.50%)</title><rect x="222.1" y="245" width="29.5" height="15.0" fill="rgb(249,205,49)" rx="2" ry="2" />
<text  x="225.11" y="255.5" >w2..</text>
</g>
<g >
<title>asm_exc_page_fault (700,468 samples, 0.08%)</title><rect x="962.3" y="245" width="1.0" height="15.0" fill="rgb(225,93,22)" rx="2" ry="2" />
<text  x="965.33" y="255.5" ></text>
</g>
<g >
<title>cgroup_rstat_flush_locked (923,783 samples, 0.10%)</title><rect x="11.8" y="53" width="1.2" height="15.0" fill="rgb(209,19,4)" rx="2" ry="2" />
<text  x="14.81" y="63.5" ></text>
</g>
<g >
<title>__mod_lruvec_page_state (923,806 samples, 0.10%)</title><rect x="13.0" y="69" width="1.3" height="15.0" fill="rgb(245,185,44)" rx="2" ry="2" />
<text  x="16.04" y="79.5" ></text>
</g>
<g >
<title>w2c_decode__webp__wasm_VP8LBuildHuffmanTable (922,428 samples, 0.10%)</title><rect x="886.4" y="261" width="1.3" height="15.0" fill="rgb(214,45,10)" rx="2" ry="2" />
<text  x="889.45" y="271.5" ></text>
</g>
<g >
<title>ksys_write (1,847,589 samples, 0.21%)</title><rect x="11.8" y="197" width="2.5" height="15.0" fill="rgb(205,4,1)" rx="2" ry="2" />
<text  x="14.81" y="207.5" ></text>
</g>
<g >
<title>__mod_memcg_lruvec_state (923,806 samples, 0.10%)</title><rect x="13.0" y="53" width="1.3" height="15.0" fill="rgb(247,195,46)" rx="2" ry="2" />
<text  x="16.04" y="63.5" ></text>
</g>
<g >
<title>generic_write_end (923,806 samples, 0.10%)</title><rect x="13.0" y="133" width="1.3" height="15.0" fill="rgb(206,8,1)" rx="2" ry="2" />
<text  x="16.04" y="143.5" ></text>
</g>
<g >
<title>hook_file_open (923,764 samples, 0.10%)</title><rect x="10.0" y="101" width="1.2" height="15.0" fill="rgb(248,198,47)" rx="2" ry="2" />
<text  x="13.00" y="111.5" ></text>
</g>
<g >
<title>w2c_decode__webp__wasm_PredictorAdd11_C (14,767,844 samples, 1.66%)</title><rect x="14.5" y="245" width="19.6" height="15.0" fill="rgb(212,36,8)" rx="2" ry="2" />
<text  x="17.49" y="255.5" ></text>
</g>
<g >
<title>mark_buffer_dirty (923,806 samples, 0.10%)</title><rect x="13.0" y="101" width="1.3" height="15.0" fill="rgb(240,163,39)" rx="2" ry="2" />
<text  x="16.04" y="111.5" ></text>
</g>
<g >
<title>do_syscall_64 (1,847,589 samples, 0.21%)</title><rect x="11.8" y="213" width="2.5" height="15.0" fill="rgb(209,20,4)" rx="2" ry="2" />
<text  x="14.81" y="223.5" ></text>
</g>
<g >
<title>w2c_decode__webp__wasm_VP8LInverseTransform (600,601 samples, 0.07%)</title><rect x="1055.6" y="261" width="0.8" height="15.0" fill="rgb(247,194,46)" rx="2" ry="2" />
<text  x="1058.59" y="271.5" ></text>
</g>
<g >
<title>w2c_decode__webp__wasm_PredictorAdd4_C (2,769,121 samples, 0.31%)</title><rect x="158.6" y="245" width="3.7" height="15.0" fill="rgb(210,23,5)" rx="2" ry="2" />
<text  x="161.63" y="255.5" ></text>
</g>
<g >
<title>do_dentry_open (1,363,370 samples, 0.15%)</title><rect x="10.0" y="133" width="1.8" height="15.0" fill="rgb(243,175,41)" rx="2" ry="2" />
<text  x="13.00" y="143.5" ></text>
</g>
<g >
<title>w2c_decode__webp__wasm_PredictorAdd12_C (29,489,182 samples, 3.32%)</title><rect x="749.8" y="261" width="39.2" height="15.0" fill="rgb(206,6,1)" rx="2" ry="2" />
<text  x="752.77" y="271.5" >w2c..</text>
</g>
<g >
<title>__mem_cgroup_flush_stats (923,783 samples, 0.10%)</title><rect x="11.8" y="85" width="1.2" height="15.0" fill="rgb(208,16,3)" rx="2" ry="2" />
<text  x="14.81" y="95.5" ></text>
</g>
<g >
<title>do_exit (923,859 samples, 0.10%)</title><rect x="253.3" y="197" width="1.2" height="15.0" fill="rgb(231,122,29)" rx="2" ry="2" />
<text  x="256.32" y="207.5" ></text>
</g>
<g >
<title>w2c_decode__webp__wasm_PredictorAdd1_C (23,087,900 samples, 2.60%)</title><rect x="789.0" y="261" width="30.7" height="15.0" fill="rgb(229,112,26)" rx="2" ry="2" />
<text  x="791.98" y="271.5" >w2..</text>
</g>
<g >
<title>do_syscall_64 (1,363,370 samples, 0.15%)</title><rect x="10.0" y="213" width="1.8" height="15.0" fill="rgb(209,20,4)" rx="2" ry="2" />
<text  x="13.00" y="223.5" ></text>
</g>
<g >
<title>__handle_mm_fault (700,468 samples, 0.08%)</title><rect x="962.3" y="181" width="1.0" height="15.0" fill="rgb(207,9,2)" rx="2" ry="2" />
<text  x="965.33" y="191.5" ></text>
</g>
<g >
<title>entry_SYSCALL_64_after_hwframe (378,511 samples, 0.04%)</title><rect x="252.8" y="245" width="0.5" height="15.0" fill="rgb(218,63,15)" rx="2" ry="2" />
<text  x="255.82" y="255.5" ></text>
</g>
<g >
<title>__fput (378,511 samples, 0.04%)</title><rect x="252.8" y="165" width="0.5" height="15.0" fill="rgb(248,200,47)" rx="2" ry="2" />
<text  x="255.82" y="175.5" ></text>
</g>
<g >
<title>asm_exc_page_fault (765,659 samples, 0.09%)</title><rect x="747.5" y="245" width="1.0" height="15.0" fill="rgb(225,93,22)" rx="2" ry="2" />
<text  x="750.52" y="255.5" ></text>
</g>
<g >
<title>__x64_sys_openat (1,363,370 samples, 0.15%)</title><rect x="10.0" y="197" width="1.8" height="15.0" fill="rgb(251,215,51)" rx="2" ry="2" />
<text  x="13.00" y="207.5" ></text>
</g>
<g >
<title>w2c_decode__webp__wasm_VP8LTransformColorInverse_C (96,307,395 samples, 10.85%)</title><rect x="1061.3" y="261" width="128.1" height="15.0" fill="rgb(249,205,49)" rx="2" ry="2" />
<text  x="1064.31" y="271.5" >w2c_decode__webp..</text>
</g>
<g >
<title>unmap_page_range (923,859 samples, 0.10%)</title><rect x="253.3" y="133" width="1.2" height="15.0" fill="rgb(206,5,1)" rx="2" ry="2" />
<text  x="256.32" y="143.5" ></text>
</g>
<g >
<title>perf_iterate_sb (162,792 samples, 0.02%)</title><rect x="14.3" y="101" width="0.2" height="15.0" fill="rgb(244,179,42)" rx="2" ry="2" />
<text  x="17.27" y="111.5" ></text>
</g>
<g >
<title>exit_mmap (923,859 samples, 0.10%)</title><rect x="253.3" y="165" width="1.2" height="15.0" fill="rgb(236,143,34)" rx="2" ry="2" />
<text  x="256.32" y="175.5" ></text>
</g>
<g >
<title>entry_SYSCALL_64_after_hwframe (1,363,370 samples, 0.15%)</title><rect x="10.0" y="229" width="1.8" height="15.0" fill="rgb(218,63,15)" rx="2" ry="2" />
<text  x="13.00" y="239.5" ></text>
</g>
<g >
<title>all (887,452,721 samples, 100%)</title><rect x="10.0" y="293" width="1180.0" height="15.0" fill="rgb(213,39,9)" rx="2" ry="2" />
<text  x="13.00" y="303.5" ></text>
</g>
<g >
<title>w2c_decode__webp__wasm_VP8LAddGreenToBlueAndRed_C (1,846,045 samples, 0.21%)</title><rect x="181.3" y="245" width="2.5" height="15.0" fill="rgb(236,142,34)" rx="2" ry="2" />
<text  x="184.31" y="255.5" ></text>
</g>
<g >
<title>__block_commit_write.constprop.0.isra.0 (923,806 samples, 0.10%)</title><rect x="13.0" y="117" width="1.3" height="15.0" fill="rgb(249,205,49)" rx="2" ry="2" />
<text  x="16.04" y="127.5" ></text>
</g>
<g >
<title>do_syscall_64 (162,792 samples, 0.02%)</title><rect x="14.3" y="229" width="0.2" height="15.0" fill="rgb(209,20,4)" rx="2" ry="2" />
<text  x="17.27" y="239.5" ></text>
</g>
<g >
<title>w2c_decode__webp__wasm_PredictorAdd3_C (3,694,703 samples, 0.42%)</title><rect x="153.7" y="245" width="4.9" height="15.0" fill="rgb(216,52,12)" rx="2" ry="2" />
<text  x="156.72" y="255.5" ></text>
</g>
<g >
<title>__x64_sys_exit_group (923,859 samples, 0.10%)</title><rect x="253.3" y="229" width="1.2" height="15.0" fill="rgb(214,42,10)" rx="2" ry="2" />
<text  x="256.32" y="239.5" ></text>
</g>
<g >
<title>check_preemption_disabled (923,806 samples, 0.10%)</title><rect x="13.0" y="37" width="1.3" height="15.0" fill="rgb(220,73,17)" rx="2" ry="2" />
<text  x="16.04" y="47.5" ></text>
</g>
<g >
<title>decode_webp_was (887,410,983 samples, 100.00%)</title><rect x="10.0" y="277" width="1179.9" height="15.0" fill="rgb(216,54,12)" rx="2" ry="2" />
<text  x="13.00" y="287.5" >decode_webp_was</text>
</g>
<g >
<title>task_work_run (378,511 samples, 0.04%)</title><rect x="252.8" y="181" width="0.5" height="15.0" fill="rgb(209,22,5)" rx="2" ry="2" />
<text  x="255.82" y="191.5" ></text>
</g>
<g >
<title>w2c_decode__webp__wasm_PredictorAdd12_C (1,846,947 samples, 0.21%)</title><rect x="34.1" y="245" width="2.5" height="15.0" fill="rgb(206,6,1)" rx="2" ry="2" />
<text  x="37.12" y="255.5" ></text>
</g>
<g >
<title>entry_SYSCALL_64_after_hwframe (162,792 samples, 0.02%)</title><rect x="14.3" y="245" width="0.2" height="15.0" fill="rgb(218,63,15)" rx="2" ry="2" />
<text  x="17.27" y="255.5" ></text>
</g>
<g >
<title>__memmove_avx_unaligned (924,302 samples, 0.10%)</title><rect x="251.6" y="261" width="1.2" height="15.0" fill="rgb(254,228,54)" rx="2" ry="2" />
<text  x="254.59" y="271.5" ></text>
</g>
<g >
<title>__slab_free (378,511 samples, 0.04%)</title><rect x="252.8" y="149" width="0.5" height="15.0" fill="rgb(222,78,18)" rx="2" ry="2" />
<text  x="255.82" y="159.5" ></text>
</g>
<g >
<title>do_syscall_64 (923,859 samples, 0.10%)</title><rect x="253.3" y="245" width="1.2" height="15.0" fill="rgb(209,20,4)" rx="2" ry="2" />
<text  x="256.32" y="255.5" ></text>
</g>
<g >
<title>__mmput (923,859 samples, 0.10%)</title><rect x="253.3" y="181" width="1.2" height="15.0" fill="rgb(249,203,48)" rx="2" ry="2" />
<text  x="256.32" y="191.5" ></text>
</g>
<g >
<title>w2c_decode__webp__wasm_BuildHuffmanTable (39,130,718 samples, 4.41%)</title><rect x="254.5" y="261" width="52.1" height="15.0" fill="rgb(240,161,38)" rx="2" ry="2" />
<text  x="257.55" y="271.5" >w2c_d..</text>
</g>
<g >
<title>balance_dirty_pages_ratelimited_flags (923,783 samples, 0.10%)</title><rect x="11.8" y="133" width="1.2" height="15.0" fill="rgb(207,10,2)" rx="2" ry="2" />
<text  x="14.81" y="143.5" ></text>
</g>
<g >
<title>__handle_mm_fault (765,659 samples, 0.09%)</title><rect x="747.5" y="181" width="1.0" height="15.0" fill="rgb(207,9,2)" rx="2" ry="2" />
<text  x="750.52" y="191.5" ></text>
</g>
<g >
<title>handle_mm_fault (765,659 samples, 0.09%)</title><rect x="747.5" y="197" width="1.0" height="15.0" fill="rgb(234,135,32)" rx="2" ry="2" />
<text  x="750.52" y="207.5" ></text>
</g>
<g >
<title>do_sys_openat2 (1,363,370 samples, 0.15%)</title><rect x="10.0" y="181" width="1.8" height="15.0" fill="rgb(253,221,52)" rx="2" ry="2" />
<text  x="13.00" y="191.5" ></text>
</g>
<g >
<title>w2c_decode__webp__wasm_PredictorAdd1_C (6,451,493 samples, 0.73%)</title><rect x="140.2" y="245" width="8.6" height="15.0" fill="rgb(229,112,26)" rx="2" ry="2" />
<text  x="143.23" y="255.5" ></text>
</g>
<g >
<title>__folio_mark_dirty (923,806 samples, 0.10%)</title><rect x="13.0" y="85" width="1.3" height="15.0" fill="rgb(239,159,38)" rx="2" ry="2" />
<text  x="16.04" y="95.5" ></text>
</g>
<g >
<title>w2c_decode__webp__wasm_PredictorAdd8_C (923,928 samples, 0.10%)</title><rect x="178.9" y="245" width="1.2" height="15.0" fill="rgb(234,134,32)" rx="2" ry="2" />
<text  x="181.85" y="255.5" ></text>
</g>
<g >
<title>ext4_buffered_write_iter (1,847,589 samples, 0.21%)</title><rect x="11.8" y="165" width="2.5" height="15.0" fill="rgb(213,40,9)" rx="2" ry="2" />
<text  x="14.81" y="175.5" ></text>
</g>
<g >
<title>entry_SYSCALL_64_after_hwframe (1,847,589 samples, 0.21%)</title><rect x="11.8" y="229" width="2.5" height="15.0" fill="rgb(218,63,15)" rx="2" ry="2" />
<text  x="14.81" y="239.5" ></text>
</g>
<g >
<title>exc_page_fault (700,468 samples, 0.08%)</title><rect x="962.3" y="229" width="1.0" height="15.0" fill="rgb(212,35,8)" rx="2" ry="2" />
<text  x="965.33" y="239.5" ></text>
</g>
<g >
<title>w2c_decode__webp__wasm_VP8LReadBits (3,695,157 samples, 0.42%)</title><rect x="1056.4" y="261" width="4.9" height="15.0" fill="rgb(249,206,49)" rx="2" ry="2" />
<text  x="1059.39" y="271.5" ></text>
</g>
<g >
<title>w2c_decode__webp__wasm_ReadHuffmanCode (9,167,913 samples, 1.03%)</title><rect x="819.7" y="261" width="12.2" height="15.0" fill="rgb(243,177,42)" rx="2" ry="2" />
<text  x="822.68" y="271.5" ></text>
</g>
<g >
<title>w2c_decode__webp__wasm_VP8LInverseTransform (28,840,343 samples, 3.25%)</title><rect x="183.8" y="245" width="38.3" height="15.0" fill="rgb(247,194,46)" rx="2" ry="2" />
<text  x="186.76" y="255.5" >w2c..</text>
</g>
<g >
<title>w2c_decode__webp__wasm_VP8LDoFillBitWindow (69,442,669 samples, 7.82%)</title><rect x="963.3" y="261" width="92.3" height="15.0" fill="rgb(232,127,30)" rx="2" ry="2" />
<text  x="966.26" y="271.5" >w2c_decode_..</text>
</g>
<g >
<title>__libc_open64 (1,363,370 samples, 0.15%)</title><rect x="10.0" y="245" width="1.8" height="15.0" fill="rgb(235,140,33)" rx="2" ry="2" />
<text  x="13.00" y="255.5" ></text>
</g>
<g >
<title>w2c_decode__webp__wasm_PredictorAdd5_C (4,520,727 samples, 0.51%)</title><rect x="162.3" y="245" width="6.0" height="15.0" fill="rgb(253,223,53)" rx="2" ry="2" />
<text  x="165.31" y="255.5" ></text>
</g>
<g >
<title>vma_alloc_folio (700,468 samples, 0.08%)</title><rect x="962.3" y="165" width="1.0" height="15.0" fill="rgb(245,187,44)" rx="2" ry="2" />
<text  x="965.33" y="175.5" ></text>
</g>
<g >
<title>__alloc_pages (700,468 samples, 0.08%)</title><rect x="962.3" y="133" width="1.0" height="15.0" fill="rgb(233,129,30)" rx="2" ry="2" />
<text  x="965.33" y="143.5" ></text>
</g>
<g >
<title>entry_SYSCALL_64_after_hwframe (923,859 samples, 0.10%)</title><rect x="253.3" y="261" width="1.2" height="15.0" fill="rgb(218,63,15)" rx="2" ry="2" />
<text  x="256.32" y="271.5" ></text>
</g>
<g >
<title>do_execveat_common.isra.0 (162,792 samples, 0.02%)</title><rect x="14.3" y="197" width="0.2" height="15.0" fill="rgb(231,123,29)" rx="2" ry="2" />
<text  x="17.27" y="207.5" ></text>
</g>
<g >
<title>path_openat (1,363,370 samples, 0.15%)</title><rect x="10.0" y="149" width="1.8" height="15.0" fill="rgb(249,202,48)" rx="2" ry="2" />
<text  x="13.00" y="159.5" ></text>
</g>
<g >
<title>generic_perform_write (1,847,589 samples, 0.21%)</title><rect x="11.8" y="149" width="2.5" height="15.0" fill="rgb(236,146,35)" rx="2" ry="2" />
<text  x="14.81" y="159.5" ></text>
</g>
<g >
<title>w2c_decode__webp__wasm_PredictorAdd13_C (77,951,757 samples, 8.78%)</title><rect x="36.6" y="245" width="103.6" height="15.0" fill="rgb(249,206,49)" rx="2" ry="2" />
<text  x="39.58" y="255.5" >w2c_decode__..</text>
</g>
<g >
<title>try_module_get (439,606 samples, 0.05%)</title><rect x="11.2" y="117" width="0.6" height="15.0" fill="rgb(228,108,25)" rx="2" ry="2" />
<text  x="14.23" y="127.5" ></text>
</g>
<g >
<title>w2c_decode__webp__wasm_VP8LConvertBGRAToRGB_C (56,846,140 samples, 6.41%)</title><rect x="887.7" y="261" width="75.6" height="15.0" fill="rgb(235,138,33)" rx="2" ry="2" />
<text  x="890.67" y="271.5" >w2c_deco..</text>
</g>
<g >
<title>balance_dirty_pages (923,783 samples, 0.10%)</title><rect x="11.8" y="117" width="1.2" height="15.0" fill="rgb(247,193,46)" rx="2" ry="2" />
<text  x="14.81" y="127.5" ></text>
</g>
<g >
<title>mem_cgroup_wb_stats (923,783 samples, 0.10%)</title><rect x="11.8" y="101" width="1.2" height="15.0" fill="rgb(211,28,6)" rx="2" ry="2" />
<text  x="14.81" y="111.5" ></text>
</g>
<g >
<title>page_add_new_anon_rmap (765,659 samples, 0.09%)</title><rect x="747.5" y="165" width="1.0" height="15.0" fill="rgb(235,138,33)" rx="2" ry="2" />
<text  x="750.52" y="175.5" ></text>
</g>
<g >
<title>_compound_head (923,859 samples, 0.10%)</title><rect x="253.3" y="117" width="1.2" height="15.0" fill="rgb(225,94,22)" rx="2" ry="2" />
<text  x="256.32" y="127.5" ></text>
</g>
<g >
<title>__x64_sys_execve (162,792 samples, 0.02%)</title><rect x="14.3" y="213" width="0.2" height="15.0" fill="rgb(247,193,46)" rx="2" ry="2" />
<text  x="17.27" y="223.5" ></text>
</g>
<g >
<title>cgroup_rstat_flush_irqsafe (923,783 samples, 0.10%)</title><rect x="11.8" y="69" width="1.2" height="15.0" fill="rgb(227,103,24)" rx="2" ry="2" />
<text  x="14.81" y="79.5" ></text>
</g>
<g >
<title>unmap_vmas (923,859 samples, 0.10%)</title><rect x="253.3" y="149" width="1.2" height="15.0" fill="rgb(243,176,42)" rx="2" ry="2" />
<text  x="256.32" y="159.5" ></text>
</g>
<g >
<title>do_group_exit (923,859 samples, 0.10%)</title><rect x="253.3" y="213" width="1.2" height="15.0" fill="rgb(219,67,16)" rx="2" ry="2" />
<text  x="256.32" y="223.5" ></text>
</g>
<g >
<title>security_file_open (923,764 samples, 0.10%)</title><rect x="10.0" y="117" width="1.2" height="15.0" fill="rgb(208,17,4)" rx="2" ry="2" />
<text  x="13.00" y="127.5" ></text>
</g>
</g>
</svg>
