<?xml version="1.0" standalone="no"?>
<!DOCTYPE svg PUBLIC "-//W3C//DTD SVG 1.1//EN" "http://www.w3.org/Graphics/SVG/1.1/DTD/svg11.dtd">
<svg version="1.1" width="1200" height="486" onload="init(evt)" viewBox="0 0 1200 486" xmlns="http://www.w3.org/2000/svg" xmlns:xlink="http://www.w3.org/1999/xlink">
<!-- Flame graph stack visualization. See https://github.com/brendangregg/FlameGraph for latest version, and http://www.brendangregg.com/flamegraphs.html for examples. -->
<!-- NOTES:  -->
<defs>
	<linearGradient id="background" y1="0" y2="1" x1="0" x2="0" >
		<stop stop-color="#eeeeee" offset="5%" />
		<stop stop-color="#eeeeb0" offset="95%" />
	</linearGradient>
</defs>
<style type="text/css">
	text { font-family:Verdana; font-size:12px; fill:rgb(0,0,0); }
	#search, #ignorecase { opacity:0.1; cursor:pointer; }
	#search:hover, #search.show, #ignorecase:hover, #ignorecase.show { opacity:1; }
	#subtitle { text-anchor:middle; font-color:rgb(160,160,160); }
	#title { text-anchor:middle; font-size:17px}
	#unzoom { cursor:pointer; }
	#frames > *:hover { stroke:black; stroke-width:0.5; cursor:pointer; }
	.hide { display:none; }
	.parent { opacity:0.5; }
</style>
<script type="text/ecmascript">
<![CDATA[
	"use strict";
	var details, searchbtn, unzoombtn, matchedtxt, svg, searching, currentSearchTerm, ignorecase, ignorecaseBtn;
	function init(evt) {
		details = document.getElementById("details").firstChild;
		searchbtn = document.getElementById("search");
		ignorecaseBtn = document.getElementById("ignorecase");
		unzoombtn = document.getElementById("unzoom");
		matchedtxt = document.getElementById("matched");
		svg = document.getElementsByTagName("svg")[0];
		searching = 0;
		currentSearchTerm = null;

		// use GET parameters to restore a flamegraphs state.
		var params = get_params();
		if (params.x && params.y)
			zoom(find_group(document.querySelector('[x="' + params.x + '"][y="' + params.y + '"]')));
                if (params.s) search(params.s);
	}

	// event listeners
	window.addEventListener("click", function(e) {
		var target = find_group(e.target);
		if (target) {
			if (target.nodeName == "a") {
				if (e.ctrlKey === false) return;
				e.preventDefault();
			}
			if (target.classList.contains("parent")) unzoom(true);
			zoom(target);
			if (!document.querySelector('.parent')) {
				// we have basically done a clearzoom so clear the url
				var params = get_params();
				if (params.x) delete params.x;
				if (params.y) delete params.y;
				history.replaceState(null, null, parse_params(params));
				unzoombtn.classList.add("hide");
				return;
			}

			// set parameters for zoom state
			var el = target.querySelector("rect");
			if (el && el.attributes && el.attributes.y && el.attributes._orig_x) {
				var params = get_params()
				params.x = el.attributes._orig_x.value;
				params.y = el.attributes.y.value;
				history.replaceState(null, null, parse_params(params));
			}
		}
		else if (e.target.id == "unzoom") clearzoom();
		else if (e.target.id == "search") search_prompt();
		else if (e.target.id == "ignorecase") toggle_ignorecase();
	}, false)

	// mouse-over for info
	// show
	window.addEventListener("mouseover", function(e) {
		var target = find_group(e.target);
		if (target) details.nodeValue = "Function: " + g_to_text(target);
	}, false)

	// clear
	window.addEventListener("mouseout", function(e) {
		var target = find_group(e.target);
		if (target) details.nodeValue = ' ';
	}, false)

	// ctrl-F for search
	// ctrl-I to toggle case-sensitive search
	window.addEventListener("keydown",function (e) {
		if (e.keyCode === 114 || (e.ctrlKey && e.keyCode === 70)) {
			e.preventDefault();
			search_prompt();
		}
		else if (e.ctrlKey && e.keyCode === 73) {
			e.preventDefault();
			toggle_ignorecase();
		}
	}, false)

	// functions
	function get_params() {
		var params = {};
		var paramsarr = window.location.search.substr(1).split('&');
		for (var i = 0; i < paramsarr.length; ++i) {
			var tmp = paramsarr[i].split("=");
			if (!tmp[0] || !tmp[1]) continue;
			params[tmp[0]]  = decodeURIComponent(tmp[1]);
		}
		return params;
	}
	function parse_params(params) {
		var uri = "?";
		for (var key in params) {
			uri += key + '=' + encodeURIComponent(params[key]) + '&';
		}
		if (uri.slice(-1) == "&")
			uri = uri.substring(0, uri.length - 1);
		if (uri == '?')
			uri = window.location.href.split('?')[0];
		return uri;
	}
	function find_child(node, selector) {
		var children = node.querySelectorAll(selector);
		if (children.length) return children[0];
	}
	function find_group(node) {
		var parent = node.parentElement;
		if (!parent) return;
		if (parent.id == "frames") return node;
		return find_group(parent);
	}
	function orig_save(e, attr, val) {
		if (e.attributes["_orig_" + attr] != undefined) return;
		if (e.attributes[attr] == undefined) return;
		if (val == undefined) val = e.attributes[attr].value;
		e.setAttribute("_orig_" + attr, val);
	}
	function orig_load(e, attr) {
		if (e.attributes["_orig_"+attr] == undefined) return;
		e.attributes[attr].value = e.attributes["_orig_" + attr].value;
		e.removeAttribute("_orig_"+attr);
	}
	function g_to_text(e) {
		var text = find_child(e, "title").firstChild.nodeValue;
		return (text)
	}
	function g_to_func(e) {
		var func = g_to_text(e);
		// if there's any manipulation we want to do to the function
		// name before it's searched, do it here before returning.
		return (func);
	}
	function update_text(e) {
		var r = find_child(e, "rect");
		var t = find_child(e, "text");
		var w = parseFloat(r.attributes.width.value) -3;
		var txt = find_child(e, "title").textContent.replace(/\([^(]*\)$/,"");
		t.attributes.x.value = parseFloat(r.attributes.x.value) + 3;

		// Smaller than this size won't fit anything
		if (w < 2 * 12 * 0.59) {
			t.textContent = "";
			return;
		}

		t.textContent = txt;
		var sl = t.getSubStringLength(0, txt.length);
		// check if only whitespace or if we can fit the entire string into width w
		if (/^ *$/.test(txt) || sl < w)
			return;

		// this isn't perfect, but gives a good starting point
		// and avoids calling getSubStringLength too often
		var start = Math.floor((w/sl) * txt.length);
		for (var x = start; x > 0; x = x-2) {
			if (t.getSubStringLength(0, x + 2) <= w) {
				t.textContent = txt.substring(0, x) + "..";
				return;
			}
		}
		t.textContent = "";
	}

	// zoom
	function zoom_reset(e) {
		if (e.attributes != undefined) {
			orig_load(e, "x");
			orig_load(e, "width");
		}
		if (e.childNodes == undefined) return;
		for (var i = 0, c = e.childNodes; i < c.length; i++) {
			zoom_reset(c[i]);
		}
	}
	function zoom_child(e, x, ratio) {
		if (e.attributes != undefined) {
			if (e.attributes.x != undefined) {
				orig_save(e, "x");
				e.attributes.x.value = (parseFloat(e.attributes.x.value) - x - 10) * ratio + 10;
				if (e.tagName == "text")
					e.attributes.x.value = find_child(e.parentNode, "rect[x]").attributes.x.value + 3;
			}
			if (e.attributes.width != undefined) {
				orig_save(e, "width");
				e.attributes.width.value = parseFloat(e.attributes.width.value) * ratio;
			}
		}

		if (e.childNodes == undefined) return;
		for (var i = 0, c = e.childNodes; i < c.length; i++) {
			zoom_child(c[i], x - 10, ratio);
		}
	}
	function zoom_parent(e) {
		if (e.attributes) {
			if (e.attributes.x != undefined) {
				orig_save(e, "x");
				e.attributes.x.value = 10;
			}
			if (e.attributes.width != undefined) {
				orig_save(e, "width");
				e.attributes.width.value = parseInt(svg.width.baseVal.value) - (10 * 2);
			}
		}
		if (e.childNodes == undefined) return;
		for (var i = 0, c = e.childNodes; i < c.length; i++) {
			zoom_parent(c[i]);
		}
	}
	function zoom(node) {
		var attr = find_child(node, "rect").attributes;
		var width = parseFloat(attr.width.value);
		var xmin = parseFloat(attr.x.value);
		var xmax = parseFloat(xmin + width);
		var ymin = parseFloat(attr.y.value);
		var ratio = (svg.width.baseVal.value - 2 * 10) / width;

		// XXX: Workaround for JavaScript float issues (fix me)
		var fudge = 0.0001;

		unzoombtn.classList.remove("hide");

		var el = document.getElementById("frames").children;
		for (var i = 0; i < el.length; i++) {
			var e = el[i];
			var a = find_child(e, "rect").attributes;
			var ex = parseFloat(a.x.value);
			var ew = parseFloat(a.width.value);
			var upstack;
			// Is it an ancestor
			if (0 == 0) {
				upstack = parseFloat(a.y.value) > ymin;
			} else {
				upstack = parseFloat(a.y.value) < ymin;
			}
			if (upstack) {
				// Direct ancestor
				if (ex <= xmin && (ex+ew+fudge) >= xmax) {
					e.classList.add("parent");
					zoom_parent(e);
					update_text(e);
				}
				// not in current path
				else
					e.classList.add("hide");
			}
			// Children maybe
			else {
				// no common path
				if (ex < xmin || ex + fudge >= xmax) {
					e.classList.add("hide");
				}
				else {
					zoom_child(e, xmin, ratio);
					update_text(e);
				}
			}
		}
		search();
	}
	function unzoom(dont_update_text) {
		unzoombtn.classList.add("hide");
		var el = document.getElementById("frames").children;
		for(var i = 0; i < el.length; i++) {
			el[i].classList.remove("parent");
			el[i].classList.remove("hide");
			zoom_reset(el[i]);
			if(!dont_update_text) update_text(el[i]);
		}
		search();
	}
	function clearzoom() {
		unzoom();

		// remove zoom state
		var params = get_params();
		if (params.x) delete params.x;
		if (params.y) delete params.y;
		history.replaceState(null, null, parse_params(params));
	}

	// search
	function toggle_ignorecase() {
		ignorecase = !ignorecase;
		if (ignorecase) {
			ignorecaseBtn.classList.add("show");
		} else {
			ignorecaseBtn.classList.remove("show");
		}
		reset_search();
		search();
	}
	function reset_search() {
		var el = document.querySelectorAll("#frames rect");
		for (var i = 0; i < el.length; i++) {
			orig_load(el[i], "fill")
		}
		var params = get_params();
		delete params.s;
		history.replaceState(null, null, parse_params(params));
	}
	function search_prompt() {
		if (!searching) {
			var term = prompt("Enter a search term (regexp " +
			    "allowed, eg: ^ext4_)"
			    + (ignorecase ? ", ignoring case" : "")
			    + "\nPress Ctrl-i to toggle case sensitivity", "");
			if (term != null) search(term);
		} else {
			reset_search();
			searching = 0;
			currentSearchTerm = null;
			searchbtn.classList.remove("show");
			searchbtn.firstChild.nodeValue = "Search"
			matchedtxt.classList.add("hide");
			matchedtxt.firstChild.nodeValue = ""
		}
	}
	function search(term) {
		if (term) currentSearchTerm = term;

		var re = new RegExp(currentSearchTerm, ignorecase ? 'i' : '');
		var el = document.getElementById("frames").children;
		var matches = new Object();
		var maxwidth = 0;
		for (var i = 0; i < el.length; i++) {
			var e = el[i];
			var func = g_to_func(e);
			var rect = find_child(e, "rect");
			if (func == null || rect == null)
				continue;

			// Save max width. Only works as we have a root frame
			var w = parseFloat(rect.attributes.width.value);
			if (w > maxwidth)
				maxwidth = w;

			if (func.match(re)) {
				// highlight
				var x = parseFloat(rect.attributes.x.value);
				orig_save(rect, "fill");
				rect.attributes.fill.value = "rgb(230,0,230)";

				// remember matches
				if (matches[x] == undefined) {
					matches[x] = w;
				} else {
					if (w > matches[x]) {
						// overwrite with parent
						matches[x] = w;
					}
				}
				searching = 1;
			}
		}
		if (!searching)
			return;
		var params = get_params();
		params.s = currentSearchTerm;
		history.replaceState(null, null, parse_params(params));

		searchbtn.classList.add("show");
		searchbtn.firstChild.nodeValue = "Reset Search";

		// calculate percent matched, excluding vertical overlap
		var count = 0;
		var lastx = -1;
		var lastw = 0;
		var keys = Array();
		for (k in matches) {
			if (matches.hasOwnProperty(k))
				keys.push(k);
		}
		// sort the matched frames by their x location
		// ascending, then width descending
		keys.sort(function(a, b){
			return a - b;
		});
		// Step through frames saving only the biggest bottom-up frames
		// thanks to the sort order. This relies on the tree property
		// where children are always smaller than their parents.
		var fudge = 0.0001;	// JavaScript floating point
		for (var k in keys) {
			var x = parseFloat(keys[k]);
			var w = matches[keys[k]];
			if (x >= lastx + lastw - fudge) {
				count += w;
				lastx = x;
				lastw = w;
			}
		}
		// display matched percent
		matchedtxt.classList.remove("hide");
		var pct = 100 * count / maxwidth;
		if (pct != 100) pct = pct.toFixed(1)
		matchedtxt.firstChild.nodeValue = "Matched: " + pct + "%";
	}
]]>
</script>
<rect x="0.0" y="0" width="1200.0" height="486.0" fill="url(#background)"  />
<text id="title" x="600.00" y="24" >Flame Graph</text>
<text id="details" x="10.00" y="469" > </text>
<text id="unzoom" x="10.00" y="24" class="hide">Reset Zoom</text>
<text id="search" x="1090.00" y="24" >Search</text>
<text id="ignorecase" x="1174.00" y="24" >ic</text>
<text id="matched" x="1090.00" y="469" > </text>
<g id="frames">
<g >
<title>vfs_write (883,537 samples, 0.18%)</title><rect x="1184.5" y="325" width="2.1" height="15.0" fill="rgb(250,209,50)" rx="2" ry="2" />
<text  x="1187.53" y="335.5" ></text>
</g>
<g >
<title>do_user_addr_fault (466,587 samples, 0.09%)</title><rect x="1183.4" y="309" width="1.1" height="15.0" fill="rgb(228,108,25)" rx="2" ry="2" />
<text  x="1186.43" y="319.5" ></text>
</g>
<g >
<title>__perf_event__output_id_sample (111,341 samples, 0.02%)</title><rect x="1188.8" y="213" width="0.3" height="15.0" fill="rgb(246,192,46)" rx="2" ry="2" />
<text  x="1191.81" y="223.5" ></text>
</g>
<g >
<title>task_work_run (889,428 samples, 0.18%)</title><rect x="1181.3" y="309" width="2.1" height="15.0" fill="rgb(209,22,5)" rx="2" ry="2" />
<text  x="1184.32" y="319.5" ></text>
</g>
<g >
<title>decode_webp_nat (497,849,930 samples, 99.99%)</title><rect x="10.0" y="421" width="1179.9" height="15.0" fill="rgb(218,61,14)" rx="2" ry="2" />
<text  x="13.00" y="431.5" >decode_webp_nat</text>
</g>
<g >
<title>handle_mm_fault (466,587 samples, 0.09%)</title><rect x="1183.4" y="293" width="1.1" height="15.0" fill="rgb(234,135,32)" rx="2" ry="2" />
<text  x="1186.43" y="303.5" ></text>
</g>
<g >
<title>clear_user_rep_good (360,417 samples, 0.07%)</title><rect x="1189.1" y="277" width="0.8" height="15.0" fill="rgb(224,89,21)" rx="2" ry="2" />
<text  x="1192.08" y="287.5" ></text>
</g>
<g >
<title>exit_to_user_mode_prepare (889,428 samples, 0.18%)</title><rect x="1181.3" y="325" width="2.1" height="15.0" fill="rgb(228,108,25)" rx="2" ry="2" />
<text  x="1184.32" y="335.5" ></text>
</g>
<g >
<title>__list_del_entry_valid (360,417 samples, 0.07%)</title><rect x="1189.1" y="101" width="0.8" height="15.0" fill="rgb(239,158,37)" rx="2" ry="2" />
<text  x="1192.08" y="111.5" ></text>
</g>
<g >
<title>syscall_exit_to_user_mode (889,428 samples, 0.18%)</title><rect x="1181.3" y="341" width="2.1" height="15.0" fill="rgb(251,211,50)" rx="2" ry="2" />
<text  x="1184.32" y="351.5" ></text>
</g>
<g >
<title>__blk_flush_plug (889,428 samples, 0.18%)</title><rect x="1181.3" y="181" width="2.1" height="15.0" fill="rgb(217,57,13)" rx="2" ry="2" />
<text  x="1184.32" y="191.5" ></text>
</g>
<g >
<title>_int_malloc (923,284 samples, 0.19%)</title><rect x="1186.6" y="389" width="2.2" height="15.0" fill="rgb(215,47,11)" rx="2" ry="2" />
<text  x="1189.63" y="399.5" ></text>
</g>
<g >
<title>exc_page_fault (360,417 samples, 0.07%)</title><rect x="1189.1" y="245" width="0.8" height="15.0" fill="rgb(212,35,8)" rx="2" ry="2" />
<text  x="1192.08" y="255.5" ></text>
</g>
<g >
<title>__folio_alloc (772,961 samples, 0.16%)</title><rect x="1135.8" y="261" width="1.9" height="15.0" fill="rgb(224,91,21)" rx="2" ry="2" />
<text  x="1138.82" y="271.5" ></text>
</g>
<g >
<title>PredictorAdd7_SSE2 (923,765 samples, 0.19%)</title><rect x="199.2" y="405" width="2.2" height="15.0" fill="rgb(219,65,15)" rx="2" ry="2" />
<text  x="202.18" y="415.5" ></text>
</g>
<g >
<title>perf_event_comm_output (111,341 samples, 0.02%)</title><rect x="1188.8" y="229" width="0.3" height="15.0" fill="rgb(208,15,3)" rx="2" ry="2" />
<text  x="1191.81" y="239.5" ></text>
</g>
<g >
<title>ConvertBGRAToRGB_SSE2 (15,962,690 samples, 3.21%)</title><rect x="225.5" y="389" width="37.9" height="15.0" fill="rgb(238,155,37)" rx="2" ry="2" />
<text  x="228.53" y="399.5" >Con..</text>
</g>
<g >
<title>bprm_execve (471,758 samples, 0.09%)</title><rect x="1188.8" y="325" width="1.1" height="15.0" fill="rgb(218,61,14)" rx="2" ry="2" />
<text  x="1191.81" y="335.5" ></text>
</g>
<g >
<title>BuildHuffmanTable (30,518,417 samples, 6.13%)</title><rect x="10.0" y="405" width="72.3" height="15.0" fill="rgb(226,101,24)" rx="2" ry="2" />
<text  x="13.00" y="415.5" >BuildHuf..</text>
</g>
<g >
<title>ReadHuffmanCode (3,582,685 samples, 0.72%)</title><rect x="201.4" y="405" width="8.5" height="15.0" fill="rgb(230,116,27)" rx="2" ry="2" />
<text  x="204.37" y="415.5" ></text>
</g>
<g >
<title>ext4_writepages (889,428 samples, 0.18%)</title><rect x="1181.3" y="213" width="2.1" height="15.0" fill="rgb(240,165,39)" rx="2" ry="2" />
<text  x="1184.32" y="223.5" ></text>
</g>
<g >
<title>get_page_from_freelist (772,961 samples, 0.16%)</title><rect x="1135.8" y="229" width="1.9" height="15.0" fill="rgb(252,218,52)" rx="2" ry="2" />
<text  x="1138.82" y="239.5" ></text>
</g>
<g >
<title>do_set_pte (466,587 samples, 0.09%)</title><rect x="1183.4" y="229" width="1.1" height="15.0" fill="rgb(253,221,52)" rx="2" ry="2" />
<text  x="1186.43" y="239.5" ></text>
</g>
<g >
<title>cgroup_rstat_updated (466,587 samples, 0.09%)</title><rect x="1183.4" y="165" width="1.1" height="15.0" fill="rgb(244,180,43)" rx="2" ry="2" />
<text  x="1186.43" y="175.5" ></text>
</g>
<g >
<title>PredictorAdd13_SSE2 (20,964,428 samples, 4.21%)</title><rect x="125.7" y="405" width="49.7" height="15.0" fill="rgb(228,108,25)" rx="2" ry="2" />
<text  x="128.75" y="415.5" >Predi..</text>
</g>
<g >
<title>do_writepages (889,428 samples, 0.18%)</title><rect x="1181.3" y="229" width="2.1" height="15.0" fill="rgb(240,164,39)" rx="2" ry="2" />
<text  x="1184.32" y="239.5" ></text>
</g>
<g >
<title>__iommu_map (889,428 samples, 0.18%)</title><rect x="1181.3" y="53" width="2.1" height="15.0" fill="rgb(208,17,4)" rx="2" ry="2" />
<text  x="1184.32" y="63.5" ></text>
</g>
<g >
<title>nvme_prep_rq.part.0 (889,428 samples, 0.18%)</title><rect x="1181.3" y="133" width="2.1" height="15.0" fill="rgb(214,42,10)" rx="2" ry="2" />
<text  x="1184.32" y="143.5" ></text>
</g>
<g >
<title>ReadHuffmanCode (923,731 samples, 0.19%)</title><rect x="263.4" y="389" width="2.1" height="15.0" fill="rgb(230,116,27)" rx="2" ry="2" />
<text  x="266.36" y="399.5" ></text>
</g>
<g >
<title>VP8LReadBits (923,646 samples, 0.19%)</title><rect x="323.2" y="389" width="2.2" height="15.0" fill="rgb(236,146,35)" rx="2" ry="2" />
<text  x="326.24" y="399.5" ></text>
</g>
<g >
<title>PredictorAdd5_SSE2 (1,744,497 samples, 0.35%)</title><rect x="192.9" y="405" width="4.1" height="15.0" fill="rgb(232,125,29)" rx="2" ry="2" />
<text  x="195.86" y="415.5" ></text>
</g>
<g >
<title>DecodeImageData (6,434,575 samples, 1.29%)</title><rect x="82.3" y="405" width="15.3" height="15.0" fill="rgb(254,229,54)" rx="2" ry="2" />
<text  x="85.33" y="415.5" ></text>
</g>
<g >
<title>__x64_sys_execve (471,758 samples, 0.09%)</title><rect x="1188.8" y="357" width="1.1" height="15.0" fill="rgb(247,193,46)" rx="2" ry="2" />
<text  x="1191.81" y="367.5" ></text>
</g>
<g >
<title>handle_mm_fault (360,417 samples, 0.07%)</title><rect x="1189.1" y="213" width="0.8" height="15.0" fill="rgb(234,135,32)" rx="2" ry="2" />
<text  x="1192.08" y="223.5" ></text>
</g>
<g >
<title>get_page_from_freelist (883,537 samples, 0.18%)</title><rect x="1184.5" y="197" width="2.1" height="15.0" fill="rgb(252,218,52)" rx="2" ry="2" />
<text  x="1187.53" y="207.5" ></text>
</g>
<g >
<title>exc_page_fault (466,587 samples, 0.09%)</title><rect x="1183.4" y="325" width="1.1" height="15.0" fill="rgb(212,35,8)" rx="2" ry="2" />
<text  x="1186.43" y="335.5" ></text>
</g>
<g >
<title>vma_alloc_folio (772,961 samples, 0.16%)</title><rect x="1135.8" y="277" width="1.9" height="15.0" fill="rgb(245,187,44)" rx="2" ry="2" />
<text  x="1138.82" y="287.5" ></text>
</g>
<g >
<title>__alloc_pages (772,961 samples, 0.16%)</title><rect x="1135.8" y="245" width="1.9" height="15.0" fill="rgb(233,129,30)" rx="2" ry="2" />
<text  x="1138.82" y="255.5" ></text>
</g>
<g >
<title>__mod_lruvec_page_state (466,587 samples, 0.09%)</title><rect x="1183.4" y="197" width="1.1" height="15.0" fill="rgb(245,185,44)" rx="2" ry="2" />
<text  x="1186.43" y="207.5" ></text>
</g>
<g >
<title>begin_new_exec (111,341 samples, 0.02%)</title><rect x="1188.8" y="293" width="0.3" height="15.0" fill="rgb(245,184,44)" rx="2" ry="2" />
<text  x="1191.81" y="303.5" ></text>
</g>
<g >
<title>page_add_file_rmap (466,587 samples, 0.09%)</title><rect x="1183.4" y="213" width="1.1" height="15.0" fill="rgb(207,13,3)" rx="2" ry="2" />
<text  x="1186.43" y="223.5" ></text>
</g>
<g >
<title>do_user_addr_fault (772,961 samples, 0.16%)</title><rect x="1135.8" y="325" width="1.9" height="15.0" fill="rgb(228,108,25)" rx="2" ry="2" />
<text  x="1138.82" y="335.5" ></text>
</g>
<g >
<title>__mod_memcg_lruvec_state (466,587 samples, 0.09%)</title><rect x="1183.4" y="181" width="1.1" height="15.0" fill="rgb(247,195,46)" rx="2" ry="2" />
<text  x="1186.43" y="191.5" ></text>
</g>
<g >
<title>all (497,878,598 samples, 100%)</title><rect x="10.0" y="437" width="1180.0" height="15.0" fill="rgb(213,39,9)" rx="2" ry="2" />
<text  x="13.00" y="447.5" ></text>
</g>
<g >
<title>PredictorAdd2_SSE2 (923,252 samples, 0.19%)</title><rect x="188.5" y="405" width="2.2" height="15.0" fill="rgb(251,214,51)" rx="2" ry="2" />
<text  x="191.48" y="415.5" ></text>
</g>
<g >
<title>do_fault (360,417 samples, 0.07%)</title><rect x="1189.1" y="181" width="0.8" height="15.0" fill="rgb(248,200,47)" rx="2" ry="2" />
<text  x="1192.08" y="191.5" ></text>
</g>
<g >
<title>do_fault (466,587 samples, 0.09%)</title><rect x="1183.4" y="261" width="1.1" height="15.0" fill="rgb(248,200,47)" rx="2" ry="2" />
<text  x="1186.43" y="271.5" ></text>
</g>
<g >
<title>ShiftBytes (406,073 samples, 0.08%)</title><rect x="209.9" y="405" width="0.9" height="15.0" fill="rgb(216,52,12)" rx="2" ry="2" />
<text  x="212.86" y="415.5" ></text>
</g>
<g >
<title>entry_SYSCALL_64_after_hwframe (471,758 samples, 0.09%)</title><rect x="1188.8" y="389" width="1.1" height="15.0" fill="rgb(218,63,15)" rx="2" ry="2" />
<text  x="1191.81" y="399.5" ></text>
</g>
<g >
<title>clear_page_rep (772,961 samples, 0.16%)</title><rect x="1135.8" y="213" width="1.9" height="15.0" fill="rgb(253,221,52)" rx="2" ry="2" />
<text  x="1138.82" y="223.5" ></text>
</g>
<g >
<title>__iommu_map_sg (889,428 samples, 0.18%)</title><rect x="1181.3" y="69" width="2.1" height="15.0" fill="rgb(236,146,35)" rx="2" ry="2" />
<text  x="1184.32" y="79.5" ></text>
</g>
<g >
<title>do_syscall_64 (471,758 samples, 0.09%)</title><rect x="1188.8" y="373" width="1.1" height="15.0" fill="rgb(209,20,4)" rx="2" ry="2" />
<text  x="1191.81" y="383.5" ></text>
</g>
<g >
<title>DecodeImageData (342,702,739 samples, 68.83%)</title><rect x="325.4" y="373" width="812.3" height="15.0" fill="rgb(254,229,54)" rx="2" ry="2" />
<text  x="328.43" y="383.5" >DecodeImageData</text>
</g>
<g >
<title>__libc_write (883,537 samples, 0.18%)</title><rect x="1184.5" y="389" width="2.1" height="15.0" fill="rgb(238,154,37)" rx="2" ry="2" />
<text  x="1187.53" y="399.5" ></text>
</g>
<g >
<title>iommu_dma_map_sg (889,428 samples, 0.18%)</title><rect x="1181.3" y="85" width="2.1" height="15.0" fill="rgb(223,86,20)" rx="2" ry="2" />
<text  x="1184.32" y="95.5" ></text>
</g>
<g >
<title>[unknown] (407,831,830 samples, 81.91%)</title><rect x="223.3" y="405" width="966.6" height="15.0" fill="rgb(210,24,5)" rx="2" ry="2" />
<text  x="226.35" y="415.5" >[unknown]</text>
</g>
<g >
<title>ext4_release_file (889,428 samples, 0.18%)</title><rect x="1181.3" y="277" width="2.1" height="15.0" fill="rgb(225,92,22)" rx="2" ry="2" />
<text  x="1184.32" y="287.5" ></text>
</g>
<g >
<title>__alloc_pages (883,537 samples, 0.18%)</title><rect x="1184.5" y="213" width="2.1" height="15.0" fill="rgb(233,129,30)" rx="2" ry="2" />
<text  x="1187.53" y="223.5" ></text>
</g>
<g >
<title>VP8LInverseTransform (2,768,130 samples, 0.56%)</title><rect x="316.7" y="389" width="6.5" height="15.0" fill="rgb(234,134,32)" rx="2" ry="2" />
<text  x="319.68" y="399.5" ></text>
</g>
<g >
<title>ext4_buffered_write_iter (883,537 samples, 0.18%)</title><rect x="1184.5" y="309" width="2.1" height="15.0" fill="rgb(213,40,9)" rx="2" ry="2" />
<text  x="1187.53" y="319.5" ></text>
</g>
<g >
<title>PredictorAdd3_SSE2 (923,827 samples, 0.19%)</title><rect x="190.7" y="405" width="2.2" height="15.0" fill="rgb(245,184,44)" rx="2" ry="2" />
<text  x="193.67" y="415.5" ></text>
</g>
<g >
<title>PredictorAdd6_SSE2 (923,794 samples, 0.19%)</title><rect x="197.0" y="405" width="2.2" height="15.0" fill="rgb(225,95,22)" rx="2" ry="2" />
<text  x="199.99" y="415.5" ></text>
</g>
<g >
<title>entry_SYSCALL_64_after_hwframe (883,537 samples, 0.18%)</title><rect x="1184.5" y="373" width="2.1" height="15.0" fill="rgb(218,63,15)" rx="2" ry="2" />
<text  x="1187.53" y="383.5" ></text>
</g>
<g >
<title>do_execveat_common.isra.0 (471,758 samples, 0.09%)</title><rect x="1188.8" y="341" width="1.1" height="15.0" fill="rgb(231,123,29)" rx="2" ry="2" />
<text  x="1191.81" y="351.5" ></text>
</g>
<g >
<title>VP8LInverseTransform (5,283,353 samples, 1.06%)</title><rect x="210.8" y="405" width="12.5" height="15.0" fill="rgb(234,134,32)" rx="2" ry="2" />
<text  x="213.83" y="415.5" ></text>
</g>
<g >
<title>perf_iterate_sb (111,341 samples, 0.02%)</title><rect x="1188.8" y="261" width="0.3" height="15.0" fill="rgb(244,179,42)" rx="2" ry="2" />
<text  x="1191.81" y="271.5" ></text>
</g>
<g >
<title>blk_mq_flush_plug_list (889,428 samples, 0.18%)</title><rect x="1181.3" y="165" width="2.1" height="15.0" fill="rgb(215,46,11)" rx="2" ry="2" />
<text  x="1184.32" y="175.5" ></text>
</g>
<g >
<title>padzero (360,417 samples, 0.07%)</title><rect x="1189.1" y="293" width="0.8" height="15.0" fill="rgb(223,84,20)" rx="2" ry="2" />
<text  x="1192.08" y="303.5" ></text>
</g>
<g >
<title>exc_page_fault (772,961 samples, 0.16%)</title><rect x="1135.8" y="341" width="1.9" height="15.0" fill="rgb(212,35,8)" rx="2" ry="2" />
<text  x="1138.82" y="351.5" ></text>
</g>
<g >
<title>vma_alloc_folio (360,417 samples, 0.07%)</title><rect x="1189.1" y="165" width="0.8" height="15.0" fill="rgb(245,187,44)" rx="2" ry="2" />
<text  x="1192.08" y="175.5" ></text>
</g>
<g >
<title>[unknown] (361,125,940 samples, 72.53%)</title><rect x="325.4" y="389" width="855.9" height="15.0" fill="rgb(210,24,5)" rx="2" ry="2" />
<text  x="328.43" y="399.5" >[unknown]</text>
</g>
<g >
<title>__folio_alloc (360,417 samples, 0.07%)</title><rect x="1189.1" y="149" width="0.8" height="15.0" fill="rgb(224,91,21)" rx="2" ry="2" />
<text  x="1192.08" y="159.5" ></text>
</g>
<g >
<title>__fput (889,428 samples, 0.18%)</title><rect x="1181.3" y="293" width="2.1" height="15.0" fill="rgb(248,200,47)" rx="2" ry="2" />
<text  x="1184.32" y="303.5" ></text>
</g>
<g >
<title>ksys_write (883,537 samples, 0.18%)</title><rect x="1184.5" y="341" width="2.1" height="15.0" fill="rgb(205,4,1)" rx="2" ry="2" />
<text  x="1187.53" y="351.5" ></text>
</g>
<g >
<title>clear_page_rep (883,537 samples, 0.18%)</title><rect x="1184.5" y="181" width="2.1" height="15.0" fill="rgb(253,221,52)" rx="2" ry="2" />
<text  x="1187.53" y="191.5" ></text>
</g>
<g >
<title>nvme_queue_rqs (889,428 samples, 0.18%)</title><rect x="1181.3" y="149" width="2.1" height="15.0" fill="rgb(250,211,50)" rx="2" ry="2" />
<text  x="1184.32" y="159.5" ></text>
</g>
<g >
<title>VP8LDoFillBitWindow (9,216,572 samples, 1.85%)</title><rect x="1152.9" y="373" width="21.8" height="15.0" fill="rgb(219,67,16)" rx="2" ry="2" />
<text  x="1155.90" y="383.5" >V..</text>
</g>
<g >
<title>folio_alloc (883,537 samples, 0.18%)</title><rect x="1184.5" y="229" width="2.1" height="15.0" fill="rgb(252,217,52)" rx="2" ry="2" />
<text  x="1187.53" y="239.5" ></text>
</g>
<g >
<title>asm_exc_page_fault (772,961 samples, 0.16%)</title><rect x="1135.8" y="357" width="1.9" height="15.0" fill="rgb(225,93,22)" rx="2" ry="2" />
<text  x="1138.82" y="367.5" ></text>
</g>
<g >
<title>__handle_mm_fault (466,587 samples, 0.09%)</title><rect x="1183.4" y="277" width="1.1" height="15.0" fill="rgb(207,9,2)" rx="2" ry="2" />
<text  x="1186.43" y="287.5" ></text>
</g>
<g >
<title>do_user_addr_fault (360,417 samples, 0.07%)</title><rect x="1189.1" y="229" width="0.8" height="15.0" fill="rgb(228,108,25)" rx="2" ry="2" />
<text  x="1192.08" y="239.5" ></text>
</g>
<g >
<title>__do_global_dtors_aux (466,587 samples, 0.09%)</title><rect x="1183.4" y="389" width="1.1" height="15.0" fill="rgb(245,185,44)" rx="2" ry="2" />
<text  x="1186.43" y="399.5" ></text>
</g>
<g >
<title>load_elf_binary (471,758 samples, 0.09%)</title><rect x="1188.8" y="309" width="1.1" height="15.0" fill="rgb(223,83,20)" rx="2" ry="2" />
<text  x="1191.81" y="319.5" ></text>
</g>
<g >
<title>AddGreenToBlueAndRed_SSE2 (919,863 samples, 0.18%)</title><rect x="223.3" y="389" width="2.2" height="15.0" fill="rgb(239,160,38)" rx="2" ry="2" />
<text  x="226.35" y="399.5" ></text>
</g>
<g >
<title>PredictorAdd1_SSE2 (5,505,550 samples, 1.11%)</title><rect x="175.4" y="405" width="13.1" height="15.0" fill="rgb(208,14,3)" rx="2" ry="2" />
<text  x="178.43" y="415.5" ></text>
</g>
<g >
<title>do_syscall_64 (883,537 samples, 0.18%)</title><rect x="1184.5" y="357" width="2.1" height="15.0" fill="rgb(209,20,4)" rx="2" ry="2" />
<text  x="1187.53" y="367.5" ></text>
</g>
<g >
<title>__handle_mm_fault (772,961 samples, 0.16%)</title><rect x="1135.8" y="293" width="1.9" height="15.0" fill="rgb(207,9,2)" rx="2" ry="2" />
<text  x="1138.82" y="303.5" ></text>
</g>
<g >
<title>__dma_map_sg_attrs (889,428 samples, 0.18%)</title><rect x="1181.3" y="101" width="2.1" height="15.0" fill="rgb(251,212,50)" rx="2" ry="2" />
<text  x="1184.32" y="111.5" ></text>
</g>
<g >
<title>VP8LReadBits (923,841 samples, 0.19%)</title><rect x="1174.7" y="373" width="2.2" height="15.0" fill="rgb(236,146,35)" rx="2" ry="2" />
<text  x="1177.75" y="383.5" ></text>
</g>
<g >
<title>filemap_map_pages (466,587 samples, 0.09%)</title><rect x="1183.4" y="245" width="1.1" height="15.0" fill="rgb(229,112,27)" rx="2" ry="2" />
<text  x="1186.43" y="255.5" ></text>
</g>
<g >
<title>ext4_da_write_begin (883,537 samples, 0.18%)</title><rect x="1184.5" y="277" width="2.1" height="15.0" fill="rgb(211,32,7)" rx="2" ry="2" />
<text  x="1187.53" y="287.5" ></text>
</g>
<g >
<title>iommu_v1_map_pages (889,428 samples, 0.18%)</title><rect x="1181.3" y="37" width="2.1" height="15.0" fill="rgb(219,65,15)" rx="2" ry="2" />
<text  x="1184.32" y="47.5" ></text>
</g>
<g >
<title>asm_exc_page_fault (466,587 samples, 0.09%)</title><rect x="1183.4" y="341" width="1.1" height="15.0" fill="rgb(225,93,22)" rx="2" ry="2" />
<text  x="1186.43" y="351.5" ></text>
</g>
<g >
<title>filemap_fdatawrite_wbc (889,428 samples, 0.18%)</title><rect x="1181.3" y="245" width="2.1" height="15.0" fill="rgb(210,25,6)" rx="2" ry="2" />
<text  x="1184.32" y="255.5" ></text>
</g>
<g >
<title>asm_exc_page_fault (360,417 samples, 0.07%)</title><rect x="1189.1" y="261" width="0.8" height="15.0" fill="rgb(225,93,22)" rx="2" ry="2" />
<text  x="1192.08" y="271.5" ></text>
</g>
<g >
<title>DecodeImageStream (1,848,254 samples, 0.37%)</title><rect x="97.6" y="405" width="4.4" height="15.0" fill="rgb(241,168,40)" rx="2" ry="2" />
<text  x="100.58" y="415.5" ></text>
</g>
<g >
<title>perf_event_comm (111,341 samples, 0.02%)</title><rect x="1188.8" y="277" width="0.3" height="15.0" fill="rgb(222,82,19)" rx="2" ry="2" />
<text  x="1191.81" y="287.5" ></text>
</g>
<g >
<title>__close_nocancel (889,428 samples, 0.18%)</title><rect x="1181.3" y="389" width="2.1" height="15.0" fill="rgb(228,109,26)" rx="2" ry="2" />
<text  x="1184.32" y="399.5" ></text>
</g>
<g >
<title>__filemap_fdatawrite_range (889,428 samples, 0.18%)</title><rect x="1181.3" y="261" width="2.1" height="15.0" fill="rgb(233,129,30)" rx="2" ry="2" />
<text  x="1184.32" y="271.5" ></text>
</g>
<g >
<title>PredictorAdd11_SSE2 (3,647,694 samples, 0.73%)</title><rect x="102.0" y="405" width="8.6" height="15.0" fill="rgb(241,168,40)" rx="2" ry="2" />
<text  x="104.96" y="415.5" ></text>
</g>
<g >
<title>__register_frame_info (466,587 samples, 0.09%)</title><rect x="1183.4" y="357" width="1.1" height="15.0" fill="rgb(251,215,51)" rx="2" ry="2" />
<text  x="1186.43" y="367.5" ></text>
</g>
<g >
<title>generic_perform_write (883,537 samples, 0.18%)</title><rect x="1184.5" y="293" width="2.1" height="15.0" fill="rgb(236,146,35)" rx="2" ry="2" />
<text  x="1187.53" y="303.5" ></text>
</g>
<g >
<title>__libc_start_main_impl (466,587 samples, 0.09%)</title><rect x="1183.4" y="373" width="1.1" height="15.0" fill="rgb(218,63,15)" rx="2" ry="2" />
<text  x="1186.43" y="383.5" ></text>
</g>
<g >
<title>perf_iterate_ctx (111,341 samples, 0.02%)</title><rect x="1188.8" y="245" width="0.3" height="15.0" fill="rgb(205,4,0)" rx="2" ry="2" />
<text  x="1191.81" y="255.5" ></text>
</g>
<g >
<title>__memmove_avx_unaligned (924,313 samples, 0.19%)</title><rect x="1176.9" y="373" width="2.2" height="15.0" fill="rgb(254,228,54)" rx="2" ry="2" />
<text  x="1179.94" y="383.5" ></text>
</g>
<g >
<title>do_syscall_64 (889,428 samples, 0.18%)</title><rect x="1181.3" y="357" width="2.1" height="15.0" fill="rgb(209,20,4)" rx="2" ry="2" />
<text  x="1184.32" y="367.5" ></text>
</g>
<g >
<title>blk_finish_plug (889,428 samples, 0.18%)</title><rect x="1181.3" y="197" width="2.1" height="15.0" fill="rgb(231,119,28)" rx="2" ry="2" />
<text  x="1184.32" y="207.5" ></text>
</g>
<g >
<title>pagecache_get_page (883,537 samples, 0.18%)</title><rect x="1184.5" y="261" width="2.1" height="15.0" fill="rgb(253,221,53)" rx="2" ry="2" />
<text  x="1187.53" y="271.5" ></text>
</g>
<g >
<title>__handle_mm_fault (360,417 samples, 0.07%)</title><rect x="1189.1" y="197" width="0.8" height="15.0" fill="rgb(207,9,2)" rx="2" ry="2" />
<text  x="1192.08" y="207.5" ></text>
</g>
<g >
<title>__filemap_get_folio (883,537 samples, 0.18%)</title><rect x="1184.5" y="245" width="2.1" height="15.0" fill="rgb(231,120,28)" rx="2" ry="2" />
<text  x="1187.53" y="255.5" ></text>
</g>
<g >
<title>__memmove_avx_unaligned_erms (923,918 samples, 0.19%)</title><rect x="1179.1" y="373" width="2.2" height="15.0" fill="rgb(205,0,0)" rx="2" ry="2" />
<text  x="1182.13" y="383.5" ></text>
</g>
<g >
<title>__alloc_pages (360,417 samples, 0.07%)</title><rect x="1189.1" y="133" width="0.8" height="15.0" fill="rgb(233,129,30)" rx="2" ry="2" />
<text  x="1192.08" y="143.5" ></text>
</g>
<g >
<title>ReadHuffmanCodesHelper (6,434,557 samples, 1.29%)</title><rect x="1137.7" y="373" width="15.2" height="15.0" fill="rgb(209,22,5)" rx="2" ry="2" />
<text  x="1140.65" y="383.5" ></text>
</g>
<g >
<title>entry_SYSCALL_64_after_hwframe (889,428 samples, 0.18%)</title><rect x="1181.3" y="373" width="2.1" height="15.0" fill="rgb(218,63,15)" rx="2" ry="2" />
<text  x="1184.32" y="383.5" ></text>
</g>
<g >
<title>dma_map_sgtable (889,428 samples, 0.18%)</title><rect x="1181.3" y="117" width="2.1" height="15.0" fill="rgb(237,150,36)" rx="2" ry="2" />
<text  x="1184.32" y="127.5" ></text>
</g>
<g >
<title>TransformColorInverse_SSE2 (21,573,236 samples, 4.33%)</title><rect x="265.5" y="389" width="51.2" height="15.0" fill="rgb(253,223,53)" rx="2" ry="2" />
<text  x="268.55" y="399.5" >Trans..</text>
</g>
<g >
<title>handle_mm_fault (772,961 samples, 0.16%)</title><rect x="1135.8" y="309" width="1.9" height="15.0" fill="rgb(234,135,32)" rx="2" ry="2" />
<text  x="1138.82" y="319.5" ></text>
</g>
<g >
<title>get_page_from_freelist (360,417 samples, 0.07%)</title><rect x="1189.1" y="117" width="0.8" height="15.0" fill="rgb(252,218,52)" rx="2" ry="2" />
<text  x="1192.08" y="127.5" ></text>
</g>
<g >
<title>PredictorAdd12_SSE2 (6,387,936 samples, 1.28%)</title><rect x="110.6" y="405" width="15.1" height="15.0" fill="rgb(235,138,33)" rx="2" ry="2" />
<text  x="113.61" y="415.5" ></text>
</g>
</g>
</svg>
