<?xml version="1.0" standalone="no"?>
<!DOCTYPE svg PUBLIC "-//W3C//DTD SVG 1.1//EN" "http://www.w3.org/Graphics/SVG/1.1/DTD/svg11.dtd">
<svg version="1.1" width="1200" height="422" onload="init(evt)" viewBox="0 0 1200 422" xmlns="http://www.w3.org/2000/svg" xmlns:xlink="http://www.w3.org/1999/xlink">
<!-- Flame graph stack visualization. See https://github.com/brendangregg/FlameGraph for latest version, and http://www.brendangregg.com/flamegraphs.html for examples. -->
<!-- NOTES:  -->
<defs>
	<linearGradient id="background" y1="0" y2="1" x1="0" x2="0" >
		<stop stop-color="#eeeeee" offset="5%" />
		<stop stop-color="#eeeeb0" offset="95%" />
	</linearGradient>
</defs>
<style type="text/css">
	text { font-family:Verdana; font-size:12px; fill:rgb(0,0,0); }
	#search, #ignorecase { opacity:0.1; cursor:pointer; }
	#search:hover, #search.show, #ignorecase:hover, #ignorecase.show { opacity:1; }
	#subtitle { text-anchor:middle; font-color:rgb(160,160,160); }
	#title { text-anchor:middle; font-size:17px}
	#unzoom { cursor:pointer; }
	#frames > *:hover { stroke:black; stroke-width:0.5; cursor:pointer; }
	.hide { display:none; }
	.parent { opacity:0.5; }
</style>
<script type="text/ecmascript">
<![CDATA[
	"use strict";
	var details, searchbtn, unzoombtn, matchedtxt, svg, searching, currentSearchTerm, ignorecase, ignorecaseBtn;
	function init(evt) {
		details = document.getElementById("details").firstChild;
		searchbtn = document.getElementById("search");
		ignorecaseBtn = document.getElementById("ignorecase");
		unzoombtn = document.getElementById("unzoom");
		matchedtxt = document.getElementById("matched");
		svg = document.getElementsByTagName("svg")[0];
		searching = 0;
		currentSearchTerm = null;

		// use GET parameters to restore a flamegraphs state.
		var params = get_params();
		if (params.x && params.y)
			zoom(find_group(document.querySelector('[x="' + params.x + '"][y="' + params.y + '"]')));
                if (params.s) search(params.s);
	}

	// event listeners
	window.addEventListener("click", function(e) {
		var target = find_group(e.target);
		if (target) {
			if (target.nodeName == "a") {
				if (e.ctrlKey === false) return;
				e.preventDefault();
			}
			if (target.classList.contains("parent")) unzoom(true);
			zoom(target);
			if (!document.querySelector('.parent')) {
				// we have basically done a clearzoom so clear the url
				var params = get_params();
				if (params.x) delete params.x;
				if (params.y) delete params.y;
				history.replaceState(null, null, parse_params(params));
				unzoombtn.classList.add("hide");
				return;
			}

			// set parameters for zoom state
			var el = target.querySelector("rect");
			if (el && el.attributes && el.attributes.y && el.attributes._orig_x) {
				var params = get_params()
				params.x = el.attributes._orig_x.value;
				params.y = el.attributes.y.value;
				history.replaceState(null, null, parse_params(params));
			}
		}
		else if (e.target.id == "unzoom") clearzoom();
		else if (e.target.id == "search") search_prompt();
		else if (e.target.id == "ignorecase") toggle_ignorecase();
	}, false)

	// mouse-over for info
	// show
	window.addEventListener("mouseover", function(e) {
		var target = find_group(e.target);
		if (target) details.nodeValue = "Function: " + g_to_text(target);
	}, false)

	// clear
	window.addEventListener("mouseout", function(e) {
		var target = find_group(e.target);
		if (target) details.nodeValue = ' ';
	}, false)

	// ctrl-F for search
	// ctrl-I to toggle case-sensitive search
	window.addEventListener("keydown",function (e) {
		if (e.keyCode === 114 || (e.ctrlKey && e.keyCode === 70)) {
			e.preventDefault();
			search_prompt();
		}
		else if (e.ctrlKey && e.keyCode === 73) {
			e.preventDefault();
			toggle_ignorecase();
		}
	}, false)

	// functions
	function get_params() {
		var params = {};
		var paramsarr = window.location.search.substr(1).split('&');
		for (var i = 0; i < paramsarr.length; ++i) {
			var tmp = paramsarr[i].split("=");
			if (!tmp[0] || !tmp[1]) continue;
			params[tmp[0]]  = decodeURIComponent(tmp[1]);
		}
		return params;
	}
	function parse_params(params) {
		var uri = "?";
		for (var key in params) {
			uri += key + '=' + encodeURIComponent(params[key]) + '&';
		}
		if (uri.slice(-1) == "&")
			uri = uri.substring(0, uri.length - 1);
		if (uri == '?')
			uri = window.location.href.split('?')[0];
		return uri;
	}
	function find_child(node, selector) {
		var children = node.querySelectorAll(selector);
		if (children.length) return children[0];
	}
	function find_group(node) {
		var parent = node.parentElement;
		if (!parent) return;
		if (parent.id == "frames") return node;
		return find_group(parent);
	}
	function orig_save(e, attr, val) {
		if (e.attributes["_orig_" + attr] != undefined) return;
		if (e.attributes[attr] == undefined) return;
		if (val == undefined) val = e.attributes[attr].value;
		e.setAttribute("_orig_" + attr, val);
	}
	function orig_load(e, attr) {
		if (e.attributes["_orig_"+attr] == undefined) return;
		e.attributes[attr].value = e.attributes["_orig_" + attr].value;
		e.removeAttribute("_orig_"+attr);
	}
	function g_to_text(e) {
		var text = find_child(e, "title").firstChild.nodeValue;
		return (text)
	}
	function g_to_func(e) {
		var func = g_to_text(e);
		// if there's any manipulation we want to do to the function
		// name before it's searched, do it here before returning.
		return (func);
	}
	function update_text(e) {
		var r = find_child(e, "rect");
		var t = find_child(e, "text");
		var w = parseFloat(r.attributes.width.value) -3;
		var txt = find_child(e, "title").textContent.replace(/\([^(]*\)$/,"");
		t.attributes.x.value = parseFloat(r.attributes.x.value) + 3;

		// Smaller than this size won't fit anything
		if (w < 2 * 12 * 0.59) {
			t.textContent = "";
			return;
		}

		t.textContent = txt;
		var sl = t.getSubStringLength(0, txt.length);
		// check if only whitespace or if we can fit the entire string into width w
		if (/^ *$/.test(txt) || sl < w)
			return;

		// this isn't perfect, but gives a good starting point
		// and avoids calling getSubStringLength too often
		var start = Math.floor((w/sl) * txt.length);
		for (var x = start; x > 0; x = x-2) {
			if (t.getSubStringLength(0, x + 2) <= w) {
				t.textContent = txt.substring(0, x) + "..";
				return;
			}
		}
		t.textContent = "";
	}

	// zoom
	function zoom_reset(e) {
		if (e.attributes != undefined) {
			orig_load(e, "x");
			orig_load(e, "width");
		}
		if (e.childNodes == undefined) return;
		for (var i = 0, c = e.childNodes; i < c.length; i++) {
			zoom_reset(c[i]);
		}
	}
	function zoom_child(e, x, ratio) {
		if (e.attributes != undefined) {
			if (e.attributes.x != undefined) {
				orig_save(e, "x");
				e.attributes.x.value = (parseFloat(e.attributes.x.value) - x - 10) * ratio + 10;
				if (e.tagName == "text")
					e.attributes.x.value = find_child(e.parentNode, "rect[x]").attributes.x.value + 3;
			}
			if (e.attributes.width != undefined) {
				orig_save(e, "width");
				e.attributes.width.value = parseFloat(e.attributes.width.value) * ratio;
			}
		}

		if (e.childNodes == undefined) return;
		for (var i = 0, c = e.childNodes; i < c.length; i++) {
			zoom_child(c[i], x - 10, ratio);
		}
	}
	function zoom_parent(e) {
		if (e.attributes) {
			if (e.attributes.x != undefined) {
				orig_save(e, "x");
				e.attributes.x.value = 10;
			}
			if (e.attributes.width != undefined) {
				orig_save(e, "width");
				e.attributes.width.value = parseInt(svg.width.baseVal.value) - (10 * 2);
			}
		}
		if (e.childNodes == undefined) return;
		for (var i = 0, c = e.childNodes; i < c.length; i++) {
			zoom_parent(c[i]);
		}
	}
	function zoom(node) {
		var attr = find_child(node, "rect").attributes;
		var width = parseFloat(attr.width.value);
		var xmin = parseFloat(attr.x.value);
		var xmax = parseFloat(xmin + width);
		var ymin = parseFloat(attr.y.value);
		var ratio = (svg.width.baseVal.value - 2 * 10) / width;

		// XXX: Workaround for JavaScript float issues (fix me)
		var fudge = 0.0001;

		unzoombtn.classList.remove("hide");

		var el = document.getElementById("frames").children;
		for (var i = 0; i < el.length; i++) {
			var e = el[i];
			var a = find_child(e, "rect").attributes;
			var ex = parseFloat(a.x.value);
			var ew = parseFloat(a.width.value);
			var upstack;
			// Is it an ancestor
			if (0 == 0) {
				upstack = parseFloat(a.y.value) > ymin;
			} else {
				upstack = parseFloat(a.y.value) < ymin;
			}
			if (upstack) {
				// Direct ancestor
				if (ex <= xmin && (ex+ew+fudge) >= xmax) {
					e.classList.add("parent");
					zoom_parent(e);
					update_text(e);
				}
				// not in current path
				else
					e.classList.add("hide");
			}
			// Children maybe
			else {
				// no common path
				if (ex < xmin || ex + fudge >= xmax) {
					e.classList.add("hide");
				}
				else {
					zoom_child(e, xmin, ratio);
					update_text(e);
				}
			}
		}
		search();
	}
	function unzoom(dont_update_text) {
		unzoombtn.classList.add("hide");
		var el = document.getElementById("frames").children;
		for(var i = 0; i < el.length; i++) {
			el[i].classList.remove("parent");
			el[i].classList.remove("hide");
			zoom_reset(el[i]);
			if(!dont_update_text) update_text(el[i]);
		}
		search();
	}
	function clearzoom() {
		unzoom();

		// remove zoom state
		var params = get_params();
		if (params.x) delete params.x;
		if (params.y) delete params.y;
		history.replaceState(null, null, parse_params(params));
	}

	// search
	function toggle_ignorecase() {
		ignorecase = !ignorecase;
		if (ignorecase) {
			ignorecaseBtn.classList.add("show");
		} else {
			ignorecaseBtn.classList.remove("show");
		}
		reset_search();
		search();
	}
	function reset_search() {
		var el = document.querySelectorAll("#frames rect");
		for (var i = 0; i < el.length; i++) {
			orig_load(el[i], "fill")
		}
		var params = get_params();
		delete params.s;
		history.replaceState(null, null, parse_params(params));
	}
	function search_prompt() {
		if (!searching) {
			var term = prompt("Enter a search term (regexp " +
			    "allowed, eg: ^ext4_)"
			    + (ignorecase ? ", ignoring case" : "")
			    + "\nPress Ctrl-i to toggle case sensitivity", "");
			if (term != null) search(term);
		} else {
			reset_search();
			searching = 0;
			currentSearchTerm = null;
			searchbtn.classList.remove("show");
			searchbtn.firstChild.nodeValue = "Search"
			matchedtxt.classList.add("hide");
			matchedtxt.firstChild.nodeValue = ""
		}
	}
	function search(term) {
		if (term) currentSearchTerm = term;

		var re = new RegExp(currentSearchTerm, ignorecase ? 'i' : '');
		var el = document.getElementById("frames").children;
		var matches = new Object();
		var maxwidth = 0;
		for (var i = 0; i < el.length; i++) {
			var e = el[i];
			var func = g_to_func(e);
			var rect = find_child(e, "rect");
			if (func == null || rect == null)
				continue;

			// Save max width. Only works as we have a root frame
			var w = parseFloat(rect.attributes.width.value);
			if (w > maxwidth)
				maxwidth = w;

			if (func.match(re)) {
				// highlight
				var x = parseFloat(rect.attributes.x.value);
				orig_save(rect, "fill");
				rect.attributes.fill.value = "rgb(230,0,230)";

				// remember matches
				if (matches[x] == undefined) {
					matches[x] = w;
				} else {
					if (w > matches[x]) {
						// overwrite with parent
						matches[x] = w;
					}
				}
				searching = 1;
			}
		}
		if (!searching)
			return;
		var params = get_params();
		params.s = currentSearchTerm;
		history.replaceState(null, null, parse_params(params));

		searchbtn.classList.add("show");
		searchbtn.firstChild.nodeValue = "Reset Search";

		// calculate percent matched, excluding vertical overlap
		var count = 0;
		var lastx = -1;
		var lastw = 0;
		var keys = Array();
		for (k in matches) {
			if (matches.hasOwnProperty(k))
				keys.push(k);
		}
		// sort the matched frames by their x location
		// ascending, then width descending
		keys.sort(function(a, b){
			return a - b;
		});
		// Step through frames saving only the biggest bottom-up frames
		// thanks to the sort order. This relies on the tree property
		// where children are always smaller than their parents.
		var fudge = 0.0001;	// JavaScript floating point
		for (var k in keys) {
			var x = parseFloat(keys[k]);
			var w = matches[keys[k]];
			if (x >= lastx + lastw - fudge) {
				count += w;
				lastx = x;
				lastw = w;
			}
		}
		// display matched percent
		matchedtxt.classList.remove("hide");
		var pct = 100 * count / maxwidth;
		if (pct != 100) pct = pct.toFixed(1)
		matchedtxt.firstChild.nodeValue = "Matched: " + pct + "%";
	}
]]>
</script>
<rect x="0.0" y="0" width="1200.0" height="422.0" fill="url(#background)"  />
<text id="title" x="600.00" y="24" >Flame Graph</text>
<text id="details" x="10.00" y="405" > </text>
<text id="unzoom" x="10.00" y="24" class="hide">Reset Zoom</text>
<text id="search" x="1090.00" y="24" >Search</text>
<text id="ignorecase" x="1174.00" y="24" >ic</text>
<text id="matched" x="1090.00" y="405" > </text>
<g id="frames">
<g >
<title>TransformAC3_C (923,774 samples, 0.11%)</title><rect x="343.3" y="325" width="1.4" height="15.0" fill="rgb(209,19,4)" rx="2" ry="2" />
<text  x="346.34" y="335.5" ></text>
</g>
<g >
<title>do_writepages (924,024 samples, 0.11%)</title><rect x="1181.9" y="165" width="1.3" height="15.0" fill="rgb(240,164,39)" rx="2" ry="2" />
<text  x="1184.85" y="175.5" ></text>
</g>
<g >
<title>HU4_C (923,890 samples, 0.11%)</title><rect x="32.8" y="341" width="1.3" height="15.0" fill="rgb(216,54,13)" rx="2" ry="2" />
<text  x="35.79" y="351.5" ></text>
</g>
<g >
<title>__filemap_fdatawrite_range (924,024 samples, 0.11%)</title><rect x="1181.9" y="197" width="1.3" height="15.0" fill="rgb(233,129,30)" rx="2" ry="2" />
<text  x="1184.85" y="207.5" ></text>
</g>
<g >
<title>do_user_addr_fault (831,816 samples, 0.10%)</title><rect x="208.1" y="293" width="1.3" height="15.0" fill="rgb(228,108,25)" rx="2" ry="2" />
<text  x="211.14" y="303.5" ></text>
</g>
<g >
<title>do_user_addr_fault (458,401 samples, 0.06%)</title><rect x="1189.3" y="293" width="0.7" height="15.0" fill="rgb(228,108,25)" rx="2" ry="2" />
<text  x="1192.29" y="303.5" ></text>
</g>
<g >
<title>__memmove_avx_unaligned_erms (923,985 samples, 0.11%)</title><rect x="1180.5" y="309" width="1.4" height="15.0" fill="rgb(205,0,0)" rx="2" ry="2" />
<text  x="1183.51" y="319.5" ></text>
</g>
<g >
<title>TransformWHT_C (2,771,844 samples, 0.34%)</title><rect x="363.2" y="325" width="4.1" height="15.0" fill="rgb(221,76,18)" rx="2" ry="2" />
<text  x="366.24" y="335.5" ></text>
</g>
<g >
<title>TransformDC_C (4,616,955 samples, 0.57%)</title><rect x="67.5" y="341" width="6.8" height="15.0" fill="rgb(219,65,15)" rx="2" ry="2" />
<text  x="70.55" y="351.5" ></text>
</g>
<g >
<title>asm_exc_page_fault (359,710 samples, 0.04%)</title><rect x="1187.4" y="197" width="0.5" height="15.0" fill="rgb(225,93,22)" rx="2" ry="2" />
<text  x="1190.42" y="207.5" ></text>
</g>
<g >
<title>__handle_mm_fault (923,985 samples, 0.11%)</title><rect x="1180.5" y="229" width="1.4" height="15.0" fill="rgb(207,9,2)" rx="2" ry="2" />
<text  x="1183.51" y="239.5" ></text>
</g>
<g >
<title>__handle_mm_fault (831,816 samples, 0.10%)</title><rect x="208.1" y="261" width="1.3" height="15.0" fill="rgb(207,9,2)" rx="2" ry="2" />
<text  x="211.14" y="271.5" ></text>
</g>
<g >
<title>VP8DecodeMB (11,074,293 samples, 1.37%)</title><rect x="123.8" y="341" width="16.2" height="15.0" fill="rgb(208,18,4)" rx="2" ry="2" />
<text  x="126.85" y="351.5" ></text>
</g>
<g >
<title>__handle_mm_fault (359,710 samples, 0.04%)</title><rect x="1187.4" y="133" width="0.5" height="15.0" fill="rgb(207,9,2)" rx="2" ry="2" />
<text  x="1190.42" y="143.5" ></text>
</g>
<g >
<title>VP8DecodeMB (19,212,316 samples, 2.37%)</title><rect x="383.5" y="325" width="28.0" height="15.0" fill="rgb(208,18,4)" rx="2" ry="2" />
<text  x="386.45" y="335.5" >V..</text>
</g>
<g >
<title>GetCoeffsFast (4,454,925 samples, 0.55%)</title><rect x="241.3" y="325" width="6.5" height="15.0" fill="rgb(219,64,15)" rx="2" ry="2" />
<text  x="244.32" y="335.5" ></text>
</g>
<g >
<title>entry_SYSCALL_64_after_hwframe (923,857 samples, 0.11%)</title><rect x="1183.2" y="309" width="1.3" height="15.0" fill="rgb(218,63,15)" rx="2" ry="2" />
<text  x="1186.20" y="319.5" ></text>
</g>
<g >
<title>ext4_setattr (923,857 samples, 0.11%)</title><rect x="1183.2" y="181" width="1.3" height="15.0" fill="rgb(230,117,28)" rx="2" ry="2" />
<text  x="1186.20" y="191.5" ></text>
</g>
<g >
<title>free_buffer_head (923,857 samples, 0.11%)</title><rect x="1183.2" y="101" width="1.3" height="15.0" fill="rgb(243,177,42)" rx="2" ry="2" />
<text  x="1186.20" y="111.5" ></text>
</g>
<g >
<title>vfs_write (924,024 samples, 0.11%)</title><rect x="1184.5" y="261" width="1.4" height="15.0" fill="rgb(250,209,50)" rx="2" ry="2" />
<text  x="1187.55" y="271.5" ></text>
</g>
<g >
<title>exc_page_fault (359,710 samples, 0.04%)</title><rect x="1187.4" y="181" width="0.5" height="15.0" fill="rgb(212,35,8)" rx="2" ry="2" />
<text  x="1190.42" y="191.5" ></text>
</g>
<g >
<title>TransformDC_C (9,953,145 samples, 1.23%)</title><rect x="348.7" y="325" width="14.5" height="15.0" fill="rgb(219,65,15)" rx="2" ry="2" />
<text  x="351.73" y="335.5" ></text>
</g>
<g >
<title>flush_signal_handlers (116,657 samples, 0.01%)</title><rect x="1187.2" y="213" width="0.2" height="15.0" fill="rgb(253,221,53)" rx="2" ry="2" />
<text  x="1190.25" y="223.5" ></text>
</g>
<g >
<title>ext4_da_write_begin (924,024 samples, 0.11%)</title><rect x="1184.5" y="213" width="1.4" height="15.0" fill="rgb(211,32,7)" rx="2" ry="2" />
<text  x="1187.55" y="223.5" ></text>
</g>
<g >
<title>submit_bio_noacct_nocheck (924,024 samples, 0.11%)</title><rect x="1181.9" y="117" width="1.3" height="15.0" fill="rgb(225,95,22)" rx="2" ry="2" />
<text  x="1184.85" y="127.5" ></text>
</g>
<g >
<title>Upsample32Pixels_SSE2 (4,528,521 samples, 0.56%)</title><rect x="111.9" y="341" width="6.6" height="15.0" fill="rgb(223,83,20)" rx="2" ry="2" />
<text  x="114.85" y="351.5" ></text>
</g>
<g >
<title>ReconstructRow (10,160,761 samples, 1.26%)</title><rect x="37.4" y="341" width="14.8" height="15.0" fill="rgb(225,93,22)" rx="2" ry="2" />
<text  x="40.37" y="351.5" ></text>
</g>
<g >
<title>Transform_SSE2 (25,762,311 samples, 3.18%)</title><rect x="74.3" y="341" width="37.6" height="15.0" fill="rgb(233,129,30)" rx="2" ry="2" />
<text  x="77.28" y="351.5" >Tra..</text>
</g>
<g >
<title>do_filp_open (923,857 samples, 0.11%)</title><rect x="1183.2" y="245" width="1.3" height="15.0" fill="rgb(211,28,6)" rx="2" ry="2" />
<text  x="1186.20" y="255.5" ></text>
</g>
<g >
<title>clear_page_rep (924,024 samples, 0.11%)</title><rect x="1184.5" y="117" width="1.4" height="15.0" fill="rgb(253,221,52)" rx="2" ry="2" />
<text  x="1187.55" y="127.5" ></text>
</g>
<g >
<title>check_preemption_disabled (388,428 samples, 0.05%)</title><rect x="547.2" y="261" width="0.6" height="15.0" fill="rgb(220,73,17)" rx="2" ry="2" />
<text  x="550.20" y="271.5" ></text>
</g>
<g >
<title>__submit_bio (924,024 samples, 0.11%)</title><rect x="1181.9" y="101" width="1.3" height="15.0" fill="rgb(230,117,28)" rx="2" ry="2" />
<text  x="1184.85" y="111.5" ></text>
</g>
<g >
<title>task_work_run (924,024 samples, 0.11%)</title><rect x="1181.9" y="245" width="1.3" height="15.0" fill="rgb(209,22,5)" rx="2" ry="2" />
<text  x="1184.85" y="255.5" ></text>
</g>
<g >
<title>__memmove_avx_unaligned_erms (924,103 samples, 0.11%)</title><rect x="1185.9" y="325" width="1.3" height="15.0" fill="rgb(205,0,0)" rx="2" ry="2" />
<text  x="1188.90" y="335.5" ></text>
</g>
<g >
<title>begin_new_exec (116,657 samples, 0.01%)</title><rect x="1187.2" y="229" width="0.2" height="15.0" fill="rgb(245,184,44)" rx="2" ry="2" />
<text  x="1190.25" y="239.5" ></text>
</g>
<g >
<title>filemap_fault (359,710 samples, 0.04%)</title><rect x="1187.4" y="85" width="0.5" height="15.0" fill="rgb(219,68,16)" rx="2" ry="2" />
<text  x="1190.42" y="95.5" ></text>
</g>
<g >
<title>try_to_free_buffers (923,857 samples, 0.11%)</title><rect x="1183.2" y="117" width="1.3" height="15.0" fill="rgb(249,206,49)" rx="2" ry="2" />
<text  x="1186.20" y="127.5" ></text>
</g>
<g >
<title>get_page_from_freelist (924,024 samples, 0.11%)</title><rect x="1184.5" y="133" width="1.4" height="15.0" fill="rgb(252,218,52)" rx="2" ry="2" />
<text  x="1187.55" y="143.5" ></text>
</g>
<g >
<title>__fput (924,024 samples, 0.11%)</title><rect x="1181.9" y="229" width="1.3" height="15.0" fill="rgb(248,200,47)" rx="2" ry="2" />
<text  x="1184.85" y="239.5" ></text>
</g>
<g >
<title>VP8GetValue (2,771,961 samples, 0.34%)</title><rect x="140.0" y="341" width="4.0" height="15.0" fill="rgb(230,119,28)" rx="2" ry="2" />
<text  x="143.00" y="351.5" ></text>
</g>
<g >
<title>YUV444ToRGB_SSE2 (906,180 samples, 0.11%)</title><rect x="551.8" y="325" width="1.3" height="15.0" fill="rgb(247,193,46)" rx="2" ry="2" />
<text  x="554.81" y="335.5" ></text>
</g>
<g >
<title>do_syscall_64 (924,024 samples, 0.11%)</title><rect x="1181.9" y="293" width="1.3" height="15.0" fill="rgb(209,20,4)" rx="2" ry="2" />
<text  x="1184.85" y="303.5" ></text>
</g>
<g >
<title>UpsampleRgbLinePair_SSE2 (2,770,946 samples, 0.34%)</title><rect x="379.4" y="325" width="4.1" height="15.0" fill="rgb(220,70,16)" rx="2" ry="2" />
<text  x="382.41" y="335.5" ></text>
</g>
<g >
<title>__x64_sys_openat (923,857 samples, 0.11%)</title><rect x="1183.2" y="277" width="1.3" height="15.0" fill="rgb(251,215,51)" rx="2" ry="2" />
<text  x="1186.20" y="287.5" ></text>
</g>
<g >
<title>padzero (359,710 samples, 0.04%)</title><rect x="1187.4" y="229" width="0.5" height="15.0" fill="rgb(223,84,20)" rx="2" ry="2" />
<text  x="1190.42" y="239.5" ></text>
</g>
<g >
<title>do_syscall_64 (924,024 samples, 0.11%)</title><rect x="1184.5" y="293" width="1.4" height="15.0" fill="rgb(209,20,4)" rx="2" ry="2" />
<text  x="1187.55" y="303.5" ></text>
</g>
<g >
<title>clear_page_rep (371,104 samples, 0.05%)</title><rect x="208.8" y="181" width="0.6" height="15.0" fill="rgb(253,221,52)" rx="2" ry="2" />
<text  x="211.81" y="191.5" ></text>
</g>
<g >
<title>ReconstructRow (15,701,375 samples, 1.94%)</title><rect x="313.7" y="325" width="22.9" height="15.0" fill="rgb(225,93,22)" rx="2" ry="2" />
<text  x="316.70" y="335.5" >R..</text>
</g>
<g >
<title>__filemap_get_folio (359,710 samples, 0.04%)</title><rect x="1187.4" y="69" width="0.5" height="15.0" fill="rgb(231,120,28)" rx="2" ry="2" />
<text  x="1190.42" y="79.5" ></text>
</g>
<g >
<title>VP8YuvToRgb32_SSE2 (1,846,606 samples, 0.23%)</title><rect x="549.1" y="325" width="2.7" height="15.0" fill="rgb(241,167,40)" rx="2" ry="2" />
<text  x="552.11" y="335.5" ></text>
</g>
<g >
<title>__pte_alloc (371,104 samples, 0.05%)</title><rect x="208.8" y="245" width="0.6" height="15.0" fill="rgb(218,62,15)" rx="2" ry="2" />
<text  x="211.81" y="255.5" ></text>
</g>
<g >
<title>asm_sysvec_apic_timer_interrupt (388,428 samples, 0.05%)</title><rect x="547.2" y="309" width="0.6" height="15.0" fill="rgb(232,127,30)" rx="2" ry="2" />
<text  x="550.20" y="319.5" ></text>
</g>
<g >
<title>VP8YuvToRgb32_SSE2 (14,336,892 samples, 1.77%)</title><rect x="188.4" y="341" width="21.0" height="15.0" fill="rgb(241,167,40)" rx="2" ry="2" />
<text  x="191.44" y="351.5" ></text>
</g>
<g >
<title>VP8ParseIntraModeRow (93,455,148 samples, 11.55%)</title><rect x="411.5" y="325" width="136.3" height="15.0" fill="rgb(231,121,29)" rx="2" ry="2" />
<text  x="414.47" y="335.5" >VP8ParseIntraMode..</text>
</g>
<g >
<title>pmd_page_vaddr (458,401 samples, 0.06%)</title><rect x="1189.3" y="245" width="0.7" height="15.0" fill="rgb(227,102,24)" rx="2" ry="2" />
<text  x="1192.29" y="255.5" ></text>
</g>
<g >
<title>DC4_C (9,236,985 samples, 1.14%)</title><rect x="10.0" y="341" width="13.5" height="15.0" fill="rgb(209,18,4)" rx="2" ry="2" />
<text  x="13.00" y="351.5" ></text>
</g>
<g >
<title>VP8EnterCritical (924,084 samples, 0.11%)</title><rect x="1179.2" y="309" width="1.3" height="15.0" fill="rgb(245,188,45)" rx="2" ry="2" />
<text  x="1182.16" y="319.5" ></text>
</g>
<g >
<title>__register_frame_info (458,401 samples, 0.06%)</title><rect x="1189.3" y="341" width="0.7" height="15.0" fill="rgb(251,215,51)" rx="2" ry="2" />
<text  x="1192.29" y="351.5" ></text>
</g>
<g >
<title>__filemap_get_folio (924,024 samples, 0.11%)</title><rect x="1184.5" y="181" width="1.4" height="15.0" fill="rgb(231,120,28)" rx="2" ry="2" />
<text  x="1187.55" y="191.5" ></text>
</g>
<g >
<title>asm_exc_page_fault (831,816 samples, 0.10%)</title><rect x="208.1" y="325" width="1.3" height="15.0" fill="rgb(225,93,22)" rx="2" ry="2" />
<text  x="211.14" y="335.5" ></text>
</g>
<g >
<title>ext4_release_file (924,024 samples, 0.11%)</title><rect x="1181.9" y="213" width="1.3" height="15.0" fill="rgb(225,92,22)" rx="2" ry="2" />
<text  x="1184.85" y="223.5" ></text>
</g>
<g >
<title>decode_webp_nat (809,073,190 samples, 100.00%)</title><rect x="10.0" y="357" width="1180.0" height="15.0" fill="rgb(218,61,14)" rx="2" ry="2" />
<text  x="13.00" y="367.5" >decode_webp_nat</text>
</g>
<g >
<title>syscall_exit_to_user_mode (924,024 samples, 0.11%)</title><rect x="1181.9" y="277" width="1.3" height="15.0" fill="rgb(251,211,50)" rx="2" ry="2" />
<text  x="1184.85" y="287.5" ></text>
</g>
<g >
<title>handle_mm_fault (359,710 samples, 0.04%)</title><rect x="1187.4" y="149" width="0.5" height="15.0" fill="rgb(234,135,32)" rx="2" ry="2" />
<text  x="1190.42" y="159.5" ></text>
</g>
<g >
<title>do_user_addr_fault (359,710 samples, 0.04%)</title><rect x="1187.4" y="165" width="0.5" height="15.0" fill="rgb(228,108,25)" rx="2" ry="2" />
<text  x="1190.42" y="175.5" ></text>
</g>
<g >
<title>exit_to_user_mode_prepare (924,024 samples, 0.11%)</title><rect x="1181.9" y="261" width="1.3" height="15.0" fill="rgb(228,108,25)" rx="2" ry="2" />
<text  x="1184.85" y="271.5" ></text>
</g>
<g >
<title>UpsampleRgbLinePair_SSE2 (3,695,615 samples, 0.46%)</title><rect x="118.5" y="341" width="5.3" height="15.0" fill="rgb(220,70,16)" rx="2" ry="2" />
<text  x="121.46" y="351.5" ></text>
</g>
<g >
<title>get_page_from_freelist (371,104 samples, 0.05%)</title><rect x="208.8" y="197" width="0.6" height="15.0" fill="rgb(252,218,52)" rx="2" ry="2" />
<text  x="211.81" y="207.5" ></text>
</g>
<g >
<title>asm_exc_page_fault (923,985 samples, 0.11%)</title><rect x="1180.5" y="293" width="1.4" height="15.0" fill="rgb(225,93,22)" rx="2" ry="2" />
<text  x="1183.51" y="303.5" ></text>
</g>
<g >
<title>DC8uv_SSE2 (2,770,378 samples, 0.34%)</title><rect x="234.6" y="325" width="4.0" height="15.0" fill="rgb(206,8,2)" rx="2" ry="2" />
<text  x="237.59" y="335.5" ></text>
</g>
<g >
<title>kmem_cache_free (923,857 samples, 0.11%)</title><rect x="1183.2" y="85" width="1.3" height="15.0" fill="rgb(254,225,53)" rx="2" ry="2" />
<text  x="1186.20" y="95.5" ></text>
</g>
<g >
<title>HE8uv_C (923,458 samples, 0.11%)</title><rect x="312.4" y="325" width="1.3" height="15.0" fill="rgb(226,98,23)" rx="2" ry="2" />
<text  x="315.36" y="335.5" ></text>
</g>
<g >
<title>VP8ParseProba (2,771,942 samples, 0.34%)</title><rect x="158.8" y="341" width="4.1" height="15.0" fill="rgb(224,88,21)" rx="2" ry="2" />
<text  x="161.82" y="351.5" ></text>
</g>
<g >
<title>EmitFancyRGB (923,111 samples, 0.11%)</title><rect x="238.6" y="325" width="1.4" height="15.0" fill="rgb(210,26,6)" rx="2" ry="2" />
<text  x="241.63" y="335.5" ></text>
</g>
<g >
<title>_raw_spin_lock (923,985 samples, 0.11%)</title><rect x="1180.5" y="213" width="1.4" height="15.0" fill="rgb(239,160,38)" rx="2" ry="2" />
<text  x="1183.51" y="223.5" ></text>
</g>
<g >
<title>__alloc_pages (371,104 samples, 0.05%)</title><rect x="208.8" y="213" width="0.6" height="15.0" fill="rgb(233,129,30)" rx="2" ry="2" />
<text  x="211.81" y="223.5" ></text>
</g>
<g >
<title>generic_perform_write (924,024 samples, 0.11%)</title><rect x="1184.5" y="229" width="1.4" height="15.0" fill="rgb(236,146,35)" rx="2" ry="2" />
<text  x="1187.55" y="239.5" ></text>
</g>
<g >
<title>do_user_addr_fault (923,985 samples, 0.11%)</title><rect x="1180.5" y="261" width="1.4" height="15.0" fill="rgb(228,108,25)" rx="2" ry="2" />
<text  x="1183.51" y="271.5" ></text>
</g>
<g >
<title>TM8uv_SSE2 (923,747 samples, 0.11%)</title><rect x="342.0" y="325" width="1.3" height="15.0" fill="rgb(238,156,37)" rx="2" ry="2" />
<text  x="344.99" y="335.5" ></text>
</g>
<g >
<title>filemap_fdatawrite_wbc (924,024 samples, 0.11%)</title><rect x="1181.9" y="181" width="1.3" height="15.0" fill="rgb(210,25,6)" rx="2" ry="2" />
<text  x="1184.85" y="191.5" ></text>
</g>
<g >
<title>ext4_writepages (924,024 samples, 0.11%)</title><rect x="1181.9" y="149" width="1.3" height="15.0" fill="rgb(240,165,39)" rx="2" ry="2" />
<text  x="1184.85" y="159.5" ></text>
</g>
<g >
<title>entry_SYSCALL_64_after_hwframe (924,024 samples, 0.11%)</title><rect x="1181.9" y="309" width="1.3" height="15.0" fill="rgb(218,63,15)" rx="2" ry="2" />
<text  x="1184.85" y="319.5" ></text>
</g>
<g >
<title>pte_alloc_one (371,104 samples, 0.05%)</title><rect x="208.8" y="229" width="0.6" height="15.0" fill="rgb(252,217,51)" rx="2" ry="2" />
<text  x="211.81" y="239.5" ></text>
</g>
<g >
<title>TransformDCUV_C (2,771,153 samples, 0.34%)</title><rect x="344.7" y="325" width="4.0" height="15.0" fill="rgb(214,44,10)" rx="2" ry="2" />
<text  x="347.69" y="335.5" ></text>
</g>
<g >
<title>xas_load (359,710 samples, 0.04%)</title><rect x="1187.4" y="53" width="0.5" height="15.0" fill="rgb(217,59,14)" rx="2" ry="2" />
<text  x="1190.42" y="63.5" ></text>
</g>
<g >
<title>do_truncate (923,857 samples, 0.11%)</title><rect x="1183.2" y="213" width="1.3" height="15.0" fill="rgb(216,53,12)" rx="2" ry="2" />
<text  x="1186.20" y="223.5" ></text>
</g>
<g >
<title>DC16_SSE2 (924,060 samples, 0.11%)</title><rect x="233.2" y="325" width="1.4" height="15.0" fill="rgb(221,75,17)" rx="2" ry="2" />
<text  x="236.24" y="335.5" ></text>
</g>
<g >
<title>SimpleHFilter16_SSE2 (923,115 samples, 0.11%)</title><rect x="52.2" y="341" width="1.3" height="15.0" fill="rgb(219,67,16)" rx="2" ry="2" />
<text  x="55.19" y="351.5" ></text>
</g>
<g >
<title>all (809,103,336 samples, 100%)</title><rect x="10.0" y="373" width="1180.0" height="15.0" fill="rgb(213,39,9)" rx="2" ry="2" />
<text  x="13.00" y="383.5" ></text>
</g>
<g >
<title>VP8PlanarTo24b_SSE2 (17,541,360 samples, 2.17%)</title><rect x="162.9" y="341" width="25.5" height="15.0" fill="rgb(208,15,3)" rx="2" ry="2" />
<text  x="165.86" y="351.5" >V..</text>
</g>
<g >
<title>handle_mm_fault (923,985 samples, 0.11%)</title><rect x="1180.5" y="245" width="1.4" height="15.0" fill="rgb(234,135,32)" rx="2" ry="2" />
<text  x="1183.51" y="255.5" ></text>
</g>
<g >
<title>__x64_sys_execve (476,367 samples, 0.06%)</title><rect x="1187.2" y="293" width="0.7" height="15.0" fill="rgb(247,193,46)" rx="2" ry="2" />
<text  x="1190.25" y="303.5" ></text>
</g>
<g >
<title>GetCoeffsFast (425,563,171 samples, 52.60%)</title><rect x="553.1" y="309" width="620.7" height="15.0" fill="rgb(219,64,15)" rx="2" ry="2" />
<text  x="556.13" y="319.5" >GetCoeffsFast</text>
</g>
<g >
<title>LD4_SSE2 (368,376 samples, 0.05%)</title><rect x="34.1" y="341" width="0.6" height="15.0" fill="rgb(242,173,41)" rx="2" ry="2" />
<text  x="37.14" y="351.5" ></text>
</g>
<g >
<title>GetCoeffsFast (5,468,717 samples, 0.68%)</title><rect x="23.5" y="341" width="7.9" height="15.0" fill="rgb(219,64,15)" rx="2" ry="2" />
<text  x="26.47" y="351.5" ></text>
</g>
<g >
<title>ksys_write (924,024 samples, 0.11%)</title><rect x="1184.5" y="277" width="1.4" height="15.0" fill="rgb(205,4,1)" rx="2" ry="2" />
<text  x="1187.55" y="287.5" ></text>
</g>
<g >
<title>do_sys_openat2 (923,857 samples, 0.11%)</title><rect x="1183.2" y="261" width="1.3" height="15.0" fill="rgb(253,221,52)" rx="2" ry="2" />
<text  x="1186.20" y="271.5" ></text>
</g>
<g >
<title>SimpleVFilter16_SSE2 (1,847,751 samples, 0.23%)</title><rect x="339.3" y="325" width="2.7" height="15.0" fill="rgb(229,111,26)" rx="2" ry="2" />
<text  x="342.30" y="335.5" ></text>
</g>
<g >
<title>do_syscall_64 (476,367 samples, 0.06%)</title><rect x="1187.2" y="309" width="0.7" height="15.0" fill="rgb(209,20,4)" rx="2" ry="2" />
<text  x="1190.25" y="319.5" ></text>
</g>
<g >
<title>[unknown] (654,618,070 samples, 80.91%)</title><rect x="233.2" y="341" width="954.7" height="15.0" fill="rgb(210,24,5)" rx="2" ry="2" />
<text  x="236.24" y="351.5" >[unknown]</text>
</g>
<g >
<title>GetLargeValue (3,694,246 samples, 0.46%)</title><rect x="1173.8" y="309" width="5.4" height="15.0" fill="rgb(243,175,42)" rx="2" ry="2" />
<text  x="1176.77" y="319.5" ></text>
</g>
<g >
<title>handle_mm_fault (458,401 samples, 0.06%)</title><rect x="1189.3" y="277" width="0.7" height="15.0" fill="rgb(234,135,32)" rx="2" ry="2" />
<text  x="1192.29" y="287.5" ></text>
</g>
<g >
<title>__irq_exit_rcu (388,428 samples, 0.05%)</title><rect x="547.2" y="277" width="0.6" height="15.0" fill="rgb(227,101,24)" rx="2" ry="2" />
<text  x="550.20" y="287.5" ></text>
</g>
<g >
<title>VP8PlanarTo24b_SSE2 (924,329 samples, 0.11%)</title><rect x="547.8" y="325" width="1.3" height="15.0" fill="rgb(208,15,3)" rx="2" ry="2" />
<text  x="550.77" y="335.5" ></text>
</g>
<g >
<title>entry_SYSCALL_64_after_hwframe (476,367 samples, 0.06%)</title><rect x="1187.2" y="325" width="0.7" height="15.0" fill="rgb(218,63,15)" rx="2" ry="2" />
<text  x="1190.25" y="335.5" ></text>
</g>
<g >
<title>SimpleHFilter16_SSE2 (1,847,413 samples, 0.23%)</title><rect x="336.6" y="325" width="2.7" height="15.0" fill="rgb(219,67,16)" rx="2" ry="2" />
<text  x="339.60" y="335.5" ></text>
</g>
<g >
<title>FinishRow (924,268 samples, 0.11%)</title><rect x="240.0" y="325" width="1.3" height="15.0" fill="rgb(213,41,9)" rx="2" ry="2" />
<text  x="242.98" y="335.5" ></text>
</g>
<g >
<title>do_syscall_64 (923,857 samples, 0.11%)</title><rect x="1183.2" y="293" width="1.3" height="15.0" fill="rgb(209,20,4)" rx="2" ry="2" />
<text  x="1186.20" y="303.5" ></text>
</g>
<g >
<title>path_openat (923,857 samples, 0.11%)</title><rect x="1183.2" y="229" width="1.3" height="15.0" fill="rgb(249,202,48)" rx="2" ry="2" />
<text  x="1186.20" y="239.5" ></text>
</g>
<g >
<title>__libc_write (924,024 samples, 0.11%)</title><rect x="1184.5" y="325" width="1.4" height="15.0" fill="rgb(238,154,37)" rx="2" ry="2" />
<text  x="1187.55" y="335.5" ></text>
</g>
<g >
<title>HE4_C (923,636 samples, 0.11%)</title><rect x="31.4" y="341" width="1.4" height="15.0" fill="rgb(220,70,16)" rx="2" ry="2" />
<text  x="34.45" y="351.5" ></text>
</g>
<g >
<title>asm_exc_page_fault (458,401 samples, 0.06%)</title><rect x="1189.3" y="325" width="0.7" height="15.0" fill="rgb(225,93,22)" rx="2" ry="2" />
<text  x="1192.29" y="335.5" ></text>
</g>
<g >
<title>VP8ParseIntraModeRow (10,131,703 samples, 1.25%)</title><rect x="144.0" y="341" width="14.8" height="15.0" fill="rgb(231,121,29)" rx="2" ry="2" />
<text  x="147.04" y="351.5" ></text>
</g>
<g >
<title>folio_alloc (924,024 samples, 0.11%)</title><rect x="1184.5" y="165" width="1.4" height="15.0" fill="rgb(252,217,52)" rx="2" ry="2" />
<text  x="1187.55" y="175.5" ></text>
</g>
<g >
<title>load_elf_binary (476,367 samples, 0.06%)</title><rect x="1187.2" y="245" width="0.7" height="15.0" fill="rgb(223,83,20)" rx="2" ry="2" />
<text  x="1190.25" y="255.5" ></text>
</g>
<g >
<title>xas_descend (359,710 samples, 0.04%)</title><rect x="1187.4" y="37" width="0.5" height="15.0" fill="rgb(215,47,11)" rx="2" ry="2" />
<text  x="1190.42" y="47.5" ></text>
</g>
<g >
<title>TransformAC3_C (7,758,306 samples, 0.96%)</title><rect x="56.2" y="341" width="11.3" height="15.0" fill="rgb(209,19,4)" rx="2" ry="2" />
<text  x="59.23" y="351.5" ></text>
</g>
<g >
<title>ext4_buffered_write_iter (924,024 samples, 0.11%)</title><rect x="1184.5" y="245" width="1.4" height="15.0" fill="rgb(213,40,9)" rx="2" ry="2" />
<text  x="1187.55" y="255.5" ></text>
</g>
<g >
<title>pagecache_get_page (924,024 samples, 0.11%)</title><rect x="1184.5" y="197" width="1.4" height="15.0" fill="rgb(253,221,53)" rx="2" ry="2" />
<text  x="1187.55" y="207.5" ></text>
</g>
<g >
<title>__do_fault (359,710 samples, 0.04%)</title><rect x="1187.4" y="101" width="0.5" height="15.0" fill="rgb(221,74,17)" rx="2" ry="2" />
<text  x="1190.42" y="111.5" ></text>
</g>
<g >
<title>exc_page_fault (458,401 samples, 0.06%)</title><rect x="1189.3" y="309" width="0.7" height="15.0" fill="rgb(212,35,8)" rx="2" ry="2" />
<text  x="1192.29" y="319.5" ></text>
</g>
<g >
<title>sysvec_apic_timer_interrupt (388,428 samples, 0.05%)</title><rect x="547.2" y="293" width="0.6" height="15.0" fill="rgb(220,69,16)" rx="2" ry="2" />
<text  x="550.20" y="303.5" ></text>
</g>
<g >
<title>truncate_cleanup_folio (923,857 samples, 0.11%)</title><rect x="1183.2" y="133" width="1.3" height="15.0" fill="rgb(240,165,39)" rx="2" ry="2" />
<text  x="1186.20" y="143.5" ></text>
</g>
<g >
<title>entry_SYSCALL_64_after_hwframe (924,024 samples, 0.11%)</title><rect x="1184.5" y="309" width="1.4" height="15.0" fill="rgb(218,63,15)" rx="2" ry="2" />
<text  x="1187.55" y="319.5" ></text>
</g>
<g >
<title>do_execveat_common.isra.0 (476,367 samples, 0.06%)</title><rect x="1187.2" y="277" width="0.7" height="15.0" fill="rgb(231,123,29)" rx="2" ry="2" />
<text  x="1190.25" y="287.5" ></text>
</g>
<g >
<title>__alloc_pages (924,024 samples, 0.11%)</title><rect x="1184.5" y="149" width="1.4" height="15.0" fill="rgb(233,129,30)" rx="2" ry="2" />
<text  x="1187.55" y="159.5" ></text>
</g>
<g >
<title>RD4_SSE2 (1,847,835 samples, 0.23%)</title><rect x="34.7" y="341" width="2.7" height="15.0" fill="rgb(253,224,53)" rx="2" ry="2" />
<text  x="37.68" y="351.5" ></text>
</g>
<g >
<title>__handle_mm_fault (458,401 samples, 0.06%)</title><rect x="1189.3" y="261" width="0.7" height="15.0" fill="rgb(207,9,2)" rx="2" ry="2" />
<text  x="1192.29" y="271.5" ></text>
</g>
<g >
<title>notify_change (923,857 samples, 0.11%)</title><rect x="1183.2" y="197" width="1.3" height="15.0" fill="rgb(237,150,35)" rx="2" ry="2" />
<text  x="1186.20" y="207.5" ></text>
</g>
<g >
<title>GetLargeValue (44,250,502 samples, 5.47%)</title><rect x="247.8" y="325" width="64.6" height="15.0" fill="rgb(243,175,42)" rx="2" ry="2" />
<text  x="250.82" y="335.5" >GetLarg..</text>
</g>
<g >
<title>do_fault (359,710 samples, 0.04%)</title><rect x="1187.4" y="117" width="0.5" height="15.0" fill="rgb(248,200,47)" rx="2" ry="2" />
<text  x="1190.42" y="127.5" ></text>
</g>
<g >
<title>exc_page_fault (831,816 samples, 0.10%)</title><rect x="208.1" y="309" width="1.3" height="15.0" fill="rgb(212,35,8)" rx="2" ry="2" />
<text  x="211.14" y="319.5" ></text>
</g>
<g >
<title>truncate_pagecache (923,857 samples, 0.11%)</title><rect x="1183.2" y="165" width="1.3" height="15.0" fill="rgb(231,123,29)" rx="2" ry="2" />
<text  x="1186.20" y="175.5" ></text>
</g>
<g >
<title>[unknown] (431,105,486 samples, 53.28%)</title><rect x="553.1" y="325" width="628.8" height="15.0" fill="rgb(210,24,5)" rx="2" ry="2" />
<text  x="556.13" y="335.5" >[unknown]</text>
</g>
<g >
<title>TM4_SSE2 (1,848,110 samples, 0.23%)</title><rect x="53.5" y="341" width="2.7" height="15.0" fill="rgb(232,128,30)" rx="2" ry="2" />
<text  x="56.54" y="351.5" ></text>
</g>
<g >
<title>YUV444ToRGB_SSE2 (16,381,369 samples, 2.02%)</title><rect x="209.4" y="341" width="23.8" height="15.0" fill="rgb(247,193,46)" rx="2" ry="2" />
<text  x="212.35" y="351.5" >Y..</text>
</g>
<g >
<title>handle_mm_fault (831,816 samples, 0.10%)</title><rect x="208.1" y="277" width="1.3" height="15.0" fill="rgb(234,135,32)" rx="2" ry="2" />
<text  x="211.14" y="287.5" ></text>
</g>
<g >
<title>__memmove_avx_unaligned_erms (924,066 samples, 0.11%)</title><rect x="1187.9" y="341" width="1.4" height="15.0" fill="rgb(205,0,0)" rx="2" ry="2" />
<text  x="1190.94" y="351.5" ></text>
</g>
<g >
<title>exc_page_fault (923,985 samples, 0.11%)</title><rect x="1180.5" y="277" width="1.4" height="15.0" fill="rgb(212,35,8)" rx="2" ry="2" />
<text  x="1183.51" y="287.5" ></text>
</g>
<g >
<title>__close_nocancel (924,024 samples, 0.11%)</title><rect x="1181.9" y="325" width="1.3" height="15.0" fill="rgb(228,109,26)" rx="2" ry="2" />
<text  x="1184.85" y="335.5" ></text>
</g>
<g >
<title>bprm_execve (476,367 samples, 0.06%)</title><rect x="1187.2" y="261" width="0.7" height="15.0" fill="rgb(218,61,14)" rx="2" ry="2" />
<text  x="1190.25" y="271.5" ></text>
</g>
<g >
<title>ext4_io_submit (924,024 samples, 0.11%)</title><rect x="1181.9" y="133" width="1.3" height="15.0" fill="rgb(214,43,10)" rx="2" ry="2" />
<text  x="1184.85" y="143.5" ></text>
</g>
<g >
<title>Transform_SSE2 (8,313,780 samples, 1.03%)</title><rect x="367.3" y="325" width="12.1" height="15.0" fill="rgb(233,129,30)" rx="2" ry="2" />
<text  x="370.29" y="335.5" ></text>
</g>
<g >
<title>clear_user_rep_good (359,710 samples, 0.04%)</title><rect x="1187.4" y="213" width="0.5" height="15.0" fill="rgb(224,89,21)" rx="2" ry="2" />
<text  x="1190.42" y="223.5" ></text>
</g>
<g >
<title>__libc_open64 (923,857 samples, 0.11%)</title><rect x="1183.2" y="325" width="1.3" height="15.0" fill="rgb(235,140,33)" rx="2" ry="2" />
<text  x="1186.20" y="335.5" ></text>
</g>
<g >
<title>truncate_inode_pages_range (923,857 samples, 0.11%)</title><rect x="1183.2" y="149" width="1.3" height="15.0" fill="rgb(245,187,44)" rx="2" ry="2" />
<text  x="1186.20" y="159.5" ></text>
</g>
</g>
</svg>
