<?xml version="1.0" standalone="no"?>
<!DOCTYPE svg PUBLIC "-//W3C//DTD SVG 1.1//EN" "http://www.w3.org/Graphics/SVG/1.1/DTD/svg11.dtd">
<svg version="1.1" width="1200" height="358" onload="init(evt)" viewBox="0 0 1200 358" xmlns="http://www.w3.org/2000/svg" xmlns:xlink="http://www.w3.org/1999/xlink">
<!-- Flame graph stack visualization. See https://github.com/brendangregg/FlameGraph for latest version, and http://www.brendangregg.com/flamegraphs.html for examples. -->
<!-- NOTES:  -->
<defs>
	<linearGradient id="background" y1="0" y2="1" x1="0" x2="0" >
		<stop stop-color="#eeeeee" offset="5%" />
		<stop stop-color="#eeeeb0" offset="95%" />
	</linearGradient>
</defs>
<style type="text/css">
	text { font-family:Verdana; font-size:12px; fill:rgb(0,0,0); }
	#search, #ignorecase { opacity:0.1; cursor:pointer; }
	#search:hover, #search.show, #ignorecase:hover, #ignorecase.show { opacity:1; }
	#subtitle { text-anchor:middle; font-color:rgb(160,160,160); }
	#title { text-anchor:middle; font-size:17px}
	#unzoom { cursor:pointer; }
	#frames > *:hover { stroke:black; stroke-width:0.5; cursor:pointer; }
	.hide { display:none; }
	.parent { opacity:0.5; }
</style>
<script type="text/ecmascript">
<![CDATA[
	"use strict";
	var details, searchbtn, unzoombtn, matchedtxt, svg, searching, currentSearchTerm, ignorecase, ignorecaseBtn;
	function init(evt) {
		details = document.getElementById("details").firstChild;
		searchbtn = document.getElementById("search");
		ignorecaseBtn = document.getElementById("ignorecase");
		unzoombtn = document.getElementById("unzoom");
		matchedtxt = document.getElementById("matched");
		svg = document.getElementsByTagName("svg")[0];
		searching = 0;
		currentSearchTerm = null;

		// use GET parameters to restore a flamegraphs state.
		var params = get_params();
		if (params.x && params.y)
			zoom(find_group(document.querySelector('[x="' + params.x + '"][y="' + params.y + '"]')));
                if (params.s) search(params.s);
	}

	// event listeners
	window.addEventListener("click", function(e) {
		var target = find_group(e.target);
		if (target) {
			if (target.nodeName == "a") {
				if (e.ctrlKey === false) return;
				e.preventDefault();
			}
			if (target.classList.contains("parent")) unzoom(true);
			zoom(target);
			if (!document.querySelector('.parent')) {
				// we have basically done a clearzoom so clear the url
				var params = get_params();
				if (params.x) delete params.x;
				if (params.y) delete params.y;
				history.replaceState(null, null, parse_params(params));
				unzoombtn.classList.add("hide");
				return;
			}

			// set parameters for zoom state
			var el = target.querySelector("rect");
			if (el && el.attributes && el.attributes.y && el.attributes._orig_x) {
				var params = get_params()
				params.x = el.attributes._orig_x.value;
				params.y = el.attributes.y.value;
				history.replaceState(null, null, parse_params(params));
			}
		}
		else if (e.target.id == "unzoom") clearzoom();
		else if (e.target.id == "search") search_prompt();
		else if (e.target.id == "ignorecase") toggle_ignorecase();
	}, false)

	// mouse-over for info
	// show
	window.addEventListener("mouseover", function(e) {
		var target = find_group(e.target);
		if (target) details.nodeValue = "Function: " + g_to_text(target);
	}, false)

	// clear
	window.addEventListener("mouseout", function(e) {
		var target = find_group(e.target);
		if (target) details.nodeValue = ' ';
	}, false)

	// ctrl-F for search
	// ctrl-I to toggle case-sensitive search
	window.addEventListener("keydown",function (e) {
		if (e.keyCode === 114 || (e.ctrlKey && e.keyCode === 70)) {
			e.preventDefault();
			search_prompt();
		}
		else if (e.ctrlKey && e.keyCode === 73) {
			e.preventDefault();
			toggle_ignorecase();
		}
	}, false)

	// functions
	function get_params() {
		var params = {};
		var paramsarr = window.location.search.substr(1).split('&');
		for (var i = 0; i < paramsarr.length; ++i) {
			var tmp = paramsarr[i].split("=");
			if (!tmp[0] || !tmp[1]) continue;
			params[tmp[0]]  = decodeURIComponent(tmp[1]);
		}
		return params;
	}
	function parse_params(params) {
		var uri = "?";
		for (var key in params) {
			uri += key + '=' + encodeURIComponent(params[key]) + '&';
		}
		if (uri.slice(-1) == "&")
			uri = uri.substring(0, uri.length - 1);
		if (uri == '?')
			uri = window.location.href.split('?')[0];
		return uri;
	}
	function find_child(node, selector) {
		var children = node.querySelectorAll(selector);
		if (children.length) return children[0];
	}
	function find_group(node) {
		var parent = node.parentElement;
		if (!parent) return;
		if (parent.id == "frames") return node;
		return find_group(parent);
	}
	function orig_save(e, attr, val) {
		if (e.attributes["_orig_" + attr] != undefined) return;
		if (e.attributes[attr] == undefined) return;
		if (val == undefined) val = e.attributes[attr].value;
		e.setAttribute("_orig_" + attr, val);
	}
	function orig_load(e, attr) {
		if (e.attributes["_orig_"+attr] == undefined) return;
		e.attributes[attr].value = e.attributes["_orig_" + attr].value;
		e.removeAttribute("_orig_"+attr);
	}
	function g_to_text(e) {
		var text = find_child(e, "title").firstChild.nodeValue;
		return (text)
	}
	function g_to_func(e) {
		var func = g_to_text(e);
		// if there's any manipulation we want to do to the function
		// name before it's searched, do it here before returning.
		return (func);
	}
	function update_text(e) {
		var r = find_child(e, "rect");
		var t = find_child(e, "text");
		var w = parseFloat(r.attributes.width.value) -3;
		var txt = find_child(e, "title").textContent.replace(/\([^(]*\)$/,"");
		t.attributes.x.value = parseFloat(r.attributes.x.value) + 3;

		// Smaller than this size won't fit anything
		if (w < 2 * 12 * 0.59) {
			t.textContent = "";
			return;
		}

		t.textContent = txt;
		var sl = t.getSubStringLength(0, txt.length);
		// check if only whitespace or if we can fit the entire string into width w
		if (/^ *$/.test(txt) || sl < w)
			return;

		// this isn't perfect, but gives a good starting point
		// and avoids calling getSubStringLength too often
		var start = Math.floor((w/sl) * txt.length);
		for (var x = start; x > 0; x = x-2) {
			if (t.getSubStringLength(0, x + 2) <= w) {
				t.textContent = txt.substring(0, x) + "..";
				return;
			}
		}
		t.textContent = "";
	}

	// zoom
	function zoom_reset(e) {
		if (e.attributes != undefined) {
			orig_load(e, "x");
			orig_load(e, "width");
		}
		if (e.childNodes == undefined) return;
		for (var i = 0, c = e.childNodes; i < c.length; i++) {
			zoom_reset(c[i]);
		}
	}
	function zoom_child(e, x, ratio) {
		if (e.attributes != undefined) {
			if (e.attributes.x != undefined) {
				orig_save(e, "x");
				e.attributes.x.value = (parseFloat(e.attributes.x.value) - x - 10) * ratio + 10;
				if (e.tagName == "text")
					e.attributes.x.value = find_child(e.parentNode, "rect[x]").attributes.x.value + 3;
			}
			if (e.attributes.width != undefined) {
				orig_save(e, "width");
				e.attributes.width.value = parseFloat(e.attributes.width.value) * ratio;
			}
		}

		if (e.childNodes == undefined) return;
		for (var i = 0, c = e.childNodes; i < c.length; i++) {
			zoom_child(c[i], x - 10, ratio);
		}
	}
	function zoom_parent(e) {
		if (e.attributes) {
			if (e.attributes.x != undefined) {
				orig_save(e, "x");
				e.attributes.x.value = 10;
			}
			if (e.attributes.width != undefined) {
				orig_save(e, "width");
				e.attributes.width.value = parseInt(svg.width.baseVal.value) - (10 * 2);
			}
		}
		if (e.childNodes == undefined) return;
		for (var i = 0, c = e.childNodes; i < c.length; i++) {
			zoom_parent(c[i]);
		}
	}
	function zoom(node) {
		var attr = find_child(node, "rect").attributes;
		var width = parseFloat(attr.width.value);
		var xmin = parseFloat(attr.x.value);
		var xmax = parseFloat(xmin + width);
		var ymin = parseFloat(attr.y.value);
		var ratio = (svg.width.baseVal.value - 2 * 10) / width;

		// XXX: Workaround for JavaScript float issues (fix me)
		var fudge = 0.0001;

		unzoombtn.classList.remove("hide");

		var el = document.getElementById("frames").children;
		for (var i = 0; i < el.length; i++) {
			var e = el[i];
			var a = find_child(e, "rect").attributes;
			var ex = parseFloat(a.x.value);
			var ew = parseFloat(a.width.value);
			var upstack;
			// Is it an ancestor
			if (0 == 0) {
				upstack = parseFloat(a.y.value) > ymin;
			} else {
				upstack = parseFloat(a.y.value) < ymin;
			}
			if (upstack) {
				// Direct ancestor
				if (ex <= xmin && (ex+ew+fudge) >= xmax) {
					e.classList.add("parent");
					zoom_parent(e);
					update_text(e);
				}
				// not in current path
				else
					e.classList.add("hide");
			}
			// Children maybe
			else {
				// no common path
				if (ex < xmin || ex + fudge >= xmax) {
					e.classList.add("hide");
				}
				else {
					zoom_child(e, xmin, ratio);
					update_text(e);
				}
			}
		}
		search();
	}
	function unzoom(dont_update_text) {
		unzoombtn.classList.add("hide");
		var el = document.getElementById("frames").children;
		for(var i = 0; i < el.length; i++) {
			el[i].classList.remove("parent");
			el[i].classList.remove("hide");
			zoom_reset(el[i]);
			if(!dont_update_text) update_text(el[i]);
		}
		search();
	}
	function clearzoom() {
		unzoom();

		// remove zoom state
		var params = get_params();
		if (params.x) delete params.x;
		if (params.y) delete params.y;
		history.replaceState(null, null, parse_params(params));
	}

	// search
	function toggle_ignorecase() {
		ignorecase = !ignorecase;
		if (ignorecase) {
			ignorecaseBtn.classList.add("show");
		} else {
			ignorecaseBtn.classList.remove("show");
		}
		reset_search();
		search();
	}
	function reset_search() {
		var el = document.querySelectorAll("#frames rect");
		for (var i = 0; i < el.length; i++) {
			orig_load(el[i], "fill")
		}
		var params = get_params();
		delete params.s;
		history.replaceState(null, null, parse_params(params));
	}
	function search_prompt() {
		if (!searching) {
			var term = prompt("Enter a search term (regexp " +
			    "allowed, eg: ^ext4_)"
			    + (ignorecase ? ", ignoring case" : "")
			    + "\nPress Ctrl-i to toggle case sensitivity", "");
			if (term != null) search(term);
		} else {
			reset_search();
			searching = 0;
			currentSearchTerm = null;
			searchbtn.classList.remove("show");
			searchbtn.firstChild.nodeValue = "Search"
			matchedtxt.classList.add("hide");
			matchedtxt.firstChild.nodeValue = ""
		}
	}
	function search(term) {
		if (term) currentSearchTerm = term;

		var re = new RegExp(currentSearchTerm, ignorecase ? 'i' : '');
		var el = document.getElementById("frames").children;
		var matches = new Object();
		var maxwidth = 0;
		for (var i = 0; i < el.length; i++) {
			var e = el[i];
			var func = g_to_func(e);
			var rect = find_child(e, "rect");
			if (func == null || rect == null)
				continue;

			// Save max width. Only works as we have a root frame
			var w = parseFloat(rect.attributes.width.value);
			if (w > maxwidth)
				maxwidth = w;

			if (func.match(re)) {
				// highlight
				var x = parseFloat(rect.attributes.x.value);
				orig_save(rect, "fill");
				rect.attributes.fill.value = "rgb(230,0,230)";

				// remember matches
				if (matches[x] == undefined) {
					matches[x] = w;
				} else {
					if (w > matches[x]) {
						// overwrite with parent
						matches[x] = w;
					}
				}
				searching = 1;
			}
		}
		if (!searching)
			return;
		var params = get_params();
		params.s = currentSearchTerm;
		history.replaceState(null, null, parse_params(params));

		searchbtn.classList.add("show");
		searchbtn.firstChild.nodeValue = "Reset Search";

		// calculate percent matched, excluding vertical overlap
		var count = 0;
		var lastx = -1;
		var lastw = 0;
		var keys = Array();
		for (k in matches) {
			if (matches.hasOwnProperty(k))
				keys.push(k);
		}
		// sort the matched frames by their x location
		// ascending, then width descending
		keys.sort(function(a, b){
			return a - b;
		});
		// Step through frames saving only the biggest bottom-up frames
		// thanks to the sort order. This relies on the tree property
		// where children are always smaller than their parents.
		var fudge = 0.0001;	// JavaScript floating point
		for (var k in keys) {
			var x = parseFloat(keys[k]);
			var w = matches[keys[k]];
			if (x >= lastx + lastw - fudge) {
				count += w;
				lastx = x;
				lastw = w;
			}
		}
		// display matched percent
		matchedtxt.classList.remove("hide");
		var pct = 100 * count / maxwidth;
		if (pct != 100) pct = pct.toFixed(1)
		matchedtxt.firstChild.nodeValue = "Matched: " + pct + "%";
	}
]]>
</script>
<rect x="0.0" y="0" width="1200.0" height="358.0" fill="url(#background)"  />
<text id="title" x="600.00" y="24" >Flame Graph</text>
<text id="details" x="10.00" y="341" > </text>
<text id="unzoom" x="10.00" y="24" class="hide">Reset Zoom</text>
<text id="search" x="1090.00" y="24" >Search</text>
<text id="ignorecase" x="1174.00" y="24" >ic</text>
<text id="matched" x="1090.00" y="341" > </text>
<g id="frames">
<g >
<title>w2c_decode__webp__wasmsimd_TransformTwo_C (923,620 samples, 0.06%)</title><rect x="91.6" y="261" width="0.7" height="15.0" fill="rgb(254,228,54)" rx="2" ry="2" />
<text  x="94.59" y="271.5" ></text>
</g>
<g >
<title>exc_page_fault (399,735 samples, 0.03%)</title><rect x="78.1" y="213" width="0.3" height="15.0" fill="rgb(212,35,8)" rx="2" ry="2" />
<text  x="81.12" y="223.5" ></text>
</g>
<g >
<title>w2c_decode__webp__wasmsimd_DC8uv_C (2,717,759 samples, 0.19%)</title><rect x="96.8" y="277" width="2.2" height="15.0" fill="rgb(206,8,2)" rx="2" ry="2" />
<text  x="99.84" y="287.5" ></text>
</g>
<g >
<title>_raw_spin_lock_irqsave (924,245 samples, 0.06%)</title><rect x="556.3" y="133" width="0.8" height="15.0" fill="rgb(247,195,46)" rx="2" ry="2" />
<text  x="559.32" y="143.5" ></text>
</g>
<g >
<title>call_timer_fn (924,245 samples, 0.06%)</title><rect x="556.3" y="165" width="0.8" height="15.0" fill="rgb(234,135,32)" rx="2" ry="2" />
<text  x="559.32" y="175.5" ></text>
</g>
<g >
<title>w2c_decode__webp__wasmsimd_TransformOne_C (923,984 samples, 0.06%)</title><rect x="90.8" y="261" width="0.8" height="15.0" fill="rgb(209,22,5)" rx="2" ry="2" />
<text  x="93.84" y="271.5" ></text>
</g>
<g >
<title>w2c_decode__webp__wasmsimd_GetLargeValue (51,950,908 samples, 3.58%)</title><rect x="557.1" y="277" width="42.2" height="15.0" fill="rgb(234,137,32)" rx="2" ry="2" />
<text  x="560.07" y="287.5" >w2c..</text>
</g>
<g >
<title>asm_exc_page_fault (669,718 samples, 0.05%)</title><rect x="1185.7" y="261" width="0.5" height="15.0" fill="rgb(225,93,22)" rx="2" ry="2" />
<text  x="1188.68" y="271.5" ></text>
</g>
<g >
<title>__handle_mm_fault (669,718 samples, 0.05%)</title><rect x="1185.7" y="197" width="0.5" height="15.0" fill="rgb(207,9,2)" rx="2" ry="2" />
<text  x="1188.68" y="207.5" ></text>
</g>
<g >
<title>do_fault (399,735 samples, 0.03%)</title><rect x="78.1" y="149" width="0.3" height="15.0" fill="rgb(248,200,47)" rx="2" ry="2" />
<text  x="81.12" y="159.5" ></text>
</g>
<g >
<title>sysvec_apic_timer_interrupt (924,245 samples, 0.06%)</title><rect x="556.3" y="245" width="0.8" height="15.0" fill="rgb(220,69,16)" rx="2" ry="2" />
<text  x="559.32" y="255.5" ></text>
</g>
<g >
<title>w2c_decode__webp__wasmsimd_VE4_C (923,285 samples, 0.06%)</title><rect x="1186.2" y="277" width="0.8" height="15.0" fill="rgb(221,76,18)" rx="2" ry="2" />
<text  x="1189.22" y="287.5" ></text>
</g>
<g >
<title>w2c_decode__webp__wasmsimd_TransformWHT_C (924,317 samples, 0.06%)</title><rect x="857.1" y="277" width="0.8" height="15.0" fill="rgb(213,38,9)" rx="2" ry="2" />
<text  x="860.13" y="287.5" ></text>
</g>
<g >
<title>__handle_mm_fault (399,735 samples, 0.03%)</title><rect x="78.1" y="165" width="0.3" height="15.0" fill="rgb(207,9,2)" rx="2" ry="2" />
<text  x="81.12" y="175.5" ></text>
</g>
<g >
<title>run_timer_softirq (924,245 samples, 0.06%)</title><rect x="556.3" y="197" width="0.8" height="15.0" fill="rgb(249,206,49)" rx="2" ry="2" />
<text  x="559.32" y="207.5" ></text>
</g>
<g >
<title>__do_fault (399,735 samples, 0.03%)</title><rect x="78.1" y="133" width="0.3" height="15.0" fill="rgb(221,74,17)" rx="2" ry="2" />
<text  x="81.12" y="143.5" ></text>
</g>
<g >
<title>[unknown] (101,382,842 samples, 6.98%)</title><rect x="10.0" y="277" width="82.3" height="15.0" fill="rgb(210,24,5)" rx="2" ry="2" />
<text  x="13.00" y="287.5" >[unknown]</text>
</g>
<g >
<title>load_elf_binary (480,600 samples, 0.03%)</title><rect x="80.7" y="181" width="0.4" height="15.0" fill="rgb(223,83,20)" rx="2" ry="2" />
<text  x="83.70" y="191.5" ></text>
</g>
<g >
<title>w2c_decode__webp__wasmsimd_SimpleHFilter16i_C (10,160,787 samples, 0.70%)</title><rect x="746.9" y="277" width="8.3" height="15.0" fill="rgb(241,167,40)" rx="2" ry="2" />
<text  x="749.94" y="287.5" ></text>
</g>
<g >
<title>balance_dirty_pages (923,529 samples, 0.06%)</title><rect x="78.4" y="133" width="0.8" height="15.0" fill="rgb(247,193,46)" rx="2" ry="2" />
<text  x="81.45" y="143.5" ></text>
</g>
<g >
<title>balance_dirty_pages_ratelimited_flags (923,529 samples, 0.06%)</title><rect x="78.4" y="149" width="0.8" height="15.0" fill="rgb(207,10,2)" rx="2" ry="2" />
<text  x="81.45" y="159.5" ></text>
</g>
<g >
<title>w2c_decode__webp__wasmsimd_ReconstructRow (16,627,284 samples, 1.14%)</title><rect x="730.4" y="277" width="13.5" height="15.0" fill="rgb(217,55,13)" rx="2" ry="2" />
<text  x="733.44" y="287.5" ></text>
</g>
<g >
<title>[unknown] (83,875,895 samples, 5.77%)</title><rect x="10.0" y="261" width="68.1" height="15.0" fill="rgb(210,24,5)" rx="2" ry="2" />
<text  x="13.00" y="271.5" >[unknown]</text>
</g>
<g >
<title>ext4_buffered_write_iter (1,847,109 samples, 0.13%)</title><rect x="78.4" y="181" width="1.5" height="15.0" fill="rgb(213,40,9)" rx="2" ry="2" />
<text  x="81.45" y="191.5" ></text>
</g>
<g >
<title>__gettimeofday (399,735 samples, 0.03%)</title><rect x="78.1" y="261" width="0.3" height="15.0" fill="rgb(254,228,54)" rx="2" ry="2" />
<text  x="81.12" y="271.5" ></text>
</g>
<g >
<title>w2c_decode__webp__wasmsimd_UpsampleRgbLinePair_C (404,278,428 samples, 27.83%)</title><rect x="857.9" y="277" width="328.3" height="15.0" fill="rgb(220,71,16)" rx="2" ry="2" />
<text  x="860.88" y="287.5" >w2c_decode__webp__wasmsimd_UpsampleRgbLinePa..</text>
</g>
<g >
<title>all (1,452,904,851 samples, 100%)</title><rect x="10.0" y="309" width="1180.0" height="15.0" fill="rgb(213,39,9)" rx="2" ry="2" />
<text  x="13.00" y="319.5" ></text>
</g>
<g >
<title>folio_batch_move_lru (923,492 samples, 0.06%)</title><rect x="79.9" y="149" width="0.8" height="15.0" fill="rgb(207,10,2)" rx="2" ry="2" />
<text  x="82.95" y="159.5" ></text>
</g>
<g >
<title>check_preemption_disabled (923,492 samples, 0.06%)</title><rect x="79.9" y="85" width="0.8" height="15.0" fill="rgb(220,73,17)" rx="2" ry="2" />
<text  x="82.95" y="95.5" ></text>
</g>
<g >
<title>__list_del_entry_valid (669,718 samples, 0.05%)</title><rect x="1185.7" y="117" width="0.5" height="15.0" fill="rgb(239,158,37)" rx="2" ry="2" />
<text  x="1188.68" y="127.5" ></text>
</g>
<g >
<title>asm_exc_page_fault (923,492 samples, 0.06%)</title><rect x="79.9" y="245" width="0.8" height="15.0" fill="rgb(225,93,22)" rx="2" ry="2" />
<text  x="82.95" y="255.5" ></text>
</g>
<g >
<title>walk_system_ram_range (399,735 samples, 0.03%)</title><rect x="78.1" y="53" width="0.3" height="15.0" fill="rgb(206,6,1)" rx="2" ry="2" />
<text  x="81.12" y="63.5" ></text>
</g>
<g >
<title>__softirqentry_text_start (924,245 samples, 0.06%)</title><rect x="556.3" y="213" width="0.8" height="15.0" fill="rgb(234,135,32)" rx="2" ry="2" />
<text  x="559.32" y="223.5" ></text>
</g>
<g >
<title>w2c_decode__webp__wasmsimd_VE4_C (923,908 samples, 0.06%)</title><rect x="74.0" y="181" width="0.8" height="15.0" fill="rgb(221,76,18)" rx="2" ry="2" />
<text  x="77.04" y="191.5" ></text>
</g>
<g >
<title>exc_page_fault (669,718 samples, 0.05%)</title><rect x="1185.7" y="245" width="0.5" height="15.0" fill="rgb(212,35,8)" rx="2" ry="2" />
<text  x="1188.68" y="255.5" ></text>
</g>
<g >
<title>w2c_decode__webp__wasmsimd_ReconstructRow (4,619,443 samples, 0.32%)</title><rect x="87.1" y="261" width="3.7" height="15.0" fill="rgb(217,55,13)" rx="2" ry="2" />
<text  x="90.09" y="271.5" ></text>
</g>
<g >
<title>__irq_exit_rcu (924,245 samples, 0.06%)</title><rect x="556.3" y="229" width="0.8" height="15.0" fill="rgb(227,101,24)" rx="2" ry="2" />
<text  x="559.32" y="239.5" ></text>
</g>
<g >
<title>__mem_cgroup_flush_stats (923,529 samples, 0.06%)</title><rect x="78.4" y="101" width="0.8" height="15.0" fill="rgb(208,16,3)" rx="2" ry="2" />
<text  x="81.45" y="111.5" ></text>
</g>
<g >
<title>[unknown] (83,474,674 samples, 5.75%)</title><rect x="10.0" y="229" width="67.8" height="15.0" fill="rgb(210,24,5)" rx="2" ry="2" />
<text  x="13.00" y="239.5" >[unknown]</text>
</g>
<g >
<title>w2c_decode__webp__wasmsimd_TM16_C (2,771,213 samples, 0.19%)</title><rect x="767.9" y="277" width="2.3" height="15.0" fill="rgb(253,222,53)" rx="2" ry="2" />
<text  x="770.95" y="287.5" ></text>
</g>
<g >
<title>[unknown] (83,474,674 samples, 5.75%)</title><rect x="10.0" y="213" width="67.8" height="15.0" fill="rgb(210,24,5)" rx="2" ry="2" />
<text  x="13.00" y="223.5" >[unknown]</text>
</g>
<g >
<title>w2c_decode__webp__wasmsimd_GetCoeffsFast (5,542,225 samples, 0.38%)</title><rect x="22.7" y="181" width="4.5" height="15.0" fill="rgb(210,26,6)" rx="2" ry="2" />
<text  x="25.75" y="191.5" ></text>
</g>
<g >
<title>do_syscall_64 (1,847,109 samples, 0.13%)</title><rect x="78.4" y="229" width="1.5" height="15.0" fill="rgb(209,20,4)" rx="2" ry="2" />
<text  x="81.45" y="239.5" ></text>
</g>
<g >
<title>exc_page_fault (923,492 samples, 0.06%)</title><rect x="79.9" y="229" width="0.8" height="15.0" fill="rgb(212,35,8)" rx="2" ry="2" />
<text  x="82.95" y="239.5" ></text>
</g>
<g >
<title>w2c_decode__webp__wasmsimd_SimpleVFilter16_C (6,466,032 samples, 0.45%)</title><rect x="755.2" y="277" width="5.2" height="15.0" fill="rgb(229,111,26)" rx="2" ry="2" />
<text  x="758.19" y="287.5" ></text>
</g>
<g >
<title>w2c_decode__webp__wasmsimd_IDecode (6,465,508 samples, 0.45%)</title><rect x="81.8" y="261" width="5.3" height="15.0" fill="rgb(237,147,35)" rx="2" ry="2" />
<text  x="84.84" y="271.5" ></text>
</g>
<g >
<title>__memset_avx2_unaligned_erms (4,619,622 samples, 0.32%)</title><rect x="92.3" y="277" width="3.8" height="15.0" fill="rgb(223,84,20)" rx="2" ry="2" />
<text  x="95.34" y="287.5" ></text>
</g>
<g >
<title>w2c_decode__webp__wasmsimd_DC8uvNoLeft_C (923,914 samples, 0.06%)</title><rect x="96.1" y="277" width="0.7" height="15.0" fill="rgb(234,134,32)" rx="2" ry="2" />
<text  x="99.09" y="287.5" ></text>
</g>
<g >
<title>track_pfn_insert (399,735 samples, 0.03%)</title><rect x="78.1" y="101" width="0.3" height="15.0" fill="rgb(230,115,27)" rx="2" ry="2" />
<text  x="81.12" y="111.5" ></text>
</g>
<g >
<title>do_user_addr_fault (669,718 samples, 0.05%)</title><rect x="1185.7" y="229" width="0.5" height="15.0" fill="rgb(228,108,25)" rx="2" ry="2" />
<text  x="1188.68" y="239.5" ></text>
</g>
<g >
<title>generic_perform_write (1,847,109 samples, 0.13%)</title><rect x="78.4" y="165" width="1.5" height="15.0" fill="rgb(236,146,35)" rx="2" ry="2" />
<text  x="81.45" y="175.5" ></text>
</g>
<g >
<title>pat_pagerange_is_ram (399,735 samples, 0.03%)</title><rect x="78.1" y="69" width="0.3" height="15.0" fill="rgb(225,93,22)" rx="2" ry="2" />
<text  x="81.12" y="79.5" ></text>
</g>
<g >
<title>w2c_decode__webp__wasmsimd_HE8uv_C (923,600 samples, 0.06%)</title><rect x="31.7" y="181" width="0.8" height="15.0" fill="rgb(218,60,14)" rx="2" ry="2" />
<text  x="34.71" y="191.5" ></text>
</g>
<g >
<title>asm_sysvec_apic_timer_interrupt (924,245 samples, 0.06%)</title><rect x="556.3" y="261" width="0.8" height="15.0" fill="rgb(232,127,30)" rx="2" ry="2" />
<text  x="559.32" y="271.5" ></text>
</g>
<g >
<title>w2c_decode__webp__wasmsimd_TransformTwo_C (1,816,048 samples, 0.12%)</title><rect x="855.7" y="277" width="1.4" height="15.0" fill="rgb(254,228,54)" rx="2" ry="2" />
<text  x="858.66" y="287.5" ></text>
</g>
<g >
<title>w2c_decode__webp__wasmsimd_TransformDC_C (7,388,404 samples, 0.51%)</title><rect x="68.0" y="181" width="6.0" height="15.0" fill="rgb(211,27,6)" rx="2" ry="2" />
<text  x="71.04" y="191.5" ></text>
</g>
<g >
<title>w2c_decode__webp__wasmsimd_SimpleHFilter16_C (3,694,754 samples, 0.25%)</title><rect x="743.9" y="277" width="3.0" height="15.0" fill="rgb(219,67,16)" rx="2" ry="2" />
<text  x="746.94" y="287.5" ></text>
</g>
<g >
<title>decode_webp_was (1,452,874,344 samples, 100.00%)</title><rect x="10.0" y="293" width="1180.0" height="15.0" fill="rgb(216,54,12)" rx="2" ry="2" />
<text  x="13.00" y="303.5" >decode_webp_was</text>
</g>
<g >
<title>[unknown] (83,474,674 samples, 5.75%)</title><rect x="10.0" y="245" width="67.8" height="15.0" fill="rgb(210,24,5)" rx="2" ry="2" />
<text  x="13.00" y="255.5" >[unknown]</text>
</g>
<g >
<title>mem_cgroup_wb_stats (923,529 samples, 0.06%)</title><rect x="78.4" y="117" width="0.8" height="15.0" fill="rgb(211,28,6)" rx="2" ry="2" />
<text  x="81.45" y="127.5" ></text>
</g>
<g >
<title>w2c_decode__webp__wasmsimd_TM8uv_C (1,847,472 samples, 0.13%)</title><rect x="770.2" y="277" width="1.5" height="15.0" fill="rgb(238,156,37)" rx="2" ry="2" />
<text  x="773.20" y="287.5" ></text>
</g>
<g >
<title>vmf_insert_pfn_prot (399,735 samples, 0.03%)</title><rect x="78.1" y="117" width="0.3" height="15.0" fill="rgb(207,13,3)" rx="2" ry="2" />
<text  x="81.12" y="127.5" ></text>
</g>
<g >
<title>w2c_decode__webp__wasmsimd_HU4_C (1,848,261 samples, 0.13%)</title><rect x="32.5" y="181" width="1.5" height="15.0" fill="rgb(208,17,4)" rx="2" ry="2" />
<text  x="35.46" y="191.5" ></text>
</g>
<g >
<title>__x64_sys_execve (480,600 samples, 0.03%)</title><rect x="80.7" y="229" width="0.4" height="15.0" fill="rgb(247,193,46)" rx="2" ry="2" />
<text  x="83.70" y="239.5" ></text>
</g>
<g >
<title>lookup_memtype (399,735 samples, 0.03%)</title><rect x="78.1" y="85" width="0.3" height="15.0" fill="rgb(229,114,27)" rx="2" ry="2" />
<text  x="81.12" y="95.5" ></text>
</g>
<g >
<title>w2c_decode__webp__wasmsimd_VP8ParseProba (1,848,302 samples, 0.13%)</title><rect x="1188.5" y="277" width="1.5" height="15.0" fill="rgb(216,51,12)" rx="2" ry="2" />
<text  x="1191.47" y="287.5" ></text>
</g>
<g >
<title>cgroup_rstat_flush_locked (923,529 samples, 0.06%)</title><rect x="78.4" y="69" width="0.8" height="15.0" fill="rgb(209,19,4)" rx="2" ry="2" />
<text  x="81.45" y="79.5" ></text>
</g>
<g >
<title>vma_alloc_folio (669,718 samples, 0.05%)</title><rect x="1185.7" y="181" width="0.5" height="15.0" fill="rgb(245,187,44)" rx="2" ry="2" />
<text  x="1188.68" y="191.5" ></text>
</g>
<g >
<title>w2c_decode__webp__wasmsimd_IDecode (161,512,201 samples, 11.12%)</title><rect x="599.3" y="277" width="131.1" height="15.0" fill="rgb(237,147,35)" rx="2" ry="2" />
<text  x="602.26" y="287.5" >w2c_decode__webp..</text>
</g>
<g >
<title>asm_exc_page_fault (399,735 samples, 0.03%)</title><rect x="78.1" y="229" width="0.3" height="15.0" fill="rgb(225,93,22)" rx="2" ry="2" />
<text  x="81.12" y="239.5" ></text>
</g>
<g >
<title>w2c_decode__webp__wasmsimd_TM4_C (6,466,442 samples, 0.45%)</title><rect x="60.9" y="181" width="5.3" height="15.0" fill="rgb(232,128,30)" rx="2" ry="2" />
<text  x="63.94" y="191.5" ></text>
</g>
<g >
<title>w2c_decode__webp__wasmsimd_DC4_C (15,692,625 samples, 1.08%)</title><rect x="10.0" y="181" width="12.7" height="15.0" fill="rgb(250,210,50)" rx="2" ry="2" />
<text  x="13.00" y="191.5" ></text>
</g>
<g >
<title>w2c_decode__webp__wasmsimd_SimpleVFilter16i_C (9,236,015 samples, 0.64%)</title><rect x="760.4" y="277" width="7.5" height="15.0" fill="rgb(251,211,50)" rx="2" ry="2" />
<text  x="763.44" y="287.5" ></text>
</g>
<g >
<title>w2c_decode__webp__wasmsimd_IDecode (2,770,807 samples, 0.19%)</title><rect x="34.0" y="181" width="2.2" height="15.0" fill="rgb(237,147,35)" rx="2" ry="2" />
<text  x="36.96" y="191.5" ></text>
</g>
<g >
<title>find_next_iomem_res (399,735 samples, 0.03%)</title><rect x="78.1" y="37" width="0.3" height="15.0" fill="rgb(253,222,53)" rx="2" ry="2" />
<text  x="81.12" y="47.5" ></text>
</g>
<g >
<title>ext4_da_write_begin (923,580 samples, 0.06%)</title><rect x="79.2" y="149" width="0.7" height="15.0" fill="rgb(211,32,7)" rx="2" ry="2" />
<text  x="82.20" y="159.5" ></text>
</g>
<g >
<title>bprm_execve (480,600 samples, 0.03%)</title><rect x="80.7" y="197" width="0.4" height="15.0" fill="rgb(218,61,14)" rx="2" ry="2" />
<text  x="83.70" y="207.5" ></text>
</g>
<g >
<title>folio_batch_move_lru (923,580 samples, 0.06%)</title><rect x="79.2" y="69" width="0.7" height="15.0" fill="rgb(207,10,2)" rx="2" ry="2" />
<text  x="82.20" y="79.5" ></text>
</g>
<g >
<title>w2c_decode__webp__wasmsimd_GetCoeffsFast (923,456 samples, 0.06%)</title><rect x="81.1" y="261" width="0.7" height="15.0" fill="rgb(210,26,6)" rx="2" ry="2" />
<text  x="84.09" y="271.5" ></text>
</g>
<g >
<title>vm_area_alloc (361,174 samples, 0.02%)</title><rect x="80.8" y="133" width="0.3" height="15.0" fill="rgb(249,203,48)" rx="2" ry="2" />
<text  x="83.79" y="143.5" ></text>
</g>
<g >
<title>filemap_add_folio (923,580 samples, 0.06%)</title><rect x="79.2" y="101" width="0.7" height="15.0" fill="rgb(207,9,2)" rx="2" ry="2" />
<text  x="82.20" y="111.5" ></text>
</g>
<g >
<title>w2c_decode__webp__wasmsimd_TransformAC3_C (6,468,041 samples, 0.45%)</title><rect x="771.7" y="277" width="5.3" height="15.0" fill="rgb(251,211,50)" rx="2" ry="2" />
<text  x="774.70" y="287.5" ></text>
</g>
<g >
<title>w2c_decode__webp__wasmsimd_VL4_C (3,694,366 samples, 0.25%)</title><rect x="74.8" y="181" width="3.0" height="15.0" fill="rgb(226,98,23)" rx="2" ry="2" />
<text  x="77.79" y="191.5" ></text>
</g>
<g >
<title>_dl_init_paths (401,221 samples, 0.03%)</title><rect x="77.8" y="245" width="0.3" height="15.0" fill="rgb(248,198,47)" rx="2" ry="2" />
<text  x="80.80" y="255.5" ></text>
</g>
<g >
<title>w2c_decode__webp__wasmsimd_VP8GetValue (1,847,052 samples, 0.13%)</title><rect x="1187.0" y="277" width="1.5" height="15.0" fill="rgb(222,81,19)" rx="2" ry="2" />
<text  x="1189.97" y="287.5" ></text>
</g>
<g >
<title>w2c_decode__webp__wasmsimd_TransformOne_C (96,910,077 samples, 6.67%)</title><rect x="777.0" y="277" width="78.7" height="15.0" fill="rgb(209,22,5)" rx="2" ry="2" />
<text  x="779.95" y="287.5" >w2c_decod..</text>
</g>
<g >
<title>__folio_alloc (669,718 samples, 0.05%)</title><rect x="1185.7" y="165" width="0.5" height="15.0" fill="rgb(224,91,21)" rx="2" ry="2" />
<text  x="1188.68" y="175.5" ></text>
</g>
<g >
<title>w2c_decode__webp__wasmsimd_GetCoeffsFast (560,252,541 samples, 38.56%)</title><rect x="102.1" y="277" width="455.0" height="15.0" fill="rgb(210,26,6)" rx="2" ry="2" />
<text  x="105.05" y="287.5" >w2c_decode__webp__wasmsimd_GetCoeffsFast</text>
</g>
<g >
<title>__alloc_pages (669,718 samples, 0.05%)</title><rect x="1185.7" y="149" width="0.5" height="15.0" fill="rgb(233,129,30)" rx="2" ry="2" />
<text  x="1188.68" y="159.5" ></text>
</g>
<g >
<title>w2c_decode__webp__wasmsimd_FinishRow (3,695,450 samples, 0.25%)</title><rect x="99.0" y="277" width="3.1" height="15.0" fill="rgb(205,3,0)" rx="2" ry="2" />
<text  x="102.05" y="287.5" ></text>
</g>
<g >
<title>lru_add_fn (923,492 samples, 0.06%)</title><rect x="79.9" y="133" width="0.8" height="15.0" fill="rgb(208,14,3)" rx="2" ry="2" />
<text  x="82.95" y="143.5" ></text>
</g>
<g >
<title>__install_special_mapping (361,174 samples, 0.02%)</title><rect x="80.8" y="149" width="0.3" height="15.0" fill="rgb(212,35,8)" rx="2" ry="2" />
<text  x="83.79" y="159.5" ></text>
</g>
<g >
<title>__handle_mm_fault (923,492 samples, 0.06%)</title><rect x="79.9" y="181" width="0.8" height="15.0" fill="rgb(207,9,2)" rx="2" ry="2" />
<text  x="82.95" y="191.5" ></text>
</g>
<g >
<title>__vdso_gettimeofday (399,735 samples, 0.03%)</title><rect x="78.1" y="245" width="0.3" height="15.0" fill="rgb(222,81,19)" rx="2" ry="2" />
<text  x="81.12" y="255.5" ></text>
</g>
<g >
<title>ksys_write (1,847,109 samples, 0.13%)</title><rect x="78.4" y="213" width="1.5" height="15.0" fill="rgb(205,4,1)" rx="2" ry="2" />
<text  x="81.45" y="223.5" ></text>
</g>
<g >
<title>w2c_decode__webp__wasmsimd_HE4_C (923,301 samples, 0.06%)</title><rect x="31.0" y="181" width="0.7" height="15.0" fill="rgb(212,32,7)" rx="2" ry="2" />
<text  x="33.96" y="191.5" ></text>
</g>
<g >
<title>__libc_write (1,847,109 samples, 0.13%)</title><rect x="78.4" y="261" width="1.5" height="15.0" fill="rgb(238,154,37)" rx="2" ry="2" />
<text  x="81.45" y="271.5" ></text>
</g>
<g >
<title>folio_add_lru (923,580 samples, 0.06%)</title><rect x="79.2" y="85" width="0.7" height="15.0" fill="rgb(208,17,4)" rx="2" ry="2" />
<text  x="82.20" y="95.5" ></text>
</g>
<g >
<title>entry_SYSCALL_64_after_hwframe (480,600 samples, 0.03%)</title><rect x="80.7" y="261" width="0.4" height="15.0" fill="rgb(218,63,15)" rx="2" ry="2" />
<text  x="83.70" y="271.5" ></text>
</g>
<g >
<title>do_user_addr_fault (923,492 samples, 0.06%)</title><rect x="79.9" y="213" width="0.8" height="15.0" fill="rgb(228,108,25)" rx="2" ry="2" />
<text  x="82.95" y="223.5" ></text>
</g>
<g >
<title>__filemap_get_folio (923,580 samples, 0.06%)</title><rect x="79.2" y="117" width="0.7" height="15.0" fill="rgb(231,120,28)" rx="2" ry="2" />
<text  x="82.20" y="127.5" ></text>
</g>
<g >
<title>handle_mm_fault (669,718 samples, 0.05%)</title><rect x="1185.7" y="213" width="0.5" height="15.0" fill="rgb(234,135,32)" rx="2" ry="2" />
<text  x="1188.68" y="223.5" ></text>
</g>
<g >
<title>w2c_decode__webp__wasmsimd_ReconstructRow (30,456,517 samples, 2.10%)</title><rect x="36.2" y="181" width="24.7" height="15.0" fill="rgb(217,55,13)" rx="2" ry="2" />
<text  x="39.21" y="191.5" >w..</text>
</g>
<g >
<title>handle_mm_fault (399,735 samples, 0.03%)</title><rect x="78.1" y="181" width="0.3" height="15.0" fill="rgb(234,135,32)" rx="2" ry="2" />
<text  x="81.12" y="191.5" ></text>
</g>
<g >
<title>cgroup_rstat_flush_irqsafe (923,529 samples, 0.06%)</title><rect x="78.4" y="85" width="0.8" height="15.0" fill="rgb(227,103,24)" rx="2" ry="2" />
<text  x="81.45" y="95.5" ></text>
</g>
<g >
<title>do_syscall_64 (480,600 samples, 0.03%)</title><rect x="80.7" y="245" width="0.4" height="15.0" fill="rgb(209,20,4)" rx="2" ry="2" />
<text  x="83.70" y="255.5" ></text>
</g>
<g >
<title>[unknown] (83,474,674 samples, 5.75%)</title><rect x="10.0" y="197" width="67.8" height="15.0" fill="rgb(210,24,5)" rx="2" ry="2" />
<text  x="13.00" y="207.5" >[unknown]</text>
</g>
<g >
<title>vfs_write (1,847,109 samples, 0.13%)</title><rect x="78.4" y="197" width="1.5" height="15.0" fill="rgb(250,209,50)" rx="2" ry="2" />
<text  x="81.45" y="207.5" ></text>
</g>
<g >
<title>fq_flush_timeout (924,245 samples, 0.06%)</title><rect x="556.3" y="149" width="0.8" height="15.0" fill="rgb(213,40,9)" rx="2" ry="2" />
<text  x="559.32" y="159.5" ></text>
</g>
<g >
<title>__mod_lruvec_state (923,492 samples, 0.06%)</title><rect x="79.9" y="117" width="0.8" height="15.0" fill="rgb(226,100,24)" rx="2" ry="2" />
<text  x="82.95" y="127.5" ></text>
</g>
<g >
<title>get_page_from_freelist (669,718 samples, 0.05%)</title><rect x="1185.7" y="133" width="0.5" height="15.0" fill="rgb(252,218,52)" rx="2" ry="2" />
<text  x="1188.68" y="143.5" ></text>
</g>
<g >
<title>__run_timers (924,245 samples, 0.06%)</title><rect x="556.3" y="181" width="0.8" height="15.0" fill="rgb(206,5,1)" rx="2" ry="2" />
<text  x="559.32" y="191.5" ></text>
</g>
<g >
<title>__memmove_avx_unaligned_erms (923,492 samples, 0.06%)</title><rect x="79.9" y="261" width="0.8" height="15.0" fill="rgb(205,0,0)" rx="2" ry="2" />
<text  x="82.95" y="271.5" ></text>
</g>
<g >
<title>do_user_addr_fault (399,735 samples, 0.03%)</title><rect x="78.1" y="197" width="0.3" height="15.0" fill="rgb(228,108,25)" rx="2" ry="2" />
<text  x="81.12" y="207.5" ></text>
</g>
<g >
<title>map_vdso (361,174 samples, 0.02%)</title><rect x="80.8" y="165" width="0.3" height="15.0" fill="rgb(227,103,24)" rx="2" ry="2" />
<text  x="83.79" y="175.5" ></text>
</g>
<g >
<title>entry_SYSCALL_64_after_hwframe (1,847,109 samples, 0.13%)</title><rect x="78.4" y="245" width="1.5" height="15.0" fill="rgb(218,63,15)" rx="2" ry="2" />
<text  x="81.45" y="255.5" ></text>
</g>
<g >
<title>handle_mm_fault (923,492 samples, 0.06%)</title><rect x="79.9" y="197" width="0.8" height="15.0" fill="rgb(234,135,32)" rx="2" ry="2" />
<text  x="82.95" y="207.5" ></text>
</g>
<g >
<title>pagecache_get_page (923,580 samples, 0.06%)</title><rect x="79.2" y="133" width="0.7" height="15.0" fill="rgb(253,221,53)" rx="2" ry="2" />
<text  x="82.20" y="143.5" ></text>
</g>
<g >
<title>lru_add_fn (923,580 samples, 0.06%)</title><rect x="79.2" y="53" width="0.7" height="15.0" fill="rgb(208,14,3)" rx="2" ry="2" />
<text  x="82.20" y="63.5" ></text>
</g>
<g >
<title>__mod_node_page_state (923,492 samples, 0.06%)</title><rect x="79.9" y="101" width="0.8" height="15.0" fill="rgb(213,38,9)" rx="2" ry="2" />
<text  x="82.95" y="111.5" ></text>
</g>
<g >
<title>w2c_decode__webp__wasmsimd_TransformDCUV_C (2,275,503 samples, 0.16%)</title><rect x="66.2" y="181" width="1.8" height="15.0" fill="rgb(206,6,1)" rx="2" ry="2" />
<text  x="69.20" y="191.5" ></text>
</g>
<g >
<title>do_execveat_common.isra.0 (480,600 samples, 0.03%)</title><rect x="80.7" y="213" width="0.4" height="15.0" fill="rgb(231,123,29)" rx="2" ry="2" />
<text  x="83.70" y="223.5" ></text>
</g>
<g >
<title>w2c_decode__webp__wasmsimd_HD4_C (4,568,715 samples, 0.31%)</title><rect x="27.2" y="181" width="3.8" height="15.0" fill="rgb(218,62,14)" rx="2" ry="2" />
<text  x="30.25" y="191.5" ></text>
</g>
<g >
<title>folio_add_lru (923,492 samples, 0.06%)</title><rect x="79.9" y="165" width="0.8" height="15.0" fill="rgb(208,17,4)" rx="2" ry="2" />
<text  x="82.95" y="175.5" ></text>
</g>
</g>
</svg>
