<?xml version="1.0" standalone="no"?>
<!DOCTYPE svg PUBLIC "-//W3C//DTD SVG 1.1//EN" "http://www.w3.org/Graphics/SVG/1.1/DTD/svg11.dtd">
<svg version="1.1" width="1200" height="502" onload="init(evt)" viewBox="0 0 1200 502" xmlns="http://www.w3.org/2000/svg" xmlns:xlink="http://www.w3.org/1999/xlink">
<!-- Flame graph stack visualization. See https://github.com/brendangregg/FlameGraph for latest version, and http://www.brendangregg.com/flamegraphs.html for examples. -->
<!-- NOTES:  -->
<defs>
	<linearGradient id="background" y1="0" y2="1" x1="0" x2="0" >
		<stop stop-color="#eeeeee" offset="5%" />
		<stop stop-color="#eeeeb0" offset="95%" />
	</linearGradient>
</defs>
<style type="text/css">
	text { font-family:Verdana; font-size:12px; fill:rgb(0,0,0); }
	#search, #ignorecase { opacity:0.1; cursor:pointer; }
	#search:hover, #search.show, #ignorecase:hover, #ignorecase.show { opacity:1; }
	#subtitle { text-anchor:middle; font-color:rgb(160,160,160); }
	#title { text-anchor:middle; font-size:17px}
	#unzoom { cursor:pointer; }
	#frames > *:hover { stroke:black; stroke-width:0.5; cursor:pointer; }
	.hide { display:none; }
	.parent { opacity:0.5; }
</style>
<script type="text/ecmascript">
<![CDATA[
	"use strict";
	var details, searchbtn, unzoombtn, matchedtxt, svg, searching, currentSearchTerm, ignorecase, ignorecaseBtn;
	function init(evt) {
		details = document.getElementById("details").firstChild;
		searchbtn = document.getElementById("search");
		ignorecaseBtn = document.getElementById("ignorecase");
		unzoombtn = document.getElementById("unzoom");
		matchedtxt = document.getElementById("matched");
		svg = document.getElementsByTagName("svg")[0];
		searching = 0;
		currentSearchTerm = null;

		// use GET parameters to restore a flamegraphs state.
		var params = get_params();
		if (params.x && params.y)
			zoom(find_group(document.querySelector('[x="' + params.x + '"][y="' + params.y + '"]')));
                if (params.s) search(params.s);
	}

	// event listeners
	window.addEventListener("click", function(e) {
		var target = find_group(e.target);
		if (target) {
			if (target.nodeName == "a") {
				if (e.ctrlKey === false) return;
				e.preventDefault();
			}
			if (target.classList.contains("parent")) unzoom(true);
			zoom(target);
			if (!document.querySelector('.parent')) {
				// we have basically done a clearzoom so clear the url
				var params = get_params();
				if (params.x) delete params.x;
				if (params.y) delete params.y;
				history.replaceState(null, null, parse_params(params));
				unzoombtn.classList.add("hide");
				return;
			}

			// set parameters for zoom state
			var el = target.querySelector("rect");
			if (el && el.attributes && el.attributes.y && el.attributes._orig_x) {
				var params = get_params()
				params.x = el.attributes._orig_x.value;
				params.y = el.attributes.y.value;
				history.replaceState(null, null, parse_params(params));
			}
		}
		else if (e.target.id == "unzoom") clearzoom();
		else if (e.target.id == "search") search_prompt();
		else if (e.target.id == "ignorecase") toggle_ignorecase();
	}, false)

	// mouse-over for info
	// show
	window.addEventListener("mouseover", function(e) {
		var target = find_group(e.target);
		if (target) details.nodeValue = "Function: " + g_to_text(target);
	}, false)

	// clear
	window.addEventListener("mouseout", function(e) {
		var target = find_group(e.target);
		if (target) details.nodeValue = ' ';
	}, false)

	// ctrl-F for search
	// ctrl-I to toggle case-sensitive search
	window.addEventListener("keydown",function (e) {
		if (e.keyCode === 114 || (e.ctrlKey && e.keyCode === 70)) {
			e.preventDefault();
			search_prompt();
		}
		else if (e.ctrlKey && e.keyCode === 73) {
			e.preventDefault();
			toggle_ignorecase();
		}
	}, false)

	// functions
	function get_params() {
		var params = {};
		var paramsarr = window.location.search.substr(1).split('&');
		for (var i = 0; i < paramsarr.length; ++i) {
			var tmp = paramsarr[i].split("=");
			if (!tmp[0] || !tmp[1]) continue;
			params[tmp[0]]  = decodeURIComponent(tmp[1]);
		}
		return params;
	}
	function parse_params(params) {
		var uri = "?";
		for (var key in params) {
			uri += key + '=' + encodeURIComponent(params[key]) + '&';
		}
		if (uri.slice(-1) == "&")
			uri = uri.substring(0, uri.length - 1);
		if (uri == '?')
			uri = window.location.href.split('?')[0];
		return uri;
	}
	function find_child(node, selector) {
		var children = node.querySelectorAll(selector);
		if (children.length) return children[0];
	}
	function find_group(node) {
		var parent = node.parentElement;
		if (!parent) return;
		if (parent.id == "frames") return node;
		return find_group(parent);
	}
	function orig_save(e, attr, val) {
		if (e.attributes["_orig_" + attr] != undefined) return;
		if (e.attributes[attr] == undefined) return;
		if (val == undefined) val = e.attributes[attr].value;
		e.setAttribute("_orig_" + attr, val);
	}
	function orig_load(e, attr) {
		if (e.attributes["_orig_"+attr] == undefined) return;
		e.attributes[attr].value = e.attributes["_orig_" + attr].value;
		e.removeAttribute("_orig_"+attr);
	}
	function g_to_text(e) {
		var text = find_child(e, "title").firstChild.nodeValue;
		return (text)
	}
	function g_to_func(e) {
		var func = g_to_text(e);
		// if there's any manipulation we want to do to the function
		// name before it's searched, do it here before returning.
		return (func);
	}
	function update_text(e) {
		var r = find_child(e, "rect");
		var t = find_child(e, "text");
		var w = parseFloat(r.attributes.width.value) -3;
		var txt = find_child(e, "title").textContent.replace(/\([^(]*\)$/,"");
		t.attributes.x.value = parseFloat(r.attributes.x.value) + 3;

		// Smaller than this size won't fit anything
		if (w < 2 * 12 * 0.59) {
			t.textContent = "";
			return;
		}

		t.textContent = txt;
		var sl = t.getSubStringLength(0, txt.length);
		// check if only whitespace or if we can fit the entire string into width w
		if (/^ *$/.test(txt) || sl < w)
			return;

		// this isn't perfect, but gives a good starting point
		// and avoids calling getSubStringLength too often
		var start = Math.floor((w/sl) * txt.length);
		for (var x = start; x > 0; x = x-2) {
			if (t.getSubStringLength(0, x + 2) <= w) {
				t.textContent = txt.substring(0, x) + "..";
				return;
			}
		}
		t.textContent = "";
	}

	// zoom
	function zoom_reset(e) {
		if (e.attributes != undefined) {
			orig_load(e, "x");
			orig_load(e, "width");
		}
		if (e.childNodes == undefined) return;
		for (var i = 0, c = e.childNodes; i < c.length; i++) {
			zoom_reset(c[i]);
		}
	}
	function zoom_child(e, x, ratio) {
		if (e.attributes != undefined) {
			if (e.attributes.x != undefined) {
				orig_save(e, "x");
				e.attributes.x.value = (parseFloat(e.attributes.x.value) - x - 10) * ratio + 10;
				if (e.tagName == "text")
					e.attributes.x.value = find_child(e.parentNode, "rect[x]").attributes.x.value + 3;
			}
			if (e.attributes.width != undefined) {
				orig_save(e, "width");
				e.attributes.width.value = parseFloat(e.attributes.width.value) * ratio;
			}
		}

		if (e.childNodes == undefined) return;
		for (var i = 0, c = e.childNodes; i < c.length; i++) {
			zoom_child(c[i], x - 10, ratio);
		}
	}
	function zoom_parent(e) {
		if (e.attributes) {
			if (e.attributes.x != undefined) {
				orig_save(e, "x");
				e.attributes.x.value = 10;
			}
			if (e.attributes.width != undefined) {
				orig_save(e, "width");
				e.attributes.width.value = parseInt(svg.width.baseVal.value) - (10 * 2);
			}
		}
		if (e.childNodes == undefined) return;
		for (var i = 0, c = e.childNodes; i < c.length; i++) {
			zoom_parent(c[i]);
		}
	}
	function zoom(node) {
		var attr = find_child(node, "rect").attributes;
		var width = parseFloat(attr.width.value);
		var xmin = parseFloat(attr.x.value);
		var xmax = parseFloat(xmin + width);
		var ymin = parseFloat(attr.y.value);
		var ratio = (svg.width.baseVal.value - 2 * 10) / width;

		// XXX: Workaround for JavaScript float issues (fix me)
		var fudge = 0.0001;

		unzoombtn.classList.remove("hide");

		var el = document.getElementById("frames").children;
		for (var i = 0; i < el.length; i++) {
			var e = el[i];
			var a = find_child(e, "rect").attributes;
			var ex = parseFloat(a.x.value);
			var ew = parseFloat(a.width.value);
			var upstack;
			// Is it an ancestor
			if (0 == 0) {
				upstack = parseFloat(a.y.value) > ymin;
			} else {
				upstack = parseFloat(a.y.value) < ymin;
			}
			if (upstack) {
				// Direct ancestor
				if (ex <= xmin && (ex+ew+fudge) >= xmax) {
					e.classList.add("parent");
					zoom_parent(e);
					update_text(e);
				}
				// not in current path
				else
					e.classList.add("hide");
			}
			// Children maybe
			else {
				// no common path
				if (ex < xmin || ex + fudge >= xmax) {
					e.classList.add("hide");
				}
				else {
					zoom_child(e, xmin, ratio);
					update_text(e);
				}
			}
		}
		search();
	}
	function unzoom(dont_update_text) {
		unzoombtn.classList.add("hide");
		var el = document.getElementById("frames").children;
		for(var i = 0; i < el.length; i++) {
			el[i].classList.remove("parent");
			el[i].classList.remove("hide");
			zoom_reset(el[i]);
			if(!dont_update_text) update_text(el[i]);
		}
		search();
	}
	function clearzoom() {
		unzoom();

		// remove zoom state
		var params = get_params();
		if (params.x) delete params.x;
		if (params.y) delete params.y;
		history.replaceState(null, null, parse_params(params));
	}

	// search
	function toggle_ignorecase() {
		ignorecase = !ignorecase;
		if (ignorecase) {
			ignorecaseBtn.classList.add("show");
		} else {
			ignorecaseBtn.classList.remove("show");
		}
		reset_search();
		search();
	}
	function reset_search() {
		var el = document.querySelectorAll("#frames rect");
		for (var i = 0; i < el.length; i++) {
			orig_load(el[i], "fill")
		}
		var params = get_params();
		delete params.s;
		history.replaceState(null, null, parse_params(params));
	}
	function search_prompt() {
		if (!searching) {
			var term = prompt("Enter a search term (regexp " +
			    "allowed, eg: ^ext4_)"
			    + (ignorecase ? ", ignoring case" : "")
			    + "\nPress Ctrl-i to toggle case sensitivity", "");
			if (term != null) search(term);
		} else {
			reset_search();
			searching = 0;
			currentSearchTerm = null;
			searchbtn.classList.remove("show");
			searchbtn.firstChild.nodeValue = "Search"
			matchedtxt.classList.add("hide");
			matchedtxt.firstChild.nodeValue = ""
		}
	}
	function search(term) {
		if (term) currentSearchTerm = term;

		var re = new RegExp(currentSearchTerm, ignorecase ? 'i' : '');
		var el = document.getElementById("frames").children;
		var matches = new Object();
		var maxwidth = 0;
		for (var i = 0; i < el.length; i++) {
			var e = el[i];
			var func = g_to_func(e);
			var rect = find_child(e, "rect");
			if (func == null || rect == null)
				continue;

			// Save max width. Only works as we have a root frame
			var w = parseFloat(rect.attributes.width.value);
			if (w > maxwidth)
				maxwidth = w;

			if (func.match(re)) {
				// highlight
				var x = parseFloat(rect.attributes.x.value);
				orig_save(rect, "fill");
				rect.attributes.fill.value = "rgb(230,0,230)";

				// remember matches
				if (matches[x] == undefined) {
					matches[x] = w;
				} else {
					if (w > matches[x]) {
						// overwrite with parent
						matches[x] = w;
					}
				}
				searching = 1;
			}
		}
		if (!searching)
			return;
		var params = get_params();
		params.s = currentSearchTerm;
		history.replaceState(null, null, parse_params(params));

		searchbtn.classList.add("show");
		searchbtn.firstChild.nodeValue = "Reset Search";

		// calculate percent matched, excluding vertical overlap
		var count = 0;
		var lastx = -1;
		var lastw = 0;
		var keys = Array();
		for (k in matches) {
			if (matches.hasOwnProperty(k))
				keys.push(k);
		}
		// sort the matched frames by their x location
		// ascending, then width descending
		keys.sort(function(a, b){
			return a - b;
		});
		// Step through frames saving only the biggest bottom-up frames
		// thanks to the sort order. This relies on the tree property
		// where children are always smaller than their parents.
		var fudge = 0.0001;	// JavaScript floating point
		for (var k in keys) {
			var x = parseFloat(keys[k]);
			var w = matches[keys[k]];
			if (x >= lastx + lastw - fudge) {
				count += w;
				lastx = x;
				lastw = w;
			}
		}
		// display matched percent
		matchedtxt.classList.remove("hide");
		var pct = 100 * count / maxwidth;
		if (pct != 100) pct = pct.toFixed(1)
		matchedtxt.firstChild.nodeValue = "Matched: " + pct + "%";
	}
]]>
</script>
<rect x="0.0" y="0" width="1200.0" height="502.0" fill="url(#background)"  />
<text id="title" x="600.00" y="24" >Flame Graph</text>
<text id="details" x="10.00" y="485" > </text>
<text id="unzoom" x="10.00" y="24" class="hide">Reset Zoom</text>
<text id="search" x="1090.00" y="24" >Search</text>
<text id="ignorecase" x="1174.00" y="24" >ic</text>
<text id="matched" x="1090.00" y="485" > </text>
<g id="frames">
<g >
<title>lru_add_drain_cpu (321,518 samples, 0.02%)</title><rect x="24.6" y="261" width="0.3" height="15.0" fill="rgb(247,194,46)" rx="2" ry="2" />
<text  x="27.65" y="271.5" ></text>
</g>
<g >
<title>load_elf_binary (321,518 samples, 0.02%)</title><rect x="24.6" y="325" width="0.3" height="15.0" fill="rgb(223,83,20)" rx="2" ry="2" />
<text  x="27.65" y="335.5" ></text>
</g>
<g >
<title>nvme_queue_rqs (923,876 samples, 0.06%)</title><rect x="22.4" y="165" width="0.8" height="15.0" fill="rgb(250,211,50)" rx="2" ry="2" />
<text  x="25.43" y="175.5" ></text>
</g>
<g >
<title>ext4_buffered_write_iter (923,862 samples, 0.06%)</title><rect x="23.9" y="325" width="0.7" height="15.0" fill="rgb(213,40,9)" rx="2" ry="2" />
<text  x="26.91" y="335.5" ></text>
</g>
<g >
<title>w2c_decode__webp__wasm_TransformUV_C (1,847,030 samples, 0.13%)</title><rect x="39.0" y="405" width="1.5" height="15.0" fill="rgb(249,206,49)" rx="2" ry="2" />
<text  x="41.99" y="415.5" ></text>
</g>
<g >
<title>do_truncate (923,797 samples, 0.06%)</title><rect x="23.2" y="293" width="0.7" height="15.0" fill="rgb(216,53,12)" rx="2" ry="2" />
<text  x="26.17" y="303.5" ></text>
</g>
<g >
<title>w2c_decode__webp__wasm_IDecode (1,847,330 samples, 0.13%)</title><rect x="13.7" y="325" width="1.5" height="15.0" fill="rgb(208,15,3)" rx="2" ry="2" />
<text  x="16.71" y="335.5" ></text>
</g>
<g >
<title>bprm_execve (321,518 samples, 0.02%)</title><rect x="24.6" y="341" width="0.3" height="15.0" fill="rgb(218,61,14)" rx="2" ry="2" />
<text  x="27.65" y="351.5" ></text>
</g>
<g >
<title>iommu_dma_map_sg (923,876 samples, 0.06%)</title><rect x="22.4" y="101" width="0.8" height="15.0" fill="rgb(223,86,20)" rx="2" ry="2" />
<text  x="25.43" y="111.5" ></text>
</g>
<g >
<title>dma_map_sgtable (923,876 samples, 0.06%)</title><rect x="22.4" y="133" width="0.8" height="15.0" fill="rgb(237,150,36)" rx="2" ry="2" />
<text  x="25.43" y="143.5" ></text>
</g>
<g >
<title>copy_page_from_iter_atomic (923,862 samples, 0.06%)</title><rect x="23.9" y="293" width="0.7" height="15.0" fill="rgb(231,120,28)" rx="2" ry="2" />
<text  x="26.91" y="303.5" ></text>
</g>
<g >
<title>asm_exc_page_fault (923,814 samples, 0.06%)</title><rect x="1189.2" y="405" width="0.7" height="15.0" fill="rgb(225,93,22)" rx="2" ry="2" />
<text  x="1192.20" y="415.5" ></text>
</g>
<g >
<title>vfs_write (923,862 samples, 0.06%)</title><rect x="23.9" y="341" width="0.7" height="15.0" fill="rgb(250,209,50)" rx="2" ry="2" />
<text  x="26.91" y="351.5" ></text>
</g>
<g >
<title>handle_mm_fault (923,814 samples, 0.06%)</title><rect x="1189.2" y="357" width="0.7" height="15.0" fill="rgb(234,135,32)" rx="2" ry="2" />
<text  x="1192.20" y="367.5" ></text>
</g>
<g >
<title>__alloc_pages (923,814 samples, 0.06%)</title><rect x="1189.2" y="293" width="0.7" height="15.0" fill="rgb(233,129,30)" rx="2" ry="2" />
<text  x="1192.20" y="303.5" ></text>
</g>
<g >
<title>w2c_decode__webp__wasm_SimpleHFilter16i_C (10,161,492 samples, 0.69%)</title><rect x="724.2" y="421" width="8.2" height="15.0" fill="rgb(212,35,8)" rx="2" ry="2" />
<text  x="727.24" y="431.5" ></text>
</g>
<g >
<title>w2c_decode__webp__wasm_SimpleVFilter16_C (2,772,351 samples, 0.19%)</title><rect x="732.4" y="421" width="2.2" height="15.0" fill="rgb(250,209,50)" rx="2" ry="2" />
<text  x="735.40" y="431.5" ></text>
</g>
<g >
<title>w2c_decode__webp__wasm_TransformDC_C (1,847,901 samples, 0.13%)</title><rect x="20.2" y="325" width="1.5" height="15.0" fill="rgb(232,125,30)" rx="2" ry="2" />
<text  x="23.20" y="335.5" ></text>
</g>
<g >
<title>w2c_decode__webp__wasm_VE4_C (1,847,152 samples, 0.13%)</title><rect x="1181.1" y="421" width="1.4" height="15.0" fill="rgb(242,174,41)" rx="2" ry="2" />
<text  x="1184.06" y="431.5" ></text>
</g>
<g >
<title>iommu_v1_map_pages (923,876 samples, 0.06%)</title><rect x="22.4" y="53" width="0.8" height="15.0" fill="rgb(219,65,15)" rx="2" ry="2" />
<text  x="25.43" y="63.5" ></text>
</g>
<g >
<title>w2c_decode__webp__wasm_TransformAC3_C (6,467,452 samples, 0.44%)</title><rect x="749.4" y="421" width="5.2" height="15.0" fill="rgb(222,79,19)" rx="2" ry="2" />
<text  x="752.44" y="431.5" ></text>
</g>
<g >
<title>filemap_fdatawrite_wbc (923,876 samples, 0.06%)</title><rect x="22.4" y="261" width="0.8" height="15.0" fill="rgb(210,25,6)" rx="2" ry="2" />
<text  x="25.43" y="271.5" ></text>
</g>
<g >
<title>syscall_exit_to_user_mode (923,876 samples, 0.06%)</title><rect x="22.4" y="357" width="0.8" height="15.0" fill="rgb(251,211,50)" rx="2" ry="2" />
<text  x="25.43" y="367.5" ></text>
</g>
<g >
<title>w2c_decode__webp__wasm_VL4_C (924,050 samples, 0.06%)</title><rect x="1182.5" y="421" width="0.8" height="15.0" fill="rgb(247,196,46)" rx="2" ry="2" />
<text  x="1185.55" y="431.5" ></text>
</g>
<g >
<title>exit_to_user_mode_prepare (923,876 samples, 0.06%)</title><rect x="22.4" y="341" width="0.8" height="15.0" fill="rgb(228,108,25)" rx="2" ry="2" />
<text  x="25.43" y="351.5" ></text>
</g>
<g >
<title>entry_SYSCALL_64_after_hwframe (923,876 samples, 0.06%)</title><rect x="22.4" y="389" width="0.8" height="15.0" fill="rgb(218,63,15)" rx="2" ry="2" />
<text  x="25.43" y="399.5" ></text>
</g>
<g >
<title>w2c_decode__webp__wasm_TM16_C (2,771,782 samples, 0.19%)</title><rect x="743.5" y="421" width="2.2" height="15.0" fill="rgb(224,90,21)" rx="2" ry="2" />
<text  x="746.51" y="431.5" ></text>
</g>
<g >
<title>truncate_cleanup_folio (923,797 samples, 0.06%)</title><rect x="23.2" y="213" width="0.7" height="15.0" fill="rgb(240,165,39)" rx="2" ry="2" />
<text  x="26.17" y="223.5" ></text>
</g>
<g >
<title>exc_page_fault (923,814 samples, 0.06%)</title><rect x="1189.2" y="389" width="0.7" height="15.0" fill="rgb(212,35,8)" rx="2" ry="2" />
<text  x="1192.20" y="399.5" ></text>
</g>
<g >
<title>__handle_mm_fault (923,814 samples, 0.06%)</title><rect x="1189.2" y="341" width="0.7" height="15.0" fill="rgb(207,9,2)" rx="2" ry="2" />
<text  x="1192.20" y="351.5" ></text>
</g>
<g >
<title>blk_mq_flush_plug_list (923,876 samples, 0.06%)</title><rect x="22.4" y="181" width="0.8" height="15.0" fill="rgb(215,46,11)" rx="2" ry="2" />
<text  x="25.43" y="191.5" ></text>
</g>
<g >
<title>entry_SYSCALL_64_after_hwframe (321,518 samples, 0.02%)</title><rect x="24.6" y="405" width="0.3" height="15.0" fill="rgb(218,63,15)" rx="2" ry="2" />
<text  x="27.65" y="415.5" ></text>
</g>
<g >
<title>w2c_decode__webp__wasm_IDecode (2,769,889 samples, 0.19%)</title><rect x="35.3" y="405" width="2.2" height="15.0" fill="rgb(208,15,3)" rx="2" ry="2" />
<text  x="38.28" y="415.5" ></text>
</g>
<g >
<title>free_buffer_head (923,797 samples, 0.06%)</title><rect x="23.2" y="181" width="0.7" height="15.0" fill="rgb(243,177,42)" rx="2" ry="2" />
<text  x="26.17" y="191.5" ></text>
</g>
<g >
<title>do_syscall_64 (923,797 samples, 0.06%)</title><rect x="23.2" y="373" width="0.7" height="15.0" fill="rgb(209,20,4)" rx="2" ry="2" />
<text  x="26.17" y="383.5" ></text>
</g>
<g >
<title>w2c_decode__webp__wasm_ReconstructRow (1,847,823 samples, 0.13%)</title><rect x="37.5" y="405" width="1.5" height="15.0" fill="rgb(238,153,36)" rx="2" ry="2" />
<text  x="40.51" y="415.5" ></text>
</g>
<g >
<title>w2c_decode__webp__wasm_IDecode (148,562,052 samples, 10.10%)</title><rect x="547.6" y="421" width="119.2" height="15.0" fill="rgb(208,15,3)" rx="2" ry="2" />
<text  x="550.59" y="431.5" >w2c_decode__we..</text>
</g>
<g >
<title>__dma_map_sg_attrs (923,876 samples, 0.06%)</title><rect x="22.4" y="117" width="0.8" height="15.0" fill="rgb(251,212,50)" rx="2" ry="2" />
<text  x="25.43" y="127.5" ></text>
</g>
<g >
<title>__alloc_pages (866,880 samples, 0.06%)</title><rect x="1179.6" y="293" width="0.7" height="15.0" fill="rgb(233,129,30)" rx="2" ry="2" />
<text  x="1182.63" y="303.5" ></text>
</g>
<g >
<title>do_user_addr_fault (650,313 samples, 0.04%)</title><rect x="40.5" y="373" width="0.5" height="15.0" fill="rgb(228,108,25)" rx="2" ry="2" />
<text  x="43.47" y="383.5" ></text>
</g>
<g >
<title>path_openat (923,797 samples, 0.06%)</title><rect x="23.2" y="309" width="0.7" height="15.0" fill="rgb(249,202,48)" rx="2" ry="2" />
<text  x="26.17" y="319.5" ></text>
</g>
<g >
<title>put_pages_list (923,876 samples, 0.06%)</title><rect x="22.4" y="37" width="0.8" height="15.0" fill="rgb(228,108,25)" rx="2" ry="2" />
<text  x="25.43" y="47.5" ></text>
</g>
<g >
<title>w2c_decode__webp__wasm_VP8ParseProba (924,203 samples, 0.06%)</title><rect x="1185.5" y="421" width="0.8" height="15.0" fill="rgb(237,149,35)" rx="2" ry="2" />
<text  x="1188.51" y="431.5" ></text>
</g>
<g >
<title>asm_exc_page_fault (650,313 samples, 0.04%)</title><rect x="40.5" y="405" width="0.5" height="15.0" fill="rgb(225,93,22)" rx="2" ry="2" />
<text  x="43.47" y="415.5" ></text>
</g>
<g >
<title>nvme_prep_rq.part.0 (923,876 samples, 0.06%)</title><rect x="22.4" y="149" width="0.8" height="15.0" fill="rgb(214,42,10)" rx="2" ry="2" />
<text  x="25.43" y="159.5" ></text>
</g>
<g >
<title>w2c_decode__webp__wasm_TransformUV_C (924,030 samples, 0.06%)</title><rect x="21.7" y="325" width="0.7" height="15.0" fill="rgb(249,206,49)" rx="2" ry="2" />
<text  x="24.68" y="335.5" ></text>
</g>
<g >
<title>__slab_free (923,797 samples, 0.06%)</title><rect x="23.2" y="165" width="0.7" height="15.0" fill="rgb(222,78,18)" rx="2" ry="2" />
<text  x="26.17" y="175.5" ></text>
</g>
<g >
<title>[unknown] (15,488,397 samples, 1.05%)</title><rect x="10.0" y="389" width="12.4" height="15.0" fill="rgb(210,24,5)" rx="2" ry="2" />
<text  x="13.00" y="399.5" ></text>
</g>
<g >
<title>w2c_decode__webp__wasm_HE8uv_C (924,144 samples, 0.06%)</title><rect x="13.0" y="325" width="0.7" height="15.0" fill="rgb(239,158,37)" rx="2" ry="2" />
<text  x="15.96" y="335.5" ></text>
</g>
<g >
<title>w2c_decode__webp__wasm_LD4_C (1,847,479 samples, 0.13%)</title><rect x="666.8" y="421" width="1.5" height="15.0" fill="rgb(213,41,9)" rx="2" ry="2" />
<text  x="669.77" y="431.5" ></text>
</g>
<g >
<title>__list_del_entry_valid (923,814 samples, 0.06%)</title><rect x="1189.2" y="261" width="0.7" height="15.0" fill="rgb(239,158,37)" rx="2" ry="2" />
<text  x="1192.20" y="271.5" ></text>
</g>
<g >
<title>w2c_decode__webp__wasm_TransformTwo_C (1,847,118 samples, 0.13%)</title><rect x="860.6" y="421" width="1.4" height="15.0" fill="rgb(226,96,23)" rx="2" ry="2" />
<text  x="863.57" y="431.5" ></text>
</g>
<g >
<title>w2c_decode__webp__wasm_TM8uv_C (2,771,937 samples, 0.19%)</title><rect x="747.2" y="421" width="2.2" height="15.0" fill="rgb(210,24,5)" rx="2" ry="2" />
<text  x="750.22" y="431.5" ></text>
</g>
<g >
<title>w2c_decode__webp__wasm_SimpleHFilter16_C (8,315,311 samples, 0.57%)</title><rect x="717.6" y="421" width="6.6" height="15.0" fill="rgb(241,165,39)" rx="2" ry="2" />
<text  x="720.57" y="431.5" ></text>
</g>
<g >
<title>do_user_addr_fault (866,880 samples, 0.06%)</title><rect x="1179.6" y="373" width="0.7" height="15.0" fill="rgb(228,108,25)" rx="2" ry="2" />
<text  x="1182.63" y="383.5" ></text>
</g>
<g >
<title>task_work_run (923,876 samples, 0.06%)</title><rect x="22.4" y="325" width="0.8" height="15.0" fill="rgb(209,22,5)" rx="2" ry="2" />
<text  x="25.43" y="335.5" ></text>
</g>
<g >
<title>vma_alloc_folio (866,880 samples, 0.06%)</title><rect x="1179.6" y="325" width="0.7" height="15.0" fill="rgb(245,187,44)" rx="2" ry="2" />
<text  x="1182.63" y="335.5" ></text>
</g>
<g >
<title>w2c_decode__webp__wasm_RD4_C (1,848,538 samples, 0.13%)</title><rect x="668.8" y="421" width="1.5" height="15.0" fill="rgb(225,92,22)" rx="2" ry="2" />
<text  x="671.80" y="431.5" ></text>
</g>
<g >
<title>w2c_decode__webp__wasm_FinishRow (923,904 samples, 0.06%)</title><rect x="50.6" y="421" width="0.8" height="15.0" fill="rgb(227,101,24)" rx="2" ry="2" />
<text  x="53.63" y="431.5" ></text>
</g>
<g >
<title>exc_page_fault (866,880 samples, 0.06%)</title><rect x="1179.6" y="389" width="0.7" height="15.0" fill="rgb(212,35,8)" rx="2" ry="2" />
<text  x="1182.63" y="399.5" ></text>
</g>
<g >
<title>__fput (923,876 samples, 0.06%)</title><rect x="22.4" y="309" width="0.8" height="15.0" fill="rgb(248,200,47)" rx="2" ry="2" />
<text  x="25.43" y="319.5" ></text>
</g>
<g >
<title>truncate_pagecache (923,797 samples, 0.06%)</title><rect x="23.2" y="245" width="0.7" height="15.0" fill="rgb(231,123,29)" rx="2" ry="2" />
<text  x="26.17" y="255.5" ></text>
</g>
<g >
<title>handle_mm_fault (650,313 samples, 0.04%)</title><rect x="40.5" y="357" width="0.5" height="15.0" fill="rgb(234,135,32)" rx="2" ry="2" />
<text  x="43.47" y="367.5" ></text>
</g>
<g >
<title>w2c_decode__webp__wasm_ReconstructRow (58,943,239 samples, 4.01%)</title><rect x="670.3" y="421" width="47.3" height="15.0" fill="rgb(238,153,36)" rx="2" ry="2" />
<text  x="673.29" y="431.5" >w2c_..</text>
</g>
<g >
<title>__handle_mm_fault (866,880 samples, 0.06%)</title><rect x="1179.6" y="341" width="0.7" height="15.0" fill="rgb(207,9,2)" rx="2" ry="2" />
<text  x="1182.63" y="351.5" ></text>
</g>
<g >
<title>w2c_decode__webp__wasm_HD4_C (2,770,679 samples, 0.19%)</title><rect x="541.7" y="421" width="2.2" height="15.0" fill="rgb(239,160,38)" rx="2" ry="2" />
<text  x="544.66" y="431.5" ></text>
</g>
<g >
<title>w2c_decode__webp__wasm_TransformDCUV_C (2,766,771 samples, 0.19%)</title><rect x="18.0" y="325" width="2.2" height="15.0" fill="rgb(227,104,25)" rx="2" ry="2" />
<text  x="20.98" y="335.5" ></text>
</g>
<g >
<title>truncate_inode_pages_range (923,797 samples, 0.06%)</title><rect x="23.2" y="229" width="0.7" height="15.0" fill="rgb(245,187,44)" rx="2" ry="2" />
<text  x="26.17" y="239.5" ></text>
</g>
<g >
<title>generic_perform_write (923,862 samples, 0.06%)</title><rect x="23.9" y="309" width="0.7" height="15.0" fill="rgb(236,146,35)" rx="2" ry="2" />
<text  x="26.91" y="319.5" ></text>
</g>
<g >
<title>[unknown] (37,980,703 samples, 2.58%)</title><rect x="10.0" y="421" width="30.5" height="15.0" fill="rgb(210,24,5)" rx="2" ry="2" />
<text  x="13.00" y="431.5" >[u..</text>
</g>
<g >
<title>w2c_decode__webp__wasm_TransformDC_C (16,619,150 samples, 1.13%)</title><rect x="754.6" y="421" width="13.4" height="15.0" fill="rgb(232,125,30)" rx="2" ry="2" />
<text  x="757.63" y="431.5" ></text>
</g>
<g >
<title>__memset_avx2_unaligned_erms (924,163 samples, 0.06%)</title><rect x="41.0" y="421" width="0.7" height="15.0" fill="rgb(223,84,20)" rx="2" ry="2" />
<text  x="43.99" y="431.5" ></text>
</g>
<g >
<title>do_user_addr_fault (923,814 samples, 0.06%)</title><rect x="1189.2" y="373" width="0.7" height="15.0" fill="rgb(228,108,25)" rx="2" ry="2" />
<text  x="1192.20" y="383.5" ></text>
</g>
<g >
<title>decode_webp_was (1,470,801,672 samples, 100.00%)</title><rect x="10.0" y="437" width="1179.9" height="15.0" fill="rgb(216,54,12)" rx="2" ry="2" />
<text  x="13.00" y="447.5" >decode_webp_was</text>
</g>
<g >
<title>exc_page_fault (650,313 samples, 0.04%)</title><rect x="40.5" y="389" width="0.5" height="15.0" fill="rgb(212,35,8)" rx="2" ry="2" />
<text  x="43.47" y="399.5" ></text>
</g>
<g >
<title>w2c_decode__webp__wasm_ReconstructRow (3,483,592 samples, 0.24%)</title><rect x="15.2" y="325" width="2.8" height="15.0" fill="rgb(238,153,36)" rx="2" ry="2" />
<text  x="18.19" y="335.5" ></text>
</g>
<g >
<title>do_syscall_64 (923,876 samples, 0.06%)</title><rect x="22.4" y="373" width="0.8" height="15.0" fill="rgb(209,20,4)" rx="2" ry="2" />
<text  x="25.43" y="383.5" ></text>
</g>
<g >
<title>w2c_decode__webp__wasm_TransformOne_C (115,429,323 samples, 7.85%)</title><rect x="768.0" y="421" width="92.6" height="15.0" fill="rgb(231,120,28)" rx="2" ry="2" />
<text  x="770.96" y="431.5" >w2c_decode_..</text>
</g>
<g >
<title>ext4_writepages (923,876 samples, 0.06%)</title><rect x="22.4" y="229" width="0.8" height="15.0" fill="rgb(240,165,39)" rx="2" ry="2" />
<text  x="25.43" y="239.5" ></text>
</g>
<g >
<title>__filemap_fdatawrite_range (923,876 samples, 0.06%)</title><rect x="22.4" y="277" width="0.8" height="15.0" fill="rgb(233,129,30)" rx="2" ry="2" />
<text  x="25.43" y="287.5" ></text>
</g>
<g >
<title>__x64_sys_openat (923,797 samples, 0.06%)</title><rect x="23.2" y="357" width="0.7" height="15.0" fill="rgb(251,215,51)" rx="2" ry="2" />
<text  x="26.17" y="367.5" ></text>
</g>
<g >
<title>lru_add_drain (321,518 samples, 0.02%)</title><rect x="24.6" y="277" width="0.3" height="15.0" fill="rgb(229,113,27)" rx="2" ry="2" />
<text  x="27.65" y="287.5" ></text>
</g>
<g >
<title>w2c_decode__webp__wasm_HU4_C (2,770,909 samples, 0.19%)</title><rect x="545.4" y="421" width="2.2" height="15.0" fill="rgb(229,114,27)" rx="2" ry="2" />
<text  x="548.37" y="431.5" ></text>
</g>
<g >
<title>__close_nocancel (923,876 samples, 0.06%)</title><rect x="22.4" y="405" width="0.8" height="15.0" fill="rgb(228,109,26)" rx="2" ry="2" />
<text  x="25.43" y="415.5" ></text>
</g>
<g >
<title>__iommu_map_sg (923,876 samples, 0.06%)</title><rect x="22.4" y="85" width="0.8" height="15.0" fill="rgb(236,146,35)" rx="2" ry="2" />
<text  x="25.43" y="95.5" ></text>
</g>
<g >
<title>__memmove_avx_unaligned (650,313 samples, 0.04%)</title><rect x="40.5" y="421" width="0.5" height="15.0" fill="rgb(254,228,54)" rx="2" ry="2" />
<text  x="43.47" y="431.5" ></text>
</g>
<g >
<title>find_mergeable_anon_vma (650,313 samples, 0.04%)</title><rect x="40.5" y="309" width="0.5" height="15.0" fill="rgb(250,208,49)" rx="2" ry="2" />
<text  x="43.47" y="319.5" ></text>
</g>
<g >
<title>w2c_decode__webp__wasm_HE4_C (1,848,451 samples, 0.13%)</title><rect x="543.9" y="421" width="1.5" height="15.0" fill="rgb(233,130,31)" rx="2" ry="2" />
<text  x="546.88" y="431.5" ></text>
</g>
<g >
<title>w2c_decode__webp__wasm_SimpleVFilter16i_C (11,086,848 samples, 0.75%)</title><rect x="734.6" y="421" width="8.9" height="15.0" fill="rgb(222,79,19)" rx="2" ry="2" />
<text  x="737.62" y="431.5" ></text>
</g>
<g >
<title>try_to_free_buffers (923,797 samples, 0.06%)</title><rect x="23.2" y="197" width="0.7" height="15.0" fill="rgb(249,206,49)" rx="2" ry="2" />
<text  x="26.17" y="207.5" ></text>
</g>
<g >
<title>blk_finish_plug (923,876 samples, 0.06%)</title><rect x="22.4" y="213" width="0.8" height="15.0" fill="rgb(231,119,28)" rx="2" ry="2" />
<text  x="25.43" y="223.5" ></text>
</g>
<g >
<title>__handle_mm_fault (650,313 samples, 0.04%)</title><rect x="40.5" y="341" width="0.5" height="15.0" fill="rgb(207,9,2)" rx="2" ry="2" />
<text  x="43.47" y="351.5" ></text>
</g>
<g >
<title>do_syscall_64 (321,518 samples, 0.02%)</title><rect x="24.6" y="389" width="0.3" height="15.0" fill="rgb(209,20,4)" rx="2" ry="2" />
<text  x="27.65" y="399.5" ></text>
</g>
<g >
<title>ext4_setattr (923,797 samples, 0.06%)</title><rect x="23.2" y="261" width="0.7" height="15.0" fill="rgb(230,117,28)" rx="2" ry="2" />
<text  x="26.17" y="271.5" ></text>
</g>
<g >
<title>entry_SYSCALL_64_after_hwframe (923,862 samples, 0.06%)</title><rect x="23.9" y="389" width="0.7" height="15.0" fill="rgb(218,63,15)" rx="2" ry="2" />
<text  x="26.91" y="399.5" ></text>
</g>
<g >
<title>__anon_vma_prepare (650,313 samples, 0.04%)</title><rect x="40.5" y="325" width="0.5" height="15.0" fill="rgb(249,205,49)" rx="2" ry="2" />
<text  x="43.47" y="335.5" ></text>
</g>
<g >
<title>w2c_decode__webp__wasm_UpsampleRgbLinePair_C (396,728,895 samples, 26.97%)</title><rect x="862.0" y="421" width="318.3" height="15.0" fill="rgb(241,168,40)" rx="2" ry="2" />
<text  x="865.05" y="431.5" >w2c_decode__webp__wasm_UpsampleRgbLinePair_C</text>
</g>
<g >
<title>all (1,470,869,867 samples, 100%)</title><rect x="10.0" y="453" width="1180.0" height="15.0" fill="rgb(213,39,9)" rx="2" ry="2" />
<text  x="13.00" y="463.5" ></text>
</g>
<g >
<title>__libc_write (923,862 samples, 0.06%)</title><rect x="23.9" y="405" width="0.7" height="15.0" fill="rgb(238,154,37)" rx="2" ry="2" />
<text  x="26.91" y="415.5" ></text>
</g>
<g >
<title>do_sys_openat2 (923,797 samples, 0.06%)</title><rect x="23.2" y="341" width="0.7" height="15.0" fill="rgb(253,221,52)" rx="2" ry="2" />
<text  x="26.17" y="351.5" ></text>
</g>
<g >
<title>entry_SYSCALL_64_after_hwframe (923,797 samples, 0.06%)</title><rect x="23.2" y="389" width="0.7" height="15.0" fill="rgb(218,63,15)" rx="2" ry="2" />
<text  x="26.17" y="399.5" ></text>
</g>
<g >
<title>__folio_alloc (923,814 samples, 0.06%)</title><rect x="1189.2" y="309" width="0.7" height="15.0" fill="rgb(224,91,21)" rx="2" ry="2" />
<text  x="1192.20" y="319.5" ></text>
</g>
<g >
<title>w2c_decode__webp__wasm_DC8uv_C (1,848,510 samples, 0.13%)</title><rect x="49.1" y="421" width="1.5" height="15.0" fill="rgb(228,106,25)" rx="2" ry="2" />
<text  x="52.15" y="431.5" ></text>
</g>
<g >
<title>do_writepages (923,876 samples, 0.06%)</title><rect x="22.4" y="245" width="0.8" height="15.0" fill="rgb(240,164,39)" rx="2" ry="2" />
<text  x="25.43" y="255.5" ></text>
</g>
<g >
<title>w2c_decode__webp__wasm_dlmalloc (923,814 samples, 0.06%)</title><rect x="1189.2" y="421" width="0.7" height="15.0" fill="rgb(250,208,49)" rx="2" ry="2" />
<text  x="1192.20" y="431.5" ></text>
</g>
<g >
<title>__folio_alloc (866,880 samples, 0.06%)</title><rect x="1179.6" y="309" width="0.7" height="15.0" fill="rgb(224,91,21)" rx="2" ry="2" />
<text  x="1182.63" y="319.5" ></text>
</g>
<g >
<title>w2c_decode__webp__wasm_VP8GetValue (2,770,255 samples, 0.19%)</title><rect x="1183.3" y="421" width="2.2" height="15.0" fill="rgb(243,179,42)" rx="2" ry="2" />
<text  x="1186.29" y="431.5" ></text>
</g>
<g >
<title>get_page_from_freelist (923,814 samples, 0.06%)</title><rect x="1189.2" y="277" width="0.7" height="15.0" fill="rgb(252,218,52)" rx="2" ry="2" />
<text  x="1192.20" y="287.5" ></text>
</g>
<g >
<title>[unknown] (15,488,397 samples, 1.05%)</title><rect x="10.0" y="373" width="12.4" height="15.0" fill="rgb(210,24,5)" rx="2" ry="2" />
<text  x="13.00" y="383.5" ></text>
</g>
<g >
<title>__libc_open64 (923,797 samples, 0.06%)</title><rect x="23.2" y="405" width="0.7" height="15.0" fill="rgb(235,140,33)" rx="2" ry="2" />
<text  x="26.17" y="415.5" ></text>
</g>
<g >
<title>do_syscall_64 (923,862 samples, 0.06%)</title><rect x="23.9" y="373" width="0.7" height="15.0" fill="rgb(209,20,4)" rx="2" ry="2" />
<text  x="26.91" y="383.5" ></text>
</g>
<g >
<title>w2c_decode__webp__wasm_GetCoeffsFast (534,499,825 samples, 36.34%)</title><rect x="51.4" y="421" width="428.8" height="15.0" fill="rgb(232,124,29)" rx="2" ry="2" />
<text  x="54.37" y="431.5" >w2c_decode__webp__wasm_GetCoeffsFast</text>
</g>
<g >
<title>[unknown] (15,488,397 samples, 1.05%)</title><rect x="10.0" y="341" width="12.4" height="15.0" fill="rgb(210,24,5)" rx="2" ry="2" />
<text  x="13.00" y="351.5" ></text>
</g>
<g >
<title>w2c_decode__webp__wasm_GetLargeValue (76,648,674 samples, 5.21%)</title><rect x="480.2" y="421" width="61.5" height="15.0" fill="rgb(206,5,1)" rx="2" ry="2" />
<text  x="483.17" y="431.5" >w2c_de..</text>
</g>
<g >
<title>__blk_flush_plug (923,876 samples, 0.06%)</title><rect x="22.4" y="197" width="0.8" height="15.0" fill="rgb(217,57,13)" rx="2" ry="2" />
<text  x="25.43" y="207.5" ></text>
</g>
<g >
<title>setup_arg_pages (321,518 samples, 0.02%)</title><rect x="24.6" y="309" width="0.3" height="15.0" fill="rgb(222,82,19)" rx="2" ry="2" />
<text  x="27.65" y="319.5" ></text>
</g>
<g >
<title>do_execveat_common.isra.0 (321,518 samples, 0.02%)</title><rect x="24.6" y="357" width="0.3" height="15.0" fill="rgb(231,123,29)" rx="2" ry="2" />
<text  x="27.65" y="367.5" ></text>
</g>
<g >
<title>w2c_decode__webp__wasm_ParseHeadersInternal (681,801 samples, 0.05%)</title><rect x="668.3" y="421" width="0.5" height="15.0" fill="rgb(224,88,21)" rx="2" ry="2" />
<text  x="671.26" y="431.5" ></text>
</g>
<g >
<title>[unknown] (15,488,397 samples, 1.05%)</title><rect x="10.0" y="357" width="12.4" height="15.0" fill="rgb(210,24,5)" rx="2" ry="2" />
<text  x="13.00" y="367.5" ></text>
</g>
<g >
<title>w2c_decode__webp__wasm_VE16_C (924,344 samples, 0.06%)</title><rect x="1180.3" y="421" width="0.8" height="15.0" fill="rgb(213,38,9)" rx="2" ry="2" />
<text  x="1183.32" y="431.5" ></text>
</g>
<g >
<title>ksys_write (923,862 samples, 0.06%)</title><rect x="23.9" y="357" width="0.7" height="15.0" fill="rgb(205,4,1)" rx="2" ry="2" />
<text  x="26.91" y="367.5" ></text>
</g>
<g >
<title>__iommu_map (923,876 samples, 0.06%)</title><rect x="22.4" y="69" width="0.8" height="15.0" fill="rgb(208,17,4)" rx="2" ry="2" />
<text  x="25.43" y="79.5" ></text>
</g>
<g >
<title>__x64_sys_execve (321,518 samples, 0.02%)</title><rect x="24.6" y="373" width="0.3" height="15.0" fill="rgb(247,193,46)" rx="2" ry="2" />
<text  x="27.65" y="383.5" ></text>
</g>
<g >
<title>asm_exc_page_fault (1,747,581 samples, 0.12%)</title><rect x="1178.9" y="405" width="1.4" height="15.0" fill="rgb(225,93,22)" rx="2" ry="2" />
<text  x="1181.92" y="415.5" ></text>
</g>
<g >
<title>w2c_decode__webp__wasm_GetCoeffsFast (3,694,629 samples, 0.25%)</title><rect x="10.0" y="325" width="3.0" height="15.0" fill="rgb(232,124,29)" rx="2" ry="2" />
<text  x="13.00" y="335.5" ></text>
</g>
<g >
<title>ext4_release_file (923,876 samples, 0.06%)</title><rect x="22.4" y="293" width="0.8" height="15.0" fill="rgb(225,92,22)" rx="2" ry="2" />
<text  x="25.43" y="303.5" ></text>
</g>
<g >
<title>do_filp_open (923,797 samples, 0.06%)</title><rect x="23.2" y="325" width="0.7" height="15.0" fill="rgb(211,28,6)" rx="2" ry="2" />
<text  x="26.17" y="335.5" ></text>
</g>
<g >
<title>handle_mm_fault (866,880 samples, 0.06%)</title><rect x="1179.6" y="357" width="0.7" height="15.0" fill="rgb(234,135,32)" rx="2" ry="2" />
<text  x="1182.63" y="367.5" ></text>
</g>
<g >
<title>w2c_decode__webp__wasm_TM4_C (1,846,653 samples, 0.13%)</title><rect x="745.7" y="421" width="1.5" height="15.0" fill="rgb(254,226,54)" rx="2" ry="2" />
<text  x="748.74" y="431.5" ></text>
</g>
<g >
<title>shift_arg_pages (321,518 samples, 0.02%)</title><rect x="24.6" y="293" width="0.3" height="15.0" fill="rgb(245,187,44)" rx="2" ry="2" />
<text  x="27.65" y="303.5" ></text>
</g>
<g >
<title>[unknown] (15,488,397 samples, 1.05%)</title><rect x="10.0" y="405" width="12.4" height="15.0" fill="rgb(210,24,5)" rx="2" ry="2" />
<text  x="13.00" y="415.5" ></text>
</g>
<g >
<title>w2c_decode__webp__wasm_VR4_C (3,681,022 samples, 0.25%)</title><rect x="1186.3" y="421" width="2.9" height="15.0" fill="rgb(208,18,4)" rx="2" ry="2" />
<text  x="1189.25" y="431.5" ></text>
</g>
<g >
<title>notify_change (923,797 samples, 0.06%)</title><rect x="23.2" y="277" width="0.7" height="15.0" fill="rgb(237,150,35)" rx="2" ry="2" />
<text  x="26.17" y="287.5" ></text>
</g>
<g >
<title>w2c_decode__webp__wasm_GetCoeffsFast (12,934,511 samples, 0.88%)</title><rect x="24.9" y="405" width="10.4" height="15.0" fill="rgb(232,124,29)" rx="2" ry="2" />
<text  x="27.91" y="415.5" ></text>
</g>
<g >
<title>w2c_decode__webp__wasm_DC4_C (9,239,280 samples, 0.63%)</title><rect x="41.7" y="421" width="7.4" height="15.0" fill="rgb(222,78,18)" rx="2" ry="2" />
<text  x="44.73" y="431.5" ></text>
</g>
<g >
<title>vma_alloc_folio (923,814 samples, 0.06%)</title><rect x="1189.2" y="325" width="0.7" height="15.0" fill="rgb(245,187,44)" rx="2" ry="2" />
<text  x="1192.20" y="335.5" ></text>
</g>
</g>
</svg>
