<?xml version="1.0" standalone="no"?>
<!DOCTYPE svg PUBLIC "-//W3C//DTD SVG 1.1//EN" "http://www.w3.org/Graphics/SVG/1.1/DTD/svg11.dtd">
<svg version="1.1" width="1200" height="358" onload="init(evt)" viewBox="0 0 1200 358" xmlns="http://www.w3.org/2000/svg" xmlns:xlink="http://www.w3.org/1999/xlink">
<!-- Flame graph stack visualization. See https://github.com/brendangregg/FlameGraph for latest version, and http://www.brendangregg.com/flamegraphs.html for examples. -->
<!-- NOTES:  -->
<defs>
	<linearGradient id="background" y1="0" y2="1" x1="0" x2="0" >
		<stop stop-color="#eeeeee" offset="5%" />
		<stop stop-color="#eeeeb0" offset="95%" />
	</linearGradient>
</defs>
<style type="text/css">
	text { font-family:Verdana; font-size:12px; fill:rgb(0,0,0); }
	#search, #ignorecase { opacity:0.1; cursor:pointer; }
	#search:hover, #search.show, #ignorecase:hover, #ignorecase.show { opacity:1; }
	#subtitle { text-anchor:middle; font-color:rgb(160,160,160); }
	#title { text-anchor:middle; font-size:17px}
	#unzoom { cursor:pointer; }
	#frames > *:hover { stroke:black; stroke-width:0.5; cursor:pointer; }
	.hide { display:none; }
	.parent { opacity:0.5; }
</style>
<script type="text/ecmascript">
<![CDATA[
	"use strict";
	var details, searchbtn, unzoombtn, matchedtxt, svg, searching, currentSearchTerm, ignorecase, ignorecaseBtn;
	function init(evt) {
		details = document.getElementById("details").firstChild;
		searchbtn = document.getElementById("search");
		ignorecaseBtn = document.getElementById("ignorecase");
		unzoombtn = document.getElementById("unzoom");
		matchedtxt = document.getElementById("matched");
		svg = document.getElementsByTagName("svg")[0];
		searching = 0;
		currentSearchTerm = null;

		// use GET parameters to restore a flamegraphs state.
		var params = get_params();
		if (params.x && params.y)
			zoom(find_group(document.querySelector('[x="' + params.x + '"][y="' + params.y + '"]')));
                if (params.s) search(params.s);
	}

	// event listeners
	window.addEventListener("click", function(e) {
		var target = find_group(e.target);
		if (target) {
			if (target.nodeName == "a") {
				if (e.ctrlKey === false) return;
				e.preventDefault();
			}
			if (target.classList.contains("parent")) unzoom(true);
			zoom(target);
			if (!document.querySelector('.parent')) {
				// we have basically done a clearzoom so clear the url
				var params = get_params();
				if (params.x) delete params.x;
				if (params.y) delete params.y;
				history.replaceState(null, null, parse_params(params));
				unzoombtn.classList.add("hide");
				return;
			}

			// set parameters for zoom state
			var el = target.querySelector("rect");
			if (el && el.attributes && el.attributes.y && el.attributes._orig_x) {
				var params = get_params()
				params.x = el.attributes._orig_x.value;
				params.y = el.attributes.y.value;
				history.replaceState(null, null, parse_params(params));
			}
		}
		else if (e.target.id == "unzoom") clearzoom();
		else if (e.target.id == "search") search_prompt();
		else if (e.target.id == "ignorecase") toggle_ignorecase();
	}, false)

	// mouse-over for info
	// show
	window.addEventListener("mouseover", function(e) {
		var target = find_group(e.target);
		if (target) details.nodeValue = "Function: " + g_to_text(target);
	}, false)

	// clear
	window.addEventListener("mouseout", function(e) {
		var target = find_group(e.target);
		if (target) details.nodeValue = ' ';
	}, false)

	// ctrl-F for search
	// ctrl-I to toggle case-sensitive search
	window.addEventListener("keydown",function (e) {
		if (e.keyCode === 114 || (e.ctrlKey && e.keyCode === 70)) {
			e.preventDefault();
			search_prompt();
		}
		else if (e.ctrlKey && e.keyCode === 73) {
			e.preventDefault();
			toggle_ignorecase();
		}
	}, false)

	// functions
	function get_params() {
		var params = {};
		var paramsarr = window.location.search.substr(1).split('&');
		for (var i = 0; i < paramsarr.length; ++i) {
			var tmp = paramsarr[i].split("=");
			if (!tmp[0] || !tmp[1]) continue;
			params[tmp[0]]  = decodeURIComponent(tmp[1]);
		}
		return params;
	}
	function parse_params(params) {
		var uri = "?";
		for (var key in params) {
			uri += key + '=' + encodeURIComponent(params[key]) + '&';
		}
		if (uri.slice(-1) == "&")
			uri = uri.substring(0, uri.length - 1);
		if (uri == '?')
			uri = window.location.href.split('?')[0];
		return uri;
	}
	function find_child(node, selector) {
		var children = node.querySelectorAll(selector);
		if (children.length) return children[0];
	}
	function find_group(node) {
		var parent = node.parentElement;
		if (!parent) return;
		if (parent.id == "frames") return node;
		return find_group(parent);
	}
	function orig_save(e, attr, val) {
		if (e.attributes["_orig_" + attr] != undefined) return;
		if (e.attributes[attr] == undefined) return;
		if (val == undefined) val = e.attributes[attr].value;
		e.setAttribute("_orig_" + attr, val);
	}
	function orig_load(e, attr) {
		if (e.attributes["_orig_"+attr] == undefined) return;
		e.attributes[attr].value = e.attributes["_orig_" + attr].value;
		e.removeAttribute("_orig_"+attr);
	}
	function g_to_text(e) {
		var text = find_child(e, "title").firstChild.nodeValue;
		return (text)
	}
	function g_to_func(e) {
		var func = g_to_text(e);
		// if there's any manipulation we want to do to the function
		// name before it's searched, do it here before returning.
		return (func);
	}
	function update_text(e) {
		var r = find_child(e, "rect");
		var t = find_child(e, "text");
		var w = parseFloat(r.attributes.width.value) -3;
		var txt = find_child(e, "title").textContent.replace(/\([^(]*\)$/,"");
		t.attributes.x.value = parseFloat(r.attributes.x.value) + 3;

		// Smaller than this size won't fit anything
		if (w < 2 * 12 * 0.59) {
			t.textContent = "";
			return;
		}

		t.textContent = txt;
		var sl = t.getSubStringLength(0, txt.length);
		// check if only whitespace or if we can fit the entire string into width w
		if (/^ *$/.test(txt) || sl < w)
			return;

		// this isn't perfect, but gives a good starting point
		// and avoids calling getSubStringLength too often
		var start = Math.floor((w/sl) * txt.length);
		for (var x = start; x > 0; x = x-2) {
			if (t.getSubStringLength(0, x + 2) <= w) {
				t.textContent = txt.substring(0, x) + "..";
				return;
			}
		}
		t.textContent = "";
	}

	// zoom
	function zoom_reset(e) {
		if (e.attributes != undefined) {
			orig_load(e, "x");
			orig_load(e, "width");
		}
		if (e.childNodes == undefined) return;
		for (var i = 0, c = e.childNodes; i < c.length; i++) {
			zoom_reset(c[i]);
		}
	}
	function zoom_child(e, x, ratio) {
		if (e.attributes != undefined) {
			if (e.attributes.x != undefined) {
				orig_save(e, "x");
				e.attributes.x.value = (parseFloat(e.attributes.x.value) - x - 10) * ratio + 10;
				if (e.tagName == "text")
					e.attributes.x.value = find_child(e.parentNode, "rect[x]").attributes.x.value + 3;
			}
			if (e.attributes.width != undefined) {
				orig_save(e, "width");
				e.attributes.width.value = parseFloat(e.attributes.width.value) * ratio;
			}
		}

		if (e.childNodes == undefined) return;
		for (var i = 0, c = e.childNodes; i < c.length; i++) {
			zoom_child(c[i], x - 10, ratio);
		}
	}
	function zoom_parent(e) {
		if (e.attributes) {
			if (e.attributes.x != undefined) {
				orig_save(e, "x");
				e.attributes.x.value = 10;
			}
			if (e.attributes.width != undefined) {
				orig_save(e, "width");
				e.attributes.width.value = parseInt(svg.width.baseVal.value) - (10 * 2);
			}
		}
		if (e.childNodes == undefined) return;
		for (var i = 0, c = e.childNodes; i < c.length; i++) {
			zoom_parent(c[i]);
		}
	}
	function zoom(node) {
		var attr = find_child(node, "rect").attributes;
		var width = parseFloat(attr.width.value);
		var xmin = parseFloat(attr.x.value);
		var xmax = parseFloat(xmin + width);
		var ymin = parseFloat(attr.y.value);
		var ratio = (svg.width.baseVal.value - 2 * 10) / width;

		// XXX: Workaround for JavaScript float issues (fix me)
		var fudge = 0.0001;

		unzoombtn.classList.remove("hide");

		var el = document.getElementById("frames").children;
		for (var i = 0; i < el.length; i++) {
			var e = el[i];
			var a = find_child(e, "rect").attributes;
			var ex = parseFloat(a.x.value);
			var ew = parseFloat(a.width.value);
			var upstack;
			// Is it an ancestor
			if (0 == 0) {
				upstack = parseFloat(a.y.value) > ymin;
			} else {
				upstack = parseFloat(a.y.value) < ymin;
			}
			if (upstack) {
				// Direct ancestor
				if (ex <= xmin && (ex+ew+fudge) >= xmax) {
					e.classList.add("parent");
					zoom_parent(e);
					update_text(e);
				}
				// not in current path
				else
					e.classList.add("hide");
			}
			// Children maybe
			else {
				// no common path
				if (ex < xmin || ex + fudge >= xmax) {
					e.classList.add("hide");
				}
				else {
					zoom_child(e, xmin, ratio);
					update_text(e);
				}
			}
		}
		search();
	}
	function unzoom(dont_update_text) {
		unzoombtn.classList.add("hide");
		var el = document.getElementById("frames").children;
		for(var i = 0; i < el.length; i++) {
			el[i].classList.remove("parent");
			el[i].classList.remove("hide");
			zoom_reset(el[i]);
			if(!dont_update_text) update_text(el[i]);
		}
		search();
	}
	function clearzoom() {
		unzoom();

		// remove zoom state
		var params = get_params();
		if (params.x) delete params.x;
		if (params.y) delete params.y;
		history.replaceState(null, null, parse_params(params));
	}

	// search
	function toggle_ignorecase() {
		ignorecase = !ignorecase;
		if (ignorecase) {
			ignorecaseBtn.classList.add("show");
		} else {
			ignorecaseBtn.classList.remove("show");
		}
		reset_search();
		search();
	}
	function reset_search() {
		var el = document.querySelectorAll("#frames rect");
		for (var i = 0; i < el.length; i++) {
			orig_load(el[i], "fill")
		}
		var params = get_params();
		delete params.s;
		history.replaceState(null, null, parse_params(params));
	}
	function search_prompt() {
		if (!searching) {
			var term = prompt("Enter a search term (regexp " +
			    "allowed, eg: ^ext4_)"
			    + (ignorecase ? ", ignoring case" : "")
			    + "\nPress Ctrl-i to toggle case sensitivity", "");
			if (term != null) search(term);
		} else {
			reset_search();
			searching = 0;
			currentSearchTerm = null;
			searchbtn.classList.remove("show");
			searchbtn.firstChild.nodeValue = "Search"
			matchedtxt.classList.add("hide");
			matchedtxt.firstChild.nodeValue = ""
		}
	}
	function search(term) {
		if (term) currentSearchTerm = term;

		var re = new RegExp(currentSearchTerm, ignorecase ? 'i' : '');
		var el = document.getElementById("frames").children;
		var matches = new Object();
		var maxwidth = 0;
		for (var i = 0; i < el.length; i++) {
			var e = el[i];
			var func = g_to_func(e);
			var rect = find_child(e, "rect");
			if (func == null || rect == null)
				continue;

			// Save max width. Only works as we have a root frame
			var w = parseFloat(rect.attributes.width.value);
			if (w > maxwidth)
				maxwidth = w;

			if (func.match(re)) {
				// highlight
				var x = parseFloat(rect.attributes.x.value);
				orig_save(rect, "fill");
				rect.attributes.fill.value = "rgb(230,0,230)";

				// remember matches
				if (matches[x] == undefined) {
					matches[x] = w;
				} else {
					if (w > matches[x]) {
						// overwrite with parent
						matches[x] = w;
					}
				}
				searching = 1;
			}
		}
		if (!searching)
			return;
		var params = get_params();
		params.s = currentSearchTerm;
		history.replaceState(null, null, parse_params(params));

		searchbtn.classList.add("show");
		searchbtn.firstChild.nodeValue = "Reset Search";

		// calculate percent matched, excluding vertical overlap
		var count = 0;
		var lastx = -1;
		var lastw = 0;
		var keys = Array();
		for (k in matches) {
			if (matches.hasOwnProperty(k))
				keys.push(k);
		}
		// sort the matched frames by their x location
		// ascending, then width descending
		keys.sort(function(a, b){
			return a - b;
		});
		// Step through frames saving only the biggest bottom-up frames
		// thanks to the sort order. This relies on the tree property
		// where children are always smaller than their parents.
		var fudge = 0.0001;	// JavaScript floating point
		for (var k in keys) {
			var x = parseFloat(keys[k]);
			var w = matches[keys[k]];
			if (x >= lastx + lastw - fudge) {
				count += w;
				lastx = x;
				lastw = w;
			}
		}
		// display matched percent
		matchedtxt.classList.remove("hide");
		var pct = 100 * count / maxwidth;
		if (pct != 100) pct = pct.toFixed(1)
		matchedtxt.firstChild.nodeValue = "Matched: " + pct + "%";
	}
]]>
</script>
<rect x="0.0" y="0" width="1200.0" height="358.0" fill="url(#background)"  />
<text id="title" x="600.00" y="24" >Flame Graph</text>
<text id="details" x="10.00" y="341" > </text>
<text id="unzoom" x="10.00" y="24" class="hide">Reset Zoom</text>
<text id="search" x="1090.00" y="24" >Search</text>
<text id="ignorecase" x="1174.00" y="24" >ic</text>
<text id="matched" x="1090.00" y="341" > </text>
<g id="frames">
<g >
<title>TransformDC_C (10,166,315 samples, 0.89%)</title><rect x="481.3" y="261" width="10.5" height="15.0" fill="rgb(219,65,15)" rx="2" ry="2" />
<text  x="484.31" y="271.5" ></text>
</g>
<g >
<title>GetCoeffsFast (5,541,968 samples, 0.49%)</title><rect x="24.2" y="277" width="5.8" height="15.0" fill="rgb(219,64,15)" rx="2" ry="2" />
<text  x="27.23" y="287.5" ></text>
</g>
<g >
<title>amd_pmu_check_overflow (924,369 samples, 0.08%)</title><rect x="395.3" y="85" width="1.0" height="15.0" fill="rgb(207,10,2)" rx="2" ry="2" />
<text  x="398.30" y="95.5" ></text>
</g>
<g >
<title>TransformAC3_C (5,316,495 samples, 0.47%)</title><rect x="58.1" y="277" width="5.4" height="15.0" fill="rgb(209,19,4)" rx="2" ry="2" />
<text  x="61.06" y="287.5" ></text>
</g>
<g >
<title>__libc_write (2,771,673 samples, 0.24%)</title><rect x="1184.2" y="261" width="2.9" height="15.0" fill="rgb(238,154,37)" rx="2" ry="2" />
<text  x="1187.23" y="271.5" ></text>
</g>
<g >
<title>delay_halt_mwaitx (923,853 samples, 0.08%)</title><rect x="1176.6" y="37" width="0.9" height="15.0" fill="rgb(234,133,31)" rx="2" ry="2" />
<text  x="1179.59" y="47.5" ></text>
</g>
<g >
<title>hrtimer_interrupt (924,442 samples, 0.08%)</title><rect x="1177.5" y="181" width="1.0" height="15.0" fill="rgb(228,109,26)" rx="2" ry="2" />
<text  x="1180.55" y="191.5" ></text>
</g>
<g >
<title>IDecode (1,753,889 samples, 0.15%)</title><rect x="445.7" y="261" width="1.8" height="15.0" fill="rgb(245,185,44)" rx="2" ry="2" />
<text  x="448.70" y="271.5" ></text>
</g>
<g >
<title>FinishRow (1,848,767 samples, 0.16%)</title><rect x="394.3" y="261" width="2.0" height="15.0" fill="rgb(213,41,9)" rx="2" ry="2" />
<text  x="397.35" y="271.5" ></text>
</g>
<g >
<title>SimpleVFilter16_C (5,544,236 samples, 0.49%)</title><rect x="49.5" y="277" width="5.7" height="15.0" fill="rgb(237,149,35)" rx="2" ry="2" />
<text  x="52.47" y="287.5" ></text>
</g>
<g >
<title>run_timer_softirq (924,386 samples, 0.08%)</title><rect x="361.9" y="197" width="1.0" height="15.0" fill="rgb(249,206,49)" rx="2" ry="2" />
<text  x="364.91" y="207.5" ></text>
</g>
<g >
<title>folio_batch_move_lru (815,703 samples, 0.07%)</title><rect x="361.1" y="165" width="0.8" height="15.0" fill="rgb(207,10,2)" rx="2" ry="2" />
<text  x="364.07" y="175.5" ></text>
</g>
<g >
<title>tick_sched_timer (924,442 samples, 0.08%)</title><rect x="1177.5" y="149" width="1.0" height="15.0" fill="rgb(254,227,54)" rx="2" ry="2" />
<text  x="1180.55" y="159.5" ></text>
</g>
<g >
<title>native_read_msr (924,442 samples, 0.08%)</title><rect x="1177.5" y="37" width="1.0" height="15.0" fill="rgb(211,30,7)" rx="2" ry="2" />
<text  x="1180.55" y="47.5" ></text>
</g>
<g >
<title>mem_cgroup_css_rstat_flush (923,844 samples, 0.08%)</title><rect x="1185.2" y="53" width="0.9" height="15.0" fill="rgb(253,222,53)" rx="2" ry="2" />
<text  x="1188.18" y="63.5" ></text>
</g>
<g >
<title>call_timer_fn (924,386 samples, 0.08%)</title><rect x="361.9" y="165" width="1.0" height="15.0" fill="rgb(234,135,32)" rx="2" ry="2" />
<text  x="364.91" y="175.5" ></text>
</g>
<g >
<title>asm_sysvec_apic_timer_interrupt (924,386 samples, 0.08%)</title><rect x="361.9" y="261" width="1.0" height="15.0" fill="rgb(232,127,30)" rx="2" ry="2" />
<text  x="364.91" y="271.5" ></text>
</g>
<g >
<title>__run_timers (923,853 samples, 0.08%)</title><rect x="1176.6" y="149" width="0.9" height="15.0" fill="rgb(206,5,1)" rx="2" ry="2" />
<text  x="1179.59" y="159.5" ></text>
</g>
<g >
<title>__x64_sys_execve (479,061 samples, 0.04%)</title><rect x="1187.1" y="229" width="0.5" height="15.0" fill="rgb(247,193,46)" rx="2" ry="2" />
<text  x="1190.09" y="239.5" ></text>
</g>
<g >
<title>VP8ParseProba (1,848,521 samples, 0.16%)</title><rect x="385.8" y="277" width="1.9" height="15.0" fill="rgb(224,88,21)" rx="2" ry="2" />
<text  x="388.76" y="287.5" ></text>
</g>
<g >
<title>entry_SYSCALL_64_after_hwframe (479,061 samples, 0.04%)</title><rect x="1187.1" y="261" width="0.5" height="15.0" fill="rgb(218,63,15)" rx="2" ry="2" />
<text  x="1190.09" y="271.5" ></text>
</g>
<g >
<title>mem_cgroup_wb_stats (1,847,770 samples, 0.16%)</title><rect x="1184.2" y="117" width="1.9" height="15.0" fill="rgb(211,28,6)" rx="2" ry="2" />
<text  x="1187.23" y="127.5" ></text>
</g>
<g >
<title>cgroup_rstat_flush_locked (1,847,770 samples, 0.16%)</title><rect x="1184.2" y="69" width="1.9" height="15.0" fill="rgb(209,19,4)" rx="2" ry="2" />
<text  x="1187.23" y="79.5" ></text>
</g>
<g >
<title>asm_exc_page_fault (457,289 samples, 0.04%)</title><rect x="1188.5" y="261" width="0.5" height="15.0" fill="rgb(225,93,22)" rx="2" ry="2" />
<text  x="1191.54" y="271.5" ></text>
</g>
<g >
<title>do_user_addr_fault (459,247 samples, 0.04%)</title><rect x="49.0" y="229" width="0.5" height="15.0" fill="rgb(228,108,25)" rx="2" ry="2" />
<text  x="51.99" y="239.5" ></text>
</g>
<g >
<title>ksys_write (2,771,673 samples, 0.24%)</title><rect x="1184.2" y="213" width="2.9" height="15.0" fill="rgb(205,4,1)" rx="2" ry="2" />
<text  x="1187.23" y="223.5" ></text>
</g>
<g >
<title>__softirqentry_text_start (924,386 samples, 0.08%)</title><rect x="361.9" y="213" width="1.0" height="15.0" fill="rgb(234,135,32)" rx="2" ry="2" />
<text  x="364.91" y="223.5" ></text>
</g>
<g >
<title>entry_SYSCALL_64_after_hwframe (924,136 samples, 0.08%)</title><rect x="1189.0" y="277" width="1.0" height="15.0" fill="rgb(218,63,15)" rx="2" ry="2" />
<text  x="1192.01" y="287.5" ></text>
</g>
<g >
<title>VE4_C (4,618,989 samples, 0.40%)</title><rect x="362.9" y="277" width="4.7" height="15.0" fill="rgb(229,114,27)" rx="2" ry="2" />
<text  x="365.87" y="287.5" ></text>
</g>
<g >
<title>sysvec_apic_timer_interrupt (924,369 samples, 0.08%)</title><rect x="395.3" y="229" width="1.0" height="15.0" fill="rgb(220,69,16)" rx="2" ry="2" />
<text  x="398.30" y="239.5" ></text>
</g>
<g >
<title>exc_page_fault (459,247 samples, 0.04%)</title><rect x="49.0" y="245" width="0.5" height="15.0" fill="rgb(212,35,8)" rx="2" ry="2" />
<text  x="51.99" y="255.5" ></text>
</g>
<g >
<title>cgroup_rstat_flush_irqsafe (1,847,770 samples, 0.16%)</title><rect x="1184.2" y="85" width="1.9" height="15.0" fill="rgb(227,103,24)" rx="2" ry="2" />
<text  x="1187.23" y="95.5" ></text>
</g>
<g >
<title>all (1,142,263,348 samples, 100%)</title><rect x="10.0" y="309" width="1180.0" height="15.0" fill="rgb(213,39,9)" rx="2" ry="2" />
<text  x="13.00" y="319.5" ></text>
</g>
<g >
<title>scheduler_tick (924,442 samples, 0.08%)</title><rect x="1177.5" y="101" width="1.0" height="15.0" fill="rgb(246,190,45)" rx="2" ry="2" />
<text  x="1180.55" y="111.5" ></text>
</g>
<g >
<title>amd_pmu_test_overflow_topbit (924,369 samples, 0.08%)</title><rect x="395.3" y="69" width="1.0" height="15.0" fill="rgb(243,176,42)" rx="2" ry="2" />
<text  x="398.30" y="79.5" ></text>
</g>
<g >
<title>HE4_C (2,772,224 samples, 0.24%)</title><rect x="33.8" y="277" width="2.8" height="15.0" fill="rgb(220,70,16)" rx="2" ry="2" />
<text  x="36.77" y="287.5" ></text>
</g>
<g >
<title>scheduler_tick (924,369 samples, 0.08%)</title><rect x="395.3" y="117" width="1.0" height="15.0" fill="rgb(246,190,45)" rx="2" ry="2" />
<text  x="398.30" y="127.5" ></text>
</g>
<g >
<title>amd_pmu_test_overflow_topbit (924,442 samples, 0.08%)</title><rect x="1177.5" y="53" width="1.0" height="15.0" fill="rgb(243,176,42)" rx="2" ry="2" />
<text  x="1180.55" y="63.5" ></text>
</g>
<g >
<title>asm_sysvec_apic_timer_interrupt (1,848,295 samples, 0.16%)</title><rect x="1176.6" y="229" width="1.9" height="15.0" fill="rgb(232,127,30)" rx="2" ry="2" />
<text  x="1179.59" y="239.5" ></text>
</g>
<g >
<title>__run_timers (924,386 samples, 0.08%)</title><rect x="361.9" y="181" width="1.0" height="15.0" fill="rgb(206,5,1)" rx="2" ry="2" />
<text  x="364.91" y="191.5" ></text>
</g>
<g >
<title>update_process_times (924,369 samples, 0.08%)</title><rect x="395.3" y="133" width="1.0" height="15.0" fill="rgb(250,209,50)" rx="2" ry="2" />
<text  x="398.30" y="143.5" ></text>
</g>
<g >
<title>__irq_exit_rcu (923,853 samples, 0.08%)</title><rect x="1176.6" y="197" width="0.9" height="15.0" fill="rgb(227,101,24)" rx="2" ry="2" />
<text  x="1179.59" y="207.5" ></text>
</g>
<g >
<title>__folio_alloc (459,247 samples, 0.04%)</title><rect x="49.0" y="165" width="0.5" height="15.0" fill="rgb(224,91,21)" rx="2" ry="2" />
<text  x="51.99" y="175.5" ></text>
</g>
<g >
<title>irqentry_exit_to_user_mode (457,289 samples, 0.04%)</title><rect x="1188.5" y="245" width="0.5" height="15.0" fill="rgb(254,229,54)" rx="2" ry="2" />
<text  x="1191.54" y="255.5" ></text>
</g>
<g >
<title>do_syscall_64 (924,136 samples, 0.08%)</title><rect x="1189.0" y="261" width="1.0" height="15.0" fill="rgb(209,20,4)" rx="2" ry="2" />
<text  x="1192.01" y="271.5" ></text>
</g>
<g >
<title>bprm_execve (479,061 samples, 0.04%)</title><rect x="1187.1" y="197" width="0.5" height="15.0" fill="rgb(218,61,14)" rx="2" ry="2" />
<text  x="1190.09" y="207.5" ></text>
</g>
<g >
<title>tick_sched_handle (924,369 samples, 0.08%)</title><rect x="395.3" y="149" width="1.0" height="15.0" fill="rgb(219,68,16)" rx="2" ry="2" />
<text  x="398.30" y="159.5" ></text>
</g>
<g >
<title>unmap_page_range (924,136 samples, 0.08%)</title><rect x="1189.0" y="149" width="1.0" height="15.0" fill="rgb(206,5,1)" rx="2" ry="2" />
<text  x="1192.01" y="159.5" ></text>
</g>
<g >
<title>exit_to_user_mode_prepare (457,289 samples, 0.04%)</title><rect x="1188.5" y="229" width="0.5" height="15.0" fill="rgb(228,108,25)" rx="2" ry="2" />
<text  x="1191.54" y="239.5" ></text>
</g>
<g >
<title>EmitFancyRGB (923,889 samples, 0.08%)</title><rect x="393.4" y="261" width="0.9" height="15.0" fill="rgb(210,26,6)" rx="2" ry="2" />
<text  x="396.39" y="271.5" ></text>
</g>
<g >
<title>ext4_buffered_write_iter (2,771,673 samples, 0.24%)</title><rect x="1184.2" y="181" width="2.9" height="15.0" fill="rgb(213,40,9)" rx="2" ry="2" />
<text  x="1187.23" y="191.5" ></text>
</g>
<g >
<title>ext4_ext_map_blocks (923,903 samples, 0.08%)</title><rect x="1186.1" y="101" width="1.0" height="15.0" fill="rgb(206,8,2)" rx="2" ry="2" />
<text  x="1189.14" y="111.5" ></text>
</g>
<g >
<title>clear_page_rep (459,247 samples, 0.04%)</title><rect x="49.0" y="117" width="0.5" height="15.0" fill="rgb(253,221,52)" rx="2" ry="2" />
<text  x="51.99" y="127.5" ></text>
</g>
<g >
<title>padzero (360,544 samples, 0.03%)</title><rect x="1187.2" y="165" width="0.4" height="15.0" fill="rgb(223,84,20)" rx="2" ry="2" />
<text  x="1190.21" y="175.5" ></text>
</g>
<g >
<title>run_timer_softirq (923,853 samples, 0.08%)</title><rect x="1176.6" y="165" width="0.9" height="15.0" fill="rgb(249,206,49)" rx="2" ry="2" />
<text  x="1179.59" y="175.5" ></text>
</g>
<g >
<title>fq_flush_iotlb (924,386 samples, 0.08%)</title><rect x="361.9" y="133" width="1.0" height="15.0" fill="rgb(244,182,43)" rx="2" ry="2" />
<text  x="364.91" y="143.5" ></text>
</g>
<g >
<title>lru_add_fn (815,703 samples, 0.07%)</title><rect x="361.1" y="149" width="0.8" height="15.0" fill="rgb(208,14,3)" rx="2" ry="2" />
<text  x="364.07" y="159.5" ></text>
</g>
<g >
<title>HU4_C (1,845,466 samples, 0.16%)</title><rect x="36.6" y="277" width="1.9" height="15.0" fill="rgb(216,54,13)" rx="2" ry="2" />
<text  x="39.63" y="287.5" ></text>
</g>
<g >
<title>TransformTwo_C (921,642 samples, 0.08%)</title><rect x="606.6" y="261" width="1.0" height="15.0" fill="rgb(212,36,8)" rx="2" ry="2" />
<text  x="609.63" y="271.5" ></text>
</g>
<g >
<title>fq_flush_timeout (923,853 samples, 0.08%)</title><rect x="1176.6" y="117" width="0.9" height="15.0" fill="rgb(213,40,9)" rx="2" ry="2" />
<text  x="1179.59" y="127.5" ></text>
</g>
<g >
<title>flush_signal_handlers (118,517 samples, 0.01%)</title><rect x="1187.1" y="149" width="0.1" height="15.0" fill="rgb(253,221,53)" rx="2" ry="2" />
<text  x="1190.09" y="159.5" ></text>
</g>
<g >
<title>clear_user_rep_good (360,544 samples, 0.03%)</title><rect x="1187.2" y="149" width="0.4" height="15.0" fill="rgb(224,89,21)" rx="2" ry="2" />
<text  x="1190.21" y="159.5" ></text>
</g>
<g >
<title>__hrtimer_run_queues (924,369 samples, 0.08%)</title><rect x="395.3" y="181" width="1.0" height="15.0" fill="rgb(237,150,35)" rx="2" ry="2" />
<text  x="398.30" y="191.5" ></text>
</g>
<g >
<title>__sysvec_apic_timer_interrupt (924,442 samples, 0.08%)</title><rect x="1177.5" y="197" width="1.0" height="15.0" fill="rgb(242,173,41)" rx="2" ry="2" />
<text  x="1180.55" y="207.5" ></text>
</g>
<g >
<title>sysvec_apic_timer_interrupt (924,386 samples, 0.08%)</title><rect x="361.9" y="245" width="1.0" height="15.0" fill="rgb(220,69,16)" rx="2" ry="2" />
<text  x="364.91" y="255.5" ></text>
</g>
<g >
<title>VP8DecodeMB (27,627,985 samples, 2.42%)</title><rect x="611.4" y="261" width="28.5" height="15.0" fill="rgb(208,18,4)" rx="2" ry="2" />
<text  x="614.40" y="271.5" >VP..</text>
</g>
<g >
<title>do_syscall_64 (2,771,673 samples, 0.24%)</title><rect x="1184.2" y="229" width="2.9" height="15.0" fill="rgb(209,20,4)" rx="2" ry="2" />
<text  x="1187.23" y="239.5" ></text>
</g>
<g >
<title>call_timer_fn (923,853 samples, 0.08%)</title><rect x="1176.6" y="133" width="0.9" height="15.0" fill="rgb(234,135,32)" rx="2" ry="2" />
<text  x="1179.59" y="143.5" ></text>
</g>
<g >
<title>__irq_exit_rcu (924,386 samples, 0.08%)</title><rect x="361.9" y="229" width="1.0" height="15.0" fill="rgb(227,101,24)" rx="2" ry="2" />
<text  x="364.91" y="239.5" ></text>
</g>
<g >
<title>asm_exc_page_fault (459,247 samples, 0.04%)</title><rect x="49.0" y="261" width="0.5" height="15.0" fill="rgb(225,93,22)" rx="2" ry="2" />
<text  x="51.99" y="271.5" ></text>
</g>
<g >
<title>SimpleHFilter16_C (13,784,950 samples, 1.21%)</title><rect x="463.6" y="261" width="14.3" height="15.0" fill="rgb(227,105,25)" rx="2" ry="2" />
<text  x="466.64" y="271.5" ></text>
</g>
<g >
<title>GetCoeffsFast (425,784,509 samples, 37.28%)</title><rect x="738.7" y="245" width="439.8" height="15.0" fill="rgb(219,64,15)" rx="2" ry="2" />
<text  x="741.65" y="255.5" >GetCoeffsFast</text>
</g>
<g >
<title>do_group_exit (924,136 samples, 0.08%)</title><rect x="1189.0" y="229" width="1.0" height="15.0" fill="rgb(219,67,16)" rx="2" ry="2" />
<text  x="1192.01" y="239.5" ></text>
</g>
<g >
<title>unmap_vmas (924,136 samples, 0.08%)</title><rect x="1189.0" y="165" width="1.0" height="15.0" fill="rgb(243,176,42)" rx="2" ry="2" />
<text  x="1192.01" y="175.5" ></text>
</g>
<g >
<title>folio_add_lru (815,703 samples, 0.07%)</title><rect x="361.1" y="181" width="0.8" height="15.0" fill="rgb(208,17,4)" rx="2" ry="2" />
<text  x="364.07" y="191.5" ></text>
</g>
<g >
<title>vma_alloc_folio (459,247 samples, 0.04%)</title><rect x="49.0" y="181" width="0.5" height="15.0" fill="rgb(245,187,44)" rx="2" ry="2" />
<text  x="51.99" y="191.5" ></text>
</g>
<g >
<title>__alloc_pages (459,247 samples, 0.04%)</title><rect x="49.0" y="149" width="0.5" height="15.0" fill="rgb(233,129,30)" rx="2" ry="2" />
<text  x="51.99" y="159.5" ></text>
</g>
<g >
<title>__hrtimer_run_queues (924,442 samples, 0.08%)</title><rect x="1177.5" y="165" width="1.0" height="15.0" fill="rgb(237,150,35)" rx="2" ry="2" />
<text  x="1180.55" y="175.5" ></text>
</g>
<g >
<title>perf_event_task_tick (924,442 samples, 0.08%)</title><rect x="1177.5" y="85" width="1.0" height="15.0" fill="rgb(205,3,0)" rx="2" ry="2" />
<text  x="1180.55" y="95.5" ></text>
</g>
<g >
<title>decode_webp_nat (1,142,232,413 samples, 100.00%)</title><rect x="10.0" y="293" width="1180.0" height="15.0" fill="rgb(218,61,14)" rx="2" ry="2" />
<text  x="13.00" y="303.5" >decode_webp_nat</text>
</g>
<g >
<title>asm_sysvec_apic_timer_interrupt (924,369 samples, 0.08%)</title><rect x="395.3" y="245" width="1.0" height="15.0" fill="rgb(232,127,30)" rx="2" ry="2" />
<text  x="398.30" y="255.5" ></text>
</g>
<g >
<title>asm_exc_page_fault (815,703 samples, 0.07%)</title><rect x="361.1" y="261" width="0.8" height="15.0" fill="rgb(225,93,22)" rx="2" ry="2" />
<text  x="364.07" y="271.5" ></text>
</g>
<g >
<title>amd_iommu_flush_iotlb_all (923,853 samples, 0.08%)</title><rect x="1176.6" y="85" width="0.9" height="15.0" fill="rgb(248,198,47)" rx="2" ry="2" />
<text  x="1179.59" y="95.5" ></text>
</g>
<g >
<title>__handle_mm_fault (459,247 samples, 0.04%)</title><rect x="49.0" y="197" width="0.5" height="15.0" fill="rgb(207,9,2)" rx="2" ry="2" />
<text  x="51.99" y="207.5" ></text>
</g>
<g >
<title>page_remove_rmap (924,136 samples, 0.08%)</title><rect x="1189.0" y="133" width="1.0" height="15.0" fill="rgb(252,219,52)" rx="2" ry="2" />
<text  x="1192.01" y="143.5" ></text>
</g>
<g >
<title>generic_perform_write (2,771,673 samples, 0.24%)</title><rect x="1184.2" y="165" width="2.9" height="15.0" fill="rgb(236,146,35)" rx="2" ry="2" />
<text  x="1187.23" y="175.5" ></text>
</g>
<g >
<title>VP8ParseIntraModeRow (95,558,305 samples, 8.37%)</title><rect x="639.9" y="261" width="98.8" height="15.0" fill="rgb(231,121,29)" rx="2" ry="2" />
<text  x="642.94" y="271.5" >VP8ParseInt..</text>
</g>
<g >
<title>entry_SYSCALL_64_after_hwframe (2,771,673 samples, 0.24%)</title><rect x="1184.2" y="245" width="2.9" height="15.0" fill="rgb(218,63,15)" rx="2" ry="2" />
<text  x="1187.23" y="255.5" ></text>
</g>
<g >
<title>do_user_addr_fault (815,703 samples, 0.07%)</title><rect x="361.1" y="229" width="0.8" height="15.0" fill="rgb(228,108,25)" rx="2" ry="2" />
<text  x="364.07" y="239.5" ></text>
</g>
<g >
<title>__softirqentry_text_start (923,853 samples, 0.08%)</title><rect x="1176.6" y="181" width="0.9" height="15.0" fill="rgb(234,135,32)" rx="2" ry="2" />
<text  x="1179.59" y="191.5" ></text>
</g>
<g >
<title>HD4_C (3,692,632 samples, 0.32%)</title><rect x="30.0" y="277" width="3.8" height="15.0" fill="rgb(226,100,23)" rx="2" ry="2" />
<text  x="32.95" y="287.5" ></text>
</g>
<g >
<title>__sysvec_apic_timer_interrupt (924,369 samples, 0.08%)</title><rect x="395.3" y="213" width="1.0" height="15.0" fill="rgb(242,173,41)" rx="2" ry="2" />
<text  x="398.30" y="223.5" ></text>
</g>
<g >
<title>GetCoeffsFast (4,565,732 samples, 0.40%)</title><rect x="396.3" y="261" width="4.7" height="15.0" fill="rgb(219,64,15)" rx="2" ry="2" />
<text  x="399.26" y="271.5" ></text>
</g>
<g >
<title>handle_mm_fault (459,247 samples, 0.04%)</title><rect x="49.0" y="213" width="0.5" height="15.0" fill="rgb(234,135,32)" rx="2" ry="2" />
<text  x="51.99" y="223.5" ></text>
</g>
<g >
<title>handle_mm_fault (815,703 samples, 0.07%)</title><rect x="361.1" y="213" width="0.8" height="15.0" fill="rgb(234,135,32)" rx="2" ry="2" />
<text  x="364.07" y="223.5" ></text>
</g>
<g >
<title>fq_flush_iotlb (923,853 samples, 0.08%)</title><rect x="1176.6" y="101" width="0.9" height="15.0" fill="rgb(244,182,43)" rx="2" ry="2" />
<text  x="1179.59" y="111.5" ></text>
</g>
<g >
<title>VP8DecodeMB (12,917,357 samples, 1.13%)</title><rect x="367.6" y="277" width="13.4" height="15.0" fill="rgb(208,18,4)" rx="2" ry="2" />
<text  x="370.64" y="287.5" ></text>
</g>
<g >
<title>DC16_C (924,293 samples, 0.08%)</title><rect x="388.6" y="261" width="1.0" height="15.0" fill="rgb(229,113,27)" rx="2" ry="2" />
<text  x="391.62" y="271.5" ></text>
</g>
<g >
<title>balance_dirty_pages (1,847,770 samples, 0.16%)</title><rect x="1184.2" y="133" width="1.9" height="15.0" fill="rgb(247,193,46)" rx="2" ry="2" />
<text  x="1187.23" y="143.5" ></text>
</g>
<g >
<title>HE8uv_C (3,685,243 samples, 0.32%)</title><rect x="441.9" y="261" width="3.8" height="15.0" fill="rgb(226,98,23)" rx="2" ry="2" />
<text  x="444.89" y="271.5" ></text>
</g>
<g >
<title>GetLargeValue (39,614,245 samples, 3.47%)</title><rect x="401.0" y="261" width="40.9" height="15.0" fill="rgb(243,175,42)" rx="2" ry="2" />
<text  x="403.97" y="271.5" >Get..</text>
</g>
<g >
<title>do_syscall_64 (479,061 samples, 0.04%)</title><rect x="1187.1" y="245" width="0.5" height="15.0" fill="rgb(209,20,4)" rx="2" ry="2" />
<text  x="1190.09" y="255.5" ></text>
</g>
<g >
<title>ext4_block_write_begin (923,903 samples, 0.08%)</title><rect x="1186.1" y="133" width="1.0" height="15.0" fill="rgb(206,4,1)" rx="2" ry="2" />
<text  x="1189.14" y="143.5" ></text>
</g>
<g >
<title>UpsampleRgbLinePair_C (921,275 samples, 0.08%)</title><rect x="610.4" y="261" width="1.0" height="15.0" fill="rgb(228,108,26)" rx="2" ry="2" />
<text  x="613.44" y="271.5" ></text>
</g>
<g >
<title>VR4_C (923,221 samples, 0.08%)</title><rect x="387.7" y="277" width="0.9" height="15.0" fill="rgb(245,187,44)" rx="2" ry="2" />
<text  x="390.67" y="287.5" ></text>
</g>
<g >
<title>DC8uv_C (3,695,054 samples, 0.32%)</title><rect x="389.6" y="261" width="3.8" height="15.0" fill="rgb(215,46,11)" rx="2" ry="2" />
<text  x="392.57" y="271.5" ></text>
</g>
<g >
<title>ReconstructRow (15,608,578 samples, 1.37%)</title><rect x="447.5" y="261" width="16.1" height="15.0" fill="rgb(225,93,22)" rx="2" ry="2" />
<text  x="450.51" y="271.5" ></text>
</g>
<g >
<title>get_page_from_freelist (459,247 samples, 0.04%)</title><rect x="49.0" y="133" width="0.5" height="15.0" fill="rgb(252,218,52)" rx="2" ry="2" />
<text  x="51.99" y="143.5" ></text>
</g>
<g >
<title>perf_event_task_tick (924,369 samples, 0.08%)</title><rect x="395.3" y="101" width="1.0" height="15.0" fill="rgb(205,3,0)" rx="2" ry="2" />
<text  x="398.30" y="111.5" ></text>
</g>
<g >
<title>ext4_da_get_block_prep (923,903 samples, 0.08%)</title><rect x="1186.1" y="117" width="1.0" height="15.0" fill="rgb(241,168,40)" rx="2" ry="2" />
<text  x="1189.14" y="127.5" ></text>
</g>
<g >
<title>TransformAC3_C (921,461 samples, 0.08%)</title><rect x="480.4" y="261" width="0.9" height="15.0" fill="rgb(209,19,4)" rx="2" ry="2" />
<text  x="483.36" y="271.5" ></text>
</g>
<g >
<title>__memmove_avx_unaligned_erms (923,875 samples, 0.08%)</title><rect x="1187.6" y="277" width="0.9" height="15.0" fill="rgb(205,0,0)" rx="2" ry="2" />
<text  x="1190.59" y="287.5" ></text>
</g>
<g >
<title>__mod_zone_page_state (815,703 samples, 0.07%)</title><rect x="361.1" y="133" width="0.8" height="15.0" fill="rgb(221,74,17)" rx="2" ry="2" />
<text  x="364.07" y="143.5" ></text>
</g>
<g >
<title>DC4_C (13,773,152 samples, 1.21%)</title><rect x="10.0" y="277" width="14.2" height="15.0" fill="rgb(209,18,4)" rx="2" ry="2" />
<text  x="13.00" y="287.5" ></text>
</g>
<g >
<title>sysvec_apic_timer_interrupt (1,848,295 samples, 0.16%)</title><rect x="1176.6" y="213" width="1.9" height="15.0" fill="rgb(220,69,16)" rx="2" ry="2" />
<text  x="1179.59" y="223.5" ></text>
</g>
<g >
<title>do_exit (924,136 samples, 0.08%)</title><rect x="1189.0" y="213" width="1.0" height="15.0" fill="rgb(231,122,29)" rx="2" ry="2" />
<text  x="1192.01" y="223.5" ></text>
</g>
<g >
<title>amd_iommu_flush_iotlb_all (924,386 samples, 0.08%)</title><rect x="361.9" y="117" width="1.0" height="15.0" fill="rgb(248,198,47)" rx="2" ry="2" />
<text  x="364.91" y="127.5" ></text>
</g>
<g >
<title>GetLargeValue (5,543,222 samples, 0.49%)</title><rect x="1178.5" y="245" width="5.7" height="15.0" fill="rgb(243,175,42)" rx="2" ry="2" />
<text  x="1181.50" y="255.5" ></text>
</g>
<g >
<title>TM8uv_C (551,743 samples, 0.05%)</title><rect x="479.8" y="261" width="0.6" height="15.0" fill="rgb(247,193,46)" rx="2" ry="2" />
<text  x="482.79" y="271.5" ></text>
</g>
<g >
<title>do_execveat_common.isra.0 (479,061 samples, 0.04%)</title><rect x="1187.1" y="213" width="0.5" height="15.0" fill="rgb(231,123,29)" rx="2" ry="2" />
<text  x="1190.09" y="223.5" ></text>
</g>
<g >
<title>[unknown] (773,416,507 samples, 67.71%)</title><rect x="388.6" y="277" width="799.0" height="15.0" fill="rgb(210,24,5)" rx="2" ry="2" />
<text  x="391.62" y="287.5" >[unknown]</text>
</g>
<g >
<title>VP8ParseIntraModeRow (4,620,800 samples, 0.40%)</title><rect x="381.0" y="277" width="4.8" height="15.0" fill="rgb(231,121,29)" rx="2" ry="2" />
<text  x="383.98" y="287.5" ></text>
</g>
<g >
<title>__mmput (924,136 samples, 0.08%)</title><rect x="1189.0" y="197" width="1.0" height="15.0" fill="rgb(249,203,48)" rx="2" ry="2" />
<text  x="1192.01" y="207.5" ></text>
</g>
<g >
<title>check_preemption_disabled (815,703 samples, 0.07%)</title><rect x="361.1" y="117" width="0.8" height="15.0" fill="rgb(220,73,17)" rx="2" ry="2" />
<text  x="364.07" y="127.5" ></text>
</g>
<g >
<title>TransformOne_C (111,144,466 samples, 9.73%)</title><rect x="491.8" y="261" width="114.8" height="15.0" fill="rgb(218,59,14)" rx="2" ry="2" />
<text  x="494.81" y="271.5" >TransformOne_C</text>
</g>
<g >
<title>__x64_sys_exit_group (924,136 samples, 0.08%)</title><rect x="1189.0" y="245" width="1.0" height="15.0" fill="rgb(214,42,10)" rx="2" ry="2" />
<text  x="1192.01" y="255.5" ></text>
</g>
<g >
<title>tick_sched_handle (924,442 samples, 0.08%)</title><rect x="1177.5" y="133" width="1.0" height="15.0" fill="rgb(219,68,16)" rx="2" ry="2" />
<text  x="1180.55" y="143.5" ></text>
</g>
<g >
<title>delay_halt (923,853 samples, 0.08%)</title><rect x="1176.6" y="53" width="0.9" height="15.0" fill="rgb(250,207,49)" rx="2" ry="2" />
<text  x="1179.59" y="63.5" ></text>
</g>
<g >
<title>exc_page_fault (815,703 samples, 0.07%)</title><rect x="361.1" y="245" width="0.8" height="15.0" fill="rgb(212,35,8)" rx="2" ry="2" />
<text  x="364.07" y="255.5" ></text>
</g>
<g >
<title>__handle_mm_fault (815,703 samples, 0.07%)</title><rect x="361.1" y="197" width="0.8" height="15.0" fill="rgb(207,9,2)" rx="2" ry="2" />
<text  x="364.07" y="207.5" ></text>
</g>
<g >
<title>TransformDC_C (5,518,681 samples, 0.48%)</title><rect x="63.5" y="277" width="5.7" height="15.0" fill="rgb(219,65,15)" rx="2" ry="2" />
<text  x="66.55" y="287.5" ></text>
</g>
<g >
<title>amd_pmu_addr_offset (924,369 samples, 0.08%)</title><rect x="395.3" y="53" width="1.0" height="15.0" fill="rgb(227,104,25)" rx="2" ry="2" />
<text  x="398.30" y="63.5" ></text>
</g>
<g >
<title>load_elf_binary (479,061 samples, 0.04%)</title><rect x="1187.1" y="181" width="0.5" height="15.0" fill="rgb(223,83,20)" rx="2" ry="2" />
<text  x="1190.09" y="191.5" ></text>
</g>
<g >
<title>hrtimer_interrupt (924,369 samples, 0.08%)</title><rect x="395.3" y="197" width="1.0" height="15.0" fill="rgb(228,109,26)" rx="2" ry="2" />
<text  x="398.30" y="207.5" ></text>
</g>
<g >
<title>TransformWHT_C (2,772,408 samples, 0.24%)</title><rect x="607.6" y="261" width="2.8" height="15.0" fill="rgb(221,76,18)" rx="2" ry="2" />
<text  x="610.58" y="271.5" ></text>
</g>
<g >
<title>update_process_times (924,442 samples, 0.08%)</title><rect x="1177.5" y="117" width="1.0" height="15.0" fill="rgb(250,209,50)" rx="2" ry="2" />
<text  x="1180.55" y="127.5" ></text>
</g>
<g >
<title>fq_flush_timeout (924,386 samples, 0.08%)</title><rect x="361.9" y="149" width="1.0" height="15.0" fill="rgb(213,40,9)" rx="2" ry="2" />
<text  x="364.91" y="159.5" ></text>
</g>
<g >
<title>__mem_cgroup_flush_stats (1,847,770 samples, 0.16%)</title><rect x="1184.2" y="101" width="1.9" height="15.0" fill="rgb(208,16,3)" rx="2" ry="2" />
<text  x="1187.23" y="111.5" ></text>
</g>
<g >
<title>delay_halt (924,386 samples, 0.08%)</title><rect x="361.9" y="85" width="1.0" height="15.0" fill="rgb(250,207,49)" rx="2" ry="2" />
<text  x="364.91" y="95.5" ></text>
</g>
<g >
<title>exit_mmap (924,136 samples, 0.08%)</title><rect x="1189.0" y="181" width="1.0" height="15.0" fill="rgb(236,143,34)" rx="2" ry="2" />
<text  x="1192.01" y="191.5" ></text>
</g>
<g >
<title>begin_new_exec (118,517 samples, 0.01%)</title><rect x="1187.1" y="165" width="0.1" height="15.0" fill="rgb(245,184,44)" rx="2" ry="2" />
<text  x="1190.09" y="175.5" ></text>
</g>
<g >
<title>amd_pmu_check_overflow (924,442 samples, 0.08%)</title><rect x="1177.5" y="69" width="1.0" height="15.0" fill="rgb(207,10,2)" rx="2" ry="2" />
<text  x="1180.55" y="79.5" ></text>
</g>
<g >
<title>iommu_completion_wait.isra.0 (924,386 samples, 0.08%)</title><rect x="361.9" y="101" width="1.0" height="15.0" fill="rgb(225,94,22)" rx="2" ry="2" />
<text  x="364.91" y="111.5" ></text>
</g>
<g >
<title>UpsampleRgbLinePair_C (284,226,769 samples, 24.88%)</title><rect x="69.2" y="277" width="293.7" height="15.0" fill="rgb(228,108,26)" rx="2" ry="2" />
<text  x="72.25" y="287.5" >UpsampleRgbLinePair_C</text>
</g>
<g >
<title>ext4_da_write_begin (923,903 samples, 0.08%)</title><rect x="1186.1" y="149" width="1.0" height="15.0" fill="rgb(211,32,7)" rx="2" ry="2" />
<text  x="1189.14" y="159.5" ></text>
</g>
<g >
<title>ReconstructRow (5,077,332 samples, 0.44%)</title><rect x="44.2" y="277" width="5.3" height="15.0" fill="rgb(225,93,22)" rx="2" ry="2" />
<text  x="47.22" y="287.5" ></text>
</g>
<g >
<title>balance_dirty_pages_ratelimited_flags (1,847,770 samples, 0.16%)</title><rect x="1184.2" y="149" width="1.9" height="15.0" fill="rgb(207,10,2)" rx="2" ry="2" />
<text  x="1187.23" y="159.5" ></text>
</g>
<g >
<title>[unknown] (431,327,731 samples, 37.76%)</title><rect x="738.7" y="261" width="445.5" height="15.0" fill="rgb(210,24,5)" rx="2" ry="2" />
<text  x="741.65" y="271.5" >[unknown]</text>
</g>
<g >
<title>tick_sched_timer (924,369 samples, 0.08%)</title><rect x="395.3" y="165" width="1.0" height="15.0" fill="rgb(254,227,54)" rx="2" ry="2" />
<text  x="398.30" y="175.5" ></text>
</g>
<g >
<title>__mod_lruvec_page_state (924,136 samples, 0.08%)</title><rect x="1189.0" y="117" width="1.0" height="15.0" fill="rgb(245,185,44)" rx="2" ry="2" />
<text  x="1192.01" y="127.5" ></text>
</g>
<g >
<title>RD4_C (5,502,004 samples, 0.48%)</title><rect x="38.5" y="277" width="5.7" height="15.0" fill="rgb(212,32,7)" rx="2" ry="2" />
<text  x="41.54" y="287.5" ></text>
</g>
<g >
<title>delay_halt_mwaitx (924,386 samples, 0.08%)</title><rect x="361.9" y="69" width="1.0" height="15.0" fill="rgb(234,133,31)" rx="2" ry="2" />
<text  x="364.91" y="79.5" ></text>
</g>
<g >
<title>TM16_C (1,847,802 samples, 0.16%)</title><rect x="477.9" y="261" width="1.9" height="15.0" fill="rgb(211,30,7)" rx="2" ry="2" />
<text  x="480.88" y="271.5" ></text>
</g>
<g >
<title>iommu_completion_wait.isra.0 (923,853 samples, 0.08%)</title><rect x="1176.6" y="69" width="0.9" height="15.0" fill="rgb(225,94,22)" rx="2" ry="2" />
<text  x="1179.59" y="79.5" ></text>
</g>
<g >
<title>vfs_write (2,771,673 samples, 0.24%)</title><rect x="1184.2" y="197" width="2.9" height="15.0" fill="rgb(250,209,50)" rx="2" ry="2" />
<text  x="1187.23" y="207.5" ></text>
</g>
<g >
<title>__register_frame_info (457,289 samples, 0.04%)</title><rect x="1188.5" y="277" width="0.5" height="15.0" fill="rgb(251,215,51)" rx="2" ry="2" />
<text  x="1191.54" y="287.5" ></text>
</g>
<g >
<title>TM4_C (2,770,759 samples, 0.24%)</title><rect x="55.2" y="277" width="2.9" height="15.0" fill="rgb(241,165,39)" rx="2" ry="2" />
<text  x="58.19" y="287.5" ></text>
</g>
</g>
</svg>
