<?xml version="1.0" standalone="no"?>
<!DOCTYPE svg PUBLIC "-//W3C//DTD SVG 1.1//EN" "http://www.w3.org/Graphics/SVG/1.1/DTD/svg11.dtd">
<svg version="1.1" width="1200" height="374" onload="init(evt)" viewBox="0 0 1200 374" xmlns="http://www.w3.org/2000/svg" xmlns:xlink="http://www.w3.org/1999/xlink">
<!-- Flame graph stack visualization. See https://github.com/brendangregg/FlameGraph for latest version, and http://www.brendangregg.com/flamegraphs.html for examples. -->
<!-- NOTES:  -->
<defs>
	<linearGradient id="background" y1="0" y2="1" x1="0" x2="0" >
		<stop stop-color="#eeeeee" offset="5%" />
		<stop stop-color="#eeeeb0" offset="95%" />
	</linearGradient>
</defs>
<style type="text/css">
	text { font-family:Verdana; font-size:12px; fill:rgb(0,0,0); }
	#search, #ignorecase { opacity:0.1; cursor:pointer; }
	#search:hover, #search.show, #ignorecase:hover, #ignorecase.show { opacity:1; }
	#subtitle { text-anchor:middle; font-color:rgb(160,160,160); }
	#title { text-anchor:middle; font-size:17px}
	#unzoom { cursor:pointer; }
	#frames > *:hover { stroke:black; stroke-width:0.5; cursor:pointer; }
	.hide { display:none; }
	.parent { opacity:0.5; }
</style>
<script type="text/ecmascript">
<![CDATA[
	"use strict";
	var details, searchbtn, unzoombtn, matchedtxt, svg, searching, currentSearchTerm, ignorecase, ignorecaseBtn;
	function init(evt) {
		details = document.getElementById("details").firstChild;
		searchbtn = document.getElementById("search");
		ignorecaseBtn = document.getElementById("ignorecase");
		unzoombtn = document.getElementById("unzoom");
		matchedtxt = document.getElementById("matched");
		svg = document.getElementsByTagName("svg")[0];
		searching = 0;
		currentSearchTerm = null;

		// use GET parameters to restore a flamegraphs state.
		var params = get_params();
		if (params.x && params.y)
			zoom(find_group(document.querySelector('[x="' + params.x + '"][y="' + params.y + '"]')));
                if (params.s) search(params.s);
	}

	// event listeners
	window.addEventListener("click", function(e) {
		var target = find_group(e.target);
		if (target) {
			if (target.nodeName == "a") {
				if (e.ctrlKey === false) return;
				e.preventDefault();
			}
			if (target.classList.contains("parent")) unzoom(true);
			zoom(target);
			if (!document.querySelector('.parent')) {
				// we have basically done a clearzoom so clear the url
				var params = get_params();
				if (params.x) delete params.x;
				if (params.y) delete params.y;
				history.replaceState(null, null, parse_params(params));
				unzoombtn.classList.add("hide");
				return;
			}

			// set parameters for zoom state
			var el = target.querySelector("rect");
			if (el && el.attributes && el.attributes.y && el.attributes._orig_x) {
				var params = get_params()
				params.x = el.attributes._orig_x.value;
				params.y = el.attributes.y.value;
				history.replaceState(null, null, parse_params(params));
			}
		}
		else if (e.target.id == "unzoom") clearzoom();
		else if (e.target.id == "search") search_prompt();
		else if (e.target.id == "ignorecase") toggle_ignorecase();
	}, false)

	// mouse-over for info
	// show
	window.addEventListener("mouseover", function(e) {
		var target = find_group(e.target);
		if (target) details.nodeValue = "Function: " + g_to_text(target);
	}, false)

	// clear
	window.addEventListener("mouseout", function(e) {
		var target = find_group(e.target);
		if (target) details.nodeValue = ' ';
	}, false)

	// ctrl-F for search
	// ctrl-I to toggle case-sensitive search
	window.addEventListener("keydown",function (e) {
		if (e.keyCode === 114 || (e.ctrlKey && e.keyCode === 70)) {
			e.preventDefault();
			search_prompt();
		}
		else if (e.ctrlKey && e.keyCode === 73) {
			e.preventDefault();
			toggle_ignorecase();
		}
	}, false)

	// functions
	function get_params() {
		var params = {};
		var paramsarr = window.location.search.substr(1).split('&');
		for (var i = 0; i < paramsarr.length; ++i) {
			var tmp = paramsarr[i].split("=");
			if (!tmp[0] || !tmp[1]) continue;
			params[tmp[0]]  = decodeURIComponent(tmp[1]);
		}
		return params;
	}
	function parse_params(params) {
		var uri = "?";
		for (var key in params) {
			uri += key + '=' + encodeURIComponent(params[key]) + '&';
		}
		if (uri.slice(-1) == "&")
			uri = uri.substring(0, uri.length - 1);
		if (uri == '?')
			uri = window.location.href.split('?')[0];
		return uri;
	}
	function find_child(node, selector) {
		var children = node.querySelectorAll(selector);
		if (children.length) return children[0];
	}
	function find_group(node) {
		var parent = node.parentElement;
		if (!parent) return;
		if (parent.id == "frames") return node;
		return find_group(parent);
	}
	function orig_save(e, attr, val) {
		if (e.attributes["_orig_" + attr] != undefined) return;
		if (e.attributes[attr] == undefined) return;
		if (val == undefined) val = e.attributes[attr].value;
		e.setAttribute("_orig_" + attr, val);
	}
	function orig_load(e, attr) {
		if (e.attributes["_orig_"+attr] == undefined) return;
		e.attributes[attr].value = e.attributes["_orig_" + attr].value;
		e.removeAttribute("_orig_"+attr);
	}
	function g_to_text(e) {
		var text = find_child(e, "title").firstChild.nodeValue;
		return (text)
	}
	function g_to_func(e) {
		var func = g_to_text(e);
		// if there's any manipulation we want to do to the function
		// name before it's searched, do it here before returning.
		return (func);
	}
	function update_text(e) {
		var r = find_child(e, "rect");
		var t = find_child(e, "text");
		var w = parseFloat(r.attributes.width.value) -3;
		var txt = find_child(e, "title").textContent.replace(/\([^(]*\)$/,"");
		t.attributes.x.value = parseFloat(r.attributes.x.value) + 3;

		// Smaller than this size won't fit anything
		if (w < 2 * 12 * 0.59) {
			t.textContent = "";
			return;
		}

		t.textContent = txt;
		var sl = t.getSubStringLength(0, txt.length);
		// check if only whitespace or if we can fit the entire string into width w
		if (/^ *$/.test(txt) || sl < w)
			return;

		// this isn't perfect, but gives a good starting point
		// and avoids calling getSubStringLength too often
		var start = Math.floor((w/sl) * txt.length);
		for (var x = start; x > 0; x = x-2) {
			if (t.getSubStringLength(0, x + 2) <= w) {
				t.textContent = txt.substring(0, x) + "..";
				return;
			}
		}
		t.textContent = "";
	}

	// zoom
	function zoom_reset(e) {
		if (e.attributes != undefined) {
			orig_load(e, "x");
			orig_load(e, "width");
		}
		if (e.childNodes == undefined) return;
		for (var i = 0, c = e.childNodes; i < c.length; i++) {
			zoom_reset(c[i]);
		}
	}
	function zoom_child(e, x, ratio) {
		if (e.attributes != undefined) {
			if (e.attributes.x != undefined) {
				orig_save(e, "x");
				e.attributes.x.value = (parseFloat(e.attributes.x.value) - x - 10) * ratio + 10;
				if (e.tagName == "text")
					e.attributes.x.value = find_child(e.parentNode, "rect[x]").attributes.x.value + 3;
			}
			if (e.attributes.width != undefined) {
				orig_save(e, "width");
				e.attributes.width.value = parseFloat(e.attributes.width.value) * ratio;
			}
		}

		if (e.childNodes == undefined) return;
		for (var i = 0, c = e.childNodes; i < c.length; i++) {
			zoom_child(c[i], x - 10, ratio);
		}
	}
	function zoom_parent(e) {
		if (e.attributes) {
			if (e.attributes.x != undefined) {
				orig_save(e, "x");
				e.attributes.x.value = 10;
			}
			if (e.attributes.width != undefined) {
				orig_save(e, "width");
				e.attributes.width.value = parseInt(svg.width.baseVal.value) - (10 * 2);
			}
		}
		if (e.childNodes == undefined) return;
		for (var i = 0, c = e.childNodes; i < c.length; i++) {
			zoom_parent(c[i]);
		}
	}
	function zoom(node) {
		var attr = find_child(node, "rect").attributes;
		var width = parseFloat(attr.width.value);
		var xmin = parseFloat(attr.x.value);
		var xmax = parseFloat(xmin + width);
		var ymin = parseFloat(attr.y.value);
		var ratio = (svg.width.baseVal.value - 2 * 10) / width;

		// XXX: Workaround for JavaScript float issues (fix me)
		var fudge = 0.0001;

		unzoombtn.classList.remove("hide");

		var el = document.getElementById("frames").children;
		for (var i = 0; i < el.length; i++) {
			var e = el[i];
			var a = find_child(e, "rect").attributes;
			var ex = parseFloat(a.x.value);
			var ew = parseFloat(a.width.value);
			var upstack;
			// Is it an ancestor
			if (0 == 0) {
				upstack = parseFloat(a.y.value) > ymin;
			} else {
				upstack = parseFloat(a.y.value) < ymin;
			}
			if (upstack) {
				// Direct ancestor
				if (ex <= xmin && (ex+ew+fudge) >= xmax) {
					e.classList.add("parent");
					zoom_parent(e);
					update_text(e);
				}
				// not in current path
				else
					e.classList.add("hide");
			}
			// Children maybe
			else {
				// no common path
				if (ex < xmin || ex + fudge >= xmax) {
					e.classList.add("hide");
				}
				else {
					zoom_child(e, xmin, ratio);
					update_text(e);
				}
			}
		}
		search();
	}
	function unzoom(dont_update_text) {
		unzoombtn.classList.add("hide");
		var el = document.getElementById("frames").children;
		for(var i = 0; i < el.length; i++) {
			el[i].classList.remove("parent");
			el[i].classList.remove("hide");
			zoom_reset(el[i]);
			if(!dont_update_text) update_text(el[i]);
		}
		search();
	}
	function clearzoom() {
		unzoom();

		// remove zoom state
		var params = get_params();
		if (params.x) delete params.x;
		if (params.y) delete params.y;
		history.replaceState(null, null, parse_params(params));
	}

	// search
	function toggle_ignorecase() {
		ignorecase = !ignorecase;
		if (ignorecase) {
			ignorecaseBtn.classList.add("show");
		} else {
			ignorecaseBtn.classList.remove("show");
		}
		reset_search();
		search();
	}
	function reset_search() {
		var el = document.querySelectorAll("#frames rect");
		for (var i = 0; i < el.length; i++) {
			orig_load(el[i], "fill")
		}
		var params = get_params();
		delete params.s;
		history.replaceState(null, null, parse_params(params));
	}
	function search_prompt() {
		if (!searching) {
			var term = prompt("Enter a search term (regexp " +
			    "allowed, eg: ^ext4_)"
			    + (ignorecase ? ", ignoring case" : "")
			    + "\nPress Ctrl-i to toggle case sensitivity", "");
			if (term != null) search(term);
		} else {
			reset_search();
			searching = 0;
			currentSearchTerm = null;
			searchbtn.classList.remove("show");
			searchbtn.firstChild.nodeValue = "Search"
			matchedtxt.classList.add("hide");
			matchedtxt.firstChild.nodeValue = ""
		}
	}
	function search(term) {
		if (term) currentSearchTerm = term;

		var re = new RegExp(currentSearchTerm, ignorecase ? 'i' : '');
		var el = document.getElementById("frames").children;
		var matches = new Object();
		var maxwidth = 0;
		for (var i = 0; i < el.length; i++) {
			var e = el[i];
			var func = g_to_func(e);
			var rect = find_child(e, "rect");
			if (func == null || rect == null)
				continue;

			// Save max width. Only works as we have a root frame
			var w = parseFloat(rect.attributes.width.value);
			if (w > maxwidth)
				maxwidth = w;

			if (func.match(re)) {
				// highlight
				var x = parseFloat(rect.attributes.x.value);
				orig_save(rect, "fill");
				rect.attributes.fill.value = "rgb(230,0,230)";

				// remember matches
				if (matches[x] == undefined) {
					matches[x] = w;
				} else {
					if (w > matches[x]) {
						// overwrite with parent
						matches[x] = w;
					}
				}
				searching = 1;
			}
		}
		if (!searching)
			return;
		var params = get_params();
		params.s = currentSearchTerm;
		history.replaceState(null, null, parse_params(params));

		searchbtn.classList.add("show");
		searchbtn.firstChild.nodeValue = "Reset Search";

		// calculate percent matched, excluding vertical overlap
		var count = 0;
		var lastx = -1;
		var lastw = 0;
		var keys = Array();
		for (k in matches) {
			if (matches.hasOwnProperty(k))
				keys.push(k);
		}
		// sort the matched frames by their x location
		// ascending, then width descending
		keys.sort(function(a, b){
			return a - b;
		});
		// Step through frames saving only the biggest bottom-up frames
		// thanks to the sort order. This relies on the tree property
		// where children are always smaller than their parents.
		var fudge = 0.0001;	// JavaScript floating point
		for (var k in keys) {
			var x = parseFloat(keys[k]);
			var w = matches[keys[k]];
			if (x >= lastx + lastw - fudge) {
				count += w;
				lastx = x;
				lastw = w;
			}
		}
		// display matched percent
		matchedtxt.classList.remove("hide");
		var pct = 100 * count / maxwidth;
		if (pct != 100) pct = pct.toFixed(1)
		matchedtxt.firstChild.nodeValue = "Matched: " + pct + "%";
	}
]]>
</script>
<rect x="0.0" y="0" width="1200.0" height="374.0" fill="url(#background)"  />
<text id="title" x="600.00" y="24" >Flame Graph</text>
<text id="details" x="10.00" y="357" > </text>
<text id="unzoom" x="10.00" y="24" class="hide">Reset Zoom</text>
<text id="search" x="1090.00" y="24" >Search</text>
<text id="ignorecase" x="1174.00" y="24" >ic</text>
<text id="matched" x="1090.00" y="357" > </text>
<g id="frames">
<g >
<title>exc_page_fault (671,381 samples, 0.08%)</title><rect x="10.0" y="229" width="1.0" height="15.0" fill="rgb(212,35,8)" rx="2" ry="2" />
<text  x="13.00" y="239.5" ></text>
</g>
<g >
<title>asm_exc_page_fault (635,263 samples, 0.08%)</title><rect x="13.6" y="261" width="1.0" height="15.0" fill="rgb(225,93,22)" rx="2" ry="2" />
<text  x="16.64" y="271.5" ></text>
</g>
<g >
<title>flush_tlb_mm_range (307,967 samples, 0.04%)</title><rect x="14.6" y="133" width="0.4" height="15.0" fill="rgb(215,48,11)" rx="2" ry="2" />
<text  x="17.59" y="143.5" ></text>
</g>
<g >
<title>w2c_decode__webp__wasmsimd_PredictorAdd12_C (1,846,602 samples, 0.23%)</title><rect x="47.5" y="277" width="2.8" height="15.0" fill="rgb(235,138,33)" rx="2" ry="2" />
<text  x="50.54" y="287.5" ></text>
</g>
<g >
<title>__filemap_get_folio (890,657 samples, 0.11%)</title><rect x="12.3" y="133" width="1.3" height="15.0" fill="rgb(231,120,28)" rx="2" ry="2" />
<text  x="15.32" y="143.5" ></text>
</g>
<g >
<title>handle_mm_fault (671,381 samples, 0.08%)</title><rect x="10.0" y="197" width="1.0" height="15.0" fill="rgb(234,135,32)" rx="2" ry="2" />
<text  x="13.00" y="207.5" ></text>
</g>
<g >
<title>ext4_da_write_begin (890,657 samples, 0.11%)</title><rect x="12.3" y="165" width="1.3" height="15.0" fill="rgb(211,32,7)" rx="2" ry="2" />
<text  x="15.32" y="175.5" ></text>
</g>
<g >
<title>notify_change (885,064 samples, 0.11%)</title><rect x="11.0" y="149" width="1.3" height="15.0" fill="rgb(237,150,35)" rx="2" ry="2" />
<text  x="14.00" y="159.5" ></text>
</g>
<g >
<title>pagecache_get_page (890,657 samples, 0.11%)</title><rect x="12.3" y="149" width="1.3" height="15.0" fill="rgb(253,221,53)" rx="2" ry="2" />
<text  x="15.32" y="159.5" ></text>
</g>
<g >
<title>__libc_open64 (885,064 samples, 0.11%)</title><rect x="11.0" y="277" width="1.3" height="15.0" fill="rgb(235,140,33)" rx="2" ry="2" />
<text  x="14.00" y="287.5" ></text>
</g>
<g >
<title>__folio_alloc (646,677 samples, 0.08%)</title><rect x="301.5" y="181" width="1.0" height="15.0" fill="rgb(224,91,21)" rx="2" ry="2" />
<text  x="304.49" y="191.5" ></text>
</g>
<g >
<title>truncate_inode_pages_range (885,064 samples, 0.11%)</title><rect x="11.0" y="101" width="1.3" height="15.0" fill="rgb(245,187,44)" rx="2" ry="2" />
<text  x="14.00" y="111.5" ></text>
</g>
<g >
<title>vmf_insert_pfn_prot (671,381 samples, 0.08%)</title><rect x="10.0" y="133" width="1.0" height="15.0" fill="rgb(207,13,3)" rx="2" ry="2" />
<text  x="13.00" y="143.5" ></text>
</g>
<g >
<title>__handle_mm_fault (635,263 samples, 0.08%)</title><rect x="13.6" y="197" width="1.0" height="15.0" fill="rgb(207,9,2)" rx="2" ry="2" />
<text  x="16.64" y="207.5" ></text>
</g>
<g >
<title>find_next_iomem_res (671,381 samples, 0.08%)</title><rect x="10.0" y="53" width="1.0" height="15.0" fill="rgb(253,222,53)" rx="2" ry="2" />
<text  x="13.00" y="63.5" ></text>
</g>
<g >
<title>path_openat (885,064 samples, 0.11%)</title><rect x="11.0" y="181" width="1.3" height="15.0" fill="rgb(249,202,48)" rx="2" ry="2" />
<text  x="14.00" y="191.5" ></text>
</g>
<g >
<title>__x64_sys_exit_group (895,718 samples, 0.11%)</title><rect x="246.3" y="261" width="1.3" height="15.0" fill="rgb(214,42,10)" rx="2" ry="2" />
<text  x="249.27" y="271.5" ></text>
</g>
<g >
<title>__strncasecmp (635,263 samples, 0.08%)</title><rect x="13.6" y="277" width="1.0" height="15.0" fill="rgb(218,61,14)" rx="2" ry="2" />
<text  x="16.64" y="287.5" ></text>
</g>
<g >
<title>exc_page_fault (762,264 samples, 0.10%)</title><rect x="749.2" y="261" width="1.2" height="15.0" fill="rgb(212,35,8)" rx="2" ry="2" />
<text  x="752.25" y="271.5" ></text>
</g>
<g >
<title>w2c_decode__webp__wasmsimd_PredictorAdd13_C (87,731,378 samples, 11.07%)</title><rect x="50.3" y="277" width="130.7" height="15.0" fill="rgb(228,108,26)" rx="2" ry="2" />
<text  x="53.29" y="287.5" >w2c_decode__webp..</text>
</g>
<g >
<title>__x64_sys_openat (885,064 samples, 0.11%)</title><rect x="11.0" y="229" width="1.3" height="15.0" fill="rgb(251,215,51)" rx="2" ry="2" />
<text  x="14.00" y="239.5" ></text>
</g>
<g >
<title>truncate_cleanup_folio (885,064 samples, 0.11%)</title><rect x="11.0" y="85" width="1.3" height="15.0" fill="rgb(240,165,39)" rx="2" ry="2" />
<text  x="14.00" y="95.5" ></text>
</g>
<g >
<title>do_truncate (885,064 samples, 0.11%)</title><rect x="11.0" y="165" width="1.3" height="15.0" fill="rgb(216,53,12)" rx="2" ry="2" />
<text  x="14.00" y="175.5" ></text>
</g>
<g >
<title>do_sys_openat2 (885,064 samples, 0.11%)</title><rect x="11.0" y="213" width="1.3" height="15.0" fill="rgb(253,221,52)" rx="2" ry="2" />
<text  x="14.00" y="223.5" ></text>
</g>
<g >
<title>do_user_addr_fault (635,263 samples, 0.08%)</title><rect x="13.6" y="229" width="1.0" height="15.0" fill="rgb(228,108,25)" rx="2" ry="2" />
<text  x="16.64" y="239.5" ></text>
</g>
<g >
<title>do_exit (895,718 samples, 0.11%)</title><rect x="246.3" y="229" width="1.3" height="15.0" fill="rgb(231,122,29)" rx="2" ry="2" />
<text  x="249.27" y="239.5" ></text>
</g>
<g >
<title>do_execveat_common.isra.0 (307,967 samples, 0.04%)</title><rect x="14.6" y="229" width="0.4" height="15.0" fill="rgb(231,123,29)" rx="2" ry="2" />
<text  x="17.59" y="239.5" ></text>
</g>
<g >
<title>get_page_from_freelist (646,677 samples, 0.08%)</title><rect x="301.5" y="149" width="1.0" height="15.0" fill="rgb(252,218,52)" rx="2" ry="2" />
<text  x="304.49" y="159.5" ></text>
</g>
<g >
<title>clear_page_rep (646,677 samples, 0.08%)</title><rect x="301.5" y="133" width="1.0" height="15.0" fill="rgb(253,221,52)" rx="2" ry="2" />
<text  x="304.49" y="143.5" ></text>
</g>
<g >
<title>w2c_decode__webp__wasmsimd_PredictorAdd4_C (924,181 samples, 0.12%)</title><rect x="860.9" y="293" width="1.4" height="15.0" fill="rgb(238,155,37)" rx="2" ry="2" />
<text  x="863.88" y="303.5" ></text>
</g>
<g >
<title>w2c_decode__webp__wasmsimd_PredictorAdd1_C (3,563,806 samples, 0.45%)</title><rect x="181.0" y="277" width="5.3" height="15.0" fill="rgb(208,14,3)" rx="2" ry="2" />
<text  x="183.95" y="287.5" ></text>
</g>
<g >
<title>unmap_vmas (895,718 samples, 0.11%)</title><rect x="246.3" y="181" width="1.3" height="15.0" fill="rgb(243,176,42)" rx="2" ry="2" />
<text  x="249.27" y="191.5" ></text>
</g>
<g >
<title>asm_exc_page_fault (762,264 samples, 0.10%)</title><rect x="749.2" y="277" width="1.2" height="15.0" fill="rgb(225,93,22)" rx="2" ry="2" />
<text  x="752.25" y="287.5" ></text>
</g>
<g >
<title>walk_system_ram_range (671,381 samples, 0.08%)</title><rect x="10.0" y="69" width="1.0" height="15.0" fill="rgb(206,6,1)" rx="2" ry="2" />
<text  x="13.00" y="79.5" ></text>
</g>
<g >
<title>unmap_page_range (895,718 samples, 0.11%)</title><rect x="246.3" y="165" width="1.3" height="15.0" fill="rgb(206,5,1)" rx="2" ry="2" />
<text  x="249.27" y="175.5" ></text>
</g>
<g >
<title>do_syscall_64 (895,718 samples, 0.11%)</title><rect x="246.3" y="277" width="1.3" height="15.0" fill="rgb(209,20,4)" rx="2" ry="2" />
<text  x="249.27" y="287.5" ></text>
</g>
<g >
<title>w2c_decode__webp__wasmsimd_ProcessRows (923,152 samples, 0.12%)</title><rect x="862.3" y="293" width="1.3" height="15.0" fill="rgb(248,202,48)" rx="2" ry="2" />
<text  x="865.26" y="303.5" ></text>
</g>
<g >
<title>try_to_free_buffers (885,064 samples, 0.11%)</title><rect x="11.0" y="69" width="1.3" height="15.0" fill="rgb(249,206,49)" rx="2" ry="2" />
<text  x="14.00" y="79.5" ></text>
</g>
<g >
<title>vfs_write (890,657 samples, 0.11%)</title><rect x="12.3" y="213" width="1.3" height="15.0" fill="rgb(250,209,50)" rx="2" ry="2" />
<text  x="15.32" y="223.5" ></text>
</g>
<g >
<title>w2c_decode__webp__wasmsimd_PredictorAdd3_C (1,764,937 samples, 0.22%)</title><rect x="858.3" y="293" width="2.6" height="15.0" fill="rgb(245,184,44)" rx="2" ry="2" />
<text  x="861.25" y="303.5" ></text>
</g>
<g >
<title>entry_SYSCALL_64_after_hwframe (890,657 samples, 0.11%)</title><rect x="12.3" y="261" width="1.3" height="15.0" fill="rgb(218,63,15)" rx="2" ry="2" />
<text  x="15.32" y="271.5" ></text>
</g>
<g >
<title>do_user_addr_fault (646,677 samples, 0.08%)</title><rect x="301.5" y="245" width="1.0" height="15.0" fill="rgb(228,108,25)" rx="2" ry="2" />
<text  x="304.49" y="255.5" ></text>
</g>
<g >
<title>do_syscall_64 (890,657 samples, 0.11%)</title><rect x="12.3" y="245" width="1.3" height="15.0" fill="rgb(209,20,4)" rx="2" ry="2" />
<text  x="15.32" y="255.5" ></text>
</g>
<g >
<title>handle_mm_fault (646,677 samples, 0.08%)</title><rect x="301.5" y="229" width="1.0" height="15.0" fill="rgb(234,135,32)" rx="2" ry="2" />
<text  x="304.49" y="239.5" ></text>
</g>
<g >
<title>handle_mm_fault (762,264 samples, 0.10%)</title><rect x="749.2" y="229" width="1.2" height="15.0" fill="rgb(234,135,32)" rx="2" ry="2" />
<text  x="752.25" y="239.5" ></text>
</g>
<g >
<title>w2c_decode__webp__wasmsimd_DecodeImageStream (924,068 samples, 0.12%)</title><rect x="750.4" y="293" width="1.4" height="15.0" fill="rgb(233,130,31)" rx="2" ry="2" />
<text  x="753.38" y="303.5" ></text>
</g>
<g >
<title>bprm_execve (307,967 samples, 0.04%)</title><rect x="14.6" y="213" width="0.4" height="15.0" fill="rgb(218,61,14)" rx="2" ry="2" />
<text  x="17.59" y="223.5" ></text>
</g>
<g >
<title>__mod_lruvec_page_state (890,657 samples, 0.11%)</title><rect x="12.3" y="85" width="1.3" height="15.0" fill="rgb(245,185,44)" rx="2" ry="2" />
<text  x="15.32" y="95.5" ></text>
</g>
<g >
<title>do_filp_open (885,064 samples, 0.11%)</title><rect x="11.0" y="197" width="1.3" height="15.0" fill="rgb(211,28,6)" rx="2" ry="2" />
<text  x="14.00" y="207.5" ></text>
</g>
<g >
<title>do_fault (635,263 samples, 0.08%)</title><rect x="13.6" y="181" width="1.0" height="15.0" fill="rgb(248,200,47)" rx="2" ry="2" />
<text  x="16.64" y="191.5" ></text>
</g>
<g >
<title>lookup_memtype (671,381 samples, 0.08%)</title><rect x="10.0" y="101" width="1.0" height="15.0" fill="rgb(229,114,27)" rx="2" ry="2" />
<text  x="13.00" y="111.5" ></text>
</g>
<g >
<title>generic_perform_write (890,657 samples, 0.11%)</title><rect x="12.3" y="181" width="1.3" height="15.0" fill="rgb(236,146,35)" rx="2" ry="2" />
<text  x="15.32" y="191.5" ></text>
</g>
<g >
<title>__gettimeofday (671,381 samples, 0.08%)</title><rect x="10.0" y="277" width="1.0" height="15.0" fill="rgb(254,228,54)" rx="2" ry="2" />
<text  x="13.00" y="287.5" ></text>
</g>
<g >
<title>w2c_decode__webp__wasmsimd_PredictorAdd7_C (6,306,977 samples, 0.80%)</title><rect x="194.4" y="277" width="9.4" height="15.0" fill="rgb(219,66,15)" rx="2" ry="2" />
<text  x="197.40" y="287.5" ></text>
</g>
<g >
<title>w2c_decode__webp__wasmsimd_VP8LConvertBGRAToRGB_C (49,850,298 samples, 6.29%)</title><rect x="953.2" y="293" width="74.2" height="15.0" fill="rgb(213,40,9)" rx="2" ry="2" />
<text  x="956.18" y="303.5" >w2c_deco..</text>
</g>
<g >
<title>ext4_setattr (885,064 samples, 0.11%)</title><rect x="11.0" y="133" width="1.3" height="15.0" fill="rgb(230,117,28)" rx="2" ry="2" />
<text  x="14.00" y="143.5" ></text>
</g>
<g >
<title>ext4_buffered_write_iter (890,657 samples, 0.11%)</title><rect x="12.3" y="197" width="1.3" height="15.0" fill="rgb(213,40,9)" rx="2" ry="2" />
<text  x="15.32" y="207.5" ></text>
</g>
<g >
<title>filemap_map_pages (635,263 samples, 0.08%)</title><rect x="13.6" y="165" width="1.0" height="15.0" fill="rgb(229,112,27)" rx="2" ry="2" />
<text  x="16.64" y="175.5" ></text>
</g>
<g >
<title>__do_fault (671,381 samples, 0.08%)</title><rect x="10.0" y="149" width="1.0" height="15.0" fill="rgb(221,74,17)" rx="2" ry="2" />
<text  x="13.00" y="159.5" ></text>
</g>
<g >
<title>entry_SYSCALL_64_after_hwframe (885,064 samples, 0.11%)</title><rect x="11.0" y="261" width="1.3" height="15.0" fill="rgb(218,63,15)" rx="2" ry="2" />
<text  x="14.00" y="271.5" ></text>
</g>
<g >
<title>pat_pagerange_is_ram (671,381 samples, 0.08%)</title><rect x="10.0" y="85" width="1.0" height="15.0" fill="rgb(225,93,22)" rx="2" ry="2" />
<text  x="13.00" y="95.5" ></text>
</g>
<g >
<title>ksys_write (890,657 samples, 0.11%)</title><rect x="12.3" y="229" width="1.3" height="15.0" fill="rgb(205,4,1)" rx="2" ry="2" />
<text  x="15.32" y="239.5" ></text>
</g>
<g >
<title>w2c_decode__webp__wasmsimd_ReadHuffmanCode (5,493,731 samples, 0.69%)</title><rect x="863.6" y="293" width="8.2" height="15.0" fill="rgb(222,79,18)" rx="2" ry="2" />
<text  x="866.63" y="303.5" ></text>
</g>
<g >
<title>kmem_cache_free (885,064 samples, 0.11%)</title><rect x="11.0" y="37" width="1.3" height="15.0" fill="rgb(254,225,53)" rx="2" ry="2" />
<text  x="14.00" y="47.5" ></text>
</g>
<g >
<title>w2c_decode__webp__wasmsimd_VP8LInverseTransform (1,836,706 samples, 0.23%)</title><rect x="1136.1" y="293" width="2.7" height="15.0" fill="rgb(225,96,23)" rx="2" ry="2" />
<text  x="1139.07" y="303.5" ></text>
</g>
<g >
<title>decode_webp_was (792,213,325 samples, 99.99%)</title><rect x="10.0" y="309" width="1179.9" height="15.0" fill="rgb(216,54,12)" rx="2" ry="2" />
<text  x="13.00" y="319.5" >decode_webp_was</text>
</g>
<g >
<title>w2c_decode__webp__wasmsimd_free (880,280 samples, 0.11%)</title><rect x="1188.6" y="293" width="1.3" height="15.0" fill="rgb(205,0,0)" rx="2" ry="2" />
<text  x="1191.59" y="303.5" ></text>
</g>
<g >
<title>_compound_head (895,718 samples, 0.11%)</title><rect x="246.3" y="149" width="1.3" height="15.0" fill="rgb(225,94,22)" rx="2" ry="2" />
<text  x="249.27" y="159.5" ></text>
</g>
<g >
<title>w2c_decode__webp__wasmsimd_VP8LTransformColorInverse_C (30,004,624 samples, 3.79%)</title><rect x="1143.9" y="293" width="44.7" height="15.0" fill="rgb(228,108,25)" rx="2" ry="2" />
<text  x="1146.90" y="303.5" >w2c_..</text>
</g>
<g >
<title>vma_alloc_folio (762,264 samples, 0.10%)</title><rect x="749.2" y="197" width="1.2" height="15.0" fill="rgb(245,187,44)" rx="2" ry="2" />
<text  x="752.25" y="207.5" ></text>
</g>
<g >
<title>do_user_addr_fault (671,381 samples, 0.08%)</title><rect x="10.0" y="213" width="1.0" height="15.0" fill="rgb(228,108,25)" rx="2" ry="2" />
<text  x="13.00" y="223.5" ></text>
</g>
<g >
<title>exit_mmap (895,718 samples, 0.11%)</title><rect x="246.3" y="197" width="1.3" height="15.0" fill="rgb(236,143,34)" rx="2" ry="2" />
<text  x="249.27" y="207.5" ></text>
</g>
<g >
<title>_find_next_bit (307,967 samples, 0.04%)</title><rect x="14.6" y="117" width="0.4" height="15.0" fill="rgb(230,116,27)" rx="2" ry="2" />
<text  x="17.59" y="127.5" ></text>
</g>
<g >
<title>entry_SYSCALL_64_after_hwframe (307,967 samples, 0.04%)</title><rect x="14.6" y="277" width="0.4" height="15.0" fill="rgb(218,63,15)" rx="2" ry="2" />
<text  x="17.59" y="287.5" ></text>
</g>
<g >
<title>__folio_alloc (762,264 samples, 0.10%)</title><rect x="749.2" y="181" width="1.2" height="15.0" fill="rgb(224,91,21)" rx="2" ry="2" />
<text  x="752.25" y="191.5" ></text>
</g>
<g >
<title>load_elf_binary (307,967 samples, 0.04%)</title><rect x="14.6" y="197" width="0.4" height="15.0" fill="rgb(223,83,20)" rx="2" ry="2" />
<text  x="17.59" y="207.5" ></text>
</g>
<g >
<title>__list_del_entry_valid (762,264 samples, 0.10%)</title><rect x="749.2" y="133" width="1.2" height="15.0" fill="rgb(239,158,37)" rx="2" ry="2" />
<text  x="752.25" y="143.5" ></text>
</g>
<g >
<title>w2c_decode__webp__wasmsimd_PredictorAdd11_C (20,946,886 samples, 2.64%)</title><rect x="16.3" y="277" width="31.2" height="15.0" fill="rgb(241,168,40)" rx="2" ry="2" />
<text  x="19.34" y="287.5" >w2..</text>
</g>
<g >
<title>all (792,279,593 samples, 100%)</title><rect x="10.0" y="325" width="1180.0" height="15.0" fill="rgb(213,39,9)" rx="2" ry="2" />
<text  x="13.00" y="335.5" ></text>
</g>
<g >
<title>asm_exc_page_fault (646,677 samples, 0.08%)</title><rect x="301.5" y="277" width="1.0" height="15.0" fill="rgb(225,93,22)" rx="2" ry="2" />
<text  x="304.49" y="287.5" ></text>
</g>
<g >
<title>next_uptodate_page (635,263 samples, 0.08%)</title><rect x="13.6" y="149" width="1.0" height="15.0" fill="rgb(210,25,6)" rx="2" ry="2" />
<text  x="16.64" y="159.5" ></text>
</g>
<g >
<title>__handle_mm_fault (646,677 samples, 0.08%)</title><rect x="301.5" y="213" width="1.0" height="15.0" fill="rgb(207,9,2)" rx="2" ry="2" />
<text  x="304.49" y="223.5" ></text>
</g>
<g >
<title>[unknown] (157,716,388 samples, 19.91%)</title><rect x="10.0" y="293" width="234.9" height="15.0" fill="rgb(210,24,5)" rx="2" ry="2" />
<text  x="13.00" y="303.5" >[unknown]</text>
</g>
<g >
<title>entry_SYSCALL_64_after_hwframe (895,718 samples, 0.11%)</title><rect x="246.3" y="293" width="1.3" height="15.0" fill="rgb(218,63,15)" rx="2" ry="2" />
<text  x="249.27" y="303.5" ></text>
</g>
<g >
<title>w2c_decode__webp__wasmsimd_BuildHuffmanTable (36,821,856 samples, 4.65%)</title><rect x="247.6" y="293" width="54.9" height="15.0" fill="rgb(218,63,15)" rx="2" ry="2" />
<text  x="250.61" y="303.5" >w2c_d..</text>
</g>
<g >
<title>w2c_decode__webp__wasmsimd_DecodeImageData (300,752,596 samples, 37.96%)</title><rect x="302.5" y="293" width="447.9" height="15.0" fill="rgb(246,191,45)" rx="2" ry="2" />
<text  x="305.45" y="303.5" >w2c_decode__webp__wasmsimd_DecodeImageData</text>
</g>
<g >
<title>w2c_decode__webp__wasmsimd_PredictorAdd10_C (866,832 samples, 0.11%)</title><rect x="15.0" y="277" width="1.3" height="15.0" fill="rgb(248,198,47)" rx="2" ry="2" />
<text  x="18.05" y="287.5" ></text>
</g>
<g >
<title>__memmove_avx_unaligned_erms (924,048 samples, 0.12%)</title><rect x="244.9" y="293" width="1.4" height="15.0" fill="rgb(205,0,0)" rx="2" ry="2" />
<text  x="247.90" y="303.5" ></text>
</g>
<g >
<title>w2c_decode__webp__wasmsimd_PredictorAdd12_C (44,351,138 samples, 5.60%)</title><rect x="751.8" y="293" width="66.0" height="15.0" fill="rgb(235,138,33)" rx="2" ry="2" />
<text  x="754.76" y="303.5" >w2c_dec..</text>
</g>
<g >
<title>w2c_decode__webp__wasmsimd_PredictorAdd5_C (5,464,334 samples, 0.69%)</title><rect x="186.3" y="277" width="8.1" height="15.0" fill="rgb(232,125,30)" rx="2" ry="2" />
<text  x="189.26" y="287.5" ></text>
</g>
<g >
<title>w2c_decode__webp__wasmsimd_VP8LDoFillBitWindow (72,948,611 samples, 9.21%)</title><rect x="1027.4" y="293" width="108.7" height="15.0" fill="rgb(211,29,7)" rx="2" ry="2" />
<text  x="1030.43" y="303.5" >w2c_decode__w..</text>
</g>
<g >
<title>__handle_mm_fault (671,381 samples, 0.08%)</title><rect x="10.0" y="181" width="1.0" height="15.0" fill="rgb(207,9,2)" rx="2" ry="2" />
<text  x="13.00" y="191.5" ></text>
</g>
<g >
<title>setup_arg_pages (307,967 samples, 0.04%)</title><rect x="14.6" y="181" width="0.4" height="15.0" fill="rgb(222,82,19)" rx="2" ry="2" />
<text  x="17.59" y="191.5" ></text>
</g>
<g >
<title>w2c_decode__webp__wasmsimd_PredictorAdd1_C (23,525,450 samples, 2.97%)</title><rect x="817.8" y="293" width="35.1" height="15.0" fill="rgb(208,14,3)" rx="2" ry="2" />
<text  x="820.81" y="303.5" >w2..</text>
</g>
<g >
<title>__mmput (895,718 samples, 0.11%)</title><rect x="246.3" y="213" width="1.3" height="15.0" fill="rgb(249,203,48)" rx="2" ry="2" />
<text  x="249.27" y="223.5" ></text>
</g>
<g >
<title>exc_page_fault (646,677 samples, 0.08%)</title><rect x="301.5" y="261" width="1.0" height="15.0" fill="rgb(212,35,8)" rx="2" ry="2" />
<text  x="304.49" y="271.5" ></text>
</g>
<g >
<title>move_page_tables (307,967 samples, 0.04%)</title><rect x="14.6" y="149" width="0.4" height="15.0" fill="rgb(230,116,27)" rx="2" ry="2" />
<text  x="17.59" y="159.5" ></text>
</g>
<g >
<title>__handle_mm_fault (762,264 samples, 0.10%)</title><rect x="749.2" y="213" width="1.2" height="15.0" fill="rgb(207,9,2)" rx="2" ry="2" />
<text  x="752.25" y="223.5" ></text>
</g>
<g >
<title>get_page_from_freelist (762,264 samples, 0.10%)</title><rect x="749.2" y="149" width="1.2" height="15.0" fill="rgb(252,218,52)" rx="2" ry="2" />
<text  x="752.25" y="159.5" ></text>
</g>
<g >
<title>__vdso_gettimeofday (671,381 samples, 0.08%)</title><rect x="10.0" y="261" width="1.0" height="15.0" fill="rgb(222,81,19)" rx="2" ry="2" />
<text  x="13.00" y="271.5" ></text>
</g>
<g >
<title>do_syscall_64 (307,967 samples, 0.04%)</title><rect x="14.6" y="261" width="0.4" height="15.0" fill="rgb(209,20,4)" rx="2" ry="2" />
<text  x="17.59" y="271.5" ></text>
</g>
<g >
<title>track_pfn_insert (671,381 samples, 0.08%)</title><rect x="10.0" y="117" width="1.0" height="15.0" fill="rgb(230,115,27)" rx="2" ry="2" />
<text  x="13.00" y="127.5" ></text>
</g>
<g >
<title>handle_mm_fault (635,263 samples, 0.08%)</title><rect x="13.6" y="213" width="1.0" height="15.0" fill="rgb(234,135,32)" rx="2" ry="2" />
<text  x="16.64" y="223.5" ></text>
</g>
<g >
<title>vma_alloc_folio (646,677 samples, 0.08%)</title><rect x="301.5" y="197" width="1.0" height="15.0" fill="rgb(245,187,44)" rx="2" ry="2" />
<text  x="304.49" y="207.5" ></text>
</g>
<g >
<title>do_syscall_64 (885,064 samples, 0.11%)</title><rect x="11.0" y="245" width="1.3" height="15.0" fill="rgb(209,20,4)" rx="2" ry="2" />
<text  x="14.00" y="255.5" ></text>
</g>
<g >
<title>exc_page_fault (635,263 samples, 0.08%)</title><rect x="13.6" y="245" width="1.0" height="15.0" fill="rgb(212,35,8)" rx="2" ry="2" />
<text  x="16.64" y="255.5" ></text>
</g>
<g >
<title>w2c_decode__webp__wasmsimd_VP8LTransformColorInverse_C (8,796,769 samples, 1.11%)</title><rect x="231.8" y="277" width="13.1" height="15.0" fill="rgb(228,108,25)" rx="2" ry="2" />
<text  x="234.80" y="287.5" ></text>
</g>
<g >
<title>__alloc_pages (646,677 samples, 0.08%)</title><rect x="301.5" y="165" width="1.0" height="15.0" fill="rgb(233,129,30)" rx="2" ry="2" />
<text  x="304.49" y="175.5" ></text>
</g>
<g >
<title>do_user_addr_fault (762,264 samples, 0.10%)</title><rect x="749.2" y="245" width="1.2" height="15.0" fill="rgb(228,108,25)" rx="2" ry="2" />
<text  x="752.25" y="255.5" ></text>
</g>
<g >
<title>truncate_pagecache (885,064 samples, 0.11%)</title><rect x="11.0" y="117" width="1.3" height="15.0" fill="rgb(231,123,29)" rx="2" ry="2" />
<text  x="14.00" y="127.5" ></text>
</g>
<g >
<title>do_fault (671,381 samples, 0.08%)</title><rect x="10.0" y="165" width="1.0" height="15.0" fill="rgb(248,200,47)" rx="2" ry="2" />
<text  x="13.00" y="175.5" ></text>
</g>
<g >
<title>__alloc_pages (762,264 samples, 0.10%)</title><rect x="749.2" y="165" width="1.2" height="15.0" fill="rgb(233,129,30)" rx="2" ry="2" />
<text  x="752.25" y="175.5" ></text>
</g>
<g >
<title>shift_arg_pages (307,967 samples, 0.04%)</title><rect x="14.6" y="165" width="0.4" height="15.0" fill="rgb(245,187,44)" rx="2" ry="2" />
<text  x="17.59" y="175.5" ></text>
</g>
<g >
<title>__x64_sys_execve (307,967 samples, 0.04%)</title><rect x="14.6" y="245" width="0.4" height="15.0" fill="rgb(247,193,46)" rx="2" ry="2" />
<text  x="17.59" y="255.5" ></text>
</g>
<g >
<title>free_buffer_head (885,064 samples, 0.11%)</title><rect x="11.0" y="53" width="1.3" height="15.0" fill="rgb(243,177,42)" rx="2" ry="2" />
<text  x="14.00" y="63.5" ></text>
</g>
<g >
<title>__libc_write (890,657 samples, 0.11%)</title><rect x="12.3" y="277" width="1.3" height="15.0" fill="rgb(238,154,37)" rx="2" ry="2" />
<text  x="15.32" y="287.5" ></text>
</g>
<g >
<title>w2c_decode__webp__wasmsimd_PredictorAdd2_C (3,626,234 samples, 0.46%)</title><rect x="852.9" y="293" width="5.4" height="15.0" fill="rgb(251,214,51)" rx="2" ry="2" />
<text  x="855.85" y="303.5" ></text>
</g>
<g >
<title>do_group_exit (895,718 samples, 0.11%)</title><rect x="246.3" y="245" width="1.3" height="15.0" fill="rgb(219,67,16)" rx="2" ry="2" />
<text  x="249.27" y="255.5" ></text>
</g>
<g >
<title>w2c_decode__webp__wasmsimd_VP8LReadBits (3,419,800 samples, 0.43%)</title><rect x="1138.8" y="293" width="5.1" height="15.0" fill="rgb(228,108,26)" rx="2" ry="2" />
<text  x="1141.81" y="303.5" ></text>
</g>
<g >
<title>asm_exc_page_fault (671,381 samples, 0.08%)</title><rect x="10.0" y="245" width="1.0" height="15.0" fill="rgb(225,93,22)" rx="2" ry="2" />
<text  x="13.00" y="255.5" ></text>
</g>
<g >
<title>w2c_decode__webp__wasmsimd_VP8LAddGreenToBlueAndRed_C (54,629,509 samples, 6.90%)</title><rect x="871.8" y="293" width="81.4" height="15.0" fill="rgb(214,44,10)" rx="2" ry="2" />
<text  x="874.82" y="303.5" >w2c_decod..</text>
</g>
<g >
<title>__filemap_add_folio (890,657 samples, 0.11%)</title><rect x="12.3" y="101" width="1.3" height="15.0" fill="rgb(229,113,27)" rx="2" ry="2" />
<text  x="15.32" y="111.5" ></text>
</g>
<g >
<title>filemap_add_folio (890,657 samples, 0.11%)</title><rect x="12.3" y="117" width="1.3" height="15.0" fill="rgb(207,9,2)" rx="2" ry="2" />
<text  x="15.32" y="127.5" ></text>
</g>
<g >
<title>w2c_decode__webp__wasmsimd_VP8LInverseTransform (18,802,472 samples, 2.37%)</title><rect x="203.8" y="277" width="28.0" height="15.0" fill="rgb(225,96,23)" rx="2" ry="2" />
<text  x="206.79" y="287.5" >w..</text>
</g>
</g>
</svg>
