<?xml version="1.0" standalone="no"?>
<!DOCTYPE svg PUBLIC "-//W3C//DTD SVG 1.1//EN" "http://www.w3.org/Graphics/SVG/1.1/DTD/svg11.dtd">
<svg version="1.1" width="1200" height="406" onload="init(evt)" viewBox="0 0 1200 406" xmlns="http://www.w3.org/2000/svg" xmlns:xlink="http://www.w3.org/1999/xlink">
<!-- Flame graph stack visualization. See https://github.com/brendangregg/FlameGraph for latest version, and http://www.brendangregg.com/flamegraphs.html for examples. -->
<!-- NOTES:  -->
<defs>
	<linearGradient id="background" y1="0" y2="1" x1="0" x2="0" >
		<stop stop-color="#eeeeee" offset="5%" />
		<stop stop-color="#eeeeb0" offset="95%" />
	</linearGradient>
</defs>
<style type="text/css">
	text { font-family:Verdana; font-size:12px; fill:rgb(0,0,0); }
	#search, #ignorecase { opacity:0.1; cursor:pointer; }
	#search:hover, #search.show, #ignorecase:hover, #ignorecase.show { opacity:1; }
	#subtitle { text-anchor:middle; font-color:rgb(160,160,160); }
	#title { text-anchor:middle; font-size:17px}
	#unzoom { cursor:pointer; }
	#frames > *:hover { stroke:black; stroke-width:0.5; cursor:pointer; }
	.hide { display:none; }
	.parent { opacity:0.5; }
</style>
<script type="text/ecmascript">
<![CDATA[
	"use strict";
	var details, searchbtn, unzoombtn, matchedtxt, svg, searching, currentSearchTerm, ignorecase, ignorecaseBtn;
	function init(evt) {
		details = document.getElementById("details").firstChild;
		searchbtn = document.getElementById("search");
		ignorecaseBtn = document.getElementById("ignorecase");
		unzoombtn = document.getElementById("unzoom");
		matchedtxt = document.getElementById("matched");
		svg = document.getElementsByTagName("svg")[0];
		searching = 0;
		currentSearchTerm = null;

		// use GET parameters to restore a flamegraphs state.
		var params = get_params();
		if (params.x && params.y)
			zoom(find_group(document.querySelector('[x="' + params.x + '"][y="' + params.y + '"]')));
                if (params.s) search(params.s);
	}

	// event listeners
	window.addEventListener("click", function(e) {
		var target = find_group(e.target);
		if (target) {
			if (target.nodeName == "a") {
				if (e.ctrlKey === false) return;
				e.preventDefault();
			}
			if (target.classList.contains("parent")) unzoom(true);
			zoom(target);
			if (!document.querySelector('.parent')) {
				// we have basically done a clearzoom so clear the url
				var params = get_params();
				if (params.x) delete params.x;
				if (params.y) delete params.y;
				history.replaceState(null, null, parse_params(params));
				unzoombtn.classList.add("hide");
				return;
			}

			// set parameters for zoom state
			var el = target.querySelector("rect");
			if (el && el.attributes && el.attributes.y && el.attributes._orig_x) {
				var params = get_params()
				params.x = el.attributes._orig_x.value;
				params.y = el.attributes.y.value;
				history.replaceState(null, null, parse_params(params));
			}
		}
		else if (e.target.id == "unzoom") clearzoom();
		else if (e.target.id == "search") search_prompt();
		else if (e.target.id == "ignorecase") toggle_ignorecase();
	}, false)

	// mouse-over for info
	// show
	window.addEventListener("mouseover", function(e) {
		var target = find_group(e.target);
		if (target) details.nodeValue = "Function: " + g_to_text(target);
	}, false)

	// clear
	window.addEventListener("mouseout", function(e) {
		var target = find_group(e.target);
		if (target) details.nodeValue = ' ';
	}, false)

	// ctrl-F for search
	// ctrl-I to toggle case-sensitive search
	window.addEventListener("keydown",function (e) {
		if (e.keyCode === 114 || (e.ctrlKey && e.keyCode === 70)) {
			e.preventDefault();
			search_prompt();
		}
		else if (e.ctrlKey && e.keyCode === 73) {
			e.preventDefault();
			toggle_ignorecase();
		}
	}, false)

	// functions
	function get_params() {
		var params = {};
		var paramsarr = window.location.search.substr(1).split('&');
		for (var i = 0; i < paramsarr.length; ++i) {
			var tmp = paramsarr[i].split("=");
			if (!tmp[0] || !tmp[1]) continue;
			params[tmp[0]]  = decodeURIComponent(tmp[1]);
		}
		return params;
	}
	function parse_params(params) {
		var uri = "?";
		for (var key in params) {
			uri += key + '=' + encodeURIComponent(params[key]) + '&';
		}
		if (uri.slice(-1) == "&")
			uri = uri.substring(0, uri.length - 1);
		if (uri == '?')
			uri = window.location.href.split('?')[0];
		return uri;
	}
	function find_child(node, selector) {
		var children = node.querySelectorAll(selector);
		if (children.length) return children[0];
	}
	function find_group(node) {
		var parent = node.parentElement;
		if (!parent) return;
		if (parent.id == "frames") return node;
		return find_group(parent);
	}
	function orig_save(e, attr, val) {
		if (e.attributes["_orig_" + attr] != undefined) return;
		if (e.attributes[attr] == undefined) return;
		if (val == undefined) val = e.attributes[attr].value;
		e.setAttribute("_orig_" + attr, val);
	}
	function orig_load(e, attr) {
		if (e.attributes["_orig_"+attr] == undefined) return;
		e.attributes[attr].value = e.attributes["_orig_" + attr].value;
		e.removeAttribute("_orig_"+attr);
	}
	function g_to_text(e) {
		var text = find_child(e, "title").firstChild.nodeValue;
		return (text)
	}
	function g_to_func(e) {
		var func = g_to_text(e);
		// if there's any manipulation we want to do to the function
		// name before it's searched, do it here before returning.
		return (func);
	}
	function update_text(e) {
		var r = find_child(e, "rect");
		var t = find_child(e, "text");
		var w = parseFloat(r.attributes.width.value) -3;
		var txt = find_child(e, "title").textContent.replace(/\([^(]*\)$/,"");
		t.attributes.x.value = parseFloat(r.attributes.x.value) + 3;

		// Smaller than this size won't fit anything
		if (w < 2 * 12 * 0.59) {
			t.textContent = "";
			return;
		}

		t.textContent = txt;
		var sl = t.getSubStringLength(0, txt.length);
		// check if only whitespace or if we can fit the entire string into width w
		if (/^ *$/.test(txt) || sl < w)
			return;

		// this isn't perfect, but gives a good starting point
		// and avoids calling getSubStringLength too often
		var start = Math.floor((w/sl) * txt.length);
		for (var x = start; x > 0; x = x-2) {
			if (t.getSubStringLength(0, x + 2) <= w) {
				t.textContent = txt.substring(0, x) + "..";
				return;
			}
		}
		t.textContent = "";
	}

	// zoom
	function zoom_reset(e) {
		if (e.attributes != undefined) {
			orig_load(e, "x");
			orig_load(e, "width");
		}
		if (e.childNodes == undefined) return;
		for (var i = 0, c = e.childNodes; i < c.length; i++) {
			zoom_reset(c[i]);
		}
	}
	function zoom_child(e, x, ratio) {
		if (e.attributes != undefined) {
			if (e.attributes.x != undefined) {
				orig_save(e, "x");
				e.attributes.x.value = (parseFloat(e.attributes.x.value) - x - 10) * ratio + 10;
				if (e.tagName == "text")
					e.attributes.x.value = find_child(e.parentNode, "rect[x]").attributes.x.value + 3;
			}
			if (e.attributes.width != undefined) {
				orig_save(e, "width");
				e.attributes.width.value = parseFloat(e.attributes.width.value) * ratio;
			}
		}

		if (e.childNodes == undefined) return;
		for (var i = 0, c = e.childNodes; i < c.length; i++) {
			zoom_child(c[i], x - 10, ratio);
		}
	}
	function zoom_parent(e) {
		if (e.attributes) {
			if (e.attributes.x != undefined) {
				orig_save(e, "x");
				e.attributes.x.value = 10;
			}
			if (e.attributes.width != undefined) {
				orig_save(e, "width");
				e.attributes.width.value = parseInt(svg.width.baseVal.value) - (10 * 2);
			}
		}
		if (e.childNodes == undefined) return;
		for (var i = 0, c = e.childNodes; i < c.length; i++) {
			zoom_parent(c[i]);
		}
	}
	function zoom(node) {
		var attr = find_child(node, "rect").attributes;
		var width = parseFloat(attr.width.value);
		var xmin = parseFloat(attr.x.value);
		var xmax = parseFloat(xmin + width);
		var ymin = parseFloat(attr.y.value);
		var ratio = (svg.width.baseVal.value - 2 * 10) / width;

		// XXX: Workaround for JavaScript float issues (fix me)
		var fudge = 0.0001;

		unzoombtn.classList.remove("hide");

		var el = document.getElementById("frames").children;
		for (var i = 0; i < el.length; i++) {
			var e = el[i];
			var a = find_child(e, "rect").attributes;
			var ex = parseFloat(a.x.value);
			var ew = parseFloat(a.width.value);
			var upstack;
			// Is it an ancestor
			if (0 == 0) {
				upstack = parseFloat(a.y.value) > ymin;
			} else {
				upstack = parseFloat(a.y.value) < ymin;
			}
			if (upstack) {
				// Direct ancestor
				if (ex <= xmin && (ex+ew+fudge) >= xmax) {
					e.classList.add("parent");
					zoom_parent(e);
					update_text(e);
				}
				// not in current path
				else
					e.classList.add("hide");
			}
			// Children maybe
			else {
				// no common path
				if (ex < xmin || ex + fudge >= xmax) {
					e.classList.add("hide");
				}
				else {
					zoom_child(e, xmin, ratio);
					update_text(e);
				}
			}
		}
		search();
	}
	function unzoom(dont_update_text) {
		unzoombtn.classList.add("hide");
		var el = document.getElementById("frames").children;
		for(var i = 0; i < el.length; i++) {
			el[i].classList.remove("parent");
			el[i].classList.remove("hide");
			zoom_reset(el[i]);
			if(!dont_update_text) update_text(el[i]);
		}
		search();
	}
	function clearzoom() {
		unzoom();

		// remove zoom state
		var params = get_params();
		if (params.x) delete params.x;
		if (params.y) delete params.y;
		history.replaceState(null, null, parse_params(params));
	}

	// search
	function toggle_ignorecase() {
		ignorecase = !ignorecase;
		if (ignorecase) {
			ignorecaseBtn.classList.add("show");
		} else {
			ignorecaseBtn.classList.remove("show");
		}
		reset_search();
		search();
	}
	function reset_search() {
		var el = document.querySelectorAll("#frames rect");
		for (var i = 0; i < el.length; i++) {
			orig_load(el[i], "fill")
		}
		var params = get_params();
		delete params.s;
		history.replaceState(null, null, parse_params(params));
	}
	function search_prompt() {
		if (!searching) {
			var term = prompt("Enter a search term (regexp " +
			    "allowed, eg: ^ext4_)"
			    + (ignorecase ? ", ignoring case" : "")
			    + "\nPress Ctrl-i to toggle case sensitivity", "");
			if (term != null) search(term);
		} else {
			reset_search();
			searching = 0;
			currentSearchTerm = null;
			searchbtn.classList.remove("show");
			searchbtn.firstChild.nodeValue = "Search"
			matchedtxt.classList.add("hide");
			matchedtxt.firstChild.nodeValue = ""
		}
	}
	function search(term) {
		if (term) currentSearchTerm = term;

		var re = new RegExp(currentSearchTerm, ignorecase ? 'i' : '');
		var el = document.getElementById("frames").children;
		var matches = new Object();
		var maxwidth = 0;
		for (var i = 0; i < el.length; i++) {
			var e = el[i];
			var func = g_to_func(e);
			var rect = find_child(e, "rect");
			if (func == null || rect == null)
				continue;

			// Save max width. Only works as we have a root frame
			var w = parseFloat(rect.attributes.width.value);
			if (w > maxwidth)
				maxwidth = w;

			if (func.match(re)) {
				// highlight
				var x = parseFloat(rect.attributes.x.value);
				orig_save(rect, "fill");
				rect.attributes.fill.value = "rgb(230,0,230)";

				// remember matches
				if (matches[x] == undefined) {
					matches[x] = w;
				} else {
					if (w > matches[x]) {
						// overwrite with parent
						matches[x] = w;
					}
				}
				searching = 1;
			}
		}
		if (!searching)
			return;
		var params = get_params();
		params.s = currentSearchTerm;
		history.replaceState(null, null, parse_params(params));

		searchbtn.classList.add("show");
		searchbtn.firstChild.nodeValue = "Reset Search";

		// calculate percent matched, excluding vertical overlap
		var count = 0;
		var lastx = -1;
		var lastw = 0;
		var keys = Array();
		for (k in matches) {
			if (matches.hasOwnProperty(k))
				keys.push(k);
		}
		// sort the matched frames by their x location
		// ascending, then width descending
		keys.sort(function(a, b){
			return a - b;
		});
		// Step through frames saving only the biggest bottom-up frames
		// thanks to the sort order. This relies on the tree property
		// where children are always smaller than their parents.
		var fudge = 0.0001;	// JavaScript floating point
		for (var k in keys) {
			var x = parseFloat(keys[k]);
			var w = matches[keys[k]];
			if (x >= lastx + lastw - fudge) {
				count += w;
				lastx = x;
				lastw = w;
			}
		}
		// display matched percent
		matchedtxt.classList.remove("hide");
		var pct = 100 * count / maxwidth;
		if (pct != 100) pct = pct.toFixed(1)
		matchedtxt.firstChild.nodeValue = "Matched: " + pct + "%";
	}
]]>
</script>
<rect x="0.0" y="0" width="1200.0" height="406.0" fill="url(#background)"  />
<text id="title" x="600.00" y="24" >Flame Graph</text>
<text id="details" x="10.00" y="389" > </text>
<text id="unzoom" x="10.00" y="24" class="hide">Reset Zoom</text>
<text id="search" x="1090.00" y="24" >Search</text>
<text id="ignorecase" x="1174.00" y="24" >ic</text>
<text id="matched" x="1090.00" y="389" > </text>
<g id="frames">
<g >
<title>w2c_decode__webp__wasm_TransformDC_C (923,737 samples, 0.09%)</title><rect x="21.7" y="229" width="1.1" height="15.0" fill="rgb(232,125,30)" rx="2" ry="2" />
<text  x="24.72" y="239.5" ></text>
</g>
<g >
<title>do_syscall_64 (457,684 samples, 0.04%)</title><rect x="53.1" y="293" width="0.5" height="15.0" fill="rgb(209,20,4)" rx="2" ry="2" />
<text  x="56.08" y="303.5" ></text>
</g>
<g >
<title>w2c_decode__webp__wasm_VR4_C (923,280 samples, 0.09%)</title><rect x="1188.9" y="325" width="1.1" height="15.0" fill="rgb(208,18,4)" rx="2" ry="2" />
<text  x="1191.90" y="335.5" ></text>
</g>
<g >
<title>perf_iterate_sb (457,684 samples, 0.04%)</title><rect x="53.1" y="213" width="0.5" height="15.0" fill="rgb(244,179,42)" rx="2" ry="2" />
<text  x="56.08" y="223.5" ></text>
</g>
<g >
<title>__handle_mm_fault (845,501 samples, 0.08%)</title><rect x="51.0" y="245" width="1.0" height="15.0" fill="rgb(207,9,2)" rx="2" ry="2" />
<text  x="54.04" y="255.5" ></text>
</g>
<g >
<title>ksys_write (923,064 samples, 0.09%)</title><rect x="26.0" y="261" width="1.1" height="15.0" fill="rgb(205,4,1)" rx="2" ry="2" />
<text  x="28.99" y="271.5" ></text>
</g>
<g >
<title>xas_load (923,090 samples, 0.09%)</title><rect x="24.9" y="37" width="1.1" height="15.0" fill="rgb(217,59,14)" rx="2" ry="2" />
<text  x="27.92" y="47.5" ></text>
</g>
<g >
<title>check_preemption_disabled (360,477 samples, 0.04%)</title><rect x="27.2" y="133" width="0.4" height="15.0" fill="rgb(220,73,17)" rx="2" ry="2" />
<text  x="30.19" y="143.5" ></text>
</g>
<g >
<title>[unknown] (12,929,325 samples, 1.26%)</title><rect x="10.0" y="245" width="14.9" height="15.0" fill="rgb(210,24,5)" rx="2" ry="2" />
<text  x="13.00" y="255.5" ></text>
</g>
<g >
<title>w2c_decode__webp__wasm_TransformAC3_C (4,619,289 samples, 0.45%)</title><rect x="837.8" y="325" width="5.4" height="15.0" fill="rgb(222,79,19)" rx="2" ry="2" />
<text  x="840.82" y="335.5" ></text>
</g>
<g >
<title>w2c_decode__webp__wasm_IDecode (77,975,628 samples, 7.63%)</title><rect x="697.8" y="325" width="90.0" height="15.0" fill="rgb(208,15,3)" rx="2" ry="2" />
<text  x="700.80" y="335.5" >w2c_decode..</text>
</g>
<g >
<title>w2c_decode__webp__wasm_ReconstructRow (29,558,697 samples, 2.89%)</title><rect x="788.9" y="325" width="34.1" height="15.0" fill="rgb(238,153,36)" rx="2" ry="2" />
<text  x="791.86" y="335.5" >w2..</text>
</g>
<g >
<title>w2c_decode__webp__wasm_IDecode (3,695,796 samples, 0.36%)</title><rect x="36.1" y="309" width="4.3" height="15.0" fill="rgb(208,15,3)" rx="2" ry="2" />
<text  x="39.13" y="319.5" ></text>
</g>
<g >
<title>w2c_decode__webp__wasm_VP8LDoFillBitWindow (1,847,558 samples, 0.18%)</title><rect x="1179.3" y="325" width="2.1" height="15.0" fill="rgb(232,127,30)" rx="2" ry="2" />
<text  x="1182.30" y="335.5" ></text>
</g>
<g >
<title>w2c_decode__webp__wasm_CustomPut (744,609 samples, 0.07%)</title><rect x="58.4" y="325" width="0.9" height="15.0" fill="rgb(252,219,52)" rx="2" ry="2" />
<text  x="61.40" y="335.5" ></text>
</g>
<g >
<title>w2c_decode__webp__wasm_FilterLoop26_C (1,845,180 samples, 0.18%)</title><rect x="13.2" y="229" width="2.1" height="15.0" fill="rgb(243,176,42)" rx="2" ry="2" />
<text  x="16.20" y="239.5" ></text>
</g>
<g >
<title>w2c_decode__webp__wasm_FinishRow (4,619,751 samples, 0.45%)</title><rect x="379.5" y="325" width="5.3" height="15.0" fill="rgb(227,101,24)" rx="2" ry="2" />
<text  x="382.51" y="335.5" ></text>
</g>
<g >
<title>entry_SYSCALL_64_after_hwframe (457,684 samples, 0.04%)</title><rect x="53.1" y="309" width="0.5" height="15.0" fill="rgb(218,63,15)" rx="2" ry="2" />
<text  x="56.08" y="319.5" ></text>
</g>
<g >
<title>w2c_decode__webp__wasm_VFilter8i_C (925,162 samples, 0.09%)</title><rect x="23.9" y="229" width="1.0" height="15.0" fill="rgb(218,60,14)" rx="2" ry="2" />
<text  x="26.85" y="239.5" ></text>
</g>
<g >
<title>w2c_decode__webp__wasm_TM8uv_C (861,842 samples, 0.08%)</title><rect x="836.8" y="325" width="1.0" height="15.0" fill="rgb(210,24,5)" rx="2" ry="2" />
<text  x="839.83" y="335.5" ></text>
</g>
<g >
<title>w2c_decode__webp__wasm_GetCoeffsFast (2,771,115 samples, 0.27%)</title><rect x="15.3" y="229" width="3.2" height="15.0" fill="rgb(232,124,29)" rx="2" ry="2" />
<text  x="18.33" y="239.5" ></text>
</g>
<g >
<title>do_user_addr_fault (845,501 samples, 0.08%)</title><rect x="51.0" y="277" width="1.0" height="15.0" fill="rgb(228,108,25)" rx="2" ry="2" />
<text  x="54.04" y="287.5" ></text>
</g>
<g >
<title>do_syscall_64 (923,064 samples, 0.09%)</title><rect x="26.0" y="277" width="1.1" height="15.0" fill="rgb(209,20,4)" rx="2" ry="2" />
<text  x="28.99" y="287.5" ></text>
</g>
<g >
<title>kmem_cache_alloc (360,477 samples, 0.04%)</title><rect x="27.2" y="165" width="0.4" height="15.0" fill="rgb(225,95,22)" rx="2" ry="2" />
<text  x="30.19" y="175.5" ></text>
</g>
<g >
<title>w2c_decode__webp__wasm_TransformTwo_C (924,989 samples, 0.09%)</title><rect x="900.1" y="325" width="1.0" height="15.0" fill="rgb(226,96,23)" rx="2" ry="2" />
<text  x="903.08" y="335.5" ></text>
</g>
<g >
<title>load_elf_binary (480,486 samples, 0.05%)</title><rect x="27.1" y="229" width="0.5" height="15.0" fill="rgb(223,83,20)" rx="2" ry="2" />
<text  x="30.05" y="239.5" ></text>
</g>
<g >
<title>do_execveat_common.isra.0 (480,486 samples, 0.05%)</title><rect x="27.1" y="261" width="0.5" height="15.0" fill="rgb(231,123,29)" rx="2" ry="2" />
<text  x="30.05" y="271.5" ></text>
</g>
<g >
<title>w2c_decode__webp__wasm_TransformDC_C (3,694,982 samples, 0.36%)</title><rect x="843.2" y="325" width="4.2" height="15.0" fill="rgb(232,125,30)" rx="2" ry="2" />
<text  x="846.15" y="335.5" ></text>
</g>
<g >
<title>pagecache_get_page (923,090 samples, 0.09%)</title><rect x="24.9" y="69" width="1.1" height="15.0" fill="rgb(253,221,53)" rx="2" ry="2" />
<text  x="27.92" y="79.5" ></text>
</g>
<g >
<title>do_mprotect_pkey (457,684 samples, 0.04%)</title><rect x="53.1" y="261" width="0.5" height="15.0" fill="rgb(252,218,52)" rx="2" ry="2" />
<text  x="56.08" y="271.5" ></text>
</g>
<g >
<title>__install_special_mapping (360,477 samples, 0.04%)</title><rect x="27.2" y="197" width="0.4" height="15.0" fill="rgb(212,35,8)" rx="2" ry="2" />
<text  x="30.19" y="207.5" ></text>
</g>
<g >
<title>__x64_sys_mprotect (457,684 samples, 0.04%)</title><rect x="53.1" y="277" width="0.5" height="15.0" fill="rgb(209,21,5)" rx="2" ry="2" />
<text  x="56.08" y="287.5" ></text>
</g>
<g >
<title>w2c_decode__webp__wasm_ExtractGreen_C (27,459,068 samples, 2.69%)</title><rect x="90.2" y="325" width="31.7" height="15.0" fill="rgb(247,194,46)" rx="2" ry="2" />
<text  x="93.17" y="335.5" >w2..</text>
</g>
<g >
<title>w2c_decode__webp__wasm_VE4_C (923,950 samples, 0.09%)</title><rect x="1174.0" y="325" width="1.0" height="15.0" fill="rgb(242,174,41)" rx="2" ry="2" />
<text  x="1176.97" y="335.5" ></text>
</g>
<g >
<title>w2c_decode__webp__wasm_HE8uv_C (924,164 samples, 0.09%)</title><rect x="693.5" y="325" width="1.1" height="15.0" fill="rgb(239,158,37)" rx="2" ry="2" />
<text  x="696.54" y="335.5" ></text>
</g>
<g >
<title>[unknown] (12,929,325 samples, 1.26%)</title><rect x="10.0" y="261" width="14.9" height="15.0" fill="rgb(210,24,5)" rx="2" ry="2" />
<text  x="13.00" y="271.5" ></text>
</g>
<g >
<title>w2c_decode__webp__wasm_FilterLoop24_C (129,578,208 samples, 12.67%)</title><rect x="121.9" y="325" width="149.5" height="15.0" fill="rgb(206,5,1)" rx="2" ry="2" />
<text  x="124.85" y="335.5" >w2c_decode__webp__w..</text>
</g>
<g >
<title>w2c_decode__webp__wasm_VE8uv_C (924,328 samples, 0.09%)</title><rect x="1175.0" y="325" width="1.1" height="15.0" fill="rgb(248,202,48)" rx="2" ry="2" />
<text  x="1178.04" y="335.5" ></text>
</g>
<g >
<title>[unknown] (29,103,779 samples, 2.85%)</title><rect x="10.0" y="325" width="33.6" height="15.0" fill="rgb(210,24,5)" rx="2" ry="2" />
<text  x="13.00" y="335.5" >[u..</text>
</g>
<g >
<title>[unknown] (12,929,325 samples, 1.26%)</title><rect x="10.0" y="277" width="14.9" height="15.0" fill="rgb(210,24,5)" rx="2" ry="2" />
<text  x="13.00" y="287.5" ></text>
</g>
<g >
<title>obj_cgroup_charge (360,477 samples, 0.04%)</title><rect x="27.2" y="149" width="0.4" height="15.0" fill="rgb(221,75,18)" rx="2" ry="2" />
<text  x="30.19" y="159.5" ></text>
</g>
<g >
<title>vm_area_alloc (360,477 samples, 0.04%)</title><rect x="27.2" y="181" width="0.4" height="15.0" fill="rgb(249,203,48)" rx="2" ry="2" />
<text  x="30.19" y="191.5" ></text>
</g>
<g >
<title>w2c_decode__webp__wasm_DC8uv_C (923,927 samples, 0.09%)</title><rect x="64.6" y="325" width="1.1" height="15.0" fill="rgb(228,106,25)" rx="2" ry="2" />
<text  x="67.59" y="335.5" ></text>
</g>
<g >
<title>ext4_free_blocks (923,090 samples, 0.09%)</title><rect x="24.9" y="101" width="1.1" height="15.0" fill="rgb(251,214,51)" rx="2" ry="2" />
<text  x="27.92" y="111.5" ></text>
</g>
<g >
<title>notify_change (923,090 samples, 0.09%)</title><rect x="24.9" y="181" width="1.1" height="15.0" fill="rgb(237,150,35)" rx="2" ry="2" />
<text  x="27.92" y="191.5" ></text>
</g>
<g >
<title>begin_new_exec (120,009 samples, 0.01%)</title><rect x="27.1" y="213" width="0.1" height="15.0" fill="rgb(245,184,44)" rx="2" ry="2" />
<text  x="30.05" y="223.5" ></text>
</g>
<g >
<title>w2c_decode__webp__wasm_TM16_C (8,314,389 samples, 0.81%)</title><rect x="823.0" y="325" width="9.6" height="15.0" fill="rgb(224,90,21)" rx="2" ry="2" />
<text  x="825.97" y="335.5" ></text>
</g>
<g >
<title>w2c_decode__webp__wasm_HD4_C (923,292 samples, 0.09%)</title><rect x="692.5" y="325" width="1.0" height="15.0" fill="rgb(239,160,38)" rx="2" ry="2" />
<text  x="695.47" y="335.5" ></text>
</g>
<g >
<title>[unknown] (12,929,325 samples, 1.26%)</title><rect x="10.0" y="309" width="14.9" height="15.0" fill="rgb(210,24,5)" rx="2" ry="2" />
<text  x="13.00" y="319.5" ></text>
</g>
<g >
<title>w2c_decode__webp__wasm_UpsampleRgbLinePair_C (236,404,948 samples, 23.12%)</title><rect x="901.1" y="325" width="272.9" height="15.0" fill="rgb(241,168,40)" rx="2" ry="2" />
<text  x="904.15" y="335.5" >w2c_decode__webp__wasm_UpsampleRgbLi..</text>
</g>
<g >
<title>do_lookup_x (455,476 samples, 0.04%)</title><rect x="53.6" y="325" width="0.5" height="15.0" fill="rgb(245,187,44)" rx="2" ry="2" />
<text  x="56.61" y="335.5" ></text>
</g>
<g >
<title>__filemap_get_folio (923,090 samples, 0.09%)</title><rect x="24.9" y="53" width="1.1" height="15.0" fill="rgb(231,120,28)" rx="2" ry="2" />
<text  x="27.92" y="63.5" ></text>
</g>
<g >
<title>__libc_open64 (923,090 samples, 0.09%)</title><rect x="24.9" y="309" width="1.1" height="15.0" fill="rgb(235,140,33)" rx="2" ry="2" />
<text  x="27.92" y="319.5" ></text>
</g>
<g >
<title>w2c_decode__webp__wasm_HU4_C (1,847,089 samples, 0.18%)</title><rect x="695.7" y="325" width="2.1" height="15.0" fill="rgb(229,114,27)" rx="2" ry="2" />
<text  x="698.67" y="335.5" ></text>
</g>
<g >
<title>w2c_decode__webp__wasm_ReconstructRow (2,764,198 samples, 0.27%)</title><rect x="40.4" y="309" width="3.2" height="15.0" fill="rgb(238,153,36)" rx="2" ry="2" />
<text  x="43.40" y="319.5" ></text>
</g>
<g >
<title>__libc_write (923,064 samples, 0.09%)</title><rect x="26.0" y="309" width="1.1" height="15.0" fill="rgb(238,154,37)" rx="2" ry="2" />
<text  x="28.99" y="319.5" ></text>
</g>
<g >
<title>do_syscall_64 (480,486 samples, 0.05%)</title><rect x="27.1" y="293" width="0.5" height="15.0" fill="rgb(209,20,4)" rx="2" ry="2" />
<text  x="30.05" y="303.5" ></text>
</g>
<g >
<title>ext4_truncate (923,090 samples, 0.09%)</title><rect x="24.9" y="149" width="1.1" height="15.0" fill="rgb(216,54,13)" rx="2" ry="2" />
<text  x="27.92" y="159.5" ></text>
</g>
<g >
<title>path_openat (923,090 samples, 0.09%)</title><rect x="24.9" y="213" width="1.1" height="15.0" fill="rgb(249,202,48)" rx="2" ry="2" />
<text  x="27.92" y="223.5" ></text>
</g>
<g >
<title>ext4_mb_load_buddy_gfp (923,090 samples, 0.09%)</title><rect x="24.9" y="85" width="1.1" height="15.0" fill="rgb(211,28,6)" rx="2" ry="2" />
<text  x="27.92" y="95.5" ></text>
</g>
<g >
<title>ext4_setattr (923,090 samples, 0.09%)</title><rect x="24.9" y="165" width="1.1" height="15.0" fill="rgb(230,117,28)" rx="2" ry="2" />
<text  x="27.92" y="175.5" ></text>
</g>
<g >
<title>perf_iterate_ctx (457,684 samples, 0.04%)</title><rect x="53.1" y="197" width="0.5" height="15.0" fill="rgb(205,4,0)" rx="2" ry="2" />
<text  x="56.08" y="207.5" ></text>
</g>
<g >
<title>__x64_sys_execve (480,486 samples, 0.05%)</title><rect x="27.1" y="277" width="0.5" height="15.0" fill="rgb(247,193,46)" rx="2" ry="2" />
<text  x="30.05" y="287.5" ></text>
</g>
<g >
<title>w2c_decode__webp__wasm_FilterLoop24_C (2,770,463 samples, 0.27%)</title><rect x="10.0" y="229" width="3.2" height="15.0" fill="rgb(206,5,1)" rx="2" ry="2" />
<text  x="13.00" y="239.5" ></text>
</g>
<g >
<title>__mprotect (457,684 samples, 0.04%)</title><rect x="53.1" y="325" width="0.5" height="15.0" fill="rgb(214,43,10)" rx="2" ry="2" />
<text  x="56.08" y="335.5" ></text>
</g>
<g >
<title>mprotect_fixup (457,684 samples, 0.04%)</title><rect x="53.1" y="245" width="0.5" height="15.0" fill="rgb(236,144,34)" rx="2" ry="2" />
<text  x="56.08" y="255.5" ></text>
</g>
<g >
<title>w2c_decode__webp__wasm_TransformOne_C (45,635,160 samples, 4.46%)</title><rect x="847.4" y="325" width="52.7" height="15.0" fill="rgb(231,120,28)" rx="2" ry="2" />
<text  x="850.42" y="335.5" >w2c_d..</text>
</g>
<g >
<title>bprm_execve (480,486 samples, 0.05%)</title><rect x="27.1" y="245" width="0.5" height="15.0" fill="rgb(218,61,14)" rx="2" ry="2" />
<text  x="30.05" y="255.5" ></text>
</g>
<g >
<title>do_syscall_64 (923,090 samples, 0.09%)</title><rect x="24.9" y="277" width="1.1" height="15.0" fill="rgb(209,20,4)" rx="2" ry="2" />
<text  x="27.92" y="287.5" ></text>
</g>
<g >
<title>ext4_ext_truncate (923,090 samples, 0.09%)</title><rect x="24.9" y="133" width="1.1" height="15.0" fill="rgb(226,97,23)" rx="2" ry="2" />
<text  x="27.92" y="143.5" ></text>
</g>
<g >
<title>w2c_decode__webp__wasm_GetCoeffsFast (7,387,820 samples, 0.72%)</title><rect x="27.6" y="309" width="8.5" height="15.0" fill="rgb(232,124,29)" rx="2" ry="2" />
<text  x="30.61" y="319.5" ></text>
</g>
<g >
<title>ext4_ext_remove_space (923,090 samples, 0.09%)</title><rect x="24.9" y="117" width="1.1" height="15.0" fill="rgb(222,82,19)" rx="2" ry="2" />
<text  x="27.92" y="127.5" ></text>
</g>
<g >
<title>_raw_spin_lock (845,501 samples, 0.08%)</title><rect x="51.0" y="229" width="1.0" height="15.0" fill="rgb(239,160,38)" rx="2" ry="2" />
<text  x="54.04" y="239.5" ></text>
</g>
<g >
<title>entry_SYSCALL_64_after_hwframe (480,486 samples, 0.05%)</title><rect x="27.1" y="309" width="0.5" height="15.0" fill="rgb(218,63,15)" rx="2" ry="2" />
<text  x="30.05" y="319.5" ></text>
</g>
<g >
<title>[unknown] (12,929,325 samples, 1.26%)</title><rect x="10.0" y="293" width="14.9" height="15.0" fill="rgb(210,24,5)" rx="2" ry="2" />
<text  x="13.00" y="303.5" ></text>
</g>
<g >
<title>w2c_decode__webp__wasm_VP8LReadBits (3,696,602 samples, 0.36%)</title><rect x="1181.4" y="325" width="4.3" height="15.0" fill="rgb(249,206,49)" rx="2" ry="2" />
<text  x="1184.43" y="335.5" ></text>
</g>
<g >
<title>do_truncate (923,090 samples, 0.09%)</title><rect x="24.9" y="197" width="1.1" height="15.0" fill="rgb(216,53,12)" rx="2" ry="2" />
<text  x="27.92" y="207.5" ></text>
</g>
<g >
<title>entry_SYSCALL_64_after_hwframe (923,064 samples, 0.09%)</title><rect x="26.0" y="293" width="1.1" height="15.0" fill="rgb(218,63,15)" rx="2" ry="2" />
<text  x="28.99" y="303.5" ></text>
</g>
<g >
<title>do_sys_openat2 (923,090 samples, 0.09%)</title><rect x="24.9" y="245" width="1.1" height="15.0" fill="rgb(253,221,52)" rx="2" ry="2" />
<text  x="27.92" y="255.5" ></text>
</g>
<g >
<title>w2c_decode__webp__wasm_IDecode (2,772,521 samples, 0.27%)</title><rect x="18.5" y="229" width="3.2" height="15.0" fill="rgb(208,15,3)" rx="2" ry="2" />
<text  x="21.52" y="239.5" ></text>
</g>
<g >
<title>decode_webp_was (1,022,459,304 samples, 100.00%)</title><rect x="10.0" y="341" width="1180.0" height="15.0" fill="rgb(216,54,12)" rx="2" ry="2" />
<text  x="13.00" y="351.5" >decode_webp_was</text>
</g>
<g >
<title>asm_exc_page_fault (845,501 samples, 0.08%)</title><rect x="51.0" y="309" width="1.0" height="15.0" fill="rgb(225,93,22)" rx="2" ry="2" />
<text  x="54.04" y="319.5" ></text>
</g>
<g >
<title>preempt_count_add (845,501 samples, 0.08%)</title><rect x="51.0" y="213" width="1.0" height="15.0" fill="rgb(253,222,53)" rx="2" ry="2" />
<text  x="54.04" y="223.5" ></text>
</g>
<g >
<title>w2c_decode__webp__wasm_BuildHuffmanTable (3,696,082 samples, 0.36%)</title><rect x="54.1" y="325" width="4.3" height="15.0" fill="rgb(240,161,38)" rx="2" ry="2" />
<text  x="57.13" y="335.5" ></text>
</g>
<g >
<title>w2c_decode__webp__wasm_HFilter8i_C (923,191 samples, 0.09%)</title><rect x="694.6" y="325" width="1.1" height="15.0" fill="rgb(208,16,3)" rx="2" ry="2" />
<text  x="697.61" y="335.5" ></text>
</g>
<g >
<title>map_vdso (360,477 samples, 0.04%)</title><rect x="27.2" y="213" width="0.4" height="15.0" fill="rgb(227,103,24)" rx="2" ry="2" />
<text  x="30.19" y="223.5" ></text>
</g>
<g >
<title>flush_signal_handlers (120,009 samples, 0.01%)</title><rect x="27.1" y="197" width="0.1" height="15.0" fill="rgb(253,221,53)" rx="2" ry="2" />
<text  x="30.05" y="207.5" ></text>
</g>
<g >
<title>w2c_decode__webp__wasm_RD4_C (924,106 samples, 0.09%)</title><rect x="787.8" y="325" width="1.1" height="15.0" fill="rgb(225,92,22)" rx="2" ry="2" />
<text  x="790.79" y="335.5" ></text>
</g>
<g >
<title>__x64_sys_openat (923,090 samples, 0.09%)</title><rect x="24.9" y="261" width="1.1" height="15.0" fill="rgb(251,215,51)" rx="2" ry="2" />
<text  x="27.92" y="271.5" ></text>
</g>
<g >
<title>perf_event_mmap (457,684 samples, 0.04%)</title><rect x="53.1" y="229" width="0.5" height="15.0" fill="rgb(229,112,26)" rx="2" ry="2" />
<text  x="56.08" y="239.5" ></text>
</g>
<g >
<title>w2c_decode__webp__wasm_TransformUV_C (921,147 samples, 0.09%)</title><rect x="22.8" y="229" width="1.1" height="15.0" fill="rgb(249,206,49)" rx="2" ry="2" />
<text  x="25.79" y="239.5" ></text>
</g>
<g >
<title>all (1,022,490,100 samples, 100%)</title><rect x="10.0" y="357" width="1180.0" height="15.0" fill="rgb(213,39,9)" rx="2" ry="2" />
<text  x="13.00" y="367.5" ></text>
</g>
<g >
<title>vfs_write (923,064 samples, 0.09%)</title><rect x="26.0" y="245" width="1.1" height="15.0" fill="rgb(250,209,50)" rx="2" ry="2" />
<text  x="28.99" y="255.5" ></text>
</g>
<g >
<title>__memset_avx2_unaligned_erms (923,282 samples, 0.09%)</title><rect x="52.0" y="325" width="1.1" height="15.0" fill="rgb(223,84,20)" rx="2" ry="2" />
<text  x="55.01" y="335.5" ></text>
</g>
<g >
<title>w2c_decode__webp__wasm_GetCoeffsFast (222,240,594 samples, 21.74%)</title><rect x="384.8" y="325" width="256.5" height="15.0" fill="rgb(232,124,29)" rx="2" ry="2" />
<text  x="387.84" y="335.5" >w2c_decode__webp__wasm_GetCoeffsFast</text>
</g>
<g >
<title>do_filp_open (923,090 samples, 0.09%)</title><rect x="24.9" y="229" width="1.1" height="15.0" fill="rgb(211,28,6)" rx="2" ry="2" />
<text  x="27.92" y="239.5" ></text>
</g>
<g >
<title>w2c_decode__webp__wasm_GetLargeValue (44,330,571 samples, 4.34%)</title><rect x="641.3" y="325" width="51.2" height="15.0" fill="rgb(206,5,1)" rx="2" ry="2" />
<text  x="644.31" y="335.5" >w2c_d..</text>
</g>
<g >
<title>handle_mm_fault (845,501 samples, 0.08%)</title><rect x="51.0" y="261" width="1.0" height="15.0" fill="rgb(234,135,32)" rx="2" ry="2" />
<text  x="54.04" y="271.5" ></text>
</g>
<g >
<title>__memmove_avx_unaligned_erms (7,301,138 samples, 0.71%)</title><rect x="43.6" y="325" width="8.4" height="15.0" fill="rgb(205,0,0)" rx="2" ry="2" />
<text  x="46.59" y="335.5" ></text>
</g>
<g >
<title>w2c_decode__webp__wasm_VP8GetValue (2,771,113 samples, 0.27%)</title><rect x="1176.1" y="325" width="3.2" height="15.0" fill="rgb(243,179,42)" rx="2" ry="2" />
<text  x="1179.10" y="335.5" ></text>
</g>
<g >
<title>w2c_decode__webp__wasm_DC4_C (3,695,783 samples, 0.36%)</title><rect x="59.3" y="325" width="4.2" height="15.0" fill="rgb(222,78,18)" rx="2" ry="2" />
<text  x="62.26" y="335.5" ></text>
</g>
<g >
<title>w2c_decode__webp__wasm_TM4_C (3,693,714 samples, 0.36%)</title><rect x="832.6" y="325" width="4.2" height="15.0" fill="rgb(254,226,54)" rx="2" ry="2" />
<text  x="835.56" y="335.5" ></text>
</g>
<g >
<title>w2c_decode__webp__wasm_FilterLoop26_C (93,682,523 samples, 9.16%)</title><rect x="271.4" y="325" width="108.1" height="15.0" fill="rgb(243,176,42)" rx="2" ry="2" />
<text  x="274.39" y="335.5" >w2c_decode__w..</text>
</g>
<g >
<title>w2c_decode__webp__wasm_VP8ParseProba (2,771,442 samples, 0.27%)</title><rect x="1185.7" y="325" width="3.2" height="15.0" fill="rgb(237,149,35)" rx="2" ry="2" />
<text  x="1188.70" y="335.5" ></text>
</g>
<g >
<title>w2c_decode__webp__wasm_DecodeImageData (21,240,658 samples, 2.08%)</title><rect x="65.7" y="325" width="24.5" height="15.0" fill="rgb(217,59,14)" rx="2" ry="2" />
<text  x="68.65" y="335.5" >w..</text>
</g>
<g >
<title>exc_page_fault (845,501 samples, 0.08%)</title><rect x="51.0" y="293" width="1.0" height="15.0" fill="rgb(212,35,8)" rx="2" ry="2" />
<text  x="54.04" y="303.5" ></text>
</g>
<g >
<title>w2c_decode__webp__wasm_DC8uvNoLeft_C (922,418 samples, 0.09%)</title><rect x="63.5" y="325" width="1.1" height="15.0" fill="rgb(205,2,0)" rx="2" ry="2" />
<text  x="66.52" y="335.5" ></text>
</g>
<g >
<title>entry_SYSCALL_64_after_hwframe (923,090 samples, 0.09%)</title><rect x="24.9" y="293" width="1.1" height="15.0" fill="rgb(218,63,15)" rx="2" ry="2" />
<text  x="27.92" y="303.5" ></text>
</g>
</g>
</svg>
