<?xml version="1.0" standalone="no"?>
<!DOCTYPE svg PUBLIC "-//W3C//DTD SVG 1.1//EN" "http://www.w3.org/Graphics/SVG/1.1/DTD/svg11.dtd">
<svg version="1.1" width="1200" height="406" onload="init(evt)" viewBox="0 0 1200 406" xmlns="http://www.w3.org/2000/svg" xmlns:xlink="http://www.w3.org/1999/xlink">
<!-- Flame graph stack visualization. See https://github.com/brendangregg/FlameGraph for latest version, and http://www.brendangregg.com/flamegraphs.html for examples. -->
<!-- NOTES:  -->
<defs>
	<linearGradient id="background" y1="0" y2="1" x1="0" x2="0" >
		<stop stop-color="#eeeeee" offset="5%" />
		<stop stop-color="#eeeeb0" offset="95%" />
	</linearGradient>
</defs>
<style type="text/css">
	text { font-family:Verdana; font-size:12px; fill:rgb(0,0,0); }
	#search, #ignorecase { opacity:0.1; cursor:pointer; }
	#search:hover, #search.show, #ignorecase:hover, #ignorecase.show { opacity:1; }
	#subtitle { text-anchor:middle; font-color:rgb(160,160,160); }
	#title { text-anchor:middle; font-size:17px}
	#unzoom { cursor:pointer; }
	#frames > *:hover { stroke:black; stroke-width:0.5; cursor:pointer; }
	.hide { display:none; }
	.parent { opacity:0.5; }
</style>
<script type="text/ecmascript">
<![CDATA[
	"use strict";
	var details, searchbtn, unzoombtn, matchedtxt, svg, searching, currentSearchTerm, ignorecase, ignorecaseBtn;
	function init(evt) {
		details = document.getElementById("details").firstChild;
		searchbtn = document.getElementById("search");
		ignorecaseBtn = document.getElementById("ignorecase");
		unzoombtn = document.getElementById("unzoom");
		matchedtxt = document.getElementById("matched");
		svg = document.getElementsByTagName("svg")[0];
		searching = 0;
		currentSearchTerm = null;

		// use GET parameters to restore a flamegraphs state.
		var params = get_params();
		if (params.x && params.y)
			zoom(find_group(document.querySelector('[x="' + params.x + '"][y="' + params.y + '"]')));
                if (params.s) search(params.s);
	}

	// event listeners
	window.addEventListener("click", function(e) {
		var target = find_group(e.target);
		if (target) {
			if (target.nodeName == "a") {
				if (e.ctrlKey === false) return;
				e.preventDefault();
			}
			if (target.classList.contains("parent")) unzoom(true);
			zoom(target);
			if (!document.querySelector('.parent')) {
				// we have basically done a clearzoom so clear the url
				var params = get_params();
				if (params.x) delete params.x;
				if (params.y) delete params.y;
				history.replaceState(null, null, parse_params(params));
				unzoombtn.classList.add("hide");
				return;
			}

			// set parameters for zoom state
			var el = target.querySelector("rect");
			if (el && el.attributes && el.attributes.y && el.attributes._orig_x) {
				var params = get_params()
				params.x = el.attributes._orig_x.value;
				params.y = el.attributes.y.value;
				history.replaceState(null, null, parse_params(params));
			}
		}
		else if (e.target.id == "unzoom") clearzoom();
		else if (e.target.id == "search") search_prompt();
		else if (e.target.id == "ignorecase") toggle_ignorecase();
	}, false)

	// mouse-over for info
	// show
	window.addEventListener("mouseover", function(e) {
		var target = find_group(e.target);
		if (target) details.nodeValue = "Function: " + g_to_text(target);
	}, false)

	// clear
	window.addEventListener("mouseout", function(e) {
		var target = find_group(e.target);
		if (target) details.nodeValue = ' ';
	}, false)

	// ctrl-F for search
	// ctrl-I to toggle case-sensitive search
	window.addEventListener("keydown",function (e) {
		if (e.keyCode === 114 || (e.ctrlKey && e.keyCode === 70)) {
			e.preventDefault();
			search_prompt();
		}
		else if (e.ctrlKey && e.keyCode === 73) {
			e.preventDefault();
			toggle_ignorecase();
		}
	}, false)

	// functions
	function get_params() {
		var params = {};
		var paramsarr = window.location.search.substr(1).split('&');
		for (var i = 0; i < paramsarr.length; ++i) {
			var tmp = paramsarr[i].split("=");
			if (!tmp[0] || !tmp[1]) continue;
			params[tmp[0]]  = decodeURIComponent(tmp[1]);
		}
		return params;
	}
	function parse_params(params) {
		var uri = "?";
		for (var key in params) {
			uri += key + '=' + encodeURIComponent(params[key]) + '&';
		}
		if (uri.slice(-1) == "&")
			uri = uri.substring(0, uri.length - 1);
		if (uri == '?')
			uri = window.location.href.split('?')[0];
		return uri;
	}
	function find_child(node, selector) {
		var children = node.querySelectorAll(selector);
		if (children.length) return children[0];
	}
	function find_group(node) {
		var parent = node.parentElement;
		if (!parent) return;
		if (parent.id == "frames") return node;
		return find_group(parent);
	}
	function orig_save(e, attr, val) {
		if (e.attributes["_orig_" + attr] != undefined) return;
		if (e.attributes[attr] == undefined) return;
		if (val == undefined) val = e.attributes[attr].value;
		e.setAttribute("_orig_" + attr, val);
	}
	function orig_load(e, attr) {
		if (e.attributes["_orig_"+attr] == undefined) return;
		e.attributes[attr].value = e.attributes["_orig_" + attr].value;
		e.removeAttribute("_orig_"+attr);
	}
	function g_to_text(e) {
		var text = find_child(e, "title").firstChild.nodeValue;
		return (text)
	}
	function g_to_func(e) {
		var func = g_to_text(e);
		// if there's any manipulation we want to do to the function
		// name before it's searched, do it here before returning.
		return (func);
	}
	function update_text(e) {
		var r = find_child(e, "rect");
		var t = find_child(e, "text");
		var w = parseFloat(r.attributes.width.value) -3;
		var txt = find_child(e, "title").textContent.replace(/\([^(]*\)$/,"");
		t.attributes.x.value = parseFloat(r.attributes.x.value) + 3;

		// Smaller than this size won't fit anything
		if (w < 2 * 12 * 0.59) {
			t.textContent = "";
			return;
		}

		t.textContent = txt;
		var sl = t.getSubStringLength(0, txt.length);
		// check if only whitespace or if we can fit the entire string into width w
		if (/^ *$/.test(txt) || sl < w)
			return;

		// this isn't perfect, but gives a good starting point
		// and avoids calling getSubStringLength too often
		var start = Math.floor((w/sl) * txt.length);
		for (var x = start; x > 0; x = x-2) {
			if (t.getSubStringLength(0, x + 2) <= w) {
				t.textContent = txt.substring(0, x) + "..";
				return;
			}
		}
		t.textContent = "";
	}

	// zoom
	function zoom_reset(e) {
		if (e.attributes != undefined) {
			orig_load(e, "x");
			orig_load(e, "width");
		}
		if (e.childNodes == undefined) return;
		for (var i = 0, c = e.childNodes; i < c.length; i++) {
			zoom_reset(c[i]);
		}
	}
	function zoom_child(e, x, ratio) {
		if (e.attributes != undefined) {
			if (e.attributes.x != undefined) {
				orig_save(e, "x");
				e.attributes.x.value = (parseFloat(e.attributes.x.value) - x - 10) * ratio + 10;
				if (e.tagName == "text")
					e.attributes.x.value = find_child(e.parentNode, "rect[x]").attributes.x.value + 3;
			}
			if (e.attributes.width != undefined) {
				orig_save(e, "width");
				e.attributes.width.value = parseFloat(e.attributes.width.value) * ratio;
			}
		}

		if (e.childNodes == undefined) return;
		for (var i = 0, c = e.childNodes; i < c.length; i++) {
			zoom_child(c[i], x - 10, ratio);
		}
	}
	function zoom_parent(e) {
		if (e.attributes) {
			if (e.attributes.x != undefined) {
				orig_save(e, "x");
				e.attributes.x.value = 10;
			}
			if (e.attributes.width != undefined) {
				orig_save(e, "width");
				e.attributes.width.value = parseInt(svg.width.baseVal.value) - (10 * 2);
			}
		}
		if (e.childNodes == undefined) return;
		for (var i = 0, c = e.childNodes; i < c.length; i++) {
			zoom_parent(c[i]);
		}
	}
	function zoom(node) {
		var attr = find_child(node, "rect").attributes;
		var width = parseFloat(attr.width.value);
		var xmin = parseFloat(attr.x.value);
		var xmax = parseFloat(xmin + width);
		var ymin = parseFloat(attr.y.value);
		var ratio = (svg.width.baseVal.value - 2 * 10) / width;

		// XXX: Workaround for JavaScript float issues (fix me)
		var fudge = 0.0001;

		unzoombtn.classList.remove("hide");

		var el = document.getElementById("frames").children;
		for (var i = 0; i < el.length; i++) {
			var e = el[i];
			var a = find_child(e, "rect").attributes;
			var ex = parseFloat(a.x.value);
			var ew = parseFloat(a.width.value);
			var upstack;
			// Is it an ancestor
			if (0 == 0) {
				upstack = parseFloat(a.y.value) > ymin;
			} else {
				upstack = parseFloat(a.y.value) < ymin;
			}
			if (upstack) {
				// Direct ancestor
				if (ex <= xmin && (ex+ew+fudge) >= xmax) {
					e.classList.add("parent");
					zoom_parent(e);
					update_text(e);
				}
				// not in current path
				else
					e.classList.add("hide");
			}
			// Children maybe
			else {
				// no common path
				if (ex < xmin || ex + fudge >= xmax) {
					e.classList.add("hide");
				}
				else {
					zoom_child(e, xmin, ratio);
					update_text(e);
				}
			}
		}
		search();
	}
	function unzoom(dont_update_text) {
		unzoombtn.classList.add("hide");
		var el = document.getElementById("frames").children;
		for(var i = 0; i < el.length; i++) {
			el[i].classList.remove("parent");
			el[i].classList.remove("hide");
			zoom_reset(el[i]);
			if(!dont_update_text) update_text(el[i]);
		}
		search();
	}
	function clearzoom() {
		unzoom();

		// remove zoom state
		var params = get_params();
		if (params.x) delete params.x;
		if (params.y) delete params.y;
		history.replaceState(null, null, parse_params(params));
	}

	// search
	function toggle_ignorecase() {
		ignorecase = !ignorecase;
		if (ignorecase) {
			ignorecaseBtn.classList.add("show");
		} else {
			ignorecaseBtn.classList.remove("show");
		}
		reset_search();
		search();
	}
	function reset_search() {
		var el = document.querySelectorAll("#frames rect");
		for (var i = 0; i < el.length; i++) {
			orig_load(el[i], "fill")
		}
		var params = get_params();
		delete params.s;
		history.replaceState(null, null, parse_params(params));
	}
	function search_prompt() {
		if (!searching) {
			var term = prompt("Enter a search term (regexp " +
			    "allowed, eg: ^ext4_)"
			    + (ignorecase ? ", ignoring case" : "")
			    + "\nPress Ctrl-i to toggle case sensitivity", "");
			if (term != null) search(term);
		} else {
			reset_search();
			searching = 0;
			currentSearchTerm = null;
			searchbtn.classList.remove("show");
			searchbtn.firstChild.nodeValue = "Search"
			matchedtxt.classList.add("hide");
			matchedtxt.firstChild.nodeValue = ""
		}
	}
	function search(term) {
		if (term) currentSearchTerm = term;

		var re = new RegExp(currentSearchTerm, ignorecase ? 'i' : '');
		var el = document.getElementById("frames").children;
		var matches = new Object();
		var maxwidth = 0;
		for (var i = 0; i < el.length; i++) {
			var e = el[i];
			var func = g_to_func(e);
			var rect = find_child(e, "rect");
			if (func == null || rect == null)
				continue;

			// Save max width. Only works as we have a root frame
			var w = parseFloat(rect.attributes.width.value);
			if (w > maxwidth)
				maxwidth = w;

			if (func.match(re)) {
				// highlight
				var x = parseFloat(rect.attributes.x.value);
				orig_save(rect, "fill");
				rect.attributes.fill.value = "rgb(230,0,230)";

				// remember matches
				if (matches[x] == undefined) {
					matches[x] = w;
				} else {
					if (w > matches[x]) {
						// overwrite with parent
						matches[x] = w;
					}
				}
				searching = 1;
			}
		}
		if (!searching)
			return;
		var params = get_params();
		params.s = currentSearchTerm;
		history.replaceState(null, null, parse_params(params));

		searchbtn.classList.add("show");
		searchbtn.firstChild.nodeValue = "Reset Search";

		// calculate percent matched, excluding vertical overlap
		var count = 0;
		var lastx = -1;
		var lastw = 0;
		var keys = Array();
		for (k in matches) {
			if (matches.hasOwnProperty(k))
				keys.push(k);
		}
		// sort the matched frames by their x location
		// ascending, then width descending
		keys.sort(function(a, b){
			return a - b;
		});
		// Step through frames saving only the biggest bottom-up frames
		// thanks to the sort order. This relies on the tree property
		// where children are always smaller than their parents.
		var fudge = 0.0001;	// JavaScript floating point
		for (var k in keys) {
			var x = parseFloat(keys[k]);
			var w = matches[keys[k]];
			if (x >= lastx + lastw - fudge) {
				count += w;
				lastx = x;
				lastw = w;
			}
		}
		// display matched percent
		matchedtxt.classList.remove("hide");
		var pct = 100 * count / maxwidth;
		if (pct != 100) pct = pct.toFixed(1)
		matchedtxt.firstChild.nodeValue = "Matched: " + pct + "%";
	}
]]>
</script>
<rect x="0.0" y="0" width="1200.0" height="406.0" fill="url(#background)"  />
<text id="title" x="600.00" y="24" >Flame Graph</text>
<text id="details" x="10.00" y="389" > </text>
<text id="unzoom" x="10.00" y="24" class="hide">Reset Zoom</text>
<text id="search" x="1090.00" y="24" >Search</text>
<text id="ignorecase" x="1174.00" y="24" >ic</text>
<text id="matched" x="1090.00" y="389" > </text>
<g id="frames">
<g >
<title>ext4_release_file (923,180 samples, 0.14%)</title><rect x="1183.5" y="197" width="1.6" height="15.0" fill="rgb(225,92,22)" rx="2" ry="2" />
<text  x="1186.47" y="207.5" ></text>
</g>
<g >
<title>perf_iterate_ctx (359,963 samples, 0.05%)</title><rect x="1188.5" y="165" width="0.7" height="15.0" fill="rgb(205,4,0)" rx="2" ry="2" />
<text  x="1191.53" y="175.5" ></text>
</g>
<g >
<title>decode_webp_nat (673,338,098 samples, 100.00%)</title><rect x="10.0" y="341" width="1179.9" height="15.0" fill="rgb(218,61,14)" rx="2" ry="2" />
<text  x="13.00" y="351.5" >decode_webp_nat</text>
</g>
<g >
<title>all (673,368,881 samples, 100%)</title><rect x="10.0" y="357" width="1180.0" height="15.0" fill="rgb(213,39,9)" rx="2" ry="2" />
<text  x="13.00" y="367.5" ></text>
</g>
<g >
<title>VP8LInverseTransform (6,465,918 samples, 0.96%)</title><rect x="600.1" y="309" width="11.3" height="15.0" fill="rgb(234,134,32)" rx="2" ry="2" />
<text  x="603.07" y="319.5" ></text>
</g>
<g >
<title>entry_SYSCALL_64_after_hwframe (923,180 samples, 0.14%)</title><rect x="1183.5" y="293" width="1.6" height="15.0" fill="rgb(218,63,15)" rx="2" ry="2" />
<text  x="1186.47" y="303.5" ></text>
</g>
<g >
<title>do_syscall_64 (923,161 samples, 0.14%)</title><rect x="1186.7" y="277" width="1.6" height="15.0" fill="rgb(209,20,4)" rx="2" ry="2" />
<text  x="1189.71" y="287.5" ></text>
</g>
<g >
<title>PredictorAdd11_C (16,591,313 samples, 2.46%)</title><rect x="69.6" y="325" width="29.1" height="15.0" fill="rgb(249,206,49)" rx="2" ry="2" />
<text  x="72.64" y="335.5" >Pr..</text>
</g>
<g >
<title>ext4_da_write_begin (923,161 samples, 0.14%)</title><rect x="1186.7" y="197" width="1.6" height="15.0" fill="rgb(211,32,7)" rx="2" ry="2" />
<text  x="1189.71" y="207.5" ></text>
</g>
<g >
<title>PredictorAdd3_C (1,846,766 samples, 0.27%)</title><rect x="271.9" y="325" width="3.2" height="15.0" fill="rgb(253,222,53)" rx="2" ry="2" />
<text  x="274.85" y="335.5" ></text>
</g>
<g >
<title>DecodeImageData (293,228,686 samples, 43.55%)</title><rect x="624.4" y="293" width="513.8" height="15.0" fill="rgb(254,229,54)" rx="2" ry="2" />
<text  x="627.35" y="303.5" >DecodeImageData</text>
</g>
<g >
<title>ext4_io_submit (923,180 samples, 0.14%)</title><rect x="1183.5" y="117" width="1.6" height="15.0" fill="rgb(214,43,10)" rx="2" ry="2" />
<text  x="1186.47" y="127.5" ></text>
</g>
<g >
<title>PredictorAdd2_C (1,847,859 samples, 0.27%)</title><rect x="268.6" y="325" width="3.3" height="15.0" fill="rgb(209,22,5)" rx="2" ry="2" />
<text  x="271.61" y="335.5" ></text>
</g>
<g >
<title>set_cred_ucounts (119,722 samples, 0.02%)</title><rect x="1188.3" y="197" width="0.2" height="15.0" fill="rgb(246,188,45)" rx="2" ry="2" />
<text  x="1191.32" y="207.5" ></text>
</g>
<g >
<title>handle_mm_fault (382,103 samples, 0.06%)</title><rect x="1137.5" y="229" width="0.7" height="15.0" fill="rgb(234,135,32)" rx="2" ry="2" />
<text  x="1140.53" y="239.5" ></text>
</g>
<g >
<title>vma_expand (446,308 samples, 0.07%)</title><rect x="1189.2" y="229" width="0.7" height="15.0" fill="rgb(222,80,19)" rx="2" ry="2" />
<text  x="1192.16" y="239.5" ></text>
</g>
<g >
<title>exit_to_user_mode_prepare (923,180 samples, 0.14%)</title><rect x="1183.5" y="245" width="1.6" height="15.0" fill="rgb(228,108,25)" rx="2" ry="2" />
<text  x="1186.47" y="255.5" ></text>
</g>
<g >
<title>do_mmap (446,308 samples, 0.07%)</title><rect x="1189.2" y="261" width="0.7" height="15.0" fill="rgb(228,107,25)" rx="2" ry="2" />
<text  x="1192.16" y="271.5" ></text>
</g>
<g >
<title>vfs_fstatat (453,997 samples, 0.07%)</title><rect x="1182.7" y="245" width="0.8" height="15.0" fill="rgb(232,127,30)" rx="2" ry="2" />
<text  x="1185.67" y="255.5" ></text>
</g>
<g >
<title>asm_exc_page_fault (382,103 samples, 0.06%)</title><rect x="1137.5" y="277" width="0.7" height="15.0" fill="rgb(225,93,22)" rx="2" ry="2" />
<text  x="1140.53" y="287.5" ></text>
</g>
<g >
<title>entry_SYSCALL_64_after_hwframe (479,685 samples, 0.07%)</title><rect x="1188.3" y="309" width="0.9" height="15.0" fill="rgb(218,63,15)" rx="2" ry="2" />
<text  x="1191.32" y="319.5" ></text>
</g>
<g >
<title>DecodeImageStream (923,159 samples, 0.14%)</title><rect x="68.0" y="325" width="1.6" height="15.0" fill="rgb(241,168,40)" rx="2" ry="2" />
<text  x="71.02" y="335.5" ></text>
</g>
<g >
<title>__do_sys_newfstatat (453,997 samples, 0.07%)</title><rect x="1182.7" y="261" width="0.8" height="15.0" fill="rgb(243,177,42)" rx="2" ry="2" />
<text  x="1185.67" y="271.5" ></text>
</g>
<g >
<title>__libc_write (923,161 samples, 0.14%)</title><rect x="1186.7" y="309" width="1.6" height="15.0" fill="rgb(238,154,37)" rx="2" ry="2" />
<text  x="1189.71" y="319.5" ></text>
</g>
<g >
<title>pagecache_get_page (923,161 samples, 0.14%)</title><rect x="1186.7" y="181" width="1.6" height="15.0" fill="rgb(253,221,53)" rx="2" ry="2" />
<text  x="1189.71" y="191.5" ></text>
</g>
<g >
<title>__close_nocancel (923,180 samples, 0.14%)</title><rect x="1183.5" y="309" width="1.6" height="15.0" fill="rgb(228,109,26)" rx="2" ry="2" />
<text  x="1186.47" y="319.5" ></text>
</g>
<g >
<title>[unknown] (399,277,159 samples, 59.30%)</title><rect x="489.5" y="325" width="699.7" height="15.0" fill="rgb(210,24,5)" rx="2" ry="2" />
<text  x="492.48" y="335.5" >[unknown]</text>
</g>
<g >
<title>VP8LAddGreenToBlueAndRed_C (33,233,740 samples, 4.94%)</title><rect x="492.7" y="309" width="58.3" height="15.0" fill="rgb(222,82,19)" rx="2" ry="2" />
<text  x="495.71" y="319.5" >VP8LAd..</text>
</g>
<g >
<title>VP8LTransformColorInverse_C (91,858,490 samples, 13.64%)</title><rect x="326.9" y="325" width="161.0" height="15.0" fill="rgb(236,145,34)" rx="2" ry="2" />
<text  x="329.89" y="335.5" >VP8LTransformColorIn..</text>
</g>
<g >
<title>asm_exc_page_fault (790,448 samples, 0.12%)</title><rect x="598.7" y="293" width="1.4" height="15.0" fill="rgb(225,93,22)" rx="2" ry="2" />
<text  x="601.69" y="303.5" ></text>
</g>
<g >
<title>__filemap_fdatawrite_range (923,180 samples, 0.14%)</title><rect x="1183.5" y="181" width="1.6" height="15.0" fill="rgb(233,129,30)" rx="2" ry="2" />
<text  x="1186.47" y="191.5" ></text>
</g>
<g >
<title>BuildHuffmanTable (31,262,349 samples, 4.64%)</title><rect x="10.0" y="325" width="54.8" height="15.0" fill="rgb(226,101,24)" rx="2" ry="2" />
<text  x="13.00" y="335.5" >Build..</text>
</g>
<g >
<title>do_syscall_64 (446,308 samples, 0.07%)</title><rect x="1189.2" y="293" width="0.7" height="15.0" fill="rgb(209,20,4)" rx="2" ry="2" />
<text  x="1192.16" y="303.5" ></text>
</g>
<g >
<title>mas_alloc_nodes (446,308 samples, 0.07%)</title><rect x="1189.2" y="197" width="0.7" height="15.0" fill="rgb(215,46,11)" rx="2" ry="2" />
<text  x="1192.16" y="207.5" ></text>
</g>
<g >
<title>generic_perform_write (923,161 samples, 0.14%)</title><rect x="1186.7" y="213" width="1.6" height="15.0" fill="rgb(236,146,35)" rx="2" ry="2" />
<text  x="1189.71" y="223.5" ></text>
</g>
<g >
<title>do_user_addr_fault (382,103 samples, 0.06%)</title><rect x="1137.5" y="245" width="0.7" height="15.0" fill="rgb(228,108,25)" rx="2" ry="2" />
<text  x="1140.53" y="255.5" ></text>
</g>
<g >
<title>PredictorAdd4_C (923,113 samples, 0.14%)</title><rect x="275.1" y="325" width="1.6" height="15.0" fill="rgb(246,193,46)" rx="2" ry="2" />
<text  x="278.09" y="335.5" ></text>
</g>
<g >
<title>xas_create (923,161 samples, 0.14%)</title><rect x="1186.7" y="101" width="1.6" height="15.0" fill="rgb(248,199,47)" rx="2" ry="2" />
<text  x="1189.71" y="111.5" ></text>
</g>
<g >
<title>ksys_write (923,161 samples, 0.14%)</title><rect x="1186.7" y="261" width="1.6" height="15.0" fill="rgb(205,4,1)" rx="2" ry="2" />
<text  x="1189.71" y="271.5" ></text>
</g>
<g >
<title>filemap_add_folio (923,161 samples, 0.14%)</title><rect x="1186.7" y="149" width="1.6" height="15.0" fill="rgb(207,9,2)" rx="2" ry="2" />
<text  x="1189.71" y="159.5" ></text>
</g>
<g >
<title>path_lookupat (453,997 samples, 0.07%)</title><rect x="1182.7" y="197" width="0.8" height="15.0" fill="rgb(250,208,49)" rx="2" ry="2" />
<text  x="1185.67" y="207.5" ></text>
</g>
<g >
<title>blk_add_rq_to_plug (923,180 samples, 0.14%)</title><rect x="1183.5" y="69" width="1.6" height="15.0" fill="rgb(243,175,41)" rx="2" ry="2" />
<text  x="1186.47" y="79.5" ></text>
</g>
<g >
<title>DecodeImageData (1,847,927 samples, 0.27%)</title><rect x="64.8" y="325" width="3.2" height="15.0" fill="rgb(254,229,54)" rx="2" ry="2" />
<text  x="67.78" y="335.5" ></text>
</g>
<g >
<title>syscall_exit_to_user_mode (923,180 samples, 0.14%)</title><rect x="1183.5" y="261" width="1.6" height="15.0" fill="rgb(251,211,50)" rx="2" ry="2" />
<text  x="1186.47" y="271.5" ></text>
</g>
<g >
<title>mas_preallocate (446,308 samples, 0.07%)</title><rect x="1189.2" y="213" width="0.7" height="15.0" fill="rgb(206,8,2)" rx="2" ry="2" />
<text  x="1192.16" y="223.5" ></text>
</g>
<g >
<title>__filemap_get_folio (923,161 samples, 0.14%)</title><rect x="1186.7" y="165" width="1.6" height="15.0" fill="rgb(231,120,28)" rx="2" ry="2" />
<text  x="1189.71" y="175.5" ></text>
</g>
<g >
<title>path_init (453,997 samples, 0.07%)</title><rect x="1182.7" y="181" width="0.8" height="15.0" fill="rgb(212,32,7)" rx="2" ry="2" />
<text  x="1185.67" y="191.5" ></text>
</g>
<g >
<title>task_work_run (923,180 samples, 0.14%)</title><rect x="1183.5" y="229" width="1.6" height="15.0" fill="rgb(209,22,5)" rx="2" ry="2" />
<text  x="1186.47" y="239.5" ></text>
</g>
<g >
<title>__perf_addr_filters_adjust (359,963 samples, 0.05%)</title><rect x="1188.5" y="149" width="0.7" height="15.0" fill="rgb(247,195,46)" rx="2" ry="2" />
<text  x="1191.53" y="159.5" ></text>
</g>
<g >
<title>entry_SYSCALL_64_after_hwframe (446,308 samples, 0.07%)</title><rect x="1189.2" y="309" width="0.7" height="15.0" fill="rgb(218,63,15)" rx="2" ry="2" />
<text  x="1192.16" y="319.5" ></text>
</g>
<g >
<title>__fput (923,180 samples, 0.14%)</title><rect x="1183.5" y="213" width="1.6" height="15.0" fill="rgb(248,200,47)" rx="2" ry="2" />
<text  x="1186.47" y="223.5" ></text>
</g>
<g >
<title>do_syscall_64 (453,997 samples, 0.07%)</title><rect x="1182.7" y="277" width="0.8" height="15.0" fill="rgb(209,20,4)" rx="2" ry="2" />
<text  x="1185.67" y="287.5" ></text>
</g>
<g >
<title>exc_page_fault (382,103 samples, 0.06%)</title><rect x="1137.5" y="261" width="0.7" height="15.0" fill="rgb(212,35,8)" rx="2" ry="2" />
<text  x="1140.53" y="271.5" ></text>
</g>
<g >
<title>PredictorAdd13_C (58,169,479 samples, 8.64%)</title><rect x="129.4" y="325" width="102.0" height="15.0" fill="rgb(236,146,35)" rx="2" ry="2" />
<text  x="132.45" y="335.5" >PredictorAdd..</text>
</g>
<g >
<title>blk_mq_flush_plug_list (923,180 samples, 0.14%)</title><rect x="1183.5" y="53" width="1.6" height="15.0" fill="rgb(215,46,11)" rx="2" ry="2" />
<text  x="1186.47" y="63.5" ></text>
</g>
<g >
<title>do_writepages (923,180 samples, 0.14%)</title><rect x="1183.5" y="149" width="1.6" height="15.0" fill="rgb(240,164,39)" rx="2" ry="2" />
<text  x="1186.47" y="159.5" ></text>
</g>
<g >
<title>submit_bio_noacct_nocheck (923,180 samples, 0.14%)</title><rect x="1183.5" y="101" width="1.6" height="15.0" fill="rgb(225,95,22)" rx="2" ry="2" />
<text  x="1186.47" y="111.5" ></text>
</g>
<g >
<title>filename_lookup (453,997 samples, 0.07%)</title><rect x="1182.7" y="213" width="0.8" height="15.0" fill="rgb(216,52,12)" rx="2" ry="2" />
<text  x="1185.67" y="223.5" ></text>
</g>
<g >
<title>__filemap_add_folio (923,161 samples, 0.14%)</title><rect x="1186.7" y="133" width="1.6" height="15.0" fill="rgb(229,113,27)" rx="2" ry="2" />
<text  x="1189.71" y="143.5" ></text>
</g>
<g >
<title>VP8LInverseTransform (7,390,493 samples, 1.10%)</title><rect x="313.9" y="325" width="13.0" height="15.0" fill="rgb(234,134,32)" rx="2" ry="2" />
<text  x="316.94" y="335.5" ></text>
</g>
<g >
<title>begin_new_exec (119,722 samples, 0.02%)</title><rect x="1188.3" y="213" width="0.2" height="15.0" fill="rgb(245,184,44)" rx="2" ry="2" />
<text  x="1191.32" y="223.5" ></text>
</g>
<g >
<title>__GI___fstatat (453,997 samples, 0.07%)</title><rect x="1182.7" y="309" width="0.8" height="15.0" fill="rgb(211,31,7)" rx="2" ry="2" />
<text  x="1185.67" y="319.5" ></text>
</g>
<g >
<title>__x64_sys_execve (479,685 samples, 0.07%)</title><rect x="1188.3" y="277" width="0.9" height="15.0" fill="rgb(247,193,46)" rx="2" ry="2" />
<text  x="1191.32" y="287.5" ></text>
</g>
<g >
<title>VP8LTransformColorInverse_C (7,388,253 samples, 1.10%)</title><rect x="611.4" y="309" width="13.0" height="15.0" fill="rgb(236,145,34)" rx="2" ry="2" />
<text  x="614.41" y="319.5" ></text>
</g>
<g >
<title>kmem_cache_alloc_bulk (446,308 samples, 0.07%)</title><rect x="1189.2" y="181" width="0.7" height="15.0" fill="rgb(234,135,32)" rx="2" ry="2" />
<text  x="1192.16" y="191.5" ></text>
</g>
<g >
<title>__handle_mm_fault (382,103 samples, 0.06%)</title><rect x="1137.5" y="213" width="0.7" height="15.0" fill="rgb(207,9,2)" rx="2" ry="2" />
<text  x="1140.53" y="223.5" ></text>
</g>
<g >
<title>ProcessRows (923,745 samples, 0.14%)</title><rect x="489.5" y="309" width="1.6" height="15.0" fill="rgb(207,9,2)" rx="2" ry="2" />
<text  x="492.48" y="319.5" ></text>
</g>
<g >
<title>__mmap64 (446,308 samples, 0.07%)</title><rect x="1189.2" y="325" width="0.7" height="15.0" fill="rgb(243,175,41)" rx="2" ry="2" />
<text  x="1192.16" y="335.5" ></text>
</g>
<g >
<title>ShiftBytes (923,955 samples, 0.14%)</title><rect x="1143.1" y="293" width="1.6" height="15.0" fill="rgb(216,52,12)" rx="2" ry="2" />
<text  x="1146.06" y="303.5" ></text>
</g>
<g >
<title>VP8LConvertBGRAToRGB_C (28,031,974 samples, 4.16%)</title><rect x="551.0" y="309" width="49.1" height="15.0" fill="rgb(222,78,18)" rx="2" ry="2" />
<text  x="553.95" y="319.5" >VP8L..</text>
</g>
<g >
<title>__install_special_mapping (359,963 samples, 0.05%)</title><rect x="1188.5" y="197" width="0.7" height="15.0" fill="rgb(212,35,8)" rx="2" ry="2" />
<text  x="1191.53" y="207.5" ></text>
</g>
<g >
<title>do_syscall_64 (923,180 samples, 0.14%)</title><rect x="1183.5" y="277" width="1.6" height="15.0" fill="rgb(209,20,4)" rx="2" ry="2" />
<text  x="1186.47" y="287.5" ></text>
</g>
<g >
<title>ReadHuffmanCode (6,466,424 samples, 0.96%)</title><rect x="302.6" y="325" width="11.3" height="15.0" fill="rgb(230,116,27)" rx="2" ry="2" />
<text  x="305.60" y="335.5" ></text>
</g>
<g >
<title>memset (446,308 samples, 0.07%)</title><rect x="1189.2" y="165" width="0.7" height="15.0" fill="rgb(208,14,3)" rx="2" ry="2" />
<text  x="1192.16" y="175.5" ></text>
</g>
<g >
<title>ext4_writepages (923,180 samples, 0.14%)</title><rect x="1183.5" y="133" width="1.6" height="15.0" fill="rgb(240,165,39)" rx="2" ry="2" />
<text  x="1186.47" y="143.5" ></text>
</g>
<g >
<title>map_vdso (359,963 samples, 0.05%)</title><rect x="1188.5" y="213" width="0.7" height="15.0" fill="rgb(227,103,24)" rx="2" ry="2" />
<text  x="1191.53" y="223.5" ></text>
</g>
<g >
<title>entry_SYSCALL_64_after_hwframe (453,997 samples, 0.07%)</title><rect x="1182.7" y="293" width="0.8" height="15.0" fill="rgb(218,63,15)" rx="2" ry="2" />
<text  x="1185.67" y="303.5" ></text>
</g>
<g >
<title>__libc_calloc (924,039 samples, 0.14%)</title><rect x="1185.1" y="309" width="1.6" height="15.0" fill="rgb(205,4,0)" rx="2" ry="2" />
<text  x="1188.09" y="319.5" ></text>
</g>
<g >
<title>ext4_buffered_write_iter (923,161 samples, 0.14%)</title><rect x="1186.7" y="229" width="1.6" height="15.0" fill="rgb(213,40,9)" rx="2" ry="2" />
<text  x="1189.71" y="239.5" ></text>
</g>
<g >
<title>nvme_queue_rqs (923,180 samples, 0.14%)</title><rect x="1183.5" y="37" width="1.6" height="15.0" fill="rgb(250,211,50)" rx="2" ry="2" />
<text  x="1186.47" y="47.5" ></text>
</g>
<g >
<title>WebPSafeMalloc (923,735 samples, 0.14%)</title><rect x="487.9" y="325" width="1.6" height="15.0" fill="rgb(249,203,48)" rx="2" ry="2" />
<text  x="490.86" y="335.5" ></text>
</g>
<g >
<title>do_execveat_common.isra.0 (479,685 samples, 0.07%)</title><rect x="1188.3" y="261" width="0.9" height="15.0" fill="rgb(231,123,29)" rx="2" ry="2" />
<text  x="1191.32" y="271.5" ></text>
</g>
<g >
<title>ReadHuffmanCodesHelper (2,770,521 samples, 0.41%)</title><rect x="1138.2" y="293" width="4.9" height="15.0" fill="rgb(209,22,5)" rx="2" ry="2" />
<text  x="1141.20" y="303.5" ></text>
</g>
<g >
<title>vm_mmap_pgoff (446,308 samples, 0.07%)</title><rect x="1189.2" y="277" width="0.7" height="15.0" fill="rgb(237,150,35)" rx="2" ry="2" />
<text  x="1192.16" y="287.5" ></text>
</g>
<g >
<title>PredictorAdd1_C (21,244,404 samples, 3.15%)</title><rect x="231.4" y="325" width="37.2" height="15.0" fill="rgb(216,52,12)" rx="2" ry="2" />
<text  x="234.38" y="335.5" >Pre..</text>
</g>
<g >
<title>vfs_statx (453,997 samples, 0.07%)</title><rect x="1182.7" y="229" width="0.8" height="15.0" fill="rgb(242,172,41)" rx="2" ry="2" />
<text  x="1185.67" y="239.5" ></text>
</g>
<g >
<title>mntget (453,997 samples, 0.07%)</title><rect x="1182.7" y="165" width="0.8" height="15.0" fill="rgb(232,125,30)" rx="2" ry="2" />
<text  x="1185.67" y="175.5" ></text>
</g>
<g >
<title>PredictorAdd7_C (4,617,789 samples, 0.69%)</title><rect x="294.5" y="325" width="8.1" height="15.0" fill="rgb(227,103,24)" rx="2" ry="2" />
<text  x="297.51" y="335.5" ></text>
</g>
<g >
<title>filemap_fdatawrite_wbc (923,180 samples, 0.14%)</title><rect x="1183.5" y="165" width="1.6" height="15.0" fill="rgb(210,25,6)" rx="2" ry="2" />
<text  x="1186.47" y="175.5" ></text>
</g>
<g >
<title>VP8LReadBits (921,890 samples, 0.14%)</title><rect x="1181.1" y="293" width="1.6" height="15.0" fill="rgb(236,146,35)" rx="2" ry="2" />
<text  x="1184.06" y="303.5" ></text>
</g>
<g >
<title>[unknown] (318,606,427 samples, 47.32%)</title><rect x="624.4" y="309" width="558.3" height="15.0" fill="rgb(210,24,5)" rx="2" ry="2" />
<text  x="627.35" y="319.5" >[unknown]</text>
</g>
<g >
<title>xas_store (923,161 samples, 0.14%)</title><rect x="1186.7" y="117" width="1.6" height="15.0" fill="rgb(207,9,2)" rx="2" ry="2" />
<text  x="1189.71" y="127.5" ></text>
</g>
<g >
<title>mmap_region (446,308 samples, 0.07%)</title><rect x="1189.2" y="245" width="0.7" height="15.0" fill="rgb(231,121,28)" rx="2" ry="2" />
<text  x="1192.16" y="255.5" ></text>
</g>
<g >
<title>PredictorAdd5_C (10,162,067 samples, 1.51%)</title><rect x="276.7" y="325" width="17.8" height="15.0" fill="rgb(240,163,39)" rx="2" ry="2" />
<text  x="279.70" y="335.5" ></text>
</g>
<g >
<title>do_syscall_64 (479,685 samples, 0.07%)</title><rect x="1188.3" y="293" width="0.9" height="15.0" fill="rgb(209,20,4)" rx="2" ry="2" />
<text  x="1191.32" y="303.5" ></text>
</g>
<g >
<title>ShiftBytes (923,040 samples, 0.14%)</title><rect x="491.1" y="309" width="1.6" height="15.0" fill="rgb(216,52,12)" rx="2" ry="2" />
<text  x="494.10" y="319.5" ></text>
</g>
<g >
<title>blk_mq_submit_bio (923,180 samples, 0.14%)</title><rect x="1183.5" y="85" width="1.6" height="15.0" fill="rgb(224,89,21)" rx="2" ry="2" />
<text  x="1186.47" y="95.5" ></text>
</g>
<g >
<title>vfs_write (923,161 samples, 0.14%)</title><rect x="1186.7" y="245" width="1.6" height="15.0" fill="rgb(250,209,50)" rx="2" ry="2" />
<text  x="1189.71" y="255.5" ></text>
</g>
<g >
<title>perf_event_mmap (359,963 samples, 0.05%)</title><rect x="1188.5" y="181" width="0.7" height="15.0" fill="rgb(229,112,26)" rx="2" ry="2" />
<text  x="1191.53" y="191.5" ></text>
</g>
<g >
<title>entry_SYSCALL_64_after_hwframe (923,161 samples, 0.14%)</title><rect x="1186.7" y="293" width="1.6" height="15.0" fill="rgb(218,63,15)" rx="2" ry="2" />
<text  x="1189.71" y="303.5" ></text>
</g>
<g >
<title>VP8LDoFillBitWindow (20,761,375 samples, 3.08%)</title><rect x="1144.7" y="293" width="36.4" height="15.0" fill="rgb(219,67,16)" rx="2" ry="2" />
<text  x="1147.68" y="303.5" >VP8..</text>
</g>
<g >
<title>PredictorAdd12_C (17,539,264 samples, 2.60%)</title><rect x="98.7" y="325" width="30.7" height="15.0" fill="rgb(243,176,42)" rx="2" ry="2" />
<text  x="101.71" y="335.5" >Pr..</text>
</g>
<g >
<title>load_elf_binary (479,685 samples, 0.07%)</title><rect x="1188.3" y="229" width="0.9" height="15.0" fill="rgb(223,83,20)" rx="2" ry="2" />
<text  x="1191.32" y="239.5" ></text>
</g>
<g >
<title>bprm_execve (479,685 samples, 0.07%)</title><rect x="1188.3" y="245" width="0.9" height="15.0" fill="rgb(218,61,14)" rx="2" ry="2" />
<text  x="1191.32" y="255.5" ></text>
</g>
</g>
</svg>
