<?xml version="1.0" standalone="no"?>
<!DOCTYPE svg PUBLIC "-//W3C//DTD SVG 1.1//EN" "http://www.w3.org/Graphics/SVG/1.1/DTD/svg11.dtd">
<svg version="1.1" width="1200" height="342" onload="init(evt)" viewBox="0 0 1200 342" xmlns="http://www.w3.org/2000/svg" xmlns:xlink="http://www.w3.org/1999/xlink">
<!-- Flame graph stack visualization. See https://github.com/brendangregg/FlameGraph for latest version, and http://www.brendangregg.com/flamegraphs.html for examples. -->
<!-- NOTES:  -->
<defs>
	<linearGradient id="background" y1="0" y2="1" x1="0" x2="0" >
		<stop stop-color="#eeeeee" offset="5%" />
		<stop stop-color="#eeeeb0" offset="95%" />
	</linearGradient>
</defs>
<style type="text/css">
	text { font-family:Verdana; font-size:12px; fill:rgb(0,0,0); }
	#search, #ignorecase { opacity:0.1; cursor:pointer; }
	#search:hover, #search.show, #ignorecase:hover, #ignorecase.show { opacity:1; }
	#subtitle { text-anchor:middle; font-color:rgb(160,160,160); }
	#title { text-anchor:middle; font-size:17px}
	#unzoom { cursor:pointer; }
	#frames > *:hover { stroke:black; stroke-width:0.5; cursor:pointer; }
	.hide { display:none; }
	.parent { opacity:0.5; }
</style>
<script type="text/ecmascript">
<![CDATA[
	"use strict";
	var details, searchbtn, unzoombtn, matchedtxt, svg, searching, currentSearchTerm, ignorecase, ignorecaseBtn;
	function init(evt) {
		details = document.getElementById("details").firstChild;
		searchbtn = document.getElementById("search");
		ignorecaseBtn = document.getElementById("ignorecase");
		unzoombtn = document.getElementById("unzoom");
		matchedtxt = document.getElementById("matched");
		svg = document.getElementsByTagName("svg")[0];
		searching = 0;
		currentSearchTerm = null;

		// use GET parameters to restore a flamegraphs state.
		var params = get_params();
		if (params.x && params.y)
			zoom(find_group(document.querySelector('[x="' + params.x + '"][y="' + params.y + '"]')));
                if (params.s) search(params.s);
	}

	// event listeners
	window.addEventListener("click", function(e) {
		var target = find_group(e.target);
		if (target) {
			if (target.nodeName == "a") {
				if (e.ctrlKey === false) return;
				e.preventDefault();
			}
			if (target.classList.contains("parent")) unzoom(true);
			zoom(target);
			if (!document.querySelector('.parent')) {
				// we have basically done a clearzoom so clear the url
				var params = get_params();
				if (params.x) delete params.x;
				if (params.y) delete params.y;
				history.replaceState(null, null, parse_params(params));
				unzoombtn.classList.add("hide");
				return;
			}

			// set parameters for zoom state
			var el = target.querySelector("rect");
			if (el && el.attributes && el.attributes.y && el.attributes._orig_x) {
				var params = get_params()
				params.x = el.attributes._orig_x.value;
				params.y = el.attributes.y.value;
				history.replaceState(null, null, parse_params(params));
			}
		}
		else if (e.target.id == "unzoom") clearzoom();
		else if (e.target.id == "search") search_prompt();
		else if (e.target.id == "ignorecase") toggle_ignorecase();
	}, false)

	// mouse-over for info
	// show
	window.addEventListener("mouseover", function(e) {
		var target = find_group(e.target);
		if (target) details.nodeValue = "Function: " + g_to_text(target);
	}, false)

	// clear
	window.addEventListener("mouseout", function(e) {
		var target = find_group(e.target);
		if (target) details.nodeValue = ' ';
	}, false)

	// ctrl-F for search
	// ctrl-I to toggle case-sensitive search
	window.addEventListener("keydown",function (e) {
		if (e.keyCode === 114 || (e.ctrlKey && e.keyCode === 70)) {
			e.preventDefault();
			search_prompt();
		}
		else if (e.ctrlKey && e.keyCode === 73) {
			e.preventDefault();
			toggle_ignorecase();
		}
	}, false)

	// functions
	function get_params() {
		var params = {};
		var paramsarr = window.location.search.substr(1).split('&');
		for (var i = 0; i < paramsarr.length; ++i) {
			var tmp = paramsarr[i].split("=");
			if (!tmp[0] || !tmp[1]) continue;
			params[tmp[0]]  = decodeURIComponent(tmp[1]);
		}
		return params;
	}
	function parse_params(params) {
		var uri = "?";
		for (var key in params) {
			uri += key + '=' + encodeURIComponent(params[key]) + '&';
		}
		if (uri.slice(-1) == "&")
			uri = uri.substring(0, uri.length - 1);
		if (uri == '?')
			uri = window.location.href.split('?')[0];
		return uri;
	}
	function find_child(node, selector) {
		var children = node.querySelectorAll(selector);
		if (children.length) return children[0];
	}
	function find_group(node) {
		var parent = node.parentElement;
		if (!parent) return;
		if (parent.id == "frames") return node;
		return find_group(parent);
	}
	function orig_save(e, attr, val) {
		if (e.attributes["_orig_" + attr] != undefined) return;
		if (e.attributes[attr] == undefined) return;
		if (val == undefined) val = e.attributes[attr].value;
		e.setAttribute("_orig_" + attr, val);
	}
	function orig_load(e, attr) {
		if (e.attributes["_orig_"+attr] == undefined) return;
		e.attributes[attr].value = e.attributes["_orig_" + attr].value;
		e.removeAttribute("_orig_"+attr);
	}
	function g_to_text(e) {
		var text = find_child(e, "title").firstChild.nodeValue;
		return (text)
	}
	function g_to_func(e) {
		var func = g_to_text(e);
		// if there's any manipulation we want to do to the function
		// name before it's searched, do it here before returning.
		return (func);
	}
	function update_text(e) {
		var r = find_child(e, "rect");
		var t = find_child(e, "text");
		var w = parseFloat(r.attributes.width.value) -3;
		var txt = find_child(e, "title").textContent.replace(/\([^(]*\)$/,"");
		t.attributes.x.value = parseFloat(r.attributes.x.value) + 3;

		// Smaller than this size won't fit anything
		if (w < 2 * 12 * 0.59) {
			t.textContent = "";
			return;
		}

		t.textContent = txt;
		var sl = t.getSubStringLength(0, txt.length);
		// check if only whitespace or if we can fit the entire string into width w
		if (/^ *$/.test(txt) || sl < w)
			return;

		// this isn't perfect, but gives a good starting point
		// and avoids calling getSubStringLength too often
		var start = Math.floor((w/sl) * txt.length);
		for (var x = start; x > 0; x = x-2) {
			if (t.getSubStringLength(0, x + 2) <= w) {
				t.textContent = txt.substring(0, x) + "..";
				return;
			}
		}
		t.textContent = "";
	}

	// zoom
	function zoom_reset(e) {
		if (e.attributes != undefined) {
			orig_load(e, "x");
			orig_load(e, "width");
		}
		if (e.childNodes == undefined) return;
		for (var i = 0, c = e.childNodes; i < c.length; i++) {
			zoom_reset(c[i]);
		}
	}
	function zoom_child(e, x, ratio) {
		if (e.attributes != undefined) {
			if (e.attributes.x != undefined) {
				orig_save(e, "x");
				e.attributes.x.value = (parseFloat(e.attributes.x.value) - x - 10) * ratio + 10;
				if (e.tagName == "text")
					e.attributes.x.value = find_child(e.parentNode, "rect[x]").attributes.x.value + 3;
			}
			if (e.attributes.width != undefined) {
				orig_save(e, "width");
				e.attributes.width.value = parseFloat(e.attributes.width.value) * ratio;
			}
		}

		if (e.childNodes == undefined) return;
		for (var i = 0, c = e.childNodes; i < c.length; i++) {
			zoom_child(c[i], x - 10, ratio);
		}
	}
	function zoom_parent(e) {
		if (e.attributes) {
			if (e.attributes.x != undefined) {
				orig_save(e, "x");
				e.attributes.x.value = 10;
			}
			if (e.attributes.width != undefined) {
				orig_save(e, "width");
				e.attributes.width.value = parseInt(svg.width.baseVal.value) - (10 * 2);
			}
		}
		if (e.childNodes == undefined) return;
		for (var i = 0, c = e.childNodes; i < c.length; i++) {
			zoom_parent(c[i]);
		}
	}
	function zoom(node) {
		var attr = find_child(node, "rect").attributes;
		var width = parseFloat(attr.width.value);
		var xmin = parseFloat(attr.x.value);
		var xmax = parseFloat(xmin + width);
		var ymin = parseFloat(attr.y.value);
		var ratio = (svg.width.baseVal.value - 2 * 10) / width;

		// XXX: Workaround for JavaScript float issues (fix me)
		var fudge = 0.0001;

		unzoombtn.classList.remove("hide");

		var el = document.getElementById("frames").children;
		for (var i = 0; i < el.length; i++) {
			var e = el[i];
			var a = find_child(e, "rect").attributes;
			var ex = parseFloat(a.x.value);
			var ew = parseFloat(a.width.value);
			var upstack;
			// Is it an ancestor
			if (0 == 0) {
				upstack = parseFloat(a.y.value) > ymin;
			} else {
				upstack = parseFloat(a.y.value) < ymin;
			}
			if (upstack) {
				// Direct ancestor
				if (ex <= xmin && (ex+ew+fudge) >= xmax) {
					e.classList.add("parent");
					zoom_parent(e);
					update_text(e);
				}
				// not in current path
				else
					e.classList.add("hide");
			}
			// Children maybe
			else {
				// no common path
				if (ex < xmin || ex + fudge >= xmax) {
					e.classList.add("hide");
				}
				else {
					zoom_child(e, xmin, ratio);
					update_text(e);
				}
			}
		}
		search();
	}
	function unzoom(dont_update_text) {
		unzoombtn.classList.add("hide");
		var el = document.getElementById("frames").children;
		for(var i = 0; i < el.length; i++) {
			el[i].classList.remove("parent");
			el[i].classList.remove("hide");
			zoom_reset(el[i]);
			if(!dont_update_text) update_text(el[i]);
		}
		search();
	}
	function clearzoom() {
		unzoom();

		// remove zoom state
		var params = get_params();
		if (params.x) delete params.x;
		if (params.y) delete params.y;
		history.replaceState(null, null, parse_params(params));
	}

	// search
	function toggle_ignorecase() {
		ignorecase = !ignorecase;
		if (ignorecase) {
			ignorecaseBtn.classList.add("show");
		} else {
			ignorecaseBtn.classList.remove("show");
		}
		reset_search();
		search();
	}
	function reset_search() {
		var el = document.querySelectorAll("#frames rect");
		for (var i = 0; i < el.length; i++) {
			orig_load(el[i], "fill")
		}
		var params = get_params();
		delete params.s;
		history.replaceState(null, null, parse_params(params));
	}
	function search_prompt() {
		if (!searching) {
			var term = prompt("Enter a search term (regexp " +
			    "allowed, eg: ^ext4_)"
			    + (ignorecase ? ", ignoring case" : "")
			    + "\nPress Ctrl-i to toggle case sensitivity", "");
			if (term != null) search(term);
		} else {
			reset_search();
			searching = 0;
			currentSearchTerm = null;
			searchbtn.classList.remove("show");
			searchbtn.firstChild.nodeValue = "Search"
			matchedtxt.classList.add("hide");
			matchedtxt.firstChild.nodeValue = ""
		}
	}
	function search(term) {
		if (term) currentSearchTerm = term;

		var re = new RegExp(currentSearchTerm, ignorecase ? 'i' : '');
		var el = document.getElementById("frames").children;
		var matches = new Object();
		var maxwidth = 0;
		for (var i = 0; i < el.length; i++) {
			var e = el[i];
			var func = g_to_func(e);
			var rect = find_child(e, "rect");
			if (func == null || rect == null)
				continue;

			// Save max width. Only works as we have a root frame
			var w = parseFloat(rect.attributes.width.value);
			if (w > maxwidth)
				maxwidth = w;

			if (func.match(re)) {
				// highlight
				var x = parseFloat(rect.attributes.x.value);
				orig_save(rect, "fill");
				rect.attributes.fill.value = "rgb(230,0,230)";

				// remember matches
				if (matches[x] == undefined) {
					matches[x] = w;
				} else {
					if (w > matches[x]) {
						// overwrite with parent
						matches[x] = w;
					}
				}
				searching = 1;
			}
		}
		if (!searching)
			return;
		var params = get_params();
		params.s = currentSearchTerm;
		history.replaceState(null, null, parse_params(params));

		searchbtn.classList.add("show");
		searchbtn.firstChild.nodeValue = "Reset Search";

		// calculate percent matched, excluding vertical overlap
		var count = 0;
		var lastx = -1;
		var lastw = 0;
		var keys = Array();
		for (k in matches) {
			if (matches.hasOwnProperty(k))
				keys.push(k);
		}
		// sort the matched frames by their x location
		// ascending, then width descending
		keys.sort(function(a, b){
			return a - b;
		});
		// Step through frames saving only the biggest bottom-up frames
		// thanks to the sort order. This relies on the tree property
		// where children are always smaller than their parents.
		var fudge = 0.0001;	// JavaScript floating point
		for (var k in keys) {
			var x = parseFloat(keys[k]);
			var w = matches[keys[k]];
			if (x >= lastx + lastw - fudge) {
				count += w;
				lastx = x;
				lastw = w;
			}
		}
		// display matched percent
		matchedtxt.classList.remove("hide");
		var pct = 100 * count / maxwidth;
		if (pct != 100) pct = pct.toFixed(1)
		matchedtxt.firstChild.nodeValue = "Matched: " + pct + "%";
	}
]]>
</script>
<rect x="0.0" y="0" width="1200.0" height="342.0" fill="url(#background)"  />
<text id="title" x="600.00" y="24" >Flame Graph</text>
<text id="details" x="10.00" y="325" > </text>
<text id="unzoom" x="10.00" y="24" class="hide">Reset Zoom</text>
<text id="search" x="1090.00" y="24" >Search</text>
<text id="ignorecase" x="1174.00" y="24" >ic</text>
<text id="matched" x="1090.00" y="325" > </text>
<g id="frames">
<g >
<title>do_syscall_64 (439,662 samples, 0.04%)</title><rect x="92.5" y="229" width="0.5" height="15.0" fill="rgb(209,20,4)" rx="2" ry="2" />
<text  x="95.53" y="239.5" ></text>
</g>
<g >
<title>w2c_decode__webp__wasmsimd_TransformUV_C (1,846,276 samples, 0.18%)</title><rect x="63.1" y="165" width="2.2" height="15.0" fill="rgb(228,108,25)" rx="2" ry="2" />
<text  x="66.13" y="175.5" ></text>
</g>
<g >
<title>do_execveat_common.isra.0 (172,479 samples, 0.02%)</title><rect x="71.8" y="197" width="0.2" height="15.0" fill="rgb(231,123,29)" rx="2" ry="2" />
<text  x="74.81" y="207.5" ></text>
</g>
<g >
<title>bprm_execve (172,479 samples, 0.02%)</title><rect x="71.8" y="181" width="0.2" height="15.0" fill="rgb(218,61,14)" rx="2" ry="2" />
<text  x="74.81" y="191.5" ></text>
</g>
<g >
<title>__x64_sys_openat (924,383 samples, 0.09%)</title><rect x="68.5" y="197" width="1.1" height="15.0" fill="rgb(251,215,51)" rx="2" ry="2" />
<text  x="71.55" y="207.5" ></text>
</g>
<g >
<title>[unknown] (70,319,061 samples, 6.99%)</title><rect x="10.0" y="261" width="82.5" height="15.0" fill="rgb(210,24,5)" rx="2" ry="2" />
<text  x="13.00" y="271.5" >[unknown]</text>
</g>
<g >
<title>w2c_decode__webp__wasmsimd_FinishRow (4,618,357 samples, 0.46%)</title><rect x="378.8" y="261" width="5.4" height="15.0" fill="rgb(205,3,0)" rx="2" ry="2" />
<text  x="381.82" y="271.5" ></text>
</g>
<g >
<title>w2c_decode__webp__wasmsimd_TransformTwo_C (923,719 samples, 0.09%)</title><rect x="888.2" y="261" width="1.1" height="15.0" fill="rgb(254,228,54)" rx="2" ry="2" />
<text  x="891.18" y="271.5" ></text>
</g>
<g >
<title>folio_alloc (931,344 samples, 0.09%)</title><rect x="70.7" y="85" width="1.1" height="15.0" fill="rgb(252,217,52)" rx="2" ry="2" />
<text  x="73.72" y="95.5" ></text>
</g>
<g >
<title>pagecache_get_page (931,344 samples, 0.09%)</title><rect x="70.7" y="117" width="1.1" height="15.0" fill="rgb(253,221,53)" rx="2" ry="2" />
<text  x="73.72" y="127.5" ></text>
</g>
<g >
<title>_start (383,748 samples, 0.04%)</title><rect x="98.9" y="261" width="0.5" height="15.0" fill="rgb(245,185,44)" rx="2" ry="2" />
<text  x="101.91" y="271.5" ></text>
</g>
<g >
<title>w2c_decode__webp__wasmsimd_HE4_C (1,848,628 samples, 0.18%)</title><rect x="21.9" y="165" width="2.2" height="15.0" fill="rgb(212,32,7)" rx="2" ry="2" />
<text  x="24.93" y="175.5" ></text>
</g>
<g >
<title>__alloc_pages (931,344 samples, 0.09%)</title><rect x="70.7" y="69" width="1.1" height="15.0" fill="rgb(233,129,30)" rx="2" ry="2" />
<text  x="73.72" y="79.5" ></text>
</g>
<g >
<title>w2c_decode__webp__wasmsimd_TransformAC3_C (924,019 samples, 0.09%)</title><rect x="58.8" y="165" width="1.1" height="15.0" fill="rgb(251,211,50)" rx="2" ry="2" />
<text  x="61.79" y="175.5" ></text>
</g>
<g >
<title>w2c_decode__webp__wasmsimd_VE4_C (1,848,023 samples, 0.18%)</title><rect x="1173.8" y="261" width="2.2" height="15.0" fill="rgb(221,76,18)" rx="2" ry="2" />
<text  x="1176.82" y="271.5" ></text>
</g>
<g >
<title>w2c_decode__webp__wasmsimd_TransformOne_C (924,255 samples, 0.09%)</title><rect x="91.4" y="245" width="1.1" height="15.0" fill="rgb(209,22,5)" rx="2" ry="2" />
<text  x="94.44" y="255.5" ></text>
</g>
<g >
<title>w2c_decode__webp__wasmsimd_FilterLoop24_C (137,130,131 samples, 13.64%)</title><rect x="126.5" y="261" width="160.9" height="15.0" fill="rgb(234,137,32)" rx="2" ry="2" />
<text  x="129.47" y="271.5" >w2c_decode__webp__wa..</text>
</g>
<g >
<title>__memmove_avx_unaligned_erms (4,076,848 samples, 0.41%)</title><rect x="93.0" y="261" width="4.8" height="15.0" fill="rgb(205,0,0)" rx="2" ry="2" />
<text  x="96.05" y="271.5" ></text>
</g>
<g >
<title>all (1,005,419,083 samples, 100%)</title><rect x="10.0" y="293" width="1180.0" height="15.0" fill="rgb(213,39,9)" rx="2" ry="2" />
<text  x="13.00" y="303.5" ></text>
</g>
<g >
<title>w2c_decode__webp__wasmsimd_DC4_C (3,695,925 samples, 0.37%)</title><rect x="10.0" y="165" width="4.3" height="15.0" fill="rgb(250,210,50)" rx="2" ry="2" />
<text  x="13.00" y="175.5" ></text>
</g>
<g >
<title>__memset_avx2_unaligned_erms (923,943 samples, 0.09%)</title><rect x="97.8" y="261" width="1.1" height="15.0" fill="rgb(223,84,20)" rx="2" ry="2" />
<text  x="100.83" y="271.5" ></text>
</g>
<g >
<title>w2c_decode__webp__wasmsimd_LD4_C (924,284 samples, 0.09%)</title><rect x="29.5" y="165" width="1.1" height="15.0" fill="rgb(242,173,41)" rx="2" ry="2" />
<text  x="32.52" y="175.5" ></text>
</g>
<g >
<title>[unknown] (49,886,356 samples, 4.96%)</title><rect x="10.0" y="213" width="58.5" height="15.0" fill="rgb(210,24,5)" rx="2" ry="2" />
<text  x="13.00" y="223.5" >[unkno..</text>
</g>
<g >
<title>balance_dirty_pages (924,297 samples, 0.09%)</title><rect x="69.6" y="117" width="1.1" height="15.0" fill="rgb(247,193,46)" rx="2" ry="2" />
<text  x="72.63" y="127.5" ></text>
</g>
<g >
<title>w2c_decode__webp__wasmsimd_TM16_C (7,393,201 samples, 0.74%)</title><rect x="817.3" y="261" width="8.7" height="15.0" fill="rgb(253,222,53)" rx="2" ry="2" />
<text  x="820.30" y="271.5" ></text>
</g>
<g >
<title>w2c_decode__webp__wasmsimd_DecodeImageData (17,553,956 samples, 1.75%)</title><rect x="105.9" y="261" width="20.6" height="15.0" fill="rgb(246,191,45)" rx="2" ry="2" />
<text  x="108.87" y="271.5" ></text>
</g>
<g >
<title>__filemap_get_folio (931,344 samples, 0.09%)</title><rect x="70.7" y="101" width="1.1" height="15.0" fill="rgb(231,120,28)" rx="2" ry="2" />
<text  x="73.72" y="111.5" ></text>
</g>
<g >
<title>truncate_inode_pages_range (924,383 samples, 0.09%)</title><rect x="68.5" y="69" width="1.1" height="15.0" fill="rgb(245,187,44)" rx="2" ry="2" />
<text  x="71.55" y="79.5" ></text>
</g>
<g >
<title>cgroup_rstat_flush_locked (924,297 samples, 0.09%)</title><rect x="69.6" y="53" width="1.1" height="15.0" fill="rgb(209,19,4)" rx="2" ry="2" />
<text  x="72.63" y="63.5" ></text>
</g>
<g >
<title>w2c_decode__webp__wasmsimd_TM8uv_C (1,848,551 samples, 0.18%)</title><rect x="826.0" y="261" width="2.1" height="15.0" fill="rgb(238,156,37)" rx="2" ry="2" />
<text  x="828.98" y="271.5" ></text>
</g>
<g >
<title>security_file_permission (439,662 samples, 0.04%)</title><rect x="92.5" y="181" width="0.5" height="15.0" fill="rgb(225,96,23)" rx="2" ry="2" />
<text  x="95.53" y="191.5" ></text>
</g>
<g >
<title>decode_webp_was (1,005,374,911 samples, 100.00%)</title><rect x="10.0" y="277" width="1179.9" height="15.0" fill="rgb(216,54,12)" rx="2" ry="2" />
<text  x="13.00" y="287.5" >decode_webp_was</text>
</g>
<g >
<title>[unknown] (49,886,356 samples, 4.96%)</title><rect x="10.0" y="229" width="58.5" height="15.0" fill="rgb(210,24,5)" rx="2" ry="2" />
<text  x="13.00" y="239.5" >[unkno..</text>
</g>
<g >
<title>ksys_write (1,855,641 samples, 0.18%)</title><rect x="69.6" y="197" width="2.2" height="15.0" fill="rgb(205,4,1)" rx="2" ry="2" />
<text  x="72.63" y="207.5" ></text>
</g>
<g >
<title>w2c_decode__webp__wasmsimd_ExtractGreen_C (9,239,152 samples, 0.92%)</title><rect x="72.0" y="245" width="10.9" height="15.0" fill="rgb(226,96,23)" rx="2" ry="2" />
<text  x="75.01" y="255.5" ></text>
</g>
<g >
<title>w2c_decode__webp__wasmsimd_FilterLoop24_C (924,279 samples, 0.09%)</title><rect x="15.4" y="165" width="1.1" height="15.0" fill="rgb(234,137,32)" rx="2" ry="2" />
<text  x="18.42" y="175.5" ></text>
</g>
<g >
<title>ext4_setattr (924,383 samples, 0.09%)</title><rect x="68.5" y="101" width="1.1" height="15.0" fill="rgb(230,117,28)" rx="2" ry="2" />
<text  x="71.55" y="111.5" ></text>
</g>
<g >
<title>mem_cgroup_wb_stats (924,297 samples, 0.09%)</title><rect x="69.6" y="101" width="1.1" height="15.0" fill="rgb(211,28,6)" rx="2" ry="2" />
<text  x="72.63" y="111.5" ></text>
</g>
<g >
<title>generic_perform_write (1,855,641 samples, 0.18%)</title><rect x="69.6" y="149" width="2.2" height="15.0" fill="rgb(236,146,35)" rx="2" ry="2" />
<text  x="72.63" y="159.5" ></text>
</g>
<g >
<title>setup_arg_pages (172,479 samples, 0.02%)</title><rect x="71.8" y="149" width="0.2" height="15.0" fill="rgb(222,82,19)" rx="2" ry="2" />
<text  x="74.81" y="159.5" ></text>
</g>
<g >
<title>truncate_pagecache (924,383 samples, 0.09%)</title><rect x="68.5" y="85" width="1.1" height="15.0" fill="rgb(231,123,29)" rx="2" ry="2" />
<text  x="71.55" y="95.5" ></text>
</g>
<g >
<title>w2c_decode__webp__wasmsimd_GetLargeValue (43,440,748 samples, 4.32%)</title><rect x="673.2" y="261" width="51.0" height="15.0" fill="rgb(234,137,32)" rx="2" ry="2" />
<text  x="676.22" y="271.5" >w2c_d..</text>
</g>
<g >
<title>ext4_da_write_begin (931,344 samples, 0.09%)</title><rect x="70.7" y="133" width="1.1" height="15.0" fill="rgb(211,32,7)" rx="2" ry="2" />
<text  x="73.72" y="143.5" ></text>
</g>
<g >
<title>entry_SYSCALL_64_after_hwframe (924,383 samples, 0.09%)</title><rect x="68.5" y="229" width="1.1" height="15.0" fill="rgb(218,63,15)" rx="2" ry="2" />
<text  x="71.55" y="239.5" ></text>
</g>
<g >
<title>w2c_decode__webp__wasmsimd_TM4_C (3,694,903 samples, 0.37%)</title><rect x="54.5" y="165" width="4.3" height="15.0" fill="rgb(232,128,30)" rx="2" ry="2" />
<text  x="57.46" y="175.5" ></text>
</g>
<g >
<title>w2c_decode__webp__wasmsimd_TransformDC_C (1,846,339 samples, 0.18%)</title><rect x="61.0" y="165" width="2.1" height="15.0" fill="rgb(211,27,6)" rx="2" ry="2" />
<text  x="63.96" y="175.5" ></text>
</g>
<g >
<title>__vma_adjust (172,479 samples, 0.02%)</title><rect x="71.8" y="117" width="0.2" height="15.0" fill="rgb(224,87,20)" rx="2" ry="2" />
<text  x="74.81" y="127.5" ></text>
</g>
<g >
<title>clear_page_rep (931,344 samples, 0.09%)</title><rect x="70.7" y="37" width="1.1" height="15.0" fill="rgb(253,221,52)" rx="2" ry="2" />
<text  x="73.72" y="47.5" ></text>
</g>
<g >
<title>exit_to_user_mode_prepare (383,748 samples, 0.04%)</title><rect x="98.9" y="213" width="0.5" height="15.0" fill="rgb(228,108,25)" rx="2" ry="2" />
<text  x="101.91" y="223.5" ></text>
</g>
<g >
<title>ext4_buffered_write_iter (1,855,641 samples, 0.18%)</title><rect x="69.6" y="165" width="2.2" height="15.0" fill="rgb(213,40,9)" rx="2" ry="2" />
<text  x="72.63" y="175.5" ></text>
</g>
<g >
<title>do_syscall_64 (924,383 samples, 0.09%)</title><rect x="68.5" y="213" width="1.1" height="15.0" fill="rgb(209,20,4)" rx="2" ry="2" />
<text  x="71.55" y="223.5" ></text>
</g>
<g >
<title>w2c_decode__webp__wasmsimd_TransformAC3_C (4,620,977 samples, 0.46%)</title><rect x="828.1" y="261" width="5.5" height="15.0" fill="rgb(251,211,50)" rx="2" ry="2" />
<text  x="831.15" y="271.5" ></text>
</g>
<g >
<title>__mem_cgroup_flush_stats (924,297 samples, 0.09%)</title><rect x="69.6" y="85" width="1.1" height="15.0" fill="rgb(208,16,3)" rx="2" ry="2" />
<text  x="72.63" y="95.5" ></text>
</g>
<g >
<title>w2c_decode__webp__wasmsimd_IDecode (65,468,490 samples, 6.51%)</title><rect x="725.3" y="261" width="76.8" height="15.0" fill="rgb(237,147,35)" rx="2" ry="2" />
<text  x="728.29" y="271.5" >w2c_deco..</text>
</g>
<g >
<title>w2c_decode__webp__wasmsimd_VP8ParseProba (4,603,137 samples, 0.46%)</title><rect x="1184.5" y="261" width="5.4" height="15.0" fill="rgb(216,51,12)" rx="2" ry="2" />
<text  x="1187.55" y="271.5" ></text>
</g>
<g >
<title>delete_from_page_cache_batch (924,383 samples, 0.09%)</title><rect x="68.5" y="53" width="1.1" height="15.0" fill="rgb(223,85,20)" rx="2" ry="2" />
<text  x="71.55" y="63.5" ></text>
</g>
<g >
<title>do_filp_open (924,383 samples, 0.09%)</title><rect x="68.5" y="165" width="1.1" height="15.0" fill="rgb(211,28,6)" rx="2" ry="2" />
<text  x="71.55" y="175.5" ></text>
</g>
<g >
<title>w2c_decode__webp__wasmsimd_RD4_C (922,927 samples, 0.09%)</title><rect x="30.6" y="165" width="1.1" height="15.0" fill="rgb(253,225,53)" rx="2" ry="2" />
<text  x="33.61" y="175.5" ></text>
</g>
<g >
<title>entry_SYSCALL_64_after_hwframe (172,479 samples, 0.02%)</title><rect x="71.8" y="245" width="0.2" height="15.0" fill="rgb(218,63,15)" rx="2" ry="2" />
<text  x="74.81" y="255.5" ></text>
</g>
<g >
<title>[unknown] (49,886,356 samples, 4.96%)</title><rect x="10.0" y="181" width="58.5" height="15.0" fill="rgb(210,24,5)" rx="2" ry="2" />
<text  x="13.00" y="191.5" >[unkno..</text>
</g>
<g >
<title>w2c_decode__webp__wasmsimd_HU4_C (2,772,212 samples, 0.28%)</title><rect x="26.3" y="165" width="3.2" height="15.0" fill="rgb(208,17,4)" rx="2" ry="2" />
<text  x="29.27" y="175.5" ></text>
</g>
<g >
<title>entry_SYSCALL_64_after_hwframe (1,855,641 samples, 0.18%)</title><rect x="69.6" y="229" width="2.2" height="15.0" fill="rgb(218,63,15)" rx="2" ry="2" />
<text  x="72.63" y="239.5" ></text>
</g>
<g >
<title>[unknown] (49,886,356 samples, 4.96%)</title><rect x="10.0" y="245" width="58.5" height="15.0" fill="rgb(210,24,5)" rx="2" ry="2" />
<text  x="13.00" y="255.5" >[unkno..</text>
</g>
<g >
<title>notify_change (924,383 samples, 0.09%)</title><rect x="68.5" y="117" width="1.1" height="15.0" fill="rgb(237,150,35)" rx="2" ry="2" />
<text  x="71.55" y="127.5" ></text>
</g>
<g >
<title>get_page_from_freelist (931,344 samples, 0.09%)</title><rect x="70.7" y="53" width="1.1" height="15.0" fill="rgb(252,218,52)" rx="2" ry="2" />
<text  x="73.72" y="63.5" ></text>
</g>
<g >
<title>w2c_decode__webp__wasmsimd_ReconstructRow (1,848,185 samples, 0.18%)</title><rect x="89.3" y="245" width="2.1" height="15.0" fill="rgb(217,55,13)" rx="2" ry="2" />
<text  x="92.28" y="255.5" ></text>
</g>
<g >
<title>w2c_decode__webp__wasmsimd_DC8uv_C (923,200 samples, 0.09%)</title><rect x="104.8" y="261" width="1.1" height="15.0" fill="rgb(206,8,2)" rx="2" ry="2" />
<text  x="107.79" y="271.5" ></text>
</g>
<g >
<title>w2c_decode__webp__wasmsimd_ReconstructRow (19,399,523 samples, 1.93%)</title><rect x="31.7" y="165" width="22.8" height="15.0" fill="rgb(217,55,13)" rx="2" ry="2" />
<text  x="34.69" y="175.5" >w..</text>
</g>
<g >
<title>w2c_decode__webp__wasmsimd_VP8LDoFillBitWindow (2,770,640 samples, 0.28%)</title><rect x="1177.1" y="261" width="3.2" height="15.0" fill="rgb(211,29,7)" rx="2" ry="2" />
<text  x="1180.08" y="271.5" ></text>
</g>
<g >
<title>w2c_decode__webp__wasmsimd_VP8GetValue (923,695 samples, 0.09%)</title><rect x="1176.0" y="261" width="1.1" height="15.0" fill="rgb(222,81,19)" rx="2" ry="2" />
<text  x="1178.99" y="271.5" ></text>
</g>
<g >
<title>w2c_decode__webp__wasmsimd_UpsampleRgbLinePair_C (242,457,196 samples, 24.12%)</title><rect x="889.3" y="261" width="284.5" height="15.0" fill="rgb(220,71,16)" rx="2" ry="2" />
<text  x="892.27" y="271.5" >w2c_decode__webp__wasmsimd_UpsampleRgb..</text>
</g>
<g >
<title>mas_alloc_nodes (172,479 samples, 0.02%)</title><rect x="71.8" y="85" width="0.2" height="15.0" fill="rgb(215,46,11)" rx="2" ry="2" />
<text  x="74.81" y="95.5" ></text>
</g>
<g >
<title>balance_dirty_pages_ratelimited_flags (924,297 samples, 0.09%)</title><rect x="69.6" y="133" width="1.1" height="15.0" fill="rgb(207,10,2)" rx="2" ry="2" />
<text  x="72.63" y="143.5" ></text>
</g>
<g >
<title>vfs_write (1,855,641 samples, 0.18%)</title><rect x="69.6" y="181" width="2.2" height="15.0" fill="rgb(250,209,50)" rx="2" ry="2" />
<text  x="72.63" y="191.5" ></text>
</g>
<g >
<title>w2c_decode__webp__wasmsimd_FilterLoop26_C (2,771,743 samples, 0.28%)</title><rect x="16.5" y="165" width="3.3" height="15.0" fill="rgb(222,78,18)" rx="2" ry="2" />
<text  x="19.51" y="175.5" ></text>
</g>
<g >
<title>w2c_decode__webp__wasmsimd_TransformOne_C (46,531,338 samples, 4.63%)</title><rect x="833.6" y="261" width="54.6" height="15.0" fill="rgb(209,22,5)" rx="2" ry="2" />
<text  x="836.57" y="271.5" >w2c_d..</text>
</g>
<g >
<title>w2c_decode__webp__wasmsimd_HE8uv_C (1,846,879 samples, 0.18%)</title><rect x="24.1" y="165" width="2.2" height="15.0" fill="rgb(218,60,14)" rx="2" ry="2" />
<text  x="27.10" y="175.5" ></text>
</g>
<g >
<title>__libc_write (1,855,641 samples, 0.18%)</title><rect x="69.6" y="245" width="2.2" height="15.0" fill="rgb(238,154,37)" rx="2" ry="2" />
<text  x="72.63" y="255.5" ></text>
</g>
<g >
<title>__libc_open64 (924,383 samples, 0.09%)</title><rect x="68.5" y="245" width="1.1" height="15.0" fill="rgb(235,140,33)" rx="2" ry="2" />
<text  x="71.55" y="255.5" ></text>
</g>
<g >
<title>vfs_read (439,662 samples, 0.04%)</title><rect x="92.5" y="197" width="0.5" height="15.0" fill="rgb(224,88,21)" rx="2" ry="2" />
<text  x="95.53" y="207.5" ></text>
</g>
<g >
<title>do_syscall_64 (1,855,641 samples, 0.18%)</title><rect x="69.6" y="213" width="2.2" height="15.0" fill="rgb(209,20,4)" rx="2" ry="2" />
<text  x="72.63" y="223.5" ></text>
</g>
<g >
<title>fpregs_assert_state_consistent (383,748 samples, 0.04%)</title><rect x="98.9" y="197" width="0.5" height="15.0" fill="rgb(228,109,26)" rx="2" ry="2" />
<text  x="101.91" y="207.5" ></text>
</g>
<g >
<title>w2c_decode__webp__wasmsimd_GetCoeffsFast (1,848,723 samples, 0.18%)</title><rect x="19.8" y="165" width="2.1" height="15.0" fill="rgb(210,26,6)" rx="2" ry="2" />
<text  x="22.76" y="175.5" ></text>
</g>
<g >
<title>mas_preallocate (172,479 samples, 0.02%)</title><rect x="71.8" y="101" width="0.2" height="15.0" fill="rgb(206,8,2)" rx="2" ry="2" />
<text  x="74.81" y="111.5" ></text>
</g>
<g >
<title>shift_arg_pages (172,479 samples, 0.02%)</title><rect x="71.8" y="133" width="0.2" height="15.0" fill="rgb(245,187,44)" rx="2" ry="2" />
<text  x="74.81" y="143.5" ></text>
</g>
<g >
<title>load_elf_binary (172,479 samples, 0.02%)</title><rect x="71.8" y="165" width="0.2" height="15.0" fill="rgb(223,83,20)" rx="2" ry="2" />
<text  x="74.81" y="175.5" ></text>
</g>
<g >
<title>w2c_decode__webp__wasmsimd_VR4_C (2,771,893 samples, 0.28%)</title><rect x="65.3" y="165" width="3.2" height="15.0" fill="rgb(237,150,35)" rx="2" ry="2" />
<text  x="68.30" y="175.5" ></text>
</g>
<g >
<title>[unknown] (49,886,356 samples, 4.96%)</title><rect x="10.0" y="197" width="58.5" height="15.0" fill="rgb(210,24,5)" rx="2" ry="2" />
<text  x="13.00" y="207.5" >[unkno..</text>
</g>
<g >
<title>w2c_decode__webp__wasmsimd_IDecode (4,544,237 samples, 0.45%)</title><rect x="83.9" y="245" width="5.4" height="15.0" fill="rgb(237,147,35)" rx="2" ry="2" />
<text  x="86.94" y="255.5" ></text>
</g>
<g >
<title>asm_exc_page_fault (383,748 samples, 0.04%)</title><rect x="98.9" y="245" width="0.5" height="15.0" fill="rgb(225,93,22)" rx="2" ry="2" />
<text  x="101.91" y="255.5" ></text>
</g>
<g >
<title>w2c_decode__webp__wasmsimd_ReconstructRow (12,931,890 samples, 1.29%)</title><rect x="802.1" y="261" width="15.2" height="15.0" fill="rgb(217,55,13)" rx="2" ry="2" />
<text  x="805.12" y="271.5" ></text>
</g>
<g >
<title>path_openat (924,383 samples, 0.09%)</title><rect x="68.5" y="149" width="1.1" height="15.0" fill="rgb(249,202,48)" rx="2" ry="2" />
<text  x="71.55" y="159.5" ></text>
</g>
<g >
<title>ksys_read (439,662 samples, 0.04%)</title><rect x="92.5" y="213" width="0.5" height="15.0" fill="rgb(229,113,27)" rx="2" ry="2" />
<text  x="95.53" y="223.5" ></text>
</g>
<g >
<title>w2c_decode__webp__wasmsimd_FilterLoop26_C (77,882,046 samples, 7.75%)</title><rect x="287.4" y="261" width="91.4" height="15.0" fill="rgb(222,78,18)" rx="2" ry="2" />
<text  x="290.41" y="271.5" >w2c_decode..</text>
</g>
<g >
<title>entry_SYSCALL_64_after_hwframe (439,662 samples, 0.04%)</title><rect x="92.5" y="245" width="0.5" height="15.0" fill="rgb(218,63,15)" rx="2" ry="2" />
<text  x="95.53" y="255.5" ></text>
</g>
<g >
<title>w2c_decode__webp__wasmsimd_BuildHuffmanTable (4,618,526 samples, 0.46%)</title><rect x="99.4" y="261" width="5.4" height="15.0" fill="rgb(218,63,15)" rx="2" ry="2" />
<text  x="102.36" y="271.5" ></text>
</g>
<g >
<title>__x64_sys_execve (172,479 samples, 0.02%)</title><rect x="71.8" y="213" width="0.2" height="15.0" fill="rgb(247,193,46)" rx="2" ry="2" />
<text  x="74.81" y="223.5" ></text>
</g>
<g >
<title>irqentry_exit_to_user_mode (383,748 samples, 0.04%)</title><rect x="98.9" y="229" width="0.5" height="15.0" fill="rgb(254,229,54)" rx="2" ry="2" />
<text  x="101.91" y="239.5" ></text>
</g>
<g >
<title>w2c_decode__webp__wasmsimd_GetCoeffsFast (246,227,148 samples, 24.49%)</title><rect x="384.2" y="261" width="289.0" height="15.0" fill="rgb(210,26,6)" rx="2" ry="2" />
<text  x="387.24" y="271.5" >w2c_decode__webp__wasmsimd_GetCoeffsFast</text>
</g>
<g >
<title>w2c_decode__webp__wasmsimd_HFilter16i_C (924,244 samples, 0.09%)</title><rect x="724.2" y="261" width="1.1" height="15.0" fill="rgb(233,131,31)" rx="2" ry="2" />
<text  x="727.20" y="271.5" ></text>
</g>
<g >
<title>do_truncate (924,383 samples, 0.09%)</title><rect x="68.5" y="133" width="1.1" height="15.0" fill="rgb(216,53,12)" rx="2" ry="2" />
<text  x="71.55" y="143.5" ></text>
</g>
<g >
<title>w2c_decode__webp__wasmsimd_VP8LReadBits (3,592,436 samples, 0.36%)</title><rect x="1180.3" y="261" width="4.2" height="15.0" fill="rgb(228,108,26)" rx="2" ry="2" />
<text  x="1183.33" y="271.5" ></text>
</g>
<g >
<title>w2c_decode__webp__wasmsimd_GetCoeffsFast (924,373 samples, 0.09%)</title><rect x="82.9" y="245" width="1.0" height="15.0" fill="rgb(210,26,6)" rx="2" ry="2" />
<text  x="85.86" y="255.5" ></text>
</g>
<g >
<title>cgroup_rstat_flush_irqsafe (924,297 samples, 0.09%)</title><rect x="69.6" y="69" width="1.1" height="15.0" fill="rgb(227,103,24)" rx="2" ry="2" />
<text  x="72.63" y="79.5" ></text>
</g>
<g >
<title>do_syscall_64 (172,479 samples, 0.02%)</title><rect x="71.8" y="229" width="0.2" height="15.0" fill="rgb(209,20,4)" rx="2" ry="2" />
<text  x="74.81" y="239.5" ></text>
</g>
<g >
<title>w2c_decode__webp__wasmsimd_TransformDCUV_C (923,625 samples, 0.09%)</title><rect x="59.9" y="165" width="1.1" height="15.0" fill="rgb(206,6,1)" rx="2" ry="2" />
<text  x="62.88" y="175.5" ></text>
</g>
<g >
<title>w2c_decode__webp__wasmsimd_DC8uv_C (924,178 samples, 0.09%)</title><rect x="14.3" y="165" width="1.1" height="15.0" fill="rgb(206,8,2)" rx="2" ry="2" />
<text  x="17.34" y="175.5" ></text>
</g>
<g >
<title>do_sys_openat2 (924,383 samples, 0.09%)</title><rect x="68.5" y="181" width="1.1" height="15.0" fill="rgb(253,221,52)" rx="2" ry="2" />
<text  x="71.55" y="191.5" ></text>
</g>
<g >
<title>__libc_read (439,662 samples, 0.04%)</title><rect x="92.5" y="261" width="0.5" height="15.0" fill="rgb(212,34,8)" rx="2" ry="2" />
<text  x="95.53" y="271.5" ></text>
</g>
</g>
</svg>
