<?xml version="1.0" standalone="no"?>
<!DOCTYPE svg PUBLIC "-//W3C//DTD SVG 1.1//EN" "http://www.w3.org/Graphics/SVG/1.1/DTD/svg11.dtd">
<svg version="1.1" width="1200" height="518" onload="init(evt)" viewBox="0 0 1200 518" xmlns="http://www.w3.org/2000/svg" xmlns:xlink="http://www.w3.org/1999/xlink">
<!-- Flame graph stack visualization. See https://github.com/brendangregg/FlameGraph for latest version, and http://www.brendangregg.com/flamegraphs.html for examples. -->
<!-- NOTES:  -->
<defs>
	<linearGradient id="background" y1="0" y2="1" x1="0" x2="0" >
		<stop stop-color="#eeeeee" offset="5%" />
		<stop stop-color="#eeeeb0" offset="95%" />
	</linearGradient>
</defs>
<style type="text/css">
	text { font-family:Verdana; font-size:12px; fill:rgb(0,0,0); }
	#search, #ignorecase { opacity:0.1; cursor:pointer; }
	#search:hover, #search.show, #ignorecase:hover, #ignorecase.show { opacity:1; }
	#subtitle { text-anchor:middle; font-color:rgb(160,160,160); }
	#title { text-anchor:middle; font-size:17px}
	#unzoom { cursor:pointer; }
	#frames > *:hover { stroke:black; stroke-width:0.5; cursor:pointer; }
	.hide { display:none; }
	.parent { opacity:0.5; }
</style>
<script type="text/ecmascript">
<![CDATA[
	"use strict";
	var details, searchbtn, unzoombtn, matchedtxt, svg, searching, currentSearchTerm, ignorecase, ignorecaseBtn;
	function init(evt) {
		details = document.getElementById("details").firstChild;
		searchbtn = document.getElementById("search");
		ignorecaseBtn = document.getElementById("ignorecase");
		unzoombtn = document.getElementById("unzoom");
		matchedtxt = document.getElementById("matched");
		svg = document.getElementsByTagName("svg")[0];
		searching = 0;
		currentSearchTerm = null;

		// use GET parameters to restore a flamegraphs state.
		var params = get_params();
		if (params.x && params.y)
			zoom(find_group(document.querySelector('[x="' + params.x + '"][y="' + params.y + '"]')));
                if (params.s) search(params.s);
	}

	// event listeners
	window.addEventListener("click", function(e) {
		var target = find_group(e.target);
		if (target) {
			if (target.nodeName == "a") {
				if (e.ctrlKey === false) return;
				e.preventDefault();
			}
			if (target.classList.contains("parent")) unzoom(true);
			zoom(target);
			if (!document.querySelector('.parent')) {
				// we have basically done a clearzoom so clear the url
				var params = get_params();
				if (params.x) delete params.x;
				if (params.y) delete params.y;
				history.replaceState(null, null, parse_params(params));
				unzoombtn.classList.add("hide");
				return;
			}

			// set parameters for zoom state
			var el = target.querySelector("rect");
			if (el && el.attributes && el.attributes.y && el.attributes._orig_x) {
				var params = get_params()
				params.x = el.attributes._orig_x.value;
				params.y = el.attributes.y.value;
				history.replaceState(null, null, parse_params(params));
			}
		}
		else if (e.target.id == "unzoom") clearzoom();
		else if (e.target.id == "search") search_prompt();
		else if (e.target.id == "ignorecase") toggle_ignorecase();
	}, false)

	// mouse-over for info
	// show
	window.addEventListener("mouseover", function(e) {
		var target = find_group(e.target);
		if (target) details.nodeValue = "Function: " + g_to_text(target);
	}, false)

	// clear
	window.addEventListener("mouseout", function(e) {
		var target = find_group(e.target);
		if (target) details.nodeValue = ' ';
	}, false)

	// ctrl-F for search
	// ctrl-I to toggle case-sensitive search
	window.addEventListener("keydown",function (e) {
		if (e.keyCode === 114 || (e.ctrlKey && e.keyCode === 70)) {
			e.preventDefault();
			search_prompt();
		}
		else if (e.ctrlKey && e.keyCode === 73) {
			e.preventDefault();
			toggle_ignorecase();
		}
	}, false)

	// functions
	function get_params() {
		var params = {};
		var paramsarr = window.location.search.substr(1).split('&');
		for (var i = 0; i < paramsarr.length; ++i) {
			var tmp = paramsarr[i].split("=");
			if (!tmp[0] || !tmp[1]) continue;
			params[tmp[0]]  = decodeURIComponent(tmp[1]);
		}
		return params;
	}
	function parse_params(params) {
		var uri = "?";
		for (var key in params) {
			uri += key + '=' + encodeURIComponent(params[key]) + '&';
		}
		if (uri.slice(-1) == "&")
			uri = uri.substring(0, uri.length - 1);
		if (uri == '?')
			uri = window.location.href.split('?')[0];
		return uri;
	}
	function find_child(node, selector) {
		var children = node.querySelectorAll(selector);
		if (children.length) return children[0];
	}
	function find_group(node) {
		var parent = node.parentElement;
		if (!parent) return;
		if (parent.id == "frames") return node;
		return find_group(parent);
	}
	function orig_save(e, attr, val) {
		if (e.attributes["_orig_" + attr] != undefined) return;
		if (e.attributes[attr] == undefined) return;
		if (val == undefined) val = e.attributes[attr].value;
		e.setAttribute("_orig_" + attr, val);
	}
	function orig_load(e, attr) {
		if (e.attributes["_orig_"+attr] == undefined) return;
		e.attributes[attr].value = e.attributes["_orig_" + attr].value;
		e.removeAttribute("_orig_"+attr);
	}
	function g_to_text(e) {
		var text = find_child(e, "title").firstChild.nodeValue;
		return (text)
	}
	function g_to_func(e) {
		var func = g_to_text(e);
		// if there's any manipulation we want to do to the function
		// name before it's searched, do it here before returning.
		return (func);
	}
	function update_text(e) {
		var r = find_child(e, "rect");
		var t = find_child(e, "text");
		var w = parseFloat(r.attributes.width.value) -3;
		var txt = find_child(e, "title").textContent.replace(/\([^(]*\)$/,"");
		t.attributes.x.value = parseFloat(r.attributes.x.value) + 3;

		// Smaller than this size won't fit anything
		if (w < 2 * 12 * 0.59) {
			t.textContent = "";
			return;
		}

		t.textContent = txt;
		var sl = t.getSubStringLength(0, txt.length);
		// check if only whitespace or if we can fit the entire string into width w
		if (/^ *$/.test(txt) || sl < w)
			return;

		// this isn't perfect, but gives a good starting point
		// and avoids calling getSubStringLength too often
		var start = Math.floor((w/sl) * txt.length);
		for (var x = start; x > 0; x = x-2) {
			if (t.getSubStringLength(0, x + 2) <= w) {
				t.textContent = txt.substring(0, x) + "..";
				return;
			}
		}
		t.textContent = "";
	}

	// zoom
	function zoom_reset(e) {
		if (e.attributes != undefined) {
			orig_load(e, "x");
			orig_load(e, "width");
		}
		if (e.childNodes == undefined) return;
		for (var i = 0, c = e.childNodes; i < c.length; i++) {
			zoom_reset(c[i]);
		}
	}
	function zoom_child(e, x, ratio) {
		if (e.attributes != undefined) {
			if (e.attributes.x != undefined) {
				orig_save(e, "x");
				e.attributes.x.value = (parseFloat(e.attributes.x.value) - x - 10) * ratio + 10;
				if (e.tagName == "text")
					e.attributes.x.value = find_child(e.parentNode, "rect[x]").attributes.x.value + 3;
			}
			if (e.attributes.width != undefined) {
				orig_save(e, "width");
				e.attributes.width.value = parseFloat(e.attributes.width.value) * ratio;
			}
		}

		if (e.childNodes == undefined) return;
		for (var i = 0, c = e.childNodes; i < c.length; i++) {
			zoom_child(c[i], x - 10, ratio);
		}
	}
	function zoom_parent(e) {
		if (e.attributes) {
			if (e.attributes.x != undefined) {
				orig_save(e, "x");
				e.attributes.x.value = 10;
			}
			if (e.attributes.width != undefined) {
				orig_save(e, "width");
				e.attributes.width.value = parseInt(svg.width.baseVal.value) - (10 * 2);
			}
		}
		if (e.childNodes == undefined) return;
		for (var i = 0, c = e.childNodes; i < c.length; i++) {
			zoom_parent(c[i]);
		}
	}
	function zoom(node) {
		var attr = find_child(node, "rect").attributes;
		var width = parseFloat(attr.width.value);
		var xmin = parseFloat(attr.x.value);
		var xmax = parseFloat(xmin + width);
		var ymin = parseFloat(attr.y.value);
		var ratio = (svg.width.baseVal.value - 2 * 10) / width;

		// XXX: Workaround for JavaScript float issues (fix me)
		var fudge = 0.0001;

		unzoombtn.classList.remove("hide");

		var el = document.getElementById("frames").children;
		for (var i = 0; i < el.length; i++) {
			var e = el[i];
			var a = find_child(e, "rect").attributes;
			var ex = parseFloat(a.x.value);
			var ew = parseFloat(a.width.value);
			var upstack;
			// Is it an ancestor
			if (0 == 0) {
				upstack = parseFloat(a.y.value) > ymin;
			} else {
				upstack = parseFloat(a.y.value) < ymin;
			}
			if (upstack) {
				// Direct ancestor
				if (ex <= xmin && (ex+ew+fudge) >= xmax) {
					e.classList.add("parent");
					zoom_parent(e);
					update_text(e);
				}
				// not in current path
				else
					e.classList.add("hide");
			}
			// Children maybe
			else {
				// no common path
				if (ex < xmin || ex + fudge >= xmax) {
					e.classList.add("hide");
				}
				else {
					zoom_child(e, xmin, ratio);
					update_text(e);
				}
			}
		}
		search();
	}
	function unzoom(dont_update_text) {
		unzoombtn.classList.add("hide");
		var el = document.getElementById("frames").children;
		for(var i = 0; i < el.length; i++) {
			el[i].classList.remove("parent");
			el[i].classList.remove("hide");
			zoom_reset(el[i]);
			if(!dont_update_text) update_text(el[i]);
		}
		search();
	}
	function clearzoom() {
		unzoom();

		// remove zoom state
		var params = get_params();
		if (params.x) delete params.x;
		if (params.y) delete params.y;
		history.replaceState(null, null, parse_params(params));
	}

	// search
	function toggle_ignorecase() {
		ignorecase = !ignorecase;
		if (ignorecase) {
			ignorecaseBtn.classList.add("show");
		} else {
			ignorecaseBtn.classList.remove("show");
		}
		reset_search();
		search();
	}
	function reset_search() {
		var el = document.querySelectorAll("#frames rect");
		for (var i = 0; i < el.length; i++) {
			orig_load(el[i], "fill")
		}
		var params = get_params();
		delete params.s;
		history.replaceState(null, null, parse_params(params));
	}
	function search_prompt() {
		if (!searching) {
			var term = prompt("Enter a search term (regexp " +
			    "allowed, eg: ^ext4_)"
			    + (ignorecase ? ", ignoring case" : "")
			    + "\nPress Ctrl-i to toggle case sensitivity", "");
			if (term != null) search(term);
		} else {
			reset_search();
			searching = 0;
			currentSearchTerm = null;
			searchbtn.classList.remove("show");
			searchbtn.firstChild.nodeValue = "Search"
			matchedtxt.classList.add("hide");
			matchedtxt.firstChild.nodeValue = ""
		}
	}
	function search(term) {
		if (term) currentSearchTerm = term;

		var re = new RegExp(currentSearchTerm, ignorecase ? 'i' : '');
		var el = document.getElementById("frames").children;
		var matches = new Object();
		var maxwidth = 0;
		for (var i = 0; i < el.length; i++) {
			var e = el[i];
			var func = g_to_func(e);
			var rect = find_child(e, "rect");
			if (func == null || rect == null)
				continue;

			// Save max width. Only works as we have a root frame
			var w = parseFloat(rect.attributes.width.value);
			if (w > maxwidth)
				maxwidth = w;

			if (func.match(re)) {
				// highlight
				var x = parseFloat(rect.attributes.x.value);
				orig_save(rect, "fill");
				rect.attributes.fill.value = "rgb(230,0,230)";

				// remember matches
				if (matches[x] == undefined) {
					matches[x] = w;
				} else {
					if (w > matches[x]) {
						// overwrite with parent
						matches[x] = w;
					}
				}
				searching = 1;
			}
		}
		if (!searching)
			return;
		var params = get_params();
		params.s = currentSearchTerm;
		history.replaceState(null, null, parse_params(params));

		searchbtn.classList.add("show");
		searchbtn.firstChild.nodeValue = "Reset Search";

		// calculate percent matched, excluding vertical overlap
		var count = 0;
		var lastx = -1;
		var lastw = 0;
		var keys = Array();
		for (k in matches) {
			if (matches.hasOwnProperty(k))
				keys.push(k);
		}
		// sort the matched frames by their x location
		// ascending, then width descending
		keys.sort(function(a, b){
			return a - b;
		});
		// Step through frames saving only the biggest bottom-up frames
		// thanks to the sort order. This relies on the tree property
		// where children are always smaller than their parents.
		var fudge = 0.0001;	// JavaScript floating point
		for (var k in keys) {
			var x = parseFloat(keys[k]);
			var w = matches[keys[k]];
			if (x >= lastx + lastw - fudge) {
				count += w;
				lastx = x;
				lastw = w;
			}
		}
		// display matched percent
		matchedtxt.classList.remove("hide");
		var pct = 100 * count / maxwidth;
		if (pct != 100) pct = pct.toFixed(1)
		matchedtxt.firstChild.nodeValue = "Matched: " + pct + "%";
	}
]]>
</script>
<rect x="0.0" y="0" width="1200.0" height="518.0" fill="url(#background)"  />
<text id="title" x="600.00" y="24" >Flame Graph</text>
<text id="details" x="10.00" y="501" > </text>
<text id="unzoom" x="10.00" y="24" class="hide">Reset Zoom</text>
<text id="search" x="1090.00" y="24" >Search</text>
<text id="ignorecase" x="1174.00" y="24" >ic</text>
<text id="matched" x="1090.00" y="501" > </text>
<g id="frames">
<g >
<title>w2c_decode__webp__wasmsimd_ReadHuffmanCode (3,693,947 samples, 0.49%)</title><rect x="1039.7" y="437" width="5.9" height="15.0" fill="rgb(222,79,18)" rx="2" ry="2" />
<text  x="1042.74" y="447.5" ></text>
</g>
<g >
<title>balance_dirty_pages_ratelimited_flags (924,264 samples, 0.12%)</title><rect x="14.2" y="309" width="1.5" height="15.0" fill="rgb(207,10,2)" rx="2" ry="2" />
<text  x="17.20" y="319.5" ></text>
</g>
<g >
<title>entry_SYSCALL_64_after_hwframe (909,623 samples, 0.12%)</title><rect x="257.6" y="421" width="1.5" height="15.0" fill="rgb(218,63,15)" rx="2" ry="2" />
<text  x="260.61" y="431.5" ></text>
</g>
<g >
<title>__x64_sys_execve (246,428 samples, 0.03%)</title><rect x="15.7" y="389" width="0.4" height="15.0" fill="rgb(247,193,46)" rx="2" ry="2" />
<text  x="18.67" y="399.5" ></text>
</g>
<g >
<title>do_user_addr_fault (938,813 samples, 0.13%)</title><rect x="12.7" y="341" width="1.5" height="15.0" fill="rgb(228,108,25)" rx="2" ry="2" />
<text  x="15.72" y="351.5" ></text>
</g>
<g >
<title>bprm_execve (246,428 samples, 0.03%)</title><rect x="15.7" y="357" width="0.4" height="15.0" fill="rgb(218,61,14)" rx="2" ry="2" />
<text  x="18.67" y="367.5" ></text>
</g>
<g >
<title>do_mprotect_pkey (909,623 samples, 0.12%)</title><rect x="257.6" y="373" width="1.5" height="15.0" fill="rgb(252,218,52)" rx="2" ry="2" />
<text  x="260.61" y="383.5" ></text>
</g>
<g >
<title>do_syscall_64 (922,855 samples, 0.12%)</title><rect x="11.3" y="389" width="1.4" height="15.0" fill="rgb(209,20,4)" rx="2" ry="2" />
<text  x="14.26" y="399.5" ></text>
</g>
<g >
<title>__handle_mm_fault (938,813 samples, 0.13%)</title><rect x="12.7" y="309" width="1.5" height="15.0" fill="rgb(207,9,2)" rx="2" ry="2" />
<text  x="15.72" y="319.5" ></text>
</g>
<g >
<title>mas_store_prealloc (909,623 samples, 0.12%)</title><rect x="257.6" y="309" width="1.5" height="15.0" fill="rgb(223,85,20)" rx="2" ry="2" />
<text  x="260.61" y="319.5" ></text>
</g>
<g >
<title>task_work_run (922,855 samples, 0.12%)</title><rect x="11.3" y="341" width="1.4" height="15.0" fill="rgb(209,22,5)" rx="2" ry="2" />
<text  x="14.26" y="351.5" ></text>
</g>
<g >
<title>mprotect_fixup (246,428 samples, 0.03%)</title><rect x="15.7" y="309" width="0.4" height="15.0" fill="rgb(236,144,34)" rx="2" ry="2" />
<text  x="18.67" y="319.5" ></text>
</g>
<g >
<title>setup_arg_pages (246,428 samples, 0.03%)</title><rect x="15.7" y="325" width="0.4" height="15.0" fill="rgb(222,82,19)" rx="2" ry="2" />
<text  x="18.67" y="335.5" ></text>
</g>
<g >
<title>w2c_decode__webp__wasmsimd_PredictorAdd4_SSE2 (923,991 samples, 0.12%)</title><rect x="1036.8" y="437" width="1.5" height="15.0" fill="rgb(230,117,28)" rx="2" ry="2" />
<text  x="1039.82" y="447.5" ></text>
</g>
<g >
<title>w2c_decode__webp__wasmsimd_DecodeImageStream (921,341 samples, 0.12%)</title><rect x="841.8" y="437" width="1.5" height="15.0" fill="rgb(233,130,31)" rx="2" ry="2" />
<text  x="844.85" y="447.5" ></text>
</g>
<g >
<title>exc_page_fault (797,262 samples, 0.11%)</title><rect x="10.0" y="373" width="1.3" height="15.0" fill="rgb(212,35,8)" rx="2" ry="2" />
<text  x="13.00" y="383.5" ></text>
</g>
<g >
<title>__vma_adjust (909,623 samples, 0.12%)</title><rect x="257.6" y="325" width="1.5" height="15.0" fill="rgb(224,87,20)" rx="2" ry="2" />
<text  x="260.61" y="335.5" ></text>
</g>
<g >
<title>__fput (922,855 samples, 0.12%)</title><rect x="11.3" y="325" width="1.4" height="15.0" fill="rgb(248,200,47)" rx="2" ry="2" />
<text  x="14.26" y="335.5" ></text>
</g>
<g >
<title>do_user_addr_fault (797,262 samples, 0.11%)</title><rect x="10.0" y="357" width="1.3" height="15.0" fill="rgb(228,108,25)" rx="2" ry="2" />
<text  x="13.00" y="367.5" ></text>
</g>
<g >
<title>__mem_cgroup_flush_stats (924,264 samples, 0.12%)</title><rect x="14.2" y="261" width="1.5" height="15.0" fill="rgb(208,16,3)" rx="2" ry="2" />
<text  x="17.20" y="271.5" ></text>
</g>
<g >
<title>__memmove_avx_unaligned_erms (938,813 samples, 0.13%)</title><rect x="12.7" y="389" width="1.5" height="15.0" fill="rgb(205,0,0)" rx="2" ry="2" />
<text  x="15.72" y="399.5" ></text>
</g>
<g >
<title>w2c_decode__webp__wasmsimd_VP8LReadBits (6,385,965 samples, 0.86%)</title><rect x="1179.8" y="437" width="10.1" height="15.0" fill="rgb(228,108,26)" rx="2" ry="2" />
<text  x="1182.84" y="447.5" ></text>
</g>
<g >
<title>do_fault (797,262 samples, 0.11%)</title><rect x="10.0" y="309" width="1.3" height="15.0" fill="rgb(248,200,47)" rx="2" ry="2" />
<text  x="13.00" y="319.5" ></text>
</g>
<g >
<title>w2c_decode__webp__wasmsimd_VP8LInverseTransform (922,328 samples, 0.12%)</title><rect x="1178.4" y="437" width="1.4" height="15.0" fill="rgb(225,96,23)" rx="2" ry="2" />
<text  x="1181.38" y="447.5" ></text>
</g>
<g >
<title>w2c_decode__webp__wasmsimd_ProcessRows (923,666 samples, 0.12%)</title><rect x="1038.3" y="437" width="1.4" height="15.0" fill="rgb(248,202,48)" rx="2" ry="2" />
<text  x="1041.28" y="447.5" ></text>
</g>
<g >
<title>mt_find (246,428 samples, 0.03%)</title><rect x="15.7" y="277" width="0.4" height="15.0" fill="rgb(252,218,52)" rx="2" ry="2" />
<text  x="18.67" y="287.5" ></text>
</g>
<g >
<title>filemap_fdatawrite_wbc (922,855 samples, 0.12%)</title><rect x="11.3" y="277" width="1.4" height="15.0" fill="rgb(210,25,6)" rx="2" ry="2" />
<text  x="14.26" y="287.5" ></text>
</g>
<g >
<title>blk_mq_submit_bio (922,855 samples, 0.12%)</title><rect x="11.3" y="197" width="1.4" height="15.0" fill="rgb(224,89,21)" rx="2" ry="2" />
<text  x="14.26" y="207.5" ></text>
</g>
<g >
<title>__iommu_map (922,855 samples, 0.12%)</title><rect x="11.3" y="53" width="1.4" height="15.0" fill="rgb(208,17,4)" rx="2" ry="2" />
<text  x="14.26" y="63.5" ></text>
</g>
<g >
<title>all (746,364,234 samples, 100%)</title><rect x="10.0" y="469" width="1180.0" height="15.0" fill="rgb(213,39,9)" rx="2" ry="2" />
<text  x="13.00" y="479.5" ></text>
</g>
<g >
<title>load_elf_binary (246,428 samples, 0.03%)</title><rect x="15.7" y="341" width="0.4" height="15.0" fill="rgb(223,83,20)" rx="2" ry="2" />
<text  x="18.67" y="351.5" ></text>
</g>
<g >
<title>vma_alloc_folio (938,813 samples, 0.13%)</title><rect x="12.7" y="293" width="1.5" height="15.0" fill="rgb(245,187,44)" rx="2" ry="2" />
<text  x="15.72" y="303.5" ></text>
</g>
<g >
<title>__alloc_pages (938,813 samples, 0.13%)</title><rect x="12.7" y="261" width="1.5" height="15.0" fill="rgb(233,129,30)" rx="2" ry="2" />
<text  x="15.72" y="271.5" ></text>
</g>
<g >
<title>nvme_queue_rqs (922,855 samples, 0.12%)</title><rect x="11.3" y="149" width="1.4" height="15.0" fill="rgb(250,211,50)" rx="2" ry="2" />
<text  x="14.26" y="159.5" ></text>
</g>
<g >
<title>syscall_exit_to_user_mode (922,855 samples, 0.12%)</title><rect x="11.3" y="373" width="1.4" height="15.0" fill="rgb(251,211,50)" rx="2" ry="2" />
<text  x="14.26" y="383.5" ></text>
</g>
<g >
<title>__tunables_init (797,262 samples, 0.11%)</title><rect x="10.0" y="405" width="1.3" height="15.0" fill="rgb(237,149,35)" rx="2" ry="2" />
<text  x="13.00" y="415.5" ></text>
</g>
<g >
<title>mem_cgroup_wb_stats (924,264 samples, 0.12%)</title><rect x="14.2" y="277" width="1.5" height="15.0" fill="rgb(211,28,6)" rx="2" ry="2" />
<text  x="17.20" y="287.5" ></text>
</g>
<g >
<title>cgroup_rstat_flush_locked (924,264 samples, 0.12%)</title><rect x="14.2" y="229" width="1.5" height="15.0" fill="rgb(209,19,4)" rx="2" ry="2" />
<text  x="17.20" y="239.5" ></text>
</g>
<g >
<title>__list_del_entry_valid (938,813 samples, 0.13%)</title><rect x="12.7" y="229" width="1.5" height="15.0" fill="rgb(239,158,37)" rx="2" ry="2" />
<text  x="15.72" y="239.5" ></text>
</g>
<g >
<title>ext4_buffered_write_iter (924,264 samples, 0.12%)</title><rect x="14.2" y="341" width="1.5" height="15.0" fill="rgb(213,40,9)" rx="2" ry="2" />
<text  x="17.20" y="351.5" ></text>
</g>
<g >
<title>_raw_spin_lock_irqsave (924,264 samples, 0.12%)</title><rect x="14.2" y="213" width="1.5" height="15.0" fill="rgb(247,195,46)" rx="2" ry="2" />
<text  x="17.20" y="223.5" ></text>
</g>
<g >
<title>do_syscall_64 (909,623 samples, 0.12%)</title><rect x="257.6" y="405" width="1.5" height="15.0" fill="rgb(209,20,4)" rx="2" ry="2" />
<text  x="260.61" y="415.5" ></text>
</g>
<g >
<title>__x64_sys_mprotect (909,623 samples, 0.12%)</title><rect x="257.6" y="389" width="1.5" height="15.0" fill="rgb(209,21,5)" rx="2" ry="2" />
<text  x="260.61" y="399.5" ></text>
</g>
<g >
<title>balance_dirty_pages (924,264 samples, 0.12%)</title><rect x="14.2" y="293" width="1.5" height="15.0" fill="rgb(247,193,46)" rx="2" ry="2" />
<text  x="17.20" y="303.5" ></text>
</g>
<g >
<title>w2c_decode__webp__wasmsimd_AddGreenToBlueAndRed_SSE2 (9,236,763 samples, 1.24%)</title><rect x="16.1" y="421" width="14.6" height="15.0" fill="rgb(231,122,29)" rx="2" ry="2" />
<text  x="19.05" y="431.5" ></text>
</g>
<g >
<title>mprotect_fixup (909,623 samples, 0.12%)</title><rect x="257.6" y="357" width="1.5" height="15.0" fill="rgb(236,144,34)" rx="2" ry="2" />
<text  x="260.61" y="367.5" ></text>
</g>
<g >
<title>exit_to_user_mode_prepare (922,855 samples, 0.12%)</title><rect x="11.3" y="357" width="1.4" height="15.0" fill="rgb(228,108,25)" rx="2" ry="2" />
<text  x="14.26" y="367.5" ></text>
</g>
<g >
<title>blk_add_rq_to_plug (922,855 samples, 0.12%)</title><rect x="11.3" y="181" width="1.4" height="15.0" fill="rgb(243,175,41)" rx="2" ry="2" />
<text  x="14.26" y="191.5" ></text>
</g>
<g >
<title>asm_exc_page_fault (836,175 samples, 0.11%)</title><rect x="339.0" y="421" width="1.4" height="15.0" fill="rgb(225,93,22)" rx="2" ry="2" />
<text  x="342.03" y="431.5" ></text>
</g>
<g >
<title>decode_webp_was (746,324,737 samples, 99.99%)</title><rect x="10.0" y="453" width="1179.9" height="15.0" fill="rgb(216,54,12)" rx="2" ry="2" />
<text  x="13.00" y="463.5" >decode_webp_was</text>
</g>
<g >
<title>iommu_v1_map_pages (922,855 samples, 0.12%)</title><rect x="11.3" y="37" width="1.4" height="15.0" fill="rgb(219,65,15)" rx="2" ry="2" />
<text  x="14.26" y="47.5" ></text>
</g>
<g >
<title>w2c_decode__webp__wasmsimd_PredictorAdd7_SSE2 (12,933,217 samples, 1.73%)</title><rect x="151.3" y="421" width="20.4" height="15.0" fill="rgb(211,28,6)" rx="2" ry="2" />
<text  x="154.29" y="431.5" ></text>
</g>
<g >
<title>w2c_decode__webp__wasmsimd_ConvertBGRAToRGB_SSE2 (14,686,692 samples, 1.97%)</title><rect x="317.1" y="437" width="23.3" height="15.0" fill="rgb(230,117,28)" rx="2" ry="2" />
<text  x="320.13" y="447.5" >w..</text>
</g>
<g >
<title>asm_exc_page_fault (797,262 samples, 0.11%)</title><rect x="10.0" y="389" width="1.3" height="15.0" fill="rgb(225,93,22)" rx="2" ry="2" />
<text  x="13.00" y="399.5" ></text>
</g>
<g >
<title>[unknown] (797,262 samples, 0.11%)</title><rect x="10.0" y="421" width="1.3" height="15.0" fill="rgb(210,24,5)" rx="2" ry="2" />
<text  x="13.00" y="431.5" ></text>
</g>
<g >
<title>entry_SYSCALL_64_after_hwframe (922,855 samples, 0.12%)</title><rect x="11.3" y="405" width="1.4" height="15.0" fill="rgb(218,63,15)" rx="2" ry="2" />
<text  x="14.26" y="415.5" ></text>
</g>
<g >
<title>w2c_decode__webp__wasmsimd_PredictorAdd1_C (923,151 samples, 0.12%)</title><rect x="1031.0" y="437" width="1.4" height="15.0" fill="rgb(208,14,3)" rx="2" ry="2" />
<text  x="1033.98" y="447.5" ></text>
</g>
<g >
<title>ksys_write (924,264 samples, 0.12%)</title><rect x="14.2" y="373" width="1.5" height="15.0" fill="rgb(205,4,1)" rx="2" ry="2" />
<text  x="17.20" y="383.5" ></text>
</g>
<g >
<title>w2c_decode__webp__wasmsimd_PredictorAdd2_C (924,285 samples, 0.12%)</title><rect x="1032.4" y="437" width="1.5" height="15.0" fill="rgb(251,214,51)" rx="2" ry="2" />
<text  x="1035.44" y="447.5" ></text>
</g>
<g >
<title>handle_mm_fault (797,262 samples, 0.11%)</title><rect x="10.0" y="341" width="1.3" height="15.0" fill="rgb(234,135,32)" rx="2" ry="2" />
<text  x="13.00" y="351.5" ></text>
</g>
<g >
<title>__dma_map_sg_attrs (922,855 samples, 0.12%)</title><rect x="11.3" y="101" width="1.4" height="15.0" fill="rgb(251,212,50)" rx="2" ry="2" />
<text  x="14.26" y="111.5" ></text>
</g>
<g >
<title>blk_mq_flush_plug_list (922,855 samples, 0.12%)</title><rect x="11.3" y="165" width="1.4" height="15.0" fill="rgb(215,46,11)" rx="2" ry="2" />
<text  x="14.26" y="175.5" ></text>
</g>
<g >
<title>w2c_decode__webp__wasmsimd_PredictorAdd11_SSE2 (1,847,556 samples, 0.25%)</title><rect x="30.7" y="421" width="2.9" height="15.0" fill="rgb(233,130,31)" rx="2" ry="2" />
<text  x="33.66" y="431.5" ></text>
</g>
<g >
<title>w2c_decode__webp__wasmsimd_PredictorAdd11_SSE2 (118,706,939 samples, 15.90%)</title><rect x="843.3" y="437" width="187.7" height="15.0" fill="rgb(233,130,31)" rx="2" ry="2" />
<text  x="846.30" y="447.5" >w2c_decode__webp__wasmsi..</text>
</g>
<g >
<title>submit_bio_noacct_nocheck (922,855 samples, 0.12%)</title><rect x="11.3" y="213" width="1.4" height="15.0" fill="rgb(225,95,22)" rx="2" ry="2" />
<text  x="14.26" y="223.5" ></text>
</g>
<g >
<title>nvme_prep_rq.part.0 (922,855 samples, 0.12%)</title><rect x="11.3" y="133" width="1.4" height="15.0" fill="rgb(214,42,10)" rx="2" ry="2" />
<text  x="14.26" y="143.5" ></text>
</g>
<g >
<title>__iommu_map_sg (922,855 samples, 0.12%)</title><rect x="11.3" y="69" width="1.4" height="15.0" fill="rgb(236,146,35)" rx="2" ry="2" />
<text  x="14.26" y="79.5" ></text>
</g>
<g >
<title>vma_merge (246,428 samples, 0.03%)</title><rect x="15.7" y="293" width="0.4" height="15.0" fill="rgb(246,188,45)" rx="2" ry="2" />
<text  x="18.67" y="303.5" ></text>
</g>
<g >
<title>w2c_decode__webp__wasmsimd_VP8LInverseTransform (8,314,664 samples, 1.11%)</title><rect x="244.5" y="421" width="13.1" height="15.0" fill="rgb(225,96,23)" rx="2" ry="2" />
<text  x="247.47" y="431.5" ></text>
</g>
<g >
<title>entry_SYSCALL_64_after_hwframe (246,428 samples, 0.03%)</title><rect x="15.7" y="421" width="0.4" height="15.0" fill="rgb(218,63,15)" rx="2" ry="2" />
<text  x="18.67" y="431.5" ></text>
</g>
<g >
<title>exc_page_fault (938,813 samples, 0.13%)</title><rect x="12.7" y="357" width="1.5" height="15.0" fill="rgb(212,35,8)" rx="2" ry="2" />
<text  x="15.72" y="367.5" ></text>
</g>
<g >
<title>mas_destroy (909,623 samples, 0.12%)</title><rect x="257.6" y="293" width="1.5" height="15.0" fill="rgb(250,209,49)" rx="2" ry="2" />
<text  x="260.61" y="303.5" ></text>
</g>
<g >
<title>vfs_write (924,264 samples, 0.12%)</title><rect x="14.2" y="357" width="1.5" height="15.0" fill="rgb(250,209,50)" rx="2" ry="2" />
<text  x="17.20" y="367.5" ></text>
</g>
<g >
<title>entry_SYSCALL_64_after_hwframe (924,264 samples, 0.12%)</title><rect x="14.2" y="405" width="1.5" height="15.0" fill="rgb(218,63,15)" rx="2" ry="2" />
<text  x="17.20" y="415.5" ></text>
</g>
<g >
<title>filemap_map_pages (797,262 samples, 0.11%)</title><rect x="10.0" y="293" width="1.3" height="15.0" fill="rgb(229,112,27)" rx="2" ry="2" />
<text  x="13.00" y="303.5" ></text>
</g>
<g >
<title>__close_nocancel (922,855 samples, 0.12%)</title><rect x="11.3" y="421" width="1.4" height="15.0" fill="rgb(228,109,26)" rx="2" ry="2" />
<text  x="14.26" y="431.5" ></text>
</g>
<g >
<title>w2c_decode__webp__wasmsimd_PredictorAdd6_SSE2 (923,968 samples, 0.12%)</title><rect x="149.8" y="421" width="1.5" height="15.0" fill="rgb(217,57,13)" rx="2" ry="2" />
<text  x="152.83" y="431.5" ></text>
</g>
<g >
<title>w2c_decode__webp__wasmsimd_PredictorAdd12_SSE2 (5,460,962 samples, 0.73%)</title><rect x="33.6" y="421" width="8.6" height="15.0" fill="rgb(226,100,24)" rx="2" ry="2" />
<text  x="36.58" y="431.5" ></text>
</g>
<g >
<title>w2c_decode__webp__wasmsimd_PredictorAdd5_SSE2 (9,168,935 samples, 1.23%)</title><rect x="135.3" y="421" width="14.5" height="15.0" fill="rgb(224,87,20)" rx="2" ry="2" />
<text  x="138.33" y="431.5" ></text>
</g>
<g >
<title>do_writepages (922,855 samples, 0.12%)</title><rect x="11.3" y="261" width="1.4" height="15.0" fill="rgb(240,164,39)" rx="2" ry="2" />
<text  x="14.26" y="271.5" ></text>
</g>
<g >
<title>__handle_mm_fault (797,262 samples, 0.11%)</title><rect x="10.0" y="325" width="1.3" height="15.0" fill="rgb(207,9,2)" rx="2" ry="2" />
<text  x="13.00" y="335.5" ></text>
</g>
<g >
<title>[unknown] (156,618,880 samples, 20.98%)</title><rect x="10.0" y="437" width="247.6" height="15.0" fill="rgb(210,24,5)" rx="2" ry="2" />
<text  x="13.00" y="447.5" >[unknown]</text>
</g>
<g >
<title>w2c_decode__webp__wasmsimd_BuildHuffmanTable (36,737,962 samples, 4.92%)</title><rect x="259.1" y="437" width="58.0" height="15.0" fill="rgb(218,63,15)" rx="2" ry="2" />
<text  x="262.05" y="447.5" >w2c_de..</text>
</g>
<g >
<title>get_page_from_freelist (938,813 samples, 0.13%)</title><rect x="12.7" y="245" width="1.5" height="15.0" fill="rgb(252,218,52)" rx="2" ry="2" />
<text  x="15.72" y="255.5" ></text>
</g>
<g >
<title>do_syscall_64 (924,264 samples, 0.12%)</title><rect x="14.2" y="389" width="1.5" height="15.0" fill="rgb(209,20,4)" rx="2" ry="2" />
<text  x="17.20" y="399.5" ></text>
</g>
<g >
<title>w2c_decode__webp__wasmsimd_PredictorAdd13_SSE2 (45,060,827 samples, 6.04%)</title><rect x="42.2" y="421" width="71.3" height="15.0" fill="rgb(220,70,16)" rx="2" ry="2" />
<text  x="45.21" y="431.5" >w2c_deco..</text>
</g>
<g >
<title>w2c_decode__webp__wasmsimd_TransformColorInverse_SSE2 (46,004,472 samples, 6.16%)</title><rect x="171.7" y="421" width="72.8" height="15.0" fill="rgb(245,185,44)" rx="2" ry="2" />
<text  x="174.74" y="431.5" >w2c_deco..</text>
</g>
<g >
<title>__libc_write (924,264 samples, 0.12%)</title><rect x="14.2" y="421" width="1.5" height="15.0" fill="rgb(238,154,37)" rx="2" ry="2" />
<text  x="17.20" y="431.5" ></text>
</g>
<g >
<title>generic_perform_write (924,264 samples, 0.12%)</title><rect x="14.2" y="325" width="1.5" height="15.0" fill="rgb(236,146,35)" rx="2" ry="2" />
<text  x="17.20" y="335.5" ></text>
</g>
<g >
<title>do_execveat_common.isra.0 (246,428 samples, 0.03%)</title><rect x="15.7" y="373" width="0.4" height="15.0" fill="rgb(231,123,29)" rx="2" ry="2" />
<text  x="18.67" y="383.5" ></text>
</g>
<g >
<title>w2c_decode__webp__wasmsimd_PredictorAdd1_SSE2 (13,837,894 samples, 1.85%)</title><rect x="113.5" y="421" width="21.8" height="15.0" fill="rgb(249,206,49)" rx="2" ry="2" />
<text  x="116.45" y="431.5" >w..</text>
</g>
<g >
<title>w2c_decode__webp__wasmsimd_PredictorAdd2_SSE2 (1,847,139 samples, 0.25%)</title><rect x="1033.9" y="437" width="2.9" height="15.0" fill="rgb(243,176,42)" rx="2" ry="2" />
<text  x="1036.90" y="447.5" ></text>
</g>
<g >
<title>cgroup_rstat_flush_irqsafe (924,264 samples, 0.12%)</title><rect x="14.2" y="245" width="1.5" height="15.0" fill="rgb(227,103,24)" rx="2" ry="2" />
<text  x="17.20" y="255.5" ></text>
</g>
<g >
<title>__do_global_dtors_aux (938,813 samples, 0.13%)</title><rect x="12.7" y="421" width="1.5" height="15.0" fill="rgb(245,185,44)" rx="2" ry="2" />
<text  x="15.72" y="431.5" ></text>
</g>
<g >
<title>w2c_decode__webp__wasmsimd_VP8LDoFillBitWindow (83,999,731 samples, 11.25%)</title><rect x="1045.6" y="437" width="132.8" height="15.0" fill="rgb(211,29,7)" rx="2" ry="2" />
<text  x="1048.58" y="447.5" >w2c_decode__webp..</text>
</g>
<g >
<title>__folio_alloc (938,813 samples, 0.13%)</title><rect x="12.7" y="277" width="1.5" height="15.0" fill="rgb(224,91,21)" rx="2" ry="2" />
<text  x="15.72" y="287.5" ></text>
</g>
<g >
<title>__mprotect (909,623 samples, 0.12%)</title><rect x="257.6" y="437" width="1.5" height="15.0" fill="rgb(214,43,10)" rx="2" ry="2" />
<text  x="260.61" y="447.5" ></text>
</g>
<g >
<title>__filemap_fdatawrite_range (922,855 samples, 0.12%)</title><rect x="11.3" y="293" width="1.4" height="15.0" fill="rgb(233,129,30)" rx="2" ry="2" />
<text  x="14.26" y="303.5" ></text>
</g>
<g >
<title>dma_map_sgtable (922,855 samples, 0.12%)</title><rect x="11.3" y="117" width="1.4" height="15.0" fill="rgb(237,150,36)" rx="2" ry="2" />
<text  x="14.26" y="127.5" ></text>
</g>
<g >
<title>w2c_decode__webp__wasmsimd_DecodeImageData (317,199,097 samples, 42.50%)</title><rect x="340.4" y="437" width="501.4" height="15.0" fill="rgb(246,191,45)" rx="2" ry="2" />
<text  x="343.35" y="447.5" >w2c_decode__webp__wasmsimd_DecodeImageData</text>
</g>
<g >
<title>ext4_release_file (922,855 samples, 0.12%)</title><rect x="11.3" y="309" width="1.4" height="15.0" fill="rgb(225,92,22)" rx="2" ry="2" />
<text  x="14.26" y="319.5" ></text>
</g>
<g >
<title>iommu_dma_map_sg (922,855 samples, 0.12%)</title><rect x="11.3" y="85" width="1.4" height="15.0" fill="rgb(223,86,20)" rx="2" ry="2" />
<text  x="14.26" y="95.5" ></text>
</g>
<g >
<title>ext4_writepages (922,855 samples, 0.12%)</title><rect x="11.3" y="245" width="1.4" height="15.0" fill="rgb(240,165,39)" rx="2" ry="2" />
<text  x="14.26" y="255.5" ></text>
</g>
<g >
<title>do_syscall_64 (246,428 samples, 0.03%)</title><rect x="15.7" y="405" width="0.4" height="15.0" fill="rgb(209,20,4)" rx="2" ry="2" />
<text  x="18.67" y="415.5" ></text>
</g>
<g >
<title>ext4_io_submit (922,855 samples, 0.12%)</title><rect x="11.3" y="229" width="1.4" height="15.0" fill="rgb(214,43,10)" rx="2" ry="2" />
<text  x="14.26" y="239.5" ></text>
</g>
<g >
<title>next_uptodate_page (797,262 samples, 0.11%)</title><rect x="10.0" y="277" width="1.3" height="15.0" fill="rgb(210,25,6)" rx="2" ry="2" />
<text  x="13.00" y="287.5" ></text>
</g>
<g >
<title>__libc_start_call_main (938,813 samples, 0.13%)</title><rect x="12.7" y="405" width="1.5" height="15.0" fill="rgb(210,26,6)" rx="2" ry="2" />
<text  x="15.72" y="415.5" ></text>
</g>
<g >
<title>vma_merge (909,623 samples, 0.12%)</title><rect x="257.6" y="341" width="1.5" height="15.0" fill="rgb(246,188,45)" rx="2" ry="2" />
<text  x="260.61" y="351.5" ></text>
</g>
<g >
<title>handle_mm_fault (938,813 samples, 0.13%)</title><rect x="12.7" y="325" width="1.5" height="15.0" fill="rgb(234,135,32)" rx="2" ry="2" />
<text  x="15.72" y="335.5" ></text>
</g>
<g >
<title>asm_exc_page_fault (938,813 samples, 0.13%)</title><rect x="12.7" y="373" width="1.5" height="15.0" fill="rgb(225,93,22)" rx="2" ry="2" />
<text  x="15.72" y="383.5" ></text>
</g>
<g >
<title>__rcu_read_unlock (246,428 samples, 0.03%)</title><rect x="15.7" y="261" width="0.4" height="15.0" fill="rgb(253,224,53)" rx="2" ry="2" />
<text  x="18.67" y="271.5" ></text>
</g>
</g>
</svg>
