<?xml version="1.0" standalone="no"?>
<!DOCTYPE svg PUBLIC "-//W3C//DTD SVG 1.1//EN" "http://www.w3.org/Graphics/SVG/1.1/DTD/svg11.dtd">
<svg version="1.1" width="1200" height="518" onload="init(evt)" viewBox="0 0 1200 518" xmlns="http://www.w3.org/2000/svg" xmlns:xlink="http://www.w3.org/1999/xlink">
<!-- Flame graph stack visualization. See https://github.com/brendangregg/FlameGraph for latest version, and http://www.brendangregg.com/flamegraphs.html for examples. -->
<!-- NOTES:  -->
<defs>
	<linearGradient id="background" y1="0" y2="1" x1="0" x2="0" >
		<stop stop-color="#eeeeee" offset="5%" />
		<stop stop-color="#eeeeb0" offset="95%" />
	</linearGradient>
</defs>
<style type="text/css">
	text { font-family:Verdana; font-size:12px; fill:rgb(0,0,0); }
	#search, #ignorecase { opacity:0.1; cursor:pointer; }
	#search:hover, #search.show, #ignorecase:hover, #ignorecase.show { opacity:1; }
	#subtitle { text-anchor:middle; font-color:rgb(160,160,160); }
	#title { text-anchor:middle; font-size:17px}
	#unzoom { cursor:pointer; }
	#frames > *:hover { stroke:black; stroke-width:0.5; cursor:pointer; }
	.hide { display:none; }
	.parent { opacity:0.5; }
</style>
<script type="text/ecmascript">
<![CDATA[
	"use strict";
	var details, searchbtn, unzoombtn, matchedtxt, svg, searching, currentSearchTerm, ignorecase, ignorecaseBtn;
	function init(evt) {
		details = document.getElementById("details").firstChild;
		searchbtn = document.getElementById("search");
		ignorecaseBtn = document.getElementById("ignorecase");
		unzoombtn = document.getElementById("unzoom");
		matchedtxt = document.getElementById("matched");
		svg = document.getElementsByTagName("svg")[0];
		searching = 0;
		currentSearchTerm = null;

		// use GET parameters to restore a flamegraphs state.
		var params = get_params();
		if (params.x && params.y)
			zoom(find_group(document.querySelector('[x="' + params.x + '"][y="' + params.y + '"]')));
                if (params.s) search(params.s);
	}

	// event listeners
	window.addEventListener("click", function(e) {
		var target = find_group(e.target);
		if (target) {
			if (target.nodeName == "a") {
				if (e.ctrlKey === false) return;
				e.preventDefault();
			}
			if (target.classList.contains("parent")) unzoom(true);
			zoom(target);
			if (!document.querySelector('.parent')) {
				// we have basically done a clearzoom so clear the url
				var params = get_params();
				if (params.x) delete params.x;
				if (params.y) delete params.y;
				history.replaceState(null, null, parse_params(params));
				unzoombtn.classList.add("hide");
				return;
			}

			// set parameters for zoom state
			var el = target.querySelector("rect");
			if (el && el.attributes && el.attributes.y && el.attributes._orig_x) {
				var params = get_params()
				params.x = el.attributes._orig_x.value;
				params.y = el.attributes.y.value;
				history.replaceState(null, null, parse_params(params));
			}
		}
		else if (e.target.id == "unzoom") clearzoom();
		else if (e.target.id == "search") search_prompt();
		else if (e.target.id == "ignorecase") toggle_ignorecase();
	}, false)

	// mouse-over for info
	// show
	window.addEventListener("mouseover", function(e) {
		var target = find_group(e.target);
		if (target) details.nodeValue = "Function: " + g_to_text(target);
	}, false)

	// clear
	window.addEventListener("mouseout", function(e) {
		var target = find_group(e.target);
		if (target) details.nodeValue = ' ';
	}, false)

	// ctrl-F for search
	// ctrl-I to toggle case-sensitive search
	window.addEventListener("keydown",function (e) {
		if (e.keyCode === 114 || (e.ctrlKey && e.keyCode === 70)) {
			e.preventDefault();
			search_prompt();
		}
		else if (e.ctrlKey && e.keyCode === 73) {
			e.preventDefault();
			toggle_ignorecase();
		}
	}, false)

	// functions
	function get_params() {
		var params = {};
		var paramsarr = window.location.search.substr(1).split('&');
		for (var i = 0; i < paramsarr.length; ++i) {
			var tmp = paramsarr[i].split("=");
			if (!tmp[0] || !tmp[1]) continue;
			params[tmp[0]]  = decodeURIComponent(tmp[1]);
		}
		return params;
	}
	function parse_params(params) {
		var uri = "?";
		for (var key in params) {
			uri += key + '=' + encodeURIComponent(params[key]) + '&';
		}
		if (uri.slice(-1) == "&")
			uri = uri.substring(0, uri.length - 1);
		if (uri == '?')
			uri = window.location.href.split('?')[0];
		return uri;
	}
	function find_child(node, selector) {
		var children = node.querySelectorAll(selector);
		if (children.length) return children[0];
	}
	function find_group(node) {
		var parent = node.parentElement;
		if (!parent) return;
		if (parent.id == "frames") return node;
		return find_group(parent);
	}
	function orig_save(e, attr, val) {
		if (e.attributes["_orig_" + attr] != undefined) return;
		if (e.attributes[attr] == undefined) return;
		if (val == undefined) val = e.attributes[attr].value;
		e.setAttribute("_orig_" + attr, val);
	}
	function orig_load(e, attr) {
		if (e.attributes["_orig_"+attr] == undefined) return;
		e.attributes[attr].value = e.attributes["_orig_" + attr].value;
		e.removeAttribute("_orig_"+attr);
	}
	function g_to_text(e) {
		var text = find_child(e, "title").firstChild.nodeValue;
		return (text)
	}
	function g_to_func(e) {
		var func = g_to_text(e);
		// if there's any manipulation we want to do to the function
		// name before it's searched, do it here before returning.
		return (func);
	}
	function update_text(e) {
		var r = find_child(e, "rect");
		var t = find_child(e, "text");
		var w = parseFloat(r.attributes.width.value) -3;
		var txt = find_child(e, "title").textContent.replace(/\([^(]*\)$/,"");
		t.attributes.x.value = parseFloat(r.attributes.x.value) + 3;

		// Smaller than this size won't fit anything
		if (w < 2 * 12 * 0.59) {
			t.textContent = "";
			return;
		}

		t.textContent = txt;
		var sl = t.getSubStringLength(0, txt.length);
		// check if only whitespace or if we can fit the entire string into width w
		if (/^ *$/.test(txt) || sl < w)
			return;

		// this isn't perfect, but gives a good starting point
		// and avoids calling getSubStringLength too often
		var start = Math.floor((w/sl) * txt.length);
		for (var x = start; x > 0; x = x-2) {
			if (t.getSubStringLength(0, x + 2) <= w) {
				t.textContent = txt.substring(0, x) + "..";
				return;
			}
		}
		t.textContent = "";
	}

	// zoom
	function zoom_reset(e) {
		if (e.attributes != undefined) {
			orig_load(e, "x");
			orig_load(e, "width");
		}
		if (e.childNodes == undefined) return;
		for (var i = 0, c = e.childNodes; i < c.length; i++) {
			zoom_reset(c[i]);
		}
	}
	function zoom_child(e, x, ratio) {
		if (e.attributes != undefined) {
			if (e.attributes.x != undefined) {
				orig_save(e, "x");
				e.attributes.x.value = (parseFloat(e.attributes.x.value) - x - 10) * ratio + 10;
				if (e.tagName == "text")
					e.attributes.x.value = find_child(e.parentNode, "rect[x]").attributes.x.value + 3;
			}
			if (e.attributes.width != undefined) {
				orig_save(e, "width");
				e.attributes.width.value = parseFloat(e.attributes.width.value) * ratio;
			}
		}

		if (e.childNodes == undefined) return;
		for (var i = 0, c = e.childNodes; i < c.length; i++) {
			zoom_child(c[i], x - 10, ratio);
		}
	}
	function zoom_parent(e) {
		if (e.attributes) {
			if (e.attributes.x != undefined) {
				orig_save(e, "x");
				e.attributes.x.value = 10;
			}
			if (e.attributes.width != undefined) {
				orig_save(e, "width");
				e.attributes.width.value = parseInt(svg.width.baseVal.value) - (10 * 2);
			}
		}
		if (e.childNodes == undefined) return;
		for (var i = 0, c = e.childNodes; i < c.length; i++) {
			zoom_parent(c[i]);
		}
	}
	function zoom(node) {
		var attr = find_child(node, "rect").attributes;
		var width = parseFloat(attr.width.value);
		var xmin = parseFloat(attr.x.value);
		var xmax = parseFloat(xmin + width);
		var ymin = parseFloat(attr.y.value);
		var ratio = (svg.width.baseVal.value - 2 * 10) / width;

		// XXX: Workaround for JavaScript float issues (fix me)
		var fudge = 0.0001;

		unzoombtn.classList.remove("hide");

		var el = document.getElementById("frames").children;
		for (var i = 0; i < el.length; i++) {
			var e = el[i];
			var a = find_child(e, "rect").attributes;
			var ex = parseFloat(a.x.value);
			var ew = parseFloat(a.width.value);
			var upstack;
			// Is it an ancestor
			if (0 == 0) {
				upstack = parseFloat(a.y.value) > ymin;
			} else {
				upstack = parseFloat(a.y.value) < ymin;
			}
			if (upstack) {
				// Direct ancestor
				if (ex <= xmin && (ex+ew+fudge) >= xmax) {
					e.classList.add("parent");
					zoom_parent(e);
					update_text(e);
				}
				// not in current path
				else
					e.classList.add("hide");
			}
			// Children maybe
			else {
				// no common path
				if (ex < xmin || ex + fudge >= xmax) {
					e.classList.add("hide");
				}
				else {
					zoom_child(e, xmin, ratio);
					update_text(e);
				}
			}
		}
		search();
	}
	function unzoom(dont_update_text) {
		unzoombtn.classList.add("hide");
		var el = document.getElementById("frames").children;
		for(var i = 0; i < el.length; i++) {
			el[i].classList.remove("parent");
			el[i].classList.remove("hide");
			zoom_reset(el[i]);
			if(!dont_update_text) update_text(el[i]);
		}
		search();
	}
	function clearzoom() {
		unzoom();

		// remove zoom state
		var params = get_params();
		if (params.x) delete params.x;
		if (params.y) delete params.y;
		history.replaceState(null, null, parse_params(params));
	}

	// search
	function toggle_ignorecase() {
		ignorecase = !ignorecase;
		if (ignorecase) {
			ignorecaseBtn.classList.add("show");
		} else {
			ignorecaseBtn.classList.remove("show");
		}
		reset_search();
		search();
	}
	function reset_search() {
		var el = document.querySelectorAll("#frames rect");
		for (var i = 0; i < el.length; i++) {
			orig_load(el[i], "fill")
		}
		var params = get_params();
		delete params.s;
		history.replaceState(null, null, parse_params(params));
	}
	function search_prompt() {
		if (!searching) {
			var term = prompt("Enter a search term (regexp " +
			    "allowed, eg: ^ext4_)"
			    + (ignorecase ? ", ignoring case" : "")
			    + "\nPress Ctrl-i to toggle case sensitivity", "");
			if (term != null) search(term);
		} else {
			reset_search();
			searching = 0;
			currentSearchTerm = null;
			searchbtn.classList.remove("show");
			searchbtn.firstChild.nodeValue = "Search"
			matchedtxt.classList.add("hide");
			matchedtxt.firstChild.nodeValue = ""
		}
	}
	function search(term) {
		if (term) currentSearchTerm = term;

		var re = new RegExp(currentSearchTerm, ignorecase ? 'i' : '');
		var el = document.getElementById("frames").children;
		var matches = new Object();
		var maxwidth = 0;
		for (var i = 0; i < el.length; i++) {
			var e = el[i];
			var func = g_to_func(e);
			var rect = find_child(e, "rect");
			if (func == null || rect == null)
				continue;

			// Save max width. Only works as we have a root frame
			var w = parseFloat(rect.attributes.width.value);
			if (w > maxwidth)
				maxwidth = w;

			if (func.match(re)) {
				// highlight
				var x = parseFloat(rect.attributes.x.value);
				orig_save(rect, "fill");
				rect.attributes.fill.value = "rgb(230,0,230)";

				// remember matches
				if (matches[x] == undefined) {
					matches[x] = w;
				} else {
					if (w > matches[x]) {
						// overwrite with parent
						matches[x] = w;
					}
				}
				searching = 1;
			}
		}
		if (!searching)
			return;
		var params = get_params();
		params.s = currentSearchTerm;
		history.replaceState(null, null, parse_params(params));

		searchbtn.classList.add("show");
		searchbtn.firstChild.nodeValue = "Reset Search";

		// calculate percent matched, excluding vertical overlap
		var count = 0;
		var lastx = -1;
		var lastw = 0;
		var keys = Array();
		for (k in matches) {
			if (matches.hasOwnProperty(k))
				keys.push(k);
		}
		// sort the matched frames by their x location
		// ascending, then width descending
		keys.sort(function(a, b){
			return a - b;
		});
		// Step through frames saving only the biggest bottom-up frames
		// thanks to the sort order. This relies on the tree property
		// where children are always smaller than their parents.
		var fudge = 0.0001;	// JavaScript floating point
		for (var k in keys) {
			var x = parseFloat(keys[k]);
			var w = matches[keys[k]];
			if (x >= lastx + lastw - fudge) {
				count += w;
				lastx = x;
				lastw = w;
			}
		}
		// display matched percent
		matchedtxt.classList.remove("hide");
		var pct = 100 * count / maxwidth;
		if (pct != 100) pct = pct.toFixed(1)
		matchedtxt.firstChild.nodeValue = "Matched: " + pct + "%";
	}
]]>
</script>
<rect x="0.0" y="0" width="1200.0" height="518.0" fill="url(#background)"  />
<text id="title" x="600.00" y="24" >Flame Graph</text>
<text id="details" x="10.00" y="501" > </text>
<text id="unzoom" x="10.00" y="24" class="hide">Reset Zoom</text>
<text id="search" x="1090.00" y="24" >Search</text>
<text id="ignorecase" x="1174.00" y="24" >ic</text>
<text id="matched" x="1090.00" y="501" > </text>
<g id="frames">
<g >
<title>vfs_write (1,846,405 samples, 0.41%)</title><rect x="1170.5" y="357" width="4.9" height="15.0" fill="rgb(250,209,50)" rx="2" ry="2" />
<text  x="1173.54" y="367.5" ></text>
</g>
<g >
<title>rcu_sched_clock_irq (879,286 samples, 0.20%)</title><rect x="198.3" y="293" width="2.3" height="15.0" fill="rgb(208,15,3)" rx="2" ry="2" />
<text  x="201.31" y="303.5" ></text>
</g>
<g >
<title>ext4_writepages (923,229 samples, 0.21%)</title><rect x="1168.1" y="245" width="2.4" height="15.0" fill="rgb(240,165,39)" rx="2" ry="2" />
<text  x="1171.12" y="255.5" ></text>
</g>
<g >
<title>HFilter8_SSE2 (872,969 samples, 0.19%)</title><rect x="403.1" y="421" width="2.3" height="15.0" fill="rgb(215,48,11)" rx="2" ry="2" />
<text  x="406.12" y="431.5" ></text>
</g>
<g >
<title>TransformAC3_C (799,544 samples, 0.18%)</title><rect x="68.7" y="437" width="2.1" height="15.0" fill="rgb(209,19,4)" rx="2" ry="2" />
<text  x="71.73" y="447.5" ></text>
</g>
<g >
<title>map_vdso (356,399 samples, 0.08%)</title><rect x="1178.0" y="325" width="0.9" height="15.0" fill="rgb(227,103,24)" rx="2" ry="2" />
<text  x="1180.96" y="335.5" ></text>
</g>
<g >
<title>exit_to_user_mode_prepare (456,990 samples, 0.10%)</title><rect x="1165.7" y="357" width="1.2" height="15.0" fill="rgb(228,108,25)" rx="2" ry="2" />
<text  x="1168.73" y="367.5" ></text>
</g>
<g >
<title>Upsample32Pixels_SSE2 (2,488,060 samples, 0.55%)</title><rect x="89.3" y="437" width="6.5" height="15.0" fill="rgb(223,83,20)" rx="2" ry="2" />
<text  x="92.27" y="447.5" ></text>
</g>
<g >
<title>entry_SYSCALL_64_after_hwframe (923,229 samples, 0.21%)</title><rect x="1168.1" y="405" width="2.4" height="15.0" fill="rgb(218,63,15)" rx="2" ry="2" />
<text  x="1171.12" y="415.5" ></text>
</g>
<g >
<title>GetLargeValue (41,815,466 samples, 9.30%)</title><rect x="277.8" y="421" width="109.7" height="15.0" fill="rgb(243,175,42)" rx="2" ry="2" />
<text  x="280.78" y="431.5" >GetLargeValue</text>
</g>
<g >
<title>VP8DecodeMB (16,612,823 samples, 3.69%)</title><rect x="462.6" y="421" width="43.6" height="15.0" fill="rgb(208,18,4)" rx="2" ry="2" />
<text  x="465.60" y="431.5" >VP8D..</text>
</g>
<g >
<title>VE8uv_SSE2 (1,677,280 samples, 0.37%)</title><rect x="456.0" y="421" width="4.4" height="15.0" fill="rgb(227,104,24)" rx="2" ry="2" />
<text  x="458.95" y="431.5" ></text>
</g>
<g >
<title>hrtimer_interrupt (879,286 samples, 0.20%)</title><rect x="198.3" y="373" width="2.3" height="15.0" fill="rgb(228,109,26)" rx="2" ry="2" />
<text  x="201.31" y="383.5" ></text>
</g>
<g >
<title>submit_bio_noacct_nocheck (923,229 samples, 0.21%)</title><rect x="1168.1" y="213" width="2.4" height="15.0" fill="rgb(225,95,22)" rx="2" ry="2" />
<text  x="1171.12" y="223.5" ></text>
</g>
<g >
<title>__folio_alloc (435,232 samples, 0.10%)</title><rect x="30.4" y="325" width="1.2" height="15.0" fill="rgb(224,91,21)" rx="2" ry="2" />
<text  x="33.42" y="335.5" ></text>
</g>
<g >
<title>asm_exc_page_fault (456,990 samples, 0.10%)</title><rect x="1165.7" y="389" width="1.2" height="15.0" fill="rgb(225,93,22)" rx="2" ry="2" />
<text  x="1168.73" y="399.5" ></text>
</g>
<g >
<title>HE4_C (791,428 samples, 0.18%)</title><rect x="43.0" y="437" width="2.0" height="15.0" fill="rgb(220,70,16)" rx="2" ry="2" />
<text  x="45.95" y="447.5" ></text>
</g>
<g >
<title>ShiftBytes (906,343 samples, 0.20%)</title><rect x="1159.1" y="405" width="2.4" height="15.0" fill="rgb(216,52,12)" rx="2" ry="2" />
<text  x="1162.11" y="415.5" ></text>
</g>
<g >
<title>mem_cgroup_css_rstat_flush (1,846,405 samples, 0.41%)</title><rect x="1170.5" y="213" width="4.9" height="15.0" fill="rgb(253,222,53)" rx="2" ry="2" />
<text  x="1173.54" y="223.5" ></text>
</g>
<g >
<title>ext4_buffered_write_iter (1,846,405 samples, 0.41%)</title><rect x="1170.5" y="341" width="4.9" height="15.0" fill="rgb(213,40,9)" rx="2" ry="2" />
<text  x="1173.54" y="351.5" ></text>
</g>
<g >
<title>VP8YuvToRgb32_SSE2 (8,540,801 samples, 1.90%)</title><rect x="200.6" y="437" width="22.4" height="15.0" fill="rgb(241,167,40)" rx="2" ry="2" />
<text  x="203.62" y="447.5" >V..</text>
</g>
<g >
<title>do_syscall_64 (472,216 samples, 0.11%)</title><rect x="1177.7" y="405" width="1.2" height="15.0" fill="rgb(209,20,4)" rx="2" ry="2" />
<text  x="1180.65" y="415.5" ></text>
</g>
<g >
<title>__dma_map_sg_attrs (923,229 samples, 0.21%)</title><rect x="1168.1" y="101" width="2.4" height="15.0" fill="rgb(251,212,50)" rx="2" ry="2" />
<text  x="1171.12" y="111.5" ></text>
</g>
<g >
<title>__hrtimer_run_queues (879,286 samples, 0.20%)</title><rect x="198.3" y="357" width="2.3" height="15.0" fill="rgb(237,150,35)" rx="2" ry="2" />
<text  x="201.31" y="367.5" ></text>
</g>
<g >
<title>TM4_SSE2 (2,642,771 samples, 0.59%)</title><rect x="61.8" y="437" width="6.9" height="15.0" fill="rgb(232,128,30)" rx="2" ry="2" />
<text  x="64.80" y="447.5" ></text>
</g>
<g >
<title>VP8ParseIntraModeRow (6,945,923 samples, 1.54%)</title><rect x="136.6" y="437" width="18.2" height="15.0" fill="rgb(231,121,29)" rx="2" ry="2" />
<text  x="139.61" y="447.5" ></text>
</g>
<g >
<title>handle_mm_fault (435,232 samples, 0.10%)</title><rect x="30.4" y="373" width="1.2" height="15.0" fill="rgb(234,135,32)" rx="2" ry="2" />
<text  x="33.42" y="383.5" ></text>
</g>
<g >
<title>do_user_addr_fault (435,232 samples, 0.10%)</title><rect x="30.4" y="389" width="1.2" height="15.0" fill="rgb(228,108,25)" rx="2" ry="2" />
<text  x="33.42" y="399.5" ></text>
</g>
<g >
<title>ext4_io_submit (923,229 samples, 0.21%)</title><rect x="1168.1" y="229" width="2.4" height="15.0" fill="rgb(214,43,10)" rx="2" ry="2" />
<text  x="1171.12" y="239.5" ></text>
</g>
<g >
<title>HFilter16i_SSE2 (2,613,740 samples, 0.58%)</title><rect x="396.3" y="421" width="6.8" height="15.0" fill="rgb(233,131,31)" rx="2" ry="2" />
<text  x="399.26" y="431.5" ></text>
</g>
<g >
<title>begin_new_exec (115,817 samples, 0.03%)</title><rect x="1177.7" y="325" width="0.3" height="15.0" fill="rgb(245,184,44)" rx="2" ry="2" />
<text  x="1180.65" y="335.5" ></text>
</g>
<g >
<title>asm_sysvec_apic_timer_interrupt (1,798,484 samples, 0.40%)</title><rect x="195.9" y="421" width="4.7" height="15.0" fill="rgb(232,127,30)" rx="2" ry="2" />
<text  x="198.90" y="431.5" ></text>
</g>
<g >
<title>get_page_from_freelist (435,232 samples, 0.10%)</title><rect x="30.4" y="293" width="1.2" height="15.0" fill="rgb(252,218,52)" rx="2" ry="2" />
<text  x="33.42" y="303.5" ></text>
</g>
<g >
<title>__memmove_avx_unaligned (785,479 samples, 0.17%)</title><rect x="1163.7" y="405" width="2.0" height="15.0" fill="rgb(254,228,54)" rx="2" ry="2" />
<text  x="1166.67" y="415.5" ></text>
</g>
<g >
<title>balance_dirty_pages (1,846,405 samples, 0.41%)</title><rect x="1170.5" y="293" width="4.9" height="15.0" fill="rgb(247,193,46)" rx="2" ry="2" />
<text  x="1173.54" y="303.5" ></text>
</g>
<g >
<title>do_syscall_64 (923,229 samples, 0.21%)</title><rect x="1168.1" y="389" width="2.4" height="15.0" fill="rgb(209,20,4)" rx="2" ry="2" />
<text  x="1171.12" y="399.5" ></text>
</g>
<g >
<title>IDecode (838,166 samples, 0.19%)</title><rect x="417.3" y="421" width="2.2" height="15.0" fill="rgb(245,185,44)" rx="2" ry="2" />
<text  x="420.28" y="431.5" ></text>
</g>
<g >
<title>tick_sched_timer (879,286 samples, 0.20%)</title><rect x="198.3" y="341" width="2.3" height="15.0" fill="rgb(254,227,54)" rx="2" ry="2" />
<text  x="201.31" y="351.5" ></text>
</g>
<g >
<title>filemap_fdatawrite_wbc (923,229 samples, 0.21%)</title><rect x="1168.1" y="277" width="2.4" height="15.0" fill="rgb(210,25,6)" rx="2" ry="2" />
<text  x="1171.12" y="287.5" ></text>
</g>
<g >
<title>TM16_SSE2 (817,627 samples, 0.18%)</title><rect x="435.5" y="421" width="2.2" height="15.0" fill="rgb(253,222,53)" rx="2" ry="2" />
<text  x="438.51" y="431.5" ></text>
</g>
<g >
<title>__irq_exit_rcu (919,198 samples, 0.20%)</title><rect x="195.9" y="389" width="2.4" height="15.0" fill="rgb(227,101,24)" rx="2" ry="2" />
<text  x="198.90" y="399.5" ></text>
</g>
<g >
<title>__libc_write (1,846,405 samples, 0.41%)</title><rect x="1170.5" y="421" width="4.9" height="15.0" fill="rgb(238,154,37)" rx="2" ry="2" />
<text  x="1173.54" y="431.5" ></text>
</g>
<g >
<title>[unknown] (353,037,448 samples, 78.50%)</title><rect x="252.5" y="437" width="926.4" height="15.0" fill="rgb(210,24,5)" rx="2" ry="2" />
<text  x="255.54" y="447.5" >[unknown]</text>
</g>
<g >
<title>idle_cpu (919,198 samples, 0.20%)</title><rect x="195.9" y="373" width="2.4" height="15.0" fill="rgb(206,7,1)" rx="2" ry="2" />
<text  x="198.90" y="383.5" ></text>
</g>
<g >
<title>cgroup_rstat_flush_irqsafe (1,846,405 samples, 0.41%)</title><rect x="1170.5" y="245" width="4.9" height="15.0" fill="rgb(227,103,24)" rx="2" ry="2" />
<text  x="1173.54" y="255.5" ></text>
</g>
<g >
<title>__folio_alloc (923,106 samples, 0.21%)</title><rect x="1187.5" y="325" width="2.4" height="15.0" fill="rgb(224,91,21)" rx="2" ry="2" />
<text  x="1190.50" y="335.5" ></text>
</g>
<g >
<title>iommu_v1_map_pages (923,229 samples, 0.21%)</title><rect x="1168.1" y="37" width="2.4" height="15.0" fill="rgb(219,65,15)" rx="2" ry="2" />
<text  x="1171.12" y="47.5" ></text>
</g>
<g >
<title>ReconstructRow (5,467,991 samples, 1.22%)</title><rect x="47.5" y="437" width="14.3" height="15.0" fill="rgb(225,93,22)" rx="2" ry="2" />
<text  x="50.45" y="447.5" ></text>
</g>
<g >
<title>DecodeImageData (25,322,118 samples, 5.63%)</title><rect x="632.7" y="405" width="66.4" height="15.0" fill="rgb(254,229,54)" rx="2" ry="2" />
<text  x="635.67" y="415.5" >DecodeI..</text>
</g>
<g >
<title>irqentry_exit_to_user_mode (456,990 samples, 0.10%)</title><rect x="1165.7" y="373" width="1.2" height="15.0" fill="rgb(254,229,54)" rx="2" ry="2" />
<text  x="1168.73" y="383.5" ></text>
</g>
<g >
<title>VP8ParseIntraModeRow (48,200,475 samples, 10.72%)</title><rect x="506.2" y="421" width="126.5" height="15.0" fill="rgb(231,121,29)" rx="2" ry="2" />
<text  x="509.19" y="431.5" >VP8ParseIntraMo..</text>
</g>
<g >
<title>entry_SYSCALL_64_after_hwframe (1,846,405 samples, 0.41%)</title><rect x="1170.5" y="405" width="4.9" height="15.0" fill="rgb(218,63,15)" rx="2" ry="2" />
<text  x="1173.54" y="415.5" ></text>
</g>
<g >
<title>GetLargeValue (1,661,699 samples, 0.37%)</title><rect x="1154.8" y="405" width="4.3" height="15.0" fill="rgb(243,175,42)" rx="2" ry="2" />
<text  x="1157.75" y="415.5" ></text>
</g>
<g >
<title>YUV444ToRGB_SSE2 (11,247,928 samples, 2.50%)</title><rect x="223.0" y="437" width="29.5" height="15.0" fill="rgb(247,193,46)" rx="2" ry="2" />
<text  x="226.03" y="447.5" >YU..</text>
</g>
<g >
<title>VP8LDoFillBitWindow (830,757 samples, 0.18%)</title><rect x="1161.5" y="405" width="2.2" height="15.0" fill="rgb(219,67,16)" rx="2" ry="2" />
<text  x="1164.49" y="415.5" ></text>
</g>
<g >
<title>cgroup_rstat_flush_locked (1,846,405 samples, 0.41%)</title><rect x="1170.5" y="229" width="4.9" height="15.0" fill="rgb(209,19,4)" rx="2" ry="2" />
<text  x="1173.54" y="239.5" ></text>
</g>
<g >
<title>ExtractGreen_SSE2 (2,998,534 samples, 0.67%)</title><rect x="23.7" y="437" width="7.9" height="15.0" fill="rgb(226,96,23)" rx="2" ry="2" />
<text  x="26.70" y="447.5" ></text>
</g>
<g >
<title>VFilter16_SSE2 (856,792 samples, 0.19%)</title><rect x="460.4" y="421" width="2.2" height="15.0" fill="rgb(221,75,18)" rx="2" ry="2" />
<text  x="463.35" y="431.5" ></text>
</g>
<g >
<title>vma_alloc_folio (923,106 samples, 0.21%)</title><rect x="1187.5" y="341" width="2.4" height="15.0" fill="rgb(245,187,44)" rx="2" ry="2" />
<text  x="1190.50" y="351.5" ></text>
</g>
<g >
<title>balance_dirty_pages_ratelimited_flags (1,846,405 samples, 0.41%)</title><rect x="1170.5" y="309" width="4.9" height="15.0" fill="rgb(207,10,2)" rx="2" ry="2" />
<text  x="1173.54" y="319.5" ></text>
</g>
<g >
<title>UpsampleRgbLinePair_SSE2 (2,698,562 samples, 0.60%)</title><rect x="448.9" y="421" width="7.1" height="15.0" fill="rgb(220,70,16)" rx="2" ry="2" />
<text  x="451.87" y="431.5" ></text>
</g>
<g >
<title>do_user_addr_fault (923,106 samples, 0.21%)</title><rect x="1187.5" y="389" width="2.4" height="15.0" fill="rgb(228,108,25)" rx="2" ry="2" />
<text  x="1190.50" y="399.5" ></text>
</g>
<g >
<title>ReconstructRow (6,108,270 samples, 1.36%)</title><rect x="419.5" y="421" width="16.0" height="15.0" fill="rgb(225,93,22)" rx="2" ry="2" />
<text  x="422.48" y="431.5" ></text>
</g>
<g >
<title>blk_mq_flush_plug_list (923,229 samples, 0.21%)</title><rect x="1168.1" y="165" width="2.4" height="15.0" fill="rgb(215,46,11)" rx="2" ry="2" />
<text  x="1171.12" y="175.5" ></text>
</g>
<g >
<title>__close_nocancel (923,229 samples, 0.21%)</title><rect x="1168.1" y="421" width="2.4" height="15.0" fill="rgb(228,109,26)" rx="2" ry="2" />
<text  x="1171.12" y="431.5" ></text>
</g>
<g >
<title>__memmove_avx_unaligned_erms (4,203,171 samples, 0.93%)</title><rect x="1178.9" y="437" width="11.0" height="15.0" fill="rgb(205,0,0)" rx="2" ry="2" />
<text  x="1181.89" y="447.5" ></text>
</g>
<g >
<title>mem_cgroup_wb_stats (1,846,405 samples, 0.41%)</title><rect x="1170.5" y="277" width="4.9" height="15.0" fill="rgb(211,28,6)" rx="2" ry="2" />
<text  x="1173.54" y="287.5" ></text>
</g>
<g >
<title>load_elf_binary (472,216 samples, 0.11%)</title><rect x="1177.7" y="341" width="1.2" height="15.0" fill="rgb(223,83,20)" rx="2" ry="2" />
<text  x="1180.65" y="351.5" ></text>
</g>
<g >
<title>exc_page_fault (923,106 samples, 0.21%)</title><rect x="1187.5" y="405" width="2.4" height="15.0" fill="rgb(212,35,8)" rx="2" ry="2" />
<text  x="1190.50" y="415.5" ></text>
</g>
<g >
<title>__alloc_pages (435,232 samples, 0.10%)</title><rect x="30.4" y="309" width="1.2" height="15.0" fill="rgb(233,129,30)" rx="2" ry="2" />
<text  x="33.42" y="319.5" ></text>
</g>
<g >
<title>_IO_file_doallocate (454,090 samples, 0.10%)</title><rect x="1166.9" y="421" width="1.2" height="15.0" fill="rgb(233,130,31)" rx="2" ry="2" />
<text  x="1169.93" y="431.5" ></text>
</g>
<g >
<title>__iommu_map_sg (923,229 samples, 0.21%)</title><rect x="1168.1" y="69" width="2.4" height="15.0" fill="rgb(236,146,35)" rx="2" ry="2" />
<text  x="1171.12" y="79.5" ></text>
</g>
<g >
<title>__x64_sys_execve (472,216 samples, 0.11%)</title><rect x="1177.7" y="389" width="1.2" height="15.0" fill="rgb(247,193,46)" rx="2" ry="2" />
<text  x="1180.65" y="399.5" ></text>
</g>
<g >
<title>UpsampleRgbLinePair_SSE2 (4,168,509 samples, 0.93%)</title><rect x="95.8" y="437" width="10.9" height="15.0" fill="rgb(220,70,16)" rx="2" ry="2" />
<text  x="98.79" y="447.5" ></text>
</g>
<g >
<title>get_page_from_freelist (923,106 samples, 0.21%)</title><rect x="1187.5" y="293" width="2.4" height="15.0" fill="rgb(252,218,52)" rx="2" ry="2" />
<text  x="1190.50" y="303.5" ></text>
</g>
<g >
<title>[unknown] (203,610,741 samples, 45.28%)</title><rect x="632.7" y="421" width="534.2" height="15.0" fill="rgb(210,24,5)" rx="2" ry="2" />
<text  x="635.67" y="431.5" >[unknown]</text>
</g>
<g >
<title>ksys_write (1,846,405 samples, 0.41%)</title><rect x="1170.5" y="373" width="4.9" height="15.0" fill="rgb(205,4,1)" rx="2" ry="2" />
<text  x="1173.54" y="383.5" ></text>
</g>
<g >
<title>do_syscall_64 (1,846,405 samples, 0.41%)</title><rect x="1170.5" y="389" width="4.9" height="15.0" fill="rgb(209,20,4)" rx="2" ry="2" />
<text  x="1173.54" y="399.5" ></text>
</g>
<g >
<title>__mem_cgroup_flush_stats (1,846,405 samples, 0.41%)</title><rect x="1170.5" y="261" width="4.9" height="15.0" fill="rgb(208,16,3)" rx="2" ry="2" />
<text  x="1173.54" y="271.5" ></text>
</g>
<g >
<title>update_process_times (879,286 samples, 0.20%)</title><rect x="198.3" y="309" width="2.3" height="15.0" fill="rgb(250,209,50)" rx="2" ry="2" />
<text  x="201.31" y="319.5" ></text>
</g>
<g >
<title>DC4_C (2,597,568 samples, 0.58%)</title><rect x="16.9" y="437" width="6.8" height="15.0" fill="rgb(209,18,4)" rx="2" ry="2" />
<text  x="19.88" y="447.5" ></text>
</g>
<g >
<title>Transform_SSE2 (2,537,368 samples, 0.56%)</title><rect x="442.2" y="421" width="6.7" height="15.0" fill="rgb(233,129,30)" rx="2" ry="2" />
<text  x="445.21" y="431.5" ></text>
</g>
<g >
<title>tick_sched_handle (879,286 samples, 0.20%)</title><rect x="198.3" y="325" width="2.3" height="15.0" fill="rgb(219,68,16)" rx="2" ry="2" />
<text  x="201.31" y="335.5" ></text>
</g>
<g >
<title>__memmove_avx_unaligned_erms (456,990 samples, 0.10%)</title><rect x="1165.7" y="405" width="1.2" height="15.0" fill="rgb(205,0,0)" rx="2" ry="2" />
<text  x="1168.73" y="415.5" ></text>
</g>
<g >
<title>handle_mm_fault (923,106 samples, 0.21%)</title><rect x="1187.5" y="373" width="2.4" height="15.0" fill="rgb(234,135,32)" rx="2" ry="2" />
<text  x="1190.50" y="383.5" ></text>
</g>
<g >
<title>__alloc_pages (923,106 samples, 0.21%)</title><rect x="1187.5" y="309" width="2.4" height="15.0" fill="rgb(233,129,30)" rx="2" ry="2" />
<text  x="1190.50" y="319.5" ></text>
</g>
<g >
<title>__handle_mm_fault (923,106 samples, 0.21%)</title><rect x="1187.5" y="357" width="2.4" height="15.0" fill="rgb(207,9,2)" rx="2" ry="2" />
<text  x="1190.50" y="367.5" ></text>
</g>
<g >
<title>VP8DecodeMB (6,880,472 samples, 1.53%)</title><rect x="118.6" y="437" width="18.0" height="15.0" fill="rgb(208,18,4)" rx="2" ry="2" />
<text  x="121.55" y="447.5" ></text>
</g>
<g >
<title>Transform_SSE2 (6,173,149 samples, 1.37%)</title><rect x="73.1" y="437" width="16.2" height="15.0" fill="rgb(233,129,30)" rx="2" ry="2" />
<text  x="76.07" y="447.5" ></text>
</g>
<g >
<title>DC8uv_SSE2 (1,848,412 samples, 0.41%)</title><rect x="252.5" y="421" width="4.9" height="15.0" fill="rgb(206,8,2)" rx="2" ry="2" />
<text  x="255.54" y="431.5" ></text>
</g>
<g >
<title>iommu_dma_map_sg (923,229 samples, 0.21%)</title><rect x="1168.1" y="85" width="2.4" height="15.0" fill="rgb(223,86,20)" rx="2" ry="2" />
<text  x="1171.12" y="95.5" ></text>
</g>
<g >
<title>VP8ParseProba (1,685,786 samples, 0.37%)</title><rect x="154.8" y="437" width="4.5" height="15.0" fill="rgb(224,88,21)" rx="2" ry="2" />
<text  x="157.83" y="447.5" ></text>
</g>
<g >
<title>blk_add_rq_to_plug (923,229 samples, 0.21%)</title><rect x="1168.1" y="181" width="2.4" height="15.0" fill="rgb(243,175,41)" rx="2" ry="2" />
<text  x="1171.12" y="191.5" ></text>
</g>
<g >
<title>nvme_prep_rq.part.0 (923,229 samples, 0.21%)</title><rect x="1168.1" y="133" width="2.4" height="15.0" fill="rgb(214,42,10)" rx="2" ry="2" />
<text  x="1171.12" y="143.5" ></text>
</g>
<g >
<title>DoFilter6_SSE2 (5,205,035 samples, 1.16%)</title><rect x="257.4" y="421" width="13.7" height="15.0" fill="rgb(237,148,35)" rx="2" ry="2" />
<text  x="260.39" y="431.5" ></text>
</g>
<g >
<title>nvme_queue_rqs (923,229 samples, 0.21%)</title><rect x="1168.1" y="149" width="2.4" height="15.0" fill="rgb(250,211,50)" rx="2" ry="2" />
<text  x="1171.12" y="159.5" ></text>
</g>
<g >
<title>HFilter16_SSE2 (3,338,881 samples, 0.74%)</title><rect x="387.5" y="421" width="8.8" height="15.0" fill="rgb(211,31,7)" rx="2" ry="2" />
<text  x="390.50" y="431.5" ></text>
</g>
<g >
<title>decode_webp_nat (449,675,437 samples, 99.99%)</title><rect x="10.0" y="453" width="1179.9" height="15.0" fill="rgb(218,61,14)" rx="2" ry="2" />
<text  x="13.00" y="463.5" >decode_webp_nat</text>
</g>
<g >
<title>ext4_release_file (923,229 samples, 0.21%)</title><rect x="1168.1" y="309" width="2.4" height="15.0" fill="rgb(225,92,22)" rx="2" ry="2" />
<text  x="1171.12" y="319.5" ></text>
</g>
<g >
<title>__filemap_fdatawrite_range (923,229 samples, 0.21%)</title><rect x="1168.1" y="293" width="2.4" height="15.0" fill="rgb(233,129,30)" rx="2" ry="2" />
<text  x="1171.12" y="303.5" ></text>
</g>
<g >
<title>all (449,705,316 samples, 100%)</title><rect x="10.0" y="469" width="1180.0" height="15.0" fill="rgb(213,39,9)" rx="2" ry="2" />
<text  x="13.00" y="479.5" ></text>
</g>
<g >
<title>__iommu_map (923,229 samples, 0.21%)</title><rect x="1168.1" y="53" width="2.4" height="15.0" fill="rgb(208,17,4)" rx="2" ry="2" />
<text  x="1171.12" y="63.5" ></text>
</g>
<g >
<title>TransformDC_C (852,044 samples, 0.19%)</title><rect x="70.8" y="437" width="2.3" height="15.0" fill="rgb(219,65,15)" rx="2" ry="2" />
<text  x="73.83" y="447.5" ></text>
</g>
<g >
<title>exc_page_fault (435,232 samples, 0.10%)</title><rect x="30.4" y="405" width="1.2" height="15.0" fill="rgb(212,35,8)" rx="2" ry="2" />
<text  x="33.42" y="415.5" ></text>
</g>
<g >
<title>__list_del_entry_valid (435,232 samples, 0.10%)</title><rect x="30.4" y="277" width="1.2" height="15.0" fill="rgb(239,158,37)" rx="2" ry="2" />
<text  x="33.42" y="287.5" ></text>
</g>
<g >
<title>asm_exc_page_fault (435,232 samples, 0.10%)</title><rect x="30.4" y="421" width="1.2" height="15.0" fill="rgb(225,93,22)" rx="2" ry="2" />
<text  x="33.42" y="431.5" ></text>
</g>
<g >
<title>__handle_mm_fault (435,232 samples, 0.10%)</title><rect x="30.4" y="357" width="1.2" height="15.0" fill="rgb(207,9,2)" rx="2" ry="2" />
<text  x="33.42" y="367.5" ></text>
</g>
<g >
<title>entry_SYSCALL_64_after_hwframe (472,216 samples, 0.11%)</title><rect x="1177.7" y="421" width="1.2" height="15.0" fill="rgb(218,63,15)" rx="2" ry="2" />
<text  x="1180.65" y="431.5" ></text>
</g>
<g >
<title>dma_map_sgtable (923,229 samples, 0.21%)</title><rect x="1168.1" y="117" width="2.4" height="15.0" fill="rgb(237,150,36)" rx="2" ry="2" />
<text  x="1171.12" y="127.5" ></text>
</g>
<g >
<title>flush_signal_handlers (115,817 samples, 0.03%)</title><rect x="1177.7" y="309" width="0.3" height="15.0" fill="rgb(253,221,53)" rx="2" ry="2" />
<text  x="1180.65" y="319.5" ></text>
</g>
<g >
<title>exit_to_user_mode_prepare (923,229 samples, 0.21%)</title><rect x="1168.1" y="357" width="2.4" height="15.0" fill="rgb(228,108,25)" rx="2" ry="2" />
<text  x="1171.12" y="367.5" ></text>
</g>
<g >
<title>TransformDC_C (1,738,551 samples, 0.39%)</title><rect x="437.7" y="421" width="4.5" height="15.0" fill="rgb(219,65,15)" rx="2" ry="2" />
<text  x="440.65" y="431.5" ></text>
</g>
<g >
<title>vma_alloc_folio (435,232 samples, 0.10%)</title><rect x="30.4" y="341" width="1.2" height="15.0" fill="rgb(245,187,44)" rx="2" ry="2" />
<text  x="33.42" y="351.5" ></text>
</g>
<g >
<title>task_work_run (923,229 samples, 0.21%)</title><rect x="1168.1" y="341" width="2.4" height="15.0" fill="rgb(209,22,5)" rx="2" ry="2" />
<text  x="1171.12" y="351.5" ></text>
</g>
<g >
<title>BuildHuffmanTable (2,622,702 samples, 0.58%)</title><rect x="10.0" y="437" width="6.9" height="15.0" fill="rgb(226,101,24)" rx="2" ry="2" />
<text  x="13.00" y="447.5" ></text>
</g>
<g >
<title>VFilter16i_SSE2 (4,504,560 samples, 1.00%)</title><rect x="106.7" y="437" width="11.9" height="15.0" fill="rgb(243,175,42)" rx="2" ry="2" />
<text  x="109.73" y="447.5" ></text>
</g>
<g >
<title>GetCoeffsFast (4,340,295 samples, 0.97%)</title><rect x="31.6" y="437" width="11.4" height="15.0" fill="rgb(219,64,15)" rx="2" ry="2" />
<text  x="34.57" y="447.5" ></text>
</g>
<g >
<title>generic_perform_write (1,846,405 samples, 0.41%)</title><rect x="1170.5" y="325" width="4.9" height="15.0" fill="rgb(236,146,35)" rx="2" ry="2" />
<text  x="1173.54" y="335.5" ></text>
</g>
<g >
<title>asm_exc_page_fault (923,106 samples, 0.21%)</title><rect x="1187.5" y="421" width="2.4" height="15.0" fill="rgb(225,93,22)" rx="2" ry="2" />
<text  x="1190.50" y="431.5" ></text>
</g>
<g >
<title>__fput (923,229 samples, 0.21%)</title><rect x="1168.1" y="325" width="2.4" height="15.0" fill="rgb(248,200,47)" rx="2" ry="2" />
<text  x="1171.12" y="335.5" ></text>
</g>
<g >
<title>GetCoeffsFast (2,562,701 samples, 0.57%)</title><rect x="271.1" y="421" width="6.7" height="15.0" fill="rgb(219,64,15)" rx="2" ry="2" />
<text  x="274.05" y="431.5" ></text>
</g>
<g >
<title>RD4_SSE2 (922,861 samples, 0.21%)</title><rect x="45.0" y="437" width="2.5" height="15.0" fill="rgb(253,224,53)" rx="2" ry="2" />
<text  x="48.03" y="447.5" ></text>
</g>
<g >
<title>blk_mq_submit_bio (923,229 samples, 0.21%)</title><rect x="1168.1" y="197" width="2.4" height="15.0" fill="rgb(224,89,21)" rx="2" ry="2" />
<text  x="1171.12" y="207.5" ></text>
</g>
<g >
<title>get_unmapped_area (356,399 samples, 0.08%)</title><rect x="1178.0" y="309" width="0.9" height="15.0" fill="rgb(234,134,32)" rx="2" ry="2" />
<text  x="1180.96" y="319.5" ></text>
</g>
<g >
<title>__memmove_avx_unaligned (863,365 samples, 0.19%)</title><rect x="1175.4" y="421" width="2.3" height="15.0" fill="rgb(254,228,54)" rx="2" ry="2" />
<text  x="1178.39" y="431.5" ></text>
</g>
<g >
<title>sysvec_apic_timer_interrupt (1,798,484 samples, 0.40%)</title><rect x="195.9" y="405" width="4.7" height="15.0" fill="rgb(220,69,16)" rx="2" ry="2" />
<text  x="198.90" y="415.5" ></text>
</g>
<g >
<title>do_execveat_common.isra.0 (472,216 samples, 0.11%)</title><rect x="1177.7" y="373" width="1.2" height="15.0" fill="rgb(231,123,29)" rx="2" ry="2" />
<text  x="1180.65" y="383.5" ></text>
</g>
<g >
<title>syscall_exit_to_user_mode (923,229 samples, 0.21%)</title><rect x="1168.1" y="373" width="2.4" height="15.0" fill="rgb(251,211,50)" rx="2" ry="2" />
<text  x="1171.12" y="383.5" ></text>
</g>
<g >
<title>VP8PlanarTo24b_SSE2 (15,763,892 samples, 3.51%)</title><rect x="159.3" y="437" width="41.3" height="15.0" fill="rgb(208,15,3)" rx="2" ry="2" />
<text  x="162.26" y="447.5" >VP8..</text>
</g>
<g >
<title>do_writepages (923,229 samples, 0.21%)</title><rect x="1168.1" y="261" width="2.4" height="15.0" fill="rgb(240,164,39)" rx="2" ry="2" />
<text  x="1171.12" y="271.5" ></text>
</g>
<g >
<title>HFilter8i_SSE2 (4,524,284 samples, 1.01%)</title><rect x="405.4" y="421" width="11.9" height="15.0" fill="rgb(237,148,35)" rx="2" ry="2" />
<text  x="408.41" y="431.5" ></text>
</g>
<g >
<title>__sysvec_apic_timer_interrupt (879,286 samples, 0.20%)</title><rect x="198.3" y="389" width="2.3" height="15.0" fill="rgb(242,173,41)" rx="2" ry="2" />
<text  x="201.31" y="399.5" ></text>
</g>
<g >
<title>bprm_execve (472,216 samples, 0.11%)</title><rect x="1177.7" y="357" width="1.2" height="15.0" fill="rgb(218,61,14)" rx="2" ry="2" />
<text  x="1180.65" y="367.5" ></text>
</g>
<g >
<title>GetCoeffsFast (173,647,355 samples, 38.61%)</title><rect x="699.1" y="405" width="455.7" height="15.0" fill="rgb(219,64,15)" rx="2" ry="2" />
<text  x="702.11" y="415.5" >GetCoeffsFast</text>
</g>
</g>
</svg>
