<?xml version="1.0" standalone="no"?>
<!DOCTYPE svg PUBLIC "-//W3C//DTD SVG 1.1//EN" "http://www.w3.org/Graphics/SVG/1.1/DTD/svg11.dtd">
<svg version="1.1" width="1200" height="2134" onload="init(evt)" viewBox="0 0 1200 2134" xmlns="http://www.w3.org/2000/svg" xmlns:xlink="http://www.w3.org/1999/xlink">
<!-- Flame graph stack visualization. See https://github.com/brendangregg/FlameGraph for latest version, and http://www.brendangregg.com/flamegraphs.html for examples. -->
<!-- NOTES:  -->
<defs>
	<linearGradient id="background" y1="0" y2="1" x1="0" x2="0" >
		<stop stop-color="#eeeeee" offset="5%" />
		<stop stop-color="#eeeeb0" offset="95%" />
	</linearGradient>
</defs>
<style type="text/css">
	text { font-family:Verdana; font-size:12px; fill:rgb(0,0,0); }
	#search, #ignorecase { opacity:0.1; cursor:pointer; }
	#search:hover, #search.show, #ignorecase:hover, #ignorecase.show { opacity:1; }
	#subtitle { text-anchor:middle; font-color:rgb(160,160,160); }
	#title { text-anchor:middle; font-size:17px}
	#unzoom { cursor:pointer; }
	#frames > *:hover { stroke:black; stroke-width:0.5; cursor:pointer; }
	.hide { display:none; }
	.parent { opacity:0.5; }
</style>
<script type="text/ecmascript">
<![CDATA[
	"use strict";
	var details, searchbtn, unzoombtn, matchedtxt, svg, searching, currentSearchTerm, ignorecase, ignorecaseBtn;
	function init(evt) {
		details = document.getElementById("details").firstChild;
		searchbtn = document.getElementById("search");
		ignorecaseBtn = document.getElementById("ignorecase");
		unzoombtn = document.getElementById("unzoom");
		matchedtxt = document.getElementById("matched");
		svg = document.getElementsByTagName("svg")[0];
		searching = 0;
		currentSearchTerm = null;

		// use GET parameters to restore a flamegraphs state.
		var params = get_params();
		if (params.x && params.y)
			zoom(find_group(document.querySelector('[x="' + params.x + '"][y="' + params.y + '"]')));
                if (params.s) search(params.s);
	}

	// event listeners
	window.addEventListener("click", function(e) {
		var target = find_group(e.target);
		if (target) {
			if (target.nodeName == "a") {
				if (e.ctrlKey === false) return;
				e.preventDefault();
			}
			if (target.classList.contains("parent")) unzoom(true);
			zoom(target);
			if (!document.querySelector('.parent')) {
				// we have basically done a clearzoom so clear the url
				var params = get_params();
				if (params.x) delete params.x;
				if (params.y) delete params.y;
				history.replaceState(null, null, parse_params(params));
				unzoombtn.classList.add("hide");
				return;
			}

			// set parameters for zoom state
			var el = target.querySelector("rect");
			if (el && el.attributes && el.attributes.y && el.attributes._orig_x) {
				var params = get_params()
				params.x = el.attributes._orig_x.value;
				params.y = el.attributes.y.value;
				history.replaceState(null, null, parse_params(params));
			}
		}
		else if (e.target.id == "unzoom") clearzoom();
		else if (e.target.id == "search") search_prompt();
		else if (e.target.id == "ignorecase") toggle_ignorecase();
	}, false)

	// mouse-over for info
	// show
	window.addEventListener("mouseover", function(e) {
		var target = find_group(e.target);
		if (target) details.nodeValue = "Function: " + g_to_text(target);
	}, false)

	// clear
	window.addEventListener("mouseout", function(e) {
		var target = find_group(e.target);
		if (target) details.nodeValue = ' ';
	}, false)

	// ctrl-F for search
	// ctrl-I to toggle case-sensitive search
	window.addEventListener("keydown",function (e) {
		if (e.keyCode === 114 || (e.ctrlKey && e.keyCode === 70)) {
			e.preventDefault();
			search_prompt();
		}
		else if (e.ctrlKey && e.keyCode === 73) {
			e.preventDefault();
			toggle_ignorecase();
		}
	}, false)

	// functions
	function get_params() {
		var params = {};
		var paramsarr = window.location.search.substr(1).split('&');
		for (var i = 0; i < paramsarr.length; ++i) {
			var tmp = paramsarr[i].split("=");
			if (!tmp[0] || !tmp[1]) continue;
			params[tmp[0]]  = decodeURIComponent(tmp[1]);
		}
		return params;
	}
	function parse_params(params) {
		var uri = "?";
		for (var key in params) {
			uri += key + '=' + encodeURIComponent(params[key]) + '&';
		}
		if (uri.slice(-1) == "&")
			uri = uri.substring(0, uri.length - 1);
		if (uri == '?')
			uri = window.location.href.split('?')[0];
		return uri;
	}
	function find_child(node, selector) {
		var children = node.querySelectorAll(selector);
		if (children.length) return children[0];
	}
	function find_group(node) {
		var parent = node.parentElement;
		if (!parent) return;
		if (parent.id == "frames") return node;
		return find_group(parent);
	}
	function orig_save(e, attr, val) {
		if (e.attributes["_orig_" + attr] != undefined) return;
		if (e.attributes[attr] == undefined) return;
		if (val == undefined) val = e.attributes[attr].value;
		e.setAttribute("_orig_" + attr, val);
	}
	function orig_load(e, attr) {
		if (e.attributes["_orig_"+attr] == undefined) return;
		e.attributes[attr].value = e.attributes["_orig_" + attr].value;
		e.removeAttribute("_orig_"+attr);
	}
	function g_to_text(e) {
		var text = find_child(e, "title").firstChild.nodeValue;
		return (text)
	}
	function g_to_func(e) {
		var func = g_to_text(e);
		// if there's any manipulation we want to do to the function
		// name before it's searched, do it here before returning.
		return (func);
	}
	function update_text(e) {
		var r = find_child(e, "rect");
		var t = find_child(e, "text");
		var w = parseFloat(r.attributes.width.value) -3;
		var txt = find_child(e, "title").textContent.replace(/\([^(]*\)$/,"");
		t.attributes.x.value = parseFloat(r.attributes.x.value) + 3;

		// Smaller than this size won't fit anything
		if (w < 2 * 12 * 0.59) {
			t.textContent = "";
			return;
		}

		t.textContent = txt;
		var sl = t.getSubStringLength(0, txt.length);
		// check if only whitespace or if we can fit the entire string into width w
		if (/^ *$/.test(txt) || sl < w)
			return;

		// this isn't perfect, but gives a good starting point
		// and avoids calling getSubStringLength too often
		var start = Math.floor((w/sl) * txt.length);
		for (var x = start; x > 0; x = x-2) {
			if (t.getSubStringLength(0, x + 2) <= w) {
				t.textContent = txt.substring(0, x) + "..";
				return;
			}
		}
		t.textContent = "";
	}

	// zoom
	function zoom_reset(e) {
		if (e.attributes != undefined) {
			orig_load(e, "x");
			orig_load(e, "width");
		}
		if (e.childNodes == undefined) return;
		for (var i = 0, c = e.childNodes; i < c.length; i++) {
			zoom_reset(c[i]);
		}
	}
	function zoom_child(e, x, ratio) {
		if (e.attributes != undefined) {
			if (e.attributes.x != undefined) {
				orig_save(e, "x");
				e.attributes.x.value = (parseFloat(e.attributes.x.value) - x - 10) * ratio + 10;
				if (e.tagName == "text")
					e.attributes.x.value = find_child(e.parentNode, "rect[x]").attributes.x.value + 3;
			}
			if (e.attributes.width != undefined) {
				orig_save(e, "width");
				e.attributes.width.value = parseFloat(e.attributes.width.value) * ratio;
			}
		}

		if (e.childNodes == undefined) return;
		for (var i = 0, c = e.childNodes; i < c.length; i++) {
			zoom_child(c[i], x - 10, ratio);
		}
	}
	function zoom_parent(e) {
		if (e.attributes) {
			if (e.attributes.x != undefined) {
				orig_save(e, "x");
				e.attributes.x.value = 10;
			}
			if (e.attributes.width != undefined) {
				orig_save(e, "width");
				e.attributes.width.value = parseInt(svg.width.baseVal.value) - (10 * 2);
			}
		}
		if (e.childNodes == undefined) return;
		for (var i = 0, c = e.childNodes; i < c.length; i++) {
			zoom_parent(c[i]);
		}
	}
	function zoom(node) {
		var attr = find_child(node, "rect").attributes;
		var width = parseFloat(attr.width.value);
		var xmin = parseFloat(attr.x.value);
		var xmax = parseFloat(xmin + width);
		var ymin = parseFloat(attr.y.value);
		var ratio = (svg.width.baseVal.value - 2 * 10) / width;

		// XXX: Workaround for JavaScript float issues (fix me)
		var fudge = 0.0001;

		unzoombtn.classList.remove("hide");

		var el = document.getElementById("frames").children;
		for (var i = 0; i < el.length; i++) {
			var e = el[i];
			var a = find_child(e, "rect").attributes;
			var ex = parseFloat(a.x.value);
			var ew = parseFloat(a.width.value);
			var upstack;
			// Is it an ancestor
			if (0 == 0) {
				upstack = parseFloat(a.y.value) > ymin;
			} else {
				upstack = parseFloat(a.y.value) < ymin;
			}
			if (upstack) {
				// Direct ancestor
				if (ex <= xmin && (ex+ew+fudge) >= xmax) {
					e.classList.add("parent");
					zoom_parent(e);
					update_text(e);
				}
				// not in current path
				else
					e.classList.add("hide");
			}
			// Children maybe
			else {
				// no common path
				if (ex < xmin || ex + fudge >= xmax) {
					e.classList.add("hide");
				}
				else {
					zoom_child(e, xmin, ratio);
					update_text(e);
				}
			}
		}
		search();
	}
	function unzoom(dont_update_text) {
		unzoombtn.classList.add("hide");
		var el = document.getElementById("frames").children;
		for(var i = 0; i < el.length; i++) {
			el[i].classList.remove("parent");
			el[i].classList.remove("hide");
			zoom_reset(el[i]);
			if(!dont_update_text) update_text(el[i]);
		}
		search();
	}
	function clearzoom() {
		unzoom();

		// remove zoom state
		var params = get_params();
		if (params.x) delete params.x;
		if (params.y) delete params.y;
		history.replaceState(null, null, parse_params(params));
	}

	// search
	function toggle_ignorecase() {
		ignorecase = !ignorecase;
		if (ignorecase) {
			ignorecaseBtn.classList.add("show");
		} else {
			ignorecaseBtn.classList.remove("show");
		}
		reset_search();
		search();
	}
	function reset_search() {
		var el = document.querySelectorAll("#frames rect");
		for (var i = 0; i < el.length; i++) {
			orig_load(el[i], "fill")
		}
		var params = get_params();
		delete params.s;
		history.replaceState(null, null, parse_params(params));
	}
	function search_prompt() {
		if (!searching) {
			var term = prompt("Enter a search term (regexp " +
			    "allowed, eg: ^ext4_)"
			    + (ignorecase ? ", ignoring case" : "")
			    + "\nPress Ctrl-i to toggle case sensitivity", "");
			if (term != null) search(term);
		} else {
			reset_search();
			searching = 0;
			currentSearchTerm = null;
			searchbtn.classList.remove("show");
			searchbtn.firstChild.nodeValue = "Search"
			matchedtxt.classList.add("hide");
			matchedtxt.firstChild.nodeValue = ""
		}
	}
	function search(term) {
		if (term) currentSearchTerm = term;

		var re = new RegExp(currentSearchTerm, ignorecase ? 'i' : '');
		var el = document.getElementById("frames").children;
		var matches = new Object();
		var maxwidth = 0;
		for (var i = 0; i < el.length; i++) {
			var e = el[i];
			var func = g_to_func(e);
			var rect = find_child(e, "rect");
			if (func == null || rect == null)
				continue;

			// Save max width. Only works as we have a root frame
			var w = parseFloat(rect.attributes.width.value);
			if (w > maxwidth)
				maxwidth = w;

			if (func.match(re)) {
				// highlight
				var x = parseFloat(rect.attributes.x.value);
				orig_save(rect, "fill");
				rect.attributes.fill.value = "rgb(230,0,230)";

				// remember matches
				if (matches[x] == undefined) {
					matches[x] = w;
				} else {
					if (w > matches[x]) {
						// overwrite with parent
						matches[x] = w;
					}
				}
				searching = 1;
			}
		}
		if (!searching)
			return;
		var params = get_params();
		params.s = currentSearchTerm;
		history.replaceState(null, null, parse_params(params));

		searchbtn.classList.add("show");
		searchbtn.firstChild.nodeValue = "Reset Search";

		// calculate percent matched, excluding vertical overlap
		var count = 0;
		var lastx = -1;
		var lastw = 0;
		var keys = Array();
		for (k in matches) {
			if (matches.hasOwnProperty(k))
				keys.push(k);
		}
		// sort the matched frames by their x location
		// ascending, then width descending
		keys.sort(function(a, b){
			return a - b;
		});
		// Step through frames saving only the biggest bottom-up frames
		// thanks to the sort order. This relies on the tree property
		// where children are always smaller than their parents.
		var fudge = 0.0001;	// JavaScript floating point
		for (var k in keys) {
			var x = parseFloat(keys[k]);
			var w = matches[keys[k]];
			if (x >= lastx + lastw - fudge) {
				count += w;
				lastx = x;
				lastw = w;
			}
		}
		// display matched percent
		matchedtxt.classList.remove("hide");
		var pct = 100 * count / maxwidth;
		if (pct != 100) pct = pct.toFixed(1)
		matchedtxt.firstChild.nodeValue = "Matched: " + pct + "%";
	}
]]>
</script>
<rect x="0.0" y="0" width="1200.0" height="2134.0" fill="url(#background)"  />
<text id="title" x="600.00" y="24" >Flame Graph</text>
<text id="details" x="10.00" y="2117" > </text>
<text id="unzoom" x="10.00" y="24" class="hide">Reset Zoom</text>
<text id="search" x="1090.00" y="24" >Search</text>
<text id="ignorecase" x="1174.00" y="24" >ic</text>
<text id="matched" x="1090.00" y="2117" > </text>
<g id="frames">
<g >
<title>[unknown] (458,214 samples, 0.03%)</title><rect x="10.0" y="757" width="0.4" height="15.0" fill="rgb(210,24,5)" rx="2" ry="2" />
<text  x="13.00" y="767.5" ></text>
</g>
<g >
<title>[unknown] (458,214 samples, 0.03%)</title><rect x="10.0" y="1285" width="0.4" height="15.0" fill="rgb(210,24,5)" rx="2" ry="2" />
<text  x="13.00" y="1295.5" ></text>
</g>
<g >
<title>[unknown] (458,214 samples, 0.03%)</title><rect x="10.0" y="1413" width="0.4" height="15.0" fill="rgb(210,24,5)" rx="2" ry="2" />
<text  x="13.00" y="1423.5" ></text>
</g>
<g >
<title>[unknown] (458,214 samples, 0.03%)</title><rect x="10.0" y="981" width="0.4" height="15.0" fill="rgb(210,24,5)" rx="2" ry="2" />
<text  x="13.00" y="991.5" ></text>
</g>
<g >
<title>[unknown] (458,214 samples, 0.03%)</title><rect x="10.0" y="821" width="0.4" height="15.0" fill="rgb(210,24,5)" rx="2" ry="2" />
<text  x="13.00" y="831.5" ></text>
</g>
<g >
<title>w2c_decode__webp__wasmsimd_EmitFancyRGB (924,165 samples, 0.06%)</title><rect x="123.7" y="2053" width="0.8" height="15.0" fill="rgb(252,218,52)" rx="2" ry="2" />
<text  x="126.75" y="2063.5" ></text>
</g>
<g >
<title>all (1,479,460,994 samples, 100%)</title><rect x="10.0" y="2085" width="1180.0" height="15.0" fill="rgb(213,39,9)" rx="2" ry="2" />
<text  x="13.00" y="2095.5" ></text>
</g>
<g >
<title>load_elf_binary (479,640 samples, 0.03%)</title><rect x="10.4" y="1957" width="0.3" height="15.0" fill="rgb(223,83,20)" rx="2" ry="2" />
<text  x="13.37" y="1967.5" ></text>
</g>
<g >
<title>[unknown] (458,214 samples, 0.03%)</title><rect x="10.0" y="1461" width="0.4" height="15.0" fill="rgb(210,24,5)" rx="2" ry="2" />
<text  x="13.00" y="1471.5" ></text>
</g>
<g >
<title>w2c_decode__webp__wasmsimd_HE16_C (923,671 samples, 0.06%)</title><rect x="41.0" y="2037" width="0.7" height="15.0" fill="rgb(232,126,30)" rx="2" ry="2" />
<text  x="43.95" y="2047.5" ></text>
</g>
<g >
<title>[unknown] (458,214 samples, 0.03%)</title><rect x="10.0" y="1397" width="0.4" height="15.0" fill="rgb(210,24,5)" rx="2" ry="2" />
<text  x="13.00" y="1407.5" ></text>
</g>
<g >
<title>[unknown] (458,214 samples, 0.03%)</title><rect x="10.0" y="1605" width="0.4" height="15.0" fill="rgb(210,24,5)" rx="2" ry="2" />
<text  x="13.00" y="1615.5" ></text>
</g>
<g >
<title>w2c_decode__webp__wasmsimd_FinishRow (924,333 samples, 0.06%)</title><rect x="124.5" y="2053" width="0.7" height="15.0" fill="rgb(205,3,0)" rx="2" ry="2" />
<text  x="127.49" y="2063.5" ></text>
</g>
<g >
<title>asm_exc_page_fault (837,246 samples, 0.06%)</title><rect x="1185.6" y="2037" width="0.7" height="15.0" fill="rgb(225,93,22)" rx="2" ry="2" />
<text  x="1188.62" y="2047.5" ></text>
</g>
<g >
<title>[unknown] (458,214 samples, 0.03%)</title><rect x="10.0" y="773" width="0.4" height="15.0" fill="rgb(210,24,5)" rx="2" ry="2" />
<text  x="13.00" y="783.5" ></text>
</g>
<g >
<title>[unknown] (458,214 samples, 0.03%)</title><rect x="10.0" y="1141" width="0.4" height="15.0" fill="rgb(210,24,5)" rx="2" ry="2" />
<text  x="13.00" y="1151.5" ></text>
</g>
<g >
<title>[unknown] (458,214 samples, 0.03%)</title><rect x="10.0" y="293" width="0.4" height="15.0" fill="rgb(210,24,5)" rx="2" ry="2" />
<text  x="13.00" y="303.5" ></text>
</g>
<g >
<title>[unknown] (458,214 samples, 0.03%)</title><rect x="10.0" y="229" width="0.4" height="15.0" fill="rgb(210,24,5)" rx="2" ry="2" />
<text  x="13.00" y="239.5" ></text>
</g>
<g >
<title>[unknown] (458,214 samples, 0.03%)</title><rect x="10.0" y="1125" width="0.4" height="15.0" fill="rgb(210,24,5)" rx="2" ry="2" />
<text  x="13.00" y="1135.5" ></text>
</g>
<g >
<title>w2c_decode__webp__wasmsimd_SimpleVFilter16_C (6,464,943 samples, 0.44%)</title><rect x="751.1" y="2053" width="5.1" height="15.0" fill="rgb(229,111,26)" rx="2" ry="2" />
<text  x="754.06" y="2063.5" ></text>
</g>
<g >
<title>[unknown] (458,214 samples, 0.03%)</title><rect x="10.0" y="965" width="0.4" height="15.0" fill="rgb(210,24,5)" rx="2" ry="2" />
<text  x="13.00" y="975.5" ></text>
</g>
<g >
<title>[unknown] (458,214 samples, 0.03%)</title><rect x="10.0" y="1237" width="0.4" height="15.0" fill="rgb(210,24,5)" rx="2" ry="2" />
<text  x="13.00" y="1247.5" ></text>
</g>
<g >
<title>[unknown] (458,214 samples, 0.03%)</title><rect x="10.0" y="805" width="0.4" height="15.0" fill="rgb(210,24,5)" rx="2" ry="2" />
<text  x="13.00" y="815.5" ></text>
</g>
<g >
<title>w2c_decode__webp__wasmsimd_VR4_C (1,846,922 samples, 0.12%)</title><rect x="120.1" y="2037" width="1.4" height="15.0" fill="rgb(237,150,35)" rx="2" ry="2" />
<text  x="123.07" y="2047.5" ></text>
</g>
<g >
<title>[unknown] (458,214 samples, 0.03%)</title><rect x="10.0" y="1573" width="0.4" height="15.0" fill="rgb(210,24,5)" rx="2" ry="2" />
<text  x="13.00" y="1583.5" ></text>
</g>
<g >
<title>[unknown] (458,214 samples, 0.03%)</title><rect x="10.0" y="1829" width="0.4" height="15.0" fill="rgb(210,24,5)" rx="2" ry="2" />
<text  x="13.00" y="1839.5" ></text>
</g>
<g >
<title>[unknown] (458,214 samples, 0.03%)</title><rect x="10.0" y="1093" width="0.4" height="15.0" fill="rgb(210,24,5)" rx="2" ry="2" />
<text  x="13.00" y="1103.5" ></text>
</g>
<g >
<title>[unknown] (458,214 samples, 0.03%)</title><rect x="10.0" y="933" width="0.4" height="15.0" fill="rgb(210,24,5)" rx="2" ry="2" />
<text  x="13.00" y="943.5" ></text>
</g>
<g >
<title>w2c_decode__webp__wasmsimd_GetLargeValue (58,184,241 samples, 3.93%)</title><rect x="561.8" y="2053" width="46.4" height="15.0" fill="rgb(234,137,32)" rx="2" ry="2" />
<text  x="564.75" y="2063.5" >w2c_..</text>
</g>
<g >
<title>[unknown] (458,214 samples, 0.03%)</title><rect x="10.0" y="1301" width="0.4" height="15.0" fill="rgb(210,24,5)" rx="2" ry="2" />
<text  x="13.00" y="1311.5" ></text>
</g>
<g >
<title>[unknown] (458,214 samples, 0.03%)</title><rect x="10.0" y="533" width="0.4" height="15.0" fill="rgb(210,24,5)" rx="2" ry="2" />
<text  x="13.00" y="543.5" ></text>
</g>
<g >
<title>[unknown] (458,214 samples, 0.03%)</title><rect x="10.0" y="261" width="0.4" height="15.0" fill="rgb(210,24,5)" rx="2" ry="2" />
<text  x="13.00" y="271.5" ></text>
</g>
<g >
<title>[unknown] (458,214 samples, 0.03%)</title><rect x="10.0" y="213" width="0.4" height="15.0" fill="rgb(210,24,5)" rx="2" ry="2" />
<text  x="13.00" y="223.5" ></text>
</g>
<g >
<title>w2c_decode__webp__wasmsimd_HE4_C (3,152,573 samples, 0.21%)</title><rect x="41.7" y="2037" width="2.5" height="15.0" fill="rgb(212,32,7)" rx="2" ry="2" />
<text  x="44.69" y="2047.5" ></text>
</g>
<g >
<title>[unknown] (458,214 samples, 0.03%)</title><rect x="10.0" y="1445" width="0.4" height="15.0" fill="rgb(210,24,5)" rx="2" ry="2" />
<text  x="13.00" y="1455.5" ></text>
</g>
<g >
<title>w2c_decode__webp__wasmsimd_TransformDCUV_C (3,696,028 samples, 0.25%)</title><rect x="99.4" y="2037" width="3.0" height="15.0" fill="rgb(206,6,1)" rx="2" ry="2" />
<text  x="102.44" y="2047.5" ></text>
</g>
<g >
<title>[unknown] (458,214 samples, 0.03%)</title><rect x="10.0" y="1813" width="0.4" height="15.0" fill="rgb(210,24,5)" rx="2" ry="2" />
<text  x="13.00" y="1823.5" ></text>
</g>
<g >
<title>[unknown] (458,214 samples, 0.03%)</title><rect x="10.0" y="1253" width="0.4" height="15.0" fill="rgb(210,24,5)" rx="2" ry="2" />
<text  x="13.00" y="1263.5" ></text>
</g>
<g >
<title>decode_webp_was (1,479,430,087 samples, 100.00%)</title><rect x="10.0" y="2069" width="1180.0" height="15.0" fill="rgb(216,54,12)" rx="2" ry="2" />
<text  x="13.00" y="2079.5" >decode_webp_was</text>
</g>
<g >
<title>__memmove_avx_unaligned_erms (924,250 samples, 0.06%)</title><rect x="121.5" y="2053" width="0.8" height="15.0" fill="rgb(205,0,0)" rx="2" ry="2" />
<text  x="124.54" y="2063.5" ></text>
</g>
<g >
<title>[unknown] (458,214 samples, 0.03%)</title><rect x="10.0" y="1557" width="0.4" height="15.0" fill="rgb(210,24,5)" rx="2" ry="2" />
<text  x="13.00" y="1567.5" ></text>
</g>
<g >
<title>[unknown] (458,214 samples, 0.03%)</title><rect x="10.0" y="357" width="0.4" height="15.0" fill="rgb(210,24,5)" rx="2" ry="2" />
<text  x="13.00" y="367.5" ></text>
</g>
<g >
<title>[unknown] (458,214 samples, 0.03%)</title><rect x="10.0" y="661" width="0.4" height="15.0" fill="rgb(210,24,5)" rx="2" ry="2" />
<text  x="13.00" y="671.5" ></text>
</g>
<g >
<title>[unknown] (458,214 samples, 0.03%)</title><rect x="10.0" y="549" width="0.4" height="15.0" fill="rgb(210,24,5)" rx="2" ry="2" />
<text  x="13.00" y="559.5" ></text>
</g>
<g >
<title>__vfprintf_internal (923,344 samples, 0.06%)</title><rect x="123.0" y="2053" width="0.7" height="15.0" fill="rgb(232,125,30)" rx="2" ry="2" />
<text  x="126.01" y="2063.5" ></text>
</g>
<g >
<title>[unknown] (458,214 samples, 0.03%)</title><rect x="10.0" y="917" width="0.4" height="15.0" fill="rgb(210,24,5)" rx="2" ry="2" />
<text  x="13.00" y="927.5" ></text>
</g>
<g >
<title>[unknown] (458,214 samples, 0.03%)</title><rect x="10.0" y="1077" width="0.4" height="15.0" fill="rgb(210,24,5)" rx="2" ry="2" />
<text  x="13.00" y="1087.5" ></text>
</g>
<g >
<title>[unknown] (458,214 samples, 0.03%)</title><rect x="10.0" y="309" width="0.4" height="15.0" fill="rgb(210,24,5)" rx="2" ry="2" />
<text  x="13.00" y="319.5" ></text>
</g>
<g >
<title>w2c_decode__webp__wasmsimd_TransformTwo_C (1,349,597 samples, 0.09%)</title><rect x="858.2" y="2053" width="1.0" height="15.0" fill="rgb(254,228,54)" rx="2" ry="2" />
<text  x="861.17" y="2063.5" ></text>
</g>
<g >
<title>[unknown] (458,214 samples, 0.03%)</title><rect x="10.0" y="581" width="0.4" height="15.0" fill="rgb(210,24,5)" rx="2" ry="2" />
<text  x="13.00" y="591.5" ></text>
</g>
<g >
<title>w2c_decode__webp__wasmsimd_TM16_C (3,219,788 samples, 0.22%)</title><rect x="765.0" y="2053" width="2.6" height="15.0" fill="rgb(253,222,53)" rx="2" ry="2" />
<text  x="768.04" y="2063.5" ></text>
</g>
<g >
<title>[unknown] (458,214 samples, 0.03%)</title><rect x="10.0" y="1973" width="0.4" height="15.0" fill="rgb(210,24,5)" rx="2" ry="2" />
<text  x="13.00" y="1983.5" ></text>
</g>
<g >
<title>[unknown] (458,214 samples, 0.03%)</title><rect x="10.0" y="1989" width="0.4" height="15.0" fill="rgb(210,24,5)" rx="2" ry="2" />
<text  x="13.00" y="1999.5" ></text>
</g>
<g >
<title>w2c_decode__webp__wasmsimd_UpsampleBgraLinePair_C (410,046,127 samples, 27.72%)</title><rect x="859.2" y="2053" width="327.1" height="15.0" fill="rgb(243,178,42)" rx="2" ry="2" />
<text  x="862.24" y="2063.5" >w2c_decode__webp__wasmsimd_UpsampleBgraLineP..</text>
</g>
<g >
<title>[unknown] (458,214 samples, 0.03%)</title><rect x="10.0" y="2037" width="0.4" height="15.0" fill="rgb(210,24,5)" rx="2" ry="2" />
<text  x="13.00" y="2047.5" ></text>
</g>
<g >
<title>[unknown] (139,844,852 samples, 9.45%)</title><rect x="10.0" y="2053" width="111.5" height="15.0" fill="rgb(210,24,5)" rx="2" ry="2" />
<text  x="13.00" y="2063.5" >[unknown]</text>
</g>
<g >
<title>[unknown] (458,214 samples, 0.03%)</title><rect x="10.0" y="629" width="0.4" height="15.0" fill="rgb(210,24,5)" rx="2" ry="2" />
<text  x="13.00" y="639.5" ></text>
</g>
<g >
<title>[unknown] (458,214 samples, 0.03%)</title><rect x="10.0" y="1717" width="0.4" height="15.0" fill="rgb(210,24,5)" rx="2" ry="2" />
<text  x="13.00" y="1727.5" ></text>
</g>
<g >
<title>[unknown] (458,214 samples, 0.03%)</title><rect x="10.0" y="1909" width="0.4" height="15.0" fill="rgb(210,24,5)" rx="2" ry="2" />
<text  x="13.00" y="1919.5" ></text>
</g>
<g >
<title>w2c_decode__webp__wasmsimd_ReconstructRow (12,933,784 samples, 0.87%)</title><rect x="723.8" y="2053" width="10.3" height="15.0" fill="rgb(217,55,13)" rx="2" ry="2" />
<text  x="726.80" y="2063.5" ></text>
</g>
<g >
<title>[unknown] (458,214 samples, 0.03%)</title><rect x="10.0" y="325" width="0.4" height="15.0" fill="rgb(210,24,5)" rx="2" ry="2" />
<text  x="13.00" y="335.5" ></text>
</g>
<g >
<title>w2c_decode__webp__wasmsimd_GetCoeffsFast (547,313,356 samples, 36.99%)</title><rect x="125.2" y="2053" width="436.6" height="15.0" fill="rgb(210,26,6)" rx="2" ry="2" />
<text  x="128.22" y="2063.5" >w2c_decode__webp__wasmsimd_GetCoeffsFast</text>
</g>
<g >
<title>w2c_decode__webp__wasmsimd_VE4_C (924,104 samples, 0.06%)</title><rect x="1186.3" y="2053" width="0.7" height="15.0" fill="rgb(221,76,18)" rx="2" ry="2" />
<text  x="1189.29" y="2063.5" ></text>
</g>
<g >
<title>w2c_decode__webp__wasmsimd_ReconstructRow (52,649,012 samples, 3.56%)</title><rect x="53.0" y="2037" width="42.0" height="15.0" fill="rgb(217,55,13)" rx="2" ry="2" />
<text  x="56.04" y="2047.5" >w2c..</text>
</g>
<g >
<title>[unknown] (458,214 samples, 0.03%)</title><rect x="10.0" y="117" width="0.4" height="15.0" fill="rgb(210,24,5)" rx="2" ry="2" />
<text  x="13.00" y="127.5" ></text>
</g>
<g >
<title>[unknown] (458,214 samples, 0.03%)</title><rect x="10.0" y="1733" width="0.4" height="15.0" fill="rgb(210,24,5)" rx="2" ry="2" />
<text  x="13.00" y="1743.5" ></text>
</g>
<g >
<title>[unknown] (458,214 samples, 0.03%)</title><rect x="10.0" y="1861" width="0.4" height="15.0" fill="rgb(210,24,5)" rx="2" ry="2" />
<text  x="13.00" y="1871.5" ></text>
</g>
<g >
<title>[unknown] (458,214 samples, 0.03%)</title><rect x="10.0" y="181" width="0.4" height="15.0" fill="rgb(210,24,5)" rx="2" ry="2" />
<text  x="13.00" y="191.5" ></text>
</g>
<g >
<title>[unknown] (458,214 samples, 0.03%)</title><rect x="10.0" y="2005" width="0.4" height="15.0" fill="rgb(210,24,5)" rx="2" ry="2" />
<text  x="13.00" y="2015.5" ></text>
</g>
<g >
<title>[unknown] (458,214 samples, 0.03%)</title><rect x="10.0" y="405" width="0.4" height="15.0" fill="rgb(210,24,5)" rx="2" ry="2" />
<text  x="13.00" y="415.5" ></text>
</g>
<g >
<title>w2c_decode__webp__wasmsimd_TransformUV_C (1,845,723 samples, 0.12%)</title><rect x="114.2" y="2037" width="1.4" height="15.0" fill="rgb(228,108,25)" rx="2" ry="2" />
<text  x="117.17" y="2047.5" ></text>
</g>
<g >
<title>w2c_decode__webp__wasmsimd_VP8GetValue (1,847,001 samples, 0.12%)</title><rect x="1187.8" y="2053" width="1.4" height="15.0" fill="rgb(222,81,19)" rx="2" ry="2" />
<text  x="1190.77" y="2063.5" ></text>
</g>
<g >
<title>[unknown] (458,214 samples, 0.03%)</title><rect x="10.0" y="1845" width="0.4" height="15.0" fill="rgb(210,24,5)" rx="2" ry="2" />
<text  x="13.00" y="1855.5" ></text>
</g>
<g >
<title>[unknown] (458,214 samples, 0.03%)</title><rect x="10.0" y="517" width="0.4" height="15.0" fill="rgb(210,24,5)" rx="2" ry="2" />
<text  x="13.00" y="527.5" ></text>
</g>
<g >
<title>[unknown] (458,214 samples, 0.03%)</title><rect x="10.0" y="85" width="0.4" height="15.0" fill="rgb(210,24,5)" rx="2" ry="2" />
<text  x="13.00" y="95.5" ></text>
</g>
<g >
<title>[unknown] (458,214 samples, 0.03%)</title><rect x="10.0" y="1765" width="0.4" height="15.0" fill="rgb(210,24,5)" rx="2" ry="2" />
<text  x="13.00" y="1775.5" ></text>
</g>
<g >
<title>[unknown] (458,214 samples, 0.03%)</title><rect x="10.0" y="437" width="0.4" height="15.0" fill="rgb(210,24,5)" rx="2" ry="2" />
<text  x="13.00" y="447.5" ></text>
</g>
<g >
<title>[unknown] (458,214 samples, 0.03%)</title><rect x="10.0" y="2021" width="0.4" height="15.0" fill="rgb(210,24,5)" rx="2" ry="2" />
<text  x="13.00" y="2031.5" ></text>
</g>
<g >
<title>w2c_decode__webp__wasmsimd_HE8uv_C (924,323 samples, 0.06%)</title><rect x="608.2" y="2053" width="0.7" height="15.0" fill="rgb(218,60,14)" rx="2" ry="2" />
<text  x="611.16" y="2063.5" ></text>
</g>
<g >
<title>__x64_sys_execve (479,640 samples, 0.03%)</title><rect x="10.4" y="2005" width="0.3" height="15.0" fill="rgb(247,193,46)" rx="2" ry="2" />
<text  x="13.37" y="2015.5" ></text>
</g>
<g >
<title>w2c_decode__webp__wasmsimd_IDecode (144,058,496 samples, 9.74%)</title><rect x="608.9" y="2053" width="114.9" height="15.0" fill="rgb(237,147,35)" rx="2" ry="2" />
<text  x="611.90" y="2063.5" >w2c_decode__we..</text>
</g>
<g >
<title>w2c_decode__webp__wasmsimd_TransformDC_C (12,929,774 samples, 0.87%)</title><rect x="102.4" y="2037" width="10.3" height="15.0" fill="rgb(211,27,6)" rx="2" ry="2" />
<text  x="105.39" y="2047.5" ></text>
</g>
<g >
<title>[unknown] (458,214 samples, 0.03%)</title><rect x="10.0" y="1621" width="0.4" height="15.0" fill="rgb(210,24,5)" rx="2" ry="2" />
<text  x="13.00" y="1631.5" ></text>
</g>
<g >
<title>[unknown] (458,214 samples, 0.03%)</title><rect x="10.0" y="1797" width="0.4" height="15.0" fill="rgb(210,24,5)" rx="2" ry="2" />
<text  x="13.00" y="1807.5" ></text>
</g>
<g >
<title>do_execveat_common.isra.0 (479,640 samples, 0.03%)</title><rect x="10.4" y="1989" width="0.3" height="15.0" fill="rgb(231,123,29)" rx="2" ry="2" />
<text  x="13.37" y="1999.5" ></text>
</g>
<g >
<title>[unknown] (458,214 samples, 0.03%)</title><rect x="10.0" y="1957" width="0.4" height="15.0" fill="rgb(210,24,5)" rx="2" ry="2" />
<text  x="13.00" y="1967.5" ></text>
</g>
<g >
<title>[unknown] (458,214 samples, 0.03%)</title><rect x="10.0" y="565" width="0.4" height="15.0" fill="rgb(210,24,5)" rx="2" ry="2" />
<text  x="13.00" y="575.5" ></text>
</g>
<g >
<title>w2c_decode__webp__wasmsimd_DC16_C (923,523 samples, 0.06%)</title><rect x="10.7" y="2037" width="0.8" height="15.0" fill="rgb(221,75,18)" rx="2" ry="2" />
<text  x="13.75" y="2047.5" ></text>
</g>
<g >
<title>[unknown] (458,214 samples, 0.03%)</title><rect x="10.0" y="1205" width="0.4" height="15.0" fill="rgb(210,24,5)" rx="2" ry="2" />
<text  x="13.00" y="1215.5" ></text>
</g>
<g >
<title>[unknown] (458,214 samples, 0.03%)</title><rect x="10.0" y="1429" width="0.4" height="15.0" fill="rgb(210,24,5)" rx="2" ry="2" />
<text  x="13.00" y="1439.5" ></text>
</g>
<g >
<title>w2c_decode__webp__wasmsimd_VE8uv_C (923,131 samples, 0.06%)</title><rect x="117.1" y="2037" width="0.8" height="15.0" fill="rgb(227,104,24)" rx="2" ry="2" />
<text  x="120.12" y="2047.5" ></text>
</g>
<g >
<title>[unknown] (458,214 samples, 0.03%)</title><rect x="10.0" y="997" width="0.4" height="15.0" fill="rgb(210,24,5)" rx="2" ry="2" />
<text  x="13.00" y="1007.5" ></text>
</g>
<g >
<title>[unknown] (458,214 samples, 0.03%)</title><rect x="10.0" y="837" width="0.4" height="15.0" fill="rgb(210,24,5)" rx="2" ry="2" />
<text  x="13.00" y="847.5" ></text>
</g>
<g >
<title>[unknown] (458,214 samples, 0.03%)</title><rect x="10.0" y="197" width="0.4" height="15.0" fill="rgb(210,24,5)" rx="2" ry="2" />
<text  x="13.00" y="207.5" ></text>
</g>
<g >
<title>[unknown] (458,214 samples, 0.03%)</title><rect x="10.0" y="1477" width="0.4" height="15.0" fill="rgb(210,24,5)" rx="2" ry="2" />
<text  x="13.00" y="1487.5" ></text>
</g>
<g >
<title>[unknown] (458,214 samples, 0.03%)</title><rect x="10.0" y="1381" width="0.4" height="15.0" fill="rgb(210,24,5)" rx="2" ry="2" />
<text  x="13.00" y="1391.5" ></text>
</g>
<g >
<title>w2c_decode__webp__wasmsimd_TM8uv_C (3,694,446 samples, 0.25%)</title><rect x="767.6" y="2053" width="3.0" height="15.0" fill="rgb(238,156,37)" rx="2" ry="2" />
<text  x="770.60" y="2063.5" ></text>
</g>
<g >
<title>w2c_decode__webp__wasmsimd_TransformAC3_C (8,313,378 samples, 0.56%)</title><rect x="770.6" y="2053" width="6.6" height="15.0" fill="rgb(251,211,50)" rx="2" ry="2" />
<text  x="773.55" y="2063.5" ></text>
</g>
<g >
<title>[unknown] (458,214 samples, 0.03%)</title><rect x="10.0" y="469" width="0.4" height="15.0" fill="rgb(210,24,5)" rx="2" ry="2" />
<text  x="13.00" y="479.5" ></text>
</g>
<g >
<title>[unknown] (458,214 samples, 0.03%)</title><rect x="10.0" y="789" width="0.4" height="15.0" fill="rgb(210,24,5)" rx="2" ry="2" />
<text  x="13.00" y="799.5" ></text>
</g>
<g >
<title>w2c_decode__webp__wasmsimd_RD4_C (1,847,356 samples, 0.12%)</title><rect x="51.6" y="2037" width="1.4" height="15.0" fill="rgb(253,225,53)" rx="2" ry="2" />
<text  x="54.57" y="2047.5" ></text>
</g>
<g >
<title>w2c_decode__webp__wasmsimd_SimpleVFilter16i_C (11,058,718 samples, 0.75%)</title><rect x="756.2" y="2053" width="8.8" height="15.0" fill="rgb(251,211,50)" rx="2" ry="2" />
<text  x="759.22" y="2063.5" ></text>
</g>
<g >
<title>[unknown] (458,214 samples, 0.03%)</title><rect x="10.0" y="1525" width="0.4" height="15.0" fill="rgb(210,24,5)" rx="2" ry="2" />
<text  x="13.00" y="1535.5" ></text>
</g>
<g >
<title>w2c_decode__webp__wasmsimd_VE4_C (1,848,174 samples, 0.12%)</title><rect x="115.6" y="2037" width="1.5" height="15.0" fill="rgb(221,76,18)" rx="2" ry="2" />
<text  x="118.65" y="2047.5" ></text>
</g>
<g >
<title>w2c_decode__webp__wasmsimd_VE8uv_C (924,340 samples, 0.06%)</title><rect x="1187.0" y="2053" width="0.8" height="15.0" fill="rgb(227,104,24)" rx="2" ry="2" />
<text  x="1190.03" y="2063.5" ></text>
</g>
<g >
<title>[unknown] (458,214 samples, 0.03%)</title><rect x="10.0" y="1157" width="0.4" height="15.0" fill="rgb(210,24,5)" rx="2" ry="2" />
<text  x="13.00" y="1167.5" ></text>
</g>
<g >
<title>[unknown] (458,214 samples, 0.03%)</title><rect x="10.0" y="421" width="0.4" height="15.0" fill="rgb(210,24,5)" rx="2" ry="2" />
<text  x="13.00" y="431.5" ></text>
</g>
<g >
<title>__vfprintf_internal (458,214 samples, 0.03%)</title><rect x="10.0" y="69" width="0.4" height="15.0" fill="rgb(232,125,30)" rx="2" ry="2" />
<text  x="13.00" y="79.5" ></text>
</g>
<g >
<title>[unknown] (458,214 samples, 0.03%)</title><rect x="10.0" y="133" width="0.4" height="15.0" fill="rgb(210,24,5)" rx="2" ry="2" />
<text  x="13.00" y="143.5" ></text>
</g>
<g >
<title>[unknown] (458,214 samples, 0.03%)</title><rect x="10.0" y="1045" width="0.4" height="15.0" fill="rgb(210,24,5)" rx="2" ry="2" />
<text  x="13.00" y="1055.5" ></text>
</g>
<g >
<title>[unknown] (458,214 samples, 0.03%)</title><rect x="10.0" y="373" width="0.4" height="15.0" fill="rgb(210,24,5)" rx="2" ry="2" />
<text  x="13.00" y="383.5" ></text>
</g>
<g >
<title>[unknown] (458,214 samples, 0.03%)</title><rect x="10.0" y="741" width="0.4" height="15.0" fill="rgb(210,24,5)" rx="2" ry="2" />
<text  x="13.00" y="751.5" ></text>
</g>
<g >
<title>[unknown] (458,214 samples, 0.03%)</title><rect x="10.0" y="885" width="0.4" height="15.0" fill="rgb(210,24,5)" rx="2" ry="2" />
<text  x="13.00" y="895.5" ></text>
</g>
<g >
<title>entry_SYSCALL_64_after_hwframe (479,640 samples, 0.03%)</title><rect x="10.4" y="2037" width="0.3" height="15.0" fill="rgb(218,63,15)" rx="2" ry="2" />
<text  x="13.37" y="2047.5" ></text>
</g>
<g >
<title>w2c_decode__webp__wasmsimd_IDecode (5,544,235 samples, 0.37%)</title><rect x="44.9" y="2037" width="4.5" height="15.0" fill="rgb(237,147,35)" rx="2" ry="2" />
<text  x="47.94" y="2047.5" ></text>
</g>
<g >
<title>[unknown] (458,214 samples, 0.03%)</title><rect x="10.0" y="1941" width="0.4" height="15.0" fill="rgb(210,24,5)" rx="2" ry="2" />
<text  x="13.00" y="1951.5" ></text>
</g>
<g >
<title>[unknown] (458,214 samples, 0.03%)</title><rect x="10.0" y="1061" width="0.4" height="15.0" fill="rgb(210,24,5)" rx="2" ry="2" />
<text  x="13.00" y="1071.5" ></text>
</g>
<g >
<title>[unknown] (458,214 samples, 0.03%)</title><rect x="10.0" y="901" width="0.4" height="15.0" fill="rgb(210,24,5)" rx="2" ry="2" />
<text  x="13.00" y="911.5" ></text>
</g>
<g >
<title>[unknown] (458,214 samples, 0.03%)</title><rect x="10.0" y="725" width="0.4" height="15.0" fill="rgb(210,24,5)" rx="2" ry="2" />
<text  x="13.00" y="735.5" ></text>
</g>
<g >
<title>[unknown] (458,214 samples, 0.03%)</title><rect x="10.0" y="1589" width="0.4" height="15.0" fill="rgb(210,24,5)" rx="2" ry="2" />
<text  x="13.00" y="1599.5" ></text>
</g>
<g >
<title>[unknown] (458,214 samples, 0.03%)</title><rect x="10.0" y="1541" width="0.4" height="15.0" fill="rgb(210,24,5)" rx="2" ry="2" />
<text  x="13.00" y="1551.5" ></text>
</g>
<g >
<title>[unknown] (458,214 samples, 0.03%)</title><rect x="10.0" y="1317" width="0.4" height="15.0" fill="rgb(210,24,5)" rx="2" ry="2" />
<text  x="13.00" y="1327.5" ></text>
</g>
<g >
<title>[unknown] (458,214 samples, 0.03%)</title><rect x="10.0" y="1669" width="0.4" height="15.0" fill="rgb(210,24,5)" rx="2" ry="2" />
<text  x="13.00" y="1679.5" ></text>
</g>
<g >
<title>[unknown] (458,214 samples, 0.03%)</title><rect x="10.0" y="453" width="0.4" height="15.0" fill="rgb(210,24,5)" rx="2" ry="2" />
<text  x="13.00" y="463.5" ></text>
</g>
<g >
<title>[unknown] (458,214 samples, 0.03%)</title><rect x="10.0" y="101" width="0.4" height="15.0" fill="rgb(210,24,5)" rx="2" ry="2" />
<text  x="13.00" y="111.5" ></text>
</g>
<g >
<title>[unknown] (458,214 samples, 0.03%)</title><rect x="10.0" y="389" width="0.4" height="15.0" fill="rgb(210,24,5)" rx="2" ry="2" />
<text  x="13.00" y="399.5" ></text>
</g>
<g >
<title>[unknown] (458,214 samples, 0.03%)</title><rect x="10.0" y="949" width="0.4" height="15.0" fill="rgb(210,24,5)" rx="2" ry="2" />
<text  x="13.00" y="959.5" ></text>
</g>
<g >
<title>[unknown] (458,214 samples, 0.03%)</title><rect x="10.0" y="1109" width="0.4" height="15.0" fill="rgb(210,24,5)" rx="2" ry="2" />
<text  x="13.00" y="1119.5" ></text>
</g>
<g >
<title>asm_exc_page_fault (458,214 samples, 0.03%)</title><rect x="10.0" y="53" width="0.4" height="15.0" fill="rgb(225,93,22)" rx="2" ry="2" />
<text  x="13.00" y="63.5" ></text>
</g>
<g >
<title>w2c_decode__webp__wasmsimd_VP8ParseProba (923,339 samples, 0.06%)</title><rect x="1189.2" y="2053" width="0.8" height="15.0" fill="rgb(216,51,12)" rx="2" ry="2" />
<text  x="1192.24" y="2063.5" ></text>
</g>
<g >
<title>[unknown] (458,214 samples, 0.03%)</title><rect x="10.0" y="1269" width="0.4" height="15.0" fill="rgb(210,24,5)" rx="2" ry="2" />
<text  x="13.00" y="1279.5" ></text>
</g>
<g >
<title>w2c_decode__webp__wasmsimd_TM4_C (4,601,012 samples, 0.31%)</title><rect x="95.0" y="2037" width="3.7" height="15.0" fill="rgb(232,128,30)" rx="2" ry="2" />
<text  x="98.03" y="2047.5" ></text>
</g>
<g >
<title>[unknown] (458,214 samples, 0.03%)</title><rect x="10.0" y="1365" width="0.4" height="15.0" fill="rgb(210,24,5)" rx="2" ry="2" />
<text  x="13.00" y="1375.5" ></text>
</g>
<g >
<title>bprm_execve (479,640 samples, 0.03%)</title><rect x="10.4" y="1973" width="0.3" height="15.0" fill="rgb(218,61,14)" rx="2" ry="2" />
<text  x="13.37" y="1983.5" ></text>
</g>
<g >
<title>w2c_decode__webp__wasmsimd_DC4_C (17,552,003 samples, 1.19%)</title><rect x="11.5" y="2037" width="14.0" height="15.0" fill="rgb(250,210,50)" rx="2" ry="2" />
<text  x="14.48" y="2047.5" ></text>
</g>
<g >
<title>w2c_decode__webp__wasmsimd_TransformAC3_C (924,267 samples, 0.06%)</title><rect x="98.7" y="2037" width="0.7" height="15.0" fill="rgb(251,211,50)" rx="2" ry="2" />
<text  x="101.70" y="2047.5" ></text>
</g>
<g >
<title>[unknown] (458,214 samples, 0.03%)</title><rect x="10.0" y="149" width="0.4" height="15.0" fill="rgb(210,24,5)" rx="2" ry="2" />
<text  x="13.00" y="159.5" ></text>
</g>
<g >
<title>[unknown] (458,214 samples, 0.03%)</title><rect x="10.0" y="1653" width="0.4" height="15.0" fill="rgb(210,24,5)" rx="2" ry="2" />
<text  x="13.00" y="1663.5" ></text>
</g>
<g >
<title>[unknown] (458,214 samples, 0.03%)</title><rect x="10.0" y="677" width="0.4" height="15.0" fill="rgb(210,24,5)" rx="2" ry="2" />
<text  x="13.00" y="687.5" ></text>
</g>
<g >
<title>[unknown] (458,214 samples, 0.03%)</title><rect x="10.0" y="1221" width="0.4" height="15.0" fill="rgb(210,24,5)" rx="2" ry="2" />
<text  x="13.00" y="1231.5" ></text>
</g>
<g >
<title>[unknown] (458,214 samples, 0.03%)</title><rect x="10.0" y="1493" width="0.4" height="15.0" fill="rgb(210,24,5)" rx="2" ry="2" />
<text  x="13.00" y="1503.5" ></text>
</g>
<g >
<title>exc_page_fault (458,214 samples, 0.03%)</title><rect x="10.0" y="37" width="0.4" height="15.0" fill="rgb(212,35,8)" rx="2" ry="2" />
<text  x="13.00" y="47.5" ></text>
</g>
<g >
<title>[unknown] (458,214 samples, 0.03%)</title><rect x="10.0" y="1877" width="0.4" height="15.0" fill="rgb(210,24,5)" rx="2" ry="2" />
<text  x="13.00" y="1887.5" ></text>
</g>
<g >
<title>clear_user_rep_good (361,245 samples, 0.02%)</title><rect x="10.5" y="1925" width="0.2" height="15.0" fill="rgb(224,89,21)" rx="2" ry="2" />
<text  x="13.46" y="1935.5" ></text>
</g>
<g >
<title>[unknown] (458,214 samples, 0.03%)</title><rect x="10.0" y="1189" width="0.4" height="15.0" fill="rgb(210,24,5)" rx="2" ry="2" />
<text  x="13.00" y="1199.5" ></text>
</g>
<g >
<title>w2c_decode__webp__wasmsimd_TransformOne_C (101,538,822 samples, 6.86%)</title><rect x="777.2" y="2053" width="81.0" height="15.0" fill="rgb(209,22,5)" rx="2" ry="2" />
<text  x="780.18" y="2063.5" >w2c_decod..</text>
</g>
<g >
<title>w2c_decode__webp__wasmsimd_GetCoeffsFast (12,007,193 samples, 0.81%)</title><rect x="26.2" y="2037" width="9.6" height="15.0" fill="rgb(210,26,6)" rx="2" ry="2" />
<text  x="29.22" y="2047.5" ></text>
</g>
<g >
<title>[unknown] (458,214 samples, 0.03%)</title><rect x="10.0" y="853" width="0.4" height="15.0" fill="rgb(210,24,5)" rx="2" ry="2" />
<text  x="13.00" y="863.5" ></text>
</g>
<g >
<title>w2c_decode__webp__wasmsimd_LD4_C (2,764,044 samples, 0.19%)</title><rect x="49.4" y="2037" width="2.2" height="15.0" fill="rgb(242,173,41)" rx="2" ry="2" />
<text  x="52.36" y="2047.5" ></text>
</g>
<g >
<title>[unknown] (458,214 samples, 0.03%)</title><rect x="10.0" y="1013" width="0.4" height="15.0" fill="rgb(210,24,5)" rx="2" ry="2" />
<text  x="13.00" y="1023.5" ></text>
</g>
<g >
<title>[unknown] (458,214 samples, 0.03%)</title><rect x="10.0" y="613" width="0.4" height="15.0" fill="rgb(210,24,5)" rx="2" ry="2" />
<text  x="13.00" y="623.5" ></text>
</g>
<g >
<title>do_syscall_64 (479,640 samples, 0.03%)</title><rect x="10.4" y="2021" width="0.3" height="15.0" fill="rgb(209,20,4)" rx="2" ry="2" />
<text  x="13.37" y="2031.5" ></text>
</g>
<g >
<title>[unknown] (458,214 samples, 0.03%)</title><rect x="10.0" y="1509" width="0.4" height="15.0" fill="rgb(210,24,5)" rx="2" ry="2" />
<text  x="13.00" y="1519.5" ></text>
</g>
<g >
<title>w2c_decode__webp__wasmsimd_HU4_C (923,126 samples, 0.06%)</title><rect x="44.2" y="2037" width="0.7" height="15.0" fill="rgb(208,17,4)" rx="2" ry="2" />
<text  x="47.20" y="2047.5" ></text>
</g>
<g >
<title>[unknown] (458,214 samples, 0.03%)</title><rect x="10.0" y="1701" width="0.4" height="15.0" fill="rgb(210,24,5)" rx="2" ry="2" />
<text  x="13.00" y="1711.5" ></text>
</g>
<g >
<title>[unknown] (458,214 samples, 0.03%)</title><rect x="10.0" y="165" width="0.4" height="15.0" fill="rgb(210,24,5)" rx="2" ry="2" />
<text  x="13.00" y="175.5" ></text>
</g>
<g >
<title>[unknown] (458,214 samples, 0.03%)</title><rect x="10.0" y="1893" width="0.4" height="15.0" fill="rgb(210,24,5)" rx="2" ry="2" />
<text  x="13.00" y="1903.5" ></text>
</g>
<g >
<title>[unknown] (458,214 samples, 0.03%)</title><rect x="10.0" y="1173" width="0.4" height="15.0" fill="rgb(210,24,5)" rx="2" ry="2" />
<text  x="13.00" y="1183.5" ></text>
</g>
<g >
<title>[unknown] (458,214 samples, 0.03%)</title><rect x="10.0" y="869" width="0.4" height="15.0" fill="rgb(210,24,5)" rx="2" ry="2" />
<text  x="13.00" y="879.5" ></text>
</g>
<g >
<title>[unknown] (458,214 samples, 0.03%)</title><rect x="10.0" y="1029" width="0.4" height="15.0" fill="rgb(210,24,5)" rx="2" ry="2" />
<text  x="13.00" y="1039.5" ></text>
</g>
<g >
<title>w2c_decode__webp__wasmsimd_VL4_C (2,769,837 samples, 0.19%)</title><rect x="117.9" y="2037" width="2.2" height="15.0" fill="rgb(226,98,23)" rx="2" ry="2" />
<text  x="120.86" y="2047.5" ></text>
</g>
<g >
<title>w2c_decode__webp__wasmsimd_DC8uv_C (924,314 samples, 0.06%)</title><rect x="25.5" y="2037" width="0.7" height="15.0" fill="rgb(206,8,2)" rx="2" ry="2" />
<text  x="28.48" y="2047.5" ></text>
</g>
<g >
<title>[unknown] (458,214 samples, 0.03%)</title><rect x="10.0" y="277" width="0.4" height="15.0" fill="rgb(210,24,5)" rx="2" ry="2" />
<text  x="13.00" y="287.5" ></text>
</g>
<g >
<title>[unknown] (458,214 samples, 0.03%)</title><rect x="10.0" y="1749" width="0.4" height="15.0" fill="rgb(210,24,5)" rx="2" ry="2" />
<text  x="13.00" y="1759.5" ></text>
</g>
<g >
<title>w2c_decode__webp__wasmsimd_TransformOne_C (923,496 samples, 0.06%)</title><rect x="112.7" y="2037" width="0.7" height="15.0" fill="rgb(209,22,5)" rx="2" ry="2" />
<text  x="115.70" y="2047.5" ></text>
</g>
<g >
<title>[unknown] (458,214 samples, 0.03%)</title><rect x="10.0" y="597" width="0.4" height="15.0" fill="rgb(210,24,5)" rx="2" ry="2" />
<text  x="13.00" y="607.5" ></text>
</g>
<g >
<title>[unknown] (458,214 samples, 0.03%)</title><rect x="10.0" y="1925" width="0.4" height="15.0" fill="rgb(210,24,5)" rx="2" ry="2" />
<text  x="13.00" y="1935.5" ></text>
</g>
<g >
<title>w2c_decode__webp__wasmsimd_SimpleHFilter16_C (4,618,962 samples, 0.31%)</title><rect x="734.1" y="2053" width="3.7" height="15.0" fill="rgb(219,67,16)" rx="2" ry="2" />
<text  x="737.11" y="2063.5" ></text>
</g>
<g >
<title>[unknown] (458,214 samples, 0.03%)</title><rect x="10.0" y="485" width="0.4" height="15.0" fill="rgb(210,24,5)" rx="2" ry="2" />
<text  x="13.00" y="495.5" ></text>
</g>
<g >
<title>[unknown] (458,214 samples, 0.03%)</title><rect x="10.0" y="1333" width="0.4" height="15.0" fill="rgb(210,24,5)" rx="2" ry="2" />
<text  x="13.00" y="1343.5" ></text>
</g>
<g >
<title>[unknown] (458,214 samples, 0.03%)</title><rect x="10.0" y="501" width="0.4" height="15.0" fill="rgb(210,24,5)" rx="2" ry="2" />
<text  x="13.00" y="511.5" ></text>
</g>
<g >
<title>w2c_decode__webp__wasmsimd_TransformTwo_C (924,005 samples, 0.06%)</title><rect x="113.4" y="2037" width="0.8" height="15.0" fill="rgb(254,228,54)" rx="2" ry="2" />
<text  x="116.44" y="2047.5" ></text>
</g>
<g >
<title>[unknown] (458,214 samples, 0.03%)</title><rect x="10.0" y="709" width="0.4" height="15.0" fill="rgb(210,24,5)" rx="2" ry="2" />
<text  x="13.00" y="719.5" ></text>
</g>
<g >
<title>w2c_decode__webp__wasmsimd_HD4_C (6,463,579 samples, 0.44%)</title><rect x="35.8" y="2037" width="5.2" height="15.0" fill="rgb(218,62,14)" rx="2" ry="2" />
<text  x="38.80" y="2047.5" ></text>
</g>
<g >
<title>padzero (361,245 samples, 0.02%)</title><rect x="10.5" y="1941" width="0.2" height="15.0" fill="rgb(223,84,20)" rx="2" ry="2" />
<text  x="13.46" y="1951.5" ></text>
</g>
<g >
<title>__printf_fp_l (923,344 samples, 0.06%)</title><rect x="123.0" y="2037" width="0.7" height="15.0" fill="rgb(221,76,18)" rx="2" ry="2" />
<text  x="126.01" y="2047.5" ></text>
</g>
<g >
<title>[unknown] (458,214 samples, 0.03%)</title><rect x="10.0" y="341" width="0.4" height="15.0" fill="rgb(210,24,5)" rx="2" ry="2" />
<text  x="13.00" y="351.5" ></text>
</g>
<g >
<title>[unknown] (458,214 samples, 0.03%)</title><rect x="10.0" y="245" width="0.4" height="15.0" fill="rgb(210,24,5)" rx="2" ry="2" />
<text  x="13.00" y="255.5" ></text>
</g>
<g >
<title>[unknown] (458,214 samples, 0.03%)</title><rect x="10.0" y="1685" width="0.4" height="15.0" fill="rgb(210,24,5)" rx="2" ry="2" />
<text  x="13.00" y="1695.5" ></text>
</g>
<g >
<title>w2c_decode__webp__wasmsimd_SimpleHFilter16i_C (16,626,990 samples, 1.12%)</title><rect x="737.8" y="2053" width="13.3" height="15.0" fill="rgb(241,167,40)" rx="2" ry="2" />
<text  x="740.80" y="2063.5" ></text>
</g>
<g >
<title>[unknown] (458,214 samples, 0.03%)</title><rect x="10.0" y="1349" width="0.4" height="15.0" fill="rgb(210,24,5)" rx="2" ry="2" />
<text  x="13.00" y="1359.5" ></text>
</g>
<g >
<title>[unknown] (458,214 samples, 0.03%)</title><rect x="10.0" y="693" width="0.4" height="15.0" fill="rgb(210,24,5)" rx="2" ry="2" />
<text  x="13.00" y="703.5" ></text>
</g>
<g >
<title>[unknown] (458,214 samples, 0.03%)</title><rect x="10.0" y="1637" width="0.4" height="15.0" fill="rgb(210,24,5)" rx="2" ry="2" />
<text  x="13.00" y="1647.5" ></text>
</g>
<g >
<title>__memset_avx2_unaligned_erms (924,388 samples, 0.06%)</title><rect x="122.3" y="2053" width="0.7" height="15.0" fill="rgb(223,84,20)" rx="2" ry="2" />
<text  x="125.28" y="2063.5" ></text>
</g>
<g >
<title>[unknown] (458,214 samples, 0.03%)</title><rect x="10.0" y="1781" width="0.4" height="15.0" fill="rgb(210,24,5)" rx="2" ry="2" />
<text  x="13.00" y="1791.5" ></text>
</g>
<g >
<title>[unknown] (458,214 samples, 0.03%)</title><rect x="10.0" y="645" width="0.4" height="15.0" fill="rgb(210,24,5)" rx="2" ry="2" />
<text  x="13.00" y="655.5" ></text>
</g>
</g>
</svg>
