<?xml version="1.0" standalone="no"?>
<!DOCTYPE svg PUBLIC "-//W3C//DTD SVG 1.1//EN" "http://www.w3.org/Graphics/SVG/1.1/DTD/svg11.dtd">
<svg version="1.1" width="1200" height="342" onload="init(evt)" viewBox="0 0 1200 342" xmlns="http://www.w3.org/2000/svg" xmlns:xlink="http://www.w3.org/1999/xlink">
<!-- Flame graph stack visualization. See https://github.com/brendangregg/FlameGraph for latest version, and http://www.brendangregg.com/flamegraphs.html for examples. -->
<!-- NOTES:  -->
<defs>
	<linearGradient id="background" y1="0" y2="1" x1="0" x2="0" >
		<stop stop-color="#eeeeee" offset="5%" />
		<stop stop-color="#eeeeb0" offset="95%" />
	</linearGradient>
</defs>
<style type="text/css">
	text { font-family:Verdana; font-size:12px; fill:rgb(0,0,0); }
	#search, #ignorecase { opacity:0.1; cursor:pointer; }
	#search:hover, #search.show, #ignorecase:hover, #ignorecase.show { opacity:1; }
	#subtitle { text-anchor:middle; font-color:rgb(160,160,160); }
	#title { text-anchor:middle; font-size:17px}
	#unzoom { cursor:pointer; }
	#frames > *:hover { stroke:black; stroke-width:0.5; cursor:pointer; }
	.hide { display:none; }
	.parent { opacity:0.5; }
</style>
<script type="text/ecmascript">
<![CDATA[
	"use strict";
	var details, searchbtn, unzoombtn, matchedtxt, svg, searching, currentSearchTerm, ignorecase, ignorecaseBtn;
	function init(evt) {
		details = document.getElementById("details").firstChild;
		searchbtn = document.getElementById("search");
		ignorecaseBtn = document.getElementById("ignorecase");
		unzoombtn = document.getElementById("unzoom");
		matchedtxt = document.getElementById("matched");
		svg = document.getElementsByTagName("svg")[0];
		searching = 0;
		currentSearchTerm = null;

		// use GET parameters to restore a flamegraphs state.
		var params = get_params();
		if (params.x && params.y)
			zoom(find_group(document.querySelector('[x="' + params.x + '"][y="' + params.y + '"]')));
                if (params.s) search(params.s);
	}

	// event listeners
	window.addEventListener("click", function(e) {
		var target = find_group(e.target);
		if (target) {
			if (target.nodeName == "a") {
				if (e.ctrlKey === false) return;
				e.preventDefault();
			}
			if (target.classList.contains("parent")) unzoom(true);
			zoom(target);
			if (!document.querySelector('.parent')) {
				// we have basically done a clearzoom so clear the url
				var params = get_params();
				if (params.x) delete params.x;
				if (params.y) delete params.y;
				history.replaceState(null, null, parse_params(params));
				unzoombtn.classList.add("hide");
				return;
			}

			// set parameters for zoom state
			var el = target.querySelector("rect");
			if (el && el.attributes && el.attributes.y && el.attributes._orig_x) {
				var params = get_params()
				params.x = el.attributes._orig_x.value;
				params.y = el.attributes.y.value;
				history.replaceState(null, null, parse_params(params));
			}
		}
		else if (e.target.id == "unzoom") clearzoom();
		else if (e.target.id == "search") search_prompt();
		else if (e.target.id == "ignorecase") toggle_ignorecase();
	}, false)

	// mouse-over for info
	// show
	window.addEventListener("mouseover", function(e) {
		var target = find_group(e.target);
		if (target) details.nodeValue = "Function: " + g_to_text(target);
	}, false)

	// clear
	window.addEventListener("mouseout", function(e) {
		var target = find_group(e.target);
		if (target) details.nodeValue = ' ';
	}, false)

	// ctrl-F for search
	// ctrl-I to toggle case-sensitive search
	window.addEventListener("keydown",function (e) {
		if (e.keyCode === 114 || (e.ctrlKey && e.keyCode === 70)) {
			e.preventDefault();
			search_prompt();
		}
		else if (e.ctrlKey && e.keyCode === 73) {
			e.preventDefault();
			toggle_ignorecase();
		}
	}, false)

	// functions
	function get_params() {
		var params = {};
		var paramsarr = window.location.search.substr(1).split('&');
		for (var i = 0; i < paramsarr.length; ++i) {
			var tmp = paramsarr[i].split("=");
			if (!tmp[0] || !tmp[1]) continue;
			params[tmp[0]]  = decodeURIComponent(tmp[1]);
		}
		return params;
	}
	function parse_params(params) {
		var uri = "?";
		for (var key in params) {
			uri += key + '=' + encodeURIComponent(params[key]) + '&';
		}
		if (uri.slice(-1) == "&")
			uri = uri.substring(0, uri.length - 1);
		if (uri == '?')
			uri = window.location.href.split('?')[0];
		return uri;
	}
	function find_child(node, selector) {
		var children = node.querySelectorAll(selector);
		if (children.length) return children[0];
	}
	function find_group(node) {
		var parent = node.parentElement;
		if (!parent) return;
		if (parent.id == "frames") return node;
		return find_group(parent);
	}
	function orig_save(e, attr, val) {
		if (e.attributes["_orig_" + attr] != undefined) return;
		if (e.attributes[attr] == undefined) return;
		if (val == undefined) val = e.attributes[attr].value;
		e.setAttribute("_orig_" + attr, val);
	}
	function orig_load(e, attr) {
		if (e.attributes["_orig_"+attr] == undefined) return;
		e.attributes[attr].value = e.attributes["_orig_" + attr].value;
		e.removeAttribute("_orig_"+attr);
	}
	function g_to_text(e) {
		var text = find_child(e, "title").firstChild.nodeValue;
		return (text)
	}
	function g_to_func(e) {
		var func = g_to_text(e);
		// if there's any manipulation we want to do to the function
		// name before it's searched, do it here before returning.
		return (func);
	}
	function update_text(e) {
		var r = find_child(e, "rect");
		var t = find_child(e, "text");
		var w = parseFloat(r.attributes.width.value) -3;
		var txt = find_child(e, "title").textContent.replace(/\([^(]*\)$/,"");
		t.attributes.x.value = parseFloat(r.attributes.x.value) + 3;

		// Smaller than this size won't fit anything
		if (w < 2 * 12 * 0.59) {
			t.textContent = "";
			return;
		}

		t.textContent = txt;
		var sl = t.getSubStringLength(0, txt.length);
		// check if only whitespace or if we can fit the entire string into width w
		if (/^ *$/.test(txt) || sl < w)
			return;

		// this isn't perfect, but gives a good starting point
		// and avoids calling getSubStringLength too often
		var start = Math.floor((w/sl) * txt.length);
		for (var x = start; x > 0; x = x-2) {
			if (t.getSubStringLength(0, x + 2) <= w) {
				t.textContent = txt.substring(0, x) + "..";
				return;
			}
		}
		t.textContent = "";
	}

	// zoom
	function zoom_reset(e) {
		if (e.attributes != undefined) {
			orig_load(e, "x");
			orig_load(e, "width");
		}
		if (e.childNodes == undefined) return;
		for (var i = 0, c = e.childNodes; i < c.length; i++) {
			zoom_reset(c[i]);
		}
	}
	function zoom_child(e, x, ratio) {
		if (e.attributes != undefined) {
			if (e.attributes.x != undefined) {
				orig_save(e, "x");
				e.attributes.x.value = (parseFloat(e.attributes.x.value) - x - 10) * ratio + 10;
				if (e.tagName == "text")
					e.attributes.x.value = find_child(e.parentNode, "rect[x]").attributes.x.value + 3;
			}
			if (e.attributes.width != undefined) {
				orig_save(e, "width");
				e.attributes.width.value = parseFloat(e.attributes.width.value) * ratio;
			}
		}

		if (e.childNodes == undefined) return;
		for (var i = 0, c = e.childNodes; i < c.length; i++) {
			zoom_child(c[i], x - 10, ratio);
		}
	}
	function zoom_parent(e) {
		if (e.attributes) {
			if (e.attributes.x != undefined) {
				orig_save(e, "x");
				e.attributes.x.value = 10;
			}
			if (e.attributes.width != undefined) {
				orig_save(e, "width");
				e.attributes.width.value = parseInt(svg.width.baseVal.value) - (10 * 2);
			}
		}
		if (e.childNodes == undefined) return;
		for (var i = 0, c = e.childNodes; i < c.length; i++) {
			zoom_parent(c[i]);
		}
	}
	function zoom(node) {
		var attr = find_child(node, "rect").attributes;
		var width = parseFloat(attr.width.value);
		var xmin = parseFloat(attr.x.value);
		var xmax = parseFloat(xmin + width);
		var ymin = parseFloat(attr.y.value);
		var ratio = (svg.width.baseVal.value - 2 * 10) / width;

		// XXX: Workaround for JavaScript float issues (fix me)
		var fudge = 0.0001;

		unzoombtn.classList.remove("hide");

		var el = document.getElementById("frames").children;
		for (var i = 0; i < el.length; i++) {
			var e = el[i];
			var a = find_child(e, "rect").attributes;
			var ex = parseFloat(a.x.value);
			var ew = parseFloat(a.width.value);
			var upstack;
			// Is it an ancestor
			if (0 == 0) {
				upstack = parseFloat(a.y.value) > ymin;
			} else {
				upstack = parseFloat(a.y.value) < ymin;
			}
			if (upstack) {
				// Direct ancestor
				if (ex <= xmin && (ex+ew+fudge) >= xmax) {
					e.classList.add("parent");
					zoom_parent(e);
					update_text(e);
				}
				// not in current path
				else
					e.classList.add("hide");
			}
			// Children maybe
			else {
				// no common path
				if (ex < xmin || ex + fudge >= xmax) {
					e.classList.add("hide");
				}
				else {
					zoom_child(e, xmin, ratio);
					update_text(e);
				}
			}
		}
		search();
	}
	function unzoom(dont_update_text) {
		unzoombtn.classList.add("hide");
		var el = document.getElementById("frames").children;
		for(var i = 0; i < el.length; i++) {
			el[i].classList.remove("parent");
			el[i].classList.remove("hide");
			zoom_reset(el[i]);
			if(!dont_update_text) update_text(el[i]);
		}
		search();
	}
	function clearzoom() {
		unzoom();

		// remove zoom state
		var params = get_params();
		if (params.x) delete params.x;
		if (params.y) delete params.y;
		history.replaceState(null, null, parse_params(params));
	}

	// search
	function toggle_ignorecase() {
		ignorecase = !ignorecase;
		if (ignorecase) {
			ignorecaseBtn.classList.add("show");
		} else {
			ignorecaseBtn.classList.remove("show");
		}
		reset_search();
		search();
	}
	function reset_search() {
		var el = document.querySelectorAll("#frames rect");
		for (var i = 0; i < el.length; i++) {
			orig_load(el[i], "fill")
		}
		var params = get_params();
		delete params.s;
		history.replaceState(null, null, parse_params(params));
	}
	function search_prompt() {
		if (!searching) {
			var term = prompt("Enter a search term (regexp " +
			    "allowed, eg: ^ext4_)"
			    + (ignorecase ? ", ignoring case" : "")
			    + "\nPress Ctrl-i to toggle case sensitivity", "");
			if (term != null) search(term);
		} else {
			reset_search();
			searching = 0;
			currentSearchTerm = null;
			searchbtn.classList.remove("show");
			searchbtn.firstChild.nodeValue = "Search"
			matchedtxt.classList.add("hide");
			matchedtxt.firstChild.nodeValue = ""
		}
	}
	function search(term) {
		if (term) currentSearchTerm = term;

		var re = new RegExp(currentSearchTerm, ignorecase ? 'i' : '');
		var el = document.getElementById("frames").children;
		var matches = new Object();
		var maxwidth = 0;
		for (var i = 0; i < el.length; i++) {
			var e = el[i];
			var func = g_to_func(e);
			var rect = find_child(e, "rect");
			if (func == null || rect == null)
				continue;

			// Save max width. Only works as we have a root frame
			var w = parseFloat(rect.attributes.width.value);
			if (w > maxwidth)
				maxwidth = w;

			if (func.match(re)) {
				// highlight
				var x = parseFloat(rect.attributes.x.value);
				orig_save(rect, "fill");
				rect.attributes.fill.value = "rgb(230,0,230)";

				// remember matches
				if (matches[x] == undefined) {
					matches[x] = w;
				} else {
					if (w > matches[x]) {
						// overwrite with parent
						matches[x] = w;
					}
				}
				searching = 1;
			}
		}
		if (!searching)
			return;
		var params = get_params();
		params.s = currentSearchTerm;
		history.replaceState(null, null, parse_params(params));

		searchbtn.classList.add("show");
		searchbtn.firstChild.nodeValue = "Reset Search";

		// calculate percent matched, excluding vertical overlap
		var count = 0;
		var lastx = -1;
		var lastw = 0;
		var keys = Array();
		for (k in matches) {
			if (matches.hasOwnProperty(k))
				keys.push(k);
		}
		// sort the matched frames by their x location
		// ascending, then width descending
		keys.sort(function(a, b){
			return a - b;
		});
		// Step through frames saving only the biggest bottom-up frames
		// thanks to the sort order. This relies on the tree property
		// where children are always smaller than their parents.
		var fudge = 0.0001;	// JavaScript floating point
		for (var k in keys) {
			var x = parseFloat(keys[k]);
			var w = matches[keys[k]];
			if (x >= lastx + lastw - fudge) {
				count += w;
				lastx = x;
				lastw = w;
			}
		}
		// display matched percent
		matchedtxt.classList.remove("hide");
		var pct = 100 * count / maxwidth;
		if (pct != 100) pct = pct.toFixed(1)
		matchedtxt.firstChild.nodeValue = "Matched: " + pct + "%";
	}
]]>
</script>
<rect x="0.0" y="0" width="1200.0" height="342.0" fill="url(#background)"  />
<text id="title" x="600.00" y="24" >Flame Graph</text>
<text id="details" x="10.00" y="325" > </text>
<text id="unzoom" x="10.00" y="24" class="hide">Reset Zoom</text>
<text id="search" x="1090.00" y="24" >Search</text>
<text id="ignorecase" x="1174.00" y="24" >ic</text>
<text id="matched" x="1090.00" y="325" > </text>
<g id="frames">
<g >
<title>do_execveat_common.isra.0 (473,205 samples, 0.06%)</title><rect x="1185.8" y="197" width="0.7" height="15.0" fill="rgb(231,123,29)" rx="2" ry="2" />
<text  x="1188.77" y="207.5" ></text>
</g>
<g >
<title>handle_mm_fault (490,276 samples, 0.06%)</title><rect x="60.7" y="197" width="0.7" height="15.0" fill="rgb(234,135,32)" rx="2" ry="2" />
<text  x="63.71" y="207.5" ></text>
</g>
<g >
<title>UpsampleBgraLinePair_C (923,091 samples, 0.12%)</title><rect x="779.7" y="245" width="1.4" height="15.0" fill="rgb(252,216,51)" rx="2" ry="2" />
<text  x="782.73" y="255.5" ></text>
</g>
<g >
<title>load_elf_binary (473,205 samples, 0.06%)</title><rect x="1185.8" y="165" width="0.7" height="15.0" fill="rgb(223,83,20)" rx="2" ry="2" />
<text  x="1188.77" y="175.5" ></text>
</g>
<g >
<title>HFilter16i_C (33,043,249 samples, 4.22%)</title><rect x="176.7" y="261" width="49.9" height="15.0" fill="rgb(241,169,40)" rx="2" ry="2" />
<text  x="179.73" y="271.5" >HFilt..</text>
</g>
<g >
<title>TM16_C (7,384,511 samples, 0.94%)</title><rect x="689.8" y="245" width="11.1" height="15.0" fill="rgb(211,30,7)" rx="2" ry="2" />
<text  x="692.81" y="255.5" ></text>
</g>
<g >
<title>vma_alloc_folio (629,959 samples, 0.08%)</title><rect x="1183.4" y="133" width="1.0" height="15.0" fill="rgb(245,187,44)" rx="2" ry="2" />
<text  x="1186.42" y="143.5" ></text>
</g>
<g >
<title>VL4_C (923,104 samples, 0.12%)</title><rect x="542.7" y="261" width="1.4" height="15.0" fill="rgb(234,136,32)" rx="2" ry="2" />
<text  x="545.75" y="271.5" ></text>
</g>
<g >
<title>TransformOne_C (47,731,334 samples, 6.10%)</title><rect x="706.4" y="245" width="71.9" height="15.0" fill="rgb(218,59,14)" rx="2" ry="2" />
<text  x="709.36" y="255.5" >Transfor..</text>
</g>
<g >
<title>task_tick_fair (421,561 samples, 0.05%)</title><rect x="1173.0" y="69" width="0.7" height="15.0" fill="rgb(217,57,13)" rx="2" ry="2" />
<text  x="1176.04" y="79.5" ></text>
</g>
<g >
<title>FinishRow (923,096 samples, 0.12%)</title><rect x="576.2" y="245" width="1.4" height="15.0" fill="rgb(213,41,9)" rx="2" ry="2" />
<text  x="579.17" y="255.5" ></text>
</g>
<g >
<title>ReconstructRow (6,467,937 samples, 0.83%)</title><rect x="228.0" y="261" width="9.7" height="15.0" fill="rgb(225,93,22)" rx="2" ry="2" />
<text  x="230.95" y="271.5" ></text>
</g>
<g >
<title>[unknown] (197,344,899 samples, 25.22%)</title><rect x="886.8" y="245" width="297.6" height="15.0" fill="rgb(210,24,5)" rx="2" ry="2" />
<text  x="889.78" y="255.5" >[unknown]</text>
</g>
<g >
<title>UpsampleBgraLinePair_C (165,682,756 samples, 21.17%)</title><rect x="256.9" y="261" width="249.9" height="15.0" fill="rgb(252,216,51)" rx="2" ry="2" />
<text  x="259.94" y="271.5" >UpsampleBgraLinePair_C</text>
</g>
<g >
<title>BuildHuffmanTable (3,693,980 samples, 0.47%)</title><rect x="10.0" y="261" width="5.6" height="15.0" fill="rgb(226,101,24)" rx="2" ry="2" />
<text  x="13.00" y="271.5" ></text>
</g>
<g >
<title>scheduler_tick (421,561 samples, 0.05%)</title><rect x="1173.0" y="85" width="0.7" height="15.0" fill="rgb(246,190,45)" rx="2" ry="2" />
<text  x="1176.04" y="95.5" ></text>
</g>
<g >
<title>TM8uv_C (923,696 samples, 0.12%)</title><rect x="700.9" y="245" width="1.4" height="15.0" fill="rgb(247,193,46)" rx="2" ry="2" />
<text  x="703.95" y="255.5" ></text>
</g>
<g >
<title>exc_page_fault (629,959 samples, 0.08%)</title><rect x="1183.4" y="197" width="1.0" height="15.0" fill="rgb(212,35,8)" rx="2" ry="2" />
<text  x="1186.42" y="207.5" ></text>
</g>
<g >
<title>VP8DecodeMB (7,385,487 samples, 0.94%)</title><rect x="544.1" y="261" width="11.2" height="15.0" fill="rgb(208,18,4)" rx="2" ry="2" />
<text  x="547.14" y="271.5" ></text>
</g>
<g >
<title>__handle_mm_fault (490,276 samples, 0.06%)</title><rect x="60.7" y="181" width="0.7" height="15.0" fill="rgb(207,9,2)" rx="2" ry="2" />
<text  x="63.71" y="191.5" ></text>
</g>
<g >
<title>GetCoeffsFast (924,025 samples, 0.12%)</title><rect x="577.6" y="245" width="1.4" height="15.0" fill="rgb(219,64,15)" rx="2" ry="2" />
<text  x="580.56" y="255.5" ></text>
</g>
<g >
<title>VP8ParseIntraModeRow (49,746,015 samples, 6.36%)</title><rect x="811.8" y="245" width="75.0" height="15.0" fill="rgb(231,121,29)" rx="2" ry="2" />
<text  x="814.77" y="255.5" >VP8Parse..</text>
</g>
<g >
<title>__mem_cgroup_charge (490,276 samples, 0.06%)</title><rect x="60.7" y="165" width="0.7" height="15.0" fill="rgb(218,60,14)" rx="2" ry="2" />
<text  x="63.71" y="175.5" ></text>
</g>
<g >
<title>handle_mm_fault (629,959 samples, 0.08%)</title><rect x="1183.4" y="165" width="1.0" height="15.0" fill="rgb(234,135,32)" rx="2" ry="2" />
<text  x="1186.42" y="175.5" ></text>
</g>
<g >
<title>__rcu_read_lock (357,856 samples, 0.05%)</title><rect x="1185.9" y="69" width="0.6" height="15.0" fill="rgb(220,69,16)" rx="2" ry="2" />
<text  x="1188.94" y="79.5" ></text>
</g>
<g >
<title>__memmove_avx_unaligned_erms (1,847,116 samples, 0.24%)</title><rect x="1186.5" y="261" width="2.8" height="15.0" fill="rgb(205,0,0)" rx="2" ry="2" />
<text  x="1189.48" y="271.5" ></text>
</g>
<g >
<title>all (782,506,689 samples, 100%)</title><rect x="10.0" y="293" width="1180.0" height="15.0" fill="rgb(213,39,9)" rx="2" ry="2" />
<text  x="13.00" y="303.5" ></text>
</g>
<g >
<title>hrtimer_interrupt (421,561 samples, 0.05%)</title><rect x="1173.0" y="165" width="0.7" height="15.0" fill="rgb(228,109,26)" rx="2" ry="2" />
<text  x="1176.04" y="175.5" ></text>
</g>
<g >
<title>decode_webp_nat (782,476,701 samples, 100.00%)</title><rect x="10.0" y="277" width="1180.0" height="15.0" fill="rgb(218,61,14)" rx="2" ry="2" />
<text  x="13.00" y="287.5" >decode_webp_nat</text>
</g>
<g >
<title>handle_mm_fault (778,427 samples, 0.10%)</title><rect x="505.6" y="197" width="1.2" height="15.0" fill="rgb(234,135,32)" rx="2" ry="2" />
<text  x="508.61" y="207.5" ></text>
</g>
<g >
<title>asm_exc_page_fault (629,959 samples, 0.08%)</title><rect x="1183.4" y="213" width="1.0" height="15.0" fill="rgb(225,93,22)" rx="2" ry="2" />
<text  x="1186.42" y="223.5" ></text>
</g>
<g >
<title>asm_exc_page_fault (490,276 samples, 0.06%)</title><rect x="60.7" y="245" width="0.7" height="15.0" fill="rgb(225,93,22)" rx="2" ry="2" />
<text  x="63.71" y="255.5" ></text>
</g>
<g >
<title>update_process_times (421,561 samples, 0.05%)</title><rect x="1173.0" y="101" width="0.7" height="15.0" fill="rgb(250,209,50)" rx="2" ry="2" />
<text  x="1176.04" y="111.5" ></text>
</g>
<g >
<title>__handle_mm_fault (629,959 samples, 0.08%)</title><rect x="1183.4" y="149" width="1.0" height="15.0" fill="rgb(207,9,2)" rx="2" ry="2" />
<text  x="1186.42" y="159.5" ></text>
</g>
<g >
<title>__memmove_avx_unaligned_erms (3,402,556 samples, 0.43%)</title><rect x="1179.2" y="229" width="5.2" height="15.0" fill="rgb(205,0,0)" rx="2" ry="2" />
<text  x="1182.24" y="239.5" ></text>
</g>
<g >
<title>FilterLoop24_C (18,902,853 samples, 2.42%)</title><rect x="61.4" y="261" width="28.6" height="15.0" fill="rgb(243,175,42)" rx="2" ry="2" />
<text  x="64.45" y="271.5" >Fi..</text>
</g>
<g >
<title>__folio_alloc (778,427 samples, 0.10%)</title><rect x="505.6" y="149" width="1.2" height="15.0" fill="rgb(224,91,21)" rx="2" ry="2" />
<text  x="508.61" y="159.5" ></text>
</g>
<g >
<title>DispatchAlpha_C (12,925,749 samples, 1.65%)</title><rect x="25.3" y="261" width="19.5" height="15.0" fill="rgb(206,5,1)" rx="2" ry="2" />
<text  x="28.32" y="271.5" ></text>
</g>
<g >
<title>clear_page_rep (629,959 samples, 0.08%)</title><rect x="1183.4" y="69" width="1.0" height="15.0" fill="rgb(253,221,52)" rx="2" ry="2" />
<text  x="1186.42" y="79.5" ></text>
</g>
<g >
<title>tick_sched_handle (421,561 samples, 0.05%)</title><rect x="1173.0" y="117" width="0.7" height="15.0" fill="rgb(219,68,16)" rx="2" ry="2" />
<text  x="1176.04" y="127.5" ></text>
</g>
<g >
<title>GetLargeValue (42,211,697 samples, 5.39%)</title><rect x="579.0" y="245" width="63.6" height="15.0" fill="rgb(243,175,42)" rx="2" ry="2" />
<text  x="581.95" y="255.5" >GetLar..</text>
</g>
<g >
<title>do_user_addr_fault (629,959 samples, 0.08%)</title><rect x="1183.4" y="181" width="1.0" height="15.0" fill="rgb(228,108,25)" rx="2" ry="2" />
<text  x="1186.42" y="191.5" ></text>
</g>
<g >
<title>FilterLoop26_C (51,080,764 samples, 6.53%)</title><rect x="90.0" y="261" width="77.0" height="15.0" fill="rgb(230,116,27)" rx="2" ry="2" />
<text  x="92.95" y="271.5" >FilterLo..</text>
</g>
<g >
<title>kmem_cache_alloc (357,856 samples, 0.05%)</title><rect x="1185.9" y="101" width="0.6" height="15.0" fill="rgb(225,95,22)" rx="2" ry="2" />
<text  x="1188.94" y="111.5" ></text>
</g>
<g >
<title>ExtractGreen_C (10,109,091 samples, 1.29%)</title><rect x="46.2" y="261" width="15.2" height="15.0" fill="rgb(234,134,32)" rx="2" ry="2" />
<text  x="49.20" y="271.5" ></text>
</g>
<g >
<title>__x64_sys_execve (473,205 samples, 0.06%)</title><rect x="1185.8" y="213" width="0.7" height="15.0" fill="rgb(247,193,46)" rx="2" ry="2" />
<text  x="1188.77" y="223.5" ></text>
</g>
<g >
<title>RD4_C (923,606 samples, 0.12%)</title><rect x="226.6" y="261" width="1.4" height="15.0" fill="rgb(212,32,7)" rx="2" ry="2" />
<text  x="229.56" y="271.5" ></text>
</g>
<g >
<title>HE4_C (923,887 samples, 0.12%)</title><rect x="175.3" y="261" width="1.4" height="15.0" fill="rgb(220,70,16)" rx="2" ry="2" />
<text  x="178.34" y="271.5" ></text>
</g>
<g >
<title>GetLargeValue (3,694,816 samples, 0.47%)</title><rect x="1173.7" y="229" width="5.5" height="15.0" fill="rgb(243,175,42)" rx="2" ry="2" />
<text  x="1176.67" y="239.5" ></text>
</g>
<g >
<title>HE8uv_C (1,847,144 samples, 0.24%)</title><rect x="642.6" y="245" width="2.8" height="15.0" fill="rgb(226,98,23)" rx="2" ry="2" />
<text  x="645.61" y="255.5" ></text>
</g>
<g >
<title>[unknown] (409,341,407 samples, 52.31%)</title><rect x="569.2" y="261" width="617.3" height="15.0" fill="rgb(210,24,5)" rx="2" ry="2" />
<text  x="572.21" y="271.5" >[unknown]</text>
</g>
<g >
<title>TM4_C (2,771,659 samples, 0.35%)</title><rect x="237.7" y="261" width="4.2" height="15.0" fill="rgb(241,165,39)" rx="2" ry="2" />
<text  x="240.71" y="271.5" ></text>
</g>
<g >
<title>DC8uvNoTop_C (923,806 samples, 0.12%)</title><rect x="569.2" y="245" width="1.4" height="15.0" fill="rgb(211,27,6)" rx="2" ry="2" />
<text  x="572.21" y="255.5" ></text>
</g>
<g >
<title>asm_exc_page_fault (1,345,596 samples, 0.17%)</title><rect x="504.8" y="245" width="2.0" height="15.0" fill="rgb(225,93,22)" rx="2" ry="2" />
<text  x="507.76" y="255.5" ></text>
</g>
<g >
<title>__folio_alloc (629,959 samples, 0.08%)</title><rect x="1183.4" y="117" width="1.0" height="15.0" fill="rgb(224,91,21)" rx="2" ry="2" />
<text  x="1186.42" y="127.5" ></text>
</g>
<g >
<title>exc_page_fault (490,276 samples, 0.06%)</title><rect x="60.7" y="229" width="0.7" height="15.0" fill="rgb(212,35,8)" rx="2" ry="2" />
<text  x="63.71" y="239.5" ></text>
</g>
<g >
<title>__hrtimer_run_queues (421,561 samples, 0.05%)</title><rect x="1173.0" y="149" width="0.7" height="15.0" fill="rgb(237,150,35)" rx="2" ry="2" />
<text  x="1176.04" y="159.5" ></text>
</g>
<g >
<title>HFilter16_C (15,703,983 samples, 2.01%)</title><rect x="645.4" y="245" width="23.7" height="15.0" fill="rgb(220,69,16)" rx="2" ry="2" />
<text  x="648.39" y="255.5" >H..</text>
</g>
<g >
<title>vma_alloc_folio (778,427 samples, 0.10%)</title><rect x="505.6" y="165" width="1.2" height="15.0" fill="rgb(245,187,44)" rx="2" ry="2" />
<text  x="508.61" y="175.5" ></text>
</g>
<g >
<title>VFilter16i_C (21,161,335 samples, 2.70%)</title><rect x="510.8" y="261" width="31.9" height="15.0" fill="rgb(251,213,51)" rx="2" ry="2" />
<text  x="513.83" y="271.5" >VF..</text>
</g>
<g >
<title>do_user_addr_fault (490,276 samples, 0.06%)</title><rect x="60.7" y="213" width="0.7" height="15.0" fill="rgb(228,108,25)" rx="2" ry="2" />
<text  x="63.71" y="223.5" ></text>
</g>
<g >
<title>sugov_update_single_freq (421,561 samples, 0.05%)</title><rect x="1173.0" y="37" width="0.7" height="15.0" fill="rgb(250,208,49)" rx="2" ry="2" />
<text  x="1176.04" y="47.5" ></text>
</g>
<g >
<title>VP8ParseIntraModeRow (1,847,843 samples, 0.24%)</title><rect x="558.1" y="261" width="2.7" height="15.0" fill="rgb(231,121,29)" rx="2" ry="2" />
<text  x="561.06" y="271.5" ></text>
</g>
<g >
<title>begin_new_exec (115,349 samples, 0.01%)</title><rect x="1185.8" y="149" width="0.1" height="15.0" fill="rgb(245,184,44)" rx="2" ry="2" />
<text  x="1188.77" y="159.5" ></text>
</g>
<g >
<title>get_page_from_freelist (778,427 samples, 0.10%)</title><rect x="505.6" y="117" width="1.2" height="15.0" fill="rgb(252,218,52)" rx="2" ry="2" />
<text  x="508.61" y="127.5" ></text>
</g>
<g >
<title>VP8ParseProba (3,695,867 samples, 0.47%)</title><rect x="560.8" y="261" width="5.6" height="15.0" fill="rgb(224,88,21)" rx="2" ry="2" />
<text  x="563.85" y="271.5" ></text>
</g>
<g >
<title>map_vdso (357,856 samples, 0.05%)</title><rect x="1185.9" y="149" width="0.6" height="15.0" fill="rgb(227,103,24)" rx="2" ry="2" />
<text  x="1188.94" y="159.5" ></text>
</g>
<g >
<title>bprm_execve (473,205 samples, 0.06%)</title><rect x="1185.8" y="181" width="0.7" height="15.0" fill="rgb(218,61,14)" rx="2" ry="2" />
<text  x="1188.77" y="191.5" ></text>
</g>
<g >
<title>TransformAC3_C (5,537,396 samples, 0.71%)</title><rect x="241.9" y="261" width="8.3" height="15.0" fill="rgb(209,19,4)" rx="2" ry="2" />
<text  x="244.89" y="271.5" ></text>
</g>
<g >
<title>__sysvec_apic_timer_interrupt (421,561 samples, 0.05%)</title><rect x="1173.0" y="181" width="0.7" height="15.0" fill="rgb(242,173,41)" rx="2" ry="2" />
<text  x="1176.04" y="191.5" ></text>
</g>
<g >
<title>DecodeImageData (19,365,762 samples, 2.47%)</title><rect x="886.8" y="229" width="29.2" height="15.0" fill="rgb(254,229,54)" rx="2" ry="2" />
<text  x="889.78" y="239.5" >De..</text>
</g>
<g >
<title>VE4_C (2,684,628 samples, 0.34%)</title><rect x="506.8" y="261" width="4.0" height="15.0" fill="rgb(229,114,27)" rx="2" ry="2" />
<text  x="509.79" y="271.5" ></text>
</g>
<g >
<title>update_load_avg (421,561 samples, 0.05%)</title><rect x="1173.0" y="53" width="0.7" height="15.0" fill="rgb(240,165,39)" rx="2" ry="2" />
<text  x="1176.04" y="63.5" ></text>
</g>
<g >
<title>__alloc_pages (778,427 samples, 0.10%)</title><rect x="505.6" y="133" width="1.2" height="15.0" fill="rgb(233,129,30)" rx="2" ry="2" />
<text  x="508.61" y="143.5" ></text>
</g>
<g >
<title>do_user_addr_fault (778,427 samples, 0.10%)</title><rect x="505.6" y="213" width="1.2" height="15.0" fill="rgb(228,108,25)" rx="2" ry="2" />
<text  x="508.61" y="223.5" ></text>
</g>
<g >
<title>HFilter8i_C (7,289,736 samples, 0.93%)</title><rect x="669.1" y="245" width="11.0" height="15.0" fill="rgb(245,186,44)" rx="2" ry="2" />
<text  x="672.07" y="255.5" ></text>
</g>
<g >
<title>vm_area_alloc (357,856 samples, 0.05%)</title><rect x="1185.9" y="117" width="0.6" height="15.0" fill="rgb(249,203,48)" rx="2" ry="2" />
<text  x="1188.94" y="127.5" ></text>
</g>
<g >
<title>VR4_C (1,847,402 samples, 0.24%)</title><rect x="566.4" y="261" width="2.8" height="15.0" fill="rgb(245,187,44)" rx="2" ry="2" />
<text  x="569.42" y="271.5" ></text>
</g>
<g >
<title>GetCoeffsFast (170,881,765 samples, 21.84%)</title><rect x="916.0" y="229" width="257.7" height="15.0" fill="rgb(219,64,15)" rx="2" ry="2" />
<text  x="918.99" y="239.5" >GetCoeffsFast</text>
</g>
<g >
<title>VP8DecodeMB (19,397,784 samples, 2.48%)</title><rect x="782.5" y="245" width="29.3" height="15.0" fill="rgb(208,18,4)" rx="2" ry="2" />
<text  x="785.52" y="255.5" >VP..</text>
</g>
<g >
<title>get_mem_cgroup_from_mm (490,276 samples, 0.06%)</title><rect x="60.7" y="149" width="0.7" height="15.0" fill="rgb(218,61,14)" rx="2" ry="2" />
<text  x="63.71" y="159.5" ></text>
</g>
<g >
<title>tick_sched_timer (421,561 samples, 0.05%)</title><rect x="1173.0" y="133" width="0.7" height="15.0" fill="rgb(254,227,54)" rx="2" ry="2" />
<text  x="1176.04" y="143.5" ></text>
</g>
<g >
<title>VP8GetValue (1,846,912 samples, 0.24%)</title><rect x="555.3" y="261" width="2.8" height="15.0" fill="rgb(230,119,28)" rx="2" ry="2" />
<text  x="558.27" y="271.5" ></text>
</g>
<g >
<title>exc_page_fault (778,427 samples, 0.10%)</title><rect x="505.6" y="229" width="1.2" height="15.0" fill="rgb(212,35,8)" rx="2" ry="2" />
<text  x="508.61" y="239.5" ></text>
</g>
<g >
<title>TransformDC_C (4,445,165 samples, 0.57%)</title><rect x="250.2" y="261" width="6.7" height="15.0" fill="rgb(219,65,15)" rx="2" ry="2" />
<text  x="253.24" y="271.5" ></text>
</g>
<g >
<title>TransformDC_C (2,664,080 samples, 0.34%)</title><rect x="702.3" y="245" width="4.1" height="15.0" fill="rgb(219,65,15)" rx="2" ry="2" />
<text  x="705.34" y="255.5" ></text>
</g>
<g >
<title>do_syscall_64 (473,205 samples, 0.06%)</title><rect x="1185.8" y="229" width="0.7" height="15.0" fill="rgb(209,20,4)" rx="2" ry="2" />
<text  x="1188.77" y="239.5" ></text>
</g>
<g >
<title>memcg_slab_post_alloc_hook (357,856 samples, 0.05%)</title><rect x="1185.9" y="85" width="0.6" height="15.0" fill="rgb(234,135,32)" rx="2" ry="2" />
<text  x="1188.94" y="95.5" ></text>
</g>
<g >
<title>__alloc_pages (629,959 samples, 0.08%)</title><rect x="1183.4" y="101" width="1.0" height="15.0" fill="rgb(233,129,30)" rx="2" ry="2" />
<text  x="1186.42" y="111.5" ></text>
</g>
<g >
<title>VFilter16_C (924,253 samples, 0.12%)</title><rect x="781.1" y="245" width="1.4" height="15.0" fill="rgb(229,113,27)" rx="2" ry="2" />
<text  x="784.12" y="255.5" ></text>
</g>
<g >
<title>entry_SYSCALL_64_after_hwframe (473,205 samples, 0.06%)</title><rect x="1185.8" y="245" width="0.7" height="15.0" fill="rgb(218,63,15)" rx="2" ry="2" />
<text  x="1188.77" y="255.5" ></text>
</g>
<g >
<title>GetCoeffsFast (5,542,229 samples, 0.71%)</title><rect x="167.0" y="261" width="8.3" height="15.0" fill="rgb(219,64,15)" rx="2" ry="2" />
<text  x="169.98" y="271.5" ></text>
</g>
<g >
<title>flush_signal_handlers (115,349 samples, 0.01%)</title><rect x="1185.8" y="133" width="0.1" height="15.0" fill="rgb(253,221,53)" rx="2" ry="2" />
<text  x="1188.77" y="143.5" ></text>
</g>
<g >
<title>ReconstructRow (6,463,552 samples, 0.83%)</title><rect x="680.1" y="245" width="9.7" height="15.0" fill="rgb(225,93,22)" rx="2" ry="2" />
<text  x="683.07" y="255.5" ></text>
</g>
<g >
<title>asm_sysvec_apic_timer_interrupt (421,561 samples, 0.05%)</title><rect x="1173.0" y="213" width="0.7" height="15.0" fill="rgb(232,127,30)" rx="2" ry="2" />
<text  x="1176.04" y="223.5" ></text>
</g>
<g >
<title>sysvec_apic_timer_interrupt (421,561 samples, 0.05%)</title><rect x="1173.0" y="197" width="0.7" height="15.0" fill="rgb(220,69,16)" rx="2" ry="2" />
<text  x="1176.04" y="207.5" ></text>
</g>
<g >
<title>DC8uv_C (2,769,886 samples, 0.35%)</title><rect x="570.6" y="245" width="4.2" height="15.0" fill="rgb(215,46,11)" rx="2" ry="2" />
<text  x="573.60" y="255.5" ></text>
</g>
<g >
<title>FilterLoop26_C (923,409 samples, 0.12%)</title><rect x="574.8" y="245" width="1.4" height="15.0" fill="rgb(230,116,27)" rx="2" ry="2" />
<text  x="577.78" y="255.5" ></text>
</g>
<g >
<title>__handle_mm_fault (778,427 samples, 0.10%)</title><rect x="505.6" y="181" width="1.2" height="15.0" fill="rgb(207,9,2)" rx="2" ry="2" />
<text  x="508.61" y="191.5" ></text>
</g>
<g >
<title>__memmove_avx_unaligned_erms (924,098 samples, 0.12%)</title><rect x="1184.4" y="245" width="1.4" height="15.0" fill="rgb(205,0,0)" rx="2" ry="2" />
<text  x="1187.37" y="255.5" ></text>
</g>
<g >
<title>DC4_C (6,467,345 samples, 0.83%)</title><rect x="15.6" y="261" width="9.7" height="15.0" fill="rgb(209,18,4)" rx="2" ry="2" />
<text  x="18.57" y="271.5" ></text>
</g>
<g >
<title>ExtractAlphaRows (921,823 samples, 0.12%)</title><rect x="44.8" y="261" width="1.4" height="15.0" fill="rgb(243,177,42)" rx="2" ry="2" />
<text  x="47.81" y="271.5" ></text>
</g>
<g >
<title>get_page_from_freelist (629,959 samples, 0.08%)</title><rect x="1183.4" y="85" width="1.0" height="15.0" fill="rgb(252,218,52)" rx="2" ry="2" />
<text  x="1186.42" y="95.5" ></text>
</g>
<g >
<title>TransformTwo_C (924,107 samples, 0.12%)</title><rect x="778.3" y="245" width="1.4" height="15.0" fill="rgb(212,36,8)" rx="2" ry="2" />
<text  x="781.34" y="255.5" ></text>
</g>
<g >
<title>__install_special_mapping (357,856 samples, 0.05%)</title><rect x="1185.9" y="133" width="0.6" height="15.0" fill="rgb(212,35,8)" rx="2" ry="2" />
<text  x="1188.94" y="143.5" ></text>
</g>
<g >
<title>malloc (456,111 samples, 0.06%)</title><rect x="1189.3" y="261" width="0.7" height="15.0" fill="rgb(230,119,28)" rx="2" ry="2" />
<text  x="1192.27" y="271.5" ></text>
</g>
</g>
</svg>
